<svg xmlns="http://www.w3.org/2000/svg" xmlns:xlink="http://www.w3.org/1999/xlink" style="vertical-align:-.838ex" viewBox="0 -863.1 6478.7 1223.9"><defs><path id="a" d="M42 313q0 163 81 258t180 95q69 0 99-36t30-80q0-25-14-40t-39-15q-23 0-38 14t-15 39q0 44 47 53-22 22-62 25-71 0-117-60-47-66-47-202l1-4q5 6 8 13 41 60 107 60h4q46 0 81-19 24-14 48-40t39-57q21-49 21-107v-18q0-23-5-43-11-59-64-115T253-22q-28 0-54 8t-56 30-51 59-36 97-14 141zm215 84q-30 0-52-17t-34-45-17-57-6-62q0-83 12-119t38-58q24-18 53-18 51 0 78 38 13 18 18 45t5 105q0 80-5 107t-18 45q-27 36-72 36z"/><path id="b" d="M96 585q56 81 153 81 48 0 96-26t78-92q37-83 37-228 0-155-43-237-20-42-55-67t-61-31-51-7q-26 0-52 6t-61 32-55 67q-43 82-43 237 0 174 57 265zm225 12q-30 32-71 32-42 0-72-32-25-26-33-72t-8-192q0-158 8-208t36-79q28-30 69-30 40 0 68 30 29 30 36 84t8 203q0 145-8 191t-33 73z"/><path id="c" d="M89 177q26 0 44-17t19-48q0-24-15-40t-35-20q-3-1-1-3 5-6 28-20 30-14 61-14 42 0 66 33t30 78v112q0 29 1 68t0 72v146q0 21-1 39t0 30 0 21v7q-5 9-23 12t-81 4h-28v46h12q21-3 166-3 107 0 125 3h8v-46h-16q-27 0-48-3-8-3-12-11-1-2-1-247t-1-253q-10-62-65-103T194-22q-6 0-17 1t-17 1Q96-9 61 29t-36 81q0 34 19 50t45 17z"/><path id="d" d="M423 750q9 0 15-6t6-14q0-5-173-482T92-240q-7-10-17-10-7 0-13 5t-6 14q0 10 174 488t177 483q4 10 16 10z"/><path id="e" d="M213 578l-13-5q-14-5-40-10t-58-7H83v46h19q47 2 87 15t56 24 28 22q2 3 12 3 9 0 17-6V361l1-300q7-7 12-9t24-4 62-2h26V0h-11q-21 3-159 3-136 0-157-3H88v46h64q16 0 25 1t16 3 8 2 6 5 6 4v517z"/><path id="f" d="M70 417v77l54 124 124 48q71 0 126-42t55-109q0-30-11-56t-26-42-31-28-26-18-11-8l14-9 28-20q14-10 16-11 75-59 75-149 0-79-58-137T249-22q-90 0-148 51T43 155q0 108 129 180l-18 13q-21 13-27 20-57 49-57 126zm216-31l6 4 9 6q3 2 10 7t12 10 11 12 11 13 10 16 9 17 5 20 2 22q0 43-29 73t-67 38q-7 1-33 1-41 0-77-26t-37-65q0-23 13-42t26-29 50-32q7-5 11-7l58-38zM250 21q58 0 100 34t42 82q0 17-5 32t-12 25-22 22-23 18-29 19-27 17q-14 9-30 19t-26 17l-8 5q-6 0-29-17t-48-55-26-82q0-59 43-97t100-39z"/><path id="g" d="M78 35v25l16 43 43 18q28 0 50-25t23-88q0-35-9-68t-21-57-26-41-24-27-13-9q-4 0-13 9t-9 13q0 4 11 16t25 30 26 50 16 73V9l-1-1q-2-1-5-2t-6-3-9-2-12-1q-27 0-44 17z"/></defs><g fill="currentColor" stroke="currentColor" stroke-width="0" transform="scale(1 -1)"><use xlink:href="#a"/><use x="500" xlink:href="#b"/><use x="1001" xlink:href="#b"/><use x="1751" xlink:href="#c"/><use x="2266" xlink:href="#d"/><g transform="translate(2766)"><use xlink:href="#e"/><use x="500" xlink:href="#f"/></g><use x="3767" xlink:href="#g"/><g transform="translate(4212)"><use xlink:href="#b"/><use x="500" xlink:href="#b"/><use x="1001" xlink:href="#b"/></g><use x="5964" xlink:href="#c"/></g></svg>