<svg xmlns="http://www.w3.org/2000/svg" xmlns:xlink="http://www.w3.org/1999/xlink" style="vertical-align:-.838ex" viewBox="0 -863.1 8410.4 1223.9"><defs><path id="a" d="M164 157q0-24-16-40t-39-16h-7q46-79 122-79 70 0 102 60 19 33 19 128 0 103-27 139-26 33-58 33h-6q-78 0-118-68-4-7-7-8t-15-2q-17 0-19 6-2 4-2 175v129q0 50 5 50 2 2 4 2 1 0 21-8t55-16 75-8q71 0 136 28 8 4 13 4 8 0 8-18v-13q-82-97-205-97-31 0-56 6l-10 2V374q19 14 30 22t36 16 51 8q81 0 137-65t56-154q0-92-64-157T229-22q-81 0-130 54T50 154q0 24 11 38t23 18 23 4q25 0 41-17t16-40z"/><path id="b" d="M792 683q18-3 122-3 77 0 89 3h6v-46h-13q-65-4-81-39-3-7-52-160t-97-303-50-152q-5-5-22-5-18 0-21 7-2 2-80 246l-79 246-79-243q-19-60-44-142T358-6t-17-16h-10q-17 1-21 7-1 1-102 317T104 622q-6 10-17 11-14 4-52 4H18v46h9q42-2 127-2h62q18 0 33 1t27 1h22v-46h-13q-72 0-72-17 0-4 76-239l75-237 63 195q63 196 65 207-5 14-10 32t-7 24-7 16-7 10-12 5-16 3-25 1h-28v46h8q9-3 120-3 121 0 142 3h10v-46h-13q-71 0-71-18l151-473q142 434 142 454 0 5-6 12t-24 15-45 10h-11v46h9z"/><path id="c" d="M41 46h14q39 0 47 14v107q0 24 1 50t0 55 0 57v153q0 34-1 60t0 44 0 17q-3 19-14 25t-45 9H25v23q0 23 2 23l10 1q10 1 29 2t37 2 37 2 30 3 11 1h3V367q60 75 144 75 123 0 135-113 1-7 1-139v-86q0-38 2-45t11-10q21-3 49-3h16V0h-8l-24 1q-23 1-50 1t-38 1Q319 3 310 0h-8v46h16q61 0 61 16 1 2 1 138-1 135-2 143-6 28-20 42t-24 17-26 2q-45 0-79-34-27-27-34-55t-8-83V108q0-30 1-40t3-13 9-6q21-3 49-3h16V0h-8l-23 1q-24 1-51 1t-38 1Q42 3 33 0h-8v46h16z"/><path id="d" d="M630 29q0-20-21-20-5 0-22 16t-94 93L389 222 284 117Q178 13 175 11q-4-2-7-2-8 0-14 6t-7 14q0 7 14 22t94 95l104 104-104 104q-81 81-94 95t-14 22q0 9 6 14t15 5q5 0 7-1 3-2 109-106l105-105 104 104q77 77 94 93t22 16q21 0 21-20 0-7-10-18t-98-98L418 250l104-105q84-84 96-97t12-19z"/><path id="e" d="M127 463q-27 0-42 17t-16 44q0 55 48 98t116 43q35 0 44-1 74-12 113-53t40-89q0-52-34-101t-94-71l-3-2q0-1 9-3t29-9 38-21q82-53 82-140 0-79-62-138T238-22q-80 0-138 43T42 130q0 28 18 45t45 18q28 0 46-18t18-45q0-11-3-20t-7-16-11-12-12-8-10-4-8-3l-4-1q51-45 124-45 55 0 83 53 17 33 17 101v20q0 95-64 127-15 6-61 7l-42 1-3 2q-2 3-2 16 0 18 8 18 28 0 58 5 34 5 62 42t28 112v8q0 57-35 79-22 14-47 14-32 0-59-11t-38-23-11-12h3q3-1 8-2t10-5 12-7 10-11 8-15 3-20q0-22-14-39t-45-18z"/><path id="f" d="M42 313q0 163 81 258t180 95q69 0 99-36t30-80q0-25-14-40t-39-15q-23 0-38 14t-15 39q0 44 47 53-22 22-62 25-71 0-117-60-47-66-47-202l1-4q5 6 8 13 41 60 107 60h4q46 0 81-19 24-14 48-40t39-57q21-49 21-107v-18q0-23-5-43-11-59-64-115T253-22q-28 0-54 8t-56 30-51 59-36 97-14 141zm215 84q-30 0-52-17t-34-45-17-57-6-62q0-83 12-119t38-58q24-18 53-18 51 0 78 38 13 18 18 45t5 105q0 80-5 107t-18 45q-27 36-72 36z"/><path id="g" d="M96 585q56 81 153 81 48 0 96-26t78-92q37-83 37-228 0-155-43-237-20-42-55-67t-61-31-51-7q-26 0-52 6t-61 32-55 67q-43 82-43 237 0 174 57 265zm225 12q-30 32-71 32-42 0-72-32-25-26-33-72t-8-192q0-158 8-208t36-79q28-30 69-30 40 0 68 30 29 30 36 84t8 203q0 145-8 191t-33 73z"/><path id="h" d="M89 177q26 0 44-17t19-48q0-24-15-40t-35-20q-3-1-1-3 5-6 28-20 30-14 61-14 42 0 66 33t30 78v112q0 29 1 68t0 72v146q0 21-1 39t0 30 0 21v7q-5 9-23 12t-81 4h-28v46h12q21-3 166-3 107 0 125 3h8v-46h-16q-27 0-48-3-8-3-12-11-1-2-1-247t-1-253q-10-62-65-103T194-22q-6 0-17 1t-17 1Q96-9 61 29t-36 81q0 34 19 50t45 17z"/><path id="i" d="M423 750q9 0 15-6t6-14q0-5-173-482T92-240q-7-10-17-10-7 0-13 5t-6 14q0 10 174 488t177 483q4 10 16 10z"/></defs><g fill="currentColor" stroke="currentColor" stroke-width="0" transform="scale(1 -1)"><use xlink:href="#a"/><g transform="translate(750)"><use xlink:href="#b"/><use x="1028" xlink:href="#c"/></g><use x="2557" xlink:href="#d"/><g transform="translate(3558)"><use xlink:href="#e"/><use x="500" xlink:href="#f"/><use x="1001" xlink:href="#g"/><use x="1501" xlink:href="#g"/></g><g transform="translate(5810)"><use xlink:href="#h"/><use x="514" xlink:href="#i"/><use x="1015" xlink:href="#b"/><use x="2043" xlink:href="#c"/></g></g></svg>