<svg xmlns="http://www.w3.org/2000/svg" xmlns:xlink="http://www.w3.org/1999/xlink" style="vertical-align:-.838ex" viewBox="0 -863.1 5502.4 1223.9"><defs><path id="a" d="M234 637h-8q-25 0-30 1t-5 11q0 27 11 33 2 1 97 1h88q11 0 14-6 211-496 215-509l54 213q53 211 53 225 0 27-64 31-24 0-24 11 0 2 2 12 4 16 6 19t10 4q3 0 31-1t83-2q50 0 76 1t30 1q15 0 15-10 0-22-8-30-2-5-22-5-71-4-89-40L620 7q-2-7-21-7-14 0-17 2-3 3-129 303L326 604l-65-260Q196 88 196 79q5-33 72-33h10q6-5 6-8t-2-19q-4-13-10-19h-13q-31 2-108 2H63Q49 2 46 1q-15 0-15 9 0 4 3 16t5 14q2 6 23 6 68 3 88 39 4 6 71 277l68 272q-2 1-55 3z"/><path id="b" d="M630 29q0-20-21-20-5 0-22 16t-94 93L389 222 284 117Q178 13 175 11q-4-2-7-2-8 0-14 6t-7 14q0 7 14 22t94 95l104 104-104 104q-81 81-94 95t-14 22q0 9 6 14t15 5q5 0 7-1 3-2 109-106l105-105 104 104q77 77 94 93t22 16q21 0 21-20 0-7-10-18t-98-98L418 250l104-105q84-84 96-97t12-19z"/><path id="c" d="M94 250q0 69 10 131t23 107 37 88 38 67 42 52 33 34 25 21h17q14 0 14-9 0-3-17-21t-41-53-49-86-42-138-17-193 17-192 41-139 49-86 42-53 17-21q0-9-15-9h-16l-28 24q-94 85-137 212T94 250z"/><path id="d" d="M84 237v13l14 20h581q15-8 15-20t-15-20H98q-14 7-14 20z"/><path id="e" d="M213 578l-13-5q-14-5-40-10t-58-7H83v46h19q47 2 87 15t56 24 28 22q2 3 12 3 9 0 17-6V361l1-300q7-7 12-9t24-4 62-2h26V0h-11q-21 3-159 3-136 0-157-3H88v46h64q16 0 25 1t16 3 8 2 6 5 6 4v517z"/><path id="f" d="M60 749l4 1h22l28-24q94-85 137-212t43-264q0-68-10-131T261 12t-37-88-38-67-41-51-32-33-23-19l-4-4H63q-3 0-5 3t-3 9q1 1 11 13Q221-64 221 250T66 725q-10 12-11 13 0 8 5 11z"/></defs><g fill="currentColor" stroke="currentColor" stroke-width="0" transform="scale(1 -1)"><use xlink:href="#a"/><use x="1110" xlink:href="#b"/><use x="2111" xlink:href="#c"/><use x="2500" xlink:href="#a"/><use x="3611" xlink:href="#d"/><use x="4612" xlink:href="#e"/><use x="5112" xlink:href="#f"/></g></svg>