<svg xmlns="http://www.w3.org/2000/svg" xmlns:xlink="http://www.w3.org/1999/xlink" style="vertical-align:-5.171ex" viewBox="0 -2728.8 23812.7 4955.4"><defs><path id="a" d="M213 578l-13-5q-14-5-40-10t-58-7H83v46h19q47 2 87 15t56 24 28 22q2 3 12 3 9 0 17-6V361l1-300q7-7 12-9t24-4 62-2h26V0h-11q-21 3-159 3-136 0-157-3H88v46h64q16 0 25 1t16 3 8 2 6 5 6 4v517z"/><path id="b" d="M96 585q56 81 153 81 48 0 96-26t78-92q37-83 37-228 0-155-43-237-20-42-55-67t-61-31-51-7q-26 0-52 6t-61 32-55 67q-43 82-43 237 0 174 57 265zm225 12q-30 32-71 32-42 0-72-32-25-26-33-72t-8-192q0-158 8-208t36-79q28-30 69-30 40 0 68 30 29 30 36 84t8 203q0 145-8 191t-33 73z"/><path id="c" d="M132 622q-7 7-11 9t-16 3-43 3H29v46h106q86 0 97-1t17-7q1-1 105-277l104-274 104 274q104 276 106 277 3 6 15 7t98 1h106v-46h-33q-40-1-51-3t-18-12V61q6-10 17-12t52-3h33V0h-11q-21 3-140 3-131 0-140-3h-11v46h33q42 1 51 3t19 12v552l-1 19Q454 14 450 7q-4-6-20-6t-20 6q-1 2-118 309L176 624v-18q-1-18-1-63t0-80 0-107l1-270q11-36 85-40h17V0h-9q-15 3-115 3Q52 3 37 0h-8v46h17q32 2 52 10t24 13 10 17v536z"/><path id="d" d="M307-11q-73 0-139 66l-10-18q-2-3-5-9t-6-11-4-7l-5-9-20-1H98v298q0 301-1 305-3 19-14 25t-45 9H20v23q0 23 2 23l10 1q10 1 29 2t37 2 37 2 30 3 11 1h3V543q0-152 1-152l3 3q3 3 9 7t15 10 21 10 26 10 32 8 37 3q78 0 138-63t61-163q0-101-64-164T307-11zM182 98q0-1 5-8t9-11 10-12 12-12 15-11 17-9 21-6 24-3q35 0 68 20t49 67q12 35 12 99 0 75-12 111-27 82-112 82-30 0-61-15t-51-43l-6-8V98z"/><path id="e" d="M36-148h14q39 0 47 14v57q0 18 1 39t0 44 0 49 0 51v190q0 24-1 39t0 16q-3 19-14 25t-45 9H20v23q0 23 2 23l10 1q10 1 29 2t37 2 37 2 30 3 11 1h3v-26l1-26 8 7q59 44 138 44 81 0 138-64t58-161q0-101-65-164T310-11q-68 0-120 44l-8 7v-141q0-27 2-33t11-11q21-3 49-3h16v-46h-8l-24 1q-23 1-50 1t-38 1q-103 0-112-3h-8v46h16zm388 366q0 74-34 129t-85 55q-71 0-123-65V98q40-72 112-72 51 0 90 54t40 138z"/><path id="f" d="M295 316q0 40-27 69t-78 29q-36 0-62-13-30-19-30-52-1-5 0-13t16-24 43-25q18-5 44-9t44-9 32-13q17-8 33-20t32-41 17-62q0-62-38-102T198-10h-8q-52 0-96 36l-8-7-9-9Q71 4 65-1L54-11H42q-3 0-9 6v137q0 21 2 25t10 5h9q12 0 16-4t5-12 7-27 19-42q35-51 97-51 97 0 97 78 0 29-18 47-20 24-83 36t-83 23q-36 17-57 46t-21 62q0 39 17 66t43 40 50 18 44 5h11q40 0 70-15l15-8 9 7q10 9 22 17h12q3 0 9-6V310l-6-6h-28q-6 6-6 12z"/><path id="g" d="M56 347q0 13 14 20h637q15-8 15-20 0-11-14-19l-318-1H72q-16 5-16 20zm0-194q0 15 16 20h636q14-10 14-20 0-13-15-20H70q-14 7-14 20z"/><path id="h" d="M630 29q0-20-21-20-5 0-22 16t-94 93L389 222 284 117Q178 13 175 11q-4-2-7-2-8 0-14 6t-7 14q0 7 14 22t94 95l104 104-104 104q-81 81-94 95t-14 22q0 9 6 14t15 5q5 0 7-1 3-2 109-106l105-105 104 104q77 77 94 93t22 16q21 0 21-20 0-7-10-18t-98-98L418 250l104-105q84-84 96-97t12-19z"/><path id="i" d="M78 35v25l16 43 43 18q28 0 50-25t23-88q0-35-9-68t-21-57-26-41-24-27-13-9q-4 0-13 9t-9 13q0 4 11 16t25 30 26 50 16 73V9l-1-1q-2-1-5-2t-6-3-9-2-12-1q-27 0-44 17z"/><path id="j" d="M69 609q0 28 18 44t44 16q23-2 40-17t17-43q0-30-17-45t-42-15q-25 0-42 15t-18 45zM247 0q-15 3-104 3h-37Q80 3 56 1L34 0h-8v46h16q28 0 49 3 9 4 11 11t2 42v191q0 52-2 66t-14 19q-14 7-47 7H30v23q0 23 2 23l10 1q10 1 28 2t36 2 36 2 29 3 11 1h3V62q5-10 12-12t35-4h23V0h-8z"/><path id="k" d="M27 422q53 4 82 56t32 122v15h40V431h135v-46H181V241q1-125 1-141t7-32q14-39 49-39 44 0 54 71 1 8 1 46v35h40v-47q0-77-42-117-27-27-70-27-34 0-59 12t-38 31-19 35-7 32q-1 7-1 148v137H18v37h9z"/><path id="l" d="M423 750q9 0 15-6t6-14q0-5-173-482T92-240q-7-10-17-10-7 0-13 5t-6 14q0 10 174 488t177 483q4 10 16 10z"/><path id="m" d="M70 417v77l54 124 124 48q71 0 126-42t55-109q0-30-11-56t-26-42-31-28-26-18-11-8l14-9 28-20q14-10 16-11 75-59 75-149 0-79-58-137T249-22q-90 0-148 51T43 155q0 108 129 180l-18 13q-21 13-27 20-57 49-57 126zm216-31l6 4 9 6q3 2 10 7t12 10 11 12 11 13 10 16 9 17 5 20 2 22q0 43-29 73t-67 38q-7 1-33 1-41 0-77-26t-37-65q0-23 13-42t26-29 50-32q7-5 11-7l58-38zM250 21q58 0 100 34t42 82q0 17-5 32t-12 25-22 22-23 18-29 19-27 17q-14 9-30 19t-26 17l-8 5q-6 0-29-17t-48-55-26-82q0-59 43-97t100-39z"/><path id="n" d="M109 429q-27 0-43 18t-16 44q0 71 53 123t132 52q91 0 152-56t62-145q0-43-20-82t-48-68-80-74q-36-31-100-92l-59-56 76-1q157 0 167 5 7 2 24 89v3h40v-3q-1-3-13-91T421 3V0H50v31q0 7 6 15t30 35q29 32 50 56 9 10 34 37t34 37 29 33 28 34 23 30 21 32 15 29 13 32 7 30 3 33q0 63-34 109t-97 46q-33 0-58-17t-35-33-10-19q0-1 5-1 18 0 37-14t19-46q0-25-16-42t-45-18z"/><path id="o" d="M462 0q-18 3-129 3-116 0-134-3h-9v46h58q7 0 17 2t14 5 7 8q1 2 1 54v50H28v46l151 231q153 232 155 233 2 2 21 2h18l6-6V211h92v-46h-92V66q0-7 6-12 8-7 57-8h29V0h-9zM293 211v334L74 212l109-1h110z"/><path id="p" d="M128 622q-7 7-11 9t-16 3-43 3H25v46h11q21-3 144-3 135 0 144 3h11v-46h-22q-78 0-80-17-1-2-1-158l1-155 146 142q46 45 100 97 39 38 45 45t7 16v1q0 22-28 28h-5q-3 0-5 1h-4v46h10q18-3 131-3 74 0 86 3h6v-46h-14q-75-4-119-40-5-5-94-91t-89-87 109-165T631 80q13-20 31-26t53-8h21V0h-8q-9 3-113 3-122 0-143-3h-11v46h8q46 0 46 26 0 6-3 12L336 351q-4-3-58-55l-46-45v-95q0-94 3-98 8-11 67-12h33V0h-11q-21 3-144 3Q45 3 36 0H25v46h33q42 1 51 3t19 12v561z"/><path id="q" d="M131 622q-7 7-11 9t-16 3-43 3H28v46h318q77 0 113-5t72-27q43-24 68-61t25-78q0-51-41-93t-107-59l-10-3q73-9 129-55t56-115q0-68-51-120T469 3q-13-2-227-3H28v46h33q42 1 51 3t19 12v561zm380-109q0 47-26 81t-69 42h-45q-20 0-38 1-67 0-82-1t-19-8q-3-4-3-129V374h83l84 1 10 2q4 1 11 3t25 13 32 24 25 39 12 57zm26-325q0 51-28 94t-79 54l-101 1H229V116q0-59 5-64 6-5 100-5h49q42 0 60 6 43 14 68 51t26 84z"/><path id="r" d="M78 60q0 24 17 42t43 18q24 0 42-16t19-43q0-25-17-43T139 0 96 17 78 60z"/></defs><g fill="currentColor" stroke="currentColor" stroke-width="0"><g transform="matrix(1 0 0 -1 2774 -1852)"><use xlink:href="#a"/><use x="500" xlink:href="#b"/><g transform="translate(1251)"><use xlink:href="#c"/><use x="917" xlink:href="#d"/><use x="1474" xlink:href="#e"/><use x="2030" xlink:href="#f"/></g><use x="3953" xlink:href="#g"/><g transform="translate(5010)"><use xlink:href="#a"/><use x="500" xlink:href="#b"/></g><use x="6233" xlink:href="#h"/><use x="7234" xlink:href="#a"/><use x="7734" xlink:href="#i"/><g transform="translate(8179)"><use xlink:href="#b"/><use x="500" xlink:href="#b"/><use x="1001" xlink:href="#b"/></g><use x="9681" xlink:href="#i"/><g transform="translate(10126)"><use xlink:href="#b"/><use x="500" xlink:href="#b"/><use x="1001" xlink:href="#b"/></g></g><g transform="matrix(1 0 0 -1 156 81)"><use xlink:href="#a"/><use x="500" xlink:href="#b"/><use x="1001" xlink:href="#i"/><g transform="translate(1446)"><use xlink:href="#b"/><use x="500" xlink:href="#b"/><use x="1001" xlink:href="#b"/></g><use x="2947" xlink:href="#i"/><g transform="translate(3392)"><use xlink:href="#b"/><use x="500" xlink:href="#b"/><use x="1001" xlink:href="#b"/></g><g transform="translate(5144)"><use xlink:href="#d"/><use x="556" xlink:href="#j"/><use x="835" xlink:href="#k"/><use x="1224" xlink:href="#f"/><use x="1619" xlink:href="#l"/><use x="2119" xlink:href="#f"/></g><use x="7936" xlink:href="#g"/><path stroke="none" d="M9111 220h5014v60H9111z"/><g transform="translate(9171 715)"><use xlink:href="#a"/><use x="500" xlink:href="#b"/><use x="1001" xlink:href="#i"/><g transform="translate(1446)"><use xlink:href="#b"/><use x="500" xlink:href="#b"/><use x="1001" xlink:href="#b"/></g><use x="2947" xlink:href="#i"/><g transform="translate(3392)"><use xlink:href="#b"/><use x="500" xlink:href="#b"/><use x="1001" xlink:href="#b"/></g></g><g transform="translate(9755 -698)"><use xlink:href="#m"/><use x="722" xlink:href="#h"/><g transform="translate(1723)"><use xlink:href="#a"/><use x="500" xlink:href="#b"/><use x="1001" xlink:href="#n"/><use x="1501" xlink:href="#o"/></g></g></g><g transform="matrix(1 0 0 -1 6176 1902)"><use xlink:href="#a"/><use x="500" xlink:href="#i"/><g transform="translate(945)"><use xlink:href="#n"/><use x="500" xlink:href="#n"/><use x="1001" xlink:href="#a"/></g><g transform="translate(2697)"><use xlink:href="#p"/><use x="778" xlink:href="#q"/><use x="1487" xlink:href="#l"/><use x="1987" xlink:href="#f"/></g><use x="5301" xlink:href="#h"/><g transform="translate(6302)"><use xlink:href="#b"/><use x="500" xlink:href="#r"/><use x="779" xlink:href="#a"/></g><use x="7831" xlink:href="#f"/></g><g transform="matrix(1 0 0 -1 14403 -1852)"><use x="277" xlink:href="#g"/><g transform="translate(1334)"><use xlink:href="#a"/><use x="500" xlink:href="#b"/></g><use x="2335" xlink:href="#i"/><g transform="translate(2780)"><use xlink:href="#b"/><use x="500" xlink:href="#b"/><use x="1001" xlink:href="#b"/></g><use x="4281" xlink:href="#i"/><g transform="translate(4726)"><use xlink:href="#b"/><use x="500" xlink:href="#b"/><use x="1001" xlink:href="#b"/></g><g transform="translate(6478)"><use xlink:href="#d"/><use x="556" xlink:href="#j"/><use x="835" xlink:href="#k"/><use x="1224" xlink:href="#f"/><use x="1619" xlink:href="#l"/><use x="2119" xlink:href="#f"/></g></g><g transform="matrix(1 0 0 -1 14403 81)"><use x="277" xlink:href="#g"/><use x="1334" xlink:href="#a"/><use x="1834" xlink:href="#i"/><g transform="translate(2279)"><use xlink:href="#n"/><use x="500" xlink:href="#n"/><use x="1001" xlink:href="#a"/></g><g transform="translate(4031)"><use xlink:href="#p"/><use x="778" xlink:href="#q"/><use x="1487" xlink:href="#l"/><use x="1987" xlink:href="#f"/></g></g><g transform="matrix(1 0 0 -1 14403 1902)"><use x="277" xlink:href="#g"/><g transform="translate(1334)"><use xlink:href="#a"/><use x="500" xlink:href="#n"/><use x="1001" xlink:href="#n"/><use x="1501" xlink:href="#r"/><use x="1780" xlink:href="#a"/></g><g transform="translate(3864)"><use xlink:href="#p"/><use x="778" xlink:href="#q"/></g></g></g></svg>