<svg xmlns="http://www.w3.org/2000/svg" xmlns:xlink="http://www.w3.org/1999/xlink" style="vertical-align:-2.505ex" viewBox="0 -1580.7 11380.4 2659.1"><defs><path id="a" d="M56 342q0 86 33 158t85 115 109 66 108 24h9q6 0 8-1 91 0 161-68l13-12 30 39q27 37 31 41h4q3 0 6 1h4q3 0 9-6V419l-6-6h-34q-6 6-7 17-9 82-48 142t-95 79q-19 7-50 7-104 0-174-70-79-79-79-246 0-121 38-191 21-40 52-67t65-39 56-16 44-5q89 0 143 69t55 151q0 7 6 13h28l6-6v-15q-5-103-76-180T403-21Q262-21 159 83T56 342z"/><path id="b" d="M56 347q0 13 14 20h637q15-8 15-20 0-11-14-19l-318-1H72q-16 5-16 20zm0-194q0 15 16 20h636q14-10 14-20 0-13-15-20H70q-14 7-14 20z"/><path id="c" d="M131 622q-7 7-11 9t-16 3-43 3H28v46h318q77 0 113-5t72-27q43-24 68-61t25-78q0-51-41-93t-107-59l-10-3q73-9 129-55t56-115q0-68-51-120T469 3q-13-2-227-3H28v46h33q42 1 51 3t19 12v561zm380-109q0 47-26 81t-69 42h-45q-20 0-38 1-67 0-82-1t-19-8q-3-4-3-129V374h83l84 1 10 2q4 1 11 3t25 13 32 24 25 39 12 57zm26-325q0 51-28 94t-79 54l-101 1H229V116q0-59 5-64 6-5 100-5h49q42 0 60 6 43 14 68 51t26 84z"/><path id="d" d="M792 683q18-3 122-3 77 0 89 3h6v-46h-13q-65-4-81-39-3-7-52-160t-97-303-50-152q-5-5-22-5-18 0-21 7-2 2-80 246l-79 246-79-243q-19-60-44-142T358-6t-17-16h-10q-17 1-21 7-1 1-102 317T104 622q-6 10-17 11-14 4-52 4H18v46h9q42-2 127-2h62q18 0 33 1t27 1h22v-46h-13q-72 0-72-17 0-4 76-239l75-237 63 195q63 196 65 207-5 14-10 32t-7 24-7 16-7 10-12 5-16 3-25 1h-28v46h8q9-3 120-3 121 0 142 3h10v-46h-13q-71 0-71-18l151-473q142 434 142 454 0 5-6 12t-24 15-45 10h-11v46h9z"/><path id="e" d="M630 29q0-20-21-20-5 0-22 16t-94 93L389 222 284 117Q178 13 175 11q-4-2-7-2-8 0-14 6t-7 14q0 7 14 22t94 95l104 104-104 104q-81 81-94 95t-14 22q0 9 6 14t15 5q5 0 7-1 3-2 109-106l105-105 104 104q77 77 94 93t22 16q21 0 21-20 0-7-10-18t-98-98L418 250l104-105q84-84 96-97t12-19z"/><path id="f" d="M42 46h14q39 0 47 14v64q0 19 1 43t0 50 0 55 0 57v213q0 26-1 44t0 17q-3 19-14 25t-45 9H26v23q0 23 2 23l10 1q10 1 29 2t37 2 37 2 30 3 11 1h3V379q0-317 1-319 4-8 12-11 21-3 49-3h16V0h-8l-23 1q-23 1-49 1t-38 1-38 0-50-2L34 0h-8v46h16z"/><path id="g" d="M28 214q0 95 65 164t157 70q90 0 155-68t66-165q0-95-64-160T250-10q-97 0-159 67T28 214zM250 30q122 0 122 163v57q0 22-1 38t-7 38-16 36-31 28-49 20q-5 1-16 1-30 0-57-12-43-22-56-61t-13-92v-20q0-96 19-135 32-61 105-61z"/><path id="h" d="M329 409q44 44 100 44 30 0 43-19t13-38q0-14-9-25t-27-11q-33 0-37 30-2 14 3 21 0 1 1 3v1q-28-3-53-22-8-5-8-7 0-1 4-5t9-12 11-18 9-26 4-33q0-62-49-105t-121-44q-50 0-99 28-11-18-11-38 0-35 26-52 9-6 17-6t72-2q84-1 108-6 61-9 96-41 39-39 39-98 0-67-78-103-60-31-142-31-83 0-143 31-78 35-78 100 0 36 21 60t42 33l11 6q-36 31-36 84 0 47 29 85-44 44-44 99 0 63 50 106t121 44q51 0 95-26l11-7zm-30-66q-5 28-26 44t-52 17q-29 0-50-16t-26-45q-3-17-3-51 0-44 7-65t30-35q17-10 43-10 22 0 38 7t23 18 11 20 5 15q3 16 3 50t-3 51zM403-75q0 25-14 41t-41 23-49 9-54 2h-27q-67 0-80-6-20-9-31-28T95-74q0-10 6-23t21-30 48-28 80-12q69 0 111 28t42 64z"/><path id="i" d="M109 429q-27 0-43 18t-16 44q0 71 53 123t132 52q91 0 152-56t62-145q0-43-20-82t-48-68-80-74q-36-31-100-92l-59-56 76-1q157 0 167 5 7 2 24 89v3h40v-3q-1-3-13-91T421 3V0H50v31q0 7 6 15t30 35q29 32 50 56 9 10 34 37t34 37 29 33 28 34 23 30 21 32 15 29 13 32 7 30 3 33q0 63-34 109t-97 46q-33 0-58-17t-35-33-10-19q0-1 5-1 18 0 37-14t19-46q0-25-16-42t-45-18z"/><path id="k" d="M213 578l-13-5q-14-5-40-10t-58-7H83v46h19q47 2 87 15t56 24 28 22q2 3 12 3 9 0 17-6V361l1-300q7-7 12-9t24-4 62-2h26V0h-11q-21 3-159 3-136 0-157-3H88v46h64q16 0 25 1t16 3 8 2 6 5 6 4v517z"/><path id="l" d="M56 237v13l14 20h299v150l1 150q10 13 19 13 13 0 20-15V270h298q15-8 15-20t-15-20H409V-68q-8-14-18-14h-4q-12 0-18 14v298H70q-14 7-14 20z"/><path id="m" d="M55 507q0 83 57 140t131 57h14q85 0 148-63l21 31q5 7 10 15t10 13l3 4h4q3 0 6 1h4q3 0 9-6V462l-6-6h-18q-11 0-13 3t-5 20q-17 126-101 167-37 16-75 16-53 0-86-36t-33-84q0-34 17-62t48-45q10-4 86-23t84-23q57-22 93-75t37-123q0-81-52-146T301-21q-56 0-100 17t-61 31l-18 14q-4-5-15-20T87-7t-9-14q-2-1-10-1h-4q-3 0-9 6v117q0 119 1 121 2 5 20 5h13q6-6 6-13 0-32 10-63t34-61 66-48 100-18q47 0 81 38t34 93q0 43-22 78t-58 48q-56 14-74 19-5 1-27 6t-33 8-32 11-33 18-29 24-27 35q-30 49-30 105z"/><path id="n" d="M42 46q32 2 52 10t24 13 10 17v548h-4q-10 3-72 3H25v46h207l3-3q2-1 87-126t171-251l85-125v420q-6 10-10 15t-24 14-52 10h-17v46h8q15-3 117-3 106 0 115 3h9v-46h-17q-73-4-85-39l-1-296V6l-7-6h-14q-15 0-18 3T481 150 282 443 171 605V345l1-259q11-36 85-40h17V0h-9q-15 3-115 3Q48 3 33 0h-8v46h17z"/><path id="j" d="M701-940q0-3-6-9h-31q-2 2-28 27t-45 43-54 61-62 81-63 101-62 125-55 149-45 176-29 203-12 234q0 711 364 1110 23 25 43 44t33 32 15 13h31q6-6 6-9 0-5-20-26t-52-59-72-95-81-143-76-191-60-252-32-316q-2-38-2-109 0-389 94-680t290-494q11-12 11-16z"/><path id="o" d="M34 1438q0 8 3 10t13 2h21q2-2 28-27t45-43 54-61 62-81 63-101 62-124 55-149 45-176 29-203 12-234q0-117-7-198-47-572-357-913-23-25-43-44t-33-32-15-13H56q-13 0-17 2t-5 10q54 54 106 124Q428-430 428 251q0 202-26 377t-64 294-93 224-100 163-99 116l-4 4q-2 2-3 4t-3 3l-2 2z"/></defs><g fill="currentColor" stroke="currentColor" stroke-width="0" transform="matrix(1 0 0 -1 156 0)"><use xlink:href="#a"/><use x="1000" xlink:href="#b"/><g transform="translate(2056)"><use xlink:href="#c"/><use x="708" xlink:href="#d"/></g><use x="4015" xlink:href="#e"/><g transform="translate(5016)"><use xlink:href="#f"/><use x="278" xlink:href="#g"/><use x="779" xlink:href="#h"/><use x="1809" y="-343" transform="scale(.707)" xlink:href="#i"/></g><g transform="translate(6749)"><use xlink:href="#j"/><use x="736" xlink:href="#k"/><use x="1459" xlink:href="#l"/><g transform="translate(2579)"><path stroke="none" d="M0 220h870v60H0z"/><use x="157" y="676" xlink:href="#m"/><use x="60" y="-704" xlink:href="#n"/></g><use x="3570" y="-1" xlink:href="#o"/></g></g></svg>