<svg xmlns="http://www.w3.org/2000/svg" xmlns:xlink="http://www.w3.org/1999/xlink" style="vertical-align:-.671ex" viewBox="0 -791.3 10861.5 1080.4"><defs><path id="a" d="M213 578l-13-5q-14-5-40-10t-58-7H83v46h19q47 2 87 15t56 24 28 22q2 3 12 3 9 0 17-6V361l1-300q7-7 12-9t24-4 62-2h26V0h-11q-21 3-159 3-136 0-157-3H88v46h64q16 0 25 1t16 3 8 2 6 5 6 4v517z"/><path id="b" d="M96 585q56 81 153 81 48 0 96-26t78-92q37-83 37-228 0-155-43-237-20-42-55-67t-61-31-51-7q-26 0-52 6t-61 32-55 67q-43 82-43 237 0 174 57 265zm225 12q-30 32-71 32-42 0-72-32-25-26-33-72t-8-192q0-158 8-208t36-79q28-30 69-30 40 0 68 30 29 30 36 84t8 203q0 145-8 191t-33 73z"/><path id="c" d="M630 29q0-20-21-20-5 0-22 16t-94 93L389 222 284 117Q178 13 175 11q-4-2-7-2-8 0-14 6t-7 14q0 7 14 22t94 95l104 104-104 104q-81 81-94 95t-14 22q0 9 6 14t15 5q5 0 7-1 3-2 109-106l105-105 104 104q77 77 94 93t22 16q21 0 21-20 0-7-10-18t-98-98L418 250l104-105q84-84 96-97t12-19z"/><path id="d" d="M462 0q-18 3-129 3-116 0-134-3h-9v46h58q7 0 17 2t14 5 7 8q1 2 1 54v50H28v46l151 231q153 232 155 233 2 2 21 2h18l6-6V211h92v-46h-92V66q0-7 6-12 8-7 57-8h29V0h-9zM293 211v334L74 212l109-1h110z"/><path id="e" d="M42 313q0 163 81 258t180 95q69 0 99-36t30-80q0-25-14-40t-39-15q-23 0-38 14t-15 39q0 44 47 53-22 22-62 25-71 0-117-60-47-66-47-202l1-4q5 6 8 13 41 60 107 60h4q46 0 81-19 24-14 48-40t39-57q21-49 21-107v-18q0-23-5-43-11-59-64-115T253-22q-28 0-54 8t-56 30-51 59-36 97-14 141zm215 84q-30 0-52-17t-34-45-17-57-6-62q0-83 12-119t38-58q24-18 53-18 51 0 78 38 13 18 18 45t5 105q0 80-5 107t-18 45q-27 36-72 36z"/><path id="f" d="M307-11q-73 0-139 66l-10-18q-2-3-5-9t-6-11-4-7l-5-9-20-1H98v298q0 301-1 305-3 19-14 25t-45 9H20v23q0 23 2 23l10 1q10 1 29 2t37 2 37 2 30 3 11 1h3V543q0-152 1-152l3 3q3 3 9 7t15 10 21 10 26 10 32 8 37 3q78 0 138-63t61-163q0-101-64-164T307-11zM182 98q0-1 5-8t9-11 10-12 12-12 15-11 17-9 21-6 24-3q35 0 68 20t49 67q12 35 12 99 0 75-12 111-27 82-112 82-30 0-61-15t-51-43l-6-8V98z"/><path id="g" d="M69-66q22 0 35-14t14-36q0-18-9-29t-18-15q-7-3 6-6 7-2 14-2 20 0 37 9t27 21 22 32 16 31 12 32l17 43-72 183q-20 50-45 114-24 61-29 71t-16 13q-1 1-2 1-12 3-44 3H19v46h7l20-1q19 0 42-1t34-1h20q13 0 29 1t29 1 24 0l9 1h8v-46h-9q-49 0-47-19l101-254q0 1 46 115l44 114v9q0 15-10 23t-18 10-14 2h-3v46h30q10 0 21-1t23-1 17 0q55 0 81 2h5v-46h-11q-56-5-75-40-2-2-44-110T289 9t-62-140q-47-73-114-73-44 0-69 27t-25 61q0 27 16 38t34 12z"/><path id="h" d="M27 422q53 4 82 56t32 122v15h40V431h135v-46H181V241q1-125 1-141t7-32q14-39 49-39 44 0 54 71 1 8 1 46v35h40v-47q0-77-42-117-27-27-70-27-34 0-59 12t-38 31-19 35-7 32q-1 7-1 148v137H18v37h9z"/><path id="i" d="M28 218q0 55 20 100t50 73 65 42 66 15q53 0 91-18t58-50 28-64 9-71q0-7-7-14H126v-15q0-148 100-180 20-6 44-6 42 0 72 32 17 17 27 42l10 24q3 3 16 3h3q17 0 17-10 0-4-3-13-19-55-63-87t-99-32q-95 0-158 69T28 218zm305 57q-11 128-95 136h-2q-8 0-16-1t-25-8-29-21-23-41-16-66v-7h206v8z"/><path id="j" d="M295 316q0 40-27 69t-78 29q-36 0-62-13-30-19-30-52-1-5 0-13t16-24 43-25q18-5 44-9t44-9 32-13q17-8 33-20t32-41 17-62q0-62-38-102T198-10h-8q-52 0-96 36l-8-7-9-9Q71 4 65-1L54-11H42q-3 0-9 6v137q0 21 2 25t10 5h9q12 0 16-4t5-12 7-27 19-42q35-51 97-51 97 0 97 78 0 29-18 47-20 24-83 36t-83 23q-36 17-57 46t-21 62q0 39 17 66t43 40 50 18 44 5h11q40 0 70-15l15-8 9 7q10 9 22 17h12q3 0 9-6V310l-6-6h-28q-6 6-6 12z"/><path id="k" d="M55 319q0 41 17 74t42 51 49 28 42 10h8q6 0 10 1 39 0 73-15t97-55l50-32q59-35 110-35 56 0 96 29t45 79q0 11 4 20t10 9q14 0 14-31 0-66-47-114t-120-49q-41 0-87 21t-80 47-80 47-84 22q-60 0-99-33t-42-75q-2-29-14-29-14 0-14 30zm0-234q0 41 17 74t42 51 49 28 42 10h8q6 0 10 1 39 0 73-15t97-55l50-32q59-35 110-35 56 0 96 29t45 79q0 29 14 29t14-32q0-64-47-113T555 55q-41 0-87 21t-80 47-80 47-84 22q-60 0-99-33T83 84q-3-29-14-29-14 0-14 30z"/><path id="l" d="M128 622q-7 7-11 9t-16 3-43 3H25v46h11q21-3 144-3 135 0 144 3h11v-46h-22q-78 0-80-17-1-2-1-158l1-155 146 142q46 45 100 97 39 38 45 45t7 16v1q0 22-28 28h-5q-3 0-5 1h-4v46h10q18-3 131-3 74 0 86 3h6v-46h-14q-75-4-119-40-5-5-94-91t-89-87 109-165T631 80q13-20 31-26t53-8h21V0h-8q-9 3-113 3-122 0-143-3h-11v46h8q46 0 46 26 0 6-3 12L336 351q-4-3-58-55l-46-45v-95q0-94 3-98 8-11 67-12h33V0h-11q-21 3-144 3Q45 3 36 0H25v46h33q42 1 51 3t19 12v561z"/><path id="m" d="M131 622q-7 7-11 9t-16 3-43 3H28v46h318q77 0 113-5t72-27q43-24 68-61t25-78q0-51-41-93t-107-59l-10-3q73-9 129-55t56-115q0-68-51-120T469 3q-13-2-227-3H28v46h33q42 1 51 3t19 12v561zm380-109q0 47-26 81t-69 42h-45q-20 0-38 1-67 0-82-1t-19-8q-3-4-3-129V374h83l84 1 10 2q4 1 11 3t25 13 32 24 25 39 12 57zm26-325q0 51-28 94t-79 54l-101 1H229V116q0-59 5-64 6-5 100-5h49q42 0 60 6 43 14 68 51t26 84z"/></defs><g fill="currentColor" stroke="currentColor" stroke-width="0" transform="scale(1 -1)"><use xlink:href="#a"/><use x="500" xlink:href="#b"/><use x="1223" xlink:href="#c"/><g transform="translate(2223)"><use xlink:href="#a"/><use x="500" xlink:href="#d"/><use x="1001" xlink:href="#e"/><use x="1501" xlink:href="#b"/></g><g transform="translate(4475)"><use xlink:href="#f"/><use x="556" xlink:href="#g"/><use x="1085" xlink:href="#h"/><use x="1474" xlink:href="#i"/><use x="1919" xlink:href="#j"/></g><use x="7067" xlink:href="#k"/><g transform="translate(8123)"><use xlink:href="#a"/><use x="500" xlink:href="#d"/></g><g transform="translate(9374)"><use xlink:href="#l"/><use x="778" xlink:href="#m"/></g></g></svg>