<svg xmlns="http://www.w3.org/2000/svg" xmlns:xlink="http://www.w3.org/1999/xlink" style="vertical-align:-2.505ex" viewBox="0 -1580.7 19773.7 2659.1"><defs><path id="b" d="M70 417v77l54 124 124 48q71 0 126-42t55-109q0-30-11-56t-26-42-31-28-26-18-11-8l14-9 28-20q14-10 16-11 75-59 75-149 0-79-58-137T249-22q-90 0-148 51T43 155q0 108 129 180l-18 13q-21 13-27 20-57 49-57 126zm216-31l6 4 9 6q3 2 10 7t12 10 11 12 11 13 10 16 9 17 5 20 2 22q0 43-29 73t-67 38q-7 1-33 1-41 0-77-26t-37-65q0-23 13-42t26-29 50-32q7-5 11-7l58-38zM250 21q58 0 100 34t42 82q0 17-5 32t-12 25-22 22-23 18-29 19-27 17q-14 9-30 19t-26 17l-8 5q-6 0-29-17t-48-55-26-82q0-59 43-97t100-39z"/><path id="c" d="M164 157q0-24-16-40t-39-16h-7q46-79 122-79 70 0 102 60 19 33 19 128 0 103-27 139-26 33-58 33h-6q-78 0-118-68-4-7-7-8t-15-2q-17 0-19 6-2 4-2 175v129q0 50 5 50 2 2 4 2 1 0 21-8t55-16 75-8q71 0 136 28 8 4 13 4 8 0 8-18v-13q-82-97-205-97-31 0-56 6l-10 2V374q19 14 30 22t36 16 51 8q81 0 137-65t56-154q0-92-64-157T229-22q-81 0-130 54T50 154q0 24 11 38t23 18 23 4q25 0 41-17t16-40z"/><path id="d" d="M96 585q56 81 153 81 48 0 96-26t78-92q37-83 37-228 0-155-43-237-20-42-55-67t-61-31-51-7q-26 0-52 6t-61 32-55 67q-43 82-43 237 0 174 57 265zm225 12q-30 32-71 32-42 0-72-32-25-26-33-72t-8-192q0-158 8-208t36-79q28-30 69-30 40 0 68 30 29 30 36 84t8 203q0 145-8 191t-33 73z"/><path id="e" d="M307-11q-73 0-139 66l-10-18q-2-3-5-9t-6-11-4-7l-5-9-20-1H98v298q0 301-1 305-3 19-14 25t-45 9H20v23q0 23 2 23l10 1q10 1 29 2t37 2 37 2 30 3 11 1h3V543q0-152 1-152l3 3q3 3 9 7t15 10 21 10 26 10 32 8 37 3q78 0 138-63t61-163q0-101-64-164T307-11zM182 98q0-1 5-8t9-11 10-12 12-12 15-11 17-9 21-6 24-3q35 0 68 20t49 67q12 35 12 99 0 75-12 111-27 82-112 82-30 0-61-15t-51-43l-6-8V98z"/><path id="f" d="M69-66q22 0 35-14t14-36q0-18-9-29t-18-15q-7-3 6-6 7-2 14-2 20 0 37 9t27 21 22 32 16 31 12 32l17 43-72 183q-20 50-45 114-24 61-29 71t-16 13q-1 1-2 1-12 3-44 3H19v46h7l20-1q19 0 42-1t34-1h20q13 0 29 1t29 1 24 0l9 1h8v-46h-9q-49 0-47-19l101-254q0 1 46 115l44 114v9q0 15-10 23t-18 10-14 2h-3v46h30q10 0 21-1t23-1 17 0q55 0 81 2h5v-46h-11q-56-5-75-40-2-2-44-110T289 9t-62-140q-47-73-114-73-44 0-69 27t-25 61q0 27 16 38t34 12z"/><path id="g" d="M27 422q53 4 82 56t32 122v15h40V431h135v-46H181V241q1-125 1-141t7-32q14-39 49-39 44 0 54 71 1 8 1 46v35h40v-47q0-77-42-117-27-27-70-27-34 0-59 12t-38 31-19 35-7 32q-1 7-1 148v137H18v37h9z"/><path id="h" d="M28 218q0 55 20 100t50 73 65 42 66 15q53 0 91-18t58-50 28-64 9-71q0-7-7-14H126v-15q0-148 100-180 20-6 44-6 42 0 72 32 17 17 27 42l10 24q3 3 16 3h3q17 0 17-10 0-4-3-13-19-55-63-87t-99-32q-95 0-158 69T28 218zm305 57q-11 128-95 136h-2q-8 0-16-1t-25-8-29-21-23-41-16-66v-7h206v8z"/><path id="i" d="M295 316q0 40-27 69t-78 29q-36 0-62-13-30-19-30-52-1-5 0-13t16-24 43-25q18-5 44-9t44-9 32-13q17-8 33-20t32-41 17-62q0-62-38-102T198-10h-8q-52 0-96 36l-8-7-9-9Q71 4 65-1L54-11H42q-3 0-9 6v137q0 21 2 25t10 5h9q12 0 16-4t5-12 7-27 19-42q35-51 97-51 97 0 97 78 0 29-18 47-20 24-83 36t-83 23q-36 17-57 46t-21 62q0 39 17 66t43 40 50 18 44 5h11q40 0 70-15l15-8 9 7q10 9 22 17h12q3 0 9-6V310l-6-6h-28q-6 6-6 12z"/><path id="j" d="M630 29q0-20-21-20-5 0-22 16t-94 93L389 222 284 117Q178 13 175 11q-4-2-7-2-8 0-14 6t-7 14q0 7 14 22t94 95l104 104-104 104q-81 81-94 95t-14 22q0 9 6 14t15 5q5 0 7-1 3-2 109-106l105-105 104 104q77 77 94 93t22 16q21 0 21-20 0-7-10-18t-98-98L418 250l104-105q84-84 96-97t12-19z"/><path id="k" d="M69 609q0 28 18 44t44 16q23-2 40-17t17-43q0-30-17-45t-42-15q-25 0-42 15t-18 45zM247 0q-15 3-104 3h-37Q80 3 56 1L34 0h-8v46h16q28 0 49 3 9 4 11 11t2 42v191q0 52-2 66t-14 19q-14 7-47 7H30v23q0 23 2 23l10 1q10 1 28 2t36 2 36 2 29 3 11 1h3V62q5-10 12-12t35-4h23V0h-8z"/><path id="l" d="M213 578l-13-5q-14-5-40-10t-58-7H83v46h19q47 2 87 15t56 24 28 22q2 3 12 3 9 0 17-6V361l1-300q7-7 12-9t24-4 62-2h26V0h-11q-21 3-159 3-136 0-157-3H88v46h64q16 0 25 1t16 3 8 2 6 5 6 4v517z"/><path id="m" d="M78 35v25l16 43 43 18q28 0 50-25t23-88q0-35-9-68t-21-57-26-41-24-27-13-9q-4 0-13 9t-9 13q0 4 11 16t25 30 26 50 16 73V9l-1-1q-2-1-5-2t-6-3-9-2-12-1q-27 0-44 17z"/><path id="n" d="M42 313q0 163 81 258t180 95q69 0 99-36t30-80q0-25-14-40t-39-15q-23 0-38 14t-15 39q0 44 47 53-22 22-62 25-71 0-117-60-47-66-47-202l1-4q5 6 8 13 41 60 107 60h4q46 0 81-19 24-14 48-40t39-57q21-49 21-107v-18q0-23-5-43-11-59-64-115T253-22q-28 0-54 8t-56 30-51 59-36 97-14 141zm215 84q-30 0-52-17t-34-45-17-57-6-62q0-83 12-119t38-58q24-18 53-18 51 0 78 38 13 18 18 45t5 105q0 80-5 107t-18 45q-27 36-72 36z"/><path id="o" d="M370 305h-21l-36 15-16 38q0 23 15 38 5 5 5 6t-10 2q-26 4-49 4-49 0-80-32-47-47-47-157 0-82 31-129 41-61 110-61 41 0 66 26t36 62q2 8 5 10t16 2h14q6-6 6-9 0-4-4-16t-16-33-29-38-48-31-69-13q-86 0-150 64T34 214q0 104 65 169t151 65 120-27 34-64q0-23-17-37z"/><path id="p" d="M28 214q0 95 65 164t157 70q90 0 155-68t66-165q0-95-64-160T250-10q-97 0-159 67T28 214zM250 30q122 0 122 163v57q0 22-1 38t-7 38-16 36-31 28-49 20q-5 1-16 1-30 0-57-12-43-22-56-61t-13-92v-20q0-96 19-135 32-61 105-61z"/><path id="q" d="M41 46h14q39 0 47 14v62q0 17 1 39t0 42v66q0 35-1 59v23q-3 19-14 25t-45 9H25v23q0 23 2 23l10 1q10 1 28 2t37 2q17 1 36 2t29 3 11 1h3v-40q0-38 1-38t5 5 12 15 19 18 29 19 38 16q20 5 51 5 114-4 127-113 1-7 1-139v-86q0-38 2-45t11-10q21-3 49-3h16V0h-8l-24 1q-23 1-50 1t-38 1Q319 3 310 0h-8v46h16q61 0 61 16 1 2 1 138-1 135-2 143-6 28-20 42t-24 17-26 2q-45 0-79-34-27-27-34-55t-8-83V108q0-30 1-40t3-13 9-6q21-3 49-3h16V0h-8l-23 1q-24 1-51 1t-38 1Q42 3 33 0h-8v46h16z"/><path id="r" d="M376 495v40q0 24 1 33 0 45-10 56t-51 13h-18v23q0 23 2 23l10 1q10 1 29 2t37 2 37 2 30 3 11 1h3V390q0-306 1-309 3-20 14-26t45-9h18V0q-2 0-76-5t-79-6h-7v55l-8-7q-58-48-130-48-77 0-139 61T34 215q0 100 63 163t147 64q75 0 132-49v102zm-3-153q-45 63-113 63-49 0-87-36-27-28-34-64t-8-94q0-56 7-91t35-61q30-33 78-33 71 0 122 77v239z"/><path id="a" d="M701-940q0-3-6-9h-31q-2 2-28 27t-45 43-54 61-62 81-63 101-62 125-55 149-45 176-29 203-12 234q0 711 364 1110 23 25 43 44t33 32 15 13h31q6-6 6-9 0-5-20-26t-52-59-72-95-81-143-76-191-60-252-32-316q-2-38-2-109 0-389 94-680t290-494q11-12 11-16z"/><path id="s" d="M34 1438q0 8 3 10t13 2h21q2-2 28-27t45-43 54-61 62-81 63-101 62-124 55-149 45-176 29-203 12-234q0-117-7-198-47-572-357-913-23-25-43-44t-33-32-15-13H56q-13 0-17 2t-5 10q54 54 106 124Q428-430 428 251q0 202-26 377t-64 294-93 224-100 163-99 116l-4 4q-2 2-3 4t-3 3l-2 2z"/><path id="t" d="M55 319q0 41 17 74t42 51 49 28 42 10h8q6 0 10 1 39 0 73-15t97-55l50-32q59-35 110-35 56 0 96 29t45 79q0 11 4 20t10 9q14 0 14-31 0-66-47-114t-120-49q-41 0-87 21t-80 47-80 47-84 22q-60 0-99-33t-42-75q-2-29-14-29-14 0-14 30zm0-234q0 41 17 74t42 51 49 28 42 10h8q6 0 10 1 39 0 73-15t97-55l50-32q59-35 110-35 56 0 96 29t45 79q0 29 14 29t14-32q0-64-47-113T555 55q-41 0-87 21t-80 47-80 47-84 22q-60 0-99-33T83 84q-3-29-14-29-14 0-14 30z"/><path id="u" d="M78 60q0 24 17 42t43 18q24 0 42-16t19-43q0-25-17-43T139 0 96 17 78 60z"/><path id="v" d="M127 463q-27 0-42 17t-16 44q0 55 48 98t116 43q35 0 44-1 74-12 113-53t40-89q0-52-34-101t-94-71l-3-2q0-1 9-3t29-9 38-21q82-53 82-140 0-79-62-138T238-22q-80 0-138 43T42 130q0 28 18 45t45 18q28 0 46-18t18-45q0-11-3-20t-7-16-11-12-12-8-10-4-8-3l-4-1q51-45 124-45 55 0 83 53 17 33 17 101v20q0 95-64 127-15 6-61 7l-42 1-3 2q-2 3-2 16 0 18 8 18 28 0 58 5 34 5 62 42t28 112v8q0 57-35 79-22 14-47 14-32 0-59-11t-38-23-11-12h3q3-1 8-2t10-5 12-7 10-11 8-15 3-20q0-22-14-39t-45-18z"/><path id="w" d="M132 622q-7 7-11 9t-16 3-43 3H29v46h106q86 0 97-1t17-7q1-1 105-277l104-274 104 274q104 276 106 277 3 6 15 7t98 1h106v-46h-33q-40-1-51-3t-18-12V61q6-10 17-12t52-3h33V0h-11q-21 3-140 3-131 0-140-3h-11v46h33q42 1 51 3t19 12v552l-1 19Q454 14 450 7q-4-6-20-6t-20 6q-1 2-118 309L176 624v-18q-1-18-1-63t0-80 0-107l1-270q11-36 85-40h17V0h-9q-15 3-115 3Q52 3 37 0h-8v46h17q32 2 52 10t24 13 10 17v536z"/><path id="x" d="M36-148h14q39 0 47 14v57q0 18 1 39t0 44 0 49 0 51v190q0 24-1 39t0 16q-3 19-14 25t-45 9H20v23q0 23 2 23l10 1q10 1 29 2t37 2 37 2 30 3 11 1h3v-26l1-26 8 7q59 44 138 44 81 0 138-64t58-161q0-101-65-164T310-11q-68 0-120 44l-8 7v-141q0-27 2-33t11-11q21-3 49-3h16v-46h-8l-24 1q-23 1-50 1t-38 1q-103 0-112-3h-8v46h16zm388 366q0 74-34 129t-85 55q-71 0-123-65V98q40-72 112-72 51 0 90 54t40 138z"/></defs><g fill="currentColor" stroke="currentColor" stroke-width="0" transform="matrix(1 0 0 -1 156 0)"><use xlink:href="#a"/><path stroke="none" d="M856 220h11948v60H856z"/><g transform="translate(916 724)"><use xlink:href="#b"/><use x="500" xlink:href="#c"/><use x="1001" xlink:href="#d"/><g transform="translate(1751)"><use xlink:href="#e"/><use x="556" xlink:href="#f"/><use x="1085" xlink:href="#g"/><use x="1474" xlink:href="#h"/><use x="1919" xlink:href="#i"/></g><use x="4287" xlink:href="#j"/><use x="5287" xlink:href="#b"/><g transform="translate(6038)"><use xlink:href="#e"/><use x="556" xlink:href="#k"/><use x="835" xlink:href="#g"/><use x="1224" xlink:href="#i"/></g><use x="7879" xlink:href="#j"/><g transform="translate(8880)"><use xlink:href="#l"/><use x="500" xlink:href="#d"/></g><use x="9881" xlink:href="#m"/><g transform="translate(10326)"><use xlink:href="#d"/><use x="500" xlink:href="#d"/><use x="1001" xlink:href="#d"/></g></g><g transform="translate(4558 -716)"><use xlink:href="#n"/><use x="500" xlink:href="#d"/><g transform="translate(1251)"><use xlink:href="#i"/><use x="394" xlink:href="#h"/><use x="839" xlink:href="#o"/><use x="1283" xlink:href="#p"/><use x="1784" xlink:href="#q"/><use x="2340" xlink:href="#r"/><use x="2897" xlink:href="#i"/></g></g><use x="12924" y="-1" xlink:href="#s"/><use x="13938" xlink:href="#t"/><g transform="translate(14995)"><use xlink:href="#l"/><use x="500" xlink:href="#u"/><use x="779" xlink:href="#l"/><use x="1279" xlink:href="#v"/></g><g transform="translate(17025)"><use xlink:href="#w"/><use x="917" xlink:href="#e"/><use x="1474" xlink:href="#x"/><use x="2030" xlink:href="#i"/></g></g></svg>