<svg xmlns="http://www.w3.org/2000/svg" viewBox="0 0 341.657 241.768"><path fill="none" stroke="#999" d="M89.895 100.067h43.666l11.334 5.767"/><path fill="#999" d="M142.754 108.111l5.975-.317-3.262-5.015zM90.771 97.066l-5.182 2.992 5.182 2.991z"/><path fill="none" stroke="#999" d="M90.895 115.666l41.666 11.356 20.167-15.566"/><path fill="#999" d="M153.869 114.366l2.274-5.534-5.93.798zm-61.34-1.364l-5.786 1.523 4.212 4.249z"/><path fill="none" stroke="#0071bc" d="M89.57 81.916h44.158l15.688-26.793" stroke-linecap="round" stroke-linejoin="round"/><path fill="#0071bc" d="M90.445 78.915l-5.181 2.992 5.181 2.991z"/><path fill="none" stroke="#000" d="M276.228 56.456h-52" stroke-linecap="round" stroke-linejoin="round"/><path d="M225.103 53.455l-5.181 2.992 5.181 2.991z"/><path fill="none" stroke="#0071bc" d="M206.228 56.456h-26" stroke-linecap="round" stroke-linejoin="round"/><path fill="#0071bc" d="M181.103 53.455l-5.182 2.992 5.182 2.991z"/><g fill="none" stroke="#000" stroke-miterlimit="10"><path d="M128.728 155.994v-1"/><path d="M128.728 152.994V2" stroke-dasharray="2 2"/><path d="M128.728 1V0"/></g><g fill="none" stroke="#000" stroke-miterlimit="10"><path d="M245.728 155.994v-1"/><path d="M245.728 152.994V2" stroke-dasharray="2 2"/><path d="M245.728 1V0"/></g><path fill="#b2d4eb" fill-rule="evenodd" d="M323.403 80.435c-3.3.944-6.579.248-9.021-1.601-1.44 1.684-3.146 2.845-5.382 3.482-5.78 1.649-11.093-.258-12.362-6.055a11.26 11.26 0 0 1-3.424 1.637c-5.773 1.648-11.777-1.831-13.049-7.63-5.027.443-9.605-2.776-10.724-7.889-1.271-5.797 2.385-11.833 8.159-13.481a10.659 10.659 0 0 1 3.876-.379c-1.271-5.794 2.455-10.348 8.232-11.998 2.316-.659 4.314-.895 6.327-.109 1.423-2.808 3.97-5.058 7.161-5.969 5.774-1.647 11.484 1.715 12.756 7.512.594-.292 1.093-.31 1.743-.498 5.777-1.649 11.489 1.713 12.758 7.511 5.009-.414 9.9 2.914 11.015 8.008 1.272 5.795-4.125 12.328-9.901 13.979 1.269 5.797-2.384 11.834-8.164 13.48z" clip-rule="evenodd" mask="url(#b)"/><path fill="#fddfbb" fill-rule="evenodd" d="M32.25 100.009L22.052 82.347 32.25 64.684h20.394l10.197 17.663-10.197 17.662z" clip-rule="evenodd"/><path fill="none" stroke="#000" d="M32.25 100.009L22.052 82.347 32.25 64.684h20.394l10.197 17.663-10.197 17.662z" stroke-linecap="round" stroke-linejoin="round"/><path fill="#fddfbb" fill-rule="evenodd" d="M63.044 82.288L52.847 64.626l10.197-17.663h20.394l10.198 17.663-10.198 17.662z" clip-rule="evenodd"/><path fill="none" stroke="#000" d="M63.044 82.288L52.847 64.626l10.197-17.663h20.394l10.198 17.663-10.198 17.662z" stroke-linecap="round" stroke-linejoin="round"/><path fill="#fddfbb" fill-rule="evenodd" d="M62.841 117.729l-10.197-17.662 10.197-17.662h20.394l10.198 17.662-10.198 17.662z" clip-rule="evenodd"/><path fill="none" stroke="#000" d="M62.841 117.729l-10.197-17.662 10.197-17.662h20.394l10.198 17.662-10.198 17.662z" stroke-linecap="round" stroke-linejoin="round"/><path fill="#ecbec0" fill-rule="evenodd" d="M149.287 43.513h25.885v25.886h-25.885z" clip-rule="evenodd"/><path fill="none" stroke="#000" d="M149.287 43.513h25.885v25.886h-25.885z" stroke-linecap="round" stroke-linejoin="round"/><path fill="none" stroke="#999" d="M162.227 92.967V75.115"/><path fill="#999" d="M165.229 75.991l-2.992-5.182-2.991 5.182zm-6.002 16.101l2.991 5.181 2.991-5.181z"/><path fill="#b2dec7" fill-rule="evenodd" d="M193.287 43.513h25.885v25.886h-25.885z" clip-rule="evenodd"/><path fill="none" stroke="#000" d="M193.287 43.513h25.885v25.886h-25.885z" stroke-linecap="round" stroke-linejoin="round"/><path fill="#e6e6e6" fill-rule="evenodd" d="M193.285 98.513h25.885v25.886h-25.885z" clip-rule="evenodd"/><path fill="none" stroke="#000" d="M193.285 98.513h25.885v25.886h-25.885z" stroke-linecap="round" stroke-linejoin="round"/><path fill="none" stroke="#000" d="M206.227 92.967V75.115"/><path d="M209.228 75.991l-2.991-5.182-2.992 5.182zm-6.002 16.101l2.991 5.181 2.992-5.181z"/><path fill="#b2d4eb" fill-rule="evenodd" d="M149.285 98.513h25.884v25.886h-25.884z" clip-rule="evenodd"/><path fill="none" stroke="#000" d="M149.285 98.513h25.884v25.886h-25.884z" stroke-linecap="round" stroke-linejoin="round"/><circle cx="30.035" cy="174.334" r="6.934" fill="#fff" fill-rule="evenodd" stroke="#000" clip-rule="evenodd" stroke-linecap="round" stroke-linejoin="round"/><path d="M29.566 172.153h-.02l-1.104.552-.263-1.207 1.532-.776 1.37-.015.07 6.5-1.53.017-.055-5.071z"/><circle cx="118.728" cy="82.288" r="6.934" fill="#fff" fill-rule="evenodd" stroke="#000" clip-rule="evenodd" stroke-linecap="round" stroke-linejoin="round"/><path d="M120.207 79.819l-.275.028a3.208 3.208 0 0 0-.294.048c-.386.077-.686.25-.899.516a2.297 2.297 0 0 0-.445.962h.04c.112-.14.247-.253.406-.34.159-.088.342-.133.548-.135.22-.002.424.043.612.138s.348.229.479.404c.131.175.235.384.312.63.076.245.115.521.119.827.003.273-.033.549-.106.83a2.36 2.36 0 0 1-.346.758 1.783 1.783 0 0 1-1.492.769 1.972 1.972 0 0 1-.867-.176 1.79 1.79 0 0 1-.661-.527 2.6 2.6 0 0 1-.429-.846 3.895 3.895 0 0 1-.162-1.128 5.312 5.312 0 0 1 .079-1.021c.057-.307.137-.588.241-.843a3.605 3.605 0 0 1 .807-1.219 2.87 2.87 0 0 1 .764-.538 3.59 3.59 0 0 1 .827-.299c.172-.035.319-.055.439-.061.12-.004.216-.01.29-.018l.013 1.241zm-1.364 4.333a.306.306 0 0 0 .249-.113.738.738 0 0 0 .132-.292c.029-.121.045-.257.05-.411.005-.153.007-.307.005-.46a1.942 1.942 0 0 0-.028-.294 1.375 1.375 0 0 0-.083-.29.64.64 0 0 0-.152-.223.327.327 0 0 0-.236-.088c-.173.002-.305.111-.396.325-.045.094-.067.311-.063.651.001.16.014.313.035.46.021.146.054.274.099.384.044.11.099.195.163.258a.295.295 0 0 0 .216.093h.009z"/><circle cx="118.728" cy="100.288" r="6.934" fill="#fff" fill-rule="evenodd" stroke="#000" clip-rule="evenodd" stroke-linecap="round" stroke-linejoin="round"/><path d="M120.299 97.996l-1.71.019-.09.931.18-.002c.06 0 .14.009.24.028.1.019.207.045.321.082a1.937 1.937 0 0 1 .663.367c.384.355.579.852.586 1.491.003.312-.045.609-.145.89a2.137 2.137 0 0 1-1.197 1.26 2.6 2.6 0 0 1-1.022.2c-.247.003-.487-.02-.721-.067s-.417-.104-.552-.169l.197-1.222c.134.058.281.106.441.145.161.038.328.057.501.055.32-.003.564-.091.732-.263.168-.173.251-.398.248-.679a.985.985 0 0 0-.121-.499.902.902 0 0 0-.313-.316 1.345 1.345 0 0 0-.442-.165 2.609 2.609 0 0 0-.516-.045l-.23.002c-.073 0-.146.008-.219.022l.303-3.374 2.85-.031.016 1.34z"/><circle cx="132.597" cy="126.461" r="6.934" fill="#fff" fill-rule="evenodd" stroke="#000" clip-rule="evenodd" stroke-linecap="round" stroke-linejoin="round"/><path d="M130.643 129.368l-.011-1.05.681-.868c.217-.269.413-.521.587-.756s.325-.459.453-.67c.128-.211.226-.416.293-.613.068-.198.101-.396.099-.597a.775.775 0 0 0-.211-.548c-.139-.145-.334-.216-.587-.213-.193.002-.373.035-.539.101s-.315.138-.447.22l-.263-1.198a2.92 2.92 0 0 1 .657-.276c.272-.083.558-.126.858-.129.393-.004.721.051.982.164.261.114.471.262.63.443.158.182.271.387.337.617.065.229.099.457.102.684.003.307-.037.592-.12.857a3.95 3.95 0 0 1-.327.753 4.485 4.485 0 0 1-.463.67c-.174.209-.351.41-.528.605l-.366.405v.02l1.91-.021.015 1.36-3.742.04z"/><circle cx="257.228" cy="56.456" r="6.934" fill="#fff" fill-rule="evenodd" stroke="#000" clip-rule="evenodd" stroke-linecap="round" stroke-linejoin="round"/><path d="M256.759 54.275h-.02l-1.104.552-.264-1.207 1.531-.777 1.37-.015.07 6.5-1.53.017-.053-5.07z"/><path fill="none" stroke="#000" d="M39.807 174.334h15.454" stroke-linecap="round" stroke-linejoin="round"/><path d="M54.385 177.335l5.182-2.991-5.182-2.992z"/><circle cx="30.035" cy="194.334" r="6.934" fill="#fff" fill-rule="evenodd" stroke="#000" clip-rule="evenodd" stroke-linecap="round" stroke-linejoin="round"/><path d="M31.605 192.041l-1.71.02-.09.93.18-.002c.06 0 .14.01.24.028s.207.046.321.081a1.892 1.892 0 0 1 .663.367c.384.355.579.852.586 1.49a2.57 2.57 0 0 1-.145.891 2.142 2.142 0 0 1-1.197 1.26 2.604 2.604 0 0 1-1.022.2c-.247.003-.487-.021-.721-.067s-.417-.104-.552-.169l.197-1.222c.134.059.281.106.441.145.161.038.328.057.501.055.32-.003.564-.091.732-.262.168-.174.251-.398.248-.68-.002-.199-.042-.365-.121-.498s-.183-.237-.313-.316a1.368 1.368 0 0 0-.442-.165 2.609 2.609 0 0 0-.516-.045c-.08.001-.157.001-.23.003a1.25 1.25 0 0 0-.219.021l.303-3.373 2.85-.031.016 1.339z"/><circle cx="8.035" cy="194.334" r="6.934" fill="#fff" fill-rule="evenodd" stroke="#000" clip-rule="evenodd" stroke-linecap="round" stroke-linejoin="round"/><path d="M6.081 197.24l-.011-1.05.681-.868c.217-.269.413-.521.587-.756s.325-.459.453-.67c.128-.211.226-.416.293-.613.068-.197.101-.396.099-.596a.778.778 0 0 0-.211-.549c-.139-.145-.334-.216-.587-.213-.193.002-.373.035-.539.101s-.315.138-.447.22l-.263-1.197c.166-.102.385-.193.657-.277.272-.082.558-.126.858-.129.393-.004.721.051.982.164.261.114.471.262.63.443.158.182.271.387.337.617a2.748 2.748 0 0 1-.018 1.54 3.95 3.95 0 0 1-.327.753 4.494 4.494 0 0 1-.463.671 18.7 18.7 0 0 1-.528.604l-.366.405v.02l1.91-.021.015 1.359-3.742.042z"/><path fill="none" stroke="#c1272d" d="M39.807 194.334h15.454" stroke-linecap="round" stroke-linejoin="round"/><path fill="#c1272d" d="M54.385 197.335l5.182-2.991-5.182-2.992z"/><path fill="none" stroke="#999" d="M36.807 188.334h15.454" stroke-linecap="round" stroke-linejoin="round"/><path fill="#999" d="M51.385 191.335l5.182-2.991-5.182-2.992z"/><circle cx="30.035" cy="214.334" r="6.934" fill="#fff" fill-rule="evenodd" stroke="#000" clip-rule="evenodd" stroke-linecap="round" stroke-linejoin="round"/><path d="M31.514 211.865l-.275.027a3.218 3.218 0 0 0-.294.049c-.386.077-.686.25-.899.516a2.297 2.297 0 0 0-.445.962l.04-.001c.112-.14.247-.252.406-.34.159-.088.342-.133.548-.135.22-.002.424.043.612.138s.348.229.479.403c.131.176.235.385.312.631.076.244.115.521.119.826.003.273-.033.549-.106.83a2.38 2.38 0 0 1-.346.758 1.783 1.783 0 0 1-1.492.769 1.973 1.973 0 0 1-.867-.177 1.788 1.788 0 0 1-.661-.526 2.585 2.585 0 0 1-.429-.847 3.895 3.895 0 0 1-.162-1.128 5.305 5.305 0 0 1 .079-1.021c.057-.307.137-.588.241-.844.104-.254.225-.481.363-.684.138-.201.286-.379.444-.535.217-.215.472-.395.764-.537a3.5 3.5 0 0 1 .827-.299c.172-.035.319-.056.439-.061.12-.004.216-.01.29-.018l.013 1.244zm-1.364 4.333a.308.308 0 0 0 .249-.112c.059-.074.103-.172.132-.292s.045-.257.05-.411c.005-.153.007-.307.005-.46a1.942 1.942 0 0 0-.028-.294 1.375 1.375 0 0 0-.083-.29.64.64 0 0 0-.152-.223.332.332 0 0 0-.236-.089c-.173.002-.305.111-.396.325-.045.095-.067.312-.063.651.001.16.014.312.035.459s.054.274.099.385a.763.763 0 0 0 .163.258.299.299 0 0 0 .216.093h.009z"/><path fill="none" stroke="#0071bc" d="M39.807 214.334h15.454" stroke-linecap="round" stroke-linejoin="round"/><path fill="#0071bc" d="M54.385 217.335l5.182-2.991-5.182-2.992z"/><circle cx="30.035" cy="234.334" r="6.934" fill="#fff" fill-rule="evenodd" stroke="#000" clip-rule="evenodd" stroke-linecap="round" stroke-linejoin="round"/><path d="M31.92 230.698l.011 1.03-1.96 5.491-1.5.017 1.905-5.142v-.02l-2.16.023-.015-1.36 3.719-.039z"/><path fill="none" stroke="#009245" d="M39.807 234.334h15.454" stroke-linecap="round" stroke-linejoin="round"/><path fill="#009245" d="M54.385 237.335l5.182-2.991-5.182-2.992z"/><path fill="none" stroke="#c1272d" d="M30.981 132.698l12.385-18.013V97.63"/><path fill="#c1272d" d="M46.367 98.505l-2.992-5.181-2.991 5.181zm-17.363 31.772l-.47 5.964 5.4-2.574z"/><path fill="#53586c" fill-rule="evenodd" d="M15.604 148.702l4.818-2.12 14.013-8.091 3.994-2.949v.239l-3.878 2.883-14.033 8.102-4.914 2.175z" clip-rule="evenodd"/><path fill="#2d334c" d="M1.457 140.54l14.147 8.167v.234l-14.147-8.166z"/><g fill="#6c7082"><path fill-rule="evenodd" d="M15.604 148.464l4.818-2.12 14.013-8.091 3.994-2.95v.239l-3.878 2.883-14.033 8.101-4.914 2.177z" clip-rule="evenodd"/><path d="M1.457 140.301l14.147 8.167v.235l-14.147-8.167z"/></g><path fill="#b3b3b3" d="M15.604 147.832l4.851-2.153 14.014-8.091 3.993-2.949v.732l-3.878 2.883-14.029 8.101-4.951 2.211z"/><path fill="#53586c" d="M1.457 139.67l14.147 8.168v.728l-14.147-8.167z"/><path fill="#b3b3b3" d="M15.604 148.934l4.818-2.12 14.013-8.091 3.994-2.948v.731l-3.878 2.882-14.033 8.102-4.914 2.177z"/><path fill="#53586c" d="M1.457 140.772l14.147 8.167v.728L1.457 141.5z"/><path fill="#b3b3b3" d="M38.459 134.639l-4.067 3.004-14.113 8.149-4.675 2.042-14.165-8.175 3.539-2.701 14.113-8.148 5.205-2.349z"/><path fill="#0071bc" d="M6.499 138.948l17.653-10.193 10.334 5.967-17.653 10.192z"/><path fill="#6c7082" d="M6.499 138.948l17.653-10.193.363.21-17.652 10.192z"/><path fill="#53586c" d="M24.151 129.176l.001-.421 10.334 5.967-.369.211z"/><path fill="#4d4d4d" d="M7.142 141.29c-.259-.149-.349-.341-.197-.427l.373-.215c.149-.087.48-.036.739.115l6.077 3.507c.258.149.348.341.197.427l-.372.216c-.149.086-.481.035-.74-.115l-6.077-3.508z"/><g fill="#fff"><path d="M8.292 141.107c.146.083.15.217.011.299a.58.58 0 0 1-.518-.006c-.147-.084-.151-.218-.011-.299a.576.576 0 0 1 .518.006zm1.049.606c.145.084.151.218.011.299a.576.576 0 0 1-.518-.006c-.147-.084-.15-.218-.011-.299a.57.57 0 0 1 .518.006zm1.049.605c.146.084.15.218.01.299a.573.573 0 0 1-.518-.006c-.147-.084-.151-.218-.011-.299a.575.575 0 0 1 .519.006zm1.049.606c.146.084.149.218.01.299-.14.081-.372.078-.518-.006s-.15-.218-.01-.299a.567.567 0 0 1 .518.006zm1.049.605c.145.084.149.218.009.299a.571.571 0 0 1-.517-.006c-.146-.083-.151-.218-.009-.299a.571.571 0 0 1 .517.006zm1.049.606c.146.083.149.218.009.298a.578.578 0 0 1-.519-.005c-.145-.084-.15-.218-.009-.299a.57.57 0 0 1 .519.006z"/><path fill-rule="evenodd" d="M8.292 141.107c.146.083.15.217.011.299a.58.58 0 0 1-.518-.006c-.147-.084-.151-.218-.011-.299a.576.576 0 0 1 .518.006zm1.049.606c.145.084.151.218.011.299a.576.576 0 0 1-.518-.006c-.147-.084-.15-.218-.011-.299a.57.57 0 0 1 .518.006zm1.049.605c.146.084.15.218.01.299a.573.573 0 0 1-.518-.006c-.147-.084-.151-.218-.011-.299a.575.575 0 0 1 .519.006zm1.049.606c.146.084.149.218.01.299-.14.081-.372.078-.518-.006s-.15-.218-.01-.299a.567.567 0 0 1 .518.006zm1.049.605c.145.084.149.218.009.299a.571.571 0 0 1-.517-.006c-.146-.083-.151-.218-.009-.299a.571.571 0 0 1 .517.006zm1.049.606c.146.083.149.218.009.298a.578.578 0 0 1-.519-.005c-.145-.084-.15-.218-.009-.299a.57.57 0 0 1 .519.006z" clip-rule="evenodd"/></g><path fill="#4d4d4d" d="M5.91 140.107c.192.111.199.289.013.395a.759.759 0 0 1-.685-.007c-.192-.112-.197-.289-.011-.396.184-.107.492-.103.683.008zm-1.263-.729c.192.111.198.288.012.395a.757.757 0 0 1-.684-.007c-.192-.112-.198-.288-.013-.396a.756.756 0 0 1 .685.008zm1.356-.747a.462.462 0 0 1-.416-.005l-.529-.305c-.116-.067-.12-.175-.008-.24l3.815-2.203a.459.459 0 0 1 .413.006l.529.306c.118.066.122.174.008.239l-3.812 2.202z"/><path fill="#009245" d="M19.885 144.335c.194.111.199.288.015.395a.766.766 0 0 1-.687-.007c-.191-.111-.197-.288-.013-.395a.752.752 0 0 1 .685.007zm1.336-.773c.194.112.199.29.015.396a.76.76 0 0 1-.686-.007c-.191-.112-.197-.289-.013-.396a.763.763 0 0 1 .684.007z"/><path fill="none" stroke="#000" stroke-width=".5" stroke-miterlimit="3.864" d="M38.459 134.542l-9.151-5.283 2.693-7.746s-.185-.245-.358-.292c-.145-.039-.382.029-.382.029l-2.646 7.609-4.319-2.495-5.205 2.348-2.603 1.504-.094-.054-6.822 3.939.093.054-4.687 2.705-3.54 2.701.018 1.841 14.147 8.167 4.915-2.177 14.033-8.103 3.911-2.882v-1.867h-.003z" stroke-linejoin="round"/><g fill="#b3b3b3"><path d="M27.2 133.747l.136-1.21 3.924-11.287s.237-.068.382-.029c.173.047.358.292.358.292l-3.923 11.285-.62 1.013-.257-.064z"/><path d="M28.417 129.797c.177-.369.433-.609.573-.538.14.073.109.43-.068.799-.175.368-.432.608-.572.537-.138-.072-.108-.43.067-.798z"/></g><path fill="#b3b3b3" stroke="#333" stroke-width=".25" d="M27.2 133.747l.136-1.21 3.924-11.287s.237-.068.382-.029c.173.047.358.292.358.292l-3.923 11.285-.62 1.013-.257-.064z"/><path fill="#f2f2f2" fill-rule="evenodd" d="M28.417 129.797c.177-.369.433-.609.573-.538.14.073.109.43-.068.799-.175.368-.432.608-.572.537-.138-.072-.108-.43.067-.798z" clip-rule="evenodd"/><path fill="#4d4d4d" d="M18.365 131.296l-1.972-1.133-6.821 3.939 1.971 1.132zm4.704 10.589l1.918 1.102 6.82-3.937-1.92-1.102z"/><path fill="#53586c" d="M31.807 139.05l.024 1.783-6.818 3.937-.026-1.783"/><circle cx="42.5" cy="114.253" r="6.934" fill="#fff" fill-rule="evenodd" stroke="#000" clip-rule="evenodd" stroke-linecap="round" stroke-linejoin="round"/><path d="M42.676 117.137l-.016-1.45-2.26.024-.012-1.06 2.087-4.013 1.49-.016.042 3.82.619-.007.013 1.229-.619.007.016 1.45-1.36.016zm-.029-2.68l-.012-1.11a5.33 5.33 0 0 1 .02-.491l.04-.49h-.03a11.811 11.811 0 0 1-.41.924l-.588 1.156v.021l.98-.01z"/><path fill="none" stroke="#999" d="M24.46 120l-.492-17.876L34.151 91" stroke-linecap="round" stroke-linejoin="round"/><path fill="#999" d="M21.436 119.207l3.133 5.098 2.848-5.262z"/><circle cx="24.404" cy="105.319" r="6.934" fill="#fff" fill-rule="evenodd" stroke="#000" clip-rule="evenodd" stroke-linecap="round" stroke-linejoin="round"/><path d="M22.645 106.803c.141.079.3.139.477.18.177.042.346.062.505.06.313-.003.546-.084.698-.243a.768.768 0 0 0 .224-.557.818.818 0 0 0-.105-.419.81.81 0 0 0-.268-.272 1.209 1.209 0 0 0-.376-.15 1.81 1.81 0 0 0-.44-.046l-.18.002-.012-1.12.12-.001a1.99 1.99 0 0 0 .37-.039c.126-.024.241-.064.344-.119a.715.715 0 0 0 .248-.213.561.561 0 0 0 .091-.341.602.602 0 0 0-.195-.463c-.127-.116-.302-.172-.522-.17a1.552 1.552 0 0 0-.817.239l-.192-1.158c.139-.088.338-.167.598-.237.259-.069.528-.105.809-.108.307-.003.579.039.814.126s.431.204.583.349.268.313.348.506c.08.193.12.393.123.599.003.327-.078.615-.243.863a1.659 1.659 0 0 1-.669.578v.02c.33.117.599.314.806.592.208.277.313.62.318 1.026.002.24-.043.479-.138.717a1.83 1.83 0 0 1-.436.64 2.345 2.345 0 0 1-.724.463c-.287.119-.62.182-1 .186-.287.003-.544-.022-.771-.077s-.415-.118-.562-.189l.174-1.224z"/><path fill="none" stroke="#009245" d="M35.565 78.882H6.871l2.216 48.628"/><path fill="#009245" d="M6.049 126.772l3.224 5.04 2.753-5.313z"/><circle cx="7.435" cy="78.882" r="6.934" fill="#fff" fill-rule="evenodd" stroke="#000" clip-rule="evenodd" stroke-linecap="round" stroke-linejoin="round"/><path d="M9.32 75.246l.011 1.03-1.96 5.491-1.5.016 1.905-5.141v-.02l-2.16.023-.015-1.36 3.719-.039zm1.759-50.591c.363-.1.803-.144 1.221-.144.737 0 1.287.154 1.672.528.363.374.517.869.517 1.452 0 .946-.44 1.562-1.188 1.914v.022c.55.165.836.692.99 1.661.176 1.012.319 1.639.429 1.87h-.858c-.11-.22-.253-.924-.396-1.826-.165-1.023-.484-1.397-1.21-1.397h-.33v3.224h-.847v-7.304zm.847 3.421h.352c.814 0 1.353-.594 1.353-1.485 0-.847-.352-1.386-1.265-1.396-.165 0-.33.011-.44.044v2.837zm6.468 2.674c0 .407 0 .869.055 1.21h-.759l-.055-.562h-.033c-.231.407-.605.649-1.056.649-.715 0-1.265-.594-1.265-1.519 0-1.342 1.067-1.925 2.266-1.936v-.165c0-.716-.176-1.21-.847-1.21-.33 0-.627.099-.88.274l-.187-.594c.231-.165.715-.353 1.243-.353 1.067 0 1.518.704 1.518 1.893v2.313zm-.826-1.552c-.44 0-1.463.088-1.463 1.243 0 .704.352.946.649.946.374 0 .682-.274.781-.803.022-.1.033-.209.033-.309v-1.077zm5.237-4.852v6.337c0 .363.033.969.044 1.276h-.726l-.055-.66h-.044c-.165.374-.55.748-1.111.748-.902 0-1.551-.968-1.551-2.729 0-1.892.781-2.772 1.606-2.772.385 0 .759.177.968.627h.022v-2.827h.847zm-.848 4.313c0-.109 0-.23-.011-.352-.044-.55-.385-1.034-.792-1.034-.704 0-.946.979-.946 2.046 0 1.122.286 2.024.902 2.024.264 0 .627-.143.814-.913.033-.099.033-.22.033-.352v-1.419zm2.42-2.849c-.275 0-.484-.221-.484-.551s.22-.55.495-.55c.308 0 .506.22.506.55s-.198.551-.506.551h-.011zm-.396 6.149v-5.325h.847v5.325h-.847zm3.52.088c-.957 0-1.727-.869-1.727-2.739 0-1.947.869-2.762 1.782-2.762.957 0 1.716.881 1.716 2.739 0 2.068-.946 2.762-1.76 2.762h-.011zm.044-.671c.726 0 .88-1.243.88-2.079 0-.825-.154-2.079-.902-2.079-.759 0-.902 1.254-.902 2.079 0 .88.154 2.079.914 2.079h.01zm5.357-1.639l-.484 2.223h-.825l1.694-7.415h.935l1.65 7.415h-.836l-.484-2.223h-1.65zm1.53-.682l-.385-1.882a38.668 38.668 0 0 1-.297-1.693h-.033a31.83 31.83 0 0 1-.308 1.705l-.385 1.87h1.408zm4.784 2.773c-.187.109-.506.198-.88.198-1.167 0-1.947-.936-1.947-2.695 0-1.529.77-2.772 2.101-2.772.286 0 .594.076.748.176l-.165.682a1.382 1.382 0 0 0-.605-.143c-.858 0-1.232 1.012-1.232 2.058 0 1.243.473 1.991 1.254 1.991.22 0 .418-.044.605-.144l.121.649zm3.256 0c-.187.109-.506.198-.88.198-1.167 0-1.947-.936-1.947-2.695 0-1.529.77-2.772 2.101-2.772.286 0 .594.076.748.176l-.165.682a1.382 1.382 0 0 0-.605-.143c-.858 0-1.232 1.012-1.232 2.058 0 1.243.473 1.991 1.254 1.991.22 0 .418-.044.605-.144l.121.649zm1.254-2.453c.011 1.639.649 1.979 1.254 1.979.374 0 .671-.088.88-.197l.143.615c-.297.165-.748.254-1.177.254-1.265 0-1.925-1.034-1.925-2.674 0-1.728.726-2.806 1.793-2.806 1.078 0 1.518 1.145 1.518 2.344 0 .209-.011.352-.022.484h-2.464zm1.672-.628c.011-1.066-.385-1.54-.792-1.54-.55 0-.836.814-.869 1.54h1.661zm1.584 2.333c.187.121.517.274.858.274.473 0 .781-.297.781-.77 0-.407-.143-.693-.682-1.045-.693-.451-1.067-.913-1.067-1.519 0-.869.638-1.475 1.463-1.475.418 0 .726.133.946.275l-.22.638a1.214 1.214 0 0 0-.715-.241c-.451 0-.682.329-.682.682 0 .352.132.562.66.913.616.396 1.1.892 1.1 1.628 0 1.067-.726 1.585-1.606 1.585-.385 0-.814-.121-1.045-.309l.209-.636zm3.179 0c.187.121.517.274.858.274.473 0 .781-.297.781-.77 0-.407-.143-.693-.682-1.045-.693-.451-1.067-.913-1.067-1.519 0-.869.638-1.475 1.463-1.475.418 0 .726.133.946.275l-.22.638a1.214 1.214 0 0 0-.715-.241c-.451 0-.682.329-.682.682 0 .352.132.562.66.913.616.396 1.1.892 1.1 1.628 0 1.067-.726 1.585-1.606 1.585-.385 0-.814-.121-1.045-.309l.209-.636zm5.125.879v-7.415h.792l1.364 3.477c.308.803.693 1.782.946 2.585h.022a55.805 55.805 0 0 1-.099-3.41v-2.651h.759v7.415h-.792l-1.408-3.564a23.754 23.754 0 0 1-.891-2.52h-.022c.066.99.088 1.937.088 3.521v2.563h-.759zm5.588-2.584c.011 1.639.649 1.979 1.254 1.979.374 0 .671-.088.88-.197l.143.615c-.297.165-.748.254-1.177.254-1.266 0-1.925-1.034-1.925-2.674 0-1.728.726-2.806 1.793-2.806 1.078 0 1.518 1.145 1.518 2.344 0 .209-.011.352-.022.484h-2.464zm1.673-.628c.011-1.066-.385-1.54-.792-1.54-.55 0-.836.814-.869 1.54h1.661zm2.761-3.356v1.243h1.023v.639h-1.023v3.168c0 .704.242.881.55.881.143 0 .253-.012.341-.033l.044.648a1.827 1.827 0 0 1-.627.089c-.341 0-.638-.089-.836-.319-.22-.242-.319-.605-.319-1.343v-3.091h-.649v-.639h.649v-.901l.847-.342zm2.309 1.243l.517 2.607c.11.572.22 1.145.286 1.694h.044c.077-.55.209-1.166.33-1.672l.616-2.63h.649l.583 2.553c.132.594.253 1.155.341 1.749h.044c.066-.561.165-1.111.286-1.716l.506-2.586h.847l-1.342 5.325h-.693l-.616-2.585c-.132-.518-.209-.99-.297-1.596h-.022a16.63 16.63 0 0 1-.308 1.628l-.638 2.553h-.715l-1.298-5.325h.88zm7.151 5.413c-.957 0-1.727-.869-1.727-2.739 0-1.947.869-2.762 1.782-2.762.957 0 1.716.881 1.716 2.739 0 2.068-.946 2.762-1.76 2.762h-.011zm.043-.671c.726 0 .88-1.243.88-2.079 0-.825-.154-2.079-.902-2.079-.759 0-.902 1.254-.902 2.079 0 .88.154 2.079.914 2.079h.01zm2.662-3.366c0-.451-.033-.979-.044-1.376h.759l.044.837h.022c.176-.507.627-.925 1.122-.925.066 0 .121 0 .176.012v.869c-.055-.012-.11-.012-.176-.012-.539 0-.935.495-1.023 1.111a3.146 3.146 0 0 0-.033.484v2.948h-.847V28.01zm3.575 1.1h.022c.099-.209.187-.418.286-.594l1.056-1.882h.913l-1.408 2.245 1.54 3.08h-.946l-1.155-2.509-.308.495v2.014h-.847v-7.613h.847v4.764zm6.699-4.764c-.627.99-1.144 2.476-1.144 4.478 0 1.97.517 3.455 1.144 4.456h-.66c-.572-.836-1.199-2.311-1.199-4.467.022-2.156.627-3.642 1.199-4.467h.66zm.935.309c.363-.1.803-.144 1.221-.144.737 0 1.287.154 1.672.528.363.374.517.869.517 1.452 0 .946-.44 1.562-1.188 1.914v.022c.55.165.836.692.99 1.661.176 1.012.319 1.639.429 1.87h-.858c-.11-.22-.253-.924-.396-1.826-.165-1.023-.484-1.397-1.21-1.397h-.33v3.224h-.847v-7.304zm.847 3.421h.352c.814 0 1.353-.594 1.353-1.485 0-.847-.352-1.386-1.265-1.396-.165 0-.33.011-.44.044v2.837zm4.609 1.661l-.484 2.223h-.825l1.694-7.415h.935l1.65 7.415h-.836l-.484-2.223h-1.65zm1.529-.682l-.385-1.882a38.668 38.668 0 0 1-.297-1.693h-.033a31.83 31.83 0 0 1-.308 1.705l-.385 1.87h1.408zm2.375 2.904v-7.415h.792l1.364 3.477c.308.803.693 1.782.946 2.585h.022a55.805 55.805 0 0 1-.099-3.41v-2.651h.759v7.415h-.792l-1.408-3.564a23.754 23.754 0 0 1-.891-2.52h-.022c.066.99.088 1.937.088 3.521v2.563h-.759zm4.719 1.321c.627-.99 1.145-2.497 1.145-4.478s-.517-3.466-1.145-4.456h.66c.572.814 1.199 2.277 1.199 4.456-.022 2.178-.627 3.63-1.199 4.478h-.66zM63.877 171.151v6.067h-.693v-6.067h.693zm1.044 2.835c0-.513-.027-.773-.036-1.125h.603l.036.522h.018c.189-.352.54-.595.999-.595.604 0 1.054.441 1.054 1.504v2.926h-.693v-2.809c0-.522-.099-1.035-.603-1.035-.288 0-.567.243-.648.711a1.57 1.57 0 0 0-.036.387v2.746h-.693v-3.232zm4.437-2.142v1.018h.837v.522h-.837v2.593c0 .576.198.72.45.72.117 0 .207-.009.279-.026l.036.531a1.522 1.522 0 0 1-.513.071c-.279 0-.522-.071-.684-.261-.18-.198-.261-.495-.261-1.099v-2.529h-.531v-.522h.531v-.738l.693-.28zm1.863 3.26c.009 1.341.531 1.62 1.026 1.62.306 0 .549-.072.72-.162l.117.504c-.243.136-.612.207-.963.207-1.035 0-1.576-.846-1.576-2.188 0-1.413.594-2.296 1.468-2.296.882 0 1.242.937 1.242 1.918 0 .171-.009.288-.018.396h-2.016zm1.368-.514c.009-.873-.315-1.261-.648-1.261-.45 0-.684.667-.711 1.261h1.359zm1.403-.604c0-.368-.027-.801-.036-1.125h.622l.036.685h.018c.144-.414.513-.757.918-.757.054 0 .099 0 .144.01v.711c-.045-.009-.09-.009-.144-.009-.441 0-.765.404-.837.909a2.566 2.566 0 0 0-.027.396v2.413h-.693v-3.233zm2.241 0c0-.513-.027-.773-.036-1.125h.603l.036.522h.018c.189-.352.54-.595.999-.595.604 0 1.054.441 1.054 1.504v2.926h-.693v-2.809c0-.522-.099-1.035-.603-1.035-.288 0-.567.243-.648.711a1.57 1.57 0 0 0-.036.387v2.746h-.693v-3.232zm4.131 1.118c.009 1.341.531 1.62 1.026 1.62.306 0 .549-.072.72-.162l.117.504c-.243.136-.612.207-.963.207-1.035 0-1.576-.846-1.576-2.188 0-1.413.594-2.296 1.468-2.296.882 0 1.242.937 1.242 1.918 0 .171-.009.288-.018.396h-2.016zm1.369-.514c.009-.873-.315-1.261-.648-1.261-.45 0-.684.667-.711 1.261h1.359zm2.259-2.746v1.018h.837v.522h-.837v2.593c0 .576.198.72.45.72.117 0 .207-.009.279-.026l.036.531a1.522 1.522 0 0 1-.513.071c-.279 0-.522-.071-.684-.261-.18-.198-.261-.495-.261-1.099v-2.529h-.531v-.522h.531v-.738l.693-.28zm2.852 2.142c0-.368-.027-.801-.036-1.125h.622l.036.685h.018c.144-.414.513-.757.918-.757.054 0 .099 0 .144.01v.711c-.045-.009-.09-.009-.144-.009-.441 0-.765.404-.837.909a2.566 2.566 0 0 0-.027.396v2.413h-.693v-3.233zm3.34 3.305c-.783 0-1.414-.712-1.414-2.242 0-1.593.711-2.26 1.458-2.26.783 0 1.405.721 1.405 2.242 0 1.692-.774 2.26-1.44 2.26h-.009zm.036-.55c.594 0 .72-1.017.72-1.701 0-.675-.126-1.701-.738-1.701-.621 0-.738 1.026-.738 1.701 0 .721.126 1.701.747 1.701h.009zm4.797-.711c0 .478.027.864.036 1.188h-.603l-.054-.459h-.018c-.126.216-.459.531-.927.531-.756 0-1.062-.595-1.062-1.675v-2.755h.693v2.656c0 .675.108 1.188.585 1.188.405 0 .585-.379.621-.586.027-.117.036-.243.036-.387v-2.872h.693v3.171zm1.817-4.186v1.018h.837v.522h-.837v2.593c0 .576.198.72.45.72.117 0 .207-.009.279-.026l.036.531a1.522 1.522 0 0 1-.513.071c-.279 0-.522-.071-.684-.261-.18-.198-.261-.495-.261-1.099v-2.529h-.531v-.522h.531v-.738l.693-.28zm1.773.343c-.225 0-.396-.181-.396-.45 0-.271.18-.45.405-.45.252 0 .414.18.414.45s-.162.45-.414.45h-.009zm-.324 5.032v-4.357h.693v4.357h-.693zm1.656-3.233c0-.513-.027-.773-.036-1.125h.603l.036.522h.018c.189-.352.54-.595.999-.595.604 0 1.054.441 1.054 1.504v2.926h-.693v-2.809c0-.522-.099-1.035-.603-1.035-.288 0-.567.243-.648.711a1.57 1.57 0 0 0-.036.387v2.746h-.693v-3.232zm6.273 2.674c0 1.144-.144 1.576-.432 1.9-.27.288-.675.459-1.161.459-.369 0-.729-.09-.954-.216l.162-.541c.171.091.459.189.801.189.549 0 .892-.342.892-1.332v-.441h-.018a.873.873 0 0 1-.828.531c-.774 0-1.279-.873-1.279-2.152 0-1.611.72-2.269 1.369-2.269.459 0 .675.307.81.559h.018l.036-.486h.621c-.009.297-.036.685-.036 1.359v2.44zm-.692-2.295c0-.117-.009-.226-.036-.324-.072-.288-.234-.657-.63-.657-.495 0-.765.675-.765 1.639 0 1.116.351 1.62.765 1.62.216 0 .486-.099.621-.621.045-.135.045-.271.045-.396v-1.261zm3.068-3.376h.693v6.229h-.693v-6.229zm4.014 5.24c0 .333 0 .711.045.99h-.621l-.045-.459h-.027c-.189.333-.495.531-.864.531-.585 0-1.036-.486-1.036-1.242 0-1.099.874-1.576 1.854-1.585v-.135c0-.585-.144-.99-.693-.99-.27 0-.513.081-.72.225l-.153-.486c.189-.135.585-.288 1.018-.288.873 0 1.242.576 1.242 1.549v1.89zm-.675-1.27c-.36 0-1.197.072-1.197 1.018 0 .576.288.774.531.774.306 0 .558-.226.639-.657a1.2 1.2 0 0 0 .027-.252v-.883zm2.421-3.115v1.018h.837v.522h-.837v2.593c0 .576.198.72.45.72.117 0 .207-.009.279-.026l.036.531a1.522 1.522 0 0 1-.513.071c-.279 0-.522-.071-.684-.261-.18-.198-.261-.495-.261-1.099v-2.529h-.531v-.522h.531v-.738l.693-.28zm1.863 3.26c.009 1.341.531 1.62 1.026 1.62.306 0 .549-.072.72-.162l.117.504c-.243.136-.612.207-.963.207-1.035 0-1.576-.846-1.576-2.188 0-1.413.594-2.296 1.468-2.296.882 0 1.242.937 1.242 1.918 0 .171-.009.288-.018.396h-2.016zm1.369-.514c.009-.873-.315-1.261-.648-1.261-.45 0-.684.667-.711 1.261h1.359zm1.412-.604c0-.513-.027-.773-.036-1.125h.603l.036.522h.018c.189-.352.54-.595.999-.595.604 0 1.054.441 1.054 1.504v2.926h-.693v-2.809c0-.522-.099-1.035-.603-1.035-.288 0-.567.243-.648.711a1.57 1.57 0 0 0-.036.387v2.746h-.693v-3.232zm5.769 3.124c-.153.091-.414.162-.72.162-.955 0-1.594-.765-1.594-2.205 0-1.252.63-2.269 1.72-2.269.234 0 .486.062.612.144l-.135.559a1.13 1.13 0 0 0-.495-.117c-.702 0-1.008.828-1.008 1.684 0 1.017.387 1.629 1.026 1.629.18 0 .342-.036.495-.117l.099.53zm1.134-4.249l.576 2.503c.081.342.117.621.18.9h.018c.045-.252.117-.576.189-.892l.513-2.512h.684l-.711 2.8c-.271 1.09-.567 2.143-1.081 2.809-.306.388-.63.586-.783.657l-.252-.585c.198-.117.423-.306.612-.549.18-.234.324-.522.396-.738a.578.578 0 0 0 .045-.216c0-.055 0-.108-.018-.162l-1.098-4.016h.73zm5.733-1.872c-.513.81-.937 2.025-.937 3.664 0 1.611.423 2.826.937 3.646h-.541c-.468-.684-.981-1.891-.981-3.655.018-1.764.513-2.979.981-3.654h.541zm1.061 1.872l.549 2.449c.063.297.135.684.189 1.062h.027c.045-.359.117-.729.18-1.062l.54-2.449h.684l-1.143 4.357h-.612l-1.134-4.357h.72zm4.987 3.368c0 .333 0 .711.045.99h-.621l-.045-.459h-.027c-.189.333-.495.531-.864.531-.585 0-1.036-.486-1.036-1.242 0-1.099.874-1.576 1.855-1.585v-.135c0-.585-.145-.99-.693-.99-.27 0-.513.081-.72.225l-.153-.486c.189-.135.585-.288 1.018-.288.873 0 1.242.576 1.242 1.549v1.89zm-.676-1.27c-.36 0-1.197.072-1.197 1.018 0 .576.288.774.531.774.306 0 .558-.226.639-.657a1.2 1.2 0 0 0 .027-.252v-.883zm1.647-.973c0-.368-.027-.801-.036-1.125h.622l.036.685h.018c.144-.414.513-.757.918-.757.054 0 .099 0 .144.01v.711c-.045-.009-.09-.009-.144-.009-.441 0-.765.404-.837.909a2.566 2.566 0 0 0-.027.396v2.413h-.693v-3.233zm2.565-1.799c-.225 0-.396-.181-.396-.45 0-.271.18-.45.405-.45.252 0 .414.18.414.45s-.162.45-.414.45h-.009zm-.324 5.032v-4.357h.693v4.357h-.693zm3.951-.99c0 .333 0 .711.045.99h-.621l-.045-.459h-.027c-.189.333-.495.531-.864.531-.585 0-1.036-.486-1.036-1.242 0-1.099.874-1.576 1.854-1.585v-.135c0-.585-.144-.99-.693-.99-.27 0-.513.081-.72.225l-.153-.486c.189-.135.585-.288 1.018-.288.873 0 1.242.576 1.242 1.549v1.89zm-.675-1.27c-.36 0-1.197.072-1.197 1.018 0 .576.288.774.531.774.306 0 .558-.226.639-.657a1.2 1.2 0 0 0 .027-.252v-.883zm1.647-3.97h.693v2.386h.018c.225-.433.549-.586.918-.586.685 0 1.188.774 1.188 2.206 0 1.575-.648 2.296-1.314 2.296-.468 0-.702-.271-.864-.64h-.036l-.045.567h-.594c.009-.252.036-.747.036-1.035v-5.194zm.693 4.699c0 .099.009.188.027.27.162.64.459.757.648.757.558 0 .756-.757.756-1.684 0-.873-.207-1.647-.765-1.647-.324 0-.585.396-.648.774a3.488 3.488 0 0 0-.018.306v1.224zm2.907-4.699h.693v6.229h-.693v-6.229zm2.205 4.115c.009 1.341.531 1.62 1.026 1.62.306 0 .549-.072.72-.162l.117.504c-.243.136-.612.207-.963.207-1.035 0-1.576-.846-1.576-2.188 0-1.413.594-2.296 1.468-2.296.882 0 1.242.937 1.242 1.918 0 .171-.009.288-.018.396h-2.016zm1.368-.514c.009-.873-.315-1.261-.648-1.261-.45 0-.684.667-.711 1.261h1.359zm2.826-3.601h.693v6.229h-.693v-6.229zm4.014 5.24c0 .333 0 .711.045.99h-.621l-.045-.459h-.027c-.189.333-.495.531-.864.531-.585 0-1.036-.486-1.036-1.242 0-1.099.874-1.576 1.855-1.585v-.135c0-.585-.145-.99-.693-.99-.27 0-.513.081-.72.225l-.153-.486c.189-.135.585-.288 1.018-.288.873 0 1.242.576 1.242 1.549v1.89zm-.675-1.27c-.36 0-1.197.072-1.197 1.018 0 .576.288.774.531.774.306 0 .558-.226.639-.657a1.2 1.2 0 0 0 .027-.252v-.883zm2.421-3.115v1.018h.837v.522h-.837v2.593c0 .576.198.72.45.72.117 0 .207-.009.279-.026l.036.531a1.522 1.522 0 0 1-.513.071c-.279 0-.522-.071-.684-.261-.18-.198-.261-.495-.261-1.099v-2.529h-.531v-.522h.531v-.738l.693-.28zm1.863 3.26c.009 1.341.531 1.62 1.026 1.62.306 0 .549-.072.72-.162l.117.504c-.243.136-.612.207-.963.207-1.035 0-1.576-.846-1.576-2.188 0-1.413.594-2.296 1.468-2.296.882 0 1.242.937 1.242 1.918 0 .171-.009.288-.018.396h-2.016zm1.368-.514c.009-.873-.315-1.261-.648-1.261-.45 0-.684.667-.711 1.261h1.359zm1.412-.604c0-.513-.026-.773-.036-1.125h.604l.036.522h.018a1.106 1.106 0 0 1 1-.595c.603 0 1.053.441 1.053 1.504v2.926h-.693v-2.809c0-.522-.099-1.035-.603-1.035-.288 0-.567.243-.648.711a1.57 1.57 0 0 0-.036.387v2.746h-.693v-3.232zm5.77 3.124c-.152.091-.414.162-.72.162-.954 0-1.594-.765-1.594-2.205 0-1.252.631-2.269 1.72-2.269.234 0 .486.062.612.144l-.135.559a1.138 1.138 0 0 0-.495-.117c-.703 0-1.009.828-1.009 1.684 0 1.017.387 1.629 1.026 1.629.18 0 .342-.036.495-.117l.1.53zm1.134-4.249l.576 2.503c.081.342.116.621.18.9h.018c.045-.252.117-.576.189-.892l.513-2.512h.685l-.711 2.8c-.271 1.09-.567 2.143-1.08 2.809a2.317 2.317 0 0 1-.784.657l-.252-.585a2.25 2.25 0 0 0 .612-.549c.181-.234.324-.522.396-.738a.578.578 0 0 0 .045-.216c0-.055 0-.108-.018-.162l-1.099-4.016h.73zm2.492 5.438c.514-.81.937-2.043.937-3.664 0-1.62-.423-2.836-.937-3.646h.541c.468.666.98 1.863.98 3.646-.018 1.783-.513 2.971-.98 3.664h-.541zm-154.87 16.579v.666h-3.961v-.666h3.961zm42.382-.657c0-.666-.027-1.053-.036-1.359h.622l.036.549h.018c.234-.459.585-.621.918-.621.765 0 1.26.802 1.26 2.242 0 1.62-.666 2.26-1.341 2.26-.414 0-.648-.252-.765-.495h-.018v2.151h-.693v-4.727zm.693 1.404c0 .126.009.252.036.36.135.621.441.729.63.729.576 0 .765-.792.765-1.666 0-.909-.216-1.665-.765-1.665-.315 0-.603.396-.639.792-.027.108-.027.216-.027.333v1.117zm5.202.604c0 .333 0 .711.045.99h-.621l-.045-.459h-.027c-.189.333-.495.531-.864.531-.585 0-1.036-.486-1.036-1.242 0-1.099.874-1.576 1.854-1.585v-.135c0-.585-.144-.99-.693-.99-.27 0-.513.081-.72.225l-.153-.486c.189-.135.585-.288 1.018-.288.873 0 1.242.576 1.242 1.549v1.89zm-.675-1.27c-.36 0-1.197.072-1.197 1.018 0 .576.288.774.531.774.306 0 .558-.226.639-.657a1.2 1.2 0 0 0 .027-.252v-.883zm4.284 1.701c0 1.144-.144 1.576-.432 1.9-.27.288-.675.459-1.161.459-.369 0-.729-.09-.954-.216l.162-.541c.171.091.459.189.801.189.549 0 .892-.342.892-1.332v-.441h-.018a.873.873 0 0 1-.828.531c-.774 0-1.279-.873-1.279-2.152 0-1.611.72-2.269 1.369-2.269.459 0 .675.307.81.559h.018l.036-.486h.621c-.009.297-.036.685-.036 1.359v2.44zm-.693-2.295c0-.117-.009-.226-.036-.324-.072-.288-.234-.657-.63-.657-.495 0-.765.675-.765 1.639 0 1.116.351 1.62.765 1.62.216 0 .486-.099.622-.621.045-.135.045-.271.045-.396v-1.261zm1.979-2.178c-.225 0-.396-.181-.396-.45 0-.271.18-.45.405-.45.252 0 .414.18.414.45s-.162.45-.414.45h-.009zm-.324 5.032v-4.357h.693v4.357h-.693zm1.657-3.233c0-.513-.027-.773-.036-1.125h.603l.036.522h.018c.189-.352.54-.595.999-.595.604 0 1.054.441 1.054 1.504v2.926h-.693v-2.809c0-.522-.099-1.035-.603-1.035-.288 0-.567.243-.648.711a1.57 1.57 0 0 0-.036.387v2.746h-.693v-3.232zm6.273 2.674c0 1.144-.144 1.576-.432 1.9-.27.288-.675.459-1.161.459-.369 0-.729-.09-.954-.216l.162-.541c.171.091.459.189.801.189.549 0 .892-.342.892-1.332v-.441h-.018a.873.873 0 0 1-.828.531c-.774 0-1.279-.873-1.279-2.152 0-1.611.72-2.269 1.369-2.269.459 0 .675.307.81.559h.018l.036-.486h.621c-.009.297-.036.685-.036 1.359v2.44zm-.693-2.295c0-.117-.009-.226-.036-.324-.072-.288-.234-.657-.63-.657-.495 0-.765.675-.765 1.639 0 1.116.351 1.62.765 1.62.216 0 .486-.099.621-.621.045-.135.045-.271.045-.396v-1.261zm5.364 1.864c0 .333 0 .711.045.99h-.621l-.045-.459h-.027c-.189.333-.495.531-.864.531-.585 0-1.036-.486-1.036-1.242 0-1.099.874-1.576 1.854-1.585v-.135c0-.585-.144-.99-.693-.99-.27 0-.513.081-.72.225l-.153-.486c.189-.135.585-.288 1.018-.288.873 0 1.242.576 1.242 1.549v1.89zm-.675-1.27c-.36 0-1.197.072-1.197 1.018 0 .576.288.774.531.774.306 0 .558-.226.639-.657a1.2 1.2 0 0 0 .027-.252v-.883zm1.655-.973c0-.513-.027-.773-.036-1.125h.603l.036.522h.018c.189-.352.54-.595.999-.595.604 0 1.054.441 1.054 1.504v2.926h-.693v-2.809c0-.522-.099-1.035-.603-1.035-.288 0-.567.243-.648.711a1.57 1.57 0 0 0-.036.387v2.746h-.693v-3.232zm6.274-2.997v5.186c0 .297.027.792.036 1.044h-.594l-.045-.54h-.036c-.135.306-.45.612-.909.612-.738 0-1.27-.792-1.27-2.233 0-1.548.639-2.269 1.314-2.269.315 0 .622.145.792.514h.018v-2.313h.694zm-.693 3.529c0-.09 0-.188-.009-.288-.036-.45-.315-.846-.648-.846-.576 0-.774.801-.774 1.674 0 .919.234 1.657.738 1.657.216 0 .513-.117.666-.747.027-.081.027-.181.027-.288v-1.162zm5.193 2.592c-.153.091-.414.162-.72.162-.955 0-1.594-.765-1.594-2.205 0-1.252.63-2.269 1.72-2.269.234 0 .486.062.612.144l-.135.559a1.13 1.13 0 0 0-.495-.117c-.702 0-1.008.828-1.008 1.684 0 1.017.387 1.629 1.026 1.629.18 0 .342-.036.495-.117l.099.53zm1.763.181c-.783 0-1.414-.712-1.414-2.242 0-1.593.711-2.26 1.458-2.26.783 0 1.405.721 1.405 2.242 0 1.692-.774 2.26-1.44 2.26h-.009zm.036-.55c.594 0 .72-1.017.72-1.701 0-.675-.126-1.701-.738-1.701-.621 0-.738 1.026-.738 1.701 0 .721.126 1.701.747 1.701h.009zm2.187-2.755c0-.513-.027-.773-.036-1.125h.603l.036.522h.018c.189-.352.54-.595.999-.595.604 0 1.054.441 1.054 1.504v2.926h-.693v-2.809c0-.522-.099-1.035-.603-1.035-.288 0-.567.243-.648.711a1.57 1.57 0 0 0-.036.387v2.746h-.693v-3.232zm4.437-2.142v1.018h.837v.522h-.837v2.593c0 .576.198.72.45.72.117 0 .207-.009.279-.026l.036.531a1.522 1.522 0 0 1-.513.071c-.279 0-.522-.071-.684-.261-.18-.198-.261-.495-.261-1.099v-2.529h-.531v-.522h.531v-.738l.693-.28zm1.44 2.142c0-.368-.027-.801-.036-1.125h.622l.036.685h.018c.144-.414.513-.757.918-.757.054 0 .099 0 .144.01v.711c-.045-.009-.09-.009-.144-.009-.441 0-.765.404-.837.909a2.566 2.566 0 0 0-.027.396v2.413h-.693v-3.233zm3.339 3.305c-.783 0-1.414-.712-1.414-2.242 0-1.593.711-2.26 1.458-2.26.783 0 1.405.721 1.405 2.242 0 1.692-.774 2.26-1.44 2.26h-.009zm.036-.55c.594 0 .72-1.017.72-1.701 0-.675-.126-1.701-.738-1.701-.621 0-.738 1.026-.738 1.701 0 .721.126 1.701.747 1.701h.009zm2.187-5.752h.693v6.229h-.693v-6.229zm3.474 3.61v.531h-1.972v-.531h1.972zm.746-.378c0-.666-.027-1.053-.036-1.359h.622l.036.549h.018c.234-.459.585-.621.918-.621.765 0 1.26.802 1.26 2.242 0 1.62-.666 2.26-1.341 2.26-.414 0-.648-.252-.765-.495h-.018v2.151h-.693v-4.727zm.694 1.404c0 .126.009.252.036.36.135.621.441.729.63.729.576 0 .765-.792.765-1.666 0-.909-.216-1.665-.765-1.665-.315 0-.603.396-.639.792-.027.108-.027.216-.027.333v1.117zm2.906-4.636h.693v6.229h-.693v-6.229zm4.015 5.24c0 .333 0 .711.045.99h-.621l-.045-.459h-.027c-.189.333-.495.531-.864.531-.585 0-1.036-.486-1.036-1.242 0-1.099.874-1.576 1.855-1.585v-.135c0-.585-.145-.99-.693-.99-.27 0-.513.081-.72.225l-.153-.486c.189-.135.585-.288 1.018-.288.873 0 1.242.576 1.242 1.549v1.89zm-.675-1.27c-.36 0-1.197.072-1.197 1.018 0 .576.288.774.531.774.306 0 .558-.226.639-.657a1.2 1.2 0 0 0 .027-.252v-.883zm1.656-.973c0-.513-.027-.773-.036-1.125h.603l.036.522h.018c.189-.352.54-.595.999-.595.604 0 1.054.441 1.054 1.504v2.926h-.693v-2.809c0-.522-.099-1.035-.603-1.035-.288 0-.567.243-.648.711a1.57 1.57 0 0 0-.036.387v2.746h-.693v-3.232zm4.13 1.118c.009 1.341.531 1.62 1.026 1.62.306 0 .549-.072.72-.162l.117.504c-.243.136-.612.207-.963.207-1.035 0-1.576-.846-1.576-2.188 0-1.413.594-2.296 1.468-2.296.882 0 1.242.937 1.242 1.918 0 .171-.009.288-.018.396h-2.016zm1.369-.514c.009-.873-.315-1.261-.648-1.261-.45 0-.684.667-.711 1.261h1.359zm2.825-3.601h.693v6.229h-.693v-6.229zm4.015 5.24c0 .333 0 .711.045.99h-.621l-.045-.459h-.027c-.189.333-.495.531-.864.531-.585 0-1.036-.486-1.036-1.242 0-1.099.874-1.576 1.854-1.585v-.135c0-.585-.144-.99-.693-.99-.27 0-.513.081-.72.225l-.153-.486c.189-.135.585-.288 1.018-.288.873 0 1.242.576 1.242 1.549v1.89zm-.675-1.27c-.36 0-1.197.072-1.197 1.018 0 .576.288.774.531.774.306 0 .558-.226.639-.657a1.2 1.2 0 0 0 .027-.252v-.883zm2.421-3.115v1.018h.837v.522h-.837v2.593c0 .576.198.72.45.72.117 0 .207-.009.279-.026l.036.531a1.522 1.522 0 0 1-.513.071c-.279 0-.522-.071-.684-.261-.18-.198-.261-.495-.261-1.099v-2.529h-.531v-.522h.531v-.738l.693-.28zm1.862 3.26c.009 1.341.531 1.62 1.026 1.62.306 0 .549-.072.72-.162l.117.504c-.243.136-.612.207-.963.207-1.035 0-1.576-.846-1.576-2.188 0-1.413.594-2.296 1.468-2.296.882 0 1.242.937 1.242 1.918 0 .171-.009.288-.018.396h-2.016zm1.369-.514c.009-.873-.315-1.261-.648-1.261-.45 0-.684.667-.711 1.261h1.359zm1.413-.604c0-.513-.027-.773-.036-1.125h.603l.036.522h.018c.189-.352.54-.595.999-.595.604 0 1.054.441 1.054 1.504v2.926h-.693v-2.809c0-.522-.099-1.035-.603-1.035-.288 0-.567.243-.648.711a1.57 1.57 0 0 0-.036.387v2.746h-.693v-3.232zm5.769 3.124c-.153.091-.414.162-.72.162-.955 0-1.594-.765-1.594-2.205 0-1.252.63-2.269 1.72-2.269.234 0 .486.062.612.144l-.135.559a1.13 1.13 0 0 0-.495-.117c-.702 0-1.008.828-1.008 1.684 0 1.017.387 1.629 1.026 1.629.18 0 .342-.036.495-.117l.099.53zm1.133-4.249l.576 2.503c.081.342.117.621.18.9h.018c.045-.252.117-.576.189-.892l.513-2.512h.684l-.711 2.8c-.271 1.09-.567 2.143-1.081 2.809-.306.388-.63.586-.783.657l-.252-.585c.198-.117.423-.306.612-.549.18-.234.324-.522.396-.738a.578.578 0 0 0 .045-.216c0-.055 0-.108-.018-.162l-1.098-4.016h.73zm5.733-1.872c-.513.81-.937 2.025-.937 3.664 0 1.611.423 2.826.937 3.646h-.54c-.468-.684-.981-1.891-.981-3.655.018-1.764.513-2.979.981-3.654h.54zm.764.252a3.952 3.952 0 0 1 1-.117c.603 0 1.053.126 1.368.432.297.307.423.712.423 1.188 0 .774-.36 1.278-.972 1.566v.019c.45.135.684.567.81 1.359.144.828.261 1.341.351 1.53h-.702c-.09-.18-.207-.756-.324-1.494-.135-.838-.396-1.144-.99-1.144h-.27v2.638h-.693v-5.977zm.694 2.8h.288c.666 0 1.107-.486 1.107-1.216 0-.693-.288-1.134-1.036-1.144-.135 0-.27.01-.36.036v2.324zm2.988-2.8a3.952 3.952 0 0 1 1-.117c.603 0 1.053.126 1.368.432.297.307.423.712.423 1.188 0 .774-.36 1.278-.972 1.566v.019c.45.135.684.567.81 1.359.144.828.261 1.341.351 1.53h-.702c-.09-.18-.207-.756-.324-1.494-.135-.838-.396-1.144-.99-1.144h-.27v2.638h-.693v-5.977zm.693 2.8h.288c.666 0 1.107-.486 1.107-1.216 0-.693-.288-1.134-1.036-1.144-.135 0-.27.01-.36.036v2.324zm5.644 3.069c-.188.1-.495.162-.873.162-1.18 0-2.035-.945-2.035-3.007 0-2.403 1.188-3.169 2.152-3.169.36 0 .63.072.747.153l-.153.585c-.144-.062-.288-.126-.603-.126-.648 0-1.414.63-1.414 2.485 0 1.863.685 2.466 1.432 2.466a1.6 1.6 0 0 0 .63-.126l.117.577zm2.06-3.124c0-.513-.027-.773-.036-1.125h.604l.035.522h.019c.188-.352.54-.595.999-.595.604 0 1.054.441 1.054 1.504v2.926h-.693v-2.809c0-.522-.099-1.035-.604-1.035-.288 0-.567.243-.647.711a1.57 1.57 0 0 0-.036.387v2.746h-.693v-3.232zm4.131 1.118c.009 1.341.531 1.62 1.026 1.62.306 0 .549-.072.72-.162l.117.504c-.243.136-.612.207-.964.207-1.035 0-1.575-.846-1.575-2.188 0-1.413.595-2.296 1.468-2.296.882 0 1.242.937 1.242 1.918 0 .171-.009.288-.018.396h-2.016zm1.368-.514c.009-.873-.315-1.261-.648-1.261-.45 0-.684.667-.711 1.261h1.359zm4.041 2.07c0 1.144-.145 1.576-.433 1.9-.27.288-.675.459-1.161.459-.369 0-.729-.09-.954-.216l.162-.541c.171.091.459.189.801.189.55 0 .892-.342.892-1.332v-.441h-.019a.873.873 0 0 1-.828.531c-.774 0-1.278-.873-1.278-2.152 0-1.611.721-2.269 1.368-2.269.46 0 .676.307.811.559h.019l.035-.486h.622c-.01.297-.036.685-.036 1.359v2.44zm-.693-2.295c0-.117-.009-.226-.036-.324-.072-.288-.234-.657-.63-.657-.495 0-.766.675-.766 1.639 0 1.116.352 1.62.766 1.62.216 0 .485-.099.621-.621.045-.135.045-.271.045-.396v-1.261zm2.881 2.926c-.783 0-1.414-.712-1.414-2.242 0-1.593.711-2.26 1.459-2.26.783 0 1.404.721 1.404 2.242 0 1.692-.774 2.26-1.44 2.26h-.009zm.035-.55c.595 0 .721-1.017.721-1.701 0-.675-.126-1.701-.738-1.701-.621 0-.738 1.026-.738 1.701 0 .721.126 1.701.747 1.701h.008zm3.032-4.897v1.018h.838v.522h-.838v2.593c0 .576.198.72.45.72.117 0 .207-.009.279-.026l.036.531a1.522 1.522 0 0 1-.513.071c-.279 0-.522-.071-.685-.261-.181-.198-.261-.495-.261-1.099v-2.529h-.531v-.522h.531v-.738l.694-.28zm1.773.343c-.226 0-.396-.181-.396-.45 0-.271.18-.45.405-.45.252 0 .414.18.414.45s-.162.45-.414.45h-.009zm-.324 5.032v-4.357h.693v4.357h-.693zm3.952-.99c0 .333 0 .711.045.99h-.621l-.045-.459h-.027c-.189.333-.495.531-.864.531-.585 0-1.035-.486-1.035-1.242 0-1.099.873-1.576 1.854-1.585v-.135c0-.585-.145-.99-.693-.99-.271 0-.514.081-.721.225l-.152-.486c.188-.135.585-.288 1.017-.288.874 0 1.243.576 1.243 1.549v1.89zm-.675-1.27c-.36 0-1.197.072-1.197 1.018 0 .576.288.774.531.774.306 0 .559-.226.64-.657.018-.081.026-.171.026-.252v-.883zm2.421-3.115v1.018h.838v.522h-.838v2.593c0 .576.198.72.45.72.117 0 .207-.009.279-.026l.036.531a1.522 1.522 0 0 1-.513.071c-.279 0-.522-.071-.685-.261-.181-.198-.261-.495-.261-1.099v-2.529h-.531v-.522h.531v-.738l.694-.28zm1.773.343c-.226 0-.396-.181-.396-.45 0-.271.18-.45.405-.45.252 0 .414.18.414.45s-.162.45-.414.45h-.009zm-.324 5.032v-4.357h.693v4.357h-.693zm2.88.072c-.783 0-1.414-.712-1.414-2.242 0-1.593.711-2.26 1.459-2.26.783 0 1.404.721 1.404 2.242 0 1.692-.774 2.26-1.44 2.26h-.009zm.035-.55c.595 0 .721-1.017.721-1.701 0-.675-.126-1.701-.738-1.701-.621 0-.738 1.026-.738 1.701 0 .721.126 1.701.747 1.701h.008zm2.187-2.755c0-.513-.027-.773-.036-1.125h.604l.035.522h.019c.189-.352.54-.595.999-.595.604 0 1.054.441 1.054 1.504v2.926h-.693v-2.809c0-.522-.099-1.035-.604-1.035-.288 0-.566.243-.647.711a1.57 1.57 0 0 0-.036.387v2.746h-.693v-3.232zm4.05 0c-.252 0-.441-.207-.441-.504s.198-.513.45-.513c.27 0 .45.207.45.513 0 .297-.162.504-.45.504h-.009zm0 3.305c-.252 0-.441-.207-.441-.505 0-.297.198-.513.45-.513.27 0 .45.207.45.513 0 .298-.162.505-.45.505h-.009zm2.861-2.683l4.178-2.179v.594l-3.493 1.792v.018l3.493 1.792v.594l-4.178-2.188v-.423zm7.876-2.539h-.018l-.973.558-.135-.54 1.233-.72h.567v5.852h-.676v-5.15zm3.474 5.222c-.909 0-1.458-1.081-1.458-2.989 0-1.972.585-3.007 1.539-3.007.945 0 1.44 1.125 1.44 2.989 0 2.134-.675 3.007-1.512 3.007h-.009zm.045-.595c.559 0 .783-.999.783-2.403 0-1.368-.225-2.403-.783-2.403-.566 0-.81.99-.81 2.403-.009 1.413.233 2.403.801 2.403h.009zm3.42.595c-.909 0-1.458-1.081-1.458-2.989 0-1.972.585-3.007 1.539-3.007.945 0 1.44 1.125 1.44 2.989 0 2.134-.675 3.007-1.512 3.007h-.009zm.045-.595c.559 0 .783-.999.783-2.403 0-1.368-.225-2.403-.783-2.403-.566 0-.81.99-.81 2.403-.009 1.413.233 2.403.801 2.403h.009zm3.618-2.71c0-.513-.027-.773-.036-1.125h.612l.036.531h.018c.189-.351.514-.604.973-.604.405 0 .756.189.918.657h.019a1.45 1.45 0 0 1 .423-.495c.18-.107.378-.162.603-.162.595 0 1.054.424 1.054 1.54v2.89h-.693v-2.737c0-.566-.081-1.116-.603-1.116-.288 0-.541.243-.64.657-.027.108-.027.243-.027.388v2.809h-.692v-2.863c0-.477-.081-.99-.595-.99-.288 0-.567.243-.648.712a2.278 2.278 0 0 0-.026.369v2.772h-.693v-3.233zm5.463 2.513c.153.099.423.225.702.225.387 0 .64-.243.64-.63 0-.333-.117-.567-.559-.855-.567-.369-.873-.747-.873-1.242 0-.712.521-1.207 1.197-1.207.342 0 .594.108.774.226l-.181.522a.994.994 0 0 0-.585-.198c-.369 0-.558.27-.558.558s.107.459.54.747c.504.324.9.729.9 1.333 0 .873-.595 1.296-1.314 1.296-.315 0-.667-.099-.855-.252l.172-.523zm2.456 1.8c.514-.81.937-2.043.937-3.664 0-1.62-.423-2.836-.937-3.646h.541c.468.666.98 1.863.98 3.646-.018 1.783-.513 2.971-.98 3.664h-.541zm-169.07 12.69h.693v2.386h.018c.225-.433.549-.586.918-.586.685 0 1.188.774 1.188 2.206 0 1.575-.648 2.296-1.314 2.296-.468 0-.702-.271-.864-.64h-.036l-.045.567h-.594c.009-.252.036-.747.036-1.035v-5.194zm.693 4.699c0 .099.009.188.027.27.162.64.459.757.648.757.558 0 .756-.757.756-1.684 0-.873-.207-1.647-.765-1.647-.324 0-.585.396-.648.774a3.488 3.488 0 0 0-.018.306v1.224zm5.202.541c0 .333 0 .711.045.99h-.621l-.045-.459h-.027c-.189.333-.495.531-.864.531-.585 0-1.036-.486-1.036-1.242 0-1.099.874-1.576 1.854-1.585v-.135c0-.585-.144-.99-.693-.99-.27 0-.513.081-.72.225l-.153-.486c.189-.135.585-.288 1.018-.288.873 0 1.242.576 1.242 1.549v1.89zm-.675-1.27c-.36 0-1.197.072-1.197 1.018 0 .576.288.774.531.774.306 0 .558-.226.639-.657a1.2 1.2 0 0 0 .027-.252v-.883zm3.78 2.151c-.153.091-.414.162-.72.162-.954 0-1.594-.765-1.594-2.205 0-1.252.63-2.269 1.72-2.269.234 0 .486.062.612.144l-.135.559a1.13 1.13 0 0 0-.495-.117c-.702 0-1.008.828-1.008 1.684 0 1.017.387 1.629 1.026 1.629.18 0 .342-.036.495-.117l.099.53zm1.278-2.223h.018c.081-.171.153-.342.234-.485l.864-1.54h.747l-1.152 1.837 1.261 2.521h-.774l-.945-2.053-.252.405v1.647h-.693v-6.229h.693v3.897zm2.492-3.898h.693v2.386h.018c.225-.433.549-.586.918-.586.685 0 1.188.774 1.188 2.206 0 1.575-.648 2.296-1.314 2.296-.468 0-.702-.271-.864-.64h-.036l-.045.567h-.594c.009-.252.036-.747.036-1.035v-5.194zm.693 4.699c0 .099.009.188.027.27.162.64.459.757.648.757.558 0 .756-.757.756-1.684 0-.873-.207-1.647-.765-1.647-.324 0-.585.396-.648.774a3.488 3.488 0 0 0-.018.306v1.224zm4.131 1.603c-.783 0-1.414-.712-1.414-2.242 0-1.593.711-2.26 1.458-2.26.783 0 1.405.721 1.405 2.242 0 1.692-.774 2.26-1.44 2.26h-.009zm.036-.55c.594 0 .72-1.017.72-1.701 0-.675-.126-1.701-.738-1.701-.621 0-.738 1.026-.738 1.701 0 .721.126 1.701.747 1.701h.009zm2.187-2.755c0-.513-.027-.773-.036-1.125h.603l.036.522h.018c.189-.352.54-.595.999-.595.604 0 1.054.441 1.054 1.504v2.926h-.693v-2.809c0-.522-.099-1.035-.603-1.035-.288 0-.567.243-.648.711a1.57 1.57 0 0 0-.036.387v2.746h-.693v-3.232zm4.131 1.118c.009 1.341.531 1.62 1.026 1.62.306 0 .549-.072.72-.162l.117.504c-.243.136-.612.207-.963.207-1.035 0-1.576-.846-1.576-2.188 0-1.413.594-2.296 1.468-2.296.882 0 1.242.937 1.242 1.918 0 .171-.009.288-.018.396h-2.016zm1.369-.514c.009-.873-.315-1.261-.648-1.261-.45 0-.684.667-.711 1.261h1.359zm5.121 1.639c0 .333 0 .711.045.99h-.621l-.045-.459h-.027c-.189.333-.495.531-.864.531-.585 0-1.036-.486-1.036-1.242 0-1.099.874-1.576 1.855-1.585v-.135c0-.585-.145-.99-.693-.99-.27 0-.513.081-.72.225l-.153-.486c.189-.135.585-.288 1.018-.288.873 0 1.242.576 1.242 1.549v1.89zm-.676-1.27c-.36 0-1.197.072-1.197 1.018 0 .576.288.774.531.774.306 0 .558-.226.639-.657a1.2 1.2 0 0 0 .027-.252v-.883zm1.656-.973c0-.513-.027-.773-.036-1.125h.603l.036.522h.018c.189-.352.54-.595.999-.595.604 0 1.054.441 1.054 1.504v2.926h-.693v-2.809c0-.522-.099-1.035-.603-1.035-.288 0-.567.243-.648.711a1.57 1.57 0 0 0-.036.387v2.746h-.693v-3.232zm6.273-2.997v5.186c0 .297.027.792.036 1.044h-.594l-.045-.54h-.036c-.135.306-.45.612-.909.612-.738 0-1.27-.792-1.27-2.233 0-1.548.64-2.269 1.314-2.269.315 0 .621.145.792.514h.018v-2.313h.694zm-.692 3.529c0-.09 0-.188-.009-.288-.036-.45-.315-.846-.648-.846-.576 0-.774.801-.774 1.674 0 .919.234 1.657.738 1.657.216 0 .513-.117.666-.747.027-.081.027-.181.027-.288v-1.162zm5.192 2.592c-.153.091-.414.162-.72.162-.954 0-1.594-.765-1.594-2.205 0-1.252.63-2.269 1.72-2.269.234 0 .486.062.612.144l-.135.559a1.13 1.13 0 0 0-.495-.117c-.702 0-1.008.828-1.008 1.684 0 1.017.387 1.629 1.026 1.629.18 0 .342-.036.495-.117l.099.53zm1.764.181c-.783 0-1.414-.712-1.414-2.242 0-1.593.711-2.26 1.458-2.26.783 0 1.405.721 1.405 2.242 0 1.692-.774 2.26-1.44 2.26h-.009zm.036-.55c.594 0 .72-1.017.72-1.701 0-.675-.126-1.701-.738-1.701-.621 0-.738 1.026-.738 1.701 0 .721.126 1.701.747 1.701h.009zm2.178-2.755c0-.368-.027-.801-.036-1.125h.622l.036.685h.018c.144-.414.513-.757.918-.757.054 0 .099 0 .144.01v.711c-.045-.009-.09-.009-.144-.009-.441 0-.765.404-.837.909a2.566 2.566 0 0 0-.027.396v2.413h-.693v-3.233zm2.601 1.118c.009 1.341.531 1.62 1.026 1.62.306 0 .549-.072.72-.162l.117.504c-.243.136-.612.207-.963.207-1.035 0-1.576-.846-1.576-2.188 0-1.413.594-2.296 1.468-2.296.882 0 1.242.937 1.242 1.918 0 .171-.009.288-.018.396h-2.016zm1.368-.514c.009-.873-.315-1.261-.648-1.261-.45 0-.684.667-.711 1.261h1.359zm2.826-.604c0-.513-.027-.773-.036-1.125h.603l.036.522h.018c.189-.352.54-.595.999-.595.604 0 1.054.441 1.054 1.504v2.926h-.693v-2.809c0-.522-.099-1.035-.603-1.035-.288 0-.567.243-.648.711a1.57 1.57 0 0 0-.036.387v2.746h-.693v-3.232zm4.131 1.118c.009 1.341.531 1.62 1.026 1.62.306 0 .549-.072.72-.162l.117.504c-.243.136-.612.207-.963.207-1.035 0-1.576-.846-1.576-2.188 0-1.413.594-2.296 1.468-2.296.882 0 1.242.937 1.242 1.918 0 .171-.009.288-.018.396h-2.016zm1.368-.514c.009-.873-.315-1.261-.648-1.261-.45 0-.684.667-.711 1.261h1.359zm2.259-2.746v1.018h.837v.522h-.837v2.593c0 .576.198.72.45.72.117 0 .207-.009.279-.026l.036.531a1.522 1.522 0 0 1-.513.071c-.279 0-.522-.071-.684-.261-.18-.198-.261-.495-.261-1.099v-2.529h-.531v-.522h.531v-.738l.693-.28zm1.889 1.017l.423 2.134c.09.468.18.937.234 1.387h.036c.063-.45.171-.955.271-1.369l.504-2.151h.531l.477 2.089c.108.486.207.945.279 1.432h.036c.054-.459.135-.909.234-1.404l.414-2.116h.693l-1.099 4.357h-.567l-.504-2.115a12.152 12.152 0 0 1-.243-1.306h-.018c-.072.513-.153.918-.252 1.332l-.522 2.089h-.585l-1.062-4.357h.72zm5.851 4.43c-.783 0-1.414-.712-1.414-2.242 0-1.593.711-2.26 1.458-2.26.783 0 1.405.721 1.405 2.242 0 1.692-.774 2.26-1.44 2.26h-.009zm.036-.55c.594 0 .72-1.017.72-1.701 0-.675-.126-1.701-.738-1.701-.621 0-.738 1.026-.738 1.701 0 .721.126 1.701.747 1.701h.009zm2.177-2.755c0-.368-.027-.801-.036-1.125h.622l.036.685h.018c.144-.414.513-.757.918-.757.054 0 .099 0 .144.01v.711c-.045-.009-.09-.009-.144-.009-.441 0-.765.404-.837.909a2.566 2.566 0 0 0-.027.396v2.413h-.693v-3.233zm2.926.901h.018c.081-.171.153-.342.234-.485l.864-1.54h.747l-1.152 1.837 1.261 2.521h-.774l-.945-2.053-.252.405v1.647h-.693v-6.229h.693v3.897zm3.914-3.898h.693v6.229h-.693v-6.229zm4.015 5.24c0 .333 0 .711.045.99h-.621l-.045-.459h-.027c-.189.333-.495.531-.864.531-.585 0-1.036-.486-1.036-1.242 0-1.099.874-1.576 1.854-1.585v-.135c0-.585-.144-.99-.693-.99-.27 0-.513.081-.72.225l-.153-.486c.189-.135.585-.288 1.018-.288.873 0 1.242.576 1.242 1.549v1.89zm-.675-1.27c-.36 0-1.197.072-1.197 1.018 0 .576.288.774.531.774.306 0 .558-.226.639-.657a1.2 1.2 0 0 0 .027-.252v-.883zm2.42-3.115v1.018h.837v.522h-.837v2.593c0 .576.198.72.45.72.117 0 .207-.009.279-.026l.036.531a1.522 1.522 0 0 1-.513.071c-.279 0-.522-.071-.684-.261-.18-.198-.261-.495-.261-1.099v-2.529h-.531v-.522h.531v-.738l.693-.28zm1.863 3.26c.009 1.341.531 1.62 1.026 1.62.306 0 .549-.072.72-.162l.117.504c-.243.136-.612.207-.963.207-1.035 0-1.576-.846-1.576-2.188 0-1.413.594-2.296 1.468-2.296.882 0 1.242.937 1.242 1.918 0 .171-.009.288-.018.396h-2.016zm1.369-.514c.009-.873-.315-1.261-.648-1.261-.45 0-.684.667-.711 1.261h1.359zm1.412-.604c0-.513-.027-.773-.036-1.125h.603l.036.522h.018c.189-.352.54-.595.999-.595.604 0 1.054.441 1.054 1.504v2.926h-.693v-2.809c0-.522-.099-1.035-.603-1.035-.288 0-.567.243-.648.711a1.57 1.57 0 0 0-.036.387v2.746h-.693v-3.232zm5.77 3.124c-.153.091-.414.162-.72.162-.954 0-1.594-.765-1.594-2.205 0-1.252.63-2.269 1.72-2.269.234 0 .486.062.612.144l-.135.559a1.13 1.13 0 0 0-.495-.117c-.702 0-1.008.828-1.008 1.684 0 1.017.387 1.629 1.026 1.629.18 0 .342-.036.495-.117l.099.53zm1.133-4.249l.576 2.503c.081.342.117.621.18.9h.018c.045-.252.117-.576.189-.892l.513-2.512h.684l-.711 2.8c-.271 1.09-.567 2.143-1.081 2.809-.306.388-.63.586-.783.657l-.252-.585c.198-.117.423-.306.612-.549.18-.234.324-.522.396-.738a.578.578 0 0 0 .045-.216c0-.055 0-.108-.018-.162l-1.098-4.016h.73zm5.733-1.872c-.513.81-.937 2.025-.937 3.664 0 1.611.423 2.826.937 3.646h-.54c-.468-.684-.981-1.891-.981-3.655.018-1.764.513-2.979.981-3.654h.54zm1.062 1.872l.549 2.449c.063.297.135.684.189 1.062h.027c.045-.359.117-.729.18-1.062l.54-2.449h.685l-1.144 4.357h-.612l-1.134-4.357h.72zm4.987 3.368c0 .333 0 .711.045.99h-.621l-.045-.459h-.027c-.189.333-.495.531-.864.531-.585 0-1.035-.486-1.035-1.242 0-1.099.873-1.576 1.854-1.585v-.135c0-.585-.145-.99-.693-.99-.271 0-.514.081-.721.225l-.152-.486c.188-.135.585-.288 1.017-.288.874 0 1.243.576 1.243 1.549v1.89zm-.676-1.27c-.36 0-1.197.072-1.197 1.018 0 .576.288.774.531.774.306 0 .559-.226.64-.657.018-.081.026-.171.026-.252v-.883zm1.647-.973c0-.368-.027-.801-.036-1.125h.621l.036.685h.018c.145-.414.514-.757.918-.757.055 0 .1 0 .145.01v.711c-.045-.009-.09-.009-.145-.009-.44 0-.765.404-.837.909a2.566 2.566 0 0 0-.027.396v2.413h-.692v-3.233zm2.565-1.799c-.226 0-.396-.181-.396-.45 0-.271.18-.45.405-.45.252 0 .414.18.414.45s-.162.45-.414.45h-.009zm-.324 5.032v-4.357h.693v4.357h-.693zm3.951-.99c0 .333 0 .711.045.99h-.621l-.046-.459h-.026c-.189.333-.495.531-.864.531-.585 0-1.035-.486-1.035-1.242 0-1.099.873-1.576 1.854-1.585v-.135c0-.585-.145-.99-.693-.99-.271 0-.514.081-.721.225l-.152-.486c.188-.135.585-.288 1.017-.288.874 0 1.243.576 1.243 1.549v1.89zm-.676-1.27c-.36 0-1.197.072-1.197 1.018 0 .576.288.774.531.774.306 0 .559-.226.64-.657.018-.081.026-.171.026-.252v-.883zm1.648-3.97h.692v2.386h.019c.225-.433.549-.586.918-.586.685 0 1.188.774 1.188 2.206 0 1.575-.648 2.296-1.314 2.296-.468 0-.702-.271-.864-.64h-.036l-.045.567h-.594c.009-.252.036-.747.036-1.035v-5.194zm.692 4.699c0 .099.01.188.027.27.162.64.459.757.648.757.558 0 .756-.757.756-1.684 0-.873-.207-1.647-.765-1.647-.324 0-.586.396-.648.774-.009.099-.019.207-.019.306v1.224zm2.907-4.699h.693v6.229h-.693v-6.229zm2.206 4.115c.009 1.341.531 1.62 1.026 1.62.306 0 .549-.072.72-.162l.117.504c-.243.136-.612.207-.963.207-1.036 0-1.576-.846-1.576-2.188 0-1.413.595-2.296 1.468-2.296.882 0 1.242.937 1.242 1.918 0 .171-.009.288-.018.396h-2.016zm1.368-.514c.009-.873-.315-1.261-.648-1.261-.45 0-.685.667-.711 1.261h1.359zm2.825-3.601h.693v6.229h-.693v-6.229zm4.016 5.24c0 .333 0 .711.045.99h-.621l-.045-.459h-.027c-.189.333-.495.531-.864.531-.585 0-1.035-.486-1.035-1.242 0-1.099.873-1.576 1.854-1.585v-.135c0-.585-.145-.99-.693-.99-.271 0-.514.081-.721.225l-.152-.486c.188-.135.585-.288 1.017-.288.874 0 1.243.576 1.243 1.549v1.89zm-.676-1.27c-.36 0-1.197.072-1.197 1.018 0 .576.288.774.531.774.306 0 .559-.226.64-.657.018-.081.026-.171.026-.252v-.883zm2.42-3.115v1.018h.838v.522h-.838v2.593c0 .576.198.72.45.72.117 0 .207-.009.279-.026l.036.531a1.524 1.524 0 0 1-.514.071c-.278 0-.521-.071-.684-.261-.18-.198-.261-.495-.261-1.099v-2.529h-.531v-.522h.531v-.738l.694-.28zm1.864 3.26c.009 1.341.531 1.62 1.026 1.62.306 0 .549-.072.72-.162l.117.504c-.243.136-.612.207-.964.207-1.035 0-1.575-.846-1.575-2.188 0-1.413.595-2.296 1.468-2.296.882 0 1.242.937 1.242 1.918 0 .171-.009.288-.018.396h-2.016zm1.368-.514c.009-.873-.315-1.261-.648-1.261-.45 0-.684.667-.711 1.261h1.359zm1.412-.604c0-.513-.027-.773-.036-1.125h.604l.035.522h.019c.189-.352.54-.595.999-.595.604 0 1.054.441 1.054 1.504v2.926h-.693v-2.809c0-.522-.099-1.035-.604-1.035-.288 0-.566.243-.647.711a1.57 1.57 0 0 0-.036.387v2.746h-.693v-3.232zm5.77 3.124c-.152.091-.414.162-.72.162-.954 0-1.594-.765-1.594-2.205 0-1.252.631-2.269 1.72-2.269.234 0 .486.062.612.144l-.135.559a1.138 1.138 0 0 0-.495-.117c-.703 0-1.009.828-1.009 1.684 0 1.017.387 1.629 1.026 1.629.18 0 .342-.036.495-.117l.1.53zm1.133-4.249l.576 2.503c.081.342.116.621.18.9h.018c.045-.252.117-.576.189-.892l.513-2.512h.685l-.711 2.8c-.271 1.09-.567 2.143-1.08 2.809a2.317 2.317 0 0 1-.784.657l-.252-.585a2.25 2.25 0 0 0 .612-.549c.181-.234.324-.522.396-.738a.578.578 0 0 0 .045-.216c0-.055 0-.108-.018-.162l-1.099-4.016h.73zm2.493 5.438c.514-.81.937-2.043.937-3.664 0-1.62-.423-2.836-.937-3.646h.541c.468.666.98 1.863.98 3.646-.018 1.783-.513 2.971-.98 3.664h-.541zM65.741 236.03c0 .478.027.864.036 1.188h-.603l-.054-.459h-.018c-.126.216-.459.531-.927.531-.756 0-1.062-.595-1.062-1.675v-2.755h.693v2.656c0 .675.108 1.188.585 1.188.405 0 .585-.379.621-.586.027-.117.036-.243.036-.387v-2.872h.693v3.171zm.854.469c.153.099.423.225.702.225.387 0 .639-.243.639-.63 0-.333-.117-.567-.558-.855-.567-.369-.873-.747-.873-1.242 0-.712.522-1.207 1.197-1.207.342 0 .594.108.774.226l-.18.522a.994.994 0 0 0-.585-.198c-.369 0-.558.27-.558.558s.108.459.54.747c.504.324.9.729.9 1.333 0 .873-.594 1.296-1.314 1.296-.315 0-.666-.099-.855-.252l.171-.523zm3.203-1.395c.009 1.341.531 1.62 1.026 1.62.306 0 .549-.072.72-.162l.117.504c-.243.136-.612.207-.963.207-1.035 0-1.576-.846-1.576-2.188 0-1.413.594-2.296 1.468-2.296.882 0 1.242.937 1.242 1.918 0 .171-.009.288-.018.396h-2.016zm1.369-.514c.009-.873-.315-1.261-.648-1.261-.45 0-.684.667-.711 1.261h1.359zm1.403-.604c0-.368-.027-.801-.036-1.125h.622l.036.685h.018c.144-.414.513-.757.918-.757.054 0 .099 0 .144.01v.711c-.045-.009-.09-.009-.144-.009-.441 0-.765.404-.837.909a2.566 2.566 0 0 0-.027.396v2.413h-.694v-3.233zm3.997.613v.531h-1.972v-.531h1.972zm.746-.378c0-.666-.027-1.053-.036-1.359h.622l.036.549h.018c.234-.459.585-.621.918-.621.765 0 1.26.802 1.26 2.242 0 1.62-.666 2.26-1.341 2.26-.414 0-.648-.252-.765-.495h-.018v2.151h-.693v-4.727zm.693 1.404c0 .126.009.252.036.36.135.621.441.729.63.729.576 0 .765-.792.765-1.666 0-.909-.216-1.665-.765-1.665-.315 0-.603.396-.639.792-.027.108-.027.216-.027.333v1.117zm2.907-4.636h.693v6.229h-.693v-6.229zm4.015 5.24c0 .333 0 .711.045.99h-.621l-.045-.459h-.027c-.189.333-.495.531-.864.531-.585 0-1.036-.486-1.036-1.242 0-1.099.874-1.576 1.855-1.585v-.135c0-.585-.145-.99-.693-.99-.27 0-.513.081-.72.225l-.153-.486c.189-.135.585-.288 1.018-.288.873 0 1.242.576 1.242 1.549v1.89zm-.676-1.27c-.36 0-1.197.072-1.197 1.018 0 .576.288.774.531.774.306 0 .558-.226.639-.657a1.2 1.2 0 0 0 .027-.252v-.883zm1.656-.973c0-.513-.027-.773-.036-1.125h.603l.036.522h.018c.189-.352.54-.595.999-.595.604 0 1.054.441 1.054 1.504v2.926h-.693v-2.809c0-.522-.099-1.035-.603-1.035-.288 0-.567.243-.648.711a1.57 1.57 0 0 0-.036.387v2.746h-.693v-3.232zm4.131 1.118c.009 1.341.531 1.62 1.026 1.62.306 0 .549-.072.72-.162l.117.504c-.243.136-.612.207-.963.207-1.035 0-1.576-.846-1.576-2.188 0-1.413.594-2.296 1.468-2.296.882 0 1.242.937 1.242 1.918 0 .171-.009.288-.018.396h-2.016zm1.369-.514c.009-.873-.315-1.261-.648-1.261-.45 0-.684.667-.711 1.261h1.359zm4.049 2.701c-.783 0-1.414-.712-1.414-2.242 0-1.593.711-2.26 1.458-2.26.783 0 1.405.721 1.405 2.242 0 1.692-.774 2.26-1.44 2.26h-.009zm.036-.55c.594 0 .72-1.017.72-1.701 0-.675-.126-1.701-.738-1.701-.621 0-.738 1.026-.738 1.701 0 .721.126 1.701.747 1.701h.009zm2.187-2.755c0-.513-.027-.773-.036-1.125h.603l.036.522h.018c.189-.352.54-.595.999-.595.604 0 1.054.441 1.054 1.504v2.926h-.693v-2.809c0-.522-.099-1.035-.603-1.035-.288 0-.567.243-.648.711a1.57 1.57 0 0 0-.036.387v2.746h-.694v-3.232zm4.131 1.118c.009 1.341.531 1.62 1.026 1.62.306 0 .549-.072.72-.162l.117.504c-.243.136-.612.207-.963.207-1.035 0-1.576-.846-1.576-2.188 0-1.413.594-2.296 1.468-2.296.882 0 1.242.937 1.242 1.918 0 .171-.009.288-.018.396h-2.016zm1.369-.514c.009-.873-.315-1.261-.648-1.261-.45 0-.684.667-.711 1.261h1.359zm3.329.009v.531h-1.972v-.531h1.972zm1.107-1.738l.423 2.134c.09.468.18.937.234 1.387h.036c.063-.45.171-.955.27-1.369l.504-2.151h.531l.477 2.089c.108.486.207.945.279 1.432h.036c.054-.459.135-.909.234-1.404l.414-2.116h.693l-1.098 4.357h-.567l-.504-2.115a12.152 12.152 0 0 1-.243-1.306h-.018c-.072.513-.153.918-.252 1.332l-.522 2.089h-.585l-1.062-4.357h.72zm6.957 3.368c0 .333 0 .711.045.99h-.621l-.045-.459h-.027c-.189.333-.495.531-.864.531-.585 0-1.036-.486-1.036-1.242 0-1.099.874-1.576 1.855-1.585v-.135c0-.585-.145-.99-.693-.99-.27 0-.513.081-.72.225l-.153-.486c.189-.135.585-.288 1.018-.288.873 0 1.242.576 1.242 1.549v1.89zm-.675-1.27c-.36 0-1.197.072-1.197 1.018 0 .576.288.774.531.774.306 0 .558-.226.639-.657a1.2 1.2 0 0 0 .027-.252v-.883zm1.926-2.098l.576 2.503c.081.342.117.621.18.9h.018c.045-.252.117-.576.189-.892l.513-2.512h.684l-.711 2.8c-.271 1.09-.567 2.143-1.081 2.809-.306.388-.63.586-.783.657l-.252-.585c.198-.117.423-.306.612-.549.18-.234.324-.522.396-.738a.578.578 0 0 0 .045-.216c0-.055 0-.108-.018-.162l-1.098-4.016h.73zm4.167-1.872h.693v6.229h-.693v-6.229zm4.014 5.24c0 .333 0 .711.045.99h-.621l-.045-.459h-.027c-.189.333-.495.531-.864.531-.585 0-1.036-.486-1.036-1.242 0-1.099.874-1.576 1.854-1.585v-.135c0-.585-.144-.99-.693-.99-.27 0-.513.081-.72.225l-.153-.486c.189-.135.585-.288 1.018-.288.873 0 1.242.576 1.242 1.549v1.89zm-.675-1.27c-.36 0-1.197.072-1.197 1.018 0 .576.288.774.531.774.306 0 .558-.226.639-.657a1.2 1.2 0 0 0 .027-.252v-.883zm2.421-3.115v1.018h.837v.522h-.837v2.593c0 .576.198.72.45.72.117 0 .207-.009.279-.026l.036.531a1.522 1.522 0 0 1-.513.071c-.279 0-.522-.071-.684-.261-.18-.198-.261-.495-.261-1.099v-2.529h-.531v-.522h.531v-.738l.693-.28zm1.863 3.26c.009 1.341.531 1.62 1.026 1.62.306 0 .549-.072.72-.162l.117.504c-.243.136-.612.207-.963.207-1.035 0-1.576-.846-1.576-2.188 0-1.413.594-2.296 1.468-2.296.882 0 1.242.937 1.242 1.918 0 .171-.009.288-.018.396h-2.016zm1.368-.514c.009-.873-.315-1.261-.648-1.261-.45 0-.684.667-.711 1.261h1.359zm1.413-.604c0-.513-.027-.773-.036-1.125h.603l.036.522h.018c.189-.352.54-.595.999-.595.604 0 1.054.441 1.054 1.504v2.926h-.693v-2.809c0-.522-.099-1.035-.603-1.035-.288 0-.567.243-.648.711a1.57 1.57 0 0 0-.036.387v2.746h-.693v-3.232zm5.769 3.124c-.153.091-.414.162-.72.162-.954 0-1.594-.765-1.594-2.205 0-1.252.63-2.269 1.72-2.269.234 0 .486.062.612.144l-.135.559a1.13 1.13 0 0 0-.495-.117c-.702 0-1.008.828-1.008 1.684 0 1.017.387 1.629 1.026 1.629.18 0 .342-.036.495-.117l.099.53zm1.133-4.249l.576 2.503c.081.342.117.621.18.9h.018c.045-.252.117-.576.189-.892l.513-2.512h.684l-.711 2.8c-.271 1.09-.567 2.143-1.081 2.809-.306.388-.63.586-.783.657l-.252-.585c.198-.117.423-.306.612-.549.18-.234.324-.522.396-.738a.578.578 0 0 0 .045-.216c0-.055 0-.108-.018-.162l-1.098-4.016h.73zm5.734-1.872c-.513.81-.937 2.025-.937 3.664 0 1.611.423 2.826.937 3.646h-.54c-.468-.684-.981-1.891-.981-3.655.018-1.764.513-2.979.981-3.654h.54zm3.249 0v5.186c0 .297.027.792.036 1.044h-.594l-.045-.54h-.036c-.135.306-.45.612-.909.612-.738 0-1.27-.792-1.27-2.233 0-1.548.639-2.269 1.314-2.269.315 0 .622.145.792.514h.018v-2.313h.694zm-.693 3.529c0-.09 0-.188-.009-.288-.036-.45-.315-.846-.648-.846-.576 0-.774.801-.774 1.674 0 .919.234 1.657.738 1.657.216 0 .513-.117.666-.747.027-.081.027-.181.027-.288v-1.162zm2.141.586c.009 1.341.531 1.62 1.026 1.62.306 0 .549-.072.72-.162l.117.504c-.243.136-.612.207-.963.207-1.035 0-1.576-.846-1.576-2.188 0-1.413.594-2.296 1.468-2.296.882 0 1.242.937 1.242 1.918 0 .171-.009.288-.018.396h-2.016zm1.369-.514c.009-.873-.315-1.261-.648-1.261-.45 0-.684.667-.711 1.261h1.359zm1.763-1.729l.549 2.449c.063.297.135.684.189 1.062h.027c.045-.359.117-.729.18-1.062l.54-2.449h.684l-1.143 4.357h-.612l-1.134-4.357h.72zm3.096-.674c-.225 0-.396-.181-.396-.45 0-.271.18-.45.405-.45.252 0 .414.18.414.45s-.162.45-.414.45h-.009zm-.324 5.032v-4.357h.693v4.357h-.693zm3.781-.109c-.153.091-.414.162-.72.162-.955 0-1.594-.765-1.594-2.205 0-1.252.63-2.269 1.72-2.269.234 0 .486.062.612.144l-.135.559a1.13 1.13 0 0 0-.495-.117c-.702 0-1.008.828-1.008 1.684 0 1.017.387 1.629 1.026 1.629.18 0 .342-.036.495-.117l.099.53zm1.025-2.006c.009 1.341.531 1.62 1.026 1.62.306 0 .549-.072.72-.162l.117.504c-.243.136-.612.207-.963.207-1.035 0-1.576-.846-1.576-2.188 0-1.413.594-2.296 1.468-2.296.882 0 1.242.937 1.242 1.918 0 .171-.009.288-.018.396h-2.016zm1.369-.514c.009-.873-.315-1.261-.648-1.261-.45 0-.684.667-.711 1.261h1.359zm3.671-2.746v1.018h.837v.522h-.837v2.593c0 .576.198.72.45.72.117 0 .207-.009.279-.026l.036.531a1.522 1.522 0 0 1-.513.071c-.279 0-.522-.071-.684-.261-.18-.198-.261-.495-.261-1.099v-2.529h-.531v-.522h.531v-.738l.693-.28zm2.602 5.447c-.784 0-1.414-.712-1.414-2.242 0-1.593.711-2.26 1.459-2.26.783 0 1.404.721 1.404 2.242 0 1.692-.774 2.26-1.44 2.26h-.009zm.035-.55c.595 0 .721-1.017.721-1.701 0-.675-.126-1.701-.738-1.701-.621 0-.738 1.026-.738 1.701 0 .721.126 1.701.747 1.701h.008zm4.445-4.897v1.018h.838v.522h-.838v2.593c0 .576.198.72.45.72.117 0 .207-.009.279-.026l.036.531a1.522 1.522 0 0 1-.513.071c-.279 0-.522-.071-.685-.261-.181-.198-.261-.495-.261-1.099v-2.529h-.531v-.522h.531v-.738l.694-.28zm2.603 5.447c-.783 0-1.414-.712-1.414-2.242 0-1.593.711-2.26 1.459-2.26.783 0 1.404.721 1.404 2.242 0 1.692-.774 2.26-1.44 2.26h-.009zm.035-.55c.595 0 .721-1.017.721-1.701 0-.675-.126-1.701-.738-1.701-.621 0-.738 1.026-.738 1.701 0 .721.126 1.701.747 1.701h.008zm2.474-3.88l.424 2.134c.09.468.18.937.233 1.387h.036c.063-.45.171-.955.271-1.369l.504-2.151h.531l.478 2.089c.107.486.207.945.278 1.432h.036c.054-.459.135-.909.234-1.404l.414-2.116h.693l-1.099 4.357h-.567l-.504-2.115a12.152 12.152 0 0 1-.243-1.306h-.018c-.072.513-.153.918-.252 1.332l-.522 2.089h-.585l-1.062-4.357h.72zm5.113 2.243c.009 1.341.531 1.62 1.026 1.62.306 0 .549-.072.72-.162l.117.504c-.243.136-.612.207-.964.207-1.035 0-1.575-.846-1.575-2.188 0-1.413.595-2.296 1.468-2.296.882 0 1.242.937 1.242 1.918 0 .171-.009.288-.018.396h-2.016zm1.368-.514c.009-.873-.315-1.261-.648-1.261-.45 0-.684.667-.711 1.261h1.359zm1.404-.604c0-.368-.027-.801-.036-1.125h.621l.036.685h.018c.145-.414.514-.757.918-.757.055 0 .1 0 .145.01v.711c-.045-.009-.09-.009-.145-.009-.44 0-.765.404-.837.909a2.566 2.566 0 0 0-.027.396v2.413h-.692v-3.233zm2.646 0c-.252 0-.441-.207-.441-.504s.198-.513.45-.513c.27 0 .45.207.45.513 0 .297-.162.504-.45.504h-.009zm0 3.305c-.252 0-.441-.207-.441-.505 0-.297.198-.513.45-.513.27 0 .45.207.45.513 0 .298-.162.505-.45.505h-.009zm2.861-2.683l4.178-2.179v.594l-3.493 1.792v.018l3.493 1.792v.594l-4.178-2.188v-.423zm9.181-2.629h-1.575l-.243 1.558c.071-.019.135-.019.216-.019.315 0 .811.145 1.116.441.315.306.495.738.495 1.332 0 1.171-.738 1.999-1.773 1.999-.36 0-.766-.1-.999-.252l.152-.55c.181.1.495.226.819.226.595 0 1.107-.45 1.107-1.351 0-.928-.567-1.314-1.323-1.314-.216 0-.351.009-.459.027l.369-2.71h2.098v.613zm2.366 2.007c0-.513-.027-.773-.036-1.125h.612l.036.531h.018c.189-.351.514-.604.973-.604.405 0 .756.189.918.657h.018c.117-.216.271-.387.424-.495.18-.107.378-.162.603-.162.595 0 1.054.424 1.054 1.54v2.89h-.693v-2.737c0-.566-.081-1.116-.603-1.116-.288 0-.541.243-.64.657-.027.108-.027.243-.027.388v2.809h-.693v-2.863c0-.477-.08-.99-.594-.99-.288 0-.567.243-.648.712a2.278 2.278 0 0 0-.026.369v2.772h-.693v-3.233zm5.463 2.513c.153.099.423.225.702.225.387 0 .64-.243.64-.63 0-.333-.117-.567-.559-.855-.567-.369-.873-.747-.873-1.242 0-.712.521-1.207 1.197-1.207.342 0 .594.108.774.226l-.181.522a.994.994 0 0 0-.585-.198c-.369 0-.558.27-.558.558s.107.459.54.747c.504.324.9.729.9 1.333 0 .873-.595 1.296-1.314 1.296-.315 0-.667-.099-.855-.252l.172-.523zm2.457 1.8c.514-.81.937-2.043.937-3.664 0-1.62-.423-2.836-.937-3.646h.541c.468.666.98 1.863.98 3.646-.018 1.783-.513 2.971-.98 3.664h-.541zM155.608 31.828c-.231.121-.605.198-1.067.198-1.441 0-2.486-1.155-2.486-3.675 0-2.938 1.452-3.873 2.629-3.873.44 0 .77.088.913.188l-.187.715a1.567 1.567 0 0 0-.737-.154c-.792 0-1.727.771-1.727 3.037 0 2.277.836 3.015 1.75 3.015.319 0 .594-.077.77-.154l.142.703zm2.09.219c-.957 0-1.727-.869-1.727-2.739 0-1.947.869-2.762 1.782-2.762.957 0 1.716.881 1.716 2.739 0 2.068-.946 2.762-1.76 2.762h-.011zm.044-.671c.726 0 .88-1.243.88-2.079 0-.825-.154-2.079-.902-2.079-.759 0-.902 1.254-.902 2.079 0 .88.154 2.079.914 2.079h.01zm2.661-3.366c0-.451-.033-.979-.044-1.376h.759l.044.837h.022c.176-.507.627-.925 1.122-.925.066 0 .121 0 .176.012v.869c-.055-.012-.11-.012-.176-.012-.539 0-.935.495-1.023 1.111a3.146 3.146 0 0 0-.033.484v2.948h-.847V28.01zm3.179 1.365c.011 1.639.649 1.979 1.254 1.979.374 0 .671-.088.88-.197l.143.615c-.297.165-.748.254-1.177.254-1.265 0-1.925-1.034-1.925-2.674 0-1.728.726-2.806 1.793-2.806 1.078 0 1.518 1.145 1.518 2.344 0 .209-.011.352-.022.484h-2.464zm1.673-.628c.011-1.066-.385-1.54-.792-1.54-.55 0-.836.814-.869 1.54h1.661zm3.53 3.212v-7.415h.792l1.364 3.477c.308.803.693 1.782.946 2.585h.022a55.805 55.805 0 0 1-.099-3.41v-2.651h.759v7.415h-.792l-1.408-3.564a23.754 23.754 0 0 1-.891-2.52h-.022c.066.99.088 1.937.088 3.521v2.563h-.759zm5.589-2.584c.011 1.639.649 1.979 1.255 1.979.373 0 .67-.088.879-.197l.144.615c-.297.165-.748.254-1.177.254-1.266 0-1.926-1.034-1.926-2.674 0-1.728.727-2.806 1.793-2.806 1.078 0 1.519 1.145 1.519 2.344 0 .209-.011.352-.022.484h-2.465zm1.672-.628c.011-1.066-.385-1.54-.793-1.54-.55 0-.836.814-.869 1.54h1.662zm2.76-3.356v1.243h1.023v.639h-1.023v3.168c0 .704.242.881.551.881.143 0 .252-.012.341-.033l.044.648a1.827 1.827 0 0 1-.627.089c-.342 0-.639-.089-.836-.319-.221-.242-.319-.605-.319-1.343v-3.091h-.649v-.639h.649v-.901l.846-.342zm2.311 1.243l.517 2.607c.11.572.22 1.145.286 1.694h.044c.077-.55.209-1.166.33-1.672l.616-2.63h.648l.584 2.553c.132.594.253 1.155.341 1.749h.044c.066-.561.165-1.111.286-1.716l.506-2.586h.847l-1.342 5.325h-.693l-.615-2.585c-.133-.518-.209-.99-.297-1.596h-.022a16.63 16.63 0 0 1-.308 1.628l-.639 2.553h-.715l-1.299-5.325h.881zm7.15 5.413c-.957 0-1.728-.869-1.728-2.739 0-1.947.868-2.762 1.782-2.762.957 0 1.716.881 1.716 2.739 0 2.068-.946 2.762-1.761 2.762h-.009zm.043-.671c.727 0 .881-1.243.881-2.079 0-.825-.154-2.079-.902-2.079-.76 0-.902 1.254-.902 2.079 0 .88.154 2.079.914 2.079h.009zm2.662-3.366c0-.451-.033-.979-.044-1.376h.759l.045.837h.021c.176-.507.627-.925 1.122-.925.065 0 .121 0 .177.012v.869c-.056-.012-.111-.012-.177-.012-.539 0-.935.495-1.022 1.111a3.146 3.146 0 0 0-.033.484v2.948h-.848V28.01zm3.575 1.1h.022c.099-.209.187-.418.285-.594l1.057-1.882h.913l-1.408 2.245 1.54 3.08h-.945l-1.156-2.509-.308.495v2.014h-.847v-7.613h.847v4.764zm6.699-4.764c-.627.99-1.144 2.476-1.144 4.478 0 1.97.517 3.455 1.144 4.456h-.66c-.571-.836-1.199-2.311-1.199-4.467.022-2.156.628-3.642 1.199-4.467h.66zm3.641 4.093h-1.859v2.783h2.112v.737h-2.959v-7.415h2.826v.737h-1.979v2.442h1.859v.716zm1.188-3.784a4.807 4.807 0 0 1 1.231-.144c.683 0 1.266.165 1.65.539.353.353.539.892.539 1.54 0 .683-.164 1.145-.451 1.519-.396.55-1.088.825-1.748.825-.144 0-.254 0-.375-.011v3.036h-.847v-7.304zm.846 3.564c.1.011.198.021.342.021.824 0 1.386-.55 1.386-1.595 0-.76-.308-1.441-1.254-1.441-.198 0-.363.021-.474.055v2.96zm6.787 3.609c-.23.121-.605.198-1.066.198-1.441 0-2.486-1.155-2.486-3.675 0-2.938 1.451-3.873 2.629-3.873.439 0 .77.088.913.188l-.187.715a1.572 1.572 0 0 0-.738-.154c-.791 0-1.727.771-1.727 3.037 0 2.277.836 3.015 1.75 3.015.318 0 .594-.077.77-.154l.142.703zm.54 1.452c.627-.99 1.145-2.497 1.145-4.478s-.518-3.466-1.145-4.456h.66c.572.814 1.199 2.277 1.199 4.456-.022 2.178-.627 3.63-1.199 4.478h-.66zm-59.506 25.425a2.29 2.29 0 0 0 1.067.298c.771 0 1.232-.507 1.232-1.255 0-.682-.396-1.1-.979-1.54-.583-.407-1.397-1.101-1.397-2.058 0-1.122.792-1.947 1.958-1.947.462 0 .869.154 1.045.275l-.209.727a1.542 1.542 0 0 0-.88-.254c-.726 0-1.067.551-1.067 1.057 0 .737.385 1.034 1.089 1.529.891.627 1.287 1.309 1.287 2.134 0 1.276-.902 2.08-2.08 2.08-.506 0-1.045-.165-1.254-.33l.188-.716zm7.778.792a3.718 3.718 0 0 1-1.309.254c-.649 0-1.254-.177-1.75-.716-.539-.571-.902-1.595-.891-2.959.011-2.894 1.485-3.873 2.794-3.873.462 0 .825.088 1.045.209l-.187.727c-.198-.099-.451-.176-.847-.176-.924 0-1.925.736-1.925 3.036 0 2.288.869 3.025 1.761 3.025.286 0 .451-.044.517-.088v-2.421h-.957v-.703h1.75v3.685zm2.133.188l-1.419-7.415h.869l.627 3.575c.165.936.275 1.761.374 2.674h.033c.099-.936.264-1.738.451-2.685l.682-3.564h.715l.693 3.487c.165.88.33 1.728.429 2.762h.033c.121-1.067.253-1.882.385-2.718l.616-3.531h.836l-1.441 7.415h-.836l-.704-3.608a33.895 33.895 0 0 1-.385-2.432h-.022a26.77 26.77 0 0 1-.407 2.465l-.726 3.575h-.803zm-5.813 51.809c-.055-.979-.11-2.068-.077-2.904h-.044a40.892 40.892 0 0 1-.594 2.574l-.902 3.477h-.55l-.858-3.334a33.356 33.356 0 0 1-.616-2.717h-.033c.011.869-.044 1.903-.088 2.959l-.143 3.136h-.759l.44-7.415h.924l.858 3.389c.253.979.44 1.705.594 2.552h.033c.143-.847.308-1.551.55-2.552l.836-3.389h.946l.429 7.415h-.792l-.154-3.191zm6.589 0c-.055-.979-.11-2.068-.077-2.904h-.044a40.892 40.892 0 0 1-.594 2.574l-.902 3.477h-.55l-.858-3.334a33.356 33.356 0 0 1-.616-2.717h-.033c.011.869-.044 1.903-.088 2.959l-.143 3.136h-.759l.44-7.415h.924l.858 3.389c.253.979.44 1.705.594 2.552h.033c.143-.847.308-1.551.55-2.552l.836-3.389h.946l.429 7.415h-.792l-.154-3.191zm4.807-.33h-1.859v2.783h2.112v.737h-2.959v-7.415h2.827v.737h-1.98v2.442h1.859v.716zm28.463-58.784c.34-.089.736-.144 1.231-.144.683 0 1.265.165 1.65.539.353.353.539.892.539 1.54 0 .683-.165 1.145-.451 1.519-.396.55-1.089.825-1.749.825-.143 0-.253 0-.374-.011v3.036h-.847V52.38zm.846 3.564c.099.011.198.021.341.021.825 0 1.387-.55 1.387-1.595 0-.76-.309-1.441-1.254-1.441-.199 0-.363.021-.474.055v2.96zm7.183 3.553a3.718 3.718 0 0 1-1.309.254c-.649 0-1.254-.177-1.75-.716-.539-.571-.902-1.595-.891-2.959.012-2.894 1.485-3.873 2.795-3.873.461 0 .824.088 1.045.209l-.188.727c-.197-.099-.451-.176-.848-.176-.924 0-1.925.736-1.925 3.036 0 2.288.869 3.025 1.761 3.025.285 0 .451-.044.517-.088v-2.421h-.957v-.703h1.749v3.685zm2.134.188l-1.419-7.415h.869l.627 3.575c.165.936.275 1.761.374 2.674h.033c.099-.936.264-1.738.45-2.685l.683-3.564h.716l.692 3.487c.165.88.33 1.728.429 2.762h.033c.121-1.067.254-1.882.385-2.718l.617-3.531h.836l-1.441 7.415h-.836l-.705-3.608a35.056 35.056 0 0 1-.385-2.432h-.021c-.1.836-.231 1.64-.407 2.465l-.726 3.575h-.804zm-10.366 47.695c.34-.089.736-.144 1.231-.144.683 0 1.265.165 1.65.539.353.353.539.892.539 1.54 0 .683-.165 1.145-.451 1.519-.396.55-1.089.825-1.749.825-.143 0-.253 0-.374-.011v3.036h-.847v-7.304zm.846 3.564c.099.011.198.021.341.021.825 0 1.387-.55 1.387-1.595 0-.76-.309-1.441-1.254-1.441-.199 0-.363.021-.474.055v2.96zm6.787 3.609c-.231.121-.605.198-1.067.198-1.441 0-2.486-1.155-2.486-3.675 0-2.938 1.452-3.873 2.629-3.873.44 0 .771.088.914.188l-.188.715a1.567 1.567 0 0 0-.737-.154c-.792 0-1.728.771-1.728 3.037 0 2.277.836 3.015 1.75 3.015.318 0 .594-.077.77-.154l.143.703zm.858-7.173c.362-.1.804-.144 1.222-.144.736 0 1.287.154 1.672.528.363.374.518.869.518 1.452 0 .946-.441 1.562-1.189 1.914v.022c.551.165.837.692.99 1.661.177 1.012.319 1.639.43 1.87h-.858c-.11-.22-.253-.924-.396-1.826-.166-1.023-.484-1.397-1.211-1.397h-.33v3.224h-.847v-7.304zm.846 3.421h.353c.813 0 1.353-.594 1.353-1.485 0-.847-.352-1.386-1.265-1.396-.165 0-.33.011-.44.044v2.837zm3.653-3.531h2.827v.737h-1.979v2.596h1.848v.716h-1.848v3.366h-.848v-7.415zm83.406-56.606h-1.859v2.783h2.111v.737h-2.959V46.77h2.827v.737h-1.979v2.442h1.859v.715zm1.594-1.805l.495 1.134c.132.308.242.616.353.935h.021c.121-.341.242-.648.363-.935l.473-1.134h.869l-1.265 2.619 1.254 2.706h-.924l-.507-1.199c-.121-.286-.219-.562-.352-.913h-.021a16.7 16.7 0 0 1-.353.913l-.483 1.199h-.869l1.265-2.674-1.222-2.651h.903zm4.467-1.243v1.243h1.022v.639h-1.022v3.168c0 .704.241.881.549.881.144 0 .254-.012.342-.033l.044.648a1.833 1.833 0 0 1-.628.089c-.34 0-.637-.089-.836-.319-.219-.242-.318-.605-.318-1.343v-3.091h-.649v-.639h.649v-.901l.847-.342zm2.275 3.984c.012 1.639.65 1.979 1.255 1.979.374 0 .671-.088.88-.197l.143.615c-.297.165-.748.254-1.176.254-1.266 0-1.926-1.034-1.926-2.674 0-1.728.727-2.806 1.793-2.806 1.078 0 1.518 1.145 1.518 2.344 0 .209-.01.352-.021.484h-2.466zm1.673-.628c.011-1.066-.385-1.54-.792-1.54-.551 0-.836.814-.869 1.54h1.661zm1.716-.737c0-.451-.033-.979-.044-1.376h.759l.045.837h.021c.176-.507.627-.925 1.122-.925.065 0 .121 0 .177.012v.869c-.056-.012-.111-.012-.177-.012-.539 0-.935.495-1.022 1.111a3.146 3.146 0 0 0-.033.484v2.948h-.848v-3.948zm2.738 0c0-.628-.033-.946-.043-1.376h.736l.044.639h.022c.23-.43.66-.727 1.221-.727.737 0 1.287.539 1.287 1.838v3.575h-.847v-3.433c0-.638-.121-1.265-.737-1.265-.352 0-.693.297-.792.869-.033.12-.044.285-.044.473v3.355h-.848v-3.948zm7.261 2.74c0 .407 0 .869.056 1.21h-.76l-.055-.562h-.033c-.23.407-.605.649-1.057.649-.715 0-1.265-.594-1.265-1.519 0-1.342 1.067-1.925 2.267-1.936v-.165c0-.716-.176-1.21-.848-1.21-.33 0-.627.099-.88.274l-.187-.594c.23-.165.715-.353 1.242-.353 1.067 0 1.519.704 1.519 1.893v2.313zm-.826-1.552c-.439 0-1.463.088-1.463 1.243 0 .704.352.946.648.946.375 0 .683-.274.781-.803.022-.1.033-.209.033-.309v-1.077zm2.024-4.852h.848v7.613h-.848v-7.613zm-26.168 18.614V57.77h.793l1.363 3.477c.309.803.693 1.782.946 2.585h.022a55.778 55.778 0 0 1-.1-3.41V57.77h.76v7.415h-.793l-1.408-3.564a23.754 23.754 0 0 1-.891-2.52h-.021c.065.99.088 1.937.088 3.521v2.563h-.759zm5.588-2.585c.012 1.639.649 1.979 1.254 1.979.375 0 .672-.088.881-.197l.143.615c-.297.165-.748.254-1.178.254-1.265 0-1.924-1.034-1.924-2.674 0-1.728.726-2.806 1.793-2.806 1.078 0 1.518 1.145 1.518 2.344 0 .209-.011.352-.021.484h-2.466zm1.672-.628c.012-1.066-.385-1.54-.791-1.54-.551 0-.836.814-.869 1.54h1.66zm2.761-3.356v1.243h1.023v.639h-1.023v3.168c0 .704.242.881.55.881.144 0 .253-.012.341-.033l.045.648a1.83 1.83 0 0 1-.627.089c-.342 0-.639-.089-.837-.319-.22-.242-.319-.605-.319-1.343v-3.091h-.648v-.639h.648v-.901l.847-.342zm2.309 1.243l.518 2.607c.11.572.221 1.145.286 1.694h.044c.077-.55.209-1.166.33-1.672l.616-2.63h.649l.582 2.553c.133.594.254 1.155.342 1.749h.044c.065-.561.165-1.111.286-1.716l.506-2.586h.848l-1.343 5.325h-.692l-.617-2.585a15.04 15.04 0 0 1-.297-1.596h-.021a16.613 16.613 0 0 1-.309 1.628l-.638 2.553h-.715l-1.298-5.325h.879zm7.151 5.413c-.957 0-1.728-.869-1.728-2.739 0-1.947.869-2.762 1.783-2.762.957 0 1.715.881 1.715 2.739 0 2.068-.945 2.762-1.76 2.762h-.01zm.044-.67c.727 0 .881-1.243.881-2.079 0-.825-.154-2.079-.902-2.079-.76 0-.902 1.254-.902 2.079 0 .88.154 2.079.913 2.079h.01zm2.662-3.367c0-.451-.033-.979-.045-1.376h.76l.044.837h.022c.176-.507.627-.925 1.121-.925a.83.83 0 0 1 .177.012v.869c-.056-.012-.11-.012-.177-.012-.539 0-.935.495-1.022 1.111a3.146 3.146 0 0 0-.033.484v2.948h-.847v-3.948zm3.575 1.1h.021c.1-.209.188-.418.287-.594l1.056-1.882h.913l-1.408 2.245 1.54 3.08h-.946l-1.154-2.509-.309.495v2.014h-.848v-7.613h.848v4.764z"/><g fill="none" stroke="#000" stroke-miterlimit="3.864" clip-rule="evenodd"><path stroke-width=".5" d="M42.042 93.623l-4.938-8.709 5.117-2.154-3.366-5.162 3.187-1.75-2.331-2.422 2.51-1.349-1.846-2.49 1.921-.931-1.4-1.722 1.418-.887-1.493-1.906"/><path stroke-width=".5" d="M42.417 64.741l-1.427.913 1.324 1.954-1.687.593 1.873 1.888-2.504 1.109 2.111 2.644-2.579 1.467 2.357 2.996-3.829 2.009 3.862 6.99-5.8 2.1m5.924 4.219l5.219-8.543-5.044-2.32 4.027-5.078-3.622-1.826 2.491-2.479-2.548-1.295 1.933-2.353-1.895-1.069 1.468-1.49-1.402-1.118 1.555-1.856"/><path stroke-width=".5" d="M42.609 64.744l1.557 1.289-1.547 1.579 1.785.837-1.81 1.55 2.425 1.484-2.398 2.367 3.091 1.612-3.014 2.856 3.763 2.133-4.091 6.86 5.732 2.288m-7.429-31.527l1.818.808m-1.818.808l1.818.808m-1.818.808l1.818.808m-1.818.808l1.818.808m0-4.848l1.75-.875m-1.75 2.491l1.75-.875m-1.75 2.491l1.75-.875m-1.75 2.491l1.75-.875"/><path d="M42.445 56.254v9.18l-.403 28.189"/><path d="M48.775 89.404l-6.733 4.219-5.924-4.219 4.577-23.611v-9.337h3.591"/><path d="M42.042 93.623l6.733-4.281-4.489-23.953-.045-9.295"/></g><g fill="none" stroke="#000" stroke-miterlimit="3.864" clip-rule="evenodd"><path stroke-width=".5" d="M72.836 75.902l-4.938-8.709 5.118-2.154-3.366-5.162 3.186-1.75-2.331-2.422 2.511-1.349-1.846-2.49 1.921-.931-1.401-1.722 1.419-.887-1.494-1.906"/><path stroke-width=".5" d="M73.212 47.02l-1.427.914 1.324 1.953-1.687.593 1.872 1.888-2.504 1.109 2.112 2.645-2.579 1.466 2.356 2.996-3.829 2.01 3.862 6.99-5.799 2.099m5.923 4.219l5.219-8.543-5.043-2.32 4.026-5.078-3.622-1.826 2.492-2.479-2.549-1.295 1.934-2.353-1.896-1.069 1.469-1.49-1.402-1.118 1.555-1.856"/><path stroke-width=".5" d="M73.404 47.023l1.556 1.289-1.547 1.58 1.785.837-1.809 1.55 2.424 1.483-2.398 2.367 3.092 1.612-3.014 2.856 3.762 2.133-4.091 6.86 5.732 2.288m-7.428-31.526l1.818.808m-1.818.807l1.818.808m-1.818.808l1.818.809m-1.818.807l1.818.808m0-4.847l1.749-.876m-1.749 2.491l1.749-.875m-1.749 2.492l1.749-.876m-1.749 2.491l1.749-.875"/><path d="M73.24 38.534v9.179l-.404 28.189"/><path d="M79.57 71.683l-6.734 4.219-5.923-4.219 4.577-23.611v-9.337h3.59"/><path d="M72.836 75.902l6.734-4.28-4.49-23.954-.045-9.294"/></g><g fill="none" stroke="#000" stroke-miterlimit="3.864" clip-rule="evenodd"><path stroke-width=".5" d="M72.633 111.343l-4.938-8.709 5.117-2.154-3.365-5.162 3.186-1.75-2.331-2.422 2.51-1.348-1.845-2.49 1.921-.931-1.401-1.723 1.419-.886-1.494-1.907"/><path stroke-width=".5" d="M73.009 82.461l-1.428.914 1.325 1.954-1.687.593 1.872 1.888-2.504 1.109 2.112 2.644-2.579 1.467 2.356 2.996-3.829 2.009 3.862 6.99-5.8 2.099m5.924 4.219l5.219-8.542-5.043-2.321 4.026-5.077-3.622-1.826 2.492-2.479-2.549-1.295 1.933-2.354-1.895-1.069 1.469-1.489-1.402-1.119 1.554-1.856"/><path stroke-width=".5" d="M73.201 82.465l1.556 1.289-1.547 1.579 1.785.837-1.809 1.55 2.424 1.484-2.398 2.367 3.092 1.612-3.015 2.856 3.763 2.133-4.091 6.859 5.732 2.288m-7.428-31.526l1.817.808m-1.817.808l1.817.808m-1.817.807l1.817.809m-1.817.808l1.817.808m0-4.848l1.75-.875m-1.75 2.491l1.75-.875m-1.75 2.491l1.75-.876m-1.75 2.492l1.75-.876"/><path d="M73.037 73.975v9.18l-.404 28.188"/><path d="M79.367 107.124l-6.734 4.219-5.924-4.219 4.578-23.611v-9.336h3.59"/><path d="M72.633 111.343l6.734-4.28-4.49-23.953-.045-9.295"/></g></svg>