<svg xmlns="http://www.w3.org/2000/svg" viewBox="0 0 342.68 321.938"><path fill="none" stroke="#000" d="M66.38 73.438h173.705m-139.999 20H276.88m-176.794 40h139.999" stroke-dasharray="1 1"/><path fill="#b2d4eb" fill-rule="evenodd" d="M73.286 78.366c0 1.98-1.62 3.6-3.6 3.6H6.98a3.61 3.61 0 0 1-3.6-3.6V68.51c0-1.98 1.62-3.6 3.6-3.6h62.706c1.98 0 3.6 1.62 3.6 3.6v9.856z" clip-rule="evenodd"/><path fill="none" stroke="#000" d="M73.286 78.366c0 1.98-1.62 3.6-3.6 3.6H6.98a3.61 3.61 0 0 1-3.6-3.6V68.51c0-1.98 1.62-3.6 3.6-3.6h62.706c1.98 0 3.6 1.62 3.6 3.6v9.856z" stroke-linecap="round" stroke-linejoin="round"/><path fill="#b2d4eb" fill-rule="evenodd" d="M336.286 98.366c0 1.98-1.62 3.6-3.6 3.6h-62.707c-1.979 0-3.6-1.62-3.6-3.6V88.51c0-1.98 1.62-3.6 3.6-3.6h62.707c1.979 0 3.6 1.62 3.6 3.6v9.856z" clip-rule="evenodd"/><path fill="none" stroke="#000" d="M336.286 98.366c0 1.98-1.62 3.6-3.6 3.6h-62.707c-1.979 0-3.6-1.62-3.6-3.6V88.51c0-1.98 1.62-3.6 3.6-3.6h62.707c1.979 0 3.6 1.62 3.6 3.6v9.856z" stroke-linecap="round" stroke-linejoin="round"/><path fill="none" stroke="#000" d="M66.38 113.438h173.705" stroke-dasharray="1 1"/><path fill="#b2d4eb" fill-rule="evenodd" d="M73.286 118.366c0 1.98-1.62 3.6-3.6 3.6H6.98a3.61 3.61 0 0 1-3.6-3.6v-9.856c0-1.98 1.62-3.6 3.6-3.6h62.706c1.98 0 3.6 1.62 3.6 3.6v9.856z" clip-rule="evenodd"/><path fill="none" stroke="#000" d="M73.286 118.366c0 1.98-1.62 3.6-3.6 3.6H6.98a3.61 3.61 0 0 1-3.6-3.6v-9.856c0-1.98 1.62-3.6 3.6-3.6h62.706c1.98 0 3.6 1.62 3.6 3.6v9.856z" stroke-linecap="round" stroke-linejoin="round"/><path fill="none" stroke="#000" d="M100.086 181.438H276.88" stroke-dasharray="1 1"/><path fill="#fddfbb" fill-rule="evenodd" d="M336.286 191.351c0 1.98-1.62 3.6-3.6 3.6h-62.707c-1.979 0-3.6-1.62-3.6-3.6v-19.827c0-1.98 1.62-3.6 3.6-3.6h62.707c1.979 0 3.6 1.62 3.6 3.6v19.827z" clip-rule="evenodd"/><path fill="none" stroke="#000" d="M336.286 191.351c0 1.98-1.62 3.6-3.6 3.6h-62.707c-1.979 0-3.6-1.62-3.6-3.6v-19.827c0-1.98 1.62-3.6 3.6-3.6h62.707c1.979 0 3.6 1.62 3.6 3.6v19.827z" stroke-linecap="round" stroke-linejoin="round"/><path fill="none" stroke="#000" d="M100.086 221.438H276.88" stroke-dasharray="1 1"/><path fill="#fddfbb" fill-rule="evenodd" d="M336.286 231.351c0 1.98-1.62 3.6-3.6 3.6h-62.707c-1.979 0-3.6-1.62-3.6-3.6v-19.827c0-1.98 1.62-3.6 3.6-3.6h62.707c1.979 0 3.6 1.62 3.6 3.6v19.827z" clip-rule="evenodd"/><path fill="none" stroke="#000" d="M336.286 231.351c0 1.98-1.62 3.6-3.6 3.6h-62.707c-1.979 0-3.6-1.62-3.6-3.6v-19.827c0-1.98 1.62-3.6 3.6-3.6h62.707c1.979 0 3.6 1.62 3.6 3.6v19.827z" stroke-linecap="round" stroke-linejoin="round"/><path fill="none" stroke="#000" d="M66.38 201.438h173.705" stroke-dasharray="1 1"/><path fill="#fddfbb" fill-rule="evenodd" d="M73.286 206.366c0 1.98-1.62 3.6-3.6 3.6H6.98a3.61 3.61 0 0 1-3.6-3.6v-9.856c0-1.98 1.62-3.6 3.6-3.6h62.706c1.98 0 3.6 1.62 3.6 3.6v9.856z" clip-rule="evenodd"/><path fill="none" stroke="#000" d="M73.286 206.366c0 1.98-1.62 3.6-3.6 3.6H6.98a3.61 3.61 0 0 1-3.6-3.6v-9.856c0-1.98 1.62-3.6 3.6-3.6h62.706c1.98 0 3.6 1.62 3.6 3.6v9.856z" stroke-linecap="round" stroke-linejoin="round"/><path fill="none" stroke="#000" d="M66.38 241.438h173.705" stroke-dasharray="1 1"/><path fill="#fddfbb" fill-rule="evenodd" d="M73.286 246.365c0 1.98-1.62 3.601-3.6 3.601H6.98a3.61 3.61 0 0 1-3.6-3.601v-9.855c0-1.98 1.62-3.601 3.6-3.601h62.706c1.98 0 3.6 1.62 3.6 3.601v9.855z" clip-rule="evenodd"/><path fill="none" stroke="#000" d="M73.286 246.365c0 1.98-1.62 3.601-3.6 3.601H6.98a3.61 3.61 0 0 1-3.6-3.601v-9.855c0-1.98 1.62-3.601 3.6-3.601h62.706c1.98 0 3.6 1.62 3.6 3.601v9.855z" stroke-linecap="round" stroke-linejoin="round"/><path fill="#fddfbb" fill-rule="evenodd" d="M73.286 135.423c0 1.98-1.62 3.6-3.6 3.6H6.98a3.61 3.61 0 0 1-3.6-3.6v-9.857c0-1.98 1.62-3.6 3.6-3.6h62.706c1.98 0 3.6 1.62 3.6 3.6v9.857z" clip-rule="evenodd"/><path fill="none" stroke="#000" d="M73.286 135.423c0 1.98-1.62 3.6-3.6 3.6H6.98a3.61 3.61 0 0 1-3.6-3.6v-9.857c0-1.98 1.62-3.6 3.6-3.6h62.706c1.98 0 3.6 1.62 3.6 3.6v9.857zm166.799-91.924v269.439" stroke-linecap="round" stroke-linejoin="round"/><path d="M237.084 312.062l2.992 5.181 2.991-5.181z"/><path fill="#f7931e" fill-rule="evenodd" d="M235.933 137.217h8.305v40.053h-8.305z" clip-rule="evenodd"/><path fill="none" stroke="#000" d="M235.933 137.217h8.305v40.053h-8.305z" stroke-linecap="round" stroke-linejoin="round"/><path fill="none" stroke="#0071bc" d="M100.086 75.884L235.63 89.438" stroke-linecap="round" stroke-linejoin="round"/><path fill="#0071bc" d="M234.46 92.336l5.454-2.461-4.858-3.492z"/><path fill="none" stroke="#0071bc" d="M240.085 95.884l-134.481 12.804" stroke-linecap="round" stroke-linejoin="round"/><path fill="#0071bc" d="M106.191 105.617l-4.875 3.469 5.442 2.487z"/><path fill="none" stroke="#009245" d="M100.086 115.884l134.628 13.304" stroke-linecap="round" stroke-linejoin="round"/><path fill="#009245" d="M233.548 132.088l5.45-2.468-4.862-3.486z"/><path fill="none" stroke="#009245" d="M240.085 183.884l-134.481 12.804" stroke-linecap="round" stroke-linejoin="round"/><path fill="#009245" d="M106.191 193.617l-4.875 3.469 5.442 2.487z"/><path fill="none" stroke="#009245" d="M240.085 223.884l-134.481 12.804" stroke-linecap="round" stroke-linejoin="round"/><path fill="#009245" d="M106.191 233.617l-4.875 3.469 5.442 2.487z"/><path fill="none" stroke="#009245" d="M100.086 203.884l134.628 13.304" stroke-linecap="round" stroke-linejoin="round"/><path fill="#009245" d="M233.548 220.088l5.45-2.468-4.862-3.486z"/><path fill="none" stroke="#000" d="M100.086 261.438H276.88" stroke-dasharray="1 1"/><path fill="#fddfbb" fill-rule="evenodd" d="M336.286 271.352c0 1.979-1.62 3.6-3.6 3.6h-62.707c-1.979 0-3.6-1.62-3.6-3.6v-19.828c0-1.98 1.62-3.6 3.6-3.6h62.707c1.979 0 3.6 1.62 3.6 3.6v19.828z" clip-rule="evenodd"/><path fill="none" stroke="#000" d="M336.286 271.352c0 1.979-1.62 3.6-3.6 3.6h-62.707c-1.979 0-3.6-1.62-3.6-3.6v-19.828c0-1.98 1.62-3.6 3.6-3.6h62.707c1.979 0 3.6 1.62 3.6 3.6v19.828z" stroke-linecap="round" stroke-linejoin="round"/><path fill="none" stroke="#000" d="M66.38 281.438h173.705" stroke-dasharray="1 1"/><path fill="#fddfbb" fill-rule="evenodd" d="M73.286 286.365c0 1.98-1.62 3.601-3.6 3.601H6.98a3.61 3.61 0 0 1-3.6-3.601v-9.855c0-1.98 1.62-3.601 3.6-3.601h62.706c1.98 0 3.6 1.62 3.6 3.601v9.855z" clip-rule="evenodd"/><path fill="none" stroke="#000" d="M73.286 286.365c0 1.98-1.62 3.601-3.6 3.601H6.98a3.61 3.61 0 0 1-3.6-3.601v-9.855c0-1.98 1.62-3.601 3.6-3.601h62.706c1.98 0 3.6 1.62 3.6 3.601v9.855z" stroke-linecap="round" stroke-linejoin="round"/><path fill="none" stroke="#009245" d="M240.085 263.884l-134.481 12.804" stroke-linecap="round" stroke-linejoin="round"/><path fill="#009245" d="M106.191 273.617l-4.875 3.469 5.442 2.487z"/><path fill="none" stroke="#009245" d="M100.086 243.884l134.628 13.304" stroke-linecap="round" stroke-linejoin="round"/><path fill="#009245" d="M233.548 260.088l5.45-2.468-4.862-3.486z"/><path fill="none" stroke="#000" d="M100.086 283.884l134.628 13.304" stroke-dasharray="2 2"/><path d="M233.548 300.088l5.45-2.468-4.862-3.486z"/><path fill="none" stroke="#000" d="M100.086 43.499v269.439" stroke-linecap="round" stroke-linejoin="round"/><path d="M97.085 312.062l2.991 5.181 2.992-5.181z"/><path fill="#ccc" d="M101.774 56.478v1.309L80.629 45.674v-1.307z"/><path fill="gray" d="M101.774 56.478l14.73-8.379v1.309l-14.73 8.381z"/><path fill="#fff" d="M80.629 44.369l14.709-8.43 21.166 12.16-14.73 8.379z"/><path fill="#999" d="M118.553 29.092l.988-.563-2.06 18.966-.99.563zm-14.949 24.103v.254L85.731 43.212v-.253z"/><path fill="#b3b3b3" d="M103.604 53.195l10.123-5.759v.254l-10.123 5.761z"/><path fill="#e6e6e6" d="M85.731 42.96l10.107-5.8 17.889 10.276-10.123 5.759zm2.57 5.477l2.903-1.666 5.134 2.95-2.906 1.654zm30.252-19.345l-2.062 18.965-21.145-12.113 2.061-18.964z"/><path fill="#0071bc" d="M115.649 46.602L96.19 35.455l2.061-17.02 19.458 11.146-2.06 17.021z"/><path fill="#b3b3b3" d="M97.407 16.981l.971-.611 21.163 12.159-.988.563z"/><path fill="none" stroke="#000" d="M117.481 47.495l2.06-18.966L98.378 16.37l-.969.61h-.002l-2.061 18.963-.008-.004-14.707 8.429-.002-.001v1.307l21.145 12.113v.002l14.73-8.381v-1.309l-.013-.042v.001z" stroke-linecap="round" stroke-linejoin="round"/><path fill="#b3b3b3" d="M236.714 31.718v29.233l-11.485-7.059V24.653z"/><path fill="#333" d="M234.585 32.636v3.49l-8.19-5.037v-3.492zm0 11.769v3.487l-8.19-5.038v-3.488z"/><path fill="#e6e6e6" d="M234.585 40.019v1.007l-8.19-5.035v-1.013z"/><path fill="#333" d="M234.585 49.36v3.487l-8.19-5.035v-3.491zm0 4.953v3.49l-8.19-5.038v-3.489z"/><path fill="gray" d="M236.708 31.735l18.203-11.482v29.236l-18.203 11.482z"/><path fill="#999" d="M225.255 24.671l18.224-11.482 11.461 7.06-18.205 11.482z"/><path fill="#009245" d="M226.671 31.567c.18.105.318.365.318.582 0 .211-.141.303-.318.191a.744.744 0 0 1-.312-.582c-.001-.216.14-.298.312-.191"/><path fill="#c1272d" d="M227.44 32.042c.178.107.316.369.316.586 0 .211-.146.299-.318.191-.176-.105-.316-.367-.316-.582 0-.216.143-.304.318-.195"/><path fill="#009245" d="M228.208 32.507a.76.76 0 0 1 .316.582c0 .217-.145.303-.318.195-.178-.107-.316-.373-.316-.588 0-.211.14-.297.318-.189"/><path fill="#c1272d" d="M228.974 32.979c.176.107.314.367.314.584-.002.211-.143.299-.32.189-.172-.105-.314-.369-.314-.582-.001-.214.144-.302.32-.191m.775.475a.74.74 0 0 1 .316.584c0 .215-.141.303-.318.191a.755.755 0 0 1-.312-.582c0-.212.14-.3.314-.193"/><path fill="#009245" d="M230.517 33.933c.178.106.316.367.316.582 0 .215-.141.301-.318.193-.174-.105-.316-.367-.316-.584-.001-.213.142-.303.318-.191m.767.461a.75.75 0 0 1 .314.584c0 .219-.143.303-.314.193-.178-.107-.318-.369-.318-.584 0-.213.142-.301.318-.193m.768.474c.172.105.312.365.312.582s-.141.299-.318.191a.742.742 0 0 1-.312-.582c-.001-.216.142-.304.318-.191"/><path fill="#c1272d" d="M226.671 32.702c.18.105.318.369.318.584 0 .213-.141.297-.318.193a.746.746 0 0 1-.312-.586c-.001-.214.14-.298.312-.191m.769.475c.178.109.316.369.316.586 0 .213-.146.303-.318.193-.176-.109-.316-.373-.316-.586 0-.215.143-.299.318-.193"/><path fill="#009245" d="M228.208 33.642c.172.103.316.373.316.582 0 .217-.145.303-.318.197-.178-.109-.316-.371-.316-.588 0-.213.14-.299.318-.191"/><path fill="#c1272d" d="M228.974 34.114c.176.105.314.367.314.584-.002.211-.143.299-.32.193a.774.774 0 0 1-.314-.584c-.001-.216.144-.304.32-.193"/><path fill="#009245" d="M229.749 34.589a.742.742 0 0 1 .316.582c0 .217-.141.305-.318.197-.172-.107-.312-.371-.312-.584 0-.215.14-.303.314-.195"/><path fill="#c1272d" d="M230.517 35.063c.178.107.316.375.316.586 0 .217-.141.301-.318.195a.757.757 0 0 1-.316-.584c-.001-.214.142-.302.318-.197"/><path fill="#009245" d="M231.284 35.528a.763.763 0 0 1 .314.586c0 .217-.143.303-.314.191-.178-.104-.318-.367-.318-.582 0-.214.142-.302.318-.195"/><path fill="#c1272d" d="M232.052 35.999c.172.111.312.369.312.586s-.141.299-.318.195a.757.757 0 0 1-.312-.584c-.001-.218.142-.3.318-.197"/><path fill="#009245" d="M232.644 40.882c.178.107.32.367.32.586 0 .211-.145.299-.32.193a.762.762 0 0 1-.316-.586c-.001-.215.14-.301.316-.193m.769.463a.763.763 0 0 1 .312.586c0 .215-.141.299-.312.193a.742.742 0 0 1-.318-.584c0-.215.14-.299.318-.195"/><path fill="#c1272d" d="M234.177 41.817c.176.107.316.367.316.584 0 .211-.141.303-.318.193a.744.744 0 0 1-.314-.584c-.001-.214.142-.304.316-.193m-1.533.202c.178.105.32.367.32.586 0 .213-.145.299-.32.188-.178-.104-.316-.369-.316-.582-.001-.214.14-.304.316-.192m.769.462a.772.772 0 0 1 .312.582c0 .217-.141.305-.312.193-.18-.105-.318-.369-.318-.582 0-.216.14-.3.318-.193"/><path fill="#009245" d="M234.177 42.954c.176.103.316.365.316.582 0 .215-.141.303-.318.191a.731.731 0 0 1-.314-.582c-.001-.212.142-.3.316-.191"/><path fill="none" stroke="#000" d="M254.94 20.249l-11.462-7.06-18.223 11.482-.026-.018v29.239l11.479 7.059v.02l18.201-11.482v-29.22z" stroke-linecap="round" stroke-linejoin="round"/><path d="M245.716 73.277c0 1.895-.6 2.67-1.351 2.67-.808 0-1.296-.959-1.296-2.654 0-1.751.521-2.67 1.367-2.67.84 0 1.28.999 1.28 2.654zm-2.03.008c0 1.256.216 2.135.728 2.135.488 0 .688-.888.688-2.135 0-1.215-.199-2.135-.695-2.135s-.721.888-.721 2.135zm3.936-.271c0-.456-.024-.688-.032-1h.536l.031.48h.016c.168-.312.465-.544.872-.544.36 0 .663.176.808.592h.016c.104-.192.24-.344.385-.44a.93.93 0 0 1 .535-.151c.52 0 .928.384.928 1.367v2.566h-.607v-2.423c0-.504-.072-.991-.545-.991-.256 0-.479.216-.566.575a2.243 2.243 0 0 0-.024.353v2.486h-.608V73.35c0-.433-.08-.88-.535-.88-.248 0-.504.216-.576.624a2.213 2.213 0 0 0-.023.335v2.455h-.607v-2.87zm4.856 2.23c.137.088.376.2.624.2.352 0 .567-.216.567-.56 0-.296-.104-.496-.496-.76-.504-.328-.775-.656-.775-1.104a1.04 1.04 0 0 1 1.063-1.071c.304 0 .536.104.696.199l-.168.464a.913.913 0 0 0-.512-.168.474.474 0 0 0-.504.488c0 .264.096.407.479.672.448.287.8.64.8 1.175 0 .775-.527 1.151-1.16 1.151-.287 0-.6-.088-.768-.224l.154-.462zM82.422 95.884v-.399l.44-.6c.615-.855 1.351-1.831 1.351-2.807 0-.576-.256-.928-.744-.928-.376 0-.616.2-.751.288l-.152-.464a1.624 1.624 0 0 1 1.015-.352c.864 0 1.24.64 1.24 1.423 0 .976-.64 1.919-1.279 2.799l-.352.479v.016h1.735v.544h-2.503zm3.049-1.272c0-.728.432-1.191.855-1.487l-.008-.016c-.432-.296-.68-.752-.68-1.191 0-.8.568-1.295 1.215-1.295.744 0 1.111.623 1.111 1.223 0 .456-.216.896-.695 1.224v.024c.479.319.832.791.832 1.415 0 .808-.536 1.438-1.335 1.438-.864 0-1.295-.687-1.295-1.335zm2.022-.063c0-.6-.344-.936-.743-1.199a1.386 1.386 0 0 0-.672 1.159c0 .583.264.983.711.983.384 0 .704-.296.704-.943zm-1.263-2.671c0 .527.32.792.64.999.312-.224.52-.567.52-.959 0-.504-.208-.84-.584-.84-.344 0-.576.328-.576.8zm3.784 1.136c0-.456-.024-.688-.032-1h.536l.032.48h.016c.168-.312.464-.544.872-.544.36 0 .664.176.808.592h.016c.104-.192.24-.344.384-.44a.932.932 0 0 1 .536-.151c.52 0 .927.384.927 1.367v2.566h-.607v-2.423c0-.504-.072-.991-.544-.991-.256 0-.479.216-.567.575a2.37 2.37 0 0 0-.024.353v2.486h-.608V93.35c0-.433-.08-.88-.536-.88-.248 0-.504.216-.576.624a2.209 2.209 0 0 0-.024.335v2.455h-.608v-2.87zm4.856 2.23c.136.088.376.2.624.2.352 0 .567-.216.567-.56 0-.296-.104-.496-.496-.76-.504-.328-.775-.656-.775-1.104 0-.624.463-1.071 1.063-1.071.304 0 .536.104.696.199l-.168.464a.91.91 0 0 0-.512-.168.474.474 0 0 0-.503.488c0 .264.096.407.479.672.448.287.8.64.8 1.175 0 .775-.528 1.151-1.16 1.151-.288 0-.6-.088-.768-.224l.153-.462zm158.537 48.978c0-.328-.023-.712-.032-1h.552l.032.607h.016c.128-.367.456-.671.815-.671.049 0 .088.008.129.008v.632c-.041-.008-.08-.008-.129-.008-.392 0-.68.359-.743.807a2.243 2.243 0 0 0-.024.353v2.143h-.615v-2.871zm2.312.991c.009 1.184.472 1.439.92 1.439.264 0 .487-.064.64-.152l.096.456c-.216.12-.543.184-.848.184-.928 0-1.407-.76-1.407-1.942 0-1.256.528-2.039 1.304-2.039.791 0 1.104.831 1.104 1.711 0 .144 0 .248-.008.344h-1.801zm1.216-.456c.016-.775-.28-1.119-.576-1.119-.399 0-.607.592-.631 1.119h1.207zm2.975 1.935h-.024a.809.809 0 0 1-.743.463c-.624 0-1.12-.679-1.12-1.95 0-1.367.576-2.047 1.216-2.047.248 0 .536.111.72.512l.016.008.032-.456h.552c-.016.272-.031.616-.031 1.208v4.197h-.616v-1.935zm0-2.023c0-.08 0-.184-.017-.256-.047-.407-.287-.728-.559-.728-.504 0-.696.672-.696 1.487s.208 1.471.68 1.471c.192 0 .432-.111.56-.647.032-.096.032-.224.032-.327v-1zm3.792 1.367c0 .432.023.768.031 1.056h-.535l-.04-.408h-.017c-.119.192-.416.472-.831.472-.68 0-.943-.527-.943-1.486v-2.447h.615v2.359c0 .607.097 1.055.521 1.055.359 0 .52-.336.551-.512.024-.104.032-.224.032-.352v-2.551h.616v2.814zm1.297-.823c.008 1.184.472 1.439.92 1.439.264 0 .487-.064.639-.152l.096.456c-.215.12-.543.184-.848.184-.927 0-1.406-.76-1.406-1.942 0-1.256.527-2.039 1.303-2.039.792 0 1.104.831 1.104 1.711 0 .144 0 .248-.008.344h-1.8zm1.215-.456c.016-.775-.279-1.119-.575-1.119-.399 0-.608.592-.632 1.119h1.207zm1.152 1.695c.137.088.377.2.625.2.352 0 .566-.216.566-.56 0-.296-.104-.496-.495-.76-.504-.328-.775-.656-.775-1.104a1.04 1.04 0 0 1 1.063-1.071c.304 0 .535.104.695.199l-.168.464a.91.91 0 0 0-.512-.168.474.474 0 0 0-.504.488c0 .264.096.407.48.672.447.287.799.64.799 1.175 0 .775-.527 1.151-1.159 1.151-.288 0-.6-.088-.768-.224l.153-.462zm3.168-4.254v1.023h.744v.472h-.744v2.295c0 .504.184.64.408.64.096 0 .176-.008.248-.023l.023.472c-.111.04-.256.063-.455.063-.24 0-.456-.063-.608-.231-.151-.176-.231-.44-.231-.976v-2.239h-.472v-.472h.472v-.848l.615-.176zm-20.887 11.232c0-.592-.023-.936-.032-1.208h.552l.032.496h.016c.208-.416.512-.56.815-.56.672 0 1.119.72 1.119 1.99 0 1.432-.591 2.007-1.199 2.007-.359 0-.567-.231-.671-.447h-.017v1.919h-.615v-4.197zm.616 1.239c0 .119 0 .231.024.319.12.552.399.655.567.655.512 0 .672-.703.672-1.486 0-.8-.191-1.472-.68-1.472-.279 0-.527.352-.567.704-.017.096-.017.191-.017.296v.984zm2.576-1.447c0-.328-.023-.712-.031-1h.551l.033.607h.016c.128-.367.455-.671.815-.671.048 0 .088.008.128.008v.632c-.04-.008-.08-.008-.128-.008-.392 0-.68.359-.743.807a2.243 2.243 0 0 0-.024.353v2.143h-.616v-2.871zm4.256.935c0 1.495-.696 1.998-1.288 1.998-.695 0-1.255-.631-1.255-1.99 0-1.415.631-2.007 1.295-2.007.687 0 1.248.648 1.248 1.999zm-1.928 0c0 .64.112 1.511.672 1.511.527 0 .631-.911.631-1.511 0-.592-.104-1.504-.646-1.504-.553 0-.657.912-.657 1.504zm4.504 1.839c-.137.08-.368.144-.641.144-.848 0-1.415-.68-1.415-1.959 0-1.111.56-2.015 1.527-2.015.208 0 .432.056.544.12l-.12.504a1 1 0 0 0-.44-.104c-.615 0-.895.735-.895 1.495 0 .903.344 1.447.911 1.447.168 0 .304-.04.448-.104l.081.472zm.912-1.783c.008 1.184.473 1.439.92 1.439.264 0 .487-.064.64-.152l.096.456c-.216.12-.544.184-.848.184-.927 0-1.407-.76-1.407-1.942 0-1.256.527-2.039 1.304-2.039.792 0 1.103.831 1.103 1.711 0 .144 0 .248-.008.344h-1.8zm1.216-.456c.016-.775-.28-1.119-.576-1.119-.399 0-.607.592-.632 1.119h1.208zm1.151 1.695c.137.088.377.2.625.2.352 0 .566-.216.566-.56 0-.296-.104-.496-.495-.76-.504-.328-.775-.656-.775-1.104a1.04 1.04 0 0 1 1.063-1.071c.304 0 .535.104.695.199l-.168.464a.91.91 0 0 0-.512-.168.474.474 0 0 0-.504.488c0 .264.096.407.48.672.447.287.799.64.799 1.175 0 .775-.527 1.151-1.159 1.151-.288 0-.6-.088-.768-.224l.153-.462zm2.313 0c.137.088.377.2.625.2.352 0 .566-.216.566-.56 0-.296-.104-.496-.495-.76-.504-.328-.775-.656-.775-1.104a1.04 1.04 0 0 1 1.063-1.071c.304 0 .535.104.695.199l-.168.464a.91.91 0 0 0-.512-.168.474.474 0 0 0-.504.488c0 .264.096.407.48.672.447.287.799.64.799 1.175 0 .775-.527 1.151-1.159 1.151-.288 0-.6-.088-.768-.224l.153-.462zm3.08-4.229c.008.239-.145.399-.376.399-.2 0-.353-.16-.353-.399 0-.24.16-.4.36-.4.224-.001.369.159.369.4zm-.664 4.869v-3.87h.615v3.87h-.615zm1.471-2.87c0-.456-.024-.688-.032-1h.536l.032.464h.016a.982.982 0 0 1 .888-.527c.536 0 .936.399.936 1.335v2.599h-.616v-2.495c0-.455-.088-.919-.535-.919-.256 0-.504.216-.584.632a2.183 2.183 0 0 0-.023.344v2.438h-.616v-2.871zm5.607-1c-.008.272-.031.616-.031 1.208v2.166c0 1.016-.128 1.399-.384 1.68-.231.264-.6.415-1.032.415-.327 0-.646-.079-.847-.191l.144-.479c.152.08.408.168.72.168.487 0 .792-.304.792-1.184v-.392h-.017a.786.786 0 0 1-.743.472c-.688 0-1.136-.775-1.136-1.911 0-1.423.647-2.015 1.216-2.015.416 0 .607.271.719.504h.017l.032-.44h.55zm-.639 1.336c0-.097-.008-.2-.032-.28-.072-.264-.208-.592-.56-.592-.448 0-.688.6-.688 1.455 0 .991.312 1.439.688 1.439.184 0 .424-.088.551-.552.033-.12.041-.24.041-.352v-1.118zM82.391 134.612c0-.728.432-1.191.855-1.487l-.008-.016c-.432-.296-.68-.752-.68-1.191 0-.8.568-1.295 1.215-1.295.744 0 1.111.623 1.111 1.223 0 .456-.216.896-.695 1.224v.024c.479.319.832.791.832 1.415 0 .808-.536 1.438-1.335 1.438-.864 0-1.295-.687-1.295-1.335zm2.022-.063c0-.6-.344-.936-.743-1.199a1.386 1.386 0 0 0-.672 1.159c0 .583.264.983.711.983.384 0 .704-.296.704-.943zm-1.263-2.671c0 .527.32.792.64.999.312-.224.52-.567.52-.959 0-.504-.208-.84-.584-.84-.344 0-.576.328-.576.8zm3.968 4.006v-1.432h-1.727v-.415l1.687-3.351h.6v3.263h.568v.503h-.568v1.432h-.56zm0-1.935v-1.472c0-.359.024-.68.048-1.023h-.032c-.176.416-.288.664-.44.983l-.72 1.495v.017h1.144zm2.896-.935c0-.456-.024-.688-.032-1h.536l.032.48h.016c.168-.312.464-.544.872-.544.36 0 .664.176.808.592h.016c.104-.192.24-.344.384-.44a.932.932 0 0 1 .536-.151c.52 0 .927.384.927 1.367v2.566h-.607v-2.423c0-.504-.072-.991-.544-.991-.256 0-.479.216-.567.575a2.37 2.37 0 0 0-.024.353v2.486h-.608v-2.534c0-.433-.08-.88-.536-.88-.248 0-.504.216-.576.624a2.209 2.209 0 0 0-.024.335v2.455h-.608v-2.87zm4.856 2.23c.136.088.376.2.624.2.352 0 .567-.216.567-.56 0-.296-.104-.496-.496-.76-.504-.328-.775-.656-.775-1.104 0-.624.463-1.071 1.063-1.071.304 0 .536.104.696.199l-.168.464a.91.91 0 0 0-.512-.168.474.474 0 0 0-.503.488c0 .264.096.407.479.672.448.287.8.64.8 1.175 0 .775-.528 1.151-1.16 1.151-.288 0-.6-.088-.768-.224l.153-.462zM32.683 75.483c.23.15.63.27.97.27.699 0 1.119-.459 1.119-1.139 0-.62-.36-1-.89-1.399-.53-.37-1.269-.999-1.269-1.869 0-1.02.709-1.769 1.779-1.769.42 0 .79.13.95.249l-.19.66a1.41 1.41 0 0 0-.8-.229c-.66 0-.969.499-.969.959 0 .67.35.93.989 1.39.81.569 1.169 1.189 1.169 1.938 0 1.159-.819 1.889-1.889 1.889-.46 0-.95-.149-1.14-.289l.171-.661zm4.739.89v-2.849l-1.479-3.888h.81l.6 1.689c.17.47.35.999.5 1.519h.02c.14-.52.31-1.029.49-1.549l.57-1.659h.81l-1.549 3.858v2.878h-.772zm2.96 0v-6.736h.729l1.239 3.158c.28.72.63 1.619.86 2.349h.02c-.06-1.06-.09-1.929-.09-3.098v-2.409h.689v6.736H43.1l-1.279-3.238c-.27-.68-.56-1.449-.8-2.289h-.02c.06.899.08 1.76.08 3.198v2.329h-.699zM89.805 7.48c.23.15.63.27.97.27.699 0 1.119-.459 1.119-1.139 0-.62-.36-1-.89-1.399-.529-.37-1.269-.999-1.269-1.869 0-1.02.709-1.769 1.779-1.769.42 0 .79.13.95.249l-.19.66a1.41 1.41 0 0 0-.8-.229c-.66 0-.969.499-.969.959 0 .67.35.93.989 1.39.81.569 1.169 1.189 1.169 1.938 0 1.159-.819 1.889-1.889 1.889-.46 0-.95-.149-1.14-.289l.171-.661zm4.31-1.459c.01 1.479.589 1.799 1.149 1.799.33 0 .609-.08.799-.189l.12.569c-.27.15-.68.229-1.06.229-1.159 0-1.759-.949-1.759-2.429 0-1.568.66-2.548 1.629-2.548.989 0 1.379 1.039 1.379 2.139 0 .18 0 .31-.01.43h-2.247zm1.519-.569c.02-.97-.35-1.399-.72-1.399-.5 0-.759.739-.79 1.399h1.51zm1.571-.67c0-.569-.03-.859-.04-1.249h.67l.04.579h.02c.209-.39.6-.659 1.109-.659.669 0 1.169.499 1.169 1.669V8.37h-.77V5.252c0-.569-.11-1.149-.669-1.149-.32 0-.63.27-.729.789-.02.12-.03.271-.03.431V8.37h-.77V4.782zm6.958-3.328v5.757c0 .33.03.879.04 1.159h-.66l-.05-.609h-.03c-.16.35-.5.689-1.009.689-.82 0-1.41-.89-1.41-2.479 0-1.72.71-2.519 1.459-2.519.35 0 .689.17.879.579h.02V1.454h.761zm-.76 3.918c0-.101 0-.21-.01-.32-.05-.5-.35-.939-.72-.939-.64 0-.859.89-.859 1.859 0 1.02.26 1.839.819 1.839.24 0 .57-.13.74-.83.02-.09.03-.199.03-.319v-1.29zm2.381.649c.01 1.479.589 1.799 1.149 1.799.33 0 .609-.08.799-.189l.12.569c-.27.15-.68.229-1.06.229-1.159 0-1.759-.949-1.759-2.429 0-1.568.66-2.548 1.629-2.548.989 0 1.379 1.039 1.379 2.139 0 .18 0 .31-.01.43h-2.247zm1.519-.569c.02-.97-.35-1.399-.72-1.399-.5 0-.76.739-.79 1.399h1.51zm1.561-.67c0-.41-.03-.89-.04-1.249h.689l.04.759h.02c.16-.459.57-.839 1.02-.839.06 0 .11.01.16.01v.789c-.05-.01-.1-.01-.16-.01-.49 0-.85.45-.93 1.01-.02.13-.03.279-.03.439V8.37h-.77V4.782zm121.79-3.049c.33-.09.729-.13 1.109-.13.67 0 1.169.141 1.519.48.33.34.471.789.471 1.319 0 .859-.4 1.419-1.08 1.729v.021c.5.149.76.629.91 1.509.15.93.289 1.499.379 1.709h-.779c-.1-.2-.229-.84-.359-1.669-.15-.92-.439-1.27-1.1-1.27h-.3V8.37h-.77V1.733zm.77 3.109h.319c.74 0 1.23-.539 1.23-1.349 0-.78-.32-1.26-1.15-1.27-.149 0-.299.01-.399.04v2.579zm3.8 1.179c.01 1.479.59 1.799 1.15 1.799.329 0 .609-.08.799-.189l.12.569c-.271.15-.68.229-1.06.229-1.159 0-1.76-.949-1.76-2.429 0-1.568.66-2.548 1.63-2.548.989 0 1.38 1.039 1.38 2.139 0 .18 0 .31-.011.43h-2.248zm1.519-.569c.02-.97-.35-1.399-.72-1.399-.499 0-.759.739-.79 1.399h1.51zm3.93 2.798c-.17.101-.46.18-.8.18-1.06 0-1.769-.85-1.769-2.448 0-1.39.699-2.519 1.908-2.519.26 0 .54.07.68.149l-.149.63a1.26 1.26 0 0 0-.55-.13c-.77 0-1.119.92-1.119 1.869 0 1.129.43 1.809 1.139 1.809.211 0 .381-.05.561-.13l.099.59zm1.14-2.229c.01 1.479.59 1.799 1.15 1.799.329 0 .609-.08.799-.189l.12.569c-.271.15-.68.229-1.06.229-1.159 0-1.76-.949-1.76-2.429 0-1.568.66-2.548 1.63-2.548.989 0 1.38 1.039 1.38 2.139 0 .18 0 .31-.011.43h-2.248zm1.52-.569c.02-.97-.35-1.399-.72-1.399-.499 0-.759.739-.79 1.399h1.51zm2.4-3.169c.01.3-.18.5-.47.5-.25 0-.439-.2-.439-.5s.2-.499.45-.499c.28 0 .459.199.459.499zm-.83 6.087V3.533h.77V8.37h-.77zm2.231-4.837l.609 2.718c.07.33.15.76.21 1.18h.03c.05-.399.13-.81.199-1.18l.6-2.718h.76l-1.26 4.837h-.689l-1.259-4.837h.8zm3.49 2.488c.01 1.479.589 1.799 1.148 1.799.33 0 .609-.08.8-.189l.12.569c-.27.15-.68.229-1.06.229-1.159 0-1.759-.949-1.759-2.429 0-1.568.659-2.548 1.629-2.548.989 0 1.379 1.039 1.379 2.139 0 .18 0 .31-.01.43h-2.247zm1.519-.569c.021-.97-.351-1.399-.72-1.399-.5 0-.76.739-.789 1.399h1.509zm1.561-.67c0-.41-.031-.89-.041-1.249h.689l.041.759h.02c.16-.459.57-.839 1.02-.839.061 0 .109.01.16.01v.789c-.051-.01-.1-.01-.16-.01-.49 0-.85.45-.93 1.01-.02.13-.029.279-.029.439V8.37h-.77V4.782zm35.459 90.701c.229.15.629.27.969.27.699 0 1.119-.459 1.119-1.139 0-.62-.359-1-.889-1.399-.529-.37-1.27-.999-1.27-1.869 0-1.02.709-1.769 1.779-1.769.42 0 .789.13.949.249l-.189.66a1.41 1.41 0 0 0-.801-.229c-.659 0-.969.499-.969.959 0 .67.35.93.989 1.39.81.569 1.169 1.189 1.169 1.938 0 1.159-.818 1.889-1.889 1.889-.459 0-.949-.149-1.139-.289l.172-.661zm4.738.89v-2.849l-1.479-3.888h.81l.6 1.689c.17.47.35.999.499 1.519h.021c.14-.52.31-1.029.489-1.549l.57-1.659h.81l-1.55 3.858v2.878h-.77zm2.961 0v-6.736h.729l1.239 3.158c.28.72.63 1.619.859 2.349h.021a50.662 50.662 0 0 1-.091-3.098v-2.409h.69v6.736h-.729l-1.279-3.238c-.27-.68-.561-1.449-.8-2.289h-.021c.061.899.08 1.76.08 3.198v2.329h-.698zm7.03-2.019l-.449 2.019h-.74l1.539-6.736h.85l1.5 6.736h-.76l-.45-2.019h-1.49zm1.388-.62l-.35-1.709c-.1-.479-.189-1.039-.27-1.539h-.04c-.079.51-.18 1.089-.27 1.539l-.351 1.709h1.281zm4.891 2.518c-.21.11-.539.18-.959.18-1.32 0-2.26-1.059-2.26-3.348 0-2.658 1.32-3.508 2.379-3.508.41 0 .699.08.84.17l-.17.649c-.16-.07-.33-.14-.68-.14-.72 0-1.559.699-1.559 2.758 0 2.06.76 2.738 1.578 2.738.291 0 .551-.069.71-.149l.121.65zm.791-6.616h.77v3.198h.021c.149-.28.29-.55.42-.81l1.259-2.389h.85l-1.648 2.879 1.689 3.857h-.83l-1.379-3.248-.381.649v2.599h-.77v-6.735zm-65.445 21.594h-1.399l-.216 1.383c.064-.016.12-.016.191-.016.28 0 .712.12.992.392.271.272.432.655.432 1.184 0 1.031-.647 1.774-1.575 1.774-.312 0-.672-.088-.88-.224l.137-.495c.16.096.439.207.727.207.528 0 .984-.407.984-1.199 0-.823-.504-1.167-1.176-1.167-.191 0-.312.008-.408.024l.328-2.407h1.863v.544zm2.968-.087a2.626 2.626 0 0 0-.369.056c-.863.208-1.207 1.071-1.334 1.871h.023c.199-.296.488-.496.879-.496.664 0 1.12.608 1.12 1.6 0 .983-.448 1.774-1.279 1.774-.903 0-1.359-.919-1.359-2.11 0-1.008.264-1.791.671-2.343a2.143 2.143 0 0 1 1.256-.823c.168-.032.304-.04.393-.048v.519zm-.297 3.078c0-.783-.271-1.176-.695-1.176-.256 0-.52.177-.672.561a.851.851 0 0 0-.048.312c.009 1.063.336 1.551.752 1.551.352-.001.663-.345.663-1.248zm2.514-1.207c0-.456-.024-.688-.032-1h.536l.031.48h.016c.168-.312.465-.544.872-.544.36 0 .663.176.808.592h.016c.104-.192.24-.344.385-.44a.93.93 0 0 1 .535-.151c.52 0 .928.384.928 1.367v2.566h-.607v-2.423c0-.504-.072-.991-.545-.991-.256 0-.479.216-.566.575a2.243 2.243 0 0 0-.024.353v2.486h-.608v-2.534c0-.433-.08-.88-.535-.88-.248 0-.504.216-.576.624a2.213 2.213 0 0 0-.023.335v2.455h-.607v-2.87zm4.856 2.23c.137.088.376.2.624.2.352 0 .567-.216.567-.56 0-.296-.104-.496-.496-.76-.504-.328-.775-.656-.775-1.104a1.04 1.04 0 0 1 1.063-1.071c.304 0 .536.104.696.199l-.168.464a.913.913 0 0 0-.512-.168.474.474 0 0 0-.504.488c0 .264.096.407.479.672.448.287.8.64.8 1.175 0 .775-.527 1.151-1.16 1.151-.287 0-.6-.088-.768-.224l.154-.462zm-221.776-.89l-.45 2.019h-.74l1.54-6.736h.849l1.5 6.736h-.76l-.45-2.019h-1.489zm1.389-.62l-.35-1.709c-.1-.479-.19-1.039-.27-1.539h-.04c-.08.51-.18 1.089-.27 1.539l-.35 1.709h1.28zm4.891 2.518c-.21.11-.54.18-.959.18-1.319 0-2.259-1.059-2.259-3.348 0-2.658 1.319-3.508 2.379-3.508.41 0 .699.08.839.17l-.17.649c-.16-.07-.33-.14-.68-.14-.72 0-1.559.699-1.559 2.758 0 2.06.76 2.738 1.579 2.738.29 0 .55-.069.709-.149l.121.65zm.791-6.616h.77v3.198h.02c.15-.28.29-.55.42-.81l1.259-2.389h.85l-1.649 2.879 1.689 3.857h-.83l-1.379-3.248-.38.649v2.599h-.77v-6.735zM29.481 133.26c-.29.12-.77.229-1.2.229-.589 0-1.139-.159-1.589-.659-.49-.52-.819-1.449-.81-2.679.01-2.618 1.349-3.518 2.539-3.518.42 0 .75.08.959.189l-.17.66c-.18-.091-.42-.16-.779-.16-.84 0-1.749.67-1.749 2.758 0 2.079.79 2.749 1.599 2.749.26 0 .41-.05.47-.08v-2.198h-.87v-.641h1.599v3.35zm3.5-3.029h-1.689v2.528h1.919v.67h-2.688v-6.736h2.569v.67h-1.799v2.219h1.689v.649zm1.871-2.848h-1.229v-.689h3.228v.689h-1.229v6.047h-.77v-6.047zm3.801 6.446l2.149-7.216h.58l-2.159 7.216h-.57zm3.43-.399v-4.248h-.61v-.589h.61v-.32c0-.859.419-1.839 1.759-1.839.41 0 .77.12.95.229l-.17.6a1.93 1.93 0 0 0-.8-.189c-.779 0-.969.54-.969 1.279v.24h2.169v4.837h-.77v-4.248h-1.399v4.248h-.77zm4.02-6.916h.77v6.916h-.77v-6.916zm2.45 4.567c.01 1.479.589 1.799 1.149 1.799.33 0 .609-.08.799-.189l.12.569c-.27.15-.68.229-1.06.229-1.159 0-1.759-.949-1.759-2.429 0-1.568.66-2.548 1.629-2.548.989 0 1.379 1.039 1.379 2.139 0 .18 0 .31-.01.43h-2.247zm1.519-.569c.02-.97-.35-1.399-.72-1.399-.5 0-.759.739-.79 1.399h1.51zm30.518 48.799h-.016l-.864.495-.12-.479 1.095-.64h.512v5.197h-.607v-4.573zm1.832 4.573v-.399l.44-.6c.615-.855 1.351-1.831 1.351-2.807 0-.576-.256-.928-.744-.928-.376 0-.616.2-.751.288l-.152-.464a1.624 1.624 0 0 1 1.015-.352c.864 0 1.24.64 1.24 1.423 0 .976-.64 1.919-1.279 2.799l-.352.479v.016h1.735v.544h-2.503zm4.696 0v-1.432h-1.727v-.415l1.687-3.351h.6v3.263h.568v.503h-.568v1.432h-.56zm0-1.935v-1.472c0-.359.024-.68.048-1.023h-.032c-.176.416-.288.664-.44.983l-.72 1.495v.017h1.144zm2.896-.935c0-.456-.024-.688-.032-1h.536l.032.48h.016c.168-.312.464-.544.872-.544.36 0 .664.176.808.592h.016c.104-.192.24-.344.384-.44a.932.932 0 0 1 .536-.151c.52 0 .927.384.927 1.367v2.566h-.607v-2.423c0-.504-.072-.991-.544-.991-.256 0-.479.216-.567.575a2.37 2.37 0 0 0-.024.353v2.486h-.608v-2.534c0-.433-.08-.88-.536-.88-.248 0-.504.216-.576.624a2.209 2.209 0 0 0-.024.335v2.455h-.608v-2.87zm4.856 2.23c.136.088.376.2.624.2.352 0 .567-.216.567-.56 0-.296-.104-.496-.496-.76-.504-.328-.775-.656-.775-1.104 0-.624.463-1.071 1.063-1.071.304 0 .536.104.696.199l-.168.464a.91.91 0 0 0-.512-.168.474.474 0 0 0-.503.488c0 .264.096.407.479.672.448.287.8.64.8 1.175 0 .775-.528 1.151-1.16 1.151-.288 0-.6-.088-.768-.224l.153-.462zm181.268-9.588h-.021l-1.079.619-.15-.6 1.369-.799h.641v6.496h-.76v-5.716zm5.549 2.459c0 2.368-.75 3.338-1.689 3.338-1.01 0-1.619-1.199-1.619-3.318 0-2.188.65-3.338 1.709-3.338 1.049-.001 1.599 1.248 1.599 3.318zm-2.54.01c0 1.569.27 2.668.91 2.668.609 0 .859-1.109.859-2.668 0-1.52-.25-2.669-.869-2.669s-.9 1.109-.9 2.669zm3.781-1.589l.45 1.039c.119.279.209.56.32.85h.02c.109-.31.22-.59.32-.85l.439-1.039h.789l-1.149 2.389 1.14 2.448h-.84l-.459-1.09c-.11-.26-.201-.509-.32-.829h-.02c-.101.29-.211.55-.32.829l-.449 1.09h-.78l1.149-2.429-1.119-2.408h.829zm5.04-1.21h-1.23v-.689h3.229v.689h-1.229v6.047h-.77v-6.047zm5.369 5.926c-.211.11-.54.18-.96.18-1.319 0-2.259-1.059-2.259-3.348 0-2.658 1.319-3.508 2.379-3.508.41 0 .699.08.84.17l-.17.649c-.16-.07-.33-.14-.68-.14-.721 0-1.56.699-1.56 2.758 0 2.06.76 2.738 1.579 2.738.29 0 .55-.069.709-.149l.122.65zm.791-6.516c.311-.079.68-.13 1.119-.13.62 0 1.14.15 1.489.5.33.32.5.81.5 1.39 0 .619-.149 1.039-.409 1.379-.371.5-.99.75-1.59.75-.13 0-.23 0-.34-.011v2.759h-.77v-6.637zm.769 3.228c.09.021.17.03.3.03.76 0 1.27-.5 1.27-1.449 0-.689-.29-1.31-1.14-1.31-.18 0-.33.021-.43.05v2.679zm4.6 2.609c.17.11.471.25.78.25.439 0 .71-.27.71-.699 0-.37-.131-.62-.62-.95-.63-.409-.97-.819-.97-1.379 0-.779.58-1.339 1.33-1.339.379 0 .669.13.869.25l-.21.579a1.14 1.14 0 0 0-.64-.21c-.42 0-.63.3-.63.61 0 .329.12.509.6.839.56.36.999.8.999 1.47 0 .969-.659 1.438-1.449 1.438-.359 0-.749-.109-.959-.279l.19-.58zm3.561-1.549c.01 1.479.589 1.799 1.148 1.799.33 0 .609-.08.8-.189l.12.569c-.27.15-.68.229-1.06.229-1.159 0-1.759-.949-1.759-2.429 0-1.568.659-2.548 1.629-2.548.989 0 1.379 1.039 1.379 2.139 0 .18 0 .31-.01.43h-2.247zm1.518-.569c.021-.97-.351-1.399-.72-1.399-.5 0-.76.739-.789 1.399h1.509zm4.529-1.919c-.01.34-.04.77-.04 1.509v2.708c0 1.27-.16 1.749-.479 2.1-.29.329-.749.52-1.29.52-.409 0-.809-.1-1.059-.24l.18-.6c.189.101.51.21.899.21.61 0 .989-.38.989-1.479v-.489h-.02c-.17.38-.52.59-.93.59-.859 0-1.42-.97-1.42-2.389 0-1.779.811-2.519 1.52-2.519.52 0 .76.34.9.629h.02l.04-.549h.69zm-.799 1.669c0-.12-.01-.25-.039-.351-.091-.329-.26-.739-.7-.739-.56 0-.859.75-.859 1.819 0 1.239.39 1.799.859 1.799.229 0 .53-.11.689-.689.04-.15.05-.3.05-.439v-1.4zm1.831-.42c0-.569-.03-.859-.04-1.249h.67l.04.6h.021c.209-.391.579-.68 1.089-.68.45 0 .829.22 1.009.739h.021c.13-.24.3-.43.479-.55.189-.13.42-.189.67-.189.649 0 1.159.479 1.159 1.709v3.208h-.759v-3.028c0-.63-.091-1.239-.68-1.239-.32 0-.6.27-.71.72-.021.13-.03.279-.03.439v3.108h-.76v-3.168c0-.54-.1-1.1-.67-1.1-.309 0-.629.27-.719.779-.021.13-.03.271-.03.42v3.068h-.76v-3.587zm6.74 1.239c.01 1.479.589 1.799 1.149 1.799.33 0 .609-.08.799-.189l.121.569c-.271.15-.68.229-1.061.229-1.158 0-1.759-.949-1.759-2.429 0-1.568.659-2.548 1.63-2.548.988 0 1.379 1.039 1.379 2.139 0 .18 0 .31-.01.43h-2.248zm1.519-.569c.021-.97-.35-1.399-.719-1.399-.5 0-.76.739-.79 1.399h1.509zm1.571-.67c0-.569-.03-.859-.04-1.249h.67l.04.579h.021c.209-.39.6-.659 1.109-.659.669 0 1.169.499 1.169 1.669v3.248h-.771v-3.118c0-.569-.109-1.149-.669-1.149-.319 0-.63.27-.729.789-.02.12-.03.271-.03.431v3.048h-.77v-3.589zm4.929-2.529v1.279h.93v.589h-.93v2.869c0 .629.23.799.51.799.121 0 .221-.01.311-.029l.029.59c-.139.05-.319.079-.568.079-.301 0-.57-.079-.76-.289-.19-.221-.291-.55-.291-1.22v-2.799h-.589v-.589h.589v-1.06l.769-.219zm1.48 5.317c.17.11.471.25.78.25.439 0 .71-.27.71-.699 0-.37-.131-.62-.62-.95-.63-.409-.97-.819-.97-1.379 0-.779.58-1.339 1.33-1.339.379 0 .669.13.869.25l-.21.579a1.14 1.14 0 0 0-.64-.21c-.42 0-.63.3-.63.61 0 .329.12.509.6.839.56.36.999.8.999 1.47 0 .969-.659 1.438-1.449 1.438-.359 0-.749-.109-.959-.279l.19-.58zm-40.594 5.073h-.021l-1.14.609-.039-.59 1.469-.789h.6l-1.229 6.496h-.71l1.07-5.726zm3.27 5.727l.35-1.809h-2.099l.09-.51 2.849-4.178h.709l-.779 4.088h.71l-.12.6h-.699l-.35 1.809h-.661zm.47-2.409l.34-1.8c.101-.47.22-.899.319-1.359h-.029c-.32.55-.51.88-.85 1.38l-1.189 1.759v.021h1.409zm5.279-3.528c-.05 0-.101.01-.16.02-.899.13-1.849.87-2.318 2.349h.02c.31-.369.71-.569 1.1-.569.79 0 1.13.739 1.13 1.52 0 1.169-.67 2.698-1.89 2.698-.979 0-1.349-.89-1.349-1.919 0-1.409.639-2.908 1.398-3.668.66-.689 1.41-1.01 1.989-1.06.069-.01.11-.01.149-.01l-.069.639zm-.97 3.358c0-.65-.229-.979-.67-.979-.31 0-.699.26-.949.709-.029.07-.07.16-.09.23-.061.31-.09.56-.09.909 0 .67.22 1.209.68 1.209.83.001 1.119-1.319 1.119-2.078zm4.959-2.199c0 1.529-.619 4.857-2.389 4.857-.999 0-1.189-1.069-1.189-1.909 0-1.769.75-4.747 2.389-4.747 1.07 0 1.189 1.1 1.189 1.799zm-2.857 2.958c0 .77.1 1.27.6 1.27 1.059 0 1.539-3.348 1.539-4.338 0-.47-.08-1.059-.53-1.059-1.1 0-1.609 2.978-1.609 4.127zm6.717-2.958c0 1.529-.62 4.857-2.389 4.857-.999 0-1.189-1.069-1.189-1.909 0-1.769.749-4.747 2.389-4.747 1.069 0 1.189 1.1 1.189 1.799zm-2.858 2.958c0 .77.1 1.27.6 1.27 1.06 0 1.539-3.348 1.539-4.338 0-.47-.08-1.059-.529-1.059-1.1 0-1.61 2.978-1.61 4.127zm6.379-5.096l-.52 2.698h.02c.35-.5.689-.699 1.09-.699.75 0 .949.779.949 1.369 0 1.449-.789 3.628-2.438 3.628-.659 0-.96-.38-.96-.88 0-.199.03-.409.061-.539l1.079-5.577h.719zm-1.069 5.457c-.04.149-.05.29-.05.479 0 .28.109.479.42.479.979 0 1.488-1.988 1.488-2.858 0-.56-.129-.919-.52-.919-.42 0-.879.55-1.029 1.339l-.309 1.48zm3.999-3.378l.16 2.708c.021.439.03.72.051 1.199h.02c.13-.42.27-.789.43-1.219l1-2.688h.739l-1.619 3.928c-.44 1.079-.95 1.979-1.589 2.528-.29.24-.57.42-.75.479l-.29-.609c.21-.1.47-.25.72-.46.3-.25.63-.689.779-1.049.041-.101.051-.17.041-.271l-.431-4.547h.739zm4.24-1.27l-.26 1.27H314l-.11.56h-.909l-.52 2.758c-.05.26-.069.48-.069.61 0 .239.09.369.329.369.13 0 .21 0 .3-.02l-.061.56c-.17.05-.359.07-.52.07-.51 0-.809-.3-.809-.78 0-.189.02-.39.1-.779l.529-2.788h-.58l.101-.56h.59l.2-1.05.77-.22zm2.949 5.866c-.35.19-.72.3-1.139.3-1.02 0-1.35-.779-1.35-1.709 0-1.309.729-3.268 2.108-3.268.71 0 .999.539.999 1.099 0 1.17-1.039 1.67-2.358 1.68-.02.14-.05.68.03.97.109.409.359.629.74.629.379 0 .639-.13.859-.26l.111.559zm-.49-4.057c-.43 0-.889.53-1.148 1.579.77-.01 1.578-.27 1.578-1.049 0-.34-.139-.53-.43-.53zm1.231 3.548c.149.101.39.23.749.23.49-.01.78-.36.78-.819 0-.43-.21-.69-.489-.939-.33-.3-.631-.72-.631-1.18 0-.819.601-1.459 1.51-1.459.32 0 .6.08.75.189l-.2.55c-.14-.08-.36-.149-.56-.149-.5 0-.779.329-.779.749 0 .38.22.6.449.81.38.33.68.779.68 1.27 0 1.039-.68 1.559-1.579 1.559-.38 0-.759-.149-.899-.26l.219-.551zM80.59 219.311h-.016l-.864.495-.12-.479 1.095-.64h.512v5.197h-.607v-4.573zm1.801 3.301c0-.728.432-1.191.855-1.487l-.008-.016c-.432-.296-.68-.752-.68-1.191 0-.8.568-1.295 1.215-1.295.744 0 1.111.623 1.111 1.223 0 .456-.216.896-.695 1.224v.024c.479.319.832.791.832 1.415 0 .808-.536 1.438-1.335 1.438-.864 0-1.295-.687-1.295-1.335zm2.022-.063c0-.6-.344-.936-.743-1.199a1.386 1.386 0 0 0-.672 1.159c0 .583.264.983.711.983.384 0 .704-.296.704-.943zm-1.263-2.671c0 .527.32.792.64.999.312-.224.52-.567.52-.959 0-.504-.208-.84-.584-.84-.344 0-.576.328-.576.8zm4.959 1.399c0 1.895-.6 2.67-1.351 2.67-.808 0-1.295-.959-1.295-2.654 0-1.751.52-2.67 1.367-2.67.839 0 1.279.999 1.279 2.654zm-2.031.008c0 1.256.216 2.135.728 2.135.488 0 .688-.888.688-2.135 0-1.215-.2-2.135-.695-2.135-.497 0-.721.888-.721 2.135zm3.936-.271c0-.456-.024-.688-.032-1h.536l.032.48h.016c.168-.312.464-.544.872-.544.36 0 .664.176.808.592h.016c.104-.192.24-.344.384-.44a.932.932 0 0 1 .536-.151c.52 0 .927.384.927 1.367v2.566h-.607v-2.423c0-.504-.072-.991-.544-.991-.256 0-.479.216-.567.575a2.37 2.37 0 0 0-.024.353v2.486h-.608v-2.534c0-.433-.08-.88-.536-.88-.248 0-.504.216-.576.624a2.209 2.209 0 0 0-.024.335v2.455h-.608v-2.87zm4.856 2.23c.136.088.376.2.624.2.352 0 .567-.216.567-.56 0-.296-.104-.496-.496-.76-.504-.328-.775-.656-.775-1.104 0-.624.463-1.071 1.063-1.071.304 0 .536.104.696.199l-.168.464a.91.91 0 0 0-.512-.168.474.474 0 0 0-.503.488c0 .264.096.407.479.672.448.287.8.64.8 1.175 0 .775-.528 1.151-1.16 1.151-.288 0-.6-.088-.768-.224l.153-.462zm179.708-3.871v-.5l.55-.749c.77-1.069 1.689-2.289 1.689-3.509 0-.719-.32-1.159-.93-1.159-.471 0-.77.25-.939.36l-.19-.58c.229-.189.68-.439 1.27-.439 1.079 0 1.55.8 1.55 1.778 0 1.22-.801 2.399-1.6 3.499l-.439.6v.02h2.168v.68h-3.129zm7.109-3.258c0 2.368-.75 3.338-1.689 3.338-1.01 0-1.619-1.199-1.619-3.318 0-2.188.65-3.338 1.709-3.338 1.049-.001 1.599 1.248 1.599 3.318zm-2.54.01c0 1.569.27 2.668.91 2.668.609 0 .859-1.109.859-2.668 0-1.52-.25-2.669-.869-2.669s-.9 1.109-.9 2.669zm3.781-1.589l.45 1.039c.119.279.209.56.32.85h.02c.109-.31.22-.59.32-.85l.439-1.039h.789l-1.149 2.389 1.14 2.448h-.84l-.459-1.09c-.11-.26-.201-.509-.32-.829h-.02c-.101.29-.211.55-.32.829l-.449 1.09h-.78l1.149-2.429-1.119-2.408h.829zm5.04-1.21h-1.23v-.689h3.229v.689h-1.229v6.047h-.77v-6.047zm5.369 5.926c-.211.11-.54.18-.96.18-1.319 0-2.259-1.059-2.259-3.348 0-2.658 1.319-3.508 2.379-3.508.41 0 .699.08.84.17l-.17.649c-.16-.07-.33-.14-.68-.14-.721 0-1.56.699-1.56 2.758 0 2.06.76 2.738 1.579 2.738.29 0 .55-.069.709-.149l.122.65zm.791-6.516c.311-.079.68-.13 1.119-.13.62 0 1.14.15 1.489.5.33.32.5.81.5 1.39 0 .619-.149 1.039-.409 1.379-.371.5-.99.75-1.59.75-.13 0-.23 0-.34-.011v2.759h-.77v-6.637zm.769 3.228c.09.021.17.03.3.03.76 0 1.27-.5 1.27-1.449 0-.689-.29-1.31-1.14-1.31-.18 0-.33.021-.43.05v2.679zm4.6 2.609c.17.11.471.25.78.25.439 0 .71-.27.71-.699 0-.37-.131-.62-.62-.95-.63-.409-.97-.819-.97-1.379 0-.779.58-1.339 1.33-1.339.379 0 .669.13.869.25l-.21.579a1.14 1.14 0 0 0-.64-.21c-.42 0-.63.3-.63.61 0 .329.12.509.6.839.56.36.999.8.999 1.47 0 .969-.659 1.438-1.449 1.438-.359 0-.749-.109-.959-.279l.19-.58zm3.561-1.549c.01 1.479.589 1.799 1.148 1.799.33 0 .609-.08.8-.189l.12.569c-.27.15-.68.229-1.06.229-1.159 0-1.759-.949-1.759-2.429 0-1.568.659-2.548 1.629-2.548.989 0 1.379 1.039 1.379 2.139 0 .18 0 .31-.01.43h-2.247zm1.518-.569c.021-.97-.351-1.399-.72-1.399-.5 0-.76.739-.789 1.399h1.509zm4.529-1.919c-.01.34-.04.77-.04 1.509v2.708c0 1.27-.16 1.749-.479 2.1-.29.329-.749.52-1.29.52-.409 0-.809-.1-1.059-.24l.18-.6c.189.101.51.21.899.21.61 0 .989-.38.989-1.479v-.489h-.02c-.17.38-.52.59-.93.59-.859 0-1.42-.97-1.42-2.389 0-1.779.811-2.519 1.52-2.519.52 0 .76.34.9.629h.02l.04-.549h.69zm-.799 1.669c0-.12-.01-.25-.039-.351-.091-.329-.26-.739-.7-.739-.56 0-.859.75-.859 1.819 0 1.239.39 1.799.859 1.799.229 0 .53-.11.689-.689.04-.15.05-.3.05-.439v-1.4zm1.831-.42c0-.569-.03-.859-.04-1.249h.67l.04.6h.021c.209-.391.579-.68 1.089-.68.45 0 .829.22 1.009.739h.021c.13-.24.3-.43.479-.55.189-.13.42-.189.67-.189.649 0 1.159.479 1.159 1.709v3.208h-.759v-3.028c0-.63-.091-1.239-.68-1.239-.32 0-.6.27-.71.72-.021.13-.03.279-.03.439v3.108h-.76v-3.168c0-.54-.1-1.1-.67-1.1-.309 0-.629.27-.719.779-.021.13-.03.271-.03.42v3.068h-.76v-3.587zm6.74 1.239c.01 1.479.589 1.799 1.149 1.799.33 0 .609-.08.799-.189l.121.569c-.271.15-.68.229-1.061.229-1.158 0-1.759-.949-1.759-2.429 0-1.568.659-2.548 1.63-2.548.988 0 1.379 1.039 1.379 2.139 0 .18 0 .31-.01.43h-2.248zm1.519-.569c.021-.97-.35-1.399-.719-1.399-.5 0-.76.739-.79 1.399h1.509zm1.571-.67c0-.569-.03-.859-.04-1.249h.67l.04.579h.021c.209-.39.6-.659 1.109-.659.669 0 1.169.499 1.169 1.669v3.248h-.771v-3.118c0-.569-.109-1.149-.669-1.149-.319 0-.63.27-.729.789-.02.12-.03.271-.03.431v3.048h-.77v-3.589zm4.929-2.529v1.279h.93v.589h-.93v2.869c0 .629.23.799.51.799.121 0 .221-.01.311-.029l.029.59c-.139.05-.319.079-.568.079-.301 0-.57-.079-.76-.289-.19-.221-.291-.55-.291-1.22v-2.799h-.589v-.589h.589v-1.06l.769-.219zm1.48 5.317c.17.11.471.25.78.25.439 0 .71-.27.71-.699 0-.37-.131-.62-.62-.95-.63-.409-.97-.819-.97-1.379 0-.779.58-1.339 1.33-1.339.379 0 .669.13.869.25l-.21.579a1.14 1.14 0 0 0-.64-.21c-.42 0-.63.3-.63.61 0 .329.12.509.6.839.56.36.999.8.999 1.47 0 .969-.659 1.438-1.449 1.438-.359 0-.749-.109-.959-.279l.19-.58zm-43.093 10.8l.079-.479.66-.76c.92-1.06 2.279-2.589 2.279-3.758 0-.59-.26-.949-.811-.949-.43 0-.709.22-.859.319l-.14-.55c.261-.17.68-.399 1.2-.399.998 0 1.349.709 1.349 1.439 0 1.528-1.489 3.038-2.448 4.167l-.271.3.011.021h2.059l-.11.649h-2.998zm4.37-.56c.1-.021.219-.04.379-.08.311-.09.66-.28.93-.52.449-.38.84-.979 1.1-1.77h-.03c-.26.28-.62.48-1.02.48-.79 0-1.149-.68-1.149-1.51 0-1.189.8-2.618 1.959-2.618.97 0 1.26.859 1.26 1.679-.01 1.499-.66 3.089-1.42 3.908a3.383 3.383 0 0 1-1.619.999c-.16.04-.27.061-.43.07l.04-.638zm.94-3.479c0 .78.289 1.029.659 1.029.339 0 .689-.26.88-.6.039-.069.08-.159.129-.369.061-.23.101-.55.101-.939 0-.61-.11-1.08-.62-1.08-.77 0-1.149 1.24-1.149 1.959zm2.41 4.039l.08-.479.659-.76c.919-1.06 2.278-2.589 2.278-3.758 0-.59-.26-.949-.809-.949-.43 0-.71.22-.859.319l-.141-.55c.26-.17.68-.399 1.199-.399 1 0 1.35.709 1.35 1.439 0 1.528-1.489 3.038-2.449 4.167l-.27.3.01.021h2.059l-.109.649h-2.998zm7.787-4.778c0 1.529-.619 4.857-2.389 4.857-.999 0-1.189-1.069-1.189-1.909 0-1.769.75-4.747 2.389-4.747 1.07 0 1.189 1.1 1.189 1.799zm-2.857 2.958c0 .77.1 1.27.6 1.27 1.059 0 1.539-3.348 1.539-4.338 0-.47-.08-1.059-.53-1.059-1.1 0-1.609 2.978-1.609 4.127zm6.717-2.958c0 1.529-.62 4.857-2.389 4.857-.999 0-1.189-1.069-1.189-1.909 0-1.769.749-4.747 2.389-4.747 1.069 0 1.189 1.1 1.189 1.799zm-2.858 2.958c0 .77.1 1.27.6 1.27 1.06 0 1.539-3.348 1.539-4.338 0-.47-.08-1.059-.529-1.059-1.1 0-1.61 2.978-1.61 4.127zm6.379-5.096l-.52 2.698h.02c.35-.5.689-.699 1.09-.699.75 0 .949.779.949 1.369 0 1.449-.789 3.628-2.438 3.628-.659 0-.96-.38-.96-.88 0-.199.03-.409.061-.539l1.079-5.577h.719zm-1.069 5.457c-.04.149-.05.29-.05.479 0 .28.109.479.42.479.979 0 1.488-1.988 1.488-2.858 0-.56-.129-.919-.52-.919-.42 0-.879.55-1.029 1.339l-.309 1.48zm3.999-3.378l.16 2.708c.021.439.03.72.051 1.199h.02c.13-.42.27-.789.43-1.219l1-2.688h.739l-1.619 3.928c-.44 1.079-.95 1.979-1.589 2.528-.29.24-.57.42-.75.479l-.29-.609c.21-.1.47-.25.72-.46.3-.25.63-.689.779-1.049.041-.101.051-.17.041-.271l-.431-4.547h.739zm4.24-1.27l-.26 1.27H314l-.11.56h-.909l-.52 2.758c-.05.26-.069.48-.069.61 0 .239.09.369.329.369.13 0 .21 0 .3-.02l-.061.56c-.17.05-.359.07-.52.07-.51 0-.809-.3-.809-.78 0-.189.02-.39.1-.779l.529-2.788h-.58l.101-.56h.59l.2-1.05.77-.22zm2.949 5.866c-.35.19-.72.3-1.139.3-1.02 0-1.35-.779-1.35-1.709 0-1.309.729-3.268 2.108-3.268.71 0 .999.539.999 1.099 0 1.17-1.039 1.67-2.358 1.68-.02.14-.05.68.03.97.109.409.359.629.74.629.379 0 .639-.13.859-.26l.111.559zm-.49-4.057c-.43 0-.889.53-1.148 1.579.77-.01 1.578-.27 1.578-1.049 0-.34-.139-.53-.43-.53zm1.231 3.548c.149.101.39.23.749.23.49-.01.78-.36.78-.819 0-.43-.21-.69-.489-.939-.33-.3-.631-.72-.631-1.18 0-.819.601-1.459 1.51-1.459.32 0 .6.08.75.189l-.2.55c-.14-.08-.36-.149-.56-.149-.5 0-.779.329-.779.749 0 .38.22.6.449.81.38.33.68.779.68 1.27 0 1.039-.68 1.559-1.579 1.559-.38 0-.759-.149-.899-.26l.219-.551zm-72.674-29.312h-.017l-.863.495-.119-.479 1.095-.64h.512v5.197h-.607v-4.573zm4.24-.081h-1.399l-.216 1.383c.064-.016.12-.016.191-.016.28 0 .712.12.992.392.271.272.432.655.432 1.184 0 1.031-.647 1.774-1.575 1.774-.312 0-.672-.088-.88-.224l.137-.495c.16.096.439.207.727.207.528 0 .984-.407.984-1.199 0-.823-.504-1.167-1.176-1.167-.191 0-.312.008-.408.024l.328-2.407h1.863v.544zm.674 4.654v-.399l.439-.6c.615-.855 1.352-1.831 1.352-2.807 0-.576-.256-.928-.744-.928-.376 0-.615.2-.752.288l-.151-.464a1.627 1.627 0 0 1 1.015-.352c.864 0 1.24.64 1.24 1.423 0 .976-.64 1.919-1.279 2.799l-.352.479v.016h1.734v.544h-2.502zm4.511-2.87c0-.456-.024-.688-.032-1h.536l.031.48h.016c.168-.312.465-.544.872-.544.36 0 .663.176.808.592h.016c.104-.192.24-.344.385-.44a.93.93 0 0 1 .535-.151c.52 0 .928.384.928 1.367v2.566h-.607v-2.423c0-.504-.072-.991-.545-.991-.256 0-.479.216-.566.575a2.243 2.243 0 0 0-.024.353v2.486h-.608v-2.534c0-.433-.08-.88-.535-.88-.248 0-.504.216-.576.624a2.213 2.213 0 0 0-.023.335v2.455h-.607v-2.87zm4.856 2.23c.137.088.376.2.624.2.352 0 .567-.216.567-.56 0-.296-.104-.496-.496-.76-.504-.328-.775-.656-.775-1.104a1.04 1.04 0 0 1 1.063-1.071c.304 0 .536.104.696.199l-.168.464a.913.913 0 0 0-.512-.168.474.474 0 0 0-.504.488c0 .264.096.407.479.672.448.287.8.64.8 1.175 0 .775-.527 1.151-1.16 1.151-.287 0-.6-.088-.768-.224l.154-.462zm-230.721-4.588h-.02l-1.079.619-.15-.6 1.369-.799h.64v6.496h-.76v-5.716zm5.549 2.459c0 2.368-.75 3.338-1.689 3.338-1.01 0-1.619-1.199-1.619-3.318 0-2.188.649-3.338 1.709-3.338 1.05-.001 1.599 1.248 1.599 3.318zm-2.538.01c0 1.569.27 2.668.909 2.668.61 0 .86-1.109.86-2.668 0-1.52-.25-2.669-.87-2.669-.619 0-.899 1.109-.899 2.669zm3.78-1.589l.45 1.039c.12.279.209.56.32.85h.02c.11-.31.22-.59.319-.85l.44-1.039h.79l-1.149 2.389 1.14 2.448h-.84l-.459-1.09c-.11-.26-.2-.509-.32-.829h-.02c-.1.29-.21.55-.32.829l-.45 1.09h-.78l1.149-2.429-1.119-2.408h.829zm5.409 2.818l-.45 2.019h-.74l1.54-6.736h.849l1.5 6.736h-.76l-.45-2.019h-1.489zm1.389-.62l-.35-1.709c-.1-.479-.19-1.039-.27-1.539h-.04c-.08.51-.18 1.089-.27 1.539l-.35 1.709h1.28zm4.891 2.518c-.21.11-.54.18-.959.18-1.319 0-2.259-1.059-2.259-3.348 0-2.658 1.319-3.508 2.379-3.508.41 0 .699.08.839.17l-.17.649c-.16-.07-.33-.14-.68-.14-.72 0-1.559.699-1.559 2.758 0 2.06.76 2.738 1.579 2.738.29 0 .55-.069.709-.149l.121.65zm.791-6.616h.77v3.198h.02c.15-.28.29-.55.42-.81l1.259-2.389h.85l-1.649 2.879 1.689 3.857h-.83l-1.379-3.248-.38.649v2.599h-.77v-6.735zm195.922 46.248v-.399l.439-.6c.615-.855 1.352-1.831 1.352-2.807 0-.576-.256-.928-.744-.928-.376 0-.615.2-.752.288l-.151-.464a1.627 1.627 0 0 1 1.015-.352c.864 0 1.24.64 1.24 1.423 0 .976-.64 1.919-1.279 2.799l-.352.479v.016h1.734v.544h-2.502zm5.686-2.607c0 1.895-.6 2.67-1.351 2.67-.808 0-1.296-.959-1.296-2.654 0-1.751.521-2.67 1.367-2.67.84 0 1.28.999 1.28 2.654zm-2.03.008c0 1.256.216 2.135.728 2.135.488 0 .688-.888.688-2.135 0-1.215-.199-2.135-.695-2.135s-.721.888-.721 2.135zm2.472 1.327c0-.728.432-1.191.855-1.487l-.009-.016c-.432-.296-.68-.752-.68-1.191 0-.8.568-1.295 1.216-1.295.743 0 1.111.623 1.111 1.223 0 .456-.216.896-.695 1.224v.024c.479.319.831.791.831 1.415 0 .808-.535 1.438-1.335 1.438-.862 0-1.294-.687-1.294-1.335zm2.023-.063c0-.6-.344-.936-.743-1.199a1.386 1.386 0 0 0-.672 1.159c0 .583.264.983.712.983.382 0 .703-.296.703-.943zm-1.264-2.671c0 .527.32.792.641.999.312-.224.52-.567.52-.959 0-.504-.208-.84-.584-.84-.344 0-.577.328-.577.8zm3.785 1.136c0-.456-.024-.688-.032-1h.536l.031.48h.016c.168-.312.465-.544.872-.544.36 0 .663.176.808.592h.016c.104-.192.24-.344.385-.44a.93.93 0 0 1 .535-.151c.52 0 .928.384.928 1.367v2.566h-.607v-2.423c0-.504-.072-.991-.545-.991-.256 0-.479.216-.566.575a2.243 2.243 0 0 0-.024.353v2.486h-.608v-2.534c0-.433-.08-.88-.535-.88-.248 0-.504.216-.576.624a2.213 2.213 0 0 0-.023.335v2.455h-.607v-2.87zm4.856 2.23c.137.088.376.2.624.2.352 0 .567-.216.567-.56 0-.296-.104-.496-.496-.76-.504-.328-.775-.656-.775-1.104a1.04 1.04 0 0 1 1.063-1.071c.304 0 .536.104.696.199l-.168.464a.913.913 0 0 0-.512-.168.474.474 0 0 0-.504.488c0 .264.096.407.479.672.448.287.8.64.8 1.175 0 .775-.527 1.151-1.16 1.151-.287 0-.6-.088-.768-.224l.154-.462zm-15.528 40.542v-.399l.439-.6c.615-.855 1.352-1.831 1.352-2.807 0-.576-.256-.928-.744-.928-.376 0-.615.2-.752.288l-.151-.464a1.627 1.627 0 0 1 1.015-.352c.864 0 1.24.64 1.24 1.423 0 .976-.64 1.919-1.279 2.799l-.352.479v.016h1.734v.544h-2.502zm5.375-4.741a2.626 2.626 0 0 0-.369.056c-.863.208-1.207 1.071-1.334 1.871h.023c.199-.296.488-.496.879-.496.664 0 1.12.608 1.12 1.6 0 .983-.448 1.774-1.279 1.774-.903 0-1.359-.919-1.359-2.11 0-1.008.264-1.791.671-2.343a2.143 2.143 0 0 1 1.256-.823c.168-.032.304-.04.393-.048v.519zm-.297 3.078c0-.783-.271-1.176-.695-1.176-.256 0-.52.177-.672.561a.851.851 0 0 0-.048.312c.009 1.063.336 1.551.752 1.551.352-.001.663-.345.663-1.248zm2.698 1.663v-1.432h-1.728v-.415l1.687-3.351h.6v3.263h.568v.503h-.568v1.432h-.559zm0-1.934v-1.472c0-.359.023-.68.047-1.023h-.031a22.99 22.99 0 0 1-.439.983l-.721 1.495v.017h1.144zm2.896-.936c0-.456-.024-.688-.032-1h.536l.031.48h.016c.168-.312.465-.544.872-.544.36 0 .663.176.808.592h.016c.104-.192.24-.344.385-.44a.93.93 0 0 1 .535-.151c.52 0 .928.384.928 1.367v2.566h-.607v-2.423c0-.504-.072-.991-.545-.991-.256 0-.479.216-.566.575a2.243 2.243 0 0 0-.024.353v2.486h-.608v-2.534c0-.433-.08-.88-.535-.88-.248 0-.504.216-.576.624a2.213 2.213 0 0 0-.023.335v2.455h-.607v-2.87zm4.856 2.23c.137.088.376.2.624.2.352 0 .567-.216.567-.56 0-.296-.104-.496-.496-.76-.504-.328-.775-.656-.775-1.104a1.04 1.04 0 0 1 1.063-1.071c.304 0 .536.104.696.199l-.168.464a.913.913 0 0 0-.512-.168.474.474 0 0 0-.504.488c0 .264.096.407.479.672.448.287.8.64.8 1.175 0 .775-.527 1.151-1.16 1.151-.287 0-.6-.088-.768-.224l.154-.462zm-232.28-38.773v-.5l.55-.75c.77-1.068 1.689-2.289 1.689-3.508 0-.719-.32-1.16-.93-1.16-.47 0-.77.25-.939.361l-.19-.58a2.04 2.04 0 0 1 1.27-.439c1.08 0 1.549.799 1.549 1.777 0 1.221-.8 2.4-1.599 3.5l-.44.6v.02h2.169v.68h-3.129zm7.108-3.258c0 2.367-.75 3.338-1.689 3.338-1.01 0-1.619-1.199-1.619-3.318 0-2.189.649-3.338 1.709-3.338 1.05 0 1.599 1.248 1.599 3.318zm-2.538.01c0 1.568.27 2.668.909 2.668.61 0 .86-1.109.86-2.668 0-1.52-.25-2.67-.87-2.67-.619 0-.899 1.109-.899 2.67zm3.78-1.59l.45 1.039c.12.279.209.561.32.85h.02c.11-.309.22-.59.319-.85l.44-1.039h.79l-1.149 2.389 1.14 2.449h-.84l-.459-1.09c-.11-.26-.2-.51-.32-.83h-.02c-.1.291-.21.551-.32.83l-.45 1.09h-.78l1.149-2.43-1.119-2.408h.829zm5.409 2.819l-.45 2.02h-.74l1.54-6.736h.849l1.5 6.736h-.76l-.45-2.02h-1.489zm1.389-.62l-.35-1.709c-.1-.48-.19-1.039-.27-1.539h-.04c-.08.51-.18 1.088-.27 1.539l-.35 1.709h1.28zm4.891 2.518c-.21.111-.54.18-.959.18-1.319 0-2.259-1.059-2.259-3.348 0-2.658 1.319-3.508 2.379-3.508.41 0 .699.08.839.17l-.17.65a1.47 1.47 0 0 0-.68-.141c-.72 0-1.559.699-1.559 2.758 0 2.061.76 2.738 1.579 2.738.29 0 .55-.068.709-.148l.121.649zm.791-6.615h.77v3.197h.02c.15-.279.29-.549.42-.809l1.259-2.389h.85l-1.649 2.879 1.689 3.857h-.83l-1.379-3.248-.38.648v2.6h-.77v-6.735zm32.154 26.247v-.399l.44-.6c.615-.855 1.351-1.831 1.351-2.807 0-.576-.256-.928-.744-.928-.376 0-.616.2-.751.288l-.152-.464a1.624 1.624 0 0 1 1.015-.352c.864 0 1.24.64 1.24 1.423 0 .976-.64 1.919-1.279 2.799l-.352.479v.016h1.735v.544h-2.503zm3.184-.664c.16.097.439.216.751.216.536 0 .896-.392.896-1.039 0-.68-.424-1.071-1.047-1.071h-.144v-.464h.12c.368-.008.936-.288.936-.928 0-.52-.28-.799-.688-.799-.256 0-.479.128-.647.247l-.136-.463c.192-.152.543-.296.936-.296.735 0 1.151.527 1.151 1.199 0 .52-.272.976-.776 1.215v.017c.464.128.912.543.912 1.358 0 .848-.544 1.535-1.487 1.535-.336 0-.704-.096-.911-.239l.134-.488zm5.271-4.077a2.615 2.615 0 0 0-.368.056c-.863.208-1.207 1.071-1.335 1.871h.024c.2-.296.488-.496.879-.496.664 0 1.12.608 1.12 1.6 0 .983-.448 1.774-1.279 1.774-.904 0-1.359-.919-1.359-2.11 0-1.008.264-1.791.671-2.343a2.14 2.14 0 0 1 1.255-.823c.168-.032.304-.04.392-.048v.519zm-.296 3.078c0-.783-.272-1.176-.696-1.176-.256 0-.52.177-.671.561a.83.83 0 0 0-.048.312c.008 1.063.336 1.551.752 1.551.351-.001.663-.345.663-1.248zm2.513-1.207c0-.456-.024-.688-.032-1h.536l.032.48h.016c.168-.312.464-.544.872-.544.36 0 .664.176.808.592h.016c.104-.192.24-.344.384-.44a.932.932 0 0 1 .536-.151c.52 0 .927.384.927 1.367v2.566h-.607v-2.423c0-.504-.072-.991-.544-.991-.256 0-.479.216-.567.575a2.37 2.37 0 0 0-.024.353v2.486h-.608v-2.534c0-.433-.08-.88-.536-.88-.248 0-.504.216-.576.624a2.209 2.209 0 0 0-.024.335v2.455h-.608v-2.87zm4.856 2.23c.136.088.376.2.624.2.352 0 .567-.216.567-.56 0-.296-.104-.496-.496-.76-.504-.328-.775-.656-.775-1.104 0-.624.463-1.071 1.063-1.071.304 0 .536.104.696.199l-.168.464a.91.91 0 0 0-.512-.168.474.474 0 0 0-.503.488c0 .264.096.407.479.672.448.287.8.64.8 1.175 0 .775-.528 1.151-1.16 1.151-.288 0-.6-.088-.768-.224l.153-.462zm181.268-9.588h-.021l-1.079.619-.15-.6 1.369-.799h.641v6.496h-.76v-5.716zm5.299-.099h-1.749l-.271 1.729c.08-.02.15-.02.24-.02.35 0 .89.148 1.24.488.34.34.539.82.539 1.48 0 1.289-.81 2.219-1.969 2.219-.391 0-.84-.111-1.1-.281l.17-.619c.2.121.55.26.91.26.659 0 1.229-.51 1.229-1.498 0-1.029-.629-1.461-1.469-1.461-.24 0-.391.012-.51.031l.41-3.008h2.328v.68zm1.491.978l.45 1.039c.119.279.209.561.32.85h.02c.109-.309.22-.59.32-.85l.439-1.039h.789l-1.149 2.389 1.14 2.449h-.84l-.459-1.09c-.11-.26-.201-.51-.32-.83h-.02c-.101.291-.211.551-.32.83l-.449 1.09h-.78l1.149-2.43-1.119-2.408h.829zm5.04-1.209h-1.23v-.689h3.229v.689h-1.229v6.047h-.77v-6.047zm5.369 5.926c-.211.111-.54.18-.96.18-1.319 0-2.259-1.059-2.259-3.348 0-2.658 1.319-3.508 2.379-3.508.41 0 .699.08.84.17l-.17.65a1.47 1.47 0 0 0-.68-.141c-.721 0-1.56.699-1.56 2.758 0 2.061.76 2.738 1.579 2.738.29 0 .55-.068.709-.148l.122.649zm.791-6.516c.311-.08.68-.131 1.119-.131.62 0 1.14.15 1.489.5.33.32.5.811.5 1.391 0 .619-.149 1.039-.409 1.379-.371.5-.99.75-1.59.75-.13 0-.23 0-.34-.012v2.76h-.77v-6.637zm.769 3.229c.09.02.17.029.3.029.76 0 1.27-.5 1.27-1.449 0-.689-.29-1.309-1.14-1.309-.18 0-.33.02-.43.049v2.68zm4.6 2.607c.17.111.471.25.78.25.439 0 .71-.27.71-.699 0-.369-.131-.619-.62-.949-.63-.41-.97-.82-.97-1.379 0-.779.58-1.34 1.33-1.34.379 0 .669.131.869.25l-.21.58a1.133 1.133 0 0 0-.64-.211c-.42 0-.63.301-.63.611 0 .328.12.508.6.838.56.361.999.801.999 1.471 0 .969-.659 1.438-1.449 1.438-.359 0-.749-.109-.959-.279l.19-.581zm3.561-1.549c.01 1.48.589 1.799 1.148 1.799.33 0 .609-.08.8-.189l.12.57c-.27.15-.68.229-1.06.229-1.159 0-1.759-.949-1.759-2.428 0-1.568.659-2.549 1.629-2.549.989 0 1.379 1.039 1.379 2.139 0 .18 0 .311-.01.43h-2.247zm1.518-.568c.021-.971-.351-1.4-.72-1.4-.5 0-.76.74-.789 1.4h1.509zm4.529-1.92c-.01.34-.04.77-.04 1.51v2.707c0 1.27-.16 1.75-.479 2.1-.29.33-.749.52-1.29.52-.409 0-.809-.1-1.059-.24l.18-.6c.189.102.51.211.899.211.61 0 .989-.381.989-1.48v-.488h-.02a.985.985 0 0 1-.93.59c-.859 0-1.42-.971-1.42-2.389 0-1.779.811-2.52 1.52-2.52.52 0 .76.34.9.629h.02l.04-.549h.69zm-.799 1.67c0-.121-.01-.25-.039-.352-.091-.328-.26-.738-.7-.738-.56 0-.859.75-.859 1.818 0 1.24.39 1.799.859 1.799.229 0 .53-.109.689-.689.04-.15.05-.299.05-.439v-1.399zm1.831-.42c0-.57-.03-.859-.04-1.25h.67l.04.6h.021c.209-.391.579-.68 1.089-.68.45 0 .829.221 1.009.74h.021c.13-.24.3-.43.479-.551.189-.129.42-.189.67-.189.649 0 1.159.48 1.159 1.709v3.209h-.759v-3.029c0-.629-.091-1.238-.68-1.238-.32 0-.6.27-.71.719-.021.131-.03.279-.03.439v3.109h-.76v-3.168c0-.541-.1-1.1-.67-1.1-.309 0-.629.27-.719.779-.021.129-.03.27-.03.42v3.068h-.76v-3.587zm6.74 1.238c.01 1.48.589 1.799 1.149 1.799.33 0 .609-.08.799-.189l.121.57c-.271.15-.68.229-1.061.229-1.158 0-1.759-.949-1.759-2.428 0-1.568.659-2.549 1.63-2.549.988 0 1.379 1.039 1.379 2.139 0 .18 0 .311-.01.43h-2.248zm1.519-.568c.021-.971-.35-1.4-.719-1.4-.5 0-.76.74-.79 1.4h1.509zm1.571-.67c0-.57-.03-.859-.04-1.25h.67l.04.58h.021c.209-.391.6-.66 1.109-.66.669 0 1.169.5 1.169 1.67v3.248h-.771v-3.119c0-.568-.109-1.148-.669-1.148-.319 0-.63.27-.729.789-.02.119-.03.27-.03.43v3.049h-.77v-3.589zm4.929-2.529v1.279h.93v.59h-.93v2.869c0 .629.23.799.51.799.121 0 .221-.01.311-.029l.029.59a1.707 1.707 0 0 1-.568.078c-.301 0-.57-.078-.76-.289-.19-.221-.291-.549-.291-1.219v-2.799h-.589v-.59h.589v-1.059l.769-.22zm1.48 5.316c.17.111.471.25.78.25.439 0 .71-.27.71-.699 0-.369-.131-.619-.62-.949-.63-.41-.97-.82-.97-1.379 0-.779.58-1.34 1.33-1.34.379 0 .669.131.869.25l-.21.58a1.133 1.133 0 0 0-.64-.211c-.42 0-.63.301-.63.611 0 .328.12.508.6.838.56.361.999.801.999 1.471 0 .969-.659 1.438-1.449 1.438-.359 0-.749-.109-.959-.279l.19-.581zm-43.093 10.801l.079-.48.66-.76c.92-1.059 2.279-2.588 2.279-3.758 0-.59-.26-.949-.811-.949-.43 0-.709.221-.859.32l-.14-.551c.261-.17.68-.398 1.2-.398.998 0 1.349.709 1.349 1.439 0 1.527-1.489 3.037-2.448 4.166l-.271.301.011.02h2.059l-.11.65h-2.998zm6.359-5.727h-.02l-1.141.609-.039-.59 1.469-.789h.6l-1.229 6.496h-.71l1.07-5.726zm1.871 5.166c.1-.02.22-.039.379-.08.311-.09.66-.279.93-.52.45-.379.84-.979 1.1-1.77h-.029c-.26.281-.62.48-1.02.48-.79 0-1.15-.68-1.15-1.51 0-1.189.801-2.617 1.959-2.617.971 0 1.26.859 1.26 1.678-.01 1.5-.66 3.09-1.419 3.908-.46.51-1.069.859-1.619 1-.16.039-.271.061-.43.07l.039-.639zm.939-3.478c0 .781.289 1.029.66 1.029.34 0 .689-.26.879-.6.04-.068.08-.158.13-.369.06-.23.101-.549.101-.939 0-.609-.111-1.08-.62-1.08-.771 0-1.15 1.24-1.15 1.959zm6.338-.738c0 1.529-.619 4.857-2.389 4.857-.999 0-1.189-1.07-1.189-1.91 0-1.768.75-4.746 2.389-4.746 1.07 0 1.189 1.099 1.189 1.799zm-2.857 2.957c0 .77.1 1.27.6 1.27 1.059 0 1.539-3.348 1.539-4.338 0-.469-.08-1.059-.53-1.059-1.1 0-1.609 2.978-1.609 4.127zm6.717-2.957c0 1.529-.62 4.857-2.389 4.857-.999 0-1.189-1.07-1.189-1.91 0-1.768.749-4.746 2.389-4.746 1.069 0 1.189 1.099 1.189 1.799zm-2.858 2.957c0 .77.1 1.27.6 1.27 1.06 0 1.539-3.348 1.539-4.338 0-.469-.08-1.059-.529-1.059-1.1 0-1.61 2.978-1.61 4.127zm6.379-5.096l-.52 2.697h.02c.35-.5.689-.699 1.09-.699.75 0 .949.779.949 1.369 0 1.449-.789 3.629-2.438 3.629-.659 0-.96-.381-.96-.881 0-.199.03-.408.061-.539l1.079-5.576h.719zm-1.069 5.457c-.04.148-.05.289-.05.479 0 .281.109.48.42.48.979 0 1.488-1.988 1.488-2.859 0-.559-.129-.918-.52-.918-.42 0-.879.549-1.029 1.338l-.309 1.48zm3.999-3.379l.16 2.709c.021.439.03.719.051 1.199h.02c.13-.42.27-.789.43-1.219l1-2.689h.739l-1.619 3.928c-.44 1.08-.95 1.979-1.589 2.529-.29.24-.57.42-.75.479l-.29-.609c.21-.1.47-.25.72-.459.3-.25.63-.689.779-1.049.041-.102.051-.17.041-.271l-.431-4.547h.739zm4.24-1.269l-.26 1.27H314l-.11.561h-.909l-.52 2.758c-.05.26-.069.48-.069.609 0 .24.09.369.329.369.13 0 .21 0 .3-.02l-.061.561c-.17.049-.359.07-.52.07-.51 0-.809-.301-.809-.781 0-.189.02-.389.1-.779l.529-2.787h-.58l.101-.561h.59l.2-1.049.77-.221zm2.949 5.867c-.35.189-.72.299-1.139.299-1.02 0-1.35-.779-1.35-1.709 0-1.309.729-3.268 2.108-3.268.71 0 .999.539.999 1.1 0 1.17-1.039 1.67-2.358 1.68-.02.139-.05.68.03.969.109.41.359.629.74.629.379 0 .639-.129.859-.26l.111.56zm-.49-4.059c-.43 0-.889.531-1.148 1.58.77-.01 1.578-.27 1.578-1.049 0-.339-.139-.531-.43-.531zm1.231 3.549c.149.1.39.23.749.23.49-.01.78-.361.78-.82 0-.43-.21-.689-.489-.939-.33-.299-.631-.719-.631-1.18 0-.818.601-1.459 1.51-1.459.32 0 .6.08.75.189l-.2.551c-.14-.08-.36-.15-.56-.15-.5 0-.779.33-.779.75 0 .379.22.6.449.809.38.33.68.779.68 1.27 0 1.039-.68 1.559-1.579 1.559-.38 0-.759-.148-.899-.26l.219-.55zM27.917 278.655h-.02l-1.079.619-.15-.6 1.369-.799h.64v6.496h-.76v-5.716zm5.299-.099h-1.749l-.27 1.729c.08-.02.15-.02.24-.02.35 0 .889.149 1.239.489.34.34.54.819.54 1.479 0 1.289-.81 2.219-1.969 2.219-.39 0-.84-.11-1.1-.28l.17-.619c.2.12.55.26.91.26.66 0 1.229-.51 1.229-1.499 0-1.029-.629-1.46-1.469-1.46-.24 0-.39.011-.51.03l.41-3.008h2.329v.68zm1.492.979l.45 1.039c.12.279.209.56.32.85h.02c.11-.31.22-.59.319-.85l.44-1.039h.79l-1.149 2.389 1.14 2.448h-.84l-.459-1.09c-.11-.26-.2-.509-.32-.829h-.02c-.1.29-.21.55-.32.829l-.45 1.09h-.78l1.149-2.429-1.119-2.408h.829zm5.409 2.819l-.45 2.019h-.74l1.54-6.736h.849l1.5 6.736h-.76l-.45-2.019h-1.489zm1.389-.621l-.35-1.709c-.1-.479-.19-1.039-.27-1.539h-.04c-.08.51-.18 1.089-.27 1.539l-.35 1.709h1.28zm4.891 2.519c-.21.11-.54.18-.959.18-1.319 0-2.259-1.059-2.259-3.348 0-2.658 1.319-3.508 2.379-3.508.41 0 .699.08.839.17l-.17.649c-.16-.07-.33-.14-.68-.14-.72 0-1.559.699-1.559 2.758 0 2.06.76 2.738 1.579 2.738.29 0 .55-.069.709-.149l.121.65zm.791-6.616h.77v3.198h.02c.15-.28.29-.55.42-.81l1.259-2.389h.85l-1.649 2.879 1.689 3.857h-.83l-1.379-3.248-.38.649v2.599h-.77v-6.735z"/></svg>