<svg xmlns="http://www.w3.org/2000/svg" viewBox="0 0 203.511 53.658"><path fill="none" stroke="#009245" d="M119.755 16.283h63.75" stroke-linecap="round" stroke-linejoin="round"/><path fill="#009245" d="M182.63 19.284l5.181-2.992-5.181-2.991z"/><path fill="none" stroke="#0071bc" d="M87.505 36.283H17.663" stroke-linecap="round" stroke-linejoin="round"/><path fill="#0071bc" d="M18.539 33.282l-5.182 2.991 5.182 2.992z"/><path fill="#b2d4eb" fill-rule="evenodd" d="M115.575 48.556c-3.18.91-6.337.24-8.689-1.541-1.387 1.622-3.03 2.739-5.185 3.353-5.568 1.589-10.685-.249-11.907-5.832a10.858 10.858 0 0 1-3.299 1.577c-5.562 1.589-11.345-1.764-12.569-7.35-4.843.428-9.252-2.674-10.33-7.599-1.222-5.584 2.299-11.398 7.86-12.985a10.259 10.259 0 0 1 3.731-.365c-1.222-5.581 2.367-9.968 7.932-11.558 2.232-.635 4.155-.862 6.096-.105 1.37-2.705 3.822-4.872 6.897-5.749 5.562-1.586 11.062 1.652 12.288 7.236.571-.281 1.052-.298 1.679-.479 5.564-1.587 11.067 1.65 12.289 7.236 4.823-.398 9.536 2.807 10.609 7.713 1.226 5.583-3.974 11.875-9.537 13.465 1.221 5.582-2.298 11.397-7.865 12.983z" clip-rule="evenodd" mask="url(#b)"/><path fill="none" stroke="#009245" d="M14.663 16.283h52.843" stroke-linecap="round" stroke-linejoin="round"/><path fill="#009245" d="M66.63 19.284l5.182-2.992-5.182-2.991z"/><path fill="none" stroke="#0071bc" d="M197.505 36.283h-69.841" stroke-linecap="round" stroke-linejoin="round"/><path fill="#0071bc" d="M128.539 33.282l-5.182 2.991 5.182 2.992z"/><path fill="#c7b299" d="M11.285 26.553h3.378l-.002.482s.083 2.393-1.686 2.393c-1.731 0-1.69-2.393-1.69-2.393v-.482z"/><ellipse cx="12.975" cy="26.553" fill="#998675" fill-rule="evenodd" rx="1.689" ry=".423" clip-rule="evenodd"/><path fill="#c7b299" d="M8.511 34.409h3.033V49.98c0 .451-.68.815-1.518.815-.837 0-1.516-.365-1.516-.815V34.409zm-3.809 2.363h3.033v15.572c0 .449-.68.814-1.518.814s-1.516-.365-1.516-.814V36.772z"/><path fill="#199d58" d="M14.702 12.192l-.039 13.812c0 .234-.756.425-1.688.425-.937 0-1.69-.191-1.69-.425l.038-13.812s-.082-3.235 1.689-3.235c1.731 0 1.69 3.235 1.69 3.235z"/><path fill="#009245" d="M1.855 13.413c-.008-1.158 1.117-4.539 6.16-5.5 5.565-1.06 5.652 2.84 5.652 2.84a.703.703 0 0 1-.004.258l.018 2.806s-.306 2.159-1.093 3.237c-.673.924-.716 2.63-.416 3.719.303 1.083 1.388 6.236.515 13.727 0 0-.584 1.74-4.92 2.555-4.334.919-4.916-.589-4.916-.589-.875-7.142.211-12.724.51-13.93.304-1.208.26-2.9-.413-3.554-.788-.763-1.093-2.797-1.093-2.797s-.053-2.478.003-2.9a.47.47 0 0 0-.003.128z"/><path fill="#c7b299" d="M.5 30.853h3.378v.482s.083 2.392-1.691 2.392c-1.727 0-1.688-2.392-1.688-2.392v-.482z"/><ellipse cx="2.19" cy="30.853" fill="#998675" fill-rule="evenodd" rx="1.689" ry=".421" clip-rule="evenodd"/><path fill="#998675" d="M9.659 8.894c1.265.298 1.439 1.163.387 1.934-1.052.77-2.928 1.156-4.193.859-1.266-.299-1.44-1.164-.387-1.937 1.051-.77 2.928-1.153 4.193-.856z"/><path fill="#33a86a" d="M3.919 16.492l-.041 13.81c0 .234-.757.426-1.688.426-.934 0-1.691-.192-1.691-.426l.04-13.81s-.084-3.236 1.689-3.236c1.732 0 1.691 3.236 1.691 3.236z"/><path fill="#c7b299" d="M6.651 10.338c-3.838-.867-4.574-6.849-1.094-8.892C6.62.825 7.641.929 8.157 1.02c2.28.539 3.136 2.676 3.281 3.851.318 2.588-.92 4.3-2.186 5.039a3.618 3.618 0 0 1-2.601.428z"/><path fill="none" stroke="#000" d="M13.013 8.957c-.021 0-.041.006-.062.007-.389-.468-.997-.892-1.922-1.096.365-.811.556-1.804.41-2.997-.146-1.175-1.001-3.312-3.281-3.851-.517-.091-1.538-.195-2.601.426-2.749 1.612-2.858 5.669-.898 7.739-2.14 1.355-2.764 3.247-2.8 4.129l-.005.004c0-.022.003-.035.003-.035l-.003.035C.473 13.744.54 16.492.54 16.492L.5 30.302c0 .106.159.204.415.275-.256.075-.415.17-.415.276v.482s-.04 2.392 1.688 2.392c.153 0 .286-.021.411-.052.053.897.133 1.829.252 2.789 0 0 .273.712 1.852.861v15.019c0 .449.678.814 1.516.814s1.518-.365 1.518-.814V37.057c.012 0 .021-.003.031-.003.262-.051.509-.103.744-.158V49.98c0 .451.679.815 1.516.815.838 0 1.518-.365 1.518-.815V35.69c.951-.632 1.143-1.192 1.143-1.192.213-1.843.31-3.538.326-5.074 1.729-.035 1.648-2.389 1.648-2.389l.002-.482c0-.105-.158-.201-.414-.275.256-.072.414-.168.414-.275l.039-13.812c-.002.001.039-3.234-1.691-3.234z" stroke-linecap="round" stroke-linejoin="round"/><path fill="#c7b299" d="M199.593 26.555h3.379l-.002.482s.082 2.394-1.688 2.394c-1.73 0-1.689-2.394-1.689-2.394v-.482z"/><ellipse cx="201.283" cy="26.555" fill="#998675" fill-rule="evenodd" rx="1.689" ry=".424" clip-rule="evenodd"/><path fill="#c7b299" d="M196.818 34.41h3.035v15.572c0 .451-.68.815-1.518.815s-1.518-.365-1.518-.815V34.41zm-3.809 2.364h3.035v15.571c0 .45-.68.813-1.518.813s-1.518-.363-1.518-.813V36.774z"/><path fill="#c73d42" d="M203.011 12.193l-.039 13.812c0 .234-.758.425-1.689.425-.936 0-1.689-.191-1.689-.425l.039-13.812s-.082-3.236 1.689-3.236c1.728.001 1.689 3.236 1.689 3.236z"/><path fill="#c1272d" d="M190.164 13.413c-.008-1.157 1.117-4.538 6.16-5.5 5.564-1.06 5.652 2.84 5.652 2.84a.698.698 0 0 1-.004.257l.018 2.807s-.307 2.159-1.094 3.236c-.672.925-.717 2.631-.416 3.72.303 1.083 1.387 6.236.516 13.726 0 0-.584 1.74-4.92 2.556-4.334.919-4.916-.589-4.916-.589-.875-7.142.209-12.724.51-13.93.303-1.208.26-2.9-.414-3.554-.787-.763-1.092-2.797-1.092-2.797s-.053-2.478.002-2.9c0 0-.008.048-.002.128z"/><path fill="#c7b299" d="M188.808 30.854h3.377v.483s.084 2.392-1.689 2.392c-1.727 0-1.688-2.392-1.688-2.392v-.483z"/><ellipse cx="190.498" cy="30.854" fill="#998675" fill-rule="evenodd" rx="1.688" ry=".421" clip-rule="evenodd"/><path fill="#998675" d="M197.966 8.895c1.266.298 1.439 1.163.389 1.934-1.053.77-2.93 1.156-4.193.859-1.268-.298-1.441-1.164-.387-1.936 1.049-.771 2.928-1.154 4.191-.857z"/><path fill="#cd5257" d="M192.228 16.493l-.043 13.811c0 .234-.756.427-1.686.427-.936 0-1.691-.192-1.691-.427l.041-13.811s-.084-3.235 1.688-3.235c1.73 0 1.691 3.235 1.691 3.235z"/><path fill="#c7b299" d="M194.958 10.34c-3.836-.867-4.574-6.849-1.094-8.892 1.064-.621 2.084-.518 2.6-.425 2.281.539 3.137 2.675 3.283 3.851.316 2.588-.92 4.3-2.186 5.039a3.636 3.636 0 0 1-2.603.427z"/><path fill="none" stroke="#000" d="M201.322 8.958c-.021 0-.041.005-.062.008-.391-.468-.998-.892-1.922-1.097.363-.809.555-1.804.41-2.996-.146-1.175-1.002-3.312-3.283-3.851-.516-.092-1.535-.195-2.6.425-2.748 1.612-2.857 5.669-.896 7.738-2.141 1.356-2.764 3.248-2.801 4.13l-.004.003c0-.021.002-.035.002-.035-.002.01-.002.025-.002.035-1.381.426-1.314 3.173-1.314 3.173l-.041 13.811c0 .104.16.204.416.275-.256.074-.416.17-.416.274v.483s-.039 2.392 1.688 2.392c.154 0 .285-.021.41-.052.055.897.135 1.828.254 2.789 0 0 .273.712 1.85.861v15.019c0 .45.68.813 1.518.813s1.518-.363 1.518-.813V37.06c.01 0 .021-.004.031-.004.26-.051.508-.103.742-.158v13.085c0 .451.68.815 1.518.815s1.518-.365 1.518-.815V35.692c.951-.633 1.143-1.193 1.143-1.193.213-1.842.309-3.537.326-5.074 1.729-.036 1.648-2.389 1.648-2.389l.002-.482c0-.105-.158-.201-.414-.274.256-.072.414-.168.414-.275l.039-13.812c-.003 0 .036-3.235-1.692-3.235z" stroke-linecap="round" stroke-linejoin="round"/><path d="M84.246 22.5c.23.14.63.27.97.27.699 0 1.119-.459 1.119-1.139 0-.62-.36-1-.89-1.399-.53-.37-1.269-.999-1.269-1.869 0-1.02.72-1.769 1.779-1.769.42 0 .79.14.95.249l-.19.66a1.41 1.41 0 0 0-.8-.229c-.66 0-.969.499-.969.959 0 .67.35.939.989 1.39.81.569 1.169 1.189 1.169 1.938 0 1.159-.819 1.889-1.889 1.889-.46 0-.95-.149-1.14-.3l.171-.65zm4.059-4.697c-.25 0-.439-.2-.439-.5s.2-.499.45-.499c.28 0 .459.199.459.499s-.18.5-.459.5h-.011zm-.36 5.587v-4.837h.77v4.837h-.77zm4.759-.62c0 1.27-.16 1.749-.479 2.109-.3.319-.75.51-1.29.51-.41 0-.81-.1-1.059-.24l.18-.6c.19.101.51.21.89.21.609 0 .989-.38.989-1.479v-.489h-.02c-.16.38-.52.59-.919.59-.859 0-1.419-.97-1.419-2.389 0-1.789.8-2.519 1.52-2.519.51 0 .75.34.899.619h.02l.04-.539h.689c-.01.329-.04.759-.04 1.509v2.708zm-.77-2.548c0-.13-.01-.25-.04-.36-.08-.319-.26-.729-.7-.729-.549 0-.849.75-.849 1.819 0 1.239.39 1.799.849 1.799.24 0 .54-.11.69-.689.05-.15.05-.3.05-.439v-1.401zm1.841-.42c0-.569-.03-.859-.04-1.249h.67l.04.579h.02c.21-.39.6-.659 1.109-.659.669 0 1.169.489 1.169 1.669v3.248h-.77v-3.118c0-.58-.11-1.149-.669-1.149-.32 0-.629.27-.72.789-.03.11-.04.261-.04.431v3.048h-.77v-3.589zm6.6 2.489c0 .37 0 .79.05 1.1h-.689l-.05-.51h-.03c-.21.37-.55.59-.96.59-.649 0-1.149-.54-1.149-1.379 0-1.22.97-1.749 2.06-1.76v-.149c0-.649-.16-1.1-.77-1.1-.3 0-.57.09-.8.25l-.17-.54c.21-.149.65-.319 1.129-.319.97 0 1.38.64 1.38 1.719v2.098zm-.75-1.41c-.4 0-1.33.08-1.33 1.13 0 .64.32.859.59.859.34 0 .62-.25.709-.729.021-.09.03-.19.03-.28v-.98zm1.84-4.407h.77v6.916h-.77v-6.916zm2.27 1.329c-.25 0-.439-.2-.439-.5s.2-.499.45-.499c.279 0 .459.199.459.499s-.18.5-.459.5h-.011zm-.359 5.587v-4.837h.77v4.837h-.77zm1.839-3.588c0-.569-.03-.859-.04-1.249h.67l.04.579h.02c.21-.39.6-.659 1.109-.659.67 0 1.17.489 1.17 1.669v3.248h-.771v-3.118c0-.58-.109-1.149-.669-1.149-.32 0-.63.27-.72.789-.03.11-.04.261-.04.431v3.048h-.77v-3.589zm6.969 2.968c0 1.27-.16 1.749-.479 2.109-.3.319-.75.51-1.29.51-.409 0-.81-.1-1.059-.24l.18-.6c.189.101.51.21.89.21.609 0 .989-.38.989-1.479v-.489h-.021c-.159.38-.52.59-.919.59-.859 0-1.42-.97-1.42-2.389 0-1.789.8-2.519 1.52-2.519.51 0 .75.34.899.619h.021l.04-.539h.689c-.01.329-.04.759-.04 1.509v2.708zm-.769-2.548c0-.13-.01-.25-.04-.36-.08-.319-.26-.729-.7-.729-.549 0-.849.75-.849 1.819 0 1.239.39 1.799.849 1.799.24 0 .54-.11.69-.689.05-.15.05-.3.05-.439v-1.401zM89.273 33.27c-.209.11-.549.18-.969.18-1.309 0-2.259-1.049-2.259-3.338 0-2.668 1.319-3.518 2.389-3.518.4 0 .7.08.83.17l-.17.649c-.16-.07-.32-.14-.669-.14-.72 0-1.569.699-1.569 2.758 0 2.069.76 2.738 1.589 2.738.29 0 .54-.069.699-.14l.129.641zm.722-6.796h.77v2.599h.02c.1-.17.25-.32.41-.43.17-.11.37-.17.64-.17.609 0 1.129.479 1.129 1.709v3.208h-.77v-3.118c0-.6-.13-1.149-.649-1.149-.36 0-.63.26-.75.77-.02.11-.03.25-.03.359v3.139h-.77v-6.917zm6.599 5.817c0 .37 0 .79.05 1.1h-.689l-.05-.51h-.03c-.21.37-.55.59-.959.59-.649 0-1.149-.54-1.149-1.379 0-1.22.97-1.749 2.059-1.76v-.149c0-.649-.16-1.1-.77-1.1-.3 0-.57.09-.8.25l-.17-.54c.21-.149.65-.319 1.129-.319.97 0 1.379.64 1.379 1.719v2.098zm-.75-1.41c-.4 0-1.33.08-1.33 1.13 0 .64.32.859.59.859.34 0 .62-.25.709-.729.02-.09.03-.19.03-.28v-.98zm1.841-1.079c0-.569-.03-.859-.04-1.249h.67l.04.579h.02c.21-.39.6-.659 1.11-.659.669 0 1.169.489 1.169 1.669v3.248h-.77v-3.118c0-.58-.11-1.149-.67-1.149-.32 0-.629.27-.72.789-.03.11-.04.261-.04.431v3.048h-.77v-3.589zm4.05 0c0-.569-.029-.859-.04-1.249h.67l.04.579h.021c.21-.39.6-.659 1.109-.659.669 0 1.169.489 1.169 1.669v3.248h-.77v-3.118c0-.58-.11-1.149-.67-1.149-.319 0-.629.27-.72.789-.029.11-.04.261-.04.431v3.048h-.77v-3.589zm4.591 1.239c.01 1.489.589 1.799 1.139 1.799.34 0 .61-.08.8-.18l.13.56c-.27.15-.68.229-1.069.229-1.149 0-1.749-.939-1.749-2.429 0-1.568.659-2.548 1.629-2.548.979 0 1.38 1.039 1.38 2.129 0 .189-.011.319-.021.439h-2.239zm1.518-.569c.01-.97-.35-1.399-.72-1.399-.499 0-.759.739-.789 1.399h1.509zm1.572-3.998h.77v6.916h-.77v-6.916z"/><path fill="#009245" d="M36.23 12.997c-1.008 0-1.684-1.071-1.684-3.115 0-2.008.729-3.097 1.783-3.097 1.035 0 1.656 1.125 1.656 3.061 0 2.269-.774 3.151-1.747 3.151h-.008zm.054-.613c.774 0 .981-1.323.981-2.512 0-1.135-.207-2.476-.99-2.476s-1.008 1.332-1.008 2.484c-.009 1.18.225 2.503 1.008 2.503h.009zm4.707.54V9.089h-1.314v3.835h-.693V9.089h-.549v-.522h.549v-.216c0-.54.126-.99.396-1.278.207-.216.504-.343.9-.343.18 0 .36.046.45.081l-.126.55a.878.878 0 0 0-.333-.063c-.441 0-.594.369-.594 1.045v.225h1.314v-.27c0-.469.072-.955.387-1.306.252-.279.603-.369.873-.369.234 0 .415.045.541.107l-.108.541a.982.982 0 0 0-.387-.072c-.495 0-.612.531-.612 1.089v.279h.792v.522h-.792v3.835h-.694zm2.393-2.115c.009 1.341.531 1.62 1.026 1.62.306 0 .549-.072.72-.162l.117.504c-.243.136-.612.207-.963.207-1.035 0-1.576-.846-1.576-2.188 0-1.413.594-2.296 1.468-2.296.882 0 1.242.937 1.242 1.918 0 .171-.009.288-.018.396h-2.016zm1.369-.514c.009-.873-.315-1.261-.648-1.261-.45 0-.684.667-.711 1.261h1.359zm1.403-.603c0-.368-.027-.801-.036-1.125h.622l.036.685h.018c.144-.414.513-.757.918-.757.054 0 .099 0 .144.01v.711c-.045-.009-.09-.009-.144-.009-.441 0-.765.404-.837.909a2.566 2.566 0 0 0-.027.396v2.413h-.693V9.692z"/><path fill="#0071bc" d="M32.036 31.106l-.396 1.818h-.675l1.386-6.067h.765l1.351 6.067h-.684l-.396-1.818h-1.351zm1.251-.559l-.315-1.539c-.09-.433-.171-.937-.243-1.387h-.027c-.072.459-.162.981-.252 1.396l-.315 1.53h1.152zm1.881-.855c0-.513-.027-.773-.036-1.125h.603l.036.522h.018c.189-.352.54-.595.999-.595.604 0 1.054.441 1.054 1.504v2.926h-.693v-2.809c0-.522-.099-1.035-.603-1.035-.288 0-.567.243-.648.711a1.57 1.57 0 0 0-.036.387v2.746h-.693v-3.232zm3.527 2.513c.153.099.423.225.702.225.387 0 .639-.243.639-.63 0-.333-.117-.567-.558-.855-.567-.369-.873-.747-.873-1.242 0-.712.522-1.207 1.197-1.207.342 0 .594.108.774.226l-.18.522a.994.994 0 0 0-.585-.198c-.369 0-.558.27-.558.558s.108.459.54.747c.504.324.9.729.9 1.333 0 .873-.594 1.296-1.314 1.296-.315 0-.666-.099-.855-.252l.171-.523zm3.069-3.638l.423 2.134c.09.468.18.937.234 1.387h.036c.063-.45.171-.955.271-1.369l.504-2.151h.531l.477 2.089c.108.486.207.945.279 1.432h.036c.054-.459.135-.909.234-1.404l.414-2.116h.693l-1.099 4.357h-.567l-.504-2.115a12.152 12.152 0 0 1-.243-1.306h-.018c-.072.513-.153.918-.252 1.332l-.522 2.089h-.585l-1.062-4.357h.72zm5.112 2.242c.009 1.341.531 1.62 1.026 1.62.306 0 .549-.072.72-.162l.117.504c-.243.136-.612.207-.963.207-1.035 0-1.576-.846-1.576-2.188 0-1.413.594-2.296 1.468-2.296.882 0 1.242.937 1.242 1.918 0 .171-.009.288-.018.396h-2.016zm1.369-.514c.009-.873-.315-1.261-.648-1.261-.45 0-.684.667-.711 1.261h1.359zm1.403-.603c0-.368-.027-.801-.036-1.125h.622l.036.685h.018c.144-.414.513-.757.918-.757.054 0 .099 0 .144.01v.711c-.045-.009-.09-.009-.144-.009-.441 0-.765.404-.837.909a2.566 2.566 0 0 0-.027.396v2.413h-.693v-3.233z"/><path fill="#009245" d="M152.23 12.997c-1.008 0-1.684-1.071-1.684-3.115 0-2.008.729-3.097 1.783-3.097 1.035 0 1.656 1.125 1.656 3.061 0 2.269-.775 3.151-1.747 3.151h-.008zm.054-.613c.774 0 .981-1.323.981-2.512 0-1.135-.207-2.476-.99-2.476s-1.008 1.332-1.008 2.484c-.01 1.18.225 2.503 1.008 2.503h.009zm4.707.54V9.089h-1.314v3.835h-.692V9.089h-.55v-.522h.55v-.216c0-.54.125-.99.396-1.278.207-.216.504-.343.9-.343.18 0 .36.046.45.081l-.127.55a.872.872 0 0 0-.332-.063c-.441 0-.595.369-.595 1.045v.225h1.314v-.27c0-.469.072-.955.388-1.306.252-.279.603-.369.873-.369.234 0 .414.045.54.107l-.108.541a.982.982 0 0 0-.387-.072c-.495 0-.612.531-.612 1.089v.279h.792v.522h-.792v3.835h-.694zm2.393-2.115c.01 1.341.531 1.62 1.026 1.62.306 0 .55-.072.72-.162l.117.504c-.242.136-.611.207-.963.207-1.035 0-1.576-.846-1.576-2.188 0-1.413.595-2.296 1.469-2.296.882 0 1.242.937 1.242 1.918 0 .171-.01.288-.019.396h-2.016zm1.369-.514c.008-.873-.316-1.261-.648-1.261-.451 0-.685.667-.711 1.261h1.359zm1.403-.603c0-.368-.026-.801-.035-1.125h.621l.035.685h.019c.144-.414.513-.757.919-.757a.66.66 0 0 1 .144.01v.711c-.045-.009-.091-.009-.144-.009-.441 0-.766.404-.838.909a2.566 2.566 0 0 0-.027.396v2.413h-.693V9.692z"/><path fill="#0071bc" d="M148.036 31.106l-.396 1.818h-.675l1.387-6.067h.765l1.351 6.067h-.684l-.396-1.818h-1.352zm1.251-.559l-.314-1.539a31.98 31.98 0 0 1-.244-1.387h-.026c-.071.459-.162.981-.252 1.396l-.315 1.53h1.151zm1.881-.855c0-.513-.027-.773-.036-1.125h.603l.037.522h.018c.189-.352.54-.595.999-.595.604 0 1.054.441 1.054 1.504v2.926h-.693v-2.809c0-.522-.1-1.035-.604-1.035-.287 0-.566.243-.648.711a1.626 1.626 0 0 0-.035.387v2.746h-.693v-3.232zm3.527 2.513c.153.099.424.225.703.225.387 0 .639-.243.639-.63 0-.333-.117-.567-.559-.855-.566-.369-.873-.747-.873-1.242 0-.712.522-1.207 1.197-1.207.342 0 .595.108.774.226l-.18.522a.994.994 0 0 0-.585-.198c-.369 0-.559.27-.559.558s.107.459.54.747c.505.324.9.729.9 1.333 0 .873-.595 1.296-1.314 1.296-.315 0-.666-.099-.854-.252l.171-.523zm3.069-3.638l.423 2.134c.09.468.18.937.234 1.387h.035c.063-.45.172-.955.271-1.369l.504-2.151h.531l.477 2.089c.107.486.207.945.279 1.432h.035c.055-.459.136-.909.234-1.404l.414-2.116h.693l-1.098 4.357h-.567l-.505-2.115c-.107-.424-.17-.811-.242-1.306h-.019c-.071.513-.153.918-.252 1.332l-.522 2.089h-.585l-1.062-4.357h.722zm5.112 2.242c.009 1.341.531 1.62 1.025 1.62.307 0 .55-.072.721-.162l.117.504c-.243.136-.612.207-.963.207-1.035 0-1.576-.846-1.576-2.188 0-1.413.594-2.296 1.468-2.296.882 0 1.242.937 1.242 1.918 0 .171-.009.288-.019.396h-2.015zm1.369-.514c.009-.873-.315-1.261-.648-1.261-.45 0-.685.667-.711 1.261h1.359zm1.403-.603c0-.368-.027-.801-.036-1.125h.622l.035.685h.018c.145-.414.514-.757.919-.757.054 0 .099 0 .144.01v.711c-.045-.009-.09-.009-.144-.009-.441 0-.765.404-.837.909a2.447 2.447 0 0 0-.027.396v2.413h-.693v-3.233z"/></svg>