<svg xmlns="http://www.w3.org/2000/svg" viewBox="0 0 342.36 105.763"><path fill="none" stroke="#c1272d" d="M256.892 51.325h25.704" stroke-linecap="round" stroke-linejoin="round"/><path fill="#c1272d" d="M281.72 54.326l5.181-2.993-5.181-2.99z"/><path fill="#e6e6e6" fill-rule="evenodd" d="M288.38 38.378h47.666v25.887H288.38z" clip-rule="evenodd"/><path fill="none" stroke="#000" d="M288.38 38.378h47.666v25.887H288.38z" stroke-linecap="round" stroke-linejoin="round"/><path fill="none" stroke="#c1272d" d="M45.892 16.326h25.704" stroke-linecap="round" stroke-linejoin="round"/><path fill="#c1272d" d="M70.72 19.327l5.182-2.992-5.182-2.991z"/><path fill="#e6e6e6" fill-rule="evenodd" d="M3.38 3.383h47.667v25.886H3.38z" clip-rule="evenodd"/><path fill="none" stroke="#000" d="M3.38 3.383h47.667v25.886H3.38z" stroke-linecap="round" stroke-linejoin="round"/><path fill="none" stroke="#c1272d" d="M186.892 51.325h25.704" stroke-linecap="round" stroke-linejoin="round"/><path fill="#c1272d" d="M211.72 54.326l5.181-2.993-5.181-2.99z"/><path fill="#b2d4eb" fill-rule="evenodd" d="M148.38 38.382h47.666v25.885H148.38z" clip-rule="evenodd"/><path fill="none" stroke="#000" d="M148.38 38.382h47.666v25.885H148.38z" stroke-linecap="round" stroke-linejoin="round"/><path fill="#e6e6e6" fill-rule="evenodd" d="M218.38 38.378h47.666v25.887H218.38z" clip-rule="evenodd"/><path fill="none" stroke="#000" d="M218.38 38.378h47.666v25.887H218.38z" stroke-linecap="round" stroke-linejoin="round"/><path fill="none" stroke="#c1272d" d="M45.892 86.326h25.704" stroke-linecap="round" stroke-linejoin="round"/><path fill="#c1272d" d="M70.72 89.327l5.182-2.992-5.182-2.992z"/><path fill="#e6e6e6" fill-rule="evenodd" d="M3.38 73.383h47.667v25.886H3.38z" clip-rule="evenodd"/><path fill="none" stroke="#000" d="M3.38 73.383h47.667v25.886H3.38z" stroke-linecap="round" stroke-linejoin="round"/><path fill="none" stroke="#c1272d" d="M101.213 34.323v34"/><path fill="#c1272d" d="M98.212 67.448l2.992 5.18 2.991-5.18zm6.002-32.25l-2.992-5.181-2.991 5.181z"/><path fill="none" stroke="#c1272d" d="M85.63 51.323h15.583"/><path fill="#ecbec0" fill-rule="evenodd" d="M40.379 43.384h47.667v15.877H40.379z" clip-rule="evenodd"/><path fill="none" stroke="#000" d="M40.379 43.384h47.667v15.877H40.379z" stroke-linecap="round" stroke-linejoin="round"/><path fill="none" stroke="#c1272d" d="M125.046 29.266l18.486 7.241" stroke-linecap="round" stroke-linejoin="round"/><path fill="#c1272d" d="M141.622 38.982l5.916-.896-3.734-4.674z"/><path fill="none" stroke="#c1272d" d="M125.046 73.506l18.486-7.241" stroke-linecap="round" stroke-linejoin="round"/><path fill="#c1272d" d="M143.811 69.378l3.733-4.675-5.915-.895z"/><path fill="#b2dec7" fill-rule="evenodd" d="M77.38 3.38h47.666v25.886H77.38z" clip-rule="evenodd"/><path fill="none" stroke="#000" d="M77.38 3.38h47.666v25.886H77.38z" stroke-linecap="round" stroke-linejoin="round"/><path fill="#b2dec7" fill-rule="evenodd" d="M77.38 73.38h47.666v25.886H77.38z" clip-rule="evenodd"/><path fill="none" stroke="#000" d="M77.38 73.38h47.666v25.886H77.38z" stroke-linecap="round" stroke-linejoin="round"/><path d="M304.933 47.623c.311-.079.67-.13 1.119-.13.62 0 1.15.15 1.5.49.319.319.489.81.489 1.399 0 .619-.149 1.039-.409 1.379-.36.5-.99.75-1.59.75-.13 0-.23 0-.34-.011v2.759h-.77v-6.636zm.769 3.238c.09.011.18.021.311.021.749 0 1.259-.5 1.259-1.449 0-.689-.28-1.31-1.14-1.31-.18 0-.33.021-.43.05v2.688zm5.459 2.299c0 .37 0 .79.05 1.1h-.689l-.05-.51h-.03c-.21.37-.55.59-.96.59-.648 0-1.148-.54-1.148-1.379 0-1.22.969-1.749 2.059-1.76v-.149c0-.649-.16-1.1-.77-1.1-.3 0-.57.09-.8.25l-.17-.54c.21-.149.649-.319 1.13-.319.969 0 1.379.64 1.379 1.719v2.098zm-.75-1.41c-.399 0-1.329.08-1.329 1.13 0 .64.319.859.59.859.34 0 .62-.25.71-.729.02-.09.029-.19.029-.28v-.98zm2.201-3.078c-.25 0-.439-.2-.439-.5s.199-.499.449-.499c.28 0 .46.199.46.499s-.18.5-.46.5h-.01zm-.359 5.587v-4.837h.77v4.837h-.77zm1.84-3.588c0-.569-.03-.859-.041-1.249h.67l.041.579h.02c.209-.39.6-.659 1.109-.659.67 0 1.17.489 1.17 1.669v3.248h-.771v-3.118c0-.58-.11-1.149-.669-1.149-.32 0-.631.27-.721.789a1.81 1.81 0 0 0-.039.431v3.048h-.77v-3.589zm4.929-2.379v1.13h.93v.579h-.93v2.879c0 .64.22.799.5.799.129 0 .229-.01.309-.029l.041.59c-.141.05-.32.079-.57.079-.31 0-.58-.079-.76-.289-.199-.221-.289-.55-.289-1.22v-2.809h-.59v-.579h.59v-.82l.769-.31zM19.802 12.525v2.889h1.889v-2.889h.77v6.736h-.77v-3.148h-1.889v3.148h-.77v-6.736h.77zm4.65.689h-1.229v-.689h3.228v.689h-1.229v6.047h-.77v-6.047zm6.788 3.149c-.05-.89-.1-1.879-.07-2.639h-.04c-.15.75-.33 1.56-.54 2.339l-.82 3.158h-.5l-.78-3.028a31.248 31.248 0 0 1-.56-2.469h-.03c.01.79-.04 1.729-.08 2.688l-.13 2.849h-.689l.399-6.736h.84l.779 3.078c.23.89.4 1.55.54 2.319h.03c.13-.77.28-1.409.5-2.319l.76-3.078h.859l.39 6.736h-.72l-.138-2.898zm1.913-3.838h.77v6.087h1.889v.649h-2.659v-6.736zm17.014 34.996h.77v4.838c0 1.51-.61 1.979-1.579 1.979-.19 0-.37-.02-.5-.07l.07-.648c.1.029.229.039.37.039.54 0 .87-.219.87-1.289v-4.849zm4.399 5.637c0 .371 0 .791.05 1.1h-.689l-.05-.51h-.03c-.21.371-.55.59-.959.59-.649 0-1.149-.539-1.149-1.379 0-1.219.97-1.748 2.059-1.76v-.149c0-.65-.16-1.1-.77-1.1-.3 0-.57.09-.8.25l-.17-.541c.21-.148.65-.318 1.129-.318.97 0 1.379.639 1.379 1.719v2.098zm-.75-1.409c-.4 0-1.33.08-1.33 1.129 0 .641.32.859.59.859.34 0 .62-.25.709-.729.02-.09.03-.191.03-.281v-.978zm2.131-2.328l.609 2.717c.07.33.15.76.21 1.18h.03c.05-.398.13-.809.2-1.18l.6-2.717h.76l-1.27 4.836h-.68l-1.259-4.836h.8zm5.539 3.737c0 .371 0 .791.05 1.1h-.689l-.05-.51h-.03c-.21.371-.55.59-.959.59-.649 0-1.149-.539-1.149-1.379 0-1.219.97-1.748 2.059-1.76v-.149c0-.65-.16-1.1-.77-1.1-.3 0-.57.09-.8.25l-.17-.541c.21-.148.65-.318 1.129-.318.97 0 1.379.639 1.379 1.719v2.098zm-.75-1.409c-.4 0-1.33.08-1.33 1.129 0 .641.32.859.59.859.34 0 .62-.25.709-.729.02-.09.03-.191.03-.281v-.978zm1.751 1.62c.23.139.63.27.97.27.699 0 1.119-.459 1.119-1.139 0-.621-.36-1-.89-1.4-.529-.369-1.269-.998-1.269-1.869 0-1.02.72-1.768 1.779-1.768.42 0 .79.139.95.248l-.19.66a1.417 1.417 0 0 0-.8-.229c-.66 0-.969.498-.969.959 0 .67.35.939.989 1.389.81.57 1.169 1.189 1.169 1.939 0 1.158-.819 1.889-1.889 1.889-.46 0-.95-.15-1.14-.301l.171-.648zm6.129.769c-.17.1-.46.18-.8.18-1.059 0-1.769-.85-1.769-2.449 0-1.389.7-2.518 1.909-2.518.26 0 .54.07.68.16l-.15.619a1.24 1.24 0 0 0-.55-.131c-.78 0-1.119.92-1.119 1.869 0 1.129.43 1.809 1.139 1.809.2 0 .38-.039.55-.129l.11.59zm.651-3.469c0-.41-.03-.889-.04-1.248h.689l.04.758h.02c.16-.459.57-.838 1.02-.838.06 0 .11 0 .16.01v.789c-.05-.01-.1-.01-.16-.01-.49 0-.85.449-.93 1.01-.02.129-.03.27-.03.439v2.678h-.77v-3.588zm2.85-1.998c-.25 0-.439-.201-.439-.5 0-.301.2-.5.45-.5.28 0 .459.199.459.5 0 .299-.18.5-.459.5h-.011zm-.36 5.586v-4.836h.77v4.836h-.77zm1.83-3.328c0-.738-.03-1.168-.04-1.508h.689l.04.609h.02c.26-.51.65-.689 1.02-.689.85 0 1.399.889 1.399 2.488 0 1.799-.74 2.508-1.489 2.508-.46 0-.72-.279-.85-.549h-.02v2.389h-.77v-5.248zm.769 1.561c0 .139.01.279.04.398.15.689.49.811.7.811.64 0 .849-.881.849-1.85 0-1.01-.24-1.85-.849-1.85-.35 0-.67.439-.71.881-.03.119-.03.238-.03.369v1.241zm4.17-4.199v1.131h.93V50h-.93v2.879c0 .641.22.799.5.799.13 0 .23-.01.31-.029l.04.59c-.14.051-.32.08-.57.08-.31 0-.58-.08-.759-.289-.2-.221-.29-.551-.29-1.221V50h-.589v-.578h.589v-.82l.769-.311zm15.837-35.667c.29-.09.65-.13 1.04-.13.7 0 1.209.181 1.579.51.52.45.91 1.319.91 2.729 0 1.539-.38 2.379-.81 2.849-.44.49-1.089.72-1.859.72-.31 0-.64-.021-.859-.07v-6.608zm.769 6.017c.11.021.22.021.29.021.85 0 1.669-.609 1.669-2.908 0-1.699-.52-2.629-1.599-2.629-.12 0-.26.01-.36.04v5.476zm5.27.7c-1.12 0-1.869-1.189-1.869-3.458 0-2.229.81-3.438 1.979-3.438 1.149 0 1.839 1.249 1.839 3.398 0 2.519-.859 3.498-1.939 3.498h-.01zm.059-.679c.86 0 1.09-1.47 1.09-2.788 0-1.26-.23-2.749-1.1-2.749s-1.119 1.479-1.119 2.759c-.01 1.309.25 2.778 1.119 2.778h.01zm6.89-2.299c-.05-.89-.1-1.879-.07-2.639h-.04c-.15.75-.33 1.56-.54 2.339l-.82 3.158h-.5l-.78-3.028a31.248 31.248 0 0 1-.56-2.469h-.03c.01.79-.04 1.729-.08 2.688l-.13 2.849h-.689l.399-6.736h.84l.779 3.078c.23.89.4 1.55.54 2.319h.03c.13-.77.28-1.409.5-2.319l.76-3.078h.859l.39 6.736h-.72l-.138-2.898zm47.617 31.26c.33-.09.729-.13 1.109-.13.67 0 1.169.141 1.519.48.33.34.47.789.47 1.319 0 .859-.399 1.419-1.079 1.738v.021c.5.149.759.63.899 1.509.16.92.29 1.489.39 1.699h-.779c-.1-.2-.23-.84-.36-1.659-.15-.93-.44-1.27-1.1-1.27h-.3v2.929h-.77v-6.636zm.769 3.108h.32c.74 0 1.229-.539 1.229-1.349 0-.77-.32-1.26-1.149-1.27-.15 0-.3.01-.4.04v2.579zm3.801 1.18c.01 1.489.589 1.799 1.139 1.799.34 0 .61-.08.8-.18l.13.56c-.27.15-.68.229-1.07.229-1.149 0-1.749-.939-1.749-2.429 0-1.568.66-2.548 1.629-2.548.979 0 1.379 1.039 1.379 2.129 0 .189-.01.319-.02.439h-2.238zm1.519-.57c.01-.97-.35-1.399-.72-1.399-.5 0-.759.739-.79 1.399h1.51zm1.57-.67c0-.569-.03-.859-.04-1.249h.67l.04.579h.02c.209-.39.6-.659 1.109-.659.669 0 1.169.489 1.169 1.669v3.248h-.77v-3.118c0-.58-.11-1.149-.669-1.149-.32 0-.63.27-.72.789-.03.11-.04.261-.04.431v3.048h-.77v-3.589zm6.969-3.328V53.1c0 .33.03.879.04 1.159h-.66l-.05-.6h-.04c-.15.34-.5.68-1.009.68-.82 0-1.41-.88-1.41-2.479 0-1.72.71-2.519 1.459-2.519.35 0 .689.159.879.569h.02v-2.568h.771zm-.769 3.918c0-.101 0-.21-.01-.32-.04-.5-.35-.939-.72-.939-.64 0-.859.89-.859 1.859 0 1.02.26 1.839.819 1.839.24 0 .57-.13.74-.83.03-.09.03-.199.03-.319v-1.29zm2.381.65c.01 1.489.589 1.799 1.139 1.799.34 0 .61-.08.8-.18l.13.56c-.27.15-.68.229-1.07.229-1.149 0-1.749-.939-1.749-2.429 0-1.568.66-2.548 1.629-2.548.979 0 1.379 1.039 1.379 2.129 0 .189-.01.319-.02.439h-2.238zm1.519-.57c.01-.97-.35-1.399-.72-1.399-.5 0-.759.739-.79 1.399h1.51zm1.561-.67c0-.41-.03-.89-.04-1.249h.689l.04.759h.02c.16-.459.57-.839 1.02-.839.06 0 .11 0 .16.01v.789c-.05-.01-.1-.01-.16-.01-.49 0-.85.45-.93 1.01-.02.13-.03.27-.03.439v2.679h-.77v-3.588zm4.559-2.459h-1.229v-.689h3.229v.689h-1.229v6.047h-.77v-6.047zm2.14 2.459c0-.41-.03-.89-.04-1.249h.689l.04.759h.021c.16-.459.569-.839 1.02-.839.06 0 .109 0 .159.01v.789c-.05-.01-.1-.01-.159-.01-.49 0-.85.45-.93 1.01-.021.13-.03.27-.03.439v2.679h-.77v-3.588zm2.89 1.24c.01 1.489.59 1.799 1.14 1.799.34 0 .609-.08.8-.18l.13.56c-.271.15-.68.229-1.07.229-1.148 0-1.749-.939-1.749-2.429 0-1.568.66-2.548 1.63-2.548.979 0 1.379 1.039 1.379 2.129 0 .189-.01.319-.02.439h-2.24zm1.519-.57c.01-.97-.351-1.399-.72-1.399-.5 0-.76.739-.79 1.399h1.51zm2.111.57c.01 1.489.59 1.799 1.14 1.799.34 0 .609-.08.8-.18l.13.56c-.271.15-.68.229-1.07.229-1.148 0-1.749-.939-1.749-2.429 0-1.568.66-2.548 1.63-2.548.979 0 1.379 1.039 1.379 2.129 0 .189-.01.319-.02.439h-2.24zm1.519-.57c.01-.97-.351-1.399-.72-1.399-.5 0-.76.739-.79 1.399h1.51zm43.452-3.818h.77v6.087h1.889v.649h-2.658v-6.736zm5.928 5.637c0 .37 0 .79.05 1.1h-.689l-.051-.51h-.029c-.21.37-.55.59-.959.59-.65 0-1.15-.54-1.15-1.379 0-1.22.971-1.749 2.06-1.76v-.149c0-.649-.16-1.1-.77-1.1-.3 0-.569.09-.8.25l-.17-.54c.21-.149.65-.319 1.129-.319.971 0 1.38.64 1.38 1.719v2.098zm-.749-1.41c-.4 0-1.33.08-1.33 1.13 0 .64.32.859.59.859.34 0 .619-.25.709-.729.021-.09.031-.19.031-.28v-.98zm2.141-2.328l.639 2.778c.09.38.131.689.2.999h.021c.05-.279.129-.64.209-.989l.57-2.788h.76l-.789 3.107c-.301 1.21-.631 2.379-1.2 3.119-.34.43-.7.649-.87.729l-.279-.65c.221-.13.47-.34.68-.609.2-.26.359-.579.439-.819a.624.624 0 0 0 .051-.24c0-.06 0-.119-.021-.18l-1.22-4.457h.81zm4.289 4.917c-.869 0-1.569-.79-1.569-2.488 0-1.77.79-2.509 1.619-2.509.87 0 1.56.799 1.56 2.488 0 1.879-.859 2.509-1.6 2.509h-.01zm.04-.609c.659 0 .8-1.13.8-1.89 0-.749-.141-1.889-.82-1.889-.689 0-.818 1.14-.818 1.889 0 .8.139 1.89.828 1.89h.01zm5.329-.79c0 .529.03.96.04 1.319h-.669l-.061-.51h-.02c-.141.24-.51.59-1.029.59-.84 0-1.18-.66-1.18-1.859v-3.058h.77v2.948c0 .749.119 1.319.649 1.319.45 0 .649-.42.689-.65.03-.13.04-.27.04-.43v-3.188h.77v3.519zm2.022-4.648v1.13h.93v.579h-.93v2.879c0 .64.22.799.5.799.129 0 .229-.01.309-.029l.041.59c-.141.05-.32.079-.57.079-.31 0-.58-.079-.76-.289-.199-.221-.289-.55-.289-1.22v-2.809h-.59v-.579h.59v-.82l.769-.31zM25.286 89.141c-.209.11-.549.18-.969.18-1.309 0-2.259-1.049-2.259-3.338 0-2.668 1.319-3.518 2.389-3.518.4 0 .7.08.83.17l-.17.649c-.16-.07-.32-.14-.669-.14-.72 0-1.569.699-1.569 2.758 0 2.069.76 2.738 1.589 2.738.29 0 .54-.069.699-.14l.129.641zm.631-.769c.23.14.63.27.97.27.699 0 1.119-.459 1.119-1.139 0-.62-.36-1-.89-1.399-.529-.37-1.269-.999-1.269-1.869 0-1.02.72-1.769 1.779-1.769.42 0 .79.14.95.249l-.19.66a1.41 1.41 0 0 0-.8-.229c-.66 0-.969.499-.969.959 0 .67.35.939.989 1.39.81.569 1.169 1.189 1.169 1.938 0 1.159-.819 1.889-1.889 1.889-.46 0-.95-.149-1.14-.3l.171-.65zm3.61 0c.23.14.63.27.97.27.699 0 1.119-.459 1.119-1.139 0-.62-.36-1-.89-1.399-.53-.37-1.269-.999-1.269-1.869 0-1.02.72-1.769 1.779-1.769.42 0 .79.14.95.249l-.19.66a1.41 1.41 0 0 0-.8-.229c-.66 0-.969.499-.969.959 0 .67.35.939.989 1.39.81.569 1.169 1.189 1.169 1.938 0 1.159-.819 1.889-1.889 1.889-.46 0-.95-.149-1.14-.3l.171-.65zm64.534.769c-.209.11-.549.18-.969.18-1.309 0-2.259-1.049-2.259-3.338 0-2.668 1.319-3.518 2.389-3.518.4 0 .7.08.83.17l-.17.649c-.16-.07-.32-.14-.669-.14-.72 0-1.569.699-1.569 2.758 0 2.069.76 2.738 1.589 2.738.29 0 .54-.069.699-.14l.129.641zm.632-.769c.23.14.63.27.97.27.699 0 1.119-.459 1.119-1.139 0-.62-.36-1-.89-1.399-.529-.37-1.269-.999-1.269-1.869 0-1.02.72-1.769 1.779-1.769.42 0 .79.14.95.249l-.19.66a1.41 1.41 0 0 0-.8-.229c-.66 0-.969.499-.969.959 0 .67.35.939.989 1.39.81.569 1.169 1.189 1.169 1.938 0 1.159-.819 1.889-1.889 1.889-.46 0-.95-.149-1.14-.3l.171-.65zm3.61 0c.23.14.63.27.97.27.699 0 1.119-.459 1.119-1.139 0-.62-.36-1-.89-1.399-.53-.37-1.269-.999-1.269-1.869 0-1.02.72-1.769 1.779-1.769.42 0 .79.14.95.249l-.19.66a1.41 1.41 0 0 0-.8-.229c-.66 0-.969.499-.969.959 0 .67.35.939.989 1.39.81.569 1.169 1.189 1.169 1.938 0 1.159-.819 1.889-1.889 1.889-.46 0-.95-.149-1.14-.3l.171-.65zm5.349.969c-1.12 0-1.869-1.189-1.869-3.458 0-2.229.81-3.438 1.979-3.438 1.149 0 1.839 1.249 1.839 3.398 0 2.519-.859 3.498-1.939 3.498h-.01zm.059-.679c.86 0 1.09-1.47 1.09-2.788 0-1.26-.23-2.749-1.1-2.749s-1.119 1.479-1.119 2.759c-.01 1.309.25 2.778 1.119 2.778h.01zm6.889-2.299c-.05-.89-.1-1.879-.07-2.639h-.04c-.15.75-.33 1.56-.54 2.339l-.82 3.158h-.5l-.78-3.028a31.248 31.248 0 0 1-.56-2.469h-.03c.01.79-.04 1.729-.08 2.688l-.13 2.849h-.689l.399-6.736h.84l.779 3.078c.23.89.4 1.55.54 2.319h.03c.13-.77.28-1.409.5-2.319l.76-3.078h.859l.39 6.736h-.72l-.138-2.898z"/></svg>