<svg xmlns="http://www.w3.org/2000/svg" viewBox="0 0 334.987 155.994"><path fill="none" stroke="#0071bc" stroke-miterlimit="10" d="M95.154 100.126h40.633l28.272-10.722M44.372 46.963l14.808-26.31h76.607l28.272 25.354" clip-rule="evenodd"/><path fill="none" stroke="#000" stroke-miterlimit="10" d="M228.559 68.139h52" clip-rule="evenodd"/><g fill="none" stroke="#000" stroke-miterlimit="10"><path d="M122.059 155.994v-1"/><path d="M122.059 152.994V2" stroke-dasharray="2 2"/><path d="M122.059 1V0"/></g><g fill="none" stroke="#000" stroke-miterlimit="10"><path d="M249.059 155.994v-1"/><path d="M249.059 152.994V2" stroke-dasharray="2 2"/><path d="M249.059 1V0"/></g><path fill="#b2d4eb" fill-rule="evenodd" d="M316.733 92.118c-3.3.944-6.579.247-9.021-1.601-1.439 1.684-3.146 2.845-5.382 3.482-5.78 1.649-11.093-.258-12.362-6.055a11.26 11.26 0 0 1-3.424 1.637c-5.773 1.649-11.777-1.831-13.049-7.63-5.027.443-9.605-2.776-10.724-7.889-1.271-5.797 2.385-11.833 8.159-13.481a10.659 10.659 0 0 1 3.876-.379c-1.271-5.794 2.455-10.348 8.232-11.998 2.317-.659 4.314-.895 6.327-.109 1.423-2.808 3.97-5.058 7.161-5.969 5.774-1.647 11.484 1.715 12.756 7.512.594-.292 1.093-.309 1.743-.497 5.777-1.649 11.489 1.713 12.758 7.511 5.009-.414 9.9 2.914 11.015 8.008 1.271 5.795-4.125 12.328-9.901 13.979 1.27 5.796-2.383 11.833-8.164 13.479z" clip-rule="evenodd" mask="url(#b)"/><path fill="#b2d4eb" fill-rule="evenodd" d="M209.999 100.964c-4.517 1.292-9.006.339-12.348-2.192-1.971 2.305-4.307 3.894-7.367 4.767-7.913 2.257-15.186-.354-16.923-8.289a15.413 15.413 0 0 1-4.687 2.241c-7.903 2.257-16.122-2.507-17.862-10.444-6.882.607-13.149-3.801-14.68-10.799-1.739-7.935 3.265-16.198 11.169-18.454a14.595 14.595 0 0 1 5.306-.518c-1.739-7.932 3.361-14.166 11.269-16.424 3.171-.902 5.905-1.225 8.662-.149 1.948-3.844 5.434-6.924 9.803-8.171 7.904-2.254 15.721 2.348 17.461 10.284.813-.4 1.496-.424 2.387-.681 7.908-2.257 15.728 2.345 17.464 10.282 6.856-.567 13.553 3.989 15.078 10.962 1.74 7.933-5.646 16.876-13.554 19.135 1.736 7.932-3.265 16.196-11.178 18.45z" clip-rule="evenodd" mask="url(#d)"/><path fill="#b2dec7" fill-rule="evenodd" d="M13.78 64.567L3.583 46.905 13.78 29.243h20.395l10.197 17.662-10.197 17.662z" clip-rule="evenodd"/><path fill="none" stroke="#000" d="M13.78 64.567L3.583 46.905 13.78 29.243h20.395l10.197 17.662-10.197 17.662z" stroke-linecap="round" stroke-linejoin="round"/><path fill="#b2dec7" fill-rule="evenodd" d="M13.577 100.009L3.38 82.347l10.197-17.663h20.395l10.197 17.663-10.197 17.662z" clip-rule="evenodd"/><path fill="none" stroke="#000" d="M13.577 100.009L3.38 82.347l10.197-17.663h20.395l10.197 17.663-10.197 17.662z" stroke-linecap="round" stroke-linejoin="round"/><path fill="#b2dec7" fill-rule="evenodd" d="M44.372 82.288L34.174 64.626l10.198-17.663h20.394l10.197 17.663-10.197 17.662z" clip-rule="evenodd"/><path fill="none" stroke="#000" d="M44.372 82.288L34.174 64.626l10.198-17.663h20.394l10.197 17.663-10.197 17.662z" stroke-linecap="round" stroke-linejoin="round"/><path fill="#fddfbb" fill-rule="evenodd" d="M44.168 117.729l-10.197-17.662 10.197-17.662h20.395l10.197 17.662-10.197 17.662z" clip-rule="evenodd"/><path fill="none" stroke="#000" d="M44.168 117.729l-10.197-17.662 10.197-17.662h20.395l10.197 17.662-10.197 17.662z" stroke-linecap="round" stroke-linejoin="round"/><path fill="#fddfbb" fill-rule="evenodd" d="M74.963 100.009L64.766 82.347l10.197-17.663h20.394l10.198 17.663-10.198 17.662z" clip-rule="evenodd"/><path fill="none" stroke="#000" d="M74.963 100.009L64.766 82.347l10.197-17.663h20.394l10.198 17.663-10.198 17.662z" stroke-linecap="round" stroke-linejoin="round"/><path fill="#fddfbb" fill-rule="evenodd" d="M74.76 135.45l-10.198-17.662 10.198-17.662h20.394l10.198 17.662-10.198 17.662z" clip-rule="evenodd"/><path fill="none" stroke="#000" d="M74.76 135.45l-10.198-17.662 10.198-17.662h20.394l10.198 17.662-10.198 17.662z" stroke-linecap="round" stroke-linejoin="round"/><path d="M12.047 14.867c.011 1.628.649 1.979 1.265 1.979.363 0 .671-.088.88-.209l.132.627c-.297.165-.748.254-1.166.254-1.276 0-1.936-1.046-1.936-2.674 0-1.728.726-2.806 1.793-2.806 1.089 0 1.518 1.145 1.518 2.354 0 .198 0 .341-.011.474h-2.475zm1.672-.628c.022-1.066-.385-1.54-.792-1.54-.55 0-.836.814-.869 1.54h1.661zm1.793 3.213v-7.415h.803l1.364 3.477c.308.792.693 1.782.946 2.585h.022a55.805 55.805 0 0 1-.099-3.41v-2.651h.759v7.415h-.803l-1.408-3.564a26.597 26.597 0 0 1-.88-2.52h-.022c.066.99.088 1.937.088 3.521v2.563h-.77zm8.272-2.662c0 2.057-.957 2.75-1.771 2.75-.957 0-1.727-.869-1.727-2.739 0-1.947.869-2.762 1.782-2.762.946 0 1.716.892 1.716 2.751zm-2.651 0c0 .88.154 2.079.924 2.079.726 0 .869-1.254.869-2.079 0-.814-.143-2.068-.891-2.068-.759 0-.902 1.254-.902 2.068zm6.798-4.951v6.337c0 .363.033.969.044 1.276h-.726l-.055-.671h-.033c-.176.385-.55.759-1.111.759-.902 0-1.551-.979-1.551-2.729 0-1.892.781-2.772 1.606-2.772.385 0 .759.188.968.639h.022V9.839h.836zm-.836 4.312c0-.109 0-.23-.011-.352-.055-.55-.385-1.034-.792-1.034-.704 0-.946.979-.946 2.046 0 1.122.286 2.024.902 2.024.264 0 .627-.143.814-.913.022-.099.033-.22.033-.352v-1.419zm2.617.716c.011 1.628.649 1.979 1.265 1.979.363 0 .671-.088.88-.209l.132.627c-.297.165-.748.254-1.166.254-1.276 0-1.936-1.046-1.936-2.674 0-1.728.726-2.806 1.793-2.806 1.089 0 1.518 1.145 1.518 2.354 0 .198 0 .341-.011.474h-2.475zm1.673-.628c.022-1.066-.385-1.54-.792-1.54-.55 0-.836.814-.869 1.54h1.661zm1.793-4.092c.352-.089.77-.144 1.243-.144.671 0 1.243.144 1.639.518.319.297.484.736.484 1.265 0 .76-.418 1.364-1.144 1.65v.022c.858.23 1.375.924 1.375 1.892 0 .616-.198 1.111-.528 1.475-.418.473-1.111.671-1.958.671-.55 0-.88-.033-1.111-.077v-7.272zm.847 3.037h.385c.693 0 1.288-.528 1.288-1.31 0-.682-.319-1.21-1.221-1.21a1.51 1.51 0 0 0-.451.055v2.465zm0 3.597c.099.021.242.044.429.044.88 0 1.452-.518 1.452-1.475 0-1.022-.715-1.507-1.507-1.518h-.374v2.949zM7.702 143.647c.363-.1.803-.144 1.221-.144.737 0 1.287.154 1.672.528.363.374.517.869.517 1.452 0 .946-.44 1.562-1.188 1.903v.021c.55.165.836.693 1.001 1.662.165 1.022.319 1.649.418 1.881h-.858c-.11-.22-.253-.924-.396-1.837-.165-1.013-.484-1.397-1.21-1.397h-.33v3.234h-.847v-7.303zm.847 3.421h.352c.814 0 1.353-.594 1.353-1.485 0-.857-.352-1.386-1.265-1.396-.165 0-.33.011-.44.044v2.837zm5.764 3.884l-.055-.562h-.033c-.231.407-.605.649-1.056.649-.715 0-1.265-.604-1.265-1.519 0-1.331 1.067-1.925 2.266-1.936v-.165c0-.716-.176-1.21-.847-1.21-.33 0-.627.109-.88.274l-.187-.594c.22-.165.715-.353 1.243-.353 1.067 0 1.529.704 1.529 1.903v2.3c0 .407 0 .869.055 1.21h-.77zm-.121-2.75c-.44 0-1.463.076-1.463 1.231 0 .693.352.946.649.946.374 0 .693-.274.792-.803.022-.1.022-.209.022-.297v-1.077zm5.225-4.863v6.337c0 .363.033.969.044 1.276h-.726l-.055-.671h-.033c-.176.385-.55.759-1.111.759-.902 0-1.551-.979-1.551-2.729 0-1.892.781-2.772 1.606-2.772.385 0 .759.188.968.639h.022v-2.839h.836zm-.836 4.312c0-.109 0-.23-.011-.352-.055-.55-.385-1.034-.792-1.034-.704 0-.946.979-.946 2.046 0 1.122.286 2.024.902 2.024.264 0 .627-.143.814-.913.022-.099.033-.22.033-.352v-1.419zm2.937-3.399c.011.33-.198.551-.517.551-.275 0-.484-.221-.484-.551s.22-.55.495-.55c.308 0 .506.22.506.55zm-.913 6.7v-5.325h.847v5.325h-.847zm5.291-2.662c0 2.057-.957 2.75-1.771 2.75-.957 0-1.727-.869-1.727-2.739 0-1.947.869-2.762 1.782-2.762.946 0 1.716.892 1.716 2.751zm-2.651 0c0 .88.154 2.079.924 2.079.726 0 .869-1.254.869-2.079 0-.814-.143-2.068-.891-2.068-.759 0-.902 1.254-.902 2.068zm6.281.439l-.495 2.223h-.814l1.694-7.415h.935l1.65 7.415h-.836l-.495-2.223h-1.639zm1.529-.681l-.385-1.882a38.668 38.668 0 0 1-.297-1.693h-.044a43.913 43.913 0 0 1-.297 1.693l-.385 1.882h1.408zm4.785 2.772c-.187.109-.506.198-.88.198-1.167 0-1.947-.936-1.947-2.695 0-1.529.77-2.772 2.101-2.772.286 0 .594.076.748.165l-.165.692a1.382 1.382 0 0 0-.605-.143c-.847 0-1.232 1.012-1.232 2.058 0 1.243.473 1.991 1.254 1.991.231 0 .418-.056.616-.144l.11.65zm3.256 0c-.187.109-.506.198-.88.198-1.167 0-1.947-.936-1.947-2.695 0-1.529.77-2.772 2.101-2.772.286 0 .594.076.748.165l-.165.692a1.382 1.382 0 0 0-.605-.143c-.847 0-1.232 1.012-1.232 2.058 0 1.243.473 1.991 1.254 1.991.231 0 .418-.056.616-.144l.11.65zm1.253-2.453c.011 1.628.649 1.979 1.265 1.979.363 0 .671-.088.88-.209l.132.627c-.297.165-.748.254-1.166.254-1.276 0-1.936-1.046-1.936-2.674 0-1.728.726-2.806 1.793-2.806 1.089 0 1.518 1.145 1.518 2.354 0 .198 0 .341-.011.474h-2.475zm1.672-.628c.022-1.066-.385-1.54-.792-1.54-.55 0-.836.814-.869 1.54h1.661zm1.584 2.333c.187.121.517.274.858.274.484 0 .781-.297.781-.77 0-.407-.143-.683-.682-1.045-.693-.451-1.067-.902-1.067-1.519 0-.858.638-1.475 1.463-1.475.418 0 .737.144.957.275l-.231.638a1.25 1.25 0 0 0-.704-.23c-.462 0-.693.33-.693.671 0 .363.132.562.66.924.616.396 1.1.881 1.1 1.617 0 1.067-.726 1.585-1.595 1.585-.396 0-.825-.121-1.056-.309l.209-.636zm3.179 0c.187.121.517.274.858.274.484 0 .781-.297.781-.77 0-.407-.143-.683-.682-1.045-.693-.451-1.067-.902-1.067-1.519 0-.858.638-1.475 1.463-1.475.418 0 .737.144.957.275l-.231.638a1.25 1.25 0 0 0-.704-.23c-.462 0-.693.33-.693.671 0 .363.132.562.66.924.616.396 1.1.881 1.1 1.617 0 1.067-.726 1.585-1.595 1.585-.396 0-.825-.121-1.056-.309l.209-.636zm5.115.88v-7.415h.803l1.364 3.477c.308.792.693 1.782.946 2.585h.022a55.805 55.805 0 0 1-.099-3.41v-2.651h.759v7.415h-.803l-1.408-3.564a26.597 26.597 0 0 1-.88-2.52h-.022c.066.99.088 1.937.088 3.521v2.563h-.77zm5.599-2.585c.011 1.628.649 1.979 1.265 1.979.363 0 .671-.088.88-.209l.132.627c-.297.165-.748.254-1.166.254-1.276 0-1.936-1.046-1.936-2.674 0-1.728.726-2.806 1.793-2.806 1.089 0 1.518 1.145 1.518 2.354 0 .198 0 .341-.011.474h-2.475zm1.672-.628c.022-1.066-.385-1.54-.792-1.54-.55 0-.836.814-.869 1.54h1.661zm2.761-3.52v1.408h1.023v.649h-1.023v3.157c0 .693.253.881.561.881.132 0 .242-.012.341-.033l.033.648a1.827 1.827 0 0 1-.627.089c-.33 0-.627-.089-.836-.319-.209-.242-.319-.605-.319-1.343v-3.08h-.649v-.649h.649v-1.166l.847-.242zm2.31 1.408l.517 2.607c.099.572.22 1.145.286 1.694h.044c.077-.55.209-1.166.33-1.672l.616-2.63h.649l.583 2.553c.132.594.253 1.155.341 1.749h.044c.066-.561.165-1.111.286-1.716l.506-2.586h.847l-1.342 5.325h-.693l-.616-2.585c-.132-.518-.209-.99-.297-1.596h-.022a16.63 16.63 0 0 1-.308 1.628l-.638 2.553h-.715l-1.298-5.325h.88zm8.921 2.663c0 2.057-.957 2.75-1.771 2.75-.957 0-1.727-.869-1.727-2.739 0-1.947.869-2.762 1.782-2.762.946 0 1.716.892 1.716 2.751zm-2.651 0c0 .88.154 2.079.924 2.079.726 0 .869-1.254.869-2.079 0-.814-.143-2.068-.891-2.068-.759 0-.902 1.254-.902 2.068zm3.586-1.287c0-.451-.033-.979-.044-1.376h.759l.044.837h.022c.176-.507.627-.925 1.122-.925.066 0 .121.012.176.012v.869c-.055-.012-.11-.012-.176-.012-.539 0-.935.495-1.023 1.111a3.259 3.259 0 0 0-.033.484v2.948h-.847v-3.948zm3.575 1.1h.022c.099-.209.187-.418.286-.594l1.056-1.882h.913l-1.408 2.245 1.529 3.08h-.946l-1.155-2.509-.297.495v2.014h-.847v-7.613h.847v4.764zm6.699-4.764c-.627.99-1.144 2.476-1.144 4.478 0 1.97.517 3.455 1.144 4.456h-.66c-.572-.836-1.21-2.311-1.21-4.467.022-2.156.638-3.642 1.21-4.467h.66zm.934.308c.363-.1.803-.144 1.221-.144.737 0 1.287.154 1.672.528.363.374.517.869.517 1.452 0 .946-.44 1.562-1.188 1.903v.021c.55.165.836.693 1.001 1.662.165 1.022.319 1.649.418 1.881h-.858c-.11-.22-.253-.924-.396-1.837-.165-1.013-.484-1.397-1.21-1.397h-.33v3.234h-.847v-7.303zm.847 3.421h.352c.814 0 1.353-.594 1.353-1.485 0-.857-.352-1.386-1.265-1.396-.165 0-.33.011-.44.044v2.837zm4.609 1.661l-.495 2.223h-.814l1.694-7.415h.935l1.65 7.415h-.836l-.495-2.223h-1.639zm1.53-.681l-.385-1.882a38.668 38.668 0 0 1-.297-1.693h-.044a43.913 43.913 0 0 1-.297 1.693l-.385 1.882h1.408zm2.364 2.904v-7.415h.803l1.364 3.477c.308.792.693 1.782.946 2.585h.022a55.805 55.805 0 0 1-.099-3.41v-2.651h.759v7.415h-.803l-1.408-3.564a26.597 26.597 0 0 1-.88-2.52h-.022c.066.99.088 1.937.088 3.521v2.563h-.77zm4.73 1.32c.627-.99 1.145-2.497 1.145-4.478s-.517-3.466-1.145-4.456h.66c.572.814 1.21 2.277 1.21 4.456-.022 2.178-.638 3.63-1.21 4.478h-.66zm188.838-89.925h-1.859v2.783h2.111v.737h-2.959v-7.415h2.827v.737h-1.979v2.442h1.859v.716zm1.593-1.805l.495 1.145c.132.309.231.616.353.936h.021c.121-.342.242-.649.352-.936l.484-1.145h.869l-1.265 2.63 1.254 2.695h-.924l-.507-1.199c-.121-.286-.219-.562-.352-.913h-.021c-.11.319-.231.605-.353.913l-.495 1.199h-.857l1.265-2.674-1.232-2.651h.913zm4.467-1.408v1.408h1.022v.649h-1.022v3.157c0 .693.252.881.561.881.132 0 .242-.012.341-.033l.033.648a1.833 1.833 0 0 1-.628.089c-.329 0-.627-.089-.836-.319-.209-.242-.318-.605-.318-1.343v-3.08h-.649v-.649h.649v-1.166l.847-.242zm2.276 4.149c.012 1.628.65 1.979 1.266 1.979.363 0 .672-.088.881-.209l.131.627c-.297.165-.748.254-1.166.254-1.275 0-1.936-1.046-1.936-2.674 0-1.728.727-2.806 1.793-2.806 1.09 0 1.518 1.145 1.518 2.354 0 .198 0 .341-.01.474h-2.477zm1.672-.628c.022-1.066-.385-1.54-.792-1.54-.551 0-.836.814-.869 1.54h1.661zm1.716-.737c0-.451-.033-.979-.044-1.376h.759l.045.837h.021c.176-.507.627-.925 1.122-.925.065 0 .121.012.177.012v.869c-.056-.012-.111-.012-.177-.012-.539 0-.935.495-1.022 1.111a3.259 3.259 0 0 0-.033.484v2.948h-.848v-3.948zm2.739 0c0-.628-.033-.946-.043-1.376h.736l.044.639h.022c.23-.43.66-.727 1.221-.727.737 0 1.287.551 1.287 1.838v3.575h-.847v-3.433c0-.627-.121-1.265-.737-1.265-.352 0-.693.297-.803.869a2.988 2.988 0 0 0-.033.473v3.355h-.848v-3.948zm6.556 3.95l-.055-.562h-.033c-.23.407-.605.649-1.057.649-.715 0-1.265-.604-1.265-1.519 0-1.331 1.067-1.925 2.267-1.936v-.165c0-.716-.176-1.21-.848-1.21-.33 0-.627.109-.88.274l-.187-.594c.219-.165.715-.353 1.242-.353 1.067 0 1.529.704 1.529 1.903v2.3c0 .407 0 .869.055 1.21h-.768zm-.121-2.75c-.439 0-1.463.076-1.463 1.231 0 .693.352.946.648.946.375 0 .693-.274.793-.803.021-.1.021-.209.021-.297v-1.077zm2.024-4.864h.848v7.613h-.848v-7.613zm-26.179 18.614v-7.415h.804l1.363 3.477c.309.792.693 1.782.946 2.585h.022a55.778 55.778 0 0 1-.1-3.41v-2.651h.76v7.415h-.804l-1.408-3.564a26.597 26.597 0 0 1-.88-2.52h-.021c.065.99.088 1.937.088 3.521v2.563h-.77zm5.598-2.585c.012 1.628.649 1.979 1.266 1.979.363 0 .671-.088.88-.209l.132.627c-.297.165-.748.254-1.166.254-1.276 0-1.936-1.046-1.936-2.674 0-1.728.726-2.806 1.793-2.806 1.089 0 1.518 1.145 1.518 2.354 0 .198 0 .341-.011.474h-2.476zm1.672-.628c.022-1.066-.385-1.54-.791-1.54-.551 0-.836.814-.869 1.54h1.66zm2.762-3.521v1.408h1.023v.649h-1.023v3.157c0 .693.253.881.561.881.133 0 .242-.012.342-.033l.033.648a1.83 1.83 0 0 1-.627.089c-.33 0-.628-.089-.837-.319-.209-.242-.319-.605-.319-1.343v-3.08h-.648v-.649h.648v-1.166l.847-.242zm2.309 1.408l.518 2.607c.1.572.221 1.145.286 1.694h.044c.077-.55.209-1.166.33-1.672l.616-2.63h.649l.582 2.553c.133.594.254 1.155.342 1.749h.044c.065-.561.165-1.111.286-1.716l.506-2.586h.848l-1.343 5.325h-.692l-.617-2.585a15.04 15.04 0 0 1-.297-1.596h-.021a16.613 16.613 0 0 1-.309 1.628l-.638 2.553h-.715l-1.298-5.325h.879zm8.922 2.664c0 2.057-.957 2.75-1.771 2.75-.957 0-1.728-.869-1.728-2.739 0-1.947.869-2.762 1.783-2.762.946 0 1.716.891 1.716 2.751zm-2.651 0c0 .88.154 2.079.924 2.079.727 0 .869-1.254.869-2.079 0-.814-.143-2.068-.891-2.068-.759-.001-.902 1.253-.902 2.068zm3.586-1.288c0-.451-.033-.979-.045-1.376h.76l.044.837h.022c.176-.507.627-.925 1.121-.925.066 0 .121.012.177.012v.869c-.056-.012-.11-.012-.177-.012-.539 0-.935.495-1.022 1.111a3.259 3.259 0 0 0-.033.484v2.948h-.847v-3.948zm3.574 1.1h.021c.1-.209.188-.418.287-.594l1.056-1.882h.913l-1.408 2.245 1.529 3.08h-.946l-1.155-2.509-.297.495v2.014h-.848v-7.613h.848v4.764zm-128.799-8.282c-.23.121-.594.198-1.057.198-1.451 0-2.486-1.167-2.486-3.686 0-2.927 1.453-3.862 2.619-3.862.451 0 .77.088.924.188l-.188.715a1.617 1.617 0 0 0-.748-.154c-.791 0-1.716.771-1.716 3.037s.836 3.015 1.738 3.015c.319 0 .604-.077.781-.165l.133.714zm3.872-2.53c0 2.057-.957 2.75-1.771 2.75-.957 0-1.728-.869-1.728-2.739 0-1.947.869-2.762 1.783-2.762.946 0 1.716.891 1.716 2.751zm-2.651 0c0 .88.154 2.079.924 2.079.727 0 .869-1.254.869-2.079 0-.814-.143-2.068-.891-2.068-.759-.001-.902 1.253-.902 2.068zm3.586-1.288c0-.451-.033-.979-.045-1.376h.76l.044.837h.022c.176-.507.627-.925 1.121-.925.066 0 .121.012.177.012v.869c-.056-.012-.11-.012-.177-.012-.539 0-.935.495-1.022 1.111a3.259 3.259 0 0 0-.033.484v2.948h-.847v-3.948zm3.179 1.365c.011 1.628.649 1.979 1.265 1.979.363 0 .672-.088.881-.209l.132.627c-.297.165-.748.254-1.166.254-1.276 0-1.937-1.046-1.937-2.674 0-1.728.727-2.806 1.793-2.806 1.09 0 1.519 1.145 1.519 2.354 0 .198 0 .341-.011.474h-2.476zm1.673-.628c.021-1.066-.385-1.54-.793-1.54-.55 0-.836.814-.869 1.54h1.662zm-28.144 14.213v-7.415h.803l1.364 3.477c.308.792.693 1.782.946 2.585h.022a55.805 55.805 0 0 1-.099-3.41v-2.651h.759v7.415h-.803l-1.408-3.564a26.597 26.597 0 0 1-.88-2.52h-.022c.066.99.088 1.937.088 3.521v2.563h-.77zm5.598-2.585c.011 1.628.649 1.979 1.265 1.979.363 0 .671-.088.88-.209l.132.627c-.297.165-.748.254-1.166.254-1.276 0-1.936-1.046-1.936-2.674 0-1.728.726-2.806 1.793-2.806 1.089 0 1.518 1.145 1.518 2.354 0 .198 0 .341-.011.474h-2.475zm1.673-.628c.022-1.066-.385-1.54-.792-1.54-.55 0-.836.814-.869 1.54h1.661zm2.761-3.521v1.408h1.023v.649h-1.023v3.157c0 .693.253.881.561.881.132 0 .242-.012.341-.033l.033.648a1.827 1.827 0 0 1-.627.089c-.33 0-.627-.089-.836-.319-.209-.242-.319-.605-.319-1.343v-3.08h-.649v-.649h.649v-1.166l.847-.242zm2.309 1.408l.518 2.607c.099.572.22 1.145.285 1.694h.045c.076-.55.209-1.166.33-1.672l.615-2.63h.649l.583 2.553c.133.594.254 1.155.342 1.749h.043c.066-.561.166-1.111.287-1.716l.506-2.586h.847l-1.343 5.325h-.692l-.616-2.585c-.132-.518-.209-.99-.297-1.596h-.021a16.613 16.613 0 0 1-.309 1.628l-.639 2.553h-.715l-1.298-5.325h.88zm8.922 2.664c0 2.057-.957 2.75-1.771 2.75-.957 0-1.727-.869-1.727-2.739 0-1.947.869-2.762 1.782-2.762.946 0 1.716.891 1.716 2.751zm-2.652 0c0 .88.154 2.079.925 2.079.726 0 .869-1.254.869-2.079 0-.814-.144-2.068-.892-2.068-.758-.001-.902 1.253-.902 2.068zm3.586-1.288c0-.451-.032-.979-.044-1.376h.76l.043.837h.022c.176-.507.627-.925 1.122-.925.066 0 .121.012.176.012v.869c-.055-.012-.109-.012-.176-.012-.539 0-.936.495-1.023 1.111a3.4 3.4 0 0 0-.033.484v2.948h-.847v-3.948zm3.576 1.1h.021c.1-.209.188-.418.286-.594l1.056-1.882h.914l-1.408 2.245 1.529 3.08h-.947l-1.154-2.509-.297.495v2.014h-.848v-7.613h.848v4.764zm6.699-4.764c-.627.99-1.145 2.476-1.145 4.478 0 1.97.518 3.455 1.145 4.456h-.66c-.572-.836-1.211-2.311-1.211-4.467.022-2.156.639-3.642 1.211-4.467h.66zm3.949 7.482c-.231.121-.595.198-1.057.198-1.452 0-2.486-1.167-2.486-3.686 0-2.927 1.452-3.862 2.618-3.862.451 0 .771.088.925.188l-.188.715a1.62 1.62 0 0 0-.748-.154c-.792 0-1.717.771-1.717 3.037s.836 3.015 1.738 3.015c.319 0 .605-.077.781-.165l.134.714zm.868.132v-7.415h.804l1.363 3.477c.309.792.693 1.782.946 2.585h.022a55.778 55.778 0 0 1-.1-3.41v-2.651h.76v7.415h-.804l-1.408-3.564a26.597 26.597 0 0 1-.88-2.52h-.021c.065.99.088 1.937.088 3.521v2.563h-.77zm4.73 1.32c.627-.99 1.145-2.497 1.145-4.478s-.518-3.466-1.145-4.456h.66c.572.814 1.211 2.277 1.211 4.456-.022 2.178-.639 3.63-1.211 4.478h-.66z"/><g fill="none" stroke="#000" stroke-miterlimit="3.864" clip-rule="evenodd"><path stroke-width=".5" d="M23.573 58.181l-4.938-8.709 5.117-2.154-3.366-5.162 3.187-1.75-2.331-2.422 2.51-1.348-1.846-2.49 1.921-.932-1.4-1.722 1.418-.887-1.493-1.906"/><path stroke-width=".5" d="M23.948 29.299l-1.427.914 1.324 1.954-1.687.593 1.872 1.887-2.504 1.109 2.112 2.645-2.579 1.467 2.357 2.996-3.83 2.009 3.863 6.99-5.8 2.099m5.924 4.219l5.219-8.542-5.044-2.321 4.026-5.077-3.621-1.826 2.491-2.479-2.548-1.295 1.933-2.354-1.896-1.069 1.469-1.489L24.2 30.61l1.555-1.856"/><path stroke-width=".5" d="M24.14 29.303l1.557 1.289-1.547 1.579 1.785.837-1.81 1.55 2.424 1.484-2.398 2.367 3.092 1.612-3.014 2.855 3.763 2.134-4.091 6.859 5.732 2.288m-7.429-31.526l1.818.808m-1.818.808l1.818.808m-1.818.807l1.818.809m-1.818.808l1.818.808m0-4.848l1.749-.876m-1.749 2.492l1.749-.875m-1.749 2.491l1.749-.876m-1.749 2.492l1.749-.876"/><path d="M23.976 20.813v9.18l-.403 28.188"/><path d="M30.306 53.962l-6.733 4.219-5.924-4.219 4.577-23.611v-9.336h3.59"/><path d="M23.573 58.181l6.733-4.28-4.49-23.953-.045-9.295"/></g><g fill="none" stroke="#000" stroke-miterlimit="3.864" clip-rule="evenodd"><path stroke-width=".5" d="M23.37 93.623l-4.938-8.709 5.117-2.154-3.366-5.162 3.187-1.75-2.331-2.422 2.51-1.349-1.846-2.49 1.921-.931-1.4-1.722 1.418-.887-1.494-1.906"/><path stroke-width=".5" d="M23.745 64.741l-1.427.913 1.324 1.954-1.687.593 1.872 1.888-2.504 1.109 2.112 2.644-2.579 1.467 2.356 2.996-3.829 2.009 3.863 6.99-5.8 2.1m5.924 4.219l5.218-8.543-5.043-2.32 4.026-5.078-3.621-1.826 2.491-2.479-2.548-1.295 1.933-2.353-1.896-1.069 1.469-1.49-1.402-1.118 1.555-1.856"/><path stroke-width=".5" d="M23.937 64.744l1.557 1.289-1.547 1.579 1.785.837-1.81 1.55 2.424 1.484-2.398 2.367 3.092 1.612-3.014 2.856 3.763 2.133-4.091 6.86 5.732 2.288m-7.429-31.527l1.818.808m-1.818.808l1.818.808m-1.818.808l1.818.808m-1.818.808l1.818.808m0-4.848l1.749-.875m-1.749 2.491l1.749-.875m-1.749 2.491l1.749-.875m-1.749 2.491l1.749-.875"/><path d="M23.773 56.254v9.18l-.403 28.189"/><path d="M30.103 89.404l-6.733 4.219-5.924-4.219 4.577-23.611v-9.337h3.59"/><path d="M23.37 93.623l6.733-4.281-4.49-23.953-.045-9.295"/></g><g fill="none" stroke="#000" stroke-miterlimit="3.864" clip-rule="evenodd"><path stroke-width=".5" d="M54.164 75.902l-4.938-8.709 5.117-2.154-3.365-5.162 3.186-1.75-2.331-2.422 2.51-1.349-1.845-2.49 1.92-.931-1.4-1.722 1.419-.887-1.494-1.906"/><path stroke-width=".5" d="M54.54 47.02l-1.428.914 1.325 1.953-1.687.593 1.872 1.888-2.504 1.109 2.111 2.645-2.579 1.466 2.357 2.996-3.829 2.01 3.862 6.99-5.8 2.099m5.924 4.219l5.219-8.543-5.044-2.32 4.027-5.078-3.622-1.826 2.491-2.479-2.548-1.295 1.933-2.353-1.895-1.069 1.468-1.49-1.401-1.118 1.554-1.856"/><path stroke-width=".5" d="M54.731 47.023l1.557 1.289-1.547 1.58 1.785.837-1.81 1.55 2.425 1.483-2.398 2.367 3.091 1.612-3.014 2.856 3.763 2.133-4.091 6.86 5.732 2.288m-7.429-31.526l1.818.808m-1.818.807l1.818.808m-1.818.808l1.818.809m-1.818.807l1.818.808m0-4.847l1.75-.876m-1.75 2.491l1.75-.875m-1.75 2.492l1.75-.876m-1.75 2.491l1.75-.875"/><path d="M54.567 38.534v9.179l-.403 28.189"/><path d="M60.897 71.683l-6.733 4.219-5.924-4.219 4.577-23.611v-9.337h3.591"/><path d="M54.164 75.902l6.733-4.28-4.489-23.954-.045-9.294"/></g><g fill="none" stroke="#000" stroke-miterlimit="3.864" clip-rule="evenodd"><path stroke-width=".5" d="M53.961 111.343l-4.938-8.709 5.117-2.154-3.366-5.162 3.187-1.75-2.331-2.422 2.51-1.348-1.846-2.49 1.921-.931-1.4-1.723 1.418-.886-1.493-1.907"/><path stroke-width=".5" d="M54.336 82.461l-1.427.914 1.324 1.954-1.687.593 1.872 1.888-2.503 1.109 2.111 2.644-2.579 1.467 2.357 2.996-3.829 2.009 3.862 6.99-5.8 2.099m5.924 4.219l5.219-8.542-5.044-2.321 4.027-5.077-3.622-1.826 2.491-2.479-2.548-1.295 1.933-2.354-1.896-1.069 1.469-1.489-1.402-1.119 1.555-1.856"/><path stroke-width=".5" d="M54.528 82.465l1.557 1.289-1.547 1.579 1.785.837-1.81 1.55 2.425 1.484-2.398 2.367 3.091 1.612-3.014 2.856 3.763 2.133-4.091 6.859 5.732 2.288m-7.429-31.526l1.818.808m-1.818.808l1.818.808m-1.818.807l1.818.809m-1.818.808l1.818.808m0-4.848l1.75-.875m-1.75 2.491l1.75-.875m-1.75 2.491l1.75-.876m-1.75 2.492l1.75-.876"/><path d="M54.364 73.975v9.18l-.403 28.188"/><path d="M60.694 107.124l-6.733 4.219-5.924-4.219 4.577-23.611v-9.336h3.591"/><path d="M53.961 111.343l6.733-4.28-4.489-23.953-.045-9.295"/></g><g fill="none" stroke="#000" stroke-miterlimit="3.864" clip-rule="evenodd"><path stroke-width=".5" d="M84.755 93.623l-4.938-8.709 5.118-2.154-3.366-5.162 3.186-1.75-2.331-2.422 2.511-1.349-1.846-2.49 1.921-.931-1.401-1.722 1.419-.887-1.494-1.906"/><path stroke-width=".5" d="M85.131 64.741l-1.427.913 1.324 1.954-1.687.593 1.872 1.888-2.504 1.109 2.112 2.644-2.579 1.467 2.356 2.996-3.829 2.009 3.862 6.99-5.8 2.1m5.924 4.219l5.219-8.543-5.043-2.32 4.026-5.078-3.621-1.826 2.491-2.479-2.549-1.295 1.933-2.353-1.895-1.069 1.469-1.49-1.402-1.118 1.555-1.856"/><path stroke-width=".5" d="M85.323 64.744l1.556 1.289-1.547 1.579 1.785.837-1.809 1.55 2.424 1.484-2.398 2.367 3.092 1.612-3.014 2.856 3.762 2.133-4.09 6.86 5.731 2.288m-7.428-31.527l1.818.808m-1.818.808l1.818.808m-1.818.808l1.818.808m-1.818.808l1.818.808m0-4.848l1.749-.875m-1.749 2.491l1.749-.875m-1.749 2.491l1.749-.875m-1.749 2.491l1.749-.875"/><path d="M85.159 56.254v9.18l-.404 28.189"/><path d="M91.489 89.404l-6.734 4.219-5.924-4.219 4.578-23.611v-9.337h3.59"/><path d="M84.755 93.623l6.734-4.281-4.49-23.953-.045-9.295"/></g><g fill="none" stroke="#000" stroke-miterlimit="3.864" clip-rule="evenodd"><path stroke-width=".5" d="M84.552 129.064l-4.938-8.709 5.117-2.154-3.365-5.162 3.186-1.75-2.331-2.422 2.51-1.348-1.845-2.491 1.921-.931-1.401-1.722 1.419-.887-1.494-1.906"/><path stroke-width=".5" d="M84.928 100.182l-1.427.914 1.324 1.953-1.687.594 1.872 1.887-2.504 1.109 2.112 2.645-2.579 1.467 2.356 2.996-3.829 2.009 3.862 6.99-5.8 2.099m5.924 4.219l5.219-8.543-5.043-2.32 4.026-5.078-3.622-1.826 2.491-2.479-2.548-1.295 1.933-2.353-1.895-1.069 1.468-1.49-1.401-1.118 1.554-1.856"/><path stroke-width=".5" d="M85.12 100.186l1.556 1.289-1.547 1.579 1.785.837-1.81 1.55 2.425 1.483-2.398 2.367 3.092 1.612-3.014 2.856 3.762 2.134-4.091 6.859 5.732 2.288m-7.428-31.526l1.818.808m-1.818.807l1.818.809m-1.818.807l1.818.809m-1.818.807l1.818.808m0-4.847l1.749-.876m-1.749 2.492l1.749-.876m-1.749 2.492l1.749-.876m-1.749 2.491l1.749-.875"/><path d="M84.956 91.696v9.18l-.404 28.188"/><path d="M91.286 124.845l-6.734 4.219-5.924-4.219 4.578-23.611v-9.337h3.59"/><path d="M84.552 129.064l6.734-4.28-4.49-23.953-.045-9.295"/></g></svg>