<svg xmlns="http://www.w3.org/2000/svg" viewBox="0 0 339.896 157.331"><path fill="none" stroke="#b3b3b3" stroke-miterlimit="10" d="M44.401 4.533V65.15M55.517 4.533V65.15M66.632 4.533V65.15M77.747 4.533V65.15M88.863 4.533V65.15M99.979 4.533V65.15m11.115-60.617V65.15m11.115-60.617V65.15m11.115-60.617V65.15M144.44 4.533V65.15m11.115-60.617V65.15M166.67 4.533V65.15m11.116-60.617V65.15m11.115-60.617V65.15m11.116-60.617V65.15m11.115-60.617V65.15m11.115-60.617V65.15m11.116-60.617V65.15m11.116-60.617V65.15m11.115-60.617V65.15m11.115-60.617V65.15m11.115-60.617V65.15m11.115-60.617V65.15m11.117-60.617V65.15m11.115-60.617V65.15m11.115-60.617V65.15m11.115-60.617V65.15m-289 21.059v60.617m11.116-60.617v60.617m11.115-60.617v60.617m11.115-60.617v60.617m11.116-60.617v60.617m11.116-60.617v60.617m11.115-60.617v60.617m11.115-60.617v60.617m11.115-60.617v60.617m11.116-60.617v60.617m11.115-60.617v60.617m11.115-60.617v60.617m11.116-60.617v60.617m11.115-60.617v60.617m11.116-60.617v60.617m11.115-60.617v60.617m11.115-60.617v60.617m11.116-60.617v60.617m11.116-60.617v60.617m11.115-60.617v60.617m11.115-60.617v60.617m11.115-60.617v60.617m11.115-60.617v60.617m11.117-60.617v60.617m11.115-60.617v60.617m11.115-60.617v60.617m11.115-60.617v60.617"/><circle cx="44.401" cy="54.193" r="1.66" fill="#0071bc"/><circle cx="55.517" cy="54.193" r="1.66" fill="#0071bc"/><circle cx="66.632" cy="53.193" r="1.66" fill="#0071bc"/><circle cx="77.748" cy="52.193" r="1.66" fill="#0071bc"/><circle cx="88.863" cy="51.193" r="1.66" fill="#0071bc"/><circle cx="99.978" cy="49.193" r="1.66" fill="#0071bc"/><circle cx="111.094" cy="47.193" r="1.66" fill="#0071bc"/><circle cx="122.209" cy="48.193" r="1.66" fill="#0071bc"/><circle cx="133.324" cy="46.193" r="1.66" fill="#0071bc"/><circle cx="144.44" cy="44.193" r="1.66" fill="#0071bc"/><circle cx="155.555" cy="39.193" r="1.66" fill="#0071bc"/><circle cx="166.67" cy="34.193" r="1.66" fill="#0071bc"/><circle cx="177.786" cy="34.193" r="1.66" fill="#0071bc"/><circle cx="188.901" cy="33.193" r="1.66" fill="#0071bc"/><circle cx="200.017" cy="32.193" r="1.66" fill="#0071bc"/><circle cx="211.132" cy="29.193" r="1.66" fill="#0071bc"/><circle cx="222.247" cy="26.193" r="1.66" fill="#0071bc"/><circle cx="233.363" cy="24.193" r="1.66" fill="#0071bc"/><circle cx="244.478" cy="22.193" r="1.66" fill="#0071bc"/><circle cx="255.594" cy="19.193" r="1.66" fill="#0071bc"/><circle cx="266.709" cy="22.193" r="1.66" fill="#0071bc"/><circle cx="277.824" cy="10.193" r="1.66" fill="#0071bc"/><circle cx="288.939" cy="9.193" r="1.66" fill="#0071bc"/><circle cx="300.056" cy="6.193" r="1.66" fill="#0071bc"/><circle cx="311.171" cy="6.193" r="1.66" fill="#0071bc"/><circle cx="322.286" cy="7.193" r="1.66" fill="#0071bc"/><circle cx="333.401" cy="3.193" r="1.66" fill="#0071bc"/><path fill="none" stroke="#0071bc" stroke-miterlimit="10" d="M44.401 54.193h11.116l11.115-1 11.115-1 11.116-1 11.116-2 11.115-2 11.115 1 11.115-2 11.116-2 11.115-5 11.115-5h11.116l11.115-1 11.116-1 11.115-3 11.115-3 11.116-2 11.116-2 11.115-3 11.115 3 11.115-12 11.115-1 11.117-3h11.115l11.115 1 11.115-4"/><path fill="none" stroke="#000" stroke-miterlimit="10" d="M32.781 4.533V65.15h307.115"/><path d="M33.318 67.337h.693v4.356c0 1.359-.549 1.783-1.422 1.783a1.35 1.35 0 0 1-.45-.063l.063-.585c.09.027.207.036.333.036.486 0 .783-.198.783-1.161v-4.366zm3.96 5.078c0 .333 0 .711.045.99h-.621l-.045-.459h-.027c-.189.333-.495.531-.864.531-.585 0-1.036-.486-1.036-1.242 0-1.099.874-1.576 1.855-1.585v-.135c0-.585-.145-.99-.693-.99-.27 0-.513.081-.72.225l-.153-.486c.189-.135.585-.288 1.018-.288.873 0 1.242.576 1.242 1.549v1.89zm-.675-1.27c-.36 0-1.197.072-1.197 1.018 0 .576.288.774.531.774.306 0 .558-.226.639-.657a1.2 1.2 0 0 0 .027-.252v-.883zm1.656-.973c0-.513-.027-.773-.036-1.125h.603l.036.522h.018c.189-.352.54-.595.999-.595.604 0 1.054.441 1.054 1.504v2.926h-.693v-2.809c0-.522-.099-1.035-.603-1.035-.288 0-.567.243-.648.711a1.57 1.57 0 0 0-.036.387v2.746h-.693v-3.232zm4.86 3.233v-.45l.486-.666c.702-.973 1.521-2.07 1.521-3.169 0-.648-.279-1.044-.829-1.044-.423 0-.702.225-.846.323l-.171-.521a1.831 1.831 0 0 1 1.143-.396c.973 0 1.396.721 1.396 1.603 0 1.099-.72 2.17-1.449 3.151l-.387.54v.018h1.944v.612h-2.808zm4.879.072c-.909 0-1.458-1.081-1.458-2.989 0-1.972.585-3.007 1.54-3.007.945 0 1.44 1.125 1.44 2.989 0 2.134-.675 3.007-1.513 3.007h-.009zm.044-.595c.558 0 .783-.999.783-2.403 0-1.368-.225-2.403-.783-2.403-.567 0-.811.99-.811 2.403-.009 1.413.234 2.403.801 2.403h.01zm3.411-4.627h-.018l-.972.558-.135-.54 1.233-.72h.567v5.852h-.675v-5.15zm3.465 0H54.9l-.972.558-.135-.54 1.233-.72h.567v5.852h-.675v-5.15zM19.206 44.609c.837 0 1.26.702 1.26 1.378 0 .513-.243 1.008-.783 1.386v.019c.54.369.936.891.936 1.603 0 .909-.603 1.611-1.503 1.611-.972 0-1.458-.774-1.458-1.495 0-.828.486-1.35.963-1.683l-.009-.019c-.486-.333-.766-.846-.766-1.342 0-.899.639-1.458 1.351-1.458h.009zm-.063 5.483c.432 0 .792-.324.792-1.062 0-.675-.387-1.053-.837-1.35a1.564 1.564 0 0 0-.756 1.314c0 .657.297 1.098.792 1.098h.009zm.018-4.969c-.387 0-.648.368-.648.899 0 .595.36.892.72 1.126a1.33 1.33 0 0 0 .576-1.081c0-.566-.225-.944-.639-.944h-.009zm3.411 5.483c-.91 0-1.458-1.081-1.458-2.989 0-1.972.585-3.007 1.54-3.007.945 0 1.44 1.125 1.44 2.989 0 2.134-.675 3.007-1.513 3.007h-.009zm.045-.595c.558 0 .783-.999.783-2.403 0-1.368-.225-2.403-.783-2.403-.567 0-.81.99-.81 2.403-.009 1.413.234 2.403.801 2.403h.009zm3.42.595c-.91 0-1.458-1.081-1.458-2.989 0-1.972.585-3.007 1.54-3.007.945 0 1.44 1.125 1.44 2.989 0 2.134-.675 3.007-1.513 3.007h-.009zm.045-.595c.558 0 .783-.999.783-2.403 0-1.368-.225-2.403-.783-2.403-.567 0-.81.99-.81 2.403-.009 1.413.234 2.403.801 2.403h.009zM15.633 28.704h-.018l-.972.558-.135-.54 1.233-.72h.567v5.852h-.675v-5.15zm3.474 5.222c-.91 0-1.458-1.081-1.458-2.989 0-1.972.585-3.007 1.54-3.007.945 0 1.44 1.125 1.44 2.989 0 2.134-.675 3.007-1.513 3.007h-.009zm.045-.595c.558 0 .783-.999.783-2.403 0-1.368-.225-2.403-.783-2.403-.567 0-.81.99-.81 2.403-.009 1.413.234 2.403.801 2.403h.009zm3.42.595c-.91 0-1.458-1.081-1.458-2.989 0-1.972.585-3.007 1.54-3.007.945 0 1.44 1.125 1.44 2.989 0 2.134-.675 3.007-1.513 3.007h-.009zm.045-.595c.558 0 .783-.999.783-2.403 0-1.368-.225-2.403-.783-2.403-.567 0-.81.99-.81 2.403-.009 1.413.234 2.403.801 2.403h.009zm3.42.595c-.909 0-1.458-1.081-1.458-2.989 0-1.972.585-3.007 1.54-3.007.945 0 1.44 1.125 1.44 2.989 0 2.134-.675 3.007-1.513 3.007h-.009zm.045-.595c.558 0 .783-.999.783-2.403 0-1.368-.225-2.403-.783-2.403-.567 0-.811.99-.811 2.403-.009 1.413.234 2.403.801 2.403h.01zM2.087 57.387v1.107h-.621v-2.908h.621v1.107h5.446v.693H2.087zm2.214-1.926c-.368 0-.801.027-1.125.036v-.622l.684-.035v-.018c-.414-.144-.757-.513-.757-.918 0-.054 0-.099.01-.144h.711c-.009.045-.009.09-.009.144 0 .441.404.765.909.837.117.018.243.027.396.027h2.413v.693H4.301zm2.242-4.482c.333 0 .711 0 .99-.045v.621l-.459.045v.027c.333.189.531.495.531.864 0 .585-.486 1.036-1.242 1.036-1.099 0-1.576-.874-1.585-1.855h-.134c-.585 0-.99.145-.99.693 0 .27.081.513.225.72l-.486.153c-.135-.189-.288-.585-.288-1.018 0-.873.576-1.242 1.549-1.242h1.889zm-1.27.675c0 .36.072 1.197 1.018 1.197.576 0 .774-.288.774-.531 0-.306-.226-.558-.657-.639a1.2 1.2 0 0 0-.252-.027h-.883zm-.972-1.656c-.513 0-.773.027-1.125.036v-.603l.522-.036v-.018a1.105 1.105 0 0 1-.595-.999c0-.604.441-1.054 1.504-1.054h2.926v.693H4.725c-.522 0-1.035.099-1.035.603 0 .288.243.567.711.648.099.027.234.036.387.036h2.746v.693H4.301zm2.512-3.528c.099-.153.225-.423.225-.702 0-.387-.243-.639-.63-.639-.333 0-.567.117-.855.558-.369.567-.747.873-1.242.873-.712 0-1.207-.522-1.207-1.197 0-.342.108-.594.226-.774l.522.18a.994.994 0 0 0-.198.585c0 .369.27.558.558.558s.459-.108.747-.54c.324-.504.729-.9 1.333-.9.873 0 1.296.594 1.296 1.314 0 .315-.099.666-.252.855l-.523-.171zm.72-2.862H3.698v.549h-.522v-.549h-.27c-.469 0-.955-.072-1.306-.387a1.18 1.18 0 0 1-.369-.874c0-.234.045-.414.107-.54l.541.108a.982.982 0 0 0-.072.387c0 .495.531.612 1.089.612h.279v-.792h.522v.792h3.835v.694zm-2.115-2.394c1.341-.009 1.62-.531 1.62-1.026 0-.306-.072-.549-.162-.72l.504-.117c.136.243.207.612.207.963 0 1.035-.846 1.576-2.188 1.576-1.413 0-2.296-.594-2.296-1.468 0-.882.937-1.242 1.918-1.242.171 0 .288.009.396.018v2.016zm-.514-1.368c-.873-.009-1.261.315-1.261.648 0 .45.667.684 1.261.711v-1.359zm-.603-1.404c-.368 0-.801.027-1.125.036v-.622l.685-.036v-.018c-.414-.144-.757-.513-.757-.918 0-.054 0-.099.01-.144h.711c-.009.045-.009.09-.009.144 0 .441.404.765.909.837.117.018.243.027.396.027h2.413v.693H4.301zm2.431-3.572c.126-.207.242-.567.242-.873 0-.63-.414-1.008-1.026-1.008-.558 0-.899.324-1.26.801-.333.477-.9 1.143-1.684 1.143-.918 0-1.594-.648-1.594-1.602 0-.378.126-.711.226-.855l.594.171a1.276 1.276 0 0 0-.207.72c0 .594.45.874.864.874.604 0 .847-.315 1.252-.892.513-.729 1.071-1.053 1.746-1.053 1.044 0 1.701.738 1.701 1.702 0 .414-.135.855-.27 1.026l-.584-.154zm-4.231-3.654c0 .225-.181.396-.45.396-.271 0-.45-.18-.45-.405 0-.252.18-.414.45-.414s.45.162.45.414v.009zm5.032.324H3.176v-.693h4.357v.693zm-.423-1.314l-2.701-1.377c-.216-.117-.45-.252-.639-.351h-.018v1.558h-.576v-2.332h.459l2.656 1.369c.216.117.45.252.648.351h.018v-1.71h.576v2.494H7.11zm-1.692-3.537c1.341-.009 1.62-.531 1.62-1.026 0-.306-.072-.549-.162-.72l.504-.117c.136.243.207.612.207.963 0 1.035-.846 1.576-2.188 1.576-1.413 0-2.296-.594-2.296-1.468 0-.882.937-1.242 1.918-1.242.171 0 .288.009.396.018v2.016zm-.514-1.369c-.873-.009-1.261.315-1.261.648 0 .45.667.684 1.261.711V25.32zm-3.6-4.392c.81.513 2.025.937 3.664.937 1.611 0 2.826-.423 3.646-.937v.54c-.684.469-1.891.982-3.656.982-1.764-.018-2.979-.513-3.654-.981v-.541zm.162-.764v-.693h2.881v-.018a31.059 31.059 0 0 0-.729-.378L1.467 17.95v-.774l2.593 1.485 3.475-1.521v.747l-2.926 1.242.585.342h2.341v.693H1.466zm.09-3.636a4.217 4.217 0 0 1-.117-1.018c0-.549.117-1.017.414-1.341.252-.261.612-.396 1.044-.396.621 0 1.116.342 1.351.936h.027c.18-.702.747-1.125 1.548-1.125.495 0 .9.162 1.198.432.387.342.549.909.549 1.603 0 .45-.027.72-.063.909H1.556zm2.493-.693v-.315c0-.567-.44-1.053-1.071-1.053-.566 0-.999.261-.999.999 0 .162.018.288.045.369h2.025zm2.944 0c.018-.081.027-.198.027-.351 0-.711-.424-1.179-1.207-1.179-.837 0-1.233.576-1.242 1.224v.306h2.422zm1.62-2.736c-.81-.513-2.043-.936-3.664-.936-1.62 0-2.836.423-3.646.936v-.54c.666-.468 1.863-.981 3.646-.981 1.783.018 2.971.513 3.664.981v.54zm7.02-10.715h-.018l-.972.558-.135-.54 1.233-.72h.567v5.852h-.675v-5.15zm2.178 4.402c.18.107.495.243.846.243.603 0 1.008-.441 1.008-1.161 0-.766-.477-1.216-1.18-1.216h-.162V4.13h.135c.414 0 1.053-.314 1.053-1.044 0-.595-.315-.9-.774-.9-.288 0-.541.145-.729.279l-.144-.522c.207-.171.604-.333 1.044-.333.828 0 1.296.585 1.296 1.342 0 .594-.306 1.116-.873 1.377v.019c.522.144 1.026.611 1.026 1.539 0 .945-.612 1.72-1.675 1.72-.378 0-.792-.108-1.026-.271l.155-.55zm4.761.82c-.91 0-1.458-1.081-1.458-2.989 0-1.972.585-3.007 1.54-3.007.945 0 1.44 1.125 1.44 2.989 0 2.134-.675 3.007-1.513 3.007h-.009zm.045-.595c.558 0 .783-.999.783-2.403 0-1.368-.225-2.403-.783-2.403-.567 0-.81.99-.81 2.403-.009 1.413.234 2.403.801 2.403h.009zm3.42.595c-.909 0-1.458-1.081-1.458-2.989 0-1.972.585-3.007 1.54-3.007.945 0 1.44 1.125 1.44 2.989 0 2.134-.675 3.007-1.513 3.007h-.009zm.045-.595c.558 0 .783-.999.783-2.403 0-1.368-.225-2.403-.783-2.403-.567 0-.811.99-.811 2.403-.009 1.413.234 2.403.801 2.403h.01zm53.512 63.783c-.045-.802-.09-1.693-.063-2.377h-.036a33.457 33.457 0 0 1-.486 2.106l-.738 2.845h-.45l-.703-2.728a27.371 27.371 0 0 1-.504-2.224h-.027c.009.711-.036 1.558-.072 2.422l-.117 2.565h-.621l.36-6.067h.756l.702 2.772c.207.801.36 1.396.486 2.089h.027c.117-.693.252-1.27.45-2.089l.685-2.772h.774l.351 6.067h-.648l-.126-2.609zm3.96 1.621c0 .333 0 .711.045.99h-.621l-.045-.459h-.027c-.189.333-.495.531-.864.531-.585 0-1.036-.486-1.036-1.242 0-1.099.874-1.576 1.854-1.585v-.135c0-.585-.144-.99-.693-.99-.27 0-.513.081-.72.225l-.153-.486c.189-.135.585-.288 1.018-.288.873 0 1.242.576 1.242 1.549v1.89zm-.676-1.27c-.36 0-1.197.072-1.197 1.018 0 .576.288.774.531.774.306 0 .558-.226.639-.657a1.2 1.2 0 0 0 .027-.252v-.883zm1.926-2.098l.576 2.503c.081.342.117.621.18.9h.018c.045-.252.117-.576.189-.892l.513-2.512h.684l-.711 2.8c-.271 1.09-.567 2.143-1.081 2.809-.306.388-.63.586-.783.657l-.252-.585c.198-.117.423-.306.612-.549.18-.234.324-.522.396-.738a.578.578 0 0 0 .045-.216c0-.055 0-.108-.018-.162l-1.098-4.016h.73zm3.969 4.358v-.45l.486-.666c.702-.973 1.521-2.07 1.521-3.169 0-.648-.279-1.044-.829-1.044-.423 0-.702.225-.846.323l-.171-.521a1.831 1.831 0 0 1 1.143-.396c.973 0 1.396.721 1.396 1.603 0 1.099-.72 2.17-1.449 3.151l-.387.54v.018h1.945v.612h-2.809zm4.878.072c-.909 0-1.458-1.081-1.458-2.989 0-1.972.585-3.007 1.54-3.007.945 0 1.44 1.125 1.44 2.989 0 2.134-.675 3.007-1.513 3.007h-.009zm.045-.595c.558 0 .783-.999.783-2.403 0-1.368-.225-2.403-.783-2.403-.567 0-.811.99-.811 2.403-.009 1.413.234 2.403.801 2.403h.01zm3.411-4.627h-.018l-.972.558-.135-.54 1.233-.72h.567v5.852h-.675v-5.15zm3.465 0h-.018l-.972.558-.135-.54 1.233-.72h.567v5.852h-.675v-5.15zm19.289 4.349c.207.126.567.242.873.242.63 0 1.008-.414 1.008-1.026 0-.558-.324-.899-.801-1.26-.477-.333-1.143-.9-1.143-1.684 0-.918.648-1.594 1.602-1.594.378 0 .711.126.855.226l-.171.594a1.276 1.276 0 0 0-.72-.207c-.594 0-.874.45-.874.864 0 .604.315.847.892 1.252.729.513 1.053 1.071 1.053 1.746 0 1.044-.738 1.701-1.702 1.701-.414 0-.855-.135-1.026-.27l.154-.584zm3.879-1.314c.009 1.341.531 1.62 1.026 1.62.306 0 .549-.072.72-.162l.117.504c-.243.136-.612.207-.963.207-1.035 0-1.576-.846-1.576-2.188 0-1.413.594-2.296 1.468-2.296.882 0 1.242.937 1.242 1.918 0 .171-.009.288-.018.396h-2.016zm1.368-.514c.009-.873-.315-1.261-.648-1.261-.45 0-.684.667-.711 1.261h1.359zm1.403-.369c0-.666-.027-1.053-.036-1.359h.622l.036.549h.018c.234-.459.585-.621.918-.621.765 0 1.26.802 1.26 2.242 0 1.62-.666 2.26-1.341 2.26-.414 0-.648-.252-.765-.495h-.018v2.151h-.693v-4.727zm.694 1.404c0 .126.009.252.036.36.135.621.441.729.63.729.576 0 .765-.792.765-1.666 0-.909-.216-1.665-.765-1.665-.315 0-.603.396-.639.792-.027.108-.027.216-.027.333v1.117zm3.752-3.781v1.018h.837v.522h-.837v2.593c0 .576.198.72.45.72.117 0 .207-.009.279-.026l.036.531a1.522 1.522 0 0 1-.513.071c-.279 0-.522-.071-.684-.261-.18-.198-.261-.495-.261-1.099V69.57h-.531v-.522h.531v-.738l.693-.28zm2.664 5.375v-.45l.486-.666c.702-.973 1.521-2.07 1.521-3.169 0-.648-.279-1.044-.829-1.044-.423 0-.702.225-.846.323l-.171-.521a1.831 1.831 0 0 1 1.143-.396c.973 0 1.396.721 1.396 1.603 0 1.099-.72 2.17-1.449 3.151l-.387.54v.018h1.945v.612h-2.809zm4.878.072c-.909 0-1.458-1.081-1.458-2.989 0-1.972.585-3.007 1.54-3.007.945 0 1.44 1.125 1.44 2.989 0 2.134-.675 3.007-1.513 3.007h-.009zm.045-.595c.558 0 .783-.999.783-2.403 0-1.368-.225-2.403-.783-2.403-.567 0-.811.99-.811 2.403-.009 1.413.234 2.403.801 2.403h.01zm3.412-4.627h-.018l-.972.558-.135-.54 1.233-.72h.567v5.852h-.675v-5.15zm3.464 0h-.018l-.972.558-.135-.54 1.233-.72h.567v5.852h-.675v-5.15zm21.283-.918h.693v4.356c0 1.359-.549 1.783-1.422 1.783a1.35 1.35 0 0 1-.45-.063l.063-.585c.09.027.207.036.333.036.486 0 .783-.198.783-1.161v-4.366zm3.96 5.078c0 .333 0 .711.045.99h-.621l-.045-.459h-.027c-.189.333-.495.531-.864.531-.585 0-1.036-.486-1.036-1.242 0-1.099.874-1.576 1.855-1.585v-.135c0-.585-.145-.99-.693-.99-.27 0-.513.081-.72.225l-.153-.486c.189-.135.585-.288 1.018-.288.873 0 1.242.576 1.242 1.549v1.89zm-.675-1.27c-.36 0-1.197.072-1.197 1.018 0 .576.288.774.531.774.306 0 .558-.226.639-.657a1.2 1.2 0 0 0 .027-.252v-.883zm1.656-.973c0-.513-.027-.773-.036-1.125h.603l.036.522h.018c.189-.352.54-.595.999-.595.604 0 1.054.441 1.054 1.504v2.926h-.694v-2.809c0-.522-.099-1.035-.603-1.035-.288 0-.567.243-.648.711a1.57 1.57 0 0 0-.036.387v2.746h-.693v-3.232zm4.86 3.233v-.45l.486-.666c.701-.973 1.521-2.07 1.521-3.169 0-.648-.279-1.044-.829-1.044-.423 0-.702.225-.847.323l-.17-.521a1.829 1.829 0 0 1 1.143-.396c.973 0 1.396.721 1.396 1.603 0 1.099-.72 2.17-1.449 3.151l-.388.54v.018h1.945v.612h-2.808zm4.879.072c-.91 0-1.459-1.081-1.459-2.989 0-1.972.585-3.007 1.539-3.007.945 0 1.441 1.125 1.441 2.989 0 2.134-.676 3.007-1.514 3.007h-.007zm.045-.595c.558 0 .783-.999.783-2.403 0-1.368-.226-2.403-.783-2.403-.568 0-.811.99-.811 2.403-.01 1.413.234 2.403.801 2.403h.01zm3.41-4.627h-.018l-.973.558-.135-.54 1.232-.72h.568v5.852h-.676v-5.15zm2.06 5.15v-.45l.486-.666c.702-.973 1.521-2.07 1.521-3.169 0-.648-.279-1.044-.828-1.044-.424 0-.703.225-.847.323l-.171-.521a1.831 1.831 0 0 1 1.143-.396c.973 0 1.396.721 1.396 1.603 0 1.099-.721 2.17-1.449 3.151l-.388.54v.018h1.944v.612h-2.807zm26.08-2.611c-.045-.802-.09-1.693-.062-2.377h-.037a33.457 33.457 0 0 1-.486 2.106l-.738 2.845h-.449l-.703-2.728a27.8 27.8 0 0 1-.504-2.224h-.026c.009.711-.036 1.558-.072 2.422l-.117 2.565h-.621l.36-6.067h.756l.703 2.772c.207.801.359 1.396.485 2.089h.027c.116-.693.252-1.27.45-2.089l.684-2.772h.774l.351 6.067h-.647l-.128-2.609zm3.959 1.621c0 .333 0 .711.045.99h-.621l-.045-.459h-.026c-.188.333-.495.531-.864.531-.586 0-1.035-.486-1.035-1.242 0-1.099.873-1.576 1.854-1.585v-.135c0-.585-.143-.99-.692-.99a1.24 1.24 0 0 0-.72.225l-.154-.486c.189-.135.586-.288 1.018-.288.873 0 1.242.576 1.242 1.549v1.89zm-.674-1.27c-.36 0-1.197.072-1.197 1.018 0 .576.288.774.531.774.306 0 .558-.226.64-.657.018-.081.026-.171.026-.252v-.883zm1.925-2.098l.576 2.503c.081.342.117.621.181.9h.018c.045-.252.117-.576.189-.892l.513-2.512h.685l-.711 2.8c-.271 1.09-.568 2.143-1.081 2.809-.306.388-.63.586-.783.657l-.252-.585c.198-.117.423-.306.612-.549.18-.234.324-.522.396-.738a.6.6 0 0 0 .045-.216c0-.055 0-.108-.019-.162l-1.099-4.016h.73zm3.969 4.358v-.45l.486-.666c.702-.973 1.521-2.07 1.521-3.169 0-.648-.279-1.044-.829-1.044-.422 0-.701.225-.846.323l-.171-.521a1.832 1.832 0 0 1 1.144-.396c.973 0 1.395.721 1.395 1.603 0 1.099-.72 2.17-1.449 3.151l-.387.54v.018h1.945v.612h-2.809zm4.878.072c-.908 0-1.458-1.081-1.458-2.989 0-1.972.585-3.007 1.54-3.007.945 0 1.439 1.125 1.439 2.989 0 2.134-.675 3.007-1.512 3.007h-.009zm.045-.595c.559 0 .783-.999.783-2.403 0-1.368-.225-2.403-.783-2.403-.566 0-.811.99-.811 2.403-.008 1.413.234 2.403.802 2.403h.009zm3.411-4.627h-.019l-.972.558-.135-.54 1.233-.72h.566v5.852h-.675v-5.15zm2.062 5.15v-.45l.486-.666c.701-.973 1.521-2.07 1.521-3.169 0-.648-.279-1.044-.829-1.044-.423 0-.702.225-.847.323l-.17-.521a1.829 1.829 0 0 1 1.143-.396c.973 0 1.396.721 1.396 1.603 0 1.099-.72 2.17-1.449 3.151l-.388.54v.018h1.945v.612h-2.808zm20.693-.801c.207.126.566.242.873.242.63 0 1.008-.414 1.008-1.026 0-.558-.324-.899-.801-1.26-.478-.333-1.144-.9-1.144-1.684 0-.918.647-1.594 1.603-1.594.378 0 .711.126.855.226l-.172.594a1.27 1.27 0 0 0-.72-.207c-.595 0-.874.45-.874.864 0 .604.316.847.893 1.252.729.513 1.053 1.071 1.053 1.746 0 1.044-.738 1.701-1.701 1.701-.414 0-.855-.135-1.027-.27l.154-.584zm3.879-1.314c.009 1.341.531 1.62 1.025 1.62.307 0 .55-.072.721-.162l.117.504c-.243.136-.612.207-.963.207-1.035 0-1.576-.846-1.576-2.188 0-1.413.594-2.296 1.468-2.296.882 0 1.242.937 1.242 1.918 0 .171-.009.288-.019.396h-2.015zm1.368-.514c.009-.873-.315-1.261-.648-1.261-.45 0-.685.667-.711 1.261h1.359zm1.403-.369c0-.666-.027-1.053-.037-1.359h.622l.036.549h.018c.234-.459.586-.621.918-.621.766 0 1.261.802 1.261 2.242 0 1.62-.666 2.26-1.341 2.26-.414 0-.648-.252-.766-.495h-.018v2.151h-.693v-4.727zm.694 1.404c0 .126.008.252.035.36.135.621.441.729.631.729.576 0 .765-.792.765-1.666 0-.909-.216-1.665-.765-1.665-.315 0-.604.396-.64.792-.026.108-.026.216-.026.333v1.117zm3.752-3.781v1.018h.838v.522h-.838v2.593c0 .576.198.72.451.72.116 0 .207-.009.278-.026l.036.531a1.524 1.524 0 0 1-.514.071c-.279 0-.521-.071-.684-.261-.18-.198-.262-.495-.262-1.099V69.57h-.531v-.522h.531v-.738l.695-.28zm2.664 5.375v-.45l.486-.666c.702-.973 1.521-2.07 1.521-3.169 0-.648-.279-1.044-.828-1.044-.424 0-.703.225-.847.323l-.171-.521a1.831 1.831 0 0 1 1.143-.396c.973 0 1.396.721 1.396 1.603 0 1.099-.721 2.17-1.449 3.151l-.388.54v.018h1.944v.612h-2.807zm4.879.072c-.91 0-1.459-1.081-1.459-2.989 0-1.972.585-3.007 1.539-3.007.945 0 1.441 1.125 1.441 2.989 0 2.134-.676 3.007-1.514 3.007h-.007zm.045-.595c.558 0 .783-.999.783-2.403 0-1.368-.226-2.403-.783-2.403-.568 0-.811.99-.811 2.403-.01 1.413.234 2.403.801 2.403h.01zm3.41-4.627h-.018l-.973.558-.135-.54 1.234-.72h.566v5.852h-.676v-5.15zm2.06 5.15v-.45l.486-.666c.703-.973 1.521-2.07 1.521-3.169 0-.648-.279-1.044-.828-1.044-.423 0-.702.225-.846.323l-.172-.521a1.834 1.834 0 0 1 1.144-.396c.973 0 1.396.721 1.396 1.603 0 1.099-.721 2.17-1.449 3.151l-.387.54v.018h1.943v.612H277.4zm22.688-6.068h.693v4.356c0 1.359-.549 1.783-1.423 1.783a1.35 1.35 0 0 1-.45-.063l.062-.585c.091.027.207.036.334.036.486 0 .783-.198.783-1.161v-4.366zm3.96 5.078c0 .333 0 .711.045.99h-.621l-.045-.459h-.027c-.189.333-.496.531-.865.531-.585 0-1.035-.486-1.035-1.242 0-1.099.873-1.576 1.855-1.585v-.135c0-.585-.145-.99-.693-.99-.271 0-.514.081-.721.225l-.153-.486c.189-.135.585-.288 1.018-.288.873 0 1.242.576 1.242 1.549v1.89zm-.675-1.27c-.36 0-1.197.072-1.197 1.018 0 .576.287.774.531.774.306 0 .558-.226.639-.657a1.2 1.2 0 0 0 .027-.252v-.883zm1.656-.973c0-.513-.027-.773-.037-1.125h.604l.036.522h.019c.188-.352.539-.595.998-.595.604 0 1.055.441 1.055 1.504v2.926h-.693v-2.809c0-.522-.1-1.035-.604-1.035-.288 0-.567.243-.648.711a1.57 1.57 0 0 0-.036.387v2.746h-.692v-3.232zm4.86 3.233v-.45l.486-.666c.701-.973 1.521-2.07 1.521-3.169 0-.648-.279-1.044-.829-1.044-.423 0-.702.225-.847.323l-.17-.521a1.829 1.829 0 0 1 1.143-.396c.973 0 1.396.721 1.396 1.603 0 1.099-.72 2.17-1.449 3.151l-.388.54v.018h1.945v.612h-2.808zm4.879.072c-.91 0-1.459-1.081-1.459-2.989 0-1.972.585-3.007 1.539-3.007.945 0 1.441 1.125 1.441 2.989 0 2.134-.676 3.007-1.514 3.007h-.007zm.044-.595c.558 0 .783-.999.783-2.403 0-1.368-.226-2.403-.783-2.403-.568 0-.811.99-.811 2.403-.01 1.413.234 2.403.801 2.403h.01zm3.411-4.627h-.018l-.973.558-.135-.54 1.232-.72h.568v5.852h-.676v-5.15zm2.177 4.403c.18.107.495.243.846.243.604 0 1.009-.441 1.009-1.161 0-.766-.478-1.216-1.179-1.216h-.162v-.522h.135c.414 0 1.053-.314 1.053-1.044 0-.595-.314-.9-.773-.9-.289 0-.541.145-.73.279l-.144-.522c.207-.171.604-.333 1.044-.333.828 0 1.297.585 1.297 1.342 0 .594-.307 1.116-.873 1.377v.019c.521.144 1.025.611 1.025 1.539 0 .945-.611 1.72-1.674 1.72-.378 0-.792-.108-1.026-.271l.152-.55z"/><circle cx="44.401" cy="136.869" r="1.66" fill="#f7931e"/><circle cx="55.517" cy="133.869" r="1.66" fill="#f7931e"/><circle cx="66.632" cy="133.869" r="1.66" fill="#f7931e"/><circle cx="77.748" cy="129.869" r="1.66" fill="#f7931e"/><circle cx="88.863" cy="125.869" r="1.66" fill="#f7931e"/><circle cx="99.978" cy="121.869" r="1.66" fill="#f7931e"/><circle cx="111.094" cy="113.869" r="1.66" fill="#f7931e"/><circle cx="122.209" cy="121.869" r="1.66" fill="#f7931e"/><circle cx="133.324" cy="113.869" r="1.66" fill="#f7931e"/><circle cx="144.44" cy="109.869" r="1.66" fill="#f7931e"/><circle cx="155.555" cy="109.869" r="1.66" fill="#f7931e"/><circle cx="166.67" cy="101.869" r="1.66" fill="#f7931e"/><circle cx="177.786" cy="101.869" r="1.66" fill="#f7931e"/><circle cx="188.901" cy="101.869" r="1.66" fill="#f7931e"/><circle cx="200.017" cy="101.869" r="1.66" fill="#f7931e"/><circle cx="211.132" cy="109.869" r="1.66" fill="#f7931e"/><circle cx="222.247" cy="117.869" r="1.66" fill="#f7931e"/><circle cx="233.363" cy="114.869" r="1.66" fill="#f7931e"/><circle cx="244.478" cy="109.869" r="1.66" fill="#f7931e"/><circle cx="255.594" cy="101.869" r="1.66" fill="#f7931e"/><circle cx="266.709" cy="121.869" r="1.66" fill="#f7931e"/><circle cx="277.824" cy="105.869" r="1.66" fill="#f7931e"/><circle cx="288.939" cy="101.869" r="1.66" fill="#f7931e"/><circle cx="300.056" cy="93.869" r="1.66" fill="#f7931e"/><circle cx="311.171" cy="93.869" r="1.66" fill="#f7931e"/><circle cx="322.286" cy="93.869" r="1.66" fill="#f7931e"/><circle cx="333.401" cy="85.869" r="1.66" fill="#f7931e"/><path fill="none" stroke="#f7931e" stroke-miterlimit="10" d="M44.401 136.869l11.116-3h11.115l11.115-4 11.116-4 11.116-4 11.115-8 11.115 8 11.115-8 11.116-4h11.115l11.115-8h33.347l11.115 8 11.115 8 11.116-3 11.116-5 11.115-8 11.115 20 11.115-16 11.115-4 11.117-8h22.23l11.115-8"/><path fill="none" stroke="#000" stroke-miterlimit="10" d="M32.781 86.209v60.617h307.115"/><path d="M33.318 149.013h.693v4.356c0 1.359-.549 1.783-1.422 1.783a1.35 1.35 0 0 1-.45-.063l.063-.585c.09.027.207.036.333.036.486 0 .783-.198.783-1.161v-4.366zm3.96 5.077c0 .333 0 .711.045.99h-.621l-.045-.459h-.027c-.189.333-.495.531-.864.531-.585 0-1.036-.486-1.036-1.242 0-1.099.874-1.576 1.855-1.585v-.135c0-.585-.145-.99-.693-.99-.27 0-.513.081-.72.225l-.153-.486c.189-.135.585-.288 1.018-.288.873 0 1.242.576 1.242 1.549v1.89zm-.675-1.269c-.36 0-1.197.072-1.197 1.018 0 .576.288.774.531.774.306 0 .558-.226.639-.657a1.2 1.2 0 0 0 .027-.252v-.883zm1.656-.973c0-.513-.027-.773-.036-1.125h.603l.036.522h.018c.189-.352.54-.595.999-.595.604 0 1.054.441 1.054 1.504v2.926h-.693v-2.809c0-.522-.099-1.035-.603-1.035-.288 0-.567.243-.648.711a1.57 1.57 0 0 0-.036.387v2.746h-.693v-3.232zm4.86 3.233v-.45l.486-.666c.702-.973 1.521-2.07 1.521-3.169 0-.648-.279-1.044-.829-1.044-.423 0-.702.225-.846.323l-.171-.521a1.831 1.831 0 0 1 1.143-.396c.973 0 1.396.721 1.396 1.603 0 1.099-.72 2.17-1.449 3.151l-.387.54v.018h1.944v.612h-2.808zm4.879.072c-.909 0-1.458-1.081-1.458-2.989 0-1.972.585-3.007 1.54-3.007.945 0 1.44 1.125 1.44 2.989 0 2.134-.675 3.007-1.513 3.007h-.009zm.044-.595c.558 0 .783-.999.783-2.403 0-1.368-.225-2.403-.783-2.403-.567 0-.811.99-.811 2.403-.009 1.413.234 2.403.801 2.403h.01zm3.411-4.627h-.018l-.972.558-.135-.54 1.233-.72h.567v5.852h-.675v-5.15zm3.465 0H54.9l-.972.558-.135-.54 1.233-.72h.567v5.852h-.675v-5.15zm-30.897-6.309v.414l-1.891 5.438h-.675l1.855-5.222v-.018h-2.107v-.612h2.818zm3.312.612h-1.576l-.243 1.558c.072-.019.135-.019.216-.019.315 0 .81.145 1.116.441.315.306.495.738.495 1.332 0 1.171-.738 1.999-1.773 1.999-.36 0-.765-.1-1-.252l.153-.55c.18.1.495.226.819.226.594 0 1.107-.45 1.107-1.351 0-.928-.567-1.314-1.323-1.314-.216 0-.351.009-.459.027l.369-2.71h2.098v.613zm-4.662-40.949c.837 0 1.261.702 1.261 1.378 0 .513-.243 1.008-.783 1.386v.019c.54.369.936.891.936 1.603 0 .909-.603 1.611-1.503 1.611-.972 0-1.458-.774-1.458-1.495 0-.828.486-1.35.963-1.683l-.009-.019c-.486-.333-.766-.846-.766-1.342 0-.899.64-1.458 1.351-1.458h.008zm-.063 5.482c.432 0 .792-.324.792-1.062 0-.675-.387-1.053-.837-1.35a1.564 1.564 0 0 0-.756 1.314c0 .657.297 1.098.792 1.098h.009zm.018-4.969c-.387 0-.648.368-.648.899 0 .595.36.892.72 1.126a1.33 1.33 0 0 0 .576-1.081c0-.566-.225-.944-.639-.944h-.009zm4.707.171h-1.576l-.243 1.558c.072-.019.135-.019.216-.019.315 0 .81.145 1.116.441.315.306.495.738.495 1.332 0 1.171-.738 1.999-1.773 1.999-.36 0-.765-.1-1-.252l.153-.55c.18.1.495.226.819.226.594 0 1.107-.45 1.107-1.351 0-.928-.567-1.314-1.323-1.314-.216 0-.351.009-.459.027l.369-2.71h2.098v.613zm-4.662 19.316c.837 0 1.261.702 1.261 1.378 0 .513-.243 1.008-.783 1.386v.019c.54.369.936.891.936 1.603 0 .909-.603 1.611-1.503 1.611-.972 0-1.458-.774-1.458-1.495 0-.828.486-1.35.963-1.683l-.009-.019c-.486-.333-.766-.846-.766-1.342 0-.899.64-1.458 1.351-1.458h.008zm-.063 5.482c.432 0 .792-.324.792-1.062 0-.675-.387-1.053-.837-1.35a1.564 1.564 0 0 0-.756 1.314c0 .657.297 1.098.792 1.098h.009zm.018-4.969c-.387 0-.648.368-.648.899 0 .595.36.892.72 1.126a1.33 1.33 0 0 0 .576-1.081c0-.566-.225-.944-.639-.944h-.009zm3.411 5.483c-.909 0-1.458-1.081-1.458-2.989 0-1.972.585-3.007 1.54-3.007.945 0 1.44 1.125 1.44 2.989 0 2.134-.675 3.007-1.513 3.007h-.009zm.045-.595c.558 0 .783-.999.783-2.403 0-1.368-.225-2.403-.783-2.403-.567 0-.811.99-.811 2.403-.009 1.413.234 2.403.801 2.403h.01zm-23.995 6.417v1.107h-.621v-2.908h.621v1.107h5.446v.693H2.087zm5.518-3.097c0 .783-.712 1.413-2.242 1.413-1.593 0-2.26-.711-2.26-1.458 0-.783.721-1.405 2.242-1.405 1.692 0 2.26.775 2.26 1.441v.009zm-.549-.036c0-.594-1.017-.721-1.701-.721-.675 0-1.701.127-1.701.738 0 .621 1.026.738 1.701.738.721 0 1.701-.125 1.701-.746v-.009zm-4.898-3.033h1.018v-.836h.522v.836h2.593c.576 0 .72-.197.72-.449 0-.117-.009-.207-.026-.279l.531-.036c.045.126.071.288.071.513 0 .279-.071.522-.261.685-.198.181-.495.261-1.099.261H3.698v.531h-.522v-.531h-.739l-.279-.695zm4.385-3.744c.333 0 .711 0 .99-.045v.621l-.459.045v.027c.333.189.531.495.531.864 0 .585-.486 1.036-1.242 1.036-1.099 0-1.576-.874-1.585-1.855h-.134c-.585 0-.99.145-.99.693 0 .27.081.514.225.721l-.486.152c-.135-.189-.288-.585-.288-1.018 0-.873.576-1.242 1.549-1.242h1.889zm-1.27.676c0 .359.072 1.197 1.018 1.197.576 0 .774-.288.774-.531 0-.307-.226-.559-.657-.639a1.137 1.137 0 0 0-.252-.027h-.883zm-3.969-1.657v-.692h6.229v.692H1.304zm.252-3.185a3.944 3.944 0 0 1-.117-.999c0-.603.126-1.054.432-1.368.307-.297.712-.424 1.188-.424.774 0 1.278.361 1.566.973h.019c.135-.45.567-.684 1.359-.811.828-.144 1.341-.261 1.53-.351v.702c-.18.09-.756.207-1.494.324-.838.135-1.144.396-1.144.99v.27h2.638v.693H1.556zm2.799-.693v-.287c0-.666-.486-1.107-1.216-1.107-.693 0-1.134.287-1.144 1.035 0 .135.01.27.036.359h2.324zm1.063-3.42c1.341-.009 1.62-.531 1.62-1.025 0-.307-.072-.55-.162-.721l.504-.117c.136.243.207.612.207.963 0 1.035-.846 1.576-2.188 1.576-1.413 0-2.296-.594-2.296-1.468 0-.882.937-1.242 1.918-1.242.171 0 .288.009.396.019v2.015zm-.514-1.369c-.873-.009-1.261.315-1.261.648 0 .45.667.685 1.261.711v-1.359zm2.179-3.348v.027c.297.145.522.45.522.838 0 .701-.766 1.26-2.197 1.26-1.539 0-2.305-.639-2.305-1.368 0-.271.126-.603.576-.81l.01-.019-.514-.036v-.621c.297.009.693.036 1.359.036h4.727v.692H7.083zm-2.277 0c-.09 0-.207 0-.288.019-.459.054-.819.324-.819.64 0 .566.756.773 1.674.773.919 0 1.657-.225 1.657-.765 0-.207-.126-.486-.721-.63-.117-.037-.252-.037-.378-.037H4.806zm1.539-4.266c.478 0 .864-.027 1.188-.035v.603l-.459.054v.019c.216.126.531.459.531.927 0 .756-.595 1.062-1.675 1.062H3.176v-.693h2.656c.675 0 1.188-.107 1.188-.585 0-.405-.379-.585-.586-.621a1.775 1.775 0 0 0-.387-.036H3.176v-.693h3.169zm-.927-1.457c1.341-.01 1.62-.531 1.62-1.026 0-.306-.072-.55-.162-.72l.504-.117c.136.242.207.611.207.963 0 1.035-.846 1.576-2.188 1.576-1.413 0-2.296-.595-2.296-1.469 0-.882.937-1.242 1.918-1.242.171 0 .288.01.396.019v2.016zm-.514-1.369c-.873-.008-1.261.316-1.261.648 0 .451.667.685 1.261.711v-1.359zm1.909-1.295c.099-.152.225-.423.225-.701 0-.388-.243-.64-.63-.64-.333 0-.567.117-.855.558-.369.568-.747.873-1.242.873-.712 0-1.207-.521-1.207-1.197 0-.342.108-.594.226-.773l.522.18a1 1 0 0 0-.198.586c0 .369.27.558.558.558s.459-.108.747-.54c.324-.504.729-.9 1.333-.9.873 0 1.296.594 1.296 1.314 0 .314-.099.666-.252.855l-.523-.173zm-4.655-3.564h1.018v-.836h.522v.836h2.593c.576 0 .72-.197.72-.449 0-.117-.009-.207-.026-.279l.531-.036c.045.126.071.288.071.513 0 .279-.071.522-.261.685-.198.181-.495.261-1.099.261H3.698v.531h-.522v-.531h-.739l-.279-.695zm4.655-1.331c.099-.153.225-.423.225-.702 0-.387-.243-.639-.63-.639-.333 0-.567.117-.855.558-.369.567-.747.873-1.242.873-.712 0-1.207-.522-1.207-1.197 0-.342.108-.595.226-.774l.522.18a1 1 0 0 0-.198.586c0 .369.27.559.558.559s.459-.108.747-.541c.324-.504.729-.9 1.333-.9.873 0 1.296.595 1.296 1.314 0 .315-.099.666-.252.855l-.523-.172zm14.661-10.229c.144 0 .279-.018.432-.054.297-.072.585-.234.801-.459.324-.352.585-.892.685-1.656h-.018c-.216.27-.531.485-.955.485-.738 0-1.287-.675-1.287-1.737s.585-1.98 1.485-1.98c1.008 0 1.467 1.062 1.467 2.35 0 1.161-.288 2.062-.774 2.71a2.262 2.262 0 0 1-1.359.882c-.18.046-.333.055-.478.055v-.596zm1.098-4.861c-.351 0-.756.378-.748 1.387 0 .855.324 1.27.792 1.27.288 0 .576-.198.72-.522.045-.09.054-.171.054-.369 0-1.233-.352-1.765-.811-1.765h-.007zm3.465 5.456c-.909 0-1.458-1.081-1.458-2.989 0-1.972.585-3.007 1.54-3.007.945 0 1.44 1.125 1.44 2.989 0 2.134-.675 3.007-1.513 3.007h-.009zm.045-.595c.558 0 .783-.999.783-2.403 0-1.368-.225-2.403-.783-2.403-.567 0-.811.99-.811 2.403-.009 1.413.234 2.403.801 2.403h.01zm53.512 63.784c-.045-.802-.09-1.693-.063-2.377h-.036a33.457 33.457 0 0 1-.486 2.106l-.738 2.845h-.45l-.703-2.728a27.371 27.371 0 0 1-.504-2.224h-.027c.009.711-.036 1.558-.072 2.422l-.117 2.565h-.621l.36-6.067h.756l.702 2.772c.207.801.36 1.396.486 2.089h.027c.117-.693.252-1.27.45-2.089l.685-2.772h.774l.351 6.067h-.648l-.126-2.609zm3.96 1.62c0 .333 0 .711.045.99h-.621l-.045-.459h-.027c-.189.333-.495.531-.864.531-.585 0-1.036-.486-1.036-1.242 0-1.099.874-1.576 1.854-1.585v-.135c0-.585-.144-.99-.693-.99-.27 0-.513.081-.72.225l-.153-.486c.189-.135.585-.288 1.018-.288.873 0 1.242.576 1.242 1.549v1.89zm-.676-1.269c-.36 0-1.197.072-1.197 1.018 0 .576.288.774.531.774.306 0 .558-.226.639-.657a1.2 1.2 0 0 0 .027-.252v-.883zm1.926-2.098l.576 2.503c.081.342.117.621.18.9h.018c.045-.252.117-.576.189-.892l.513-2.512h.684l-.711 2.8c-.271 1.09-.567 2.143-1.081 2.809-.306.388-.63.586-.783.657l-.252-.585c.198-.117.423-.306.612-.549.18-.234.324-.522.396-.738a.578.578 0 0 0 .045-.216c0-.055 0-.108-.018-.162l-1.098-4.016h.73zm3.969 4.358v-.45l.486-.666c.702-.973 1.521-2.07 1.521-3.169 0-.648-.279-1.044-.829-1.044-.423 0-.702.225-.846.323l-.171-.521a1.831 1.831 0 0 1 1.143-.396c.973 0 1.396.721 1.396 1.603 0 1.099-.72 2.17-1.449 3.151l-.387.54v.018h1.945v.612h-2.809zm4.878.072c-.909 0-1.458-1.081-1.458-2.989 0-1.972.585-3.007 1.54-3.007.945 0 1.44 1.125 1.44 2.989 0 2.134-.675 3.007-1.513 3.007h-.009zm.045-.595c.558 0 .783-.999.783-2.403 0-1.368-.225-2.403-.783-2.403-.567 0-.811.99-.811 2.403-.009 1.413.234 2.403.801 2.403h.01zm3.411-4.627h-.018l-.972.558-.135-.54 1.233-.72h.567v5.852h-.675v-5.15zm3.465 0h-.018l-.972.558-.135-.54 1.233-.72h.567v5.852h-.675v-5.15zm19.289 4.349c.207.126.567.242.873.242.63 0 1.008-.414 1.008-1.026 0-.558-.324-.899-.801-1.26-.477-.333-1.143-.9-1.143-1.684 0-.918.648-1.594 1.602-1.594.378 0 .711.126.855.226l-.171.594a1.276 1.276 0 0 0-.72-.207c-.594 0-.874.45-.874.864 0 .604.315.847.892 1.252.729.513 1.053 1.071 1.053 1.746 0 1.044-.738 1.701-1.702 1.701-.414 0-.855-.135-1.026-.27l.154-.584zm3.879-1.315c.009 1.341.531 1.62 1.026 1.62.306 0 .549-.072.72-.162l.117.504c-.243.136-.612.207-.963.207-1.035 0-1.576-.846-1.576-2.188 0-1.413.594-2.296 1.468-2.296.882 0 1.242.937 1.242 1.918 0 .171-.009.288-.018.396h-2.016zm1.368-.513c.009-.873-.315-1.261-.648-1.261-.45 0-.684.667-.711 1.261h1.359zm1.403-.369c0-.666-.027-1.053-.036-1.359h.622l.036.549h.018c.234-.459.585-.621.918-.621.765 0 1.26.802 1.26 2.242 0 1.62-.666 2.26-1.341 2.26-.414 0-.648-.252-.765-.495h-.018v2.151h-.693v-4.727zm.694 1.404c0 .126.009.252.036.36.135.621.441.729.63.729.576 0 .765-.792.765-1.666 0-.909-.216-1.665-.765-1.665-.315 0-.603.396-.639.792-.027.108-.027.216-.027.333v1.117zm3.752-3.781v1.018h.837v.522h-.837v2.593c0 .576.198.72.45.72.117 0 .207-.009.279-.026l.036.531a1.522 1.522 0 0 1-.513.071c-.279 0-.522-.071-.684-.261-.18-.198-.261-.495-.261-1.099v-2.529h-.531v-.522h.531v-.738l.693-.28zm2.664 5.375v-.45l.486-.666c.702-.973 1.521-2.07 1.521-3.169 0-.648-.279-1.044-.829-1.044-.423 0-.702.225-.846.323l-.171-.521a1.831 1.831 0 0 1 1.143-.396c.973 0 1.396.721 1.396 1.603 0 1.099-.72 2.17-1.449 3.151l-.387.54v.018h1.945v.612h-2.809zm4.878.072c-.909 0-1.458-1.081-1.458-2.989 0-1.972.585-3.007 1.54-3.007.945 0 1.44 1.125 1.44 2.989 0 2.134-.675 3.007-1.513 3.007h-.009zm.045-.595c.558 0 .783-.999.783-2.403 0-1.368-.225-2.403-.783-2.403-.567 0-.811.99-.811 2.403-.009 1.413.234 2.403.801 2.403h.01zm3.412-4.627h-.018l-.972.558-.135-.54 1.233-.72h.567v5.852h-.675v-5.15zm3.464 0h-.018l-.972.558-.135-.54 1.233-.72h.567v5.852h-.675v-5.15zm21.283-.918h.693v4.356c0 1.359-.549 1.783-1.422 1.783a1.35 1.35 0 0 1-.45-.063l.063-.585c.09.027.207.036.333.036.486 0 .783-.198.783-1.161v-4.366zm3.96 5.077c0 .333 0 .711.045.99h-.621l-.045-.459h-.027c-.189.333-.495.531-.864.531-.585 0-1.036-.486-1.036-1.242 0-1.099.874-1.576 1.855-1.585v-.135c0-.585-.145-.99-.693-.99-.27 0-.513.081-.72.225l-.153-.486c.189-.135.585-.288 1.018-.288.873 0 1.242.576 1.242 1.549v1.89zm-.675-1.269c-.36 0-1.197.072-1.197 1.018 0 .576.288.774.531.774.306 0 .558-.226.639-.657a1.2 1.2 0 0 0 .027-.252v-.883zm1.656-.973c0-.513-.027-.773-.036-1.125h.603l.036.522h.018c.189-.352.54-.595.999-.595.604 0 1.054.441 1.054 1.504v2.926h-.694v-2.809c0-.522-.099-1.035-.603-1.035-.288 0-.567.243-.648.711a1.57 1.57 0 0 0-.036.387v2.746h-.693v-3.232zm4.86 3.233v-.45l.486-.666c.701-.973 1.521-2.07 1.521-3.169 0-.648-.279-1.044-.829-1.044-.423 0-.702.225-.847.323l-.17-.521a1.829 1.829 0 0 1 1.143-.396c.973 0 1.396.721 1.396 1.603 0 1.099-.72 2.17-1.449 3.151l-.388.54v.018h1.945v.612h-2.808zm4.879.072c-.91 0-1.459-1.081-1.459-2.989 0-1.972.585-3.007 1.539-3.007.945 0 1.441 1.125 1.441 2.989 0 2.134-.676 3.007-1.514 3.007h-.007zm.045-.595c.558 0 .783-.999.783-2.403 0-1.368-.226-2.403-.783-2.403-.568 0-.811.99-.811 2.403-.01 1.413.234 2.403.801 2.403h.01zm3.41-4.627h-.018l-.973.558-.135-.54 1.232-.72h.568v5.852h-.676v-5.15zm2.06 5.15v-.45l.486-.666c.702-.973 1.521-2.07 1.521-3.169 0-.648-.279-1.044-.828-1.044-.424 0-.703.225-.847.323l-.171-.521a1.831 1.831 0 0 1 1.143-.396c.973 0 1.396.721 1.396 1.603 0 1.099-.721 2.17-1.449 3.151l-.388.54v.018h1.944v.612h-2.807zm26.08-2.611c-.045-.802-.09-1.693-.062-2.377h-.037a33.457 33.457 0 0 1-.486 2.106l-.738 2.845h-.449l-.703-2.728a27.8 27.8 0 0 1-.504-2.224h-.026c.009.711-.036 1.558-.072 2.422l-.117 2.565h-.621l.36-6.067h.756l.703 2.772c.207.801.359 1.396.485 2.089h.027c.116-.693.252-1.27.45-2.089l.684-2.772h.774l.351 6.067h-.647l-.128-2.609zm3.959 1.62c0 .333 0 .711.045.99h-.621l-.045-.459h-.026c-.188.333-.495.531-.864.531-.586 0-1.035-.486-1.035-1.242 0-1.099.873-1.576 1.854-1.585v-.135c0-.585-.143-.99-.692-.99a1.24 1.24 0 0 0-.72.225l-.154-.486c.189-.135.586-.288 1.018-.288.873 0 1.242.576 1.242 1.549v1.89zm-.674-1.269c-.36 0-1.197.072-1.197 1.018 0 .576.288.774.531.774.306 0 .558-.226.64-.657.018-.081.026-.171.026-.252v-.883zm1.925-2.098l.576 2.503c.081.342.117.621.181.9h.018c.045-.252.117-.576.189-.892l.513-2.512h.685l-.711 2.8c-.271 1.09-.568 2.143-1.081 2.809-.306.388-.63.586-.783.657l-.252-.585c.198-.117.423-.306.612-.549.18-.234.324-.522.396-.738a.6.6 0 0 0 .045-.216c0-.055 0-.108-.019-.162l-1.099-4.016h.73zm3.969 4.358v-.45l.486-.666c.702-.973 1.521-2.07 1.521-3.169 0-.648-.279-1.044-.829-1.044-.422 0-.701.225-.846.323l-.171-.521a1.832 1.832 0 0 1 1.144-.396c.973 0 1.395.721 1.395 1.603 0 1.099-.72 2.17-1.449 3.151l-.387.54v.018h1.945v.612h-2.809zm4.878.072c-.908 0-1.458-1.081-1.458-2.989 0-1.972.585-3.007 1.54-3.007.945 0 1.439 1.125 1.439 2.989 0 2.134-.675 3.007-1.512 3.007h-.009zm.045-.595c.559 0 .783-.999.783-2.403 0-1.368-.225-2.403-.783-2.403-.566 0-.811.99-.811 2.403-.008 1.413.234 2.403.802 2.403h.009zm3.411-4.627h-.019l-.972.558-.135-.54 1.233-.72h.566v5.852h-.675v-5.15zm2.062 5.15v-.45l.486-.666c.701-.973 1.521-2.07 1.521-3.169 0-.648-.279-1.044-.829-1.044-.423 0-.702.225-.847.323l-.17-.521a1.829 1.829 0 0 1 1.143-.396c.973 0 1.396.721 1.396 1.603 0 1.099-.72 2.17-1.449 3.151l-.388.54v.018h1.945v.612h-2.808zm20.693-.801c.207.126.566.242.873.242.63 0 1.008-.414 1.008-1.026 0-.558-.324-.899-.801-1.26-.478-.333-1.144-.9-1.144-1.684 0-.918.647-1.594 1.603-1.594.378 0 .711.126.855.226l-.172.594a1.27 1.27 0 0 0-.72-.207c-.595 0-.874.45-.874.864 0 .604.316.847.893 1.252.729.513 1.053 1.071 1.053 1.746 0 1.044-.738 1.701-1.701 1.701-.414 0-.855-.135-1.027-.27l.154-.584zm3.879-1.315c.009 1.341.531 1.62 1.025 1.62.307 0 .55-.072.721-.162l.117.504c-.243.136-.612.207-.963.207-1.035 0-1.576-.846-1.576-2.188 0-1.413.594-2.296 1.468-2.296.882 0 1.242.937 1.242 1.918 0 .171-.009.288-.019.396h-2.015zm1.368-.513c.009-.873-.315-1.261-.648-1.261-.45 0-.685.667-.711 1.261h1.359zm1.403-.369c0-.666-.027-1.053-.037-1.359h.622l.036.549h.018c.234-.459.586-.621.918-.621.766 0 1.261.802 1.261 2.242 0 1.62-.666 2.26-1.341 2.26-.414 0-.648-.252-.766-.495h-.018v2.151h-.693v-4.727zm.694 1.404c0 .126.008.252.035.36.135.621.441.729.631.729.576 0 .765-.792.765-1.666 0-.909-.216-1.665-.765-1.665-.315 0-.604.396-.64.792-.026.108-.026.216-.026.333v1.117zm3.752-3.781v1.018h.838v.522h-.838v2.593c0 .576.198.72.451.72.116 0 .207-.009.278-.026l.036.531a1.524 1.524 0 0 1-.514.071c-.279 0-.521-.071-.684-.261-.18-.198-.262-.495-.262-1.099v-2.529h-.531v-.522h.531v-.738l.695-.28zm2.664 5.375v-.45l.486-.666c.702-.973 1.521-2.07 1.521-3.169 0-.648-.279-1.044-.828-1.044-.424 0-.703.225-.847.323l-.171-.521a1.831 1.831 0 0 1 1.143-.396c.973 0 1.396.721 1.396 1.603 0 1.099-.721 2.17-1.449 3.151l-.388.54v.018h1.944v.612h-2.807zm4.879.072c-.91 0-1.459-1.081-1.459-2.989 0-1.972.585-3.007 1.539-3.007.945 0 1.441 1.125 1.441 2.989 0 2.134-.676 3.007-1.514 3.007h-.007zm.045-.595c.558 0 .783-.999.783-2.403 0-1.368-.226-2.403-.783-2.403-.568 0-.811.99-.811 2.403-.01 1.413.234 2.403.801 2.403h.01zm3.41-4.627h-.018l-.973.558-.135-.54 1.234-.72h.566v5.852h-.676v-5.15zm2.06 5.15v-.45l.486-.666c.703-.973 1.521-2.07 1.521-3.169 0-.648-.279-1.044-.828-1.044-.423 0-.702.225-.846.323l-.172-.521a1.834 1.834 0 0 1 1.144-.396c.973 0 1.396.721 1.396 1.603 0 1.099-.721 2.17-1.449 3.151l-.387.54v.018h1.943v.612H277.4zm22.688-6.068h.693v4.356c0 1.359-.549 1.783-1.423 1.783a1.35 1.35 0 0 1-.45-.063l.062-.585c.091.027.207.036.334.036.486 0 .783-.198.783-1.161v-4.366zm3.96 5.077c0 .333 0 .711.045.99h-.621l-.045-.459h-.027c-.189.333-.496.531-.865.531-.585 0-1.035-.486-1.035-1.242 0-1.099.873-1.576 1.855-1.585v-.135c0-.585-.145-.99-.693-.99-.271 0-.514.081-.721.225l-.153-.486c.189-.135.585-.288 1.018-.288.873 0 1.242.576 1.242 1.549v1.89zm-.675-1.269c-.36 0-1.197.072-1.197 1.018 0 .576.287.774.531.774.306 0 .558-.226.639-.657a1.2 1.2 0 0 0 .027-.252v-.883zm1.656-.973c0-.513-.027-.773-.037-1.125h.604l.036.522h.019c.188-.352.539-.595.998-.595.604 0 1.055.441 1.055 1.504v2.926h-.693v-2.809c0-.522-.1-1.035-.604-1.035-.288 0-.567.243-.648.711a1.57 1.57 0 0 0-.036.387v2.746h-.692v-3.232zm4.86 3.233v-.45l.486-.666c.701-.973 1.521-2.07 1.521-3.169 0-.648-.279-1.044-.829-1.044-.423 0-.702.225-.847.323l-.17-.521a1.829 1.829 0 0 1 1.143-.396c.973 0 1.396.721 1.396 1.603 0 1.099-.72 2.17-1.449 3.151l-.388.54v.018h1.945v.612h-2.808zm4.879.072c-.91 0-1.459-1.081-1.459-2.989 0-1.972.585-3.007 1.539-3.007.945 0 1.441 1.125 1.441 2.989 0 2.134-.676 3.007-1.514 3.007h-.007zm.044-.595c.558 0 .783-.999.783-2.403 0-1.368-.226-2.403-.783-2.403-.568 0-.811.99-.811 2.403-.01 1.413.234 2.403.801 2.403h.01zm3.411-4.627h-.018l-.973.558-.135-.54 1.232-.72h.568v5.852h-.676v-5.15zm2.177 4.403c.18.107.495.243.846.243.604 0 1.009-.441 1.009-1.161 0-.766-.478-1.216-1.179-1.216h-.162v-.522h.135c.414 0 1.053-.314 1.053-1.044 0-.595-.314-.9-.773-.9-.289 0-.541.145-.73.279l-.144-.522c.207-.171.604-.333 1.044-.333.828 0 1.297.585 1.297 1.342 0 .594-.307 1.116-.873 1.377v.019c.521.144 1.025.611 1.025 1.539 0 .945-.611 1.72-1.674 1.72-.378 0-.792-.108-1.026-.271l.152-.55z"/></svg>