<svg xmlns="http://www.w3.org/2000/svg" viewBox="0 0 339.401 165.191"><path fill="#b2d4eb" fill-rule="evenodd" stroke="#000" d="M3.38 55.152h197.801v25.886H3.38z" clip-rule="evenodd" stroke-linecap="round" stroke-linejoin="round"/><path fill="#ecbec0" fill-rule="evenodd" stroke="#000" d="M3.38 3.38h65.934v25.886H3.38zm65.934 0h65.934v25.886H69.314zm65.934 0h65.934v51.772h-65.934z" clip-rule="evenodd" stroke-linecap="round" stroke-linejoin="round"/><path fill="#ecbec0" fill-rule="evenodd" stroke="#000" d="M201.181 3.38h65.934v25.886h-65.934z" clip-rule="evenodd" stroke-linecap="round" stroke-linejoin="round"/><path fill="#ecbec0" fill-rule="evenodd" d="M267.115 3.38h65.934v25.886h-65.934z" clip-rule="evenodd"/><path fill="none" stroke="#000" d="M267.115 3.38h65.934v25.886h-65.934z" stroke-linecap="round" stroke-linejoin="round"/><path fill="#b2dec7" fill-rule="evenodd" d="M3.38 81.039h197.801v25.886H3.38z" clip-rule="evenodd"/><path fill="none" stroke="#000" d="M3.38 81.039h197.801v25.886H3.38z" stroke-linecap="round" stroke-linejoin="round"/><path fill="#ccc" fill-rule="evenodd" d="M201.181 29.266h131.866v77.659H201.181z" clip-rule="evenodd"/><path fill="none" stroke="#000" d="M201.181 29.266h131.866v77.659H201.181z" stroke-linecap="round" stroke-linejoin="round"/><path fill="#fddfbb" fill-rule="evenodd" d="M3.38 106.925h329.667v25.886H3.38z" clip-rule="evenodd"/><path fill="none" stroke="#000" d="M3.38 106.925h329.667v25.886H3.38z" stroke-linecap="round" stroke-linejoin="round"/><path fill="#fff" fill-rule="evenodd" d="M3.38 132.811h329.666v25.886H3.38z" clip-rule="evenodd"/><path fill="none" stroke="#000" d="M3.38 132.811h329.666v25.886H3.38z" stroke-linecap="round" stroke-linejoin="round"/><path fill="#ccc" fill-rule="evenodd" stroke="#000" d="M3.379 29.266h164.834v25.886H3.379z" clip-rule="evenodd" stroke-linecap="round" stroke-linejoin="round"/><path d="M31.366 71.485c-.231.121-.605.198-1.067.198-1.441 0-2.486-1.155-2.486-3.675 0-2.938 1.452-3.873 2.629-3.873.44 0 .77.088.913.188l-.187.715a1.567 1.567 0 0 0-.737-.154c-.792 0-1.727.771-1.727 3.037 0 2.277.836 3.015 1.75 3.015.319 0 .594-.077.77-.154l.142.703zm3.487-1.078c0 .407 0 .869.055 1.21h-.759l-.055-.562h-.033c-.231.407-.605.649-1.056.649-.715 0-1.265-.594-1.265-1.519 0-1.342 1.067-1.925 2.266-1.936v-.165c0-.716-.176-1.21-.847-1.21-.33 0-.627.099-.88.274l-.187-.594c.231-.165.715-.353 1.243-.353 1.067 0 1.518.704 1.518 1.893v2.313zm-.826-1.552c-.44 0-1.463.088-1.463 1.243 0 .704.352.946.649.946.374 0 .682-.274.781-.803.022-.1.033-.209.033-.309v-1.077zm4.621 2.63c-.187.109-.506.198-.88.198-1.167 0-1.947-.936-1.947-2.695 0-1.529.77-2.772 2.101-2.772.286 0 .594.076.748.176l-.165.682a1.382 1.382 0 0 0-.605-.143c-.858 0-1.232 1.012-1.232 2.058 0 1.243.473 1.991 1.254 1.991.22 0 .418-.044.605-.144l.121.649zm.726-7.481h.847v2.86h.022c.11-.187.275-.352.451-.473.187-.121.407-.188.704-.188.671 0 1.243.528 1.243 1.882v3.531h-.847v-3.433c0-.66-.143-1.265-.715-1.265-.396 0-.693.285-.825.847a2.405 2.405 0 0 0-.033.396v3.454h-.847v-7.611zm4.851 1.464c-.275 0-.484-.221-.484-.551s.22-.55.495-.55c.308 0 .506.22.506.55s-.198.551-.506.551h-.011zm-.396 6.149v-5.325h.847v5.325h-.847zm2.024-3.949c0-.628-.033-.946-.044-1.376h.737l.044.639h.022a1.35 1.35 0 0 1 1.221-.727c.737 0 1.287.539 1.287 1.838v3.575h-.847v-3.433c0-.638-.121-1.265-.737-1.265-.352 0-.693.297-.792.869-.033.12-.044.285-.044.473v3.355h-.847v-3.948zm7.667 3.268c0 1.396-.176 1.925-.528 2.321-.33.352-.825.561-1.419.561-.451 0-.891-.11-1.167-.264l.198-.66c.209.109.561.23.979.23.671 0 1.089-.418 1.089-1.628v-.539h-.022c-.176.418-.572.649-1.012.649-.946 0-1.562-1.067-1.562-2.63 0-1.969.88-2.772 1.672-2.772.561 0 .825.374.99.683h.022l.044-.595h.759c-.011.363-.044.837-.044 1.662v2.982zm-.848-2.806c0-.144-.011-.275-.044-.396-.088-.352-.286-.803-.77-.803-.605 0-.936.825-.936 2.002 0 1.364.429 1.98.936 1.98.264 0 .594-.121.759-.759.055-.165.055-.33.055-.484v-1.54zm1.375 4.873c.231-.638.528-1.804.638-2.562l.957-.11c-.253.891-.715 2.112-1.012 2.597l-.583.075zm6.864-1.518c-.187.109-.506.198-.88.198-1.167 0-1.947-.936-1.947-2.695 0-1.529.77-2.772 2.101-2.772.286 0 .594.076.748.176l-.165.682a1.382 1.382 0 0 0-.605-.143c-.858 0-1.232 1.012-1.232 2.058 0 1.243.473 1.991 1.254 1.991.22 0 .418-.044.605-.144l.121.649zm2.156.22c-.957 0-1.727-.869-1.727-2.739 0-1.947.869-2.762 1.782-2.762.957 0 1.716.881 1.716 2.739 0 2.068-.946 2.762-1.76 2.762h-.011zm.044-.671c.726 0 .88-1.243.88-2.079 0-.825-.154-2.079-.902-2.079-.759 0-.902 1.254-.902 2.079 0 .88.154 2.079.914 2.079h.01zm4.169.671c-.957 0-1.727-.869-1.727-2.739 0-1.947.869-2.762 1.782-2.762.957 0 1.716.881 1.716 2.739 0 2.068-.946 2.762-1.76 2.762h-.011zm.044-.671c.726 0 .88-1.243.88-2.079 0-.825-.154-2.079-.902-2.079-.759 0-.902 1.254-.902 2.079 0 .88.154 2.079.914 2.079h.01zm3.509-2.266h.022c.099-.209.187-.418.286-.594l1.056-1.882h.913l-1.408 2.245 1.54 3.08h-.946l-1.155-2.509-.308.495v2.014h-.847v-7.613h.847v4.764zm3.41-3.3c-.275 0-.484-.221-.484-.551s.22-.55.495-.55c.308 0 .506.22.506.55s-.198.551-.506.551h-.011zm-.396 6.149v-5.325h.847v5.325h-.847zm2.617-2.585c.011 1.639.649 1.979 1.254 1.979.374 0 .671-.088.88-.197l.143.615c-.297.165-.748.254-1.177.254-1.265 0-1.925-1.034-1.925-2.674 0-1.728.726-2.806 1.793-2.806 1.078 0 1.518 1.145 1.518 2.344 0 .209-.011.352-.022.484h-2.464zm1.673-.628c.011-1.066-.385-1.54-.792-1.54-.55 0-.836.814-.869 1.54h1.661zm3.453-.736c0-.628-.033-.946-.044-1.376h.748l.044.649h.022c.231-.429.627-.737 1.188-.737.495 0 .924.231 1.122.804h.022c.143-.265.33-.474.517-.605.22-.132.462-.198.737-.198.726 0 1.287.518 1.287 1.882v3.531h-.847v-3.345c0-.692-.099-1.364-.737-1.364-.352 0-.66.297-.781.804-.033.132-.033.297-.033.473v3.433h-.847v-3.498c0-.584-.099-1.211-.726-1.211-.352 0-.693.297-.792.869a2.796 2.796 0 0 0-.033.451v3.389h-.847v-3.951zm9.626 2.739c0 .407 0 .869.055 1.21h-.759l-.055-.562h-.033c-.231.407-.605.649-1.056.649-.715 0-1.265-.594-1.265-1.519 0-1.342 1.067-1.925 2.266-1.936v-.165c0-.716-.176-1.21-.847-1.21-.33 0-.627.099-.88.274l-.187-.594c.231-.165.715-.353 1.243-.353 1.067 0 1.518.704 1.518 1.893v2.313zm-.825-1.552c-.44 0-1.463.088-1.463 1.243 0 .704.352.946.649.946.374 0 .682-.274.781-.803.022-.1.033-.209.033-.309v-1.077zm2.024-1.187c0-.628-.033-.946-.044-1.376h.737l.044.639h.022a1.35 1.35 0 0 1 1.221-.727c.737 0 1.287.539 1.287 1.838v3.575h-.847v-3.433c0-.638-.121-1.265-.737-1.265-.352 0-.693.297-.792.869-.033.12-.044.285-.044.473v3.355h-.847v-3.948zm7.26 2.739c0 .407 0 .869.055 1.21h-.759l-.055-.562h-.033c-.231.407-.605.649-1.056.649-.715 0-1.265-.594-1.265-1.519 0-1.342 1.067-1.925 2.266-1.936v-.165c0-.716-.176-1.21-.847-1.21-.33 0-.627.099-.88.274l-.187-.594c.231-.165.715-.353 1.243-.353 1.067 0 1.518.704 1.518 1.893v2.313zm-.825-1.552c-.44 0-1.463.088-1.463 1.243 0 .704.352.946.649.946.374 0 .682-.274.781-.803.022-.1.033-.209.033-.309v-1.077zm5.236 2.081c0 1.396-.176 1.925-.528 2.321-.33.352-.825.561-1.419.561-.451 0-.891-.11-1.167-.264l.198-.66c.209.109.561.23.979.23.671 0 1.089-.418 1.089-1.628v-.539h-.022c-.176.418-.572.649-1.012.649-.946 0-1.562-1.067-1.562-2.63 0-1.969.88-2.772 1.672-2.772.561 0 .825.374.99.683h.022l.044-.595h.759c-.011.363-.044.837-.044 1.662v2.982zm-.847-2.806c0-.144-.011-.275-.044-.396-.088-.352-.286-.803-.77-.803-.605 0-.936.825-.936 2.002 0 1.364.429 1.98.936 1.98.264 0 .594-.121.759-.759.055-.165.055-.33.055-.484v-1.54zm2.617.902c.011 1.639.649 1.979 1.254 1.979.374 0 .671-.088.88-.197l.143.615c-.297.165-.748.254-1.177.254-1.265 0-1.925-1.034-1.925-2.674 0-1.728.726-2.806 1.793-2.806 1.078 0 1.518 1.145 1.518 2.344 0 .209-.011.352-.022.484h-2.464zm1.672-.628c.011-1.066-.385-1.54-.792-1.54-.55 0-.836.814-.869 1.54h1.661zm1.727-.736c0-.628-.033-.946-.044-1.376h.748l.044.649h.022c.231-.429.627-.737 1.188-.737.495 0 .924.231 1.122.804h.022c.143-.265.33-.474.517-.605.22-.132.462-.198.737-.198.726 0 1.287.518 1.287 1.882v3.531h-.847v-3.345c0-.692-.099-1.364-.737-1.364-.352 0-.66.297-.781.804-.033.132-.033.297-.033.473v3.433h-.847v-3.498c0-.584-.099-1.211-.726-1.211-.352 0-.693.297-.792.869a2.796 2.796 0 0 0-.033.451v3.389h-.847v-3.951zm7.414 1.364c.011 1.639.649 1.979 1.254 1.979.374 0 .671-.088.88-.197l.143.615c-.297.165-.748.254-1.177.254-1.266 0-1.925-1.034-1.925-2.674 0-1.728.726-2.806 1.793-2.806 1.078 0 1.518 1.145 1.518 2.344 0 .209-.011.352-.022.484h-2.464zm1.672-.628c.011-1.066-.385-1.54-.792-1.54-.55 0-.836.814-.869 1.54h1.661zm1.727-.736c0-.628-.033-.946-.044-1.376h.737l.044.639h.022a1.35 1.35 0 0 1 1.221-.727c.737 0 1.287.539 1.287 1.838v3.575h-.847v-3.433c0-.638-.121-1.265-.737-1.265-.352 0-.693.297-.792.869-.033.12-.044.285-.044.473v3.355h-.847v-3.948zm5.423-2.619v1.243h1.023v.639h-1.023v3.168c0 .704.242.881.55.881.143 0 .253-.012.341-.033l.044.648a1.827 1.827 0 0 1-.627.089c-.341 0-.638-.089-.836-.319-.22-.242-.319-.605-.319-1.343v-3.091h-.649v-.639h.649v-.901l.847-.342zm1.221 7.954c.231-.638.528-1.804.638-2.562l.957-.11c-.253.891-.715 2.112-1.012 2.597l-.583.075zm4.257-5.049c0-.814-.033-1.288-.044-1.662h.759l.044.672h.022c.286-.562.715-.76 1.122-.76.935 0 1.54.979 1.54 2.739 0 1.98-.814 2.762-1.639 2.762-.506 0-.792-.308-.935-.604h-.022v2.629h-.847v-5.776zm.847 1.716c0 .154.011.308.044.44.165.759.539.891.77.891.704 0 .936-.968.936-2.035 0-1.111-.264-2.035-.936-2.035-.385 0-.737.484-.781.968-.033.132-.033.265-.033.407v1.364zm3.541-2.002c0-.451-.033-.979-.044-1.376h.759l.044.837h.022c.176-.507.627-.925 1.122-.925.066 0 .121 0 .176.012v.869c-.055-.012-.11-.012-.176-.012-.539 0-.935.495-1.023 1.111a3.146 3.146 0 0 0-.033.484v2.948h-.847v-3.948zm4.082 4.037c-.957 0-1.727-.869-1.727-2.739 0-1.947.869-2.762 1.782-2.762.957 0 1.716.881 1.716 2.739 0 2.068-.946 2.762-1.76 2.762h-.011zm.044-.671c.726 0 .88-1.243.88-2.079 0-.825-.154-2.079-.902-2.079-.759 0-.902 1.254-.902 2.079 0 .88.154 2.079.914 2.079h.01zm2.981-4.742l.495 1.134c.132.308.242.616.352.935h.022c.121-.341.242-.648.363-.935l.473-1.134h.869l-1.265 2.619 1.254 2.706h-.924l-.506-1.199c-.121-.286-.22-.562-.352-.913h-.022c-.11.319-.231.616-.352.913l-.484 1.199h-.869l1.265-2.674-1.221-2.651h.902zm3.915 0l.704 3.059c.099.418.143.76.22 1.101h.022c.055-.309.143-.704.231-1.089l.627-3.07h.836l-.869 3.422c-.33 1.331-.693 2.618-1.32 3.433-.374.473-.77.715-.958.803l-.308-.715c.242-.143.517-.374.748-.671a3.32 3.32 0 0 0 .484-.902.703.703 0 0 0 .055-.264c0-.066 0-.133-.022-.198l-1.342-4.907h.892zm5.094-2.288h.847v7.613h-.847v-7.613zm3.596 7.701c-.957 0-1.727-.869-1.727-2.739 0-1.947.869-2.762 1.782-2.762.957 0 1.716.881 1.716 2.739 0 2.068-.946 2.762-1.76 2.762h-.011zm.044-.671c.726 0 .88-1.243.88-2.079 0-.825-.154-2.079-.902-2.079-.759 0-.902 1.254-.902 2.079 0 .88.154 2.079.914 2.079h.01zm5.886-.098c0 1.396-.176 1.925-.528 2.321-.33.352-.825.561-1.419.561-.451 0-.891-.11-1.167-.264l.198-.66c.209.109.561.23.979.23.671 0 1.089-.418 1.089-1.628v-.539h-.022c-.176.418-.572.649-1.012.649-.946 0-1.562-1.067-1.562-2.63 0-1.969.88-2.772 1.672-2.772.561 0 .825.374.99.683h.022l.044-.595h.759c-.011.363-.044.837-.044 1.662v2.982zm-.847-2.806c0-.144-.011-.275-.044-.396-.088-.352-.286-.803-.77-.803-.605 0-.936.825-.936 2.002 0 1.364.429 1.98.936 1.98.264 0 .594-.121.759-.759.055-.165.055-.33.055-.484v-1.54zm2.419-2.662c-.275 0-.484-.221-.484-.551s.22-.55.495-.55c.308 0 .506.22.506.55s-.198.551-.506.551h-.011zm-.396 6.149v-5.325h.847v5.325h-.847zm4.62-.132c-.187.109-.506.198-.88.198-1.167 0-1.947-.936-1.947-2.695 0-1.529.77-2.772 2.101-2.772.286 0 .594.076.748.176l-.165.682a1.382 1.382 0 0 0-.605-.143c-.858 0-1.232 1.012-1.232 2.058 0 1.243.473 1.991 1.254 1.991.22 0 .418-.044.605-.144l.121.649zm.231 1.518c.231-.638.528-1.804.638-2.562l.957-.11c-.253.891-.715 2.112-1.012 2.597l-.583.075zm4.763-1.298c-.308 0-.55-.253-.55-.638 0-.374.253-.639.561-.639.33 0 .562.253.562.639 0 .385-.209.638-.562.638h-.011zm2.133 0c-.308 0-.55-.253-.55-.638 0-.374.253-.639.561-.639.33 0 .562.253.562.639 0 .385-.209.638-.562.638h-.011zm2.134 0c-.308 0-.55-.253-.55-.638 0-.374.253-.639.561-.639.33 0 .562.253.562.639 0 .385-.209.638-.562.638h-.011zM65.843 38.316v3.18h2.079v-3.18h.847v7.415h-.847v-3.466h-2.079v3.466h-.847v-7.415h.847zm5.115.759h-1.354v-.759h3.554v.759h-1.353v6.656h-.847v-6.656zm4.015 0H73.62v-.759h3.553v.759H75.82v6.656h-.847v-6.656zm3.025-.649a4.81 4.81 0 0 1 1.232-.144c.682 0 1.265.165 1.65.539.352.353.539.892.539 1.54 0 .683-.165 1.145-.451 1.519-.396.55-1.089.825-1.749.825-.143 0-.253 0-.374-.011v3.036h-.847v-7.304zm.847 3.565c.099.011.198.021.341.021.825 0 1.386-.55 1.386-1.595 0-.76-.308-1.441-1.254-1.441a1.7 1.7 0 0 0-.473.055v2.96zm6.677-2.553H85.5l-1.188.683-.165-.66 1.507-.881h.693v7.151h-.825v-6.293zm3.256 6.381c-.308 0-.55-.253-.55-.638 0-.374.253-.639.561-.639.33 0 .561.253.561.639 0 .385-.209.638-.561.638h-.011zm2.112-5.413l.495 1.134c.132.308.242.616.352.935h.022c.121-.341.242-.648.363-.935l.473-1.134h.869l-1.265 2.619 1.254 2.706h-.924l-.506-1.199c-.121-.286-.22-.562-.352-.913h-.022c-.11.319-.231.616-.352.913l-.484 1.199h-.869l1.265-2.674-1.221-2.651h.902zm2.76 5.765l2.365-7.943h.638l-2.365 7.943h-.638zm3.355-.44v-.55l.594-.814c.858-1.188 1.859-2.53 1.859-3.872 0-.793-.341-1.276-1.012-1.276-.517 0-.858.274-1.034.396l-.209-.638a2.238 2.238 0 0 1 1.397-.484c1.188 0 1.705.88 1.705 1.959 0 1.342-.88 2.651-1.771 3.85l-.473.66v.022h2.376v.748h-3.432zm4.972.088c-.308 0-.55-.253-.55-.638 0-.374.253-.639.561-.639.33 0 .561.253.561.639 0 .385-.209.638-.561.638h-.011zm3.124 0c-1.111 0-1.782-1.32-1.782-3.652 0-2.409.715-3.675 1.881-3.675 1.155 0 1.76 1.375 1.76 3.652 0 2.607-.825 3.675-1.848 3.675h-.011zm.055-.726c.682 0 .957-1.222.957-2.938 0-1.673-.275-2.938-.957-2.938-.693 0-.99 1.21-.99 2.938-.011 1.727.286 2.938.979 2.938h.011zM13.934 18.965l-.459-1.27a25.623 25.623 0 0 1-.342-1.071h-.027c-.117.396-.216.756-.315 1.09l-.414 1.251h-.963l1.18-3.097-1.135-2.971h1l.432 1.251c.108.297.198.604.315.973h.018c.117-.396.198-.676.288-.99l.396-1.233h.963l-1.161 2.988 1.224 3.079h-1zm5.256-2.341a35.634 35.634 0 0 1-.063-2.179H19.1a31.37 31.37 0 0 1-.423 1.98l-.63 2.467h-.657l-.594-2.403a22.026 22.026 0 0 1-.432-2.044h-.027a63.295 63.295 0 0 1-.081 2.206l-.108 2.313h-.837l.405-6.067h1.018l.585 2.457c.189.783.342 1.423.459 2.106h.018c.108-.684.243-1.313.423-2.106l.567-2.457h1.036l.36 6.067h-.873l-.119-2.34zm1.889-3.727h.963v5.257h1.62v.811h-2.583v-6.068zm4.24 0v2.512h1.44v-2.512h.963v6.067h-.963V16.29h-1.44v2.674h-.963v-6.067h.963zm4.526.594v1.089h.847v.693h-.847v2.278c0 .54.208.675.45.675.108 0 .198-.009.297-.027l.018.748c-.144.045-.36.071-.63.071-.306 0-.585-.081-.774-.27-.216-.217-.324-.531-.324-1.188v-2.287h-.522v-.693h.522v-.756l.963-.333zm2.574 0v1.089h.847v.693h-.847v2.278c0 .54.207.675.45.675.108 0 .198-.009.297-.027l.018.748c-.144.045-.36.071-.63.071-.306 0-.585-.081-.774-.27-.216-.217-.324-.531-.324-1.188v-2.287h-.522v-.693h.522v-.756l.963-.333zm1.422 2.467c0-.594-.018-1.009-.036-1.378h.837l.054.531h.018c.207-.414.54-.603.918-.603.873 0 1.323.936 1.323 2.25 0 1.603-.684 2.278-1.396 2.278-.387 0-.621-.234-.747-.459h-.018v2.115h-.955v-4.734zm.954 1.404c0 .135.018.271.045.369.117.423.342.514.504.514.486 0 .648-.693.648-1.468 0-.873-.207-1.459-.648-1.459-.243 0-.459.271-.513.567-.027.1-.036.207-.036.324v1.153zm2.961-4.375a5.15 5.15 0 0 1 1.152-.117c.63 0 1.152.108 1.503.441.342.324.459.729.459 1.233 0 .702-.342 1.251-.954 1.53v.018c.432.153.648.559.774 1.278.126.738.271 1.387.369 1.594h-.999c-.072-.171-.207-.766-.306-1.477-.117-.792-.342-1.044-.828-1.044h-.216v2.521h-.954v-5.977zm.954 2.719h.252c.576 0 .937-.45.937-1.071 0-.595-.243-.999-.864-1.009-.126 0-.243.01-.324.036v2.044zm3.717 1.323c.009.981.459 1.251.972 1.251.324 0 .594-.071.783-.152l.144.684c-.279.126-.702.207-1.098.207-1.134 0-1.737-.819-1.737-2.179 0-1.449.693-2.331 1.629-2.331.918 0 1.386.837 1.386 2.008 0 .252-.009.396-.027.513h-2.052zm1.189-.684c.009-.702-.225-1.116-.567-1.116-.414 0-.603.604-.621 1.116h1.188zm3.573 2.206h-.027a.943.943 0 0 1-.828.486c-.784 0-1.296-.892-1.296-2.188 0-1.513.648-2.341 1.431-2.341.288 0 .612.126.81.549l.018.018.045-.495h.837c-.018.36-.036.802-.036 1.378v4.735h-.954v-2.142zm0-2.35c0-.09-.009-.198-.027-.279-.054-.351-.27-.604-.504-.604-.459 0-.657.612-.657 1.468s.207 1.459.648 1.459c.18 0 .396-.117.495-.541a.974.974 0 0 0 .045-.324v-1.179zm4.788 1.486c0 .478.018.909.036 1.278h-.837l-.054-.459h-.018a1.193 1.193 0 0 1-.981.531c-.801 0-1.125-.604-1.125-1.747v-2.71h.963v2.593c0 .631.108 1.062.504 1.062.297 0 .45-.252.495-.432.036-.1.054-.234.054-.378V14.58h.963v3.107zm1.673-.658c.009.981.459 1.251.972 1.251.324 0 .594-.071.783-.152l.144.684c-.279.126-.702.207-1.098.207-1.134 0-1.737-.819-1.737-2.179 0-1.449.693-2.331 1.629-2.331.918 0 1.386.837 1.386 2.008 0 .252-.009.396-.027.513H53.65zm1.188-.684c.009-.702-.225-1.116-.567-1.116-.414 0-.603.604-.621 1.116h1.188zm1.512 1.711c.162.108.459.234.756.234.342 0 .549-.181.549-.505 0-.27-.126-.45-.531-.711-.657-.387-.892-.811-.892-1.251 0-.757.549-1.314 1.341-1.314.351 0 .63.099.837.216l-.189.711a1.121 1.121 0 0 0-.603-.188c-.333 0-.495.216-.495.459 0 .234.108.369.522.639.585.352.9.783.9 1.333 0 .891-.622 1.341-1.45 1.341-.342 0-.747-.099-.936-.252l.191-.712zm3.996-4.565v1.089h.847v.693h-.847v2.278c0 .54.207.675.45.675.108 0 .198-.009.297-.027l.018.748c-.144.045-.36.071-.63.071-.306 0-.585-.081-.774-.27-.216-.217-.324-.531-.324-1.188v-2.287h-.523v-.693h.522v-.756l.964-.333zm26.758 2.71h-1.44v1.927h1.638v.837H84.7v-6.067h2.494v.837h-1.53V15.4h1.44v.801zm1.421-1.621l.432 2.188c.063.342.126.738.189 1.152h.018c.054-.405.117-.774.18-1.152l.423-2.188h.955l-1.162 4.385h-.873l-1.179-4.385h1.017zm3.366 2.449c.009.981.459 1.251.972 1.251.324 0 .594-.071.783-.152l.144.684c-.279.126-.702.207-1.098.207-1.134 0-1.737-.819-1.737-2.179 0-1.449.693-2.331 1.629-2.331.918 0 1.386.837 1.386 2.008 0 .252-.009.396-.027.513h-2.052zm1.188-.684c.009-.702-.225-1.116-.567-1.116-.414 0-.603.604-.621 1.116h1.188zm1.584-.532c0-.495-.018-.846-.036-1.233h.837l.045.514h.018a1.176 1.176 0 0 1 1.036-.585c.738 0 1.125.566 1.125 1.584v2.872h-.963v-2.782c0-.44-.09-.864-.513-.864-.234 0-.45.181-.541.541a1.49 1.49 0 0 0-.045.396v2.71h-.963v-3.153zm5.022-2.322v1.089h.847v.693h-.847v2.278c0 .54.207.675.45.675.108 0 .198-.009.297-.027l.018.748c-.144.045-.36.071-.63.071-.306 0-.585-.081-.774-.27-.216-.217-.324-.531-.324-1.188v-2.287H98.2v-.693h.522v-.756l.963-.333zm1.377 4.447c.225.135.621.243.937.243.594 0 .918-.342.918-.847 0-.485-.297-.765-.792-1.107-.675-.432-1.144-1.035-1.144-1.692 0-.945.639-1.692 1.773-1.692.387 0 .738.117.9.217l-.171.828a1.392 1.392 0 0 0-.747-.207c-.549 0-.811.369-.811.738 0 .468.243.684.864 1.08.765.504 1.071 1.089 1.071 1.737 0 1.089-.774 1.782-1.863 1.782-.45 0-.909-.126-1.099-.252l.164-.828zm4.923 1.099c-.927 0-1.566-.774-1.566-2.251 0-1.594.783-2.277 1.603-2.277.918 0 1.548.801 1.548 2.25 0 1.773-.918 2.278-1.575 2.278h-.01zm.036-.738c.477 0 .585-.864.585-1.53 0-.64-.108-1.521-.603-1.521-.522 0-.621.882-.621 1.521 0 .738.126 1.53.63 1.53h.009zm5.211-.612c0 .478.018.909.036 1.278h-.837l-.054-.459h-.018a1.193 1.193 0 0 1-.981.531c-.801 0-1.125-.604-1.125-1.747v-2.71h.963v2.593c0 .631.108 1.062.504 1.062.297 0 .45-.252.495-.432.036-.1.054-.234.054-.378V14.58h.963v3.107zm.899-1.874c0-.404-.018-.864-.036-1.233h.837l.054.657h.027c.171-.44.531-.729.892-.729.09 0 .144.009.207.018v.954c-.063-.009-.126-.009-.207-.009-.333 0-.667.279-.774.756-.018.1-.036.253-.036.415v2.322h-.963v-3.151zm4.681 3.062c-.135.072-.414.144-.738.144-1.044 0-1.738-.773-1.738-2.215 0-1.313.729-2.286 1.891-2.286.261 0 .513.062.63.126l-.144.766c-.099-.036-.252-.1-.468-.1-.621 0-.945.666-.945 1.477 0 .9.36 1.44.945 1.44.18 0 .333-.036.468-.099l.099.747zm1.251-1.846c.009.981.459 1.251.972 1.251.324 0 .594-.071.783-.152l.144.684c-.279.126-.702.207-1.098.207-1.134 0-1.737-.819-1.737-2.179 0-1.449.693-2.331 1.629-2.331.918 0 1.386.837 1.386 2.008 0 .252-.009.396-.027.513h-2.052zm1.188-.684c.009-.702-.225-1.116-.567-1.116-.414 0-.603.604-.621 1.116h1.188zm33.907 2.62l-1.098-6.067h1l.387 2.646c.108.729.18 1.422.252 2.16h.027c.081-.756.216-1.413.351-2.169l.495-2.638h.792l.468 2.61c.126.693.243 1.377.324 2.196h.018c.09-.828.18-1.485.27-2.179l.387-2.628h.945l-1.116 6.067h-.981l-.459-2.413a32.2 32.2 0 0 1-.288-1.998h-.018a28.402 28.402 0 0 1-.333 2.008l-.495 2.403h-.928zm5.733-1.936c.009.981.459 1.251.972 1.251.324 0 .594-.071.783-.152l.144.684c-.279.126-.702.207-1.098.207-1.134 0-1.737-.819-1.737-2.179 0-1.449.693-2.331 1.629-2.331.918 0 1.386.837 1.386 2.008 0 .252-.009.396-.027.513h-2.052zm1.188-.684c.009-.702-.225-1.116-.567-1.116-.414 0-.603.604-.621 1.116h1.188zm1.584-3.61h.955v2.322h.018c.216-.369.513-.549.918-.549.774 0 1.225.882 1.225 2.179 0 1.558-.63 2.35-1.387 2.35-.414 0-.657-.207-.864-.612h-.028l-.054.54h-.819c.018-.324.036-.828.036-1.188v-5.042zm.954 4.672c0 .108.018.207.036.279.126.459.351.559.513.559.468 0 .648-.612.648-1.495 0-.81-.189-1.432-.657-1.432-.243 0-.45.288-.504.576a1.48 1.48 0 0 0-.036.279v1.234zm2.825.531c.225.135.621.243.937.243.594 0 .918-.342.918-.847 0-.485-.297-.765-.792-1.107-.675-.432-1.144-1.035-1.144-1.692 0-.945.639-1.692 1.773-1.692.387 0 .738.117.9.217l-.171.828a1.392 1.392 0 0 0-.747-.207c-.549 0-.811.369-.811.738 0 .468.243.684.864 1.08.765.504 1.071 1.089 1.071 1.737 0 1.089-.774 1.782-1.863 1.782-.45 0-.909-.126-1.099-.252l.164-.828zm4.924 1.099c-.927 0-1.566-.774-1.566-2.251 0-1.594.783-2.277 1.603-2.277.918 0 1.549.801 1.549 2.25 0 1.773-.918 2.278-1.576 2.278h-.01zm.036-.738c.477 0 .585-.864.585-1.53 0-.64-.108-1.521-.603-1.521-.522 0-.621.882-.621 1.521 0 .738.125 1.53.63 1.53h.009zm4.562.576c-.135.072-.414.144-.737.144-1.044 0-1.737-.773-1.737-2.215 0-1.313.729-2.286 1.891-2.286.261 0 .513.062.63.126l-.144.766c-.1-.036-.253-.1-.469-.1-.621 0-.945.666-.945 1.477 0 .9.359 1.44.945 1.44.18 0 .333-.036.469-.099l.097.747zm1.467-2.323h.019c.081-.216.153-.387.226-.558l.701-1.414h1.035l-1.098 1.837 1.18 2.548h-1.072l-.765-1.918-.226.388v1.53h-.954v-6.229h.954v3.816zm3.178.477c.008.981.459 1.251.972 1.251.324 0 .595-.071.783-.152l.144.684c-.278.126-.701.207-1.098.207-1.135 0-1.737-.819-1.737-2.179 0-1.449.692-2.331 1.63-2.331.918 0 1.386.837 1.386 2.008 0 .252-.009.396-.026.513h-2.054zm1.187-.684c.01-.702-.225-1.116-.566-1.116-.414 0-.604.604-.621 1.116h1.187zm2.737-2.854v1.089h.846v.693h-.846v2.278c0 .54.207.675.449.675.109 0 .199-.009.298-.027l.019.748a2.256 2.256 0 0 1-.631.071c-.307 0-.585-.081-.774-.27-.216-.217-.323-.531-.323-1.188v-2.287h-.523v-.693h.523v-.756l.962-.333zm22.545-.504a5.15 5.15 0 0 1 1.152-.117c.63 0 1.152.108 1.504.441.342.324.459.729.459 1.233 0 .702-.342 1.251-.955 1.53v.018c.433.153.648.559.774 1.278.126.738.271 1.387.369 1.594h-.999c-.072-.171-.207-.766-.307-1.477-.117-.792-.342-1.044-.828-1.044h-.216v2.521h-.954v-5.977zm.954 2.719h.252c.576 0 .937-.45.937-1.071 0-.595-.243-.999-.864-1.009-.126 0-.243.01-.324.036v2.044zm3.645-1.927h-1.09v-.882h3.142v.882h-1.089v5.186h-.963v-5.186zm5.311 5.087c-.18.09-.496.152-.892.152-1.386 0-2.179-1.134-2.179-3.007 0-2.331 1.233-3.169 2.314-3.169.396 0 .674.081.791.153l-.18.819a1.14 1.14 0 0 0-.576-.126c-.656 0-1.332.603-1.332 2.26 0 1.629.611 2.215 1.342 2.215.225 0 .449-.055.594-.108l.118.811zm.674-5.879a5.09 5.09 0 0 1 1.125-.117c.64 0 1.162.117 1.521.459.324.307.486.774.486 1.297 0 .611-.171 1.025-.45 1.35-.36.424-.945.631-1.458.631-.1 0-.18 0-.271-.01v2.368h-.954v-5.978zm.954 2.818a.872.872 0 0 0 .234.019c.63 0 .981-.433.981-1.126 0-.566-.234-1.044-.883-1.044a1.1 1.1 0 0 0-.333.045v2.106zm3.401 1.224c.01.981.459 1.251.973 1.251.324 0 .594-.071.783-.152l.145.684c-.279.126-.703.207-1.099.207-1.134 0-1.737-.819-1.737-2.179 0-1.449.693-2.331 1.629-2.331.918 0 1.387.837 1.387 2.008 0 .252-.009.396-.027.513h-2.054zm1.19-.684c.008-.702-.226-1.116-.568-1.116-.414 0-.603.604-.621 1.116h1.189zm2.357.684c.008.981.459 1.251.972 1.251.324 0 .595-.071.783-.152l.144.684c-.278.126-.701.207-1.098.207-1.135 0-1.737-.819-1.737-2.179 0-1.449.692-2.331 1.63-2.331.918 0 1.386.837 1.386 2.008 0 .252-.009.396-.026.513h-2.054zm1.187-.684c.01-.702-.225-1.116-.566-1.116-.414 0-.604.604-.621 1.116h1.187zm1.584-.532c0-.404-.018-.864-.035-1.233h.836l.055.657h.027c.171-.44.531-.729.891-.729.09 0 .145.009.207.018v.954c-.062-.009-.125-.009-.207-.009-.333 0-.666.279-.773.756-.019.1-.037.253-.037.415v2.322h-.963v-3.151zm5.338 3.053c-.18.09-.496.152-.892.152-1.386 0-2.179-1.134-2.179-3.007 0-2.331 1.233-3.169 2.314-3.169.396 0 .674.081.791.153l-.18.819a1.14 1.14 0 0 0-.576-.126c-.656 0-1.332.603-1.332 2.26 0 1.629.611 2.215 1.342 2.215.225 0 .449-.055.594-.108l.118.811zm1.881.171c-.928 0-1.566-.774-1.566-2.251 0-1.594.783-2.277 1.602-2.277.919 0 1.549.801 1.549 2.25 0 1.773-.918 2.278-1.575 2.278h-.01zm.035-.738c.478 0 .586-.864.586-1.53 0-.64-.108-1.521-.604-1.521-.521 0-.621.882-.621 1.521 0 .738.126 1.53.631 1.53h.008zm2.259-2.486c0-.495-.018-.846-.036-1.233h.838l.045.514h.018a1.174 1.174 0 0 1 1.035-.585c.738 0 1.125.566 1.125 1.584v2.872h-.963v-2.782c0-.44-.09-.864-.513-.864-.234 0-.45.181-.54.541a1.49 1.49 0 0 0-.045.396v2.71h-.964v-3.153zm3.905 0c0-.495-.018-.846-.035-1.233h.837l.046.514h.018a1.174 1.174 0 0 1 1.035-.585c.738 0 1.125.566 1.125 1.584v2.872h-.963v-2.782c0-.44-.09-.864-.514-.864-.234 0-.449.181-.54.541-.026.09-.045.233-.045.396v2.71h-.964v-3.153zm4.682 1.216c.008.981.459 1.251.972 1.251.324 0 .595-.071.783-.152l.144.684c-.278.126-.701.207-1.098.207-1.135 0-1.737-.819-1.737-2.179 0-1.449.692-2.331 1.63-2.331.918 0 1.386.837 1.386 2.008 0 .252-.009.396-.026.513h-2.054zm1.188-.684c.01-.702-.225-1.116-.566-1.116-.414 0-.604.604-.621 1.116h1.187zm3.888 2.53c-.135.072-.414.144-.738.144-1.045 0-1.738-.773-1.738-2.215 0-1.313.73-2.286 1.891-2.286.262 0 .514.062.631.126l-.145.766c-.099-.036-.252-.1-.468-.1-.621 0-.945.666-.945 1.477 0 .9.36 1.44.945 1.44.181 0 .333-.036.468-.099l.099.747zm1.817-5.384v1.089h.848v.693h-.848v2.278c0 .54.207.675.451.675a1.6 1.6 0 0 0 .297-.027l.018.748a2.238 2.238 0 0 1-.63.071c-.306 0-.585-.081-.774-.27-.216-.217-.324-.531-.324-1.188v-2.287h-.521v-.693h.521v-.756l.962-.333zm1.882.504c-.279 0-.505-.225-.505-.558 0-.343.234-.559.514-.559.307 0 .522.216.522.559 0 .333-.216.558-.522.558h-.009zm-.46 4.97V14.58h.964v4.385h-.964zm3.24.072c-.927 0-1.566-.774-1.566-2.251 0-1.594.783-2.277 1.604-2.277.918 0 1.548.801 1.548 2.25 0 1.773-.918 2.278-1.575 2.278h-.011zm.037-.738c.477 0 .584-.864.584-1.53 0-.64-.107-1.521-.603-1.521-.522 0-.621.882-.621 1.521 0 .738.126 1.53.63 1.53h.01zm2.258-2.486c0-.495-.018-.846-.035-1.233h.836l.046.514h.018a1.176 1.176 0 0 1 1.036-.585c.738 0 1.125.566 1.125 1.584v2.872h-.963v-2.782c0-.44-.091-.864-.514-.864-.234 0-.45.181-.541.541-.026.09-.045.233-.045.396v2.71h-.963v-3.153zm22.316-2.826a4.543 4.543 0 0 1 1.08-.117c.701 0 1.206.171 1.566.504.494.441.801 1.233.801 2.449 0 1.305-.324 2.124-.783 2.574-.404.414-.999.612-1.782.612-.333 0-.667-.027-.882-.062v-5.96zm.953 5.212c.082.019.172.019.234.019.666 0 1.27-.559 1.27-2.404 0-1.377-.387-2.169-1.225-2.169-.099 0-.197.009-.279.026v4.528zm5.86-.233c0 .342.01.711.055.999h-.864l-.054-.441h-.018c-.226.333-.55.514-.928.514-.631 0-1.107-.522-1.107-1.297 0-1.125.954-1.603 1.944-1.611v-.117c0-.459-.181-.774-.657-.774-.314 0-.576.091-.819.243l-.18-.657c.216-.135.675-.314 1.206-.314 1.135 0 1.422.774 1.422 1.71v1.745zm-.946-1.197c-.377.009-1.053.107-1.053.873 0 .495.262.675.477.675.244 0 .469-.162.55-.504a.818.818 0 0 0 .026-.225v-.819zm2.899-3.278v1.089h.847v.693h-.847v2.278c0 .54.207.675.45.675.108 0 .198-.009.298-.027l.018.748a2.25 2.25 0 0 1-.631.071c-.306 0-.584-.081-.773-.27-.217-.217-.324-.531-.324-1.188v-2.287h-.522v-.693h.522v-.756l.962-.333zm4.095 4.475c0 .342.009.711.054.999h-.864l-.055-.441h-.018c-.225.333-.549.514-.928.514-.629 0-1.106-.522-1.106-1.297 0-1.125.954-1.603 1.944-1.611v-.117c0-.459-.18-.774-.657-.774-.315 0-.576.091-.819.243l-.18-.657c.216-.135.675-.314 1.206-.314 1.134 0 1.423.774 1.423 1.71v1.745zm-.945-1.197c-.379.009-1.054.107-1.054.873 0 .495.261.675.478.675.242 0 .468-.162.549-.504a.857.857 0 0 0 .027-.225v-.819zm4.716 2.097c-.18.09-.495.152-.892.152-1.386 0-2.178-1.134-2.178-3.007 0-2.331 1.232-3.169 2.313-3.169.396 0 .675.081.792.153l-.18.819a1.142 1.142 0 0 0-.576-.126c-.658 0-1.332.603-1.332 2.26 0 1.629.611 2.215 1.341 2.215.226 0 .45-.055.595-.108l.117.811zm.584-6.131h.964v2.305h.018c.1-.153.234-.279.379-.369.161-.1.359-.162.584-.162.693 0 1.08.576 1.08 1.684v2.772h-.963v-2.737c0-.477-.099-.909-.504-.909-.252 0-.459.172-.559.541a1.802 1.802 0 0 0-.035.333v2.772h-.964v-6.23zm6.58 5.231c0 .342.009.711.054.999h-.863l-.055-.441h-.018c-.225.333-.549.514-.928.514-.63 0-1.107-.522-1.107-1.297 0-1.125.955-1.603 1.945-1.611v-.117c0-.459-.181-.774-.658-.774a1.49 1.49 0 0 0-.818.243l-.18-.657c.215-.135.674-.314 1.205-.314 1.135 0 1.423.774 1.423 1.71v1.745zm-.945-1.197c-.378.009-1.054.107-1.054.873 0 .495.262.675.478.675.243 0 .468-.162.55-.504a.859.859 0 0 0 .026-.225v-.819zm1.835-.956c0-.495-.018-.846-.035-1.233h.837l.046.514h.018a1.174 1.174 0 0 1 1.035-.585c.738 0 1.125.566 1.125 1.584v2.872h-.963v-2.782c0-.44-.09-.864-.514-.864-.234 0-.449.181-.54.541-.026.09-.045.233-.045.396v2.71h-.964v-3.153zm3.906 0c0-.495-.018-.846-.035-1.233h.836l.046.514h.018a1.176 1.176 0 0 1 1.036-.585c.738 0 1.125.566 1.125 1.584v2.872h-.963v-2.782c0-.44-.091-.864-.514-.864-.234 0-.45.181-.541.541-.026.09-.045.233-.045.396v2.71h-.963v-3.153zm4.68 1.216c.01.981.459 1.251.973 1.251.324 0 .594-.071.783-.152l.145.684c-.279.126-.703.207-1.099.207-1.134 0-1.737-.819-1.737-2.179 0-1.449.693-2.331 1.629-2.331.918 0 1.387.837 1.387 2.008 0 .252-.009.396-.027.513h-2.054zm1.189-.684c.008-.702-.226-1.116-.568-1.116-.414 0-.603.604-.621 1.116h1.189zm1.582-3.61h.964v6.229h-.964v-6.229zM29.914 96.524a2.29 2.29 0 0 0 1.067.298c.771 0 1.232-.507 1.232-1.255 0-.682-.396-1.1-.979-1.54-.583-.407-1.397-1.101-1.397-2.058 0-1.122.792-1.947 1.958-1.947.462 0 .869.154 1.045.275l-.209.727a1.542 1.542 0 0 0-.88-.254c-.726 0-1.067.551-1.067 1.057 0 .737.385 1.034 1.089 1.529.891.627 1.287 1.309 1.287 2.134 0 1.276-.902 2.08-2.08 2.08-.506 0-1.045-.165-1.254-.33l.188-.716zm6.963-.231c0 .407 0 .869.055 1.21h-.759l-.055-.562h-.033c-.231.407-.605.649-1.056.649-.715 0-1.265-.594-1.265-1.519 0-1.342 1.067-1.925 2.266-1.936v-.165c0-.716-.176-1.21-.847-1.21-.33 0-.627.099-.88.274l-.187-.594c.231-.165.715-.353 1.243-.353 1.067 0 1.518.704 1.518 1.893v2.313zm-.825-1.551c-.44 0-1.463.088-1.463 1.243 0 .704.352.946.649.946.374 0 .682-.274.781-.803.022-.1.033-.209.033-.309v-1.077zm2.024-1.188c0-.628-.033-.946-.044-1.376h.748l.044.649h.022c.231-.429.627-.737 1.188-.737.495 0 .924.231 1.122.804h.022c.143-.265.33-.474.517-.605.22-.132.462-.198.737-.198.726 0 1.287.518 1.287 1.882v3.531h-.847v-3.345c0-.692-.099-1.364-.737-1.364-.352 0-.66.297-.781.804-.033.132-.033.297-.033.473v3.433h-.847v-3.498c0-.584-.099-1.211-.726-1.211-.352 0-.693.297-.792.869a2.796 2.796 0 0 0-.033.451v3.389h-.847v-3.951zm7.413 1.364c.011 1.639.649 1.979 1.254 1.979.374 0 .671-.088.88-.197l.143.615c-.297.165-.748.254-1.177.254-1.266 0-1.925-1.034-1.925-2.674 0-1.728.726-2.806 1.793-2.806 1.078 0 1.518 1.145 1.518 2.344 0 .209-.011.352-.022.484h-2.464zm1.673-.627c.011-1.066-.385-1.54-.792-1.54-.55 0-.836.814-.869 1.54h1.661zm4.949 3.3c-.957 0-1.727-.869-1.727-2.739 0-1.947.869-2.762 1.782-2.762.957 0 1.716.881 1.716 2.739 0 2.068-.946 2.762-1.76 2.762h-.011zm.044-.671c.726 0 .88-1.243.88-2.079 0-.825-.154-2.079-.902-2.079-.759 0-.902 1.254-.902 2.079 0 .88.154 2.079.914 2.079h.01zm2.662-3.366c0-.451-.033-.979-.044-1.376h.759l.044.837h.022c.176-.507.627-.925 1.122-.925.066 0 .121 0 .176.012v.869c-.055-.012-.11-.012-.176-.012-.539 0-.935.495-1.023 1.111a3.146 3.146 0 0 0-.033.484v2.948h-.847v-3.948zm3.135-2.2c-.275 0-.484-.221-.484-.551s.22-.55.495-.55c.308 0 .506.22.506.55s-.198.551-.506.551h-.011zm-.396 6.149v-5.325h.847v5.325h-.847zm5.237-.681c0 1.396-.176 1.925-.528 2.321-.33.352-.825.561-1.419.561-.451 0-.891-.11-1.167-.264l.198-.66c.209.109.561.23.979.23.671 0 1.089-.418 1.089-1.628v-.539h-.022c-.176.418-.572.649-1.012.649-.946 0-1.562-1.067-1.562-2.63 0-1.969.88-2.772 1.672-2.772.561 0 .825.374.99.683h.022l.044-.595h.759c-.011.363-.044.837-.044 1.662v2.982zm-.848-2.806c0-.144-.011-.275-.044-.396-.088-.352-.286-.803-.77-.803-.605 0-.936.825-.936 2.002 0 1.364.429 1.98.936 1.98.264 0 .594-.121.759-.759.055-.165.055-.33.055-.484v-1.54zm2.42-2.662c-.275 0-.484-.221-.484-.551s.22-.55.495-.55c.308 0 .506.22.506.55s-.198.551-.506.551h-.011zm-.396 6.149v-5.325h.847v5.325h-.847zm2.024-3.949c0-.628-.033-.946-.044-1.376h.737l.044.639h.022a1.35 1.35 0 0 1 1.221-.727c.737 0 1.287.539 1.287 1.838v3.575h-.847V94.07c0-.638-.121-1.265-.737-1.265-.352 0-.693.297-.792.869-.033.12-.044.285-.044.473v3.355h-.847v-3.948zm6.171.286c0-.814-.033-1.288-.044-1.662h.759l.044.672h.022c.286-.562.715-.76 1.122-.76.935 0 1.54.979 1.54 2.739 0 1.98-.814 2.762-1.639 2.762-.506 0-.792-.308-.935-.604h-.022v2.629h-.847V93.84zm.847 1.716c0 .154.011.308.044.44.165.759.539.891.77.891.704 0 .936-.968.936-2.035 0-1.111-.264-2.035-.936-2.035-.385 0-.737.484-.781.968-.033.132-.033.265-.033.407v1.364zm5.049 2.035c-.957 0-1.727-.869-1.727-2.739 0-1.947.869-2.762 1.782-2.762.957 0 1.716.881 1.716 2.739 0 2.068-.946 2.762-1.76 2.762h-.011zm.044-.671c.726 0 .88-1.243.88-2.079 0-.825-.154-2.079-.902-2.079-.759 0-.902 1.254-.902 2.079 0 .88.154 2.079.914 2.079h.01zm2.672-7.03h.847v7.613h-.847V89.89zm2.497 1.464c-.275 0-.484-.221-.484-.551s.22-.55.495-.55c.308 0 .506.22.506.55s-.198.551-.506.551h-.011zm-.396 6.149v-5.325h.847v5.325h-.847zm4.621-.131c-.187.109-.506.198-.88.198-1.167 0-1.947-.936-1.947-2.695 0-1.529.77-2.772 2.101-2.772.286 0 .594.076.748.176l-.165.682a1.382 1.382 0 0 0-.605-.143c-.858 0-1.232 1.012-1.232 2.058 0 1.243.473 1.991 1.254 1.991.22 0 .418-.044.605-.144l.121.649zm1.385-5.194l.704 3.059c.099.418.143.76.22 1.101h.022c.055-.309.143-.704.231-1.089l.627-3.07h.836l-.869 3.421c-.33 1.331-.693 2.618-1.32 3.433-.374.473-.77.715-.958.803l-.308-.715c.242-.143.517-.374.748-.671a3.32 3.32 0 0 0 .484-.902.703.703 0 0 0 .055-.264c0-.066 0-.133-.022-.198l-1.342-4.907h.892zm7.898 4.115c0 .407 0 .869.055 1.21h-.759l-.055-.562h-.033c-.231.407-.605.649-1.056.649-.715 0-1.265-.594-1.265-1.519 0-1.342 1.067-1.925 2.266-1.936v-.165c0-.716-.176-1.21-.847-1.21-.33 0-.627.099-.88.274l-.187-.594c.231-.165.715-.353 1.243-.353 1.067 0 1.518.704 1.518 1.893v2.313zm-.825-1.551c-.44 0-1.463.088-1.463 1.243 0 .704.352.946.649.946.374 0 .682-.274.781-.803.022-.1.033-.209.033-.309v-1.077zm2.024-1.188c0-.628-.033-.946-.044-1.376h.737l.044.639h.022a1.35 1.35 0 0 1 1.221-.727c.737 0 1.287.539 1.287 1.838v3.575h-.847V94.07c0-.638-.121-1.265-.737-1.265-.352 0-.693.297-.792.869-.033.12-.044.285-.044.473v3.355h-.847v-3.948zm7.667-3.664v6.337c0 .363.033.969.044 1.276h-.726l-.055-.66h-.044c-.165.374-.55.748-1.111.748-.902 0-1.551-.968-1.551-2.729 0-1.892.781-2.772 1.606-2.772.385 0 .759.177.968.627h.022V89.89h.847zm-.847 4.313c0-.109 0-.23-.011-.352-.044-.55-.385-1.034-.792-1.034-.704 0-.946.979-.946 2.046 0 1.122.286 2.024.902 2.024.264 0 .627-.143.814-.913.033-.099.033-.22.033-.352v-1.419zm3.608 2.421c.187.121.517.274.858.274.473 0 .781-.297.781-.77 0-.407-.143-.693-.682-1.045-.693-.451-1.067-.913-1.067-1.519 0-.869.638-1.475 1.463-1.475.418 0 .726.133.946.275l-.22.638a1.214 1.214 0 0 0-.715-.241c-.451 0-.682.329-.682.682 0 .352.132.562.66.913.616.396 1.1.892 1.1 1.628 0 1.067-.726 1.585-1.606 1.585-.385 0-.814-.121-1.045-.309l.209-.636zm3.915-1.706c.011 1.639.649 1.979 1.254 1.979.374 0 .671-.088.88-.197l.143.615c-.297.165-.748.254-1.177.254-1.266 0-1.925-1.034-1.925-2.674 0-1.728.726-2.806 1.793-2.806 1.078 0 1.518 1.145 1.518 2.344 0 .209-.011.352-.022.484h-2.464zm1.673-.627c.011-1.066-.385-1.54-.792-1.54-.55 0-.836.814-.869 1.54h1.661zm4.323 3.081c-.187.109-.506.198-.88.198-1.167 0-1.947-.936-1.947-2.695 0-1.529.77-2.772 2.101-2.772.286 0 .594.076.748.176l-.165.682a1.382 1.382 0 0 0-.605-.143c-.858 0-1.232 1.012-1.232 2.058 0 1.243.473 1.991 1.254 1.991.22 0 .418-.044.605-.144l.121.649zm3.96-1.321c0 .583.033 1.056.044 1.452h-.737l-.066-.562h-.022c-.154.265-.561.649-1.133.649-.924 0-1.298-.726-1.298-2.046v-3.367h.847v3.246c0 .825.132 1.452.715 1.452.495 0 .715-.462.759-.715.033-.144.044-.298.044-.474v-3.51h.847v3.875zm1.176-2.497c0-.451-.033-.979-.044-1.376h.759l.044.837h.022c.176-.507.627-.925 1.122-.925.066 0 .121 0 .176.012v.869c-.055-.012-.11-.012-.176-.012-.539 0-.935.495-1.023 1.111a3.146 3.146 0 0 0-.033.484v2.948h-.847v-3.948zm3.135-2.2c-.275 0-.484-.221-.484-.551s.22-.55.495-.55c.308 0 .506.22.506.55s-.198.551-.506.551h-.011zm-.396 6.149v-5.325h.847v5.325h-.847zm3.058-6.568v1.243h1.023v.639h-1.023v3.168c0 .704.242.881.55.881.143 0 .253-.012.341-.033l.044.648a1.827 1.827 0 0 1-.627.089c-.341 0-.638-.089-.836-.319-.22-.242-.319-.605-.319-1.343v-3.091h-.649v-.639h.649v-.901l.847-.342zm2.321 1.243l.704 3.059c.099.418.143.76.22 1.101h.022c.055-.309.143-.704.231-1.089l.627-3.07h.836l-.869 3.422c-.33 1.331-.693 2.618-1.32 3.433-.374.473-.77.715-.958.803l-.308-.715c.242-.143.517-.374.748-.671a3.32 3.32 0 0 0 .484-.902.703.703 0 0 0 .055-.264c0-.066 0-.133-.022-.198l-1.342-4.907h.892zm4.95 4.446c.187.121.517.274.858.274.473 0 .781-.297.781-.77 0-.407-.143-.693-.682-1.045-.693-.451-1.067-.913-1.067-1.519 0-.869.638-1.475 1.463-1.475.418 0 .726.133.946.275l-.22.638a1.214 1.214 0 0 0-.715-.241c-.451 0-.682.329-.682.682 0 .352.132.562.66.913.616.396 1.1.892 1.1 1.628 0 1.067-.726 1.585-1.606 1.585-.385 0-.814-.121-1.045-.309l.209-.636zm6.127-.331c0 .407 0 .869.055 1.21h-.759l-.055-.562h-.033c-.231.407-.605.649-1.056.649-.715 0-1.265-.594-1.265-1.519 0-1.342 1.067-1.925 2.266-1.936v-.165c0-.716-.176-1.21-.847-1.21-.33 0-.627.099-.88.274l-.187-.594c.231-.165.715-.353 1.243-.353 1.067 0 1.518.704 1.518 1.893v2.313zm-.825-1.551c-.44 0-1.463.088-1.463 1.243 0 .704.352.946.649.946.374 0 .682-.274.781-.803.022-.1.033-.209.033-.309v-1.077zm2.024-1.188c0-.628-.033-.946-.044-1.376h.737l.044.639h.022a1.35 1.35 0 0 1 1.221-.727c.737 0 1.287.539 1.287 1.838v3.575h-.847V94.07c0-.638-.121-1.265-.737-1.265-.352 0-.693.297-.792.869-.033.12-.044.285-.044.473v3.355h-.847v-3.948zm7.667-3.664v6.337c0 .363.033.969.044 1.276h-.726l-.055-.66h-.044c-.165.374-.55.748-1.111.748-.902 0-1.551-.968-1.551-2.729 0-1.892.781-2.772 1.606-2.772.385 0 .759.177.968.627h.022V89.89h.847zm-.847 4.313c0-.109 0-.23-.011-.352-.044-.55-.385-1.034-.792-1.034-.704 0-.946.979-.946 2.046 0 1.122.286 2.024.902 2.024.264 0 .627-.143.814-.913.033-.099.033-.22.033-.352v-1.419zm2.012-4.313h.847v2.916h.022c.275-.528.671-.716 1.122-.716.836 0 1.452.946 1.452 2.695 0 1.926-.792 2.806-1.606 2.806-.572 0-.858-.33-1.056-.781h-.044l-.055.693h-.726c.011-.308.044-.913.044-1.266V89.89zm.847 5.743c0 .121.011.23.033.33.198.781.561.924.792.924.682 0 .924-.924.924-2.058 0-1.066-.253-2.013-.936-2.013-.396 0-.715.484-.792.946a4.263 4.263 0 0 0-.022.374v1.497zm5.05 1.958c-.957 0-1.727-.869-1.727-2.739 0-1.947.869-2.762 1.782-2.762.957 0 1.716.881 1.716 2.739 0 2.068-.946 2.762-1.76 2.762h-.011zm.044-.671c.726 0 .88-1.243.88-2.079 0-.825-.154-2.079-.902-2.079-.759 0-.902 1.254-.902 2.079 0 .88.154 2.079.914 2.079h.01zm2.981-4.742l.495 1.134c.132.308.242.616.352.935h.022c.121-.341.242-.648.363-.935l.473-1.134h.869l-1.265 2.619 1.254 2.706h-.924l-.506-1.199c-.121-.286-.22-.562-.352-.913h-.022c-.11.319-.231.616-.352.913l-.484 1.199h-.869l1.265-2.674-1.221-2.651h.902zm3.662-.824c-.275 0-.484-.221-.484-.551s.22-.55.495-.55c.308 0 .506.22.506.55s-.198.551-.506.551h-.011zm-.396 6.149v-5.325h.847v5.325h-.847zm2.024-3.949c0-.628-.033-.946-.044-1.376h.737l.044.639h.022a1.35 1.35 0 0 1 1.221-.727c.737 0 1.287.539 1.287 1.838v3.575h-.846V94.07c0-.638-.121-1.265-.737-1.265-.352 0-.693.297-.792.869-.033.12-.044.285-.044.473v3.355h-.847v-3.948zm7.667 3.268c0 1.396-.176 1.925-.528 2.321-.33.352-.825.561-1.419.561-.451 0-.891-.11-1.166-.264l.198-.66c.209.109.561.23.979.23.672 0 1.09-.418 1.09-1.628v-.539h-.022c-.176.418-.572.649-1.012.649-.946 0-1.562-1.067-1.562-2.63 0-1.969.88-2.772 1.672-2.772.562 0 .825.374.99.683h.022l.044-.595h.759c-.011.363-.044.837-.044 1.662v2.982zm-.847-2.806c0-.144-.012-.275-.044-.396-.088-.352-.286-.803-.771-.803-.605 0-.936.825-.936 2.002 0 1.364.43 1.98.936 1.98.264 0 .594-.121.759-.759.056-.165.056-.33.056-.484v-1.54zm85.228-22.692l-1.42-7.415h.869l.627 3.575c.166.936.275 1.761.375 2.674h.033c.098-.936.264-1.738.45-2.685l.683-3.564h.715l.693 3.487c.164.88.33 1.728.429 2.762h.033c.12-1.067.253-1.882.385-2.718l.616-3.531h.836l-1.441 7.415h-.836l-.704-3.608a34.466 34.466 0 0 1-.385-2.432h-.022c-.099.836-.23 1.64-.406 2.465l-.727 3.575h-.803zm6.336-2.585c.011 1.639.648 1.979 1.254 1.979.374 0 .671-.088.88-.197l.144.615c-.297.165-.748.254-1.178.254-1.266 0-1.925-1.034-1.925-2.674 0-1.728.726-2.806 1.793-2.806 1.078 0 1.519 1.145 1.519 2.344 0 .209-.012.352-.022.484h-2.465zm1.672-.628c.012-1.066-.385-1.54-.792-1.54-.55 0-.837.814-.869 1.54h1.661zm1.715-4.401h.848v2.916h.021c.275-.528.672-.716 1.123-.716.836 0 1.451.946 1.451 2.695 0 1.926-.791 2.806-1.605 2.806-.572 0-.858-.33-1.057-.781h-.043l-.056.693h-.726c.011-.308.043-.913.043-1.266V63.71zm.847 5.744c0 .121.012.23.033.33.197.781.561.924.792.924.683 0 .925-.924.925-2.058 0-1.066-.254-2.013-.936-2.013-.396 0-.715.484-.793.946-.01.121-.021.253-.021.374v1.497zm3.619-5.435c.363-.1.803-.144 1.221-.144.737 0 1.287.154 1.673.528.362.374.517.869.517 1.452 0 .946-.439 1.562-1.188 1.914v.022c.55.165.836.692.99 1.661.176 1.012.318 1.639.429 1.87h-.858c-.109-.22-.253-.924-.396-1.826-.164-1.023-.483-1.397-1.209-1.397h-.33v3.224h-.848v-7.304zm.848 3.421h.352c.814 0 1.354-.594 1.354-1.485 0-.847-.353-1.386-1.266-1.396-.165 0-.33.011-.439.044v2.837zm4.399-2.773h-1.353v-.759h3.553v.759h-1.354v6.656h-.847v-6.656zm5.919 6.525c-.232.121-.605.198-1.068.198-1.441 0-2.486-1.155-2.486-3.675 0-2.938 1.453-3.873 2.63-3.873.44 0 .771.088.913.188l-.188.715c-.176-.077-.352-.154-.736-.154-.793 0-1.728.771-1.728 3.037 0 2.277.836 3.015 1.749 3.015.319 0 .594-.077.771-.154l.143.703zM104.244 122.41a2.29 2.29 0 0 0 1.067.298c.771 0 1.232-.507 1.232-1.255 0-.682-.396-1.1-.979-1.54-.583-.407-1.397-1.101-1.397-2.058 0-1.122.792-1.947 1.958-1.947.462 0 .869.154 1.045.275l-.209.727a1.542 1.542 0 0 0-.88-.254c-.726 0-1.067.551-1.067 1.057 0 .737.385 1.034 1.089 1.529.891.627 1.287 1.309 1.287 2.134 0 1.276-.902 2.08-2.08 2.08-.506 0-1.045-.165-1.254-.33l.188-.716zm5.643 1.068c-.957 0-1.727-.869-1.727-2.739 0-1.947.869-2.762 1.782-2.762.957 0 1.716.881 1.716 2.739 0 2.068-.946 2.762-1.76 2.762h-.011zm.044-.671c.726 0 .88-1.243.88-2.079 0-.825-.154-2.079-.902-2.079-.759 0-.902 1.254-.902 2.079 0 .88.154 2.079.914 2.079h.01zm5.269.451c-.187.109-.506.198-.88.198-1.167 0-1.947-.936-1.947-2.695 0-1.529.77-2.772 2.101-2.772.286 0 .594.076.748.176l-.165.682a1.382 1.382 0 0 0-.605-.143c-.858 0-1.232 1.012-1.232 2.058 0 1.243.473 1.991 1.254 1.991.22 0 .418-.044.605-.144l.121.649zm1.562-2.718h.022c.099-.209.187-.418.286-.594l1.056-1.882h.913l-1.408 2.245 1.54 3.08h-.946l-1.155-2.509-.308.495v2.014h-.847v-7.613h.847v4.764zm3.487.265c.011 1.639.649 1.979 1.254 1.979.374 0 .671-.088.88-.197l.143.615c-.297.165-.748.254-1.177.254-1.265 0-1.925-1.034-1.925-2.674 0-1.728.726-2.806 1.793-2.806 1.078 0 1.518 1.145 1.518 2.344 0 .209-.011.352-.022.484h-2.464zm1.672-.628c.011-1.066-.385-1.54-.792-1.54-.55 0-.836.814-.869 1.54h1.661zm2.761-3.356v1.243h1.023v.639h-1.023v3.168c0 .704.242.881.55.881.143 0 .253-.012.341-.033l.044.648a1.827 1.827 0 0 1-.627.089c-.341 0-.638-.089-.836-.319-.22-.242-.319-.605-.319-1.343v-3.091h-.649v-.639h.649v-.901l.847-.342zm3.498 2.619c0-.628-.033-.946-.044-1.376h.748l.044.649h.022c.231-.429.627-.737 1.188-.737.495 0 .924.231 1.122.804h.022c.143-.265.33-.474.517-.605.22-.132.462-.198.737-.198.726 0 1.287.518 1.287 1.882v3.531h-.847v-3.345c0-.692-.099-1.364-.737-1.364-.352 0-.66.297-.781.804-.033.132-.033.297-.033.473v3.433h-.847v-3.498c0-.584-.099-1.211-.727-1.211-.352 0-.693.297-.792.869a2.796 2.796 0 0 0-.033.451v3.389h-.847v-3.951zm9.625 2.74c0 .407 0 .869.055 1.21h-.759l-.055-.562h-.033c-.231.407-.605.649-1.056.649-.715 0-1.265-.594-1.265-1.519 0-1.342 1.067-1.925 2.266-1.936v-.165c0-.716-.176-1.21-.847-1.21-.33 0-.627.099-.88.274l-.187-.594c.231-.165.715-.353 1.243-.353 1.067 0 1.518.704 1.518 1.893v2.313zm-.825-1.552c-.44 0-1.463.088-1.463 1.243 0 .704.352.946.649.946.374 0 .682-.274.781-.803.022-.1.033-.209.033-.309v-1.077zm2.023-1.188c0-.628-.033-.946-.044-1.376h.737l.044.639h.022a1.35 1.35 0 0 1 1.221-.727c.737 0 1.287.539 1.287 1.838v3.575h-.847v-3.433c0-.638-.121-1.265-.737-1.265-.352 0-.693.297-.792.869-.033.12-.044.285-.044.473v3.355h-.847v-3.948zm7.261 2.74c0 .407 0 .869.055 1.21h-.759l-.055-.562h-.033c-.231.407-.605.649-1.056.649-.715 0-1.265-.594-1.265-1.519 0-1.342 1.067-1.925 2.266-1.936v-.165c0-.716-.176-1.21-.847-1.21-.33 0-.627.099-.88.274l-.187-.594c.231-.165.715-.353 1.243-.353 1.067 0 1.518.704 1.518 1.893v2.313zm-.825-1.552c-.44 0-1.463.088-1.463 1.243 0 .704.352.946.649.946.374 0 .682-.274.781-.803.022-.1.033-.209.033-.309v-1.077zm5.236 2.08c0 1.396-.176 1.925-.528 2.321-.33.352-.825.561-1.419.561-.451 0-.891-.11-1.167-.264l.198-.66c.209.109.561.23.979.23.671 0 1.089-.418 1.089-1.628v-.539h-.022c-.176.418-.572.649-1.012.649-.946 0-1.562-1.067-1.562-2.63 0-1.969.88-2.772 1.672-2.772.561 0 .825.374.99.683h.022l.044-.595h.759c-.011.363-.044.837-.044 1.662v2.982zm-.847-2.806c0-.144-.011-.275-.044-.396-.088-.352-.286-.803-.77-.803-.605 0-.936.825-.936 2.002 0 1.364.429 1.98.936 1.98.264 0 .594-.121.759-.759.055-.165.055-.33.055-.484v-1.54zm2.617.903c.011 1.639.649 1.979 1.254 1.979.374 0 .671-.088.88-.197l.143.615c-.297.165-.748.254-1.177.254-1.265 0-1.925-1.034-1.925-2.674 0-1.728.726-2.806 1.793-2.806 1.078 0 1.518 1.145 1.518 2.344 0 .209-.011.352-.022.484h-2.464zm1.672-.628c.011-1.066-.385-1.54-.792-1.54-.55 0-.836.814-.869 1.54h1.661zm1.727-.737c0-.628-.033-.946-.044-1.376h.748l.044.649h.022c.231-.429.627-.737 1.188-.737.495 0 .924.231 1.122.804h.022c.143-.265.33-.474.517-.605.22-.132.462-.198.737-.198.726 0 1.287.518 1.287 1.882v3.531h-.847v-3.345c0-.692-.099-1.364-.737-1.364-.352 0-.66.297-.781.804-.033.132-.033.297-.033.473v3.433h-.847v-3.498c0-.584-.099-1.211-.726-1.211-.352 0-.693.297-.792.869a2.796 2.796 0 0 0-.033.451v3.389h-.847v-3.951zm7.414 1.365c.011 1.639.649 1.979 1.254 1.979.374 0 .671-.088.88-.197l.143.615c-.297.165-.748.254-1.177.254-1.266 0-1.925-1.034-1.925-2.674 0-1.728.726-2.806 1.793-2.806 1.078 0 1.518 1.145 1.518 2.344 0 .209-.011.352-.022.484h-2.464zm1.672-.628c.011-1.066-.385-1.54-.792-1.54-.55 0-.836.814-.869 1.54h1.661zm1.727-.737c0-.628-.033-.946-.044-1.376h.737l.044.639h.022a1.35 1.35 0 0 1 1.221-.727c.737 0 1.287.539 1.287 1.838v3.575h-.847v-3.433c0-.638-.121-1.265-.737-1.265-.352 0-.693.297-.792.869-.033.12-.044.285-.044.473v3.355h-.847v-3.948zm5.423-2.619v1.243h1.023v.639h-1.023v3.168c0 .704.242.881.551.881.143 0 .252-.012.341-.033l.044.648a1.827 1.827 0 0 1-.627.089c-.342 0-.639-.089-.836-.319-.221-.242-.319-.605-.319-1.343v-3.091h-.649v-.639h.649v-.901l.846-.342zm6.303 5.359c0 .407 0 .869.056 1.21h-.76l-.055-.562h-.033c-.23.407-.605.649-1.057.649-.715 0-1.265-.594-1.265-1.519 0-1.342 1.067-1.925 2.267-1.936v-.165c0-.716-.176-1.21-.848-1.21-.33 0-.627.099-.88.274l-.187-.594c.23-.165.715-.353 1.242-.353 1.067 0 1.519.704 1.519 1.893v2.313zm-.825-1.552c-.439 0-1.463.088-1.463 1.243 0 .704.352.946.648.946.375 0 .683-.274.781-.803.022-.1.033-.209.033-.309v-1.077zm2.024-1.188c0-.628-.033-.946-.043-1.376h.736l.044.639h.022c.23-.43.66-.727 1.221-.727.737 0 1.287.539 1.287 1.838v3.575h-.847v-3.433c0-.638-.121-1.265-.737-1.265-.352 0-.693.297-.792.869-.033.12-.044.285-.044.473v3.355h-.848v-3.948zm7.668-3.664v6.337c0 .363.032.969.043 1.276h-.726l-.056-.66h-.043c-.166.374-.551.748-1.111.748-.902 0-1.551-.968-1.551-2.729 0-1.892.78-2.772 1.605-2.772.385 0 .76.177.969.627h.021v-2.827h.849zm-.848 4.313c0-.109 0-.23-.012-.352-.043-.55-.385-1.034-.791-1.034-.705 0-.947.979-.947 2.046 0 1.122.287 2.024.902 2.024.265 0 .627-.143.814-.913.033-.099.033-.22.033-.352v-1.419zm5.247 3.389c-.957 0-1.728-.869-1.728-2.739 0-1.947.869-2.762 1.783-2.762.957 0 1.715.881 1.715 2.739 0 2.068-.945 2.762-1.76 2.762h-.01zm.044-.671c.727 0 .881-1.243.881-2.079 0-.825-.154-2.079-.902-2.079-.76 0-.902 1.254-.902 2.079 0 .88.154 2.079.913 2.079h.01zm2.662-3.08c0-.814-.033-1.288-.045-1.662h.76l.044.672h.022c.285-.562.715-.76 1.121-.76.936 0 1.541.979 1.541 2.739 0 1.98-.814 2.762-1.64 2.762-.506 0-.792-.308-.935-.604h-.022v2.629h-.847v-5.776zm.847 1.715c0 .154.011.308.044.44.165.759.539.891.77.891.705 0 .936-.968.936-2.035 0-1.111-.264-2.035-.936-2.035-.385 0-.736.484-.78.968-.033.132-.033.265-.033.407v1.364zm4.587-4.621v1.243h1.023v.639h-1.023v3.168c0 .704.242.881.55.881.144 0 .253-.012.341-.033l.045.648a1.83 1.83 0 0 1-.627.089c-.342 0-.639-.089-.837-.319-.22-.242-.319-.605-.319-1.343v-3.091h-.648v-.639h.648v-.901l.847-.342zm2.167.419c-.274 0-.484-.221-.484-.551s.22-.55.495-.55c.309 0 .506.22.506.55s-.197.551-.506.551h-.011zm-.396 6.15v-5.325h.847v5.325h-.847zm2.024-3.95c0-.628-.033-.946-.044-1.376h.748l.044.649h.021c.231-.429.627-.737 1.188-.737.495 0 .925.231 1.122.804h.021c.144-.265.33-.474.518-.605a1.4 1.4 0 0 1 .737-.198c.726 0 1.287.518 1.287 1.882v3.531h-.847v-3.345c0-.692-.1-1.364-.737-1.364-.353 0-.66.297-.781.804-.033.132-.033.297-.033.473v3.433h-.847v-3.498c0-.584-.1-1.211-.727-1.211-.352 0-.693.297-.792.869a2.803 2.803 0 0 0-.032.451v3.389h-.848v-3.951zm7.215-2.2c-.274 0-.484-.221-.484-.551s.22-.55.495-.55c.309 0 .506.22.506.55s-.197.551-.506.551h-.011zm-.395 6.15v-5.325h.847v5.325h-.847zm1.605-.517l1.684-3.301c.143-.265.308-.55.428-.781v-.022h-1.902v-.704h2.85v.562l-1.673 3.245c-.143.265-.308.551-.429.792v.022h2.09v.704h-3.047v-.517zm6.666-.693c0 .407 0 .869.055 1.21h-.759l-.056-.562h-.032c-.231.407-.604.649-1.056.649-.716 0-1.266-.594-1.266-1.519 0-1.342 1.066-1.925 2.266-1.936v-.165c0-.716-.176-1.21-.847-1.21-.33 0-.627.099-.88.274l-.188-.594c.231-.165.715-.353 1.244-.353 1.066 0 1.518.704 1.518 1.893v2.313zm-.825-1.552c-.44 0-1.463.088-1.463 1.243 0 .704.353.946.649.946.373 0 .682-.274.781-.803.021-.1.032-.209.032-.309v-1.077zm2.959-3.807v1.243h1.022v.639h-1.022v3.168c0 .704.241.881.55.881.143 0 .253-.012.342-.033l.043.648a1.827 1.827 0 0 1-.627.089c-.341 0-.638-.089-.836-.319-.221-.242-.318-.605-.318-1.343v-3.091h-.65v-.639h.65v-.901l.846-.342zm2.167.419c-.275 0-.484-.221-.484-.551s.221-.55.495-.55c.308 0 .507.22.507.55s-.199.551-.507.551h-.011zm-.396 6.15v-5.325h.848v5.325h-.848zm3.52.088c-.957 0-1.728-.869-1.728-2.739 0-1.947.869-2.762 1.783-2.762.957 0 1.715.881 1.715 2.739 0 2.068-.945 2.762-1.76 2.762h-.01zm.044-.671c.727 0 .881-1.243.881-2.079 0-.825-.154-2.079-.902-2.079-.76 0-.902 1.254-.902 2.079 0 .88.154 2.079.913 2.079h.01zm2.673-3.367c0-.628-.033-.946-.044-1.376h.736l.045.639h.021c.23-.43.66-.727 1.221-.727.738 0 1.287.539 1.287 1.838v3.575h-.846v-3.433c0-.638-.121-1.265-.738-1.265-.352 0-.693.297-.791.869-.033.12-.045.285-.045.473v3.355h-.847v-3.948zm-91.315 23.499h-1.331v-1.078h3.839v1.078h-1.331v6.337h-1.177v-6.337zm6.491 6.216c-.22.11-.605.188-1.089.188-1.694 0-2.662-1.387-2.662-3.675 0-2.85 1.507-3.873 2.827-3.873.484 0 .825.1.968.188l-.22 1.001c-.176-.088-.352-.154-.704-.154-.803 0-1.628.737-1.628 2.762 0 1.991.748 2.706 1.639 2.706.275 0 .55-.065.726-.132l.143.989zm.824-7.184a6.149 6.149 0 0 1 1.375-.144c.781 0 1.419.144 1.859.562.396.374.594.946.594 1.584 0 .748-.209 1.254-.55 1.65-.44.517-1.155.77-1.782.77-.121 0-.22 0-.33-.011v2.894h-1.167v-7.305zm1.167 3.444c.088.021.165.021.286.021.771 0 1.199-.527 1.199-1.375 0-.693-.286-1.276-1.078-1.276a1.31 1.31 0 0 0-.407.056v2.574zm1.638 5.236c.275-.792.572-1.947.693-2.761l1.232-.11c-.297.946-.759 2.123-1.155 2.783l-.77.088zm5.192-7.712h-1.331v-1.078h3.839v1.078h-1.331v6.337h-1.177v-6.337zm3.311-1.078h1.177v6.425h1.98v.99h-3.158v-7.415zm3.839 6.161c.275.165.759.297 1.145.297.726 0 1.122-.418 1.122-1.034 0-.594-.363-.936-.968-1.354-.825-.527-1.397-1.265-1.397-2.068 0-1.155.781-2.068 2.167-2.068.473 0 .902.144 1.1.265l-.209 1.012a1.7 1.7 0 0 0-.913-.253c-.671 0-.99.451-.99.902 0 .572.297.836 1.056 1.32.936.616 1.31 1.331 1.31 2.123 0 1.331-.946 2.179-2.277 2.179-.55 0-1.111-.154-1.342-.309l.196-1.012zm3.839 2.629c.275-.792.572-1.947.693-2.761l1.232-.11c-.297.946-.759 2.123-1.155 2.783l-.77.088zm5.753-8.79v4.885c0 1.199.374 1.584.836 1.584.518 0 .857-.374.857-1.584v-4.885h1.178v4.687c0 1.914-.759 2.816-2.035 2.816-1.353 0-2.013-.924-2.013-2.762v-4.741h1.177zm4.147.11a5.51 5.51 0 0 1 1.32-.144c.858 0 1.475.209 1.914.616.605.539.979 1.507.979 2.992 0 1.596-.396 2.597-.957 3.146-.495.506-1.222.748-2.179.748-.406 0-.814-.032-1.078-.077v-7.281zm1.166 6.369c.1.022.209.022.286.022.814 0 1.552-.683 1.552-2.938 0-1.684-.473-2.651-1.496-2.651-.121 0-.242.011-.342.033v5.534zm4.004-6.369a6.149 6.149 0 0 1 1.375-.144c.781 0 1.42.144 1.859.562.396.374.594.946.594 1.584 0 .748-.209 1.254-.549 1.65-.441.517-1.156.77-1.783.77-.121 0-.22 0-.33-.011v2.894h-1.166v-7.305zm1.166 3.444c.088.021.166.021.286.021.771 0 1.199-.527 1.199-1.375 0-.693-.286-1.276-1.078-1.276a1.31 1.31 0 0 0-.407.056v2.574zm1.638 5.236c.275-.792.572-1.947.693-2.761l1.232-.11c-.297.946-.76 2.123-1.155 2.783l-.77.088zm4.61-8.68a5.503 5.503 0 0 1 1.32-.144c.857 0 1.474.209 1.914.616.605.539.979 1.507.979 2.992 0 1.596-.396 2.597-.957 3.146-.494.506-1.221.748-2.178.748-.407 0-.814-.032-1.078-.077v-7.281zm1.166 6.369c.099.022.209.022.285.022.814 0 1.552-.683 1.552-2.938 0-1.684-.473-2.651-1.496-2.651a1.63 1.63 0 0 0-.341.033v5.534zm4.004.936v-7.415h1.078l1.254 3.168c.264.672.639 1.629.869 2.344h.021a48.634 48.634 0 0 1-.131-3.41v-2.102h1.033v7.415h-1.078l-1.266-3.157c-.274-.683-.604-1.573-.813-2.354h-.022c.056.858.088 1.903.088 3.443v2.068h-1.033zm5.257-1.254c.275.165.759.297 1.145.297.726 0 1.121-.418 1.121-1.034 0-.594-.363-.936-.968-1.354-.825-.527-1.397-1.265-1.397-2.068 0-1.155.781-2.068 2.168-2.068.473 0 .902.144 1.1.265l-.209 1.012a1.704 1.704 0 0 0-.913-.253c-.671 0-.99.451-.99.902 0 .572.298.836 1.056 1.32.936.616 1.311 1.331 1.311 2.123 0 1.331-.947 2.179-2.277 2.179-.551 0-1.111-.154-1.343-.309l.196-1.012z"/></svg>