<svg xmlns="http://www.w3.org/2000/svg" viewBox="0 0 340.232 199.497"><path fill="#59b886" d="M5.975 59.608l52.982-30.801 63.647 34.152-52.855 30.798z"/><path fill="none" stroke="#000" stroke-miterlimit="10" d="M161.804 143.142l-49.363-77.455m191.595 53.584H143.542l-78.026 22.111"/><path fill="#80b8dd" d="M73.958 34.099v19.205l-12.956-7.288V26.812z"/><path fill="#cce3f2" d="M73.133 34.858v1.968l-11.306-6.36v-1.967zm0 2.819v1.968l-11.306-6.361v-1.967zm0 2.818v1.967l-11.306-6.359v-1.967zm0 2.818v1.967l-11.306-6.359v-1.967zm-4.85 1.852v4.94l-3.333-1.876V43.29z"/><path fill="#4c9cd0" d="M73.953 34.104l11.919-6.862v19.204l-11.919 6.863z"/><path fill="#b2d4eb" d="M74.775 34.956l10.276-5.916v1.871l-10.276 5.915zm0 2.816l10.276-5.914v1.871l-10.276 5.916z"/><path fill="#999" d="M61.002 26.815l11.953-6.862 12.925 7.288-11.922 6.86z"/><path fill="#338dc9" d="M61.002 26.815l11.953-6.862 12.925 7.288-11.922 6.86z"/><path fill="#b2d4eb" d="M62.447 26.816l10.507-6.032 11.484 6.455-10.48 6.032z"/><path fill="#0071bc" d="M62.447 26.816l10.507-6.032v.831l-9.77 5.624z"/><path fill="#80b8dd" d="M84.438 27.239l-11.484-6.455v.831l10.7 6.075zm9.01 23.661v10.458L76.76 51.694V41.236z"/><path fill="#4c9cd0" d="M93.443 50.903l9.096-5.236v10.459l-9.096 5.236z"/><path fill="#999" d="M76.76 41.238l9.122-5.237 16.664 9.664-9.098 5.236z"/><path fill="#338dc9" d="M76.76 41.238l9.122-5.237 16.664 9.664-9.098 5.236z"/><path fill="#b2d4eb" d="M77.862 41.239l8.018-4.603 15.564 9.028-7.996 4.602z"/><path fill="#4c9cd0" d="M77.307 40.915l8.018-4.604v.645l-7.456 4.28z"/><path fill="#80b8dd" d="M101.444 45.664l-16.119-9.353v.645l15.521 9.053z"/><path fill="#cce3f2" d="M80.7 44.299v1.839l-2.288-1.326v-1.838zm2.62 1.522v1.838l-2.288-1.324v-1.839zm2.621 1.521v1.84l-2.289-1.326v-1.838zm2.621 1.523v1.838l-2.289-1.325V47.54zm2.619 1.521v1.84L88.894 50.9v-1.838zM80.7 46.765v1.838l-2.288-1.327v-1.838zm2.62 1.521v1.838l-2.288-1.325V46.96zm2.621 1.522v1.838l-2.289-1.326v-1.839zm2.621 1.521v1.839l-2.289-1.325v-1.839zm2.619 1.522v1.838l-2.287-1.325v-1.838zM80.7 49.229v1.838l-2.288-1.324v-1.84zm2.62 1.522v1.838l-2.288-1.326v-1.838zm2.621 1.521v1.838l-2.289-1.324v-1.84zm2.621 1.522v1.838l-2.289-1.324v-1.84zm2.619 1.521v1.838l-2.287-1.324V53.99z"/><path fill="#b2d4eb" d="M94.29 51.644l7.678-4.415v1.872l-7.678 4.414zm0 2.543l7.678-4.415v1.872l-7.678 4.414z"/><path fill="#80b8dd" d="M49.314 33.717v19.205l-12.956-7.288V26.431z"/><path fill="#cce3f2" d="M48.49 34.477v1.967l-11.306-6.36v-1.967zm0 2.818v1.968l-11.306-6.361v-1.966zm0 2.818v1.967l-11.306-6.359v-1.967zm0 2.819v1.966l-11.306-6.359v-1.967zm-4.85 1.851v4.941l-3.333-1.876v-4.94z"/><path fill="#4c9cd0" d="M49.31 33.723l11.919-6.863v19.204L49.31 52.927z"/><path fill="#b2d4eb" d="M50.132 34.574l10.275-5.916v1.871l-10.275 5.915zm0 2.817l10.275-5.914v1.871l-10.275 5.915z"/><path fill="#999" d="M36.358 26.433l11.953-6.862 12.926 7.288-11.923 6.86z"/><path fill="#338dc9" d="M36.358 26.433l11.953-6.862 12.926 7.288-11.923 6.86z"/><path fill="#b2d4eb" d="M37.804 26.435l10.506-6.033 11.484 6.455-10.48 6.032z"/><path fill="#0071bc" d="M37.804 26.435l10.506-6.033v.831l-9.769 5.624z"/><path fill="#80b8dd" d="M59.794 26.857L48.31 20.402v.831l10.7 6.075zm9.01 23.661v10.459l-16.688-9.665V40.854z"/><path fill="#4c9cd0" d="M68.8 50.521l9.096-5.236v10.459L68.8 60.98z"/><path fill="#999" d="M52.116 40.856l9.122-5.237 16.664 9.664-9.098 5.237z"/><path fill="#338dc9" d="M52.116 40.856l9.122-5.237 16.664 9.664-9.098 5.237z"/><path fill="#b2d4eb" d="M53.218 40.857l8.019-4.603 15.564 9.028-7.997 4.602z"/><path fill="#4c9cd0" d="M52.664 40.533l8.017-4.604v.645l-7.456 4.28z"/><path fill="#80b8dd" d="M76.801 45.282l-16.12-9.353v.645l15.521 9.053z"/><path fill="#cce3f2" d="M56.057 43.917v1.839l-2.288-1.325v-1.839zm2.62 1.522v1.838l-2.289-1.324v-1.839zm2.62 1.521v1.84l-2.288-1.325v-1.839zm2.621 1.523v1.838l-2.289-1.325v-1.838zm2.62 1.521v1.84l-2.288-1.326V48.68zm-10.481-3.621v1.838l-2.288-1.326v-1.838zm2.62 1.521v1.838l-2.289-1.325v-1.839zm2.62 1.522v1.838l-2.288-1.326V48.1zm2.621 1.521v1.839l-2.289-1.325v-1.839zm2.62 1.522v1.839l-2.288-1.326v-1.837zm-10.481-3.622v1.839l-2.288-1.325v-1.84zm2.62 1.522v1.838l-2.289-1.326v-1.838zm2.62 1.522v1.838l-2.288-1.325v-1.84zm2.621 1.521v1.838l-2.289-1.324v-1.84zm2.62 1.522v1.837l-2.288-1.324v-1.839z"/><path fill="#b2d4eb" d="M69.646 51.262l7.679-4.414v1.871l-7.679 4.414zm0 2.543l7.679-4.414v1.871l-7.679 4.414z"/><path fill="#59b886" d="M29.921 150.296l22.864-13.229 33.691 18.936-22.785 13.227z"/><path fill="#80b8dd" d="M49.436 137.183v19.205L36.48 149.1v-19.204z"/><path fill="#cce3f2" d="M48.611 137.942v1.968l-11.306-6.36v-1.967zm0 2.819v1.968l-11.306-6.361v-1.967zm0 2.818v1.967l-11.306-6.359v-1.967zm0 2.819v1.966l-11.306-6.359v-1.967zm-4.85 1.851v4.94l-3.333-1.875v-4.94z"/><path fill="#4c9cd0" d="M49.431 137.189l11.919-6.863v19.204l-11.919 6.863z"/><path fill="#b2d4eb" d="M50.254 138.04l10.275-5.916v1.871l-10.275 5.915zm0 2.817l10.275-5.915v1.872l-10.275 5.915z"/><path fill="#999" d="M36.48 129.898l11.953-6.861 12.925 7.288-11.922 6.86z"/><path fill="#338dc9" d="M36.48 129.898l11.953-6.861 12.925 7.288-11.922 6.86z"/><path fill="#b2d4eb" d="M37.925 129.9l10.507-6.032 11.484 6.455-10.48 6.032z"/><path fill="#0071bc" d="M37.925 129.9l10.507-6.032v.831l-9.77 5.624z"/><path fill="#80b8dd" d="M59.916 130.323l-11.484-6.455v.831l10.7 6.075zm9.01 23.66v10.459l-16.688-9.664V144.32z"/><path fill="#4c9cd0" d="M68.921 153.987l9.096-5.236v10.459l-9.096 5.236z"/><path fill="#999" d="M52.238 144.322l9.122-5.237 16.664 9.664-9.098 5.236z"/><path fill="#338dc9" d="M52.238 144.322l9.122-5.237 16.664 9.664-9.098 5.236z"/><path fill="#b2d4eb" d="M53.34 144.323l8.018-4.603 15.564 9.028-7.996 4.602z"/><path fill="#4c9cd0" d="M52.785 143.999l8.018-4.604v.645l-7.456 4.28z"/><path fill="#80b8dd" d="M76.922 148.748l-16.119-9.353v.645l15.521 9.053z"/><path fill="#cce3f2" d="M56.178 147.383v1.839l-2.288-1.326v-1.838zm2.62 1.522v1.838l-2.288-1.324v-1.839zm2.621 1.521v1.84l-2.289-1.325v-1.839zm2.621 1.523v1.838l-2.289-1.325v-1.838zm2.619 1.521v1.84l-2.287-1.327v-1.837zm-10.481-3.621v1.838l-2.288-1.327v-1.837zm2.62 1.521v1.838l-2.288-1.325v-1.839zm2.621 1.522v1.838l-2.289-1.326v-1.838zm2.621 1.521v1.839l-2.289-1.325v-1.839zm2.619 1.522v1.838l-2.287-1.325v-1.838zm-10.481-3.623v1.839l-2.288-1.324v-1.84zm2.62 1.523v1.838l-2.288-1.326v-1.838zm2.621 1.522v1.837l-2.289-1.324v-1.84zm2.621 1.521v1.838l-2.289-1.324v-1.84zm2.619 1.522v1.837l-2.287-1.324v-1.839z"/><path fill="#b2d4eb" d="M69.768 154.728l7.678-4.414v1.871l-7.678 4.414zm0 2.543l7.678-4.414v1.871l-7.678 4.414z"/><path fill="#59b886" d="M151.297 182.392l22.864-13.229 20.249 11.382-22.784 13.226z"/><path fill="#80b8dd" d="M170.812 169.278v19.205l-12.956-7.288v-19.203z"/><path fill="#cce3f2" d="M169.987 170.038v1.968l-11.306-6.36v-1.967zm0 2.819v1.967l-11.306-6.36v-1.967zm0 2.818v1.967l-11.306-6.36v-1.966zm0 2.818v1.967l-11.306-6.359v-1.967zm-4.85 1.852v4.94l-3.333-1.876v-4.939z"/><path fill="#4c9cd0" d="M170.807 169.284l11.92-6.862v19.204l-11.92 6.862z"/><path fill="#b2d4eb" d="M171.629 170.136l10.275-5.916v1.871l-10.275 5.915zm0 2.816l10.275-5.914v1.871l-10.275 5.915zm0 2.698l10.275-5.914v1.871l-10.275 5.916zm0 2.787l10.275-5.914v1.871l-10.275 5.915z"/><path fill="#999" d="M157.856 161.994l11.953-6.862 12.925 7.289-11.922 6.859z"/><path fill="#338dc9" d="M157.856 161.994l11.953-6.862 12.925 7.289-11.922 6.859z"/><path fill="#b2d4eb" d="M159.301 161.996l10.507-6.032 11.483 6.455-10.479 6.031z"/><path fill="#0071bc" d="M159.301 161.996l10.507-6.032v.831l-9.77 5.624z"/><path fill="#80b8dd" d="M181.291 162.419l-11.483-6.455v.831l10.7 6.075zM69.261 51.183v19.205L56.305 63.1V43.896z"/><path fill="#cce3f2" d="M68.437 51.942v1.968L57.13 47.55v-1.967zm0 2.819v1.968L57.13 50.368v-1.967zm0 2.818v1.967L57.13 53.187V51.22zm0 2.818v1.967L57.13 56.005v-1.967zm-4.851 1.852v4.94l-3.332-1.876v-4.939z"/><path fill="#4c9cd0" d="M69.256 51.188l11.919-6.862V63.53l-11.919 6.863z"/><path fill="#b2d4eb" d="M70.079 52.04l10.275-5.916v1.871L70.079 53.91zm0 2.816l10.275-5.914v1.871l-10.275 5.916z"/><path fill="#999" d="M56.305 43.898l11.953-6.861 12.926 7.288-11.923 6.86z"/><path fill="#338dc9" d="M56.305 43.898l11.953-6.861 12.926 7.288-11.923 6.86z"/><path fill="#b2d4eb" d="M57.75 43.9l10.507-6.032 11.484 6.455-10.48 6.031z"/><path fill="#0071bc" d="M57.75 43.9l10.507-6.032v.831l-9.77 5.624z"/><path fill="#80b8dd" d="M79.741 44.323l-11.484-6.455v.831l10.7 6.075zm9.01 23.66v10.459l-16.688-9.664V58.32z"/><path fill="#4c9cd0" d="M88.747 67.987l9.095-5.236V73.21l-9.095 5.236z"/><path fill="#999" d="M72.063 58.322l9.122-5.237 16.664 9.664-9.098 5.236z"/><path fill="#338dc9" d="M72.063 58.322l9.122-5.237 16.664 9.664-9.098 5.236z"/><path fill="#b2d4eb" d="M73.165 58.323l8.019-4.603 15.564 9.028-7.997 4.602z"/><path fill="#4c9cd0" d="M72.61 57.999l8.018-4.604v.645l-7.456 4.28z"/><path fill="#80b8dd" d="M96.748 62.748l-16.12-9.353v.645l15.521 9.053z"/><path fill="#cce3f2" d="M76.004 61.383v1.839l-2.289-1.326v-1.838zm2.62 1.522v1.838l-2.289-1.324V61.58zm2.62 1.521v1.84l-2.288-1.326v-1.838zm2.621 1.523v1.838l-2.289-1.325v-1.838zm2.619 1.521v1.84l-2.287-1.327v-1.837zm-10.48-3.621v1.838l-2.289-1.327v-1.838zm2.62 1.521v1.838l-2.289-1.325v-1.839zm2.62 1.522v1.837l-2.288-1.325v-1.839zm2.621 1.521v1.839l-2.289-1.325v-1.839zm2.619 1.522v1.838l-2.287-1.325V68.61zm-10.48-3.623v1.839l-2.289-1.324v-1.84zm2.62 1.523v1.838l-2.289-1.326v-1.838zm2.62 1.521v1.838l-2.288-1.324v-1.84zm2.621 1.522v1.838l-2.289-1.324v-1.84zm2.619 1.521v1.838l-2.287-1.324v-1.839z"/><path fill="#b2d4eb" d="M89.593 68.728l7.678-4.415v1.872l-7.678 4.414zm0 2.543l7.678-4.415v1.872l-7.678 4.414z"/><path fill="#80b8dd" d="M44.023 57.195V76.4l-12.956-7.288V49.909z"/><path fill="#cce3f2" d="M43.198 57.955v1.968l-11.306-6.361v-1.967zm0 2.818v1.968l-11.306-6.36v-1.967zm0 2.819v1.967l-11.306-6.36v-1.967zm0 2.818v1.967l-11.306-6.359v-1.967zm-4.85 1.852v4.94l-3.333-1.876v-4.939z"/><path fill="#4c9cd0" d="M44.018 57.201l11.919-6.862v19.204l-11.919 6.862z"/><path fill="#b2d4eb" d="M44.84 58.053l10.276-5.916v1.871L44.84 59.923zm0 2.816l10.276-5.914v1.871L44.84 62.741z"/><path fill="#999" d="M31.067 49.911l11.953-6.862 12.925 7.289-11.922 6.859z"/><path fill="#338dc9" d="M31.067 49.911l11.953-6.862 12.925 7.289-11.922 6.859z"/><path fill="#b2d4eb" d="M32.512 49.913l10.507-6.032 11.483 6.454-10.479 6.032z"/><path fill="#0071bc" d="M32.512 49.913l10.507-6.032v.831l-9.77 5.623z"/><path fill="#80b8dd" d="M54.502 50.335l-11.483-6.454v.831l10.7 6.075zm9.011 23.661v10.459l-16.688-9.664V64.333z"/><path fill="#4c9cd0" d="M63.508 74l9.096-5.236v10.459l-9.096 5.236z"/><path fill="#999" d="M46.825 64.335l9.122-5.237 16.664 9.664-9.098 5.236z"/><path fill="#338dc9" d="M46.825 64.335l9.122-5.237 16.664 9.664-9.098 5.236z"/><path fill="#b2d4eb" d="M47.927 64.336l8.018-4.604 15.564 9.029-7.996 4.601z"/><path fill="#4c9cd0" d="M47.372 64.012l8.018-4.605v.646l-7.456 4.28z"/><path fill="#80b8dd" d="M71.509 68.761L55.39 59.407v.646l15.521 9.052z"/><path fill="#cce3f2" d="M50.765 67.396v1.838l-2.288-1.325V66.07zm2.62 1.522v1.838l-2.288-1.324v-1.839zm2.621 1.52v1.84l-2.289-1.325v-1.839zm2.62 1.524V73.8l-2.288-1.325v-1.838zm2.62 1.52v1.84l-2.288-1.326v-1.838zm-10.481-3.621v1.838l-2.288-1.326v-1.838zm2.62 1.522v1.838l-2.288-1.325v-1.839zm2.621 1.521v1.838l-2.289-1.325v-1.839zm2.62 1.522v1.839l-2.288-1.326v-1.838zm2.62 1.521v1.839l-2.288-1.325v-1.838zm-10.481-3.622v1.839l-2.288-1.324V71zm2.62 1.523v1.838l-2.288-1.327v-1.838zm2.621 1.521v1.838l-2.289-1.324v-1.84zm2.62 1.522v1.838l-2.288-1.325v-1.84zm2.62 1.521v1.838l-2.288-1.324v-1.839z"/><path fill="#b2d4eb" d="M64.354 74.74l7.679-4.414v1.871l-7.679 4.414zm0 2.543l7.679-4.414v1.871l-7.679 4.414z"/><path fill="#b2d4eb" fill-rule="evenodd" d="M155.928 132.015c-2.273.65-4.533.17-6.215-1.104-.992 1.16-2.166 1.96-3.707 2.398-3.983 1.137-7.642-.178-8.517-4.171a7.773 7.773 0 0 1-2.358 1.128c-3.979 1.136-8.115-1.262-8.991-5.257-3.463.306-6.617-1.913-7.388-5.435-.875-3.994 1.644-8.152 5.621-9.287a7.361 7.361 0 0 1 2.67-.261c-.875-3.992 1.692-7.129 5.673-8.266 1.596-.454 2.972-.617 4.358-.075.98-1.935 2.734-3.485 4.934-4.112 3.979-1.135 7.913 1.181 8.788 5.175.41-.201.754-.213 1.203-.343 3.98-1.136 7.914 1.18 8.789 5.175 3.449-.285 6.82 2.008 7.588 5.517.877 3.993-2.842 8.494-6.822 9.631.874 3.993-1.644 8.152-5.626 9.287z" clip-rule="evenodd" mask="url(#b)"/><path d="M137.657 113.527c-.189.1-.495.162-.873.162-1.179 0-2.035-.945-2.035-3.007 0-2.403 1.188-3.169 2.152-3.169.36 0 .63.072.747.153l-.153.585c-.144-.062-.288-.126-.603-.126-.648 0-1.414.63-1.414 2.485 0 1.863.685 2.466 1.432 2.466a1.6 1.6 0 0 0 .63-.126l.117.577zm2.853-.881c0 .333 0 .711.045.99h-.621l-.045-.459h-.027c-.189.333-.495.531-.864.531-.585 0-1.036-.486-1.036-1.242 0-1.099.874-1.576 1.854-1.585v-.135c0-.585-.144-.99-.693-.99-.27 0-.513.081-.72.225l-.153-.486c.189-.135.585-.288 1.018-.288.873 0 1.242.576 1.242 1.549v1.89zm-.675-1.27c-.36 0-1.197.072-1.197 1.018 0 .576.288.774.531.774.306 0 .558-.226.639-.657a1.2 1.2 0 0 0 .027-.252v-.883zm1.646-.973c0-.368-.027-.801-.036-1.125h.622l.036.685h.018c.144-.414.513-.757.918-.757.054 0 .099 0 .144.01v.711c-.045-.009-.09-.009-.144-.009-.441 0-.765.404-.837.909a2.566 2.566 0 0 0-.027.396v2.413h-.693v-3.233zm2.232 0c0-.368-.027-.801-.036-1.125h.622l.036.685h.018c.144-.414.513-.757.918-.757.054 0 .099 0 .144.01v.711c-.045-.009-.09-.009-.144-.009-.441 0-.765.404-.837.909a2.566 2.566 0 0 0-.027.396v2.413h-.693v-3.233zm2.565-1.799c-.225 0-.396-.181-.396-.45 0-.271.18-.45.405-.45.252 0 .414.18.414.45s-.162.45-.414.45h-.009zm-.324 5.032v-4.357h.693v4.357h-.693zm2.142-2.115c.009 1.341.531 1.62 1.026 1.62.306 0 .549-.072.72-.162l.117.504c-.243.136-.612.207-.963.207-1.035 0-1.576-.846-1.576-2.188 0-1.413.594-2.296 1.468-2.296.882 0 1.242.937 1.242 1.918 0 .171-.009.288-.018.396h-2.016zm1.368-.514c.009-.873-.315-1.261-.648-1.261-.45 0-.684.667-.711 1.261h1.359zm1.404-.604c0-.368-.027-.801-.036-1.125h.622l.036.685h.018c.144-.414.513-.757.918-.757.054 0 .099 0 .144.01v.711c-.045-.009-.09-.009-.144-.009-.441 0-.765.404-.837.909a2.566 2.566 0 0 0-.027.396v2.413h-.693v-3.233zm-18.598 12.233v-6.067h.648l1.116 2.845c.252.657.567 1.458.774 2.115h.018a45.668 45.668 0 0 1-.081-2.791v-2.169h.621v6.067h-.648l-1.152-2.917a19.439 19.439 0 0 1-.729-2.062h-.018c.054.811.072 1.585.072 2.881v2.098h-.621zm4.571-2.115c.009 1.341.531 1.62 1.026 1.62.306 0 .549-.072.72-.162l.117.504c-.243.136-.612.207-.963.207-1.035 0-1.576-.846-1.576-2.188 0-1.413.594-2.296 1.468-2.296.882 0 1.242.937 1.242 1.918 0 .171-.009.288-.018.396h-2.016zm1.369-.514c.009-.873-.315-1.261-.648-1.261-.45 0-.684.667-.711 1.261h1.359zm2.259-2.746v1.018h.837v.522h-.837v2.593c0 .576.198.72.45.72.117 0 .207-.009.279-.026l.036.531a1.522 1.522 0 0 1-.513.071c-.279 0-.522-.071-.684-.261-.18-.198-.261-.495-.261-1.099v-2.529h-.531v-.522h.531v-.738l.693-.28zm1.889 1.017l.423 2.134c.09.468.18.937.234 1.387h.036c.063-.45.171-.955.27-1.369l.504-2.151h.531l.477 2.089c.108.486.207.945.279 1.432h.036c.054-.459.135-.909.234-1.404l.414-2.116h.693l-1.098 4.357h-.567l-.504-2.115a12.152 12.152 0 0 1-.243-1.306h-.018c-.072.513-.153.918-.252 1.332l-.522 2.089h-.585l-1.062-4.357h.72zm5.851 4.43c-.783 0-1.414-.712-1.414-2.242 0-1.593.711-2.26 1.458-2.26.783 0 1.405.721 1.405 2.242 0 1.692-.774 2.26-1.44 2.26h-.009zm.036-.55c.594 0 .72-1.017.72-1.701 0-.675-.126-1.701-.738-1.701-.621 0-.738 1.026-.738 1.701 0 .721.126 1.701.747 1.701h.009zm2.177-2.755c0-.368-.027-.801-.036-1.125h.622l.036.685h.018c.144-.414.513-.757.918-.757.054 0 .099 0 .144.01v.711c-.045-.009-.09-.009-.144-.009-.441 0-.765.404-.837.909a2.566 2.566 0 0 0-.027.396v2.413h-.693v-3.233zm2.925.901h.018c.081-.171.153-.342.234-.485l.864-1.54h.747l-1.152 1.837 1.261 2.521h-.774l-.945-2.053-.252.405v1.647h-.693v-6.229h.693v3.897z"/><path fill="#b2d4eb" fill-rule="evenodd" d="M225.854 132.015c-2.273.65-4.533.17-6.215-1.104-.992 1.16-2.166 1.96-3.707 2.398-3.982 1.137-7.642-.178-8.517-4.171a7.773 7.773 0 0 1-2.358 1.128c-3.979 1.136-8.115-1.262-8.991-5.257-3.463.306-6.617-1.913-7.388-5.435-.875-3.994 1.644-8.152 5.621-9.287a7.361 7.361 0 0 1 2.67-.261c-.875-3.992 1.692-7.129 5.673-8.266 1.596-.454 2.972-.617 4.358-.075.98-1.935 2.734-3.485 4.934-4.112 3.979-1.135 7.912 1.181 8.787 5.175.41-.201.754-.213 1.203-.343 3.98-1.136 7.914 1.18 8.789 5.175 3.449-.285 6.82 2.008 7.588 5.517.877 3.993-2.842 8.494-6.822 9.631.875 3.993-1.643 8.152-5.625 9.287z" clip-rule="evenodd" mask="url(#d)"/><path d="M203.546 113.568v6.067h-.693v-6.067h.693zm1.044 2.835c0-.513-.027-.773-.036-1.125h.603l.037.522h.018c.189-.352.54-.595.999-.595.604 0 1.054.441 1.054 1.504v2.926h-.693v-2.809c0-.522-.1-1.035-.604-1.035-.287 0-.566.243-.648.711a1.626 1.626 0 0 0-.035.387v2.746h-.693v-3.232zm4.437-2.142v1.018h.836v.522h-.836v2.593c0 .576.197.72.449.72.117 0 .207-.009.279-.026l.036.531a1.522 1.522 0 0 1-.513.071c-.279 0-.522-.071-.685-.261-.181-.198-.261-.495-.261-1.099v-2.529h-.531v-.522h.531v-.738l.695-.28zm1.863 3.26c.009 1.341.531 1.62 1.026 1.62.307 0 .549-.072.721-.162l.117.504c-.244.136-.613.207-.964.207-1.035 0-1.575-.846-1.575-2.188 0-1.413.594-2.296 1.467-2.296.883 0 1.242.937 1.242 1.918 0 .171-.008.288-.018.396h-2.016zm1.368-.514c.01-.873-.314-1.261-.648-1.261-.449 0-.684.667-.711 1.261h1.359zm1.403-.604c0-.368-.026-.801-.036-1.125h.621l.036.685h.019c.144-.414.513-.757.918-.757.055 0 .1 0 .145.01v.711c-.045-.009-.09-.009-.145-.009-.441 0-.766.404-.838.909a2.576 2.576 0 0 0-.026.396v2.413h-.693v-3.233zm2.241 0c0-.513-.027-.773-.036-1.125h.603l.037.522h.018c.189-.352.54-.595.999-.595.604 0 1.054.441 1.054 1.504v2.926h-.693v-2.809c0-.522-.1-1.035-.604-1.035-.287 0-.566.243-.648.711a1.626 1.626 0 0 0-.035.387v2.746h-.693v-3.232zm4.131 1.118c.01 1.341.531 1.62 1.026 1.62.306 0 .55-.072.72-.162l.117.504c-.242.136-.611.207-.963.207-1.035 0-1.576-.846-1.576-2.188 0-1.413.595-2.296 1.469-2.296.882 0 1.242.937 1.242 1.918 0 .171-.01.288-.019.396h-2.016zm1.369-.514c.008-.873-.316-1.261-.648-1.261-.451 0-.685.667-.711 1.261h1.359zm2.258-2.746v1.018h.838v.522h-.838v2.593c0 .576.198.72.451.72.116 0 .207-.009.278-.026l.036.531a1.524 1.524 0 0 1-.514.071c-.279 0-.521-.071-.684-.261-.18-.198-.262-.495-.262-1.099v-2.529h-.531v-.522h.531v-.738l.695-.28zm62.992 23.815h2.314v.603h-1.621v2.125h1.513v.585h-1.513v2.755h-.693v-6.068zm3.358 3.952c.01 1.341.531 1.62 1.026 1.62.306 0 .55-.072.72-.162l.117.504c-.242.136-.611.207-.963.207-1.035 0-1.576-.846-1.576-2.188 0-1.413.595-2.296 1.469-2.296.882 0 1.242.937 1.242 1.918 0 .171-.01.288-.019.396h-2.016zm1.369-.513c.008-.873-.316-1.261-.648-1.261-.451 0-.685.667-.711 1.261h1.359zm1.412-.604c0-.513-.027-.773-.036-1.125h.612l.035.531h.019c.188-.351.513-.604.972-.604.406 0 .757.189.919.657h.019a1.46 1.46 0 0 1 .423-.495c.18-.107.378-.162.603-.162.595 0 1.054.424 1.054 1.54v2.89h-.693v-2.737c0-.566-.081-1.116-.603-1.116-.289 0-.541.243-.64.657-.026.108-.026.243-.026.388v2.809h-.693v-2.863c0-.477-.082-.99-.595-.99-.288 0-.567.243-.647.712a2.163 2.163 0 0 0-.027.369v2.772h-.693v-3.233zm6.372-2.142v1.018H300v.522h-.837v2.593c0 .576.198.72.45.72.117 0 .207-.009.279-.026l.035.531a1.513 1.513 0 0 1-.513.071c-.279 0-.522-.071-.685-.261-.18-.198-.261-.495-.261-1.099v-2.529h-.531v-.522h.531v-.738l.695-.28zm2.601 5.447c-.783 0-1.413-.712-1.413-2.242 0-1.593.712-2.26 1.458-2.26.783 0 1.405.721 1.405 2.242 0 1.692-.774 2.26-1.44 2.26h-.01zm.037-.55c.594 0 .72-1.017.72-1.701 0-.675-.126-1.701-.738-1.701-.621 0-.738 1.026-.738 1.701 0 .721.126 1.701.747 1.701h.009zm4.31.369c-.153.091-.414.162-.721.162-.953 0-1.594-.765-1.594-2.205 0-1.252.631-2.269 1.721-2.269.233 0 .486.062.611.144l-.135.559a1.13 1.13 0 0 0-.495-.117c-.702 0-1.009.828-1.009 1.684 0 1.017.388 1.629 1.027 1.629.18 0 .342-.036.494-.117l.101.53zm1.026-2.007c.01 1.341.531 1.62 1.026 1.62.306 0 .55-.072.72-.162l.117.504c-.242.136-.611.207-.963.207-1.035 0-1.576-.846-1.576-2.188 0-1.413.595-2.296 1.469-2.296.882 0 1.242.937 1.242 1.918 0 .171-.01.288-.019.396h-2.016zm1.369-.513c.008-.873-.316-1.261-.648-1.261-.451 0-.685.667-.711 1.261h1.359zm1.412-3.601h.693v6.229h-.693v-6.229zm1.719 0h.693v6.229h-.693v-6.229z"/><g stroke-miterlimit="10" stroke-linecap="round" stroke-linejoin="round"><path fill="#cd5257" stroke="#c1272d" d="M304.036 98.479h2.977v9.095h-2.977z"/><path fill="#b2d4eb" stroke="#80b8dd" d="M304.036 111.543h27.121V127h-27.121z"/><path fill="#bb9077" stroke="#aa7455" d="M298.482 111.543l19.115-16.496 19.115 16.496zm4.728-13.891h4.63v1.653h-4.63z"/><path fill="#aa7455" stroke="#aa7455" d="M313.628 114.805h7.938v12.194h-7.938z"/><path fill="#fff" stroke="gray" d="M306.025 114.266h5.832v5.831h-5.832zm17.529 0h5.832v5.831h-5.832zm2.917 0v5.831m2.915-2.916h-5.831m-14.614-2.915v5.831m2.916-2.916h-5.832"/><circle cx="315.062" cy="120.682" r=".55" fill="#999" stroke="gray"/><path fill="none" stroke="#000" d="M304.036 127h27.121v-15.457h5.555l-19.115-16.496-10.584 9.134v-4.876h.827v-1.653h-4.63v1.653h.826v7.445l-5.554 4.793h5.554z"/></g><path fill="#0071bc" d="M282.836 125.89v4.867l-12.626-4.048v-4.866z"/><path fill="#338dc9" d="M282.836 125.89l9.921-4.783v4.867l-9.921 4.784z"/><path fill="#4c9cd0" d="M270.21 121.844l9.906-4.822 12.641 4.085-9.921 4.783z"/><path fill="#009245" d="M271.33 123.857c.286.165.517.562.513.89 0 .328-.231.461-.517.295-.284-.163-.516-.561-.515-.889.003-.326.235-.461.519-.296m1.16.693c.284.164.517.561.512.889 0 .328-.23.461-.517.297-.284-.165-.516-.563-.514-.892.003-.327.234-.461.519-.294"/><path fill="#c1272d" d="M278.823 125.649c.464.266.84.912.834 1.445 0 .533-.377.749-.842.48-.461-.268-.837-.914-.835-1.446.004-.531.38-.748.843-.479"/><path fill="#009245" d="M280.951 126.901c.463.266.839.912.833 1.445 0 .533-.376.748-.841.48-.461-.267-.837-.913-.835-1.446.003-.531.379-.748.843-.479m-9.621-1.616c.286.164.517.562.513.89 0 .328-.231.461-.517.295-.284-.164-.516-.562-.515-.889.003-.328.235-.461.519-.296m1.16.692c.284.164.517.562.512.89 0 .326-.23.46-.517.295-.284-.164-.516-.561-.514-.89.003-.328.234-.46.519-.295"/><path fill="#4d4d4d" d="M283.035 121.521c.881.432.885 1.133.01 1.564-.873.434-2.296.434-3.175 0-.881-.432-.883-1.133-.011-1.564.875-.432 2.295-.432 3.176 0z"/><path fill="#1a1a1a" d="M279.828 121.892l.815-20.624c0-.683 1.693-.683 1.693 0l.742 20.624c0 .684-.729.778-1.624.778-.899 0-1.626-.095-1.626-.778z"/><path fill="none" stroke="#000" d="M283.079 117.979l-.742-16.712c0-.683-1.693-.683-1.693 0l-.527 15.755-9.903 4.821-.003-.001v4.866l12.626 4.049 9.921-4.782v-4.868l-9.679-3.128z" stroke-linecap="round" stroke-linejoin="round"/><path fill="none" stroke="#f7931e" stroke-width="1.5" d="M275.701 95.161a11.342 11.342 0 0 0-2.733 7.4c0 2.82 1.026 5.402 2.727 7.391" stroke-linecap="round"/><path fill="none" stroke="#f7931e" stroke-width="1.5" d="M273.105 94.392a13.65 13.65 0 0 0-2.698 8.17c0 3.053.997 5.873 2.684 8.151" stroke-linecap="round"/><path fill="none" stroke="#f7931e" stroke-width="1.5" d="M270.535 93.48a16.44 16.44 0 0 0-2.716 9.081c0 3.346.995 6.461 2.704 9.063m15.83-16.695a11.343 11.343 0 0 1 2.734 7.4c0 2.82-1.027 5.402-2.727 7.391" stroke-linecap="round"/><path fill="none" stroke="#f7931e" stroke-width="1.5" d="M288.948 94.159a13.653 13.653 0 0 1 2.699 8.17c0 3.053-.998 5.873-2.686 8.152" stroke-linecap="round"/><path fill="none" stroke="#f7931e" stroke-width="1.5" d="M291.519 93.249a16.443 16.443 0 0 1 2.717 9.08c0 3.346-.996 6.461-2.705 9.064" stroke-linecap="round"/><path fill="#4d4d4d" d="M66.139 146.59c.881.432.885 1.133.01 1.564-.873.434-2.296.434-3.175 0-.881-.432-.883-1.133-.011-1.564.875-.432 2.295-.432 3.176 0z"/><path fill="#1a1a1a" d="M62.932 146.961l.815-20.623c0-.683 1.693-.683 1.693 0l.742 20.623c0 .684-.729.779-1.624.779-.9 0-1.626-.095-1.626-.779z"/><path fill="none" stroke="#f7931e" stroke-width="1.5" d="M58.805 120.231a11.342 11.342 0 0 0-2.733 7.4c0 2.82 1.026 5.402 2.727 7.39" stroke-linecap="round"/><path fill="none" stroke="#f7931e" stroke-width="1.5" d="M56.209 119.462a13.65 13.65 0 0 0-2.698 8.17c0 3.052.997 5.873 2.684 8.152" stroke-linecap="round"/><path fill="none" stroke="#f7931e" stroke-width="1.5" d="M53.639 118.55a16.44 16.44 0 0 0-2.716 9.081c0 3.345.995 6.46 2.704 9.064m15.829-16.696a11.343 11.343 0 0 1 2.734 7.4c0 2.82-1.027 5.402-2.727 7.39" stroke-linecap="round"/><path fill="none" stroke="#f7931e" stroke-width="1.5" d="M72.052 119.229a13.653 13.653 0 0 1 2.699 8.17c0 3.052-.998 5.872-2.686 8.152" stroke-linecap="round"/><path fill="none" stroke="#f7931e" stroke-width="1.5" d="M74.622 118.319a16.443 16.443 0 0 1 2.717 9.08c0 3.345-.996 6.46-2.705 9.064" stroke-linecap="round"/><circle cx="299.491" cy="114.097" r="40.24" fill="none" stroke="#000" stroke-miterlimit="10"/><path d="M51.001 174.809c-.045-.802-.09-1.693-.063-2.377h-.036a33.457 33.457 0 0 1-.486 2.106l-.738 2.845h-.45l-.703-2.728a27.371 27.371 0 0 1-.504-2.224h-.027c.009.711-.036 1.558-.072 2.422l-.117 2.565h-.621l.36-6.067h.756l.702 2.772c.207.801.36 1.396.486 2.089h.027c.117-.693.252-1.27.45-2.089l.685-2.772h.774l.351 6.067h-.648l-.126-2.609zm1.987-2.422c-.225 0-.396-.181-.396-.45 0-.271.18-.45.405-.45.252 0 .414.18.414.45s-.162.45-.414.45h-.009zm-.323 5.032v-4.357h.693v4.357h-.693zm3.78-.108c-.153.091-.414.162-.72.162-.954 0-1.594-.765-1.594-2.205 0-1.252.63-2.269 1.72-2.269.234 0 .486.062.612.144l-.135.559a1.13 1.13 0 0 0-.495-.117c-.702 0-1.008.828-1.008 1.684 0 1.017.387 1.629 1.026 1.629.18 0 .342-.036.495-.117l.099.53zm.584-3.124c0-.368-.027-.801-.036-1.125h.622l.036.685h.018c.144-.414.513-.757.918-.757.054 0 .099 0 .144.01v.711c-.045-.009-.09-.009-.144-.009-.441 0-.765.404-.837.909a2.566 2.566 0 0 0-.027.396v2.413h-.693v-3.233zm3.339 3.304c-.783 0-1.414-.712-1.414-2.242 0-1.593.711-2.26 1.458-2.26.783 0 1.405.721 1.405 2.242 0 1.692-.774 2.26-1.44 2.26h-.009zm.036-.55c.594 0 .72-1.017.72-1.701 0-.675-.126-1.701-.738-1.701-.621 0-.738 1.026-.738 1.701 0 .721.126 1.701.747 1.701h.009zm4.312.37c-.153.091-.414.162-.72.162-.955 0-1.594-.765-1.594-2.205 0-1.252.63-2.269 1.72-2.269.234 0 .486.062.612.144l-.135.559a1.13 1.13 0 0 0-.495-.117c-.702 0-1.008.828-1.008 1.684 0 1.017.387 1.629 1.026 1.629.18 0 .342-.036.495-.117l.099.53zm1.025-2.007c.009 1.341.531 1.62 1.026 1.62.306 0 .549-.072.72-.162l.117.504c-.243.136-.612.207-.963.207-1.035 0-1.576-.846-1.576-2.188 0-1.413.594-2.296 1.468-2.296.882 0 1.242.937 1.242 1.918 0 .171-.009.288-.018.396h-2.016zm1.368-.514c.009-.873-.315-1.261-.648-1.261-.45 0-.684.667-.711 1.261h1.359zm1.413-3.601h.693v6.229h-.693v-6.229zm1.719 0h.693v6.229h-.693v-6.229zm88.47-24.31a3.982 3.982 0 0 1 1.008-.117c.558 0 1.036.135 1.351.441.288.288.441.729.441 1.26 0 .559-.135.937-.369 1.242-.324.45-.891.676-1.431.676-.117 0-.207 0-.306-.009v2.484h-.693v-5.977zm.694 2.917c.081.009.162.018.279.018.675 0 1.135-.45 1.135-1.306 0-.621-.252-1.179-1.026-1.179-.162 0-.297.018-.387.045v2.422zm3.114-1.972c-.225 0-.396-.181-.396-.45 0-.271.18-.45.405-.45.252 0 .414.18.414.45s-.162.45-.414.45h-.009zm-.324 5.032v-4.357h.693v4.357h-.693zm3.78-.108c-.153.091-.414.162-.72.162-.954 0-1.594-.765-1.594-2.205 0-1.252.63-2.269 1.72-2.269.234 0 .486.062.612.144l-.135.559a1.13 1.13 0 0 0-.495-.117c-.702 0-1.008.828-1.008 1.684 0 1.017.387 1.629 1.026 1.629.18 0 .342-.036.495-.117l.099.53zm1.764.181c-.783 0-1.414-.712-1.414-2.242 0-1.593.711-2.26 1.458-2.26.783 0 1.405.721 1.405 2.242 0 1.692-.774 2.26-1.44 2.26h-.009zm.036-.55c.594 0 .72-1.017.72-1.701 0-.675-.126-1.701-.738-1.701-.621 0-.738 1.026-.738 1.701 0 .721.126 1.701.747 1.701h.009zm4.311.369c-.153.091-.414.162-.72.162-.955 0-1.594-.765-1.594-2.205 0-1.252.63-2.269 1.72-2.269.234 0 .486.062.612.144l-.135.559a1.13 1.13 0 0 0-.495-.117c-.702 0-1.008.828-1.008 1.684 0 1.017.387 1.629 1.026 1.629.18 0 .342-.036.495-.117l.099.53zm1.025-2.007c.01 1.341.531 1.62 1.026 1.62.307 0 .55-.072.721-.162l.117.504c-.243.136-.612.207-.964.207-1.035 0-1.575-.846-1.575-2.188 0-1.413.594-2.296 1.468-2.296.882 0 1.242.937 1.242 1.918 0 .171-.009.288-.019.396h-2.016zm1.369-.513c.009-.873-.315-1.261-.648-1.261-.45 0-.685.667-.711 1.261h1.359zm1.413-3.601h.692v6.229h-.692v-6.229zm1.718 0h.693v6.229h-.693v-6.229zm1.602 5.51c.153.099.423.225.702.225.388 0 .64-.243.64-.63 0-.333-.117-.567-.559-.855-.567-.369-.873-.747-.873-1.242 0-.712.522-1.207 1.197-1.207.342 0 .595.108.774.226l-.18.522a1 1 0 0 0-.586-.198c-.369 0-.558.27-.558.558s.107.459.54.747c.504.324.9.729.9 1.333 0 .873-.595 1.296-1.314 1.296-.315 0-.666-.099-.855-.252l.172-.523zM58.54 10.318c-.045-.802-.09-1.693-.063-2.377h-.036a33.457 33.457 0 0 1-.486 2.106l-.738 2.845h-.45l-.703-2.728a27.371 27.371 0 0 1-.504-2.224h-.027c.009.711-.036 1.558-.072 2.422l-.117 2.565h-.621l.36-6.067h.756l.703 2.772c.207.801.36 1.396.486 2.089h.027c.117-.693.252-1.27.45-2.089l.685-2.772h.774l.351 6.067h-.648l-.127-2.609zm3.96 1.621c0 .333 0 .711.045.99h-.621l-.045-.459h-.027c-.189.333-.495.531-.864.531-.585 0-1.036-.486-1.036-1.242 0-1.099.874-1.576 1.855-1.585v-.135c0-.585-.145-.99-.693-.99-.27 0-.513.081-.72.225l-.154-.487c.189-.135.585-.288 1.018-.288.873 0 1.242.576 1.242 1.549v1.891zm-.676-1.27c-.36 0-1.197.072-1.197 1.018 0 .576.288.774.531.774.306 0 .558-.226.639-.657a1.2 1.2 0 0 0 .027-.252v-.883zm3.781 2.151c-.153.091-.414.162-.72.162-.955 0-1.594-.765-1.594-2.205 0-1.252.63-2.269 1.72-2.269.234 0 .486.062.612.144l-.135.559a1.13 1.13 0 0 0-.495-.117c-.702 0-1.008.828-1.008 1.684 0 1.017.387 1.629 1.026 1.629.18 0 .342-.036.495-.117l.099.53zm.584-3.124c0-.368-.027-.801-.036-1.125h.622l.036.685h.018c.144-.414.513-.757.918-.757.054 0 .099 0 .144.01v.711c-.045-.009-.09-.009-.144-.009-.441 0-.765.404-.837.909a2.566 2.566 0 0 0-.027.396v2.413h-.693V9.696zm3.339 3.305c-.783 0-1.414-.712-1.414-2.242 0-1.593.711-2.26 1.458-2.26.783 0 1.405.721 1.405 2.242 0 1.692-.774 2.26-1.44 2.26h-.009zm.036-.55c.594 0 .72-1.017.72-1.701 0-.675-.126-1.701-.738-1.701-.621 0-.738 1.026-.738 1.701 0 .721.126 1.701.747 1.701h.009zm4.312.369c-.153.091-.414.162-.72.162-.954 0-1.594-.765-1.594-2.205 0-1.252.63-2.269 1.72-2.269.234 0 .486.062.612.144l-.135.559a1.13 1.13 0 0 0-.495-.117c-.702 0-1.008.828-1.008 1.684 0 1.017.387 1.629 1.026 1.629.18 0 .342-.036.495-.117l.099.53zm1.024-2.006c.009 1.341.531 1.62 1.026 1.62.306 0 .549-.072.72-.162l.117.504c-.243.136-.612.207-.963.207-1.035 0-1.576-.846-1.576-2.188 0-1.413.594-2.296 1.468-2.296.882 0 1.242.937 1.242 1.918 0 .171-.009.288-.018.396H74.9zm1.369-.514c.009-.873-.315-1.261-.648-1.261-.45 0-.684.667-.711 1.261h1.359zm1.413-3.601h.693v6.229h-.693V6.699zm1.718 0h.693v6.229H79.4V6.699z"/><circle cx="59.13" cy="147.372" r="40.24" fill="none" stroke="#000" stroke-miterlimit="10"/><g fill="none" stroke-miterlimit="3.864" clip-rule="evenodd"><g stroke="#4d4d4d" stroke-width="2"><path d="M114.128 30.841l-3.458 1.75m.771-1.688l1 2m0-2.5l1 2m-9.563-1.562l3.459 1.75m-.771-1.688l-1 2m0-2.5l-1 2m4.364-3.688l-.011 3.876m1.162-1.446l-2.236.004m2.234-1.123l-2.236.005" stroke-linecap="square"/><path d="M114.837 63.174l-6.25 3.917-5.5-3.917 4.25-21.917v-8.666h3.333"/><path d="M110.67 32.591v8.666l4.167 21.917-6.25 3.917"/></g><path stroke="#999" stroke-width=".5" d="M108.587 67.091l-4.584-8.084 4.75-2-3.125-4.791 2.959-1.625-2.164-2.249 2.33-1.251-1.713-2.312 1.783-.863-1.3-1.599 1.316-.824-1.386-1.769"/><path stroke="#999" stroke-width=".5" d="M108.935 40.281l-1.324.848 1.228 1.814-1.565.55 1.737 1.753-2.323 1.029 1.96 2.454-2.395 1.362 2.187 2.782-3.553 1.865 3.586 6.487-5.386 1.949"/><path stroke="gray" stroke-width=".5" d="M108.587 67.091l4.844-7.93-4.682-2.154 3.739-4.714-3.363-1.694 2.313-2.301-2.365-1.202 1.793-2.184-1.759-.993 1.363-1.383-1.301-1.038 1.444-1.723"/><path stroke="gray" stroke-width=".5" d="M109.114 40.284l1.444 1.196-1.435 1.467 1.655.777-1.679 1.438 2.251 1.377-2.225 2.197 2.869 1.497-2.797 2.651 3.491 1.981-3.796 6.366 5.32 2.124"/><path stroke="#999" d="M114.128 30.841l-3.458 1.75m.771-1.688l1 2m0-2.5l1 2m-9.563-1.562l3.459 1.75m-.771-1.688l-1 2m0-2.5l-1 2m4.364-3.688l-.011 3.876m1.162-1.446l-2.236.004m2.234-1.123l-2.236.005"/><path stroke="#999" stroke-width=".5" d="M107.316 34.091l1.687.75m-1.687.75l1.687.75m-1.687.75l1.687.75m-1.687.75l1.687.75"/><path stroke="gray" stroke-width=".5" d="M109.003 34.841l1.625-.813m-1.625 2.313l1.625-.813m-1.625 2.313l1.625-.813m-1.625 2.313l1.625-.813"/><path stroke="#999" d="M108.961 32.403v8.521l-.374 26.167"/><path stroke="#999" d="M114.837 63.174l-6.25 3.917-5.5-3.917 4.25-21.917v-8.666h3.333"/><path stroke="#999" d="M110.67 32.591v8.666l4.167 21.917-6.25 3.917"/></g><ellipse cx="68.437" cy="48.91" fill="none" stroke="#000" stroke-miterlimit="10" rx="67.937" ry="48.41"/><circle cx="171.629" cy="170.006" r="28.991" fill="none" stroke="#000" stroke-miterlimit="10"/></svg>