<svg xmlns="http://www.w3.org/2000/svg" viewBox="0 0 295.44 210.093"><path fill="#4d4d4d" fill-rule="evenodd" d="M146.261 41.884l6.988-6.098h-3.887V3.38h-6.203v32.406h-3.887zm-10 140l6.988-6.098h-3.887V143.38h-6.203v32.406h-3.887zm20 0l6.988-6.098h-3.887V143.38h-6.203v32.406h-3.887z" clip-rule="evenodd"/><path fill="#ecbec0" fill-rule="evenodd" d="M77.498 3.38h137.529v19.943H77.498z" clip-rule="evenodd"/><path fill="none" stroke="#000" d="M77.498 3.38h137.529v19.943H77.498z" stroke-linecap="round" stroke-linejoin="round"/><path fill="#b2dec7" fill-rule="evenodd" d="M48.026 183.713h98.236v19.943H48.026z" clip-rule="evenodd"/><path fill="none" stroke="#000" d="M48.026 183.713h98.236v19.943H48.026z" stroke-linecap="round" stroke-linejoin="round"/><path fill="#b2dec7" fill-rule="evenodd" d="M146.263 183.713h98.235v19.943h-98.235z" clip-rule="evenodd"/><path fill="none" stroke="#000" d="M146.263 183.713h98.235v19.943h-98.235z" stroke-linecap="round" stroke-linejoin="round"/><path fill="#fff" fill-rule="evenodd" d="M3.38 43.437h285.765v117.374H3.38z" clip-rule="evenodd"/><path fill="none" stroke="#000" d="M3.38 43.437h285.765v117.374H3.38z" stroke-linecap="round" stroke-linejoin="round"/><path fill="#fddfbb" fill-rule="evenodd" stroke="#000" d="M13.702 67.437h115.991v84.04H13.702zm150 0h115.992v84.04H163.702z" clip-rule="evenodd" stroke-linecap="round" stroke-linejoin="round"/><path fill="#fff" fill-rule="evenodd" stroke="#000" d="M185.767 106.457h71.862v17.707h-71.862zm0 17.707h71.862v17.707h-71.862z" clip-rule="evenodd" stroke-linecap="round" stroke-linejoin="round"/><path d="M138.194 9.165v7.415h-1.177V9.165h1.177zm1.199 3.565c0-.605-.022-1.034-.044-1.507h1.023l.055.627h.022c.253-.43.704-.715 1.265-.715.902 0 1.375.692 1.375 1.936v3.51h-1.177v-3.399c0-.539-.11-1.057-.627-1.057-.286 0-.55.221-.66.66-.033.11-.055.286-.055.484v3.312h-1.177V12.73zm4.774.176c0-.726-.022-1.231-.044-1.683h1.023l.066.648h.022c.253-.506.66-.736 1.122-.736 1.067 0 1.617 1.144 1.617 2.75 0 1.958-.836 2.783-1.706 2.783-.473 0-.759-.286-.913-.561h-.022v2.585h-1.166v-5.786zm1.166 1.717c0 .165.022.33.055.451.143.517.418.627.616.627.594 0 .792-.848.792-1.794 0-1.066-.253-1.782-.792-1.782-.297 0-.561.33-.627.693a1.507 1.507 0 0 0-.044.396v1.409zm7.117.395c0 .583.022 1.111.044 1.563h-1.023l-.066-.562h-.022a1.458 1.458 0 0 1-1.199.649c-.979 0-1.375-.737-1.375-2.134v-3.312h1.177v3.168c0 .771.132 1.298.616 1.298.363 0 .55-.308.605-.527.044-.121.066-.286.066-.462v-3.477h1.177v3.796zm2.508-5.126v1.331h1.034v.847h-1.034v2.783c0 .66.253.825.55.825.132 0 .242-.011.363-.033l.022.913c-.176.056-.44.089-.77.089-.374 0-.715-.1-.946-.33-.264-.265-.396-.649-.396-1.452V12.07h-.638v-.847h.638v-.925l1.177-.406zM81.316 193.689l5.204-2.629v.946l-4.049 1.979v.022l4.049 1.969v.936l-5.204-2.618v-.605zm7.216-2.133l.528 2.673c.077.418.154.902.231 1.408h.022c.066-.495.143-.946.22-1.408l.517-2.673h1.166l-1.419 5.357H88.73l-1.441-5.357h1.243zm3.883-.716c-.341 0-.616-.274-.616-.682 0-.418.286-.683.627-.683.374 0 .638.265.638.683 0 .407-.264.682-.638.682h-.011zm-.561 6.073v-5.357h1.177v5.357h-1.177zm5.853-7.613v6.161c0 .44.022 1.045.044 1.452H96.75l-.077-.638h-.033c-.176.385-.594.726-1.111.726-1.045 0-1.628-1.133-1.628-2.75 0-1.882.814-2.783 1.683-2.783.44 0 .759.209.935.583h.022V189.3h1.166zm-1.167 4.302c0-.099 0-.22-.022-.33-.044-.429-.286-.814-.638-.814-.594 0-.803.848-.803 1.805 0 1.078.286 1.771.781 1.771.22 0 .495-.11.638-.671.033-.089.044-.21.044-.342v-1.419zm3.19.946c.011 1.199.561 1.529 1.188 1.529.396 0 .726-.088.957-.188l.176.836c-.341.154-.858.254-1.342.254-1.386 0-2.124-1.002-2.124-2.663 0-1.771.847-2.849 1.992-2.849 1.122 0 1.694 1.022 1.694 2.453 0 .308-.011.483-.033.627H99.73zm1.452-.836c.011-.858-.275-1.364-.693-1.364-.506 0-.737.737-.759 1.364h1.452zm3.641 3.289c-1.133 0-1.914-.946-1.914-2.75 0-1.947.957-2.783 1.958-2.783 1.123 0 1.893.979 1.893 2.75 0 2.167-1.122 2.783-1.925 2.783h-.012zm.044-.902c.583 0 .715-1.056.715-1.87 0-.781-.132-1.859-.737-1.859-.638 0-.759 1.078-.759 1.859 0 .902.154 1.87.77 1.87h.011zm8.107-1.705l-5.204 2.52v-.924l4.302-1.991v-.022l-4.302-1.991v-.924l5.204 2.52v.812zm48.099-4.786c.407-.1.924-.144 1.408-.144.771 0 1.408.132 1.837.539.418.396.561.892.561 1.508 0 .857-.418 1.529-1.166 1.87v.021c.528.188.792.683.946 1.562.154.902.33 1.694.451 1.947h-1.221c-.088-.209-.253-.936-.374-1.805-.143-.968-.418-1.275-1.012-1.275h-.264v3.08h-1.167v-7.303zm1.166 3.323h.308c.704 0 1.144-.55 1.144-1.31 0-.726-.297-1.221-1.056-1.232-.154 0-.297.012-.396.045v2.497zm4.455-2.355h-1.331v-1.078h3.839v1.078h-1.33v6.337h-1.178v-6.337zm6.49 6.216c-.22.11-.604.188-1.089.188-1.694 0-2.662-1.387-2.662-3.675 0-2.85 1.507-3.873 2.827-3.873.484 0 .825.1.969.188l-.221 1.001c-.176-.088-.352-.154-.703-.154-.804 0-1.629.737-1.629 2.762 0 1.991.748 2.706 1.639 2.706.275 0 .551-.065.727-.132l.142.989zm.824-7.184a6.165 6.165 0 0 1 1.376-.144c.78 0 1.419.144 1.859.562.396.374.594.946.594 1.584 0 .748-.209 1.254-.55 1.65-.44.517-1.155.77-1.782.77-.121 0-.22 0-.33-.011v2.894h-1.167v-7.305zm1.167 3.444c.088.021.165.021.286.021.77 0 1.199-.527 1.199-1.375 0-.693-.286-1.276-1.078-1.276-.166 0-.309.022-.407.056v2.574zm4.158 1.496c.012 1.199.562 1.529 1.188 1.529.396 0 .726-.088.957-.188l.177.836c-.342.154-.859.254-1.343.254-1.386 0-2.124-1.002-2.124-2.663 0-1.771.848-2.849 1.992-2.849 1.122 0 1.693 1.022 1.693 2.453 0 .308-.01.483-.032.627h-2.508zm1.453-.836c.01-.858-.275-1.364-.693-1.364-.506 0-.737.737-.76 1.364h1.453zm2.881.836c.012 1.199.562 1.529 1.188 1.529.396 0 .726-.088.957-.188l.177.836c-.342.154-.859.254-1.343.254-1.386 0-2.124-1.002-2.124-2.663 0-1.771.848-2.849 1.992-2.849 1.122 0 1.693 1.022 1.693 2.453 0 .308-.01.483-.032.627h-2.508zm1.453-.836c.01-.858-.275-1.364-.693-1.364-.506 0-.737.737-.76 1.364h1.453zm1.935-.65c0-.495-.022-1.056-.045-1.507h1.023l.066.803h.033c.209-.539.648-.891 1.089-.891.11 0 .176.011.253.021v1.166c-.077-.011-.154-.011-.253-.011-.407 0-.814.341-.946.924a3.094 3.094 0 0 0-.044.506v2.839h-1.177v-3.85zm6.524 3.73c-.221.11-.605.188-1.09.188-1.693 0-2.662-1.387-2.662-3.675 0-2.85 1.508-3.873 2.827-3.873.484 0 .825.1.968.188l-.219 1.001c-.177-.088-.353-.154-.705-.154-.803 0-1.628.737-1.628 2.762 0 1.991.748 2.706 1.64 2.706.274 0 .55-.065.726-.132l.143.989zm2.298.209c-1.133 0-1.914-.946-1.914-2.75 0-1.947.957-2.783 1.957-2.783 1.123 0 1.893.979 1.893 2.75 0 2.167-1.121 2.783-1.925 2.783h-.011zm.043-.902c.584 0 .716-1.056.716-1.87 0-.781-.132-1.859-.737-1.859-.638 0-.759 1.078-.759 1.859 0 .902.153 1.87.771 1.87h.009zm2.762-3.037c0-.605-.022-1.034-.045-1.507h1.023l.055.627h.022c.253-.43.704-.715 1.265-.715.902 0 1.376.692 1.376 1.936v3.51h-1.177v-3.399c0-.539-.111-1.057-.628-1.057-.286 0-.55.221-.659.66-.033.11-.056.286-.056.484v3.312h-1.177v-3.851zm4.774 0c0-.605-.021-1.034-.044-1.507h1.022l.056.627h.022c.252-.43.703-.715 1.265-.715.902 0 1.376.692 1.376 1.936v3.51h-1.178v-3.399c0-.539-.11-1.057-.627-1.057-.286 0-.551.221-.66.66-.033.11-.055.286-.055.484v3.312h-1.178v-3.851zm5.72 1.486c.01 1.199.561 1.529 1.188 1.529.396 0 .727-.088.957-.188l.176.836c-.341.154-.857.254-1.342.254-1.387 0-2.123-1.002-2.123-2.663 0-1.771.847-2.849 1.991-2.849 1.122 0 1.694 1.022 1.694 2.453 0 .308-.012.483-.033.627h-2.508zm1.451-.836c.012-.858-.274-1.364-.693-1.364-.506 0-.736.737-.758 1.364h1.451zm4.752 3.091c-.164.088-.506.177-.902.177-1.275 0-2.123-.946-2.123-2.707 0-1.606.892-2.794 2.311-2.794.319 0 .627.077.771.154l-.177.935c-.121-.044-.308-.121-.571-.121-.759 0-1.155.814-1.155 1.805 0 1.1.439 1.76 1.155 1.76.22 0 .407-.044.571-.121l.12.912zm2.223-6.578v1.331h1.033v.847h-1.033v2.783c0 .66.252.825.55.825.132 0 .241-.011.362-.033l.022.913c-.176.056-.44.089-.771.089-.373 0-.715-.1-.945-.33-.264-.265-.396-.649-.396-1.452v-2.795h-.639v-.847h.639v-.925l1.178-.406zm2.299.615c-.342 0-.617-.274-.617-.682 0-.418.287-.683.628-.683.374 0 .638.265.638.683 0 .407-.264.682-.638.682h-.011zm-.562 6.073v-5.357h1.177v5.357h-1.177zm3.96.088c-1.133 0-1.914-.946-1.914-2.75 0-1.947.957-2.783 1.959-2.783 1.121 0 1.892.979 1.892 2.75 0 2.167-1.122 2.783-1.925 2.783h-.012zm.045-.902c.582 0 .715-1.056.715-1.87 0-.781-.133-1.859-.738-1.859-.637 0-.758 1.078-.758 1.859 0 .902.153 1.87.77 1.87h.011zm2.76-3.037c0-.605-.021-1.034-.044-1.507h1.022l.056.627h.022c.252-.43.703-.715 1.265-.715.902 0 1.376.692 1.376 1.936v3.51h-1.178v-3.399c0-.539-.11-1.057-.627-1.057-.286 0-.551.221-.66.66-.033.11-.055.286-.055.484v3.312h-1.178v-3.851zM18.851 56.418c-.055-.979-.11-2.068-.077-2.904h-.044a40.892 40.892 0 0 1-.594 2.574l-.902 3.477h-.55l-.858-3.334a33.356 33.356 0 0 1-.616-2.717h-.033c.011.869-.044 1.903-.088 2.959l-.143 3.136h-.759l.44-7.415h.924l.858 3.389c.253.979.44 1.705.594 2.552h.033c.143-.847.308-1.551.55-2.552l.836-3.389h.946l.429 7.415h-.792l-.154-3.191zm2.628.605c.011 1.639.649 1.979 1.254 1.979.374 0 .671-.088.88-.197l.143.615c-.297.165-.748.254-1.177.254-1.266 0-1.925-1.034-1.925-2.674 0-1.728.726-2.806 1.793-2.806 1.078 0 1.518 1.145 1.518 2.344 0 .209-.011.352-.022.484h-2.464zm1.672-.628c.011-1.066-.385-1.54-.792-1.54-.55 0-.836.814-.869 1.54h1.661zm4.94-4.4v6.337c0 .363.033.969.044 1.276h-.726l-.055-.66h-.044c-.165.374-.55.748-1.111.748-.902 0-1.551-.968-1.551-2.729 0-1.892.781-2.772 1.606-2.772.385 0 .759.177.968.627h.022v-2.827h.847zm-.847 4.313c0-.109 0-.23-.011-.352-.044-.55-.385-1.034-.792-1.034-.704 0-.946.979-.946 2.046 0 1.122.286 2.024.902 2.024.264 0 .627-.143.814-.913.033-.099.033-.22.033-.352v-1.419zm2.419-2.849c-.275 0-.484-.221-.484-.551s.22-.55.495-.55c.308 0 .506.22.506.55s-.198.551-.506.551h-.011zm-.396 6.149v-5.325h.847v5.325h-.847zm4.829-1.21c0 .407 0 .869.055 1.21h-.759l-.055-.562h-.033c-.231.407-.605.649-1.056.649-.715 0-1.265-.594-1.265-1.519 0-1.342 1.067-1.925 2.266-1.936v-.165c0-.716-.176-1.21-.847-1.21-.33 0-.627.099-.88.274l-.187-.594c.231-.165.715-.353 1.243-.353 1.067 0 1.518.704 1.518 1.893v2.313zm-.825-1.551c-.44 0-1.463.088-1.463 1.243 0 .704.352.946.649.946.374 0 .682-.274.781-.803.022-.1.033-.209.033-.309v-1.077zm1.925 1.782a2.29 2.29 0 0 0 1.067.298c.771 0 1.232-.507 1.232-1.255 0-.682-.396-1.1-.979-1.54-.583-.407-1.397-1.101-1.397-2.058 0-1.122.792-1.947 1.958-1.947.462 0 .869.154 1.045.275l-.209.727a1.542 1.542 0 0 0-.88-.254c-.726 0-1.067.551-1.067 1.057 0 .737.385 1.034 1.089 1.529.891.627 1.287 1.309 1.287 2.134 0 1.276-.902 2.08-2.08 2.08-.506 0-1.045-.165-1.254-.33l.188-.716zm5.06-5.589v1.243h1.023v.639h-1.023v3.168c0 .704.242.881.55.881.143 0 .253-.012.341-.033l.044.648a1.827 1.827 0 0 1-.627.089c-.341 0-.638-.089-.836-.319-.22-.242-.319-.605-.319-1.343v-3.091h-.649v-.639h.649v-.901l.847-.342zm1.76 2.619c0-.451-.033-.979-.044-1.376h.759l.044.837h.022c.176-.507.627-.925 1.122-.925.066 0 .121 0 .176.012v.869c-.055-.012-.11-.012-.176-.012-.539 0-.935.495-1.023 1.111a3.146 3.146 0 0 0-.033.484v2.948h-.847v-3.948zm3.178 1.364c.011 1.639.649 1.979 1.254 1.979.374 0 .671-.088.88-.197l.143.615c-.297.165-.748.254-1.177.254-1.265 0-1.925-1.034-1.925-2.674 0-1.728.726-2.806 1.793-2.806 1.078 0 1.518 1.145 1.518 2.344 0 .209-.011.352-.022.484h-2.464zm1.673-.628c.011-1.066-.385-1.54-.792-1.54-.55 0-.836.814-.869 1.54h1.661zm4.532 2.003c0 .407 0 .869.055 1.21h-.759l-.055-.562h-.033c-.231.407-.605.649-1.056.649-.715 0-1.265-.594-1.265-1.519 0-1.342 1.067-1.925 2.266-1.936v-.165c0-.716-.176-1.21-.847-1.21-.33 0-.627.099-.88.274l-.187-.594c.231-.165.715-.353 1.243-.353 1.067 0 1.518.704 1.518 1.893v2.313zm-.825-1.551c-.44 0-1.463.088-1.463 1.243 0 .704.352.946.649.946.374 0 .682-.274.781-.803.022-.1.033-.209.033-.309v-1.077zm2.024-1.188c0-.628-.033-.946-.044-1.376h.748l.044.649h.022c.231-.429.627-.737 1.188-.737.495 0 .924.231 1.122.804h.022c.143-.265.33-.474.517-.605.22-.132.462-.198.737-.198.726 0 1.287.518 1.287 1.882v3.531h-.847v-3.345c0-.692-.099-1.364-.737-1.364-.352 0-.66.297-.781.804-.033.132-.033.297-.033.473v3.433h-.847v-3.5c0-.584-.099-1.211-.726-1.211-.352 0-.693.297-.792.869a2.796 2.796 0 0 0-.033.451v3.389h-.847v-3.949zm-6.622 24.759c-.055-.979-.11-2.068-.077-2.904h-.044a40.892 40.892 0 0 1-.594 2.574l-.902 3.477h-.55l-.859-3.335a33.356 33.356 0 0 1-.616-2.717h-.033c.011.869-.044 1.903-.088 2.959l-.143 3.136h-.759l.44-7.415h.924l.858 3.389c.253.979.44 1.705.594 2.552h.033c.143-.847.308-1.551.55-2.552l.836-3.389h.946l.429 7.415h-.792l-.153-3.19zm2.628.605c.011 1.639.649 1.979 1.254 1.979.374 0 .671-.088.88-.197l.143.615c-.297.165-.748.254-1.177.254-1.266 0-1.925-1.034-1.925-2.674 0-1.728.726-2.806 1.793-2.806 1.078 0 1.518 1.145 1.518 2.344 0 .209-.011.352-.022.484h-2.464zm1.672-.628c.011-1.066-.385-1.54-.792-1.54-.55 0-.836.814-.869 1.54h1.661zm4.939-4.4v6.337c0 .363.033.969.044 1.276h-.726l-.055-.66h-.044c-.165.374-.55.748-1.111.748-.902 0-1.551-.968-1.551-2.729 0-1.892.781-2.772 1.606-2.772.385 0 .759.177.968.627h.022v-2.827h.847zm-.847 4.313c0-.109 0-.23-.011-.352-.044-.55-.385-1.034-.792-1.034-.704 0-.946.979-.946 2.046 0 1.122.286 2.024.902 2.024.264 0 .627-.143.814-.913.033-.099.033-.22.033-.352v-1.419zm2.42-2.849c-.275 0-.484-.221-.484-.551s.22-.55.495-.55c.308 0 .506.22.506.55s-.198.551-.506.551h-.011zm-.396 6.149v-5.325h.847v5.325h-.847zm4.829-1.21c0 .407 0 .869.055 1.21h-.759l-.055-.562h-.033c-.231.407-.605.649-1.056.649-.715 0-1.265-.594-1.265-1.519 0-1.342 1.067-1.925 2.266-1.936v-.165c0-.716-.176-1.21-.847-1.21-.33 0-.627.099-.88.274l-.187-.594c.231-.165.715-.353 1.243-.353 1.067 0 1.518.704 1.518 1.893v2.313zm-.825-1.551c-.44 0-1.463.088-1.463 1.243 0 .704.352.946.649.946.374 0 .682-.274.781-.803.022-.1.033-.209.033-.309v-1.077zm1.924 1.782a2.29 2.29 0 0 0 1.067.298c.771 0 1.232-.507 1.232-1.255 0-.682-.396-1.1-.979-1.54-.583-.407-1.397-1.101-1.397-2.058 0-1.122.792-1.947 1.958-1.947.462 0 .869.154 1.045.275l-.209.727a1.542 1.542 0 0 0-.88-.254c-.726 0-1.067.551-1.067 1.057 0 .737.385 1.034 1.089 1.529.891.627 1.287 1.309 1.287 2.134 0 1.276-.902 2.08-2.08 2.08-.506 0-1.045-.165-1.254-.33l.188-.716zm5.061-5.589v1.243h1.023v.639h-1.023v3.168c0 .704.242.881.55.881.143 0 .253-.012.341-.033l.044.648a1.827 1.827 0 0 1-.627.089c-.341 0-.638-.089-.836-.319-.22-.242-.319-.605-.319-1.343v-3.091h-.649v-.639h.649v-.901l.847-.342zm1.759 2.619c0-.451-.033-.979-.044-1.376h.759l.044.837h.022c.176-.507.627-.925 1.122-.925.066 0 .121 0 .176.012v.869c-.055-.012-.11-.012-.176-.012-.539 0-.935.495-1.023 1.111a3.146 3.146 0 0 0-.033.484v2.948h-.847v-3.948zm3.179 1.364c.011 1.639.649 1.979 1.254 1.979.374 0 .671-.088.88-.197l.143.615c-.297.165-.748.254-1.177.254-1.265 0-1.925-1.034-1.925-2.674 0-1.728.726-2.806 1.793-2.806 1.078 0 1.518 1.145 1.518 2.344 0 .209-.011.352-.022.484h-2.464zm1.672-.628c.011-1.066-.385-1.54-.792-1.54-.55 0-.836.814-.869 1.54h1.661zm4.532 2.003c0 .407 0 .869.055 1.21h-.759l-.055-.562h-.033c-.231.407-.605.649-1.056.649-.715 0-1.265-.594-1.265-1.519 0-1.342 1.067-1.925 2.266-1.936v-.165c0-.716-.176-1.21-.847-1.21-.33 0-.627.099-.88.274l-.187-.594c.231-.165.715-.353 1.243-.353 1.067 0 1.518.704 1.518 1.893v2.313zm-.825-1.551c-.44 0-1.463.088-1.463 1.243 0 .704.352.946.649.946.374 0 .682-.274.781-.803.022-.1.033-.209.033-.309v-1.077zm2.024-1.188c0-.628-.033-.946-.044-1.376h.748l.044.649h.022c.231-.429.627-.737 1.188-.737.495 0 .924.231 1.122.804h.022c.143-.265.33-.474.517-.605.22-.132.462-.198.737-.198.726 0 1.287.518 1.287 1.882v3.531h-.847v-3.345c0-.692-.099-1.364-.737-1.364-.352 0-.66.297-.781.804-.033.132-.033.297-.033.473v3.433h-.847v-3.5c0-.584-.099-1.211-.726-1.211-.352 0-.693.297-.792.869a2.796 2.796 0 0 0-.033.451v3.389h-.847v-3.949zm7.194-2.707h-1.354v-.759h3.554v.759h-1.353v6.656h-.847v-6.656zm2.354 2.707c0-.451-.033-.979-.044-1.376h.759l.044.837h.022c.176-.507.627-.925 1.122-.925.066 0 .121 0 .176.012v.869c-.055-.012-.11-.012-.176-.012-.539 0-.935.495-1.023 1.111a3.146 3.146 0 0 0-.033.484v2.948h-.847v-3.948zm5.478 2.739c0 .407 0 .869.055 1.21h-.759l-.055-.562h-.033c-.231.407-.605.649-1.056.649-.715 0-1.265-.594-1.265-1.519 0-1.342 1.067-1.925 2.266-1.936v-.165c0-.716-.176-1.21-.847-1.21-.33 0-.627.099-.88.274l-.187-.594c.231-.165.715-.353 1.243-.353 1.067 0 1.518.704 1.518 1.893v2.313zm-.825-1.551c-.44 0-1.463.088-1.463 1.243 0 .704.352.946.649.946.374 0 .682-.274.781-.803.022-.1.033-.209.033-.309v-1.077zm4.62 2.63c-.187.109-.506.198-.88.198-1.167 0-1.947-.936-1.947-2.695 0-1.529.77-2.772 2.101-2.772.286 0 .594.076.748.176l-.165.68a1.382 1.382 0 0 0-.605-.143c-.858 0-1.232 1.012-1.232 2.058 0 1.243.473 1.991 1.254 1.991.22 0 .418-.044.605-.144l.121.651zm1.562-2.718h.022c.099-.209.187-.418.286-.594l1.056-1.882h.913l-1.408 2.245 1.54 3.08h-.946l-1.155-2.509-.308.495v2.014h-.847v-7.613h.847v4.764zM61.1 87.995c-.627.99-1.155 2.442-1.155 4.478 0 1.98.528 3.443 1.155 4.456h-.869c-.594-.825-1.232-2.321-1.232-4.456.033-2.156.638-3.642 1.232-4.478h.869zm2.31 7.613l-1.672-7.415h1.287l.616 3.322c.143.814.33 1.793.44 2.695h.033c.099-.913.264-1.859.418-2.717l.594-3.301h1.276l-1.706 7.415H63.41zm3.982-6.073c-.341 0-.616-.274-.616-.682 0-.418.286-.683.627-.683.374 0 .638.265.638.683 0 .407-.264.682-.638.682h-.011zm-.561 6.073v-5.357h1.177v5.357h-1.177zm5.852-7.613v6.161c0 .44.022 1.045.044 1.452h-1.001l-.077-.638h-.033c-.176.385-.594.726-1.111.726-1.045 0-1.628-1.133-1.628-2.75 0-1.882.814-2.783 1.683-2.783.44 0 .759.209.935.583h.022v-2.751h1.166zm-1.166 4.302c0-.099 0-.22-.022-.33-.044-.429-.286-.814-.638-.814-.594 0-.803.848-.803 1.805 0 1.078.286 1.771.781 1.771.22 0 .495-.11.638-.671.033-.089.044-.21.044-.342v-1.419zm3.19.946c.011 1.199.561 1.529 1.188 1.529.396 0 .726-.088.957-.188l.176.836c-.341.154-.858.254-1.342.254-1.386 0-2.124-1.002-2.124-2.663 0-1.771.847-2.849 1.992-2.849 1.122 0 1.694 1.022 1.694 2.453 0 .308-.011.483-.033.627h-2.508zm1.452-.836c.011-.858-.275-1.364-.693-1.364-.506 0-.737.737-.759 1.364h1.452zm3.64 3.289c-1.133 0-1.914-.946-1.914-2.75 0-1.947.957-2.783 1.958-2.783 1.122 0 1.892.979 1.892 2.75 0 2.167-1.122 2.783-1.925 2.783h-.011zm.045-.902c.583 0 .715-1.056.715-1.87 0-.781-.132-1.859-.737-1.859-.638 0-.759 1.078-.759 1.859 0 .902.154 1.87.77 1.87h.011zm2.452 2.135c.627-1.001 1.155-2.486 1.155-4.489 0-1.979-.528-3.443-1.155-4.444h.869c.594.814 1.232 2.277 1.232 4.456-.033 2.167-.638 3.63-1.232 4.478h-.869zm-38.614 22.679l.902-4.697h-.66l.11-.628h.671l.066-.318c.11-.595.33-1.199.737-1.606a1.597 1.597 0 0 1 1.122-.451c.253 0 .462.044.561.099l-.187.628a1.289 1.289 0 0 0-.407-.056c-.605 0-.957.737-1.067 1.452l-.044.253h1.012l-.11.628h-1.012l-.913 4.697h-.781zm4.818 0c.011-.297.044-.594.077-1.012h-.022c-.528.901-1.001 1.1-1.397 1.1-.616 0-.99-.539-.99-1.496 0-1.617.858-4.005 2.915-4.005.374 0 .759.077.979.177l-.616 3.047c-.143.715-.242 1.596-.231 2.189H48.5zm.671-4.73a1.524 1.524 0 0 0-.33-.033c-1.188 0-1.849 1.947-1.881 3.113-.011.671.121 1.057.495 1.057.539 0 1.111-1.057 1.32-2.112l.396-2.025zm3.542 4.642c-.198.088-.506.154-.869.154-1.067 0-1.452-.869-1.452-1.903 0-1.552.913-3.564 2.651-3.564.231 0 .418.032.528.088l-.209.682c-.11-.033-.231-.077-.396-.077-1.111 0-1.76 1.585-1.76 2.784 0 .78.231 1.309.847 1.309.209 0 .44-.055.649-.132l.011.659zm.714.088l1.012-5.325h.792l-1.023 5.325h-.781zm1.2-6.677c.011-.286.231-.562.528-.562.308 0 .451.231.429.518-.022.362-.264.561-.55.561s-.441-.21-.407-.517zm.769 6.677l.649-3.498c.154-.771.231-1.397.286-1.827h.693l-.088.848h.022c.429-.649.891-.936 1.43-.936.66 0 .913.518.913 1.078 0 .309-.044.562-.099.869l-.649 3.466h-.792l.649-3.454c.044-.242.077-.463.077-.737 0-.319-.132-.539-.462-.539-.495 0-1.089.759-1.288 1.771l-.561 2.959h-.78zm4.4 1.31c.22.121.561.23.858.23.803 0 1.133-.583 1.342-1.562l.187-.836h-.022c-.451.737-.891.902-1.276.902-.616 0-1.001-.539-1.012-1.54-.011-1.573.825-3.917 2.729-3.917.418 0 .847.121 1.133.265l-.869 4.609c-.209 1.111-.462 1.805-.836 2.179-.363.385-.847.561-1.419.561-.407 0-.825-.11-1.045-.253l.23-.638zm3.059-5.975c-.11-.055-.242-.088-.462-.088-1.089 0-1.694 1.882-1.716 2.981-.011.627.077 1.155.539 1.155.572 0 1.045-1.001 1.188-1.694l.451-2.354zm5.698 4.665l.594-4.225c.077-.627.198-1.243.319-1.991h-.044c-.264.771-.55 1.496-.825 2.09l-1.815 4.082h-.517l-.275-4.181a28.125 28.125 0 0 1-.044-1.991h-.022c-.176.771-.275 1.364-.429 2.002l-.979 4.214h-.726l1.826-7.415h.88l.253 4.291c.033.571.055 1.11.044 1.705h.044c.198-.595.429-1.145.671-1.717l1.849-4.279h.913l-.99 7.415h-.727zm5.554-3.674c0 1.343-.66 3.763-2.289 3.763-.99 0-1.298-.858-1.298-1.804 0-1.431.77-3.697 2.354-3.697 1.068-.001 1.233 1.023 1.233 1.738zm-2.783 1.881c0 .604.044 1.231.605 1.231.968 0 1.375-2.266 1.375-3.168 0-.55-.099-1.023-.561-1.023-.88 0-1.419 1.915-1.419 2.96zm7.59-5.82l-1.089 5.743c-.11.583-.22 1.364-.242 1.87h-.682l.066-.836h-.022c-.264.55-.759.924-1.276.924-.671 0-1.078-.627-1.078-1.595 0-1.815.957-3.906 2.519-3.906.209 0 .429.088.561.198l.451-2.398h.792zm-1.397 3.092a.573.573 0 0 0-.495-.242c-1.023 0-1.617 2.014-1.617 3.103 0 .627.143 1.067.583 1.067.385 0 .902-.484 1.111-1.541l.418-2.387zm4.059 4.258a2.57 2.57 0 0 1-1.254.33c-1.122 0-1.485-.858-1.485-1.882 0-1.441.803-3.598 2.321-3.598.781 0 1.1.595 1.1 1.211 0 1.287-1.144 1.837-2.596 1.848-.022.154-.055.748.033 1.067.121.451.396.693.814.693.418 0 .704-.144.946-.286l.121.617zm-.539-4.467c-.473 0-.979.583-1.265 1.738.847-.012 1.738-.297 1.738-1.155 0-.374-.154-.583-.473-.583zm1.451 4.246c0-.341.275-.671.594-.671.363 0 .517.275.517.572 0 .363-.264.671-.594.671-.329 0-.517-.242-.517-.572zm.771-4.048c0-.33.275-.66.583-.66.374 0 .528.264.528.561 0 .363-.264.671-.594.671s-.517-.242-.517-.572zm6.952-.793l-.66 3.51c-.143.771-.198 1.387-.242 1.815h-.715l.077-.836h-.022c-.407.66-.913.924-1.419.924-.638 0-.902-.517-.902-1.089 0-.297.033-.562.088-.848l.66-3.477h.781l-.627 3.345a4.619 4.619 0 0 0-.088.836c0 .33.132.551.451.551.528 0 1.079-.716 1.254-1.661l.572-3.07h.792zm.208 4.5c.165.11.429.253.825.253.539-.011.858-.396.858-.902 0-.473-.231-.759-.539-1.034-.363-.33-.693-.792-.693-1.298 0-.902.66-1.606 1.662-1.606.352 0 .66.088.825.209l-.22.605a1.344 1.344 0 0 0-.616-.165c-.55 0-.858.363-.858.825 0 .418.242.66.495.891.418.363.748.858.748 1.397 0 1.145-.748 1.717-1.738 1.717-.418 0-.836-.165-.99-.286l.241-.606zm6.007.562a2.57 2.57 0 0 1-1.254.33c-1.122 0-1.485-.858-1.485-1.882 0-1.441.803-3.598 2.321-3.598.781 0 1.1.595 1.1 1.211 0 1.287-1.144 1.837-2.596 1.848-.022.154-.055.748.033 1.067.121.451.396.693.814.693.418 0 .704-.144.946-.286l.121.617zm-.539-4.467c-.473 0-.979.583-1.265 1.738.847-.012 1.738-.297 1.738-1.155 0-.374-.154-.583-.473-.583zm1.33 4.73l.671-3.575c.132-.716.198-1.354.231-1.75h.693c-.011.286-.033.572-.088 1.002h.033c.33-.66.792-1.09 1.331-1.09.055 0 .099.012.143.012l-.154.836c-.022 0-.066-.012-.099-.012-.704 0-1.298.99-1.452 1.783l-.528 2.794h-.781zm-44.053 6.675l.033 2.993c-.011.571-.011.935-.044 1.342h.033c.121-.396.264-.803.473-1.298l1.298-3.037h.627l.11 3.015c.011.572.022.902-.033 1.32h.044c.121-.396.253-.814.462-1.364l1.177-2.971h.781l-2.299 5.325h-.671l-.143-2.883a9.15 9.15 0 0 1 .033-1.331h-.033c-.154.484-.297.946-.462 1.331l-1.254 2.883h-.693l-.253-5.325h.814zm4.708 5.325l1.012-5.325h.792l-1.023 5.325h-.781zm1.199-6.677c.011-.286.231-.562.528-.562.308 0 .451.231.429.518-.022.362-.264.561-.55.561s-.44-.21-.407-.517zm5.236-.936l-1.089 5.743c-.11.583-.22 1.364-.242 1.87h-.682l.066-.836h-.022c-.264.55-.759.924-1.276.924-.671 0-1.078-.627-1.078-1.595 0-1.815.957-3.906 2.519-3.906.209 0 .429.088.561.198l.451-2.398h.792zm-1.397 3.092a.573.573 0 0 0-.495-.242c-1.023 0-1.617 2.014-1.617 3.103 0 .627.143 1.067.583 1.067.385 0 .902-.484 1.111-1.541l.418-2.387zm3.333-2.2l-.286 1.396h1.012l-.121.616h-1.001l-.572 3.037a3.856 3.856 0 0 0-.077.671c0 .264.099.407.363.407.143 0 .231 0 .33-.022l-.066.616a2.102 2.102 0 0 1-.572.077c-.561 0-.891-.33-.891-.858 0-.209.022-.429.11-.858l.583-3.069h-.638l.11-.616h.649l.22-1.154.847-.243zm.439 6.721l1.43-7.613h.803l-.572 3.036h.022c.374-.55.803-.836 1.32-.836.638 0 .902.495.902 1.078 0 .286-.033.528-.099.892l-.649 3.443h-.792l.66-3.477c.044-.231.066-.451.066-.715 0-.33-.143-.539-.462-.539-.528 0-1.101.792-1.265 1.683l-.583 3.048h-.781zm4.444-.484c0-.341.275-.671.594-.671.363 0 .517.275.517.572 0 .363-.264.671-.594.671-.329 0-.517-.242-.517-.572zm.771-4.048c0-.33.275-.66.583-.66.374 0 .528.264.528.561 0 .363-.264.671-.594.671s-.517-.242-.517-.572zm5.466-1.771h-.022l-1.254.671-.044-.649 1.617-.869h.66l-1.353 7.151h-.781l1.177-6.304zm5.819 1.045c0 1.684-.682 5.347-2.629 5.347-1.1 0-1.309-1.177-1.309-2.102 0-1.947.825-5.226 2.629-5.226 1.177 0 1.309 1.21 1.309 1.981zm-3.146 3.256c0 .847.11 1.396.66 1.396 1.166 0 1.694-3.686 1.694-4.774 0-.517-.088-1.166-.583-1.166-1.21 0-1.771 3.279-1.771 4.544zm3.069 2.002l.088-.528.726-.836c1.012-1.166 2.508-2.85 2.508-4.137 0-.648-.286-1.045-.891-1.045-.473 0-.781.242-.946.352l-.154-.604c.286-.188.748-.44 1.32-.44 1.101 0 1.485.781 1.485 1.584 0 1.684-1.639 3.345-2.695 4.588l-.297.33.011.022h2.267l-.121.715h-3.301zm6.347 0l.385-1.991h-2.31l.099-.562 3.135-4.599h.781l-.858 4.5h.781l-.132.66h-.771l-.385 1.991h-.725zm.517-2.651l.374-1.98c.11-.517.242-.99.352-1.496h-.033c-.352.605-.561.968-.935 1.519l-1.309 1.936v.022h1.551zm-21.258 14.146c0-.353.275-.683.605-.683.374 0 .528.275.528.583 0 .386-.264.693-.605.693-.329 0-.528-.242-.528-.593zm2.102 0c0-.353.275-.683.605-.683.374 0 .528.275.528.583 0 .386-.264.693-.605.693-.33 0-.528-.242-.528-.593zm2.1 0c0-.353.275-.683.605-.683.374 0 .528.275.528.583 0 .386-.264.693-.605.693-.33 0-.528-.242-.528-.593zm123.062-62.685c-.055-.979-.109-2.068-.076-2.904h-.045a40.203 40.203 0 0 1-.594 2.574l-.902 3.477h-.55l-.858-3.334a32.92 32.92 0 0 1-.615-2.717h-.033c.011.869-.045 1.903-.088 2.959l-.144 3.136h-.759l.439-7.415h.924l.859 3.389c.252.979.439 1.705.594 2.552h.033c.143-.847.308-1.551.55-2.552l.836-3.389h.946l.429 7.415h-.792l-.154-3.191zm2.629.605c.011 1.639.648 1.979 1.254 1.979.374 0 .671-.088.88-.197l.144.615c-.297.165-.748.254-1.178.254-1.266 0-1.925-1.034-1.925-2.674 0-1.728.726-2.806 1.793-2.806 1.078 0 1.519 1.145 1.519 2.344 0 .209-.012.352-.022.484h-2.465zm1.672-.628c.012-1.066-.385-1.54-.792-1.54-.55 0-.837.814-.869 1.54h1.661zm4.939-4.4v6.337c0 .363.033.969.044 1.276h-.726l-.056-.66h-.044c-.165.374-.55.748-1.111.748-.902 0-1.551-.968-1.551-2.729 0-1.892.781-2.772 1.605-2.772.386 0 .76.177.969.627h.021v-2.827h.849zm-.847 4.313c0-.109 0-.23-.011-.352-.044-.55-.385-1.034-.792-1.034-.704 0-.946.979-.946 2.046 0 1.122.286 2.024.902 2.024.265 0 .627-.143.813-.913.033-.099.033-.22.033-.352v-1.419zm2.42-2.849c-.275 0-.484-.221-.484-.551s.221-.55.495-.55c.308 0 .507.22.507.55s-.199.551-.507.551h-.011zm-.397 6.149v-5.325h.848v5.325h-.848zm4.83-1.21c0 .407 0 .869.055 1.21h-.76l-.055-.562h-.033c-.23.407-.604.649-1.056.649-.716 0-1.265-.594-1.265-1.519 0-1.342 1.066-1.925 2.266-1.936v-.165c0-.716-.176-1.21-.848-1.21-.33 0-.627.099-.879.274l-.188-.594c.23-.165.715-.353 1.243-.353 1.067 0 1.519.704 1.519 1.893v2.313zm-.826-1.551c-.439 0-1.463.088-1.463 1.243 0 .704.353.946.649.946.374 0 .683-.274.781-.803.022-.1.032-.209.032-.309v-1.077zm1.926 1.782c.252.154.692.298 1.066.298.771 0 1.232-.507 1.232-1.255 0-.682-.396-1.1-.979-1.54-.584-.407-1.398-1.101-1.398-2.058 0-1.122.793-1.947 1.959-1.947.462 0 .869.154 1.045.275l-.209.727a1.544 1.544 0 0 0-.88-.254c-.726 0-1.067.551-1.067 1.057 0 .737.385 1.034 1.09 1.529.891.627 1.287 1.309 1.287 2.134 0 1.276-.902 2.08-2.08 2.08-.506 0-1.045-.165-1.254-.33l.188-.716zm5.06-5.589v1.243h1.022v.639h-1.022v3.168c0 .704.241.881.549.881.144 0 .254-.012.342-.033l.044.648a1.833 1.833 0 0 1-.628.089c-.34 0-.637-.089-.836-.319-.219-.242-.318-.605-.318-1.343v-3.091h-.649v-.639h.649v-.901l.847-.342zm1.759 2.619c0-.451-.032-.979-.044-1.376h.76l.043.837h.022c.176-.507.627-.925 1.122-.925.066 0 .121 0 .176.012v.869c-.055-.012-.109-.012-.176-.012-.539 0-.936.495-1.023 1.111a3.277 3.277 0 0 0-.033.484v2.948h-.847v-3.948zm3.179 1.364c.012 1.639.649 1.979 1.254 1.979.375 0 .672-.088.881-.197l.143.615c-.297.165-.748.254-1.178.254-1.265 0-1.924-1.034-1.924-2.674 0-1.728.726-2.806 1.793-2.806 1.078 0 1.518 1.145 1.518 2.344 0 .209-.011.352-.021.484h-2.466zm1.672-.628c.012-1.066-.385-1.54-.791-1.54-.551 0-.836.814-.869 1.54h1.66zm4.533 2.003c0 .407 0 .869.055 1.21h-.76l-.055-.562h-.033c-.23.407-.604.649-1.056.649-.716 0-1.265-.594-1.265-1.519 0-1.342 1.066-1.925 2.266-1.936v-.165c0-.716-.176-1.21-.848-1.21-.33 0-.627.099-.879.274l-.188-.594c.23-.165.715-.353 1.243-.353 1.067 0 1.519.704 1.519 1.893v2.313zm-.826-1.551c-.439 0-1.463.088-1.463 1.243 0 .704.353.946.649.946.374 0 .683-.274.781-.803.022-.1.032-.209.032-.309v-1.077zm2.024-1.188c0-.628-.033-.946-.044-1.376h.748l.044.649h.022c.23-.429.627-.737 1.188-.737.495 0 .924.231 1.122.804h.022c.143-.265.33-.474.517-.605.22-.132.462-.198.737-.198.727 0 1.287.518 1.287 1.882v3.531h-.848v-3.345c0-.692-.098-1.364-.736-1.364-.352 0-.66.297-.781.804-.033.132-.033.297-.033.473v3.433h-.848v-3.5c0-.584-.098-1.211-.726-1.211-.353 0-.692.297-.792.869a2.915 2.915 0 0 0-.033.451v3.389h-.847v-3.949zm7.195-2.707h-1.354v-.759h3.553v.759h-1.353v6.656h-.847v-6.656zm2.353 2.707c0-.451-.033-.979-.044-1.376h.759l.045.837h.021c.176-.507.627-.925 1.122-.925.065 0 .121 0 .177.012v.869c-.056-.012-.111-.012-.177-.012-.539 0-.935.495-1.022 1.111a3.146 3.146 0 0 0-.033.484v2.948h-.848v-3.948zm5.479 2.739c0 .407 0 .869.055 1.21h-.76l-.055-.562h-.033c-.23.407-.604.649-1.056.649-.716 0-1.265-.594-1.265-1.519 0-1.342 1.066-1.925 2.266-1.936v-.165c0-.716-.176-1.21-.848-1.21-.33 0-.627.099-.879.274l-.188-.594c.23-.165.715-.353 1.243-.353 1.067 0 1.519.704 1.519 1.893v2.313zm-.827-1.551c-.439 0-1.463.088-1.463 1.243 0 .704.353.946.649.946.374 0 .683-.274.781-.803.022-.1.032-.209.032-.309v-1.077zm4.621 2.63c-.188.109-.506.198-.88.198-1.167 0-1.947-.936-1.947-2.695 0-1.529.771-2.772 2.101-2.772.287 0 .595.076.748.176l-.164.682a1.382 1.382 0 0 0-.605-.143c-.857 0-1.232 1.012-1.232 2.058 0 1.243.473 1.991 1.254 1.991.221 0 .418-.044.605-.144l.12.649zm1.562-2.718h.022c.099-.209.187-.418.285-.594l1.057-1.882h.913l-1.408 2.245 1.54 3.08h-.945l-1.156-2.509-.308.495v2.014h-.847v-7.613h.847v4.764zm-51.683 7.236c-.627.99-1.155 2.442-1.155 4.478 0 1.98.528 3.443 1.155 4.456h-.869c-.594-.825-1.232-2.321-1.232-4.456.033-2.156.639-3.642 1.232-4.478h.869zm.715 6.359c.275.165.759.297 1.145.297.726 0 1.121-.418 1.121-1.034 0-.594-.363-.936-.968-1.354-.825-.527-1.397-1.265-1.397-2.068 0-1.155.781-2.068 2.168-2.068.473 0 .902.144 1.1.265l-.209 1.012a1.704 1.704 0 0 0-.913-.253c-.671 0-.99.451-.99.902 0 .572.298.836 1.056 1.32.936.616 1.311 1.331 1.311 2.123 0 1.331-.947 2.179-2.277 2.179-.551 0-1.111-.154-1.343-.309l.196-1.012zm5.632-5.434v1.331h1.034v.847h-1.034v2.783c0 .66.253.825.55.825.133 0 .242-.011.363-.033l.021.913c-.176.056-.439.089-.77.089-.374 0-.715-.1-.946-.33-.264-.265-.396-.649-.396-1.452v-2.795h-.639v-.847h.639v-.925l1.178-.406zm2.607 4.323c.011 1.199.562 1.529 1.188 1.529.396 0 .726-.088.957-.188l.176.836c-.342.154-.858.254-1.342.254-1.387 0-2.124-1.002-2.124-2.663 0-1.771.847-2.849 1.991-2.849 1.123 0 1.694 1.022 1.694 2.453 0 .308-.011.483-.032.627h-2.508zm1.453-.836c.011-.858-.275-1.364-.693-1.364-.506 0-.736.737-.759 1.364h1.452zm1.935-.649c0-.495-.021-1.056-.044-1.507h1.022l.066.803h.033c.209-.539.648-.891 1.09-.891.109 0 .176.011.252.021v1.166c-.076-.011-.154-.011-.252-.011-.408 0-.814.341-.947.924a3.11 3.11 0 0 0-.043.506v2.839h-1.178v-3.85zm3.85 1.485c.012 1.199.562 1.529 1.188 1.529.396 0 .726-.088.957-.188l.177.836c-.342.154-.859.254-1.343.254-1.386 0-2.124-1.002-2.124-2.663 0-1.771.848-2.849 1.992-2.849 1.122 0 1.693 1.022 1.693 2.453 0 .308-.01.483-.032.627h-2.508zm1.453-.836c.01-.858-.275-1.364-.693-1.364-.506 0-.737.737-.76 1.364h1.453zm3.641 3.289c-1.133 0-1.914-.946-1.914-2.75 0-1.947.957-2.783 1.957-2.783 1.123 0 1.893.979 1.893 2.75 0 2.167-1.121 2.783-1.925 2.783h-.011zm.043-.902c.584 0 .716-1.056.716-1.87 0-.781-.132-1.859-.737-1.859-.638 0-.759 1.078-.759 1.859 0 .902.153 1.87.771 1.87h.009zm5.654-1.11l-.396 1.925h-1.145l1.65-7.415h1.376l1.528 7.415h-1.144l-.396-1.925h-1.473zm1.353-.925l-.309-1.705c-.098-.484-.197-1.166-.274-1.684h-.033a52.149 52.149 0 0 1-.274 1.694l-.33 1.694h1.22zm5.985 1.287c0 .583.021 1.111.043 1.562h-1.022l-.065-.562h-.022a1.458 1.458 0 0 1-1.199.649c-.979 0-1.376-.737-1.376-2.134v-3.312h1.178v3.168c0 .771.133 1.298.616 1.298.363 0 .55-.308.604-.527a1.39 1.39 0 0 0 .066-.462v-3.477h1.178v3.797zm4.697-6.051v6.161c0 .44.021 1.045.043 1.452h-1l-.078-.638h-.033c-.176.385-.594.726-1.11.726-1.046 0-1.628-1.133-1.628-2.75 0-1.882.813-2.783 1.683-2.783.44 0 .759.209.935.583h.022v-2.751h1.166zm-1.167 4.302c0-.099 0-.22-.022-.33-.043-.429-.285-.814-.637-.814-.595 0-.804.848-.804 1.805 0 1.078.286 1.771.78 1.771.221 0 .496-.11.639-.671.033-.089.044-.21.044-.342v-1.419zm2.805-2.762c-.341 0-.616-.274-.616-.682 0-.418.286-.683.627-.683.375 0 .639.265.639.683 0 .407-.264.682-.639.682h-.011zm-.562 6.073v-5.357h1.178v5.357h-1.178zm3.961.088c-1.133 0-1.914-.946-1.914-2.75 0-1.947.957-2.783 1.957-2.783 1.123 0 1.893.979 1.893 2.75 0 2.167-1.121 2.783-1.925 2.783h-.011zm.043-.902c.584 0 .716-1.056.716-1.87 0-.781-.132-1.859-.737-1.859-.638 0-.759 1.078-.759 1.859 0 .902.153 1.87.771 1.87h.009zm2.453 2.135c.627-1.001 1.155-2.486 1.155-4.489 0-1.979-.528-3.443-1.155-4.444h.869c.594.814 1.232 2.277 1.232 4.456-.033 2.167-.639 3.63-1.232 4.478h-.869zm-43.355 14.195h.848v6.7h2.079v.715h-2.927v-7.415zm4.136 4.831c.011 1.639.648 1.979 1.254 1.979.374 0 .671-.088.88-.197l.144.615c-.297.165-.748.254-1.178.254-1.266 0-1.925-1.034-1.925-2.674 0-1.728.726-2.806 1.793-2.806 1.078 0 1.519 1.145 1.519 2.344 0 .209-.012.352-.022.484h-2.465zm1.672-.628c.012-1.066-.385-1.54-.792-1.54-.55 0-.836.814-.869 1.54h1.661zm1.903 3.213v-4.687h-.67v-.639h.67v-.33c0-.571.088-1.166.474-1.595.308-.341.737-.451 1.067-.451.285 0 .506.055.66.132l-.133.66a1.192 1.192 0 0 0-.473-.088c-.605 0-.748.649-.748 1.331v.341h.969v.639h-.969v4.687h-.847zm3.422-6.569v1.243h1.022v.639h-1.022v3.168c0 .704.241.881.549.881.144 0 .254-.012.342-.033l.044.648a1.83 1.83 0 0 1-.627.089c-.341 0-.638-.089-.837-.319-.22-.242-.318-.605-.318-1.343v-3.091h-.649v-.639h.649v-.901l.847-.342zm6.093 6.437c-.188.109-.506.198-.88.198-1.167 0-1.947-.936-1.947-2.695 0-1.529.771-2.772 2.101-2.772.287 0 .595.076.748.176l-.164.682a1.382 1.382 0 0 0-.605-.143c-.858 0-1.232 1.012-1.232 2.058 0 1.243.473 1.991 1.254 1.991.221 0 .418-.044.605-.144l.12.649zm.726-7.482h.847v2.86h.022a1.54 1.54 0 0 1 .45-.473c.188-.121.408-.188.705-.188.671 0 1.242.528 1.242 1.882v3.531h-.846v-3.433c0-.66-.144-1.265-.716-1.265-.396 0-.692.285-.825.847a2.519 2.519 0 0 0-.033.396v3.454h-.847v-7.611zm7.261 6.404c0 .407 0 .869.055 1.21h-.76l-.055-.562h-.033c-.23.407-.604.649-1.056.649-.716 0-1.265-.594-1.265-1.519 0-1.342 1.066-1.925 2.266-1.936v-.165c0-.716-.176-1.21-.848-1.21-.33 0-.627.099-.879.274l-.188-.594c.23-.165.715-.353 1.243-.353 1.067 0 1.519.704 1.519 1.893v2.313zm-.827-1.552c-.439 0-1.463.088-1.463 1.243 0 .704.353.946.649.946.374 0 .683-.274.781-.803.022-.1.032-.209.032-.309v-1.077zm2.025-1.188c0-.628-.033-.946-.044-1.376h.736l.045.639h.021a1.35 1.35 0 0 1 1.221-.727c.738 0 1.287.539 1.287 1.838v3.575h-.846v-3.433c0-.638-.121-1.265-.738-1.265-.352 0-.692.297-.791.869-.033.12-.045.285-.045.473v3.355h-.847v-3.948zm4.455 0c0-.628-.033-.946-.044-1.376h.736l.045.639h.021a1.35 1.35 0 0 1 1.221-.727c.738 0 1.287.539 1.287 1.838v3.575h-.846v-3.433c0-.638-.121-1.265-.738-1.265-.352 0-.692.297-.791.869-.033.12-.045.285-.045.473v3.355h-.847v-3.948zm5.048 1.365c.012 1.639.65 1.979 1.255 1.979.374 0 .671-.088.88-.197l.143.615c-.297.165-.748.254-1.177.254-1.265 0-1.925-1.034-1.925-2.674 0-1.728.727-2.806 1.793-2.806 1.078 0 1.518 1.145 1.518 2.344 0 .209-.01.352-.021.484h-2.466zm1.673-.628c.011-1.066-.385-1.54-.792-1.54-.551 0-.836.814-.869 1.54h1.661zm1.727-4.401h.847v7.613h-.847v-7.613zm-41.931 18.016c.363-.1.803-.144 1.221-.144.737 0 1.287.154 1.673.528.362.374.517.869.517 1.452 0 .946-.439 1.562-1.188 1.914v.022c.55.165.836.692.99 1.661.176 1.012.318 1.639.429 1.87h-.858c-.109-.22-.253-.924-.396-1.826-.164-1.023-.483-1.397-1.209-1.397h-.33v3.224h-.848v-7.304zm.847 3.421h.352c.814 0 1.354-.594 1.354-1.485 0-.847-.353-1.386-1.266-1.396-.165 0-.33.011-.439.044v2.837zm4.08-2.266c-.275 0-.484-.221-.484-.551s.221-.55.495-.55c.308 0 .507.22.507.55s-.199.551-.507.551h-.011zm-.396 6.15v-5.325h.848v5.325h-.848zm5.236-.682c0 1.396-.176 1.925-.527 2.321-.33.352-.826.561-1.42.561-.451 0-.891-.11-1.166-.264l.198-.66c.209.109.562.23.979.23.671 0 1.089-.418 1.089-1.628v-.539h-.022c-.176.418-.572.649-1.012.649-.946 0-1.562-1.067-1.562-2.63 0-1.969.881-2.772 1.672-2.772.562 0 .826.374.99.683h.022l.044-.595h.76c-.012.363-.045.837-.045 1.662v2.982zm-.847-2.806c0-.144-.011-.275-.044-.396-.088-.352-.286-.803-.77-.803-.605 0-.936.825-.936 2.002 0 1.364.429 1.98.936 1.98.264 0 .594-.121.758-.759.056-.165.056-.33.056-.484v-1.54zm2.025-4.126h.847v2.86h.022c.109-.187.274-.352.45-.473.187-.121.407-.188.704-.188.672 0 1.243.528 1.243 1.882v3.531h-.847v-3.433c0-.66-.143-1.265-.715-1.265-.396 0-.693.285-.826.847a2.517 2.517 0 0 0-.032.396v3.454h-.847v-7.611zm5.422 1.045v1.243h1.023v.639h-1.023v3.168c0 .704.242.881.551.881.143 0 .252-.012.341-.033l.044.648a1.827 1.827 0 0 1-.627.089c-.342 0-.639-.089-.836-.319-.221-.242-.319-.605-.319-1.343v-3.091h-.649v-.639h.649v-.901l.846-.342zm6.094 6.437c-.187.109-.506.198-.88.198-1.166 0-1.947-.936-1.947-2.695 0-1.529.77-2.772 2.102-2.772.285 0 .594.076.748.176l-.166.682a1.376 1.376 0 0 0-.604-.143c-.858 0-1.232 1.012-1.232 2.058 0 1.243.474 1.991 1.255 1.991.22 0 .418-.044.604-.144l.12.649zm.726-7.482h.848v2.86h.021c.109-.187.275-.352.451-.473.187-.121.406-.188.703-.188.672 0 1.244.528 1.244 1.882v3.531h-.848v-3.433c0-.66-.143-1.265-.715-1.265-.396 0-.693.285-.825.847a2.403 2.403 0 0 0-.032.396v3.454h-.848v-7.611zm7.26 6.404c0 .407 0 .869.056 1.21h-.759l-.056-.562h-.032c-.231.407-.605.649-1.057.649-.715 0-1.266-.594-1.266-1.519 0-1.342 1.067-1.925 2.267-1.936v-.165c0-.716-.176-1.21-.847-1.21-.33 0-.627.099-.881.274l-.187-.594c.231-.165.715-.353 1.243-.353 1.066 0 1.518.704 1.518 1.893v2.313zm-.824-1.552c-.44 0-1.463.088-1.463 1.243 0 .704.352.946.648.946.374 0 .682-.274.781-.803.021-.1.033-.209.033-.309v-1.077zm2.023-1.188c0-.628-.033-.946-.044-1.376h.737l.043.639h.022a1.35 1.35 0 0 1 1.222-.727c.736 0 1.287.539 1.287 1.838v3.575h-.848v-3.433c0-.638-.121-1.265-.736-1.265-.353 0-.693.297-.793.869-.033.12-.043.285-.043.473v3.355h-.848v-3.948zm4.455 0c0-.628-.033-.946-.044-1.376h.737l.043.639h.022a1.35 1.35 0 0 1 1.222-.727c.736 0 1.287.539 1.287 1.838v3.575h-.848v-3.433c0-.638-.121-1.265-.736-1.265-.353 0-.693.297-.793.869-.033.12-.043.285-.043.473v3.355h-.848v-3.948zm5.049 1.365c.011 1.639.648 1.979 1.254 1.979.374 0 .671-.088.88-.197l.144.615c-.297.165-.748.254-1.178.254-1.266 0-1.925-1.034-1.925-2.674 0-1.728.726-2.806 1.793-2.806 1.078 0 1.519 1.145 1.519 2.344 0 .209-.012.352-.022.484h-2.465zm1.672-.628c.012-1.066-.385-1.54-.792-1.54-.55 0-.836.814-.869 1.54h1.661zm1.726-4.401h.848v7.613h-.848v-7.613z"/></svg>