<svg xmlns="http://www.w3.org/2000/svg" viewBox="0 0 339.448 195.203"><path fill="none" stroke="#000" d="M49.861 51.499V172.29" stroke-linecap="round" stroke-linejoin="round"/><path d="M46.86 171.415l2.992 5.181 2.991-5.181z"/><path fill="none" stroke="#000" d="M95.861 51.499V172.29" stroke-linecap="round" stroke-linejoin="round"/><path d="M92.86 171.415l2.992 5.181 2.991-5.181z"/><path fill="#ccc" d="M51.549 56.478v1.309L30.405 45.674v-1.307z"/><path fill="gray" d="M51.549 56.478l14.731-8.379v1.309l-14.731 8.381z"/><path fill="#fff" d="M30.405 44.369l14.709-8.43 21.166 12.16-14.731 8.379z"/><path fill="#999" d="M68.329 29.092l.988-.563-2.061 18.966-.99.563zm-14.95 24.103v.254L35.506 43.212v-.253z"/><path fill="#b3b3b3" d="M53.379 53.195l10.123-5.759v.254l-10.123 5.761z"/><path fill="#e6e6e6" d="M35.506 42.96l10.108-5.8 17.888 10.276-10.123 5.759zm2.571 5.477l2.902-1.666 5.135 2.95-2.906 1.654zm30.252-19.345l-2.063 18.965-21.144-12.113 2.06-18.964z"/><path fill="#0071bc" d="M65.424 46.602L45.965 35.455l2.061-17.02 19.459 11.146-2.061 17.021z"/><path fill="#b3b3b3" d="M47.182 16.981l.971-.611 21.164 12.159-.988.563z"/><path fill="none" stroke="#000" d="M67.256 47.495l2.061-18.966L48.153 16.37l-.969.61h-.002l-2.06 18.963-.008-.004-14.707 8.429-.002-.001v1.307l21.144 12.113v.002l14.731-8.381v-1.309l-.014-.042v.001z" stroke-linecap="round" stroke-linejoin="round"/><path fill="#b3b3b3" d="M92.49 31.718v29.233l-11.485-7.059V24.653z"/><path fill="#333" d="M90.361 32.636v3.49l-8.19-5.037v-3.492zm0 11.769v3.487l-8.19-5.038v-3.488z"/><path fill="#e6e6e6" d="M90.361 40.019v1.007l-8.19-5.035v-1.013z"/><path fill="#333" d="M90.361 49.36v3.487l-8.19-5.035v-3.491zm0 4.953v3.49l-8.19-5.038v-3.489z"/><path fill="gray" d="M92.484 31.735l18.203-11.482v29.236L92.484 60.971z"/><path fill="#999" d="M81.031 24.671l18.224-11.482 11.461 7.06-18.205 11.482z"/><path fill="#009245" d="M82.447 31.567c.18.105.318.365.318.582 0 .211-.141.303-.318.191a.744.744 0 0 1-.312-.582c-.001-.216.14-.298.312-.191"/><path fill="#c1272d" d="M83.216 32.042c.178.107.316.369.316.586 0 .211-.146.299-.318.191-.176-.105-.316-.367-.316-.582 0-.216.143-.304.318-.195"/><path fill="#009245" d="M83.984 32.507a.76.76 0 0 1 .316.582c0 .217-.145.303-.318.195-.178-.107-.316-.373-.316-.588 0-.211.14-.297.318-.189"/><path fill="#c1272d" d="M84.749 32.979c.176.107.315.367.315.584-.002.211-.143.299-.32.189-.172-.105-.314-.369-.314-.582-.001-.214.144-.302.319-.191m.776.475a.74.74 0 0 1 .316.584c0 .215-.141.303-.318.191a.755.755 0 0 1-.312-.582c0-.212.14-.3.314-.193"/><path fill="#009245" d="M86.293 33.933c.178.106.316.367.316.582 0 .215-.141.301-.318.193-.174-.105-.317-.367-.317-.584 0-.213.143-.303.319-.191m.767.461a.75.75 0 0 1 .314.584c0 .219-.142.303-.314.193-.178-.107-.318-.369-.318-.584 0-.213.142-.301.318-.193m.768.474c.172.105.312.365.312.582s-.141.299-.318.191a.742.742 0 0 1-.312-.582c-.001-.216.142-.304.318-.191"/><path fill="#c1272d" d="M82.447 32.702c.18.105.318.369.318.584 0 .213-.141.297-.318.193a.746.746 0 0 1-.312-.586c-.001-.214.14-.298.312-.191m.769.475c.178.109.316.369.316.586 0 .213-.146.303-.318.193-.176-.109-.316-.373-.316-.586 0-.215.143-.299.318-.193"/><path fill="#009245" d="M83.984 33.642c.172.103.316.373.316.582 0 .217-.145.303-.318.197-.178-.109-.316-.371-.316-.588 0-.213.14-.299.318-.191"/><path fill="#c1272d" d="M84.749 34.114c.176.105.315.367.315.584-.002.211-.143.299-.32.193a.774.774 0 0 1-.314-.584c-.001-.216.144-.304.319-.193"/><path fill="#009245" d="M85.525 34.589a.742.742 0 0 1 .316.582c0 .217-.141.305-.318.197-.172-.107-.312-.371-.312-.584 0-.215.14-.303.314-.195"/><path fill="#c1272d" d="M86.293 35.063c.178.107.316.375.316.586 0 .217-.141.301-.318.195a.758.758 0 0 1-.317-.584c0-.214.143-.302.319-.197"/><path fill="#009245" d="M87.06 35.528a.763.763 0 0 1 .314.586c0 .217-.142.303-.314.191-.178-.104-.318-.367-.318-.582 0-.214.142-.302.318-.195"/><path fill="#c1272d" d="M87.828 35.999a.766.766 0 0 1 .312.586c0 .217-.141.299-.318.195a.758.758 0 0 1-.312-.584c-.001-.218.142-.3.318-.197"/><path fill="#009245" d="M88.42 40.882c.178.107.32.367.32.586 0 .211-.145.299-.32.193a.762.762 0 0 1-.316-.586c-.001-.215.14-.301.316-.193m.769.463a.763.763 0 0 1 .312.586c0 .215-.141.299-.312.193a.742.742 0 0 1-.318-.584c0-.215.14-.299.318-.195"/><path fill="#c1272d" d="M89.953 41.817c.176.107.316.367.316.584 0 .211-.141.303-.318.193a.744.744 0 0 1-.314-.584c-.001-.214.142-.304.316-.193m-1.533.202c.178.105.32.367.32.586 0 .213-.145.299-.32.188-.178-.104-.316-.369-.316-.582-.001-.214.14-.304.316-.192m.769.462a.772.772 0 0 1 .312.582c0 .217-.141.305-.312.193-.18-.105-.318-.369-.318-.582 0-.216.14-.3.318-.193"/><path fill="#009245" d="M89.953 42.954c.176.103.316.365.316.582 0 .215-.141.303-.318.191a.731.731 0 0 1-.314-.582c-.001-.212.142-.3.316-.191"/><path fill="none" stroke="#000" d="M110.716 20.249l-11.463-7.06-18.222 11.482-.026-.018v29.239l11.479 7.059v.02l18.201-11.482V20.268z" stroke-linecap="round" stroke-linejoin="round"/><path fill="none" stroke="#000" d="M33.155 73.438h62.706m-62.706 40h62.706" stroke-dasharray="1 1"/><path fill="#fddfbb" fill-rule="evenodd" d="M40.286 78.366c0 1.979-1.62 3.6-3.6 3.6H6.98a3.61 3.61 0 0 1-3.6-3.6v-9.857c0-1.98 1.62-3.6 3.6-3.6h29.706c1.98 0 3.6 1.62 3.6 3.6v9.857z" clip-rule="evenodd"/><path fill="none" stroke="#000" d="M40.286 78.366c0 1.979-1.62 3.6-3.6 3.6H6.98a3.61 3.61 0 0 1-3.6-3.6v-9.857c0-1.98 1.62-3.6 3.6-3.6h29.706c1.98 0 3.6 1.62 3.6 3.6v9.857z" stroke-linecap="round" stroke-linejoin="round"/><path d="M58.734 8.37l-.61-1.619c-.14-.37-.27-.72-.42-1.18h-.03l-.4 1.2-.58 1.599h-.79l1.379-3.438-1.339-3.298h.799l.61 1.56c.12.31.24.629.39 1.069h.02c.16-.47.26-.77.37-1.1l.549-1.529h.78l-1.319 3.278 1.389 3.458h-.798zm2.31-6.736v2.889h1.889V1.634h.77V8.37h-.77V5.222h-1.889V8.37h-.77V1.634h.77zm3.861.099c.33-.09.729-.13 1.109-.13.67 0 1.169.141 1.519.48.33.34.47.789.47 1.319 0 .859-.399 1.419-1.079 1.738v.021c.5.149.759.63.899 1.509.16.92.29 1.489.39 1.699h-.779c-.1-.2-.23-.84-.36-1.659-.15-.93-.44-1.27-1.1-1.27h-.3v2.93h-.77V1.733zm.769 3.109h.32c.74 0 1.229-.539 1.229-1.349 0-.77-.32-1.26-1.149-1.27-.15 0-.3.01-.4.04v2.579zm4.821.2c0-.739-.03-1.169-.04-1.509h.689l.04.609h.02c.26-.51.65-.689 1.02-.689.85 0 1.399.89 1.399 2.488 0 1.799-.74 2.509-1.489 2.509-.46 0-.72-.28-.85-.55h-.02v2.389h-.77V5.042zm.77 1.56c0 .14.01.279.04.399.15.689.49.81.7.81.64 0 .849-.88.849-1.849 0-1.01-.24-1.85-.849-1.85-.35 0-.67.439-.71.88-.03.12-.03.239-.03.369v1.241zm4.589 1.848c-.87 0-1.569-.79-1.569-2.488 0-1.77.79-2.509 1.619-2.509.87 0 1.56.799 1.56 2.488 0 1.879-.86 2.509-1.599 2.509h-.011zm.04-.609c.66 0 .799-1.13.799-1.89 0-.749-.14-1.889-.819-1.889-.689 0-.819 1.14-.819 1.889 0 .8.14 1.89.829 1.89h.01zm2.431-6.387h.77V8.37h-.77V1.454zm1.909 0h.77V8.37h-.77V1.454zm2.27 1.329c-.25 0-.439-.2-.439-.5s.2-.499.45-.499c.28 0 .459.199.459.499s-.18.5-.459.5h-.011zm-.359 5.587V3.533h.77V8.37h-.77zm1.839-3.588c0-.569-.03-.859-.04-1.249h.67l.04.579h.02c.21-.39.6-.659 1.109-.659.669 0 1.169.489 1.169 1.669V8.37h-.77V5.252c0-.58-.11-1.149-.669-1.149-.32 0-.629.27-.72.789-.03.11-.04.261-.04.431V8.37h-.77V4.782zm6.969 2.968c0 1.27-.16 1.749-.479 2.109-.3.319-.75.51-1.29.51-.41 0-.81-.1-1.059-.24l.18-.6c.19.101.51.21.89.21.609 0 .989-.38.989-1.479v-.49h-.02c-.16.38-.52.59-.919.59-.859 0-1.419-.97-1.419-2.389 0-1.789.8-2.519 1.52-2.519.51 0 .75.34.899.619h.02l.04-.539h.689c-.01.329-.04.759-.04 1.509V7.75zm-.77-2.548c0-.13-.01-.25-.04-.36-.08-.319-.26-.729-.7-.729-.549 0-.849.75-.849 1.819 0 1.239.39 1.799.849 1.799.24 0 .54-.11.69-.689.05-.15.05-.3.05-.439V5.202zm91.42 2.278c.229.14.629.27.969.27.699 0 1.119-.459 1.119-1.139 0-.62-.359-1-.889-1.399-.529-.37-1.27-.999-1.27-1.869 0-1.02.72-1.769 1.779-1.769.42 0 .789.14.949.249l-.189.66a1.41 1.41 0 0 0-.801-.229c-.659 0-.969.499-.969.959 0 .67.35.939.989 1.39.81.569 1.169 1.189 1.169 1.938 0 1.159-.818 1.889-1.889 1.889-.459 0-.949-.149-1.139-.3l.172-.65zm3.609 0c.23.14.63.27.97.27.699 0 1.119-.459 1.119-1.139 0-.62-.36-1-.89-1.399-.529-.37-1.27-.999-1.27-1.869 0-1.02.721-1.769 1.779-1.769.42 0 .789.14.949.249l-.189.66a1.407 1.407 0 0 0-.8-.229c-.659 0-.97.499-.97.959 0 .67.35.939.99 1.39.809.569 1.169 1.189 1.169 1.938 0 1.159-.819 1.889-1.889 1.889-.46 0-.95-.149-1.14-.3l.172-.65zm6.219-2.308h-1.689V7.7h1.919v.67h-2.688V1.634h2.568v.67h-1.799v2.219h1.689v.649zM82.989 185.967v2.889h1.889v-2.889h.77v6.736h-.77v-3.148h-1.889v3.148h-.77v-6.736h.77zm4.65.69H86.41v-.689h3.229v.689H88.41v6.047h-.77v-6.047zm3.65 0H90.06v-.689h3.228v.689h-1.229v6.047h-.77v-6.047zm2.751-.59c.31-.079.67-.13 1.12-.13.62 0 1.149.15 1.499.49.32.319.49.81.49 1.399 0 .619-.15 1.039-.41 1.379-.36.5-.99.75-1.589.75-.13 0-.23 0-.34-.011v2.759h-.77v-6.636zm.769 3.238c.09.011.18.021.31.021.75 0 1.259-.5 1.259-1.449 0-.689-.28-1.31-1.14-1.31-.18 0-.33.021-.43.05v2.688zm4.72.07c0-.739-.03-1.169-.04-1.509h.689l.04.609h.02c.26-.51.65-.689 1.02-.689.85 0 1.399.89 1.399 2.488 0 1.799-.74 2.509-1.489 2.509-.46 0-.72-.28-.85-.55h-.02v2.389h-.77v-5.247zm.77 1.56c0 .14.01.279.04.399.15.689.49.81.7.81.64 0 .849-.88.849-1.849 0-1.01-.24-1.85-.849-1.85-.35 0-.67.439-.71.88-.03.12-.03.239-.03.369v1.241zm3.22-1.819c0-.41-.03-.89-.04-1.249h.689l.04.759h.02c.16-.459.57-.839 1.02-.839.06 0 .11 0 .16.01v.789c-.05-.01-.1-.01-.16-.01-.49 0-.85.45-.93 1.01-.02.13-.03.27-.03.439v2.679h-.77v-3.588zm3.71 3.668c-.87 0-1.569-.79-1.569-2.488 0-1.77.79-2.509 1.619-2.509.87 0 1.56.799 1.56 2.488 0 1.879-.86 2.509-1.599 2.509h-.011zm.04-.61c.66 0 .799-1.13.799-1.89 0-.749-.14-1.889-.819-1.889-.689 0-.819 1.14-.819 1.889 0 .8.14 1.89.829 1.89h.01zm3.369-5.437v1.13h.93v.579h-.93v2.879c0 .64.22.799.5.799.13 0 .23-.01.31-.029l.04.59c-.14.05-.32.079-.569.079-.31 0-.58-.079-.76-.289-.2-.221-.29-.55-.29-1.22v-2.809h-.589v-.579h.589v-.82l.769-.31zm2.89 6.047c-.87 0-1.569-.79-1.569-2.488 0-1.77.79-2.509 1.619-2.509.87 0 1.56.799 1.56 2.488 0 1.879-.86 2.509-1.599 2.509h-.011zm.04-.61c.66 0 .799-1.13.799-1.89 0-.749-.14-1.889-.819-1.889-.689 0-.819 1.14-.819 1.889 0 .8.14 1.89.829 1.89h.01zm4.79.409c-.17.101-.46.18-.8.18-1.059 0-1.769-.85-1.769-2.448 0-1.39.7-2.519 1.909-2.519.26 0 .54.07.68.16l-.15.619c-.1-.05-.3-.13-.55-.13-.779 0-1.119.92-1.119 1.869 0 1.129.43 1.809 1.139 1.809.2 0 .38-.04.55-.13l.11.59zm1.96.201c-.87 0-1.569-.79-1.569-2.488 0-1.77.79-2.509 1.619-2.509.87 0 1.56.799 1.56 2.488 0 1.879-.86 2.509-1.599 2.509h-.011zm.04-.61c.66 0 .799-1.13.799-1.89 0-.749-.14-1.889-.819-1.889-.689 0-.819 1.14-.819 1.889 0 .8.14 1.89.829 1.89h.01zm2.431-6.386h.77v6.916h-.77v-6.916zM286.397 8.37l-1.289-6.736h.789l.57 3.248c.15.85.25 1.6.34 2.429h.029c.091-.85.24-1.579.41-2.438l.62-3.238h.649l.63 3.168c.149.8.3 1.569.39 2.509h.029c.111-.97.23-1.709.351-2.469l.56-3.208h.76l-1.31 6.736h-.759l-.641-3.278c-.14-.71-.26-1.469-.35-2.209h-.02a24.64 24.64 0 0 1-.37 2.239l-.659 3.248h-.729zm5.761-2.349c.01 1.489.589 1.799 1.14 1.799.34 0 .609-.08.799-.18l.131.56c-.271.15-.68.229-1.07.229-1.148 0-1.749-.939-1.749-2.429 0-1.568.659-2.548 1.63-2.548.979 0 1.379 1.039 1.379 2.129 0 .189-.01.319-.02.439h-2.24zm1.519-.569c.01-.97-.35-1.399-.719-1.399-.5 0-.76.739-.79 1.399h1.509zm1.561-3.998h.77v2.648h.021c.25-.479.609-.649 1.02-.649.759 0 1.318.859 1.318 2.448 0 1.749-.719 2.549-1.459 2.549-.52 0-.779-.3-.959-.71h-.041l-.049.63h-.66c.01-.28.04-.829.04-1.149V1.454zm.77 5.217c0 .11.01.21.03.3.18.71.51.84.719.84.62 0 .84-.84.84-1.869 0-.97-.229-1.829-.85-1.829-.359 0-.649.439-.719.859-.011.11-.021.23-.021.34v1.359zm3.14.809c.229.14.63.27.97.27.699 0 1.119-.459 1.119-1.139 0-.62-.359-1-.89-1.399-.53-.37-1.269-.999-1.269-1.869 0-1.02.719-1.769 1.778-1.769.42 0 .79.14.95.249l-.19.66a1.41 1.41 0 0 0-.8-.229c-.66 0-.969.499-.969.959 0 .67.35.939.988 1.39.811.569 1.17 1.189 1.17 1.938 0 1.159-.819 1.889-1.889 1.889-.46 0-.949-.149-1.14-.3l.172-.65zm5.129.97c-.87 0-1.569-.79-1.569-2.488 0-1.77.789-2.509 1.619-2.509.869 0 1.56.799 1.56 2.488 0 1.879-.86 2.509-1.599 2.509h-.011zm.04-.609c.66 0 .799-1.13.799-1.89 0-.749-.139-1.889-.818-1.889-.689 0-.82 1.14-.82 1.889 0 .8.141 1.89.83 1.89h.009zm4.789.409c-.17.101-.459.18-.799.18-1.06 0-1.77-.85-1.77-2.448 0-1.39.699-2.519 1.909-2.519.26 0 .54.07.68.16l-.149.619a1.265 1.265 0 0 0-.551-.13c-.779 0-1.119.92-1.119 1.869 0 1.129.43 1.809 1.14 1.809.2 0 .38-.04.55-.13l.109.59zm1.421-2.469h.021c.09-.189.17-.38.26-.539l.959-1.709h.83l-1.279 2.038 1.398 2.799h-.859l-1.049-2.278-.28.449V8.37h-.77V1.454h.77v4.327zm3.171.24c.01 1.489.589 1.799 1.139 1.799.34 0 .609-.08.8-.18l.13.56c-.27.15-.68.229-1.07.229-1.148 0-1.748-.939-1.748-2.429 0-1.568.659-2.548 1.629-2.548.979 0 1.379 1.039 1.379 2.129 0 .189-.01.319-.02.439h-2.239zm1.519-.569c.01-.97-.351-1.399-.72-1.399-.5 0-.76.739-.789 1.399h1.509zm2.511-3.049v1.13h.93v.579h-.93v2.879c0 .64.22.799.5.799.129 0 .229-.01.309-.029l.041.59c-.141.05-.32.079-.57.079-.31 0-.58-.079-.76-.289-.199-.221-.289-.55-.289-1.22V4.112h-.59v-.579h.59v-.82l.769-.31zm-305.992 73.8c-.28.12-.77.229-1.189.229-.589 0-1.139-.159-1.589-.649-.49-.52-.819-1.449-.81-2.688.01-2.629 1.349-3.518 2.539-3.518.42 0 .75.08.95.189l-.17.66c-.18-.091-.41-.16-.77-.16-.84 0-1.749.67-1.749 2.758 0 2.079.79 2.749 1.599 2.749.26 0 .41-.04.47-.08v-2.198h-.87v-.641h1.589v3.349zm3.51-3.028h-1.689v2.528h1.919v.67h-2.688v-6.736h2.569v.67h-1.799v2.219h1.689v.649zm1.871-2.849h-1.229v-.689h3.228v.689h-1.229v6.047h-.77v-6.047zm3.801 6.446l2.149-7.216h.58l-2.149 7.216h-.58zm3.259-3.727c0-.739-.03-1.169-.04-1.509h.689l.04.609h.02c.26-.51.65-.689 1.02-.689.85 0 1.399.89 1.399 2.488 0 1.799-.74 2.509-1.489 2.509-.46 0-.72-.28-.85-.55h-.02v2.389h-.77v-5.247zm.77 1.559c0 .14.01.279.04.399.15.689.49.81.7.81.64 0 .849-.88.849-1.849 0-1.01-.24-1.85-.849-1.85-.35 0-.67.439-.71.88-.03.12-.03.239-.03.369v1.241zm4.59 1.849c-.87 0-1.569-.79-1.569-2.488 0-1.77.79-2.509 1.619-2.509.87 0 1.56.799 1.56 2.488 0 1.879-.86 2.509-1.599 2.509h-.011zm.04-.609c.66 0 .799-1.13.799-1.89 0-.749-.14-1.889-.819-1.889-.689 0-.819 1.14-.819 1.889 0 .8.14 1.89.829 1.89h.01zm2.43-6.387h.77v6.916h-.77v-6.916zm1.91 0h.77v6.916h-.77v-6.916z"/><path fill="#fddfbb" fill-rule="evenodd" d="M40.286 118.824c0 1.979-1.62 3.6-3.6 3.6H6.98a3.61 3.61 0 0 1-3.6-3.6v-9.857c0-1.98 1.62-3.6 3.6-3.6h29.706c1.98 0 3.6 1.62 3.6 3.6v9.857z" clip-rule="evenodd"/><path fill="none" stroke="#000" d="M40.286 118.824c0 1.979-1.62 3.6-3.6 3.6H6.98a3.61 3.61 0 0 1-3.6-3.6v-9.857c0-1.98 1.62-3.6 3.6-3.6h29.706c1.98 0 3.6 1.62 3.6 3.6v9.857z" stroke-linecap="round" stroke-linejoin="round"/><path d="M11.736 116.661c-.28.12-.77.229-1.189.229-.589 0-1.139-.159-1.589-.649-.49-.52-.819-1.449-.81-2.688.01-2.629 1.349-3.518 2.539-3.518.42 0 .75.08.95.189l-.17.66c-.18-.091-.41-.16-.77-.16-.84 0-1.749.67-1.749 2.758 0 2.079.79 2.749 1.599 2.749.26 0 .41-.04.47-.08v-2.198h-.87v-.641h1.589v3.349zm3.51-3.029h-1.689v2.528h1.919v.67h-2.688v-6.736h2.569v.67h-1.799v2.219h1.689v.649zm1.871-2.848h-1.229v-.689h3.228v.689h-1.229v6.047h-.77v-6.047zm3.801 6.446l2.149-7.216h.58l-2.149 7.216h-.58zm3.259-3.728c0-.739-.03-1.169-.04-1.509h.689l.04.609h.02c.26-.51.65-.689 1.02-.689.85 0 1.399.89 1.399 2.488 0 1.799-.74 2.509-1.489 2.509-.46 0-.72-.28-.85-.55h-.02v2.389h-.77v-5.247zm.77 1.56c0 .14.01.279.04.399.15.689.49.81.7.81.64 0 .849-.88.849-1.849 0-1.01-.24-1.85-.849-1.85-.35 0-.67.439-.71.88-.03.12-.03.239-.03.369v1.241zm4.59 1.849c-.87 0-1.569-.79-1.569-2.488 0-1.77.79-2.509 1.619-2.509.87 0 1.56.799 1.56 2.488 0 1.879-.86 2.509-1.599 2.509h-.011zm.04-.61c.66 0 .799-1.13.799-1.89 0-.749-.14-1.889-.819-1.889-.689 0-.819 1.14-.819 1.889 0 .8.14 1.89.829 1.89h.01zm2.43-6.386h.77v6.916h-.77v-6.916zm1.91 0h.77v6.916h-.77v-6.916z"/><path fill="none" stroke="#0071bc" d="M49.861 72.884l41.545 13.554" stroke-linecap="round" stroke-linejoin="round"/><path fill="#0071bc" d="M89.643 89.019l5.854-1.237-3.998-4.451z"/><path fill="none" stroke="#0071bc" d="M95.861 92.884l-40.482 12.804" stroke-linecap="round" stroke-linejoin="round"/><path fill="#0071bc" d="M55.309 102.562l-4.038 4.415 5.842 1.29z"/><path fill="none" stroke="#0071bc" d="M49.861 112.831l41.545 13.553" stroke-linecap="round" stroke-linejoin="round"/><path fill="#0071bc" d="M89.643 128.966l5.854-1.237-3.998-4.451z"/><path fill="none" stroke="#c1272d" d="M278.094 132.456l41.545 13.553" stroke-linecap="round" stroke-linejoin="round"/><path fill="#c1272d" d="M317.876 148.59l5.853-1.236-3.997-4.451z"/><path fill="none" stroke="#c1272d" d="M278.094 150.737l41.545 13.553" stroke-linecap="round" stroke-linejoin="round"/><path fill="#c1272d" d="M317.876 166.872l5.853-1.237-3.997-4.451z"/><path fill="none" stroke="#0071bc" d="M95.861 132.831l-40.482 12.803" stroke-linecap="round" stroke-linejoin="round"/><path fill="#0071bc" d="M55.309 142.509l-4.038 4.415 5.842 1.289z"/><path fill="none" stroke="#000" d="M163.76 51.499V172.29" stroke-linecap="round" stroke-linejoin="round"/><path d="M160.759 171.415l2.992 5.181 2.991-5.181z"/><path fill="none" stroke="#000" d="M209.761 51.499V172.29" stroke-linecap="round" stroke-linejoin="round"/><path d="M206.759 171.415l2.992 5.181 2.991-5.181z"/><path fill="#ccc" d="M165.449 56.478v1.309l-21.145-12.113v-1.307z"/><path fill="gray" d="M165.449 56.478l14.73-8.379v1.309l-14.73 8.381z"/><path fill="#fff" d="M144.304 44.369l14.709-8.43 21.166 12.16-14.73 8.379z"/><path fill="#999" d="M182.228 29.092l.988-.563-2.061 18.966-.99.563zm-14.949 24.103v.254l-17.873-10.237v-.253z"/><path fill="#b3b3b3" d="M167.279 53.195l10.122-5.759v.254l-10.122 5.761z"/><path fill="#e6e6e6" d="M149.406 42.96l10.107-5.8 17.888 10.276-10.122 5.759zm2.57 5.477l2.902-1.666 5.135 2.95-2.906 1.654zm30.252-19.345l-2.063 18.965-21.144-12.113 2.061-18.964z"/><path fill="#0071bc" d="M179.323 46.602l-19.458-11.147 2.06-17.02 19.459 11.146-2.061 17.021z"/><path fill="#b3b3b3" d="M161.082 16.981l.97-.611 21.164 12.159-.988.563z"/><path fill="none" stroke="#000" d="M181.155 47.495l2.061-18.966-21.164-12.159-.969.61h-.001l-2.061 18.963-.008-.004-14.707 8.429-.002-.001v1.307l21.145 12.113v.002l14.73-8.381v-1.309l-.014-.042v.001z" stroke-linecap="round" stroke-linejoin="round"/><path fill="#b3b3b3" d="M206.39 31.718v29.233l-11.485-7.059V24.653z"/><path fill="#333" d="M204.261 32.636v3.49l-8.19-5.037v-3.492zm0 11.769v3.487l-8.19-5.038v-3.488z"/><path fill="#e6e6e6" d="M204.261 40.019v1.007l-8.19-5.035v-1.013z"/><path fill="#333" d="M204.261 49.36v3.487l-8.19-5.035v-3.491zm0 4.953v3.49l-8.19-5.038v-3.489z"/><path fill="gray" d="M206.384 31.735l18.203-11.482v29.236l-18.203 11.482z"/><path fill="#999" d="M194.931 24.671l18.224-11.482 11.461 7.06-18.205 11.482z"/><path fill="#009245" d="M196.347 31.567c.18.105.318.365.318.582 0 .211-.141.303-.318.191a.744.744 0 0 1-.312-.582c-.001-.216.14-.298.312-.191"/><path fill="#c1272d" d="M197.116 32.042c.178.107.316.369.316.586 0 .211-.146.299-.318.191-.176-.105-.316-.367-.316-.582 0-.216.142-.304.318-.195"/><path fill="#009245" d="M197.884 32.507a.76.76 0 0 1 .316.582c0 .217-.145.303-.318.195-.178-.107-.316-.373-.316-.588-.001-.211.14-.297.318-.189"/><path fill="#c1272d" d="M198.649 32.979c.176.107.314.367.314.584-.002.211-.143.299-.32.189-.172-.105-.314-.369-.314-.582 0-.214.145-.302.32-.191m.776.475a.74.74 0 0 1 .316.584c0 .215-.141.303-.318.191a.755.755 0 0 1-.312-.582c-.001-.212.14-.3.314-.193"/><path fill="#009245" d="M200.192 33.933c.178.106.316.367.316.582 0 .215-.141.301-.318.193-.174-.105-.316-.367-.316-.584 0-.213.143-.303.318-.191m.768.461a.75.75 0 0 1 .314.584c0 .219-.143.303-.314.193-.178-.107-.318-.369-.318-.584 0-.213.142-.301.318-.193m.768.474c.172.105.312.365.312.582s-.141.299-.318.191a.742.742 0 0 1-.312-.582c-.001-.216.142-.304.318-.191"/><path fill="#c1272d" d="M196.347 32.702c.18.105.318.369.318.584 0 .213-.141.297-.318.193a.746.746 0 0 1-.312-.586c-.001-.214.14-.298.312-.191m.769.475c.178.109.316.369.316.586 0 .213-.146.303-.318.193-.176-.109-.316-.373-.316-.586 0-.215.142-.299.318-.193"/><path fill="#009245" d="M197.884 33.642c.172.103.316.373.316.582 0 .217-.145.303-.318.197-.178-.109-.316-.371-.316-.588-.001-.213.14-.299.318-.191"/><path fill="#c1272d" d="M198.649 34.114c.176.105.314.367.314.584-.002.211-.143.299-.32.193a.774.774 0 0 1-.314-.584c0-.216.145-.304.32-.193"/><path fill="#009245" d="M199.425 34.589a.742.742 0 0 1 .316.582c0 .217-.141.305-.318.197-.172-.107-.312-.371-.312-.584-.001-.215.14-.303.314-.195"/><path fill="#c1272d" d="M200.192 35.063c.178.107.316.375.316.586 0 .217-.141.301-.318.195a.757.757 0 0 1-.316-.584c0-.214.143-.302.318-.197"/><path fill="#009245" d="M200.96 35.528a.763.763 0 0 1 .314.586c0 .217-.143.303-.314.191-.178-.104-.318-.367-.318-.582 0-.214.142-.302.318-.195"/><path fill="#c1272d" d="M201.728 35.999a.766.766 0 0 1 .312.586c0 .217-.141.299-.318.195a.758.758 0 0 1-.312-.584c-.001-.218.142-.3.318-.197"/><path fill="#009245" d="M202.319 40.882c.178.107.32.367.32.586 0 .211-.145.299-.32.193a.762.762 0 0 1-.316-.586c0-.215.141-.301.316-.193m.77.463a.763.763 0 0 1 .312.586c0 .215-.141.299-.312.193a.742.742 0 0 1-.318-.584c-.001-.215.14-.299.318-.195"/><path fill="#c1272d" d="M203.853 41.817c.176.107.316.367.316.584 0 .211-.141.303-.318.193a.744.744 0 0 1-.314-.584c-.001-.214.142-.304.316-.193m-1.534.202c.178.105.32.367.32.586 0 .213-.145.299-.32.188-.178-.104-.316-.369-.316-.582 0-.214.141-.304.316-.192m.77.462a.772.772 0 0 1 .312.582c0 .217-.141.305-.312.193-.18-.105-.318-.369-.318-.582-.001-.216.14-.3.318-.193"/><path fill="#009245" d="M203.853 42.954c.176.103.316.365.316.582 0 .215-.141.303-.318.191a.731.731 0 0 1-.314-.582c-.001-.212.142-.3.316-.191"/><path fill="none" stroke="#000" d="M224.616 20.249l-11.463-7.06-18.222 11.482-.026-.018v29.239l11.479 7.059v.02l18.201-11.482V20.268z" stroke-linecap="round" stroke-linejoin="round"/><path fill="none" stroke="#000" d="M147.055 73.438h62.706" stroke-dasharray="1 1"/><path fill="#b2dec7" fill-rule="evenodd" d="M154.185 78.366c0 1.98-1.62 3.6-3.6 3.6h-29.706a3.61 3.61 0 0 1-3.6-3.6V68.51c0-1.98 1.62-3.6 3.6-3.6h29.706c1.98 0 3.6 1.62 3.6 3.6v9.856z" clip-rule="evenodd"/><path fill="none" stroke="#000" d="M154.185 78.366c0 1.98-1.62 3.6-3.6 3.6h-29.706a3.61 3.61 0 0 1-3.6-3.6V68.51c0-1.98 1.62-3.6 3.6-3.6h29.706c1.98 0 3.6 1.62 3.6 3.6v9.856z" stroke-linecap="round" stroke-linejoin="round"/><path d="M126.75 76.203c-.28.12-.77.229-1.189.229-.59 0-1.14-.159-1.589-.649-.49-.52-.819-1.449-.81-2.688.01-2.629 1.349-3.518 2.539-3.518.42 0 .75.08.95.189l-.17.66c-.18-.091-.41-.16-.77-.16-.84 0-1.75.67-1.75 2.758 0 2.079.79 2.749 1.6 2.749.26 0 .41-.04.47-.08v-2.198h-.87v-.641h1.589v3.349zm3.51-3.028h-1.689v2.528h1.919v.67h-2.688v-6.736h2.569v.67h-1.799v2.219h1.689v.649zm1.871-2.849h-1.229v-.689h3.229v.689h-1.229v6.047h-.77v-6.047zm3.801 6.446l2.149-7.216h.58l-2.149 7.216h-.58zm3.139-1.199c.17.11.47.25.78.25.43 0 .709-.27.709-.699 0-.37-.13-.63-.62-.95-.63-.409-.969-.829-.969-1.379 0-.789.58-1.339 1.329-1.339.38 0 .66.119.859.25l-.2.579c-.19-.13-.39-.22-.65-.22-.41 0-.62.3-.62.62 0 .319.12.509.6.829.56.359 1 .81 1 1.479 0 .969-.66 1.438-1.459 1.438-.35 0-.74-.109-.95-.279l.191-.579zm2.89 0c.17.11.47.25.78.25.43 0 .709-.27.709-.699 0-.37-.13-.63-.62-.95-.63-.409-.969-.829-.969-1.379 0-.789.58-1.339 1.329-1.339.38 0 .66.119.859.25l-.2.579c-.19-.13-.39-.22-.65-.22-.41 0-.62.3-.62.62 0 .319.12.509.6.829.56.359 1 .81 1 1.479 0 .969-.66 1.438-1.459 1.438-.35 0-.74-.109-.95-.279l.191-.579zm3.56-1.549c.01 1.489.589 1.799 1.139 1.799.34 0 .61-.08.8-.18l.13.56c-.27.15-.68.229-1.07.229-1.149 0-1.749-.939-1.749-2.429 0-1.568.66-2.548 1.629-2.548.979 0 1.379 1.039 1.379 2.129 0 .189-.01.319-.02.439h-2.238zm1.519-.569c.01-.97-.35-1.399-.72-1.399-.5 0-.759.739-.79 1.399h1.51z"/><path fill="none" stroke="#0071bc" d="M163.76 72.884l41.546 13.554" stroke-linecap="round" stroke-linejoin="round"/><path fill="#0071bc" d="M203.542 89.019l5.853-1.237-3.998-4.451z"/><path fill="none" stroke="#0071bc" d="M209.761 92.884l-40.482 12.804" stroke-linecap="round" stroke-linejoin="round"/><path fill="#0071bc" d="M169.208 102.562l-4.038 4.415 5.843 1.29z"/><path fill="none" stroke="#009245" d="M209.761 103.044l-40.482 12.804" stroke-linecap="round" stroke-linejoin="round"/><path fill="#009245" d="M169.208 112.723l-4.038 4.415 5.843 1.289z"/><path fill="none" stroke="#009245" d="M209.761 113.206l-40.482 12.803" stroke-linecap="round" stroke-linejoin="round"/><path fill="#009245" d="M169.208 122.884l-4.038 4.415 5.843 1.289z"/><path fill="none" stroke="#009245" d="M209.761 132.83l-40.482 12.804" stroke-linecap="round" stroke-linejoin="round"/><path fill="#009245" d="M169.208 142.509l-4.038 4.415 5.843 1.289z"/><path fill="none" stroke="#c1272d" d="M324.094 103.044l-40.482 12.804" stroke-linecap="round" stroke-linejoin="round"/><path fill="#c1272d" d="M283.542 112.723l-4.038 4.415 5.843 1.289z"/><path fill="none" stroke="#c1272d" d="M324.094 113.206l-40.482 12.803" stroke-linecap="round" stroke-linejoin="round"/><path fill="#c1272d" d="M283.542 122.884l-4.038 4.415 5.843 1.289z"/><path fill="none" stroke="#c1272d" d="M324.094 132.83l-40.482 12.804" stroke-linecap="round" stroke-linejoin="round"/><path fill="#c1272d" d="M283.542 142.509l-4.038 4.415 5.843 1.289z"/><path fill="none" stroke="#000" d="M278.094 51.499V172.29" stroke-linecap="round" stroke-linejoin="round"/><path d="M275.093 171.415l2.992 5.181 2.99-5.181z"/><path fill="none" stroke="#000" d="M324.095 51.499V172.29" stroke-linecap="round" stroke-linejoin="round"/><path d="M321.093 171.415l2.992 5.181 2.99-5.181z"/><path fill="#ccc" d="M279.782 56.478v1.309l-21.144-12.113v-1.307z"/><path fill="gray" d="M279.782 56.478l14.731-8.379v1.309l-14.731 8.381z"/><path fill="#fff" d="M258.638 44.369l14.709-8.43 21.166 12.16-14.731 8.379z"/><path fill="#999" d="M296.562 29.092l.988-.563-2.061 18.966-.99.563zm-14.95 24.103v.254l-17.873-10.237v-.253z"/><path fill="#b3b3b3" d="M281.612 53.195l10.123-5.759v.254l-10.123 5.761z"/><path fill="#e6e6e6" d="M263.739 42.96l10.108-5.8 17.888 10.276-10.123 5.759zm2.571 5.477l2.902-1.666 5.135 2.95-2.907 1.654zm30.252-19.345l-2.063 18.965-21.145-12.113 2.061-18.964z"/><path fill="#0071bc" d="M293.657 46.602l-19.459-11.147 2.061-17.02 19.459 11.146-2.061 17.021z"/><path fill="#b3b3b3" d="M275.415 16.981l.971-.611 21.164 12.159-.988.563z"/><path fill="none" stroke="#000" d="M295.489 47.495l2.061-18.966-21.164-12.159-.969.61h-.002l-2.061 18.963-.007-.004-14.707 8.429-.002-.001v1.307l21.144 12.113v.002l14.731-8.381v-1.309l-.014-.042v.001z" stroke-linecap="round" stroke-linejoin="round"/><path fill="#b3b3b3" d="M320.724 31.718v29.233l-11.485-7.059V24.653z"/><path fill="#333" d="M318.595 32.636v3.49l-8.19-5.037v-3.492zm0 11.769v3.487l-8.19-5.038v-3.488z"/><path fill="#e6e6e6" d="M318.595 40.019v1.007l-8.19-5.035v-1.013z"/><path fill="#333" d="M318.595 49.36v3.487l-8.19-5.035v-3.491zm0 4.953v3.49l-8.19-5.038v-3.489z"/><path fill="gray" d="M320.718 31.735l18.203-11.482v29.236l-18.203 11.482z"/><path fill="#999" d="M309.265 24.671l18.224-11.482 11.461 7.06-18.205 11.482z"/><path fill="#009245" d="M310.681 31.567c.18.105.318.365.318.582 0 .211-.141.303-.318.191a.744.744 0 0 1-.312-.582c-.001-.216.14-.298.312-.191"/><path fill="#c1272d" d="M311.45 32.042c.178.107.316.369.316.586 0 .211-.147.299-.318.191-.176-.105-.316-.367-.316-.582 0-.216.142-.304.318-.195"/><path fill="#009245" d="M312.218 32.507a.76.76 0 0 1 .316.582c0 .217-.145.303-.318.195-.178-.107-.316-.373-.316-.588-.001-.211.14-.297.318-.189"/><path fill="#c1272d" d="M312.983 32.979c.176.107.314.367.314.584-.002.211-.143.299-.32.189-.172-.105-.315-.369-.315-.582.001-.214.146-.302.321-.191m.776.475a.74.74 0 0 1 .316.584c0 .215-.141.303-.318.191a.755.755 0 0 1-.312-.582c-.001-.212.14-.3.314-.193"/><path fill="#009245" d="M314.526 33.933c.178.106.316.367.316.582 0 .215-.141.301-.318.193-.174-.105-.316-.367-.316-.584 0-.213.143-.303.318-.191m.768.461a.75.75 0 0 1 .314.584c0 .219-.143.303-.314.193-.178-.107-.318-.369-.318-.584 0-.213.142-.301.318-.193m.768.474c.172.105.312.365.312.582s-.141.299-.318.191a.742.742 0 0 1-.312-.582c-.001-.216.142-.304.318-.191"/><path fill="#c1272d" d="M310.681 32.702c.18.105.318.369.318.584 0 .213-.141.297-.318.193a.746.746 0 0 1-.312-.586c-.001-.214.14-.298.312-.191m.769.475c.178.109.316.369.316.586 0 .213-.147.303-.318.193-.176-.109-.316-.373-.316-.586 0-.215.142-.299.318-.193"/><path fill="#009245" d="M312.218 33.642c.172.103.316.373.316.582 0 .217-.145.303-.318.197-.178-.109-.316-.371-.316-.588-.001-.213.14-.299.318-.191"/><path fill="#c1272d" d="M312.983 34.114c.176.105.314.367.314.584-.002.211-.143.299-.32.193a.775.775 0 0 1-.315-.584c.001-.216.146-.304.321-.193"/><path fill="#009245" d="M313.759 34.589a.742.742 0 0 1 .316.582c0 .217-.141.305-.318.197-.172-.107-.312-.371-.312-.584-.001-.215.14-.303.314-.195"/><path fill="#c1272d" d="M314.526 35.063c.178.107.316.375.316.586 0 .217-.141.301-.318.195a.757.757 0 0 1-.316-.584c0-.214.143-.302.318-.197"/><path fill="#009245" d="M315.294 35.528a.763.763 0 0 1 .314.586c0 .217-.143.303-.314.191-.178-.104-.318-.367-.318-.582 0-.214.142-.302.318-.195"/><path fill="#c1272d" d="M316.062 35.999a.766.766 0 0 1 .312.586c0 .217-.141.299-.318.195a.758.758 0 0 1-.312-.584c-.001-.218.142-.3.318-.197"/><path fill="#009245" d="M316.653 40.882c.178.107.32.367.32.586 0 .211-.145.299-.32.193a.762.762 0 0 1-.316-.586c0-.215.141-.301.316-.193m.77.463a.763.763 0 0 1 .312.586c0 .215-.141.299-.312.193a.742.742 0 0 1-.318-.584c-.001-.215.14-.299.318-.195"/><path fill="#c1272d" d="M318.187 41.817c.176.107.316.367.316.584 0 .211-.141.303-.318.193a.748.748 0 0 1-.315-.584c0-.214.143-.304.317-.193m-1.534.202c.178.105.32.367.32.586 0 .213-.145.299-.32.188-.178-.104-.316-.369-.316-.582 0-.214.141-.304.316-.192m.77.462a.772.772 0 0 1 .312.582c0 .217-.141.305-.312.193-.18-.105-.318-.369-.318-.582-.001-.216.14-.3.318-.193"/><path fill="#009245" d="M318.187 42.954c.176.103.316.365.316.582 0 .215-.141.303-.318.191a.735.735 0 0 1-.315-.582c0-.212.143-.3.317-.191"/><path fill="none" stroke="#000" d="M338.95 20.249l-11.463-7.06-18.222 11.482-.026-.018v29.239l11.479 7.059v.02l18.201-11.482V20.268z" stroke-linecap="round" stroke-linejoin="round"/><path fill="none" stroke="#000" d="M261.388 73.438h62.707" stroke-dasharray="1 1"/><path fill="#ecbec0" fill-rule="evenodd" d="M268.519 78.366c0 1.98-1.62 3.6-3.6 3.6h-29.707a3.61 3.61 0 0 1-3.6-3.6V68.51c0-1.98 1.62-3.6 3.6-3.6h29.707c1.979 0 3.6 1.62 3.6 3.6v9.856z" clip-rule="evenodd"/><path fill="none" stroke="#000" d="M268.519 78.366c0 1.98-1.62 3.6-3.6 3.6h-29.707a3.61 3.61 0 0 1-3.6-3.6V68.51c0-1.98 1.62-3.6 3.6-3.6h29.707c1.979 0 3.6 1.62 3.6 3.6v9.856z" stroke-linecap="round" stroke-linejoin="round"/><path d="M241.514 76.203c-.28.12-.77.229-1.189.229-.589 0-1.14-.159-1.589-.649-.49-.52-.819-1.449-.81-2.688.01-2.629 1.349-3.518 2.538-3.518.42 0 .75.08.95.189l-.17.66c-.181-.091-.41-.16-.77-.16-.84 0-1.749.67-1.749 2.758 0 2.079.789 2.749 1.599 2.749.261 0 .41-.04.47-.08v-2.198h-.869v-.641h1.589v3.349zm3.51-3.028h-1.689v2.528h1.919v.67h-2.688v-6.736h2.568v.67h-1.799v2.219h1.689v.649zm1.872-2.849h-1.229v-.689h3.228v.689h-1.229v6.047h-.77v-6.047zm3.8 6.446l2.148-7.216h.58l-2.149 7.216h-.579zm3.659-5.236l.471 2.368c.1.52.199 1.039.26 1.539h.039c.07-.5.19-1.06.301-1.519l.559-2.389h.59l.53 2.318c.12.54.229 1.05.31 1.589h.04c.06-.51.149-1.009.26-1.559l.46-2.349h.77l-1.219 4.837h-.631l-.559-2.349a13.4 13.4 0 0 1-.271-1.449h-.021c-.08.569-.17 1.02-.279 1.479l-.58 2.318h-.649l-1.179-4.837h.798zm5.14 4.037c.17.11.47.25.779.25.43 0 .71-.27.71-.699 0-.37-.13-.63-.62-.95-.629-.409-.969-.829-.969-1.379 0-.789.58-1.339 1.329-1.339.38 0 .659.119.859.25l-.2.579a1.1 1.1 0 0 0-.649-.22c-.409 0-.62.3-.62.62 0 .319.121.509.6.829.561.359 1 .81 1 1.479 0 .969-.66 1.438-1.459 1.438-.35 0-.74-.109-.949-.279l.189-.579z"/><path fill="none" stroke="#0071bc" d="M278.094 72.884l41.546 13.554" stroke-linecap="round" stroke-linejoin="round"/><path fill="#0071bc" d="M317.876 89.019l5.853-1.237-3.997-4.451z"/><path fill="none" stroke="#0071bc" d="M324.095 92.884l-40.483 12.804" stroke-linecap="round" stroke-linejoin="round"/><path fill="#0071bc" d="M283.542 102.562l-4.038 4.415 5.843 1.29z"/><path fill="none" stroke="#0071bc" d="M62.379 188.999h11.129" stroke-linecap="round" stroke-linejoin="round"/><path fill="#0071bc" d="M72.632 192.001l5.182-2.992-5.182-2.992z"/><path d="M157.135 189.505h-1.689v2.528h1.919v.67h-2.688v-6.736h2.569v.67h-1.799v2.219h1.689v.649zm1.272-1.638l.609 2.718c.07.33.15.76.21 1.18h.03c.05-.399.13-.81.2-1.18l.6-2.718h.76l-1.27 4.837h-.68l-1.259-4.837h.8zm3.49 2.488c.01 1.489.589 1.799 1.139 1.799.34 0 .61-.08.8-.18l.13.56c-.27.15-.68.229-1.069.229-1.149 0-1.75-.939-1.75-2.429 0-1.568.66-2.548 1.629-2.548.979 0 1.379 1.039 1.379 2.129 0 .189-.01.319-.02.439h-2.238zm1.519-.569c.01-.97-.35-1.399-.72-1.399-.5 0-.76.739-.79 1.399h1.51zm1.57-.67c0-.569-.03-.859-.04-1.249h.67l.04.579h.02c.21-.39.6-.659 1.109-.659.669 0 1.169.489 1.169 1.669v3.248h-.77v-3.118c0-.58-.11-1.149-.669-1.149-.32 0-.629.27-.72.789-.03.11-.04.261-.04.431v3.048h-.77v-3.589zm4.93-2.379v1.13h.93v.579h-.93v2.879c0 .64.22.799.5.799.13 0 .23-.01.31-.029l.04.59c-.14.05-.32.079-.57.079-.31 0-.58-.079-.759-.289-.2-.221-.29-.55-.29-1.22v-2.809h-.589v-.579h.589v-.82l.769-.31zm1.521 5.077c.23.14.63.27.97.27.699 0 1.119-.459 1.119-1.139 0-.62-.36-1-.89-1.399-.53-.37-1.269-.999-1.269-1.869 0-1.02.72-1.769 1.779-1.769.42 0 .789.14.949.249l-.189.66a1.407 1.407 0 0 0-.8-.229c-.66 0-.969.499-.969.959 0 .67.35.939.989 1.39.809.569 1.169 1.189 1.169 1.938 0 1.159-.819 1.889-1.889 1.889-.46 0-.95-.149-1.14-.3l.171-.65zm5.128.97c-.869 0-1.569-.79-1.569-2.488 0-1.77.79-2.509 1.619-2.509.87 0 1.56.799 1.56 2.488 0 1.879-.859 2.509-1.6 2.509h-.01zm.04-.61c.659 0 .8-1.13.8-1.89 0-.749-.141-1.889-.82-1.889-.689 0-.818 1.14-.818 1.889 0 .8.139 1.89.828 1.89h.01zm5.33-.79c0 .529.03.96.04 1.319h-.669l-.061-.51h-.02c-.141.24-.51.59-1.029.59-.84 0-1.18-.66-1.18-1.859v-3.058h.77v2.948c0 .749.119 1.319.649 1.319.45 0 .649-.42.689-.65.03-.13.04-.27.04-.43v-3.188h.77v3.519zm1.072-2.268c0-.41-.031-.89-.041-1.249h.689l.041.759h.02c.16-.459.57-.839 1.02-.839.061 0 .109 0 .16.01v.789c-.051-.01-.1-.01-.16-.01-.49 0-.85.45-.93 1.01-.02.13-.029.27-.029.439v2.679h-.77v-3.588zm4.708 3.467c-.17.101-.46.18-.8.18-1.059 0-1.77-.85-1.77-2.448 0-1.39.7-2.519 1.91-2.519.26 0 .539.07.68.16l-.15.619c-.1-.05-.3-.13-.55-.13-.78 0-1.119.92-1.119 1.869 0 1.129.43 1.809 1.14 1.809.199 0 .379-.04.549-.13l.11.59zm1.141-2.228c.01 1.489.589 1.799 1.139 1.799.34 0 .609-.08.8-.18l.13.56c-.27.15-.68.229-1.07.229-1.148 0-1.748-.939-1.748-2.429 0-1.568.659-2.548 1.629-2.548.979 0 1.379 1.039 1.379 2.129 0 .189-.01.319-.02.439h-2.239zm1.519-.569c.01-.97-.351-1.399-.72-1.399-.5 0-.76.739-.789 1.399h1.509zm3.132-.411c0-.739-.031-1.169-.041-1.509h.689l.041.609h.02c.26-.51.65-.689 1.02-.689.85 0 1.399.89 1.399 2.488 0 1.799-.739 2.509-1.489 2.509-.46 0-.72-.28-.85-.55h-.02v2.389h-.77v-5.247zm.769 1.56c0 .14.01.279.039.399.15.689.49.81.7.81.64 0 .849-.88.849-1.849 0-1.01-.239-1.85-.849-1.85-.351 0-.67.439-.71.88-.029.12-.029.239-.029.369v1.241zm3.22-1.819c0-.41-.03-.89-.04-1.249h.689l.04.759h.021c.16-.459.569-.839 1.02-.839.06 0 .109 0 .159.01v.789c-.05-.01-.1-.01-.159-.01-.49 0-.85.45-.93 1.01-.021.13-.03.27-.03.439v2.679h-.77v-3.588zm3.709 3.668c-.87 0-1.569-.79-1.569-2.488 0-1.77.789-2.509 1.619-2.509.869 0 1.56.799 1.56 2.488 0 1.879-.86 2.509-1.599 2.509h-.011zm.04-.61c.66 0 .799-1.13.799-1.89 0-.749-.139-1.889-.818-1.889-.689 0-.82 1.14-.82 1.889 0 .8.141 1.89.83 1.89h.009zm3.37-5.437v1.13h.93v.579h-.93v2.879c0 .64.22.799.5.799.13 0 .229-.01.31-.029l.04.59c-.14.05-.319.079-.569.079-.311 0-.58-.079-.76-.289-.199-.221-.29-.55-.29-1.22v-2.809h-.589v-.579h.589v-.82l.769-.31zm2.89 6.047c-.869 0-1.569-.79-1.569-2.488 0-1.77.79-2.509 1.619-2.509.87 0 1.56.799 1.56 2.488 0 1.879-.859 2.509-1.6 2.509h-.01zm.04-.61c.659 0 .8-1.13.8-1.89 0-.749-.141-1.889-.82-1.889-.689 0-.818 1.14-.818 1.889 0 .8.139 1.89.828 1.89h.01zm4.79.409c-.17.101-.461.18-.801.18-1.059 0-1.769-.85-1.769-2.448 0-1.39.7-2.519 1.909-2.519.26 0 .539.07.68.16l-.15.619a1.25 1.25 0 0 0-.549-.13c-.779 0-1.119.92-1.119 1.869 0 1.129.43 1.809 1.139 1.809.199 0 .38-.04.55-.13l.11.59zm1.96.201c-.87 0-1.569-.79-1.569-2.488 0-1.77.789-2.509 1.619-2.509.869 0 1.56.799 1.56 2.488 0 1.879-.86 2.509-1.599 2.509h-.011zm.04-.61c.66 0 .799-1.13.799-1.89 0-.749-.139-1.889-.818-1.889-.689 0-.82 1.14-.82 1.889 0 .8.141 1.89.83 1.89h.009zm2.431-6.386h.77v6.916h-.77v-6.916z"/><path fill="none" stroke="#009245" d="M134.837 188.999h11.128" stroke-linecap="round" stroke-linejoin="round"/><path fill="#009245" d="M145.089 192.001l5.182-2.992-5.182-2.992z"/><path d="M249.869 192.704l-1.29-6.736h.79l.569 3.248c.15.85.25 1.6.34 2.429h.03c.091-.85.24-1.579.41-2.438l.62-3.238h.648l.631 3.168c.149.8.299 1.569.389 2.509h.03c.11-.97.229-1.709.351-2.469l.559-3.208h.76l-1.309 6.736h-.76l-.64-3.278a30.84 30.84 0 0 1-.351-2.209h-.02c-.09.76-.209 1.489-.369 2.239l-.66 3.248h-.728zm5.761-2.349c.01 1.489.589 1.799 1.139 1.799.34 0 .609-.08.8-.18l.13.56c-.27.15-.68.229-1.07.229-1.148 0-1.748-.939-1.748-2.429 0-1.568.659-2.548 1.629-2.548.979 0 1.379 1.039 1.379 2.129 0 .189-.01.319-.02.439h-2.239zm1.518-.569c.01-.97-.351-1.399-.72-1.399-.5 0-.76.739-.789 1.399h1.509zm1.562-3.998h.77v2.648h.02c.25-.479.609-.649 1.02-.649.76 0 1.319.859 1.319 2.448 0 1.749-.72 2.549-1.46 2.549-.52 0-.779-.3-.959-.71h-.04l-.05.63h-.66c.01-.28.041-.829.041-1.149v-5.767zm.77 5.216c0 .11.01.21.029.3.18.71.51.84.72.84.62 0 .839-.84.839-1.869 0-.97-.229-1.829-.849-1.829-.36 0-.649.439-.72.859-.01.11-.02.23-.02.34v1.359zm3.14.81c.229.14.629.27.969.27.699 0 1.119-.459 1.119-1.139 0-.62-.359-1-.889-1.399-.529-.37-1.27-.999-1.27-1.869 0-1.02.72-1.769 1.779-1.769.42 0 .789.14.949.249l-.189.66a1.41 1.41 0 0 0-.801-.229c-.659 0-.969.499-.969.959 0 .67.35.939.989 1.39.81.569 1.169 1.189 1.169 1.938 0 1.159-.818 1.889-1.889 1.889-.459 0-.949-.149-1.139-.3l.172-.65zm5.129.97c-.87 0-1.57-.79-1.57-2.488 0-1.77.791-2.509 1.619-2.509.87 0 1.561.799 1.561 2.488 0 1.879-.86 2.509-1.6 2.509h-.01zm.039-.61c.66 0 .8-1.13.8-1.89 0-.749-.14-1.889-.819-1.889-.689 0-.819 1.14-.819 1.889 0 .8.14 1.89.829 1.89h.009zm4.79.409c-.17.101-.46.18-.8.18-1.059 0-1.77-.85-1.77-2.448 0-1.39.7-2.519 1.91-2.519.26 0 .539.07.68.16l-.15.619c-.1-.05-.3-.13-.55-.13-.78 0-1.119.92-1.119 1.869 0 1.129.43 1.809 1.14 1.809.199 0 .379-.04.549-.13l.11.59zm1.421-2.468h.02c.09-.189.17-.38.26-.539l.959-1.709h.83l-1.279 2.038 1.399 2.799h-.86l-1.049-2.278-.279.449v1.829h-.77v-6.916h.77v4.327zm3.17.24c.01 1.489.59 1.799 1.139 1.799.34 0 .61-.08.801-.18l.129.56c-.27.15-.68.229-1.068.229-1.15 0-1.75-.939-1.75-2.429 0-1.568.66-2.548 1.629-2.548.98 0 1.38 1.039 1.38 2.129 0 .189-.011.319-.021.439h-2.239zm1.52-.569c.01-.97-.351-1.399-.721-1.399-.499 0-.76.739-.789 1.399h1.51zm2.509-3.049v1.13h.93v.579h-.93v2.879c0 .64.221.799.5.799.13 0 .23-.01.31-.029l.04.59c-.14.05-.32.079-.57.079-.309 0-.579-.079-.759-.289-.2-.221-.29-.55-.29-1.22v-2.809h-.59v-.579h.59v-.82l.769-.31zm3.17 2.638c0-.739-.029-1.169-.039-1.509h.689l.039.609h.021c.26-.51.649-.689 1.02-.689.85 0 1.399.89 1.399 2.488 0 1.799-.74 2.509-1.489 2.509-.46 0-.72-.28-.85-.55h-.021v2.389h-.77v-5.247zm.77 1.56c0 .14.01.279.041.399.149.689.489.81.699.81.64 0 .85-.88.85-1.849 0-1.01-.24-1.85-.85-1.85-.35 0-.67.439-.71.88-.03.12-.03.239-.03.369v1.241zm3.22-1.819c0-.41-.029-.89-.039-1.249h.689l.039.759h.021c.16-.459.569-.839 1.02-.839.06 0 .11 0 .159.01v.789c-.049-.01-.1-.01-.159-.01-.489 0-.85.45-.93 1.01-.021.13-.03.27-.03.439v2.679h-.77v-3.588zm3.709 3.668c-.869 0-1.568-.79-1.568-2.488 0-1.77.789-2.509 1.619-2.509.869 0 1.559.799 1.559 2.488 0 1.879-.859 2.509-1.599 2.509h-.011zm.041-.61c.659 0 .799-1.13.799-1.89 0-.749-.14-1.889-.819-1.889-.689 0-.819 1.14-.819 1.889 0 .8.14 1.89.829 1.89h.01zm3.37-5.437v1.13h.93v.579h-.93v2.879c0 .64.221.799.5.799.13 0 .23-.01.31-.029l.04.59c-.14.05-.32.079-.57.079-.309 0-.579-.079-.759-.289-.2-.221-.29-.55-.29-1.22v-2.809h-.59v-.579h.59v-.82l.769-.31zm2.89 6.047c-.87 0-1.57-.79-1.57-2.488 0-1.77.791-2.509 1.619-2.509.87 0 1.561.799 1.561 2.488 0 1.879-.86 2.509-1.6 2.509h-.01zm.039-.61c.66 0 .8-1.13.8-1.89 0-.749-.14-1.889-.819-1.889-.689 0-.819 1.14-.819 1.889 0 .8.14 1.89.829 1.89h.009zm4.79.409c-.17.101-.46.18-.8.18-1.059 0-1.77-.85-1.77-2.448 0-1.39.7-2.519 1.91-2.519.26 0 .539.07.68.16l-.15.619c-.1-.05-.3-.13-.55-.13-.78 0-1.119.92-1.119 1.869 0 1.129.43 1.809 1.14 1.809.199 0 .379-.04.549-.13l.11.59zm1.96.201c-.869 0-1.568-.79-1.568-2.488 0-1.77.789-2.509 1.619-2.509.869 0 1.559.799 1.559 2.488 0 1.879-.859 2.509-1.599 2.509h-.011zm.041-.61c.659 0 .799-1.13.799-1.89 0-.749-.14-1.889-.819-1.889-.689 0-.819 1.14-.819 1.889 0 .8.14 1.89.829 1.89h.01zm2.43-6.386h.77v6.916h-.77v-6.916z"/><path fill="none" stroke="#c1272d" d="M229.14 188.999h11.128" stroke-linecap="round" stroke-linejoin="round"/><path fill="#c1272d" d="M239.393 192.001l5.18-2.992-5.18-2.992z"/></svg>