<svg xmlns="http://www.w3.org/2000/svg" viewBox="0 0 309.123 157.217"><path fill="#fff" fill-rule="evenodd" d="M3.38 86.437h297.912v64.313H3.38z" clip-rule="evenodd"/><path fill="none" stroke="#000" d="M3.38 86.437h297.912v64.313H3.38z" stroke-linecap="round" stroke-linejoin="round"/><path fill="#ccc" fill-rule="evenodd" d="M189.685 118.817c0 1.98-1.62 3.6-3.6 3.6h-102.3a3.61 3.61 0 0 1-3.6-3.6v-22.8c0-1.98 1.62-3.6 3.6-3.6h102.3c1.979 0 3.6 1.62 3.6 3.6v22.8z" clip-rule="evenodd"/><path fill="none" stroke="#000" d="M189.685 118.817c0 1.98-1.62 3.6-3.6 3.6h-102.3a3.61 3.61 0 0 1-3.6-3.6v-22.8c0-1.98 1.62-3.6 3.6-3.6h102.3c1.979 0 3.6 1.62 3.6 3.6v22.8zM134.935.5v19.852" stroke-linecap="round" stroke-linejoin="round"/><path d="M131.934 19.476l2.992 5.182 2.991-5.182z"/><path fill="none" stroke="#000" d="M263.486.5v19.852" stroke-linecap="round" stroke-linejoin="round"/><path d="M260.485 19.476l2.992 5.182 2.992-5.182z"/><circle cx="92.435" cy="108.396" r="6.934" fill="#ecbec0" fill-rule="evenodd" stroke="#000" clip-rule="evenodd" stroke-linecap="round" stroke-linejoin="round"/><path d="M91.966 106.216h-.02l-1.104.552-.263-1.207 1.532-.777 1.37-.015.07 6.5-1.53.017-.055-5.07z"/><circle cx="109.435" cy="108.396" r="6.934" fill="#ecbec0" fill-rule="evenodd" stroke="#000" clip-rule="evenodd" stroke-linecap="round" stroke-linejoin="round"/><path d="M107.481 111.303l-.011-1.05.681-.868c.217-.269.413-.521.587-.756s.325-.459.453-.67c.128-.211.226-.416.293-.613.068-.198.101-.396.099-.597a.775.775 0 0 0-.211-.548c-.139-.145-.334-.216-.587-.213-.193.002-.373.035-.539.101s-.315.138-.447.22l-.263-1.198a2.92 2.92 0 0 1 .657-.276c.272-.083.558-.126.858-.129.393-.004.721.051.982.164.261.114.471.262.63.443.158.182.271.387.337.617.065.229.099.457.102.684.003.307-.037.592-.12.857a3.95 3.95 0 0 1-.327.753 4.485 4.485 0 0 1-.463.67c-.174.209-.351.41-.528.605l-.366.405v.02l1.91-.021.015 1.36-3.742.04z"/><circle cx="126.435" cy="108.396" r="6.934" fill="#ecbec0" fill-rule="evenodd" stroke="#000" clip-rule="evenodd" stroke-linecap="round" stroke-linejoin="round"/><path d="M124.676 109.88c.141.079.3.139.477.18.177.042.346.062.505.06.313-.003.546-.084.698-.243a.768.768 0 0 0 .224-.557.818.818 0 0 0-.105-.419.81.81 0 0 0-.268-.272 1.209 1.209 0 0 0-.376-.15 1.81 1.81 0 0 0-.44-.046l-.18.002-.012-1.12.12-.001a1.99 1.99 0 0 0 .37-.039c.126-.024.241-.064.344-.119a.715.715 0 0 0 .248-.213.561.561 0 0 0 .091-.341.602.602 0 0 0-.195-.463c-.127-.116-.302-.172-.522-.17a1.552 1.552 0 0 0-.817.239l-.192-1.158c.139-.088.338-.167.598-.237.259-.069.528-.105.809-.108.307-.003.579.039.814.126s.431.204.583.349.268.313.348.506c.08.193.12.393.123.599.003.327-.078.615-.243.863a1.659 1.659 0 0 1-.669.578v.02c.33.117.599.314.806.592.208.277.313.62.318 1.026.002.24-.043.479-.138.717a1.83 1.83 0 0 1-.436.64 2.345 2.345 0 0 1-.724.463c-.287.119-.62.182-1 .186-.287.003-.544-.022-.771-.077s-.415-.118-.562-.189l.174-1.224z"/><circle cx="143.435" cy="108.396" r="6.934" fill="#ecbec0" fill-rule="evenodd" stroke="#000" clip-rule="evenodd" stroke-linecap="round" stroke-linejoin="round"/><path d="M143.611 111.28l-.016-1.45-2.26.024-.012-1.06 2.087-4.013 1.49-.016.042 3.82.619-.007.013 1.229-.619.007.016 1.45-1.36.016zm-.029-2.68l-.012-1.11a5.33 5.33 0 0 1 .02-.491l.04-.49h-.03a11.811 11.811 0 0 1-.41.924l-.588 1.156v.021l.98-.01z"/><circle cx="160.435" cy="108.396" r="6.934" fill="#ecbec0" fill-rule="evenodd" stroke="#000" clip-rule="evenodd" stroke-linecap="round" stroke-linejoin="round"/><path d="M162.005 106.104l-1.71.019-.09.931.18-.002c.06 0 .14.009.24.028.1.019.207.045.321.082a1.937 1.937 0 0 1 .663.367c.384.355.579.852.586 1.491.003.312-.045.609-.145.89a2.137 2.137 0 0 1-1.197 1.26 2.6 2.6 0 0 1-1.022.2c-.247.003-.487-.02-.721-.067s-.417-.104-.552-.169l.197-1.222c.134.058.281.106.441.145.161.038.328.057.501.055.32-.003.564-.091.732-.263.168-.173.251-.398.248-.679a.985.985 0 0 0-.121-.499.902.902 0 0 0-.313-.316 1.345 1.345 0 0 0-.442-.165 2.609 2.609 0 0 0-.516-.045l-.23.002c-.073 0-.146.008-.219.022l.303-3.374 2.85-.031.016 1.34z"/><circle cx="177.435" cy="108.396" r="6.934" fill="#ecbec0" fill-rule="evenodd" stroke="#000" clip-rule="evenodd" stroke-linecap="round" stroke-linejoin="round"/><path d="M178.914 105.927l-.275.028c-.096.01-.194.027-.295.048-.386.077-.686.25-.898.516a2.284 2.284 0 0 0-.445.962h.04c.112-.14.247-.253.406-.34.159-.088.342-.133.549-.135.22-.002.424.043.611.138s.348.229.479.404c.132.175.235.384.312.63.076.245.115.521.119.827.003.273-.033.549-.106.83s-.189.532-.347.758a1.785 1.785 0 0 1-1.491.769 1.972 1.972 0 0 1-.867-.176 1.79 1.79 0 0 1-.661-.527 2.62 2.62 0 0 1-.429-.846 3.895 3.895 0 0 1-.162-1.128 5.397 5.397 0 0 1 .078-1.021c.058-.307.138-.588.241-.843a3.545 3.545 0 0 1 .807-1.219 2.87 2.87 0 0 1 .764-.538 3.59 3.59 0 0 1 .827-.299c.173-.035.319-.055.439-.061.12-.004.217-.01.29-.018l.014 1.241zm-1.364 4.334a.306.306 0 0 0 .249-.113.711.711 0 0 0 .132-.292 2.05 2.05 0 0 0 .051-.411c.005-.153.007-.307.005-.46a1.942 1.942 0 0 0-.028-.294 1.375 1.375 0 0 0-.083-.29.64.64 0 0 0-.152-.223.327.327 0 0 0-.236-.088c-.173.002-.305.111-.396.325-.045.094-.066.311-.062.651.001.16.014.313.035.46.021.146.054.274.099.384s.099.195.163.258.136.094.216.093h.007z"/><path fill="#ccc" fill-rule="evenodd" d="M69.682 118.817c0 1.98-1.62 3.6-3.6 3.6H14.889a3.61 3.61 0 0 1-3.6-3.6v-22.8c0-1.98 1.62-3.6 3.6-3.6h51.192c1.98 0 3.6 1.62 3.6 3.6v22.8z" clip-rule="evenodd"/><path fill="none" stroke="#000" d="M69.682 118.817c0 1.98-1.62 3.6-3.6 3.6H14.889a3.61 3.61 0 0 1-3.6-3.6v-22.8c0-1.98 1.62-3.6 3.6-3.6h51.192c1.98 0 3.6 1.62 3.6 3.6v22.8z" stroke-linecap="round" stroke-linejoin="round"/><circle cx="23.485" cy="108.396" r="6.934" fill="#e6e6e6" fill-rule="evenodd" stroke="#000" clip-rule="evenodd" stroke-linecap="round" stroke-linejoin="round"/><path d="M23.017 106.216h-.02l-1.104.552-.263-1.207 1.532-.777 1.37-.015.07 6.5-1.53.017-.055-5.07z"/><circle cx="40.485" cy="108.396" r="6.934" fill="#e6e6e6" fill-rule="evenodd" stroke="#000" clip-rule="evenodd" stroke-linecap="round" stroke-linejoin="round"/><path d="M38.532 111.303l-.011-1.05.681-.868c.217-.269.413-.521.587-.756s.325-.459.453-.67c.128-.211.226-.416.293-.613.068-.198.101-.396.099-.597a.775.775 0 0 0-.211-.548c-.139-.145-.334-.216-.587-.213-.193.002-.373.035-.539.101s-.315.138-.447.22l-.263-1.198a2.92 2.92 0 0 1 .657-.276c.272-.083.558-.126.858-.129.393-.004.721.051.982.164.261.114.471.262.63.443.158.182.271.387.337.617.065.229.099.457.102.684.003.307-.037.592-.12.857a3.95 3.95 0 0 1-.327.753 4.485 4.485 0 0 1-.463.67c-.174.209-.351.41-.528.605l-.366.405v.02l1.91-.021.015 1.36-3.742.04z"/><circle cx="57.485" cy="108.396" r="6.934" fill="#ecbec0" fill-rule="evenodd" stroke="#000" clip-rule="evenodd" stroke-linecap="round" stroke-linejoin="round"/><path d="M55.727 109.88c.141.079.3.139.477.18.177.042.346.062.505.06.313-.003.546-.084.698-.243a.768.768 0 0 0 .224-.557.818.818 0 0 0-.105-.419.81.81 0 0 0-.268-.272 1.209 1.209 0 0 0-.376-.15 1.81 1.81 0 0 0-.44-.046l-.18.002-.012-1.12.12-.001a1.99 1.99 0 0 0 .37-.039c.126-.024.241-.064.344-.119a.715.715 0 0 0 .248-.213.561.561 0 0 0 .091-.341.602.602 0 0 0-.195-.463c-.127-.116-.302-.172-.522-.17a1.552 1.552 0 0 0-.817.239l-.192-1.158c.139-.088.338-.167.598-.237.259-.069.528-.105.809-.108.307-.003.579.039.814.126s.431.204.583.349.268.313.348.506c.08.193.12.393.123.599.003.327-.078.615-.243.863a1.659 1.659 0 0 1-.669.578v.02c.33.117.599.314.806.592.208.277.313.62.318 1.026.002.24-.043.479-.138.717a1.83 1.83 0 0 1-.436.64 2.345 2.345 0 0 1-.724.463c-.287.119-.62.182-1 .186-.287.003-.544-.022-.771-.077s-.415-.118-.562-.189l.174-1.224z"/><path fill="#ccc" fill-rule="evenodd" d="M292.682 118.817c0 1.98-1.62 3.6-3.6 3.6h-51.193c-1.979 0-3.6-1.62-3.6-3.6v-22.8c0-1.98 1.62-3.6 3.6-3.6h51.193c1.979 0 3.6 1.62 3.6 3.6v22.8z" clip-rule="evenodd"/><path fill="none" stroke="#000" d="M292.682 118.817c0 1.98-1.62 3.6-3.6 3.6h-51.193c-1.979 0-3.6-1.62-3.6-3.6v-22.8c0-1.98 1.62-3.6 3.6-3.6h51.193c1.979 0 3.6 1.62 3.6 3.6v22.8z" stroke-linecap="round" stroke-linejoin="round"/><circle cx="246.485" cy="108.396" r="6.934" fill="#ecbec0" fill-rule="evenodd" stroke="#000" clip-rule="evenodd" stroke-linecap="round" stroke-linejoin="round"/><path d="M246.017 106.216h-.02l-1.104.552-.264-1.207 1.531-.777 1.37-.015.07 6.5-1.53.017-.053-5.07z"/><circle cx="263.485" cy="108.396" r="6.934" fill="#ecbec0" fill-rule="evenodd" stroke="#000" clip-rule="evenodd" stroke-linecap="round" stroke-linejoin="round"/><path d="M261.532 111.303l-.012-1.05.681-.868c.218-.269.413-.521.587-.756s.325-.459.453-.67c.127-.211.225-.416.293-.613.068-.198.101-.396.099-.597a.78.78 0 0 0-.211-.548c-.139-.145-.334-.216-.587-.213-.193.002-.373.035-.539.101s-.315.138-.447.22l-.264-1.198c.166-.101.385-.193.657-.276s.558-.126.858-.129c.393-.004.721.051.982.164.261.114.471.262.629.443.158.182.271.387.338.617a2.73 2.73 0 0 1-.019 1.541 3.947 3.947 0 0 1-.326.753 4.561 4.561 0 0 1-.463.67c-.175.209-.352.41-.528.605l-.366.405v.02l1.91-.021.015 1.36-3.74.04z"/><circle cx="280.485" cy="108.396" r="6.934" fill="#ecbec0" fill-rule="evenodd" stroke="#000" clip-rule="evenodd" stroke-linecap="round" stroke-linejoin="round"/><path d="M278.727 109.88c.141.079.3.139.478.18.177.042.346.062.505.06.313-.003.546-.084.698-.243a.772.772 0 0 0 .224-.557.827.827 0 0 0-.104-.419.804.804 0 0 0-.269-.272 1.199 1.199 0 0 0-.376-.15 1.819 1.819 0 0 0-.441-.046l-.18.002-.012-1.12.119-.001a1.98 1.98 0 0 0 .37-.039c.126-.024.241-.064.345-.119a.703.703 0 0 0 .247-.213.561.561 0 0 0 .091-.341.598.598 0 0 0-.195-.463c-.127-.116-.301-.172-.521-.17a1.552 1.552 0 0 0-.817.239l-.192-1.158c.139-.088.338-.167.598-.237.259-.069.528-.105.809-.108.307-.003.578.039.814.126s.431.204.583.349.269.313.348.506c.079.193.12.393.122.599.004.327-.078.615-.242.863a1.662 1.662 0 0 1-.67.578l.001.02c.329.117.599.314.806.592.209.277.314.62.318 1.026.002.24-.043.479-.138.717a1.806 1.806 0 0 1-.437.64 2.333 2.333 0 0 1-.724.463c-.287.119-.62.182-1 .186a3.151 3.151 0 0 1-.771-.077 2.758 2.758 0 0 1-.562-.189l.175-1.224z"/><path fill="none" stroke="#000" d="M263.486 50.75v45.602" stroke-linecap="round" stroke-linejoin="round"/><path d="M260.485 95.476l2.992 5.182 2.992-5.182z"/><path fill="none" stroke="#000" d="M259.292 50.75l-11.807 45.602" stroke-linecap="round" stroke-linejoin="round"/><path d="M244.8 94.752l1.597 5.766 4.195-4.266z"/><path fill="none" stroke="#000" d="M267.485 50.75l11.807 45.602" stroke-linecap="round" stroke-linejoin="round"/><path d="M276.168 96.256l4.194 4.266 1.598-5.765z"/><path fill="#fddfbb" fill-rule="evenodd" d="M224.183 25.389h78.609v30.052h-78.609z" clip-rule="evenodd"/><path fill="none" stroke="#000" d="M224.183 25.389h78.609v30.052h-78.609zM134.936 52.25l-7.394 44.25" stroke-linecap="round" stroke-linejoin="round"/><path d="M124.727 95.142l2.096 5.604 3.804-4.618z"/><path fill="none" stroke="#000" d="M134.542 52.25l7.394 44.25" stroke-linecap="round" stroke-linejoin="round"/><path d="M138.832 96.131l3.805 4.617 2.096-5.603z"/><path fill="none" stroke="#000" d="M136.542 50.75l-23.5 46.5" stroke-linecap="round" stroke-linejoin="round"/><path d="M110.759 95.115l.332 5.974 5.008-3.275z"/><path fill="none" stroke="#000" d="M133.042 50.75l23.5 46.5" stroke-linecap="round" stroke-linejoin="round"/><path d="M153.469 97.822l5.007 3.275.333-5.974z"/><path fill="none" stroke="#000" d="M134.542 50.75L96.631 97.416" stroke-linecap="round" stroke-linejoin="round"/><path d="M94.854 94.845l-.945 5.908 5.589-2.136z"/><path fill="none" stroke="#000" d="M134.631 50.75l37.911 46.666" stroke-linecap="round" stroke-linejoin="round"/><path d="M169.661 98.629l5.59 2.136-.945-5.908z"/><path fill="none" stroke="#000" d="M127.542 50.75l-63.5 48.334" stroke-linecap="round" stroke-linejoin="round"/><path d="M62.921 96.165l-2.311 5.519 5.935-.758z"/><path fill="#fddfbb" fill-rule="evenodd" d="M95.631 25.389h78.609v30.052H95.631z" clip-rule="evenodd"/><path fill="none" stroke="#000" d="M95.631 25.389h78.609v30.052H95.631z" stroke-linecap="round" stroke-linejoin="round"/><path d="M124.36 32.214c.34-.079.779-.13 1.249-.13.71 0 1.29.13 1.689.51.36.34.54.859.54 1.439 0 .68-.19 1.14-.5 1.499-.399.47-1.049.7-1.619.7-.11 0-.2 0-.3-.011v2.629h-1.059v-6.636zm1.059 3.129c.08.02.15.02.26.02.699 0 1.089-.479 1.089-1.249 0-.63-.26-1.159-.979-1.159-.15 0-.28.02-.37.05v2.338zm5.929 2.398c0 .38.01.79.06 1.109h-.959l-.06-.489h-.02c-.25.369-.609.569-1.029.569-.7 0-1.229-.58-1.229-1.439 0-1.249 1.06-1.779 2.159-1.789v-.13c0-.51-.2-.859-.73-.859-.35 0-.64.1-.909.27l-.2-.729c.24-.149.75-.35 1.339-.35 1.259 0 1.579.859 1.579 1.899v1.938zm-1.049-1.329c-.42.01-1.169.12-1.169.97 0 .549.29.749.53.749.27 0 .52-.18.61-.56.02-.07.03-.16.03-.25v-.909zm5.319 1.859c0 1.149-.18 1.68-.54 2.049-.33.34-.819.53-1.449.53-.439 0-.849-.09-1.159-.23l.22-.829c.22.11.53.21.92.21.64 0 .949-.41.949-1.319v-.38h-.02c-.17.34-.51.53-.899.53-.99 0-1.479-1.1-1.479-2.379 0-1.699.77-2.549 1.589-2.549.45 0 .729.27.899.6h.02l.06-.52h.939c-.03.399-.05.869-.05 1.529v2.758zm-1.059-2.559c0-.13-.02-.26-.05-.359-.07-.26-.22-.55-.54-.55-.51 0-.75.689-.75 1.609 0 1.06.32 1.569.729 1.569.2 0 .43-.101.55-.51.05-.13.06-.271.06-.41v-1.349zm2.89.99c.01 1.089.51 1.389 1.08 1.389.36 0 .66-.08.87-.17l.16.76c-.31.14-.779.229-1.219.229-1.259 0-1.929-.909-1.929-2.418 0-1.609.77-2.589 1.809-2.589 1.02 0 1.54.93 1.54 2.229 0 .28-.01.44-.03.57h-2.281zm1.32-.76c.01-.779-.25-1.239-.629-1.239-.46 0-.67.669-.69 1.239h1.319zm4.39 1.16l-.36 1.749h-1.039l1.499-6.736h1.249l1.39 6.736h-1.04l-.36-1.749h-1.339zm1.229-.84l-.28-1.549c-.09-.439-.18-1.06-.25-1.529h-.03c-.07.47-.17 1.119-.25 1.539l-.3 1.539h1.11zm-30.818 8.001c0-.41-.03-.89-.04-1.249h.689l.04.759h.02c.16-.459.57-.839 1.02-.839.06 0 .11 0 .16.01v.789c-.05-.01-.1-.01-.16-.01-.49 0-.85.45-.93 1.01-.02.13-.03.27-.03.439v2.679h-.77v-3.588zm2.89 1.239c.01 1.489.589 1.799 1.139 1.799.34 0 .61-.08.8-.18l.13.56c-.27.15-.68.229-1.07.229-1.149 0-1.749-.939-1.749-2.429 0-1.568.66-2.548 1.629-2.548.979 0 1.379 1.039 1.379 2.129 0 .189-.01.319-.02.439h-2.238zm1.519-.569c.01-.97-.35-1.399-.72-1.399-.5 0-.759.739-.79 1.399h1.51zm3.72 2.418h-.03c-.16.33-.5.58-.93.58-.779 0-1.399-.85-1.399-2.438 0-1.709.71-2.559 1.52-2.559.3 0 .669.14.899.64l.02.01.04-.569h.689c-.01.329-.04.77-.04 1.509v5.247h-.77v-2.42zm0-2.529c0-.1 0-.229-.02-.32-.06-.509-.36-.909-.709-.909-.63 0-.859.84-.859 1.859s.25 1.839.849 1.839c.23 0 .54-.14.7-.8.04-.13.04-.279.04-.42v-1.249zm4.739 1.709c0 .529.03.96.04 1.319h-.669l-.06-.51h-.02c-.14.24-.51.59-1.029.59-.84 0-1.18-.66-1.18-1.859v-3.058h.77v2.948c0 .749.12 1.319.65 1.319.45 0 .649-.42.689-.65.03-.13.04-.27.04-.43v-3.188h.77v3.519zm1.622-1.029c.01 1.489.589 1.799 1.139 1.799.34 0 .61-.08.8-.18l.13.56c-.27.15-.68.229-1.07.229-1.149 0-1.749-.939-1.749-2.429 0-1.568.66-2.548 1.629-2.548.979 0 1.379 1.039 1.379 2.129 0 .189-.01.319-.02.439h-2.238zm1.519-.569c.01-.97-.35-1.399-.72-1.399-.5 0-.759.739-.79 1.399h1.51zm1.441 2.118c.17.11.47.25.78.25.43 0 .709-.27.709-.699 0-.37-.13-.63-.62-.95-.63-.409-.969-.829-.969-1.379 0-.789.58-1.339 1.329-1.339.38 0 .66.119.859.25l-.2.579c-.19-.13-.39-.22-.65-.22-.41 0-.62.3-.62.62 0 .319.12.509.6.829.56.359 1 .81 1 1.479 0 .969-.66 1.438-1.459 1.438-.35 0-.74-.109-.95-.279l.191-.579zm3.959-5.167v1.13h.93v.579h-.93v2.879c0 .64.22.799.5.799.13 0 .23-.01.31-.029l.04.59c-.14.05-.32.079-.57.079-.31 0-.58-.079-.759-.289-.2-.221-.29-.55-.29-1.22v-2.809h-.589v-.579h.589v-.82l.769-.31zm5.329 5.467h-.03c-.16.33-.5.58-.93.58-.779 0-1.399-.85-1.399-2.438 0-1.709.71-2.559 1.52-2.559.3 0 .669.14.899.64l.02.01.04-.569h.689c-.01.329-.04.77-.04 1.509v5.247h-.77v-2.42zm0-2.529c0-.1 0-.229-.02-.32-.06-.509-.36-.909-.709-.909-.63 0-.859.84-.859 1.859s.25 1.839.849 1.839c.23 0 .54-.14.7-.8.04-.13.04-.279.04-.42v-1.249zm4.74 1.709c0 .529.03.96.04 1.319h-.669l-.06-.51h-.02c-.14.24-.51.59-1.029.59-.84 0-1.18-.66-1.18-1.859v-3.058h.77v2.948c0 .749.12 1.319.65 1.319.45 0 .649-.42.689-.65.03-.13.04-.27.04-.43v-3.188h.77v3.519zm1.621-1.029c.01 1.489.589 1.799 1.139 1.799.34 0 .61-.08.8-.18l.13.56c-.27.15-.68.229-1.069.229-1.149 0-1.75-.939-1.75-2.429 0-1.568.66-2.548 1.629-2.548.979 0 1.379 1.039 1.379 2.129 0 .189-.01.319-.02.439h-2.238zm1.519-.569c.01-.97-.35-1.399-.72-1.399-.5 0-.76.739-.79 1.399h1.51zm4.47 1.598c0 .529.03.96.04 1.319h-.669l-.06-.51h-.02c-.14.24-.51.59-1.029.59-.84 0-1.18-.66-1.18-1.859v-3.058h.77v2.948c0 .749.12 1.319.65 1.319.45 0 .649-.42.689-.65.03-.13.04-.27.04-.43v-3.188h.77v3.519zm1.621-1.029c.01 1.489.589 1.799 1.139 1.799.34 0 .61-.08.8-.18l.13.56c-.27.15-.68.229-1.07.229-1.149 0-1.749-.939-1.749-2.429 0-1.568.66-2.548 1.629-2.548.979 0 1.379 1.039 1.379 2.129 0 .189-.01.319-.02.439h-2.238zm1.519-.569c.01-.97-.35-1.399-.72-1.399-.5 0-.759.739-.79 1.399h1.51zm41.303-.353c-.35 0-.639-.29-.639-.739 0-.431.299-.74.648-.74.371 0 .65.28.65.74 0 .449-.26.739-.65.739h-.009zm2.16 0c-.35 0-.64-.29-.64-.739 0-.431.3-.74.649-.74.37 0 .65.28.65.74 0 .449-.26.739-.65.739h-.009zm2.16 0c-.35 0-.64-.29-.64-.739 0-.431.3-.74.649-.74.37 0 .65.28.65.74 0 .449-.26.739-.65.739h-.009zm8.18 66.781c-.35 0-.639-.29-.639-.739 0-.431.299-.74.648-.74.371 0 .65.28.65.74 0 .449-.26.739-.65.739h-.009zm2.16 0c-.35 0-.64-.29-.64-.739 0-.431.3-.74.649-.74.37 0 .65.28.65.74 0 .449-.26.739-.65.739h-.009zm2.16 0c-.35 0-.64-.29-.64-.739 0-.431.3-.74.649-.74.37 0 .65.28.65.74 0 .449-.26.739-.65.739h-.009zm38.766-79.147c.34-.079.779-.13 1.249-.13.71 0 1.29.13 1.688.51.36.34.541.859.541 1.439 0 .68-.19 1.14-.5 1.499-.4.47-1.05.7-1.619.7-.11 0-.2 0-.301-.011v2.629h-1.059v-6.636zm1.058 3.129c.08.02.15.02.261.02.699 0 1.089-.479 1.089-1.249 0-.63-.26-1.159-.979-1.159-.15 0-.28.02-.371.05v2.338zm5.93 2.398c0 .38.01.79.061 1.109h-.96l-.06-.489h-.021c-.249.369-.609.569-1.029.569-.7 0-1.229-.58-1.229-1.439 0-1.249 1.06-1.779 2.159-1.789v-.13c0-.51-.2-.859-.729-.859-.35 0-.641.1-.91.27l-.199-.729c.24-.149.749-.35 1.339-.35 1.259 0 1.579.859 1.579 1.899v1.938zm-1.049-1.329c-.42.01-1.17.12-1.17.97 0 .549.29.749.529.749.271 0 .52-.18.61-.56.021-.07.03-.16.03-.25v-.909zm5.318 1.859c0 1.149-.18 1.68-.539 2.049-.33.34-.82.53-1.449.53-.439 0-.85-.09-1.16-.23l.221-.829c.22.11.529.21.92.21.639 0 .949-.41.949-1.319v-.38h-.021c-.17.34-.51.53-.899.53-.99 0-1.479-1.1-1.479-2.379 0-1.699.77-2.549 1.588-2.549.45 0 .73.27.9.6h.02l.061-.52h.939c-.03.399-.051.869-.051 1.529v2.758zm-1.058-2.559c0-.13-.021-.26-.051-.359-.07-.26-.22-.55-.539-.55-.51 0-.75.689-.75 1.609 0 1.06.32 1.569.729 1.569.2 0 .431-.101.55-.51.051-.13.061-.271.061-.41v-1.349zm2.89.99c.01 1.089.51 1.389 1.079 1.389.36 0 .659-.08.87-.17l.159.76c-.31.14-.779.229-1.22.229-1.259 0-1.928-.909-1.928-2.418 0-1.609.77-2.589 1.809-2.589 1.02 0 1.539.93 1.539 2.229 0 .28-.01.44-.03.57h-2.278zm1.319-.76c.011-.779-.25-1.239-.629-1.239-.46 0-.67.669-.689 1.239h1.318zm3.441 2.909v-6.736h.979l1.14 2.879c.239.609.579 1.479.789 2.128h.02a43.582 43.582 0 0 1-.119-3.098v-1.909h.939v6.736h-.98l-1.148-2.868c-.25-.62-.55-1.43-.74-2.139h-.02c.05.779.08 1.729.08 3.128v1.879h-.94zm-28.414 5.412c0-.41-.031-.89-.041-1.249h.689l.041.759h.02c.16-.459.57-.839 1.02-.839.061 0 .109 0 .16.01v.789c-.051-.01-.1-.01-.16-.01-.49 0-.85.45-.93 1.01-.02.13-.029.27-.029.439v2.679h-.77v-3.588zm2.889 1.239c.01 1.489.59 1.799 1.14 1.799.34 0 .61-.08.8-.18l.13.56c-.271.15-.68.229-1.069.229-1.149 0-1.75-.939-1.75-2.429 0-1.568.66-2.548 1.63-2.548.979 0 1.38 1.039 1.38 2.129 0 .189-.011.319-.021.439h-2.24zm1.519-.569c.01-.97-.35-1.399-.72-1.399-.499 0-.759.739-.79 1.399h1.51zm3.72 2.418h-.03c-.16.33-.5.58-.93.58-.779 0-1.398-.85-1.398-2.438 0-1.709.709-2.559 1.52-2.559.299 0 .669.14.898.64l.021.01.04-.569h.689c-.01.329-.04.77-.04 1.509v5.247h-.77v-2.42zm0-2.529c0-.1 0-.229-.021-.32-.06-.509-.359-.909-.709-.909-.63 0-.859.84-.859 1.859s.25 1.839.85 1.839c.229 0 .539-.14.699-.8.04-.13.04-.279.04-.42v-1.249zm4.739 1.709c0 .529.03.96.04 1.319h-.669l-.061-.51h-.02c-.141.24-.51.59-1.029.59-.84 0-1.18-.66-1.18-1.859v-3.058h.77v2.948c0 .749.119 1.319.649 1.319.45 0 .649-.42.689-.65.03-.13.04-.27.04-.43v-3.188h.77v3.519zm1.621-1.029c.01 1.489.59 1.799 1.14 1.799.34 0 .61-.08.8-.18l.13.56c-.271.15-.68.229-1.069.229-1.149 0-1.75-.939-1.75-2.429 0-1.568.66-2.548 1.63-2.548.979 0 1.38 1.039 1.38 2.129 0 .189-.011.319-.021.439h-2.24zm1.52-.569c.01-.97-.35-1.399-.72-1.399-.499 0-.759.739-.79 1.399h1.51zm1.441 2.118c.17.11.47.25.779.25.43 0 .71-.27.71-.699 0-.37-.13-.63-.62-.95-.629-.409-.969-.829-.969-1.379 0-.789.58-1.339 1.329-1.339.38 0 .659.119.859.25l-.2.579a1.1 1.1 0 0 0-.649-.22c-.409 0-.62.3-.62.62 0 .319.121.509.6.829.561.359 1 .81 1 1.479 0 .969-.66 1.438-1.459 1.438-.35 0-.74-.109-.949-.279l.189-.579zm3.959-5.167v1.13h.93v.579h-.93v2.879c0 .64.221.799.5.799.13 0 .23-.01.31-.029l.04.59c-.14.05-.32.079-.57.079-.309 0-.579-.079-.759-.289-.2-.221-.29-.55-.29-1.22v-2.809h-.59v-.579h.59v-.82l.769-.31zm5.329 5.467h-.03c-.16.33-.5.58-.93.58-.779 0-1.398-.85-1.398-2.438 0-1.709.709-2.559 1.52-2.559.299 0 .669.14.898.64l.021.01.04-.569h.689c-.01.329-.04.77-.04 1.509v5.247h-.77v-2.42zm0-2.529c0-.1 0-.229-.021-.32-.06-.509-.359-.909-.709-.909-.63 0-.859.84-.859 1.859s.25 1.839.85 1.839c.229 0 .539-.14.699-.8.04-.13.04-.279.04-.42v-1.249zm4.74 1.709c0 .529.031.96.041 1.319h-.67l-.061-.51h-.02c-.141.24-.51.59-1.029.59-.84 0-1.18-.66-1.18-1.859v-3.058h.77v2.948c0 .749.12 1.319.65 1.319.449 0 .648-.42.689-.65.029-.13.039-.27.039-.43v-3.188h.77v3.519zm1.622-1.029c.01 1.489.589 1.799 1.14 1.799.34 0 .609-.08.799-.18l.131.56c-.271.15-.68.229-1.07.229-1.148 0-1.749-.939-1.749-2.429 0-1.568.659-2.548 1.63-2.548.979 0 1.379 1.039 1.379 2.129 0 .189-.01.319-.02.439h-2.24zm1.518-.569c.01-.97-.35-1.399-.719-1.399-.5 0-.76.739-.79 1.399h1.509zm4.47 1.598c0 .529.03.96.04 1.319h-.67l-.06-.51h-.021c-.14.24-.51.59-1.029.59-.84 0-1.18-.66-1.18-1.859v-3.058h.77v2.948c0 .749.121 1.319.65 1.319.449 0 .649-.42.689-.65.03-.13.04-.27.04-.43v-3.188h.77v3.519zm1.622-1.029c.01 1.489.589 1.799 1.139 1.799.34 0 .609-.08.8-.18l.13.56c-.27.15-.68.229-1.07.229-1.148 0-1.748-.939-1.748-2.429 0-1.568.659-2.548 1.629-2.548.979 0 1.379 1.039 1.379 2.129 0 .189-.01.319-.02.439h-2.239zm1.519-.569c.01-.97-.351-1.399-.72-1.399-.5 0-.76.739-.789 1.399h1.509zM3.54 79.251c.2.14.54.25.9.25.81.01 1.229-.59 1.229-1.3 0-.529-.25-.909-.689-1.349-.5-.49-.839-1.029-.839-1.669 0-1.05.759-1.879 1.909-1.879.41 0 .74.109.89.22l-.22.619c-.2-.109-.42-.18-.74-.18-.67 0-1.089.49-1.1 1.14 0 .479.27.859.71 1.279.47.439.819 1.029.819 1.679 0 1.22-.74 2.099-2.009 2.099-.5 0-.919-.149-1.069-.27l.209-.639zm6.768-2.488c0 1.219-.6 3.418-2.079 3.418-.899 0-1.18-.779-1.18-1.64 0-1.299.7-3.357 2.139-3.357.97 0 1.12.928 1.12 1.579zm-2.529 1.709c0 .55.04 1.119.549 1.119.88 0 1.25-2.059 1.25-2.878 0-.5-.09-.93-.51-.93-.799 0-1.289 1.739-1.289 2.689zm5.119 1.549c-.18.08-.459.14-.79.14-.969 0-1.319-.789-1.319-1.729 0-1.409.83-3.238 2.409-3.238.21 0 .38.03.48.08l-.19.619c-.1-.029-.21-.069-.36-.069-1.009 0-1.599 1.438-1.599 2.528 0 .71.21 1.189.77 1.189.19 0 .4-.05.59-.12l.009.6zm.602.08l1.31-6.916h.709l-.79 4.168h.02c.11-.15.24-.34.32-.46l1.239-1.629h.83l-1.649 2.038.939 2.799h-.74l-.75-2.389-.37.46-.37 1.929H13.5zm5.958-.241c-.35.19-.72.3-1.139.3-1.02 0-1.35-.779-1.35-1.709 0-1.309.73-3.268 2.109-3.268.709 0 1 .539 1 1.099 0 1.17-1.04 1.67-2.359 1.68-.02.14-.05.68.03.97.11.409.36.629.74.629.379 0 .64-.13.859-.26l.11.559zm-.49-4.057c-.43 0-.89.53-1.149 1.579.77-.01 1.579-.27 1.579-1.049 0-.34-.14-.53-.43-.53zm3.21-1.809l-.26 1.27h.919l-.11.56h-.91l-.52 2.758c-.05.26-.07.48-.07.61 0 .239.09.369.33.369.13 0 .21 0 .3-.02l-.06.56c-.17.05-.36.07-.52.07-.51 0-.81-.3-.81-.78 0-.189.02-.39.1-.779l.529-2.788h-.58l.1-.56h.59l.2-1.05.772-.22zm6.089 6.107l.54-3.838c.07-.569.18-1.129.29-1.809h-.04c-.24.699-.5 1.358-.75 1.898l-1.649 3.708h-.47l-.25-3.798c-.03-.56-.05-1.129-.04-1.809h-.02c-.16.699-.25 1.239-.39 1.818l-.89 3.828h-.66l1.659-6.736h.8l.229 3.897c.03.521.05 1.01.04 1.55h.04c.18-.54.39-1.04.61-1.56l1.679-3.888h.83l-.899 6.736h-.659zm3.891 0c.01-.27.04-.54.07-.92h-.02c-.479.82-.91 1-1.269 1-.56 0-.9-.49-.9-1.359 0-1.469.78-3.638 2.649-3.638.34 0 .689.069.889.159l-.56 2.769c-.13.65-.22 1.449-.21 1.989h-.649zm.61-4.298c-.09-.02-.19-.029-.3-.029-1.079 0-1.679 1.769-1.709 2.828-.01.609.11.959.45.959.49 0 1.01-.959 1.2-1.919l.359-1.839zm.941 4.298l.59-3.179c.14-.699.21-1.269.26-1.658h.63l-.08.77h.02c.39-.59.81-.85 1.299-.85.6 0 .83.47.83.979 0 .279-.04.51-.09.789l-.59 3.148h-.72l.59-3.139c.04-.22.07-.419.07-.669 0-.29-.12-.49-.42-.49-.45 0-.989.689-1.169 1.609l-.51 2.688h-.71zm6.179 0c.01-.27.04-.54.07-.92h-.02c-.479.82-.91 1-1.269 1-.56 0-.9-.49-.9-1.359 0-1.469.78-3.638 2.649-3.638.34 0 .689.069.889.159l-.56 2.769c-.13.65-.22 1.449-.21 1.989h-.649zm.609-4.298c-.09-.02-.19-.029-.3-.029-1.079 0-1.679 1.769-1.709 2.828-.01.609.11.959.45.959.49 0 1.01-.959 1.2-1.919l.359-1.839zm1.012 5.487c.2.109.51.21.779.21.729 0 1.029-.53 1.219-1.419l.17-.76h-.02c-.41.669-.81.819-1.159.819-.56 0-.91-.49-.919-1.399-.01-1.429.75-3.558 2.479-3.558.38 0 .77.109 1.029.239l-.79 4.188c-.189 1.009-.419 1.639-.759 1.979-.33.35-.77.51-1.29.51-.37 0-.75-.1-.949-.23l.21-.579zm2.779-5.427c-.1-.051-.22-.08-.42-.08-.989 0-1.539 1.709-1.559 2.708-.01.57.07 1.05.49 1.05.52 0 .95-.909 1.08-1.539l.409-2.139zm3.619 3.997c-.35.19-.72.3-1.139.3-1.02 0-1.35-.779-1.35-1.709 0-1.309.73-3.268 2.109-3.268.709 0 1 .539 1 1.099 0 1.17-1.04 1.67-2.359 1.68-.02.14-.05.68.03.97.11.409.36.629.74.629.379 0 .64-.13.859-.26l.11.559zm-.49-4.057c-.43 0-.89.53-1.149 1.579.77-.01 1.579-.27 1.579-1.049 0-.34-.139-.53-.43-.53zm1.211 4.298l.61-3.248c.12-.649.18-1.229.21-1.589h.629c-.01.26-.03.52-.08.909h.03c.3-.6.72-.989 1.209-.989.05 0 .09.01.13.01l-.14.76c-.02 0-.06-.01-.09-.01-.64 0-1.179.899-1.319 1.618l-.479 2.539h-.71zm-32.283 46.27c-1.08 1.206-1.801 2.935-1.801 4.699 0 1.044.09 1.882.378 2.61h-.513c-.315-.729-.441-1.665-.441-2.565 0-1.899.811-3.637 1.801-4.744h.576zm-.559 6.23l1.17-6.229h.657l-.468 2.484h.018c.306-.45.657-.685 1.081-.685.522 0 .738.405.738.883 0 .233-.027.432-.081.729l-.531 2.817h-.648l.541-2.845c.036-.189.054-.369.054-.585 0-.271-.117-.441-.378-.441-.432 0-.9.648-1.036 1.377l-.477 2.494h-.64zm5.338-5.501l-.234 1.144h.829l-.099.504h-.819l-.468 2.485a3.153 3.153 0 0 0-.063.549c0 .216.081.333.297.333.117 0 .189 0 .27-.018l-.054.504a1.72 1.72 0 0 1-.468.063c-.459 0-.729-.271-.729-.703 0-.171.018-.351.09-.702l.477-2.512h-.522l.09-.504h.531l.18-.945.692-.198zm2.159 0l-.234 1.144h.829l-.099.504h-.819l-.468 2.485a3.153 3.153 0 0 0-.063.549c0 .216.081.333.297.333.117 0 .189 0 .27-.018l-.054.504a1.72 1.72 0 0 1-.468.063c-.459 0-.729-.271-.729-.703 0-.171.018-.351.09-.702l.477-2.512h-.522l.09-.504h.531l.18-.945.692-.198zm.027 7.229l.864-4.546c.117-.622.189-1.171.243-1.54h.576l-.099.711h.018c.288-.468.693-.783 1.125-.783.63 0 .801.595.801 1.243 0 1.35-.703 3.259-2.008 3.259a.985.985 0 0 1-.522-.145h-.018l-.333 1.801h-.647zm1.089-2.341c.117.09.252.162.414.162 1.008 0 1.369-1.998 1.369-2.646 0-.424-.081-.757-.423-.757-.432 0-.891.702-1.044 1.521l-.316 1.72zm1.853 1.747c.261-.522.648-1.477.819-2.098l.783-.091c-.279.729-.792 1.72-1.098 2.125l-.504.064zm3.538-1.809c.135.09.351.207.675.207.441-.01.702-.324.702-.738 0-.388-.189-.621-.441-.847-.297-.27-.567-.648-.567-1.062 0-.738.54-1.314 1.359-1.314.288 0 .54.072.675.172l-.18.495a1.1 1.1 0 0 0-.504-.136c-.45 0-.703.298-.703.676 0 .342.198.54.405.729.342.298.612.702.612 1.144 0 .937-.612 1.404-1.422 1.404-.342 0-.684-.135-.811-.233l.2-.497zm2.519.675l.828-4.357h.648l-.837 4.357h-.639zm.982-5.465c.009-.233.189-.459.432-.459.252 0 .369.189.351.423-.018.298-.216.459-.45.459s-.36-.171-.333-.423zm2.43-.036l-.234 1.144h.829l-.099.504h-.819l-.468 2.485a3.153 3.153 0 0 0-.063.549c0 .216.081.333.297.333.117 0 .189 0 .27-.018l-.054.504a1.72 1.72 0 0 1-.468.063c-.459 0-.729-.271-.729-.703 0-.171.018-.351.09-.702l.477-2.512h-.522l.09-.504h.531l.18-.945.692-.198zm2.655 5.285c-.315.171-.648.27-1.026.27-.918 0-1.215-.702-1.215-1.539 0-1.18.657-2.944 1.899-2.944.639 0 .9.486.9.99 0 1.054-.937 1.504-2.125 1.513-.018.126-.045.612.027.873.099.369.324.567.666.567s.576-.117.774-.233l.1.503zm-.441-3.656c-.387 0-.801.478-1.035 1.423.693-.01 1.422-.243 1.422-.945 0-.307-.126-.478-.387-.478zm3.735 3.791c-.189.09-.468.135-.801.135-1.26 0-1.566-1.125-1.566-2.106 0-1.197.333-2.512 1.143-3.34.513-.522 1.107-.729 1.63-.729.27 0 .522.055.603.108l-.189.576a1.276 1.276 0 0 0-.486-.081c-.414 0-.819.207-1.125.558-.54.648-.891 1.702-.891 2.729 0 .999.243 1.692 1.026 1.692.243 0 .477-.054.621-.117l.035.575zm.657-.333c0-.288.225-.559.495-.559.306 0 .432.226.432.478 0 .315-.216.567-.495.567-.271 0-.432-.198-.432-.486zm3.681.341a1.83 1.83 0 0 1-.711.126c-.873 0-1.188-.711-1.188-1.558 0-1.269.747-2.916 2.169-2.916.189 0 .342.026.432.071l-.171.559c-.09-.027-.189-.063-.324-.063-.909 0-1.44 1.297-1.44 2.278 0 .639.189 1.071.693 1.071.171 0 .36-.045.531-.108l.009.54zm3.474-2.934c0 1.099-.54 3.079-1.873 3.079-.81 0-1.062-.702-1.062-1.477 0-1.171.63-3.025 1.926-3.025.874 0 1.009.838 1.009 1.423zm-2.277 1.539c0 .495.036 1.009.495 1.009.792 0 1.125-1.854 1.125-2.593 0-.45-.081-.838-.459-.838-.72 0-1.161 1.567-1.161 2.422zm2.528 1.468l.531-2.863c.126-.63.189-1.143.234-1.494h.567l-.072.702h.018c.342-.54.729-.774 1.134-.774.459 0 .675.369.703.766.333-.522.747-.766 1.152-.766.504 0 .729.405.729.874 0 .216-.036.485-.099.792l-.522 2.764h-.639l.522-2.782c.045-.225.072-.432.072-.666 0-.261-.108-.423-.351-.423-.396 0-.855.585-1.018 1.44l-.468 2.431h-.621l.522-2.782c.045-.225.072-.423.072-.657 0-.27-.108-.432-.351-.432-.369 0-.864.621-1.017 1.44l-.459 2.431h-.639zm4.86 1.134c.261-.522.648-1.477.819-2.098l.783-.091c-.279.729-.792 1.72-1.099 2.125l-.503.064zm6.913-5.897c0 .766-.459 1.297-1.044 1.647l-.009.027c.378.324.693.783.693 1.44 0 .954-.738 1.72-1.639 1.72-.792 0-1.288-.55-1.288-1.333 0-.963.675-1.557 1.251-1.881v-.019c-.405-.396-.576-.765-.576-1.197 0-.819.639-1.566 1.495-1.566.793.001 1.117.604 1.117 1.162zm-1.008 3.124c0-.567-.252-.909-.639-1.206-.459.243-.99.819-.99 1.521 0 .54.225.909.684.909.575.001.945-.584.945-1.224zm-.973-2.736c0 .459.207.72.531.999.558-.352.828-.847.828-1.332 0-.45-.171-.729-.549-.729-.459-.001-.81.458-.81 1.062zm5.509.071c0 1.378-.558 4.376-2.152 4.376-.9 0-1.071-.964-1.071-1.72 0-1.594.675-4.276 2.152-4.276.963 0 1.071.99 1.071 1.62zm-2.575 2.665c0 .693.09 1.144.54 1.144.954 0 1.386-3.016 1.386-3.907 0-.423-.072-.954-.477-.954-.99-.001-1.449 2.682-1.449 3.717zm2.024 2.719c1.071-1.206 1.801-2.943 1.801-4.708 0-1.045-.081-1.882-.369-2.602h.522c.306.729.423 1.665.423 2.557 0 1.899-.801 3.646-1.783 4.753h-.594zm-38.91 7.245c.135.09.351.207.675.207.441-.01.702-.324.702-.738 0-.388-.189-.621-.441-.847-.297-.27-.567-.648-.567-1.062 0-.738.54-1.314 1.359-1.314.288 0 .54.072.675.172l-.18.495a1.1 1.1 0 0 0-.504-.136c-.45 0-.703.298-.703.676 0 .342.198.54.405.729.342.298.612.702.612 1.144 0 .937-.612 1.404-1.422 1.404-.342 0-.684-.135-.811-.233l.2-.497zm5.59-2.332c0 1.099-.54 3.079-1.873 3.079-.81 0-1.062-.702-1.062-1.477 0-1.171.63-3.025 1.926-3.025.874 0 1.009.838 1.009 1.423zm-2.278 1.539c0 .495.036 1.009.495 1.009.792 0 1.125-1.854 1.125-2.593 0-.45-.081-.838-.459-.838-.72 0-1.161 1.567-1.161 2.422zm4.608 1.395a1.83 1.83 0 0 1-.711.126c-.873 0-1.188-.711-1.188-1.558 0-1.269.747-2.916 2.169-2.916.189 0 .342.026.432.071l-.171.559c-.09-.027-.189-.063-.324-.063-.909 0-1.44 1.297-1.44 2.278 0 .639.189 1.071.693 1.071.171 0 .36-.045.531-.108l.009.54zm.539.073l1.18-6.229h.639l-.711 3.754h.018c.099-.135.216-.307.288-.414l1.116-1.468h.747l-1.485 1.837.846 2.521h-.666l-.675-2.151-.333.414-.333 1.737h-.631zm5.365-.216c-.315.171-.648.27-1.026.27-.918 0-1.215-.702-1.215-1.539 0-1.18.657-2.944 1.899-2.944.639 0 .9.486.9.99 0 1.054-.937 1.504-2.125 1.513-.018.126-.045.612.027.873.099.369.324.567.666.567s.576-.117.774-.233l.1.503zm-.441-3.656c-.387 0-.801.478-1.035 1.423.693-.01 1.422-.243 1.422-.945 0-.307-.126-.478-.387-.478zm2.889-1.629l-.234 1.144h.829l-.099.504h-.819l-.468 2.485a3.153 3.153 0 0 0-.063.549c0 .216.081.333.297.333.117 0 .189 0 .27-.018l-.054.504a1.72 1.72 0 0 1-.468.063c-.459 0-.729-.271-.729-.703 0-.171.018-.351.09-.702l.477-2.512h-.522l.09-.504h.531l.18-.945.692-.198zm1.349 7.229l.864-4.546c.117-.622.189-1.171.243-1.54h.576l-.099.711h.018c.288-.468.693-.783 1.125-.783.63 0 .801.595.801 1.243 0 1.35-.703 3.259-2.008 3.259a.985.985 0 0 1-.522-.145h-.018l-.333 1.801h-.647zm1.09-2.341c.117.09.252.162.414.162 1.008 0 1.369-1.998 1.369-2.646 0-.424-.081-.757-.423-.757-.432 0-.891.702-1.044 1.521l-.316 1.72zm5.796-2.394c0 1.099-.54 3.079-1.873 3.079-.81 0-1.062-.702-1.062-1.477 0-1.171.63-3.025 1.926-3.025.874 0 1.009.838 1.009 1.423zm-2.277 1.539c0 .495.036 1.009.495 1.009.792 0 1.125-1.854 1.125-2.593 0-.45-.081-.838-.459-.838-.72 0-1.161 1.567-1.161 2.422zm5.625-1.539c0 1.099-.54 3.079-1.873 3.079-.81 0-1.062-.702-1.062-1.477 0-1.171.63-3.025 1.926-3.025.874 0 1.009.838 1.009 1.423zm-2.278 1.539c0 .495.036 1.009.495 1.009.792 0 1.125-1.854 1.125-2.593 0-.45-.081-.838-.459-.838-.72 0-1.161 1.567-1.161 2.422zm2.529 1.468l1.17-6.229h.657l-1.188 6.229h-.639zm185.229-15.23c-1.08 1.206-1.801 2.935-1.801 4.699 0 1.044.091 1.882.378 2.61h-.513c-.315-.729-.441-1.665-.441-2.565 0-1.899.811-3.637 1.801-4.744h.576zm-.559 6.23l1.171-6.229h.657l-.469 2.484h.019c.306-.45.657-.685 1.081-.685.521 0 .737.405.737.883 0 .233-.026.432-.081.729l-.531 2.817h-.648l.541-2.845c.035-.189.054-.369.054-.585 0-.271-.117-.441-.378-.441-.432 0-.9.648-1.035 1.377l-.478 2.494h-.64zm5.338-5.501l-.234 1.144h.829l-.099.504h-.82l-.468 2.485a3.153 3.153 0 0 0-.063.549c0 .216.082.333.298.333.116 0 .188 0 .271-.018l-.055.504a1.717 1.717 0 0 1-.469.063c-.459 0-.729-.271-.729-.703 0-.171.018-.351.09-.702l.477-2.512h-.521l.09-.504h.531l.18-.945.692-.198zm2.16 0l-.234 1.144h.828l-.099.504h-.819l-.469 2.485a3.13 3.13 0 0 0-.062.549c0 .216.081.333.297.333.117 0 .189 0 .271-.018l-.054.504a1.722 1.722 0 0 1-.469.063c-.459 0-.729-.271-.729-.703 0-.171.018-.351.09-.702l.477-2.512h-.521l.09-.504h.531l.18-.945.692-.198zm.026 7.229l.864-4.546c.117-.622.189-1.171.243-1.54h.576l-.099.711h.018c.288-.468.693-.783 1.125-.783.631 0 .802.595.802 1.243 0 1.35-.702 3.259-2.008 3.259a.982.982 0 0 1-.522-.145h-.018l-.333 1.801h-.648zm1.089-2.341c.117.09.252.162.414.162 1.009 0 1.369-1.998 1.369-2.646 0-.424-.081-.757-.424-.757-.432 0-.891.702-1.044 1.521l-.315 1.72zm1.853 1.747c.262-.522.648-1.477.82-2.098l.783-.091c-.279.729-.793 1.72-1.099 2.125l-.504.064zm3.538-1.809c.136.09.352.207.676.207.441-.01.702-.324.702-.738 0-.388-.188-.621-.44-.847-.298-.27-.568-.648-.568-1.062 0-.738.541-1.314 1.359-1.314.289 0 .541.072.676.172l-.18.495a1.104 1.104 0 0 0-.504-.136c-.451 0-.703.298-.703.676 0 .342.198.54.405.729.343.298.612.702.612 1.144 0 .937-.612 1.404-1.422 1.404-.343 0-.685-.135-.811-.233l.198-.497zm2.519.675l.828-4.357h.648l-.837 4.357h-.639zm.983-5.465c.008-.233.188-.459.432-.459.252 0 .369.189.352.423-.019.298-.217.459-.451.459-.235 0-.361-.171-.333-.423zm2.429-.036l-.234 1.144h.828l-.099.504h-.819l-.469 2.485a3.13 3.13 0 0 0-.062.549c0 .216.081.333.297.333.117 0 .189 0 .271-.018l-.054.504a1.722 1.722 0 0 1-.469.063c-.459 0-.729-.271-.729-.703 0-.171.018-.351.09-.702l.477-2.512h-.521l.09-.504h.531l.18-.945.692-.198zm2.655 5.285c-.315.171-.648.27-1.026.27-.918 0-1.215-.702-1.215-1.539 0-1.18.656-2.944 1.898-2.944.64 0 .9.486.9.99 0 1.054-.936 1.504-2.125 1.513-.018.126-.045.612.027.873.1.369.324.567.666.567.343 0 .576-.117.775-.233l.1.503zm-.441-3.656c-.388 0-.802.478-1.035 1.423.693-.01 1.423-.243 1.423-.945 0-.307-.127-.478-.388-.478zm1.151 3.872l1.152-6.067h.621l.621 3.276c.117.612.226 1.18.297 1.737h.019c.09-.657.162-1.368.297-2.079l.567-2.935h.567l-1.144 6.067h-.585l-.64-3.16a19.675 19.675 0 0 1-.297-1.882h-.018a31.874 31.874 0 0 1-.334 2.116l-.549 2.926h-.574zm4.114-.414c0-.288.225-.559.495-.559.306 0 .433.226.433.478 0 .315-.217.567-.496.567-.27 0-.432-.198-.432-.486zm3.681.341a1.83 1.83 0 0 1-.711.126c-.873 0-1.188-.711-1.188-1.558 0-1.269.747-2.916 2.169-2.916.189 0 .343.026.433.071l-.171.559c-.09-.027-.189-.063-.324-.063-.909 0-1.44 1.297-1.44 2.278 0 .639.188 1.071.693 1.071.171 0 .36-.045.531-.108l.008.54zm3.475-2.934c0 1.099-.541 3.079-1.873 3.079-.811 0-1.062-.702-1.062-1.477 0-1.171.631-3.025 1.927-3.025.873 0 1.008.838 1.008 1.423zm-2.277 1.539c0 .495.035 1.009.494 1.009.793 0 1.125-1.854 1.125-2.593 0-.45-.08-.838-.459-.838-.72 0-1.16 1.567-1.16 2.422zm2.527 1.468l.531-2.863c.127-.63.189-1.143.234-1.494h.567l-.072.702h.019c.342-.54.729-.774 1.134-.774.46 0 .675.369.702.766.334-.522.748-.766 1.152-.766.504 0 .729.405.729.874 0 .216-.036.485-.099.792l-.522 2.764h-.64l.522-2.782c.045-.225.072-.432.072-.666 0-.261-.108-.423-.351-.423-.396 0-.855.585-1.018 1.44l-.469 2.431h-.621l.522-2.782c.045-.225.071-.423.071-.657 0-.27-.107-.432-.351-.432-.369 0-.864.621-1.017 1.44l-.46 2.431h-.635zm4.86 1.134c.261-.522.648-1.477.819-2.098l.783-.091c-.279.729-.793 1.72-1.099 2.125l-.503.064zm6.913-5.897c0 .766-.459 1.297-1.045 1.647l-.008.027c.377.324.693.783.693 1.44 0 .954-.738 1.72-1.639 1.72-.793 0-1.288-.55-1.288-1.333 0-.963.675-1.557 1.251-1.881v-.019c-.404-.396-.576-.765-.576-1.197 0-.819.64-1.566 1.495-1.566.793.001 1.117.604 1.117 1.162zm-1.007 3.124c0-.567-.252-.909-.64-1.206-.459.243-.99.819-.99 1.521 0 .54.226.909.685.909.575.001.945-.584.945-1.224zm-.973-2.736c0 .459.207.72.531.999.559-.352.828-.847.828-1.332 0-.45-.171-.729-.549-.729-.459-.001-.81.458-.81 1.062zm5.508.071c0 1.378-.558 4.376-2.151 4.376-.9 0-1.071-.964-1.071-1.72 0-1.594.676-4.276 2.152-4.276.962 0 1.07.99 1.07 1.62zm-2.574 2.665c0 .693.09 1.144.54 1.144.954 0 1.386-3.016 1.386-3.907 0-.423-.071-.954-.477-.954-.991-.001-1.449 2.682-1.449 3.717zm2.024 2.719c1.071-1.206 1.801-2.943 1.801-4.708 0-1.045-.081-1.882-.369-2.602h.522c.306.729.423 1.665.423 2.557 0 1.899-.802 3.646-1.782 4.753h-.595zm-39.347 7.245c.135.09.351.207.675.207.44-.01.702-.324.702-.738 0-.388-.189-.621-.441-.847-.297-.27-.566-.648-.566-1.062 0-.738.539-1.314 1.359-1.314.287 0 .539.072.675.172l-.181.495a1.097 1.097 0 0 0-.504-.136c-.449 0-.702.298-.702.676 0 .342.198.54.405.729.342.298.612.702.612 1.144 0 .937-.612 1.404-1.423 1.404-.342 0-.684-.135-.811-.233l.2-.497zm5.59-2.332c0 1.099-.541 3.079-1.873 3.079-.811 0-1.062-.702-1.062-1.477 0-1.171.631-3.025 1.927-3.025.873 0 1.008.838 1.008 1.423zm-2.277 1.539c0 .495.035 1.009.494 1.009.793 0 1.125-1.854 1.125-2.593 0-.45-.08-.838-.459-.838-.72 0-1.16 1.567-1.16 2.422zm4.607 1.395a1.83 1.83 0 0 1-.711.126c-.873 0-1.188-.711-1.188-1.558 0-1.269.747-2.916 2.169-2.916.189 0 .343.026.433.071l-.171.559c-.09-.027-.189-.063-.324-.063-.909 0-1.44 1.297-1.44 2.278 0 .639.188 1.071.693 1.071.171 0 .36-.045.531-.108l.008.54zm.539.073l1.18-6.229h.639l-.711 3.754h.018c.1-.135.217-.307.289-.414l1.115-1.468h.748l-1.486 1.837.847 2.521h-.666l-.675-2.151-.334.414-.332 1.737h-.632zm5.365-.216c-.315.171-.648.27-1.026.27-.919 0-1.216-.702-1.216-1.539 0-1.18.658-2.944 1.9-2.944.639 0 .9.486.9.99 0 1.054-.938 1.504-2.125 1.513-.018.126-.045.612.027.873.099.369.323.567.666.567.342 0 .576-.117.773-.233l.101.503zm-.441-3.656c-.387 0-.801.478-1.035 1.423.693-.01 1.422-.243 1.422-.945 0-.307-.125-.478-.387-.478zm2.889-1.629l-.234 1.144h.829l-.099.504h-.82l-.468 2.485a3.153 3.153 0 0 0-.063.549c0 .216.082.333.298.333.116 0 .188 0 .271-.018l-.055.504a1.717 1.717 0 0 1-.469.063c-.459 0-.729-.271-.729-.703 0-.171.018-.351.09-.702l.477-2.512h-.521l.09-.504h.531l.18-.945.692-.198zm1.349 7.229l.864-4.546c.117-.622.188-1.171.243-1.54h.576l-.1.711h.019c.288-.468.693-.783 1.126-.783.629 0 .801.595.801 1.243 0 1.35-.703 3.259-2.008 3.259-.18 0-.396-.055-.521-.145h-.019l-.333 1.801h-.648zm1.09-2.341c.117.09.252.162.414.162 1.008 0 1.368-1.998 1.368-2.646 0-.424-.081-.757-.423-.757-.433 0-.892.702-1.045 1.521l-.314 1.72zm5.796-2.394c0 1.099-.54 3.079-1.872 3.079-.811 0-1.062-.702-1.062-1.477 0-1.171.63-3.025 1.926-3.025.873 0 1.008.838 1.008 1.423zm-2.277 1.539c0 .495.036 1.009.495 1.009.792 0 1.125-1.854 1.125-2.593 0-.45-.081-.838-.459-.838-.721 0-1.161 1.567-1.161 2.422zm5.625-1.539c0 1.099-.54 3.079-1.872 3.079-.811 0-1.062-.702-1.062-1.477 0-1.171.63-3.025 1.926-3.025.873 0 1.008.838 1.008 1.423zm-2.278 1.539c0 .495.036 1.009.495 1.009.792 0 1.125-1.854 1.125-2.593 0-.45-.081-.838-.459-.838-.72 0-1.161 1.567-1.161 2.422zm2.529 1.468l1.17-6.229h.658l-1.189 6.229h-.639zm-169.229-15.23c-1.081 1.206-1.8 2.935-1.8 4.699 0 1.044.09 1.882.378 2.61h-.513c-.315-.729-.441-1.665-.441-2.565 0-1.899.81-3.637 1.8-4.744h.576zm-.559 6.23l1.17-6.229h.657l-.468 2.484h.018c.306-.45.657-.685 1.081-.685.522 0 .738.405.738.883 0 .233-.027.432-.081.729l-.531 2.817h-.648l.54-2.845c.036-.189.054-.369.054-.585 0-.271-.117-.441-.378-.441-.432 0-.9.648-1.036 1.377l-.477 2.494h-.639zm5.338-5.501l-.234 1.144h.829l-.099.504h-.819l-.468 2.485a3.153 3.153 0 0 0-.063.549c0 .216.081.333.297.333.117 0 .189 0 .27-.018l-.054.504a1.72 1.72 0 0 1-.468.063c-.459 0-.729-.271-.729-.703 0-.171.018-.351.09-.702l.477-2.512h-.522l.09-.504h.531l.18-.945.692-.198zm2.16 0l-.234 1.144h.829l-.099.504h-.819l-.468 2.485a3.153 3.153 0 0 0-.063.549c0 .216.081.333.297.333.117 0 .189 0 .27-.018l-.054.504a1.72 1.72 0 0 1-.468.063c-.459 0-.729-.271-.729-.703 0-.171.018-.351.09-.702l.477-2.512h-.522l.09-.504h.531l.18-.945.692-.198zm.026 7.229l.864-4.546c.117-.622.189-1.171.243-1.54h.576l-.098.711h.018c.288-.468.693-.783 1.125-.783.63 0 .801.595.801 1.243 0 1.35-.702 3.259-2.007 3.259a.985.985 0 0 1-.522-.145h-.018l-.333 1.801h-.649zm1.089-2.341c.117.09.252.162.414.162 1.008 0 1.369-1.998 1.369-2.646 0-.424-.081-.757-.423-.757-.432 0-.891.702-1.044 1.521l-.316 1.72zm2.718-.062c.135.09.351.207.675.207.441-.01.702-.324.702-.738 0-.388-.189-.621-.441-.847-.297-.27-.567-.648-.567-1.062 0-.738.54-1.314 1.359-1.314.288 0 .54.072.675.172l-.18.495a1.1 1.1 0 0 0-.504-.136c-.45 0-.703.298-.703.676 0 .342.198.54.405.729.342.298.612.702.612 1.144 0 .937-.612 1.404-1.422 1.404-.342 0-.684-.135-.811-.233l.2-.497zm1.953 1.809c.261-.522.648-1.477.819-2.098l.783-.091c-.279.729-.792 1.72-1.098 2.125l-.504.064zm3.537-1.809c.135.09.351.207.675.207.441-.01.702-.324.702-.738 0-.388-.189-.621-.441-.847-.297-.27-.567-.648-.567-1.062 0-.738.54-1.314 1.359-1.314.288 0 .54.072.675.172l-.18.495a1.1 1.1 0 0 0-.504-.136c-.45 0-.703.298-.703.676 0 .342.198.54.405.729.342.298.612.702.612 1.144 0 .937-.612 1.404-1.422 1.404-.342 0-.684-.135-.811-.233l.2-.497zm2.519.675l.828-4.357h.648l-.837 4.357h-.639zm.982-5.465c.009-.233.189-.459.432-.459.252 0 .369.189.351.423-.018.298-.216.459-.45.459s-.36-.171-.333-.423zm2.43-.036l-.234 1.144h.829l-.099.504h-.819l-.468 2.485a3.153 3.153 0 0 0-.063.549c0 .216.081.333.297.333.117 0 .189 0 .27-.018l-.054.504a1.72 1.72 0 0 1-.468.063c-.459 0-.729-.271-.729-.703 0-.171.018-.351.09-.702l.477-2.512h-.522l.09-.504h.531l.18-.945.692-.198zm2.655 5.285c-.315.171-.648.27-1.026.27-.918 0-1.215-.702-1.215-1.539 0-1.18.657-2.944 1.899-2.944.639 0 .9.486.9.99 0 1.054-.937 1.504-2.125 1.513-.018.126-.045.612.027.873.099.369.324.567.666.567s.576-.117.774-.233l.1.503zm-.441-3.656c-.387 0-.801.478-1.035 1.423.693-.01 1.422-.243 1.422-.945 0-.307-.126-.478-.387-.478zm2.241 2.035l-.738 1.837h-.648l2.512-6.067h.72l.189 6.067h-.63l-.045-1.837h-1.36zm1.359-.513l-.027-1.575c-.009-.424 0-.937 0-1.396h-.027c-.162.468-.333.999-.504 1.404l-.621 1.566h1.179zm1.404 1.936c0-.288.225-.559.495-.559.306 0 .432.226.432.478 0 .315-.216.567-.495.567-.271 0-.432-.198-.432-.486zm3.681.341a1.83 1.83 0 0 1-.711.126c-.873 0-1.188-.711-1.188-1.558 0-1.269.747-2.916 2.169-2.916.189 0 .342.026.432.071l-.171.559c-.09-.027-.189-.063-.324-.063-.909 0-1.44 1.297-1.44 2.278 0 .639.189 1.071.693 1.071.171 0 .36-.045.531-.108l.009.54zm3.474-2.934c0 1.099-.54 3.079-1.873 3.079-.81 0-1.062-.702-1.062-1.477 0-1.171.63-3.025 1.926-3.025.874 0 1.009.838 1.009 1.423zm-2.277 1.539c0 .495.036 1.009.495 1.009.792 0 1.125-1.854 1.125-2.593 0-.45-.081-.838-.459-.838-.72 0-1.161 1.567-1.161 2.422zm2.528 1.468l.531-2.863c.126-.63.189-1.143.234-1.494h.567l-.072.702h.018c.342-.54.729-.774 1.134-.774.459 0 .675.369.703.766.333-.522.747-.766 1.152-.766.504 0 .729.405.729.874 0 .216-.036.485-.099.792l-.522 2.764h-.639l.522-2.782c.045-.225.072-.432.072-.666 0-.261-.108-.423-.351-.423-.396 0-.855.585-1.018 1.44l-.468 2.431h-.621l.522-2.782c.045-.225.072-.423.072-.657 0-.27-.108-.432-.351-.432-.369 0-.864.621-1.017 1.44l-.459 2.431h-.639zm4.86 1.134c.261-.522.648-1.477.819-2.098l.783-.091c-.279.729-.792 1.72-1.098 2.125l-.504.064zm5.148-1.134l.315-1.63h-1.89l.081-.459 2.565-3.763h.639l-.702 3.682h.639l-.108.54h-.63l-.315 1.63h-.594zm.424-2.17l.306-1.62c.09-.423.198-.811.288-1.225h-.027c-.288.495-.459.792-.766 1.242l-1.071 1.585v.018h1.27zm3.05 2.17l.315-1.63h-1.891l.081-.459 2.565-3.763h.639l-.702 3.682h.639l-.108.54h-.63l-.315 1.63h-.593zm.423-2.17l.306-1.62c.09-.423.198-.811.288-1.225h-.027c-.288.495-.459.792-.766 1.242l-1.071 1.585v.018h1.27zm1.611 1.504c.171.081.414.162.702.162.738 0 1.251-.621 1.251-1.359 0-.747-.477-1.081-.972-1.071h-.153l.099-.514h.117c.486-.009 1.233-.396 1.233-1.179 0-.495-.279-.712-.702-.712-.243 0-.495.09-.63.171l-.063-.54a2.01 2.01 0 0 1 .918-.216c.792 0 1.161.549 1.161 1.152 0 .828-.558 1.359-1.116 1.566v.019c.468.152.774.657.774 1.269 0 1.171-.837 1.99-1.936 1.99-.342 0-.675-.081-.855-.189l.172-.549zm2.708 1.746c1.071-1.206 1.801-2.943 1.801-4.708 0-1.045-.081-1.882-.369-2.602h.522c.306.729.423 1.665.423 2.557 0 1.899-.801 3.646-1.783 4.753h-.594zm-42.361 7.245c.135.09.351.207.675.207.441-.01.702-.324.702-.738 0-.388-.189-.621-.441-.847-.297-.27-.567-.648-.567-1.062 0-.738.54-1.314 1.359-1.314.288 0 .54.072.675.172l-.18.495a1.1 1.1 0 0 0-.504-.136c-.45 0-.703.298-.703.676 0 .342.198.54.405.729.342.298.612.702.612 1.144 0 .937-.612 1.404-1.422 1.404-.342 0-.684-.135-.811-.233l.2-.497zm5.59-2.332c0 1.099-.54 3.079-1.873 3.079-.81 0-1.062-.702-1.062-1.477 0-1.171.63-3.025 1.926-3.025.874 0 1.009.838 1.009 1.423zm-2.278 1.539c0 .495.036 1.009.495 1.009.792 0 1.125-1.854 1.125-2.593 0-.45-.081-.838-.459-.838-.72 0-1.161 1.567-1.161 2.422zm4.608 1.395a1.83 1.83 0 0 1-.711.126c-.873 0-1.188-.711-1.188-1.558 0-1.269.747-2.916 2.169-2.916.189 0 .342.026.432.071l-.171.559c-.09-.027-.189-.063-.324-.063-.909 0-1.44 1.297-1.44 2.278 0 .639.189 1.071.693 1.071.171 0 .36-.045.531-.108l.009.54zm.539.073l1.18-6.229h.639l-.711 3.754h.018c.099-.135.216-.307.288-.414l1.116-1.468h.747l-1.485 1.837.846 2.521h-.666l-.675-2.151-.333.414-.333 1.737h-.631zm5.366-.216c-.315.171-.648.27-1.026.27-.918 0-1.215-.702-1.215-1.539 0-1.18.657-2.944 1.899-2.944.639 0 .9.486.9.99 0 1.054-.937 1.504-2.125 1.513-.018.126-.045.612.027.873.099.369.324.567.666.567s.576-.117.774-.233l.1.503zm-.442-3.656c-.387 0-.801.478-1.035 1.423.693-.01 1.422-.243 1.422-.945 0-.307-.126-.478-.387-.478zm2.889-1.629l-.234 1.144h.829l-.099.504h-.819l-.468 2.485a3.153 3.153 0 0 0-.063.549c0 .216.081.333.297.333.117 0 .189 0 .27-.018l-.054.504a1.72 1.72 0 0 1-.468.063c-.459 0-.729-.271-.729-.703 0-.171.018-.351.09-.702l.477-2.512h-.522l.09-.504h.531l.18-.945.692-.198zm1.349 7.229l.864-4.546c.117-.622.189-1.171.243-1.54h.576l-.099.711h.018c.288-.468.693-.783 1.125-.783.63 0 .801.595.801 1.243 0 1.35-.703 3.259-2.008 3.259a.985.985 0 0 1-.522-.145h-.018l-.333 1.801h-.647zm1.09-2.341c.117.09.252.162.414.162 1.008 0 1.369-1.998 1.369-2.646 0-.424-.081-.757-.423-.757-.432 0-.891.702-1.044 1.521l-.316 1.72zm5.796-2.394c0 1.099-.54 3.079-1.873 3.079-.81 0-1.062-.702-1.062-1.477 0-1.171.63-3.025 1.926-3.025.874 0 1.009.838 1.009 1.423zm-2.277 1.539c0 .495.036 1.009.495 1.009.792 0 1.125-1.854 1.125-2.593 0-.45-.081-.838-.459-.838-.72 0-1.161 1.567-1.161 2.422zm5.625-1.539c0 1.099-.54 3.079-1.873 3.079-.81 0-1.062-.702-1.062-1.477 0-1.171.63-3.025 1.926-3.025.874 0 1.009.838 1.009 1.423zm-2.277 1.539c0 .495.036 1.009.495 1.009.792 0 1.125-1.854 1.125-2.593 0-.45-.081-.838-.459-.838-.721 0-1.161 1.567-1.161 2.422zm2.528 1.468l1.17-6.229h.657l-1.188 6.229h-.639z"/></svg>