<svg xmlns="http://www.w3.org/2000/svg" xmlns:xlink="http://www.w3.org/1999/xlink" viewBox="0 0 286.827 133.658"><path fill="none" stroke="#000" stroke-linecap="round" stroke-linejoin="round" d="M192.618 45.561v41.703"/><path d="M189.617 86.389l2.991 5.181 2.992-5.181z"/><image width="368" height="114" xlink:href="1F6735624172782.png" transform="scale(.24)" overflow="visible"/><path fill-rule="evenodd" clip-rule="evenodd" fill="#fff" d="M3.38 3.38h78.472v17.708H3.38z"/><path fill="none" stroke="#000" stroke-linecap="round" stroke-linejoin="round" d="M3.38 3.38h78.472v17.708H3.38z"/><image width="368" height="114" xlink:href="1F6735624172786.png" transform="matrix(.24 0 0 .24 0 17.707)" overflow="visible"/><path fill-rule="evenodd" clip-rule="evenodd" fill="#fff" d="M3.38 21.087h78.472v17.708H3.38z"/><path fill="none" stroke="#000" stroke-linecap="round" stroke-linejoin="round" d="M3.38 21.087h78.472v17.708H3.38z"/><image width="368" height="114" xlink:href="1F6735624172781.png" transform="matrix(.24 0 0 .24 0 35.415)" overflow="visible"/><path fill-rule="evenodd" clip-rule="evenodd" fill="#fff" d="M3.38 38.795h78.472v17.708H3.38z"/><path fill="none" stroke="#000" stroke-linecap="round" stroke-linejoin="round" d="M3.38 38.795h78.472v17.708H3.38z"/><image width="368" height="156" xlink:href="1F6735624172783.png" transform="translate(150) scale(.24)" overflow="visible"/><path fill-rule="evenodd" clip-rule="evenodd" fill="#b2dec7" d="M153.38 3.38h78.472v27.708H153.38z"/><path fill="none" stroke="#000" stroke-linecap="round" stroke-linejoin="round" d="M153.38 3.38h78.472v27.708H153.38z"/><image width="368" height="114" xlink:href="1F6735624172780.png" transform="matrix(.24 0 0 .24 150 27.707)" overflow="visible"/><path fill-rule="evenodd" clip-rule="evenodd" fill="#b2dec7" d="M153.38 31.087h78.472v17.708H153.38z"/><path fill="none" stroke="#000" stroke-linecap="round" stroke-linejoin="round" d="M153.38 31.087h78.472v17.708H153.38z"/><image width="368" height="114" xlink:href="1F673562417278E.png" transform="matrix(.24 0 0 .24 150 45.415)" overflow="visible"/><path fill-rule="evenodd" clip-rule="evenodd" fill="#fddfbb" d="M153.38 48.795h78.472v17.708H153.38z"/><path fill="none" stroke="#000" stroke-linecap="round" stroke-linejoin="round" d="M153.38 48.795h78.472v17.708H153.38z"/><g><image width="368" height="114" xlink:href="1F6735624172785.png" transform="matrix(.24 0 0 .24 0 53.123)" overflow="visible"/><path fill-rule="evenodd" clip-rule="evenodd" fill="#fff" d="M3.38 56.502h78.472V74.21H3.38z"/><path fill="none" stroke="#000" stroke-linecap="round" stroke-linejoin="round" d="M3.38 56.502h78.472V74.21H3.38z"/></g><g><image width="368" height="114" xlink:href="1F6735624172787.png" transform="matrix(.24 0 0 .24 0 70.83)" overflow="visible"/><path fill-rule="evenodd" clip-rule="evenodd" fill="#fff" d="M3.38 74.21h78.472v17.708H3.38z"/><path fill="none" stroke="#000" stroke-linecap="round" stroke-linejoin="round" d="M3.38 74.21h78.472v17.708H3.38z"/></g><g><image width="368" height="114" xlink:href="1F6735624172784.png" transform="matrix(.24 0 0 .24 0 88.538)" overflow="visible"/><path fill-rule="evenodd" clip-rule="evenodd" fill="#b2dec7" d="M3.38 91.918h78.472v17.708H3.38z"/><path fill="none" stroke="#000" stroke-linecap="round" stroke-linejoin="round" d="M3.38 91.918h78.472v17.708H3.38z"/></g><g><image width="368" height="114" xlink:href="489EAB733758B615.png" transform="matrix(.24 0 0 .24 0 106.245)" overflow="visible"/><path fill-rule="evenodd" clip-rule="evenodd" fill="#fddfbb" d="M3.38 109.625h78.472v17.708H3.38z"/><path fill="none" stroke="#000" stroke-linecap="round" stroke-linejoin="round" d="M3.38 109.625h78.472v17.708H3.38z"/></g><g><image width="187" height="188" xlink:href="489EAB733758B62B.png" transform="matrix(.24 0 0 .24 101.389 88.538)" overflow="visible"/><path fill-rule="evenodd" clip-rule="evenodd" fill="#ecbec0" d="M104.769 91.918h35.14v35.415h-35.14z"/><path fill="none" stroke="#000" stroke-linecap="round" stroke-linejoin="round" d="M104.769 91.918h35.14v35.415h-35.14z"/></g><g><image width="187" height="188" xlink:href="489EAB733758B62D.png" transform="matrix(.24 0 0 .24 136.528 88.538)" overflow="visible"/><path fill-rule="evenodd" clip-rule="evenodd" fill="#fddfbb" d="M139.908 91.918h35.139v35.415h-35.139z"/><path fill="none" stroke="#000" stroke-linecap="round" stroke-linejoin="round" d="M139.908 91.918h35.139v35.415h-35.139z"/></g><g><image width="187" height="188" xlink:href="489EAB733758B62F.png" transform="matrix(.24 0 0 .24 171.668 88.538)" overflow="visible"/><path fill-rule="evenodd" clip-rule="evenodd" fill="#fddfbb" d="M175.047 91.918h35.14v35.415h-35.14z"/><path fill="none" stroke="#000" stroke-linecap="round" stroke-linejoin="round" d="M175.047 91.918h35.14v35.415h-35.14z"/></g><g><image width="187" height="188" xlink:href="489EAB733758B62C.png" transform="matrix(.24 0 0 .24 206.807 88.538)" overflow="visible"/><path fill-rule="evenodd" clip-rule="evenodd" fill="#fddfbb" d="M210.187 91.918h35.14v35.415h-35.14z"/><path fill="none" stroke="#000" stroke-linecap="round" stroke-linejoin="round" d="M210.187 91.918h35.14v35.415h-35.14z"/></g><g><image width="187" height="188" xlink:href="489EAB733758B634.png" transform="matrix(.24 0 0 .24 241.947 88.538)" overflow="visible"/><path fill-rule="evenodd" clip-rule="evenodd" fill="#fddfbb" d="M245.327 91.918h35.14v35.415h-35.14z"/><path fill="none" stroke="#000" stroke-linecap="round" stroke-linejoin="round" d="M245.327 91.918h35.14v35.415h-35.14z"/></g><path d="M147.812 48.795c-9.408-3.248 3.39-20.179-5.462-22.707 8.852-2.529-3.945-19.459 5.462-22.708" fill="none" stroke="#000" stroke-linejoin="round"/><path fill-rule="evenodd" clip-rule="evenodd" fill="#fddfbb" stroke="#000" stroke-linecap="round" stroke-linejoin="round" d="M81.852 100.771l58.056-70.83"/><g><path d="M25.652 9.023v.414l-1.891 5.438h-.675l1.855-5.222v-.017h-2.107v-.613h2.818zM29.621 12.255v.54h-1.972v-.54h1.972zM32.573 13.057l-.405 1.818h-.666l1.386-6.067h.765l1.351 6.067h-.684l-.405-1.818h-1.342zm1.251-.559l-.315-1.539c-.09-.433-.171-.937-.243-1.387h-.036c-.072.459-.162.981-.243 1.387l-.315 1.539h1.152zM35.669 11.877c0-.666-.027-1.053-.036-1.359h.622l.036.559h.018c.234-.469.576-.631.918-.631.756 0 1.26.811 1.26 2.242 0 1.611-.666 2.26-1.351 2.26-.405 0-.639-.262-.756-.505h-.018v2.161h-.693v-4.727zm.693 1.395c0 .135 0 .261.027.36.135.621.45.738.639.738.576 0 .756-.792.756-1.675 0-.9-.216-1.656-.765-1.656-.315 0-.594.396-.639.792-.018.108-.018.216-.018.333v1.108zM39.259 11.877c0-.666-.027-1.053-.036-1.359h.622l.036.559h.018c.234-.469.576-.631.918-.631.756 0 1.26.811 1.26 2.242 0 1.611-.666 2.26-1.351 2.26-.405 0-.639-.262-.756-.505h-.018v2.161h-.693v-4.727zm.694 1.395c0 .135 0 .261.027.36.135.621.45.738.639.738.576 0 .756-.792.756-1.675 0-.9-.216-1.656-.765-1.656-.315 0-.594.396-.639.792-.018.108-.018.216-.018.333v1.108zM42.859 8.646h.693v6.229h-.693V8.646zM45.325 9.393c.009.27-.162.45-.423.45-.225 0-.396-.181-.396-.45 0-.271.18-.45.405-.45.252-.001.414.179.414.45zm-.747 5.482v-4.357h.693v4.357h-.693zM48.358 14.767c-.153.091-.414.162-.72.162-.955 0-1.594-.765-1.594-2.205 0-1.252.63-2.269 1.72-2.269.234 0 .486.062.612.135l-.135.567a1.13 1.13 0 0 0-.495-.117c-.693 0-1.008.828-1.008 1.684 0 1.017.387 1.629 1.026 1.629.189 0 .342-.045.504-.117l.09.531zM50.698 14.875l-.045-.459h-.027c-.189.333-.495.531-.864.531-.585 0-1.036-.495-1.036-1.242 0-1.09.874-1.576 1.855-1.585v-.135c0-.585-.145-.99-.693-.99-.27 0-.513.09-.72.225l-.153-.486c.18-.135.585-.288 1.018-.288.873 0 1.251.576 1.251 1.558v1.882c0 .333 0 .711.045.99h-.631zm-.099-2.251c-.36 0-1.197.063-1.197 1.009 0 .567.288.774.531.774.306 0 .567-.226.648-.657.018-.081.018-.171.018-.243v-.883zM53.02 9.365v1.152h.837v.531h-.837v2.584c0 .567.207.72.459.72.108 0 .198-.009.279-.026l.027.531a1.522 1.522 0 0 1-.513.071c-.27 0-.513-.071-.684-.261-.171-.198-.261-.495-.261-1.099v-2.521h-.531v-.531h.531v-.953l.693-.198zM55.215 9.393c.009.27-.162.45-.423.45-.225 0-.396-.181-.396-.45 0-.271.18-.45.405-.45.252-.001.414.179.414.45zm-.747 5.482v-4.357h.693v4.357h-.693zM58.798 12.696c0 1.684-.783 2.251-1.45 2.251-.783 0-1.414-.712-1.414-2.242 0-1.593.711-2.26 1.458-2.26.776 0 1.406.73 1.406 2.251zm-2.17 0c0 .721.126 1.701.756 1.701.594 0 .711-1.026.711-1.701 0-.666-.117-1.692-.729-1.692-.621 0-.738 1.026-.738 1.692zM59.571 11.643c0-.513-.027-.773-.036-1.125h.603l.036.522h.018c.189-.352.54-.595.999-.595.604 0 1.054.45 1.054 1.504v2.926h-.693v-2.809c0-.514-.099-1.035-.603-1.035-.288 0-.567.243-.657.711a2.445 2.445 0 0 0-.027.387v2.746h-.693v-3.232zM25.374 27.244c-.117.01-.243.027-.415.063-.972.233-1.359 1.206-1.503 2.106h.027c.225-.333.549-.559.99-.559.747 0 1.26.685 1.26 1.801 0 1.107-.504 1.999-1.44 1.999-1.017 0-1.53-1.035-1.53-2.377 0-1.135.297-2.017.756-2.638.352-.495.91-.819 1.414-.928.189-.035.342-.045.441-.054v.587zm-.334 3.467c0-.883-.306-1.324-.783-1.324-.288 0-.585.198-.756.631a.934.934 0 0 0-.054.351c.009 1.197.378 1.747.846 1.747.396-.001.747-.388.747-1.405zM29.621 29.963v.54h-1.972v-.54h1.972zM31.843 26.605a4.028 4.028 0 0 1 1.008-.117c.558 0 1.026.135 1.341.45.297.288.45.729.45 1.251 0 .559-.135.937-.369 1.242-.333.45-.891.676-1.431.676-.117 0-.207 0-.306-.009v2.484h-.693v-5.977zm.694 2.908c.081.019.153.027.27.027.684 0 1.144-.45 1.144-1.306 0-.621-.261-1.179-1.026-1.179-.162 0-.297.018-.387.045v2.413zM35.317 29.351c0-.368-.027-.801-.036-1.125h.622l.036.685h.018c.144-.414.513-.757.918-.757.054 0 .099.01.144.01v.711c-.045-.009-.09-.009-.144-.009-.441 0-.765.404-.837.909a2.65 2.65 0 0 0-.027.396v2.413h-.693v-3.233zM37.919 30.468c.009 1.332.531 1.62 1.036 1.62.297 0 .549-.072.72-.171l.108.513c-.243.136-.612.207-.955.207-1.044 0-1.584-.854-1.584-2.187 0-1.413.594-2.296 1.468-2.296.891 0 1.242.937 1.242 1.927 0 .162 0 .279-.009.388h-2.026zm1.368-.514c.018-.873-.315-1.261-.648-1.261-.45 0-.684.667-.711 1.261h1.359zM40.583 31.863c.153.099.423.225.702.225.396 0 .639-.243.639-.63 0-.333-.117-.559-.558-.855-.567-.369-.873-.738-.873-1.242 0-.702.522-1.207 1.197-1.207.342 0 .603.117.783.226l-.189.522a1.024 1.024 0 0 0-.576-.189.534.534 0 0 0-.567.549c0 .298.108.459.54.757.504.324.9.72.9 1.323 0 .873-.594 1.296-1.305 1.296-.324 0-.675-.099-.864-.252l.171-.523zM43.787 30.468c.009 1.332.531 1.62 1.036 1.62.297 0 .549-.072.72-.171l.108.513c-.243.136-.612.207-.955.207-1.044 0-1.584-.854-1.584-2.187 0-1.413.594-2.296 1.468-2.296.891 0 1.242.937 1.242 1.927 0 .162 0 .279-.009.388h-2.026zm1.368-.514c.018-.873-.315-1.261-.648-1.261-.45 0-.684.667-.711 1.261h1.359zM46.568 29.351c0-.513-.027-.773-.036-1.125h.603l.036.522h.018c.189-.352.54-.595.999-.595.604 0 1.054.45 1.054 1.504v2.926h-.693v-2.809c0-.514-.099-1.035-.603-1.035-.288 0-.567.243-.657.711a2.445 2.445 0 0 0-.027.387v2.746h-.693v-3.232zM51.005 27.073v1.152h.837v.531h-.837v2.584c0 .567.207.72.459.72.108 0 .198-.009.279-.026l.027.531a1.522 1.522 0 0 1-.513.071c-.27 0-.513-.071-.684-.261-.171-.198-.261-.495-.261-1.099v-2.521h-.532v-.531h.531v-.954l.694-.197zM54.173 32.583l-.045-.459h-.027c-.189.333-.495.531-.864.531-.585 0-1.036-.495-1.036-1.242 0-1.09.874-1.576 1.854-1.585v-.135c0-.585-.144-.99-.693-.99-.27 0-.513.09-.72.225l-.153-.486c.18-.135.585-.288 1.018-.288.873 0 1.251.576 1.251 1.558v1.882c0 .333 0 .711.045.99h-.63zm-.099-2.251c-.36 0-1.197.063-1.197 1.009 0 .567.288.774.531.774.306 0 .567-.226.648-.657.018-.081.018-.171.018-.243v-.883zM56.495 27.073v1.152h.837v.531h-.837v2.584c0 .567.207.72.459.72.108 0 .198-.009.279-.026l.027.531a1.522 1.522 0 0 1-.513.071c-.27 0-.513-.071-.684-.261-.171-.198-.261-.495-.261-1.099v-2.521h-.532v-.531h.531v-.954l.694-.197zM58.69 27.101c.009.27-.162.45-.423.45-.225 0-.396-.181-.396-.45 0-.271.18-.45.405-.45.252-.001.414.179.414.45zm-.747 5.482v-4.357h.693v4.357h-.693zM62.273 30.404c0 1.684-.784 2.251-1.45 2.251-.783 0-1.414-.712-1.414-2.242 0-1.593.711-2.26 1.458-2.26.776 0 1.406.73 1.406 2.251zm-2.17 0c0 .721.126 1.701.756 1.701.594 0 .711-1.026.711-1.701 0-.666-.117-1.692-.729-1.692-.621 0-.738 1.026-.738 1.692zM63.046 29.351c0-.513-.027-.773-.036-1.125h.603l.036.522h.018c.189-.352.54-.595.999-.595.604 0 1.054.45 1.054 1.504v2.926h-.693v-2.809c0-.514-.099-1.035-.603-1.035-.288 0-.567.243-.657.711a2.445 2.445 0 0 0-.027.387v2.746h-.693v-3.232z"/><g><path d="M25.5 45.051h-1.576l-.243 1.558c.072-.019.135-.019.216-.019.315 0 .801.135 1.116.441.306.306.486.738.486 1.332 0 1.161-.729 1.999-1.774 1.999-.351 0-.756-.1-.99-.252l.153-.559c.18.108.495.234.819.234.594 0 1.107-.459 1.107-1.351 0-.928-.567-1.314-1.323-1.314-.216 0-.351.009-.459.027l.369-2.71H25.5v.614zM29.621 47.67v.54h-1.972v-.54h1.972zM31.709 49.489c.207.135.567.242.873.242.63 0 1.008-.414 1.008-1.026 0-.558-.324-.899-.801-1.26-.477-.333-1.143-.9-1.143-1.684 0-.918.639-1.594 1.603-1.594.378 0 .711.117.855.226l-.171.594a1.276 1.276 0 0 0-.72-.207c-.594 0-.874.45-.874.864 0 .604.315.837.892 1.252.729.513 1.053 1.071 1.053 1.746 0 1.044-.738 1.701-1.702 1.701-.414 0-.855-.135-1.026-.261l.153-.593zM35.587 48.175c.009 1.332.531 1.62 1.036 1.62.297 0 .549-.072.72-.171l.108.513c-.243.136-.612.207-.955.207-1.044 0-1.584-.854-1.584-2.188 0-1.413.594-2.296 1.468-2.296.891 0 1.242.937 1.242 1.927 0 .162 0 .279-.009.388h-2.026zm1.369-.514c.018-.873-.315-1.261-.648-1.261-.45 0-.684.667-.711 1.261h1.359zM38.252 49.57c.153.099.423.225.702.225.396 0 .639-.243.639-.63 0-.333-.117-.559-.558-.855-.567-.369-.873-.738-.873-1.242 0-.702.522-1.207 1.197-1.207.342 0 .603.117.783.226l-.189.522a1.024 1.024 0 0 0-.576-.189.534.534 0 0 0-.567.549c0 .298.108.459.54.757.504.324.9.72.9 1.323 0 .873-.594 1.296-1.305 1.296-.324 0-.675-.099-.864-.252l.171-.523zM40.853 49.57c.153.099.423.225.702.225.396 0 .639-.243.639-.63 0-.333-.117-.559-.558-.855-.567-.369-.873-.738-.873-1.242 0-.702.522-1.207 1.197-1.207.342 0 .603.117.783.226l-.189.522a1.024 1.024 0 0 0-.576-.189.534.534 0 0 0-.567.549c0 .298.108.459.54.757.504.324.9.72.9 1.323 0 .873-.594 1.296-1.305 1.296-.324 0-.675-.099-.864-.252l.171-.523zM44.318 44.808c.009.27-.162.45-.423.45-.225 0-.396-.181-.396-.45 0-.271.18-.45.405-.45.252-.001.414.179.414.45zm-.747 5.482v-4.357h.693v4.357h-.693zM47.9 48.111c0 1.684-.783 2.251-1.45 2.251-.783 0-1.414-.712-1.414-2.242 0-1.593.711-2.26 1.458-2.26.776 0 1.406.73 1.406 2.251zm-2.169 0c0 .721.126 1.701.756 1.701.594 0 .711-1.026.711-1.701 0-.666-.117-1.692-.729-1.692-.621 0-.738 1.026-.738 1.692zM48.673 47.058c0-.513-.027-.773-.036-1.125h.603l.036.522h.018c.189-.352.54-.595.999-.595.604 0 1.054.45 1.054 1.504v2.926h-.693v-2.809c0-.514-.099-1.035-.603-1.035-.288 0-.567.243-.657.711a2.445 2.445 0 0 0-.027.387v2.746h-.693v-3.232z"/></g><g><path d="M160.086 13.943c0-.819.486-1.341.963-1.674l-.009-.019c-.486-.333-.766-.846-.766-1.342 0-.899.639-1.458 1.369-1.458.837 0 1.251.702 1.251 1.378 0 .513-.243 1.008-.783 1.377v.027c.54.359.936.891.936 1.593 0 .909-.603 1.621-1.503 1.621-.972.001-1.458-.773-1.458-1.503zm2.278-.072c0-.675-.387-1.053-.837-1.35-.468.288-.756.792-.756 1.305 0 .657.297 1.107.801 1.107.431.001.792-.332.792-1.062zm-1.423-3.007c0 .595.36.892.72 1.126.351-.252.585-.64.585-1.081 0-.566-.234-.944-.657-.944-.387 0-.648.368-.648.899zM166.522 12.44c0 2.134-.676 3.007-1.521 3.007-.91 0-1.459-1.081-1.459-2.989 0-1.972.586-3.007 1.54-3.007.945 0 1.44 1.125 1.44 2.989zm-2.287.009c0 1.413.243 2.403.819 2.403.55 0 .774-.999.774-2.403 0-1.368-.225-2.403-.783-2.403s-.81.999-.81 2.403zM167.051 15.375v-.45l.496-.675c.693-.964 1.521-2.062 1.521-3.16 0-.648-.289-1.044-.838-1.044-.423 0-.693.225-.846.323l-.172-.521a1.834 1.834 0 0 1 1.144-.396c.973 0 1.396.721 1.396 1.603 0 1.099-.721 2.16-1.44 3.151l-.396.54v.018h1.953v.612h-2.818zM170.669 14.925c0-.306.208-.522.46-.522.278 0 .459.207.459.522s-.172.522-.459.522c-.261 0-.46-.207-.46-.522zM172.262 15.375v-.45l.496-.675c.693-.964 1.521-2.062 1.521-3.16 0-.648-.289-1.044-.838-1.044-.423 0-.693.225-.846.323l-.172-.521a1.834 1.834 0 0 1 1.144-.396c.973 0 1.396.721 1.396 1.603 0 1.099-.721 2.16-1.44 3.151l-.396.54v.018h1.953v.612h-2.818zM177.393 9.308h.693v5.482h1.71v.585h-2.403V9.308zM182.964 13.196c0 1.684-.784 2.251-1.45 2.251-.783 0-1.413-.712-1.413-2.242 0-1.593.712-2.26 1.458-2.26.776 0 1.405.73 1.405 2.251zm-2.17 0c0 .721.126 1.701.757 1.701.594 0 .711-1.026.711-1.701 0-.666-.117-1.692-.729-1.692-.621 0-.739 1.026-.739 1.692zM186.402 11.018c-.009.307-.036.693-.036 1.359v2.439c0 1.144-.145 1.576-.432 1.891-.262.298-.676.469-1.162.469-.369 0-.729-.09-.953-.216l.161-.541c.171.091.46.189.811.189.55 0 .892-.342.892-1.332v-.441h-.019a.886.886 0 0 1-.837.531c-.774 0-1.279-.873-1.279-2.152 0-1.602.73-2.269 1.369-2.269.469 0 .684.307.811.567h.018l.036-.495h.62zm-.72 1.503c0-.108-.01-.226-.037-.315-.08-.297-.233-.666-.629-.666-.505 0-.775.675-.775 1.639 0 1.116.352 1.62.775 1.62.207 0 .477-.099.621-.621.035-.135.045-.271.045-.396v-1.261zM188.075 9.893c.01.27-.162.45-.423.45-.226 0-.396-.181-.396-.45 0-.271.18-.45.404-.45.253-.001.415.179.415.45zm-.746 5.482v-4.357h.692v4.357h-.692zM191.108 15.267c-.152.091-.414.162-.72.162-.954 0-1.594-.765-1.594-2.205 0-1.252.63-2.269 1.72-2.269.234 0 .486.062.612.135l-.136.567a1.13 1.13 0 0 0-.494-.117c-.693 0-1.009.828-1.009 1.684 0 1.017.388 1.629 1.026 1.629.189 0 .342-.045.504-.117l.091.531zM193.448 15.375l-.045-.459h-.027c-.189.333-.494.531-.863.531-.586 0-1.036-.495-1.036-1.242 0-1.09.874-1.576 1.854-1.585v-.135c0-.585-.145-.99-.693-.99-.27 0-.513.09-.72.225l-.153-.486c.18-.135.586-.288 1.018-.288.873 0 1.252.576 1.252 1.558v1.882c0 .333 0 .711.045.99h-.632zm-.1-2.251c-.359 0-1.197.063-1.197 1.009 0 .567.289.774.531.774.307 0 .568-.226.648-.657.018-.081.018-.171.018-.243v-.883zM195.004 9.146h.693v6.229h-.693V9.146zM198.19 9.308h.693v5.482h1.711v.585h-2.404V9.308zM201.979 9.893c.01.27-.162.45-.423.45-.226 0-.396-.181-.396-.45 0-.271.18-.45.404-.45.253-.001.415.179.415.45zm-.746 5.482v-4.357h.692v4.357h-.692zM202.888 12.143c0-.513-.027-.773-.036-1.125h.604l.035.522h.019c.188-.352.54-.595.999-.595.604 0 1.054.45 1.054 1.504v2.926h-.693v-2.809c0-.514-.099-1.035-.603-1.035-.289 0-.568.243-.658.711a2.445 2.445 0 0 0-.027.387v2.746h-.692v-3.232zM207.217 13.043h.018c.082-.171.153-.342.234-.485l.864-1.54h.747l-1.152 1.837 1.252 2.521h-.774l-.945-2.053-.243.405v1.647h-.693V9.146h.693v3.897zM211.186 9.308h.693v5.482h1.711v.585h-2.404V9.308zM215.92 15.375l-.045-.459h-.026c-.188.333-.495.531-.864.531-.586 0-1.035-.495-1.035-1.242 0-1.09.873-1.576 1.854-1.585v-.135c0-.585-.143-.99-.692-.99-.271 0-.513.09-.72.225l-.154-.486c.181-.135.586-.288 1.018-.288.873 0 1.252.576 1.252 1.558v1.882c0 .333 0 .711.045.99h-.633zm-.098-2.251c-.36 0-1.197.063-1.197 1.009 0 .567.288.774.531.774.306 0 .567-.226.647-.657.019-.081.019-.171.019-.243v-.883zM217.748 11.018l.576 2.503c.081.342.126.63.181.9h.018c.045-.243.117-.576.189-.892l.513-2.512h.685l-.711 2.8c-.271 1.099-.568 2.151-1.081 2.809-.306.388-.63.595-.783.667l-.252-.595c.198-.107.414-.297.612-.549.18-.226.324-.522.396-.729a.632.632 0 0 0 .045-.216c0-.054 0-.108-.019-.162l-1.099-4.024h.73zM220.871 13.26c.009 1.332.531 1.62 1.036 1.62.297 0 .549-.072.72-.171l.108.513c-.244.136-.613.207-.955.207-1.044 0-1.584-.854-1.584-2.188 0-1.413.594-2.296 1.467-2.296.892 0 1.242.937 1.242 1.927 0 .162 0 .279-.008.388h-2.026zm1.368-.514c.019-.873-.314-1.261-.648-1.261-.449 0-.684.667-.711 1.261h1.359zM223.643 12.143c0-.368-.027-.801-.037-1.125h.622l.036.685h.018c.145-.414.514-.757.918-.757.055 0 .1.01.145.01v.711c-.045-.009-.09-.009-.145-.009-.441 0-.765.404-.837.909a2.53 2.53 0 0 0-.026.396v2.413h-.693v-3.233zM178.307 24.267c-.189.1-.486.162-.864.162-1.188 0-2.034-.954-2.034-3.016 0-2.395 1.188-3.16 2.143-3.16.369 0 .63.072.756.153l-.153.585a1.339 1.339 0 0 0-.612-.126c-.648 0-1.404.63-1.404 2.485 0 1.854.685 2.466 1.423 2.466.261 0 .495-.062.64-.135l.105.586zM181.475 22.196c0 1.684-.783 2.251-1.449 2.251-.783 0-1.414-.712-1.414-2.242 0-1.593.711-2.26 1.459-2.26.773 0 1.404.73 1.404 2.251zm-2.17 0c0 .721.126 1.701.756 1.701.595 0 .711-1.026.711-1.701 0-.666-.116-1.692-.729-1.692-.621 0-.738 1.026-.738 1.692zM182.249 21.143c0-.513-.027-.773-.037-1.125h.604l.036.522h.019c.188-.352.539-.595.998-.595.604 0 1.055.45 1.055 1.504v2.926h-.693v-2.809c0-.514-.1-1.035-.604-1.035-.288 0-.567.243-.657.711a2.331 2.331 0 0 0-.027.387v2.746h-.692v-3.232zM186.686 18.865v1.152h.836v.531h-.836v2.584c0 .567.207.72.459.72.107 0 .197-.009.279-.026l.026.531a1.522 1.522 0 0 1-.513.071c-.271 0-.514-.071-.685-.261-.171-.198-.261-.495-.261-1.099v-2.521h-.531v-.531h.531v-.954l.695-.197zM188.126 21.143c0-.368-.027-.801-.037-1.125h.622l.036.685h.018c.145-.414.514-.757.918-.757.055 0 .1.01.145.01v.711c-.045-.009-.09-.009-.145-.009-.441 0-.765.404-.837.909a2.53 2.53 0 0 0-.026.396v2.413h-.693v-3.233zM192.915 22.196c0 1.684-.783 2.251-1.45 2.251-.783 0-1.413-.712-1.413-2.242 0-1.593.711-2.26 1.458-2.26.774 0 1.405.73 1.405 2.251zm-2.17 0c0 .721.125 1.701.756 1.701.594 0 .711-1.026.711-1.701 0-.666-.117-1.692-.729-1.692-.621 0-.738 1.026-.738 1.692zM193.687 18.146h.692v6.229h-.692v-6.229zM198.385 18.146c-.514.81-.937 2.025-.937 3.664 0 1.611.423 2.826.937 3.646h-.541c-.467-.684-.99-1.891-.99-3.655.019-1.764.523-2.979.99-3.654h.541zM199.149 18.308h.693v5.482h1.711v.585h-2.404v-6.067zM202.245 18.308h.693v5.482h1.711v.585h-2.404v-6.067zM207.61 24.267c-.189.1-.486.162-.864.162-1.188 0-2.034-.954-2.034-3.016 0-2.395 1.188-3.16 2.143-3.16.369 0 .63.072.756.153l-.153.585a1.339 1.339 0 0 0-.612-.126c-.648 0-1.404.63-1.404 2.485 0 1.854.685 2.466 1.423 2.466.261 0 .495-.062.64-.135l.105.586zM208.059 25.455c.514-.81.936-2.043.936-3.664 0-1.62-.422-2.836-.936-3.646h.54c.468.666.99 1.863.99 3.646-.019 1.783-.522 2.971-.99 3.664h-.54z"/></g><g><path d="M178.149 41.151c0-.819.486-1.341.963-1.674l-.008-.019c-.486-.333-.766-.846-.766-1.342 0-.899.639-1.458 1.368-1.458.837 0 1.251.702 1.251 1.378 0 .513-.242 1.008-.783 1.377v.027c.541.359.937.891.937 1.593 0 .909-.603 1.621-1.503 1.621-.973.001-1.459-.774-1.459-1.503zm2.277-.072c0-.675-.387-1.053-.837-1.35-.468.288-.757.792-.757 1.305 0 .657.298 1.107.802 1.107.433 0 .792-.333.792-1.062zm-1.422-3.007c0 .595.359.892.721 1.126.351-.252.584-.64.584-1.081 0-.566-.233-.944-.656-.944-.387-.001-.649.368-.649.899zM184.585 39.648c0 2.134-.675 3.007-1.521 3.007-.908 0-1.458-1.081-1.458-2.989 0-1.972.585-3.007 1.54-3.007.944 0 1.439 1.125 1.439 2.989zm-2.288.009c0 1.413.244 2.403.82 2.403.549 0 .773-.999.773-2.403 0-1.368-.225-2.403-.783-2.403-.557-.001-.81.998-.81 2.403zM185.115 42.583v-.45l.495-.675c.693-.964 1.521-2.062 1.521-3.16 0-.648-.288-1.044-.838-1.044-.422 0-.692.225-.846.323l-.171-.521a1.832 1.832 0 0 1 1.144-.396c.973 0 1.395.721 1.395 1.603 0 1.099-.72 2.16-1.439 3.151l-.396.54v.018h1.953v.612h-2.818zM188.733 42.132c0-.306.207-.522.459-.522.279 0 .459.207.459.522s-.171.522-.459.522c-.262.001-.459-.206-.459-.522zM190.326 42.583v-.45l.495-.675c.693-.964 1.521-2.062 1.521-3.16 0-.648-.288-1.044-.838-1.044-.422 0-.692.225-.846.323l-.171-.521a1.832 1.832 0 0 1 1.144-.396c.973 0 1.395.721 1.395 1.603 0 1.099-.72 2.16-1.439 3.151l-.396.54v.018h1.953v.612h-2.818zM199.129 39.972c-.045-.802-.091-1.693-.063-2.377h-.036a34.798 34.798 0 0 1-.486 2.106l-.747 2.845h-.44l-.712-2.728a27.18 27.18 0 0 1-.495-2.224h-.027c0 .711-.035 1.558-.072 2.422l-.117 2.565h-.621l.361-6.067h.746l.712 2.772c.207.801.36 1.396.485 2.089h.027c.117-.693.252-1.27.45-2.089l.685-2.772h.773l.352 6.067h-.648l-.127-2.609zM201.513 40.764l-.405 1.818h-.666l1.387-6.067h.765l1.351 6.067h-.684l-.406-1.818h-1.342zm1.251-.558l-.314-1.539a31.98 31.98 0 0 1-.244-1.387h-.035c-.072.459-.162.981-.243 1.387l-.315 1.539h1.151zM207.167 42.474c-.189.1-.486.162-.865.162-1.188 0-2.034-.954-2.034-3.016 0-2.395 1.188-3.16 2.143-3.16.369 0 .63.072.757.153l-.154.585a1.337 1.337 0 0 0-.611-.126c-.648 0-1.404.63-1.404 2.485 0 1.854.684 2.466 1.422 2.466.262 0 .496-.062.64-.135l.106.586z"/></g><g><path d="M182.023 54.312a4.03 4.03 0 0 1 1.009-.117c.558 0 1.026.135 1.341.45.298.288.45.729.45 1.251 0 .559-.135.937-.369 1.242-.333.45-.891.676-1.431.676-.117 0-.207 0-.307-.009v2.484h-.693v-5.977zm.693 2.908c.081.019.153.027.271.027.684 0 1.144-.45 1.144-1.306 0-.621-.262-1.179-1.026-1.179a1.43 1.43 0 0 0-.388.045v2.413zM185.56 54.061h.693v2.34h.018c.091-.152.226-.287.36-.378.162-.099.333-.162.585-.162.55 0 1.018.441 1.018 1.54v2.89h-.693v-2.809c0-.531-.117-1.035-.585-1.035-.324 0-.567.233-.675.692-.019.1-.027.226-.027.334v2.817h-.693v-6.229zM189.484 55.933l.576 2.503c.081.342.126.63.181.9h.018c.045-.243.117-.576.189-.892l.513-2.512h.685l-.711 2.8c-.271 1.099-.567 2.151-1.081 2.809-.306.388-.63.595-.783.667l-.252-.595c.198-.107.414-.297.612-.549.18-.226.324-.522.396-.729a.609.609 0 0 0 .045-.216c0-.054 0-.108-.019-.162l-1.098-4.024h.729zM192.121 59.57c.153.099.424.225.702.225.396 0 .64-.243.64-.63 0-.333-.117-.559-.559-.855-.567-.369-.873-.738-.873-1.242 0-.702.522-1.207 1.197-1.207.342 0 .604.117.783.226l-.188.522a1.026 1.026 0 0 0-.576-.189.533.533 0 0 0-.567.549c0 .298.107.459.54.757.504.324.9.72.9 1.323 0 .873-.595 1.296-1.306 1.296-.324 0-.675-.099-.864-.252l.171-.523zM195.586 54.808c.009.27-.162.45-.424.45-.225 0-.396-.181-.396-.45 0-.271.18-.45.405-.45.253-.001.415.179.415.45zm-.747 5.482v-4.357h.692v4.357h-.692zM198.62 60.182c-.153.091-.414.162-.721.162-.954 0-1.594-.765-1.594-2.205 0-1.252.631-2.269 1.72-2.269.234 0 .486.062.612.135l-.135.567a1.134 1.134 0 0 0-.495-.117c-.693 0-1.009.828-1.009 1.684 0 1.017.388 1.629 1.026 1.629.189 0 .343-.045.505-.117l.091.531zM200.959 60.29l-.045-.459h-.026c-.189.333-.495.531-.864.531-.586 0-1.036-.495-1.036-1.242 0-1.09.874-1.576 1.855-1.585V57.4c0-.585-.145-.99-.693-.99-.271 0-.514.09-.721.225l-.153-.486c.181-.135.586-.288 1.018-.288.873 0 1.252.576 1.252 1.558V59.3c0 .333 0 .711.045.99h-.632zm-.099-2.251c-.36 0-1.197.063-1.197 1.009 0 .567.288.774.531.774.306 0 .567-.226.648-.657.018-.081.018-.171.018-.243v-.883zM202.515 54.061h.693v6.229h-.693v-6.229z"/></g><g><path d="M24.608 67.998v-1.611h-1.944v-.469l1.899-3.771h.675v3.673h.639v.567h-.639v1.611h-.63zm0-2.179v-1.656c0-.405.027-.766.054-1.152h-.036c-.198.468-.324.747-.495 1.107l-.81 1.684v.018h1.287zM29.621 65.377v.54h-1.972v-.54h1.972zM32.24 62.551h-1.107v-.621h2.908v.621h-1.107v5.446h-.694v-5.446zM34.166 64.765c0-.368-.027-.801-.036-1.125h.622l.036.685h.018c.144-.414.513-.757.918-.757.054 0 .099.01.144.01v.711c-.045-.009-.09-.009-.144-.009-.441 0-.765.404-.837.909a2.65 2.65 0 0 0-.027.396v2.413h-.693v-3.233zM38.072 67.998l-.045-.459H38c-.189.333-.495.531-.864.531-.585 0-1.036-.495-1.036-1.242 0-1.09.874-1.576 1.855-1.585v-.135c0-.585-.145-.99-.693-.99-.27 0-.513.09-.72.225l-.153-.486c.18-.135.585-.288 1.018-.288.873 0 1.251.576 1.251 1.558v1.882c0 .333 0 .711.045.99h-.631zm-.099-2.251c-.36 0-1.197.063-1.197 1.009 0 .567.288.774.531.774.306 0 .567-.226.648-.657.018-.081.018-.171.018-.243v-.883zM39.629 64.765c0-.513-.027-.773-.036-1.125h.603l.036.522h.018c.189-.352.54-.595.999-.595.604 0 1.054.45 1.054 1.504v2.926h-.693v-2.809c0-.514-.099-1.035-.603-1.035-.288 0-.567.243-.657.711a2.445 2.445 0 0 0-.027.387v2.746h-.693v-3.232zM43.156 67.278c.153.099.423.225.702.225.396 0 .639-.243.639-.63 0-.333-.117-.559-.558-.855-.567-.369-.873-.738-.873-1.242 0-.702.522-1.207 1.197-1.207.342 0 .603.117.783.226l-.189.522a1.024 1.024 0 0 0-.576-.189.534.534 0 0 0-.567.549c0 .298.108.459.54.757.504.324.9.72.9 1.323 0 .873-.594 1.296-1.305 1.296-.324 0-.675-.099-.864-.252l.171-.523zM45.866 65c0-.666-.027-1.053-.036-1.359h.622l.036.559h.018c.234-.469.576-.631.918-.631.756 0 1.26.811 1.26 2.242 0 1.611-.666 2.26-1.351 2.26-.405 0-.639-.262-.756-.505h-.018v2.161h-.693V65zm.693 1.395c0 .135 0 .261.027.36.135.621.45.738.639.738.576 0 .756-.792.756-1.675 0-.9-.216-1.656-.765-1.656-.315 0-.594.396-.639.792-.018.108-.018.216-.018.333v1.108zM52.14 65.819c0 1.684-.783 2.251-1.45 2.251-.783 0-1.414-.712-1.414-2.242 0-1.593.711-2.26 1.458-2.26.775 0 1.406.729 1.406 2.251zm-2.17 0c0 .721.126 1.701.756 1.701.594 0 .711-1.026.711-1.701 0-.666-.117-1.692-.729-1.692-.621-.001-.738 1.026-.738 1.692zM52.903 64.765c0-.368-.027-.801-.036-1.125h.622l.036.685h.018c.144-.414.513-.757.918-.757.054 0 .099.01.144.01v.711c-.045-.009-.09-.009-.144-.009-.441 0-.765.404-.837.909a2.65 2.65 0 0 0-.027.396v2.413h-.693v-3.233zM56.207 62.488v1.152h.837v.531h-.837v2.584c0 .567.207.72.459.72.108 0 .198-.009.279-.026l.027.531a1.522 1.522 0 0 1-.513.071c-.27 0-.513-.071-.684-.261-.171-.198-.261-.495-.261-1.099V64.17h-.531v-.53h.531v-.954l.693-.198z"/></g><g><path d="M22.907 84.958c.18.107.495.243.846.243.603 0 1.008-.441 1.008-1.171 0-.765-.477-1.206-1.179-1.206h-.162v-.522h.135c.414-.009 1.053-.324 1.053-1.044 0-.585-.315-.9-.774-.9-.288 0-.54.145-.729.279l-.153-.522c.216-.171.612-.333 1.053-.333.828 0 1.296.595 1.296 1.351 0 .585-.306 1.099-.873 1.368v.019c.522.144 1.026.611 1.026 1.53 0 .954-.612 1.729-1.674 1.729-.378 0-.792-.108-1.026-.271l.153-.55zM29.621 83.085v.54h-1.972v-.54h1.972zM31.843 85.705v-6.067h.657l1.116 2.845c.252.647.567 1.458.774 2.115h.018a45.668 45.668 0 0 1-.081-2.791v-2.169h.621v6.067h-.657l-1.152-2.917a21.766 21.766 0 0 1-.72-2.062h-.018c.054.811.072 1.585.072 2.881v2.098h-.63zM36.424 83.59c.009 1.332.531 1.62 1.036 1.62.297 0 .549-.072.72-.171l.108.513c-.243.136-.612.207-.955.207-1.044 0-1.584-.854-1.584-2.188 0-1.413.594-2.296 1.468-2.296.891 0 1.242.937 1.242 1.927 0 .162 0 .279-.009.388h-2.026zm1.369-.514c.018-.873-.315-1.261-.648-1.261-.45 0-.684.667-.711 1.261h1.359zM40.052 80.195v1.152h.837v.531h-.837v2.584c0 .567.207.72.459.72.108 0 .198-.009.279-.026l.027.531a1.522 1.522 0 0 1-.513.071c-.27 0-.513-.071-.684-.261-.171-.198-.261-.495-.261-1.099v-2.521h-.531v-.531h.531v-.954l.693-.197zM41.942 81.348l.423 2.134c.081.468.18.937.234 1.387h.036c.063-.45.171-.955.271-1.369l.504-2.151h.531l.477 2.089c.108.486.207.945.279 1.432h.036c.054-.459.135-.909.234-1.404l.414-2.116h.693l-1.099 4.357h-.567l-.504-2.115a12.152 12.152 0 0 1-.243-1.306h-.018c-.072.513-.153.918-.252 1.332l-.522 2.089h-.585l-1.062-4.357h.72zM49.241 83.526c0 1.684-.783 2.251-1.45 2.251-.783 0-1.414-.712-1.414-2.242 0-1.593.711-2.26 1.458-2.26.776 0 1.406.73 1.406 2.251zm-2.17 0c0 .721.126 1.701.756 1.701.594 0 .711-1.026.711-1.701 0-.666-.117-1.692-.729-1.692-.62 0-.738 1.026-.738 1.692zM50.005 82.473c0-.368-.027-.801-.036-1.125h.622l.036.685h.018c.144-.414.513-.757.918-.757.054 0 .099.01.144.01v.711c-.045-.009-.09-.009-.144-.009-.441 0-.765.404-.837.909a2.65 2.65 0 0 0-.027.396v2.413h-.693v-3.233zM52.93 83.373h.018c.081-.171.153-.342.234-.485l.864-1.54h.747l-1.152 1.837 1.251 2.521h-.774l-.945-2.053-.243.405v1.647h-.693v-6.229h.693v3.897z"/></g><g><path d="M22.79 103.413v-.45l.495-.675c.693-.964 1.521-2.062 1.521-3.16 0-.648-.288-1.044-.837-1.044-.423 0-.693.225-.846.323l-.171-.521a1.831 1.831 0 0 1 1.143-.396c.973 0 1.396.721 1.396 1.603 0 1.099-.72 2.16-1.44 3.151l-.396.54v.018h1.954v.612H22.79zM29.621 100.792v.54h-1.972v-.54h1.972zM31.843 97.435a3.29 3.29 0 0 1 .937-.117c.639 0 1.089.162 1.422.459.468.405.819 1.188.819 2.458 0 1.386-.342 2.143-.729 2.557-.396.45-.972.657-1.674.657-.279 0-.567-.019-.774-.063v-5.951zm.694 5.41c.099.019.198.019.261.019.765 0 1.503-.55 1.503-2.611 0-1.53-.468-2.367-1.44-2.367-.108 0-.234.009-.324.036v4.923zM37.514 103.413l-.045-.459h-.027c-.189.333-.495.531-.864.531-.585 0-1.036-.495-1.036-1.242 0-1.09.874-1.576 1.854-1.585v-.135c0-.585-.144-.99-.693-.99-.27 0-.513.09-.72.225l-.153-.486c.18-.135.585-.288 1.018-.288.873 0 1.251.576 1.251 1.558v1.882c0 .333 0 .711.045.99h-.63zm-.099-2.251c-.36 0-1.197.063-1.197 1.009 0 .567.288.774.531.774.306 0 .567-.226.648-.657.018-.081.018-.171.018-.243v-.883zM39.835 97.903v1.152h.837v.531h-.837v2.584c0 .567.207.72.459.72.108 0 .198-.009.279-.026l.027.531a1.522 1.522 0 0 1-.513.071c-.27 0-.513-.071-.684-.261-.171-.198-.261-.495-.261-1.099v-2.521h-.531v-.531h.531V98.1l.693-.197zM43.003 103.413l-.045-.459h-.027c-.189.333-.495.531-.864.531-.585 0-1.036-.495-1.036-1.242 0-1.09.874-1.576 1.855-1.585v-.135c0-.585-.145-.99-.693-.99-.27 0-.513.09-.72.225l-.153-.486c.18-.135.585-.288 1.018-.288.873 0 1.251.576 1.251 1.558v1.882c0 .333 0 .711.045.99h-.631zm-.099-2.251c-.36 0-1.197.063-1.197 1.009 0 .567.288.774.531.774.306 0 .567-.226.648-.657.018-.081.018-.171.018-.243v-.883zM46.027 97.345h.693v5.482h1.71v.585h-2.404v-6.067zM49.816 97.93c.009.27-.162.45-.423.45-.225 0-.396-.181-.396-.45 0-.271.18-.45.405-.45.252 0 .414.18.414.45zm-.747 5.483v-4.357h.693v4.357h-.693zM50.725 100.18c0-.513-.027-.773-.036-1.125h.603l.036.522h.018c.189-.352.54-.595.999-.595.604 0 1.054.45 1.054 1.504v2.926h-.693v-2.809c0-.514-.099-1.035-.603-1.035-.288 0-.567.243-.657.711a2.445 2.445 0 0 0-.027.387v2.746h-.693v-3.232zM55.054 101.081h.018c.081-.171.153-.342.234-.485l.864-1.54h.747l-1.152 1.837 1.251 2.521h-.774l-.945-2.053-.243.405v1.647h-.693v-6.229h.693v3.897z"/></g><g><path d="M24.194 115.971h-.018l-.972.558-.135-.54 1.233-.72h.576v5.852h-.684v-5.15zM29.621 118.5v.54h-1.972v-.54h1.972zM31.843 115.143a4.028 4.028 0 0 1 1.008-.117c.558 0 1.026.135 1.341.45.297.288.45.729.45 1.251 0 .559-.135.937-.369 1.242-.333.45-.891.676-1.431.676-.117 0-.207 0-.306-.009v2.484h-.693v-5.977zm.694 2.907c.081.019.153.027.27.027.684 0 1.144-.45 1.144-1.306 0-.621-.261-1.179-1.026-1.179-.162 0-.297.018-.387.045v2.413zM35.38 114.891h.693v2.34h.018a1.23 1.23 0 0 1 .36-.378c.162-.099.333-.162.585-.162.549 0 1.018.441 1.018 1.54v2.89h-.693v-2.809c0-.531-.117-1.035-.585-1.035-.324 0-.567.233-.675.692-.018.1-.027.226-.027.334v2.817h-.694v-6.229zM39.304 116.763l.576 2.503c.081.342.126.63.18.9h.018c.045-.243.117-.576.189-.892l.513-2.512h.684l-.711 2.8c-.271 1.099-.567 2.151-1.081 2.809-.306.388-.63.595-.783.667l-.252-.595c.198-.107.414-.297.612-.549.18-.226.324-.522.396-.729a.609.609 0 0 0 .045-.216c0-.054 0-.108-.018-.162l-1.098-4.024h.73zM41.941 120.4c.153.099.423.225.702.225.396 0 .639-.243.639-.63 0-.333-.117-.559-.558-.855-.567-.369-.873-.738-.873-1.242 0-.702.522-1.207 1.197-1.207.342 0 .603.117.783.226l-.189.522a1.024 1.024 0 0 0-.576-.189.534.534 0 0 0-.567.549c0 .298.108.459.54.757.504.324.9.72.9 1.323 0 .873-.594 1.296-1.305 1.296-.324 0-.675-.099-.864-.252l.171-.523zM45.406 115.638c.009.27-.162.45-.423.45-.225 0-.396-.181-.396-.45 0-.271.18-.45.405-.45.252-.001.414.179.414.45zm-.747 5.482v-4.357h.693v4.357h-.693zM48.44 121.012c-.153.091-.414.162-.72.162-.955 0-1.594-.765-1.594-2.205 0-1.252.63-2.269 1.72-2.269.234 0 .486.062.612.135l-.135.567a1.13 1.13 0 0 0-.495-.117c-.693 0-1.008.828-1.008 1.684 0 1.017.387 1.629 1.026 1.629.189 0 .342-.045.504-.117l.09.531zM50.779 121.12l-.045-.459h-.027c-.189.333-.495.531-.864.531-.585 0-1.036-.495-1.036-1.242 0-1.09.874-1.576 1.855-1.585v-.135c0-.585-.145-.99-.693-.99-.27 0-.513.09-.72.225l-.153-.486c.18-.135.585-.288 1.018-.288.873 0 1.251.576 1.251 1.558v1.882c0 .333 0 .711.045.99h-.631zm-.099-2.251c-.36 0-1.197.063-1.197 1.009 0 .567.288.774.531.774.306 0 .567-.226.648-.657.018-.081.018-.171.018-.243v-.883zM52.335 114.891h.693v6.229h-.693v-6.229z"/></g><g><path d="M114.788 106.335c0-.819.486-1.341.963-1.674l-.009-.019c-.486-.333-.766-.846-.766-1.342 0-.899.64-1.458 1.369-1.458.837 0 1.251.702 1.251 1.378 0 .513-.243 1.008-.783 1.377v.027c.54.359.936.891.936 1.593 0 .909-.603 1.621-1.503 1.621-.972.001-1.458-.774-1.458-1.503zm2.278-.072c0-.675-.387-1.053-.837-1.35-.468.288-.756.792-.756 1.305 0 .657.297 1.107.801 1.107.432 0 .792-.333.792-1.062zm-1.422-3.007c0 .595.36.892.72 1.126.351-.252.585-.64.585-1.081 0-.566-.234-.944-.657-.944-.387-.001-.648.368-.648.899zM121.224 104.832c0 2.134-.675 3.007-1.521 3.007-.909 0-1.458-1.081-1.458-2.989 0-1.972.585-3.007 1.54-3.007.944 0 1.439 1.125 1.439 2.989zm-2.287.009c0 1.413.243 2.403.819 2.403.549 0 .774-.999.774-2.403 0-1.368-.225-2.403-.783-2.403s-.81.999-.81 2.403zM121.754 107.767v-.45l.495-.675c.693-.964 1.521-2.062 1.521-3.16 0-.648-.288-1.044-.837-1.044-.423 0-.693.225-.846.323l-.171-.521a1.831 1.831 0 0 1 1.143-.396c.973 0 1.396.721 1.396 1.603 0 1.099-.72 2.16-1.44 3.151l-.396.54v.018h1.954v.612h-2.819zM125.372 107.316c0-.306.207-.522.459-.522.279 0 .459.207.459.522s-.171.522-.459.522c-.261.001-.459-.206-.459-.522zM127.082 107.02c.18.107.495.243.846.243.603 0 1.008-.441 1.008-1.171 0-.765-.477-1.206-1.179-1.206h-.162v-.522h.135c.414-.009 1.053-.324 1.053-1.044 0-.585-.315-.9-.774-.9-.288 0-.54.145-.729.279l-.153-.522c.216-.171.612-.333 1.053-.333.828 0 1.296.595 1.296 1.351 0 .585-.306 1.099-.873 1.368v.019c.522.144 1.026.611 1.026 1.53 0 .954-.612 1.729-1.674 1.729-.378 0-.792-.108-1.026-.271l.153-.55zM113.196 113.886h-1.521v2.277h1.729v.604h-2.422V110.7h2.314v.603h-1.621v1.999h1.521v.584zM114.923 111.257v1.152h.837v.531h-.837v2.584c0 .567.207.72.459.72.108 0 .198-.009.279-.026l.027.531a1.522 1.522 0 0 1-.513.071c-.27 0-.513-.071-.684-.261-.171-.198-.261-.495-.261-1.099v-2.521h-.531v-.531h.531v-.954l.693-.197zM116.372 110.537h.693v2.34h.018a1.23 1.23 0 0 1 .36-.378c.162-.099.333-.162.585-.162.549 0 1.018.441 1.018 1.54v2.89h-.693v-2.809c0-.531-.117-1.035-.585-1.035-.324 0-.567.233-.675.692-.018.1-.027.226-.027.334v2.817h-.693v-6.229zM120.503 114.651c.009 1.332.531 1.62 1.036 1.62.297 0 .549-.072.72-.171l.108.513c-.243.136-.612.207-.955.207-1.044 0-1.584-.854-1.584-2.188 0-1.413.594-2.296 1.468-2.296.891 0 1.242.937 1.242 1.927 0 .162 0 .279-.009.388h-2.026zm1.369-.513c.018-.873-.315-1.261-.648-1.261-.45 0-.684.667-.711 1.261h1.359zM123.275 113.534c0-.368-.027-.801-.036-1.125h.622l.036.685h.018c.144-.414.513-.757.918-.757.054 0 .099.01.144.01v.711c-.045-.009-.09-.009-.144-.009-.441 0-.765.404-.837.909a2.65 2.65 0 0 0-.027.396v2.413h-.693v-3.233zM125.516 113.534c0-.513-.027-.773-.036-1.125h.603l.036.522h.018c.189-.352.54-.595.999-.595.604 0 1.054.45 1.054 1.504v2.926h-.693v-2.809c0-.514-.099-1.035-.603-1.035-.288 0-.567.243-.657.711a2.445 2.445 0 0 0-.027.387v2.746h-.693v-3.232zM129.647 114.651c.009 1.332.531 1.62 1.036 1.62.297 0 .549-.072.72-.171l.108.513c-.243.136-.612.207-.955.207-1.044 0-1.584-.854-1.584-2.188 0-1.413.594-2.296 1.468-2.296.891 0 1.242.937 1.242 1.927 0 .162 0 .279-.009.388h-2.026zm1.369-.513c.018-.873-.315-1.261-.648-1.261-.45 0-.684.667-.711 1.261h1.359zM133.274 111.257v1.152h.837v.531h-.837v2.584c0 .567.207.72.459.72.108 0 .198-.009.279-.026l.027.531a1.522 1.522 0 0 1-.513.071c-.27 0-.513-.071-.684-.261-.171-.198-.261-.495-.261-1.099v-2.521h-.531v-.531h.531v-.954l.693-.197z"/></g><g><path d="M146.4 106.335c0-.819.486-1.341.963-1.674l-.009-.019c-.486-.333-.766-.846-.766-1.342 0-.899.639-1.458 1.369-1.458.837 0 1.251.702 1.251 1.378 0 .513-.243 1.008-.783 1.377v.027c.54.359.936.891.936 1.593 0 .909-.603 1.621-1.503 1.621-.972.001-1.458-.774-1.458-1.503zm2.278-.072c0-.675-.387-1.053-.837-1.35-.468.288-.756.792-.756 1.305 0 .657.297 1.107.801 1.107.431 0 .792-.333.792-1.062zm-1.423-3.007c0 .595.36.892.72 1.126.351-.252.585-.64.585-1.081 0-.566-.234-.944-.657-.944-.387-.001-.648.368-.648.899zM152.836 104.832c0 2.134-.675 3.007-1.521 3.007-.91 0-1.458-1.081-1.458-2.989 0-1.972.585-3.007 1.54-3.007.944 0 1.439 1.125 1.439 2.989zm-2.287.009c0 1.413.243 2.403.819 2.403.549 0 .774-.999.774-2.403 0-1.368-.225-2.403-.783-2.403s-.81.999-.81 2.403zM153.366 107.767v-.45l.495-.675c.693-.964 1.521-2.062 1.521-3.16 0-.648-.288-1.044-.837-1.044-.423 0-.693.225-.846.323l-.171-.521a1.831 1.831 0 0 1 1.143-.396c.973 0 1.396.721 1.396 1.603 0 1.099-.72 2.16-1.44 3.151l-.396.54v.018h1.954v.612h-2.819zM156.983 107.316c0-.306.208-.522.459-.522.279 0 .459.207.459.522s-.171.522-.459.522c-.26.001-.459-.206-.459-.522zM159.981 102.617h-.018l-.972.558-.135-.54 1.233-.72h.576v5.852h-.685v-5.15zM163.446 102.617h-.018l-.973.558-.135-.54 1.233-.72h.576v5.852h-.685v-5.15zM165.659 107.767c.01-.252.037-.747.037-1.044v-5.186h.693v2.386h.018c.225-.433.549-.586.918-.586.676 0 1.188.783 1.188 2.206 0 1.575-.647 2.296-1.323 2.296-.459 0-.693-.271-.864-.64h-.027l-.045.567h-.595zm.73-1.539c0 .099 0 .197.026.27.162.648.459.766.648.766.558 0 .756-.757.756-1.684 0-.873-.207-1.647-.765-1.647-.324 0-.595.405-.648.774-.018.099-.018.207-.018.306v1.215zM151.585 116.767l-1.17-6.067h.72l.513 2.926c.126.765.225 1.44.297 2.188h.036c.072-.766.216-1.423.36-2.197l.559-2.916h.594l.559 2.854c.135.72.27 1.413.351 2.26h.027c.099-.873.207-1.53.324-2.224l.504-2.89h.675l-1.179 6.067h-.675l-.585-2.953a27.794 27.794 0 0 1-.306-1.989h-.018c-.09.685-.189 1.342-.333 2.017l-.603 2.926h-.65zM157.128 111.284c.009.27-.162.45-.423.45-.225 0-.396-.181-.396-.45 0-.271.18-.45.405-.45.252 0 .414.18.414.45zm-.747 5.483v-4.357h.693v4.357h-.693zM159.792 114.146v.54h-1.972v-.54h1.972zM160.601 110.699h2.313v.603h-1.62v2.125h1.512v.585h-1.512v2.755h-.693v-6.068zM164.301 111.284c.008.27-.162.45-.424.45-.225 0-.396-.181-.396-.45 0-.271.181-.45.406-.45.252 0 .414.18.414.45zm-.748 5.483v-4.357h.693v4.357h-.693z"/></g><g><path d="M181.54 106.335c0-.819.486-1.341.963-1.674l-.008-.019c-.486-.333-.766-.846-.766-1.342 0-.899.639-1.458 1.368-1.458.837 0 1.251.702 1.251 1.378 0 .513-.242 1.008-.783 1.377v.027c.541.359.937.891.937 1.593 0 .909-.603 1.621-1.503 1.621-.973.001-1.459-.774-1.459-1.503zm2.277-.072c0-.675-.387-1.053-.837-1.35-.468.288-.756.792-.756 1.305 0 .657.297 1.107.801 1.107.433 0 .792-.333.792-1.062zm-1.422-3.007c0 .595.359.892.721 1.126.351-.252.584-.64.584-1.081 0-.566-.233-.944-.656-.944-.388-.001-.649.368-.649.899zM187.975 104.832c0 2.134-.675 3.007-1.521 3.007-.909 0-1.458-1.081-1.458-2.989 0-1.972.585-3.007 1.54-3.007.945 0 1.439 1.125 1.439 2.989zm-2.286.009c0 1.413.243 2.403.819 2.403.549 0 .773-.999.773-2.403 0-1.368-.225-2.403-.783-2.403-.557-.001-.809.999-.809 2.403zM188.505 107.767v-.45l.495-.675c.693-.964 1.521-2.062 1.521-3.16 0-.648-.288-1.044-.838-1.044-.422 0-.692.225-.846.323l-.171-.521a1.832 1.832 0 0 1 1.144-.396c.973 0 1.395.721 1.395 1.603 0 1.099-.72 2.16-1.439 3.151l-.396.54v.018h1.953v.612h-2.818zM192.124 107.316c0-.306.207-.522.459-.522.279 0 .459.207.459.522s-.171.522-.459.522c-.262.001-.459-.206-.459-.522zM195.121 102.617h-.019l-.972.558-.135-.54 1.233-.72h.576v5.852h-.685v-5.15zM198.585 102.617h-.019l-.972.558-.135-.54 1.233-.72h.576v5.852h-.685v-5.15zM203.508 103.409c-.008.307-.035.693-.035 1.359v2.439c0 1.144-.145 1.576-.433 1.891-.261.298-.675.469-1.161.469-.369 0-.729-.09-.954-.216l.161-.541c.172.091.46.189.811.189.55 0 .892-.342.892-1.332v-.441h-.019a.884.884 0 0 1-.836.531c-.775 0-1.279-.873-1.279-2.152 0-1.602.729-2.269 1.369-2.269.468 0 .684.307.81.567h.019l.035-.495h.62zm-.719 1.504a1.16 1.16 0 0 0-.036-.315c-.081-.297-.234-.666-.63-.666-.505 0-.774.675-.774 1.639 0 1.116.352 1.62.774 1.62.207 0 .478-.099.621-.621.036-.135.045-.271.045-.396v-1.261zM186.724 116.767l-1.171-6.067h.721l.514 2.926c.125.765.225 1.44.297 2.188h.035c.072-.766.217-1.423.36-2.197l.559-2.916h.594l.559 2.854c.135.72.271 1.413.351 2.26h.027c.1-.873.207-1.53.324-2.224l.504-2.89h.676l-1.18 6.067h-.676l-.585-2.953a28.972 28.972 0 0 1-.306-1.989h-.018a25.385 25.385 0 0 1-.334 2.017l-.604 2.926h-.647zM192.268 111.284c.008.27-.162.45-.424.45-.225 0-.396-.181-.396-.45 0-.271.181-.45.406-.45.252 0 .414.18.414.45zm-.748 5.483v-4.357h.693v4.357h-.693zM194.932 114.146v.54h-1.973v-.54h1.973zM195.741 110.699h2.314v.603h-1.621v2.125h1.512v.585h-1.512v2.755h-.693v-6.068zM199.44 111.284c.01.27-.162.45-.423.45-.226 0-.396-.181-.396-.45 0-.271.18-.45.404-.45.253 0 .415.18.415.45zm-.746 5.483v-4.357h.692v4.357h-.692z"/></g><g><path d="M216.652 106.335c0-.819.486-1.341.964-1.674l-.01-.019c-.486-.333-.766-.846-.766-1.342 0-.899.64-1.458 1.369-1.458.838 0 1.252.702 1.252 1.378 0 .513-.244 1.008-.783 1.377v.027c.539.359.936.891.936 1.593 0 .909-.604 1.621-1.504 1.621-.972.001-1.458-.774-1.458-1.503zm2.278-.072c0-.675-.388-1.053-.838-1.35-.468.288-.756.792-.756 1.305 0 .657.297 1.107.801 1.107.432 0 .793-.333.793-1.062zm-1.423-3.007c0 .595.36.892.72 1.126.352-.252.586-.64.586-1.081 0-.566-.234-.944-.658-.944-.387-.001-.648.368-.648.899zM223.088 104.832c0 2.134-.676 3.007-1.521 3.007-.91 0-1.459-1.081-1.459-2.989 0-1.972.585-3.007 1.539-3.007.945 0 1.441 1.125 1.441 2.989zm-2.287.009c0 1.413.242 2.403.818 2.403.55 0 .775-.999.775-2.403 0-1.368-.226-2.403-.783-2.403-.558-.001-.81.999-.81 2.403zM223.618 107.767v-.45l.495-.675c.693-.964 1.521-2.062 1.521-3.16 0-.648-.288-1.044-.837-1.044-.424 0-.693.225-.847.323l-.171-.521a1.831 1.831 0 0 1 1.143-.396c.973 0 1.396.721 1.396 1.603 0 1.099-.721 2.16-1.441 3.151l-.396.54v.018h1.954v.612h-2.817zM227.235 107.316c0-.306.208-.522.46-.522.278 0 .459.207.459.522s-.171.522-.459.522c-.261.001-.46-.206-.46-.522zM230.233 102.617h-.018l-.973.558-.135-.54 1.233-.72h.576v5.852h-.685v-5.15zM233.698 102.617h-.018l-.973.558-.135-.54 1.233-.72h.576v5.852h-.685v-5.15zM235.957 104.534c0-.513-.027-.773-.036-1.125h.604l.035.522h.019c.188-.352.54-.595.999-.595.604 0 1.054.45 1.054 1.504v2.926h-.693v-2.809c0-.514-.099-1.035-.603-1.035-.289 0-.568.243-.658.711a2.445 2.445 0 0 0-.027.387v2.746h-.692v-3.232zM221.864 116.767l-1.17-6.067h.72l.513 2.926c.127.765.226 1.44.297 2.188h.037c.071-.766.215-1.423.359-2.197l.559-2.916h.594l.559 2.854c.135.72.27 1.413.352 2.26h.026c.099-.873.207-1.53.324-2.224l.504-2.89h.675l-1.179 6.067h-.675l-.586-2.953a27.794 27.794 0 0 1-.306-1.989h-.019c-.09.685-.189 1.342-.333 2.017l-.603 2.926h-.648zM227.407 111.284c.01.27-.162.45-.423.45-.226 0-.396-.181-.396-.45 0-.271.18-.45.404-.45.253 0 .415.18.415.45zm-.746 5.483v-4.357h.692v4.357h-.692zM230.071 114.146v.54H228.1v-.54h1.971zM230.88 110.699h2.313v.603h-1.62v2.125h1.513v.585h-1.513v2.755h-.693v-6.068zM234.581 111.284c.008.27-.162.45-.424.45-.225 0-.396-.181-.396-.45 0-.271.181-.45.406-.45.252 0 .414.18.414.45zm-.748 5.483v-4.357h.693v4.357h-.693z"/></g><g><path d="M259.307 111.816c0-.306.207-.522.459-.522.279 0 .459.207.459.522s-.171.522-.459.522c-.262.001-.459-.206-.459-.522zM262.465 111.816c0-.306.208-.522.46-.522.278 0 .459.207.459.522s-.171.522-.459.522c-.26.001-.46-.206-.46-.522zM265.626 111.816c0-.306.207-.522.459-.522.279 0 .459.207.459.522s-.171.522-.459.522c-.262.001-.459-.206-.459-.522z"/></g></g></svg>