<svg xmlns="http://www.w3.org/2000/svg" viewBox="0 0 342.39 74.79"><g stroke="#000" clip-rule="evenodd" stroke-linecap="round" stroke-linejoin="round"><path fill="#ccc" fill-rule="evenodd" d="M.5.5h25.89v14.71H.5zm25.89 0h78.88v14.71H26.39z"/><path fill="#ccc" fill-rule="evenodd" d="M105.26.5h78.88v14.71h-78.88zm78.88 0h78.88v14.71h-78.88z"/><path fill="#ccc" fill-rule="evenodd" d="M263.01.5h78.88v14.71h-78.88zM.5 15.27h25.89v14.71H.5z"/><path fill="none" d="M26.39 15.27h236.63v14.71H26.39zm0 29.41h20.5v14.71h-20.5z"/><path fill="#fddfbb" fill-rule="evenodd" d="M26.39 59.45h315.5v14.71H26.39z"/><path fill="none" d="M46.89 44.68h295v14.71h-295zm216.12-29.41h78.88v14.71h-78.88z"/><path fill="none" d="M26.39 30.04h78.88v14.71H26.39z"/><path fill="#ccc" fill-rule="evenodd" d="M.5 29.98h25.89v14.71H.5z"/><path fill="#ccc" fill-rule="evenodd" d="M.5 44.68h25.89v14.71H.5z"/><path fill="#b3b3b3" fill-rule="evenodd" d="M105.26 30.04h236.63v14.71H105.26z"/></g><path d="M9.73 4.52a5.7 5.7 0 0 1 1.2-.12c.54 0 1.06.1 1.43.42.3.27.44.65.44 1.08 0 .57-.31 1.08-.9 1.34v.02c.7.2 1.1.77 1.1 1.5 0 .5-.17.9-.45 1.2-.35.4-.94.58-1.82.58-.45 0-.77-.03-1-.06V4.52zm.95 2.44h.28c.5 0 .89-.4.89-.95 0-.5-.23-.88-.83-.88-.14 0-.26 0-.34.04v1.79zm0 2.8c.08.03.18.03.3.03.6 0 1.02-.35 1.02-1.04 0-.71-.5-1.07-1.04-1.07h-.28v2.09zm3.49-4.23c-.28 0-.5-.23-.5-.56 0-.34.23-.56.51-.56.3 0 .52.21.52.56 0 .33-.21.56-.52.56zm-.46 4.97V6.1h.96v4.39h-.96zm3-5.48v1.1h.85v.68h-.85v2.28c0 .54.2.68.45.68l.3-.03.01.75c-.14.04-.35.07-.62.07-.31 0-.59-.08-.78-.27-.21-.22-.32-.53-.32-1.19V6.8h-.52v-.69h.52v-.75l.96-.34zm43.82.68v2.08h2v.63h-2v2.09h-.65V8.4h-2v-.62h2V5.7h.65zm4.17 4.87c-1.1 0-1.59-1.29-1.59-2.98 0-1.82.56-3.02 1.66-3.02 1.17 0 1.57 1.37 1.57 2.98 0 2.12-.72 3.02-1.62 3.02h-.01zm.05-.82c.45 0 .62-.81.62-2.18 0-1.31-.16-2.18-.63-2.18-.45 0-.67.8-.66 2.18-.01 1.4.19 2.18.66 2.18h.01zm2.83.82c-.32 0-.58-.26-.58-.67 0-.39.27-.67.59-.67.33 0 .58.26.58.67 0 .4-.23.67-.58.67h-.01zm1.94 0c-.31 0-.57-.26-.57-.67 0-.39.27-.67.58-.67.33 0 .59.26.59.67 0 .4-.24.67-.59.67zm4.3-5.93v.62l-1.87 5.24h-.93l1.81-5H70.8v-.85h3.03zm63.75 1.06v2.08h2v.63h-2v2.09h-.65V8.4h-2v-.62h2V5.7h.65zm4.28-1.13c.83 0 1.4.63 1.4 1.41 0 .45-.2.96-.8 1.34v.02c.55.33.93.86.93 1.56 0 1.01-.71 1.67-1.64 1.67-1 0-1.6-.7-1.6-1.55 0-.77.45-1.3.92-1.61v-.02a1.62 1.62 0 0 1-.74-1.31c0-.94.7-1.5 1.52-1.5zm-.08 5.33c.4 0 .67-.35.67-.95 0-.62-.36-.98-.74-1.2-.38.23-.62.67-.62 1.14 0 .58.24 1.01.68 1.01h.01zm.02-4.66c-.36 0-.56.36-.56.8 0 .5.28.78.64.99.3-.19.48-.56.48-.94 0-.48-.17-.85-.55-.85zm2.83 5.33c-.32 0-.58-.26-.58-.67 0-.39.27-.67.59-.67.33 0 .58.26.58.67 0 .4-.23.67-.58.67h-.01zm1.94 0c-.31 0-.57-.26-.57-.67 0-.39.27-.67.58-.67.33 0 .59.26.59.67 0 .4-.24.67-.59.67zm2.58-5h-.02l-.98.53-.17-.75 1.28-.7h.83v5.85h-.94V5.57zm5.17-.09h-1.56l-.18 1.28.2-.01c.28 0 .78.14 1.1.44.32.3.5.75.5 1.34 0 1.15-.73 2.04-1.91 2.04-.4 0-.82-.1-1.06-.25l.17-.76c.2.1.52.21.83.21.59 0 1.03-.4 1.03-1.15 0-.85-.58-1.17-1.3-1.17-.18 0-.31.01-.43.03l.34-2.84h2.27v.84zm60.3.22v2.08h2v.63h-2v2.09h-.65V8.4h-2v-.62h2V5.7h.65zm4.01-.13h-.02l-.98.53-.17-.75 1.28-.7h.83v5.85h-.94V5.57zm5.06-.21c-.12 0-.28.02-.45.06-.86.2-1.25 1-1.4 1.8h.04c.22-.29.53-.5.94-.5.77 0 1.3.7 1.3 1.8 0 1.08-.52 2.05-1.57 2.05-1.07 0-1.66-1-1.66-2.4 0-1.21.36-2.08.86-2.69a2.5 2.5 0 0 1 1.43-.84c.23-.05.4-.06.51-.07v.8zm-1.14 4.5c.39 0 .61-.47.61-1.3 0-.69-.23-1.14-.65-1.14-.24 0-.47.16-.6.5-.04.06-.06.22-.06.44 0 .97.29 1.5.69 1.5h.01zm2.79.71c-.31 0-.58-.26-.58-.67 0-.39.28-.67.59-.67.33 0 .58.26.58.67 0 .4-.23.67-.58.67h-.01zm1.94 0c-.31 0-.57-.26-.57-.67 0-.39.27-.67.58-.67.34 0 .59.26.59.67 0 .4-.23.67-.59.67zm1.18-.07v-.64l.54-.71c.73-.97 1.44-1.9 1.44-2.86 0-.55-.27-.9-.78-.9-.4 0-.69.18-.86.3l-.2-.74c.24-.17.7-.38 1.23-.38 1.15 0 1.56.8 1.56 1.66 0 1.1-.7 2.06-1.4 2.93l-.36.47v.02h1.85v.85h-3.02zm3.82-.96c.2.13.53.24.85.24.6 0 .95-.4.95-1 0-.7-.5-1.05-1.14-1.05h-.16v-.7h.12c.43 0 1.02-.25 1.02-.9 0-.49-.3-.77-.72-.77-.28 0-.53.12-.73.26l-.16-.72c.23-.18.67-.33 1.13-.33.94 0 1.44.63 1.44 1.38 0 .6-.31 1.09-.85 1.34v.02c.55.17 1.01.67 1.01 1.51 0 .92-.65 1.75-1.83 1.75-.44 0-.85-.12-1.1-.27l.17-.76zm61.22-3.84v2.08h2v.63h-2v2.09h-.65V8.4h-2v-.62h2V5.7h.65zm2.61 4.8v-.64l.54-.71c.73-.97 1.44-1.9 1.44-2.86 0-.55-.27-.9-.79-.9-.4 0-.68.18-.86.3l-.19-.74c.24-.17.7-.38 1.23-.38 1.14 0 1.55.8 1.55 1.66 0 1.1-.7 2.06-1.4 2.93l-.36.47v.02h1.85v.85h-3.01zm5.52 0V9h-1.98v-.66l1.91-3.7h.93v3.59h.6V9h-.6v1.5h-.86zm0-2.27v-1.4c0-.36.03-.7.06-1.05h-.03c-.16.39-.29.66-.45 1l-.71 1.43v.02h1.13zm2.58 2.34c-.3 0-.57-.26-.57-.67 0-.39.27-.67.58-.67.34 0 .6.26.6.67 0 .4-.24.67-.6.67zm1.95 0c-.32 0-.58-.26-.58-.67 0-.39.27-.67.59-.67.33 0 .58.26.58.67 0 .4-.23.67-.58.67h-.01zm1.32-1.03c.21.13.53.24.86.24.6 0 .94-.4.94-1 0-.7-.5-1.05-1.13-1.05h-.16v-.7h.11c.44 0 1.02-.25 1.02-.9 0-.49-.29-.77-.72-.77-.28 0-.53.12-.73.26l-.16-.72c.23-.18.67-.33 1.13-.33.95 0 1.44.63 1.44 1.38 0 .6-.31 1.09-.85 1.34v.02c.55.17 1.02.67 1.02 1.51 0 .92-.66 1.75-1.84 1.75-.43 0-.85-.12-1.09-.27l.16-.76zm4.93-3.97h-.02l-.98.53-.17-.75 1.28-.7h.83v5.85h-.94V5.57zM13.43 25.34c-1.11 0-1.6-1.3-1.6-2.98 0-1.82.56-3.02 1.66-3.02 1.17 0 1.57 1.37 1.57 2.98 0 2.12-.72 3.02-1.62 3.02h-.01zm.04-.82c.45 0 .62-.81.62-2.18 0-1.31-.16-2.18-.63-2.18-.46 0-.67.8-.66 2.18-.01 1.4.18 2.18.66 2.18h.01zm123.88-5.32h.7v5.48h1.7v.58h-2.4V19.2zm3.39 3.95c0 1.34.53 1.62 1.02 1.62.31 0 .55-.07.72-.16l.12.5c-.24.14-.61.2-.96.2-1.04 0-1.58-.84-1.58-2.18 0-1.41.6-2.3 1.47-2.3.88 0 1.24.94 1.24 1.92 0 .17 0 .29-.02.4h-2.01zm1.37-.51c0-.88-.32-1.27-.65-1.27-.45 0-.69.67-.71 1.27h1.36zm1.41-.61c0-.51-.03-.77-.04-1.12h.6l.04.52h.02c.19-.35.54-.6 1-.6.6 0 1.05.45 1.05 1.5v2.93h-.69v-2.8c0-.53-.1-1.04-.6-1.04-.3 0-.57.24-.65.71-.03.1-.04.24-.04.39v2.74h-.69v-3.23zm6.28 2.67c0 1.15-.15 1.58-.44 1.9-.27.3-.67.46-1.16.46-.37 0-.73-.09-.95-.21l.16-.54c.17.09.46.19.8.19.55 0 .9-.35.9-1.34v-.44h-.03a.87.87 0 0 1-.83.53c-.77 0-1.27-.87-1.27-2.15 0-1.6.72-2.27 1.37-2.27.45 0 .67.31.8.56h.02l.04-.48h.62c0 .3-.04.68-.04 1.36v2.44zm-.7-2.29c0-.12 0-.22-.04-.32-.07-.3-.23-.66-.63-.66-.5 0-.76.68-.76 1.64 0 1.11.35 1.62.76 1.62.22 0 .49-.1.62-.62.05-.14.05-.27.05-.4v-1.26zm2.5-2.52v1.02h.84v.52h-.84v2.6c0 .57.2.71.45.71.12 0 .2 0 .28-.02l.04.53c-.13.04-.3.07-.52.07-.28 0-.52-.07-.68-.26-.18-.2-.26-.5-.26-1.1v-2.53h-.53v-.52h.53v-.74l.7-.28zm1.45-.85h.7v2.34h.01c.1-.16.23-.3.37-.4a1 1 0 0 1 .58-.15c.55 0 1.01.44 1.01 1.55v2.89h-.69v-2.81c0-.54-.12-1.04-.58-1.04-.33 0-.57.23-.68.7-.02.1-.03.22-.03.32v2.82h-.69v-6.23zM35.34 48.7c.3-.08.65-.12 1-.12.6 0 1.05.13 1.36.44.3.3.43.7.43 1.18a1.6 1.6 0 0 1-.98 1.57v.02c.46.14.69.57.82 1.36.14.83.26 1.34.35 1.53h-.7c-.1-.18-.21-.76-.33-1.5-.13-.83-.4-1.14-.99-1.14h-.27v2.64h-.7V48.7zm.69 2.8h.29c.66 0 1.1-.48 1.1-1.21 0-.7-.28-1.14-1.03-1.15-.14 0-.27.01-.36.04v2.32zm128.44 11.88h2.31v.6h-1.62v2.13h1.51v.58h-1.51v2.76h-.7v-6.07zm2.94 2.84l-.03-1.13h.62l.03.69h.02c.15-.42.51-.76.92-.76h.14v.72h-.14c-.44 0-.77.4-.84.9-.02.12-.02.24-.02.4v2.4h-.7v-3.22zm4.49 2.24c0 .33 0 .7.04.99h-.62l-.05-.46h-.03a.98.98 0 0 1-.86.53c-.58 0-1.03-.49-1.03-1.24 0-1.1.87-1.58 1.85-1.59v-.13c0-.59-.14-1-.7-1-.26 0-.5.09-.71.23l-.16-.48a1.9 1.9 0 0 1 1.02-.3c.87 0 1.24.58 1.24 1.56v1.89zm-.68-1.27c-.36 0-1.2.07-1.2 1.02 0 .57.29.77.53.77.3 0 .56-.23.64-.66.02-.08.03-.17.03-.25v-.88zm1.65-.97c0-.52-.02-.78-.03-1.13h.61l.04.53h.01c.2-.35.52-.6.98-.6.4 0 .75.19.92.66h.01c.12-.22.27-.4.43-.5.18-.1.38-.16.6-.16.6 0 1.05.42 1.05 1.54v2.89h-.69V66.7c0-.56-.08-1.11-.6-1.11-.3 0-.54.24-.64.65-.03.11-.03.24-.03.39v2.8h-.7V66.6c0-.48-.07-1-.59-1-.28 0-.56.25-.64.72-.02.1-.03.23-.03.37v2.77h-.7v-3.23zm6.07 1.11c0 1.34.53 1.62 1.02 1.62.31 0 .55-.07.73-.16l.11.5a2 2 0 0 1-.96.21c-1.04 0-1.58-.84-1.58-2.19 0-1.4.6-2.3 1.47-2.3.88 0 1.24.94 1.24 1.93 0 .17 0 .28-.02.4h-2.01zm1.37-.51c0-.87-.32-1.26-.65-1.26-.45 0-.68.67-.71 1.26h1.36zm2.88-3.35c.28-.07.6-.12 1-.12.56 0 1.04.14 1.36.44.29.3.44.73.44 1.27 0 .55-.14.93-.37 1.24-.32.45-.9.67-1.43.67h-.3v2.48h-.7v-5.98zm.7 2.92l.27.02c.68 0 1.14-.45 1.14-1.31 0-.62-.26-1.18-1.03-1.18-.16 0-.3.02-.39.05v2.42zm4.91 2.07c0 .33 0 .7.04.99h-.62l-.05-.46h-.02a.98.98 0 0 1-.87.53c-.58 0-1.03-.49-1.03-1.24 0-1.1.87-1.58 1.85-1.59v-.13c0-.59-.14-1-.69-1-.27 0-.51.09-.72.23l-.15-.48a1.9 1.9 0 0 1 1.01-.3c.88 0 1.25.58 1.25 1.56v1.89zm-.68-1.27c-.36 0-1.2.07-1.2 1.02 0 .57.3.77.53.77.31 0 .56-.23.64-.66.02-.08.03-.17.03-.25v-.88zm1.93-2.09l.57 2.5c.08.34.12.61.18.9h.02l.19-.9.51-2.51h.69l-.71 2.8a8.01 8.01 0 0 1-1.08 2.8c-.31.4-.64.6-.79.67l-.25-.59c.2-.12.42-.3.61-.55.18-.23.33-.52.4-.74.03-.1.04-.15.04-.21s0-.11-.02-.16l-1.1-4.02h.74zm2.75-1.88h.7v6.23h-.7v-6.23zm2.94 6.3c-.78 0-1.41-.71-1.41-2.24 0-1.6.71-2.26 1.46-2.26.78 0 1.4.72 1.4 2.24 0 1.7-.77 2.26-1.44 2.26zm.04-.55c.6 0 .72-1.02.72-1.7 0-.67-.13-1.7-.74-1.7-.62 0-.74 1.03-.74 1.7 0 .72.13 1.7.75 1.7zm4.48-.51c0 .33 0 .7.05.99h-.63l-.04-.46h-.03a.98.98 0 0 1-.86.53c-.59 0-1.04-.49-1.04-1.24 0-1.1.88-1.58 1.86-1.59v-.13c0-.59-.15-1-.7-1-.27 0-.5.09-.72.23l-.15-.48a1.9 1.9 0 0 1 1.02-.3c.87 0 1.24.58 1.24 1.56v1.89zm-.67-1.27c-.36 0-1.2.07-1.2 1.02 0 .57.29.77.53.77.3 0 .56-.23.64-.66.02-.08.02-.17.02-.25v-.88zm4.28-3.97v5.19l.03 1.04h-.59l-.04-.54h-.04a1 1 0 0 1-.9.61c-.75 0-1.28-.8-1.28-2.23 0-1.55.64-2.27 1.32-2.27.31 0 .62.14.79.51h.02v-2.31h.69zm-.7 3.53v-.29c-.04-.45-.32-.85-.65-.85-.58 0-.77.8-.77 1.68 0 .92.23 1.66.73 1.66.22 0 .52-.12.67-.75.03-.08.03-.18.03-.29v-1.16zm-41.91-12.87c.2.12.57.24.87.24.63 0 1.01-.41 1.01-1.03 0-.55-.32-.9-.8-1.26-.48-.33-1.14-.9-1.14-1.68 0-.92.64-1.6 1.6-1.6.38 0 .7.13.85.23l-.17.6c-.15-.11-.4-.21-.72-.21-.6 0-.87.45-.87.86 0 .6.31.85.89 1.26.73.5 1.05 1.07 1.05 1.74 0 1.05-.74 1.7-1.7 1.7-.41 0-.85-.13-1.02-.27l.15-.58zm4.14-4.58v1.02h.84v.53h-.84v2.59c0 .57.2.72.45.72.12 0 .2-.01.28-.03l.03.53c-.12.05-.28.07-.5.07-.29 0-.53-.07-.7-.26-.17-.2-.25-.5-.25-1.1v-2.53h-.54v-.52h.54v-.73l.69-.29zm1.44 2.15c0-.37-.03-.8-.04-1.13h.62l.04.69h.02c.14-.42.51-.76.92-.76l.14.01v.71h-.14c-.44 0-.77.4-.84.9-.02.12-.03.24-.03.4v2.41h-.69v-3.23zm2.6 1.11c0 1.34.53 1.62 1.03 1.62.3 0 .55-.07.72-.16l.11.5a2 2 0 0 1-.96.21c-1.03 0-1.58-.84-1.58-2.19 0-1.4.6-2.3 1.47-2.3.88 0 1.24.95 1.24 1.93l-.01.4h-2.02zm1.37-.5c0-.88-.32-1.27-.65-1.27-.45 0-.68.67-.71 1.26h1.36zm3.71 1.63c0 .33 0 .71.04.99h-.62l-.04-.46h-.03a.98.98 0 0 1-.86.53c-.59 0-1.04-.49-1.04-1.24 0-1.1.87-1.58 1.85-1.59v-.13c0-.58-.14-.99-.69-.99-.27 0-.51.08-.72.23l-.15-.5a1.9 1.9 0 0 1 1.02-.28c.87 0 1.24.58 1.24 1.55v1.89zm-.68-1.27c-.36 0-1.2.07-1.2 1.02 0 .57.3.77.54.77.3 0 .55-.22.64-.65l.02-.26v-.88zm1.66-.97c0-.52-.03-.78-.04-1.13h.61l.04.53h.02c.19-.35.51-.6.97-.6.4 0 .76.19.92.66h.02c.11-.22.27-.4.42-.5.18-.1.38-.16.6-.16.6 0 1.06.42 1.06 1.54v2.89h-.7v-2.74c0-.56-.08-1.11-.6-1.11-.29 0-.54.24-.64.65-.02.11-.02.25-.02.4v2.8h-.7v-2.86c0-.48-.08-1-.6-1-.28 0-.56.25-.64.72-.02.1-.03.23-.03.37v2.77h-.69v-3.23zm7.74-2.84v6.07h-.7V48.6h.7zm3.63-.16v5.19c0 .3.03.79.04 1.04h-.6l-.04-.54h-.03a1 1 0 0 1-.91.61c-.74 0-1.27-.79-1.27-2.23 0-1.55.64-2.27 1.31-2.27.32 0 .62.15.8.51h.01v-2.31h.7zm-.69 3.53v-.29c-.04-.45-.32-.85-.66-.85-.57 0-.77.8-.77 1.68 0 .92.24 1.66.74 1.66.21 0 .51-.12.66-.75.03-.08.03-.18.03-.29v-1.16zm2.14.58c.01 1.34.53 1.62 1.03 1.62.3 0 .55-.07.72-.16l.12.5a2.1 2.1 0 0 1-.97.21c-1.03 0-1.57-.84-1.57-2.19 0-1.4.6-2.3 1.47-2.3.88 0 1.24.95 1.24 1.93l-.02.4h-2.02zm1.37-.5c.01-.88-.31-1.27-.65-1.27-.45 0-.68.67-.7 1.26h1.35zm1.41-.61c0-.52-.02-.78-.03-1.13h.6l.04.52h.02c.19-.35.54-.6 1-.6.6 0 1.05.45 1.05 1.51v2.93h-.7v-2.81c0-.52-.1-1.03-.6-1.03-.28 0-.56.24-.64.7-.03.1-.04.24-.04.4v2.74h-.7v-3.23zm4.44-2.15v1.02h.84v.53h-.84v2.59c0 .57.2.72.45.72.12 0 .2-.01.28-.03l.03.53c-.12.05-.28.07-.5.07-.29 0-.53-.07-.7-.26-.17-.2-.25-.5-.25-1.1v-2.53h-.54v-.52h.54v-.73l.7-.29zm1.77.35c-.22 0-.4-.18-.4-.45s.19-.45.41-.45c.26 0 .42.18.42.45s-.17.45-.42.45zm-.32 5.03v-4.36h.7v4.36h-.7zm1.8 0v-3.83h-.55v-.53h.55v-.28c0-.79.38-1.66 1.58-1.66.37 0 .7.1.85.2l-.14.55a1.72 1.72 0 0 0-.73-.17c-.7 0-.87.48-.87 1.15v.21h1.96v4.36h-.7v-3.83h-1.26v3.83h-.7zm4.11-2.12c0 1.34.52 1.62 1.02 1.62.3 0 .55-.07.72-.16l.12.5c-.25.14-.61.21-.97.21-1.03 0-1.57-.84-1.57-2.19 0-1.4.6-2.3 1.47-2.3.88 0 1.24.95 1.24 1.93l-.02.4h-2.02zm1.36-.5c.01-.88-.31-1.27-.65-1.27-.45 0-.68.67-.7 1.26h1.35zm1.4-.61l-.03-1.13h.62l.04.69h.02c.14-.42.5-.76.91-.76l.15.01v.71h-.15c-.44 0-.76.4-.83.9-.02.12-.03.24-.03.4v2.41h-.7v-3.23zm91.7-31.63h-1.1v-.62h2.9v.62h-1.1v5.44h-.7v-5.44z"/><path d="M299.67 20.9l.57 2.51c.08.34.12.62.18.9h.02l.19-.9.51-2.5h.69l-.71 2.8a8 8 0 0 1-1.08 2.8c-.31.4-.63.6-.79.66l-.25-.58c.2-.12.42-.3.61-.55.18-.23.33-.52.4-.74.03-.1.04-.15.04-.21s0-.11-.02-.17l-1.1-4.01h.74zm2.74 1.37c0-.67-.03-1.06-.04-1.36h.63l.03.55h.02c.23-.46.59-.62.92-.62.76 0 1.26.8 1.26 2.24 0 1.62-.67 2.26-1.34 2.26a.82.82 0 0 1-.77-.5h-.02V27h-.69v-4.72zm.7 1.4c0 .13 0 .25.03.36.14.62.44.73.63.73.58 0 .77-.8.77-1.67 0-.9-.22-1.66-.77-1.66-.31 0-.6.4-.64.8-.02.1-.02.2-.02.32v1.12zm3.39-.52c0 1.34.53 1.62 1.02 1.62.3 0 .55-.07.72-.16l.12.5c-.24.14-.61.2-.96.2-1.04 0-1.58-.84-1.58-2.18 0-1.41.6-2.3 1.47-2.3.88 0 1.24.94 1.24 1.92 0 .17 0 .29-.02.4h-2.01zm1.37-.51c0-.88-.32-1.27-.65-1.27-.45 0-.69.67-.71 1.27h1.36zM59.26 33.97h2.32v.6h-1.62v2.12h1.5v.59h-1.5v2.75h-.7v-6.06zm2.96-.17h.7v6.23h-.7V33.8zm4.02 5.24c0 .34 0 .71.04 1h-.62l-.04-.47h-.03a.98.98 0 0 1-.86.53c-.59 0-1.04-.48-1.04-1.24 0-1.1.87-1.57 1.85-1.58v-.14c0-.58-.14-.99-.69-.99-.27 0-.51.08-.72.23l-.15-.49A1.9 1.9 0 0 1 65 35.6c.87 0 1.24.58 1.24 1.55v1.9zm-.68-1.27c-.36 0-1.2.08-1.2 1.02 0 .58.3.78.54.78.3 0 .55-.23.64-.66l.02-.25v-.89zm4.29 1.71c0 1.14-.15 1.57-.44 1.9-.27.28-.67.45-1.16.45-.37 0-.73-.09-.95-.21l.16-.54c.17.09.46.19.8.19.55 0 .9-.35.9-1.34v-.44h-.02a.87.87 0 0 1-.83.53c-.78 0-1.28-.87-1.28-2.15 0-1.6.72-2.27 1.37-2.27.46 0 .67.31.8.56h.03l.03-.48h.62c0 .3-.03.68-.03 1.36v2.44zm-.7-2.3c0-.12 0-.23-.03-.32-.07-.3-.24-.66-.63-.66-.5 0-.77.67-.77 1.64 0 1.11.35 1.62.77 1.62.21 0 .48-.1.62-.62.04-.14.04-.27.04-.4v-1.26zm1.55 2.13c.14.1.41.23.7.23.38 0 .63-.24.63-.63 0-.33-.11-.57-.56-.86-.56-.36-.87-.74-.87-1.24 0-.71.52-1.2 1.2-1.2.34 0 .6.1.77.22l-.18.52a1 1 0 0 0-.58-.2c-.37 0-.56.28-.56.56s.1.46.54.75c.5.32.9.73.9 1.33 0 .88-.6 1.3-1.31 1.3-.32 0-.67-.1-.86-.25l.17-.53zm-60.53-.29c.2.12.53.23.85.23.6 0 .95-.4.95-.99 0-.7-.5-1.05-1.14-1.05h-.16v-.71h.12c.43 0 1.02-.25 1.02-.89 0-.5-.3-.77-.72-.77-.28 0-.53.12-.73.25l-.16-.72c.23-.17.67-.32 1.13-.32.94 0 1.44.63 1.44 1.38 0 .59-.32 1.09-.85 1.34v.02c.54.17 1.01.66 1.01 1.5 0 .93-.65 1.76-1.83 1.76-.44 0-.85-.12-1.1-.28l.17-.75zm3.53.95v-.64l.54-.7c.73-.97 1.44-1.9 1.44-2.86 0-.55-.27-.91-.79-.91-.4 0-.68.19-.86.3l-.2-.73c.24-.17.7-.38 1.23-.38 1.15 0 1.56.79 1.56 1.65 0 1.1-.7 2.07-1.4 2.94l-.36.47v.02h1.85v.84H13.7zm-1.82 14.71v-1.5H9.9v-.65l1.9-3.7h.93v3.58h.6v.78h-.6v1.49h-.85zm0-2.27v-1.4c0-.35.02-.7.05-1.05h-.02l-.45 1-.72 1.43v.02h1.14zm3.38 2.34c-1.1 0-1.6-1.29-1.6-2.98 0-1.82.57-3.01 1.67-3.01 1.17 0 1.56 1.36 1.56 2.98 0 2.11-.72 3.01-1.62 3.01zm.05-.82c.45 0 .62-.8.62-2.18 0-1.31-.16-2.18-.63-2.18-.46 0-.68.8-.67 2.18 0 1.4.2 2.18.67 2.18z"/><path fill="#ccc" fill-rule="evenodd" stroke="#000" d="M.5 59.45h25.89v14.71H.5z" clip-rule="evenodd" stroke-linecap="round" stroke-linejoin="round"/><path d="M11.54 69.52c-.31 0-.57-.26-.57-.66s.27-.67.58-.67c.34 0 .59.25.59.67 0 .4-.24.66-.59.66zm1.95 0c-.32 0-.58-.26-.58-.66s.27-.67.59-.67c.33 0 .58.25.58.67 0 .4-.23.66-.58.66h-.01zm1.94 0c-.31 0-.57-.26-.57-.66s.27-.67.58-.67c.33 0 .59.25.59.67 0 .4-.24.66-.59.66z"/></svg>