<svg xmlns="http://www.w3.org/2000/svg" viewBox="0 0 342.395 128.508"><g stroke="#000" clip-rule="evenodd" stroke-linecap="round" stroke-linejoin="round"><path fill="#ccc" fill-rule="evenodd" d="M.5.5h25.885v14.708H.5zm25.885 0h78.876v14.708H26.385z"/><path fill="#ccc" fill-rule="evenodd" d="M105.261.5h78.875v14.708h-78.875zm78.876 0h78.877v14.708h-78.877zm78.877 0h78.875v14.708h-78.875zM.501 15.269h25.885v24.394H.501z"/><path fill="none" d="M26.386 15.269h39.438v24.394H26.386z"/><path fill="none" d="M65.823 15.269h39.437v24.394H65.823zm39.438 0h53.877v24.394h-53.877zM26.39 39.663h157.751v14.708H26.39z"/><path fill="none" d="M26.39 54.37h78.876v14.708H26.39z"/><path fill="none" d="M105.266 54.37h78.876v14.708h-78.876zm107.878-14.707h128.75v14.708h-128.75zm-29.001 14.708h157.752v14.708H184.143zm-.006-39.102h157.752v24.394H184.137z"/><path fill="#ccc" fill-rule="evenodd" d="M.505 39.663H26.39v14.708H.505z"/><path fill="#ccc" fill-rule="evenodd" d="M.505 54.37H26.39v14.708H.505z"/><path fill="none" d="M26.39 69.103h315.503v14.708H26.39z"/><path fill="#ccc" fill-rule="evenodd" d="M.505 69.103H26.39v14.708H.505z"/><path fill="none" d="M26.39 83.835h315.503v14.708H26.39z"/><path fill="#ccc" fill-rule="evenodd" d="M.505 83.835H26.39v14.708H.505z"/><path fill="none" d="M26.39 98.567h315.503v14.708H26.39z"/><path fill="#ccc" fill-rule="evenodd" d="M.505 98.567H26.39v14.708H.505z"/><path fill="#fddfbb" fill-rule="evenodd" d="M26.39 113.3h315.503v14.708H26.39z"/><path fill="#ccc" fill-rule="evenodd" d="M.505 113.3H26.39v14.708H.505z"/></g><path d="M9.726 4.518a5.667 5.667 0 0 1 1.197-.117c.549 0 1.071.09 1.44.423.297.262.432.648.432 1.08 0 .567-.306 1.081-.891 1.333v.026c.693.189 1.089.766 1.089 1.495 0 .504-.162.9-.441 1.197-.351.396-.945.585-1.818.585-.45 0-.774-.027-1.008-.062v-5.96zm.954 2.439h.279c.495 0 .891-.396.891-.945 0-.504-.234-.882-.828-.882-.144 0-.261.009-.342.036v1.791zm0 2.809c.081.019.18.027.306.027.585 0 1.018-.352 1.018-1.044 0-.712-.496-1.071-1.044-1.071h-.28v2.088zm3.492-4.24c-.279 0-.504-.225-.504-.558 0-.343.234-.559.513-.559.306 0 .522.216.522.559 0 .333-.216.558-.522.558h-.009zm-.46 4.97V6.111h.963v4.385h-.963zm2.998-5.474v1.089h.847v.693h-.847v2.278c0 .54.207.675.45.675.108 0 .198-.009.297-.027l.018.748c-.144.045-.36.071-.63.071-.306 0-.585-.081-.774-.27-.216-.217-.324-.531-.324-1.188V6.804h-.522v-.693h.522v-.756l.963-.333zm43.822.685v2.07h1.999v.63h-1.999v2.089h-.648V8.407h-1.999v-.63h1.999v-2.07h.648zm4.176 4.861c-1.107 0-1.593-1.288-1.593-2.98 0-1.818.558-3.016 1.656-3.016 1.17 0 1.567 1.368 1.567 2.979 0 2.116-.72 3.017-1.621 3.017h-.009zm.045-.819c.45 0 .621-.811.621-2.179 0-1.314-.162-2.179-.63-2.179-.459 0-.675.792-.666 2.179-.009 1.396.189 2.179.666 2.179h.009zm2.825.819c-.315 0-.576-.262-.576-.666 0-.388.271-.667.585-.667.333 0 .585.252.585.667 0 .404-.234.666-.585.666h-.009zm1.944 0c-.315 0-.576-.262-.576-.666 0-.388.271-.667.585-.667.333 0 .585.252.585.667 0 .404-.234.666-.585.666h-.009zm4.294-5.924v.612l-1.864 5.239h-.936l1.818-4.987V5.49h-2.043v-.846h3.025zm63.756 1.063v2.07h1.999v.63h-1.999v2.089h-.648V8.407h-1.999v-.63h1.999v-2.07h.648zm4.274-1.135c.837 0 1.396.63 1.396 1.413 0 .441-.198.955-.783 1.333v.026c.54.324.918.855.918 1.558 0 1.009-.711 1.666-1.639 1.666-.99 0-1.594-.693-1.594-1.549 0-.774.441-1.296.918-1.611l-.009-.018c-.486-.334-.738-.838-.738-1.314 0-.937.702-1.504 1.521-1.504h.01zm-.072 5.33c.396 0 .666-.352.666-.955 0-.612-.36-.972-.738-1.206a1.37 1.37 0 0 0-.621 1.152c0 .576.243 1.009.684 1.009h.009zm.019-4.664c-.36 0-.567.36-.567.802 0 .495.288.783.639.99.297-.189.486-.559.486-.945 0-.478-.171-.847-.549-.847h-.009zm2.825 5.33c-.315 0-.576-.262-.576-.666 0-.388.271-.667.585-.667.333 0 .585.252.585.667 0 .404-.234.666-.585.666h-.009zm1.944 0c-.315 0-.576-.262-.576-.666 0-.388.271-.667.585-.667.333 0 .585.252.585.667 0 .404-.234.666-.585.666h-.009zm2.574-4.997h-.018l-.981.531-.171-.747 1.288-.711h.828v5.852h-.945V5.571zm5.176-.09h-1.558l-.18 1.278c.063-.009.126-.009.198-.009.279.009.783.135 1.107.441.315.306.495.747.495 1.341 0 1.152-.738 2.035-1.917 2.035-.387 0-.819-.1-1.053-.243l.171-.766c.198.108.513.217.828.217.585 0 1.026-.405 1.026-1.152 0-.855-.576-1.171-1.296-1.171-.18 0-.315.009-.432.027l.342-2.836h2.269v.838zm60.3.226v2.07h1.999v.63h-1.999v2.089h-.647V8.407h-2v-.63h2v-2.07h.647zm4.005-.136h-.019l-.981.531-.171-.747 1.288-.711h.828v5.852h-.945V5.571zm5.067-.207c-.125 0-.279.019-.449.055-.865.207-1.252 1.008-1.396 1.81h.027c.225-.298.531-.505.945-.505.766 0 1.297.693 1.297 1.801 0 1.071-.514 2.044-1.566 2.044-1.072 0-1.666-.99-1.666-2.404 0-1.206.36-2.079.864-2.683a2.55 2.55 0 0 1 1.432-.846c.226-.045.405-.055.513-.063v.791zm-1.143 4.492c.387 0 .611-.468.611-1.305-.008-.676-.233-1.126-.656-1.126-.234 0-.469.153-.604.495-.027.063-.055.217-.055.441 0 .964.289 1.494.693 1.494h.011zm2.789.712c-.314 0-.576-.262-.576-.666 0-.388.271-.667.586-.667.332 0 .584.252.584.667 0 .404-.233.666-.584.666h-.01zm1.944 0c-.315 0-.576-.262-.576-.666 0-.388.271-.667.585-.667.334 0 .586.252.586.667 0 .404-.234.666-.586.666h-.009zm1.179-.072v-.64l.541-.711c.729-.963 1.439-1.899 1.439-2.854 0-.549-.27-.909-.783-.909-.396 0-.684.188-.864.306l-.188-.738a2.188 2.188 0 0 1 1.225-.378c1.143 0 1.557.792 1.557 1.656 0 1.099-.702 2.062-1.395 2.936l-.369.468v.018h1.854v.847h-3.017zm3.817-.955c.207.126.531.234.855.234.594 0 .945-.396.945-.991 0-.702-.496-1.053-1.135-1.053h-.162v-.71h.117c.432 0 1.018-.243 1.018-.883 0-.495-.289-.774-.721-.774-.279 0-.531.117-.729.252l-.161-.72c.233-.171.674-.324 1.134-.324.945 0 1.44.63 1.44 1.378 0 .594-.315 1.089-.855 1.341v.019c.549.171 1.018.666 1.018 1.512 0 .919-.657 1.747-1.837 1.747-.433 0-.847-.117-1.089-.271l.162-.757zm61.218-3.834v2.07h1.998v.63h-1.998v2.089h-.648V8.407h-1.998v-.63h1.998v-2.07h.648zm2.61 4.789v-.64l.539-.711c.73-.963 1.441-1.899 1.441-2.854 0-.549-.271-.909-.783-.909-.396 0-.685.188-.865.306l-.188-.738a2.188 2.188 0 0 1 1.225-.378c1.144 0 1.558.792 1.558 1.656 0 1.099-.703 2.062-1.396 2.936l-.369.468v.018h1.854v.847h-3.016zm5.525 0V9.001h-1.98v-.657l1.909-3.7h.927v3.583h.604v.774h-.604v1.494h-.856zm0-2.269V6.823c0-.352.027-.702.055-1.045h-.027c-.162.388-.287.657-.449 1l-.712 1.431v.019h1.133zm2.583 2.341c-.315 0-.576-.262-.576-.666 0-.388.271-.667.585-.667.334 0 .586.252.586.667 0 .404-.234.666-.586.666h-.009zm1.944 0c-.314 0-.576-.262-.576-.666 0-.388.271-.667.586-.667.332 0 .584.252.584.667 0 .404-.233.666-.584.666h-.01zm1.323-1.027c.207.126.531.234.855.234.595 0 .945-.396.945-.991 0-.702-.494-1.053-1.134-1.053h-.162v-.71h.116c.433 0 1.018-.243 1.018-.883 0-.495-.287-.774-.72-.774-.279 0-.531.117-.729.252l-.162-.72c.234-.171.676-.324 1.135-.324.945 0 1.44.63 1.44 1.378 0 .594-.315 1.089-.855 1.341v.019c.55.171 1.018.666 1.018 1.512 0 .919-.657 1.747-1.837 1.747-.432 0-.846-.117-1.09-.271l.162-.757zm4.924-3.97h-.018l-.982.531-.17-.747 1.287-.711h.828v5.852h-.945V5.571zM13.426 30.18c-1.107 0-1.593-1.288-1.593-2.98 0-1.818.558-3.016 1.656-3.016 1.17 0 1.567 1.368 1.567 2.979 0 2.116-.72 3.017-1.621 3.017h-.009zm.045-.82c.45 0 .621-.811.621-2.179 0-1.314-.162-2.179-.63-2.179-.459 0-.675.792-.666 2.179-.009 1.396.189 2.179.666 2.179h.009zm24.011.747l-1.386-6.067h.738l.594 2.845c.144.684.324 1.558.432 2.331h.027c.09-.783.261-1.629.405-2.35l.576-2.826h.738l-1.414 6.067h-.71zm2.898-2.115c.009 1.332.531 1.62 1.036 1.62.297 0 .549-.072.72-.171l.108.513c-.243.136-.612.207-.955.207-1.044 0-1.584-.854-1.584-2.188 0-1.413.594-2.296 1.468-2.296.891 0 1.242.937 1.242 1.927 0 .162 0 .279-.009.388H40.38zm1.369-.514c.018-.873-.315-1.261-.648-1.261-.45 0-.684.667-.711 1.261h1.359zm1.403-.603c0-.368-.027-.801-.036-1.125h.622l.036.685h.018c.144-.414.513-.757.918-.757.054 0 .099.01.144.01v.711c-.045-.009-.09-.009-.144-.009-.441 0-.765.404-.837.909a2.65 2.65 0 0 0-.027.396v2.413h-.693v-3.233zm2.124 2.513c.153.099.423.225.702.225.396 0 .639-.243.639-.63 0-.333-.117-.559-.558-.855-.567-.369-.873-.738-.873-1.242 0-.702.522-1.207 1.197-1.207.342 0 .603.117.783.226l-.189.522a1.024 1.024 0 0 0-.576-.189.534.534 0 0 0-.567.549c0 .298.108.459.54.757.504.324.9.72.9 1.323 0 .873-.594 1.296-1.305 1.296-.324 0-.675-.099-.864-.252l.171-.523zm3.465-4.763c.009.27-.162.45-.423.45-.225 0-.396-.181-.396-.45 0-.271.18-.45.405-.45.252 0 .414.179.414.45zm-.747 5.482V25.75h.693v4.357h-.693zm4.33-2.178c0 1.684-.784 2.251-1.45 2.251-.783 0-1.414-.712-1.414-2.242 0-1.593.711-2.26 1.458-2.26.775 0 1.406.729 1.406 2.251zm-2.17 0c0 .721.126 1.701.756 1.701.594 0 .711-1.026.711-1.701 0-.666-.117-1.692-.729-1.692-.621-.001-.738 1.026-.738 1.692zm2.943-1.054c0-.513-.027-.773-.036-1.125h.603l.036.522h.018c.189-.352.54-.595.999-.595.604 0 1.054.45 1.054 1.504v2.926h-.693v-2.809c0-.514-.099-1.035-.603-1.035-.288 0-.567.243-.657.711a2.445 2.445 0 0 0-.027.387v2.746h-.693v-3.232zm23.796-7.335v2.602h1.702V19.54h.693v6.067h-.693v-2.836h-1.702v2.836H76.2V19.54h.693zm3.87 3.952c.009 1.332.531 1.62 1.036 1.62.297 0 .549-.072.72-.171l.108.513c-.243.136-.612.207-.955.207-1.044 0-1.584-.854-1.584-2.188 0-1.413.594-2.296 1.468-2.296.891 0 1.242.937 1.242 1.927 0 .162 0 .279-.009.388h-2.026zm1.368-.514c.018-.873-.315-1.261-.648-1.261-.45 0-.684.667-.711 1.261h1.359zm3.132 2.629l-.045-.459h-.027c-.189.333-.495.531-.864.531-.585 0-1.036-.495-1.036-1.242 0-1.09.874-1.576 1.855-1.585v-.135c0-.585-.145-.99-.693-.99-.27 0-.513.09-.72.225l-.153-.486c.18-.135.585-.288 1.018-.288.873 0 1.251.576 1.251 1.558v1.882c0 .333 0 .711.045.99h-.631zm-.099-2.251c-.36 0-1.197.063-1.197 1.009 0 .567.288.774.531.774.306 0 .567-.226.648-.657.018-.081.018-.171.018-.243v-.883zm4.275-3.978v5.186c0 .297.027.792.036 1.044h-.594l-.045-.549h-.027c-.144.314-.45.621-.909.621-.738 0-1.27-.802-1.27-2.233 0-1.548.639-2.269 1.314-2.269.315 0 .622.153.792.522h.018v-2.322h.685zm-.684 3.528c0-.09 0-.188-.009-.288-.045-.45-.315-.846-.648-.846-.576 0-.774.801-.774 1.674 0 .919.234 1.657.738 1.657.216 0 .513-.117.666-.747a1.37 1.37 0 0 0 .027-.288v-1.162zm2.142.586c.009 1.332.531 1.62 1.036 1.62.297 0 .549-.072.72-.171l.108.513c-.243.136-.612.207-.955.207-1.044 0-1.584-.854-1.584-2.188 0-1.413.594-2.296 1.468-2.296.891 0 1.242.937 1.242 1.927 0 .162 0 .279-.009.388h-2.026zm1.368-.514c.018-.873-.315-1.261-.648-1.261-.45 0-.684.667-.711 1.261h1.359zm1.403-.603c0-.368-.027-.801-.036-1.125h.622l.036.685h.018c.144-.414.513-.757.918-.757.054 0 .099.01.144.01v.711c-.045-.009-.09-.009-.144-.009-.441 0-.765.404-.837.909a2.65 2.65 0 0 0-.027.396v2.413h-.693v-3.233zM76.384 28.54h.693v5.482h1.71v.585h-2.404V28.54zm3.385 3.952c.009 1.332.531 1.62 1.036 1.62.297 0 .549-.072.72-.171l.108.513c-.243.136-.612.207-.955.207-1.044 0-1.584-.854-1.584-2.188 0-1.413.594-2.296 1.468-2.296.891 0 1.242.937 1.242 1.927 0 .162 0 .279-.009.388h-2.026zm1.368-.514c.018-.873-.315-1.261-.648-1.261-.45 0-.684.667-.711 1.261h1.359zm1.412-.603c0-.513-.027-.773-.036-1.125h.603l.036.522h.018c.189-.352.54-.595.999-.595.604 0 1.054.45 1.054 1.504v2.926h-.693v-2.809c0-.514-.099-1.035-.603-1.035-.288 0-.567.243-.657.711a2.445 2.445 0 0 0-.027.387v2.746h-.693v-3.232zm6.31-1.125c-.009.307-.036.693-.036 1.359v2.439c0 1.144-.144 1.576-.432 1.891-.261.298-.675.469-1.161.469-.369 0-.729-.09-.954-.216l.162-.541c.171.091.459.189.811.189.549 0 .891-.342.891-1.332v-.441h-.018a.886.886 0 0 1-.837.531c-.774 0-1.279-.873-1.279-2.152 0-1.602.729-2.269 1.369-2.269.468 0 .684.307.81.567h.018l.036-.495h.62zm-.72 1.504a1.16 1.16 0 0 0-.036-.315c-.081-.297-.234-.666-.63-.666-.504 0-.774.675-.774 1.639 0 1.116.351 1.62.774 1.62.207 0 .477-.099.621-.621.036-.135.045-.271.045-.396v-1.261zm2.492-2.656v1.152h.837v.531h-.837v2.584c0 .567.207.72.459.72.108 0 .198-.009.279-.026l.027.531a1.522 1.522 0 0 1-.513.071c-.27 0-.513-.071-.684-.261-.171-.198-.261-.495-.261-1.099V30.78h-.531v-.53h.531v-.954l.693-.198zm1.449-.72h.693v2.34h.018a1.23 1.23 0 0 1 .36-.378c.162-.099.333-.162.585-.162.549 0 1.018.441 1.018 1.54v2.89h-.693v-2.809c0-.531-.117-1.035-.585-1.035-.324 0-.567.233-.675.692-.018.1-.027.226-.027.334v2.817h-.694v-6.229zm33.56-4.248a3.29 3.29 0 0 1 .937-.117c.639 0 1.089.162 1.422.459.468.405.819 1.188.819 2.458 0 1.386-.342 2.143-.729 2.557-.396.45-.972.657-1.674.657-.279 0-.567-.019-.774-.063V24.13zm.693 5.41c.099.019.198.019.261.019.765 0 1.503-.55 1.503-2.611 0-1.53-.468-2.367-1.44-2.367-.108 0-.234.009-.324.036v4.923zm3.177-.233c.207.135.567.242.873.242.63 0 1.008-.414 1.008-1.026 0-.558-.324-.899-.801-1.26-.477-.333-1.143-.9-1.143-1.684 0-.918.639-1.594 1.603-1.594.378 0 .711.117.855.226l-.171.594a1.276 1.276 0 0 0-.72-.207c-.594 0-.874.45-.874.864 0 .604.315.837.892 1.252.729.513 1.053 1.071 1.053 1.746 0 1.044-.738 1.701-1.702 1.701-.414 0-.855-.135-1.026-.261l.153-.593zm6.031.692c-.189.1-.486.162-.864.162-1.188 0-2.035-.954-2.035-3.016 0-2.395 1.188-3.16 2.143-3.16.369 0 .63.072.756.153l-.153.585a1.339 1.339 0 0 0-.612-.126c-.648 0-1.405.63-1.405 2.485 0 1.854.685 2.466 1.423 2.466.261 0 .495-.062.639-.135l.108.586zm.71-5.869a4.028 4.028 0 0 1 1.008-.117c.558 0 1.026.135 1.341.45.297.288.45.729.45 1.251 0 .559-.135.937-.369 1.242-.333.45-.891.676-1.431.676-.117 0-.207 0-.306-.009v2.484h-.693V24.13zm.693 2.907c.081.019.153.027.27.027.684 0 1.144-.45 1.144-1.306 0-.621-.261-1.179-1.026-1.179-.162 0-.297.018-.387.045v2.413zm31.647.19h-1.521v2.277h1.729v.604h-2.422V24.04h2.314v.603h-1.621v1.999h1.521v.585zm3.619 2.772c-.189.1-.486.162-.864.162-1.188 0-2.035-.954-2.035-3.016 0-2.395 1.188-3.16 2.143-3.16.369 0 .63.072.756.153l-.153.585a1.339 1.339 0 0 0-.612-.126c-.648 0-1.405.63-1.405 2.485 0 1.854.685 2.466 1.423 2.466.261 0 .495-.062.639-.135l.108.586zm.71.108V24.04h.656l1.117 2.845c.252.647.566 1.458.773 2.115h.019a45.668 45.668 0 0 1-.081-2.791V24.04h.621v6.067h-.657l-1.152-2.917a21.766 21.766 0 0 1-.72-2.062h-.019c.054.811.072 1.585.072 2.881v2.098h-.629zM88.049 43.591v6.067h-.693v-6.067h.693zm3.628-.162v5.186c0 .297.027.792.036 1.044h-.594l-.045-.549h-.027c-.144.314-.45.621-.909.621-.738 0-1.27-.802-1.27-2.233 0-1.548.64-2.269 1.314-2.269.315 0 .621.153.792.522h.018v-2.322h.685zm-.684 3.528c0-.09 0-.188-.009-.288-.045-.45-.315-.846-.648-.846-.576 0-.774.801-.774 1.674 0 .919.234 1.657.738 1.657.216 0 .513-.117.666-.747a1.37 1.37 0 0 0 .027-.288v-1.162zm2.141.586c.009 1.332.531 1.62 1.036 1.62.297 0 .549-.072.72-.171l.108.513c-.243.136-.612.207-.955.207-1.044 0-1.584-.854-1.584-2.188 0-1.413.594-2.296 1.468-2.296.891 0 1.242.937 1.242 1.927 0 .162 0 .279-.009.388h-2.026zm1.368-.514c.018-.873-.315-1.261-.648-1.261-.45 0-.684.667-.711 1.261h1.359zm1.413-.603c0-.513-.027-.773-.036-1.125h.603l.036.522h.018c.189-.352.54-.595.999-.595.604 0 1.054.45 1.054 1.504v2.926h-.693V46.85c0-.514-.099-1.035-.603-1.035-.288 0-.567.243-.657.711a2.445 2.445 0 0 0-.027.387v2.746h-.693v-3.233zm4.437-2.278V45.3h.837v.531h-.837v2.584c0 .567.207.72.459.72.108 0 .198-.009.279-.026l.027.531a1.522 1.522 0 0 1-.513.071c-.27 0-.513-.071-.684-.261-.171-.198-.261-.495-.261-1.099V45.83h-.531v-.531h.531v-.954l.693-.197zm2.196.028c.009.27-.162.45-.423.45-.225 0-.396-.181-.396-.45 0-.271.18-.45.405-.45.252 0 .414.179.414.45zm-.747 5.482v-4.357h.693v4.357h-.693zm1.8 0v-3.826h-.549v-.531h.549v-.288c0-.774.378-1.656 1.584-1.656.369 0 .693.107.855.207l-.153.54a1.721 1.721 0 0 0-.72-.171c-.702 0-.874.486-.874 1.152v.216h1.954v4.357h-.693v-3.826h-1.261v3.826h-.692zm5.742-.108c-.153.091-.414.162-.72.162-.955 0-1.594-.765-1.594-2.205 0-1.252.63-2.269 1.72-2.269.234 0 .486.062.612.135l-.135.567a1.13 1.13 0 0 0-.495-.117c-.693 0-1.008.828-1.008 1.684 0 1.017.387 1.629 1.026 1.629.189 0 .342-.045.504-.117l.09.531zm2.34.108l-.045-.459h-.027c-.189.333-.495.531-.864.531-.585 0-1.036-.495-1.036-1.242 0-1.09.874-1.576 1.855-1.585v-.135c0-.585-.145-.99-.693-.99-.27 0-.513.09-.72.225l-.153-.486c.18-.135.585-.288 1.018-.288.873 0 1.251.576 1.251 1.558v1.882c0 .333 0 .711.045.99h-.631zm-.099-2.251c-.36 0-1.197.063-1.197 1.009 0 .567.288.774.531.774.306 0 .567-.226.648-.657.018-.081.018-.171.018-.243v-.883zm2.421-3.259V45.3h.837v.531h-.837v2.584c0 .567.207.72.459.72.108 0 .198-.009.279-.026l.027.531a1.522 1.522 0 0 1-.513.071c-.27 0-.513-.071-.684-.261-.171-.198-.261-.495-.261-1.099V45.83h-.531v-.531h.531v-.954l.693-.197zm2.196.028c.009.27-.162.45-.423.45-.225 0-.396-.181-.396-.45 0-.271.18-.45.405-.45.252 0 .414.179.414.45zm-.747 5.482v-4.357h.693v4.357h-.693zm4.329-2.179c0 1.684-.784 2.251-1.45 2.251-.783 0-1.414-.712-1.414-2.242 0-1.593.711-2.26 1.458-2.26.776 0 1.406.73 1.406 2.251zm-2.17 0c0 .721.126 1.701.756 1.701.594 0 .711-1.026.711-1.701 0-.666-.117-1.692-.729-1.692-.621 0-.738 1.026-.738 1.692zm2.944-1.053c0-.513-.027-.773-.036-1.125h.603l.036.522h.018c.189-.352.54-.595.999-.595.604 0 1.054.45 1.054 1.504v2.926h-.693V46.85c0-.514-.099-1.035-.603-1.035-.288 0-.567.243-.657.711a2.445 2.445 0 0 0-.027.387v2.746h-.693v-3.233zM50.475 58.919h-1.107v-.621h2.908v.621h-1.107v5.446h-.693v-5.446zm3.068-.036c.009.27-.162.45-.423.45-.225 0-.396-.181-.396-.45 0-.271.18-.45.405-.45.252 0 .414.18.414.45zm-.747 5.483v-4.357h.693v4.357h-.693zm1.657-3.233c0-.513-.027-.773-.036-1.125h.603l.036.54h.018c.189-.351.522-.612.981-.612.405 0 .747.198.909.667h.018a1.37 1.37 0 0 1 .432-.495c.171-.117.378-.172.603-.172.585 0 1.044.433 1.044 1.54v2.89h-.685v-2.728c0-.567-.081-1.116-.612-1.116-.288 0-.541.243-.639.647a2.65 2.65 0 0 0-.027.396v2.8h-.684v-2.854c0-.486-.09-.99-.603-.99-.279 0-.567.243-.648.702a2.49 2.49 0 0 0-.027.378v2.764h-.684v-3.232zm6.065 1.117c.009 1.332.531 1.62 1.036 1.62.297 0 .549-.072.72-.171l.108.513c-.243.136-.612.207-.955.207-1.044 0-1.584-.854-1.584-2.187 0-1.413.594-2.296 1.468-2.296.891 0 1.242.937 1.242 1.927 0 .162 0 .279-.009.388h-2.026zm1.369-.513c.018-.873-.315-1.261-.648-1.261-.45 0-.684.667-.711 1.261h1.359zm3.276-2.818h-1.107v-.621h2.908v.621h-1.107v5.446h-.693v-5.446zm4.545 3.268c0 1.684-.784 2.251-1.45 2.251-.783 0-1.414-.712-1.414-2.242 0-1.593.711-2.26 1.458-2.26.776 0 1.406.73 1.406 2.251zm-2.17 0c0 .721.126 1.701.756 1.701.594 0 .711-1.026.711-1.701 0-.666-.117-1.692-.729-1.692-.621 0-.738 1.026-.738 1.692zm4.41-3.889h.693v5.482h1.71v.585h-2.404v-6.067zm3.789.585c.009.27-.162.45-.423.45-.225 0-.396-.181-.396-.45 0-.271.18-.45.405-.45.252 0 .414.18.414.45zm-.747 5.483v-4.357h.693v4.357h-.693zm2.007-4.358l.549 2.449c.063.297.135.684.189 1.062h.027c.045-.359.117-.729.18-1.062l.54-2.449h.684l-1.134 4.357h-.621l-1.134-4.357h.72zm3.141 2.242c.009 1.332.531 1.62 1.036 1.62.297 0 .549-.072.72-.171l.108.513c-.243.136-.612.207-.955.207-1.044 0-1.584-.854-1.584-2.187 0-1.413.594-2.296 1.468-2.296.891 0 1.242.937 1.242 1.927 0 .162 0 .279-.009.388h-2.026zm1.369-.513c.018-.873-.315-1.261-.648-1.261-.45 0-.684.667-.711 1.261h1.359zm52.442-3.349a4.028 4.028 0 0 1 1.008-.117c.558 0 1.026.135 1.341.45.297.288.45.729.45 1.251 0 .559-.135.937-.369 1.242-.333.45-.891.676-1.431.676-.117 0-.207 0-.306-.009v2.484h-.693v-5.977zm.693 2.907c.081.019.153.027.27.027.684 0 1.144-.45 1.144-1.306 0-.621-.261-1.179-1.026-1.179-.162 0-.297.018-.387.045v2.413zm2.781-.162c0-.368-.027-.801-.036-1.125h.622l.036.685h.018c.144-.414.513-.757.918-.757.054 0 .099.01.144.01v.711c-.045-.009-.09-.009-.144-.009-.441 0-.765.404-.837.909a2.65 2.65 0 0 0-.027.396v2.413h-.693v-3.233zm4.789 1.054c0 1.684-.783 2.251-1.45 2.251-.783 0-1.414-.712-1.414-2.242 0-1.593.711-2.26 1.458-2.26.776 0 1.406.73 1.406 2.251zm-2.17 0c0 .721.126 1.701.756 1.701.594 0 .711-1.026.711-1.701 0-.666-.117-1.692-.729-1.692-.621 0-.738 1.026-.738 1.692zm3.789-3.331v1.152h.837v.531h-.837v2.584c0 .567.207.72.459.72.108 0 .198-.009.279-.026l.027.531a1.522 1.522 0 0 1-.513.071c-.27 0-.513-.071-.684-.261-.171-.198-.261-.495-.261-1.099V60.54h-.531v-.531h.531v-.954l.693-.199zm4.051 3.331c0 1.684-.783 2.251-1.45 2.251-.783 0-1.414-.712-1.414-2.242 0-1.593.711-2.26 1.458-2.26.775 0 1.406.73 1.406 2.251zm-2.17 0c0 .721.126 1.701.756 1.701.594 0 .711-1.026.711-1.701 0-.666-.117-1.692-.729-1.692-.621 0-.738 1.026-.738 1.692zm5.067 2.07c-.153.091-.414.162-.72.162-.955 0-1.594-.765-1.594-2.205 0-1.252.63-2.269 1.72-2.269.234 0 .486.062.612.135l-.135.567a1.13 1.13 0 0 0-.495-.117c-.693 0-1.008.828-1.008 1.684 0 1.017.387 1.629 1.026 1.629.189 0 .342-.045.504-.117l.09.531zm3.214-2.07c0 1.684-.784 2.251-1.45 2.251-.783 0-1.414-.712-1.414-2.242 0-1.593.711-2.26 1.458-2.26.775 0 1.406.73 1.406 2.251zm-2.17 0c0 .721.126 1.701.756 1.701.594 0 .711-1.026.711-1.701 0-.666-.117-1.692-.729-1.692-.621 0-.738 1.026-.738 1.692zm2.943-4.051h.693v6.229h-.693v-6.229zm101.037-14.545h2.313v.603h-1.62v2.125h1.512v.585h-1.512v2.755h-.693v-6.068zm2.942 2.835c0-.368-.026-.801-.036-1.125h.621l.036.685h.019c.144-.414.513-.757.918-.757.055 0 .1.01.145.01v.711c-.045-.009-.09-.009-.145-.009-.441 0-.766.404-.838.909a2.658 2.658 0 0 0-.026.396v2.413h-.693v-3.233zm3.907 3.232l-.045-.459h-.027c-.189.333-.495.531-.864.531-.585 0-1.036-.495-1.036-1.242 0-1.09.874-1.576 1.855-1.585v-.135c0-.585-.145-.99-.693-.99-.27 0-.514.09-.721.225l-.152-.486c.18-.135.585-.288 1.018-.288.873 0 1.251.576 1.251 1.558v1.882c0 .333 0 .711.045.99h-.631zm-.099-2.251c-.359 0-1.197.063-1.197 1.009 0 .567.288.774.531.774.307 0 .567-.226.648-.657.018-.081.018-.171.018-.243v-.883zm4.32-2.106c-.009.307-.036.693-.036 1.359v2.44c0 1.144-.144 1.576-.433 1.891-.26.298-.674.469-1.16.469-.369 0-.73-.09-.955-.216l.162-.541c.172.091.459.189.811.189.549 0 .891-.342.891-1.332v-.441h-.018a.886.886 0 0 1-.837.531c-.774 0-1.278-.873-1.278-2.152 0-1.602.729-2.269 1.368-2.269.468 0 .685.307.81.567h.019l.036-.495h.62zm-.721 1.504c0-.108-.008-.226-.035-.315-.082-.297-.234-.666-.631-.666-.504 0-.773.675-.773 1.639 0 1.116.351 1.62.773 1.62.207 0 .478-.099.621-.621.037-.135.045-.271.045-.396v-1.261zm1.647-.379c0-.513-.027-.773-.035-1.125h.603l.036.54h.018c.189-.351.522-.612.982-.612.404 0 .746.198.908.667h.019c.116-.217.271-.388.433-.495.17-.117.377-.172.603-.172.585 0 1.044.433 1.044 1.54v2.89h-.684v-2.728c0-.567-.082-1.116-.612-1.116-.288 0-.54.243-.64.647a2.65 2.65 0 0 0-.027.396v2.8h-.684v-2.854c0-.486-.09-.99-.604-.99-.279 0-.566.243-.648.702a2.494 2.494 0 0 0-.026.378v2.764h-.685v-3.232zm6.066 1.117c.01 1.332.531 1.62 1.035 1.62.297 0 .549-.072.721-.171l.107.513c-.242.136-.611.207-.954.207-1.044 0-1.585-.854-1.585-2.188 0-1.413.595-2.296 1.469-2.296.891 0 1.242.937 1.242 1.927 0 .162 0 .279-.01.388h-2.025zm1.369-.514c.018-.873-.316-1.261-.648-1.261-.451 0-.685.667-.711 1.261h1.359zm1.413-.603c0-.513-.027-.773-.037-1.125h.604l.036.522h.019c.188-.352.539-.595.998-.595.604 0 1.055.45 1.055 1.504v2.926h-.693V46.85c0-.514-.1-1.035-.604-1.035-.288 0-.567.243-.657.711a2.331 2.331 0 0 0-.027.387v2.746h-.692v-3.233zm4.437-2.278V45.3h.836v.531h-.836v2.584c0 .567.207.72.459.72.107 0 .197-.009.279-.026l.026.531a1.522 1.522 0 0 1-.513.071c-.271 0-.514-.071-.685-.261-.171-.198-.261-.495-.261-1.099V45.83h-.531v-.531h.531v-.954l.695-.197zm6.102 2.431c0 2.278-.783 3.151-1.755 3.151-1.009 0-1.684-1.071-1.684-3.115 0-2.008.72-3.097 1.782-3.097 1.035.001 1.657 1.126 1.657 3.061zm-2.719.045c0 1.252.244 2.494 1.009 2.494.783 0 .99-1.323.99-2.512 0-1.135-.207-2.476-.999-2.476-.756.001-1 1.261-1 2.494zm5.724 3.034v-3.826h-1.314v3.826h-.693v-3.826h-.549v-.531h.549v-.252c0-.54.127-.99.396-1.278.207-.216.504-.342.9-.342.18 0 .359.045.449.081l-.135.549a.822.822 0 0 0-.324-.063c-.449 0-.594.369-.594 1.054v.252h1.314v-.262c0-.469.072-.954.387-1.314.252-.279.604-.369.865-.369.242 0 .423.045.549.107l-.117.541a.932.932 0 0 0-.378-.072c-.495 0-.612.531-.612 1.099v.27h.792v.531h-.792v3.826h-.693zm1.79-.72c.153.099.423.225.702.225.396 0 .639-.243.639-.63 0-.333-.117-.559-.558-.855-.567-.369-.873-.738-.873-1.242 0-.702.522-1.207 1.197-1.207.342 0 .603.117.783.226l-.188.522a1.026 1.026 0 0 0-.576-.189c-.379 0-.568.271-.568.549 0 .298.108.459.541.757.504.324.9.72.9 1.323 0 .873-.595 1.296-1.306 1.296-.324 0-.675-.099-.864-.252l.171-.523zm3.205-1.395c.01 1.332.531 1.62 1.035 1.62.297 0 .549-.072.721-.171l.107.513c-.242.136-.611.207-.954.207-1.044 0-1.585-.854-1.585-2.188 0-1.413.595-2.296 1.469-2.296.891 0 1.242.937 1.242 1.927 0 .162 0 .279-.01.388h-2.025zm1.369-.514c.018-.873-.316-1.261-.648-1.261-.451 0-.685.667-.711 1.261h1.359zm2.258-2.881V45.3h.838v.531h-.838v2.584c0 .567.207.72.459.72.108 0 .199-.009.279-.026l.027.531a1.524 1.524 0 0 1-.514.071c-.27 0-.513-.071-.684-.261-.172-.198-.262-.495-.262-1.099V45.83h-.531v-.531h.531v-.954l.695-.197zm-107.105-.557h2.313v.603h-1.62v2.125h1.513v.585h-1.513v2.755h-.693v-6.068zm2.962-.162h.692v6.229h-.692v-6.229zm3.437 6.229l-.045-.459h-.027c-.189.333-.494.531-.863.531-.586 0-1.036-.495-1.036-1.242 0-1.09.874-1.576 1.854-1.585v-.135c0-.585-.145-.99-.693-.99-.27 0-.513.09-.72.225l-.153-.486c.18-.135.586-.288 1.018-.288.873 0 1.252.576 1.252 1.558v1.882c0 .333 0 .711.045.99h-.632zm-.099-2.251c-.359 0-1.197.063-1.197 1.009 0 .567.289.774.531.774.307 0 .568-.226.648-.657.018-.081.018-.171.018-.243v-.883zm4.32-2.106c-.008.307-.035.693-.035 1.359v2.44c0 1.144-.145 1.576-.433 1.891-.261.298-.675.469-1.161.469-.369 0-.729-.09-.954-.216l.161-.541c.172.091.46.189.811.189.549 0 .892-.342.892-1.332v-.441h-.019a.883.883 0 0 1-.836.531c-.775 0-1.279-.873-1.279-2.152 0-1.602.729-2.269 1.369-2.269.468 0 .684.307.81.567h.019l.035-.495h.62zm-.72 1.504a1.16 1.16 0 0 0-.036-.315c-.081-.297-.234-.666-.63-.666-.505 0-.774.675-.774 1.639 0 1.116.352 1.62.774 1.62.207 0 .478-.099.621-.621.036-.135.045-.271.045-.396v-1.261zm1.53 2.133c.153.099.423.225.702.225.396 0 .639-.243.639-.63 0-.333-.117-.559-.558-.855-.567-.369-.873-.738-.873-1.242 0-.702.522-1.207 1.197-1.207.342 0 .603.117.783.226l-.188.522a1.026 1.026 0 0 0-.576-.189c-.379 0-.568.271-.568.549 0 .298.108.459.541.757.504.324.9.72.9 1.323 0 .873-.595 1.296-1.306 1.296-.324 0-.675-.099-.864-.252l.171-.523zm36.572 9.361V60.9h1.702v-2.602h.692v6.067h-.692V61.53h-1.702v2.836h-.693v-6.067h.693zm3.87 3.952c.009 1.332.531 1.62 1.035 1.62.297 0 .549-.072.721-.171l.107.513c-.243.136-.612.207-.955.207-1.043 0-1.584-.854-1.584-2.187 0-1.413.594-2.296 1.468-2.296.892 0 1.242.937 1.242 1.927 0 .162 0 .279-.009.388h-2.025zm1.368-.514c.019-.873-.315-1.261-.648-1.261-.45 0-.685.667-.711 1.261h1.359zm3.132 2.629l-.045-.459h-.027c-.188.333-.494.531-.863.531-.586 0-1.036-.495-1.036-1.242 0-1.09.874-1.576 1.854-1.585v-.135c0-.585-.144-.99-.693-.99-.27 0-.513.09-.72.225l-.153-.486c.18-.135.586-.288 1.018-.288.873 0 1.252.576 1.252 1.558v1.882c0 .333 0 .711.045.99h-.632zm-.1-2.251c-.359 0-1.197.063-1.197 1.009 0 .567.289.774.531.774.307 0 .568-.226.648-.657.018-.081.018-.171.018-.243v-.883zm4.276-3.978v5.186c0 .297.027.792.037 1.044h-.595l-.045-.549h-.027c-.144.314-.45.621-.909.621-.738 0-1.27-.802-1.27-2.233 0-1.548.64-2.269 1.314-2.269.315 0 .621.153.793.522h.018v-2.322h.684zm-.684 3.528c0-.09 0-.188-.01-.288-.045-.45-.314-.846-.647-.846-.576 0-.774.801-.774 1.674 0 .919.234 1.657.738 1.657.216 0 .514-.117.666-.747a1.37 1.37 0 0 0 .027-.288v-1.162zm2.141.586c.01 1.332.531 1.62 1.036 1.62.297 0 .549-.072.72-.171l.108.513c-.243.136-.612.207-.954.207-1.045 0-1.585-.854-1.585-2.187 0-1.413.595-2.296 1.468-2.296.891 0 1.242.937 1.242 1.927 0 .162 0 .279-.009.388h-2.026zm1.369-.514c.018-.873-.315-1.261-.648-1.261-.45 0-.684.667-.711 1.261h1.359zm1.403-.603c0-.368-.026-.801-.036-1.125h.621l.036.685h.019c.144-.414.513-.757.918-.757.054 0 .1.01.145.01v.711c-.045-.009-.091-.009-.145-.009-.441 0-.766.404-.838.909a2.658 2.658 0 0 0-.026.396v2.413h-.693v-3.233zm6.355 3.124c-.188.1-.486.162-.863.162-1.189 0-2.035-.954-2.035-3.016 0-2.395 1.188-3.16 2.143-3.16.369 0 .631.072.756.153l-.152.585a1.342 1.342 0 0 0-.612-.126c-.648 0-1.405.63-1.405 2.485 0 1.854.686 2.466 1.424 2.466.26 0 .494-.062.639-.135l.105.586zm.629-6.121h.693v2.34h.018c.091-.152.226-.287.361-.378.162-.099.332-.162.584-.162.55 0 1.018.441 1.018 1.54v2.89h-.693v-2.809c0-.531-.117-1.035-.585-1.035-.323 0-.567.233-.675.692-.018.1-.027.226-.027.334v2.817h-.693v-6.229zm4.131 4.114c.01 1.332.531 1.62 1.036 1.62.297 0 .549-.072.72-.171l.108.513c-.243.136-.612.207-.954.207-1.045 0-1.585-.854-1.585-2.187 0-1.413.595-2.296 1.468-2.296.891 0 1.242.937 1.242 1.927 0 .162 0 .279-.009.388H267.6zm1.369-.514c.018-.873-.315-1.261-.648-1.261-.45 0-.684.667-.711 1.261h1.359zm3.537 2.521c-.153.091-.414.162-.721.162-.954 0-1.594-.765-1.594-2.205 0-1.252.631-2.269 1.721-2.269.233 0 .486.062.611.135l-.135.567a1.13 1.13 0 0 0-.495-.117c-.693 0-1.009.828-1.009 1.684 0 1.017.388 1.629 1.027 1.629.188 0 .342-.045.504-.117l.091.531zm1.277-2.224h.018c.082-.171.153-.342.234-.485l.864-1.54h.747l-1.152 1.837 1.252 2.521h-.774l-.945-2.053-.243.405v1.647h-.693v-6.229h.693v3.897zm2.385 1.612c.152.099.423.225.702.225.396 0 .64-.243.64-.63 0-.333-.117-.559-.559-.855-.567-.369-.873-.738-.873-1.242 0-.702.521-1.207 1.197-1.207.342 0 .604.117.783.226l-.189.522a1.024 1.024 0 0 0-.576-.189.533.533 0 0 0-.566.549c0 .298.107.459.539.757.505.324.9.72.9 1.323 0 .873-.594 1.296-1.305 1.296-.324 0-.676-.099-.864-.252l.171-.523zm5.328-.468c0 .486.027.864.036 1.188h-.603l-.045-.459h-.019c-.136.216-.468.531-.937.531-.766 0-1.062-.595-1.062-1.675v-2.755h.693v2.656c0 .684.108 1.188.586 1.188.404 0 .584-.379.621-.576a1.87 1.87 0 0 0 .035-.396v-2.872h.693v3.17zm.972-2.044c0-.513-.027-.773-.036-1.125h.604l.035.54h.019c.188-.351.522-.612.981-.612.404 0 .747.198.909.667h.019a1.36 1.36 0 0 1 .432-.495c.171-.117.378-.172.604-.172.584 0 1.044.433 1.044 1.54v2.89h-.685v-2.728c0-.567-.081-1.116-.611-1.116-.289 0-.541.243-.64.647a2.524 2.524 0 0 0-.027.396v2.8h-.685v-2.854c0-.486-.09-.99-.603-.99-.279 0-.567.243-.648.702a2.371 2.371 0 0 0-.026.378v2.764h-.685v-3.232zm-35.294-36.473h-1.107v-.621h2.907v.621h-1.106v5.446h-.693v-5.446zm4.545 3.268c0 1.684-.783 2.251-1.449 2.251-.783 0-1.414-.712-1.414-2.242 0-1.593.712-2.26 1.459-2.26.774 0 1.404.729 1.404 2.251zm-2.17 0c0 .721.127 1.701.757 1.701.595 0 .711-1.026.711-1.701 0-.666-.116-1.692-.729-1.692-.622-.001-.739 1.026-.739 1.692zm3.789-3.331v1.152h.838v.531h-.838v2.584c0 .567.207.72.459.72.108 0 .199-.009.279-.026l.027.531a1.524 1.524 0 0 1-.514.071c-.27 0-.513-.071-.684-.261-.172-.198-.262-.495-.262-1.099V26.28h-.531v-.53h.531v-.954l.695-.198zm3.168 5.509l-.045-.459h-.026c-.188.333-.495.531-.864.531-.586 0-1.035-.495-1.035-1.242 0-1.09.873-1.576 1.854-1.585v-.135c0-.585-.143-.99-.692-.99-.271 0-.513.09-.72.225l-.154-.486c.181-.135.586-.288 1.018-.288.873 0 1.252.576 1.252 1.558v1.882c0 .333 0 .711.045.99h-.633zm-.099-2.251c-.36 0-1.197.063-1.197 1.009 0 .567.288.774.531.774.306 0 .567-.226.647-.657.019-.081.019-.171.019-.243v-.883zm1.656-3.978h.693v6.229h-.693v-6.229zm3.185.162h.693v5.482h1.711v.585h-2.404V24.04zm3.385 3.952c.01 1.332.531 1.62 1.035 1.62.297 0 .549-.072.721-.171l.107.513c-.242.136-.611.207-.954.207-1.044 0-1.585-.854-1.585-2.188 0-1.413.595-2.296 1.469-2.296.891 0 1.242.937 1.242 1.927 0 .162 0 .279-.01.388h-2.025zm1.369-.514c.018-.873-.316-1.261-.648-1.261-.451 0-.685.667-.711 1.261h1.359zm1.412-.603c0-.513-.027-.773-.036-1.125h.603l.037.522h.018c.189-.352.54-.595.999-.595.604 0 1.054.45 1.054 1.504v2.926h-.693v-2.809c0-.514-.1-1.035-.604-1.035-.287 0-.566.243-.656.711a2.331 2.331 0 0 0-.027.387v2.746h-.693v-3.232zm6.31-1.125c-.009.307-.036.693-.036 1.359v2.439c0 1.144-.145 1.576-.432 1.891-.262.298-.676.469-1.162.469-.369 0-.729-.09-.953-.216l.161-.541c.171.091.46.189.811.189.55 0 .892-.342.892-1.332v-.441h-.019a.886.886 0 0 1-.837.531c-.774 0-1.279-.873-1.279-2.152 0-1.602.73-2.269 1.369-2.269.469 0 .684.307.811.567h.018l.036-.495h.62zm-.72 1.504c0-.108-.01-.226-.037-.315-.08-.297-.233-.666-.629-.666-.505 0-.775.675-.775 1.639 0 1.116.352 1.62.775 1.62.207 0 .477-.099.621-.621.035-.135.045-.271.045-.396v-1.261zm2.492-2.656v1.152h.837v.531h-.837v2.584c0 .567.207.72.459.72.107 0 .198-.009.279-.026l.027.531a1.532 1.532 0 0 1-.514.071c-.27 0-.514-.071-.684-.261-.172-.198-.262-.495-.262-1.099V26.28h-.531v-.53h.531v-.954l.695-.198zm1.449-.72h.692v2.34h.019c.09-.152.225-.287.359-.378.162-.099.334-.162.586-.162.549 0 1.018.441 1.018 1.54v2.89h-.693v-2.809c0-.531-.117-1.035-.586-1.035-.324 0-.566.233-.675.692-.019.1-.027.226-.027.334v2.817h-.692v-6.229zM10.172 48.704c.207.126.531.234.855.234.594 0 .945-.396.945-.991 0-.702-.495-1.053-1.134-1.053h-.162v-.711h.117c.432 0 1.018-.243 1.018-.883 0-.495-.288-.774-.72-.774-.279 0-.531.117-.729.252l-.162-.72c.234-.171.675-.324 1.134-.324.945 0 1.44.63 1.44 1.378 0 .594-.315 1.089-.855 1.341v.019c.549.171 1.018.666 1.018 1.512 0 .919-.657 1.747-1.837 1.747-.432 0-.846-.117-1.089-.271l.161-.756zm3.528.954v-.64l.541-.711c.729-.963 1.44-1.899 1.44-2.854 0-.549-.271-.909-.784-.909-.396 0-.684.188-.864.306l-.189-.738a2.188 2.188 0 0 1 1.225-.378c1.143 0 1.557.792 1.557 1.656 0 1.099-.702 2.062-1.395 2.936l-.369.468v.018h1.854v.847H13.7zm-.881 9.576c-.126 0-.279.019-.45.055-.864.207-1.251 1.008-1.396 1.81H11c.225-.298.531-.505.945-.505.766 0 1.296.693 1.296 1.801 0 1.071-.513 2.044-1.566 2.044-1.071 0-1.666-.99-1.666-2.404 0-1.206.36-2.079.864-2.683a2.55 2.55 0 0 1 1.432-.846c.225-.045.405-.055.513-.063v.791zm-1.143 4.492c.387 0 .612-.468.612-1.305-.009-.676-.234-1.126-.657-1.126-.234 0-.468.153-.603.495-.027.063-.054.217-.054.441 0 .964.288 1.494.693 1.494h.009zm3.879.64v-1.494h-1.98v-.657l1.909-3.7h.927v3.583h.603v.774h-.604v1.494h-.855zm0-2.269v-1.404c0-.352.027-.702.054-1.045h-.027c-.162.388-.288.657-.45 1l-.711 1.431v.019h1.134zm144.908 16.2c.207.135.567.242.873.242.63 0 1.008-.414 1.008-1.026 0-.558-.324-.899-.801-1.26-.477-.333-1.143-.9-1.143-1.684 0-.918.639-1.594 1.602-1.594.378 0 .711.117.855.226l-.171.594a1.276 1.276 0 0 0-.72-.207c-.594 0-.874.45-.874.864 0 .604.315.837.892 1.252.729.513 1.053 1.071 1.053 1.746 0 1.044-.738 1.701-1.702 1.701-.414 0-.855-.135-1.026-.261l.154-.593zm6.067-1.378c0 1.684-.784 2.251-1.45 2.251-.783 0-1.414-.712-1.414-2.242 0-1.593.711-2.26 1.458-2.26.776 0 1.406.73 1.406 2.251zm-2.17 0c0 .721.126 1.701.756 1.701.594 0 .711-1.026.711-1.701 0-.666-.117-1.692-.729-1.692-.62 0-.738 1.026-.738 1.692zm5.554.991c0 .486.027.864.036 1.188h-.603l-.045-.459h-.018c-.135.216-.468.531-.937.531-.765 0-1.062-.595-1.062-1.675V74.74h.693v2.656c0 .684.108 1.188.585 1.188.405 0 .585-.379.621-.576.027-.117.036-.253.036-.396V74.74h.693v3.17zm.962-2.044c0-.368-.027-.801-.036-1.125h.622l.036.685h.018c.144-.414.513-.757.918-.757.054 0 .099.01.144.01v.711c-.045-.009-.09-.009-.144-.009-.441 0-.765.404-.837.909a2.65 2.65 0 0 0-.027.396v2.413h-.693v-3.233zm4.24 3.124c-.153.091-.414.162-.721.162-.954 0-1.594-.765-1.594-2.205 0-1.252.631-2.269 1.72-2.269.234 0 .486.062.612.135l-.135.567a1.134 1.134 0 0 0-.495-.117c-.693 0-1.009.828-1.009 1.684 0 1.017.388 1.629 1.026 1.629.189 0 .343-.045.505-.117l.091.531zm1.025-2.007c.01 1.332.531 1.62 1.036 1.62.297 0 .549-.072.72-.171l.108.513c-.243.136-.612.207-.955.207-1.044 0-1.584-.854-1.584-2.188 0-1.413.594-2.296 1.468-2.296.891 0 1.242.937 1.242 1.927 0 .162 0 .279-.009.388h-2.026zm1.369-.514c.018-.873-.315-1.261-.648-1.261-.45 0-.685.667-.711 1.261h1.359zm3.572-3.438v6.067h-.693v-6.067h.693zm1.098.09a4.03 4.03 0 0 1 1.009-.117c.558 0 1.026.135 1.341.45.298.288.45.729.45 1.251 0 .559-.135.937-.369 1.242-.333.45-.891.676-1.431.676-.117 0-.207 0-.307-.009v2.484h-.693v-5.977zm.693 2.907c.081.019.153.027.271.027.684 0 1.144-.45 1.144-1.306 0-.621-.262-1.179-1.026-1.179a1.43 1.43 0 0 0-.388.045v2.413zm5.04 1.252l-.405 1.818h-.666l1.387-6.067h.765l1.351 6.067h-.684l-.405-1.818h-1.343zm1.252-.559l-.315-1.539c-.09-.433-.171-.937-.243-1.387h-.036c-.072.459-.162.981-.243 1.387l-.314 1.539h1.151zm4.409-3.852v5.186c0 .297.027.792.036 1.044h-.594l-.045-.549h-.027c-.145.314-.45.621-.909.621-.738 0-1.27-.802-1.27-2.233 0-1.548.64-2.269 1.314-2.269.315 0 .621.153.792.522h.019v-2.322h.684zm-.683 3.528c0-.09 0-.188-.01-.288-.045-.45-.314-.846-.647-.846-.576 0-.774.801-.774 1.674 0 .919.234 1.657.738 1.657.216 0 .513-.117.666-.747a1.37 1.37 0 0 0 .027-.288v-1.162zm4.274-3.528v5.186c0 .297.027.792.036 1.044h-.594l-.045-.549h-.027c-.145.314-.45.621-.909.621-.738 0-1.27-.802-1.27-2.233 0-1.548.64-2.269 1.314-2.269.315 0 .621.153.792.522h.019v-2.322h.684zm-.684 3.528c0-.09 0-.188-.01-.288-.045-.45-.314-.846-.647-.846-.576 0-.774.801-.774 1.674 0 .919.234 1.657.738 1.657.216 0 .513-.117.666-.747a1.37 1.37 0 0 0 .027-.288v-1.162zm1.647-.531c0-.368-.027-.801-.036-1.125h.621l.036.685h.018c.145-.414.514-.757.919-.757.054 0 .099.01.144.01v.711c-.045-.009-.09-.009-.144-.009-.441 0-.766.404-.838.909a2.658 2.658 0 0 0-.026.396v2.413h-.693v-3.233zm2.601 1.117c.01 1.332.531 1.62 1.036 1.62.297 0 .549-.072.72-.171l.108.513c-.243.136-.612.207-.955.207-1.044 0-1.584-.854-1.584-2.188 0-1.413.594-2.296 1.468-2.296.891 0 1.242.937 1.242 1.927 0 .162 0 .279-.009.388h-2.026zm1.369-.514c.018-.873-.315-1.261-.648-1.261-.45 0-.685.667-.711 1.261h1.359zm1.295 1.909c.152.099.423.225.702.225.396 0 .639-.243.639-.63 0-.333-.117-.559-.558-.855-.567-.369-.873-.738-.873-1.242 0-.702.521-1.207 1.197-1.207.342 0 .603.117.783.226l-.189.522a1.024 1.024 0 0 0-.576-.189.534.534 0 0 0-.567.549c0 .298.108.459.54.757.505.324.9.72.9 1.323 0 .873-.594 1.296-1.305 1.296-.324 0-.676-.099-.864-.252l.171-.523zm2.6 0c.153.099.424.225.702.225.396 0 .64-.243.64-.63 0-.333-.117-.559-.559-.855-.567-.369-.873-.738-.873-1.242 0-.702.522-1.207 1.197-1.207.342 0 .604.117.783.226l-.188.522a1.026 1.026 0 0 0-.576-.189.533.533 0 0 0-.567.549c0 .298.107.459.54.757.504.324.9.72.9 1.323 0 .873-.595 1.296-1.306 1.296-.324 0-.675-.099-.864-.252l.171-.523zM10.416 78.36c.189 0 .315-.009.486-.045a1.58 1.58 0 0 0 .738-.405c.288-.288.522-.765.621-1.396h-.027a1.1 1.1 0 0 1-.882.423c-.748 0-1.333-.675-1.333-1.746 0-1.026.594-2.017 1.621-2.017 1.053 0 1.575 1.018 1.575 2.377 0 1.251-.369 2.17-.882 2.772a2.385 2.385 0 0 1-1.404.811c-.18.036-.351.036-.513.036v-.81zm1.161-4.475c-.315 0-.621.388-.612 1.225.009.702.243 1.144.657 1.144.243 0 .468-.171.576-.396.036-.107.054-.216.054-.513 0-.981-.279-1.459-.666-1.459h-.009zm4.914.081c-.126 0-.279.019-.45.055-.864.207-1.251 1.008-1.396 1.81h.027c.225-.298.531-.505.945-.505.766 0 1.296.693 1.296 1.801 0 1.071-.513 2.044-1.566 2.044-1.071 0-1.666-.99-1.666-2.404 0-1.206.36-2.079.864-2.683a2.55 2.55 0 0 1 1.432-.846c.225-.045.405-.055.513-.063v.791zm-1.143 4.492c.387 0 .612-.468.612-1.305-.009-.676-.234-1.126-.657-1.126-.234 0-.468.153-.603.495-.027.063-.054.217-.054.441 0 .964.288 1.494.693 1.494h.009zm138.55 9.395a3.29 3.29 0 0 1 .937-.117c.639 0 1.089.162 1.422.459.468.405.819 1.188.819 2.458 0 1.386-.342 2.143-.729 2.557-.396.45-.972.657-1.674.657-.279 0-.567-.019-.774-.063v-5.951zm.693 5.41c.099.019.198.019.261.019.765 0 1.503-.55 1.503-2.611 0-1.53-.468-2.367-1.44-2.367-.108 0-.234.009-.324.036v4.923zm3.816-1.548c.009 1.332.531 1.62 1.036 1.62.297 0 .549-.072.72-.171l.108.513c-.243.136-.612.207-.955.207-1.044 0-1.584-.854-1.584-2.188 0-1.413.594-2.296 1.468-2.296.891 0 1.242.937 1.242 1.927 0 .162 0 .279-.009.388h-2.026zm1.368-.513c.018-.873-.315-1.261-.648-1.261-.45 0-.684.667-.711 1.261h1.359zm1.296 1.909c.153.099.423.225.702.225.396 0 .639-.243.639-.63 0-.333-.117-.559-.558-.855-.567-.369-.873-.738-.873-1.242 0-.702.522-1.207 1.197-1.207.342 0 .603.117.783.226l-.189.522a1.024 1.024 0 0 0-.576-.189.534.534 0 0 0-.567.549c0 .298.108.459.54.757.504.324.9.72.9 1.323 0 .873-.594 1.296-1.305 1.296-.324 0-.675-.099-.864-.252l.171-.523zm3.564-4.79v1.152h.837v.531h-.837v2.584c0 .567.207.72.459.72.108 0 .198-.009.279-.026l.027.531a1.522 1.522 0 0 1-.513.071c-.27 0-.513-.071-.684-.261-.171-.198-.261-.495-.261-1.099v-2.521h-.531v-.531h.531v-.954l.693-.197zm2.196.027c.009.27-.162.45-.423.45-.225 0-.396-.181-.396-.45 0-.271.18-.45.405-.45.252 0 .414.18.414.45zm-.747 5.483v-4.357h.693v4.357h-.693zm1.656-3.233c0-.513-.027-.773-.036-1.125h.603l.036.522h.018c.189-.352.54-.595.999-.595.604 0 1.054.45 1.054 1.504v2.926h-.693v-2.809c0-.514-.099-1.035-.603-1.035-.288 0-.567.243-.657.711a2.445 2.445 0 0 0-.027.387v2.746h-.693v-3.232zm5.365 3.233l-.045-.459h-.027c-.188.333-.495.531-.864.531-.585 0-1.036-.495-1.036-1.242 0-1.09.874-1.576 1.855-1.585v-.135c0-.585-.144-.99-.693-.99-.27 0-.513.09-.72.225l-.153-.486c.18-.135.585-.288 1.018-.288.874 0 1.251.576 1.251 1.558v1.882c0 .333 0 .711.045.99h-.631zm-.1-2.251c-.359 0-1.197.063-1.197 1.009 0 .567.288.774.531.774.307 0 .567-.226.648-.657.018-.081.018-.171.018-.243v-.883zm2.421-3.259v1.152h.837v.531h-.837v2.584c0 .567.207.72.459.72.108 0 .198-.009.279-.026l.027.531a1.524 1.524 0 0 1-.514.071c-.27 0-.513-.071-.684-.261-.172-.198-.262-.495-.262-1.099v-2.521h-.531v-.531h.531v-.954l.695-.197zm2.196.027c.009.27-.162.45-.424.45-.225 0-.396-.181-.396-.45 0-.271.18-.45.405-.45.253 0 .415.18.415.45zm-.747 5.483v-4.357h.692v4.357h-.692zm4.33-2.179c0 1.684-.783 2.251-1.45 2.251-.783 0-1.413-.712-1.413-2.242 0-1.593.711-2.26 1.458-2.26.774 0 1.405.729 1.405 2.251zm-2.17 0c0 .721.126 1.701.756 1.701.595 0 .711-1.026.711-1.701 0-.666-.116-1.692-.729-1.692-.621-.001-.738 1.026-.738 1.692zm2.943-1.054c0-.513-.027-.773-.036-1.125h.604l.036.522h.018c.189-.352.54-.595.999-.595.604 0 1.054.45 1.054 1.504v2.926h-.693v-2.809c0-.514-.099-1.035-.603-1.035-.288 0-.567.243-.657.711a2.331 2.331 0 0 0-.027.387v2.746h-.693v-3.232zm5.805-2.835v6.067h-.693v-6.067h.693zm1.098.09a4.028 4.028 0 0 1 1.008-.117c.559 0 1.026.135 1.342.45.297.288.45.729.45 1.251 0 .559-.135.937-.369 1.242-.333.45-.892.676-1.432.676-.117 0-.207 0-.306-.009v2.484h-.693v-5.977zm.693 2.907c.081.019.152.027.27.027.685 0 1.144-.45 1.144-1.306 0-.621-.261-1.179-1.026-1.179-.162 0-.297.018-.387.045v2.413zm5.04 1.252l-.405 1.818h-.666l1.386-6.067h.766l1.351 6.067h-.685l-.405-1.818h-1.342zm1.251-.558l-.315-1.539c-.09-.433-.171-.937-.243-1.387h-.035c-.072.459-.162.981-.243 1.387l-.315 1.539h1.151zm4.41-3.853v5.186c0 .297.026.792.036 1.044h-.595l-.045-.549h-.027c-.144.314-.45.621-.909.621-.738 0-1.27-.802-1.27-2.233 0-1.548.64-2.269 1.314-2.269.315 0 .622.153.793.522h.018v-2.322h.685zm-.684 3.528c0-.09 0-.188-.009-.288-.045-.45-.315-.846-.648-.846-.576 0-.774.801-.774 1.674 0 .919.234 1.657.738 1.657.217 0 .514-.117.666-.747.019-.081.027-.181.027-.288v-1.162zm4.275-3.528v5.186c0 .297.026.792.036 1.044h-.595l-.045-.549h-.027c-.144.314-.45.621-.909.621-.738 0-1.27-.802-1.27-2.233 0-1.548.64-2.269 1.314-2.269.315 0 .622.153.793.522h.018v-2.322h.685zm-.684 3.528c0-.09 0-.188-.009-.288-.045-.45-.315-.846-.648-.846-.576 0-.774.801-.774 1.674 0 .919.234 1.657.738 1.657.217 0 .514-.117.666-.747.019-.081.027-.181.027-.288v-1.162zm1.646-.531c0-.368-.027-.801-.036-1.125h.621l.036.685h.018c.145-.414.514-.757.919-.757.054 0 .099.01.144.01v.711c-.045-.009-.09-.009-.144-.009-.441 0-.766.404-.838.909a2.658 2.658 0 0 0-.026.396v2.413h-.693v-3.233zm2.601 1.117c.01 1.332.531 1.62 1.036 1.62.297 0 .549-.072.72-.171l.108.513c-.243.136-.612.207-.955.207-1.044 0-1.584-.854-1.584-2.188 0-1.413.594-2.296 1.468-2.296.891 0 1.242.937 1.242 1.927 0 .162 0 .279-.009.388h-2.026zm1.369-.513c.018-.873-.315-1.261-.648-1.261-.45 0-.685.667-.711 1.261h1.359zm1.295 1.909c.153.099.424.225.702.225.396 0 .64-.243.64-.63 0-.333-.117-.559-.559-.855-.567-.369-.873-.738-.873-1.242 0-.702.522-1.207 1.197-1.207.342 0 .604.117.783.226l-.188.522a1.026 1.026 0 0 0-.576-.189.533.533 0 0 0-.567.549c0 .298.107.459.54.757.504.324.9.72.9 1.323 0 .873-.595 1.296-1.306 1.296-.324 0-.675-.099-.864-.252l.171-.523zm2.601 0c.152.099.423.225.702.225.396 0 .639-.243.639-.63 0-.333-.117-.559-.558-.855-.567-.369-.873-.738-.873-1.242 0-.702.521-1.207 1.197-1.207.342 0 .603.117.783.226l-.189.522a1.024 1.024 0 0 0-.576-.189.534.534 0 0 0-.567.549c0 .298.108.459.54.757.505.324.9.72.9 1.323 0 .873-.594 1.296-1.305 1.296-.324 0-.676-.099-.864-.252l.171-.523zM9.588 88.906H9.57l-.981.531-.171-.747 1.288-.711h.828v5.852h-.946v-4.925zm2.276 4.925v-.64l.541-.711c.729-.963 1.44-1.899 1.44-2.854 0-.549-.271-.909-.784-.909-.396 0-.684.188-.864.306l-.189-.738a2.188 2.188 0 0 1 1.225-.378c1.143 0 1.557.792 1.557 1.656 0 1.099-.702 2.062-1.395 2.936l-.369.468v.018h1.854v.847h-3.016zm5.338-5.924c.837 0 1.396.63 1.396 1.413 0 .441-.198.955-.783 1.333v.026c.54.324.918.855.918 1.558 0 1.009-.711 1.666-1.639 1.666-.99 0-1.593-.693-1.593-1.549 0-.774.441-1.296.918-1.611l-.009-.018c-.486-.334-.738-.838-.738-1.314 0-.937.702-1.504 1.521-1.504h.009zm-.072 5.33c.396 0 .666-.352.666-.955 0-.612-.36-.972-.738-1.206a1.37 1.37 0 0 0-.621 1.152c0 .576.243 1.009.684 1.009h.009zm.018-4.664c-.36 0-.567.36-.567.802 0 .495.288.783.639.99.297-.189.486-.559.486-.945 0-.478-.171-.847-.549-.847h-.009zm144.167 16.911c0 2.278-.783 3.151-1.755 3.151-1.008 0-1.684-1.071-1.684-3.115 0-2.008.72-3.097 1.783-3.097 1.035 0 1.656 1.125 1.656 3.061zm-2.719.045c0 1.252.243 2.494 1.008 2.494.783 0 .99-1.323.99-2.512 0-1.135-.207-2.476-.999-2.476-.756.001-.999 1.26-.999 2.494zm3.537.036c0-.666-.027-1.053-.036-1.359h.622l.036.559h.018c.234-.469.576-.631.918-.631.756 0 1.26.811 1.26 2.242 0 1.611-.666 2.26-1.351 2.26-.405 0-.639-.262-.756-.505h-.018v2.161h-.693v-4.727zm.693 1.395c0 .135 0 .261.027.36.135.621.45.738.639.738.576 0 .756-.792.756-1.675 0-.9-.216-1.656-.765-1.656-.315 0-.594.396-.639.792-.018.108-.018.216-.018.333v1.108zm3.753-3.907v1.152h.837v.531h-.837v2.584c0 .567.207.72.459.72.108 0 .198-.009.279-.026l.027.531a1.522 1.522 0 0 1-.513.071c-.27 0-.513-.071-.684-.261-.171-.198-.261-.495-.261-1.099v-2.521h-.531v-.531h.531v-.954l.693-.197zm2.196.028c.009.27-.162.45-.423.45-.225 0-.396-.181-.396-.45 0-.271.18-.45.405-.45.252-.001.414.179.414.45zm-.747 5.482v-4.357h.693v4.357h-.693zm4.33-2.179c0 1.684-.783 2.251-1.45 2.251-.783 0-1.414-.712-1.414-2.242 0-1.593.711-2.26 1.458-2.26.776 0 1.406.73 1.406 2.251zm-2.17 0c0 .721.126 1.701.756 1.701.594 0 .711-1.026.711-1.701 0-.666-.117-1.692-.729-1.692-.621 0-.738 1.026-.738 1.692zm2.943-1.053c0-.513-.027-.773-.036-1.125h.604l.036.522h.018c.189-.352.54-.595.999-.595.604 0 1.054.45 1.054 1.504v2.926h-.693v-2.809c0-.514-.099-1.035-.603-1.035-.288 0-.567.243-.657.711a2.331 2.331 0 0 0-.027.387v2.746h-.693v-3.232zm3.528 2.512c.152.099.423.225.702.225.396 0 .639-.243.639-.63 0-.333-.117-.559-.558-.855-.567-.369-.873-.738-.873-1.242 0-.702.521-1.207 1.197-1.207.342 0 .603.117.783.226l-.189.522a1.024 1.024 0 0 0-.576-.189.534.534 0 0 0-.567.549c0 .298.108.459.54.757.505.324.9.72.9 1.323 0 .873-.594 1.296-1.305 1.296-.324 0-.676-.099-.864-.252l.171-.523zm5.697-5.51c-.514.81-.937 2.025-.937 3.664 0 1.611.423 2.826.937 3.646h-.54c-.469-.684-.991-1.891-.991-3.655.019-1.764.522-2.979.991-3.654h.54zm1.458.748c.009.27-.162.45-.423.45-.226 0-.396-.181-.396-.45 0-.271.181-.45.405-.45.251-.001.414.179.414.45zm-.748 5.482v-4.357h.693v4.357h-.693zm1.801 0v-3.826h-.55v-.531h.55v-.261c0-.469.071-.954.387-1.314a1.18 1.18 0 0 1 .873-.369c.234 0 .414.045.54.107l-.117.541a.89.89 0 0 0-.378-.072c-.495 0-.612.531-.612 1.099v.27h.793v.531h-.793v3.826h-.693zm3.312-2.998c0-.666-.027-1.053-.036-1.359h.621l.036.559h.018c.234-.469.576-.631.919-.631.756 0 1.26.811 1.26 2.242 0 1.611-.666 2.26-1.35 2.26-.405 0-.64-.262-.757-.505h-.018v2.161h-.693v-4.727zm.693 1.395c0 .135 0 .261.026.36.136.621.45.738.64.738.576 0 .756-.792.756-1.675 0-.9-.216-1.656-.765-1.656-.315 0-.595.396-.64.792-.018.108-.018.216-.018.333v1.108zm2.898-1.629c0-.368-.027-.801-.036-1.125h.621l.036.685h.018c.145-.414.514-.757.919-.757.054 0 .099.01.144.01v.711c-.045-.009-.09-.009-.144-.009-.441 0-.766.404-.838.909a2.658 2.658 0 0 0-.026.396v2.413h-.693v-3.233zm2.6 1.117c.01 1.332.531 1.62 1.036 1.62.297 0 .549-.072.72-.171l.108.513c-.243.136-.612.207-.955.207-1.044 0-1.584-.854-1.584-2.188 0-1.413.594-2.296 1.468-2.296.891 0 1.242.937 1.242 1.927 0 .162 0 .279-.009.388h-2.026zm1.369-.514c.018-.873-.315-1.261-.648-1.261-.45 0-.685.667-.711 1.261h1.359zm1.295 1.909c.153.099.424.225.702.225.396 0 .64-.243.64-.63 0-.333-.117-.559-.559-.855-.567-.369-.873-.738-.873-1.242 0-.702.522-1.207 1.197-1.207.342 0 .604.117.783.226l-.188.522a1.026 1.026 0 0 0-.576-.189.533.533 0 0 0-.567.549c0 .298.107.459.54.757.504.324.9.72.9 1.323 0 .873-.595 1.296-1.306 1.296-.324 0-.675-.099-.864-.252l.171-.523zm3.204-1.395c.009 1.332.531 1.62 1.035 1.62.297 0 .549-.072.721-.171l.107.513c-.243.136-.612.207-.954.207-1.044 0-1.585-.854-1.585-2.188 0-1.413.595-2.296 1.468-2.296.892 0 1.242.937 1.242 1.927 0 .162 0 .279-.009.388h-2.025zm1.368-.514c.019-.873-.315-1.261-.648-1.261-.45 0-.684.667-.711 1.261h1.359zm1.414-.603c0-.513-.027-.773-.036-1.125h.603l.036.522h.019c.188-.352.54-.595.999-.595.604 0 1.054.45 1.054 1.504v2.926H205v-2.809c0-.514-.1-1.035-.604-1.035-.288 0-.567.243-.657.711a2.445 2.445 0 0 0-.027.387v2.746h-.692v-3.232zm4.436-2.278v1.152h.837v.531h-.837v2.584c0 .567.207.72.459.72.108 0 .198-.009.279-.026l.027.531a1.524 1.524 0 0 1-.514.071c-.27 0-.513-.071-.684-.261-.172-.198-.262-.495-.262-1.099v-2.521h-.531v-.531h.531v-.954l.695-.197zm1.188 6.59c.514-.81.937-2.043.937-3.664 0-1.62-.423-2.836-.937-3.646h.54c.469.666.99 1.863.99 3.646-.018 1.783-.521 2.971-.99 3.664h-.54zM9.588 103.638H9.57l-.981.531-.171-.747 1.288-.711h.828v5.852h-.946v-4.925zm5.067-.207c-.126 0-.279.019-.45.055-.864.207-1.251 1.008-1.396 1.81h.027c.225-.298.531-.505.945-.505.766 0 1.296.693 1.296 1.801 0 1.071-.513 2.044-1.566 2.044-1.071 0-1.666-.99-1.666-2.404 0-1.206.36-2.079.864-2.683a2.55 2.55 0 0 1 1.432-.846c.225-.045.405-.055.513-.063v.791zm-1.143 4.492c.387 0 .612-.468.612-1.305-.009-.676-.234-1.126-.657-1.126-.234 0-.468.153-.603.495-.027.063-.054.217-.054.441 0 .964.288 1.494.693 1.494h.009zm3.591.712c-1.107 0-1.593-1.288-1.593-2.98 0-1.818.558-3.016 1.656-3.016 1.17 0 1.567 1.368 1.567 2.979 0 2.116-.72 3.017-1.621 3.017h-.009zm.045-.819c.45 0 .621-.811.621-2.179 0-1.314-.162-2.179-.63-2.179-.459 0-.675.792-.666 2.179-.009 1.396.189 2.179.666 2.179h.009zm157.472 9.474c.288-.054.648-.09.955-.09.378 0 .873.108 1.143.423.234.262.334.63.334.981 0 .666-.279 1.261-.612 1.62-.379.414-.945.612-1.44.612-.153 0-.288-.018-.405-.036l-.469 2.494h-.639l1.133-6.004zm.081 2.954c.108.027.207.036.352.036.927 0 1.332-.919 1.332-1.603 0-.55-.216-.928-.873-.928-.117 0-.243.019-.342.036l-.469 2.459zm4.051 3.051c.009-.243.036-.486.063-.828h-.019c-.432.738-.819.9-1.144.9-.504 0-.81-.441-.81-1.225 0-1.323.702-3.277 2.386-3.277.306 0 .621.063.801.145l-.504 2.493c-.117.586-.198 1.306-.189 1.792h-.584zm.549-3.871a1.187 1.187 0 0 0-.27-.027c-.973 0-1.513 1.594-1.54 2.548-.009.55.1.864.405.864.441 0 .909-.864 1.081-1.729l.324-1.656zm1.889-.486l.144 2.439c.019.396.027.648.045 1.081h.019c.117-.379.243-.712.387-1.099l.9-2.422h.666l-1.458 3.538c-.396.973-.855 1.782-1.432 2.277-.261.217-.513.379-.675.433l-.262-.549c.189-.091.424-.226.648-.414.271-.226.567-.622.702-.945.036-.091.045-.153.036-.243l-.387-4.097h.667zm1.971 4.357l1.17-6.229h.657l-1.188 6.229h-.639zm4.681-3.006c0 1.099-.54 3.079-1.872 3.079-.811 0-1.062-.702-1.062-1.477 0-1.171.63-3.025 1.927-3.025.872 0 1.007.838 1.007 1.423zm-2.278 1.539c0 .495.036 1.009.495 1.009.792 0 1.125-1.854 1.125-2.593 0-.45-.08-.838-.459-.838-.719 0-1.161 1.567-1.161 2.422zm4.555 1.467c.009-.243.035-.486.062-.828h-.018c-.433.738-.819.9-1.144.9-.504 0-.811-.441-.811-1.225 0-1.323.702-3.277 2.386-3.277.307 0 .621.063.802.145l-.505 2.493c-.116.586-.197 1.306-.188 1.792h-.584zm.549-3.871a1.19 1.19 0 0 0-.271-.027c-.972 0-1.512 1.594-1.539 2.548-.009.55.099.864.405.864.441 0 .909-.864 1.08-1.729l.325-1.656zm4.5-2.358l-.891 4.699a12.147 12.147 0 0 0-.198 1.53h-.559l.054-.685h-.018c-.216.45-.621.757-1.044.757-.55 0-.883-.514-.883-1.306 0-1.485.783-3.196 2.062-3.196.171 0 .352.072.459.162l.369-1.962h.649zm-1.144 2.529a.47.47 0 0 0-.404-.198c-.838 0-1.324 1.647-1.324 2.539 0 .513.117.873.478.873.315 0 .738-.396.909-1.26l.341-1.954zm-182.475 3.773c-.315 0-.576-.262-.576-.666 0-.388.271-.667.585-.667.333 0 .585.252.585.667 0 .404-.234.666-.585.666h-.009zm1.944 0c-.315 0-.576-.262-.576-.666 0-.388.271-.667.585-.667.333 0 .585.252.585.667 0 .404-.234.666-.585.666h-.009zm1.944 0c-.315 0-.576-.262-.576-.666 0-.388.271-.667.585-.667.333 0 .585.252.585.667 0 .404-.234.666-.585.666h-.009z"/></svg>