<svg xmlns="http://www.w3.org/2000/svg" viewBox="0 0 342.679 214.701"><path fill="none" stroke="#000" d="M66.38 149.541h173.705m-173.705-80h173.705m-139.999 20H276.88m-176.794 40h191.961" stroke-dasharray="1 1"/><path fill="#fddfbb" fill-rule="evenodd" d="M73.286 74.469c0 1.98-1.62 3.6-3.6 3.6H6.98a3.61 3.61 0 0 1-3.6-3.6v-9.856c0-1.98 1.62-3.6 3.6-3.6h62.706c1.98 0 3.6 1.62 3.6 3.6v9.856z" clip-rule="evenodd"/><path fill="none" stroke="#000" d="M73.286 74.469c0 1.98-1.62 3.6-3.6 3.6H6.98a3.61 3.61 0 0 1-3.6-3.6v-9.856c0-1.98 1.62-3.6 3.6-3.6h62.706c1.98 0 3.6 1.62 3.6 3.6v9.856z" stroke-linecap="round" stroke-linejoin="round"/><path fill="#fddfbb" fill-rule="evenodd" d="M336.284 141.191c0 1.98-1.62 3.6-3.6 3.6h-62.707c-1.979 0-3.6-1.62-3.6-3.6v-16.578c0-1.98 1.62-3.6 3.6-3.6h62.707c1.979 0 3.6 1.62 3.6 3.6v16.578z" clip-rule="evenodd"/><path fill="none" stroke="#000" d="M336.284 141.191c0 1.98-1.62 3.6-3.6 3.6h-62.707c-1.979 0-3.6-1.62-3.6-3.6v-16.578c0-1.98 1.62-3.6 3.6-3.6h62.707c1.979 0 3.6 1.62 3.6 3.6v16.578z" stroke-linecap="round" stroke-linejoin="round"/><path fill="#ccc" fill-rule="evenodd" d="M73.286 154.469c0 1.98-1.62 3.6-3.6 3.6H6.98a3.61 3.61 0 0 1-3.6-3.6v-9.856c0-1.98 1.62-3.6 3.6-3.6h62.706c1.98 0 3.6 1.62 3.6 3.6v9.856z" clip-rule="evenodd"/><path fill="none" stroke="#000" d="M73.286 154.469c0 1.98-1.62 3.6-3.6 3.6H6.98a3.61 3.61 0 0 1-3.6-3.6v-9.856c0-1.98 1.62-3.6 3.6-3.6h62.706c1.98 0 3.6 1.62 3.6 3.6v9.856z" stroke-linecap="round" stroke-linejoin="round"/><path fill="none" stroke="#000" d="M66.38 109.541h173.705m-139.999 60H276.88" stroke-dasharray="1 1"/><path fill="#fddfbb" fill-rule="evenodd" d="M73.286 132.622c0 1.98-1.62 3.6-3.6 3.6H6.98a3.61 3.61 0 0 1-3.6-3.6V86.46c0-1.98 1.62-3.6 3.6-3.6h62.706c1.98 0 3.6 1.62 3.6 3.6v46.162z" clip-rule="evenodd"/><path fill="none" stroke="#000" d="M73.286 132.622c0 1.98-1.62 3.6-3.6 3.6H6.98a3.61 3.61 0 0 1-3.6-3.6V86.46c0-1.98 1.62-3.6 3.6-3.6h62.706c1.98 0 3.6 1.62 3.6 3.6v46.162z" stroke-linecap="round" stroke-linejoin="round"/><path fill="#fddfbb" fill-rule="evenodd" d="M336.284 112.622c0 1.98-1.62 3.6-3.6 3.6h-62.707c-1.979 0-3.6-1.62-3.6-3.6V66.46c0-1.98 1.62-3.6 3.6-3.6h62.707c1.979 0 3.6 1.62 3.6 3.6v46.162z" clip-rule="evenodd"/><path fill="none" stroke="#000" d="M336.284 112.622c0 1.98-1.62 3.6-3.6 3.6h-62.707c-1.979 0-3.6-1.62-3.6-3.6V66.46c0-1.98 1.62-3.6 3.6-3.6h62.707c1.979 0 3.6 1.62 3.6 3.6v46.162zm-96.199-73.02v170.793" stroke-linecap="round" stroke-linejoin="round"/><path d="M237.084 209.519l2.991 5.182 2.992-5.182z"/><path fill="none" stroke="#009245" d="M100.086 71.987L235.63 85.541" stroke-linecap="round" stroke-linejoin="round"/><path fill="#009245" d="M234.46 88.44l5.454-2.461-4.858-3.493z"/><path fill="none" stroke="#009245" d="M240.085 91.987l-134.481 12.804" stroke-linecap="round" stroke-linejoin="round"/><path fill="#009245" d="M106.191 101.721l-4.875 3.469 5.442 2.487z"/><path fill="none" stroke="#009245" d="M100.086 111.987l134.628 13.304" stroke-linecap="round" stroke-linejoin="round"/><path fill="#009245" d="M233.548 128.191l5.45-2.467-4.862-3.487z"/><path fill="none" stroke="#009245" d="M240.085 131.987l-134.481 12.804" stroke-linecap="round" stroke-linejoin="round"/><path fill="#009245" d="M106.191 141.721l-4.875 3.469 5.442 2.487z"/><path fill="none" stroke="#000" d="M240.085 171.987l-134.481 12.804" stroke-dasharray="2 2"/><path d="M106.191 181.721l-4.875 3.469 5.442 2.487z"/><path fill="none" stroke="#000" d="M100.086 151.987l134.628 13.304" stroke-linecap="round" stroke-linejoin="round"/><path d="M233.548 168.191l5.45-2.467-4.862-3.487z"/><path fill="none" stroke="#000" d="M100.086 39.602v170.793" stroke-linecap="round" stroke-linejoin="round"/><path d="M97.085 209.519l2.991 5.182 2.991-5.182z"/><path fill="#ccc" fill-rule="evenodd" d="M336.284 174.469c0 1.98-1.62 3.6-3.6 3.6h-62.706a3.612 3.612 0 0 1-3.601-3.6v-9.856c0-1.98 1.621-3.6 3.601-3.6h62.706c1.979 0 3.6 1.62 3.6 3.6v9.856z" clip-rule="evenodd"/><path fill="none" stroke="#000" d="M336.284 174.469c0 1.98-1.62 3.6-3.6 3.6h-62.706a3.612 3.612 0 0 1-3.601-3.6v-9.856c0-1.98 1.621-3.6 3.601-3.6h62.706c1.979 0 3.6 1.62 3.6 3.6v9.856z" stroke-linecap="round" stroke-linejoin="round"/><path d="M25.121 72.356c-.209.11-.549.18-.969.18-1.309 0-2.259-1.049-2.259-3.338 0-2.668 1.319-3.518 2.389-3.518.4 0 .7.08.83.17l-.17.649c-.16-.07-.32-.14-.669-.14-.72 0-1.569.699-1.569 2.758 0 2.069.76 2.738 1.589 2.738.29 0 .54-.069.7-.14l.128.641zm.722-6.796h.77v6.916h-.77V65.56zm2.269 1.329c-.25 0-.439-.2-.439-.5s.2-.499.45-.499c.28 0 .459.199.459.499s-.18.5-.459.5h-.011zm-.36 5.587v-4.837h.77v4.837h-.77zm2.38-2.349c.01 1.489.589 1.799 1.139 1.799.34 0 .61-.08.8-.18l.13.56c-.27.15-.68.229-1.07.229-1.149 0-1.749-.939-1.749-2.429 0-1.568.66-2.548 1.629-2.548.979 0 1.379 1.039 1.379 2.129 0 .189-.01.319-.02.439h-2.238zm1.519-.569c.01-.97-.35-1.399-.72-1.399-.5 0-.759.739-.79 1.399h1.51zm1.572-.67c0-.569-.03-.859-.04-1.249h.67l.04.579h.02c.21-.39.6-.659 1.109-.659.669 0 1.169.489 1.169 1.669v3.248h-.77v-3.118c0-.58-.11-1.149-.669-1.149-.32 0-.629.27-.72.789-.03.11-.04.261-.04.431v3.048h-.77v-3.589zm4.929-2.379v1.13h.93v.579h-.93v2.879c0 .64.22.799.5.799.13 0 .23-.01.31-.029l.04.59c-.14.05-.32.079-.569.079-.31 0-.58-.079-.76-.289-.2-.221-.29-.55-.29-1.22v-2.809h-.589v-.579h.589v-.82l.769-.31zm2.44-.769v2.889h1.889V65.74h.77v6.736h-.77v-3.148h-1.889v3.148h-.77V65.74h.77zm4.301 4.387c.01 1.489.589 1.799 1.139 1.799.34 0 .61-.08.8-.18l.13.56c-.27.15-.68.229-1.069.229-1.149 0-1.75-.939-1.75-2.429 0-1.568.66-2.548 1.629-2.548.979 0 1.379 1.039 1.379 2.129 0 .189-.01.319-.02.439h-2.238zm1.519-.569c.01-.97-.35-1.399-.72-1.399-.5 0-.76.739-.79 1.399h1.51zm1.57-3.998h.77v6.916h-.77V65.56zm1.91 0h.77v6.916h-.77V65.56zm3.27 6.996c-.87 0-1.569-.79-1.569-2.488 0-1.77.79-2.509 1.619-2.509.87 0 1.56.799 1.56 2.488 0 1.879-.86 2.509-1.599 2.509h-.011zm.04-.609c.66 0 .799-1.13.799-1.89 0-.749-.14-1.889-.819-1.889-.689 0-.819 1.14-.819 1.889 0 .8.14 1.89.829 1.89h.01zm223.168 58.77c-.209.11-.549.18-.969.18-1.31 0-2.26-1.049-2.26-3.338 0-2.668 1.32-3.518 2.389-3.518.4 0 .7.08.83.17l-.17.649c-.16-.07-.32-.14-.67-.14-.719 0-1.568.699-1.568 2.758 0 2.069.76 2.738 1.589 2.738.29 0 .54-.069.699-.14l.13.641zm.722-6.796h.77v2.599h.021c.1-.17.25-.32.41-.43.17-.11.369-.17.639-.17.609 0 1.13.479 1.13 1.709v3.208h-.771v-3.118c0-.6-.129-1.149-.648-1.149-.36 0-.631.26-.75.77-.02.11-.03.25-.03.359v3.139h-.77v-6.917zm6.598 5.816c0 .37 0 .79.05 1.1h-.689l-.05-.51h-.03c-.21.37-.55.59-.96.59-.648 0-1.148-.54-1.148-1.379 0-1.22.969-1.749 2.059-1.76v-.149c0-.649-.16-1.1-.77-1.1-.3 0-.57.09-.8.25l-.17-.54c.21-.149.649-.319 1.13-.319.969 0 1.379.64 1.379 1.719v2.098zm-.75-1.409c-.399 0-1.329.08-1.329 1.13 0 .64.319.859.59.859.34 0 .62-.25.71-.729.02-.09.029-.19.029-.28v-.98zm1.842-1.079c0-.569-.03-.859-.041-1.249h.67l.041.579h.02c.21-.39.6-.659 1.109-.659.67 0 1.17.489 1.17 1.669v3.248h-.771v-3.118c0-.58-.11-1.149-.669-1.149-.32 0-.63.27-.721.789a1.81 1.81 0 0 0-.039.431v3.048h-.77v-3.589zm6.968 2.968c0 1.27-.159 1.749-.479 2.109-.3.319-.75.51-1.289.51-.41 0-.811-.1-1.06-.24l.18-.6c.19.101.51.21.89.21.609 0 .989-.38.989-1.479v-.489h-.021c-.159.38-.52.59-.919.59-.859 0-1.419-.97-1.419-2.389 0-1.789.799-2.519 1.52-2.519.51 0 .749.34.898.619h.021l.04-.539h.689c-.01.329-.04.759-.04 1.509v2.708zm-.77-2.548c0-.13-.01-.25-.04-.36-.08-.319-.26-.729-.699-.729-.55 0-.85.75-.85 1.819 0 1.239.39 1.799.85 1.799.24 0 .539-.11.689-.689.05-.15.05-.3.05-.439v-1.401zm2.381.819c.01 1.489.589 1.799 1.14 1.799.34 0 .609-.08.799-.18l.131.56c-.271.15-.68.229-1.07.229-1.148 0-1.749-.939-1.749-2.429 0-1.568.659-2.548 1.63-2.548.979 0 1.379 1.039 1.379 2.129 0 .189-.01.319-.02.439h-2.24zm1.519-.569c.01-.97-.35-1.399-.719-1.399-.5 0-.76.739-.79 1.399h1.509zm4.58 2.798c-.209.11-.549.18-.969.18-1.31 0-2.26-1.049-2.26-3.338 0-2.668 1.32-3.518 2.389-3.518.4 0 .7.08.83.17l-.17.649c-.16-.07-.32-.14-.67-.14-.719 0-1.568.699-1.568 2.758 0 2.069.76 2.738 1.589 2.738.29 0 .54-.069.699-.14l.13.641zm1.041-5.467c-.25 0-.439-.2-.439-.5s.199-.499.449-.499c.28 0 .46.199.46.499s-.18.5-.46.5h-.01zm-.359 5.587V126h.77v4.837h-.77zm1.83-3.328c0-.739-.031-1.169-.041-1.509h.689l.041.609h.02c.26-.51.65-.689 1.02-.689.85 0 1.399.89 1.399 2.488 0 1.799-.739 2.509-1.489 2.509-.46 0-.72-.28-.85-.55h-.02v2.389h-.77v-5.247zm.769 1.559c0 .14.01.279.039.399.15.689.49.81.7.81.64 0 .849-.88.849-1.849 0-1.01-.239-1.85-.849-1.85-.351 0-.67.439-.71.88-.029.12-.029.239-.029.369v1.241zm3.231-5.147h.77v2.599h.02c.1-.17.25-.32.41-.43.17-.11.369-.17.64-.17.609 0 1.13.479 1.13 1.709v3.208h-.771v-3.118c0-.6-.13-1.149-.649-1.149-.359 0-.63.26-.75.77-.02.11-.029.25-.029.359v3.139h-.77v-6.917zm4.59 4.567c.01 1.489.589 1.799 1.139 1.799.34 0 .609-.08.8-.18l.13.56c-.27.15-.68.229-1.069.229-1.149 0-1.749-.939-1.749-2.429 0-1.568.659-2.548 1.629-2.548.979 0 1.379 1.039 1.379 2.129 0 .189-.01.319-.02.439h-2.239zm1.518-.569c.01-.97-.351-1.399-.72-1.399-.5 0-.76.739-.789 1.399h1.509zm1.562-.67c0-.41-.031-.89-.041-1.249h.689l.041.759h.02c.16-.459.57-.839 1.02-.839.061 0 .109 0 .16.01v.789c-.051-.01-.1-.01-.16-.01-.49 0-.85.45-.93 1.01-.02.13-.029.27-.029.439v2.679h-.77v-3.588zm2.399 2.698c.229.14.63.27.97.27.699 0 1.119-.459 1.119-1.139 0-.62-.359-1-.89-1.399-.529-.37-1.269-.999-1.269-1.869 0-1.02.719-1.769 1.778-1.769.42 0 .79.14.95.249l-.19.66a1.41 1.41 0 0 0-.8-.229c-.66 0-.969.499-.969.959 0 .67.35.939.988 1.39.811.569 1.17 1.189 1.17 1.938 0 1.159-.819 1.889-1.889 1.889-.46 0-.949-.149-1.14-.3l.172-.65zm3.69-2.438c0-.739-.031-1.169-.041-1.509h.689l.041.609h.02c.26-.51.65-.689 1.02-.689.85 0 1.399.89 1.399 2.488 0 1.799-.739 2.509-1.489 2.509-.46 0-.72-.28-.85-.55h-.02v2.389h-.77v-5.247zm.77 1.559c0 .14.01.279.039.399.15.689.49.81.7.81.64 0 .849-.88.849-1.849 0-1.01-.239-1.85-.849-1.85-.351 0-.67.439-.71.88-.029.12-.029.239-.029.369v1.241zm3.77-.58c.01 1.489.59 1.799 1.139 1.799.34 0 .61-.08.801-.18l.129.56c-.27.15-.68.229-1.069.229-1.149 0-1.749-.939-1.749-2.429 0-1.568.66-2.548 1.629-2.548.98 0 1.38 1.039 1.38 2.129 0 .189-.011.319-.021.439h-2.239zm1.519-.569c.01-.97-.351-1.399-.721-1.399-.499 0-.759.739-.789 1.399h1.51zm3.93 2.798c-.17.101-.461.18-.801.18-1.059 0-1.769-.85-1.769-2.448 0-1.39.7-2.519 1.909-2.519.26 0 .539.07.68.16l-.15.619a1.25 1.25 0 0 0-.549-.13c-.78 0-1.119.92-1.119 1.869 0 1.129.43 1.809 1.139 1.809.199 0 .38-.04.55-.13l.11.59zm-40.604 3.384h2.568v.67h-1.799v2.358h1.68v.649h-1.68v3.059h-.77v-6.736zm3.64 1.149c-.25 0-.439-.2-.439-.5s.2-.499.45-.499c.279 0 .459.199.459.499s-.18.5-.459.5h-.011zm-.36 5.587V136h.77v4.837h-.77zm1.839-3.588c0-.569-.029-.859-.039-1.249h.67l.039.579h.021c.21-.39.6-.659 1.109-.659.669 0 1.169.489 1.169 1.669v3.248h-.77v-3.118c0-.58-.109-1.149-.67-1.149-.319 0-.629.27-.719.789-.03.11-.041.261-.041.431v3.048h-.77v-3.589zm4.411-1.999c-.25 0-.439-.2-.439-.5s.2-.499.45-.499c.28 0 .46.199.46.499s-.18.5-.46.5h-.011zm-.36 5.587V136h.77v4.837h-.77zm1.71-.8c.17.11.47.25.78.25.43 0 .709-.27.709-.699 0-.37-.13-.63-.619-.95-.631-.409-.97-.829-.97-1.379 0-.789.579-1.339 1.329-1.339.38 0 .66.119.859.25l-.199.579c-.19-.13-.391-.22-.65-.22-.41 0-.619.3-.619.62 0 .319.119.509.6.829.56.359.999.81.999 1.479 0 .969-.659 1.438-1.459 1.438-.351 0-.739-.109-.95-.279l.19-.579zm3.02-6.116h.77v2.599h.021c.1-.17.25-.32.41-.43.17-.11.369-.17.639-.17.609 0 1.13.479 1.13 1.709v3.208h-.771v-3.118c0-.6-.129-1.149-.648-1.149-.36 0-.631.26-.75.77-.02.11-.03.25-.03.359v3.139h-.77v-6.917zm4.59 4.567c.01 1.489.589 1.799 1.139 1.799.34 0 .609-.08.8-.18l.13.56c-.27.15-.68.229-1.069.229-1.149 0-1.749-.939-1.749-2.429 0-1.568.659-2.548 1.629-2.548.979 0 1.379 1.039 1.379 2.129 0 .189-.01.319-.02.439h-2.239zm1.519-.569c.01-.97-.351-1.399-.72-1.399-.5 0-.76.739-.789 1.399h1.509zm4.489-3.998v5.757c0 .33.03.879.04 1.159h-.659l-.051-.6h-.039c-.15.34-.5.68-1.01.68-.82 0-1.41-.88-1.41-2.479 0-1.72.711-2.519 1.46-2.519.35 0 .689.159.88.569h.02v-2.568h.769zm-.769 3.918c0-.101 0-.21-.01-.32-.04-.5-.35-.939-.72-.939-.64 0-.859.89-.859 1.859 0 1.02.26 1.839.819 1.839.24 0 .57-.13.74-.83.029-.09.029-.199.029-.319v-1.29zM14.403 150.458l-.44 2.019h-.75l1.539-6.736h.85l1.5 6.736h-.76l-.44-2.019h-1.499zm1.389-.621l-.35-1.709c-.1-.479-.19-1.039-.27-1.539h-.03c-.08.51-.18 1.089-.28 1.549l-.35 1.699h1.28zm2.082-.689c0-.739-.03-1.169-.04-1.509h.689l.04.609h.02c.26-.51.65-.689 1.02-.689.85 0 1.399.89 1.399 2.488 0 1.799-.74 2.509-1.489 2.509-.46 0-.72-.28-.85-.55h-.02v2.389h-.77v-5.247zm.769 1.56c0 .14.01.279.04.399.15.689.49.81.7.81.64 0 .849-.88.849-1.849 0-1.01-.24-1.85-.849-1.85-.35 0-.67.439-.71.88-.03.12-.03.239-.03.369v1.241zm3.22-1.56c0-.739-.03-1.169-.04-1.509h.689l.04.609h.02c.26-.51.65-.689 1.02-.689.85 0 1.399.89 1.399 2.488 0 1.799-.74 2.509-1.489 2.509-.46 0-.72-.28-.85-.55h-.02v2.389h-.77v-5.247zm.77 1.56c0 .14.01.279.04.399.15.689.49.81.7.81.64 0 .849-.88.849-1.849 0-1.01-.24-1.85-.849-1.85-.35 0-.67.439-.71.88-.03.12-.03.239-.03.369v1.241zm3.23-5.148h.77v6.916h-.77v-6.916zm2.27 1.329c-.25 0-.439-.2-.439-.5s.2-.499.45-.499c.28 0 .459.199.459.499s-.18.5-.459.5h-.011zm-.36 5.587v-4.837h.77v4.837h-.77zm4.199-.12c-.17.101-.46.18-.8.18-1.059 0-1.769-.85-1.769-2.448 0-1.39.7-2.519 1.909-2.519.26 0 .54.07.68.16l-.15.619c-.1-.05-.3-.13-.55-.13-.78 0-1.119.92-1.119 1.869 0 1.129.43 1.809 1.139 1.809.2 0 .38-.04.55-.13l.11.59zm3.21-.98c0 .37 0 .79.05 1.1h-.689l-.05-.51h-.03c-.21.37-.55.59-.959.59-.649 0-1.149-.54-1.149-1.379 0-1.22.97-1.749 2.059-1.76v-.149c0-.649-.16-1.1-.77-1.1-.3 0-.57.09-.8.25l-.17-.54c.21-.149.65-.319 1.129-.319.97 0 1.379.64 1.379 1.719v2.098zm-.75-1.409c-.4 0-1.33.08-1.33 1.13 0 .64.32.859.59.859.34 0 .62-.25.709-.729.02-.09.03-.19.03-.28v-.98zm2.69-3.458v1.13h.93v.579h-.93v2.879c0 .64.22.799.5.799.13 0 .23-.01.31-.029l.04.59c-.14.05-.32.079-.57.079-.31 0-.58-.079-.759-.289-.2-.221-.29-.55-.29-1.22v-2.809h-.589v-.579h.589v-.82l.769-.31zm1.97.38c-.25 0-.439-.2-.439-.5s.2-.499.45-.499c.28 0 .459.199.459.499s-.18.5-.459.5h-.011zm-.36 5.587v-4.837h.77v4.837h-.77zm3.2.08c-.87 0-1.569-.79-1.569-2.488 0-1.77.79-2.509 1.619-2.509.87 0 1.56.799 1.56 2.488 0 1.879-.86 2.509-1.599 2.509h-.011zm.04-.609c.66 0 .799-1.13.799-1.89 0-.749-.14-1.889-.819-1.889-.689 0-.819 1.14-.819 1.889 0 .8.14 1.89.829 1.89h.01zm2.43-3.059c0-.569-.03-.859-.04-1.249h.67l.04.579h.02c.21-.39.6-.659 1.109-.659.669 0 1.169.489 1.169 1.669v3.248h-.77v-3.118c0-.58-.11-1.149-.669-1.149-.32 0-.629.27-.72.789-.03.11-.04.261-.04.431v3.048h-.77v-3.589zm5.681-3.049c.29-.09.65-.13 1.04-.13.7 0 1.209.181 1.579.51.52.45.91 1.319.91 2.729 0 1.539-.38 2.379-.81 2.849-.44.49-1.089.72-1.859.72-.31 0-.64-.021-.859-.07v-6.608zm.769 6.017c.11.021.22.021.29.021.85 0 1.669-.609 1.669-2.908 0-1.699-.52-2.629-1.599-2.629-.12 0-.26.01-.36.04v5.476zm6.169-.48c0 .37 0 .79.05 1.1h-.689l-.05-.51h-.03c-.21.37-.55.59-.959.59-.649 0-1.149-.54-1.149-1.379 0-1.22.97-1.749 2.059-1.76v-.149c0-.649-.16-1.1-.77-1.1-.3 0-.57.09-.8.25l-.17-.54c.21-.149.65-.319 1.129-.319.97 0 1.379.64 1.379 1.719v2.098zm-.749-1.409c-.4 0-1.33.08-1.33 1.13 0 .64.32.859.59.859.34 0 .62-.25.709-.729.02-.09.03-.19.03-.28v-.98zm2.69-3.458v1.13h.93v.579h-.93v2.879c0 .64.22.799.5.799.13 0 .23-.01.31-.029l.04.59c-.14.05-.32.079-.57.079-.31 0-.58-.079-.759-.289-.2-.221-.29-.55-.29-1.22v-2.809h-.589v-.579h.589v-.82l.769-.31zm4.159 4.867c0 .37 0 .79.05 1.1h-.689l-.05-.51h-.03c-.21.37-.55.59-.959.59-.649 0-1.149-.54-1.149-1.379 0-1.22.97-1.749 2.059-1.76v-.149c0-.649-.16-1.1-.77-1.1-.3 0-.57.09-.8.25l-.17-.54c.21-.149.65-.319 1.129-.319.97 0 1.379.64 1.379 1.719v2.098zm-.749-1.409c-.4 0-1.33.08-1.33 1.13 0 .64.32.859.59.859.34 0 .62-.25.709-.729.02-.09.03-.19.03-.28v-.98zM26.311 92.356c-.209.11-.549.18-.969.18-1.309 0-2.259-1.049-2.259-3.338 0-2.668 1.319-3.518 2.389-3.518.4 0 .7.08.83.17l-.17.649c-.16-.07-.32-.14-.669-.14-.72 0-1.569.699-1.569 2.758 0 2.069.76 2.738 1.589 2.738.29 0 .54-.069.699-.14l.129.641zm1.081-2.229c.01 1.489.589 1.799 1.139 1.799.34 0 .61-.08.8-.18l.13.56c-.27.15-.68.229-1.069.229-1.149 0-1.75-.939-1.75-2.429 0-1.568.66-2.548 1.629-2.548.979 0 1.379 1.039 1.379 2.129 0 .189-.01.319-.02.439h-2.238zm1.519-.569c.01-.97-.35-1.399-.72-1.399-.5 0-.76.739-.79 1.399h1.51zm1.561-.67c0-.41-.03-.89-.04-1.249h.689l.04.759h.02c.16-.459.57-.839 1.02-.839.06 0 .11 0 .16.01v.789c-.05-.01-.1-.01-.16-.01-.49 0-.85.45-.93 1.01-.02.13-.03.27-.03.439v2.679h-.77v-3.588zm3.669-2.379v1.13h.93v.579h-.93v2.879c0 .64.22.799.5.799.13 0 .23-.01.31-.029l.04.59c-.14.05-.32.079-.57.079-.31 0-.58-.079-.759-.289-.2-.221-.29-.55-.29-1.22v-2.809h-.589v-.579h.589v-.82l.769-.31zm1.971.38c-.25 0-.439-.2-.439-.5s.2-.499.45-.499c.28 0 .459.199.459.499s-.18.5-.459.5h-.011zm-.36 5.587v-4.837h.77v4.837h-.77zm2 0v-4.258h-.61v-.579h.61v-.32c0-.869.42-1.839 1.759-1.839.41 0 .77.12.939.229l-.16.6a1.93 1.93 0 0 0-.8-.189c-.779 0-.969.54-.969 1.279v.24h2.169v4.837h-.77v-4.258h-1.399v4.258h-.769zm6.378-.12c-.17.101-.46.18-.8.18-1.059 0-1.769-.85-1.769-2.448 0-1.39.7-2.519 1.909-2.519.26 0 .54.07.68.16l-.15.619c-.1-.05-.3-.13-.55-.13-.78 0-1.119.92-1.119 1.869 0 1.129.43 1.809 1.139 1.809.2 0 .38-.04.55-.13l.11.59zm3.21-.98c0 .37 0 .79.05 1.1h-.689l-.05-.51h-.03c-.21.37-.55.59-.959.59-.649 0-1.149-.54-1.149-1.379 0-1.22.97-1.749 2.059-1.76v-.149c0-.649-.16-1.1-.77-1.1-.3 0-.57.09-.8.25l-.17-.54c.21-.149.65-.319 1.129-.319.97 0 1.379.64 1.379 1.719v2.098zm-.749-1.409c-.4 0-1.33.08-1.33 1.13 0 .64.32.859.59.859.34 0 .62-.25.709-.729.02-.09.03-.19.03-.28v-.98zm2.69-3.458v1.13h.93v.579h-.93v2.879c0 .64.22.799.5.799.13 0 .23-.01.31-.029l.04.59c-.14.05-.32.079-.569.079-.31 0-.58-.079-.76-.289-.2-.221-.29-.55-.29-1.22v-2.809h-.589v-.579h.589v-.82l.769-.31zm2.071 3.618c.01 1.489.589 1.799 1.139 1.799.34 0 .61-.08.8-.18l.13.56c-.27.15-.68.229-1.07.229-1.149 0-1.749-.939-1.749-2.429 0-1.568.66-2.548 1.629-2.548.979 0 1.379 1.039 1.379 2.129 0 .189-.01.319-.02.439h-2.238zm1.519-.569c.01-.97-.35-1.399-.72-1.399-.5 0-.759.739-.79 1.399h1.51zm-39.92 12.798c-.209.11-.549.18-.969.18-1.309 0-2.259-1.049-2.259-3.338 0-2.668 1.319-3.518 2.389-3.518.4 0 .7.08.83.17l-.17.649c-.16-.07-.32-.14-.669-.14-.72 0-1.569.699-1.569 2.758 0 2.069.76 2.738 1.589 2.738.29 0 .54-.069.699-.14l.129.641zm.722-6.796h.77v6.916h-.77V95.56zm2.269 1.329c-.25 0-.439-.2-.439-.5s.2-.499.45-.499c.28 0 .459.199.459.499s-.18.5-.459.5h-.011zm-.359 5.587v-4.837h.77v4.837h-.77zm2.379-2.349c.01 1.489.589 1.799 1.139 1.799.34 0 .61-.08.8-.18l.13.56c-.27.15-.68.229-1.069.229-1.149 0-1.75-.939-1.75-2.429 0-1.568.66-2.548 1.629-2.548.979 0 1.379 1.039 1.379 2.129 0 .189-.01.319-.02.439h-2.238zm1.519-.569c.01-.97-.35-1.399-.72-1.399-.5 0-.76.739-.79 1.399h1.51zm1.571-.67c0-.569-.03-.859-.04-1.249h.67l.04.579h.02c.21-.39.6-.659 1.109-.659.669 0 1.169.489 1.169 1.669v3.248h-.77v-3.118c0-.58-.11-1.149-.669-1.149-.32 0-.629.27-.72.789-.03.11-.04.261-.04.431v3.048h-.77v-3.589zm4.93-2.379v1.13h.93v.579h-.93v2.879c0 .64.22.799.5.799.13 0 .23-.01.31-.029l.04.59c-.14.05-.32.079-.57.079-.31 0-.58-.079-.759-.289-.2-.221-.29-.55-.29-1.22v-2.809h-.589v-.579h.589v-.82l.769-.31zm1.67-.769h.77v3.198h.02c.15-.28.29-.55.42-.81l1.249-2.389h.86l-1.649 2.879 1.689 3.857h-.83l-1.379-3.248-.38.649v2.599h-.77V95.74zm4.42 4.387c.01 1.489.589 1.799 1.139 1.799.34 0 .61-.08.8-.18l.13.56c-.27.15-.68.229-1.07.229-1.149 0-1.749-.939-1.749-2.429 0-1.568.66-2.548 1.629-2.548.979 0 1.379 1.039 1.379 2.129 0 .189-.01.319-.02.439h-2.238zm1.519-.569c.01-.97-.35-1.399-.72-1.399-.5 0-.759.739-.79 1.399h1.51zm1.971-1.919l.64 2.778c.09.38.13.689.2.999h.02c.05-.279.13-.64.21-.989l.57-2.788h.76l-.79 3.107c-.3 1.21-.63 2.379-1.2 3.119-.34.43-.7.649-.869.729l-.28-.65c.22-.13.47-.34.68-.609.2-.26.36-.579.44-.819.04-.11.05-.17.05-.24 0-.06 0-.119-.02-.18l-1.219-4.457h.808zm5.579 1.639h-1.689v2.528h1.919v.67h-2.688V95.74h2.569v.67h-1.799v2.219h1.689v.649zm1.451-1.639l.45 1.029c.12.279.22.56.32.85h.02c.11-.311.22-.59.33-.85l.43-1.029h.79l-1.149 2.378 1.14 2.459h-.84l-.459-1.09c-.11-.26-.2-.509-.32-.829h-.02c-.1.29-.21.56-.32.829l-.44 1.09h-.79l1.149-2.429-1.109-2.408h.818zm5.189 4.717c-.17.101-.46.18-.8.18-1.059 0-1.769-.85-1.769-2.448 0-1.39.7-2.519 1.909-2.519.26 0 .54.07.68.16l-.15.619c-.1-.05-.3-.13-.55-.13-.779 0-1.119.92-1.119 1.869 0 1.129.43 1.809 1.139 1.809.2 0 .38-.04.55-.13l.11.59zm.661-6.796h.77v2.599h.02c.1-.17.25-.32.41-.43.17-.11.37-.17.64-.17.609 0 1.129.479 1.129 1.709v3.208h-.77v-3.118c0-.6-.13-1.149-.649-1.149-.36 0-.63.26-.75.77-.02.11-.03.25-.03.359v3.139h-.77V95.56zm6.599 5.816c0 .37 0 .79.05 1.1h-.689l-.05-.51h-.03c-.21.37-.55.59-.959.59-.649 0-1.149-.54-1.149-1.379 0-1.22.97-1.749 2.059-1.76v-.149c0-.649-.16-1.1-.77-1.1-.3 0-.57.09-.8.25l-.17-.54c.21-.149.65-.319 1.129-.319.97 0 1.379.64 1.379 1.719v2.098zm-.749-1.409c-.4 0-1.33.08-1.33 1.13 0 .64.32.859.59.859.34 0 .62-.25.709-.729.02-.09.03-.19.03-.28v-.98zm1.84-1.079c0-.569-.03-.859-.04-1.249h.67l.04.579h.02c.209-.39.6-.659 1.109-.659.669 0 1.169.489 1.169 1.669v3.248h-.77v-3.118c0-.58-.11-1.149-.669-1.149-.32 0-.63.27-.72.789-.03.11-.04.261-.04.431v3.048h-.77v-3.589zm6.969 2.968c0 1.27-.16 1.749-.479 2.109-.3.319-.75.51-1.29.51-.41 0-.81-.1-1.059-.24l.18-.6c.19.101.51.21.89.21.609 0 .989-.38.989-1.479v-.489h-.02c-.16.38-.52.59-.919.59-.859 0-1.419-.97-1.419-2.389 0-1.789.8-2.519 1.52-2.519.51 0 .75.34.899.619h.02l.04-.539h.689c-.01.329-.04.759-.04 1.509v2.708zm-.77-2.548c0-.13-.01-.25-.04-.36-.08-.319-.26-.729-.7-.729-.549 0-.849.75-.849 1.819 0 1.239.39 1.799.849 1.799.24 0 .54-.11.69-.689.05-.15.05-.3.05-.439v-1.401zm2.381.819c.01 1.489.589 1.799 1.139 1.799.34 0 .61-.08.8-.18l.13.56c-.27.15-.68.229-1.07.229-1.149 0-1.749-.939-1.749-2.429 0-1.568.66-2.548 1.629-2.548.979 0 1.379 1.039 1.379 2.129 0 .189-.01.319-.02.439h-2.238zm1.519-.569c.01-.97-.35-1.399-.72-1.399-.5 0-.759.739-.79 1.399h1.51zm-48.685 12.798c-.209.11-.549.18-.969.18-1.309 0-2.259-1.049-2.259-3.338 0-2.668 1.319-3.518 2.389-3.518.4 0 .7.08.83.17l-.17.649c-.16-.07-.32-.14-.669-.14-.72 0-1.569.699-1.569 2.758 0 2.069.76 2.738 1.589 2.738.29 0 .54-.069.699-.14l.129.641zm1.081-2.229c.01 1.489.589 1.799 1.139 1.799.34 0 .61-.08.8-.18l.13.56c-.27.15-.68.229-1.069.229-1.149 0-1.75-.939-1.75-2.429 0-1.568.66-2.548 1.629-2.548.979 0 1.379 1.039 1.379 2.129 0 .189-.01.319-.02.439h-2.238zm1.52-.569c.01-.97-.35-1.399-.72-1.399-.5 0-.76.739-.79 1.399h1.51zm1.561-.67c0-.41-.03-.89-.04-1.249h.689l.04.759h.02c.16-.459.57-.839 1.02-.839.06 0 .11 0 .16.01v.789c-.05-.01-.1-.01-.16-.01-.49 0-.85.45-.93 1.01-.02.13-.03.27-.03.439v2.679h-.77v-3.588zm3.668-2.379v1.13h.93v.579h-.93v2.879c0 .64.22.799.5.799.13 0 .23-.01.31-.029l.04.59c-.14.05-.32.079-.57.079-.31 0-.58-.079-.759-.289-.2-.221-.29-.55-.29-1.22v-2.809h-.589v-.579h.589v-.82l.769-.31zm1.971.38c-.25 0-.439-.2-.439-.5s.2-.499.45-.499c.28 0 .459.199.459.499s-.18.5-.459.5h-.011zm-.36 5.587v-4.837h.77v4.837h-.77zm2 0v-4.258h-.61v-.579h.61v-.32c0-.869.42-1.839 1.759-1.839.41 0 .77.12.939.229l-.16.6a1.93 1.93 0 0 0-.8-.189c-.779 0-.969.54-.969 1.279v.24h2.169v4.837h-.77v-4.258h-1.399v4.258h-.769zm6.379-.12c-.17.101-.46.18-.8.18-1.059 0-1.769-.85-1.769-2.448 0-1.39.7-2.519 1.909-2.519.26 0 .54.07.68.16l-.15.619c-.1-.05-.3-.13-.55-.13-.78 0-1.119.92-1.119 1.869 0 1.129.43 1.809 1.139 1.809.2 0 .38-.04.55-.13l.11.59zm3.21-.98c0 .37 0 .79.05 1.1h-.689l-.05-.51h-.03c-.21.37-.55.59-.959.59-.649 0-1.149-.54-1.149-1.379 0-1.22.97-1.749 2.059-1.76v-.149c0-.649-.16-1.1-.77-1.1-.3 0-.57.09-.8.25l-.17-.54c.21-.149.65-.319 1.129-.319.97 0 1.379.64 1.379 1.719v2.098zm-.75-1.409c-.4 0-1.33.08-1.33 1.13 0 .64.32.859.59.859.34 0 .62-.25.709-.729.02-.09.03-.19.03-.28v-.98zm2.691-3.458v1.13h.93v.579h-.93v2.879c0 .64.22.799.5.799.13 0 .23-.01.31-.029l.04.59c-.14.05-.32.079-.569.079-.31 0-.58-.079-.76-.289-.2-.221-.29-.55-.29-1.22v-2.809h-.589v-.579h.589v-.82l.769-.31zm2.07 3.618c.01 1.489.589 1.799 1.139 1.799.34 0 .61-.08.8-.18l.13.56c-.27.15-.68.229-1.07.229-1.149 0-1.749-.939-1.749-2.429 0-1.568.66-2.548 1.629-2.548.979 0 1.379 1.039 1.379 2.129 0 .189-.01.319-.02.439h-2.238zm1.519-.569c.01-.97-.35-1.399-.72-1.399-.5 0-.759.739-.79 1.399h1.51zm2.73 2.918l-1.54-6.736h.83l.65 3.158c.16.76.36 1.729.479 2.589h.03c.1-.87.29-1.81.45-2.608l.64-3.139h.819l-1.569 6.736h-.789zm3.221-2.349c.01 1.489.589 1.799 1.139 1.799.34 0 .61-.08.8-.18l.13.56c-.27.15-.68.229-1.069.229-1.149 0-1.75-.939-1.75-2.429 0-1.568.66-2.548 1.629-2.548.979 0 1.379 1.039 1.379 2.129 0 .189-.01.319-.02.439h-2.238zm1.519-.569c.01-.97-.35-1.399-.72-1.399-.5 0-.76.739-.79 1.399h1.51zm1.561-.67c0-.41-.03-.89-.04-1.249h.689l.04.759h.02c.16-.459.57-.839 1.02-.839.06 0 .11 0 .16.01v.789c-.05-.01-.1-.01-.16-.01-.49 0-.85.45-.93 1.01-.02.13-.03.27-.03.439v2.679h-.77v-3.588zm2.849-1.999c-.25 0-.439-.2-.439-.5s.2-.499.45-.499c.28 0 .459.199.459.499s-.18.5-.459.5h-.011zm-.36 5.587v-4.837h.77v4.837h-.77zm2 0v-4.258h-.61v-.579h.61v-.3c0-.521.08-1.06.43-1.449.28-.311.669-.41.969-.41.26 0 .46.05.6.12l-.12.6c-.1-.04-.23-.08-.43-.08-.55 0-.68.59-.68 1.209v.311h.879v.579h-.879v4.258h-.769z"/><path d="M60.147 107.639l.64 2.778c.09.38.13.689.2.999h.02c.05-.279.13-.64.21-.989l.57-2.788h.76l-.79 3.107c-.3 1.21-.63 2.379-1.2 3.119-.34.43-.7.649-.87.729l-.28-.65c.22-.13.47-.34.68-.609.2-.26.36-.579.44-.819.04-.11.05-.17.05-.24 0-.06 0-.119-.02-.18l-1.219-4.457h.809zm-46.776 14.717c-.209.11-.549.18-.969.18-1.309 0-2.259-1.049-2.259-3.338 0-2.668 1.319-3.518 2.389-3.518.4 0 .7.08.83.17l-.17.649c-.16-.07-.32-.14-.669-.14-.72 0-1.569.699-1.569 2.758 0 2.069.76 2.738 1.589 2.738.29 0 .54-.069.699-.14l.129.641zm.722-6.796h.77v2.599h.02c.1-.17.25-.32.41-.43.17-.11.37-.17.64-.17.609 0 1.129.479 1.129 1.709v3.208h-.77v-3.118c0-.6-.13-1.149-.649-1.149-.36 0-.63.26-.75.77-.02.11-.03.25-.03.359v3.139h-.77v-6.917zm6.598 5.816c0 .37 0 .79.05 1.1h-.689l-.05-.51h-.03c-.21.37-.55.59-.959.59-.649 0-1.149-.54-1.149-1.379 0-1.22.97-1.749 2.059-1.76v-.149c0-.649-.16-1.1-.77-1.1-.3 0-.57.09-.8.25l-.17-.54c.21-.149.65-.319 1.129-.319.97 0 1.379.64 1.379 1.719v2.098zm-.749-1.409c-.4 0-1.33.08-1.33 1.13 0 .64.32.859.59.859.34 0 .62-.25.709-.729.02-.09.03-.19.03-.28v-.98zm1.841-1.079c0-.569-.03-.859-.04-1.249h.67l.04.579h.02c.21-.39.6-.659 1.109-.659.669 0 1.169.489 1.169 1.669v3.248h-.77v-3.118c0-.58-.11-1.149-.669-1.149-.32 0-.629.27-.72.789-.03.11-.04.261-.04.431v3.048h-.77v-3.589zm6.968 2.968c0 1.27-.16 1.749-.479 2.109-.3.319-.75.51-1.29.51-.41 0-.81-.1-1.059-.24l.18-.6c.19.101.51.21.89.21.609 0 .989-.38.989-1.479v-.489h-.02c-.16.38-.52.59-.919.59-.859 0-1.419-.97-1.419-2.389 0-1.789.8-2.519 1.52-2.519.51 0 .75.34.899.619h.02l.04-.539h.689c-.01.329-.04.759-.04 1.509v2.708zm-.77-2.548c0-.13-.01-.25-.04-.36-.08-.319-.26-.729-.7-.729-.549 0-.849.75-.849 1.819 0 1.239.39 1.799.849 1.799.24 0 .54-.11.69-.689.05-.15.05-.3.05-.439v-1.401zm2.381.819c.01 1.489.589 1.799 1.139 1.799.34 0 .61-.08.8-.18l.13.56c-.27.15-.68.229-1.07.229-1.149 0-1.749-.939-1.749-2.429 0-1.568.66-2.548 1.629-2.548.979 0 1.379 1.039 1.379 2.129 0 .189-.01.319-.02.439h-2.238zm1.519-.569c.01-.97-.35-1.399-.72-1.399-.5 0-.759.739-.79 1.399h1.51zm4.58 2.798c-.209.11-.549.18-.969.18-1.309 0-2.259-1.049-2.259-3.338 0-2.668 1.319-3.518 2.389-3.518.4 0 .7.08.83.17l-.17.649c-.16-.07-.32-.14-.669-.14-.72 0-1.569.699-1.569 2.758 0 2.069.76 2.738 1.589 2.738.29 0 .54-.069.699-.14l.129.641zm1.041-5.467c-.25 0-.439-.2-.439-.5s.2-.499.45-.499c.28 0 .459.199.459.499s-.18.5-.459.5h-.011zm-.36 5.587v-4.837h.77v4.837h-.77zm1.83-3.328c0-.739-.03-1.169-.04-1.509h.689l.04.609h.02c.26-.51.65-.689 1.02-.689.85 0 1.399.89 1.399 2.488 0 1.799-.74 2.509-1.489 2.509-.46 0-.72-.28-.85-.55h-.02v2.389h-.77v-5.247zm.77 1.56c0 .14.01.279.04.399.15.689.49.81.7.81.64 0 .849-.88.849-1.849 0-1.01-.24-1.85-.849-1.85-.35 0-.67.439-.71.88-.03.12-.03.239-.03.369v1.241zm3.23-5.148h.77v2.599h.02c.1-.17.25-.32.41-.43.17-.11.37-.17.64-.17.609 0 1.129.479 1.129 1.709v3.208h-.77v-3.118c0-.6-.13-1.149-.649-1.149-.36 0-.63.26-.75.77-.02.11-.03.25-.03.359v3.139h-.77v-6.917zm4.59 4.567c.01 1.489.589 1.799 1.139 1.799.34 0 .61-.08.8-.18l.13.56c-.27.15-.68.229-1.069.229-1.149 0-1.75-.939-1.75-2.429 0-1.568.66-2.548 1.629-2.548.979 0 1.379 1.039 1.379 2.129 0 .189-.01.319-.02.439h-2.238zm1.519-.569c.01-.97-.35-1.399-.72-1.399-.5 0-.76.739-.79 1.399h1.51zm1.561-.67c0-.41-.03-.89-.04-1.249h.689l.04.759h.02c.16-.459.57-.839 1.02-.839.06 0 .11 0 .16.01v.789c-.05-.01-.1-.01-.16-.01-.49 0-.85.45-.93 1.01-.02.13-.03.27-.03.439v2.679h-.77v-3.588zm2.4 2.698c.23.14.63.27.97.27.699 0 1.119-.459 1.119-1.139 0-.62-.36-1-.89-1.399-.529-.37-1.269-.999-1.269-1.869 0-1.02.72-1.769 1.779-1.769.42 0 .79.14.95.249l-.19.66a1.41 1.41 0 0 0-.8-.229c-.66 0-.969.499-.969.959 0 .67.35.939.989 1.39.81.569 1.169 1.189 1.169 1.938 0 1.159-.819 1.889-1.889 1.889-.46 0-.95-.149-1.14-.3l.171-.65zm3.69-2.438c0-.739-.03-1.169-.04-1.509h.689l.04.609h.02c.26-.51.65-.689 1.02-.689.85 0 1.399.89 1.399 2.488 0 1.799-.74 2.509-1.489 2.509-.46 0-.72-.28-.85-.55h-.02v2.389h-.77v-5.247zm.769 1.56c0 .14.01.279.04.399.15.689.49.81.7.81.64 0 .849-.88.849-1.849 0-1.01-.24-1.85-.849-1.85-.35 0-.67.439-.71.88-.03.12-.03.239-.03.369v1.241zm3.771-.581c.01 1.489.589 1.799 1.139 1.799.34 0 .61-.08.8-.18l.13.56c-.27.15-.68.229-1.07.229-1.149 0-1.749-.939-1.749-2.429 0-1.568.66-2.548 1.629-2.548.979 0 1.379 1.039 1.379 2.129 0 .189-.01.319-.02.439h-2.238zm1.519-.569c.01-.97-.35-1.399-.72-1.399-.5 0-.759.739-.79 1.399h1.51zm3.929 2.798c-.17.101-.46.18-.8.18-1.059 0-1.769-.85-1.769-2.448 0-1.39.7-2.519 1.909-2.519.26 0 .54.07.68.16l-.15.619c-.1-.05-.3-.13-.55-.13-.78 0-1.119.92-1.119 1.869 0 1.129.43 1.809 1.139 1.809.2 0 .38-.04.55-.13l.11.59zm-40.603 3.384h2.569v.67h-1.799v2.358h1.679v.649h-1.679v3.059h-.77v-6.736zm3.64 1.149c-.25 0-.439-.2-.439-.5s.2-.499.45-.499c.28 0 .459.199.459.499s-.18.5-.459.5h-.011zm-.36 5.587v-4.837h.77v4.837h-.77zm1.84-3.588c0-.569-.03-.859-.04-1.249h.67l.04.579h.02c.21-.39.6-.659 1.109-.659.669 0 1.169.489 1.169 1.669v3.248h-.77v-3.118c0-.58-.11-1.149-.669-1.149-.32 0-.629.27-.72.789-.03.11-.04.261-.04.431v3.048h-.77v-3.589zm4.41-1.999c-.25 0-.439-.2-.439-.5s.2-.499.45-.499c.28 0 .459.199.459.499s-.18.5-.459.5h-.011zm-.36 5.587v-4.837h.77v4.837h-.77zm1.71-.8c.17.11.47.25.78.25.43 0 .709-.27.709-.699 0-.37-.13-.63-.62-.95-.63-.409-.969-.829-.969-1.379 0-.789.58-1.339 1.329-1.339.38 0 .66.119.859.25l-.2.579c-.19-.13-.39-.22-.65-.22-.41 0-.62.3-.62.62 0 .319.12.509.6.829.56.359 1 .81 1 1.479 0 .969-.66 1.438-1.459 1.438-.35 0-.74-.109-.95-.279l.191-.579zm3.02-6.116h.77v2.599h.02c.1-.17.25-.32.41-.43.17-.11.37-.17.64-.17.609 0 1.129.479 1.129 1.709v3.208h-.77v-3.118c0-.6-.13-1.149-.649-1.149-.36 0-.63.26-.75.77-.02.11-.03.25-.03.359v3.139h-.77v-6.917zm4.59 4.567c.01 1.489.589 1.799 1.139 1.799.34 0 .61-.08.8-.18l.13.56c-.27.15-.68.229-1.069.229-1.149 0-1.75-.939-1.75-2.429 0-1.568.66-2.548 1.629-2.548.979 0 1.379 1.039 1.379 2.129 0 .189-.01.319-.02.439h-2.238zm1.519-.569c.01-.97-.35-1.399-.72-1.399-.5 0-.76.739-.79 1.399h1.51zm4.489-3.998v5.757c0 .33.03.879.04 1.159h-.66l-.05-.6h-.04c-.15.34-.5.68-1.009.68-.82 0-1.41-.88-1.41-2.479 0-1.72.71-2.519 1.459-2.519.35 0 .689.159.879.569h.02v-2.568h.771zm-.769 3.918c0-.101 0-.21-.01-.32-.04-.5-.35-.939-.72-.939-.64 0-.859.89-.859 1.859 0 1.02.26 1.839.819 1.839.24 0 .57-.13.74-.83.03-.09.03-.199.03-.319v-1.29zm234.251-57.892c.229.14.629.27.969.27.699 0 1.119-.459 1.119-1.139 0-.62-.359-1-.889-1.399-.529-.37-1.27-.999-1.27-1.869 0-1.02.72-1.769 1.779-1.769.42 0 .789.14.949.249l-.189.66a1.41 1.41 0 0 0-.801-.229c-.659 0-.969.499-.969.959 0 .67.35.939.989 1.39.81.569 1.169 1.189 1.169 1.938 0 1.159-.818 1.889-1.889 1.889-.459 0-.949-.149-1.139-.3l.172-.65zm4.308-1.459c.01 1.489.59 1.799 1.14 1.799.34 0 .61-.08.8-.18l.13.56c-.271.15-.68.229-1.069.229-1.149 0-1.75-.939-1.75-2.429 0-1.568.66-2.548 1.63-2.548.979 0 1.38 1.039 1.38 2.129 0 .189-.011.319-.021.439h-2.24zm1.52-.569c.01-.97-.35-1.399-.72-1.399-.499 0-.759.739-.79 1.399h1.51zm1.56-.67c0-.41-.029-.89-.039-1.249h.689l.039.759h.021c.16-.459.569-.839 1.02-.839.06 0 .11 0 .159.01v.789c-.049-.01-.1-.01-.159-.01-.489 0-.85.45-.93 1.01-.021.13-.03.27-.03.439v2.679h-.77v-3.588zm3.141-1.249l.609 2.718c.069.33.149.76.209 1.18h.03c.05-.399.13-.81.2-1.18l.6-2.718h.76l-1.27 4.837h-.68l-1.26-4.837h.802zm3.49 2.488c.01 1.489.589 1.799 1.139 1.799.34 0 .609-.08.8-.18l.13.56c-.27.15-.68.229-1.07.229-1.148 0-1.748-.939-1.748-2.429 0-1.568.659-2.548 1.629-2.548.979 0 1.379 1.039 1.379 2.129 0 .189-.01.319-.02.439h-2.239zm1.519-.569c.01-.97-.351-1.399-.72-1.399-.5 0-.76.739-.789 1.399h1.509zm1.561-.67c0-.41-.031-.89-.041-1.249h.689l.041.759h.02c.16-.459.57-.839 1.02-.839.061 0 .109 0 .16.01v.789c-.051-.01-.1-.01-.16-.01-.49 0-.85.45-.93 1.01-.02.13-.029.27-.029.439v2.679h-.77v-3.588zm3.319-3.148v2.889h1.889V65.74h.77v6.736h-.77v-3.148h-1.889v3.148h-.77V65.74h.77zm4.3 4.387c.01 1.489.59 1.799 1.139 1.799.34 0 .61-.08.801-.18l.129.56c-.27.15-.68.229-1.068.229-1.15 0-1.75-.939-1.75-2.429 0-1.568.66-2.548 1.629-2.548.98 0 1.38 1.039 1.38 2.129 0 .189-.011.319-.021.439h-2.239zm1.52-.569c.01-.97-.351-1.399-.721-1.399-.499 0-.76.739-.789 1.399h1.51zm1.57-3.998h.77v6.916h-.77V65.56zm1.91 0h.77v6.916h-.77V65.56zm3.27 6.996c-.87 0-1.57-.79-1.57-2.488 0-1.77.791-2.509 1.619-2.509.87 0 1.561.799 1.561 2.488 0 1.879-.86 2.509-1.6 2.509h-.01zm.039-.609c.66 0 .8-1.13.8-1.89 0-.749-.14-1.889-.819-1.889-.689 0-.819 1.14-.819 1.889 0 .8.14 1.89.829 1.89h.009zM289.31 82.356c-.21.11-.55.18-.97.18-1.31 0-2.259-1.049-2.259-3.338 0-2.668 1.319-3.518 2.389-3.518.4 0 .699.08.83.17l-.17.649c-.16-.07-.32-.14-.67-.14-.72 0-1.569.699-1.569 2.758 0 2.069.76 2.738 1.589 2.738.29 0 .54-.069.699-.14l.131.641zm1.081-2.229c.01 1.489.589 1.799 1.14 1.799.34 0 .609-.08.799-.18l.131.56c-.271.15-.68.229-1.07.229-1.148 0-1.749-.939-1.749-2.429 0-1.568.659-2.548 1.63-2.548.979 0 1.379 1.039 1.379 2.129 0 .189-.01.319-.02.439h-2.24zm1.518-.569c.01-.97-.35-1.399-.719-1.399-.5 0-.76.739-.79 1.399h1.509zm1.562-.67c0-.41-.03-.89-.04-1.249h.689l.04.759h.021c.16-.459.569-.839 1.02-.839.06 0 .109 0 .159.01v.789c-.05-.01-.1-.01-.159-.01-.49 0-.85.45-.93 1.01-.021.13-.03.27-.03.439v2.679h-.77v-3.588zm3.669-2.379v1.13h.93v.579h-.93v2.879c0 .64.221.799.5.799.13 0 .23-.01.31-.029l.04.59c-.14.05-.32.079-.57.079-.309 0-.579-.079-.759-.289-.2-.221-.29-.55-.29-1.22v-2.809h-.59v-.579h.59v-.82l.769-.31zm1.97.38c-.25 0-.439-.2-.439-.5s.199-.499.449-.499c.28 0 .46.199.46.499s-.18.5-.46.5h-.01zm-.359 5.587v-4.837h.77v4.837h-.77zm2 0v-4.258h-.61v-.579h.61v-.32c0-.869.42-1.839 1.758-1.839.41 0 .77.12.939.229l-.159.6a1.93 1.93 0 0 0-.8-.189c-.779 0-.969.54-.969 1.279v.24h2.168v4.837h-.77v-4.258h-1.398v4.258h-.769zm6.378-.12c-.17.101-.46.18-.8.18-1.059 0-1.77-.85-1.77-2.448 0-1.39.7-2.519 1.91-2.519.26 0 .539.07.68.16l-.15.619c-.1-.05-.3-.13-.55-.13-.78 0-1.119.92-1.119 1.869 0 1.129.43 1.809 1.14 1.809.199 0 .379-.04.549-.13l.11.59zm3.21-.98c0 .37 0 .79.05 1.1h-.689l-.05-.51h-.03c-.21.37-.55.59-.96.59-.648 0-1.148-.54-1.148-1.379 0-1.22.969-1.749 2.059-1.76v-.149c0-.649-.16-1.1-.77-1.1-.3 0-.57.09-.8.25l-.17-.54c.21-.149.649-.319 1.13-.319.969 0 1.379.64 1.379 1.719v2.098zm-.75-1.409c-.399 0-1.329.08-1.329 1.13 0 .64.319.859.59.859.34 0 .62-.25.71-.729.02-.09.029-.19.029-.28v-.98zm2.691-3.458v1.13h.93v.579h-.93v2.879c0 .64.22.799.5.799.129 0 .229-.01.309-.029l.041.59c-.141.05-.32.079-.57.079-.31 0-.58-.079-.76-.289-.199-.221-.289-.55-.289-1.22v-2.809h-.59v-.579h.59v-.82l.769-.31zm2.071 3.618c.01 1.489.589 1.799 1.139 1.799.34 0 .609-.08.8-.18l.13.56c-.27.15-.68.229-1.07.229-1.148 0-1.748-.939-1.748-2.429 0-1.568.659-2.548 1.629-2.548.979 0 1.379 1.039 1.379 2.129 0 .189-.01.319-.02.439h-2.239zm1.518-.569c.01-.97-.351-1.399-.72-1.399-.5 0-.76.739-.789 1.399h1.509zm-43.942 12.028c.229.14.629.27.969.27.699 0 1.119-.459 1.119-1.139 0-.62-.359-1-.889-1.399-.529-.37-1.27-.999-1.27-1.869 0-1.02.72-1.769 1.779-1.769.42 0 .789.14.949.249l-.189.66a1.41 1.41 0 0 0-.801-.229c-.659 0-.969.499-.969.959 0 .67.35.939.989 1.39.81.569 1.169 1.189 1.169 1.938 0 1.159-.818 1.889-1.889 1.889-.459 0-.949-.149-1.139-.3l.172-.65zm4.308-1.459c.01 1.489.59 1.799 1.14 1.799.34 0 .61-.08.8-.18l.13.56c-.271.15-.68.229-1.069.229-1.149 0-1.75-.939-1.75-2.429 0-1.568.66-2.548 1.63-2.548.979 0 1.38 1.039 1.38 2.129 0 .189-.011.319-.021.439h-2.24zm1.52-.569c.01-.97-.35-1.399-.72-1.399-.499 0-.759.739-.79 1.399h1.51zm1.56-.67c0-.41-.029-.89-.039-1.249h.689l.039.759h.021c.16-.459.569-.839 1.02-.839.06 0 .11 0 .159.01v.789c-.049-.01-.1-.01-.159-.01-.489 0-.85.45-.93 1.01-.021.13-.03.27-.03.439v2.679h-.77v-3.588zm3.141-1.249l.609 2.718c.069.33.149.76.209 1.18h.03c.05-.399.13-.81.2-1.18l.6-2.718h.76l-1.27 4.837h-.68l-1.26-4.837h.802zm3.49 2.488c.01 1.489.589 1.799 1.139 1.799.34 0 .609-.08.8-.18l.13.56c-.27.15-.68.229-1.07.229-1.148 0-1.748-.939-1.748-2.429 0-1.568.659-2.548 1.629-2.548.979 0 1.379 1.039 1.379 2.129 0 .189-.01.319-.02.439h-2.239zm1.519-.569c.01-.97-.351-1.399-.72-1.399-.5 0-.76.739-.789 1.399h1.509zm1.561-.67c0-.41-.031-.89-.041-1.249h.689l.041.759h.02c.16-.459.57-.839 1.02-.839.061 0 .109 0 .16.01v.789c-.051-.01-.1-.01-.16-.01-.49 0-.85.45-.93 1.01-.02.13-.029.27-.029.439v2.679h-.77v-3.588zm2.549-3.148h.77v3.198h.02c.15-.28.291-.55.42-.81l1.25-2.389h.859l-1.649 2.879 1.689 3.857h-.829l-1.38-3.248-.38.649v2.599h-.77V85.74zm4.42 4.387c.01 1.489.59 1.799 1.139 1.799.34 0 .61-.08.801-.18l.129.56c-.27.15-.68.229-1.068.229-1.15 0-1.75-.939-1.75-2.429 0-1.568.66-2.548 1.629-2.548.98 0 1.38 1.039 1.38 2.129 0 .189-.011.319-.021.439h-2.239zm1.52-.569c.01-.97-.351-1.399-.721-1.399-.499 0-.76.739-.789 1.399h1.51zm1.97-1.919l.639 2.778c.09.38.131.689.2.999h.021c.05-.279.129-.64.209-.989l.57-2.788h.76l-.789 3.107c-.301 1.21-.631 2.379-1.2 3.119-.34.43-.7.649-.87.729l-.279-.65c.221-.13.47-.34.68-.609.2-.26.359-.579.439-.819a.624.624 0 0 0 .051-.24c0-.06 0-.119-.021-.18l-1.22-4.457h.81zm5.579 1.639h-1.689v2.528h1.92v.67h-2.689V85.74h2.569v.67h-1.8v2.219h1.689v.649zm1.451-1.639l.45 1.029c.12.279.22.56.319.85h.02c.111-.311.221-.59.33-.85l.43-1.029h.79l-1.149 2.378 1.14 2.459h-.84l-.46-1.09c-.109-.26-.199-.509-.319-.829h-.021c-.1.29-.209.56-.319.829l-.44 1.09h-.789l1.149-2.429-1.109-2.408h.818zm5.189 4.717c-.17.101-.46.18-.8.18-1.06 0-1.769-.85-1.769-2.448 0-1.39.699-2.519 1.908-2.519.26 0 .54.07.68.16l-.149.619a1.26 1.26 0 0 0-.55-.13c-.779 0-1.119.92-1.119 1.869 0 1.129.43 1.809 1.139 1.809.2 0 .381-.04.551-.13l.109.59zm.66-6.796h.77v2.599h.021c.101-.17.25-.32.41-.43.17-.11.37-.17.64-.17.609 0 1.129.479 1.129 1.709v3.208h-.77v-3.118c0-.6-.13-1.149-.649-1.149-.36 0-.63.26-.749.77-.021.11-.031.25-.031.359v3.139h-.77V85.56zm6.6 5.816c0 .37 0 .79.05 1.1h-.689l-.05-.51h-.03c-.21.37-.55.59-.96.59-.648 0-1.148-.54-1.148-1.379 0-1.22.969-1.749 2.059-1.76v-.149c0-.649-.16-1.1-.77-1.1-.3 0-.57.09-.8.25l-.17-.54c.21-.149.649-.319 1.13-.319.969 0 1.379.64 1.379 1.719v2.098zm-.75-1.409c-.399 0-1.329.08-1.329 1.13 0 .64.319.859.59.859.34 0 .62-.25.71-.729.02-.09.029-.19.029-.28v-.98zm1.841-1.079c0-.569-.03-.859-.04-1.249h.67l.04.579h.021c.209-.39.6-.659 1.109-.659.669 0 1.169.489 1.169 1.669v3.248h-.771v-3.118c0-.58-.109-1.149-.669-1.149-.319 0-.63.27-.72.789-.029.11-.04.261-.04.431v3.048h-.77v-3.589zm6.968 2.968c0 1.27-.159 1.749-.479 2.109-.3.319-.75.51-1.289.51-.41 0-.811-.1-1.06-.24l.18-.6c.19.101.51.21.89.21.609 0 .989-.38.989-1.479v-.489h-.021c-.159.38-.52.59-.919.59-.859 0-1.419-.97-1.419-2.389 0-1.789.799-2.519 1.52-2.519.51 0 .749.34.898.619h.021l.04-.539h.689c-.01.329-.04.759-.04 1.509v2.708zm-.769-2.548c0-.13-.01-.25-.04-.36-.08-.319-.26-.729-.699-.729-.55 0-.85.75-.85 1.819 0 1.239.39 1.799.85 1.799.24 0 .539-.11.689-.689.05-.15.05-.3.05-.439v-1.401zm2.381.819c.01 1.489.589 1.799 1.14 1.799.34 0 .609-.08.799-.18l.131.56c-.271.15-.68.229-1.07.229-1.148 0-1.749-.939-1.749-2.429 0-1.568.659-2.548 1.63-2.548.979 0 1.379 1.039 1.379 2.129 0 .189-.01.319-.02.439h-2.24zm1.518-.569c.01-.97-.35-1.399-.719-1.399-.5 0-.76.739-.79 1.399h1.509zm-53.223 12.798c-.21.11-.55.18-.97.18-1.309 0-2.258-1.049-2.258-3.338 0-2.668 1.318-3.518 2.389-3.518.399 0 .699.08.829.17l-.17.649c-.16-.07-.319-.14-.669-.14-.721 0-1.57.699-1.57 2.758 0 2.069.76 2.738 1.59 2.738.289 0 .539-.069.699-.14l.13.641zm1.081-2.229c.01 1.489.59 1.799 1.14 1.799.34 0 .61-.08.8-.18l.13.56c-.271.15-.68.229-1.069.229-1.149 0-1.75-.939-1.75-2.429 0-1.568.66-2.548 1.63-2.548.979 0 1.38 1.039 1.38 2.129 0 .189-.011.319-.021.439h-2.24zm1.519-.569c.01-.97-.35-1.399-.72-1.399-.499 0-.759.739-.79 1.399h1.51zm1.561-.67c0-.41-.029-.89-.039-1.249h.689l.039.759h.021c.16-.459.569-.839 1.02-.839.06 0 .11 0 .159.01v.789c-.049-.01-.1-.01-.159-.01-.489 0-.85.45-.93 1.01-.021.13-.03.27-.03.439v2.679h-.77v-3.588zm3.67-2.379v1.13h.93v.579h-.93v2.879c0 .64.22.799.5.799.129 0 .229-.01.309-.029l.041.59c-.141.05-.32.079-.57.079-.31 0-.58-.079-.76-.289-.199-.221-.289-.55-.289-1.22v-2.809h-.59v-.579h.59v-.82l.769-.31zm1.97.38c-.25 0-.439-.2-.439-.5s.199-.499.449-.499c.279 0 .459.199.459.499s-.18.5-.459.5h-.01zm-.36 5.587v-4.837h.77v4.837h-.77zm2 0v-4.258h-.61v-.579h.61v-.32c0-.869.419-1.839 1.759-1.839.41 0 .77.12.939.229l-.16.6a1.924 1.924 0 0 0-.799-.189c-.779 0-.97.54-.97 1.279v.24h2.169v4.837h-.77v-4.258h-1.399v4.258h-.769zm6.378-.12c-.17.101-.459.18-.799.18-1.06 0-1.77-.85-1.77-2.448 0-1.39.699-2.519 1.909-2.519.26 0 .54.07.68.16l-.149.619a1.265 1.265 0 0 0-.551-.13c-.779 0-1.119.92-1.119 1.869 0 1.129.43 1.809 1.14 1.809.2 0 .38-.04.55-.13l.109.59zm3.211-.98c0 .37 0 .79.049 1.1h-.689l-.049-.51h-.031c-.209.37-.549.59-.959.59-.649 0-1.149-.54-1.149-1.379 0-1.22.97-1.749 2.06-1.76v-.149c0-.649-.16-1.1-.77-1.1-.301 0-.57.09-.801.25l-.17-.54c.211-.149.65-.319 1.13-.319.97 0 1.38.64 1.38 1.719v2.098zm-.75-1.409c-.4 0-1.33.08-1.33 1.13 0 .64.32.859.59.859.34 0 .62-.25.71-.729.021-.09.03-.19.03-.28v-.98zm2.69-3.458v1.13h.93v.579h-.93v2.879c0 .64.22.799.5.799.13 0 .229-.01.31-.029l.04.59c-.14.05-.319.079-.569.079-.311 0-.58-.079-.76-.289-.199-.221-.29-.55-.29-1.22v-2.809h-.589v-.579h.589v-.82l.769-.31zm2.071 3.618c.01 1.489.589 1.799 1.14 1.799.34 0 .609-.08.799-.18l.131.56c-.271.15-.68.229-1.07.229-1.148 0-1.749-.939-1.749-2.429 0-1.568.659-2.548 1.63-2.548.979 0 1.379 1.039 1.379 2.129 0 .189-.01.319-.02.439h-2.24zm1.518-.569c.01-.97-.35-1.399-.719-1.399-.5 0-.76.739-.79 1.399h1.509zm1.631-3.719c.33-.09.73-.13 1.109-.13.67 0 1.17.141 1.52.48.33.34.47.789.47 1.319 0 .859-.399 1.419-1.079 1.738v.021c.5.149.76.63.899 1.509.159.92.29 1.489.39 1.699h-.779c-.1-.2-.23-.84-.359-1.659-.15-.93-.44-1.27-1.1-1.27h-.301v2.929h-.77v-6.636zm.77 3.109h.32c.74 0 1.229-.539 1.229-1.349 0-.77-.319-1.26-1.149-1.27-.15 0-.3.01-.4.04v2.579zm3.8 1.179c.01 1.489.59 1.799 1.139 1.799.34 0 .61-.08.801-.18l.129.56c-.27.15-.68.229-1.068.229-1.15 0-1.75-.939-1.75-2.429 0-1.568.66-2.548 1.629-2.548.98 0 1.38 1.039 1.38 2.129 0 .189-.011.319-.021.439h-2.239zm1.52-.569c.01-.97-.351-1.399-.721-1.399-.499 0-.76.739-.789 1.399h1.51zm3.719 2.418h-.029c-.16.33-.5.58-.93.58-.779 0-1.399-.85-1.399-2.438 0-1.709.71-2.559 1.52-2.559.3 0 .669.14.899.64l.02.01.041-.569h.689c-.01.329-.041.77-.041 1.509v5.247h-.77v-2.42zm0-2.528c0-.1 0-.229-.02-.32-.061-.509-.359-.909-.709-.909-.631 0-.859.84-.859 1.859s.249 1.839.849 1.839c.229 0 .54-.14.7-.8.039-.13.039-.279.039-.42v-1.249zm4.74 1.709c0 .529.03.96.04 1.319h-.669l-.061-.51h-.02c-.141.24-.51.59-1.029.59-.84 0-1.18-.66-1.18-1.859v-3.058h.77v2.948c0 .749.119 1.319.649 1.319.45 0 .649-.42.689-.65.03-.13.04-.27.04-.43v-3.188h.77v3.519zm1.621-1.03c.01 1.489.59 1.799 1.14 1.799.34 0 .61-.08.8-.18l.13.56c-.271.15-.68.229-1.069.229-1.149 0-1.75-.939-1.75-2.429 0-1.568.66-2.548 1.63-2.548.979 0 1.38 1.039 1.38 2.129 0 .189-.011.319-.021.439h-2.24zm1.52-.569c.01-.97-.35-1.399-.72-1.399-.499 0-.759.739-.79 1.399h1.51zm1.441 2.118c.17.11.469.25.779.25.43 0 .709-.27.709-.699 0-.37-.129-.63-.619-.95-.63-.409-.969-.829-.969-1.379 0-.789.579-1.339 1.328-1.339.381 0 .66.119.859.25l-.199.579c-.189-.13-.39-.22-.65-.22-.409 0-.619.3-.619.62 0 .319.12.509.6.829.561.359 1 .81 1 1.479 0 .969-.66 1.438-1.459 1.438-.351 0-.74-.109-.95-.279l.19-.579zm3.959-5.167v1.13h.93v.579h-.93v2.879c0 .64.22.799.5.799.129 0 .229-.01.309-.029l.041.59c-.141.05-.32.079-.57.079-.31 0-.58-.079-.76-.289-.199-.221-.289-.55-.289-1.22v-2.809h-.59v-.579h.59v-.82l.769-.31zm-52.134 15.077c.229.14.63.27.97.27.699 0 1.119-.459 1.119-1.139 0-.62-.359-1-.89-1.399-.53-.37-1.269-.999-1.269-1.869 0-1.02.719-1.769 1.778-1.769.42 0 .79.14.95.249l-.19.66a1.41 1.41 0 0 0-.8-.229c-.66 0-.969.499-.969.959 0 .67.35.939.988 1.39.811.569 1.17 1.189 1.17 1.938 0 1.159-.819 1.889-1.889 1.889-.46 0-.949-.149-1.14-.3l.172-.65zm4.31-1.459c.01 1.489.59 1.799 1.139 1.799.34 0 .61-.08.801-.18l.129.56c-.27.15-.68.229-1.068.229-1.15 0-1.75-.939-1.75-2.429 0-1.568.66-2.548 1.629-2.548.98 0 1.38 1.039 1.38 2.129 0 .189-.011.319-.021.439h-2.239zm1.519-.569c.01-.97-.351-1.399-.721-1.399-.499 0-.76.739-.789 1.399h1.51zm1.561-.67c0-.41-.03-.89-.04-1.249h.689l.04.759h.02c.16-.459.57-.839 1.02-.839.061 0 .11 0 .16.01v.789c-.05-.01-.1-.01-.16-.01-.489 0-.85.45-.93 1.01-.02.13-.029.27-.029.439v2.679h-.77v-3.588zm3.139-1.249l.609 2.718c.069.33.149.76.21 1.18h.029c.051-.399.131-.81.201-1.18l.6-2.718h.76l-1.27 4.837h-.68l-1.26-4.837h.801zm3.491 2.488c.01 1.489.589 1.799 1.14 1.799.34 0 .609-.08.799-.18l.131.56c-.271.15-.68.229-1.07.229-1.148 0-1.749-.939-1.749-2.429 0-1.568.659-2.548 1.63-2.548.979 0 1.379 1.039 1.379 2.129 0 .189-.01.319-.02.439h-2.24zm1.518-.569c.01-.97-.35-1.399-.719-1.399-.5 0-.76.739-.79 1.399h1.509zm1.562-.67c0-.41-.03-.89-.04-1.249h.689l.04.759h.021c.16-.459.569-.839 1.02-.839.06 0 .109 0 .159.01v.789c-.05-.01-.1-.01-.159-.01-.49 0-.85.45-.93 1.01-.021.13-.03.27-.03.439v2.679h-.77v-3.588zm3.319-3.148v2.889h1.889v-2.889h.77v6.736h-.77v-3.148h-1.889v3.148h-.77v-6.736h.77zm4.301 4.387c.01 1.489.589 1.799 1.139 1.799.34 0 .609-.08.8-.18l.13.56c-.27.15-.68.229-1.07.229-1.148 0-1.748-.939-1.748-2.429 0-1.568.659-2.548 1.629-2.548.979 0 1.379 1.039 1.379 2.129 0 .189-.01.319-.02.439h-2.239zm1.518-.569c.01-.97-.351-1.399-.72-1.399-.5 0-.76.739-.789 1.399h1.509zm1.572-3.998h.77v6.916h-.77v-6.916zm1.909 0h.77v6.916h-.77v-6.916zm3.269 6.996c-.87 0-1.569-.79-1.569-2.488 0-1.77.789-2.509 1.619-2.509.869 0 1.56.799 1.56 2.488 0 1.879-.86 2.509-1.599 2.509h-.011zm.041-.609c.66 0 .799-1.13.799-1.89 0-.749-.139-1.889-.818-1.889-.689 0-.82 1.14-.82 1.889 0 .8.141 1.89.83 1.89h.009zm2.49-6.108c.291-.09.65-.13 1.04-.13.7 0 1.21.181 1.579.51.52.45.91 1.319.91 2.729 0 1.539-.381 2.379-.811 2.849-.439.49-1.089.72-1.859.72-.309 0-.639-.021-.859-.07v-6.608zm.769 6.017c.11.021.221.021.291.021.85 0 1.668-.609 1.668-2.908 0-1.699-.52-2.629-1.599-2.629-.12 0-.26.01-.36.04v5.476zm5.061.7c-.87 0-1.57-.79-1.57-2.488 0-1.77.791-2.509 1.619-2.509.87 0 1.561.799 1.561 2.488 0 1.879-.86 2.509-1.6 2.509h-.01zm.039-.609c.66 0 .8-1.13.8-1.89 0-.749-.14-1.889-.819-1.889-.689 0-.819 1.14-.819 1.889 0 .8.14 1.89.829 1.89h.009zm2.432-3.059c0-.569-.03-.859-.041-1.249h.67l.041.579h.02c.209-.39.6-.659 1.109-.659.67 0 1.17.489 1.17 1.669v3.248h-.771v-3.118c0-.58-.11-1.149-.669-1.149-.32 0-.631.27-.721.789a1.81 1.81 0 0 0-.039.431v3.048h-.77v-3.589zm4.589 1.239c.01 1.489.589 1.799 1.139 1.799.34 0 .609-.08.8-.18l.13.56c-.27.15-.68.229-1.07.229-1.148 0-1.748-.939-1.748-2.429 0-1.568.659-2.548 1.629-2.548.979 0 1.379 1.039 1.379 2.129 0 .189-.01.319-.02.439h-2.239zm1.519-.569c.01-.97-.351-1.399-.72-1.399-.5 0-.76.739-.789 1.399h1.509z"/><path fill="#c7b299" d="M243.768 26.102h3.379v.484s.082 2.393-1.689 2.393c-1.73 0-1.689-2.393-1.689-2.393v-.484z"/><ellipse cx="245.457" cy="26.102" fill="#998675" fill-rule="evenodd" rx="1.689" ry=".423" clip-rule="evenodd"/><path fill="#c7b299" d="M240.993 33.96h3.034v15.57c0 .451-.679.816-1.517.816-.838 0-1.518-.365-1.518-.816V33.96zm-3.807 2.361h3.034v15.571c0 .45-.68.815-1.518.815s-1.517-.365-1.517-.815V36.321z"/><path fill="#197fc3" d="M247.186 11.741l-.039 13.812c0 .233-.757.423-1.689.423s-1.689-.19-1.689-.423l.04-13.812s-.083-3.234 1.69-3.234c1.729 0 1.687 3.234 1.687 3.234z"/><path fill="#0071bc" d="M234.339 12.963c-.006-1.16 1.117-4.54 6.158-5.5 5.566-1.06 5.654 2.837 5.654 2.837a.757.757 0 0 1-.005.259l.017 2.807s-.306 2.157-1.093 3.236c-.673.924-.716 2.631-.413 3.718.301 1.087 1.385 6.238.513 13.727 0 0-.584 1.741-4.919 2.555-4.335.92-4.917-.588-4.917-.588-.874-7.14.21-12.725.511-13.931.303-1.208.26-2.898-.413-3.552-.786-.766-1.093-2.8-1.093-2.8s-.054-2.477.002-2.898c0 0-.008.049-.002.13z"/><path fill="#c7b299" d="M232.984 30.402h3.378v.483s.083 2.394-1.689 2.394c-1.73 0-1.689-2.394-1.689-2.394v-.483z"/><ellipse cx="234.673" cy="30.402" fill="#998675" fill-rule="evenodd" rx="1.689" ry=".422" clip-rule="evenodd"/><path fill="#998675" d="M242.144 8.443c1.265.297 1.438 1.163.387 1.934-1.053.771-2.931 1.155-4.194.859-1.265-.298-1.439-1.163-.387-1.934 1.05-.772 2.927-1.156 4.194-.859z"/><path fill="#338dc9" d="M236.402 16.041l-.04 13.812c0 .233-.757.422-1.689.422s-1.689-.189-1.689-.422l.039-13.812s-.082-3.235 1.689-3.235c1.731 0 1.69 3.235 1.69 3.235z"/><path fill="#c7b299" d="M239.136 9.887c-3.838-.867-4.576-6.85-1.096-8.891 1.064-.623 2.084-.52 2.6-.426 2.281.539 3.136 2.674 3.281 3.851.318 2.587-.919 4.299-2.185 5.039a3.63 3.63 0 0 1-2.6.427z"/><path fill="none" stroke="#000" d="M245.497 8.507c-.021 0-.042.005-.064.006-.388-.468-.996-.891-1.92-1.097.363-.81.554-1.805.408-2.995-.146-1.177-1-3.312-3.281-3.851-.517-.093-1.536-.197-2.6.426-2.747 1.611-2.857 5.669-.898 7.736-2.139 1.356-2.762 3.248-2.799 4.131l-.006.003a.318.318 0 0 1 .003-.034c-.002.009-.002.023-.003.034-1.38.427-1.314 3.174-1.314 3.174l-.039 13.812c0 .105.16.201.414.274-.254.074-.414.17-.414.274v.483s-.042 2.394 1.689 2.394c.15 0 .284-.023.41-.055.053.898.132 1.829.251 2.79 0 0 .274.712 1.852.859V51.89c0 .45.679.815 1.517.815s1.518-.365 1.518-.815V36.607l.031-.005c.261-.05.508-.103.742-.157V49.53c0 .451.68.816 1.518.816s1.517-.365 1.517-.816V35.24c.952-.633 1.143-1.193 1.143-1.193.215-1.842.309-3.539.328-5.073 1.726-.038 1.648-2.389 1.648-2.389v-.484c0-.105-.159-.2-.413-.274.254-.075.413-.169.413-.274l.039-13.812c-.001 0 .041-3.234-1.69-3.234z" stroke-linecap="round" stroke-linejoin="round"/><path fill="#c7b299" d="M103.77 26.102h3.377l-.002.482s.084 2.392-1.686 2.392c-1.73 0-1.689-2.392-1.689-2.392v-.482z"/><ellipse cx="105.458" cy="26.102" fill="#998675" fill-rule="evenodd" rx="1.688" ry=".423" clip-rule="evenodd"/><path fill="#c7b299" d="M100.994 33.958h3.034V49.53c0 .451-.681.815-1.518.815s-1.517-.365-1.517-.815V33.958zm-3.808 2.363h3.034v15.572c0 .449-.68.814-1.518.814s-1.517-.365-1.517-.814V36.321z"/><path fill="#199d58" d="M107.187 11.741l-.04 13.812c0 .234-.756.425-1.688.425-.936 0-1.689-.191-1.689-.425l.038-13.812s-.082-3.235 1.69-3.235c1.729-.001 1.689 3.235 1.689 3.235z"/><path fill="#009245" d="M94.338 12.961c-.008-1.158 1.118-4.539 6.16-5.501 5.566-1.059 5.652 2.84 5.652 2.84a.681.681 0 0 1-.003.258l.018 2.806s-.306 2.159-1.093 3.237c-.674.924-.717 2.63-.416 3.719.303 1.083 1.387 6.236.514 13.726 0 0-.583 1.74-4.919 2.555-4.335.919-4.917-.589-4.917-.589-.874-7.142.211-12.724.511-13.93.304-1.208.259-2.9-.413-3.554-.788-.763-1.094-2.797-1.094-2.797s-.052-2.478.004-2.9c0 .001-.01.05-.004.13z"/><path fill="#c7b299" d="M92.984 30.402h3.377v.483s.084 2.392-1.689 2.392c-1.729 0-1.688-2.392-1.688-2.392v-.483z"/><ellipse cx="94.673" cy="30.401" fill="#998675" fill-rule="evenodd" rx="1.688" ry=".421" clip-rule="evenodd"/><path fill="#998675" d="M102.143 8.442c1.266.298 1.439 1.163.387 1.934-1.051.77-2.928 1.156-4.193.859-1.266-.299-1.439-1.164-.386-1.936 1.049-.77 2.926-1.153 4.192-.857z"/><path fill="#33a86a" d="M96.402 16.041l-.041 13.81c0 .234-.756.426-1.688.426-.933 0-1.689-.192-1.689-.426l.039-13.81s-.083-3.236 1.689-3.236c1.731 0 1.69 3.236 1.69 3.236z"/><path fill="#c7b299" d="M99.135 9.887c-3.838-.867-4.574-6.849-1.094-8.893 1.062-.621 2.084-.517 2.6-.425 2.281.539 3.137 2.676 3.281 3.851.318 2.588-.919 4.3-2.185 5.04a3.624 3.624 0 0 1-2.602.427z"/><path fill="none" stroke="#000" d="M105.497 8.505c-.021 0-.042.006-.064.007-.389-.468-.996-.892-1.922-1.096.365-.811.557-1.804.41-2.997-.145-1.175-1-3.312-3.281-3.851-.516-.091-1.537-.195-2.6.425-2.749 1.612-2.857 5.669-.898 7.739-2.139 1.355-2.763 3.247-2.799 4.129l-.006.004c0-.022.004-.035.004-.035a.209.209 0 0 0-.004.035c-1.38.426-1.314 3.174-1.314 3.174l-.039 13.81c0 .106.159.204.415.275-.256.074-.415.17-.415.275v.483s-.041 2.392 1.688 2.392c.152 0 .285-.021.41-.052.054.898.133 1.829.252 2.789 0 0 .274.712 1.852.861v15.019c0 .449.679.814 1.517.814s1.518-.365 1.518-.814V36.606c.011 0 .021-.003.031-.003.261-.051.509-.103.743-.158V49.53c0 .451.68.815 1.517.815.837 0 1.518-.365 1.518-.815V35.24c.95-.632 1.142-1.192 1.142-1.192a48.38 48.38 0 0 0 .327-5.074c1.727-.035 1.647-2.389 1.647-2.389l.002-.482c0-.105-.158-.201-.414-.275.256-.072.414-.168.414-.275l.04-13.812c-.001 0 .039-3.236-1.691-3.236z" stroke-linecap="round" stroke-linejoin="round"/><path d="M277.401 170.458l-.439 2.019h-.75l1.539-6.736h.85l1.5 6.736h-.76l-.44-2.019h-1.5zm1.389-.621l-.35-1.709c-.1-.479-.189-1.039-.27-1.539h-.029c-.08.51-.181 1.089-.28 1.549l-.351 1.699h1.28zm2.082-.689c0-.739-.03-1.169-.04-1.509h.689l.04.609h.02c.26-.51.65-.689 1.02-.689.85 0 1.4.89 1.4 2.488 0 1.799-.74 2.509-1.49 2.509-.459 0-.719-.28-.85-.55h-.02v2.389h-.77v-5.247zm.77 1.56c0 .14.01.279.04.399.149.689.489.81.7.81.639 0 .849-.88.849-1.849 0-1.01-.239-1.85-.849-1.85-.351 0-.67.439-.711.88-.029.12-.029.239-.029.369v1.241zm3.22-1.56c0-.739-.031-1.169-.041-1.509h.689l.041.609h.02c.26-.51.65-.689 1.02-.689.85 0 1.399.89 1.399 2.488 0 1.799-.739 2.509-1.489 2.509-.46 0-.72-.28-.85-.55h-.02v2.389h-.77v-5.247zm.77 1.56c0 .14.01.279.039.399.15.689.49.81.7.81.64 0 .849-.88.849-1.849 0-1.01-.239-1.85-.849-1.85-.351 0-.67.439-.71.88-.029.12-.029.239-.029.369v1.241zm3.229-5.148h.77v6.916h-.77v-6.916zm2.271 1.329c-.25 0-.439-.2-.439-.5s.199-.499.449-.499c.279 0 .459.199.459.499s-.18.5-.459.5h-.01zm-.36 5.587v-4.837h.77v4.837h-.77zm4.198-.12c-.17.101-.459.18-.799.18-1.06 0-1.77-.85-1.77-2.448 0-1.39.699-2.519 1.909-2.519.26 0 .54.07.68.16l-.149.619a1.265 1.265 0 0 0-.551-.13c-.779 0-1.119.92-1.119 1.869 0 1.129.43 1.809 1.14 1.809.2 0 .38-.04.55-.13l.109.59zm3.211-.98c0 .37 0 .79.049 1.1h-.689l-.05-.51h-.03c-.209.37-.549.59-.959.59-.649 0-1.149-.54-1.149-1.379 0-1.22.97-1.749 2.06-1.76v-.149c0-.649-.16-1.1-.77-1.1-.301 0-.57.09-.801.25l-.17-.54c.211-.149.65-.319 1.13-.319.97 0 1.38.64 1.38 1.719v2.098zm-.75-1.409c-.4 0-1.33.08-1.33 1.13 0 .64.32.859.59.859.34 0 .62-.25.71-.729.021-.09.03-.19.03-.28v-.98zm2.689-3.458v1.13h.93v.579h-.93v2.879c0 .64.221.799.5.799.131 0 .23-.01.311-.029l.039.59a1.68 1.68 0 0 1-.569.079c-.31 0-.579-.079-.759-.289-.2-.221-.291-.55-.291-1.22v-2.809h-.589v-.579h.589v-.82l.769-.31zm1.971.38c-.25 0-.439-.2-.439-.5s.199-.499.449-.499c.28 0 .46.199.46.499s-.18.5-.46.5h-.01zm-.36 5.587v-4.837h.77v4.837h-.77zm3.2.08c-.869 0-1.569-.79-1.569-2.488 0-1.77.79-2.509 1.619-2.509.87 0 1.56.799 1.56 2.488 0 1.879-.859 2.509-1.6 2.509h-.01zm.04-.609c.659 0 .8-1.13.8-1.89 0-.749-.141-1.889-.82-1.889-.689 0-.818 1.14-.818 1.889 0 .8.139 1.89.828 1.89h.01zm2.43-3.059c0-.569-.03-.859-.041-1.249h.67l.041.579h.02c.21-.39.6-.659 1.109-.659.67 0 1.17.489 1.17 1.669v3.248h-.77v-3.118c0-.58-.11-1.149-.669-1.149-.32 0-.63.27-.721.789a1.81 1.81 0 0 0-.039.431v3.048h-.77v-3.589zm5.68-3.049c.29-.09.65-.13 1.039-.13.7 0 1.21.181 1.58.51.52.45.909 1.319.909 2.729 0 1.539-.38 2.379-.81 2.849-.439.49-1.09.72-1.859.72-.31 0-.64-.021-.859-.07v-6.608zm.77 6.017c.109.021.221.021.29.021.85 0 1.669-.609 1.669-2.908 0-1.699-.52-2.629-1.6-2.629-.119 0-.26.01-.359.04v5.476zm6.169-.48c0 .37 0 .79.05 1.1h-.689l-.05-.51h-.03c-.21.37-.55.59-.959.59-.65 0-1.15-.54-1.15-1.379 0-1.22.971-1.749 2.06-1.76v-.149c0-.649-.16-1.1-.77-1.1-.3 0-.569.09-.8.25l-.17-.54c.21-.149.65-.319 1.129-.319.971 0 1.38.64 1.38 1.719v2.098zm-.749-1.409c-.4 0-1.33.08-1.33 1.13 0 .64.32.859.59.859.34 0 .619-.25.709-.729.021-.09.031-.19.031-.28v-.98zm2.689-3.458v1.13h.93v.579h-.93v2.879c0 .64.221.799.5.799.131 0 .23-.01.311-.029l.039.59a1.68 1.68 0 0 1-.569.079c-.31 0-.579-.079-.759-.289-.2-.221-.291-.55-.291-1.22v-2.809h-.589v-.579h.589v-.82l.769-.31zm4.16 4.867c0 .37 0 .79.049 1.1h-.689l-.05-.51h-.03c-.209.37-.549.59-.959.59-.649 0-1.149-.54-1.149-1.379 0-1.22.97-1.749 2.06-1.76v-.149c0-.649-.16-1.1-.77-1.1-.301 0-.57.09-.801.25l-.17-.54c.211-.149.65-.319 1.13-.319.97 0 1.38.64 1.38 1.719v2.098zm-.75-1.409c-.4 0-1.33.08-1.33 1.13 0 .64.32.859.59.859.34 0 .62-.25.71-.729.021-.09.03-.19.03-.28v-.98z"/></svg>