<svg xmlns="http://www.w3.org/2000/svg" viewBox="0 0 321.238 155.994"><path fill="none" stroke="#0071bc" stroke-miterlimit="10" d="M69.151 81.916h47.159l12.557-25.662" clip-rule="evenodd"/><path fill="none" stroke="#000" stroke-miterlimit="10" d="M214.81 56.456h52" clip-rule="evenodd"/><path fill="none" stroke="#c1272d" stroke-miterlimit="10" d="M144.81 56.456h52" clip-rule="evenodd"/><g fill="none" stroke="#000" stroke-miterlimit="10"><path d="M108.31 155.994v-1"/><path d="M108.31 152.994V2" stroke-dasharray="2 2"/><path d="M108.31 1V0"/></g><g fill="none" stroke="#000" stroke-miterlimit="10"><path d="M235.31 155.994v-1"/><path d="M235.31 152.994V2" stroke-dasharray="2 2"/><path d="M235.31 1V0"/></g><path fill="#b2d4eb" fill-rule="evenodd" d="M302.984 80.435c-3.3.944-6.579.248-9.021-1.601-1.44 1.684-3.146 2.845-5.382 3.482-5.78 1.649-11.093-.258-12.362-6.055a11.26 11.26 0 0 1-3.424 1.637c-5.773 1.648-11.777-1.831-13.049-7.63-5.027.443-9.605-2.776-10.724-7.889-1.271-5.797 2.385-11.833 8.159-13.481a10.659 10.659 0 0 1 3.876-.379c-1.271-5.794 2.455-10.348 8.232-11.998 2.316-.659 4.314-.895 6.327-.109 1.423-2.808 3.97-5.058 7.161-5.969 5.774-1.647 11.484 1.715 12.756 7.512.594-.292 1.093-.31 1.743-.498 5.777-1.649 11.489 1.713 12.758 7.511 5.009-.414 9.9 2.914 11.015 8.008 1.272 5.795-4.125 12.328-9.901 13.979 1.27 5.797-2.383 11.834-8.164 13.48z" clip-rule="evenodd" mask="url(#b)"/><path fill="#fddfbb" fill-rule="evenodd" d="M21.831 100.009L11.634 82.347l10.197-17.663h20.395l10.197 17.663-10.197 17.662z" clip-rule="evenodd"/><path fill="none" stroke="#000" d="M21.831 100.009L11.634 82.347l10.197-17.663h20.395l10.197 17.663-10.197 17.662z" stroke-linecap="round" stroke-linejoin="round"/><path fill="#fddfbb" fill-rule="evenodd" d="M52.625 82.288L42.428 64.626l10.197-17.663H73.02l10.197 17.663L73.02 82.288z" clip-rule="evenodd"/><path fill="none" stroke="#000" d="M52.625 82.288L42.428 64.626l10.197-17.663H73.02l10.197 17.663L73.02 82.288z" stroke-linecap="round" stroke-linejoin="round"/><path fill="#fddfbb" fill-rule="evenodd" d="M52.422 117.729l-10.197-17.662 10.197-17.662h20.395l10.197 17.662-10.197 17.662z" clip-rule="evenodd"/><path fill="none" stroke="#000" d="M52.422 117.729l-10.197-17.662 10.197-17.662h20.395l10.197 17.662-10.197 17.662z" stroke-linecap="round" stroke-linejoin="round"/><path fill="#ecbec0" fill-rule="evenodd" d="M128.867 43.513h25.885v25.886h-25.885z" clip-rule="evenodd"/><path fill="none" stroke="#000" d="M128.867 43.513h25.885v25.886h-25.885z" stroke-linecap="round" stroke-linejoin="round"/><path fill="none" stroke="#000" d="M141.809 92.967V75.115"/><path d="M144.81 75.991l-2.992-5.182-2.991 5.182zm-6.002 16.101l2.992 5.181 2.991-5.181z"/><path fill="#b2dec7" fill-rule="evenodd" d="M188.866 43.513h25.885v25.886h-25.885z" clip-rule="evenodd"/><path fill="none" stroke="#000" d="M188.866 43.513h25.885v25.886h-25.885z" stroke-linecap="round" stroke-linejoin="round"/><path fill="#e6e6e6" fill-rule="evenodd" d="M188.866 98.513h25.885v25.886h-25.885z" clip-rule="evenodd"/><path fill="none" stroke="#000" d="M188.866 98.513h25.885v25.886h-25.885z" stroke-linecap="round" stroke-linejoin="round"/><path fill="none" stroke="#000" d="M201.809 92.967V75.115"/><path d="M204.81 75.991l-2.992-5.182-2.992 5.182zm-6.002 16.101l2.991 5.181 2.992-5.181z"/><path fill="none" stroke="#0071bc" stroke-miterlimit="10" d="M116.31 81.916l12.557 28.584" clip-rule="evenodd"/><path fill="#b2d4eb" fill-rule="evenodd" d="M128.867 98.513h25.885v25.886h-25.885z" clip-rule="evenodd"/><path fill="none" stroke="#000" d="M128.867 98.513h25.885v25.886h-25.885z" stroke-linecap="round" stroke-linejoin="round"/><path d="M.66 24.655c.363-.1.803-.144 1.221-.144.737 0 1.287.154 1.672.528.363.374.517.869.517 1.452 0 .946-.44 1.562-1.188 1.903v.021c.55.165.836.693 1.001 1.662.165 1.022.319 1.649.418 1.881h-.858c-.11-.22-.253-.924-.396-1.837-.165-1.013-.484-1.397-1.21-1.397h-.33v3.234H.66v-7.303zm.847 3.421h.352c.814 0 1.353-.594 1.353-1.485 0-.857-.352-1.386-1.265-1.396-.165 0-.33.011-.44.044v2.837zm5.764 3.883l-.055-.562h-.033c-.231.407-.605.649-1.056.649-.715 0-1.265-.604-1.265-1.519 0-1.331 1.067-1.925 2.266-1.936v-.165c0-.716-.176-1.21-.847-1.21-.33 0-.627.109-.88.274l-.187-.594c.22-.165.715-.353 1.243-.353 1.067 0 1.529.704 1.529 1.903v2.3c0 .407 0 .869.055 1.21h-.77zm-.121-2.75c-.44 0-1.463.076-1.463 1.231 0 .693.352.946.649.946.374 0 .693-.274.792-.803.022-.1.022-.209.022-.297v-1.077zm5.225-4.863v6.337c0 .363.033.969.044 1.276h-.726l-.055-.671h-.033c-.176.385-.55.759-1.111.759-.902 0-1.551-.979-1.551-2.729 0-1.892.781-2.772 1.606-2.772.385 0 .759.188.968.639h.022v-2.839h.836zm-.836 4.313c0-.109 0-.23-.011-.352-.055-.55-.385-1.034-.792-1.034-.704 0-.946.979-.946 2.046 0 1.122.286 2.024.902 2.024.264 0 .627-.143.814-.913.022-.099.033-.22.033-.352v-1.419zm2.937-3.4c.011.33-.198.551-.517.551-.275 0-.484-.221-.484-.551s.22-.55.495-.55c.308 0 .506.22.506.55zm-.913 6.7v-5.325h.847v5.325h-.847zm5.291-2.662c0 2.057-.957 2.75-1.771 2.75-.957 0-1.727-.869-1.727-2.739 0-1.947.869-2.762 1.782-2.762.946 0 1.716.892 1.716 2.751zm-2.651 0c0 .88.154 2.079.924 2.079.726 0 .869-1.254.869-2.079 0-.814-.143-2.068-.891-2.068-.759 0-.902 1.254-.902 2.068zm6.281.44l-.495 2.223h-.814l1.694-7.415h.935l1.65 7.415h-.836l-.495-2.223h-1.639zm1.529-.682l-.385-1.882a38.668 38.668 0 0 1-.297-1.693h-.044a43.913 43.913 0 0 1-.297 1.693l-.385 1.882h1.408zm4.785 2.773c-.187.109-.506.198-.88.198-1.167 0-1.947-.936-1.947-2.695 0-1.529.77-2.772 2.101-2.772.286 0 .594.076.748.165l-.165.692a1.382 1.382 0 0 0-.605-.143c-.847 0-1.232 1.012-1.232 2.058 0 1.243.473 1.991 1.254 1.991.231 0 .418-.056.616-.144l.11.65zm3.256 0c-.187.109-.506.198-.88.198-1.167 0-1.947-.936-1.947-2.695 0-1.529.77-2.772 2.101-2.772.286 0 .594.076.748.165l-.165.692a1.382 1.382 0 0 0-.605-.143c-.847 0-1.232 1.012-1.232 2.058 0 1.243.473 1.991 1.254 1.991.231 0 .418-.056.616-.144l.11.65zm1.253-2.453c.011 1.628.649 1.979 1.265 1.979.363 0 .671-.088.88-.209l.132.627c-.297.165-.748.254-1.166.254-1.276 0-1.936-1.046-1.936-2.674 0-1.728.726-2.806 1.793-2.806 1.089 0 1.518 1.145 1.518 2.354 0 .198 0 .341-.011.474h-2.475zm1.673-.628c.022-1.066-.385-1.54-.792-1.54-.55 0-.836.814-.869 1.54h1.661zm1.584 2.333c.187.121.517.274.858.274.484 0 .781-.297.781-.77 0-.407-.143-.683-.682-1.045-.693-.451-1.067-.902-1.067-1.519 0-.858.638-1.475 1.463-1.475.418 0 .737.144.957.275l-.231.638a1.25 1.25 0 0 0-.704-.23c-.462 0-.693.33-.693.671 0 .363.132.562.66.924.616.396 1.1.881 1.1 1.617 0 1.067-.726 1.585-1.595 1.585-.396 0-.825-.121-1.056-.309l.209-.636zm3.178 0c.187.121.517.274.858.274.484 0 .781-.297.781-.77 0-.407-.143-.683-.682-1.045-.693-.451-1.067-.902-1.067-1.519 0-.858.638-1.475 1.463-1.475.418 0 .737.144.957.275l-.231.638a1.25 1.25 0 0 0-.704-.23c-.462 0-.693.33-.693.671 0 .363.132.562.66.924.616.396 1.1.881 1.1 1.617 0 1.067-.726 1.585-1.595 1.585-.396 0-.825-.121-1.056-.309l.209-.636zm5.115.879v-7.415h.803l1.364 3.477c.308.792.693 1.782.946 2.585h.022a55.805 55.805 0 0 1-.099-3.41v-2.651h.759v7.415h-.803l-1.408-3.564a26.597 26.597 0 0 1-.88-2.52h-.022c.066.99.088 1.937.088 3.521v2.563h-.77zm5.599-2.584c.011 1.628.649 1.979 1.265 1.979.363 0 .671-.088.88-.209l.132.627c-.297.165-.748.254-1.166.254-1.276 0-1.936-1.046-1.936-2.674 0-1.728.726-2.806 1.793-2.806 1.089 0 1.518 1.145 1.518 2.354 0 .198 0 .341-.011.474h-2.475zm1.672-.628c.022-1.066-.385-1.54-.792-1.54-.55 0-.836.814-.869 1.54h1.661zm2.761-3.521v1.408h1.023v.649h-1.023v3.157c0 .693.253.881.561.881.132 0 .242-.012.341-.033l.033.648a1.827 1.827 0 0 1-.627.089c-.33 0-.627-.089-.836-.319-.209-.242-.319-.605-.319-1.343v-3.08h-.649v-.649h.649v-1.166l.847-.242zm2.31 1.408l.517 2.607c.099.572.22 1.145.286 1.694h.044c.077-.55.209-1.166.33-1.672l.616-2.63h.649l.583 2.553c.132.594.253 1.155.341 1.749h.044c.066-.561.165-1.111.286-1.716l.506-2.586h.847l-1.342 5.325h-.693l-.616-2.585c-.132-.518-.209-.99-.297-1.596h-.022a16.63 16.63 0 0 1-.308 1.628l-.638 2.553h-.715l-1.298-5.325h.88zm8.921 2.663c0 2.057-.957 2.75-1.771 2.75-.957 0-1.727-.869-1.727-2.739 0-1.947.869-2.762 1.782-2.762.946 0 1.716.892 1.716 2.751zm-2.651 0c0 .88.154 2.079.924 2.079.726 0 .869-1.254.869-2.079 0-.814-.143-2.068-.891-2.068-.759 0-.902 1.254-.902 2.068zm3.586-1.287c0-.451-.033-.979-.044-1.376h.759l.044.837h.022c.176-.507.627-.925 1.122-.925.066 0 .121.012.176.012v.869c-.055-.012-.11-.012-.176-.012-.539 0-.935.495-1.023 1.111a3.259 3.259 0 0 0-.033.484v2.948h-.847V28.01zm3.575 1.1h.022c.099-.209.187-.418.286-.594l1.056-1.882h.913l-1.408 2.245 1.529 3.08h-.946l-1.155-2.509-.297.495v2.014h-.847v-7.613h.847v4.764zm6.699-4.764c-.627.99-1.144 2.476-1.144 4.478 0 1.97.517 3.455 1.144 4.456h-.66c-.572-.836-1.21-2.311-1.21-4.467.022-2.156.638-3.642 1.21-4.467h.66zm.934.309c.363-.1.803-.144 1.221-.144.737 0 1.287.154 1.672.528.363.374.517.869.517 1.452 0 .946-.44 1.562-1.188 1.903v.021c.55.165.836.693 1.001 1.662.165 1.022.319 1.649.418 1.881h-.858c-.11-.22-.253-.924-.396-1.837-.165-1.013-.484-1.397-1.21-1.397h-.33v3.234h-.847v-7.303zm.847 3.421h.352c.814 0 1.353-.594 1.353-1.485 0-.857-.352-1.386-1.265-1.396-.165 0-.33.011-.44.044v2.837zm4.609 1.661l-.495 2.223h-.814l1.694-7.415h.935l1.65 7.415h-.836l-.495-2.223h-1.639zm1.53-.682l-.385-1.882a38.668 38.668 0 0 1-.297-1.693h-.044a43.913 43.913 0 0 1-.297 1.693l-.385 1.882h1.408zm2.364 2.904v-7.415h.803l1.364 3.477c.308.792.693 1.782.946 2.585h.022a55.805 55.805 0 0 1-.099-3.41v-2.651h.759v7.415h-.803l-1.408-3.564a26.597 26.597 0 0 1-.88-2.52h-.022c.066.99.088 1.937.088 3.521v2.563h-.77zm4.73 1.321c.627-.99 1.145-2.497 1.145-4.478s-.517-3.466-1.145-4.456h.66c.572.814 1.21 2.277 1.21 4.456-.022 2.178-.638 3.63-1.21 4.478h-.66zm50.834-1.452c-.231.121-.594.198-1.056.198-1.452 0-2.486-1.167-2.486-3.686 0-2.927 1.452-3.862 2.618-3.862.451 0 .771.088.924.188l-.187.715a1.62 1.62 0 0 0-.748-.154c-.792 0-1.716.771-1.716 3.037s.836 3.015 1.738 3.015c.319 0 .605-.077.781-.165l.132.714zm3.871-2.531c0 2.057-.957 2.75-1.771 2.75-.957 0-1.727-.869-1.727-2.739 0-1.947.869-2.762 1.782-2.762.946 0 1.716.892 1.716 2.751zm-2.651 0c0 .88.154 2.079.924 2.079.726 0 .869-1.254.869-2.079 0-.814-.143-2.068-.891-2.068-.759 0-.902 1.254-.902 2.068zm3.586-1.287c0-.451-.033-.979-.044-1.376h.759l.044.837h.022c.176-.507.627-.925 1.122-.925.066 0 .121.012.176.012v.869c-.055-.012-.11-.012-.176-.012-.539 0-.935.495-1.023 1.111a3.259 3.259 0 0 0-.033.484v2.948h-.847V28.01zm3.179 1.365c.011 1.628.649 1.979 1.265 1.979.363 0 .671-.088.88-.209l.132.627c-.297.165-.748.254-1.166.254-1.276 0-1.936-1.046-1.936-2.674 0-1.728.726-2.806 1.793-2.806 1.089 0 1.518 1.145 1.518 2.354 0 .198 0 .341-.011.474h-2.475zm1.673-.628c.022-1.066-.385-1.54-.792-1.54-.55 0-.836.814-.869 1.54h1.661zm3.519 3.212v-7.415h.803l1.364 3.477c.308.792.693 1.782.946 2.585h.022a55.805 55.805 0 0 1-.099-3.41v-2.651h.759v7.415h-.803l-1.408-3.564a26.597 26.597 0 0 1-.88-2.52h-.022c.066.99.088 1.937.088 3.521v2.563h-.77zm5.599-2.584c.011 1.628.649 1.979 1.265 1.979.363 0 .672-.088.881-.209l.132.627c-.297.165-.748.254-1.166.254-1.276 0-1.936-1.046-1.936-2.674 0-1.728.726-2.806 1.792-2.806 1.09 0 1.519 1.145 1.519 2.354 0 .198 0 .341-.011.474h-2.476zm1.673-.628c.021-1.066-.385-1.54-.793-1.54-.55 0-.835.814-.869 1.54h1.662zm2.76-3.521v1.408h1.023v.649h-1.023v3.157c0 .693.254.881.562.881.132 0 .241-.012.341-.033l.033.648a1.827 1.827 0 0 1-.627.089c-.33 0-.627-.089-.836-.319-.209-.242-.319-.605-.319-1.343v-3.08h-.649v-.649h.649v-1.166l.846-.242zm2.31 1.408l.517 2.607c.099.572.22 1.145.286 1.694h.044c.077-.55.209-1.166.33-1.672l.616-2.63h.648l.584 2.553c.132.594.253 1.155.341 1.749h.044c.066-.561.165-1.111.286-1.716l.506-2.586h.847l-1.342 5.325h-.693l-.615-2.585c-.133-.518-.209-.99-.297-1.596h-.022a16.63 16.63 0 0 1-.308 1.628l-.639 2.553h-.715l-1.299-5.325h.881zm8.921 2.663c0 2.057-.957 2.75-1.771 2.75-.957 0-1.728-.869-1.728-2.739 0-1.947.868-2.762 1.782-2.762.947 0 1.717.892 1.717 2.751zm-2.651 0c0 .88.154 2.079.924 2.079.727 0 .869-1.254.869-2.079 0-.814-.143-2.068-.891-2.068-.76 0-.902 1.254-.902 2.068zm3.586-1.287c0-.451-.033-.979-.044-1.376h.759l.045.837h.021c.176-.507.627-.925 1.122-.925.065 0 .121.012.177.012v.869c-.056-.012-.111-.012-.177-.012-.539 0-.935.495-1.022 1.111a3.259 3.259 0 0 0-.033.484v2.948h-.848V28.01zm3.575 1.1h.022c.099-.209.187-.418.285-.594l1.057-1.882h.913l-1.408 2.245 1.529 3.08h-.946l-1.155-2.509-.297.495v2.014h-.847v-7.613h.847v4.764zm6.698-4.764c-.627.99-1.144 2.476-1.144 4.478 0 1.97.517 3.455 1.144 4.456h-.66c-.571-.836-1.209-2.311-1.209-4.467.021-2.156.638-3.642 1.209-4.467h.66zm3.642 4.093h-1.859v2.783h2.112v.737h-2.959v-7.415h2.826v.737h-1.979v2.442h1.859v.716zm1.187-3.784a4.87 4.87 0 0 1 1.231-.144c.683 0 1.255.165 1.641.55.362.353.549.892.549 1.529 0 .683-.164 1.145-.451 1.519-.406.55-1.088.825-1.748.825-.144 0-.254 0-.375-.011v3.036h-.847v-7.304zm.847 3.553c.1.022.188.033.33.033.836 0 1.397-.55 1.397-1.595 0-.76-.319-1.441-1.254-1.441-.198 0-.363.021-.474.055v2.948zm6.776 3.62c-.231.121-.595.198-1.056.198-1.453 0-2.486-1.167-2.486-3.686 0-2.927 1.451-3.862 2.617-3.862.451 0 .771.088.925.188l-.187.715a1.62 1.62 0 0 0-.748-.154c-.793 0-1.717.771-1.717 3.037s.836 3.015 1.738 3.015c.318 0 .605-.077.781-.165l.133.714zm.55 1.452c.627-.99 1.145-2.497 1.145-4.478s-.518-3.466-1.145-4.456h.66c.572.814 1.21 2.277 1.21 4.456-.022 2.178-.638 3.63-1.21 4.478h-.66zm-67.503 25.425c.253.165.693.298 1.067.298.771 0 1.232-.507 1.232-1.255 0-.682-.396-1.1-.979-1.54-.583-.407-1.397-1.101-1.397-2.058 0-1.122.781-1.947 1.958-1.947.462 0 .869.144 1.045.275l-.209.727a1.542 1.542 0 0 0-.88-.254c-.726 0-1.067.551-1.067 1.057 0 .737.385 1.023 1.089 1.529.891.627 1.287 1.309 1.287 2.134 0 1.276-.902 2.08-2.08 2.08-.506 0-1.045-.165-1.254-.319l.188-.727zm7.788.792a3.783 3.783 0 0 1-1.32.254c-.649 0-1.254-.177-1.75-.727-.539-.572-.902-1.595-.891-2.948.011-2.883 1.485-3.873 2.794-3.873.462 0 .825.088 1.056.209l-.187.727c-.198-.099-.462-.176-.858-.176-.924 0-1.925.736-1.925 3.036 0 2.288.869 3.025 1.761 3.025.286 0 .451-.055.517-.088v-2.421h-.957v-.703h1.76v3.685zm2.134.188l-1.43-7.415h.88l.627 3.575c.154.936.275 1.761.363 2.674h.044c.088-.936.264-1.738.44-2.685l.682-3.564h.726l.682 3.487c.165.88.33 1.728.429 2.762h.033c.121-1.067.253-1.87.396-2.718l.616-3.531h.825l-1.441 7.415h-.825l-.715-3.608a33.911 33.911 0 0 1-.374-2.432h-.022c-.11.836-.231 1.64-.407 2.465l-.737 3.575h-.792zm-5.824 51.809c-.055-.979-.11-2.068-.077-2.904h-.044a42.745 42.745 0 0 1-.594 2.574l-.913 3.477h-.539l-.869-3.334c-.242-.945-.462-1.858-.605-2.717h-.033c0 .869-.044 1.903-.088 2.959l-.143 3.136h-.759l.44-7.415h.913l.869 3.389c.253.979.44 1.705.594 2.552h.033c.143-.847.308-1.551.55-2.552l.836-3.389h.946l.429 7.415h-.792l-.154-3.191zm6.589 0c-.055-.979-.11-2.068-.077-2.904h-.044a42.745 42.745 0 0 1-.594 2.574l-.913 3.477h-.539l-.869-3.334c-.242-.945-.462-1.858-.605-2.717h-.033c0 .869-.044 1.903-.088 2.959l-.143 3.136h-.759l.44-7.415h.913l.869 3.389c.253.979.44 1.705.594 2.552h.033c.143-.847.308-1.551.55-2.552l.836-3.389h.946l.429 7.415h-.792l-.154-3.191zm4.807-.33h-1.859v2.783h2.112v.737h-2.959v-7.415h2.827v.737h-1.98v2.442h1.859v.716zM194.28 52.38c.34-.089.748-.144 1.231-.144.683 0 1.255.165 1.64.55.363.353.55.892.55 1.529 0 .683-.165 1.145-.451 1.519-.407.55-1.089.825-1.749.825-.143 0-.253 0-.374-.011v3.036h-.847V52.38zm.847 3.553c.099.022.187.033.33.033.836 0 1.397-.55 1.397-1.595 0-.76-.319-1.441-1.254-1.441-.199 0-.363.021-.474.055v2.948zm7.194 3.564a3.788 3.788 0 0 1-1.32.254c-.649 0-1.254-.177-1.75-.727-.539-.572-.902-1.595-.891-2.948.012-2.883 1.485-3.873 2.795-3.873.461 0 .824.088 1.056.209l-.187.727c-.199-.099-.463-.176-.859-.176-.924 0-1.925.736-1.925 3.036 0 2.288.869 3.025 1.761 3.025.285 0 .451-.055.517-.088v-2.421h-.957v-.703h1.761v3.685zm2.133.188l-1.43-7.415h.88l.627 3.575c.154.936.275 1.761.363 2.674h.044c.088-.936.264-1.738.439-2.685l.683-3.564h.726l.683 3.487c.165.88.33 1.728.429 2.762h.033a47.88 47.88 0 0 1 .396-2.718l.615-3.531h.826l-1.441 7.415h-.825l-.716-3.608a33.913 33.913 0 0 1-.373-2.432h-.022c-.11.836-.231 1.64-.407 2.465l-.736 3.575h-.794zm-10.377 47.695c.34-.089.748-.144 1.231-.144.683 0 1.255.165 1.64.55.363.353.55.892.55 1.529 0 .683-.165 1.145-.451 1.519-.407.55-1.089.825-1.749.825-.143 0-.253 0-.374-.011v3.036h-.847v-7.304zm.847 3.553c.099.022.187.033.33.033.836 0 1.397-.55 1.397-1.595 0-.76-.319-1.441-1.254-1.441-.199 0-.363.021-.474.055v2.948zm6.776 3.62c-.231.121-.595.198-1.057.198-1.452 0-2.486-1.167-2.486-3.686 0-2.927 1.452-3.862 2.618-3.862.451 0 .771.088.925.188l-.188.715a1.62 1.62 0 0 0-.748-.154c-.792 0-1.717.771-1.717 3.037s.836 3.015 1.738 3.015c.319 0 .605-.077.781-.165l.134.714zm.868-7.173c.362-.1.804-.144 1.222-.144.736 0 1.287.154 1.672.528.363.374.518.869.518 1.452 0 .946-.441 1.562-1.189 1.903v.021c.551.165.837.693 1.002 1.662.165 1.022.318 1.649.418 1.881h-.858c-.11-.22-.253-.924-.396-1.837-.166-1.013-.484-1.397-1.211-1.397h-.33v3.234h-.847v-7.303zm.847 3.421h.353c.813 0 1.353-.594 1.353-1.485 0-.857-.352-1.386-1.265-1.396-.165 0-.33.011-.44.044v2.837zm3.652-3.531h2.827v.737h-1.979v2.596h1.848v.716h-1.848v3.366h-.848v-7.415zm67.407-56.606h-1.859v2.783h2.111v.737h-2.959V46.77h2.827v.737h-1.979v2.442h1.859v.715zm1.593-1.805l.495 1.145c.132.309.231.616.353.936h.021c.121-.342.242-.649.352-.936l.484-1.145h.869l-1.265 2.63 1.254 2.695h-.924l-.507-1.199c-.121-.286-.219-.562-.352-.913h-.021c-.11.319-.231.605-.353.913l-.495 1.199h-.857l1.265-2.674-1.232-2.651h.913zm4.467-1.408v1.408h1.022v.649h-1.022v3.157c0 .693.252.881.561.881.132 0 .242-.012.341-.033l.033.648a1.833 1.833 0 0 1-.628.089c-.329 0-.627-.089-.836-.319-.209-.242-.318-.605-.318-1.343v-3.08h-.649v-.649h.649v-1.166l.847-.242zm2.276 4.149c.012 1.628.65 1.979 1.266 1.979.363 0 .672-.088.881-.209l.131.627c-.297.165-.748.254-1.166.254-1.275 0-1.936-1.046-1.936-2.674 0-1.728.727-2.806 1.793-2.806 1.09 0 1.518 1.145 1.518 2.354 0 .198 0 .341-.01.474h-2.477zm1.672-.628c.022-1.066-.385-1.54-.792-1.54-.551 0-.836.814-.869 1.54h1.661zm1.716-.737c0-.451-.033-.979-.044-1.376h.759l.045.837h.021c.176-.507.627-.925 1.122-.925.065 0 .121.012.177.012v.869c-.056-.012-.111-.012-.177-.012-.539 0-.935.495-1.022 1.111a3.259 3.259 0 0 0-.033.484v2.948h-.848v-3.948zm2.739 0c0-.628-.033-.946-.043-1.376h.736l.044.639h.022c.23-.43.66-.727 1.221-.727.737 0 1.287.551 1.287 1.838v3.575h-.847v-3.433c0-.627-.121-1.265-.737-1.265-.352 0-.693.297-.803.869a2.988 2.988 0 0 0-.033.473v3.355h-.848v-3.948zm6.556 3.95l-.055-.562h-.033c-.23.407-.605.649-1.057.649-.715 0-1.265-.604-1.265-1.519 0-1.331 1.067-1.925 2.267-1.936v-.165c0-.716-.176-1.21-.848-1.21-.33 0-.627.109-.88.274l-.187-.594c.219-.165.715-.353 1.242-.353 1.067 0 1.529.704 1.529 1.903v2.3c0 .407 0 .869.055 1.21h-.768zm-.121-2.75c-.439 0-1.463.076-1.463 1.231 0 .693.352.946.648.946.375 0 .693-.274.793-.803.021-.1.021-.209.021-.297v-1.077zm2.024-4.864h.848v7.613h-.848v-7.613zm-26.179 18.614V57.77h.804l1.363 3.477c.309.792.693 1.782.946 2.585h.022a55.778 55.778 0 0 1-.1-3.41V57.77h.76v7.415h-.804l-1.408-3.564a26.597 26.597 0 0 1-.88-2.52h-.021c.065.99.088 1.937.088 3.521v2.563h-.77zm5.598-2.585c.012 1.628.649 1.979 1.266 1.979.363 0 .671-.088.88-.209l.132.627c-.297.165-.748.254-1.166.254-1.276 0-1.936-1.046-1.936-2.674 0-1.728.726-2.806 1.793-2.806 1.089 0 1.518 1.145 1.518 2.354 0 .198 0 .341-.011.474h-2.476zm1.672-.628c.022-1.066-.385-1.54-.791-1.54-.551 0-.836.814-.869 1.54h1.66zm2.762-3.521v1.408h1.023v.649h-1.023v3.157c0 .693.253.881.561.881.133 0 .242-.012.342-.033l.033.648a1.83 1.83 0 0 1-.627.089c-.33 0-.628-.089-.837-.319-.209-.242-.319-.605-.319-1.343v-3.08h-.648v-.649h.648v-1.166l.847-.242zm2.309 1.408l.518 2.607c.1.572.221 1.145.286 1.694h.044c.077-.55.209-1.166.33-1.672l.616-2.63h.649l.582 2.553c.133.594.254 1.155.342 1.749h.044c.065-.561.165-1.111.286-1.716l.506-2.586h.848l-1.343 5.325h-.692l-.617-2.585a15.04 15.04 0 0 1-.297-1.596h-.021a16.613 16.613 0 0 1-.309 1.628l-.638 2.553h-.715l-1.298-5.325h.879zm8.922 2.663c0 2.057-.957 2.75-1.771 2.75-.957 0-1.728-.869-1.728-2.739 0-1.947.869-2.762 1.783-2.762.946 0 1.716.892 1.716 2.751zm-2.651 0c0 .88.154 2.079.924 2.079.727 0 .869-1.254.869-2.079 0-.814-.143-2.068-.891-2.068-.759 0-.902 1.254-.902 2.068zm3.586-1.287c0-.451-.033-.979-.045-1.376h.76l.044.837h.022c.176-.507.627-.925 1.121-.925.066 0 .121.012.177.012v.869c-.056-.012-.11-.012-.177-.012-.539 0-.935.495-1.022 1.111a3.259 3.259 0 0 0-.033.484v2.948h-.847v-3.948zm3.574 1.1h.021c.1-.209.188-.418.287-.594l1.056-1.882h.913l-1.408 2.245 1.529 3.08h-.946l-1.155-2.509-.297.495v2.014h-.848v-7.613h.848v4.764z"/><g fill="none" stroke="#000" stroke-miterlimit="3.864" clip-rule="evenodd"><path stroke-width=".5" d="M31.624 93.623l-4.938-8.709 5.117-2.154-3.366-5.162 3.187-1.75-2.332-2.422 2.511-1.349-1.846-2.49 1.921-.931-1.4-1.722 1.418-.887-1.494-1.906"/><path stroke-width=".5" d="M31.999 64.741l-1.427.913 1.324 1.954-1.687.593 1.872 1.888-2.504 1.109 2.112 2.644-2.579 1.467 2.356 2.996-3.829 2.009 3.863 6.99-5.8 2.1m5.924 4.219l5.218-8.543-5.043-2.32 4.026-5.078-3.621-1.826 2.491-2.479-2.549-1.295 1.934-2.353-1.896-1.069 1.469-1.49-1.402-1.118 1.555-1.856"/><path stroke-width=".5" d="M32.191 64.744l1.557 1.289-1.547 1.579 1.784.837-1.809 1.55 2.424 1.484-2.398 2.367 3.092 1.612-3.014 2.856 3.762 2.133-4.09 6.86 5.732 2.288m-7.429-31.527l1.818.808m-1.818.808l1.818.808m-1.818.808l1.818.808m-1.818.808l1.818.808m0-4.848l1.749-.875m-1.749 2.491l1.749-.875m-1.749 2.491l1.749-.875m-1.749 2.491l1.749-.875"/><path d="M32.027 56.254v9.18l-.403 28.189"/><path d="M38.357 89.404l-6.733 4.219-5.924-4.219 4.577-23.611v-9.337h3.59"/><path d="M31.624 93.623l6.733-4.281-4.49-23.953-.045-9.295"/></g><g fill="none" stroke="#000" stroke-miterlimit="3.864" clip-rule="evenodd"><path stroke-width=".5" d="M62.418 75.902l-4.938-8.709 5.117-2.154-3.366-5.162 3.187-1.75-2.331-2.422 2.51-1.349-1.846-2.49 1.921-.931-1.4-1.722 1.418-.887-1.493-1.906"/><path stroke-width=".5" d="M62.793 47.02l-1.427.914 1.324 1.953-1.687.593 1.872 1.888-2.503 1.109 2.111 2.645-2.579 1.466 2.357 2.996-3.829 2.01 3.862 6.99-5.8 2.099m5.924 4.219l5.219-8.543-5.044-2.32 4.027-5.078-3.622-1.826 2.491-2.479-2.548-1.295 1.933-2.353-1.895-1.069 1.468-1.49-1.402-1.118 1.555-1.856"/><path stroke-width=".5" d="M62.985 47.023l1.557 1.289-1.547 1.58 1.785.837-1.81 1.55 2.425 1.483-2.398 2.367 3.091 1.612-3.014 2.856 3.763 2.133-4.091 6.86 5.732 2.288m-7.429-31.526l1.818.808m-1.818.807l1.818.808m-1.818.808l1.818.809m-1.818.807l1.818.808m0-4.847l1.75-.876m-1.75 2.491l1.75-.875m-1.75 2.492l1.75-.876m-1.75 2.491l1.75-.875"/><path d="M62.821 38.534v9.179l-.403 28.189"/><path d="M69.151 71.683l-6.733 4.219-5.924-4.219 4.577-23.611v-9.337h3.591"/><path d="M62.418 75.902l6.733-4.28-4.489-23.954-.045-9.294"/></g><g fill="none" stroke="#000" stroke-miterlimit="3.864" clip-rule="evenodd"><path stroke-width=".5" d="M62.215 111.343l-4.938-8.709 5.117-2.154-3.366-5.162 3.187-1.75-2.331-2.422 2.51-1.348-1.846-2.49 1.921-.931-1.4-1.723 1.418-.886-1.493-1.907"/><path stroke-width=".5" d="M62.59 82.461l-1.427.914 1.324 1.954-1.687.593 1.872 1.888-2.504 1.109 2.112 2.644-2.579 1.467 2.357 2.996-3.829 2.009 3.862 6.99-5.8 2.099m5.924 4.219l5.219-8.542-5.044-2.321 4.026-5.077-3.621-1.826 2.491-2.479-2.548-1.295 1.933-2.354-1.896-1.069 1.469-1.489-1.402-1.119 1.555-1.856"/><path stroke-width=".5" d="M62.782 82.465l1.557 1.289-1.547 1.579 1.785.837-1.81 1.55 2.424 1.484-2.398 2.367 3.092 1.612-3.014 2.856 3.763 2.133-4.091 6.859 5.732 2.288m-7.429-31.526l1.818.808m-1.818.808l1.818.808m-1.818.807l1.818.809m-1.818.808l1.818.808m0-4.848l1.75-.875m-1.75 2.491l1.75-.875m-1.75 2.491l1.75-.876m-1.75 2.492l1.75-.876"/><path d="M62.618 73.975v9.18l-.403 28.188"/><path d="M68.948 107.124l-6.733 4.219-5.924-4.219 4.577-23.611v-9.336h3.591"/><path d="M62.215 111.343l6.733-4.28-4.489-23.953-.045-9.295"/></g></svg>