<svg xmlns="http://www.w3.org/2000/svg" viewBox="0 0 321.363 99.696"><g clip-rule="evenodd"><path fill="none" stroke="#000" stroke-miterlimit="10" d="M24.613 68.764h296.75"/><path fill="#f7931e" fill-rule="evenodd" d="M84.613 80.73h30v6.083h-30zm49.667-.034h30v6.083h-30zm49.666-.034h29.999v6.083h-29.999zm49.667.898h29.998v5.151h-29.998zm49.666-.029h29.998v5.151h-29.998z"/><path fill="none" stroke="#000" stroke-miterlimit="10" d="M24.613 50.681h296.75M24.613 32.597h296.75M24.613 14.514h296.75"/><path fill="#c1272d" fill-rule="evenodd" d="M34.947 68.285h30V80.16h-30z"/><path fill="#0071bc" fill-rule="evenodd" d="M34.947 67.66h30v.665h-30z"/><path fill="#b2d4eb" fill-rule="evenodd" d="M34.947 66.995h30v.665h-30z"/><path fill="#c1272d" fill-rule="evenodd" d="M84.613 61.431h30V80.16h-30z"/><path fill="#0071bc" fill-rule="evenodd" d="M84.613 59.514h30v1.209h-30z"/><path fill="#b2d4eb" fill-rule="evenodd" d="M84.613 58.848h30v.666h-30z"/><path fill="#c1272d" fill-rule="evenodd" d="M134.28 55.056h30V80.16h-30z"/><path fill="#0071bc" fill-rule="evenodd" d="M134.28 52.004h30v2.438h-30z"/><path fill="#c1272d" fill-rule="evenodd" d="M183.946 47.66h30v32.5h-30z"/><path fill="#0071bc" fill-rule="evenodd" d="M183.946 42.535h30v4.375h-30z"/><path fill="#c1272d" fill-rule="evenodd" d="M233.613 38.285h30v42.376h-30z"/><path fill="#0071bc" fill-rule="evenodd" d="M233.613 30.098h30v7.312h-30z"/><path fill="#c1272d" fill-rule="evenodd" d="M283.278 29.473h30v51.189h-30z"/><path fill="#0071bc" fill-rule="evenodd" d="M283.278 18.16h30v10.438h-30z"/><path fill="#f7931e" fill-rule="evenodd" d="M34.947 80.764h30v6.083h-30z"/><path fill="none" stroke="#000" stroke-miterlimit="10" d="M24.613 86.848h296.75"/></g><path d="M21.37 86.589c0 1.895-.6 2.67-1.351 2.67-.808 0-1.295-.959-1.295-2.654 0-1.751.52-2.67 1.367-2.67.839 0 1.279.999 1.279 2.654zm-2.031.008c0 1.256.216 2.135.728 2.135.488 0 .688-.888.688-2.135 0-1.215-.2-2.135-.695-2.135-.497 0-.721.888-.721 2.135zm24.704 11.099v-.399l.44-.6c.616-.855 1.351-1.831 1.351-2.807 0-.576-.256-.928-.744-.928-.375 0-.616.2-.751.288l-.152-.464a1.624 1.624 0 0 1 1.015-.352c.864 0 1.239.64 1.239 1.423 0 .976-.64 1.919-1.279 2.799l-.352.479v.016h1.735v.544h-2.502zm5.687-2.606c0 1.895-.6 2.67-1.351 2.67-.808 0-1.295-.959-1.295-2.654 0-1.751.52-2.67 1.367-2.67.839 0 1.279.999 1.279 2.654zm-2.031.008c0 1.256.216 2.135.728 2.135.488 0 .688-.888.688-2.135 0-1.215-.2-2.135-.695-2.135s-.721.888-.721 2.135zm3.751-1.975h-.016l-.864.495-.12-.479 1.095-.64h.512v5.197h-.607v-4.573zm1.833 4.573v-.399l.44-.6c.615-.855 1.351-1.831 1.351-2.807 0-.576-.256-.928-.744-.928-.376 0-.616.2-.751.288l-.152-.464a1.624 1.624 0 0 1 1.015-.352c.864 0 1.24.64 1.24 1.423 0 .976-.64 1.919-1.279 2.799l-.352.479v.016h1.735v.544h-2.503zM1.387 78.981a3.794 3.794 0 0 1-.104-.903c0-.488.104-.903.376-1.191.216-.232.535-.352.919-.352.552 0 .992.304 1.2.832h.016c.168-.624.672-1 1.375-1 .448 0 .808.144 1.071.384.344.304.488.808.488 1.423 0 .399-.024.64-.057.807H1.387zm2.207-.616v-.28a.925.925 0 0 0-.951-.935c-.496 0-.88.232-.88.887 0 .144.017.256.04.328h1.791zm2.615 0c.016-.072.031-.176.031-.312 0-.64-.375-1.055-1.071-1.055-.743 0-1.095.52-1.104 1.095v.272h2.144zm-4.382-3.352c.239-.008.399.144.399.375 0 .2-.16.352-.399.352-.24 0-.4-.16-.4-.36 0-.223.16-.367.4-.367zm4.869.664h-3.87v-.616h3.87v.616zm-5.533-1.472v-.616h5.533v.616H1.163zm0-1.528v-.616h5.533v.616H1.163zm.664-2.191c.239-.008.399.144.399.375 0 .2-.16.352-.399.352-.24 0-.4-.16-.4-.36 0-.224.16-.367.4-.367zm4.869.663h-3.87v-.616h3.87v.616zm-1.934-3.847c1.495 0 1.998.696 1.998 1.288 0 .695-.631 1.255-1.99 1.255-1.415 0-2.007-.632-2.007-1.295 0-.688.647-1.248 1.999-1.248zm0 1.928c.64 0 1.511-.112 1.511-.672 0-.527-.911-.631-1.511-.631-.592 0-1.504.104-1.504.647 0 .552.912.656 1.504.656zm-.936-2.617c-.456 0-.688.024-1 .032v-.536l.464-.032v-.016a.982.982 0 0 1-.527-.888c0-.536.399-.936 1.335-.936h2.599v.616H4.201c-.455 0-.919.088-.919.536 0 .256.216.504.632.584.096.016.216.024.344.024h2.438v.616h-2.87zm2.231-3.136c.088-.136.2-.376.2-.624 0-.352-.216-.567-.56-.567-.296 0-.496.104-.76.496-.328.504-.656.775-1.104.775-.624 0-1.071-.463-1.071-1.063 0-.304.104-.536.199-.695l.464.168a.91.91 0 0 0-.168.512c0 .336.24.503.488.503.264 0 .407-.096.672-.479.287-.448.64-.8 1.175-.8.775 0 1.151.528 1.151 1.16 0 .288-.088.6-.224.768l-.462-.154zm-1.295-6.046c1.495 0 1.998.696 1.998 1.288 0 .695-.631 1.255-1.99 1.255-1.415 0-2.007-.632-2.007-1.295 0-.688.647-1.248 1.999-1.248zm0 1.927c.64 0 1.511-.112 1.511-.672 0-.528-.911-.631-1.511-.631-.592 0-1.504.104-1.504.647 0 .552.912.656 1.504.656zm1.934-2.745H3.298v.488h-.472v-.488h-.231c-.416 0-.848-.064-1.168-.344a1.05 1.05 0 0 1-.327-.775c0-.208.04-.368.096-.479l.479.104a.8.8 0 0 0-.063.335c0 .44.472.544.976.544h.239v-.704h.472v.704h3.398v.615zm-.639-2.847c.088-.136.2-.376.2-.624 0-.352-.216-.567-.56-.567-.296 0-.496.104-.76.496-.328.504-.656.775-1.104.775-.624 0-1.071-.463-1.071-1.063 0-.304.104-.536.199-.696l.464.168a.91.91 0 0 0-.168.512c0 .335.24.503.488.503.264 0 .407-.096.672-.479.287-.448.64-.8 1.175-.8.775 0 1.151.528 1.151 1.16 0 .288-.088.6-.224.768l-.462-.153zm-.416-4.735c.432 0 .768-.024 1.056-.032v.536l-.408.04v.016c.192.12.472.416.472.832 0 .68-.527.943-1.486.943H2.826v-.616h2.359c.607 0 1.055-.096 1.055-.52 0-.36-.336-.52-.512-.552a1.599 1.599 0 0 0-.352-.032h-2.55v-.616h2.815zm1.055-.825c-.224-.008-.664-.032-.928-.032H1.163v-.616h2.119v-.016c-.384-.2-.52-.488-.52-.816 0-.6.695-1.055 1.959-1.055 1.399 0 2.038.576 2.038 1.175 0 .408-.239.616-.567.768v.024l.504.04v.528zm-1.367-.648c.088 0 .176 0 .24-.024.575-.144.679-.408.679-.576 0-.496-.671-.671-1.495-.671-.775 0-1.463.184-1.463.679 0 .288.36.528.688.576.088.016.185.016.272.016h1.079zm.728-2.48c.088-.136.2-.376.2-.624 0-.352-.216-.567-.56-.567-.296 0-.496.104-.76.496-.328.504-.656.775-1.104.775-.624 0-1.071-.463-1.071-1.063 0-.304.104-.536.199-.695l.464.168a.91.91 0 0 0-.168.512c0 .336.24.503.488.503.264 0 .407-.096.672-.479.287-.448.64-.8 1.175-.8.775 0 1.151.528 1.151 1.16 0 .288-.088.6-.224.768l-.462-.154zm.544-4.303c.08.136.144.368.144.64 0 .848-.68 1.416-1.959 1.416-1.111 0-2.015-.56-2.015-1.527 0-.208.056-.432.12-.544l.504.12c-.04.08-.104.24-.104.44 0 .616.735.896 1.495.896.903 0 1.447-.344 1.447-.912 0-.168-.04-.304-.104-.448l.472-.081zm-2.775-.521c-.328 0-.712.024-1 .032v-.552l.607-.032v-.016c-.367-.128-.671-.456-.671-.816 0-.048.008-.088.008-.128h.632c-.008.04-.008.08-.008.128 0 .392.359.68.807.744.104.016.225.024.353.024h2.143v.616H3.826zm-1.999-2.655c.239-.008.399.144.399.375 0 .2-.16.352-.399.352-.24 0-.4-.16-.4-.36 0-.224.16-.367.4-.367zm4.869.663h-3.87v-.616h3.87v.616zm-2.662-1.464c-.592 0-.936.024-1.208.032v-.552l.496-.032v-.016c-.416-.208-.56-.512-.56-.816 0-.671.72-1.119 1.99-1.119 1.432 0 2.007.591 2.007 1.199 0 .36-.231.568-.447.671v.016h1.919v.616H4.034zm1.239-.616c.119 0 .231 0 .319-.024.552-.12.655-.4.655-.567 0-.512-.703-.672-1.486-.672-.8 0-1.472.192-1.472.68 0 .28.352.528.704.567.096.016.191.016.296.016h.984zm-3.47-3.335h1.023v-.744h.472v.744h2.295c.504 0 .64-.184.64-.408 0-.096-.008-.176-.023-.248l.472-.024c.04.112.063.256.063.456 0 .24-.063.456-.231.608-.176.152-.44.231-.976.231h-2.24v.472h-.472v-.472h-.847l-.176-.615zm.024-1.952c.239-.008.399.144.399.375 0 .2-.16.352-.399.352-.24 0-.4-.16-.4-.36 0-.223.16-.367.4-.367zm4.869.664h-3.87v-.616h3.87v.616zm-1.934-3.848c1.495 0 1.998.696 1.998 1.288 0 .695-.631 1.255-1.99 1.255-1.415 0-2.007-.632-2.007-1.295 0-.687.647-1.248 1.999-1.248zm0 1.928c.64 0 1.511-.112 1.511-.672 0-.527-.911-.631-1.511-.631-.592 0-1.504.104-1.504.647 0 .552.912.656 1.504.656zm-.936-2.616c-.456 0-.688.024-1 .032v-.536l.464-.032v-.016a.982.982 0 0 1-.527-.888c0-.536.399-.936 1.335-.936h2.599v.616H4.201c-.455 0-.919.088-.919.536 0 .256.216.504.632.584.096.016.216.024.344.024h2.438v.616h-2.87zm2.231-3.137c.088-.136.2-.376.2-.624 0-.352-.216-.567-.56-.567-.296 0-.496.104-.76.496-.328.504-.656.775-1.104.775-.624 0-1.071-.463-1.071-1.063 0-.304.104-.536.199-.695l.464.168a.91.91 0 0 0-.168.512c0 .336.24.503.488.503.264 0 .407-.096.672-.479.287-.448.64-.8 1.175-.8.775 0 1.151.528 1.151 1.16 0 .288-.088.6-.224.768l-.462-.154zm87.652 73.776v-.399l.44-.6c.616-.855 1.351-1.831 1.351-2.807 0-.576-.256-.928-.744-.928-.375 0-.616.2-.751.288l-.152-.464a1.624 1.624 0 0 1 1.015-.352c.864 0 1.239.64 1.239 1.423 0 .976-.64 1.919-1.279 2.799l-.352.479v.016h1.735v.544h-2.502zm5.687-2.606c0 1.895-.6 2.67-1.351 2.67-.808 0-1.295-.959-1.295-2.654 0-1.751.52-2.67 1.367-2.67.84-.001 1.279.998 1.279 2.654zm-2.031.008c0 1.256.216 2.135.728 2.135.488 0 .688-.888.688-2.135 0-1.215-.2-2.135-.695-2.135s-.721.887-.721 2.135zm3.752-1.975h-.016l-.864.495-.12-.479 1.095-.64h.512v5.197h-.608v-4.573zm1.936 3.909c.16.097.439.216.751.216.536 0 .896-.392.896-1.039 0-.68-.424-1.071-1.047-1.071h-.144v-.464h.12c.368-.008.936-.288.936-.928 0-.52-.28-.799-.688-.799-.256 0-.479.128-.647.247l-.136-.463c.192-.152.543-.296.936-.296.735 0 1.151.527 1.151 1.199 0 .52-.272.976-.776 1.215v.017c.464.128.912.543.912 1.358 0 .848-.544 1.535-1.487 1.535-.336 0-.704-.096-.911-.239l.134-.488zm40.323.63v-.399l.44-.6c.616-.855 1.351-1.831 1.351-2.807 0-.576-.256-.928-.744-.928-.375 0-.616.2-.751.288l-.152-.464a1.624 1.624 0 0 1 1.015-.352c.864 0 1.239.64 1.239 1.423 0 .976-.64 1.919-1.279 2.799l-.352.479v.016h1.735v.544h-2.502zm5.687-2.606c0 1.895-.6 2.67-1.351 2.67-.808 0-1.295-.959-1.295-2.654 0-1.751.52-2.67 1.367-2.67.839-.001 1.279.998 1.279 2.654zm-2.031.007c0 1.256.216 2.135.728 2.135.488 0 .688-.888.688-2.135 0-1.215-.2-2.135-.695-2.135s-.721.888-.721 2.135zm3.751-1.974h-.016l-.864.495-.12-.479 1.095-.64h.512v5.197h-.608v-4.573zm3.447 4.573v-1.432h-1.727v-.415l1.688-3.351h.6v3.263h.567v.503h-.567v1.432h-.561zm0-1.935v-1.472c0-.359.024-.68.049-1.023h-.032c-.177.416-.288.664-.44.983l-.719 1.495v.017h1.142zm38.813 1.901v-.399l.439-.6c.615-.855 1.352-1.831 1.352-2.807 0-.576-.256-.928-.744-.928-.375 0-.615.2-.752.288l-.151-.464a1.627 1.627 0 0 1 1.015-.352c.864 0 1.24.64 1.24 1.423 0 .976-.641 1.919-1.279 2.799l-.352.479v.016h1.734v.544h-2.502zm5.686-2.607c0 1.895-.6 2.67-1.351 2.67-.808 0-1.296-.959-1.296-2.654 0-1.751.52-2.67 1.367-2.67.84 0 1.28.999 1.28 2.654zm-2.031.008c0 1.256.216 2.135.728 2.135.488 0 .688-.888.688-2.135 0-1.215-.199-2.135-.695-2.135s-.721.888-.721 2.135zm3.751-1.974h-.016l-.863.495-.119-.479 1.095-.64h.512v5.197h-.608v-4.573zm4.24-.081h-1.4l-.215 1.383c.063-.016.119-.016.191-.016.279 0 .711.12.992.392.271.272.432.655.432 1.184 0 1.031-.648 1.774-1.576 1.774-.312 0-.672-.088-.879-.224l.136-.495c.16.096.44.207.728.207.527 0 .983-.407.983-1.199 0-.823-.503-1.167-1.175-1.167-.192 0-.312.008-.408.024l.328-2.407h1.863v.544zm38.02 4.62v-.4l.439-.6c.616-.855 1.352-1.831 1.352-2.807 0-.576-.256-.928-.744-.928-.375 0-.615.2-.751.288l-.151-.464a1.624 1.624 0 0 1 1.015-.352c.864 0 1.239.64 1.239 1.423 0 .976-.64 1.919-1.279 2.799l-.352.481v.016h1.734v.544h-2.502zm5.687-2.607c0 1.895-.6 2.67-1.351 2.67-.809 0-1.296-.959-1.296-2.654 0-1.751.52-2.67 1.367-2.67.84 0 1.28.999 1.28 2.654zm-2.031.008c0 1.256.215 2.135.727 2.135.488 0 .688-.888.688-2.135 0-1.215-.199-2.135-.695-2.135-.496 0-.72.888-.72 2.135zm3.751-1.975h-.016l-.864.495-.119-.479 1.096-.64h.512v5.197h-.608v-4.573zm4.128-.168a2.626 2.626 0 0 0-.369.056c-.863.208-1.207 1.071-1.334 1.871h.023c.199-.296.488-.496.879-.496.664 0 1.12.608 1.12 1.6 0 .983-.448 1.774-1.279 1.774-.903 0-1.359-.919-1.359-2.11 0-1.008.264-1.791.671-2.343a2.143 2.143 0 0 1 1.256-.823c.168-.032.304-.04.393-.048v.519zm-.297 3.079c0-.783-.271-1.176-.695-1.176-.256 0-.52.177-.672.561a.851.851 0 0 0-.048.312c.009 1.063.336 1.551.752 1.551.352-.001.663-.345.663-1.248zm38.428 1.628v-.399l.44-.6c.616-.855 1.351-1.831 1.351-2.807 0-.576-.256-.928-.743-.928-.376 0-.616.2-.751.288l-.152-.464a1.625 1.625 0 0 1 1.016-.352c.863 0 1.238.64 1.238 1.423 0 .976-.639 1.919-1.279 2.799l-.352.479v.016h1.735v.544h-2.503zm5.688-2.606c0 1.895-.6 2.67-1.352 2.67-.808 0-1.295-.959-1.295-2.654 0-1.751.52-2.67 1.367-2.67.84 0 1.28.999 1.28 2.654zm-2.032.008c0 1.256.216 2.135.728 2.135.487 0 .688-.888.688-2.135 0-1.215-.2-2.135-.695-2.135s-.721.888-.721 2.135zm3.752-1.975h-.016l-.864.495-.12-.479 1.096-.64h.512v5.197h-.607v-4.573zm4.375-.624v.368l-1.68 4.829h-.6l1.647-4.638v-.016h-1.871v-.544h2.504zM15.379 66.539h-.016l-.864.495-.12-.479 1.095-.64h.512v5.197h-.607v-4.573zm1.968 4.174c0-.272.184-.464.408-.464.248 0 .408.184.408.464 0 .279-.152.463-.408.463-.232 0-.408-.184-.408-.463zm3.823-4.254h-1.399l-.216 1.383c.064-.016.12-.016.192-.016.28 0 .711.12.992.392.271.272.432.655.432 1.184 0 1.031-.647 1.774-1.575 1.774-.312 0-.672-.088-.879-.224l.136-.495c.16.096.44.207.728.207.528 0 .983-.407.983-1.199 0-.823-.503-1.167-1.175-1.167-.192 0-.312.008-.408.024l.328-2.407h1.863v.544zm-2.303-14.094c.16.097.439.216.751.216.536 0 .896-.392.896-1.039 0-.68-.424-1.071-1.047-1.071h-.144v-.464h.12c.368-.008.936-.288.936-.928 0-.52-.28-.799-.688-.799-.256 0-.479.128-.647.247l-.136-.463c.192-.152.543-.296.936-.296.735 0 1.151.527 1.151 1.199 0 .52-.272.976-.776 1.215v.017c.464.128.912.543.912 1.358 0 .848-.544 1.535-1.487 1.535-.336 0-.704-.096-.911-.239l.134-.488zm-3.12-17.42v-1.432H14.02v-.415l1.687-3.351h.6v3.263h.568v.503h-.568v1.432h-.56zm0-1.934v-1.472c0-.359.024-.68.048-1.023h-.032c-.176.416-.288.664-.44.983l-.72 1.495v.017h1.144zm1.6 1.535c0-.272.184-.464.408-.464.248 0 .408.184.408.464 0 .279-.152.463-.408.463-.232 0-.408-.184-.408-.463zm3.823-4.254h-1.399l-.216 1.383c.064-.016.12-.016.192-.016.28 0 .711.12.992.392.271.272.432.655.432 1.184 0 1.031-.647 1.774-1.575 1.774-.312 0-.672-.088-.879-.224l.136-.495c.16.096.44.207.728.207.528 0 .983-.407.983-1.199 0-.823-.503-1.167-1.175-1.167-.192 0-.312.008-.408.024l.328-2.407h1.863v.544zm-.112-18.171a2.615 2.615 0 0 0-.368.056c-.863.208-1.207 1.071-1.335 1.871h.024c.2-.296.488-.496.879-.496.664 0 1.12.608 1.12 1.6 0 .983-.448 1.774-1.279 1.774-.904 0-1.359-.919-1.359-2.11 0-1.008.264-1.791.671-2.343a2.14 2.14 0 0 1 1.255-.823c.168-.032.304-.04.392-.048v.519zm-.296 3.078c0-.783-.272-1.176-.696-1.176-.256 0-.52.177-.671.561a.83.83 0 0 0-.048.312c.008 1.063.336 1.551.752 1.551.351-.001.663-.344.663-1.248zm14.281-8.598c-.168.088-.432.144-.768.144-1.056 0-1.807-.848-1.807-2.679 0-2.127 1.055-2.806 1.903-2.806.328 0 .56.063.672.136l-.136.52a1.177 1.177 0 0 0-.543-.112c-.576 0-1.248.56-1.248 2.207s.608 2.19 1.264 2.19c.232 0 .439-.056.567-.119l.096.519zm.633-5.214c.24-.071.52-.104.832-.104.567 0 .967.144 1.263.408.416.359.728 1.055.728 2.183 0 1.231-.304 1.902-.648 2.271-.352.399-.863.584-1.487.584-.248 0-.504-.017-.688-.057V1.387zm.616 4.805c.088.017.176.017.232.017.68 0 1.335-.488 1.335-2.319 0-1.359-.416-2.103-1.279-2.103-.096 0-.208.008-.288.032v4.373zm6.206-1.814c-.04-.712-.08-1.504-.056-2.111h-.032c-.12.6-.264 1.239-.432 1.871l-.664 2.526h-.392l-.632-2.423a24.205 24.205 0 0 1-.44-1.975h-.024c0 .632-.032 1.384-.064 2.151l-.102 2.279h-.551l.319-5.389h.664l.631 2.462c.184.712.32 1.239.432 1.855h.024c.104-.616.224-1.128.399-1.855l.608-2.462h.688l.312 5.389h-.576l-.112-2.318zm2.122.703l-.36 1.615h-.592l1.231-5.389h.68l1.199 5.389h-.607l-.36-1.615H44.62zm1.111-.495l-.28-1.368c-.08-.384-.152-.831-.216-1.23h-.032c-.064.407-.144.871-.216 1.23l-.28 1.368h1.024z"/><path fill="#f7931e" fill-rule="evenodd" d="M24.613 1.348h6v6h-6z" clip-rule="evenodd"/><path d="M63.308 1.308v2.311h1.511V1.308h.616v5.389h-.616V4.178h-1.511v2.519h-.615V1.308h.615zm2.968 4.676c.184.121.504.216.776.216.56 0 .896-.367.896-.911 0-.496-.288-.8-.711-1.119-.424-.296-1.016-.8-1.016-1.495 0-.815.568-1.415 1.423-1.415.336 0 .632.104.76.199l-.152.528a1.117 1.117 0 0 0-.64-.185c-.527 0-.775.4-.775.768 0 .536.28.744.792 1.111.648.456.936.952.936 1.552 0 .927-.656 1.511-1.511 1.511-.368 0-.759-.12-.911-.231l.133-.529zm3.008-4.597c.248-.063.543-.104.896-.104.496 0 .911.12 1.191.399.264.256.4.648.4 1.112 0 .495-.12.831-.328 1.103-.296.4-.792.6-1.271.6-.104 0-.184 0-.272-.008v2.207h-.615V1.387zm.615 2.583c.072.016.136.024.24.024.607 0 1.015-.4 1.015-1.16 0-.551-.232-1.047-.912-1.047-.144 0-.264.016-.344.04V3.97zm2.768 1.111l-.36 1.615h-.592l1.231-5.389h.68l1.199 5.389h-.607l-.36-1.615h-1.191zm1.112-.495l-.28-1.368c-.08-.384-.152-.831-.216-1.23h-.032c-.064.407-.144.871-.216 1.23l-.28 1.368h1.024zm3.848-2.144v1.903h1.839v.432h-1.839v1.919h-.448V4.777H75.34v-.431h1.839V2.442h.448z"/><path fill="#c1272d" fill-rule="evenodd" d="M54.613 1.348h6v6h-6z" clip-rule="evenodd"/><path d="M92.692 1.308h.615v4.869h1.52v.52h-2.135V1.308zm2.848.551h-.983v-.551h2.583v.552h-.983v4.837h-.617V1.859zm4.167 2.279h-1.352V6.16h1.535v.536h-2.15V1.308h2.055v.535h-1.439v1.775h1.352v.52z"/><path fill="#0071bc" fill-rule="evenodd" d="M84.613 1.348h6v6h-6z" clip-rule="evenodd"/></svg>