<svg xmlns="http://www.w3.org/2000/svg" viewBox="0 0 319.986 169.726"><path fill="none" stroke="#c1272d" stroke-miterlimit="10" d="M144.038 50.703s25 16.422 23 54.893" stroke-dasharray="1 1"/><path fill="#b2d4eb" fill-rule="evenodd" d="M101.63 94.498c-6.186 1.771-12.332.466-16.912-3-2.697 3.155-5.896 5.331-10.088 6.525-10.836 3.092-20.793-.483-23.175-11.349a21.172 21.172 0 0 1-6.417 3.068c-10.825 3.092-22.08-3.434-24.462-14.303-9.425.831-18.007-5.205-20.104-14.788-2.38-10.867 4.471-22.184 15.296-25.271a20.02 20.02 0 0 1 7.264-.711c-2.38-10.861 4.604-19.398 15.435-22.492 4.343-1.235 8.086-1.677 11.861-.204C52.996 6.709 57.77 2.491 63.752.784 74.578-2.303 85.281 4 87.666 14.867c1.112-.547 2.048-.58 3.269-.933 10.83-3.09 21.537 3.211 23.916 14.081 9.387-.775 18.557 5.463 20.647 15.012 2.385 10.865-7.734 23.111-18.561 26.205 2.377 10.862-4.471 22.179-15.307 25.266z" clip-rule="evenodd" mask="url(#b)"/><path fill="#ccc" d="M58.774 68.945v1.309L37.629 58.14v-1.307z"/><path fill="gray" d="M58.774 68.945l14.73-8.379v1.309l-14.73 8.38z"/><path fill="#fff" d="M37.629 56.835l14.709-8.429 21.166 12.16-14.73 8.379z"/><path fill="#999" d="M75.553 41.558l.988-.562-2.06 18.964-.99.565zM60.604 65.662v.254L42.731 55.678v-.253z"/><path fill="#b3b3b3" d="M60.604 65.662l10.123-5.76v.255l-10.123 5.761z"/><path fill="#e6e6e6" d="M42.731 55.427l10.107-5.801 17.889 10.276-10.123 5.76zm2.57 5.476l2.903-1.666 5.134 2.95-2.906 1.654zm30.252-19.345l-2.062 18.965-21.145-12.112 2.061-18.964z"/><path fill="#0071bc" d="M72.649 59.068L53.19 47.921l2.06-17.02 19.46 11.145-2.061 17.022z"/><path fill="#b3b3b3" d="M54.407 29.448l.97-.611 21.164 12.159-.988.562z"/><path fill="none" stroke="#000" d="M74.481 59.96l2.06-18.964-21.164-12.159-.968.61h-.002L52.346 48.41l-.008-.004-14.707 8.427h-.002v1.307l21.145 12.114v.001l14.73-8.38v-1.309l-.013-.043v.002z" stroke-linecap="round" stroke-linejoin="round"/><path fill="#b2dec7" fill-rule="evenodd" d="M108.932 105.595h93.806v19.235h-93.806z" clip-rule="evenodd"/><path fill="none" stroke="#000" d="M108.932 105.595h93.806v19.235h-93.806z" stroke-linecap="round" stroke-linejoin="round"/><path fill="#fff" fill-rule="evenodd" d="M127.351 75.279h79.602V90.09h-79.602z" clip-rule="evenodd"/><path fill="#b2dec7" fill-rule="evenodd" d="M108.932 124.831h59.572v19.235h-59.572z" clip-rule="evenodd"/><path fill="none" stroke="#000" d="M108.932 124.831h59.572v19.235h-59.572z" stroke-linecap="round" stroke-linejoin="round"/><path fill="#b2d4eb" fill-rule="evenodd" d="M202.738 105.595h93.806v19.235h-93.806z" clip-rule="evenodd"/><path fill="none" stroke="#000" d="M202.738 105.595h93.806v19.235h-93.806z" stroke-linecap="round" stroke-linejoin="round"/><path fill="#b2dec7" fill-rule="evenodd" d="M168.504 124.831h34.233v19.235h-34.233z" clip-rule="evenodd"/><path fill="none" stroke="#000" d="M168.504 124.831h34.233v19.235h-34.233z" stroke-linecap="round" stroke-linejoin="round"/><path fill="#fff" fill-rule="evenodd" d="M108.933 144.066h59.572v19.235h-59.572z" clip-rule="evenodd"/><path fill="none" stroke="#000" d="M108.933 144.066h59.572v19.235h-59.572z" stroke-linecap="round" stroke-linejoin="round"/><path fill="#fff" fill-rule="evenodd" d="M168.505 144.066h34.233v19.235h-34.233z" clip-rule="evenodd"/><path fill="none" stroke="#000" d="M168.505 144.066h34.233v19.235h-34.233z" stroke-linecap="round" stroke-linejoin="round"/><path fill="#b2d4eb" fill-rule="evenodd" d="M202.737 124.831h59.572v19.235h-59.572z" clip-rule="evenodd"/><path fill="none" stroke="#000" d="M202.737 124.831h59.572v19.235h-59.572z" stroke-linecap="round" stroke-linejoin="round"/><path fill="#b2d4eb" fill-rule="evenodd" d="M262.309 124.831h34.233v19.235h-34.233z" clip-rule="evenodd"/><path fill="none" stroke="#000" d="M262.309 124.831h34.233v19.235h-34.233z" stroke-linecap="round" stroke-linejoin="round"/><path fill="#fff" fill-rule="evenodd" d="M202.738 144.066h59.572v19.235h-59.572z" clip-rule="evenodd"/><path fill="none" stroke="#000" d="M202.738 144.066h59.572v19.235h-59.572z" stroke-linecap="round" stroke-linejoin="round"/><path fill="#fff" fill-rule="evenodd" d="M262.31 144.066h34.232v19.235H262.31z" clip-rule="evenodd"/><path fill="none" stroke="#000" d="M262.31 144.066h34.232v19.235H262.31z" stroke-linecap="round" stroke-linejoin="round"/><path fill="none" stroke="#000" d="M170.038 50.654h120.566"/><path d="M289.729 53.655l5.181-2.991-5.181-2.993zm-118.816-6.002l-5.182 2.991 5.182 2.992z"/><g fill="#fff" stroke="#000" stroke-miterlimit="10" stroke-linecap="round" stroke-linejoin="round"><path d="M152.155 40.894l-13.375 6.86h-25.342l13.141-6.86zm-38.717 6.86h25.342V59.33h-25.342z"/><path d="M152.155 52.469L138.78 59.33V47.754l13.375-6.86z"/></g><path fill="#ccc" d="M288.774 70.053v1.309l-21.145-12.113v-1.307z"/><path fill="gray" d="M288.774 70.053l14.73-8.379v1.309l-14.73 8.381z"/><path fill="#fff" d="M267.629 57.944l14.709-8.43 21.166 12.16-14.73 8.379z"/><path fill="#999" d="M305.553 42.667l.989-.563-2.061 18.965-.99.564zM290.604 66.77v.254l-17.873-10.237v-.253z"/><path fill="#b3b3b3" d="M290.604 66.77l10.123-5.76v.255l-10.123 5.761z"/><path fill="#e6e6e6" d="M272.731 56.536l10.107-5.801 17.889 10.275-10.123 5.76zm2.57 5.475l2.903-1.666 5.134 2.95-2.906 1.655zm30.252-19.344l-2.062 18.964-21.145-12.112 2.061-18.964z"/><path fill="#0071bc" d="M302.649 60.176L283.19 49.03l2.06-17.021 19.46 11.146-2.061 17.021z"/><path fill="#b3b3b3" d="M284.407 30.556l.971-.611 21.164 12.159-.989.563z"/><path fill="none" stroke="#000" d="M304.481 61.069l2.061-18.965-21.164-12.159-.969.61h-.002l-2.061 18.963-.008-.004-14.707 8.428h-.002v1.307l21.145 12.113v.002l14.73-8.381v-1.309l-.013-.043v.002z" stroke-linecap="round" stroke-linejoin="round"/><path fill="#c1272d" fill-rule="evenodd" d="M164.83 47.311l-2.229-2.228-3.343 3.342-3.343-3.342-2.228 2.228 3.343 3.343-3.343 3.342 2.228 2.228 3.343-3.343 3.343 3.343 2.229-2.228-3.343-3.342z" clip-rule="evenodd"/><path d="M145.441 111.787v6.068h-.963v-6.068h.963zm.98 2.916c0-.494-.018-.846-.036-1.232h.837l.045.514h.018a1.176 1.176 0 0 1 1.036-.586c.738 0 1.125.566 1.125 1.584v2.873h-.963v-2.783c0-.439-.09-.863-.513-.863-.234 0-.45.18-.541.541-.027.09-.045.232-.045.395v2.711h-.963v-3.154zm5.022-2.323v1.09h.847v.693h-.847v2.277c0 .541.208.676.45.676.108 0 .198-.01.297-.027l.018.748a2.25 2.25 0 0 1-.63.07c-.306 0-.585-.08-.774-.27-.216-.217-.324-.531-.324-1.188v-2.287h-.522v-.693h.522v-.756l.963-.333zm2.134 3.539c.009.98.459 1.25.972 1.25.324 0 .594-.07.783-.152l.144.684c-.279.127-.702.207-1.098.207-1.134 0-1.737-.818-1.737-2.178 0-1.449.693-2.332 1.629-2.332.918 0 1.386.838 1.386 2.008 0 .252-.009.396-.027.514h-2.052zm1.188-.685c.009-.701-.225-1.115-.567-1.115-.414 0-.603.604-.621 1.115h1.188zm1.583-.531c0-.404-.018-.863-.036-1.232h.837l.054.656h.027c.171-.439.531-.729.892-.729.09 0 .144.01.207.018v.955c-.063-.01-.126-.01-.207-.01-.333 0-.667.279-.774.756-.018.1-.036.254-.036.416v2.322h-.963v-3.152zm2.457 0c0-.494-.018-.846-.036-1.232h.837l.045.514h.018a1.176 1.176 0 0 1 1.036-.586c.738 0 1.125.566 1.125 1.584v2.873h-.963v-2.783c0-.439-.09-.863-.513-.863-.234 0-.45.18-.541.541-.027.09-.045.232-.045.395v2.711h-.963v-3.154zm6.58 2.152c0 .342.009.711.054 1h-.864l-.054-.441h-.018c-.225.332-.549.514-.927.514-.63 0-1.107-.523-1.107-1.297 0-1.125.954-1.604 1.944-1.611v-.117c0-.459-.18-.775-.657-.775-.315 0-.576.092-.819.244l-.18-.658c.216-.135.675-.314 1.206-.314 1.134 0 1.422.775 1.422 1.711v1.744zm-.946-1.197c-.378.01-1.053.107-1.053.873 0 .496.261.676.477.676.243 0 .468-.162.549-.504a.867.867 0 0 0 .027-.225v-.82zm1.836-4.033h.963v6.23h-.963v-6.23zm-29.015 19.398v6.066h-.693v-6.066h.693zm1.098.09a4.028 4.028 0 0 1 1.008-.117c.558 0 1.026.135 1.341.449.297.289.45.73.45 1.252 0 .559-.135.936-.369 1.242-.333.449-.891.676-1.431.676-.117 0-.207 0-.306-.01v2.484h-.693v-5.976zm.693 2.906c.081.02.153.027.27.027.684 0 1.144-.449 1.144-1.305 0-.621-.261-1.18-1.026-1.18-.162 0-.297.018-.387.045v2.413zm41.332-2.906a4.03 4.03 0 0 1 1.009-.117c.558 0 1.025.135 1.341.449.298.289.45.73.45 1.252 0 .559-.135.936-.369 1.242-.333.449-.891.676-1.432.676-.117 0-.207 0-.306-.01v2.484h-.693v-5.976zm.694 2.906c.081.02.153.027.271.027.684 0 1.143-.449 1.143-1.305 0-.621-.261-1.18-1.025-1.18a1.43 1.43 0 0 0-.388.045v2.413zm5.292.893c0 1.684-.783 2.25-1.449 2.25-.783 0-1.414-.711-1.414-2.242 0-1.592.712-2.26 1.459-2.26.774 0 1.404.73 1.404 2.252zm-2.17 0c0 .721.127 1.701.757 1.701.595 0 .711-1.027.711-1.701 0-.666-.116-1.693-.729-1.693-.622-.001-.739 1.027-.739 1.693zm2.934-1.055c0-.367-.026-.801-.036-1.125h.621l.036.686h.019c.144-.414.513-.758.918-.758.054 0 .1.01.145.01v.711c-.045-.008-.091-.008-.145-.008-.441 0-.766.404-.838.908a2.658 2.658 0 0 0-.026.396v2.412h-.693v-3.232zm3.304-2.277v1.152h.836v.531h-.836v2.584c0 .568.207.721.459.721.107 0 .197-.01.279-.027l.026.531a1.518 1.518 0 0 1-.513.072c-.271 0-.514-.072-.685-.262-.171-.197-.261-.494-.261-1.098v-2.521h-.531v-.531h.531v-.953l.695-.199zm-52.164 23.115l-.018-.135c-.09-.531.009-1.107.378-1.709.297-.514.522-.838.522-1.334 0-.512-.297-.729-.693-.729-.225 0-.45.062-.594.172l-.144-.541c.144-.1.504-.234.892-.234.9 0 1.251.604 1.251 1.242 0 .658-.378 1.152-.675 1.648-.279.486-.378.863-.315 1.467l.009.152h-.613zm-.18 1.207c0-.307.198-.514.45-.514.279 0 .45.207.45.514 0 .289-.162.496-.45.496-.261 0-.45-.207-.45-.496zM34.497 74.842h-.018l-.973.558-.135-.54 1.233-.72h.576v5.852h-.684v-5.15zm2.375 4.627c.153 0 .279-.018.432-.054.297-.072.585-.234.801-.459.324-.36.585-.892.685-1.666h-.027c-.216.279-.522.495-.945.495-.729 0-1.278-.675-1.278-1.737 0-1.071.576-1.98 1.477-1.98.999 0 1.467 1.054 1.467 2.35 0 1.152-.288 2.062-.774 2.71a2.33 2.33 0 0 1-1.351.892 2.497 2.497 0 0 1-.486.045v-.596zm.351-3.483c0 .864.324 1.278.792 1.278.288 0 .576-.198.72-.522a.956.956 0 0 0 .054-.378c0-1.225-.352-1.756-.811-1.756-.35 0-.755.378-.755 1.378zm2.799 4.006v-.45l.495-.675c.693-.964 1.521-2.062 1.521-3.16 0-.648-.288-1.044-.837-1.044-.423 0-.693.225-.846.323l-.171-.521a1.831 1.831 0 0 1 1.143-.396c.973 0 1.396.721 1.396 1.603 0 1.099-.72 2.16-1.44 3.151l-.396.54v.018h1.954v.612h-2.819zm3.618-.45c0-.306.208-.522.459-.522.279 0 .459.207.459.522s-.171.522-.459.522c-.261 0-.459-.207-.459-.522zm2.997-4.7h-.018l-.972.558-.135-.54 1.233-.72h.576v5.852h-.684v-5.15zm4.645-.189c-.117.01-.243.027-.415.063-.972.233-1.359 1.206-1.503 2.106h.027c.225-.333.549-.559.99-.559.747 0 1.26.685 1.26 1.801 0 1.107-.504 1.999-1.44 1.999-1.017 0-1.53-1.035-1.53-2.377 0-1.135.297-2.017.756-2.638.352-.495.91-.819 1.414-.928.189-.035.342-.045.441-.054v.587zm-.334 3.467c0-.883-.306-1.324-.783-1.324-.288 0-.585.198-.756.631a.934.934 0 0 0-.054.351c.009 1.197.378 1.747.846 1.747.396-.001.747-.389.747-1.405zm1.179.44c0-.819.486-1.341.963-1.674l-.009-.019c-.486-.333-.766-.846-.766-1.342 0-.899.639-1.458 1.369-1.458.837 0 1.251.702 1.251 1.378 0 .513-.243 1.008-.783 1.377v.027c.54.359.936.891.936 1.593 0 .909-.603 1.621-1.503 1.621-.972.001-1.458-.773-1.458-1.503zm2.278-.072c0-.675-.387-1.053-.837-1.35-.468.288-.756.792-.756 1.305 0 .657.297 1.107.801 1.107.431 0 .792-.333.792-1.062zm-1.423-3.007c0 .595.36.892.72 1.126.351-.252.585-.64.585-1.081 0-.566-.234-.944-.657-.944-.387 0-.648.368-.648.899zm2.799 4.061c0-.306.208-.522.459-.522.279 0 .459.207.459.522s-.171.522-.459.522c-.261 0-.459-.207-.459-.522zm4.528-2.485c0 2.134-.675 3.007-1.521 3.007-.909 0-1.458-1.081-1.458-2.989 0-1.972.585-3.007 1.54-3.007.943 0 1.439 1.125 1.439 2.989zm-2.288.009c0 1.413.243 2.403.819 2.403.549 0 .774-.999.774-2.403 0-1.368-.225-2.403-.783-2.403s-.81.999-.81 2.403zm2.971 2.476c0-.306.208-.522.459-.522.279 0 .459.207.459.522s-.171.522-.459.522c-.261 0-.459-.207-.459-.522zm2.997-4.7h-.018l-.972.558-.135-.54 1.233-.72h.576v5.852h-.684v-5.15zm2.222 1.413c0-.297.198-.513.45-.513.279 0 .45.207.45.513 0 .297-.162.504-.45.504-.261 0-.45-.207-.45-.504zm0 3.304c0-.297.198-.513.45-.513.279 0 .45.207.45.513 0 .298-.162.505-.45.505-.261 0-.45-.207-.45-.505zm2.989-4.717h-.018l-.973.558-.135-.54 1.233-.72h.576v5.852H69.2v-5.15zm2.177 4.403c.18.107.495.243.846.243.603 0 1.008-.441 1.008-1.171 0-.765-.477-1.206-1.179-1.206h-.162v-.522h.135c.414-.009 1.053-.324 1.053-1.044 0-.585-.315-.9-.774-.9-.288 0-.54.145-.729.279l-.153-.522c.216-.171.612-.333 1.053-.333.828 0 1.296.595 1.296 1.351 0 .585-.306 1.099-.873 1.368v.019c.522.144 1.026.611 1.026 1.53 0 .954-.612 1.729-1.674 1.729-.378 0-.792-.108-1.026-.271l.153-.55zm3.465 0c.18.107.495.243.846.243.603 0 1.008-.441 1.008-1.171 0-.765-.477-1.206-1.179-1.206h-.162v-.522h.135c.414-.009 1.053-.324 1.053-1.044 0-.585-.315-.9-.774-.9-.288 0-.54.145-.729.279l-.153-.522c.216-.171.612-.333 1.053-.333.828 0 1.296.595 1.296 1.351 0 .585-.306 1.099-.873 1.368v.019c.522.144 1.026.611 1.026 1.53 0 .954-.612 1.729-1.674 1.729-.378 0-.792-.108-1.026-.271l.153-.55zm6.211-5.105v.414l-1.891 5.438h-.675l1.855-5.222v-.018h-2.107v-.612h2.818zm178.202 2.037h-.019l-.972.558-.135-.54 1.232-.72h.576v5.852h-.684v-5.15zm4.923-.702v.414l-1.891 5.438h-.675l1.854-5.222v-.018h-2.106v-.612h2.818zm.72 5.105c.18.107.494.243.846.243.604 0 1.008-.441 1.008-1.171 0-.765-.477-1.206-1.18-1.206h-.161v-.522h.135c.414-.009 1.054-.324 1.054-1.044 0-.585-.315-.9-.774-.9-.288 0-.54.145-.729.279l-.152-.522c.215-.171.611-.333 1.053-.333.828 0 1.297.595 1.297 1.351 0 .585-.307 1.099-.873 1.368v.019c.521.144 1.025.611 1.025 1.53 0 .954-.611 1.729-1.674 1.729-.379 0-.793-.108-1.027-.271l.152-.55zm3.5.297c0-.306.207-.522.46-.522.278 0 .459.207.459.522s-.171.522-.459.522c-.261 0-.46-.207-.46-.522zm1.594.45v-.45l.494-.675c.693-.964 1.521-2.062 1.521-3.16 0-.648-.287-1.044-.837-1.044-.423 0-.692.225-.847.323l-.17-.521a1.829 1.829 0 0 1 1.143-.396c.973 0 1.396.721 1.396 1.603 0 1.099-.72 2.16-1.44 3.151l-.396.54v.018h1.954v.612h-2.818zm3.582-.747c.18.107.494.243.846.243.604 0 1.008-.441 1.008-1.171 0-.765-.477-1.206-1.18-1.206h-.161v-.522h.135c.414-.009 1.054-.324 1.054-1.044 0-.585-.315-.9-.774-.9-.288 0-.54.145-.729.279l-.152-.522c.215-.171.611-.333 1.053-.333.828 0 1.297.595 1.297 1.351 0 .585-.307 1.099-.873 1.368v.019c.521.144 1.025.611 1.025 1.53 0 .954-.611 1.729-1.674 1.729-.379 0-.793-.108-1.027-.271l.152-.55zm6.283-2.188c0 2.134-.676 3.007-1.521 3.007-.91 0-1.459-1.081-1.459-2.989 0-1.972.585-3.007 1.539-3.007.945 0 1.441 1.125 1.441 2.989zm-2.287.009c0 1.413.242 2.403.818 2.403.55 0 .775-.999.775-2.403 0-1.368-.226-2.403-.783-2.403-.558 0-.81.999-.81 2.403zm2.969 2.476c0-.306.207-.522.46-.522.278 0 .459.207.459.522s-.171.522-.459.522c-.261 0-.46-.207-.46-.522zm2.998-4.7h-.019l-.972.558-.135-.54 1.232-.72h.576v5.852h-.684v-5.15zm4.77-.09h-1.575l-.244 1.558c.072-.019.136-.019.217-.019.314 0 .801.135 1.116.441.306.306.486.738.486 1.332 0 1.161-.729 1.999-1.774 1.999-.351 0-.756-.1-.99-.252l.154-.559c.18.108.494.234.818.234.594 0 1.107-.459 1.107-1.351 0-.928-.566-1.314-1.323-1.314-.216 0-.351.009-.459.027l.369-2.71h2.098v.614zm2.159.09h-.018l-.973.558-.135-.54 1.232-.72h.576v5.852h-.684v-5.15zm2.213 4.7c0-.306.207-.522.46-.522.278 0 .459.207.459.522s-.171.522-.459.522c-.261 0-.46-.207-.46-.522zm1.908-.073c.154 0 .279-.018.433-.054.298-.072.585-.234.802-.459.324-.36.585-.892.684-1.666h-.027c-.215.279-.521.495-.945.495-.729 0-1.277-.675-1.277-1.737 0-1.071.576-1.98 1.477-1.98.998 0 1.467 1.054 1.467 2.35 0 1.152-.288 2.062-.773 2.71a2.335 2.335 0 0 1-1.352.892 2.49 2.49 0 0 1-.486.045v-.596zm.352-3.483c0 .864.324 1.278.793 1.278.287 0 .576-.198.72-.522a.956.956 0 0 0 .054-.378c0-1.225-.352-1.756-.811-1.756-.351 0-.756.378-.756 1.378zm3.113 3.483c.154 0 .279-.018.433-.054.298-.072.585-.234.802-.459.324-.36.585-.892.684-1.666h-.027c-.215.279-.521.495-.945.495-.729 0-1.277-.675-1.277-1.737 0-1.071.576-1.98 1.477-1.98.998 0 1.467 1.054 1.467 2.35 0 1.152-.288 2.062-.773 2.71a2.335 2.335 0 0 1-1.352.892 2.49 2.49 0 0 1-.486.045v-.596zm.352-3.483c0 .864.324 1.278.793 1.278.287 0 .576-.198.72-.522a.956.956 0 0 0 .054-.378c0-1.225-.352-1.756-.811-1.756-.351 0-.756.378-.756 1.378zm2.961.269c0-.297.197-.513.45-.513.278 0 .45.207.45.513 0 .297-.162.504-.45.504-.261 0-.45-.207-.45-.504zm0 3.304c0-.297.197-.513.45-.513.278 0 .45.207.45.513 0 .298-.162.505-.45.505-.261 0-.45-.207-.45-.505zm1.584.433v-.45l.495-.675c.693-.964 1.521-2.062 1.521-3.16 0-.648-.288-1.044-.837-1.044-.424 0-.693.225-.847.323l-.171-.521a1.831 1.831 0 0 1 1.143-.396c.973 0 1.396.721 1.396 1.603 0 1.099-.721 2.16-1.441 3.151l-.396.54v.018h1.954v.612h-2.817zm6.4-2.935c0 2.134-.676 3.007-1.521 3.007-.91 0-1.459-1.081-1.459-2.989 0-1.972.585-3.007 1.539-3.007.945 0 1.441 1.125 1.441 2.989zm-2.287.009c0 1.413.242 2.403.818 2.403.55 0 .775-.999.775-2.403 0-1.368-.226-2.403-.783-2.403-.558 0-.81.999-.81 2.403zm4.635 2.926v-1.611h-1.944v-.469l1.899-3.771h.676v3.673h.639v.567h-.639v1.611h-.631zm0-2.179v-1.656c0-.405.027-.766.055-1.152h-.037c-.197.468-.324.747-.494 1.107l-.811 1.684v.018h1.287zm3.051-2.971h-.018l-.973.558-.135-.54 1.232-.72h.576v5.852h-.684v-5.15zm3.464 0h-.018l-.973.558-.135-.54 1.232-.72h.576v5.852h-.684v-5.15z"/><path fill="#c1272d" d="M144.009 79.853v1.089h.847v.693h-.847v2.278c0 .54.208.675.45.675.108 0 .198-.009.297-.027l.018.748c-.144.045-.36.071-.63.071-.306 0-.585-.081-.774-.27-.216-.217-.324-.531-.324-1.188v-2.287h-.522v-.693h.522v-.756l.963-.333zm1.422 2.322c0-.404-.018-.864-.036-1.233h.837l.054.657h.027c.171-.44.531-.729.892-.729.09 0 .144.009.207.018v.954c-.063-.009-.126-.009-.207-.009-.333 0-.667.279-.774.756-.018.1-.036.253-.036.415v2.322h-.963v-3.151zm5.131 2.153c0 .342.009.711.054.999h-.864l-.054-.441h-.018c-.225.333-.549.514-.928.514-.63 0-1.107-.522-1.107-1.297 0-1.125.954-1.603 1.944-1.611v-.117c0-.459-.18-.774-.657-.774-.315 0-.576.091-.819.243l-.18-.657c.216-.135.675-.314 1.206-.314 1.134 0 1.422.774 1.422 1.71v1.745zm-.946-1.198c-.378.009-1.053.107-1.053.873 0 .495.261.675.477.675.243 0 .468-.162.549-.504a.857.857 0 0 0 .027-.225v-.819zm1.836-.955c0-.495-.018-.846-.036-1.233h.837l.045.514h.018a1.176 1.176 0 0 1 1.036-.585c.738 0 1.125.566 1.125 1.584v2.872h-.963v-2.782c0-.44-.09-.864-.513-.864-.234 0-.45.181-.541.541a1.49 1.49 0 0 0-.045.396v2.71h-.963v-3.153zm3.834 2.243c.162.108.459.234.756.234.342 0 .549-.181.549-.505 0-.27-.126-.45-.531-.711-.657-.387-.892-.811-.892-1.251 0-.757.549-1.314 1.341-1.314.351 0 .63.099.837.216l-.189.711a1.121 1.121 0 0 0-.603-.188c-.333 0-.495.216-.495.459 0 .234.108.369.522.639.585.352.9.783.9 1.333 0 .891-.622 1.341-1.45 1.341-.342 0-.747-.099-.936-.252l.191-.712zm2.844-5.321h.963v6.229h-.963v-6.229zm4.563 5.231c0 .342.009.711.054.999h-.864l-.054-.441h-.018c-.225.333-.549.514-.928.514-.63 0-1.107-.522-1.107-1.297 0-1.125.954-1.603 1.944-1.611v-.117c0-.459-.18-.774-.657-.774-.315 0-.576.091-.819.243l-.18-.657c.216-.135.675-.314 1.206-.314 1.134 0 1.422.774 1.422 1.71v1.745zm-.945-1.198c-.378.009-1.053.107-1.053.873 0 .495.261.675.477.675.243 0 .468-.162.549-.504a.857.857 0 0 0 .027-.225v-.819zm2.898-3.277v1.089h.847v.693h-.847v2.278c0 .54.208.675.45.675.108 0 .198-.009.297-.027l.018.748c-.144.045-.36.071-.63.071-.306 0-.585-.081-.774-.27-.216-.217-.324-.531-.324-1.188v-2.287h-.522v-.693h.522v-.756l.963-.333zm1.881.504c-.279 0-.504-.225-.504-.558 0-.343.234-.559.513-.559.306 0 .522.216.522.559 0 .333-.216.558-.522.558h-.009zm-.46 4.97v-4.385h.963v4.385h-.963zm3.241.072c-.927 0-1.566-.774-1.566-2.251 0-1.594.783-2.277 1.603-2.277.919 0 1.548.801 1.548 2.25 0 1.773-.918 2.278-1.575 2.278h-.01zm.036-.738c.478 0 .585-.864.585-1.53 0-.64-.107-1.521-.603-1.521-.522 0-.621.882-.621 1.521 0 .738.126 1.53.63 1.53h.009zm2.259-2.486c0-.495-.018-.846-.036-1.233h.837l.045.514h.018a1.175 1.175 0 0 1 1.036-.585c.738 0 1.125.566 1.125 1.584v2.872h-.963v-2.782c0-.44-.091-.864-.513-.864-.234 0-.451.181-.541.541a1.49 1.49 0 0 0-.045.396v2.71h-.963v-3.153zm6.48-2.322v1.089h.847v.693h-.847v2.278c0 .54.208.675.45.675.108 0 .198-.009.297-.027l.019.748c-.144.045-.36.071-.63.071-.307 0-.586-.081-.775-.27-.215-.217-.323-.531-.323-1.188v-2.287h-.522v-.693h.522v-.756l.962-.333zm4.095 4.475c0 .342.009.711.054.999h-.863l-.055-.441h-.018c-.225.333-.549.514-.928.514-.63 0-1.107-.522-1.107-1.297 0-1.125.955-1.603 1.945-1.611v-.117c0-.459-.181-.774-.658-.774a1.49 1.49 0 0 0-.818.243l-.18-.657c.215-.135.674-.314 1.205-.314 1.135 0 1.423.774 1.423 1.71v1.745zm-.945-1.198c-.378.009-1.054.107-1.054.873 0 .495.262.675.478.675.243 0 .468-.162.55-.504a.859.859 0 0 0 .026-.225v-.819zm1.835-4.033h.955v2.322h.018c.217-.369.514-.549.918-.549.775 0 1.225.882 1.225 2.179 0 1.558-.63 2.35-1.387 2.35-.414 0-.656-.207-.863-.612h-.027l-.055.54h-.818c.018-.324.035-.828.035-1.188v-5.042zm.955 4.672c0 .108.018.207.036.279.126.459.351.559.513.559.469 0 .648-.612.648-1.495 0-.81-.189-1.432-.657-1.432-.243 0-.45.288-.504.576a1.403 1.403 0 0 0-.036.279v1.234zm2.87-4.672h.964v6.229h-.964v-6.229zm2.664 4.294c.009.981.459 1.251.972 1.251.324 0 .595-.071.783-.152l.145.684c-.279.126-.702.207-1.098.207-1.135 0-1.738-.819-1.738-2.179 0-1.449.693-2.331 1.63-2.331.918 0 1.386.837 1.386 2.008 0 .252-.008.396-.026.513h-2.054zm1.189-.684c.009-.702-.225-1.116-.567-1.116-.414 0-.603.604-.621 1.116h1.188z"/><path d="M138.938 30.798h-1.576l-.243 1.558c.072-.019.135-.019.216-.019.315 0 .801.135 1.116.441.306.306.486.738.486 1.332 0 1.161-.729 1.999-1.773 1.999-.352 0-.756-.1-.991-.252l.153-.559c.18.108.495.234.819.234.594 0 1.107-.459 1.107-1.351 0-.928-.567-1.314-1.323-1.314-.216 0-.351.009-.459.027l.369-2.71h2.098v.614zm3.69 2.305c0 2.134-.675 3.007-1.521 3.007-.91 0-1.458-1.081-1.458-2.989 0-1.972.585-3.007 1.54-3.007.944 0 1.439 1.125 1.439 2.989zm-2.286.009c0 1.413.243 2.403.819 2.403.549 0 .774-.999.774-2.403 0-1.368-.225-2.403-.783-2.403s-.81.999-.81 2.403zm2.969 2.475c0-.306.208-.522.459-.522.279 0 .459.207.459.522s-.171.522-.459.522c-.261.001-.459-.206-.459-.522zm4.456-5.401v.414l-1.891 5.438h-.675l1.855-5.222v-.018h-2.107v-.612h2.818zm3.186.513c-.117.01-.243.027-.415.063-.972.233-1.359 1.206-1.503 2.106h.027c.225-.333.549-.559.99-.559.747 0 1.26.685 1.26 1.801 0 1.107-.504 1.999-1.44 1.999-1.017 0-1.53-1.035-1.53-2.377 0-1.135.297-2.017.756-2.638.351-.495.91-.819 1.414-.928.189-.035.342-.045.441-.054v.587zm-.333 3.467c0-.883-.306-1.324-.783-1.324-.288 0-.585.198-.756.631a.934.934 0 0 0-.054.351c.009 1.197.378 1.747.846 1.747.396-.001.747-.389.747-1.405zm1.367 1.421c0-.306.208-.522.459-.522.279 0 .459.207.459.522s-.171.522-.459.522c-.261.001-.459-.206-.459-.522zm3.411.451v-1.611h-1.944v-.469l1.899-3.771h.675v3.673h.639v.567h-.639v1.611h-.63zm0-2.179v-1.656c0-.405.027-.766.054-1.152h-.036c-.198.468-.324.747-.495 1.107l-.81 1.684v.018h1.287zm3.465 2.179v-1.611h-1.944v-.469l1.899-3.771h.675v3.673h.639v.567h-.639v1.611h-.63zm0-2.179v-1.656c0-.405.027-.766.054-1.152h-.036c-.198.468-.324.747-.495 1.107l-.81 1.684v.018h1.287zm1.8 1.728c0-.306.208-.522.459-.522.279 0 .459.207.459.522s-.171.522-.459.522c-.261.001-.459-.206-.459-.522zm2.997-4.699h-.018l-.972.558-.135-.54 1.233-.72h.576v5.852h-.685v-5.15zm3.465 0h-.018l-.972.558-.135-.54 1.233-.72h.576v5.852h-.685v-5.15zm3.878 5.15v-1.611h-1.944v-.469l1.899-3.771h.676v3.673h.639v.567h-.639v1.611h-.631zm0-2.179v-1.656c0-.405.027-.766.055-1.152h-.036a23.98 23.98 0 0 1-.495 1.107l-.811 1.684v.018h1.287zm1.81-1.558c0-.297.198-.513.45-.513.279 0 .45.207.45.513 0 .297-.162.504-.45.504-.262 0-.45-.207-.45-.504zm0 3.304c0-.297.198-.513.45-.513.279 0 .45.207.45.513 0 .298-.162.505-.45.505-.262 0-.45-.207-.45-.505zm1.7-.314c.18.107.496.243.847.243.603 0 1.009-.441 1.009-1.171 0-.765-.478-1.206-1.18-1.206h-.162v-.522h.135c.414-.009 1.053-.324 1.053-1.044 0-.585-.314-.9-.773-.9-.288 0-.541.145-.729.279l-.153-.522c.217-.171.613-.333 1.054-.333.828 0 1.296.595 1.296 1.351 0 .585-.306 1.099-.873 1.368v.019c.522.144 1.027.611 1.027 1.53 0 .954-.613 1.729-1.676 1.729-.377 0-.791-.108-1.025-.271l.15-.55zm4.752-4.403h-.018l-.973.558-.135-.54 1.234-.72h.576v5.852h-.686v-5.15zm3.88 5.15v-1.611h-1.944v-.469l1.899-3.771h.675v3.673h.64v.567h-.64v1.611h-.63zm0-2.179v-1.656c0-.405.027-.766.054-1.152h-.035a23.9 23.9 0 0 1-.496 1.107l-.81 1.684v.018h1.287zm4.356-3.061h-1.576l-.242 1.558c.072-.019.135-.019.216-.019.315 0 .802.135 1.116.441.307.306.486.738.486 1.332 0 1.161-.729 1.999-1.773 1.999-.352 0-.756-.1-.99-.252l.152-.559c.181.108.496.234.82.234.594 0 1.106-.459 1.106-1.351 0-.928-.567-1.314-1.323-1.314-.216 0-.352.009-.459.027l.369-2.71h2.098v.614zm2.574 5.24v-1.611h-1.944v-.469l1.899-3.771h.675v3.673h.64v.567h-.64v1.611h-.63zm0-2.179v-1.656c0-.405.027-.766.054-1.152h-.035a23.9 23.9 0 0 1-.496 1.107l-.81 1.684v.018h1.287z"/><path fill="#c1272d" d="M120.739 57.643v-6.736h.729l1.239 3.158c.28.72.63 1.619.86 2.349h.02c-.06-1.06-.09-1.929-.09-3.098v-2.409h.69v6.736h-.729l-1.279-3.238c-.27-.68-.56-1.449-.8-2.289h-.02c.06.899.08 1.76.08 3.198v2.329h-.7zm5.459-2.018l-.45 2.019h-.74l1.539-6.736h.85l1.5 6.736h-.76l-.45-2.019h-1.489zm1.389-.621l-.35-1.709c-.1-.479-.19-1.039-.27-1.539h-.04c-.08.51-.18 1.089-.27 1.539l-.35 1.709h1.28zm2.341-3.408h-1.229v-.689h3.228v.689h-1.229v6.047h-.77v-6.047z"/><path d="M185.176 154.695l-.019-.135c-.09-.531.01-1.107.379-1.709.297-.514.521-.838.521-1.334 0-.512-.297-.729-.693-.729-.225 0-.449.062-.594.172l-.145-.541c.145-.1.505-.234.893-.234.899 0 1.25.604 1.25 1.242 0 .658-.377 1.152-.674 1.648-.279.486-.379.863-.316 1.467l.01.152h-.612zm-.18 1.207c0-.307.199-.514.451-.514.279 0 .449.207.449.514 0 .289-.162.496-.449.496-.262 0-.451-.207-.451-.496zm46.069-24.879v6.066h-.693v-6.066h.693zm1.098.09a4.03 4.03 0 0 1 1.009-.117c.558 0 1.025.135 1.341.449.298.289.45.73.45 1.252 0 .559-.135.936-.369 1.242-.333.449-.891.676-1.432.676-.117 0-.207 0-.306-.01v2.484h-.693v-5.976zm.693 2.906c.081.02.153.027.271.027.684 0 1.143-.449 1.143-1.305 0-.621-.261-1.18-1.025-1.18a1.43 1.43 0 0 0-.388.045v2.413zm41.332-2.906a4.03 4.03 0 0 1 1.009-.117c.558 0 1.025.135 1.341.449.298.289.45.73.45 1.252 0 .559-.135.936-.369 1.242-.333.449-.891.676-1.432.676-.117 0-.207 0-.306-.01v2.484h-.693v-5.976zm.693 2.906c.081.02.153.027.271.027.684 0 1.143-.449 1.143-1.305 0-.621-.261-1.18-1.025-1.18a1.43 1.43 0 0 0-.388.045v2.413zm5.292.893c0 1.684-.783 2.25-1.449 2.25-.783 0-1.414-.711-1.414-2.242 0-1.592.712-2.26 1.459-2.26.774 0 1.404.73 1.404 2.252zm-2.17 0c0 .721.127 1.701.757 1.701.595 0 .711-1.027.711-1.701 0-.666-.116-1.693-.729-1.693-.621-.001-.739 1.027-.739 1.693zm2.935-1.055c0-.367-.026-.801-.036-1.125h.621l.036.686h.019c.144-.414.513-.758.918-.758.054 0 .1.01.145.01v.711c-.045-.008-.091-.008-.145-.008-.441 0-.766.404-.838.908a2.658 2.658 0 0 0-.026.396v2.412h-.693v-3.232zm3.304-2.277v1.152h.836v.531h-.836v2.584c0 .568.207.721.459.721.107 0 .197-.01.279-.027l.026.531a1.518 1.518 0 0 1-.513.072c-.271 0-.514-.072-.685-.262-.171-.197-.261-.494-.261-1.098v-2.521h-.531v-.531h.531v-.953l.695-.199zm-66.932 19.505h-1.576l-.242 1.559c.072-.02.135-.02.216-.02.315 0 .802.135 1.116.441.307.307.486.738.486 1.332 0 1.162-.729 2-1.773 2-.352 0-.756-.1-.99-.252l.152-.559c.181.107.496.234.82.234.594 0 1.106-.459 1.106-1.352 0-.928-.567-1.314-1.323-1.314-.216 0-.352.01-.459.027l.369-2.709h2.098v.613zm3.69 2.305c0 2.135-.675 3.008-1.521 3.008-.908 0-1.458-1.082-1.458-2.99 0-1.971.585-3.006 1.54-3.006.944 0 1.439 1.125 1.439 2.988zm-2.288.01c0 1.412.244 2.402.82 2.402.549 0 .773-.998.773-2.402 0-1.369-.225-2.404-.783-2.404-.557 0-.81 1-.81 2.404zm2.971 2.475c0-.305.207-.521.459-.521.279 0 .459.207.459.521 0 .316-.171.523-.459.523-.262 0-.459-.207-.459-.523zm4.455-5.401v.414l-1.891 5.438h-.675l1.854-5.223v-.018h-2.106v-.611h2.818zm3.187.512a3.18 3.18 0 0 0-.415.064c-.972.232-1.359 1.205-1.503 2.105h.027c.226-.332.549-.559.99-.559.747 0 1.261.686 1.261 1.801 0 1.107-.504 2-1.441 2-1.017 0-1.529-1.035-1.529-2.377 0-1.135.297-2.018.756-2.639a2.428 2.428 0 0 1 1.413-.928c.188-.035.343-.045.441-.053v.586zm-.333 3.467c0-.883-.307-1.324-.783-1.324-.289 0-.586.199-.756.631a.931.931 0 0 0-.055.352c.009 1.197.378 1.746.846 1.746.396-.001.748-.388.748-1.405zm1.367 1.422c0-.305.207-.521.459-.521.279 0 .459.207.459.521 0 .316-.171.523-.459.523-.262 0-.459-.207-.459-.523zm3.411.451v-1.611h-1.944v-.469l1.899-3.771h.675v3.672h.64v.568h-.64v1.611h-.63zm0-2.18v-1.656c0-.404.027-.766.054-1.152h-.035c-.198.469-.324.748-.496 1.107l-.81 1.684v.018h1.287zm3.465 2.18v-1.611h-1.944v-.469l1.899-3.771h.675v3.672h.64v.568h-.64v1.611h-.63zm0-2.18v-1.656c0-.404.027-.766.054-1.152h-.035c-.198.469-.324.748-.496 1.107l-.81 1.684v.018h1.287zm1.8 1.729c0-.305.207-.521.459-.521.279 0 .459.207.459.521 0 .316-.171.523-.459.523-.262 0-.459-.207-.459-.523zm2.997-4.7h-.019l-.972.559-.135-.541 1.233-.719h.576v5.852h-.685v-5.151zm3.465 0h-.019l-.972.559-.135-.541 1.233-.719h.576v5.852h-.685v-5.151zm3.879 5.151v-1.611h-1.944v-.469l1.899-3.771h.675v3.672h.64v.568h-.64v1.611h-.63zm0-2.18v-1.656c0-.404.027-.766.054-1.152h-.035c-.198.469-.324.748-.496 1.107l-.81 1.684v.018h1.287zm21.793 1.432c.18.107.494.244.846.244.604 0 1.008-.441 1.008-1.172 0-.764-.477-1.205-1.18-1.205h-.161v-.523h.135c.414-.008 1.054-.324 1.054-1.043 0-.586-.315-.9-.774-.9-.288 0-.54.145-.729.279l-.152-.523c.215-.17.611-.332 1.053-.332.828 0 1.297.594 1.297 1.35 0 .586-.307 1.1-.873 1.369v.018c.521.145 1.025.611 1.025 1.531 0 .953-.611 1.729-1.674 1.729-.379 0-.793-.109-1.027-.271l.152-.551zm4.752-4.403h-.019l-.972.559-.135-.541 1.232-.719h.576v5.852h-.684v-5.151zm3.879 5.151v-1.611h-1.945v-.469l1.9-3.771h.675v3.672h.64v.568h-.64v1.611h-.63zm0-2.18v-1.656c0-.404.027-.766.054-1.152h-.036c-.197.469-.324.748-.495 1.107l-.81 1.684v.018h1.287zm4.357-3.061h-1.575l-.244 1.559c.072-.02.136-.02.217-.02.314 0 .801.135 1.116.441.306.307.486.738.486 1.332 0 1.162-.729 2-1.774 2-.351 0-.756-.1-.99-.252l.154-.559c.18.107.494.234.818.234.594 0 1.107-.459 1.107-1.352 0-.928-.566-1.314-1.323-1.314-.216 0-.351.01-.459.027l.369-2.709h2.098v.613zm2.573 5.241v-1.611h-1.944v-.469l1.899-3.771h.676v3.672H288v.568h-.639v1.611h-.631zm0-2.18v-1.656c0-.404.027-.766.055-1.152h-.037c-.197.469-.324.748-.494 1.107l-.811 1.684v.018h1.287zm-45.585-42.269a5.083 5.083 0 0 1 1.125-.117c.64 0 1.161.117 1.521.459.324.307.486.775.486 1.297 0 .611-.171 1.025-.45 1.35-.359.424-.945.631-1.459.631-.099 0-.18 0-.27-.01v2.369h-.954v-5.979zm.954 2.818c.072.018.135.018.234.018.63 0 .98-.432.98-1.125 0-.566-.233-1.045-.882-1.045a1.1 1.1 0 0 0-.333.045v2.107zm5.735 1.881c0 .479.018.91.035 1.279h-.837l-.054-.459h-.019c-.171.26-.522.531-.981.531-.801 0-1.125-.604-1.125-1.748v-2.709h.963v2.592c0 .631.108 1.062.504 1.062.298 0 .451-.252.496-.432.035-.1.054-.234.054-.377v-2.846h.964v3.107zm.898-4.951h.954v2.322h.019c.215-.369.513-.549.918-.549.773 0 1.225.883 1.225 2.18 0 1.557-.631 2.35-1.387 2.35-.414 0-.657-.207-.865-.613h-.026l-.054.541h-.819c.019-.324.036-.828.036-1.189v-5.042zm.954 4.671c0 .109.019.207.036.279.126.459.352.559.513.559.468 0 .648-.611.648-1.494 0-.811-.188-1.432-.657-1.432-.243 0-.45.287-.504.576a1.46 1.46 0 0 0-.036.279v1.233zm2.87-4.671h.964v6.23h-.964v-6.23zm2.35 1.259c-.279 0-.504-.225-.504-.557 0-.344.234-.559.513-.559.306 0 .522.215.522.559 0 .332-.217.557-.522.557h-.009zm-.459 4.971v-4.385h.963v4.385h-.963zm4.149-.09c-.135.072-.414.143-.737.143-1.045 0-1.738-.773-1.738-2.215 0-1.312.729-2.285 1.891-2.285.262 0 .514.062.631.125l-.145.766c-.1-.035-.252-.1-.469-.1-.621 0-.945.666-.945 1.477 0 .9.36 1.441.945 1.441.181 0 .334-.037.469-.1l.098.748z"/></svg>