<svg xmlns="http://www.w3.org/2000/svg" viewBox="0 0 342.392 89.308"><g stroke="#000" clip-rule="evenodd" stroke-linecap="round" stroke-linejoin="round"><path fill="#ccc" fill-rule="evenodd" d="M.5.5h25.885v14.708H.5zm25.885 0h78.876v14.708H26.385z"/><path fill="#ccc" fill-rule="evenodd" d="M105.261.5h78.875v14.708h-78.875zm78.876 0h78.877v14.708h-78.877zm78.877 0h78.875v14.708h-78.875z"/><path fill="none" d="M26.387 15.195h78.874v14.708H26.387z"/><path fill="none" d="M26.387 29.902h157.749V44.61H26.387z"/><path fill="gray" fill-rule="evenodd" d="M105.263 15.195h236.628v14.708H105.263z"/><path fill="none" d="M184.14 29.903h157.752v14.708H184.14z"/><path fill="#ccc" fill-rule="evenodd" d="M.502 15.195h25.885v14.708H.502z"/><path fill="#ccc" fill-rule="evenodd" d="M.502 29.902h25.885V44.61H.502z"/><path fill="#fddfbb" fill-rule="evenodd" d="M26.387 44.635h315.504v14.708H26.387z"/><path fill="#ccc" fill-rule="evenodd" d="M.502 44.635h25.885v14.708H.502z"/><path fill="none" d="M26.387 59.367h315.504v14.708H26.387z"/><path fill="#ccc" fill-rule="evenodd" d="M.502 59.367h25.885v14.708H.502z"/><path fill="none" d="M26.387 74.1h315.504v14.708H26.387z"/><path fill="#ccc" fill-rule="evenodd" d="M.502 74.1h25.885v14.708H.502z"/></g><path d="M7.242 4.518a5.667 5.667 0 0 1 1.197-.117c.549 0 1.071.09 1.44.423.297.262.432.648.432 1.08 0 .567-.306 1.081-.891 1.333v.026c.693.189 1.089.766 1.089 1.495 0 .504-.162.9-.441 1.197-.351.396-.945.585-1.818.585-.45 0-.774-.027-1.008-.062v-5.96zm.954 2.439h.279c.495 0 .891-.396.891-.945 0-.504-.234-.882-.828-.882-.144 0-.261.009-.342.036v1.791zm0 2.809c.081.019.18.027.306.027.585 0 1.017-.352 1.017-1.044 0-.712-.495-1.071-1.044-1.071h-.279v2.088zm3.69-3.655l.495 2.386c.063.298.108.559.153.811h.018c.036-.234.09-.522.144-.801l.432-2.396h.945l-.819 3.134c-.234.945-.531 1.891-1.026 2.493-.342.414-.729.621-.9.685l-.315-.828a1.952 1.952 0 0 0 .981-1.062.546.546 0 0 0 .054-.207.51.51 0 0 0-.027-.162l-1.162-4.052h1.027zm3.825-1.089v1.089h.847v.693h-.847v2.278c0 .54.207.675.45.675.108 0 .198-.009.297-.027l.018.748c-.144.045-.36.071-.63.071-.306 0-.585-.081-.774-.27-.216-.217-.324-.531-.324-1.188V6.804h-.522v-.693h.522v-.756l.963-.333zm2.133 3.538c.009.981.459 1.251.972 1.251.324 0 .594-.071.783-.152l.144.684c-.279.126-.702.207-1.098.207-1.134 0-1.737-.819-1.737-2.179 0-1.449.693-2.331 1.629-2.331.918 0 1.386.837 1.386 2.008 0 .252-.009.396-.027.513h-2.052zm1.189-.685c.009-.702-.225-1.116-.567-1.116-.414 0-.603.604-.621 1.116h1.188zm45.279-2.168v2.07h1.999v.63h-1.999v2.089h-.648V8.407h-1.999v-.63h1.999v-2.07h.648zm4.175 4.861c-1.107 0-1.593-1.288-1.593-2.98 0-1.818.558-3.016 1.656-3.016 1.17 0 1.567 1.368 1.567 2.979 0 2.116-.72 3.017-1.621 3.017h-.009zm.046-.819c.45 0 .621-.811.621-2.179 0-1.314-.162-2.179-.63-2.179-.459 0-.675.792-.666 2.179-.009 1.396.189 2.179.666 2.179h.009zm74.655-4.042v2.07h1.999v.63h-1.999v2.089h-.648V8.407h-1.999v-.63h1.999v-2.07h.648zm4.004-.136h-.018l-.981.531-.171-.747 1.288-.711h.828v5.852h-.945V5.571zm74.872.136v2.07h1.998v.63h-1.998v2.089h-.648V8.407h-1.998v-.63h1.998v-2.07h.648zm2.609 4.789v-.64l.54-.711c.729-.963 1.441-1.899 1.441-2.854 0-.549-.271-.909-.784-.909-.396 0-.685.188-.864.306l-.189-.738a2.188 2.188 0 0 1 1.225-.378c1.144 0 1.558.792 1.558 1.656 0 1.099-.702 2.062-1.396 2.936l-.369.468v.018h1.855v.847h-3.017zm76.266-4.789v2.07h1.999v.63h-1.999v2.089h-.647V8.407h-1.999v-.63h1.999v-2.07h.647zm2.754 3.834c.207.126.531.234.855.234.594 0 .945-.396.945-.991 0-.702-.496-1.053-1.135-1.053h-.162v-.71h.117c.432 0 1.018-.243 1.018-.883 0-.495-.289-.774-.721-.774-.279 0-.531.117-.729.252l-.161-.72c.233-.171.674-.324 1.134-.324.945 0 1.44.63 1.44 1.378 0 .594-.315 1.089-.855 1.341v.019c.549.171 1.018.666 1.018 1.512 0 .919-.657 1.747-1.837 1.747-.433 0-.847-.117-1.089-.271l.162-.757zM51.322 25.082c-.189.1-.486.162-.864.162-1.188 0-2.035-.954-2.035-3.016 0-2.395 1.188-3.16 2.143-3.16.369 0 .63.072.756.153l-.153.585a1.339 1.339 0 0 0-.612-.126c-.648 0-1.405.63-1.405 2.485 0 1.854.685 2.466 1.423 2.466.261 0 .495-.062.639-.135l.108.586zm3.168-2.07c0 1.684-.784 2.251-1.45 2.251-.783 0-1.414-.712-1.414-2.242 0-1.593.711-2.26 1.458-2.26.776 0 1.406.729 1.406 2.251zm-2.17 0c0 .721.126 1.701.756 1.701.594 0 .711-1.026.711-1.701 0-.666-.117-1.692-.729-1.692-.62-.001-.738 1.026-.738 1.692zm2.944-1.054c0-.513-.027-.773-.036-1.125h.603l.036.522h.018c.189-.352.54-.595.999-.595.604 0 1.054.45 1.054 1.504v2.926h-.693v-2.809c0-.514-.099-1.035-.603-1.035-.288 0-.567.243-.657.711a2.445 2.445 0 0 0-.027.387v2.746h-.693v-3.232zm4.437-2.277v1.152h.837v.531h-.837v2.584c0 .567.207.72.459.72.108 0 .198-.009.279-.026l.027.531a1.522 1.522 0 0 1-.513.071c-.27 0-.513-.071-.684-.261-.171-.198-.261-.495-.261-1.099v-2.521h-.531v-.531h.531v-.954l.693-.197zm1.863 3.394c.009 1.332.531 1.62 1.036 1.62.297 0 .549-.072.72-.171l.108.513c-.243.136-.612.207-.955.207-1.044 0-1.584-.854-1.584-2.188 0-1.413.594-2.296 1.468-2.296.891 0 1.242.937 1.242 1.927 0 .162 0 .279-.009.388h-2.026zm1.368-.514c.018-.873-.315-1.261-.648-1.261-.45 0-.684.667-.711 1.261h1.359zm1.412-.603c0-.513-.027-.773-.036-1.125h.603l.036.522h.018c.189-.352.54-.595.999-.595.604 0 1.054.45 1.054 1.504v2.926h-.693v-2.809c0-.514-.099-1.035-.603-1.035-.288 0-.567.243-.657.711a2.445 2.445 0 0 0-.027.387v2.746h-.693v-3.232zm4.438-2.277v1.152h.837v.531h-.837v2.584c0 .567.207.72.459.72.108 0 .198-.009.279-.026l.027.531a1.522 1.522 0 0 1-.513.071c-.27 0-.513-.071-.684-.261-.171-.198-.261-.495-.261-1.099v-2.521h-.531v-.531h.531v-.954l.693-.197zm3.707 0v1.152h.837v.531h-.837v2.584c0 .567.207.72.459.72.108 0 .198-.009.279-.026l.027.531a1.522 1.522 0 0 1-.513.071c-.27 0-.513-.071-.684-.261-.171-.198-.261-.495-.261-1.099v-2.521h-.531v-.531h.531v-.954l.693-.197zm1.899 1.152l.576 2.503c.081.342.126.63.18.9h.018c.045-.243.117-.576.189-.892l.513-2.512h.684l-.711 2.8c-.271 1.099-.567 2.151-1.081 2.809-.306.388-.63.595-.783.667l-.252-.595c.198-.107.414-.297.612-.549.18-.226.324-.522.396-.729a.609.609 0 0 0 .045-.216c0-.054 0-.108-.018-.162l-1.098-4.024h.73zm2.745 1.359c0-.666-.027-1.053-.036-1.359h.622l.036.559h.018c.234-.469.576-.631.918-.631.756 0 1.26.811 1.26 2.242 0 1.611-.666 2.26-1.351 2.26-.405 0-.639-.262-.756-.505h-.018v2.161h-.693v-4.727zm.693 1.396c0 .135 0 .261.027.36.135.621.45.738.639.738.576 0 .756-.792.756-1.675 0-.9-.216-1.656-.765-1.656-.315 0-.594.396-.639.792-.018.108-.018.216-.018.333v1.108zm3.393-.513c.009 1.332.531 1.62 1.036 1.62.297 0 .549-.072.72-.171l.108.513c-.243.136-.612.207-.955.207-1.044 0-1.584-.854-1.584-2.188 0-1.413.594-2.296 1.468-2.296.891 0 1.242.937 1.242 1.927 0 .162 0 .279-.009.388h-2.026zm1.368-.514c.018-.873-.315-1.261-.648-1.261-.45 0-.684.667-.711 1.261h1.359zM96.64 39.898l-1.386-6.067h.738l.594 2.845c.144.684.324 1.558.432 2.331h.027c.09-.783.261-1.629.405-2.35l.576-2.826h.738l-1.414 6.067h-.71zm2.898-2.115c.009 1.332.531 1.62 1.036 1.62.297 0 .549-.072.72-.171l.108.513c-.243.136-.612.207-.955.207-1.044 0-1.584-.854-1.584-2.188 0-1.413.594-2.296 1.468-2.296.891 0 1.242.937 1.242 1.927 0 .162 0 .279-.009.388h-2.026zm1.369-.514c.018-.873-.315-1.261-.648-1.261-.45 0-.684.667-.711 1.261h1.359zm1.403-.603c0-.368-.027-.801-.036-1.125h.622l.036.685h.018c.144-.414.513-.757.918-.757.054 0 .099.01.144.01v.711c-.045-.009-.09-.009-.144-.009-.441 0-.765.404-.837.909a2.65 2.65 0 0 0-.027.396v2.413h-.693v-3.233zm2.124 2.512c.153.099.423.225.702.225.396 0 .639-.243.639-.63 0-.333-.117-.559-.558-.855-.567-.369-.873-.738-.873-1.242 0-.702.522-1.207 1.197-1.207.342 0 .603.117.783.226l-.189.522a1.024 1.024 0 0 0-.576-.189.534.534 0 0 0-.567.549c0 .298.108.459.54.757.504.324.9.72.9 1.323 0 .873-.594 1.296-1.305 1.296-.324 0-.675-.099-.864-.252l.171-.523zm3.465-4.762c.009.27-.162.45-.423.45-.225 0-.396-.181-.396-.45 0-.271.18-.45.405-.45.252-.001.414.179.414.45zm-.747 5.482v-4.357h.693v4.357h-.693zm4.329-2.179c0 1.684-.784 2.251-1.45 2.251-.783 0-1.414-.712-1.414-2.242 0-1.593.711-2.26 1.458-2.26.776 0 1.406.73 1.406 2.251zm-2.169 0c0 .721.126 1.701.756 1.701.594 0 .711-1.026.711-1.701 0-.666-.117-1.692-.729-1.692-.621 0-.738 1.026-.738 1.692zm2.943-1.053c0-.513-.027-.773-.036-1.125h.603l.036.522h.018c.189-.352.54-.595.999-.595.604 0 1.054.45 1.054 1.504v2.926h-.693v-2.809c0-.514-.099-1.035-.603-1.035-.288 0-.567.243-.657.711a2.445 2.445 0 0 0-.027.387v2.746h-.693v-3.232zm141.604-2.835h.693v5.482h1.71v.585h-2.403v-6.067zm3.384 3.952c.009 1.332.531 1.62 1.036 1.62.297 0 .549-.072.72-.171l.108.513c-.244.136-.613.207-.955.207-1.044 0-1.584-.854-1.584-2.188 0-1.413.594-2.296 1.467-2.296.892 0 1.242.937 1.242 1.927 0 .162 0 .279-.008.388h-2.026zm1.368-.513c.019-.873-.314-1.261-.648-1.261-.449 0-.684.667-.711 1.261h1.359zm1.412-.604c0-.513-.027-.773-.035-1.125h.603l.036.522h.018a1.106 1.106 0 0 1 1-.595c.604 0 1.053.45 1.053 1.504v2.926h-.693V37.09c0-.514-.099-1.035-.603-1.035-.288 0-.567.243-.657.711a2.445 2.445 0 0 0-.027.387v2.746h-.693v-3.233zm6.311-1.125c-.01.307-.037.693-.037 1.359v2.439c0 1.144-.144 1.576-.432 1.891-.261.298-.675.469-1.161.469-.369 0-.729-.09-.954-.216l.162-.541c.171.091.459.189.811.189.549 0 .891-.342.891-1.332v-.441h-.018a.887.887 0 0 1-.838.531c-.773 0-1.278-.873-1.278-2.152 0-1.602.729-2.269 1.368-2.269.469 0 .685.307.811.567h.018l.037-.495h.62zm-.721 1.504a1.16 1.16 0 0 0-.036-.315c-.081-.297-.233-.666-.63-.666-.504 0-.774.675-.774 1.639 0 1.116.351 1.62.774 1.62.207 0 .477-.099.621-.621.036-.135.045-.271.045-.396v-1.261zm2.492-2.656v1.152h.838v.531h-.838v2.584c0 .567.207.72.459.72.108 0 .199-.009.279-.026l.027.531a1.524 1.524 0 0 1-.514.071c-.27 0-.513-.071-.684-.261-.172-.198-.262-.495-.262-1.099v-2.521h-.531v-.531h.531v-.954l.695-.197zm1.45-.72h.693v2.34h.018a1.23 1.23 0 0 1 .36-.378c.162-.099.333-.162.585-.162.549 0 1.018.441 1.018 1.54v2.89h-.693V37.09c0-.531-.117-1.035-.586-1.035-.323 0-.566.233-.674.692-.019.1-.027.226-.027.334v2.817h-.693v-6.229zM13.428 25.263c-1.107 0-1.593-1.288-1.593-2.98 0-1.818.558-3.016 1.656-3.016 1.17 0 1.567 1.368 1.567 2.979 0 2.116-.72 3.017-1.621 3.017h-.009zm.045-.82c.45 0 .621-.811.621-2.179 0-1.314-.162-2.179-.63-2.179-.459 0-.675.792-.666 2.179-.009 1.396.189 2.179.666 2.179h.009zm-3.996 10.53h-.018l-.981.531-.171-.747 1.288-.711h.828v5.852h-.946v-4.925zm3.042 4.997c-.315 0-.576-.262-.576-.666 0-.388.271-.667.585-.667.333 0 .585.252.585.667 0 .404-.234.666-.585.666h-.009zm1.943 0c-.315 0-.576-.262-.576-.666 0-.388.271-.667.585-.667.333 0 .585.252.585.667 0 .404-.234.666-.585.666h-.009zm3.034-.072v-1.494h-1.98v-.657l1.909-3.7h.927v3.583h.603v.774h-.603v1.494h-.856zm0-2.269v-1.404c0-.352.027-.702.054-1.045h-.027c-.162.388-.288.657-.45 1l-.711 1.431v.019h1.134zm157.121 10.996c.288-.054.648-.09.955-.09.378 0 .873.108 1.143.423.234.262.334.63.334.981 0 .666-.279 1.261-.612 1.62-.379.414-.945.612-1.44.612-.153 0-.288-.018-.405-.036l-.469 2.494h-.639l1.133-6.004zm.081 2.954c.108.027.207.036.352.036.927 0 1.332-.919 1.332-1.603 0-.55-.216-.928-.873-.928-.117 0-.243.019-.342.036l-.469 2.459zm4.051 3.051c.009-.243.036-.486.063-.828h-.019c-.432.738-.819.9-1.144.9-.504 0-.81-.441-.81-1.225 0-1.323.702-3.277 2.386-3.277.306 0 .621.063.801.145l-.504 2.493c-.117.586-.198 1.306-.189 1.792h-.584zm.549-3.871a1.187 1.187 0 0 0-.27-.027c-.973 0-1.513 1.594-1.54 2.548-.009.55.1.864.405.864.441 0 .909-.864 1.081-1.729l.324-1.656zm1.89-.486l.144 2.439c.019.396.027.648.045 1.081h.019c.117-.379.243-.712.387-1.099l.9-2.422h.666l-1.458 3.538c-.396.973-.855 1.782-1.432 2.277-.261.217-.513.379-.675.433l-.262-.549c.189-.091.424-.226.648-.414.271-.226.567-.622.702-.945.036-.091.045-.153.036-.243l-.387-4.097h.667zm1.97 4.357l1.17-6.229h.657l-1.188 6.229h-.639zm4.681-3.006c0 1.099-.54 3.079-1.872 3.079-.811 0-1.062-.702-1.062-1.477 0-1.171.63-3.025 1.927-3.025.872 0 1.007.838 1.007 1.423zm-2.277 1.539c0 .495.036 1.009.495 1.009.792 0 1.125-1.854 1.125-2.593 0-.45-.08-.838-.459-.838-.72 0-1.161 1.567-1.161 2.422zm4.554 1.467c.009-.243.035-.486.062-.828h-.018c-.433.738-.819.9-1.144.9-.504 0-.811-.441-.811-1.225 0-1.323.702-3.277 2.386-3.277.307 0 .621.063.802.145l-.505 2.493c-.116.586-.197 1.306-.188 1.792h-.584zm.549-3.871a1.19 1.19 0 0 0-.271-.027c-.972 0-1.512 1.594-1.539 2.548-.009.55.099.864.405.864.441 0 .909-.864 1.08-1.729l.325-1.656zm4.5-2.358l-.891 4.699a12.147 12.147 0 0 0-.198 1.53h-.559l.054-.685h-.018c-.216.45-.621.757-1.044.757-.55 0-.883-.514-.883-1.306 0-1.485.783-3.196 2.062-3.196.171 0 .352.072.459.162l.369-1.962h.649zm-1.143 2.529a.47.47 0 0 0-.404-.198c-.838 0-1.324 1.647-1.324 2.539 0 .513.117.873.478.873.315 0 .738-.396.909-1.26l.341-1.954zM10.863 49.616H9.306l-.18 1.278c.063-.009.126-.009.198-.009.279.009.783.135 1.107.441.315.306.495.747.495 1.341 0 1.152-.738 2.035-1.917 2.035-.387 0-.819-.1-1.053-.243l.171-.766c.198.108.513.217.828.217.585 0 1.026-.405 1.026-1.152 0-.855-.576-1.171-1.296-1.171-.18 0-.315.009-.432.027l.342-2.836h2.269v.838zm1.538 5.087c-.315 0-.576-.262-.576-.666 0-.388.271-.667.585-.667.333 0 .585.252.585.667 0 .404-.234.666-.585.666h-.009zm1.944 0c-.315 0-.576-.262-.576-.666 0-.388.271-.667.585-.667.333 0 .585.252.585.667 0 .404-.234.666-.585.666h-.009zm1.368-3.224c0-.495-.018-.846-.036-1.233h.837l.045.514h.018a1.176 1.176 0 0 1 1.036-.585c.738 0 1.125.566 1.125 1.584v2.872h-.963v-2.782c0-.44-.09-.864-.513-.864-.234 0-.45.181-.541.541a1.49 1.49 0 0 0-.045.396v2.71h-.963v-3.153zm166.43 15.273c-.045-.802-.091-1.693-.063-2.377h-.036a34.798 34.798 0 0 1-.486 2.106l-.747 2.845h-.44l-.712-2.728a27.18 27.18 0 0 1-.495-2.224h-.026c0 .711-.036 1.558-.072 2.422l-.117 2.565h-.621l.36-6.067h.747l.711 2.772c.207.801.36 1.396.486 2.089h.027c.116-.693.252-1.27.449-2.089l.685-2.772h.774l.351 6.067h-.647l-.128-2.609zm2.383.792l-.405 1.818h-.666l1.387-6.067h.765l1.351 6.067h-.684l-.405-1.818h-1.343zm1.252-.558l-.315-1.539c-.09-.433-.171-.937-.243-1.387h-.036c-.072.459-.162.981-.243 1.387l-.314 1.539h1.151zm4.401 2.268c-.188.1-.486.162-.864.162-1.188 0-2.034-.954-2.034-3.016 0-2.395 1.188-3.16 2.143-3.16.369 0 .63.072.756.153l-.153.585a1.337 1.337 0 0 0-.611-.126c-.648 0-1.405.63-1.405 2.485 0 1.854.685 2.466 1.423 2.466.261 0 .495-.062.64-.135l.105.586zM7.051 66.211c0-.495-.018-.846-.036-1.233h.837l.045.514h.018a1.176 1.176 0 0 1 1.036-.585c.738 0 1.125.566 1.125 1.584v2.872h-.963v-2.782c0-.44-.09-.864-.513-.864-.234 0-.45.181-.541.541a1.49 1.49 0 0 0-.045.396v2.71h-.963v-3.153zm4.482 3.224c-.315 0-.576-.262-.576-.666 0-.388.271-.667.585-.667.333 0 .585.252.585.667 0 .404-.234.666-.585.666h-.009zm1.944 0c-.315 0-.576-.262-.576-.666 0-.388.271-.667.585-.667.333 0 .585.252.585.667 0 .404-.234.666-.585.666h-.009zm1.368-3.224c0-.495-.018-.846-.036-1.233h.837l.045.522h.018c.208-.333.567-.594 1.026-.594.45 0 .774.216.937.63h.018c.108-.189.27-.36.432-.468.18-.108.387-.162.612-.162.703 0 1.099.54 1.099 1.62v2.836h-.955v-2.656c0-.53-.072-.999-.495-.999-.252 0-.45.189-.531.514-.027.09-.036.216-.036.351v2.791h-.955v-2.809c0-.388-.054-.847-.486-.847-.234 0-.459.181-.54.531a2.03 2.03 0 0 0-.036.352v2.772h-.955v-3.151zm130.932 11.907a4.028 4.028 0 0 1 1.008-.117c.558 0 1.026.135 1.341.45.297.288.45.729.45 1.251 0 .559-.135.937-.369 1.242-.333.45-.891.676-1.431.676-.117 0-.207 0-.306-.009v2.484h-.693v-5.977zm.694 2.907c.081.019.153.027.27.027.684 0 1.144-.45 1.144-1.306 0-.621-.261-1.179-1.026-1.179-.162 0-.297.018-.387.045v2.413zm4.338 3.07l-.045-.459h-.027c-.189.333-.495.531-.864.531-.585 0-1.036-.495-1.036-1.242 0-1.09.874-1.576 1.855-1.585v-.135c0-.585-.145-.99-.693-.99-.27 0-.513.09-.72.225l-.153-.486c.18-.135.585-.288 1.018-.288.873 0 1.251.576 1.251 1.558v1.882c0 .333 0 .711.045.99h-.631zm-.099-2.251c-.36 0-1.197.063-1.197 1.009 0 .567.288.774.531.774.306 0 .567-.226.648-.657.018-.081.018-.171.018-.243v-.883zm4.275-3.978v5.186c0 .297.027.792.036 1.044h-.594l-.045-.549h-.027c-.144.314-.45.621-.909.621-.738 0-1.27-.802-1.27-2.233 0-1.548.64-2.269 1.314-2.269.315 0 .621.153.792.522h.018v-2.322h.685zm-.684 3.528c0-.09 0-.188-.009-.288-.045-.45-.315-.846-.648-.846-.576 0-.774.801-.774 1.674 0 .919.234 1.657.738 1.657.216 0 .513-.117.666-.747a1.37 1.37 0 0 0 .027-.288v-1.162zm4.275-3.528v5.186c0 .297.027.792.036 1.044h-.594l-.045-.549h-.027c-.144.314-.45.621-.909.621-.738 0-1.27-.802-1.27-2.233 0-1.548.64-2.269 1.314-2.269.315 0 .621.153.792.522h.018v-2.322h.685zm-.684 3.528c0-.09 0-.188-.009-.288-.045-.45-.315-.846-.648-.846-.576 0-.774.801-.774 1.674 0 .919.234 1.657.738 1.657.216 0 .513-.117.666-.747a1.37 1.37 0 0 0 .027-.288v-1.162zm2.402-2.781c.009.27-.162.45-.423.45-.225 0-.396-.181-.396-.45 0-.271.18-.45.405-.45.252 0 .414.179.414.45zm-.747 5.482v-4.357h.693v4.357h-.693zm1.656-3.232c0-.513-.027-.773-.036-1.125h.603l.036.522h.018c.189-.352.54-.595.999-.595.604 0 1.054.45 1.054 1.504v2.926h-.693v-2.809c0-.514-.099-1.035-.603-1.035-.288 0-.567.243-.657.711a2.445 2.445 0 0 0-.027.387v2.746h-.693v-3.232zm6.31-1.125c-.009.307-.036.693-.036 1.359v2.439c0 1.144-.144 1.576-.432 1.891-.261.298-.675.469-1.161.469-.369 0-.729-.09-.954-.216l.162-.541c.171.091.459.189.811.189.549 0 .891-.342.891-1.332v-.441h-.018a.886.886 0 0 1-.837.531c-.774 0-1.279-.873-1.279-2.152 0-1.602.729-2.269 1.369-2.269.468 0 .684.307.81.567h.018l.036-.495h.62zm-.72 1.504a1.16 1.16 0 0 0-.036-.315c-.081-.297-.234-.666-.63-.666-.504 0-.774.675-.774 1.639 0 1.116.351 1.62.774 1.62.207 0 .477-.099.621-.621.036-.135.045-.271.045-.396v-1.261zm4.625-3.376c-.513.81-.937 2.025-.937 3.664 0 1.611.423 2.826.937 3.646h-.54c-.468-.684-.991-1.891-.991-3.655.018-1.764.522-2.979.991-3.654h.54zm.666 6.229c.009-.252.036-.747.036-1.044v-5.186h.694v2.386h.018c.226-.433.549-.586.918-.586.676 0 1.188.783 1.188 2.206 0 1.575-.647 2.296-1.323 2.296-.459 0-.693-.271-.864-.64h-.026l-.046.567h-.595zm.73-1.539c0 .099 0 .197.026.27.162.648.46.766.648.766.559 0 .756-.757.756-1.684 0-.873-.207-1.647-.765-1.647-.324 0-.595.405-.648.774-.018.099-.018.207-.018.306v1.215zm2.906-4.69h.693v6.229h-.693v-6.229zm4.393 4.05c0 1.684-.783 2.251-1.45 2.251-.783 0-1.413-.712-1.413-2.242 0-1.593.711-2.26 1.458-2.26.774 0 1.405.73 1.405 2.251zm-2.17 0c0 .721.126 1.701.756 1.701.595 0 .711-1.026.711-1.701 0-.666-.116-1.692-.729-1.692-.62 0-.738 1.026-.738 1.692zm5.068 2.071c-.153.091-.414.162-.721.162-.954 0-1.594-.765-1.594-2.205 0-1.252.631-2.269 1.72-2.269.234 0 .486.062.612.135l-.135.567a1.134 1.134 0 0 0-.495-.117c-.693 0-1.009.828-1.009 1.684 0 1.017.388 1.629 1.026 1.629.189 0 .343-.045.505-.117l.091.531zm1.277-2.224h.018c.081-.171.153-.342.234-.485l.864-1.54h.747l-1.152 1.837 1.251 2.521h-.773l-.945-2.053-.243.405v1.647h-.693v-6.229h.693v3.897zm6.039 2.224c-.153.091-.414.162-.72.162-.954 0-1.594-.765-1.594-2.205 0-1.252.63-2.269 1.72-2.269.233 0 .486.062.612.135l-.136.567a1.13 1.13 0 0 0-.495-.117c-.693 0-1.008.828-1.008 1.684 0 1.017.387 1.629 1.026 1.629.188 0 .342-.045.504-.117l.091.531zm1.341-5.374c.009.27-.162.45-.424.45-.225 0-.396-.181-.396-.45 0-.271.18-.45.405-.45.253 0 .415.179.415.45zm-.747 5.482v-4.357h.692v4.357h-.692zm1.646-2.998c0-.666-.027-1.053-.036-1.359h.621l.036.559h.018c.234-.469.576-.631.919-.631.756 0 1.26.811 1.26 2.242 0 1.611-.666 2.26-1.35 2.26-.405 0-.64-.262-.757-.505h-.018v2.161h-.693v-4.727zm.694 1.396c0 .135 0 .261.026.36.136.621.45.738.64.738.576 0 .756-.792.756-1.675 0-.9-.216-1.656-.765-1.656-.315 0-.595.396-.64.792-.018.108-.018.216-.018.333v1.108zm2.906-4.627h.693v2.34h.018c.091-.152.226-.287.36-.378.162-.099.333-.162.585-.162.55 0 1.018.441 1.018 1.54v2.89h-.693v-2.809c0-.531-.117-1.035-.585-1.035-.324 0-.567.233-.675.692-.019.1-.027.226-.027.334v2.817h-.693v-6.229zm4.131 4.114c.01 1.332.531 1.62 1.036 1.62.297 0 .549-.072.72-.171l.108.513c-.243.136-.612.207-.955.207-1.044 0-1.584-.854-1.584-2.188 0-1.413.594-2.296 1.468-2.296.891 0 1.242.937 1.242 1.927 0 .162 0 .279-.009.388h-2.026zm1.369-.514c.018-.873-.315-1.261-.648-1.261-.45 0-.685.667-.711 1.261h1.359zm1.403-.603c0-.368-.027-.801-.036-1.125h.621l.036.685h.018c.145-.414.514-.757.919-.757.054 0 .099.01.144.01v.711c-.045-.009-.09-.009-.144-.009-.441 0-.766.404-.838.909a2.658 2.658 0 0 0-.026.396v2.413h-.693v-3.233zm2.124 2.512c.152.099.423.225.702.225.396 0 .639-.243.639-.63 0-.333-.117-.559-.558-.855-.567-.369-.873-.738-.873-1.242 0-.702.521-1.207 1.197-1.207.342 0 .603.117.783.226l-.189.522a1.024 1.024 0 0 0-.576-.189.534.534 0 0 0-.567.549c0 .298.108.459.54.757.505.324.9.72.9 1.323 0 .873-.594 1.296-1.305 1.296-.324 0-.676-.099-.864-.252l.171-.523zm6.805-1.459c0 1.684-.783 2.251-1.45 2.251-.783 0-1.413-.712-1.413-2.242 0-1.593.711-2.26 1.458-2.26.774 0 1.405.73 1.405 2.251zm-2.17 0c0 .721.126 1.701.756 1.701.595 0 .711-1.026.711-1.701 0-.666-.116-1.692-.729-1.692-.621 0-.738 1.026-.738 1.692zm2.943-1.053c0-.513-.027-.773-.036-1.125h.603l.036.522h.019c.188-.352.54-.595.999-.595.604 0 1.054.45 1.054 1.504v2.926h-.693v-2.809c0-.514-.1-1.035-.604-1.035-.288 0-.567.243-.657.711a2.445 2.445 0 0 0-.027.387v2.746h-.692v-3.232zm3.645-2.997h.693v6.229h-.693v-6.229zm2.079 1.872l.576 2.503c.081.342.126.63.18.9h.019c.045-.243.116-.576.188-.892l.514-2.512h.684l-.711 2.8c-.271 1.099-.567 2.151-1.08 2.809-.307.388-.631.595-.783.667l-.252-.595c.197-.107.414-.297.612-.549.18-.226.323-.522.396-.729a.609.609 0 0 0 .045-.216c0-.054 0-.108-.018-.162l-1.099-4.024h.729zm2.492 5.437c.514-.81.937-2.043.937-3.664 0-1.62-.423-2.836-.937-3.646h.54c.469.666.99 1.863.99 3.646-.018 1.783-.521 2.971-.99 3.664h-.54zM7.091 80.944c0-.495-.018-.846-.036-1.233h.837l.045.522h.018c.207-.333.567-.594 1.026-.594.45 0 .774.216.937.63h.018c.108-.189.27-.36.432-.468.18-.108.387-.162.612-.162.703 0 1.099.54 1.099 1.62v2.836h-.955v-2.656c0-.53-.072-.999-.495-.999-.252 0-.45.189-.531.514-.027.09-.036.216-.036.351v2.791h-.954v-2.809c0-.388-.054-.847-.486-.847-.234 0-.459.181-.54.531a2.03 2.03 0 0 0-.036.352v2.772h-.955v-3.151zm6.453 3.223c-.315 0-.576-.262-.576-.666 0-.388.271-.667.585-.667.333 0 .585.252.585.667 0 .404-.234.666-.585.666h-.009zm1.944 0c-.315 0-.576-.262-.576-.666 0-.388.271-.667.585-.667.333 0 .585.252.585.667 0 .404-.234.666-.585.666h-.009zm1.368-3.079c0-.594-.018-1.009-.036-1.378h.837l.054.531h.018c.207-.414.54-.603.918-.603.873 0 1.323.936 1.323 2.25 0 1.603-.684 2.278-1.396 2.278-.387 0-.621-.234-.747-.459h-.018v2.115h-.955v-4.734zm.955 1.405c0 .135.018.271.045.369.117.423.342.514.504.514.486 0 .648-.693.648-1.468 0-.873-.207-1.459-.648-1.459-.243 0-.459.271-.513.567-.027.1-.036.207-.036.324v1.153z"/></svg>