<svg xmlns="http://www.w3.org/2000/svg" viewBox="0 0 287.306 113.025"><path fill="none" stroke="#000" d="M106.197 44.025h35.704" stroke-linecap="round" stroke-linejoin="round"/><path d="M141.025 47.026l5.182-2.992-5.182-2.991z"/><path fill="none" stroke="#000" d="M92.399 44.923v35.704" stroke-linecap="round" stroke-linejoin="round"/><path d="M89.398 79.751l2.992 5.182 2.991-5.182z"/><path fill="none" stroke="#000" d="M173.399 58.025v22.602" stroke-linecap="round" stroke-linejoin="round"/><path d="M170.398 79.751l2.991 5.182 2.992-5.182zM176.4 58.9l-2.991-5.181-2.993 5.181z"/><path fill="#b2d4eb" fill-rule="evenodd" d="M3.38 3.38h53.186v17.312H3.38z" clip-rule="evenodd"/><path fill="none" stroke="#000" d="M3.38 3.38h53.186v17.312H3.38z" stroke-linecap="round" stroke-linejoin="round"/><path fill="#b2d4eb" fill-rule="evenodd" d="M65.806 35.369h53.186v17.312H65.806z" clip-rule="evenodd"/><path fill="none" stroke="#000" d="M65.806 35.369h53.186v17.312H65.806zm121.392 8.656h35.703" stroke-linecap="round" stroke-linejoin="round"/><path d="M222.026 47.026l5.181-2.992-5.181-2.991z"/><path fill="#fddfbb" fill-rule="evenodd" d="M146.806 35.369h53.186v17.312h-53.186z" clip-rule="evenodd"/><path fill="none" stroke="#000" d="M146.806 35.369h53.186v17.312h-53.186z" stroke-linecap="round" stroke-linejoin="round"/><path fill="#fddfbb" fill-rule="evenodd" d="M227.806 35.369h53.186v17.312h-53.186z" clip-rule="evenodd"/><path fill="none" stroke="#000" d="M227.806 35.369h53.186v17.312h-53.186zM123.649 94.025h18.252" stroke-linecap="round" stroke-linejoin="round"/><path d="M141.025 97.026l5.182-2.992-5.182-2.991zm-16.501-6.002l-5.181 2.992 5.181 2.991z"/><path fill="#ecbec0" fill-rule="evenodd" d="M65.806 85.369h53.186v17.312H65.806z" clip-rule="evenodd"/><path fill="none" stroke="#000" d="M65.806 85.369h53.186v17.312H65.806z" stroke-linecap="round" stroke-linejoin="round"/><path fill="#ecbec0" fill-rule="evenodd" d="M146.806 85.369h53.186v17.312h-53.186z" clip-rule="evenodd"/><path fill="none" stroke="#000" d="M146.806 85.369h53.186v17.312h-53.186z" stroke-linecap="round" stroke-linejoin="round"/><path fill="#b2d4eb" fill-rule="evenodd" d="M227.806 85.369h53.186v17.312h-53.186z" clip-rule="evenodd"/><path fill="none" stroke="#000" d="M227.806 85.369h53.186v17.312h-53.186zm-162 8.656H29.973v-67.75" stroke-linecap="round" stroke-linejoin="round"/><path d="M32.974 27.15l-2.992-5.181-2.991 5.181z"/><path fill="none" stroke="#000" d="M173.399 102.681v9.844h-152v-86.25" stroke-linecap="round" stroke-linejoin="round"/><path d="M24.4 27.15l-2.992-5.181-2.991 5.181z"/><path fill="none" stroke="#000" d="M60.899 44.025h-21.75v-17.75" stroke-linecap="round" stroke-linejoin="round"/><path d="M42.15 27.15l-2.992-5.181-2.991 5.181zm17.873 19.876l5.182-2.992-5.182-2.991z"/><path fill="none" stroke="#000" d="M173.399 35.15V15.678h-111.5" stroke-linecap="round" stroke-linejoin="round"/><path d="M62.774 12.677l-5.181 2.991 5.181 2.992z"/><path fill="none" stroke="#000" d="M254.399 35.15V7.025h-192.5" stroke-linecap="round" stroke-linejoin="round"/><path d="M62.774 4.024l-5.181 2.992 5.181 2.991z"/><path fill="none" stroke="#000" d="M202.899 81.775l21.907-25" stroke-linecap="round" stroke-linejoin="round"/><path d="M226.486 59.411l1.165-5.869-5.664 1.926zm-25.267 19.728l-1.165 5.868 5.664-1.925zM24.457 11.445c0-.513-.027-.773-.036-1.125h.603l.036.522h.018c.189-.352.54-.595.999-.595.604 0 1.054.441 1.054 1.504v2.926h-.693v-2.809c0-.522-.099-1.035-.603-1.035-.288 0-.567.243-.648.711a1.57 1.57 0 0 0-.036.387v2.746h-.693v-3.232zm4.13 1.117c.009 1.341.531 1.62 1.026 1.62.306 0 .549-.072.72-.162l.117.504c-.243.136-.612.207-.963.207-1.035 0-1.576-.846-1.576-2.188 0-1.413.594-2.296 1.468-2.296.882 0 1.242.937 1.242 1.918 0 .171-.009.288-.018.396h-2.016zm1.369-.513c.009-.873-.315-1.261-.648-1.261-.45 0-.684.667-.711 1.261h1.359zm1.764-1.729l.423 2.134c.09.468.18.937.234 1.387h.036c.063-.45.171-.955.27-1.369l.504-2.151h.531l.477 2.089c.108.486.207.945.279 1.432h.036c.054-.459.135-.909.234-1.404l.414-2.116h.693l-1.098 4.357h-.567l-.504-2.115a12.152 12.152 0 0 1-.243-1.306h-.018c-.072.513-.153.918-.252 1.332l-.522 2.089h-.585L31 10.322h.72zm51.095 36.239c-.153.091-.414.162-.72.162-.954 0-1.594-.765-1.594-2.205 0-1.252.63-2.269 1.72-2.269.234 0 .486.062.612.144l-.135.559a1.13 1.13 0 0 0-.495-.117c-.702 0-1.008.828-1.008 1.684 0 1.017.387 1.629 1.026 1.629.18 0 .342-.036.495-.117l.099.53zm.594-6.122h.693v2.34h.018c.09-.152.225-.287.369-.387.153-.099.333-.153.576-.153.549 0 1.018.433 1.018 1.54v2.89h-.693v-2.809c0-.54-.117-1.035-.585-1.035-.324 0-.567.233-.675.692-.018.1-.027.226-.027.324v2.827h-.693v-6.229zm4.131 4.115c.009 1.341.531 1.62 1.026 1.62.306 0 .549-.072.72-.162l.117.504c-.243.136-.612.207-.963.207-1.035 0-1.576-.846-1.576-2.188 0-1.413.594-2.296 1.468-2.296.882 0 1.242.937 1.242 1.918 0 .171-.009.288-.018.396H87.54zm1.368-.514c.009-.873-.315-1.261-.648-1.261-.45 0-.684.667-.711 1.261h1.359zm3.537 2.521c-.153.091-.414.162-.72.162-.954 0-1.594-.765-1.594-2.205 0-1.252.63-2.269 1.72-2.269.234 0 .486.062.612.144l-.135.559a1.13 1.13 0 0 0-.495-.117c-.702 0-1.008.828-1.008 1.684 0 1.017.387 1.629 1.026 1.629.18 0 .342-.036.495-.117l.099.53zm1.278-2.224h.018c.081-.171.153-.342.234-.485l.864-1.54h.747l-1.152 1.837 1.261 2.521h-.775l-.945-2.053-.252.405v1.647h-.693v-6.229h.693v3.897zm2.789-2.7c-.225 0-.396-.181-.396-.45 0-.271.18-.45.405-.45.252 0 .414.18.414.45s-.162.45-.414.45h-.009zm-.324 5.032V42.31h.693v4.357h-.693zm1.656-3.232c0-.513-.027-.773-.036-1.125h.603l.036.522h.018c.189-.352.54-.595.999-.595.604 0 1.054.441 1.054 1.504v2.926h-.693v-2.809c0-.522-.099-1.035-.603-1.035-.288 0-.567.243-.648.711a1.57 1.57 0 0 0-.036.387v2.746h-.693v-3.232zm6.274 2.673c0 1.144-.144 1.576-.432 1.9-.27.288-.675.459-1.161.459-.369 0-.729-.09-.954-.216l.162-.541c.171.091.459.189.801.189.549 0 .892-.342.892-1.332v-.441h-.018a.873.873 0 0 1-.828.531c-.774 0-1.279-.873-1.279-2.152 0-1.611.72-2.269 1.369-2.269.459 0 .675.307.81.559h.018l.036-.486h.621c-.009.297-.036.685-.036 1.359v2.44zm-.693-2.295c0-.117-.009-.226-.036-.324-.072-.288-.234-.657-.63-.657-.495 0-.765.675-.765 1.639 0 1.116.351 1.62.765 1.62.216 0 .486-.099.621-.621.045-.135.045-.271.045-.396v-1.261zm58.284 2.746c-.153.091-.414.162-.721.162-.954 0-1.594-.765-1.594-2.205 0-1.252.631-2.269 1.72-2.269.234 0 .486.062.612.144l-.135.559a1.134 1.134 0 0 0-.495-.117c-.702 0-1.009.828-1.009 1.684 0 1.017.388 1.629 1.026 1.629.181 0 .343-.036.495-.117l.101.53zm1.764.18c-.783 0-1.414-.712-1.414-2.242 0-1.593.712-2.26 1.459-2.26.783 0 1.404.721 1.404 2.242 0 1.692-.774 2.26-1.44 2.26h-.009zm.036-.55c.594 0 .72-1.017.72-1.701 0-.675-.126-1.701-.738-1.701-.621 0-.738 1.026-.738 1.701 0 .721.126 1.701.747 1.701h.009zm2.187-2.754c0-.513-.027-.773-.036-1.125h.603l.036.522h.019c.188-.352.54-.595.999-.595.604 0 1.054.441 1.054 1.504v2.926h-.693v-2.809c0-.522-.1-1.035-.604-1.035-.288 0-.567.243-.648.711a1.62 1.62 0 0 0-.036.387v2.746h-.692v-3.232zm3.644 0c0-.513-.027-.773-.036-1.125h.604l.036.522h.018c.189-.352.54-.595.999-.595.604 0 1.054.441 1.054 1.504v2.926h-.693v-2.809c0-.522-.099-1.035-.603-1.035-.288 0-.567.243-.648.711a1.57 1.57 0 0 0-.036.387v2.746h-.693v-3.232zm4.131 1.117c.01 1.341.531 1.62 1.026 1.62.307 0 .55-.072.721-.162l.117.504c-.243.136-.612.207-.964.207-1.035 0-1.575-.846-1.575-2.188 0-1.413.594-2.296 1.468-2.296.882 0 1.242.937 1.242 1.918 0 .171-.009.288-.019.396h-2.016zm1.369-.514c.009-.873-.315-1.261-.648-1.261-.45 0-.685.667-.711 1.261h1.359zm3.537 2.521c-.153.091-.414.162-.721.162-.954 0-1.594-.765-1.594-2.205 0-1.252.631-2.269 1.72-2.269.234 0 .486.062.612.144l-.135.559a1.134 1.134 0 0 0-.495-.117c-.702 0-1.009.828-1.009 1.684 0 1.017.388 1.629 1.026 1.629.181 0 .343-.036.495-.117l.101.53zm1.575-5.267v1.018h.837v.522h-.837v2.593c0 .576.197.72.45.72.116 0 .207-.009.278-.026l.036.531a1.522 1.522 0 0 1-.513.071c-.279 0-.522-.071-.685-.261-.18-.198-.261-.495-.261-1.099v-2.529h-.531v-.522h.531v-.738l.695-.28zm1.862 3.26c.01 1.341.531 1.62 1.026 1.62.307 0 .55-.072.721-.162l.117.504c-.243.136-.612.207-.964.207-1.035 0-1.575-.846-1.575-2.188 0-1.413.594-2.296 1.468-2.296.882 0 1.242.937 1.242 1.918 0 .171-.009.288-.019.396h-2.016zm1.369-.514c.009-.873-.315-1.261-.648-1.261-.45 0-.685.667-.711 1.261h1.359zm4.041-3.601v5.186c0 .297.027.792.036 1.044h-.595l-.045-.54h-.036c-.135.306-.45.612-.909.612-.738 0-1.27-.792-1.27-2.233 0-1.548.64-2.269 1.314-2.269.315 0 .622.145.793.514h.018v-2.313h.694zm-.693 3.529c0-.09 0-.188-.009-.288-.036-.45-.315-.846-.648-.846-.576 0-.774.801-.774 1.674 0 .919.234 1.657.738 1.657.217 0 .514-.117.666-.747.027-.081.027-.181.027-.288v-1.162zm55.805 2.593c-.154.091-.414.162-.721.162-.954 0-1.594-.765-1.594-2.205 0-1.252.631-2.269 1.72-2.269.233 0 .486.062.612.144l-.135.559a1.136 1.136 0 0 0-.496-.117c-.701 0-1.008.828-1.008 1.684 0 1.017.387 1.629 1.026 1.629.181 0 .343-.036.495-.117l.101.53zm1.764.18c-.783 0-1.414-.712-1.414-2.242 0-1.593.711-2.26 1.459-2.26.783 0 1.404.721 1.404 2.242 0 1.692-.774 2.26-1.44 2.26h-.009zm.035-.55c.595 0 .721-1.017.721-1.701 0-.675-.126-1.701-.738-1.701-.621 0-.738 1.026-.738 1.701 0 .721.126 1.701.747 1.701h.008zm2.188-2.754c0-.513-.027-.773-.037-1.125h.613l.035.531h.018c.189-.351.514-.604.973-.604.405 0 .756.189.918.657h.019c.117-.216.271-.387.423-.495.18-.107.379-.162.604-.162.594 0 1.053.424 1.053 1.54v2.89h-.693V43.93c0-.566-.08-1.116-.603-1.116-.288 0-.54.243-.64.657-.026.108-.026.243-.026.388v2.809h-.693v-2.863c0-.477-.081-.99-.595-.99-.287 0-.566.243-.647.712a2.163 2.163 0 0 0-.027.369v2.772h-.692v-3.233zm5.57.234c0-.666-.027-1.053-.036-1.359h.622l.035.549h.018c.234-.459.586-.621.919-.621.765 0 1.261.802 1.261 2.242 0 1.62-.666 2.26-1.342 2.26-.414 0-.648-.252-.766-.495h-.018v2.151h-.693v-4.727zm.693 1.404c0 .126.009.252.036.36.135.621.44.729.63.729.576 0 .766-.792.766-1.666 0-.909-.217-1.665-.766-1.665-.314 0-.604.396-.639.792-.027.108-.027.216-.027.333v1.117zm2.907-4.636h.693v6.229h-.693v-6.229zm2.205 4.115c.01 1.341.531 1.62 1.026 1.62.306 0 .55-.072.72-.162l.117.504c-.242.136-.611.207-.963.207-1.035 0-1.576-.846-1.576-2.188 0-1.413.595-2.296 1.469-2.296.882 0 1.242.937 1.242 1.918 0 .171-.01.288-.019.396h-2.016zm1.369-.514c.008-.873-.316-1.261-.648-1.261-.451 0-.685.667-.711 1.261h1.359zm2.258-2.746v1.018h.838v.522h-.838v2.593c0 .576.198.72.451.72.116 0 .207-.009.278-.026l.036.531a1.524 1.524 0 0 1-.514.071c-.279 0-.521-.071-.684-.261-.18-.198-.262-.495-.262-1.099v-2.529h-.53v-.522h.531v-.738l.694-.28zm1.863 3.26c.01 1.341.531 1.62 1.026 1.62.306 0 .55-.072.72-.162l.117.504c-.242.136-.611.207-.963.207-1.035 0-1.576-.846-1.576-2.188 0-1.413.595-2.296 1.469-2.296.882 0 1.242.937 1.242 1.918 0 .171-.01.288-.019.396h-2.016zm1.369-.514c.008-.873-.316-1.261-.648-1.261-.451 0-.685.667-.711 1.261h1.359zm4.04-3.601v5.186c0 .297.027.792.036 1.044h-.594l-.045-.54h-.037c-.135.306-.449.612-.908.612-.738 0-1.27-.792-1.27-2.233 0-1.548.639-2.269 1.314-2.269.314 0 .621.145.792.514h.019v-2.313h.693zm-.692 3.529c0-.09 0-.188-.01-.288-.036-.45-.314-.846-.648-.846-.576 0-.773.801-.773 1.674 0 .919.233 1.657.738 1.657.216 0 .513-.117.666-.747.027-.081.027-.181.027-.288v-1.162zM85.249 96.667v-3.835H84.7v-.522h.549v-.27c0-.469.072-.955.387-1.306a1.18 1.18 0 0 1 .874-.369c.234 0 .414.045.54.107l-.108.541a.982.982 0 0 0-.387-.072c-.495 0-.612.531-.612 1.089v.279h.792v.522h-.792v3.835h-.694zm4.204-.99c0 .333 0 .711.045.99h-.621l-.045-.459h-.027c-.189.333-.495.531-.864.531-.585 0-1.036-.486-1.036-1.242 0-1.099.874-1.576 1.854-1.585v-.135c0-.585-.144-.99-.693-.99-.27 0-.513.081-.72.225l-.153-.486c.189-.135.585-.288 1.018-.288.873 0 1.242.576 1.242 1.549v1.89zm-.676-1.27c-.36 0-1.197.072-1.197 1.018 0 .576.288.774.531.774.306 0 .558-.226.639-.657a1.2 1.2 0 0 0 .027-.252v-.883zm1.98-2.772c-.225 0-.396-.181-.396-.45 0-.271.18-.45.405-.45.252 0 .414.18.414.45s-.162.45-.414.45h-.009zm-.323 5.032V92.31h.693v4.357h-.693zm1.655-6.229h.693v6.229h-.693v-6.229zm2.205 4.114c.009 1.341.531 1.62 1.026 1.62.306 0 .549-.072.72-.162l.117.504c-.243.136-.612.207-.963.207-1.035 0-1.576-.846-1.576-2.188 0-1.413.594-2.296 1.468-2.296.882 0 1.242.937 1.242 1.918 0 .171-.009.288-.018.396h-2.016zm1.369-.514c.009-.873-.315-1.261-.648-1.261-.45 0-.684.667-.711 1.261h1.359zm4.041-3.6v5.186c0 .297.027.792.036 1.044h-.594l-.045-.54h-.036c-.135.306-.45.612-.909.612-.738 0-1.27-.792-1.27-2.233 0-1.548.639-2.269 1.314-2.269.315 0 .622.145.792.514h.018v-2.313h.694zm-.693 3.528c0-.09 0-.188-.009-.288-.036-.45-.315-.846-.648-.846-.576 0-.774.801-.774 1.674 0 .919.234 1.657.738 1.657.216 0 .513-.117.666-.747.027-.081.027-.181.027-.288v-1.162zm59.279-3.528v5.186c0 .297.027.792.036 1.044h-.595l-.045-.54h-.036c-.135.306-.45.612-.909.612-.738 0-1.27-.792-1.27-2.233 0-1.548.64-2.269 1.314-2.269.315 0 .622.145.793.514h.018v-2.313h.694zm-.694 3.528c0-.09 0-.188-.009-.288-.036-.45-.315-.846-.648-.846-.576 0-.774.801-.774 1.674 0 .919.234 1.657.738 1.657.217 0 .514-.117.666-.747.027-.081.027-.181.027-.288v-1.162zm1.98-2.331c-.226 0-.396-.181-.396-.45 0-.271.181-.45.405-.45.252 0 .414.18.414.45s-.162.45-.414.45h-.009zm-.325 5.032V92.31h.693v4.357h-.693zm1.539-.72c.152.099.423.225.702.225.387 0 .639-.243.639-.63 0-.333-.117-.567-.558-.855-.567-.369-.873-.747-.873-1.242 0-.712.521-1.207 1.197-1.207.342 0 .594.108.773.226l-.18.522a.994.994 0 0 0-.585-.198c-.369 0-.559.27-.559.558s.108.459.54.747c.505.324.9.729.9 1.333 0 .873-.594 1.296-1.314 1.296-.314 0-.666-.099-.854-.252l.172-.523zm4.843.612c-.153.091-.414.162-.721.162-.954 0-1.594-.765-1.594-2.205 0-1.252.631-2.269 1.72-2.269.234 0 .486.062.612.144l-.135.559a1.134 1.134 0 0 0-.495-.117c-.702 0-1.009.828-1.009 1.684 0 1.017.388 1.629 1.026 1.629.181 0 .343-.036.495-.117l.101.53zm1.764.18c-.783 0-1.414-.712-1.414-2.242 0-1.593.712-2.26 1.459-2.26.783 0 1.404.721 1.404 2.242 0 1.692-.774 2.26-1.44 2.26h-.009zm.036-.55c.594 0 .72-1.017.72-1.701 0-.675-.126-1.701-.738-1.701-.621 0-.738 1.026-.738 1.701 0 .721.126 1.701.747 1.701h.009zm2.187-2.754c0-.513-.027-.773-.036-1.125h.603l.036.522h.019c.188-.352.54-.595.999-.595.604 0 1.054.441 1.054 1.504v2.926h-.695v-2.809c0-.522-.1-1.035-.604-1.035-.288 0-.567.243-.648.711a1.62 1.62 0 0 0-.036.387v2.746h-.692v-3.232zm3.644 0c0-.513-.027-.773-.036-1.125h.604l.036.522h.018c.189-.352.54-.595.999-.595.604 0 1.054.441 1.054 1.504v2.926h-.693v-2.809c0-.522-.099-1.035-.603-1.035-.288 0-.567.243-.648.711a1.57 1.57 0 0 0-.036.387v2.746h-.693v-3.232zm4.131 1.117c.01 1.341.531 1.62 1.026 1.62.307 0 .55-.072.721-.162l.117.504c-.243.136-.612.207-.964.207-1.035 0-1.575-.846-1.575-2.188 0-1.413.594-2.296 1.468-2.296.882 0 1.242.937 1.242 1.918 0 .171-.009.288-.019.396h-2.016zm1.369-.514c.009-.873-.315-1.261-.648-1.261-.45 0-.685.667-.711 1.261h1.359zm3.537 2.521c-.153.091-.414.162-.721.162-.954 0-1.594-.765-1.594-2.205 0-1.252.631-2.269 1.72-2.269.234 0 .486.062.612.144l-.135.559a1.134 1.134 0 0 0-.495-.117c-.702 0-1.009.828-1.009 1.684 0 1.017.388 1.629 1.026 1.629.181 0 .343-.036.495-.117l.101.53zm1.574-5.267v1.018h.837v.522h-.837v2.593c0 .576.197.72.45.72.116 0 .207-.009.278-.026l.036.531a1.522 1.522 0 0 1-.513.071c-.279 0-.522-.071-.685-.261-.18-.198-.261-.495-.261-1.099v-2.529h-.531v-.522h.531v-.738l.695-.28zm1.863 3.26c.01 1.341.531 1.62 1.026 1.62.307 0 .55-.072.721-.162l.117.504c-.243.136-.612.207-.964.207-1.035 0-1.575-.846-1.575-2.188 0-1.413.594-2.296 1.468-2.296.882 0 1.242.937 1.242 1.918 0 .171-.009.288-.019.396h-2.016zm1.369-.514c.009-.873-.315-1.261-.648-1.261-.45 0-.685.667-.711 1.261h1.359zm4.041-3.6v5.186c0 .297.027.792.036 1.044h-.595l-.045-.54h-.036c-.135.306-.45.612-.909.612-.738 0-1.27-.792-1.27-2.233 0-1.548.64-2.269 1.314-2.269.315 0 .622.145.793.514h.018v-2.313h.694zm-.693 3.528c0-.09 0-.188-.009-.288-.036-.45-.315-.846-.648-.846-.576 0-.774.801-.774 1.674 0 .919.234 1.657.738 1.657.217 0 .514-.117.666-.747.027-.081.027-.181.027-.288v-1.162zm57.883 2.593c-.152.091-.414.162-.72.162-.954 0-1.594-.765-1.594-2.205 0-1.252.63-2.269 1.72-2.269.234 0 .486.062.612.144l-.136.559a1.13 1.13 0 0 0-.494-.117c-.703 0-1.009.828-1.009 1.684 0 1.017.388 1.629 1.026 1.629.18 0 .342-.036.495-.117l.1.53zm.594-6.121h.693v6.229h-.693v-6.229zm2.943 6.301c-.783 0-1.414-.712-1.414-2.242 0-1.593.712-2.26 1.459-2.26.783 0 1.404.721 1.404 2.242 0 1.692-.773 2.26-1.439 2.26h-.01zm.037-.55c.595 0 .72-1.017.72-1.701 0-.675-.125-1.701-.738-1.701-.621 0-.738 1.026-.738 1.701 0 .721.127 1.701.748 1.701h.008zm2.069-.242c.152.099.423.225.702.225.388 0 .64-.243.64-.63 0-.333-.117-.567-.559-.855-.567-.369-.873-.747-.873-1.242 0-.712.521-1.207 1.197-1.207.342 0 .594.108.773.226l-.18.522a.994.994 0 0 0-.585-.198c-.369 0-.558.27-.558.558s.107.459.539.747c.505.324.9.729.9 1.333 0 .873-.594 1.296-1.314 1.296-.314 0-.666-.099-.854-.252l.172-.523zm3.204-1.395c.009 1.341.531 1.62 1.026 1.62.307 0 .549-.072.721-.162l.117.504c-.244.136-.613.207-.964.207-1.035 0-1.575-.846-1.575-2.188 0-1.413.594-2.296 1.467-2.296.883 0 1.242.937 1.242 1.918 0 .171-.008.288-.018.396h-2.016zm1.368-.514c.01-.873-.314-1.261-.648-1.261-.449 0-.684.667-.711 1.261h1.359zm4.041-3.6v5.186c0 .297.027.792.036 1.044h-.595l-.045-.54h-.035c-.135.306-.451.612-.91.612-.738 0-1.27-.792-1.27-2.233 0-1.548.64-2.269 1.314-2.269.316 0 .622.145.793.514h.018v-2.313h.694zm-.693 3.528c0-.09 0-.188-.009-.288-.036-.45-.315-.846-.647-.846-.576 0-.775.801-.775 1.674 0 .919.234 1.657.738 1.657.217 0 .514-.117.666-.747.027-.081.027-.181.027-.288v-1.162z"/></svg>