<svg xmlns="http://www.w3.org/2000/svg" viewBox="0 0 342.39 74.6"><g stroke="#000" clip-rule="evenodd" stroke-linecap="round" stroke-linejoin="round"><path fill="#ccc" fill-rule="evenodd" d="M.5.5h25.885v14.708H.5zm25.885 0h78.876v14.708H26.385z"/><path fill="#ccc" fill-rule="evenodd" d="M105.261.5h78.875v14.708h-78.875zm78.876 0h78.877v14.708h-78.877zm78.877 0h78.875v14.708h-78.875zM.501 15.269h25.885v14.708H.501z"/><path fill="none" d="M26.386 15.269h157.751v14.708H26.386z"/><path fill="none" d="M26.385 29.976h20.503v14.708H26.385z"/><path fill="#fddfbb" fill-rule="evenodd" d="M26.385 59.392h315.503V74.1H26.385z"/><path fill="none" d="M46.889 29.976h295v14.708h-295z"/><path fill="none" d="M184.137 15.269h78.877v14.708h-78.877z"/><path fill="none" d="M263.013 15.269h78.877v14.708h-78.877z"/><path fill="#ccc" fill-rule="evenodd" d="M.501 29.976h25.885v14.708H.501z"/><path fill="none" d="M26.385 44.684h20.503v14.708H26.385zm20.504 0h295v14.708h-295z"/><path fill="#ccc" fill-rule="evenodd" d="M.501 44.684h25.885v14.708H.501zm0 14.708h25.885V74.1H.501z"/></g><path d="M9.726 4.518a5.667 5.667 0 0 1 1.197-.117c.549 0 1.071.09 1.44.423.297.262.432.648.432 1.08 0 .567-.306 1.081-.891 1.333v.026c.693.189 1.089.766 1.089 1.495 0 .504-.162.9-.441 1.197-.351.396-.945.585-1.818.585-.45 0-.774-.027-1.008-.062v-5.96zm.954 2.439h.279c.495 0 .891-.396.891-.945 0-.504-.234-.882-.828-.882-.144 0-.261.009-.342.036v1.791zm0 2.809c.081.019.18.027.306.027.585 0 1.018-.352 1.018-1.044 0-.712-.496-1.071-1.044-1.071h-.28v2.088zm3.492-4.24c-.279 0-.504-.225-.504-.558 0-.343.234-.559.513-.559.306 0 .522.216.522.559 0 .333-.216.558-.522.558h-.009zm-.46 4.97V6.111h.963v4.385h-.963zm2.998-5.474v1.089h.847v.693h-.847v2.278c0 .54.207.675.45.675.108 0 .198-.009.297-.027l.018.748c-.144.045-.36.071-.63.071-.306 0-.585-.081-.774-.27-.216-.217-.324-.531-.324-1.188V6.804h-.522v-.693h.522v-.756l.963-.333zm43.822.685v2.07h1.999v.63h-1.999v2.089h-.648V8.407h-1.999v-.63h1.999v-2.07h.648zm4.176 4.861c-1.107 0-1.593-1.288-1.593-2.98 0-1.818.558-3.016 1.656-3.016 1.17 0 1.567 1.368 1.567 2.979 0 2.116-.72 3.017-1.621 3.017h-.009zm.045-.819c.45 0 .621-.811.621-2.179 0-1.314-.162-2.179-.63-2.179-.459 0-.675.792-.666 2.179-.009 1.396.189 2.179.666 2.179h.009zm2.825.819c-.315 0-.576-.262-.576-.666 0-.388.271-.667.585-.667.333 0 .585.252.585.667 0 .404-.234.666-.585.666h-.009zm1.944 0c-.315 0-.576-.262-.576-.666 0-.388.271-.667.585-.667.333 0 .585.252.585.667 0 .404-.234.666-.585.666h-.009zm4.294-5.924v.612l-1.864 5.239h-.936l1.818-4.987V5.49h-2.043v-.846h3.025zm63.756 1.063v2.07h1.999v.63h-1.999v2.089h-.648V8.407h-1.999v-.63h1.999v-2.07h.648zm4.274-1.135c.837 0 1.396.63 1.396 1.413 0 .441-.198.955-.783 1.333v.026c.54.324.918.855.918 1.558 0 1.009-.711 1.666-1.639 1.666-.99 0-1.594-.693-1.594-1.549 0-.774.441-1.296.918-1.611l-.009-.018c-.486-.334-.738-.838-.738-1.314 0-.937.702-1.504 1.521-1.504h.01zm-.072 5.33c.396 0 .666-.352.666-.955 0-.612-.36-.972-.738-1.206a1.37 1.37 0 0 0-.621 1.152c0 .576.243 1.009.684 1.009h.009zm.019-4.664c-.36 0-.567.36-.567.802 0 .495.288.783.639.99.297-.189.486-.559.486-.945 0-.478-.171-.847-.549-.847h-.009zm2.825 5.33c-.315 0-.576-.262-.576-.666 0-.388.271-.667.585-.667.333 0 .585.252.585.667 0 .404-.234.666-.585.666h-.009zm1.944 0c-.315 0-.576-.262-.576-.666 0-.388.271-.667.585-.667.333 0 .585.252.585.667 0 .404-.234.666-.585.666h-.009zm2.574-4.997h-.018l-.981.531-.171-.747 1.288-.711h.828v5.852h-.945V5.571zm5.176-.09h-1.558l-.18 1.278c.063-.009.126-.009.198-.009.279.009.783.135 1.107.441.315.306.495.747.495 1.341 0 1.152-.738 2.035-1.917 2.035-.387 0-.819-.1-1.053-.243l.171-.766c.198.108.513.217.828.217.585 0 1.026-.405 1.026-1.152 0-.855-.576-1.171-1.296-1.171-.18 0-.315.009-.432.027l.342-2.836h2.269v.838zm60.3.226v2.07h1.999v.63h-1.999v2.089h-.647V8.407h-2v-.63h2v-2.07h.647zm4.005-.136h-.019l-.981.531-.171-.747 1.288-.711h.828v5.852h-.945V5.571zm5.067-.207c-.125 0-.279.019-.449.055-.865.207-1.252 1.008-1.396 1.81h.027c.225-.298.531-.505.945-.505.766 0 1.297.693 1.297 1.801 0 1.071-.514 2.044-1.566 2.044-1.072 0-1.666-.99-1.666-2.404 0-1.206.36-2.079.864-2.683a2.55 2.55 0 0 1 1.432-.846c.226-.045.405-.055.513-.063v.791zm-1.143 4.492c.387 0 .611-.468.611-1.305-.008-.676-.233-1.126-.656-1.126-.234 0-.469.153-.604.495-.027.063-.055.217-.055.441 0 .964.289 1.494.693 1.494h.011zm2.789.712c-.314 0-.576-.262-.576-.666 0-.388.271-.667.586-.667.332 0 .584.252.584.667 0 .404-.233.666-.584.666h-.01zm1.944 0c-.315 0-.576-.262-.576-.666 0-.388.271-.667.585-.667.334 0 .586.252.586.667 0 .404-.234.666-.586.666h-.009zm1.179-.072v-.64l.541-.711c.729-.963 1.439-1.899 1.439-2.854 0-.549-.27-.909-.783-.909-.396 0-.684.188-.864.306l-.188-.738a2.188 2.188 0 0 1 1.225-.378c1.143 0 1.557.792 1.557 1.656 0 1.099-.702 2.062-1.395 2.936l-.369.468v.018h1.854v.847h-3.017zm3.817-.955c.207.126.531.234.855.234.594 0 .945-.396.945-.991 0-.702-.496-1.053-1.135-1.053h-.162v-.71h.117c.432 0 1.018-.243 1.018-.883 0-.495-.289-.774-.721-.774-.279 0-.531.117-.729.252l-.161-.72c.233-.171.674-.324 1.134-.324.945 0 1.44.63 1.44 1.378 0 .594-.315 1.089-.855 1.341v.019c.549.171 1.018.666 1.018 1.512 0 .919-.657 1.747-1.837 1.747-.433 0-.847-.117-1.089-.271l.162-.757zm61.218-3.834v2.07h1.998v.63h-1.998v2.089h-.648V8.407h-1.998v-.63h1.998v-2.07h.648zm2.61 4.789v-.64l.539-.711c.73-.963 1.441-1.899 1.441-2.854 0-.549-.271-.909-.783-.909-.396 0-.685.188-.865.306l-.188-.738a2.188 2.188 0 0 1 1.225-.378c1.144 0 1.558.792 1.558 1.656 0 1.099-.703 2.062-1.396 2.936l-.369.468v.018h1.854v.847h-3.016zm5.525 0V9.001h-1.98v-.657l1.909-3.7h.927v3.583h.604v.774h-.604v1.494h-.856zm0-2.269V6.823c0-.352.027-.702.055-1.045h-.027c-.162.388-.287.657-.449 1l-.712 1.431v.019h1.133zm2.583 2.341c-.315 0-.576-.262-.576-.666 0-.388.271-.667.585-.667.334 0 .586.252.586.667 0 .404-.234.666-.586.666h-.009zm1.944 0c-.314 0-.576-.262-.576-.666 0-.388.271-.667.586-.667.332 0 .584.252.584.667 0 .404-.233.666-.584.666h-.01zm1.323-1.027c.207.126.531.234.855.234.595 0 .945-.396.945-.991 0-.702-.494-1.053-1.134-1.053h-.162v-.71h.116c.433 0 1.018-.243 1.018-.883 0-.495-.287-.774-.72-.774-.279 0-.531.117-.729.252l-.162-.72c.234-.171.676-.324 1.135-.324.945 0 1.44.63 1.44 1.378 0 .594-.315 1.089-.855 1.341v.019c.55.171 1.018.666 1.018 1.512 0 .919-.657 1.747-1.837 1.747-.432 0-.846-.117-1.09-.271l.162-.757zm4.924-3.97h-.018l-.982.531-.17-.747 1.287-.711h.828v5.852h-.945V5.571zM13.426 25.337c-1.107 0-1.593-1.288-1.593-2.98 0-1.818.558-3.016 1.656-3.016 1.17 0 1.567 1.368 1.567 2.979 0 2.116-.72 3.017-1.621 3.017h-.009zm.045-.819c.45 0 .621-.811.621-2.179 0-1.314-.162-2.179-.63-2.179-.459 0-.675.792-.666 2.179-.009 1.396.189 2.179.666 2.179h.009zm82.633-5.321h.693v5.482h1.702v.585h-2.395v-6.067zm3.384 3.952c.009 1.341.531 1.62 1.026 1.62.306 0 .549-.072.72-.162l.117.504c-.243.136-.612.207-.963.207-1.035 0-1.576-.846-1.576-2.188 0-1.413.594-2.296 1.468-2.296.882 0 1.242.937 1.242 1.918 0 .171-.009.288-.018.396h-2.016zm1.369-.513c.009-.873-.315-1.261-.648-1.261-.45 0-.684.667-.711 1.261h1.359zm1.412-.604c0-.513-.027-.773-.036-1.125h.603l.036.522h.018c.189-.352.54-.595.999-.595.604 0 1.054.441 1.054 1.504v2.926h-.693v-2.809c0-.522-.099-1.035-.603-1.035-.288 0-.567.243-.648.711a1.57 1.57 0 0 0-.036.387v2.746h-.693v-3.232zm6.274 2.674c0 1.144-.144 1.576-.432 1.9-.27.288-.675.459-1.161.459-.369 0-.729-.09-.954-.216l.162-.541c.171.091.459.189.801.189.549 0 .892-.342.892-1.332v-.441h-.018a.873.873 0 0 1-.828.531c-.774 0-1.279-.873-1.279-2.152 0-1.611.72-2.269 1.369-2.269.459 0 .675.307.81.559h.018l.036-.486h.621c-.009.297-.036.685-.036 1.359v2.44zm-.693-2.295c0-.117-.009-.226-.036-.324-.072-.288-.234-.657-.63-.657-.495 0-.765.675-.765 1.639 0 1.116.351 1.62.765 1.62.216 0 .486-.099.622-.621.045-.135.045-.271.045-.396v-1.261zm2.501-2.521v1.018h.837v.522h-.837v2.593c0 .576.198.72.45.72.117 0 .207-.009.279-.026l.036.531a1.522 1.522 0 0 1-.513.071c-.279 0-.522-.071-.684-.261-.18-.198-.261-.495-.261-1.099V21.43h-.531v-.522h.531v-.738l.693-.28zm1.449-.855h.693v2.34h.018c.09-.152.225-.287.369-.387.153-.099.333-.153.576-.153.549 0 1.018.433 1.018 1.54v2.89h-.693v-2.809c0-.54-.117-1.035-.585-1.035-.324 0-.567.233-.675.692-.018.1-.027.226-.027.324v2.827h-.694v-6.229zm-76.464 14.96a3.952 3.952 0 0 1 1-.117c.603 0 1.053.126 1.368.432.297.307.423.712.423 1.188 0 .774-.36 1.278-.972 1.566v.019c.45.135.684.567.81 1.359.144.828.261 1.341.351 1.53h-.702c-.09-.18-.207-.756-.324-1.494-.135-.838-.396-1.144-.99-1.144h-.27v2.638h-.693v-5.977zm.694 2.799h.288c.666 0 1.107-.486 1.107-1.216 0-.693-.288-1.134-1.036-1.144-.135 0-.27.01-.36.036v2.324zM168.604 63.32l-.504 2.619h1.702l.495-2.619h.648l-1.152 6.067h-.648l.531-2.854h-1.684l-.54 2.854h-.648l1.152-6.067h.648zm4.572 5.851a2.1 2.1 0 0 1-1.026.27c-.918 0-1.215-.702-1.215-1.539 0-1.18.657-2.944 1.899-2.944.639 0 .9.486.9.99 0 1.054-.937 1.504-2.125 1.513-.018.126-.045.612.027.873.099.369.324.567.666.567s.576-.117.774-.233l.1.503zm-.442-3.655c-.387 0-.801.478-1.035 1.423.693-.01 1.422-.243 1.422-.945.001-.307-.125-.478-.387-.478zm3.116 3.871c.008-.243.035-.486.062-.828h-.018c-.433.738-.82.9-1.145.9-.504 0-.81-.441-.81-1.225 0-1.323.702-3.277 2.386-3.277.307 0 .621.063.801.145l-.504 2.493c-.117.586-.197 1.306-.189 1.792h-.583zm.548-3.871a1.202 1.202 0 0 0-.271-.027c-.972 0-1.513 1.594-1.54 2.548-.008.55.1.864.406.864.441 0 .908-.864 1.08-1.729l.325-1.656zm4.5-2.358l-.891 4.699a12.344 12.344 0 0 0-.199 1.53h-.558l.054-.685h-.018c-.217.45-.621.757-1.045.757-.549 0-.882-.514-.882-1.306 0-1.485.783-3.196 2.062-3.196.171 0 .352.072.459.162l.369-1.962h.649zm-1.143 2.529a.47.47 0 0 0-.405-.198c-.837 0-1.323 1.647-1.323 2.539 0 .513.117.873.478.873.314 0 .738-.396.909-1.26l.341-1.954zm3.321 3.484c-.315.171-.648.27-1.026.27-.919 0-1.216-.702-1.216-1.539 0-1.18.658-2.944 1.9-2.944.639 0 .9.486.9.99 0 1.054-.938 1.504-2.125 1.513-.018.126-.045.612.027.873.099.369.324.567.666.567s.576-.117.773-.233l.101.503zm-.441-3.655c-.387 0-.801.478-1.035 1.423.693-.01 1.422-.243 1.422-.945 0-.307-.125-.478-.387-.478zm1.088 3.871l.55-2.926c.108-.585.162-1.107.188-1.432h.568c-.01.234-.027.468-.072.819h.026c.271-.54.648-.892 1.089-.892.046 0 .082.01.117.01l-.125.684c-.019 0-.055-.009-.082-.009-.576 0-1.062.811-1.188 1.458l-.433 2.287h-.638zm4.77-6.005a4.9 4.9 0 0 1 .945-.09c.423 0 .837.099 1.107.36.233.216.351.54.351.927 0 .729-.494 1.359-1.215 1.594v.018c.657.226.846.802.846 1.342 0 .612-.278 1.089-.647 1.404-.388.333-.945.478-1.585.478-.423 0-.729-.036-.918-.091l1.116-5.942zm-.405 5.447c.09.027.234.055.379.055.891 0 1.413-.612 1.413-1.404 0-.631-.343-1.071-1.071-1.071h-.252l-.469 2.42zm.559-2.935h.262c.756 0 1.341-.513 1.341-1.27 0-.477-.243-.819-.847-.819-.135 0-.27.01-.369.045l-.387 2.044zm2.347 3.493l1.171-6.229h.657l-1.188 6.229h-.64zm4.682-3.007c0 1.099-.541 3.079-1.873 3.079-.811 0-1.062-.702-1.062-1.477 0-1.171.631-3.025 1.927-3.025.873 0 1.008.838 1.008 1.423zm-2.278 1.539c0 .495.035 1.009.494 1.009.793 0 1.125-1.854 1.125-2.593 0-.45-.08-.838-.459-.838-.719.001-1.16 1.568-1.16 2.422zm4.608 1.396a1.83 1.83 0 0 1-.711.126c-.873 0-1.188-.711-1.188-1.558 0-1.269.746-2.916 2.169-2.916.188 0 .343.026.433.071l-.172.559c-.09-.027-.188-.063-.324-.063-.908 0-1.439 1.297-1.439 2.278 0 .639.188 1.071.693 1.071.17 0 .359-.045.531-.108l.008.54zm.539.072l1.18-6.229h.64l-.712 3.754h.019c.099-.135.216-.307.288-.414l1.116-1.468h.747l-1.485 1.837.847 2.521h-.666l-.676-2.151-.333.414-.333 1.737h-.632zm-27.033-30.216c.207.126.567.242.873.242.63 0 1.008-.414 1.008-1.026 0-.558-.324-.899-.801-1.26-.477-.333-1.143-.9-1.143-1.684 0-.918.648-1.594 1.602-1.594.378 0 .711.126.855.226l-.171.594a1.277 1.277 0 0 0-.721-.207c-.594 0-.873.45-.873.864 0 .604.315.847.892 1.252.729.513 1.053 1.071 1.053 1.746 0 1.044-.738 1.701-1.701 1.701-.414 0-.855-.135-1.026-.27l.153-.584zm4.139-4.574v1.018h.837v.522h-.837v2.593c0 .576.198.72.45.72.117 0 .207-.009.279-.026l.036.531a1.524 1.524 0 0 1-.514.071c-.279 0-.521-.071-.684-.261-.181-.198-.262-.495-.262-1.099v-2.529h-.531v-.522h.531v-.738l.695-.28zm1.44 2.143c0-.368-.026-.801-.036-1.125h.622l.035.685h.019c.144-.414.513-.757.918-.757.055 0 .1 0 .145.01v.711c-.045-.009-.09-.009-.145-.009-.441 0-.765.404-.837.909a2.447 2.447 0 0 0-.027.396v2.413h-.693V36.74zm2.601 1.117c.009 1.341.531 1.62 1.026 1.62.306 0 .549-.072.72-.162l.117.504c-.243.136-.612.207-.963.207-1.035 0-1.576-.846-1.576-2.188 0-1.413.595-2.296 1.468-2.296.883 0 1.242.937 1.242 1.918 0 .171-.009.288-.018.396h-2.016zm1.369-.514c.009-.873-.315-1.261-.648-1.261-.45 0-.684.667-.711 1.261h1.359zm3.708 1.639c0 .333 0 .711.045.99h-.621l-.045-.459h-.026c-.189.333-.495.531-.864.531-.586 0-1.036-.486-1.036-1.242 0-1.099.874-1.576 1.855-1.585v-.135c0-.585-.145-.99-.693-.99-.271 0-.514.081-.721.225l-.153-.486c.189-.135.586-.288 1.018-.288.873 0 1.242.576 1.242 1.549v1.89zm-.675-1.27c-.36 0-1.197.072-1.197 1.018 0 .576.288.774.531.774.306 0 .558-.226.639-.657.019-.081.027-.171.027-.252v-.883zm1.655-.972c0-.513-.027-.773-.036-1.125h.612l.036.531h.018c.189-.351.514-.604.973-.604.405 0 .756.189.918.657h.019a1.46 1.46 0 0 1 .423-.495c.18-.107.378-.162.604-.162.594 0 1.053.424 1.053 1.54v2.89h-.693v-2.737c0-.566-.081-1.116-.603-1.116-.288 0-.54.243-.64.657-.026.108-.026.243-.026.388v2.809h-.693V37.11c0-.477-.081-.99-.595-.99-.288 0-.566.243-.647.712a2.163 2.163 0 0 0-.027.369v2.772h-.693V36.74zm7.74-2.835v6.067h-.693v-6.067h.693zm3.637-.162v5.186c0 .297.027.792.036 1.044h-.595l-.045-.54h-.036c-.135.306-.45.612-.909.612-.738 0-1.27-.792-1.27-2.233 0-1.548.64-2.269 1.314-2.269.315 0 .622.145.793.514h.018v-2.313h.694zm-.693 3.528c0-.09 0-.188-.009-.288-.036-.45-.315-.846-.648-.846-.576 0-.774.801-.774 1.674 0 .919.234 1.657.738 1.657.217 0 .514-.117.666-.747.027-.081.027-.181.027-.288v-1.162zm2.141.586c.009 1.341.531 1.62 1.026 1.62.306 0 .549-.072.72-.162l.117.504c-.243.136-.612.207-.963.207-1.035 0-1.576-.846-1.576-2.188 0-1.413.595-2.296 1.468-2.296.883 0 1.242.937 1.242 1.918 0 .171-.009.288-.018.396h-2.016zm1.368-.514c.009-.873-.315-1.261-.648-1.261-.45 0-.684.667-.711 1.261h1.359zm1.413-.603c0-.513-.027-.773-.036-1.125h.604l.036.522h.018c.189-.352.54-.595.999-.595.604 0 1.054.441 1.054 1.504v2.926h-.693v-2.809c0-.522-.099-1.035-.603-1.035-.288 0-.567.243-.648.711a1.57 1.57 0 0 0-.036.387v2.746h-.693V36.74zm4.437-2.143v1.018h.837v.522h-.837v2.593c0 .576.198.72.45.72.117 0 .207-.009.279-.026l.036.531a1.524 1.524 0 0 1-.514.071c-.279 0-.521-.071-.684-.261-.181-.198-.262-.495-.262-1.099v-2.529h-.531v-.522h.531v-.738l.695-.28zm1.772.343c-.225 0-.396-.181-.396-.45 0-.271.18-.45.405-.45.252 0 .414.18.414.45s-.162.45-.414.45h-.009zm-.323 5.032v-4.357h.692v4.357h-.692zm1.8 0v-3.835h-.55v-.522h.55v-.288c0-.783.378-1.656 1.584-1.656.369 0 .693.107.847.207l-.145.54a1.721 1.721 0 0 0-.72-.171c-.702 0-.874.486-.874 1.152v.216h1.954v4.357h-.693v-3.835h-1.261v3.835h-.692zm4.104-2.115c.01 1.341.531 1.62 1.026 1.62.307 0 .55-.072.721-.162l.117.504c-.243.136-.612.207-.964.207-1.035 0-1.575-.846-1.575-2.188 0-1.413.594-2.296 1.468-2.296.882 0 1.242.937 1.242 1.918 0 .171-.009.288-.019.396h-2.016zm1.369-.514c.009-.873-.315-1.261-.648-1.261-.45 0-.685.667-.711 1.261h1.359zm1.402-.603c0-.368-.026-.801-.036-1.125h.622l.035.685h.019c.144-.414.513-.757.918-.757.055 0 .1 0 .145.01v.711c-.045-.009-.09-.009-.145-.009-.441 0-.765.404-.837.909a2.447 2.447 0 0 0-.027.396v2.413h-.693V36.74zm-2.145-16.922h-1.107v-.621h2.907v.621h-1.107v5.446h-.692v-5.446z"/><path d="M216.074 20.907l.576 2.503c.081.342.117.621.18.9h.019c.045-.252.116-.576.188-.892l.514-2.512h.684l-.711 2.8c-.27 1.09-.566 2.143-1.08 2.809a2.326 2.326 0 0 1-.783.657l-.252-.585c.197-.117.423-.306.611-.549.181-.234.324-.522.396-.738a.559.559 0 0 0 .045-.216c0-.055 0-.108-.018-.162l-1.098-4.016h.729zm2.744 1.36c0-.666-.026-1.053-.035-1.359h.621l.035.549h.019c.234-.459.585-.621.919-.621.765 0 1.26.802 1.26 2.242 0 1.62-.666 2.26-1.342 2.26-.414 0-.648-.252-.765-.495h-.019v2.151h-.693v-4.727zm.694 1.404c0 .126.01.252.037.36.135.621.44.729.629.729.576 0 .766-.792.766-1.666 0-.909-.216-1.665-.766-1.665-.314 0-.603.396-.639.792-.027.108-.027.216-.027.333v1.117zm3.392-.522c.01 1.341.531 1.62 1.027 1.62.306 0 .549-.072.72-.162l.117.504c-.243.136-.612.207-.964.207-1.035 0-1.575-.846-1.575-2.188 0-1.413.595-2.296 1.468-2.296.883 0 1.242.937 1.242 1.918 0 .171-.009.288-.018.396h-2.017zm1.369-.513c.009-.873-.315-1.261-.648-1.261-.45 0-.684.667-.711 1.261h1.359zm4.393-3.601c-.514.81-.938 2.025-.938 3.664 0 1.611.424 2.826.938 3.646h-.541c-.468-.684-.98-1.891-.98-3.655.018-1.764.513-2.979.98-3.654h.541zm1.916 1.08h-.018l-.973.558-.135-.54 1.232-.72h.568v5.852h-.676v-5.15zm1.998 6.23c.513-.81.936-2.043.936-3.664 0-1.62-.423-2.836-.936-3.646h.539c.469.666.982 1.863.982 3.646-.019 1.783-.514 2.971-.982 3.664h-.539zm63.311-7.148h2.314v.603h-1.621v2.125h1.512v.585h-1.512v2.755h-.693v-6.068zm2.961-.162h.693v6.229h-.693v-6.229zm4.014 5.239c0 .333 0 .711.045.99h-.621l-.045-.459h-.026c-.189.333-.496.531-.865.531-.585 0-1.035-.486-1.035-1.242 0-1.099.873-1.576 1.855-1.585v-.135c0-.585-.145-.99-.693-.99-.271 0-.514.081-.721.225l-.153-.486c.189-.135.585-.288 1.018-.288.873 0 1.242.576 1.242 1.549v1.89zm-.675-1.269c-.36 0-1.197.072-1.197 1.018 0 .576.287.774.531.774.306 0 .558-.226.639-.657a1.2 1.2 0 0 0 .027-.252v-.883zm4.284 1.701c0 1.144-.144 1.576-.432 1.9-.27.288-.675.459-1.161.459-.369 0-.729-.09-.954-.216l.162-.541c.171.091.459.189.801.189.549 0 .892-.342.892-1.332v-.441h-.019a.873.873 0 0 1-.828.531c-.773 0-1.278-.873-1.278-2.152 0-1.611.72-2.269 1.368-2.269.459 0 .676.307.811.559h.018l.037-.486h.621c-.01.297-.037.685-.037 1.359v2.44zm-.693-2.295c0-.117-.009-.226-.036-.324-.072-.288-.234-.657-.631-.657-.494 0-.765.675-.765 1.639 0 1.116.351 1.62.765 1.62.217 0 .486-.099.621-.621.046-.135.046-.271.046-.396v-1.261zm1.538 2.134c.152.099.424.225.702.225.388 0 .64-.243.64-.63 0-.333-.117-.567-.559-.855-.567-.369-.873-.747-.873-1.242 0-.712.521-1.207 1.197-1.207.342 0 .594.108.773.226l-.18.522a.994.994 0 0 0-.585-.198c-.369 0-.558.27-.558.558s.107.459.539.747c.505.324.9.729.9 1.333 0 .873-.594 1.296-1.314 1.296-.314 0-.666-.099-.854-.252l.172-.523zM10.168 39.018c.207.126.531.234.855.234.594 0 .945-.396.945-.991 0-.702-.495-1.053-1.134-1.053h-.162v-.711h.117c.432 0 1.018-.243 1.018-.883 0-.495-.288-.774-.72-.774-.279 0-.531.117-.729.252l-.162-.72c.234-.171.675-.324 1.134-.324.945 0 1.44.63 1.44 1.378 0 .594-.315 1.089-.855 1.341v.019c.549.171 1.018.666 1.018 1.512 0 .919-.657 1.747-1.837 1.747-.432 0-.846-.117-1.089-.271l.161-.756zm3.527.954v-.64l.541-.711c.729-.963 1.44-1.899 1.44-2.854 0-.549-.271-.909-.784-.909-.396 0-.684.188-.864.306l-.189-.738a2.188 2.188 0 0 1 1.225-.378c1.143 0 1.557.792 1.557 1.656 0 1.099-.702 2.062-1.395 2.936l-.369.468v.018h1.854v.847h-3.016zm21.641 8.73a3.952 3.952 0 0 1 1-.117c.603 0 1.053.126 1.368.432.297.307.423.712.423 1.188 0 .774-.36 1.278-.972 1.566v.019c.45.135.684.567.81 1.359.144.828.261 1.341.351 1.53h-.702c-.09-.18-.207-.756-.324-1.494-.135-.838-.396-1.144-.99-1.144h-.27v2.638h-.693v-5.977zm.694 2.8h.288c.666 0 1.107-.486 1.107-1.216 0-.693-.288-1.134-1.036-1.144-.135 0-.27.01-.36.036v2.324zm148.77-2.8a3.984 3.984 0 0 1 1.009-.117c.558 0 1.035.135 1.351.441.288.288.44.729.44 1.26 0 .559-.135.937-.369 1.242-.323.45-.891.676-1.431.676-.117 0-.207 0-.307-.009v2.484h-.693v-5.977zm.693 2.917c.081.009.162.018.279.018.675 0 1.135-.45 1.135-1.306 0-.621-.253-1.179-1.026-1.179a1.43 1.43 0 0 0-.388.045v2.422zm2.781-.172c0-.368-.027-.801-.036-1.125h.621l.036.685h.018c.145-.414.514-.757.919-.757.054 0 .099 0 .144.01v.711c-.045-.009-.09-.009-.144-.009-.441 0-.766.404-.838.909a2.576 2.576 0 0 0-.026.396v2.413h-.693v-3.233zm2.565-1.8c-.226 0-.396-.181-.396-.45 0-.271.181-.45.405-.45.252 0 .414.18.414.45s-.162.45-.414.45h-.009zm-.324 5.033v-4.357h.693v4.357h-.693zm2.881.072c-.783 0-1.414-.712-1.414-2.242 0-1.593.712-2.26 1.459-2.26.783 0 1.404.721 1.404 2.242 0 1.692-.774 2.26-1.44 2.26h-.009zm.036-.55c.594 0 .72-1.017.72-1.701 0-.675-.126-1.701-.738-1.701-.621 0-.738 1.026-.738 1.701 0 .721.126 1.701.747 1.701h.009zm2.176-2.755c0-.368-.026-.801-.036-1.125h.622l.035.685h.019c.144-.414.513-.757.918-.757.055 0 .1 0 .145.01v.711c-.045-.009-.09-.009-.145-.009-.441 0-.765.404-.837.909a2.447 2.447 0 0 0-.027.396v2.413h-.693v-3.233zm2.566-1.8c-.226 0-.396-.181-.396-.45 0-.271.181-.45.405-.45.252 0 .414.18.414.45s-.162.45-.414.45h-.009zm-.324 5.033v-4.357h.693v4.357h-.693zm2.502-5.375v1.018h.837v.522h-.837v2.593c0 .576.198.72.45.72.117 0 .207-.009.279-.026l.036.531a1.524 1.524 0 0 1-.514.071c-.279 0-.521-.071-.684-.261-.181-.198-.262-.495-.262-1.099v-2.529h-.531v-.522h.531v-.738l.695-.28zm1.899 1.017l.576 2.503c.081.342.117.621.18.9h.019c.045-.252.116-.576.188-.892l.514-2.512h.684l-.711 2.8c-.271 1.09-.567 2.143-1.08 2.809a2.326 2.326 0 0 1-.783.657l-.252-.585a2.28 2.28 0 0 0 .612-.549c.18-.234.323-.522.396-.738a.578.578 0 0 0 .045-.216c0-.055 0-.108-.018-.162l-1.099-4.016h.729zm-189.437-.774c-.126 0-.279.019-.45.055-.864.207-1.251 1.008-1.396 1.81h.027c.225-.298.531-.505.945-.505.766 0 1.296.693 1.296 1.801 0 1.071-.513 2.044-1.566 2.044-1.071 0-1.666-.99-1.666-2.404 0-1.206.36-2.079.864-2.683a2.55 2.55 0 0 1 1.432-.846c.225-.045.405-.055.513-.063v.791zm-1.143 4.492c.387 0 .612-.468.612-1.305-.009-.676-.234-1.126-.657-1.126-.234 0-.468.153-.603.495-.027.063-.054.217-.054.441 0 .964.288 1.494.693 1.494h.009zm3.879.64v-1.494h-1.98v-.657l1.909-3.7h.927v3.583h.603v.774h-.603v1.494h-.856zm0-2.269v-1.404c0-.352.027-.702.054-1.045h-.027c-.162.388-.288.657-.45 1l-.711 1.431v.019h1.134zm-4.006 17.048c-.315 0-.576-.262-.576-.666 0-.388.271-.667.585-.667.333 0 .585.252.585.667 0 .404-.234.666-.585.666h-.009zm1.944 0c-.315 0-.576-.262-.576-.666 0-.388.271-.667.585-.667.333 0 .585.252.585.667 0 .404-.234.666-.585.666h-.009zm1.944 0c-.315 0-.576-.262-.576-.666 0-.388.271-.667.585-.667.333 0 .585.252.585.667 0 .404-.234.666-.585.666h-.009z"/></svg>