<svg xmlns="http://www.w3.org/2000/svg" viewBox="0 0 331.817 139.283"><path fill="#b2d4eb" fill-rule="evenodd" d="M92.399 112.071c-5.624 1.61-11.212.424-15.375-2.728-2.452 2.869-5.36 4.847-9.172 5.933-9.852 2.812-18.905-.439-21.07-10.317a19.268 19.268 0 0 1-5.834 2.789c-9.841 2.812-20.074-3.121-22.24-13.003C10.139 95.5 2.337 90.013.431 81.3c-2.164-9.88 4.065-20.169 13.907-22.977a18.208 18.208 0 0 1 6.604-.646c-2.164-9.875 4.187-17.637 14.033-20.449 3.949-1.123 7.352-1.525 10.784-.186 2.426-4.786 6.766-8.621 12.205-10.173 9.843-2.807 19.574 2.923 21.742 12.803 1.011-.497 1.862-.527 2.972-.848 9.847-2.81 19.581 2.92 21.744 12.802 8.535-.704 16.872 4.967 18.771 13.648 2.168 9.879-7.031 21.013-16.875 23.825 2.159 9.877-4.067 20.165-13.919 22.972z" clip-rule="evenodd" mask="url(#b)"/><path fill="#ccc" d="M46.435 86.101v1.309L25.291 75.296V73.99z"/><path fill="gray" d="M46.435 86.101l14.731-8.379v1.309l-14.731 8.381z"/><path fill="#fff" d="M25.291 73.992L40 65.562l21.166 12.16-14.731 8.379z"/><path fill="#999" d="M63.214 58.714l.989-.562-2.061 18.965-.99.564zM48.265 82.818v.254L30.392 72.835v-.254z"/><path fill="#b3b3b3" d="M48.265 82.818l10.123-5.76v.255l-10.123 5.761z"/><path fill="#e6e6e6" d="M30.392 72.584L40.5 66.783l17.888 10.275-10.123 5.76zm2.57 5.475l2.903-1.666L41 79.343l-2.907 1.654zm30.252-19.345l-2.062 18.965-21.145-12.112 2.061-18.964z"/><path fill="#0071bc" d="M60.31 76.224L40.851 65.078l2.061-17.021 19.459 11.146-2.061 17.021z"/><path fill="#b3b3b3" d="M42.068 46.604l.971-.611 21.164 12.159-.989.562z"/><path fill="none" stroke="#000" d="M62.142 77.117l2.061-18.965-21.164-12.159-.969.61h-.002l-2.061 18.963-.007-.004-14.708 8.428h-.001v1.306L46.435 87.41v.002l14.731-8.381v-1.309l-.014-.043v.002z" stroke-linecap="round" stroke-linejoin="round"/><path fill="none" stroke="#000" d="M68.699 67.81h26.895"/><path d="M94.719 70.811L99.9 67.82l-5.181-2.992zm-25.145-6.002L64.393 67.8l5.181 2.993z"/><g fill="#fff" stroke="#000" stroke-miterlimit="10" stroke-linecap="round" stroke-linejoin="round"><path d="M139.816 58.05l-13.375 6.86h-25.342l13.141-6.86zm-38.717 6.86h25.342v11.576h-25.342z"/><path d="M139.816 69.626l-13.375 6.86V64.91l13.375-6.86z"/></g><path fill="#b2d4eb" fill-rule="evenodd" d="M239.417 112.071c5.625 1.61 11.213.424 15.376-2.728 2.452 2.869 5.36 4.847 9.172 5.933 9.853 2.812 18.905-.439 21.07-10.317a19.262 19.262 0 0 0 5.835 2.789c9.841 2.812 20.074-3.121 22.24-13.003 8.568.755 16.371-4.732 18.277-13.445 2.164-9.88-4.065-20.169-13.907-22.977a18.21 18.21 0 0 0-6.604-.646c2.164-9.875-4.186-17.637-14.032-20.449-3.948-1.123-7.353-1.525-10.784-.186-2.426-4.786-6.766-8.621-12.205-10.173-9.842-2.807-19.573 2.923-21.742 12.803-1.011-.497-1.861-.527-2.971-.848-9.848-2.81-19.582 2.92-21.744 12.802-8.535-.704-16.871 4.967-18.771 13.648-2.168 9.879 7.031 21.013 16.875 23.825-2.163 9.877 4.063 20.165 13.915 22.972z" clip-rule="evenodd" mask="url(#d)"/><path fill="none" stroke="#000" d="M275.118 67.81h-26.896"/><path d="M249.098 64.809l-5.182 2.991 5.182 2.993zm25.144 6.002l5.182-2.991-5.182-2.992z"/><path fill="none" stroke="#0071bc" d="M137.333 78.695s22.638 8.072 31.462 7.879c8.011-.176 29.892-7.879 29.892-7.879" stroke-dasharray="1 1"/><path fill="#0071bc" d="M198.858 81.816l3.894-4.542-5.881-1.102zm-59.692-5.653l-5.885 1.077 3.875 4.557z"/><g fill="#fff" stroke="#000" stroke-miterlimit="10" stroke-linecap="round" stroke-linejoin="round"><path d="M242.816 58.05l-13.375 6.86H204.1l13.14-6.86zM204.1 64.91h25.342v11.576H204.1z"/><path d="M242.816 69.626l-13.375 6.86V64.91l13.375-6.86z"/></g><path fill="#ccc" d="M296.435 86.101v1.309l-21.144-12.114V73.99z"/><path fill="gray" d="M296.435 86.101l14.731-8.379v1.309l-14.731 8.381z"/><path fill="#fff" d="M275.291 73.992L290 65.562l21.166 12.16-14.731 8.379z"/><path fill="#999" d="M313.215 58.714l.988-.562-2.06 18.965-.991.564zm-14.949 24.104v.254l-17.873-10.237v-.254z"/><path fill="#b3b3b3" d="M298.266 82.818l10.123-5.76v.255l-10.123 5.761z"/><path fill="#e6e6e6" d="M280.393 72.584l10.107-5.801 17.889 10.275-10.123 5.76zm2.57 5.475l2.902-1.666 5.135 2.95-2.906 1.654zm30.252-19.345l-2.063 18.965-21.144-12.112 2.06-18.964z"/><path fill="#0071bc" d="M310.31 76.224l-19.458-11.146 2.06-17.021 19.459 11.146-2.061 17.021z"/><path fill="#b3b3b3" d="M292.068 46.604l.971-.611 21.164 12.159-.988.562z"/><path fill="none" stroke="#000" d="M312.143 77.117l2.06-18.965-21.164-12.159-.969.61h-.002l-2.06 18.963-.008-.004-14.707 8.428h-.002v1.306l21.144 12.114v.002l14.731-8.381v-1.309l-.014-.043v.002z" stroke-linecap="round" stroke-linejoin="round"/><path d="M22.158 91.999h-.018l-.972.558-.135-.54 1.233-.72h.576v5.852h-.684v-5.15zm2.375 4.626c.153 0 .279-.018.432-.054.297-.072.585-.234.801-.459.324-.36.585-.892.685-1.666h-.027c-.216.279-.522.495-.945.495-.729 0-1.278-.675-1.278-1.737 0-1.071.576-1.98 1.477-1.98.999 0 1.467 1.054 1.467 2.35 0 1.152-.288 2.062-.774 2.71a2.33 2.33 0 0 1-1.351.892 2.497 2.497 0 0 1-.486.045v-.596zm.351-3.483c0 .864.324 1.278.792 1.278.288 0 .576-.198.72-.522a.956.956 0 0 0 .054-.378c0-1.225-.352-1.756-.811-1.756-.349 0-.755.378-.755 1.378zm2.799 4.006v-.45l.495-.675c.693-.964 1.521-2.062 1.521-3.16 0-.648-.288-1.044-.837-1.044-.423 0-.693.225-.846.323l-.171-.521a1.831 1.831 0 0 1 1.143-.396c.973 0 1.396.721 1.396 1.603 0 1.099-.72 2.16-1.44 3.151l-.396.54v.018h1.954v.612h-2.819zm3.618-.45c0-.306.208-.522.459-.522.279 0 .459.207.459.522s-.171.522-.459.522c-.26 0-.459-.207-.459-.522zm2.997-4.699h-.018l-.972.558-.135-.54 1.233-.72h.576v5.852h-.684v-5.15zm4.645-.19c-.117.01-.243.027-.415.063-.972.233-1.359 1.206-1.503 2.106h.027c.225-.333.549-.559.99-.559.747 0 1.26.685 1.26 1.801 0 1.107-.504 1.999-1.44 1.999-1.017 0-1.53-1.035-1.53-2.377 0-1.135.297-2.017.756-2.638.352-.495.91-.819 1.414-.928.189-.035.342-.045.441-.054v.587zm-.334 3.467c0-.883-.306-1.324-.783-1.324-.288 0-.585.198-.756.631a.934.934 0 0 0-.054.351c.009 1.197.378 1.747.846 1.747.396-.001.747-.389.747-1.405zm1.179.44c0-.819.486-1.341.963-1.674l-.009-.019c-.486-.333-.766-.846-.766-1.342 0-.899.639-1.458 1.369-1.458.837 0 1.251.702 1.251 1.378 0 .513-.243 1.008-.783 1.377v.027c.54.359.936.891.936 1.593 0 .909-.603 1.621-1.503 1.621-.972.001-1.458-.773-1.458-1.503zm2.278-.072c0-.675-.387-1.053-.837-1.35-.468.288-.756.792-.756 1.305 0 .657.297 1.107.801 1.107.432.001.792-.332.792-1.062zm-1.422-3.007c0 .595.36.892.72 1.126.351-.252.585-.64.585-1.081 0-.566-.234-.944-.657-.944-.388 0-.648.368-.648.899zm2.798 4.061c0-.306.208-.522.459-.522.279 0 .459.207.459.522s-.171.522-.459.522c-.261 0-.459-.207-.459-.522zm4.528-2.485c0 2.134-.675 3.007-1.521 3.007-.909 0-1.458-1.081-1.458-2.989 0-1.972.585-3.007 1.54-3.007.944 0 1.439 1.125 1.439 2.989zm-2.287.009c0 1.413.243 2.403.819 2.403.549 0 .774-.999.774-2.403 0-1.368-.225-2.403-.783-2.403s-.81.999-.81 2.403zm2.97 2.476c0-.306.208-.522.459-.522.279 0 .459.207.459.522s-.171.522-.459.522c-.261 0-.459-.207-.459-.522zm2.997-4.699h-.018l-.972.558-.135-.54 1.233-.72h.576v5.852h-.684v-5.15zm2.223 1.413c0-.297.198-.513.45-.513.279 0 .45.207.45.513 0 .297-.162.504-.45.504-.261 0-.45-.208-.45-.504zm0 3.303c0-.297.198-.513.45-.513.279 0 .45.207.45.513 0 .298-.162.505-.45.505-.261 0-.45-.207-.45-.505zm2.988-4.716h-.018l-.972.558-.135-.54 1.233-.72h.576v5.852h-.684v-5.15zm2.178 4.402c.18.107.495.243.846.243.603 0 1.008-.441 1.008-1.171 0-.765-.477-1.206-1.179-1.206h-.162v-.522h.135c.414-.009 1.053-.324 1.053-1.044 0-.585-.315-.9-.774-.9-.288 0-.54.145-.729.279l-.153-.522c.216-.171.612-.333 1.053-.333.828 0 1.296.595 1.296 1.351 0 .585-.306 1.099-.873 1.368v.019c.522.144 1.026.611 1.026 1.53 0 .954-.612 1.729-1.674 1.729-.378 0-.792-.108-1.026-.271l.153-.55zm3.464 0c.18.107.495.243.846.243.603 0 1.008-.441 1.008-1.171 0-.765-.477-1.206-1.179-1.206h-.162v-.522h.135c.414-.009 1.053-.324 1.053-1.044 0-.585-.315-.9-.774-.9-.288 0-.54.145-.729.279l-.153-.522c.216-.171.612-.333 1.053-.333.828 0 1.296.595 1.296 1.351 0 .585-.306 1.099-.873 1.368v.019c.522.144 1.026.611 1.026 1.53 0 .954-.612 1.729-1.674 1.729-.378 0-.792-.108-1.026-.271l.153-.55zm6.211-5.105v.414l-1.891 5.438h-.675l1.855-5.222v-.018h-2.107v-.612h2.818zm80.991-89.74a3.952 3.952 0 0 1 1-.117c.603 0 1.053.126 1.368.432.297.307.423.712.423 1.188 0 .774-.36 1.278-.972 1.558v.019c.45.135.684.566.819 1.359.135.837.261 1.35.342 1.539h-.702c-.09-.18-.207-.756-.324-1.504-.135-.828-.396-1.143-.99-1.143h-.27v2.646h-.693V1.556zm.693 2.799h.288c.666 0 1.107-.486 1.107-1.216 0-.702-.288-1.134-1.036-1.144-.135 0-.27.01-.36.036v2.324zm3.42 1.063c.009 1.332.531 1.62 1.036 1.62.297 0 .549-.072.72-.171l.108.513c-.243.136-.612.207-.955.207-1.044 0-1.584-.854-1.584-2.188 0-1.413.594-2.296 1.468-2.296.891 0 1.242.937 1.242 1.927 0 .162 0 .279-.009.388h-2.026zm1.369-.514c.018-.873-.315-1.261-.648-1.261-.45 0-.684.667-.711 1.261h1.359zm1.412-3.6h.693v6.229h-.693V1.304zm3.439 6.229l-.045-.459h-.027c-.189.333-.495.531-.864.531-.585 0-1.036-.495-1.036-1.242 0-1.09.874-1.576 1.855-1.585v-.134c0-.585-.145-.99-.693-.99-.27 0-.513.09-.72.225l-.153-.486c.18-.135.585-.288 1.018-.288.873 0 1.251.576 1.251 1.558v1.882c0 .333 0 .711.045.99h-.631zm-.1-2.251c-.36 0-1.197.063-1.197 1.009 0 .567.288.774.531.774.306 0 .567-.226.648-.657.018-.081.018-.171.018-.243v-.883zm1.926-2.106l.576 2.503c.081.342.126.63.18.9h.018c.045-.243.117-.576.189-.892l.513-2.512h.685l-.711 2.8c-.271 1.099-.567 2.151-1.081 2.809-.306.388-.63.595-.783.667l-.252-.595c.198-.107.414-.297.612-.549.18-.226.324-.522.396-.729a.609.609 0 0 0 .045-.216c0-.054 0-.108-.018-.162l-1.098-4.024h.729zm4.05 3.637c.152.099.423.225.702.225.396 0 .64-.243.64-.63 0-.333-.117-.559-.559-.855-.567-.369-.873-.738-.873-1.242 0-.702.521-1.207 1.197-1.207.342 0 .604.117.783.226l-.189.522a1.024 1.024 0 0 0-.576-.189.533.533 0 0 0-.566.549c0 .298.107.459.539.757.505.324.9.72.9 1.323 0 .873-.594 1.296-1.305 1.296-.324 0-.676-.099-.864-.252l.171-.523zm3.203-1.395c.01 1.332.531 1.62 1.036 1.62.297 0 .549-.072.72-.171l.108.513c-.243.136-.612.207-.954.207-1.045 0-1.585-.854-1.585-2.188 0-1.413.595-2.296 1.468-2.296.891 0 1.242.937 1.242 1.927 0 .162 0 .279-.009.388h-2.026zm1.369-.514c.018-.873-.315-1.261-.648-1.261-.45 0-.684.667-.711 1.261h1.359zm1.404-.603c0-.368-.026-.801-.036-1.125h.621l.036.685h.019c.144-.414.513-.757.918-.757.054 0 .1.01.145.01v.711c-.045-.009-.091-.009-.145-.009-.441 0-.766.404-.838.909a2.658 2.658 0 0 0-.026.396v2.413h-.693V4.301zm2.826-1.125l.549 2.449c.063.297.136.684.189 1.062h.026c.045-.359.117-.729.181-1.062l.54-2.449h.684l-1.134 4.357h-.621l-1.134-4.357h.72zm3.14 2.242c.009 1.332.531 1.62 1.036 1.62.297 0 .549-.072.72-.171l.108.513c-.244.136-.613.207-.955.207-1.044 0-1.584-.854-1.584-2.188 0-1.413.594-2.296 1.467-2.296.892 0 1.242.937 1.242 1.927 0 .162 0 .279-.008.388h-2.026zm1.369-.514c.019-.873-.314-1.261-.648-1.261-.449 0-.684.667-.711 1.261h1.359zm1.404-.603c0-.368-.027-.801-.037-1.125h.622l.036.685h.018c.145-.414.514-.757.918-.757.055 0 .1.01.145.01v.711c-.045-.009-.09-.009-.145-.009-.441 0-.765.404-.837.909a2.53 2.53 0 0 0-.026.396v2.413h-.693V4.301z"/><path fill="#c1272d" d="M108.4 74.799v-6.736h.729l1.239 3.158c.28.72.63 1.619.86 2.349h.02c-.06-1.06-.09-1.929-.09-3.098v-2.409h.69v6.736h-.729l-1.279-3.238c-.27-.68-.56-1.449-.8-2.289h-.02c.06.899.08 1.76.08 3.198v2.329h-.7zm5.459-2.018l-.45 2.019h-.74l1.539-6.736h.85l1.5 6.736h-.76l-.45-2.019h-1.489zm1.39-.62l-.35-1.709c-.1-.479-.19-1.039-.27-1.539h-.04c-.08.51-.18 1.089-.27 1.539l-.35 1.709h1.28zm2.34-3.409h-1.229v-.689h3.228v.689h-1.229v6.047h-.77v-6.047z"/><path fill="#b3b3b3" d="M168.798 33.314v4.291L146.36 24.662v-4.287z"/><path fill="#333" d="M150.024 23.667v1.793l-1.892-1.091v-1.795zm2.125 1.205v1.795l-1.892-1.093v-1.795zm2.125 1.25v1.794l-1.892-1.092v-1.795zm2.125 1.227v1.795l-1.892-1.094v-1.795zm2.125 1.227v1.793l-1.892-1.092V27.48zm2.125 1.22v1.793l-1.892-1.092v-1.794zm2.127 1.227v1.793l-1.894-1.092v-1.795zm2.125 1.225v1.794l-1.894-1.093v-1.795zm2.125 1.226v1.793l-1.892-1.092V32.38z"/><path fill="gray" d="M168.784 33.353l16.336-9.404v4.289l-16.336 9.404z"/><path fill="#999" d="M146.413 20.402l16.381-9.404 22.394 12.941-16.337 9.402z"/><path fill="none" stroke="#000" d="M185.188 23.939l-22.394-12.941-16.381 9.404-.053-.027v4.287l22.424 12.935v.045l16.336-9.404v-4.26z" stroke-linecap="round" stroke-linejoin="round"/><path d="M123.729 136.232c.207.135.567.242.873.242.63 0 1.008-.414 1.008-1.025 0-.559-.324-.9-.801-1.26-.477-.334-1.143-.9-1.143-1.684 0-.918.639-1.594 1.603-1.594.378 0 .711.117.855.225l-.171.594a1.276 1.276 0 0 0-.72-.207c-.594 0-.874.451-.874.865 0 .604.315.836.892 1.252.729.512 1.053 1.07 1.053 1.746 0 1.043-.738 1.701-1.702 1.701-.414 0-.855-.135-1.026-.262l.153-.593zm4.095-4.645h-1.107v-.621h2.908v.621h-1.107v5.445h-.693v-5.445zm3.159-.621v4.068c0 1.09.36 1.459.828 1.459.513 0 .837-.396.837-1.459v-4.068h.693v3.961c0 1.574-.648 2.178-1.548 2.178-.909 0-1.503-.594-1.503-2.098v-4.041h.693zm3.428 6.067v-6.066h.657l1.116 2.844c.252.648.567 1.459.774 2.115h.018a45.62 45.62 0 0 1-.081-2.791v-2.168h.621v6.066h-.657l-1.152-2.916a21.965 21.965 0 0 1-.72-2.062h-.018c.054.811.072 1.586.072 2.881v2.098h-.63zm5.427-.719c.153.098.423.225.702.225.396 0 .639-.244.639-.631 0-.332-.117-.559-.558-.855-.567-.369-.873-.738-.873-1.242 0-.701.522-1.207 1.197-1.207.342 0 .603.117.783.227l-.189.521a1.032 1.032 0 0 0-.576-.189.534.534 0 0 0-.567.549c0 .299.108.459.54.758.504.324.9.719.9 1.322 0 .873-.594 1.297-1.305 1.297-.324 0-.675-.1-.864-.252l.171-.523zm3.204-1.397c.009 1.332.531 1.621 1.036 1.621.297 0 .549-.072.72-.172l.108.514c-.243.135-.612.207-.955.207-1.044 0-1.584-.855-1.584-2.188 0-1.414.594-2.297 1.468-2.297.891 0 1.242.938 1.242 1.928 0 .162 0 .279-.009.387h-2.026zm1.369-.513c.018-.873-.315-1.26-.648-1.26-.45 0-.684.666-.711 1.26h1.359zm1.403-.604c0-.367-.027-.801-.036-1.125h.622l.036.686h.018c.144-.414.513-.758.918-.758.054 0 .099.01.144.01v.711c-.045-.008-.09-.008-.144-.008-.441 0-.765.404-.837.908a2.65 2.65 0 0 0-.027.396v2.412h-.693V133.8zm2.826-1.125l.549 2.449c.063.297.135.684.189 1.062h.027c.045-.359.117-.729.18-1.062l.54-2.449h.684l-1.134 4.357h-.621l-1.134-4.357h.72zm3.141 2.242c.009 1.332.531 1.621 1.036 1.621.297 0 .549-.072.72-.172l.108.514c-.243.135-.612.207-.955.207-1.044 0-1.584-.855-1.584-2.188 0-1.414.594-2.297 1.468-2.297.891 0 1.242.938 1.242 1.928 0 .162 0 .279-.009.387h-2.026zm1.368-.513c.018-.873-.315-1.26-.648-1.26-.45 0-.684.666-.711 1.26h1.359zm1.403-.604c0-.367-.027-.801-.036-1.125h.622l.036.686h.018c.144-.414.513-.758.918-.758.054 0 .099.01.144.01v.711c-.045-.008-.09-.008-.144-.008-.441 0-.765.404-.837.908a2.65 2.65 0 0 0-.027.396v2.412h-.693V133.8z"/><path fill="#b3b3b3" d="M142.839 124.814v4.291l-22.437-12.943v-4.288z"/><path fill="#333" d="M124.066 115.168v1.792l-1.893-1.091v-1.795zm2.125 1.204v1.796l-1.893-1.094v-1.795zm2.125 1.25v1.793l-1.893-1.091v-1.795zm2.125 1.227v1.795l-1.893-1.094v-1.795zm2.125 1.227v1.793l-1.893-1.092v-1.797zm2.125 1.22v1.793l-1.893-1.092v-1.794zm2.127 1.227v1.793l-1.895-1.092v-1.795zm2.125 1.224v1.796l-1.895-1.094v-1.795zm2.125 1.227v1.793l-1.893-1.092v-1.795z"/><path fill="gray" d="M142.826 124.853l16.336-9.404v4.289l-16.336 9.404z"/><path fill="#999" d="M120.455 111.902l16.38-9.405 22.395 12.942-16.338 9.402z"/><path fill="none" stroke="#000" d="M159.23 115.439l-22.395-12.942-16.38 9.405-.053-.028v4.288l22.424 12.935v.045l16.336-9.404v-4.26z" stroke-linecap="round" stroke-linejoin="round"/><path d="M183.729 136.232c.207.135.566.242.873.242.631 0 1.008-.414 1.008-1.025 0-.559-.324-.9-.801-1.26-.477-.334-1.143-.9-1.143-1.684 0-.918.639-1.594 1.602-1.594.379 0 .711.117.855.225l-.171.594a1.276 1.276 0 0 0-.72-.207c-.595 0-.874.451-.874.865 0 .604.315.836.892 1.252.729.512 1.053 1.07 1.053 1.746 0 1.043-.738 1.701-1.701 1.701-.414 0-.855-.135-1.026-.262l.153-.593zm4.095-4.645h-1.107v-.621h2.907v.621h-1.106v5.445h-.693v-5.445zm3.158-.621v4.068c0 1.09.36 1.459.828 1.459.514 0 .838-.396.838-1.459v-4.068h.693v3.961c0 1.574-.648 2.178-1.549 2.178-.909 0-1.504-.594-1.504-2.098v-4.041h.694zm3.429 6.067v-6.066h.657l1.116 2.844c.253.648.567 1.459.774 2.115h.018a45.648 45.648 0 0 1-.08-2.791v-2.168h.621v6.066h-.658l-1.152-2.916a22.255 22.255 0 0 1-.72-2.062h-.019c.055.811.072 1.586.072 2.881v2.098h-.629zm5.427-.719c.152.098.424.225.702.225.396 0 .64-.244.64-.631 0-.332-.117-.559-.559-.855-.567-.369-.873-.738-.873-1.242 0-.701.521-1.207 1.197-1.207.342 0 .604.117.783.227l-.189.521a1.032 1.032 0 0 0-.576-.189.533.533 0 0 0-.566.549c0 .299.107.459.539.758.505.324.9.719.9 1.322 0 .873-.594 1.297-1.305 1.297-.324 0-.676-.1-.864-.252l.171-.523zm3.204-1.397c.009 1.332.531 1.621 1.036 1.621.297 0 .549-.072.72-.172l.108.514c-.244.135-.613.207-.955.207-1.044 0-1.584-.855-1.584-2.188 0-1.414.594-2.297 1.467-2.297.892 0 1.242.938 1.242 1.928 0 .162 0 .279-.008.387h-2.026zm1.368-.513c.019-.873-.314-1.26-.648-1.26-.449 0-.684.666-.711 1.26h1.359zm1.404-.604c0-.367-.027-.801-.037-1.125h.622l.036.686h.018c.145-.414.514-.758.918-.758.055 0 .1.01.145.01v.711c-.045-.008-.09-.008-.145-.008-.441 0-.765.404-.837.908a2.53 2.53 0 0 0-.026.396v2.412h-.693V133.8zm2.826-1.125l.549 2.449c.063.297.136.684.189 1.062h.026c.045-.359.117-.729.181-1.062l.54-2.449h.684l-1.134 4.357h-.621l-1.134-4.357h.72zm3.141 2.242c.009 1.332.531 1.621 1.035 1.621.297 0 .549-.072.721-.172l.107.514c-.243.135-.612.207-.955.207-1.043 0-1.584-.855-1.584-2.188 0-1.414.594-2.297 1.468-2.297.892 0 1.242.938 1.242 1.928 0 .162 0 .279-.009.387h-2.025zm1.368-.513c.019-.873-.315-1.26-.648-1.26-.45 0-.685.666-.711 1.26h1.359zm1.404-.604c0-.367-.027-.801-.037-1.125h.622l.036.686h.018c.145-.414.514-.758.918-.758.055 0 .1.01.145.01v.711c-.045-.008-.09-.008-.145-.008-.441 0-.765.404-.837.908a2.53 2.53 0 0 0-.026.396v2.412h-.693V133.8z"/><path fill="#b3b3b3" d="M202.84 124.814v4.291l-22.438-12.943v-4.288z"/><path fill="#333" d="M184.066 115.168v1.792l-1.892-1.091v-1.795zm2.125 1.204v1.796l-1.892-1.094v-1.795zm2.125 1.25v1.793l-1.892-1.091v-1.795zm2.125 1.227v1.795l-1.892-1.094v-1.795zm2.125 1.227v1.793l-1.892-1.092v-1.797zm2.125 1.22v1.793l-1.892-1.092v-1.794zm2.127 1.227v1.793l-1.894-1.092v-1.795zm2.125 1.224v1.796l-1.894-1.094v-1.795zm2.125 1.227v1.793l-1.892-1.092v-1.795z"/><path fill="gray" d="M202.826 124.853l16.336-9.404v4.289l-16.336 9.404z"/><path fill="#999" d="M180.455 111.902l16.381-9.405 22.394 12.942-16.337 9.402z"/><path fill="none" stroke="#000" d="M219.23 115.439l-22.394-12.942-16.381 9.405-.053-.028v4.288l22.424 12.935v.045l16.336-9.404v-4.26z" stroke-linecap="round" stroke-linejoin="round"/><path fill="#c1272d" d="M211.4 74.799v-6.736h.729l1.24 3.158c.279.72.629 1.619.859 2.349h.02c-.06-1.06-.09-1.929-.09-3.098v-2.409h.689v6.736h-.729l-1.279-3.238a23.846 23.846 0 0 1-.801-2.289h-.02c.061.899.08 1.76.08 3.198v2.329h-.698zm5.459-2.018l-.449 2.019h-.74l1.539-6.736h.85l1.5 6.736h-.76l-.45-2.019h-1.49zm1.389-.62l-.35-1.709c-.1-.479-.189-1.039-.27-1.539h-.04c-.079.51-.18 1.089-.27 1.539l-.351 1.709h1.281zm2.342-3.409h-1.229v-.689h3.228v.689h-1.229v6.047h-.77v-6.047z"/><path d="M272.158 91.999h-.019l-.972.558-.135-.54 1.232-.72h.576v5.852h-.684v-5.15zm2.375 4.626c.153 0 .279-.018.432-.054.298-.072.586-.234.802-.459.324-.36.585-.892.685-1.666h-.027c-.216.279-.521.495-.945.495-.729 0-1.278-.675-1.278-1.737 0-1.071.576-1.98 1.477-1.98.999 0 1.468 1.054 1.468 2.35 0 1.152-.289 2.062-.774 2.71a2.333 2.333 0 0 1-1.351.892 2.497 2.497 0 0 1-.486.045v-.596zm.352-3.483c0 .864.324 1.278.792 1.278.288 0 .576-.198.72-.522a.935.935 0 0 0 .055-.378c0-1.225-.352-1.756-.811-1.756-.352 0-.756.378-.756 1.378zm2.799 4.006v-.45l.494-.675c.693-.964 1.521-2.062 1.521-3.16 0-.648-.287-1.044-.837-1.044-.423 0-.692.225-.847.323l-.17-.521a1.829 1.829 0 0 1 1.143-.396c.973 0 1.396.721 1.396 1.603 0 1.099-.72 2.16-1.44 3.151l-.396.54v.018h1.954v.612h-2.818zm3.617-.45c0-.306.208-.522.46-.522.278 0 .459.207.459.522s-.171.522-.459.522c-.261 0-.46-.207-.46-.522zm2.998-4.699h-.019l-.972.558-.135-.54 1.232-.72h.576v5.852h-.684v-5.15zm4.644-.19c-.117.01-.244.027-.415.063-.972.233-1.359 1.206-1.503 2.106h.027c.225-.333.549-.559.99-.559.746 0 1.26.685 1.26 1.801 0 1.107-.504 1.999-1.44 1.999-1.017 0-1.53-1.035-1.53-2.377 0-1.135.297-2.017.756-2.638.352-.495.91-.819 1.414-.928.188-.035.342-.045.441-.054v.587zm-.334 3.467c0-.883-.306-1.324-.783-1.324-.288 0-.585.198-.756.631a.929.929 0 0 0-.055.351c.01 1.197.379 1.747.847 1.747.396-.001.747-.389.747-1.405zm1.179.44c0-.819.486-1.341.964-1.674l-.01-.019c-.486-.333-.766-.846-.766-1.342 0-.899.64-1.458 1.369-1.458.838 0 1.252.702 1.252 1.378 0 .513-.244 1.008-.783 1.377v.027c.539.359.936.891.936 1.593 0 .909-.604 1.621-1.504 1.621-.972.001-1.458-.773-1.458-1.503zm2.278-.072c0-.675-.388-1.053-.838-1.35-.468.288-.756.792-.756 1.305 0 .657.297 1.107.801 1.107.432.001.793-.332.793-1.062zm-1.422-3.007c0 .595.36.892.72 1.126.352-.252.586-.64.586-1.081 0-.566-.234-.944-.658-.944-.388 0-.648.368-.648.899zm2.797 4.061c0-.306.208-.522.46-.522.278 0 .459.207.459.522s-.171.522-.459.522c-.26 0-.46-.207-.46-.522zm4.529-2.485c0 2.134-.675 3.007-1.521 3.007-.909 0-1.458-1.081-1.458-2.989 0-1.972.584-3.007 1.539-3.007.945 0 1.44 1.125 1.44 2.989zm-2.287.009c0 1.413.243 2.403.819 2.403.549 0 .774-.999.774-2.403 0-1.368-.226-2.403-.783-2.403s-.81.999-.81 2.403zm2.969 2.476c0-.306.208-.522.46-.522.278 0 .459.207.459.522s-.171.522-.459.522c-.26 0-.46-.207-.46-.522zm2.998-4.699h-.019l-.972.558-.135-.54 1.232-.72h.576v5.852h-.684v-5.15zm2.223 1.413c0-.297.197-.513.449-.513.279 0 .451.207.451.513 0 .297-.162.504-.451.504-.26 0-.449-.208-.449-.504zm0 3.303c0-.297.197-.513.449-.513.279 0 .451.207.451.513 0 .298-.162.505-.451.505-.26 0-.449-.207-.449-.505zm1.584.433v-.45l.494-.675c.693-.964 1.521-2.062 1.521-3.16 0-.648-.287-1.044-.837-1.044-.423 0-.692.225-.847.323l-.17-.521a1.829 1.829 0 0 1 1.143-.396c.973 0 1.396.721 1.396 1.603 0 1.099-.72 2.16-1.44 3.151l-.396.54v.018h1.954v.612h-2.818zm3.582-.747c.18.107.494.243.846.243.604 0 1.008-.441 1.008-1.171 0-.765-.477-1.206-1.179-1.206h-.162v-.522h.135c.414-.009 1.054-.324 1.054-1.044 0-.585-.315-.9-.774-.9-.288 0-.54.145-.729.279l-.152-.522c.215-.171.611-.333 1.053-.333.828 0 1.297.595 1.297 1.351 0 .585-.307 1.099-.873 1.368v.019c.521.144 1.025.611 1.025 1.53 0 .954-.611 1.729-1.674 1.729-.379 0-.793-.108-1.027-.271l.152-.55zm3.465 0c.18.107.494.243.846.243.604 0 1.008-.441 1.008-1.171 0-.765-.477-1.206-1.179-1.206h-.162v-.522h.135c.414-.009 1.054-.324 1.054-1.044 0-.585-.315-.9-.774-.9-.288 0-.54.145-.729.279l-.152-.522c.215-.171.611-.333 1.053-.333.828 0 1.297.595 1.297 1.351 0 .585-.307 1.099-.873 1.368v.019c.521.144 1.025.611 1.025 1.53 0 .954-.611 1.729-1.674 1.729-.379 0-.793-.108-1.027-.271l.152-.55zm6.211-5.105v.414l-1.891 5.438h-.676l1.855-5.222v-.018h-2.107v-.612h2.819z"/><path fill="none" stroke="#000" d="M135.019 53.595l17.509-17.75"/><path d="M154.05 38.576l1.509-5.79-5.769 1.588zm-20.552 12.289l-1.51 5.789 5.769-1.588z"/><path fill="none" stroke="#000" d="M202.527 53.595l-17.508-17.75"/><path d="M187.77 34.361l-5.769-1.588 1.509 5.79zm12.006 20.719l5.769 1.587-1.509-5.79z"/><path fill="none" stroke="#000" d="M125.245 83.15l4.25 17.347"/><path d="M126.372 100.362l4.138 4.32 1.673-5.744zm1.996-17.076l-4.139-4.321-1.672 5.745z"/><path fill="none" stroke="#000" d="M209.494 83.15l-4.25 17.347"/><path d="M202.538 98.933l1.673 5.744 4.139-4.32zm9.663-14.219l-1.673-5.744-4.138 4.32z"/></svg>