<svg xmlns="http://www.w3.org/2000/svg" viewBox="0 0 237.974 95.696"><path fill="none" stroke="#009245" d="M137.779 36.989h63.75" stroke-linecap="round" stroke-linejoin="round"/><path fill="#009245" d="M200.654 39.99l5.18-2.991-5.18-2.992z"/><path fill="none" stroke="#0071bc" d="M105.529 56.989H35.687" stroke-linecap="round" stroke-linejoin="round"/><path fill="#0071bc" d="M36.562 53.988L31.38 56.98l5.182 2.991z"/><path fill="#b2d4eb" fill-rule="evenodd" d="M133.598 69.262c-3.18.91-6.337.24-8.689-1.541-1.387 1.622-3.03 2.739-5.185 3.353-5.568 1.589-10.685-.249-11.907-5.832a10.858 10.858 0 0 1-3.299 1.577c-5.562 1.589-11.345-1.764-12.569-7.35-4.843.428-9.252-2.674-10.33-7.599-1.222-5.584 2.299-11.398 7.86-12.985a10.259 10.259 0 0 1 3.731-.365c-1.222-5.581 2.367-9.968 7.932-11.558 2.232-.635 4.155-.862 6.096-.105 1.37-2.705 3.822-4.872 6.897-5.749 5.562-1.586 11.062 1.652 12.288 7.236.571-.281 1.052-.298 1.679-.479 5.564-1.587 11.067 1.65 12.289 7.236 4.823-.398 9.536 2.807 10.609 7.713 1.226 5.583-3.974 11.875-9.537 13.465 1.221 5.583-2.298 11.397-7.865 12.983z" clip-rule="evenodd" mask="url(#b)"/><path fill="none" stroke="#009245" d="M32.687 36.989h52.842" stroke-linecap="round" stroke-linejoin="round"/><path fill="#009245" d="M84.654 39.99l5.181-2.991-5.181-2.992z"/><path fill="none" stroke="#0071bc" d="M215.529 56.989h-69.842" stroke-linecap="round" stroke-linejoin="round"/><path fill="#0071bc" d="M146.562 53.988l-5.182 2.992 5.182 2.991z"/><path fill="#c7b299" d="M29.309 47.26h3.378l-.002.482s.083 2.393-1.686 2.393c-1.731 0-1.69-2.393-1.69-2.393v-.482z"/><ellipse cx="30.998" cy="47.26" fill="#998675" fill-rule="evenodd" rx="1.689" ry=".423" clip-rule="evenodd"/><path fill="#c7b299" d="M26.534 55.115h3.033v15.572c0 .451-.68.815-1.518.815-.837 0-1.516-.365-1.516-.815V55.115zm-3.808 2.364h3.033v15.572c0 .449-.68.814-1.518.814s-1.516-.365-1.516-.814V57.479z"/><path fill="#199d58" d="M32.726 32.898l-.039 13.812c0 .234-.756.425-1.688.425-.937 0-1.69-.191-1.69-.425l.038-13.812s-.082-3.235 1.689-3.235c1.731 0 1.69 3.235 1.69 3.235z"/><path fill="#009245" d="M19.878 34.119c-.008-1.158 1.117-4.539 6.16-5.501 5.565-1.06 5.652 2.84 5.652 2.84a.703.703 0 0 1-.004.258l.018 2.806s-.306 2.159-1.093 3.237c-.673.924-.716 2.63-.416 3.719.303 1.083 1.388 6.236.515 13.727 0 0-.584 1.74-4.92 2.555-4.334.919-4.916-.589-4.916-.589-.875-7.142.211-12.724.51-13.93.304-1.208.26-2.9-.413-3.554-.788-.763-1.093-2.797-1.093-2.797s-.053-2.478.003-2.9c0 0-.009.049-.003.129z"/><path fill="#c7b299" d="M18.523 51.56h3.378v.482s.083 2.392-1.691 2.392c-1.727 0-1.688-2.392-1.688-2.392v-.482z"/><ellipse cx="20.213" cy="51.559" fill="#998675" fill-rule="evenodd" rx="1.689" ry=".421" clip-rule="evenodd"/><path fill="#998675" d="M27.683 29.6c1.265.298 1.438 1.163.387 1.934-1.052.77-2.928 1.156-4.193.859-1.266-.299-1.439-1.164-.387-1.937 1.05-.769 2.927-1.153 4.193-.856z"/><path fill="#33a86a" d="M21.942 37.199l-.041 13.81c0 .234-.757.426-1.688.426-.934 0-1.691-.192-1.691-.426l.04-13.81s-.084-3.236 1.689-3.236c1.732 0 1.691 3.236 1.691 3.236z"/><path fill="#c7b299" d="M24.675 31.045c-3.838-.867-4.574-6.849-1.095-8.893 1.063-.621 2.084-.517 2.601-.425 2.28.539 3.136 2.676 3.281 3.851.318 2.588-.92 4.3-2.186 5.04a3.632 3.632 0 0 1-2.601.427z"/><path fill="none" stroke="#000" d="M31.036 29.663c-.021 0-.041.006-.062.007-.389-.468-.997-.892-1.922-1.096.365-.811.556-1.804.41-2.997-.146-1.175-1.001-3.312-3.281-3.851-.517-.091-1.537-.195-2.601.425-2.749 1.612-2.857 5.669-.897 7.739-2.14 1.356-2.764 3.247-2.8 4.129l-.005.004c0-.022.003-.035.003-.035l-.003.035c-1.381.426-1.314 3.174-1.314 3.174l-.04 13.81c0 .106.159.204.415.275-.256.074-.415.17-.415.275v.482s-.04 2.392 1.688 2.392c.153 0 .286-.021.411-.052.053.897.133 1.829.252 2.789 0 0 .273.712 1.852.861v15.019c0 .449.678.814 1.516.814s1.518-.365 1.518-.814V57.764c.012 0 .021-.003.031-.003.262-.051.509-.103.744-.158v13.085c0 .451.679.815 1.516.815.838 0 1.518-.365 1.518-.815v-14.29c.951-.632 1.143-1.192 1.143-1.192.213-1.843.31-3.538.326-5.074 1.728-.035 1.649-2.389 1.649-2.389l.002-.482c0-.105-.158-.201-.414-.275.256-.072.414-.169.414-.275l.039-13.812c-.003-.001.038-3.236-1.693-3.236z" stroke-linecap="round" stroke-linejoin="round"/><path fill="#c7b299" d="M217.617 47.261h3.379l-.002.482s.082 2.394-1.688 2.394c-1.73 0-1.689-2.394-1.689-2.394v-.482z"/><ellipse cx="219.306" cy="47.261" fill="#998675" fill-rule="evenodd" rx="1.689" ry=".424" clip-rule="evenodd"/><path fill="#c7b299" d="M214.841 55.117h3.035v15.572c0 .451-.68.815-1.518.815s-1.518-.365-1.518-.815V55.117zm-3.808 2.363h3.035v15.571c0 .45-.68.813-1.518.813s-1.518-.363-1.518-.813V57.48z"/><path fill="#c73d42" d="M221.035 32.9l-.039 13.812c0 .234-.758.425-1.689.425-.936 0-1.689-.191-1.689-.425l.039-13.812s-.082-3.236 1.689-3.236c1.728 0 1.689 3.236 1.689 3.236z"/><path fill="#c1272d" d="M208.187 34.12c-.008-1.157 1.117-4.538 6.16-5.5 5.564-1.06 5.652 2.84 5.652 2.84a.698.698 0 0 1-.004.257l.018 2.807s-.307 2.159-1.094 3.236c-.672.925-.717 2.631-.416 3.72.303 1.083 1.387 6.236.516 13.726 0 0-.584 1.74-4.92 2.556-4.334.919-4.916-.589-4.916-.589-.875-7.142.209-12.724.51-13.93.303-1.208.26-2.9-.414-3.554-.787-.763-1.092-2.797-1.092-2.797s-.053-2.478.002-2.9a.585.585 0 0 0-.002.128z"/><path fill="#c7b299" d="M206.831 51.56h3.377v.483s.084 2.392-1.689 2.392c-1.727 0-1.688-2.392-1.688-2.392v-.483z"/><ellipse cx="208.521" cy="51.56" fill="#998675" fill-rule="evenodd" rx="1.688" ry=".421" clip-rule="evenodd"/><path fill="#998675" d="M215.99 29.602c1.266.298 1.439 1.163.389 1.934-1.053.769-2.93 1.156-4.193.859-1.268-.298-1.441-1.164-.387-1.936 1.048-.771 2.927-1.154 4.191-.857z"/><path fill="#cd5257" d="M210.251 37.199l-.043 13.811c0 .234-.756.427-1.686.427-.936 0-1.691-.192-1.691-.427l.041-13.811s-.084-3.235 1.688-3.235c1.73 0 1.691 3.235 1.691 3.235z"/><path fill="#c7b299" d="M212.982 31.046c-3.836-.867-4.574-6.849-1.094-8.892 1.064-.621 2.084-.518 2.6-.425 2.281.538 3.137 2.675 3.283 3.851.316 2.588-.92 4.3-2.186 5.039a3.626 3.626 0 0 1-2.603.427z"/><path fill="none" stroke="#000" d="M219.345 29.664c-.021 0-.041.005-.062.008-.391-.468-.998-.892-1.922-1.097.363-.809.555-1.804.41-2.996-.146-1.175-1.002-3.312-3.283-3.851-.516-.092-1.535-.195-2.6.425-2.748 1.612-2.857 5.669-.896 7.738-2.141 1.357-2.764 3.248-2.801 4.13l-.004.003c0-.022.002-.035.002-.035-.002.01-.002.025-.002.035-1.381.426-1.314 3.173-1.314 3.173l-.041 13.811c0 .104.16.204.416.275-.256.074-.416.17-.416.274v.483s-.039 2.392 1.688 2.392c.154 0 .285-.021.41-.052.055.897.135 1.828.254 2.789 0 0 .273.712 1.85.861v15.019c0 .45.68.813 1.518.813s1.518-.363 1.518-.813V57.766c.01 0 .021-.004.031-.004.26-.051.508-.103.742-.158v13.085c0 .451.68.815 1.518.815s1.518-.365 1.518-.815v-14.29c.951-.633 1.143-1.193 1.143-1.193.213-1.842.309-3.537.326-5.074 1.729-.036 1.648-2.389 1.648-2.389l.002-.482c0-.104-.158-.201-.414-.274.256-.072.414-.168.414-.275l.039-13.812c-.002 0 .037-3.236-1.692-3.236z" stroke-linecap="round" stroke-linejoin="round"/><path d="M102.269 43.207c.23.14.63.27.97.27.699 0 1.119-.459 1.119-1.139 0-.62-.36-1-.89-1.399-.53-.37-1.269-.999-1.269-1.869 0-1.02.72-1.769 1.779-1.769.42 0 .79.14.95.249l-.19.66a1.41 1.41 0 0 0-.8-.229c-.66 0-.969.499-.969.959 0 .67.35.939.989 1.39.81.569 1.169 1.189 1.169 1.938 0 1.159-.819 1.889-1.889 1.889-.46 0-.95-.149-1.14-.3l.171-.65zm4.06-4.697c-.25 0-.439-.2-.439-.5s.2-.499.45-.499c.28 0 .459.199.459.499s-.18.5-.459.5h-.011zm-.36 5.587V39.26h.77v4.837h-.77zm4.758-.62c0 1.27-.16 1.749-.479 2.109-.3.319-.75.51-1.29.51-.41 0-.81-.1-1.059-.24l.18-.6c.19.101.51.21.89.21.609 0 .989-.38.989-1.479v-.489h-.02c-.16.38-.52.59-.919.59-.859 0-1.419-.97-1.419-2.389 0-1.789.8-2.519 1.52-2.519.51 0 .75.34.899.619h.02l.04-.539h.689c-.01.329-.04.759-.04 1.509v2.708zm-.769-2.548c0-.13-.01-.25-.04-.36-.08-.319-.26-.729-.7-.729-.549 0-.849.75-.849 1.819 0 1.239.39 1.799.849 1.799.24 0 .54-.11.69-.689.05-.15.05-.3.05-.439v-1.401zm1.84-.42c0-.569-.03-.859-.04-1.249h.67l.04.579h.02c.21-.39.6-.659 1.109-.659.669 0 1.169.489 1.169 1.669v3.248h-.77v-3.118c0-.58-.11-1.149-.669-1.149-.32 0-.629.27-.72.789-.03.11-.04.261-.04.431v3.048h-.77v-3.589zm6.6 2.488c0 .37 0 .79.05 1.1h-.689l-.05-.51h-.03c-.21.37-.55.59-.96.59-.649 0-1.149-.54-1.149-1.379 0-1.22.97-1.749 2.06-1.76v-.149c0-.649-.16-1.1-.77-1.1-.3 0-.57.09-.8.25l-.17-.54c.21-.149.65-.319 1.129-.319.97 0 1.38.64 1.38 1.719v2.098zm-.75-1.409c-.4 0-1.33.08-1.33 1.13 0 .64.32.859.59.859.34 0 .62-.25.709-.729.021-.09.03-.19.03-.28v-.98zm1.841-4.407h.77v6.916h-.77v-6.916zm2.269 1.329c-.25 0-.439-.2-.439-.5s.2-.499.45-.499c.279 0 .459.199.459.499s-.18.5-.459.5h-.011zm-.359 5.587V39.26h.77v4.837h-.77zm1.84-3.588c0-.569-.03-.859-.04-1.249h.67l.04.579h.02c.21-.39.6-.659 1.109-.659.67 0 1.17.489 1.17 1.669v3.248h-.771v-3.118c0-.58-.109-1.149-.669-1.149-.32 0-.63.27-.72.789-.03.11-.04.261-.04.431v3.048h-.77v-3.589zm6.969 2.968c0 1.27-.16 1.749-.479 2.109-.3.319-.75.51-1.29.51-.409 0-.81-.1-1.059-.24l.18-.6c.189.101.51.21.89.21.609 0 .989-.38.989-1.479v-.489h-.021c-.159.38-.52.59-.919.59-.859 0-1.42-.97-1.42-2.389 0-1.789.8-2.519 1.52-2.519.51 0 .75.34.899.619h.021l.04-.539h.689c-.01.329-.04.759-.04 1.509v2.708zm-.77-2.548c0-.13-.01-.25-.04-.36-.08-.319-.26-.729-.7-.729-.549 0-.849.75-.849 1.819 0 1.239.39 1.799.849 1.799.24 0 .54-.11.69-.689.05-.15.05-.3.05-.439v-1.401zm-22.141 13.048c-.209.11-.549.18-.969.18-1.309 0-2.259-1.049-2.259-3.338 0-2.668 1.319-3.518 2.389-3.518.4 0 .7.08.83.17l-.17.649c-.16-.07-.32-.14-.669-.14-.72 0-1.569.699-1.569 2.758 0 2.069.76 2.738 1.589 2.738.29 0 .54-.069.699-.14l.129.641zm.722-6.796h.77v2.599h.02c.1-.17.25-.32.41-.43.17-.11.37-.17.64-.17.609 0 1.129.479 1.129 1.709v3.208h-.77v-3.118c0-.6-.13-1.149-.649-1.149-.36 0-.63.26-.75.77-.02.11-.03.25-.03.359v3.139h-.77v-6.917zm6.598 5.816c0 .37 0 .79.05 1.1h-.689l-.05-.51h-.03c-.21.37-.55.59-.959.59-.649 0-1.149-.54-1.149-1.379 0-1.22.97-1.749 2.059-1.76v-.149c0-.649-.16-1.1-.77-1.1-.3 0-.57.09-.8.25l-.17-.54c.21-.149.65-.319 1.129-.319.97 0 1.379.64 1.379 1.719v2.098zm-.749-1.409c-.4 0-1.33.08-1.33 1.13 0 .64.32.859.59.859.34 0 .62-.25.709-.729.02-.09.03-.19.03-.28v-.98zm1.84-1.079c0-.569-.03-.859-.04-1.249h.67l.04.579h.02c.21-.39.6-.659 1.11-.659.669 0 1.169.489 1.169 1.669v3.248h-.77v-3.118c0-.58-.11-1.149-.67-1.149-.32 0-.629.27-.72.789-.03.11-.04.261-.04.431v3.048h-.77v-3.589zm4.05 0c0-.569-.029-.859-.04-1.249h.67l.04.579h.021c.21-.39.6-.659 1.109-.659.669 0 1.169.489 1.169 1.669v3.248h-.77v-3.118c0-.58-.11-1.149-.67-1.149-.319 0-.629.27-.72.789-.029.11-.04.261-.04.431v3.048h-.77v-3.589zm4.591 1.239c.01 1.489.589 1.799 1.139 1.799.34 0 .61-.08.8-.18l.13.56c-.27.15-.68.229-1.069.229-1.149 0-1.749-.939-1.749-2.429 0-1.568.659-2.548 1.629-2.548.979 0 1.38 1.039 1.38 2.129 0 .189-.011.319-.021.439h-2.239zm1.519-.569c.01-.97-.35-1.399-.72-1.399-.499 0-.759.739-.789 1.399h1.509zm1.571-3.998h.77v6.916h-.77v-6.916zM1.394 48.678l-.44 2.019h-.75l1.54-6.736h.849l1.5 6.736h-.76l-.44-2.019H1.394zm1.389-.62l-.35-1.709c-.1-.479-.19-1.039-.27-1.539h-.03c-.08.51-.18 1.089-.28 1.549l-.35 1.699h1.28zm2.092-.95c0-.569-.03-.859-.04-1.249h.68l.04.589h.02c.21-.39.57-.669 1.08-.669.45 0 .839.21 1.02.729h.02c.13-.24.3-.43.47-.55.2-.12.419-.18.669-.18.66 0 1.169.47 1.169 1.709v3.208h-.77v-3.038c0-.63-.09-1.239-.67-1.239-.32 0-.6.27-.709.729-.03.12-.03.27-.03.43v3.118h-.77v-3.179c0-.529-.09-1.099-.66-1.099-.32 0-.63.27-.72.789-.02.12-.03.26-.03.41v3.078h-.77v-3.586zm6.509-1.249l.64 2.778c.09.38.13.689.2.999h.02c.05-.279.13-.64.21-.989l.57-2.788h.76l-.79 3.107c-.3 1.21-.63 2.379-1.2 3.119-.34.43-.7.649-.869.729l-.28-.65c.22-.13.47-.34.68-.609.2-.26.36-.579.44-.819.04-.11.05-.17.05-.24 0-.06 0-.119-.02-.18l-1.219-4.457h.808zm4.883-39.802c.136.088.376.2.624.2.344 0 .567-.216.567-.56 0-.296-.104-.504-.496-.76-.504-.328-.775-.664-.775-1.104 0-.632.463-1.071 1.063-1.071.304 0 .527.096.688.199l-.16.464a.884.884 0 0 0-.52-.176c-.328 0-.496.24-.496.496s.096.407.479.663c.448.288.8.648.8 1.184 0 .775-.528 1.151-1.167 1.151-.28 0-.592-.088-.76-.224l.153-.462zm2.848-1.24c.008 1.191.472 1.439.911 1.439.272 0 .488-.064.64-.145l.104.448c-.216.12-.543.184-.855.184-.919 0-1.399-.752-1.399-1.942 0-1.256.528-2.039 1.303-2.039.784 0 1.104.831 1.104 1.703 0 .151-.008.256-.016.352h-1.792zm1.215-.456c.008-.775-.28-1.119-.575-1.119-.4 0-.608.592-.632 1.119h1.207zm2.009-2.438v.903h.743v.464h-.743v2.303c0 .512.176.64.399.64.104 0 .184-.008.248-.023l.032.472c-.112.04-.256.063-.456.063-.248 0-.464-.063-.607-.231-.16-.176-.232-.44-.232-.976V3.29h-.472v-.464h.472v-.655l.616-.248zm1.328-.615h.855v4.669h1.439v.72h-2.295V1.308zm3.991 5.452c-.823 0-1.391-.688-1.391-1.998 0-1.416.696-2.023 1.423-2.023.815 0 1.375.712 1.375 1.999 0 1.575-.815 2.022-1.399 2.022h-.008zm.032-.655c.424 0 .52-.768.52-1.359 0-.567-.096-1.351-.536-1.351-.463 0-.552.783-.552 1.351 0 .656.112 1.359.56 1.359h.008zm4.056.511c-.12.064-.368.128-.655.128-.928 0-1.543-.688-1.543-1.967 0-1.167.648-2.031 1.679-2.031.232 0 .456.057.56.112l-.128.68c-.089-.032-.225-.088-.417-.088-.552 0-.84.592-.84 1.312 0 .799.32 1.279.84 1.279.16 0 .296-.032.416-.088l.088.663zm2.903-.807c0 .304.008.632.048.888h-.767l-.048-.392h-.016c-.2.296-.488.455-.824.455-.56 0-.983-.463-.983-1.15 0-1 .848-1.424 1.727-1.432v-.104c0-.408-.16-.688-.583-.688-.28 0-.512.08-.728.216l-.16-.583c.192-.12.6-.28 1.071-.28 1.008 0 1.264.688 1.264 1.52v1.55zm-.839-1.064c-.335.008-.936.097-.936.775 0 .44.232.601.424.601.216 0 .416-.145.488-.448a.761.761 0 0 0 .024-.2v-.728zm1.632-3.582h.855v5.533h-.855V1.163zm1.769.224c.231-.071.52-.104.831-.104.56 0 .968.144 1.264.408.416.359.728 1.055.728 2.183 0 1.231-.304 1.902-.647 2.278-.352.392-.872.576-1.487.576-.248 0-.512-.017-.688-.057V1.387zm.615 4.813c.088.017.176.017.232.017.68 0 1.335-.488 1.335-2.327 0-1.359-.416-2.103-1.279-2.103-.096 0-.208.008-.288.032V6.2zm3.392-1.383c.008 1.191.472 1.439.912 1.439.272 0 .488-.064.64-.145l.104.448c-.216.12-.543.184-.855.184-.919 0-1.399-.752-1.399-1.942 0-1.256.528-2.039 1.304-2.039.783 0 1.103.831 1.103 1.703 0 .151-.008.256-.016.352h-1.793zm1.216-.456c.008-.775-.28-1.119-.576-1.119-.399 0-.607.592-.631 1.119h1.207zm1.152 1.696c.136.088.376.2.624.2.344 0 .567-.216.567-.56 0-.296-.104-.504-.496-.76-.504-.328-.775-.664-.775-1.104 0-.632.463-1.071 1.063-1.071.304 0 .527.096.688.199l-.16.464a.884.884 0 0 0-.52-.176c-.328 0-.496.24-.496.496s.096.407.479.663c.448.288.8.648.8 1.184 0 .775-.528 1.151-1.167 1.151-.28 0-.592-.088-.76-.224l.153-.462zm4.303.544c-.136.08-.368.144-.64.144-.848 0-1.416-.68-1.416-1.959 0-1.111.56-2.015 1.527-2.015.208 0 .432.056.544.128l-.12.496c-.08-.04-.24-.104-.44-.104-.624 0-.896.735-.896 1.495 0 .903.344 1.447.912 1.447.16 0 .304-.032.44-.104l.089.472zm.521-2.775c0-.328-.024-.712-.032-1h.552l.032.607h.016c.128-.367.456-.671.816-.671.048 0 .088 0 .128.008v.632c-.04-.008-.08-.008-.128-.008-.392 0-.68.359-.744.807a2.295 2.295 0 0 0-.024.353v2.143h-.616V3.826zm2.28-1.599c-.2 0-.352-.16-.352-.399 0-.24.16-.4.36-.4.224 0 .368.16.368.4 0 .239-.144.399-.368.399h-.008zm-.288 4.469v-3.87h.616v3.87h-.616zm1.464-2.662c0-.592-.024-.936-.032-1.208h.552l.032.488h.016c.208-.408.52-.552.816-.552.68 0 1.119.711 1.119 1.99 0 1.439-.591 2.007-1.191 2.007-.368 0-.576-.224-.679-.439h-.016v1.911h-.616V4.034zm.616 1.247c0 .111.008.224.032.319.12.552.392.647.56.647.512 0 .68-.703.68-1.479 0-.808-.192-1.479-.68-1.479-.28 0-.536.352-.567.704-.024.096-.024.191-.024.296v.992zm3.335-3.358v.903h.744v.464h-.744v2.303c0 .512.176.64.4.64.104 0 .184-.008.248-.023l.032.472c-.112.04-.256.063-.456.063-.248 0-.464-.063-.608-.231-.16-.176-.231-.44-.231-.976V3.29h-.472v-.464h.472v-.655l.615-.248zm1.577.304c-.2 0-.352-.16-.352-.399 0-.24.16-.4.36-.4.224 0 .368.16.368.4 0 .239-.144.399-.368.399h-.008zm-.289 4.469v-3.87h.616v3.87h-.616zm2.56.064c-.695 0-1.255-.631-1.255-1.99 0-1.415.632-2.007 1.295-2.007.696 0 1.248.64 1.248 1.99 0 1.504-.688 2.007-1.279 2.007h-.009zm.032-.487c.527 0 .64-.903.64-1.511 0-.6-.112-1.512-.656-1.512-.552 0-.656.912-.656 1.512 0 .64.112 1.511.664 1.511h.008zm1.945-2.447c0-.456-.024-.688-.032-1h.536l.032.464h.016a.982.982 0 0 1 .888-.527c.536 0 .936.392.936 1.335v2.599h-.616V4.201c0-.463-.088-.919-.536-.919-.256 0-.504.216-.576.632a1.395 1.395 0 0 0-.032.344v2.438h-.616v-2.87zM12.743 93.057c.136.088.376.2.624.2.344 0 .567-.216.567-.56 0-.296-.104-.504-.496-.76-.504-.328-.775-.664-.775-1.104 0-.632.463-1.071 1.063-1.071.304 0 .528.096.688.199l-.16.464a.884.884 0 0 0-.52-.176c-.328 0-.496.24-.496.496s.096.407.479.663c.448.288.8.648.8 1.184 0 .775-.528 1.151-1.167 1.151-.28 0-.592-.088-.76-.224l.153-.462zm2.848-1.24c.008 1.191.472 1.439.912 1.439.272 0 .488-.064.64-.145l.104.448c-.216.12-.543.184-.855.184-.919 0-1.399-.752-1.399-1.942 0-1.256.528-2.039 1.304-2.039.783 0 1.103.831 1.103 1.703 0 .151-.008.256-.016.352h-1.793zm1.216-.456c.008-.775-.28-1.119-.576-1.119-.399 0-.607.592-.631 1.119h1.207zm2.007-2.438v.903h.744v.464h-.744v2.303c0 .512.176.64.4.64.104 0 .184-.008.248-.023l.032.472c-.112.04-.256.063-.456.063-.248 0-.464-.063-.608-.231-.16-.176-.231-.44-.231-.976V90.29h-.472v-.464h.472v-.655l.615-.248zm1.329-.536a4.634 4.634 0 0 1 1.023-.104c.56 0 1.023.096 1.335.392.304.288.408.647.408 1.096 0 .624-.304 1.111-.848 1.359v.016c.384.136.576.496.688 1.136.112.655.24 1.231.328 1.415h-.887c-.064-.152-.184-.68-.272-1.312-.104-.703-.304-.928-.735-.928h-.192v2.239h-.848v-5.309zm.848 2.415h.224c.512 0 .832-.399.832-.951 0-.528-.216-.888-.768-.896a.986.986 0 0 0-.288.032v1.815zm3.304 1.176c.008.871.408 1.111.863 1.111.288 0 .528-.064.696-.136l.128.607c-.248.111-.624.184-.976.184-1.007 0-1.543-.728-1.543-1.935 0-1.287.616-2.071 1.447-2.071.816 0 1.231.744 1.231 1.783 0 .224-.008.352-.024.456h-1.822zm1.055-.609c.008-.623-.2-.991-.503-.991-.368 0-.536.536-.552.991h1.055zm1.409-.471c0-.439-.016-.751-.032-1.095h.744l.04.464h.016c.184-.296.504-.528.912-.528.4 0 .688.192.832.56h.016c.096-.168.24-.319.384-.415.16-.097.344-.145.543-.145.624 0 .976.479.976 1.439v2.519h-.848v-2.358c0-.472-.064-.888-.439-.888-.224 0-.4.168-.472.456a1.16 1.16 0 0 0-.032.312v2.479h-.849v-2.495c0-.344-.048-.751-.432-.751-.208 0-.408.16-.479.472-.016.088-.032.2-.032.312v2.463h-.848v-2.801zm6.464 2.862c-.824 0-1.392-.688-1.392-1.998 0-1.416.696-2.023 1.423-2.023.815 0 1.375.712 1.375 1.999 0 1.575-.816 2.022-1.399 2.022h-.007zm.031-.655c.424 0 .52-.768.52-1.359 0-.567-.096-1.351-.536-1.351-.464 0-.552.783-.552 1.351 0 .656.112 1.359.56 1.359h.008zm3.032-4.27v.968h.752v.615h-.752v2.023c0 .479.184.6.4.6.096 0 .176-.009.264-.024l.016.664c-.128.04-.32.063-.56.063-.272 0-.52-.072-.688-.24-.192-.191-.288-.472-.288-1.055v-2.031h-.464v-.615h.464v-.672l.856-.296zm1.897 3.143c.008.871.408 1.111.863 1.111.288 0 .528-.064.696-.136l.128.607c-.248.111-.624.184-.976.184-1.007 0-1.543-.728-1.543-1.935 0-1.287.616-2.071 1.447-2.071.816 0 1.231.744 1.231 1.783 0 .224-.008.352-.024.456h-1.822zm1.055-.609c.008-.623-.2-.991-.503-.991-.368 0-.536.536-.552.991h1.055zm1.496-2.982a2.92 2.92 0 0 1 .832-.104c.56 0 .967.144 1.263.408.416.359.728 1.055.728 2.183 0 1.231-.304 1.902-.648 2.278-.352.392-.871.576-1.487.576-.248 0-.512-.017-.688-.057v-5.284zm.616 4.813c.088.017.176.017.232.017.68 0 1.335-.488 1.335-2.327 0-1.359-.416-2.103-1.279-2.103-.096 0-.208.008-.288.032V93.2zm3.392-1.383c.008 1.191.472 1.439.912 1.439.272 0 .488-.064.64-.145l.104.448c-.216.12-.543.184-.855.184-.919 0-1.399-.752-1.399-1.942 0-1.256.528-2.039 1.304-2.039.783 0 1.103.831 1.103 1.703 0 .151-.008.256-.016.352h-1.793zm1.216-.456c.008-.775-.28-1.119-.576-1.119-.399 0-.607.592-.631 1.119h1.207zm1.153 1.696c.136.088.376.2.624.2.344 0 .567-.216.567-.56 0-.296-.104-.504-.496-.76-.504-.328-.775-.664-.775-1.104 0-.632.463-1.071 1.063-1.071.304 0 .527.096.688.199l-.16.464a.884.884 0 0 0-.52-.176c-.328 0-.496.24-.496.496s.096.407.479.663c.448.288.8.648.8 1.184 0 .775-.528 1.151-1.167 1.151-.28 0-.592-.088-.76-.224l.153-.462zm4.303.544c-.136.08-.368.144-.64.144-.848 0-1.416-.68-1.416-1.959 0-1.111.56-2.015 1.527-2.015.208 0 .432.056.544.128l-.12.496c-.08-.04-.24-.104-.44-.104-.624 0-.896.735-.896 1.495 0 .903.344 1.447.912 1.447.16 0 .304-.032.44-.104l.089.472zm.521-2.775c0-.328-.024-.712-.032-1h.552l.032.607h.016c.128-.367.456-.671.816-.671.048 0 .088 0 .128.008v.632c-.04-.008-.08-.008-.128-.008-.392 0-.68.359-.744.807a2.295 2.295 0 0 0-.024.353v2.143h-.616v-2.871zm2.279-1.599c-.2 0-.352-.16-.352-.399 0-.24.16-.4.36-.4.224 0 .368.16.368.4 0 .239-.144.399-.368.399h-.008zm-.288 4.469v-3.87h.616v3.87h-.616zm1.465-2.662c0-.592-.024-.936-.032-1.208h.552l.032.488h.016c.208-.408.52-.552.816-.552.68 0 1.119.711 1.119 1.99 0 1.439-.591 2.007-1.191 2.007-.368 0-.576-.224-.679-.439h-.016v1.911h-.616v-4.197zm.615 1.247c0 .111.008.224.032.319.12.552.392.647.56.647.512 0 .68-.703.68-1.479 0-.808-.192-1.479-.68-1.479-.28 0-.536.352-.567.704-.024.096-.024.191-.024.296v.992zm3.336-3.358v.903h.743v.464h-.743v2.303c0 .512.176.64.399.64.104 0 .184-.008.248-.023l.032.472c-.112.04-.256.063-.456.063-.248 0-.464-.063-.607-.231-.16-.176-.232-.44-.232-.976V90.29h-.472v-.464h.472v-.655l.616-.248zm1.576.304c-.2 0-.352-.16-.352-.399 0-.24.16-.4.36-.4.224 0 .368.16.368.4 0 .239-.144.399-.368.399h-.008zm-.288 4.469v-3.87h.616v3.87h-.616zm2.559.064c-.695 0-1.255-.631-1.255-1.99 0-1.415.632-2.007 1.295-2.007.696 0 1.248.64 1.248 1.99 0 1.504-.688 2.007-1.279 2.007h-.009zm.033-.487c.527 0 .64-.903.64-1.511 0-.6-.112-1.512-.656-1.512-.552 0-.656.912-.656 1.512 0 .64.112 1.511.664 1.511h.008zm1.944-2.447c0-.456-.024-.688-.032-1h.536l.032.464h.016a.982.982 0 0 1 .888-.527c.536 0 .936.392.936 1.335v2.599h-.616v-2.495c0-.463-.088-.919-.536-.919-.256 0-.504.216-.576.632a1.395 1.395 0 0 0-.032.344v2.438h-.616v-2.871z"/><path fill="#009245" d="M54.253 33.703c-1.008 0-1.684-1.071-1.684-3.115 0-2.008.729-3.097 1.783-3.097 1.035 0 1.656 1.125 1.656 3.061 0 2.269-.774 3.151-1.747 3.151h-.008zm.054-.612c.774 0 .981-1.323.981-2.512 0-1.135-.207-2.476-.99-2.476s-1.008 1.332-1.008 2.484c-.009 1.18.225 2.503 1.008 2.503h.009zm4.707.54v-3.835H57.7v3.835h-.693v-3.835h-.549v-.522h.549v-.216c0-.54.126-.99.396-1.278.207-.216.504-.343.9-.343.18 0 .36.046.45.081l-.126.55a.878.878 0 0 0-.333-.063c-.441 0-.594.369-.594 1.045v.225h1.314v-.27c0-.469.072-.955.387-1.306.252-.279.603-.369.873-.369.234 0 .415.045.541.107l-.108.541a.982.982 0 0 0-.387-.072c-.495 0-.612.531-.612 1.089v.279h.792v.522h-.792v3.835h-.694zm2.394-2.115c.009 1.341.531 1.62 1.026 1.62.306 0 .549-.072.72-.162l.117.504c-.243.136-.612.207-.963.207-1.035 0-1.576-.846-1.576-2.188 0-1.413.594-2.296 1.468-2.296.882 0 1.242.937 1.242 1.918 0 .171-.009.288-.018.396h-2.016zm1.368-.514c.009-.873-.315-1.261-.648-1.261-.45 0-.684.667-.711 1.261h1.359zm1.404-.604c0-.368-.027-.801-.036-1.125h.622l.036.685h.018c.144-.414.513-.757.918-.757.054 0 .099 0 .144.01v.711c-.045-.009-.09-.009-.144-.009-.441 0-.765.404-.837.909a2.566 2.566 0 0 0-.027.396v2.413h-.694v-3.233z"/><path fill="#0071bc" d="M50.059 51.813l-.396 1.818h-.675l1.386-6.067h.765l1.351 6.067h-.684l-.396-1.818h-1.351zm1.252-.559l-.315-1.539c-.09-.433-.171-.937-.243-1.387h-.027c-.072.459-.162.981-.252 1.396l-.315 1.53h1.152zm1.88-.856c0-.513-.027-.773-.036-1.125h.603l.036.522h.018c.189-.352.54-.595.999-.595.604 0 1.054.441 1.054 1.504v2.926h-.693v-2.809c0-.522-.099-1.035-.603-1.035-.288 0-.567.243-.648.711a1.57 1.57 0 0 0-.036.387v2.746h-.693v-3.232zm3.528 2.513c.153.099.423.225.702.225.387 0 .639-.243.639-.63 0-.333-.117-.567-.558-.855-.567-.369-.873-.747-.873-1.242 0-.712.522-1.207 1.197-1.207.342 0 .594.108.774.226l-.18.522a.994.994 0 0 0-.585-.198c-.369 0-.558.27-.558.558s.108.459.54.747c.504.324.9.729.9 1.333 0 .873-.594 1.296-1.314 1.296-.315 0-.666-.099-.855-.252l.171-.523zm3.069-3.638l.423 2.134c.09.468.18.937.234 1.387h.036c.063-.45.171-.955.271-1.369l.504-2.151h.531l.477 2.089c.108.486.207.945.279 1.432h.036c.054-.459.135-.909.234-1.404l.414-2.116h.693l-1.099 4.357h-.567l-.504-2.115a12.152 12.152 0 0 1-.243-1.306h-.018c-.072.513-.153.918-.252 1.332l-.522 2.089h-.585l-1.062-4.357h.72zm5.111 2.243c.009 1.341.531 1.62 1.026 1.62.306 0 .549-.072.72-.162l.117.504c-.243.136-.612.207-.963.207-1.035 0-1.576-.846-1.576-2.188 0-1.413.594-2.296 1.468-2.296.882 0 1.242.937 1.242 1.918 0 .171-.009.288-.018.396h-2.016zm1.369-.514c.009-.873-.315-1.261-.648-1.261-.45 0-.684.667-.711 1.261h1.359zm1.403-.604c0-.368-.027-.801-.036-1.125h.622l.036.685h.018c.144-.414.513-.757.918-.757.054 0 .099 0 .144.01v.711c-.045-.009-.09-.009-.144-.009-.441 0-.765.404-.837.909a2.566 2.566 0 0 0-.027.396v2.413h-.693v-3.233z"/><path fill="#009245" d="M170.253 33.703c-1.008 0-1.684-1.071-1.684-3.115 0-2.008.729-3.097 1.783-3.097 1.035 0 1.656 1.125 1.656 3.061 0 2.269-.775 3.151-1.747 3.151h-.008zm.054-.612c.774 0 .981-1.323.981-2.512 0-1.135-.207-2.476-.99-2.476s-1.008 1.332-1.008 2.484c-.01 1.18.225 2.503 1.008 2.503h.009zm4.707.54v-3.835H173.7v3.835h-.692v-3.835h-.55v-.522h.55v-.216c0-.54.125-.99.396-1.278.207-.216.504-.343.9-.343.18 0 .36.046.45.081l-.127.55a.872.872 0 0 0-.332-.063c-.441 0-.595.369-.595 1.045v.225h1.314v-.27c0-.469.072-.955.388-1.306.252-.279.603-.369.873-.369.234 0 .414.045.54.107l-.108.541a.982.982 0 0 0-.387-.072c-.495 0-.612.531-.612 1.089v.279h.792v.522h-.792v3.835h-.694zm2.394-2.115c.01 1.341.531 1.62 1.026 1.62.306 0 .55-.072.72-.162l.117.504c-.242.136-.611.207-.963.207-1.035 0-1.576-.846-1.576-2.188 0-1.413.595-2.296 1.469-2.296.882 0 1.242.937 1.242 1.918 0 .171-.01.288-.019.396h-2.016zm1.369-.514c.008-.873-.316-1.261-.648-1.261-.451 0-.685.667-.711 1.261h1.359zm1.402-.604c0-.368-.026-.801-.035-1.125h.621l.035.685h.019c.144-.414.513-.757.919-.757a.66.66 0 0 1 .144.01v.711c-.045-.009-.091-.009-.144-.009-.441 0-.766.404-.838.909a2.566 2.566 0 0 0-.027.396v2.413h-.693v-3.233z"/><path fill="#0071bc" d="M166.059 51.813l-.396 1.818h-.675l1.387-6.067h.765l1.351 6.067h-.684l-.396-1.818h-1.352zm1.251-.559l-.314-1.539a31.98 31.98 0 0 1-.244-1.387h-.026c-.071.459-.162.981-.252 1.396l-.315 1.53h1.151zm1.881-.856c0-.513-.027-.773-.036-1.125h.603l.037.522h.018c.189-.352.54-.595.999-.595.604 0 1.054.441 1.054 1.504v2.926h-.693v-2.809c0-.522-.1-1.035-.604-1.035-.287 0-.566.243-.648.711a1.626 1.626 0 0 0-.035.387v2.746h-.693v-3.232zm3.527 2.513c.153.099.424.225.703.225.387 0 .639-.243.639-.63 0-.333-.117-.567-.559-.855-.566-.369-.873-.747-.873-1.242 0-.712.522-1.207 1.197-1.207.342 0 .595.108.774.226l-.18.522a.994.994 0 0 0-.585-.198c-.369 0-.559.27-.559.558s.107.459.54.747c.505.324.9.729.9 1.333 0 .873-.595 1.296-1.314 1.296-.315 0-.666-.099-.854-.252l.171-.523zm3.07-3.638l.423 2.134c.09.468.18.937.234 1.387h.035c.063-.45.172-.955.271-1.369l.504-2.151h.531l.477 2.089c.107.486.207.945.279 1.432h.035c.055-.459.136-.909.234-1.404l.414-2.116h.693l-1.098 4.357h-.567l-.505-2.115c-.107-.424-.17-.811-.242-1.306h-.019c-.071.513-.153.918-.252 1.332l-.522 2.089h-.585l-1.062-4.357h.722zm5.112 2.243c.009 1.341.531 1.62 1.025 1.62.307 0 .55-.072.721-.162l.117.504c-.243.136-.612.207-.963.207-1.035 0-1.576-.846-1.576-2.188 0-1.413.594-2.296 1.468-2.296.882 0 1.242.937 1.242 1.918 0 .171-.009.288-.019.396H180.9zm1.368-.514c.009-.873-.315-1.261-.648-1.261-.45 0-.685.667-.711 1.261h1.359zm1.403-.604c0-.368-.027-.801-.036-1.125h.622l.035.685h.018c.145-.414.514-.757.919-.757.054 0 .099 0 .144.01v.711c-.045-.009-.09-.009-.144-.009-.441 0-.765.404-.837.909a2.447 2.447 0 0 0-.027.396v2.413h-.693v-3.233z"/><path d="M226.515 44.06c.319-.079.699-.13 1.129-.13.609 0 1.129.13 1.489.46.29.28.44.68.44 1.159 0 .689-.381 1.239-1.04 1.499v.03c.779.2 1.249.83 1.249 1.719 0 .55-.18 1-.479 1.33-.38.43-1.009.609-1.779.609-.499 0-.8-.03-1.009-.07V44.06zm.77 2.769h.35c.629 0 1.169-.489 1.169-1.189 0-.629-.29-1.109-1.109-1.109-.18 0-.319.021-.409.051v2.247zm0 3.268c.09.02.22.03.389.03.791 0 1.311-.47 1.311-1.34 0-.93-.641-1.369-1.359-1.379h-.34v2.689zm4.769.68c-.87 0-1.57-.79-1.57-2.488 0-1.77.791-2.509 1.619-2.509.87 0 1.561.799 1.561 2.488 0 1.879-.86 2.509-1.6 2.509h-.01zm.039-.609c.66 0 .8-1.13.8-1.89 0-.749-.14-1.889-.819-1.889-.689 0-.819 1.14-.819 1.889 0 .8.14 1.89.829 1.89h.009zm2.422-6.387h.77v2.648h.02c.25-.479.609-.649 1.02-.649.76 0 1.319.859 1.319 2.448 0 1.749-.72 2.549-1.46 2.549-.52 0-.779-.3-.959-.71h-.04l-.05.63h-.66c.01-.28.041-.829.041-1.149v-5.767zm.77 5.217c0 .11.01.21.029.3.18.71.51.84.72.84.62 0 .839-.84.839-1.869 0-.97-.229-1.829-.849-1.829-.36 0-.649.439-.72.859-.01.11-.02.23-.02.34v1.359z"/><path fill="none" stroke="#000" d="M44.279 36.989s7-45.5-15.499-19" stroke-linecap="round" stroke-linejoin="round"/><path d="M27.059 15.38l-1.073 5.886 5.634-2.014z"/><path fill="none" stroke="#000" d="M44.279 57.698s7 45.5-15.499 19" stroke-linecap="round" stroke-linejoin="round"/><path d="M31.634 75.423L26 73.41l1.073 5.886zM169.443 6.057c.137.088.376.2.624.2.344 0 .567-.216.567-.56 0-.296-.104-.504-.496-.76-.504-.328-.775-.664-.775-1.104 0-.632.464-1.071 1.063-1.071.304 0 .528.096.688.199l-.16.464a.884.884 0 0 0-.52-.176c-.328 0-.496.24-.496.496s.096.407.479.663c.448.288.8.648.8 1.184 0 .775-.527 1.151-1.168 1.151-.279 0-.592-.088-.76-.224l.154-.462zm2.848-1.24c.008 1.191.473 1.439.912 1.439.271 0 .487-.064.639-.145l.104.448c-.216.12-.544.184-.855.184-.919 0-1.399-.752-1.399-1.942 0-1.256.527-2.039 1.304-2.039.783 0 1.103.831 1.103 1.703 0 .151-.008.256-.016.352h-1.792zm1.215-.456c.008-.775-.28-1.119-.576-1.119-.399 0-.607.592-.632 1.119h1.208zm2.008-2.438v.903h.743v.464h-.743v2.303c0 .512.177.64.399.64.104 0 .185-.008.248-.023l.032.472c-.112.04-.256.063-.456.063-.248 0-.463-.063-.607-.231-.16-.176-.231-.44-.231-.976V3.29h-.472v-.464h.472v-.655l.615-.248zm1.329-.536a4.628 4.628 0 0 1 1.023-.104c.559 0 1.023.096 1.335.392.304.288.407.647.407 1.096 0 .624-.303 1.111-.848 1.359v.016c.385.136.576.496.688 1.136.113.655.24 1.231.328 1.415h-.887c-.064-.152-.185-.68-.272-1.312-.104-.703-.304-.928-.735-.928h-.191v2.239h-.848V1.387zm.848 2.415h.223c.512 0 .832-.399.832-.951 0-.528-.216-.888-.768-.896a.98.98 0 0 0-.287.032v1.815zm3.304 1.176c.008.871.407 1.111.863 1.111.288 0 .528-.064.696-.136l.127.607c-.248.111-.623.184-.975.184-1.008 0-1.543-.728-1.543-1.935 0-1.287.615-2.071 1.446-2.071.815 0 1.231.744 1.231 1.783 0 .224-.008.352-.023.456h-1.822zm1.055-.609c.008-.623-.2-.991-.504-.991-.368 0-.536.536-.552.991h1.056zm1.408-.471c0-.439-.016-.751-.031-1.095h.743l.04.464h.016c.184-.296.504-.528.912-.528.399 0 .688.192.831.56h.017c.096-.168.239-.319.383-.415.16-.097.344-.145.544-.145.624 0 .976.479.976 1.439v2.519h-.848V4.338c0-.472-.064-.888-.439-.888-.225 0-.4.168-.472.456a1.16 1.16 0 0 0-.032.312v2.479h-.848V4.201c0-.344-.048-.751-.432-.751-.208 0-.408.16-.479.472-.017.088-.032.2-.032.312v2.463h-.848V3.898zm6.464 2.862c-.823 0-1.392-.688-1.392-1.998 0-1.416.695-2.023 1.424-2.023.814 0 1.375.712 1.375 1.999 0 1.575-.816 2.022-1.399 2.022h-.008zm.033-.655c.424 0 .52-.768.52-1.359 0-.567-.096-1.351-.536-1.351-.464 0-.552.783-.552 1.351 0 .656.112 1.359.561 1.359h.007zm3.031-4.27v.968h.752v.615h-.752v2.023c0 .479.184.6.4.6.096 0 .176-.009.264-.024l.016.664c-.128.04-.32.063-.56.063-.272 0-.52-.072-.688-.24-.192-.191-.288-.472-.288-1.055V3.418h-.464v-.615h.464v-.672l.856-.296zm1.896 3.143c.008.871.408 1.111.863 1.111.288 0 .527-.064.695-.136l.129.607c-.248.111-.624.184-.977.184-1.007 0-1.543-.728-1.543-1.935 0-1.287.616-2.071 1.447-2.071.816 0 1.231.744 1.231 1.783 0 .224-.008.352-.024.456h-1.821zm1.055-.609c.009-.623-.199-.991-.503-.991-.368 0-.536.536-.552.991h1.055zm1.497-2.982a2.92 2.92 0 0 1 .832-.104c.56 0 .968.144 1.263.408.416.359.729 1.055.729 2.183 0 1.231-.305 1.902-.648 2.278-.352.392-.871.576-1.486.576-.248 0-.512-.017-.688-.057V1.387zm.616 4.813c.088.017.176.017.231.017.68 0 1.335-.488 1.335-2.327 0-1.359-.416-2.103-1.279-2.103-.096 0-.207.008-.287.032V6.2zm3.392-1.383c.009 1.191.472 1.439.911 1.439.272 0 .488-.064.641-.145l.104.448c-.216.12-.543.184-.855.184-.92 0-1.399-.752-1.399-1.942 0-1.256.528-2.039 1.304-2.039.783 0 1.104.831 1.104 1.703 0 .151-.008.256-.017.352h-1.793zm1.216-.456c.008-.775-.28-1.119-.576-1.119-.399 0-.607.592-.631 1.119h1.207zm1.152 1.696c.137.088.377.2.625.2.344 0 .566-.216.566-.56 0-.296-.104-.504-.495-.76-.504-.328-.775-.664-.775-1.104 0-.632.464-1.071 1.063-1.071.304 0 .527.096.688.199l-.16.464a.884.884 0 0 0-.52-.176c-.328 0-.496.24-.496.496s.096.407.48.663c.447.288.799.648.799 1.184 0 .775-.527 1.151-1.167 1.151-.28 0-.592-.088-.76-.224l.152-.462zm4.303.544c-.136.08-.367.144-.639.144-.848 0-1.416-.68-1.416-1.959 0-1.111.561-2.015 1.527-2.015.208 0 .432.056.544.128l-.12.496c-.08-.04-.24-.104-.439-.104-.624 0-.896.735-.896 1.495 0 .903.344 1.447.912 1.447.16 0 .304-.032.439-.104l.088.472zm.521-2.775c0-.328-.023-.712-.032-1h.552l.032.607h.016c.128-.367.456-.671.815-.671.049 0 .088 0 .129.008v.632c-.041-.008-.08-.008-.129-.008-.392 0-.68.359-.743.807a2.175 2.175 0 0 0-.024.353v2.143h-.615V3.826zm2.28-1.599c-.199 0-.352-.16-.352-.399 0-.24.16-.4.359-.4.225 0 .368.16.368.4 0 .239-.144.399-.368.399h-.007zm-.288 4.469v-3.87h.615v3.87h-.615zm1.464-2.662c0-.592-.024-.936-.032-1.208h.552l.032.488h.016c.208-.408.52-.552.816-.552.68 0 1.119.711 1.119 1.99 0 1.439-.592 2.007-1.191 2.007-.368 0-.576-.224-.68-.439h-.016v1.911h-.616V4.034zm.617 1.247c0 .111.008.224.031.319.12.552.393.647.56.647.512 0 .68-.703.68-1.479 0-.808-.192-1.479-.68-1.479-.28 0-.536.352-.567.704-.023.096-.023.191-.023.296v.992zm3.334-3.358v.903h.743v.464h-.743v2.303c0 .512.176.64.399.64.104 0 .184-.008.248-.023l.031.472c-.111.04-.256.063-.455.063-.248 0-.464-.063-.607-.231-.16-.176-.232-.44-.232-.976V3.29h-.472v-.464h.472v-.655l.616-.248zm1.577.304c-.2 0-.353-.16-.353-.399 0-.24.16-.4.36-.4.224 0 .368.16.368.4 0 .239-.145.399-.368.399h-.007zm-.288 4.469v-3.87h.615v3.87h-.615zm2.559.064c-.695 0-1.255-.631-1.255-1.99 0-1.415.631-2.007 1.295-2.007.695 0 1.248.64 1.248 1.99 0 1.504-.688 2.007-1.279 2.007h-.009zm.032-.487c.527 0 .64-.903.64-1.511 0-.6-.112-1.512-.655-1.512-.553 0-.656.912-.656 1.512 0 .64.112 1.511.664 1.511h.007zm1.945-2.447c0-.456-.024-.688-.032-1h.536l.032.464h.016a.982.982 0 0 1 .888-.527c.536 0 .936.392.936 1.335v2.599h-.616V4.201c0-.463-.088-.919-.535-.919-.256 0-.504.216-.576.632a1.452 1.452 0 0 0-.031.344v2.438h-.616v-2.87zm-48.9 89.231c.137.088.377.2.625.2.344 0 .566-.216.566-.56 0-.296-.104-.504-.495-.76-.504-.328-.775-.664-.775-1.104 0-.632.464-1.071 1.063-1.071.304 0 .527.096.688.199l-.16.464a.884.884 0 0 0-.52-.176c-.328 0-.496.24-.496.496s.096.407.48.663c.447.288.799.648.799 1.184 0 .775-.527 1.151-1.167 1.151-.28 0-.592-.088-.76-.224l.152-.462zm2.849-1.24c.008 1.191.472 1.439.911 1.439.271 0 .488-.064.64-.145l.104.448c-.217.12-.544.184-.855.184-.92 0-1.4-.752-1.4-1.942 0-1.256.528-2.039 1.304-2.039.784 0 1.104.831 1.104 1.703 0 .151-.008.256-.016.352h-1.792zm1.215-.456c.009-.775-.28-1.119-.575-1.119-.4 0-.607.592-.632 1.119h1.207zm2.009-2.438v.903h.743v.464h-.743v2.303c0 .512.176.64.399.64.104 0 .185-.008.248-.023l.032.472c-.112.04-.256.063-.456.063-.248 0-.464-.063-.607-.231-.16-.176-.231-.44-.231-.976V90.29h-.473v-.464h.473v-.655l.615-.248zm1.328-.615h.855v4.669h1.439v.72h-2.295v-5.389zm3.991 5.452c-.823 0-1.392-.688-1.392-1.998 0-1.416.696-2.023 1.424-2.023.815 0 1.375.712 1.375 1.999 0 1.575-.815 2.022-1.398 2.022h-.009zm.032-.655c.424 0 .52-.768.52-1.359 0-.567-.096-1.351-.535-1.351-.464 0-.553.783-.553 1.351 0 .656.113 1.359.561 1.359h.007zm4.055.511c-.119.064-.367.128-.654.128-.928 0-1.544-.688-1.544-1.967 0-1.167.647-2.031 1.679-2.031.232 0 .456.057.561.112l-.129.68c-.088-.032-.223-.088-.415-.088-.552 0-.84.592-.84 1.312 0 .799.319 1.279.84 1.279a.96.96 0 0 0 .415-.088l.087.663zm2.904-.807c0 .304.008.632.048.888h-.768l-.048-.392h-.016c-.2.296-.488.455-.824.455-.56 0-.983-.463-.983-1.15 0-1 .848-1.424 1.728-1.432v-.104c0-.408-.16-.688-.584-.688-.279 0-.512.08-.728.216l-.16-.583c.192-.12.6-.28 1.071-.28 1.008 0 1.264.688 1.264 1.52v1.55zm-.84-1.064c-.336.008-.936.097-.936.775 0 .44.232.601.424.601.216 0 .416-.145.488-.448a.764.764 0 0 0 .023-.2v-.728zm1.633-3.582h.855v5.533h-.855v-5.533zm1.769.224c.231-.071.52-.104.831-.104.561 0 .968.144 1.264.408.416.359.728 1.055.728 2.183 0 1.231-.304 1.902-.647 2.278-.352.392-.871.576-1.487.576-.248 0-.512-.017-.688-.057v-5.284zm.615 4.813c.088.017.177.017.231.017.68 0 1.336-.488 1.336-2.327 0-1.359-.416-2.103-1.279-2.103-.096 0-.208.008-.288.032V93.2zm3.391-1.383c.008 1.191.473 1.439.912 1.439.271 0 .487-.064.639-.145l.104.448c-.216.12-.544.184-.855.184-.919 0-1.399-.752-1.399-1.942 0-1.256.527-2.039 1.304-2.039.783 0 1.103.831 1.103 1.703 0 .151-.008.256-.016.352h-1.792zm1.216-.456c.008-.775-.28-1.119-.576-1.119-.399 0-.607.592-.632 1.119h1.208zm1.154 1.696c.136.088.375.2.623.2.344 0 .568-.216.568-.56 0-.296-.104-.504-.496-.76-.504-.328-.775-.664-.775-1.104 0-.632.463-1.071 1.063-1.071.304 0 .527.096.688.199l-.16.464a.881.881 0 0 0-.52-.176c-.328 0-.495.24-.495.496s.096.407.479.663c.448.288.801.648.801 1.184 0 .775-.528 1.151-1.168 1.151-.279 0-.592-.088-.76-.224l.152-.462zm4.302.544c-.137.08-.368.144-.641.144-.848 0-1.415-.68-1.415-1.959 0-1.111.56-2.015 1.527-2.015.208 0 .432.056.544.128l-.12.496a1 1 0 0 0-.44-.104c-.623 0-.895.735-.895 1.495 0 .903.344 1.447.911 1.447.16 0 .304-.032.44-.104l.089.472zm.521-2.775c0-.328-.024-.712-.032-1h.552l.032.607h.016c.128-.367.456-.671.816-.671.047 0 .088 0 .127.008v.632c-.039-.008-.08-.008-.127-.008-.393 0-.68.359-.744.807a2.305 2.305 0 0 0-.023.353v2.143h-.616v-2.871zm2.28-1.599c-.201 0-.353-.16-.353-.399 0-.24.16-.4.36-.4.224 0 .367.16.367.4 0 .239-.144.399-.367.399h-.007zm-.289 4.469v-3.87h.616v3.87h-.616zm1.465-2.662c0-.592-.023-.936-.032-1.208h.552l.032.488h.016c.208-.408.521-.552.815-.552.68 0 1.119.711 1.119 1.99 0 1.439-.591 2.007-1.191 2.007-.367 0-.575-.224-.679-.439h-.017v1.911h-.615v-4.197zm.615 1.247c0 .111.008.224.032.319.12.552.392.647.56.647.512 0 .68-.703.68-1.479 0-.808-.191-1.479-.68-1.479-.279 0-.535.352-.567.704-.024.096-.024.191-.024.296v.992zm3.336-3.358v.903h.744v.464h-.744v2.303c0 .512.176.64.4.64.104 0 .184-.008.248-.023l.031.472c-.111.04-.256.063-.455.063-.248 0-.465-.063-.608-.231-.159-.176-.231-.44-.231-.976V90.29h-.472v-.464h.472v-.655l.615-.248zm1.576.304c-.2 0-.352-.16-.352-.399 0-.24.16-.4.359-.4.225 0 .367.16.367.4 0 .239-.143.399-.367.399h-.007zm-.288 4.469v-3.87h.616v3.87h-.616zm2.56.064c-.695 0-1.256-.631-1.256-1.99 0-1.415.633-2.007 1.296-2.007.696 0 1.247.64 1.247 1.99 0 1.504-.688 2.007-1.279 2.007h-.008zm.032-.487c.527 0 .64-.903.64-1.511 0-.6-.112-1.512-.656-1.512-.551 0-.655.912-.655 1.512 0 .64.112 1.511.663 1.511h.008zm1.944-2.447c0-.456-.023-.688-.031-1h.535l.031.464h.017a.98.98 0 0 1 .888-.527c.535 0 .936.392.936 1.335v2.599h-.615v-2.495c0-.463-.088-.919-.536-.919-.256 0-.504.216-.575.632a1.39 1.39 0 0 0-.033.344v2.438h-.615v-2.871z"/><path fill="none" stroke="#000" d="M192.81 36.989s-7-45.5 15.499-19" stroke-linecap="round" stroke-linejoin="round"/><path d="M205.455 19.264l5.634 2.014-1.074-5.886z"/><path fill="none" stroke="#000" d="M192.81 57.698s-7 45.5 15.499 19" stroke-linecap="round" stroke-linejoin="round"/><path d="M210.031 79.308l1.072-5.886-5.634 2.014z"/></svg>