<svg xmlns="http://www.w3.org/2000/svg" viewBox="0 0 309.391 99.09"><path fill="#b2d4eb" fill-rule="evenodd" d="M101.63 94.498c-6.186 1.771-12.332.466-16.912-3-2.697 3.155-5.896 5.331-10.088 6.525-10.836 3.092-20.793-.483-23.175-11.349a21.172 21.172 0 0 1-6.417 3.068c-10.825 3.092-22.08-3.434-24.462-14.303-9.425.831-18.007-5.205-20.104-14.788-2.38-10.867 4.471-22.184 15.296-25.271a20.02 20.02 0 0 1 7.264-.711c-2.38-10.861 4.604-19.398 15.435-22.492 4.343-1.235 8.086-1.677 11.861-.204C52.996 6.709 57.77 2.491 63.752.784 74.578-2.303 85.281 4 87.666 14.867c1.112-.547 2.048-.58 3.269-.933 10.83-3.09 21.537 3.211 23.916 14.081 9.387-.775 18.557 5.463 20.647 15.012 2.385 10.865-7.734 23.111-18.561 26.205 2.377 10.862-4.471 22.179-15.307 25.266z" clip-rule="evenodd" mask="url(#b)"/><path fill="#ccc" d="M58.774 68.945v1.309L37.629 58.14v-1.307z"/><path fill="gray" d="M58.774 68.945l14.73-8.379v1.309l-14.73 8.38z"/><path fill="#fff" d="M37.629 56.835l14.709-8.429 21.166 12.16-14.73 8.379z"/><path fill="#999" d="M75.553 41.558l.988-.562-2.06 18.964-.99.565zM60.604 65.662v.254L42.731 55.678v-.253z"/><path fill="#b3b3b3" d="M60.604 65.662l10.123-5.76v.255l-10.123 5.761z"/><path fill="#e6e6e6" d="M42.731 55.427l10.107-5.801 17.889 10.276-10.123 5.76zm2.57 5.476l2.903-1.666 5.134 2.95-2.906 1.654zm30.252-19.345l-2.062 18.965-21.145-12.112 2.061-18.964z"/><path fill="#0071bc" d="M72.649 59.068L53.19 47.921l2.06-17.02 19.46 11.145-2.061 17.022z"/><path fill="#b3b3b3" d="M54.407 29.448l.97-.611 21.164 12.159-.988.562z"/><path fill="none" stroke="#000" d="M74.481 59.96l2.06-18.964-21.164-12.159-.968.61h-.002L52.346 48.41l-.008-.004-14.707 8.427h-.002v1.307l21.145 12.114v.001l14.73-8.38v-1.309l-.013-.043v.002z" stroke-linecap="round" stroke-linejoin="round"/><path fill="none" stroke="#000" d="M147.038 43.654h116.667"/><path d="M262.83 46.655l5.18-2.991-5.18-2.993zm-114.917-6.002l-5.182 2.991 5.182 2.992z"/><path fill="none" stroke="#000" d="M158.038 51.654h119.667"/><path d="M276.83 54.655l5.18-2.991-5.18-2.993zm-117.917-6.002l-5.182 2.991 5.182 2.992z"/><path fill="none" stroke="#000" d="M81.038 50.654h26.895"/><path d="M107.058 53.655l5.181-2.991-5.181-2.993zm-25.145-6.002l-5.182 2.991 5.182 2.992z"/><g fill="#fff" stroke="#000" stroke-miterlimit="10" stroke-linecap="round" stroke-linejoin="round"><path d="M152.155 40.894l-13.375 6.86h-25.342l13.141-6.86zm-38.717 6.86h25.342V59.33h-25.342z"/><path d="M152.155 52.469L138.78 59.33V47.754l13.375-6.86z"/></g><path d="M34.497 74.842h-.018l-.973.558-.135-.54 1.233-.72h.576v5.852h-.684v-5.15zm2.375 4.627c.153 0 .279-.018.432-.054.297-.072.585-.234.801-.459.324-.36.585-.892.685-1.666h-.027c-.216.279-.522.495-.945.495-.729 0-1.278-.675-1.278-1.737 0-1.071.576-1.98 1.477-1.98.999 0 1.467 1.054 1.467 2.35 0 1.152-.288 2.062-.774 2.71a2.33 2.33 0 0 1-1.351.892 2.497 2.497 0 0 1-.486.045v-.596zm.351-3.483c0 .864.324 1.278.792 1.278.288 0 .576-.198.72-.522a.956.956 0 0 0 .054-.378c0-1.225-.352-1.756-.811-1.756-.35 0-.755.378-.755 1.378zm2.799 4.006v-.45l.495-.675c.693-.964 1.521-2.062 1.521-3.16 0-.648-.288-1.044-.837-1.044-.423 0-.693.225-.846.323l-.171-.521a1.831 1.831 0 0 1 1.143-.396c.973 0 1.396.721 1.396 1.603 0 1.099-.72 2.16-1.44 3.151l-.396.54v.018h1.954v.612h-2.819zm3.618-.45c0-.306.208-.522.459-.522.279 0 .459.207.459.522s-.171.522-.459.522c-.261 0-.459-.207-.459-.522zm2.997-4.7h-.018l-.972.558-.135-.54 1.233-.72h.576v5.852h-.684v-5.15zm4.645-.189c-.117.01-.243.027-.415.063-.972.233-1.359 1.206-1.503 2.106h.027c.225-.333.549-.559.99-.559.747 0 1.26.685 1.26 1.801 0 1.107-.504 1.999-1.44 1.999-1.017 0-1.53-1.035-1.53-2.377 0-1.135.297-2.017.756-2.638.352-.495.91-.819 1.414-.928.189-.035.342-.045.441-.054v.587zm-.334 3.467c0-.883-.306-1.324-.783-1.324-.288 0-.585.198-.756.631a.934.934 0 0 0-.054.351c.009 1.197.378 1.747.846 1.747.396-.001.747-.389.747-1.405zm1.179.44c0-.819.486-1.341.963-1.674l-.009-.019c-.486-.333-.766-.846-.766-1.342 0-.899.639-1.458 1.369-1.458.837 0 1.251.702 1.251 1.378 0 .513-.243 1.008-.783 1.377v.027c.54.359.936.891.936 1.593 0 .909-.603 1.621-1.503 1.621-.972.001-1.458-.773-1.458-1.503zm2.278-.072c0-.675-.387-1.053-.837-1.35-.468.288-.756.792-.756 1.305 0 .657.297 1.107.801 1.107.431 0 .792-.333.792-1.062zm-1.423-3.007c0 .595.36.892.72 1.126.351-.252.585-.64.585-1.081 0-.566-.234-.944-.657-.944-.387 0-.648.368-.648.899zm2.799 4.061c0-.306.208-.522.459-.522.279 0 .459.207.459.522s-.171.522-.459.522c-.261 0-.459-.207-.459-.522zm4.528-2.485c0 2.134-.675 3.007-1.521 3.007-.909 0-1.458-1.081-1.458-2.989 0-1.972.585-3.007 1.54-3.007.943 0 1.439 1.125 1.439 2.989zm-2.288.009c0 1.413.243 2.403.819 2.403.549 0 .774-.999.774-2.403 0-1.368-.225-2.403-.783-2.403s-.81.999-.81 2.403zm2.971 2.476c0-.306.208-.522.459-.522.279 0 .459.207.459.522s-.171.522-.459.522c-.261 0-.459-.207-.459-.522zm2.997-4.7h-.018l-.972.558-.135-.54 1.233-.72h.576v5.852h-.684v-5.15zm2.222 1.413c0-.297.198-.513.45-.513.279 0 .45.207.45.513 0 .297-.162.504-.45.504-.261 0-.45-.207-.45-.504zm0 3.304c0-.297.198-.513.45-.513.279 0 .45.207.45.513 0 .298-.162.505-.45.505-.261 0-.45-.207-.45-.505zm2.989-4.717h-.018l-.973.558-.135-.54 1.233-.72h.576v5.852H69.2v-5.15zm2.177 4.403c.18.107.495.243.846.243.603 0 1.008-.441 1.008-1.171 0-.765-.477-1.206-1.179-1.206h-.162v-.522h.135c.414-.009 1.053-.324 1.053-1.044 0-.585-.315-.9-.774-.9-.288 0-.54.145-.729.279l-.153-.522c.216-.171.612-.333 1.053-.333.828 0 1.296.595 1.296 1.351 0 .585-.306 1.099-.873 1.368v.019c.522.144 1.026.611 1.026 1.53 0 .954-.612 1.729-1.674 1.729-.378 0-.792-.108-1.026-.271l.153-.55zm3.465 0c.18.107.495.243.846.243.603 0 1.008-.441 1.008-1.171 0-.765-.477-1.206-1.179-1.206h-.162v-.522h.135c.414-.009 1.053-.324 1.053-1.044 0-.585-.315-.9-.774-.9-.288 0-.54.145-.729.279l-.153-.522c.216-.171.612-.333 1.053-.333.828 0 1.296.595 1.296 1.351 0 .585-.306 1.099-.873 1.368v.019c.522.144 1.026.611 1.026 1.53 0 .954-.612 1.729-1.674 1.729-.378 0-.792-.108-1.026-.271l.153-.55zm6.211-5.105v.414l-1.891 5.438h-.675l1.855-5.222v-.018h-2.107v-.612h2.818zm192.337-2.614c.207.135.567.242.873.242.631 0 1.009-.414 1.009-1.026 0-.558-.324-.899-.802-1.26-.477-.333-1.143-.9-1.143-1.684 0-.918.639-1.594 1.603-1.594.378 0 .711.117.854.226l-.17.594a1.282 1.282 0 0 0-.721-.207c-.594 0-.873.45-.873.864 0 .604.314.837.891 1.252.729.513 1.054 1.071 1.054 1.746 0 1.044-.738 1.701-1.702 1.701-.414 0-.854-.135-1.025-.261l.152-.593zm4.096-4.646h-1.107v-.621h2.908v.621h-1.107v5.446h-.693V66.88zm3.159-.621v4.068c0 1.09.36 1.459.828 1.459.513 0 .837-.396.837-1.459v-4.068h.693v3.961c0 1.575-.648 2.179-1.549 2.179-.908 0-1.503-.595-1.503-2.098v-4.042h.694zm3.429 6.068V66.26h.656l1.117 2.845c.252.647.566 1.458.773 2.115h.019a45.668 45.668 0 0 1-.081-2.791V66.26h.621v6.067h-.657l-1.152-2.917a21.766 21.766 0 0 1-.72-2.062h-.019c.054.811.072 1.585.072 2.881v2.098h-.629zm5.426-.72c.153.099.424.225.703.225.396 0 .639-.243.639-.63 0-.333-.117-.559-.559-.855-.566-.369-.873-.738-.873-1.242 0-.702.522-1.207 1.197-1.207.342 0 .604.117.783.226l-.188.522a1.024 1.024 0 0 0-.576-.189.534.534 0 0 0-.567.549c0 .298.107.459.54.757.505.324.9.72.9 1.323 0 .873-.595 1.296-1.306 1.296-.324 0-.675-.099-.863-.252l.17-.523zm3.205-1.396c.009 1.332.531 1.62 1.035 1.62.297 0 .549-.072.721-.171l.107.513c-.243.136-.612.207-.955.207-1.043 0-1.584-.854-1.584-2.188 0-1.413.594-2.296 1.468-2.296.892 0 1.242.937 1.242 1.927 0 .162 0 .279-.009.388h-2.025zm1.368-.513c.019-.873-.315-1.261-.648-1.261-.45 0-.685.667-.711 1.261h1.359zm1.403-.604c0-.368-.027-.801-.036-1.125h.622l.035.685h.018c.145-.414.514-.757.919-.757.054 0 .099.01.144.01v.711c-.045-.009-.09-.009-.144-.009-.441 0-.765.404-.837.909a2.524 2.524 0 0 0-.027.396v2.413h-.693v-3.233zm2.826-1.125l.549 2.449c.062.297.135.684.189 1.062h.026c.045-.359.117-.729.181-1.062l.539-2.449h.685l-1.134 4.357h-.621l-1.135-4.357h.721zm3.141 2.242c.01 1.332.531 1.62 1.035 1.62.297 0 .549-.072.721-.171l.107.513c-.242.136-.611.207-.954.207-1.044 0-1.585-.854-1.585-2.188 0-1.413.595-2.296 1.469-2.296.891 0 1.242.937 1.242 1.927 0 .162 0 .279-.01.388h-2.025zm1.369-.513c.018-.873-.316-1.261-.648-1.261-.451 0-.685.667-.711 1.261h1.359zm1.402-.604c0-.368-.027-.801-.036-1.125h.622l.035.685h.018c.145-.414.514-.757.919-.757.054 0 .099.01.144.01v.711c-.045-.009-.09-.009-.144-.009-.441 0-.765.404-.837.909a2.524 2.524 0 0 0-.027.396v2.413h-.693v-3.233zM191.761 36.169c0-.666-.026-1.053-.035-1.359h.621l.035.559h.019c.234-.469.576-.631.919-.631.756 0 1.26.811 1.26 2.242 0 1.611-.666 2.26-1.35 2.26-.406 0-.641-.262-.757-.506h-.019v2.162h-.693v-4.727zm.694 1.395c0 .135 0 .262.027.361.135.621.45.738.639.738.576 0 .757-.793.757-1.676 0-.9-.216-1.656-.765-1.656-.316 0-.595.396-.64.793-.019.107-.019.215-.019.332v1.108zm5.517.414c0 .486.027.865.036 1.189h-.603l-.045-.459h-.019c-.136.215-.468.531-.937.531-.766 0-1.062-.596-1.062-1.676V34.81h.693v2.656c0 .684.108 1.188.586 1.188.404 0 .584-.379.621-.576.026-.117.035-.252.035-.396V34.81h.693v3.168zm.926 1.19c.01-.252.037-.748.037-1.045v-5.186h.693v2.387h.018c.225-.434.549-.586.918-.586.676 0 1.188.783 1.188 2.205 0 1.576-.647 2.297-1.323 2.297-.459 0-.693-.271-.864-.641h-.026l-.046.568h-.595zm.73-1.54c0 .098 0 .197.026.27.162.648.46.766.648.766.558 0 .756-.758.756-1.684 0-.873-.207-1.648-.765-1.648-.324 0-.595.406-.648.775-.018.098-.018.207-.018.305v1.216zm2.907-4.691h.693v6.23h-.693v-6.23zm2.466.748c.008.27-.162.449-.424.449-.225 0-.396-.18-.396-.449 0-.271.181-.451.406-.451.252 0 .414.18.414.451zm-.748 5.483V34.81h.693v4.357h-.693zm3.782-.11c-.154.092-.414.162-.721.162-.955 0-1.594-.764-1.594-2.205 0-1.252.631-2.268 1.72-2.268.233 0 .486.062.612.135l-.135.566a1.136 1.136 0 0 0-.496-.117c-.693 0-1.008.828-1.008 1.684 0 1.018.387 1.629 1.026 1.629.188 0 .343-.045.505-.117l.091.531zm2.753-5.959v6.068h-.693v-6.068h.693zm1.097.09a4.03 4.03 0 0 1 1.009-.117c.558 0 1.025.135 1.341.451.298.287.45.729.45 1.25 0 .559-.135.938-.369 1.242-.333.451-.891.676-1.432.676-.117 0-.207 0-.306-.008v2.484h-.693v-5.978zm.694 2.908c.081.018.153.027.271.027.684 0 1.143-.451 1.143-1.307 0-.621-.261-1.178-1.025-1.178a1.43 1.43 0 0 0-.388.045v2.413zm1.277 4.205c.189-.523.433-1.477.522-2.098l.783-.092c-.198.73-.586 1.721-.828 2.125l-.477.065zm3.483-4.133c0-.666-.027-1.053-.037-1.359h.622l.036.559h.018c.234-.469.576-.631.918-.631.757 0 1.261.811 1.261 2.242 0 1.611-.666 2.26-1.351 2.26-.404 0-.639-.262-.756-.506h-.018v2.162h-.693v-4.727zm.694 1.395c0 .135 0 .262.026.361.136.621.45.738.64.738.576 0 .756-.793.756-1.676 0-.9-.217-1.656-.766-1.656-.314 0-.594.396-.639.793-.018.107-.018.215-.018.332v1.108zm5.58-.576c0 1.684-.783 2.252-1.449 2.252-.783 0-1.414-.713-1.414-2.242 0-1.594.711-2.26 1.459-2.26.773 0 1.404.728 1.404 2.25zm-2.17 0c0 .721.126 1.701.756 1.701.595 0 .711-1.025.711-1.701 0-.666-.116-1.691-.729-1.691-.621-.001-.738 1.025-.738 1.691zm2.933-1.053c0-.369-.027-.801-.036-1.125h.622l.035.684h.018c.145-.414.514-.756.919-.756.054 0 .099.01.144.01v.711c-.045-.01-.09-.01-.144-.01-.441 0-.765.404-.837.91a2.52 2.52 0 0 0-.027.395v2.414h-.693v-3.233zm3.303-2.277v1.152h.838v.531h-.838v2.584c0 .566.207.719.459.719.108 0 .199-.008.279-.025l.027.531c-.126.045-.288.07-.514.07-.27 0-.513-.07-.684-.26-.172-.199-.262-.496-.262-1.1v-2.52h-.531v-.53h.531v-.955l.695-.197zm1.908 3.879l-.018-.135c-.09-.531.008-1.107.377-1.709.298-.514.523-.838.523-1.334 0-.512-.298-.729-.693-.729-.226 0-.451.062-.595.172l-.144-.541c.144-.1.504-.234.891-.234.9 0 1.252.604 1.252 1.242 0 .658-.379 1.152-.676 1.648-.279.486-.378.863-.314 1.467l.009.152h-.612zm-.179 1.207c0-.307.197-.514.449-.514.279 0 .451.207.451.514 0 .289-.162.496-.451.496-.261 0-.449-.207-.449-.496zm-58.103 17.355v6.068h-.964v-6.068h.964zm1.071.09a5.076 5.076 0 0 1 1.125-.117c.639 0 1.161.117 1.521.459.324.307.486.775.486 1.297 0 .611-.172 1.025-.451 1.35-.359.424-.945.631-1.458.631-.099 0-.18 0-.271-.01v2.369h-.953v-5.979zm.954 2.818c.072.018.136.018.234.018.631 0 .981-.432.981-1.125 0-.566-.233-1.045-.882-1.045-.135 0-.252.018-.334.045v2.107zm3.302.118c-.314 0-.558-.262-.558-.639 0-.361.253-.641.567-.641.333 0 .566.252.566.641 0 .377-.215.639-.566.639h-.009zm0 3.115c-.314 0-.558-.262-.558-.641 0-.359.253-.639.567-.639.333 0 .566.252.566.639 0 .379-.215.641-.566.641h-.009zm5.338-5.313h-1.575l-.243 1.559c.072-.02.135-.02.217-.02.314 0 .801.135 1.115.441.307.307.486.738.486 1.332 0 1.162-.729 2-1.773 2-.352 0-.756-.1-.99-.252l.153-.559c.181.107.495.234.819.234.594 0 1.107-.459 1.107-1.352 0-.928-.567-1.314-1.324-1.314-.215 0-.351.01-.459.027l.369-2.709h2.098v.613zm3.691 2.305c0 2.135-.675 3.008-1.521 3.008-.909 0-1.458-1.082-1.458-2.99 0-1.971.584-3.006 1.539-3.006.945 0 1.44 1.125 1.44 2.988zm-2.286.01c0 1.412.242 2.402.818 2.402.549 0 .774-.998.774-2.402 0-1.369-.226-2.404-.783-2.404s-.809.999-.809 2.404zm2.968 2.474c0-.305.207-.521.459-.521.279 0 .459.207.459.521 0 .316-.17.523-.459.523-.26.001-.459-.206-.459-.523zm4.456-5.4v.414l-1.891 5.438h-.675l1.854-5.223v-.018h-2.106v-.611h2.818zm3.187.512c-.117.01-.244.027-.415.064-.972.232-1.359 1.205-1.503 2.105h.027c.225-.332.549-.559.99-.559.746 0 1.26.686 1.26 1.801 0 1.107-.504 2-1.44 2-1.017 0-1.53-1.035-1.53-2.377 0-1.135.297-2.018.756-2.639a2.43 2.43 0 0 1 1.414-.928c.188-.035.342-.045.441-.053v.586zm-.334 3.466c0-.883-.307-1.324-.783-1.324-.288 0-.585.199-.756.631a.931.931 0 0 0-.055.352c.01 1.197.379 1.746.847 1.746.395 0 .747-.387.747-1.405zm1.367 1.422c0-.305.207-.521.459-.521.279 0 .459.207.459.521 0 .316-.17.523-.459.523-.261.001-.459-.206-.459-.523zm3.412.452v-1.611h-1.945v-.469l1.9-3.771h.675v3.672h.64v.568h-.64v1.611h-.63zm0-2.18v-1.656c0-.404.027-.766.054-1.152h-.036c-.197.469-.324.748-.495 1.107l-.81 1.684v.018h1.287zm3.465 2.18v-1.611h-1.945v-.469l1.9-3.771h.675v3.672h.64v.568h-.64v1.611h-.63zm0-2.18v-1.656c0-.404.027-.766.054-1.152h-.036c-.197.469-.324.748-.495 1.107l-.81 1.684v.018h1.287zm1.799 1.728c0-.305.207-.521.459-.521.279 0 .459.207.459.521 0 .316-.17.523-.459.523-.261.001-.459-.206-.459-.523zm2.998-4.699h-.019l-.972.559-.135-.541 1.232-.719h.576v5.852h-.684v-5.151zm3.465 0h-.019l-.972.559-.135-.541 1.232-.719h.576v5.852h-.684v-5.151zm3.879 5.151v-1.611h-1.945v-.469l1.9-3.771h.675v3.672h.64v.568h-.64v1.611h-.63zm0-2.18v-1.656c0-.404.027-.766.054-1.152h-.036c-.197.469-.324.748-.495 1.107l-.81 1.684v.018h1.287zm6.129-3.799a5.076 5.076 0 0 1 1.125-.117c.639 0 1.161.117 1.521.459.324.307.486.775.486 1.297 0 .611-.172 1.025-.451 1.35-.359.424-.945.631-1.458.631-.099 0-.18 0-.271-.01v2.369h-.953v-5.979zm.953 2.818c.072.018.136.018.234.018.631 0 .981-.432.981-1.125 0-.566-.233-1.045-.882-1.045-.135 0-.252.018-.334.045v2.107zm4.023 3.233c-.928 0-1.566-.775-1.566-2.252 0-1.594.783-2.277 1.603-2.277.919 0 1.548.801 1.548 2.25 0 1.773-.918 2.279-1.574 2.279h-.011zm.036-.739c.478 0 .585-.865.585-1.531 0-.639-.107-1.521-.604-1.521-.521 0-.621.883-.621 1.521 0 .738.127 1.531.631 1.531h.009zm2.259-2.486c0-.404-.018-.863-.036-1.232h.837l.055.656h.026c.171-.439.531-.729.892-.729.09 0 .145.01.207.018v.955c-.062-.01-.126-.01-.207-.01-.334 0-.666.279-.774.756a2.37 2.37 0 0 0-.036.416v2.322h-.963v-3.152zm3.798-2.322v1.09h.847v.693h-.847v2.277c0 .541.208.676.45.676.108 0 .198-.01.297-.027l.019.748a2.25 2.25 0 0 1-.63.07c-.307 0-.586-.08-.775-.27-.215-.217-.323-.531-.323-1.188v-2.287h-.522v-.693h.522v-.756l.962-.333zm1.997 2.432c-.314 0-.558-.262-.558-.639 0-.361.253-.641.567-.641.333 0 .566.252.566.641 0 .377-.215.639-.566.639h-.009zm0 3.115c-.314 0-.558-.262-.558-.641 0-.359.253-.639.567-.639.333 0 .566.252.566.639 0 .379-.215.641-.566.641h-.009zm2.629-.072v-.451l.494-.674c.693-.965 1.521-2.062 1.521-3.16 0-.648-.287-1.045-.837-1.045-.423 0-.692.225-.847.324l-.17-.521a1.823 1.823 0 0 1 1.143-.396c.973 0 1.396.721 1.396 1.602 0 1.1-.72 2.16-1.44 3.152l-.396.539v.018h1.954v.613h-2.818zm3.582-.749c.18.107.494.244.846.244.604 0 1.008-.441 1.008-1.172 0-.764-.477-1.205-1.18-1.205h-.161v-.523h.135c.414-.008 1.054-.324 1.054-1.043 0-.586-.315-.9-.774-.9-.288 0-.54.145-.729.279l-.152-.523c.215-.17.611-.332 1.053-.332.828 0 1.297.594 1.297 1.35 0 .586-.307 1.1-.873 1.369v.018c.521.145 1.025.611 1.025 1.531 0 .953-.611 1.729-1.674 1.729-.379 0-.793-.109-1.027-.271l.152-.551zm4.752-4.402h-.019l-.972.559-.135-.541 1.232-.719h.576v5.852h-.684v-5.151zm2.06 5.151v-.451l.495-.674c.693-.965 1.521-2.062 1.521-3.16 0-.648-.288-1.045-.837-1.045-.424 0-.693.225-.847.324l-.171-.521a1.825 1.825 0 0 1 1.143-.396c.973 0 1.396.721 1.396 1.602 0 1.1-.721 2.16-1.441 3.152l-.396.539v.018h1.954v.613h-2.817zm3.582-.749c.18.107.495.244.846.244.604 0 1.009-.441 1.009-1.172 0-.764-.478-1.205-1.179-1.205h-.162v-.523h.135c.414-.008 1.053-.324 1.053-1.043 0-.586-.314-.9-.773-.9-.289 0-.541.145-.73.279l-.152-.523c.216-.17.612-.332 1.053-.332.828 0 1.297.594 1.297 1.35 0 .586-.307 1.1-.873 1.369v.018c.521.145 1.025.611 1.025 1.531 0 .953-.611 1.729-1.674 1.729-.378 0-.792-.109-1.026-.271l.151-.551z"/><path fill="#c1272d" d="M120.739 57.643v-6.736h.729l1.239 3.158c.28.72.63 1.619.86 2.349h.02c-.06-1.06-.09-1.929-.09-3.098v-2.409h.69v6.736h-.729l-1.279-3.238c-.27-.68-.56-1.449-.8-2.289h-.02c.06.899.08 1.76.08 3.198v2.329h-.7zm5.459-2.018l-.45 2.019h-.74l1.539-6.736h.85l1.5 6.736h-.76l-.45-2.019h-1.489zm1.389-.621l-.35-1.709c-.1-.479-.19-1.039-.27-1.539h-.04c-.08.51-.18 1.089-.27 1.539l-.35 1.709h1.28zm2.341-3.408h-1.229v-.689h3.228v.689h-1.229v6.047h-.77v-6.047z"/><path fill="#b3b3b3" d="M292.5 59.107v4.291l-22.437-12.943v-4.288z"/><path fill="#333" d="M273.727 49.46v1.794l-1.892-1.092v-1.795zm2.125 1.206v1.794l-1.892-1.093v-1.795zm2.125 1.25v1.792l-1.892-1.091v-1.795zm2.125 1.226v1.795l-1.892-1.094v-1.795zm2.125 1.227v1.793l-1.892-1.092v-1.797zm2.125 1.22v1.793l-1.892-1.091v-1.795zm2.127 1.227v1.793l-1.894-1.092v-1.795zm2.125 1.225v1.794l-1.894-1.093v-1.795zm2.125 1.226v1.793l-1.893-1.092v-1.795z"/><path fill="gray" d="M292.487 59.146l16.336-9.404v4.289l-16.336 9.404z"/><path fill="#999" d="M270.116 46.195l16.381-9.404 22.394 12.941-16.338 9.402z"/><path fill="none" stroke="#000" d="M308.891 49.732l-22.394-12.941-16.381 9.404-.053-.028v4.288l22.424 12.935v.045l16.336-9.404v-4.26z" stroke-linecap="round" stroke-linejoin="round"/></svg>