<svg xmlns="http://www.w3.org/2000/svg" viewBox="0 0 260.005 163.28"><path fill="#b2d4eb" fill-rule="evenodd" d="M3.38 3.38h122.081v73.5H3.38z" clip-rule="evenodd"/><path fill="none" stroke="#000" d="M3.38 3.38h122.081v73.5H3.38z" stroke-linecap="round" stroke-linejoin="round"/><path fill="#b3b3b3" d="M92.537 43.044v29.234l-11.485-7.06V35.98z"/><path fill="#333" d="M90.408 43.962v3.491l-8.19-5.037v-3.493zm0 11.77v3.486l-8.19-5.037v-3.488z"/><path fill="#e6e6e6" d="M90.408 51.345v1.008l-8.19-5.035v-1.014z"/><path fill="#333" d="M90.408 60.687v3.486l-8.19-5.035v-3.49zm0 4.953v3.489l-8.19-5.038v-3.488z"/><path fill="gray" d="M92.531 43.062l18.203-11.482v29.236L92.531 72.297z"/><path fill="#999" d="M81.078 35.998l18.224-11.483 11.461 7.061-18.205 11.482z"/><path fill="#009245" d="M82.494 42.894c.18.105.318.365.318.582 0 .211-.141.303-.318.191a.744.744 0 0 1-.312-.582c-.001-.216.14-.298.312-.191"/><path fill="#c1272d" d="M83.263 43.369c.178.108.316.369.316.586 0 .211-.146.299-.318.191-.176-.105-.316-.367-.316-.582 0-.217.142-.305.318-.195"/><path fill="#009245" d="M84.031 43.833a.76.76 0 0 1 .316.582c0 .217-.145.303-.318.195-.178-.107-.316-.373-.316-.588-.001-.21.14-.296.318-.189"/><path fill="#c1272d" d="M84.796 44.306a.749.749 0 0 1 .315.584c-.002.211-.143.299-.32.19-.172-.106-.314-.369-.314-.582-.001-.215.144-.303.319-.192m.776.475a.74.74 0 0 1 .316.584c0 .215-.141.303-.318.191a.755.755 0 0 1-.312-.582c-.001-.213.14-.301.314-.193"/><path fill="#009245" d="M86.339 45.259c.178.105.316.367.316.582 0 .215-.141.301-.318.193-.174-.105-.316-.367-.316-.584 0-.212.143-.302.318-.191m.768.461a.75.75 0 0 1 .314.584c0 .219-.143.303-.314.193a.75.75 0 0 1-.318-.584c0-.212.142-.3.318-.193m.767.475c.172.105.312.365.312.582 0 .217-.141.299-.318.192a.74.74 0 0 1-.312-.582c0-.218.143-.305.318-.192"/><path fill="#c1272d" d="M82.494 44.029c.18.105.318.369.318.584 0 .213-.141.297-.318.193a.746.746 0 0 1-.312-.586c-.001-.215.14-.299.312-.191m.769.474c.178.109.316.369.316.586 0 .213-.146.303-.318.193-.176-.109-.316-.373-.316-.586 0-.214.142-.298.318-.193"/><path fill="#009245" d="M84.031 44.968c.172.104.316.373.316.582 0 .217-.145.303-.318.197-.178-.109-.316-.371-.316-.588-.001-.212.14-.298.318-.191"/><path fill="#c1272d" d="M84.796 45.441c.176.105.315.367.315.584-.002.211-.143.299-.32.193a.774.774 0 0 1-.314-.584c-.001-.217.144-.304.319-.193"/><path fill="#009245" d="M85.572 45.916a.742.742 0 0 1 .316.582c0 .217-.141.305-.318.197-.172-.107-.312-.371-.312-.584-.001-.215.14-.303.314-.195"/><path fill="#c1272d" d="M86.339 46.39c.178.108.316.375.316.586 0 .217-.141.301-.318.195a.757.757 0 0 1-.316-.584c0-.214.143-.302.318-.197"/><path fill="#009245" d="M87.107 46.855a.763.763 0 0 1 .314.586c0 .217-.143.303-.314.191-.178-.104-.318-.367-.318-.582 0-.215.142-.302.318-.195"/><path fill="#c1272d" d="M87.874 47.326a.766.766 0 0 1 .312.586c0 .217-.141.299-.318.195a.757.757 0 0 1-.312-.584c0-.219.143-.301.318-.197"/><path fill="#009245" d="M88.466 52.208c.178.107.32.367.32.586 0 .211-.145.299-.32.193a.762.762 0 0 1-.316-.586c0-.214.14-.3.316-.193m.77.463a.763.763 0 0 1 .312.586c0 .215-.141.299-.312.193a.742.742 0 0 1-.318-.584c0-.214.14-.298.318-.195"/><path fill="#c1272d" d="M89.999 53.144c.176.107.316.367.316.584 0 .211-.141.303-.318.193a.744.744 0 0 1-.314-.584c0-.214.143-.304.316-.193m-1.533.201c.178.105.32.367.32.586 0 .213-.145.299-.32.188-.178-.104-.316-.369-.316-.582 0-.213.14-.303.316-.192m.77.463a.772.772 0 0 1 .312.582c0 .217-.141.305-.312.193-.18-.105-.318-.369-.318-.582 0-.216.14-.3.318-.193"/><path fill="#009245" d="M89.999 54.281c.176.104.316.365.316.582 0 .215-.141.303-.318.191a.731.731 0 0 1-.314-.582c0-.213.143-.301.316-.191"/><path fill="none" stroke="#000" d="M110.763 31.576L99.3 24.515 81.078 35.998l-.026-.018v29.238l11.479 7.06v.019l18.201-11.481V31.595z" stroke-linecap="round" stroke-linejoin="round"/><path fill="none" stroke="#c1272d" d="M52.009 48.406h22.822"/><path fill="#c1272d" d="M73.955 51.407l5.182-2.991-5.182-2.992zm-21.07-6.002l-5.182 2.992 5.182 2.991z"/><path fill="#ccc" d="M29.595 67.805v1.308L8.451 57.001v-1.307z"/><path fill="gray" d="M29.595 67.805l14.731-8.379v1.308l-14.731 8.381z"/><path fill="#fff" d="M8.451 55.696l14.709-8.43 21.166 12.16-14.731 8.379z"/><path fill="#999" d="M46.375 40.418l.988-.562-2.061 18.965-.99.564zm-14.95 24.103v.254L13.552 54.539v-.253z"/><path fill="#b3b3b3" d="M31.425 64.521l10.123-5.758v.254l-10.123 5.76z"/><path fill="#e6e6e6" d="M13.552 54.287l10.108-5.8 17.888 10.276-10.123 5.758zm2.571 5.476l2.902-1.666 5.135 2.951-2.907 1.653zm30.252-19.345l-2.063 18.965-21.145-12.112 2.061-18.964z"/><path fill="#0071bc" d="M43.47 57.928L24.011 46.782l2.061-17.021 19.459 11.146-2.061 17.021z"/><path fill="#b3b3b3" d="M25.228 28.308l.971-.611 21.164 12.159-.988.562z"/><path fill="none" stroke="#000" d="M45.302 58.821l2.061-18.965-21.164-12.159-.969.61h-.002L23.167 47.27l-.007-.004-14.707 8.428h-.002v1.307l21.144 12.112v.002l14.731-8.381v-1.308l-.014-.043v.002z" stroke-linecap="round" stroke-linejoin="round"/><path fill="#e6e6e6" fill-rule="evenodd" d="M167.626 38.923h86v89.563h-86z" clip-rule="evenodd"/><path fill="none" stroke="#000" d="M167.626 38.923h86v89.563h-86z" stroke-linecap="round" stroke-linejoin="round"/><path fill="#b3b3b3" d="M189.287 79.045v29.234l-11.485-7.06V71.981z"/><path fill="#333" d="M187.158 79.963v3.491l-8.19-5.038v-3.492zm0 11.77v3.486l-8.19-5.037v-3.488z"/><path fill="#e6e6e6" d="M187.158 87.346v1.008l-8.19-5.035v-1.014z"/><path fill="#333" d="M187.158 96.688v3.486l-8.19-5.035v-3.49zm0 4.953v3.489l-8.19-5.038v-3.488z"/><path fill="gray" d="M189.281 79.063l18.203-11.482v29.236l-18.203 11.481z"/><path fill="#999" d="M177.828 71.998l18.224-11.482 11.461 7.061-18.205 11.482z"/><path fill="#009245" d="M179.244 78.895c.18.106.318.365.318.582 0 .211-.141.303-.318.192a.744.744 0 0 1-.312-.582c-.001-.217.14-.299.312-.192"/><path fill="#c1272d" d="M180.013 79.37c.178.107.316.369.316.586 0 .211-.146.299-.318.191-.176-.106-.316-.367-.316-.582 0-.217.142-.305.318-.195"/><path fill="#009245" d="M180.781 79.835a.76.76 0 0 1 .316.582c0 .217-.145.303-.318.195-.178-.107-.316-.373-.316-.588-.001-.211.14-.297.318-.189"/><path fill="#c1272d" d="M181.546 80.307c.176.107.314.367.314.584-.002.211-.143.299-.32.189-.172-.105-.314-.369-.314-.582 0-.214.145-.302.32-.191m.776.475a.74.74 0 0 1 .316.584c0 .215-.141.303-.318.191a.755.755 0 0 1-.312-.582c-.001-.213.14-.301.314-.193"/><path fill="#009245" d="M183.089 81.26c.178.105.316.367.316.582 0 .215-.141.301-.318.193-.174-.105-.316-.367-.316-.584 0-.212.143-.302.318-.191m.768.461a.75.75 0 0 1 .315.584c0 .219-.143.303-.315.193-.178-.107-.318-.369-.318-.584 0-.212.142-.3.318-.193m.767.475c.172.105.312.365.312.582 0 .217-.141.299-.318.191a.74.74 0 0 1-.312-.582c0-.217.143-.305.318-.191"/><path fill="#c1272d" d="M179.244 80.03c.18.105.318.369.318.584 0 .213-.141.297-.318.193a.746.746 0 0 1-.312-.586c-.001-.215.14-.299.312-.191m.769.474c.178.109.316.369.316.586 0 .213-.146.303-.318.193-.176-.109-.316-.373-.316-.586 0-.214.142-.298.318-.193"/><path fill="#009245" d="M180.781 80.969c.172.104.316.373.316.582 0 .217-.145.303-.318.197-.178-.109-.316-.371-.316-.588-.001-.212.14-.298.318-.191"/><path fill="#c1272d" d="M181.546 81.442c.176.105.314.367.314.584-.002.211-.143.299-.32.193a.774.774 0 0 1-.314-.584c0-.216.145-.304.32-.193"/><path fill="#009245" d="M182.322 81.916a.742.742 0 0 1 .316.582c0 .217-.141.305-.318.197-.172-.107-.312-.371-.312-.584-.001-.214.14-.302.314-.195"/><path fill="#c1272d" d="M183.089 82.391c.178.107.316.375.316.586 0 .217-.141.301-.318.195a.757.757 0 0 1-.316-.584c0-.215.143-.302.318-.197"/><path fill="#009245" d="M183.857 82.856a.764.764 0 0 1 .315.586c0 .217-.143.303-.315.191-.178-.104-.318-.367-.318-.582 0-.215.142-.303.318-.195"/><path fill="#c1272d" d="M184.624 83.327a.766.766 0 0 1 .312.586c0 .217-.141.299-.318.195a.757.757 0 0 1-.312-.584c0-.219.143-.301.318-.197"/><path fill="#009245" d="M185.216 88.21c.178.107.32.367.32.586 0 .211-.145.299-.32.193a.762.762 0 0 1-.316-.586c0-.215.14-.301.316-.193m.77.462a.763.763 0 0 1 .312.586c0 .215-.141.299-.312.193a.742.742 0 0 1-.318-.584c-.001-.214.14-.298.318-.195"/><path fill="#c1272d" d="M186.749 89.145c.176.107.316.367.316.584 0 .211-.141.303-.318.193a.744.744 0 0 1-.314-.584c0-.215.143-.304.316-.193m-1.533.201c.178.105.32.367.32.586 0 .213-.145.299-.32.188-.178-.104-.316-.369-.316-.582 0-.213.14-.303.316-.192m.77.463a.772.772 0 0 1 .312.582c0 .217-.141.305-.312.193-.18-.106-.318-.369-.318-.582-.001-.216.14-.3.318-.193"/><path fill="#009245" d="M186.749 90.282c.176.104.316.365.316.582 0 .215-.141.303-.318.191a.731.731 0 0 1-.314-.582c0-.213.143-.301.316-.191"/><path fill="none" stroke="#000" d="M207.513 67.577l-11.463-7.061-18.222 11.482-.026-.017v29.238l11.479 7.06v.019l18.201-11.481V67.596z" stroke-linecap="round" stroke-linejoin="round"/><path fill="#b3b3b3" d="M228.787 80.654v29.235l-11.485-7.061V73.59z"/><path fill="#333" d="M226.658 81.572v3.49l-8.19-5.037v-3.492zm0 11.769v3.487l-8.19-5.038v-3.488z"/><path fill="#e6e6e6" d="M226.658 88.955v1.007l-8.19-5.035v-1.013z"/><path fill="#333" d="M226.658 98.296v3.487l-8.19-5.035v-3.491zm0 4.953v3.491l-8.19-5.039v-3.489z"/><path fill="gray" d="M228.781 80.672l18.203-11.483v29.236l-18.203 11.483z"/><path fill="#999" d="M217.328 73.607l18.224-11.482 11.461 7.061-18.205 11.482z"/><path fill="#009245" d="M218.744 80.504c.18.105.318.365.318.582 0 .211-.141.303-.318.191a.744.744 0 0 1-.312-.582c-.001-.216.14-.299.312-.191"/><path fill="#c1272d" d="M219.513 80.979c.178.107.316.369.316.586 0 .211-.146.299-.318.191-.176-.105-.316-.367-.316-.582 0-.217.142-.305.318-.195"/><path fill="#009245" d="M220.281 81.443a.76.76 0 0 1 .316.582c0 .217-.145.303-.318.195-.178-.107-.316-.372-.316-.587-.001-.211.14-.297.318-.19"/><path fill="#c1272d" d="M221.046 81.916c.176.107.315.367.315.583-.002.211-.143.299-.32.19-.172-.105-.314-.369-.314-.582-.001-.214.144-.302.319-.191m.776.474a.74.74 0 0 1 .316.584c0 .215-.141.303-.318.191a.755.755 0 0 1-.312-.582c-.001-.212.14-.3.314-.193"/><path fill="#009245" d="M222.589 82.869c.178.105.316.367.316.582 0 .215-.141.301-.318.193-.174-.105-.316-.367-.316-.584 0-.213.143-.303.318-.191m.768.461a.75.75 0 0 1 .314.584c0 .219-.143.303-.314.193-.178-.107-.318-.369-.318-.584 0-.213.142-.301.318-.193m.767.474c.172.105.312.365.312.582s-.141.299-.318.191a.74.74 0 0 1-.312-.582c0-.216.143-.304.318-.191"/><path fill="#c1272d" d="M218.744 81.639c.18.105.318.369.318.583 0 .213-.141.297-.318.193a.745.745 0 0 1-.312-.585c-.001-.215.14-.299.312-.191m.769.474c.178.109.316.369.316.586 0 .213-.146.303-.318.193-.176-.109-.316-.373-.316-.586 0-.215.142-.299.318-.193"/><path fill="#009245" d="M220.281 82.578c.172.104.316.373.316.582 0 .217-.145.303-.318.197-.178-.109-.316-.371-.316-.588-.001-.213.14-.299.318-.191"/><path fill="#c1272d" d="M221.046 83.05c.176.105.315.367.315.584-.002.211-.143.299-.32.193a.774.774 0 0 1-.314-.584c-.001-.216.144-.304.319-.193"/><path fill="#009245" d="M221.822 83.525a.742.742 0 0 1 .316.582c0 .217-.141.305-.318.197-.172-.107-.312-.371-.312-.584-.001-.215.14-.302.314-.195"/><path fill="#c1272d" d="M222.589 83.999c.178.107.316.375.316.586 0 .217-.141.301-.318.195a.757.757 0 0 1-.316-.584c0-.214.143-.302.318-.197"/><path fill="#009245" d="M223.357 84.464a.763.763 0 0 1 .314.586c0 .217-.143.303-.314.191-.178-.104-.318-.367-.318-.582 0-.214.142-.302.318-.195"/><path fill="#c1272d" d="M224.124 84.935a.766.766 0 0 1 .312.586c0 .217-.141.299-.318.195a.757.757 0 0 1-.312-.584c0-.218.143-.301.318-.197"/><path fill="#009245" d="M224.716 89.818c.178.107.32.367.32.586 0 .211-.145.299-.32.193a.762.762 0 0 1-.316-.586c0-.215.14-.301.316-.193m.77.463a.763.763 0 0 1 .312.586c0 .215-.141.299-.312.193a.742.742 0 0 1-.318-.584c-.001-.215.14-.299.318-.195"/><path fill="#c1272d" d="M226.249 90.753c.176.107.316.367.316.584 0 .211-.141.303-.318.193a.744.744 0 0 1-.314-.584c0-.214.143-.304.316-.193m-1.533.202c.178.105.32.367.32.586 0 .213-.145.299-.32.188-.178-.104-.316-.369-.316-.582 0-.214.14-.304.316-.192m.77.463a.772.772 0 0 1 .312.582c0 .217-.141.305-.312.193-.18-.105-.318-.369-.318-.582-.001-.217.14-.301.318-.193"/><path fill="#009245" d="M226.249 91.89c.176.104.316.365.316.582 0 .215-.141.303-.318.191a.731.731 0 0 1-.314-.582c0-.212.143-.3.316-.191"/><path fill="none" stroke="#000" d="M247.013 69.186l-11.463-7.061-18.222 11.482-.026-.017v29.238l11.479 7.061v.019l18.201-11.483v-29.22z" stroke-linecap="round" stroke-linejoin="round"/><path fill="#fddfbb" fill-rule="evenodd" d="M3.38 83.38h122.081v73.5H3.38z" clip-rule="evenodd"/><path fill="none" stroke="#000" d="M3.38 83.38h122.081v73.5H3.38z" stroke-linecap="round" stroke-linejoin="round"/><path fill="#b3b3b3" d="M92.537 123.044v29.233l-11.485-7.058V115.98z"/><path fill="#333" d="M90.408 123.962v3.491l-8.19-5.038v-3.492zm0 11.77v3.487l-8.19-5.037v-3.489z"/><path fill="#e6e6e6" d="M90.408 131.346v1.008l-8.19-5.036v-1.013z"/><path fill="#333" d="M90.408 140.688v3.486l-8.19-5.035v-3.491zm0 4.953v3.488l-8.19-5.037v-3.488z"/><path fill="gray" d="M92.531 123.062l18.203-11.482v29.236l-18.203 11.481z"/><path fill="#999" d="M81.078 115.998l18.224-11.483 11.461 7.061-18.205 11.482z"/><path fill="#009245" d="M82.494 122.894c.18.105.318.365.318.582 0 .211-.141.303-.318.191a.744.744 0 0 1-.312-.582c-.001-.216.14-.298.312-.191"/><path fill="#c1272d" d="M83.263 123.369c.178.107.316.369.316.586 0 .211-.146.299-.318.191-.176-.106-.316-.367-.316-.582 0-.217.142-.305.318-.195"/><path fill="#009245" d="M84.031 123.834a.76.76 0 0 1 .316.582c0 .217-.145.303-.318.195-.178-.107-.316-.373-.316-.588-.001-.211.14-.297.318-.189"/><path fill="#c1272d" d="M84.796 124.306c.176.107.315.367.315.584-.002.211-.143.299-.32.189-.172-.105-.314-.369-.314-.582-.001-.214.144-.302.319-.191m.776.475a.74.74 0 0 1 .316.584c0 .215-.141.303-.318.191a.755.755 0 0 1-.312-.582c-.001-.213.14-.301.314-.193"/><path fill="#009245" d="M86.339 125.259c.178.105.316.367.316.582 0 .215-.141.301-.318.194-.174-.105-.316-.368-.316-.585 0-.212.143-.302.318-.191m.768.461a.751.751 0 0 1 .314.585c0 .219-.143.303-.314.193-.178-.107-.318-.369-.318-.584 0-.213.142-.301.318-.194m.767.475c.172.105.312.365.312.582 0 .217-.141.299-.318.191a.74.74 0 0 1-.312-.582c0-.216.143-.304.318-.191"/><path fill="#c1272d" d="M82.494 124.029c.18.105.318.369.318.584 0 .213-.141.297-.318.193a.746.746 0 0 1-.312-.586c-.001-.215.14-.299.312-.191m.769.474c.178.109.316.369.316.586 0 .213-.146.303-.318.193-.176-.109-.316-.373-.316-.586 0-.214.142-.298.318-.193"/><path fill="#009245" d="M84.031 124.968c.172.104.316.373.316.582 0 .217-.145.303-.318.197-.178-.109-.316-.371-.316-.588-.001-.212.14-.298.318-.191"/><path fill="#c1272d" d="M84.796 125.441c.176.105.315.367.315.584-.002.211-.143.299-.32.193a.774.774 0 0 1-.314-.584c-.001-.216.144-.304.319-.193"/><path fill="#009245" d="M85.572 125.916a.742.742 0 0 1 .316.582c0 .217-.141.305-.318.197-.172-.107-.312-.371-.312-.584-.001-.215.14-.303.314-.195"/><path fill="#c1272d" d="M86.339 126.391c.178.107.316.375.316.586 0 .217-.141.301-.318.195a.757.757 0 0 1-.316-.584c0-.215.143-.303.318-.197"/><path fill="#009245" d="M87.107 126.855a.763.763 0 0 1 .314.586c0 .217-.143.303-.314.191-.178-.104-.318-.367-.318-.582 0-.214.142-.302.318-.195"/><path fill="#c1272d" d="M87.874 127.326c.172.111.312.369.312.586s-.141.299-.318.195a.757.757 0 0 1-.312-.584c0-.218.143-.3.318-.197"/><path fill="#009245" d="M88.466 132.209c.178.107.32.367.32.586 0 .211-.145.299-.32.193a.762.762 0 0 1-.316-.586c0-.214.14-.3.316-.193m.77.463a.763.763 0 0 1 .312.586c0 .215-.141.299-.312.193a.742.742 0 0 1-.318-.584c0-.215.14-.299.318-.195"/><path fill="#c1272d" d="M89.999 133.145c.176.107.316.367.316.584 0 .211-.141.303-.318.193a.744.744 0 0 1-.314-.584c0-.215.143-.305.316-.193m-1.533.201c.178.105.32.367.32.586 0 .213-.145.299-.32.188-.178-.104-.316-.369-.316-.582 0-.214.14-.304.316-.192m.77.463a.772.772 0 0 1 .312.582c0 .217-.141.305-.312.193-.18-.105-.318-.369-.318-.582 0-.217.14-.301.318-.193"/><path fill="#009245" d="M89.999 134.281c.176.104.316.365.316.582 0 .215-.141.303-.318.191a.731.731 0 0 1-.314-.582c0-.212.143-.3.316-.191"/><path fill="none" stroke="#000" d="M110.763 111.576L99.3 104.515l-18.222 11.483-.026-.018v29.239l11.479 7.058v.02l18.201-11.481v-29.221z" stroke-linecap="round" stroke-linejoin="round"/><path fill="none" stroke="#c1272d" d="M52.009 128.406h22.822"/><path fill="#c1272d" d="M73.955 131.407l5.182-2.991-5.182-2.992zm-21.07-6.002l-5.182 2.991 5.182 2.993z"/><path fill="#ccc" d="M29.595 147.805v1.308L8.451 137.001v-1.308z"/><path fill="gray" d="M29.595 147.805l14.731-8.379v1.308l-14.731 8.381z"/><path fill="#fff" d="M8.451 135.695l14.709-8.429 21.166 12.16-14.731 8.379z"/><path fill="#999" d="M46.375 120.419l.988-.563-2.061 18.965-.99.564zm-14.95 24.102v.254l-17.873-10.236v-.253z"/><path fill="#b3b3b3" d="M31.425 144.521l10.123-5.758v.255l-10.123 5.759z"/><path fill="#e6e6e6" d="M13.552 134.287l10.108-5.801 17.888 10.277-10.123 5.758zm2.571 5.477l2.902-1.666 5.135 2.95-2.907 1.653zm30.252-19.345l-2.063 18.964-21.145-12.112 2.061-18.964z"/><path fill="#0071bc" d="M43.47 137.928l-19.459-11.147 2.061-17.02 19.459 11.146-2.061 17.021z"/><path fill="#b3b3b3" d="M25.228 108.308l.971-.611 21.164 12.159-.988.563z"/><path fill="none" stroke="#000" d="M45.302 138.821l2.061-18.965-21.164-12.159-.969.61h-.002l-2.061 18.963-.007-.004-14.707 8.428-.002-.001v1.308l21.144 12.112v.002l14.731-8.381v-1.308l-.014-.043v.002z" stroke-linecap="round" stroke-linejoin="round"/><path fill="none" stroke="#0071bc" d="M115.292 48.487h27v31.229h30.216" stroke-dasharray="1 1"/><path fill="#0071bc" d="M171.633 82.717l5.181-2.991-5.181-2.992zm-55.465-37.231l-5.182 2.992 5.182 2.991z"/><path fill="none" stroke="#0071bc" d="M115.292 126.716h27V95.487h30.216" stroke-dasharray="1 1"/><path fill="#0071bc" d="M171.633 98.488l5.181-2.992-5.181-2.991zm-55.465 25.227l-5.182 2.992 5.182 2.991z"/><path fill="#c1272d" d="M56.72 51.699h.693v2.34h.018a1.23 1.23 0 0 1 .36-.378c.162-.099.333-.162.585-.162.549 0 1.018.441 1.018 1.54v2.89H58.7V55.12c0-.531-.117-1.035-.585-1.035-.324 0-.567.233-.675.692-.018.1-.027.226-.027.334v2.817h-.693v-6.229zm4.437.719v1.152h.837v.531h-.837v2.584c0 .567.207.72.459.72.108 0 .198-.009.279-.026l.027.531a1.522 1.522 0 0 1-.513.071c-.27 0-.513-.071-.684-.261-.171-.198-.261-.495-.261-1.099V54.1h-.531v-.531h.531v-.954l.693-.197zm2.295 0v1.152h.837v.531h-.837v2.584c0 .567.207.72.459.72.108 0 .198-.009.279-.026l.027.531a1.522 1.522 0 0 1-.513.071c-.27 0-.513-.071-.684-.261-.171-.198-.261-.495-.261-1.099V54.1h-.531v-.531h.531v-.954l.693-.197zm1.439 2.512c0-.666-.027-1.053-.036-1.359h.622l.036.559h.018c.234-.469.576-.631.918-.631.756 0 1.26.811 1.26 2.242 0 1.611-.666 2.26-1.35 2.26-.405 0-.64-.262-.756-.505h-.018v2.161h-.693V54.93zm.693 1.396c0 .135 0 .261.027.36.135.621.45.738.639.738.576 0 .756-.792.756-1.675 0-.9-.216-1.656-.765-1.656-.315 0-.594.396-.639.792-.018.108-.018.216-.018.333v1.108zm2.79.882c.153.099.423.225.702.225.396 0 .639-.243.639-.63 0-.333-.117-.559-.558-.855-.567-.369-.873-.738-.873-1.242 0-.702.522-1.207 1.197-1.207.342 0 .603.117.783.226l-.189.522a1.024 1.024 0 0 0-.576-.189.534.534 0 0 0-.567.549c0 .298.108.459.54.757.504.324.9.72.9 1.323 0 .873-.594 1.296-1.305 1.296-.324 0-.675-.099-.864-.252l.171-.523z"/><path fill="#0071bc" d="M148.725 68.695h.693v2.34h.018a1.23 1.23 0 0 1 .36-.378c.162-.099.333-.162.585-.162.549 0 1.018.441 1.018 1.54v2.89h-.693v-2.809c0-.531-.117-1.035-.585-1.035-.324 0-.567.233-.675.692-.018.1-.027.226-.027.334v2.817h-.693v-6.229zm4.437.72v1.152h.837v.531h-.837v2.584c0 .567.207.72.459.72.108 0 .198-.009.279-.026l.027.531a1.522 1.522 0 0 1-.513.071c-.27 0-.513-.071-.684-.261-.171-.198-.261-.495-.261-1.099v-2.521h-.531v-.531h.531v-.954l.693-.197zm2.295 0v1.152h.837v.531h-.837v2.584c0 .567.207.72.459.72.108 0 .198-.009.279-.026l.027.531a1.522 1.522 0 0 1-.513.071c-.27 0-.513-.071-.684-.261-.171-.198-.261-.495-.261-1.099v-2.521h-.531v-.531h.531v-.954l.693-.197zm1.44 2.511c0-.666-.027-1.053-.037-1.359h.622l.036.559h.018c.234-.469.576-.631.918-.631.757 0 1.261.811 1.261 2.242 0 1.611-.666 2.26-1.351 2.26-.404 0-.639-.262-.756-.505h-.018v2.161h-.693v-4.727zm.693 1.396c0 .135 0 .261.026.36.136.621.45.738.64.738.576 0 .756-.792.756-1.675 0-.9-.217-1.656-.766-1.656-.314 0-.594.396-.639.792-.018.108-.018.216-.018.333v1.108zm2.789.883c.152.099.424.225.702.225.396 0 .64-.243.64-.63 0-.333-.117-.559-.559-.855-.567-.369-.873-.738-.873-1.242 0-.702.521-1.207 1.197-1.207.342 0 .604.117.783.226l-.189.522a1.024 1.024 0 0 0-.576-.189.533.533 0 0 0-.566.549c0 .298.107.459.539.757.505.324.9.72.9 1.323 0 .873-.594 1.296-1.305 1.296-.324 0-.676-.099-.864-.252l.171-.523zm-11.654 24.081h.693v2.34h.018a1.23 1.23 0 0 1 .36-.378c.162-.099.333-.162.585-.162.549 0 1.018.441 1.018 1.54v2.89h-.693v-2.809c0-.531-.117-1.035-.585-1.035-.324 0-.567.233-.675.692-.018.1-.027.226-.027.334v2.817h-.693v-6.229zm4.437.719v1.152h.837v.531h-.837v2.584c0 .567.207.72.459.72.108 0 .198-.009.279-.026l.027.531a1.522 1.522 0 0 1-.513.071c-.27 0-.513-.071-.684-.261-.171-.198-.261-.495-.261-1.099v-2.521h-.531v-.531h.531v-.954l.693-.197zm2.295 0v1.152h.837v.531h-.837v2.584c0 .567.207.72.459.72.108 0 .198-.009.279-.026l.027.531a1.522 1.522 0 0 1-.513.071c-.27 0-.513-.071-.684-.261-.171-.198-.261-.495-.261-1.099v-2.521h-.531v-.531h.531v-.954l.693-.197zm1.44 2.512c0-.666-.027-1.053-.037-1.359h.622l.036.559h.018c.234-.469.576-.631.918-.631.757 0 1.261.811 1.261 2.242 0 1.611-.666 2.26-1.351 2.26-.404 0-.639-.262-.756-.505h-.018v2.161h-.693v-4.727zm.693 1.396c0 .135 0 .261.026.36.136.621.45.738.64.738.576 0 .756-.792.756-1.675 0-.9-.217-1.656-.766-1.656-.314 0-.594.396-.639.792-.018.108-.018.216-.018.333v1.108zm2.789.882c.152.099.424.225.702.225.396 0 .64-.243.64-.63 0-.333-.117-.559-.559-.855-.567-.369-.873-.738-.873-1.242 0-.702.521-1.207 1.197-1.207.342 0 .604.117.783.226l-.189.522a1.024 1.024 0 0 0-.576-.189.533.533 0 0 0-.566.549c0 .298.107.459.539.757.505.324.9.72.9 1.323 0 .873-.594 1.296-1.305 1.296-.324 0-.676-.099-.864-.252l.171-.523z"/><path d="M9.041 16.678V9.942h.979l1.139 2.879c.24.609.58 1.479.79 2.128h.02c-.06-.859-.12-1.898-.12-3.098V9.942h.939v6.736h-.979L10.66 13.81c-.25-.62-.55-1.43-.74-2.139H9.9c.05.779.08 1.729.08 3.128v1.879h-.939zm5.649-2.148c.01 1.089.51 1.389 1.08 1.389.36 0 .66-.08.87-.17l.16.76c-.31.14-.779.229-1.219.229-1.259 0-1.929-.909-1.929-2.418 0-1.609.77-2.589 1.809-2.589 1.02 0 1.54.93 1.54 2.229 0 .28-.01.44-.03.57H14.69zm1.319-.76c.01-.779-.25-1.239-.629-1.239-.46 0-.67.669-.69 1.239h1.319zm2.441-1.959l.35 2.229c.08.52.16 1.029.209 1.51h.03c.08-.48.19-1.03.29-1.489l.49-2.249h.82l.46 2.188c.12.55.21 1.04.29 1.55h.02c.05-.48.13-.99.22-1.529l.37-2.209h1.059l-1.239 4.867h-.899l-.45-1.989c-.11-.47-.19-.939-.26-1.499h-.02c-.07.57-.18 1.05-.29 1.51l-.479 1.979H18.5l-1.189-4.867h1.139zm7.521 4.867V13.98l-1.479-4.038h1.129l.52 1.639c.15.45.3.97.42 1.479h.02c.11-.5.25-1.01.4-1.509l.47-1.609h1.109l-1.52 3.998v2.738h-1.069zm4.099.08c-1.03 0-1.739-.859-1.739-2.499 0-1.769.87-2.528 1.779-2.528 1.019 0 1.719.89 1.719 2.499 0 1.969-1.02 2.528-1.749 2.528h-.01zm.04-.819c.529 0 .649-.96.649-1.699 0-.71-.12-1.689-.669-1.689-.58 0-.69.979-.69 1.689 0 .819.14 1.699.7 1.699h.01zm2.511-2.759c0-.45-.02-.96-.04-1.369h.93l.06.729h.03c.19-.49.59-.81.989-.81.1 0 .16.01.23.02v1.06c-.07-.01-.14-.01-.23-.01-.37 0-.739.31-.859.84-.02.109-.04.279-.04.46v2.578h-1.069V13.18zm3.79.82h.02c.09-.239.17-.43.25-.619l.78-1.569h1.149l-1.22 2.038 1.309 2.828H37.51l-.85-2.129-.25.43v1.699h-1.06V9.762h1.06V14zm2.49 3.927c.25-.72.52-1.769.629-2.509l1.12-.1c-.27.859-.69 1.929-1.05 2.528l-.699.081zm5.229-7.985v4.438c0 1.09.34 1.439.76 1.439.47 0 .78-.34.78-1.439V9.942h1.069V14.2c0 1.739-.69 2.559-1.849 2.559-1.229 0-1.829-.84-1.829-2.509V9.942h1.069zm3.621 5.597c.25.15.689.271 1.039.271.66 0 1.02-.38 1.02-.939 0-.54-.33-.85-.879-1.229-.75-.48-1.27-1.149-1.27-1.879 0-1.05.71-1.879 1.969-1.879.43 0 .819.13 1 .239l-.19.92c-.19-.12-.47-.23-.83-.23-.61 0-.899.41-.899.82 0 .52.27.759.959 1.199.849.56 1.189 1.209 1.189 1.929 0 1.209-.859 1.979-2.069 1.979-.5 0-1.009-.14-1.219-.279l.18-.922zm34.293 3.462c.009 1.332.531 1.62 1.036 1.62.297 0 .549-.072.72-.171l.108.513c-.243.136-.612.207-.955.207-1.044 0-1.584-.854-1.584-2.188 0-1.413.594-2.296 1.468-2.296.891 0 1.242.937 1.242 1.927 0 .162 0 .279-.009.388h-2.026zm1.369-.514c.018-.873-.315-1.261-.648-1.261-.45 0-.684.667-.711 1.261h1.359zm4.032-3.6v5.186c0 .297.027.792.036 1.044h-.594l-.045-.549h-.027c-.144.314-.45.621-.909.621-.738 0-1.27-.802-1.27-2.233 0-1.548.64-2.269 1.314-2.269.315 0 .621.153.792.522h.018v-2.322h.685zm-.684 3.528c0-.09 0-.188-.009-.288-.045-.45-.315-.846-.648-.846-.576 0-.774.801-.774 1.674 0 .919.234 1.657.738 1.657.216 0 .513-.117.666-.747a1.37 1.37 0 0 0 .027-.288v-1.162zm4.32-1.656c-.009.307-.036.693-.036 1.359v2.439c0 1.144-.144 1.576-.432 1.891-.261.298-.675.469-1.161.469-.369 0-.729-.09-.954-.216l.162-.541c.171.091.459.189.811.189.549 0 .891-.342.891-1.332v-.441h-.018a.886.886 0 0 1-.837.531c-.774 0-1.279-.873-1.279-2.152 0-1.602.729-2.269 1.369-2.269.468 0 .684.307.81.567h.018l.036-.495h.62zm-.721 1.504a1.16 1.16 0 0 0-.036-.315c-.081-.297-.234-.666-.63-.666-.504 0-.774.675-.774 1.639 0 1.116.351 1.62.774 1.62.207 0 .477-.099.621-.621.036-.135.045-.271.045-.396v-1.261zm2.133.738c.009 1.332.531 1.62 1.036 1.62.297 0 .549-.072.72-.171l.108.513c-.243.136-.612.207-.955.207-1.044 0-1.584-.854-1.584-2.188 0-1.413.594-2.296 1.468-2.296.891 0 1.242.937 1.242 1.927 0 .162 0 .279-.009.388h-2.026zm1.368-.514c.018-.873-.315-1.261-.648-1.261-.45 0-.684.667-.711 1.261h1.359zm2.817-.369c0-.666-.027-1.053-.036-1.359h.622l.036.559h.018c.234-.469.576-.631.918-.631.756 0 1.26.811 1.26 2.242 0 1.611-.666 2.26-1.35 2.26-.405 0-.64-.262-.756-.505h-.018v2.161h-.693v-4.727zm.693 1.396c0 .135 0 .261.027.36.135.621.45.738.639.738.576 0 .756-.792.756-1.675 0-.9-.216-1.656-.765-1.656-.315 0-.594.396-.639.792-.018.108-.018.216-.018.333v1.108zm2.898-1.63c0-.368-.027-.801-.036-1.125h.622l.036.685h.018c.144-.414.513-.757.918-.757.054 0 .099.01.144.01v.711c-.045-.009-.09-.009-.144-.009-.441 0-.765.404-.837.909a2.65 2.65 0 0 0-.027.396v2.413h-.693v-3.233zm4.789 1.053c0 1.684-.783 2.251-1.45 2.251-.783 0-1.414-.712-1.414-2.242 0-1.593.711-2.26 1.458-2.26.775.001 1.406.73 1.406 2.251zm-2.17 0c0 .721.126 1.701.756 1.701.594 0 .711-1.026.711-1.701 0-.666-.117-1.692-.729-1.692-.621 0-.738 1.026-.738 1.692zm3.195-2.178l.405.937c.108.252.189.504.288.765h.018c.099-.278.198-.53.288-.765l.396-.937h.711l-1.035 2.151 1.026 2.206h-.756l-.415-.981c-.099-.234-.18-.459-.288-.747h-.018c-.09.261-.189.495-.288.747l-.405.981h-.702l1.035-2.188-1.008-2.17h.748zm3.204 0l.576 2.503c.081.342.126.63.18.9h.018c.045-.243.117-.576.189-.892l.513-2.512h.684l-.711 2.8c-.271 1.099-.567 2.151-1.081 2.809-.306.388-.63.595-.783.667l-.252-.595c.198-.107.414-.297.612-.549.18-.226.324-.522.396-.729a.609.609 0 0 0 .045-.216c0-.054 0-.108-.018-.162l-1.098-4.024h.73zm66.504 29.184h1.069v5.837h1.799v.899h-2.868v-6.736zm4.989 6.816c-1.029 0-1.739-.859-1.739-2.499 0-1.769.87-2.528 1.778-2.528 1.02 0 1.72.89 1.72 2.499 0 1.969-1.02 2.528-1.749 2.528h-.01zm.039-.819c.53 0 .65-.96.65-1.699 0-.71-.12-1.689-.67-1.689-.58 0-.689.979-.689 1.689 0 .819.141 1.699.699 1.699h.01zm2.512-2.759c0-.55-.02-.939-.04-1.369h.93l.05.569h.02c.23-.39.641-.649 1.15-.649.818 0 1.248.63 1.248 1.759v3.188h-1.068v-3.088c0-.49-.1-.96-.57-.96-.26 0-.5.2-.6.6-.029.1-.05.26-.05.439v3.009h-1.069v-3.498zm7.607-3.418v5.597c0 .399.021.949.041 1.319h-.91l-.07-.58h-.029c-.16.351-.54.66-1.01.66-.949 0-1.479-1.029-1.479-2.499 0-1.709.739-2.528 1.529-2.528.399 0 .689.189.85.529h.02v-2.498h1.058zm-1.059 3.907c0-.09 0-.199-.02-.3-.041-.39-.261-.739-.58-.739-.54 0-.73.77-.73 1.64 0 .979.26 1.608.711 1.608.199 0 .449-.1.579-.609a.93.93 0 0 0 .04-.31v-1.29zm3.59 3.089c-1.029 0-1.738-.859-1.738-2.499 0-1.769.869-2.528 1.779-2.528 1.019 0 1.719.89 1.719 2.499 0 1.969-1.02 2.528-1.75 2.528h-.01zm.041-.819c.529 0 .648-.96.648-1.699 0-.71-.119-1.689-.669-1.689-.58 0-.69.979-.69 1.689 0 .819.141 1.699.7 1.699h.011zm2.51-2.759c0-.55-.02-.939-.039-1.369h.93l.049.569h.021c.229-.39.64-.649 1.149-.649.819 0 1.249.63 1.249 1.759v3.188h-1.069v-3.088c0-.49-.1-.96-.569-.96-.261 0-.5.2-.601.6-.029.1-.049.26-.049.439v3.009h-1.07v-3.498zm3.99 4.747c.25-.72.52-1.769.63-2.509l1.12-.1c-.271.859-.69 1.929-1.051 2.528l-.699.081zm5.229-7.985v4.438c0 1.09.34 1.439.76 1.439.471 0 .78-.34.78-1.439v-4.438h1.069v4.258c0 1.739-.689 2.559-1.85 2.559-1.229 0-1.828-.84-1.828-2.509v-4.308h1.069zm3.771 0h1.059v3.108h.031c.119-.28.239-.569.359-.85l1.059-2.259h1.18l-1.568 2.908 1.599 3.828h-1.159l-1.16-2.998-.34.6v2.398h-1.059v-6.735zm-12.468 72.632c0 1.684-.784 2.251-1.45 2.251-.783 0-1.413-.712-1.413-2.242 0-1.593.712-2.26 1.458-2.26.776 0 1.405.729 1.405 2.251zm-2.169 0c0 .721.126 1.701.757 1.701.594 0 .711-1.026.711-1.701 0-.666-.117-1.692-.729-1.692-.622-.001-.739 1.026-.739 1.692zm2.933-1.054c0-.368-.026-.801-.036-1.125h.621l.036.685h.019c.144-.414.513-.757.918-.757.055 0 .1.01.145.01v.711c-.045-.009-.09-.009-.145-.009-.441 0-.766.404-.838.909a2.658 2.658 0 0 0-.026.396v2.413h-.693v-3.233zm2.988-2.25c.009.27-.162.45-.423.45-.226 0-.396-.181-.396-.45 0-.271.18-.45.405-.45.252 0 .414.179.414.45zm-.747 5.482v-4.357h.693v4.357h-.693zm4.321-4.357c-.009.307-.036.693-.036 1.359v2.439c0 1.144-.144 1.576-.433 1.891-.26.298-.674.469-1.16.469-.369 0-.73-.09-.955-.216l.162-.541c.172.091.459.189.811.189.549 0 .891-.342.891-1.332v-.441h-.018a.886.886 0 0 1-.837.531c-.774 0-1.278-.873-1.278-2.152 0-1.602.729-2.269 1.368-2.269.468 0 .685.307.81.567h.019l.036-.495h.62zm-.721 1.504c0-.108-.008-.226-.035-.315-.082-.297-.234-.666-.631-.666-.504 0-.773.675-.773 1.639 0 1.116.351 1.62.773 1.62.207 0 .478-.099.621-.621.037-.135.045-.271.045-.396V117.9zm2.395-2.629c.008.27-.162.45-.424.45-.225 0-.396-.181-.396-.45 0-.271.181-.45.406-.45.251 0 .414.179.414.45zm-.749 5.482v-4.357h.693v4.357h-.693zm1.657-3.232c0-.513-.027-.773-.036-1.125h.603l.037.522h.018c.189-.352.54-.595.999-.595.604 0 1.054.45 1.054 1.504v2.926h-.693v-2.809c0-.514-.1-1.035-.604-1.035-.287 0-.566.243-.656.711a2.331 2.331 0 0 0-.027.387v2.746h-.693v-3.232zm4.941 2.513c.152.099.422.225.701.225.396 0 .64-.243.64-.63 0-.333-.117-.559-.558-.855-.568-.369-.873-.738-.873-1.242 0-.702.521-1.207 1.197-1.207.342 0 .603.117.783.226l-.189.522a1.026 1.026 0 0 0-.576-.189.533.533 0 0 0-.567.549c0 .298.108.459.54.757.504.324.9.72.9 1.323 0 .873-.594 1.296-1.305 1.296-.324 0-.676-.099-.865-.252l.172-.523zm3.203-1.396c.01 1.332.531 1.62 1.036 1.62.297 0 .549-.072.72-.171l.108.513c-.243.136-.612.207-.954.207-1.045 0-1.585-.854-1.585-2.188 0-1.413.595-2.296 1.468-2.296.891 0 1.242.937 1.242 1.927 0 .162 0 .279-.009.388h-2.026zm1.369-.513c.018-.873-.315-1.261-.648-1.261-.45 0-.684.667-.711 1.261h1.359zm1.404-.604c0-.368-.026-.801-.036-1.125h.621l.036.685h.019c.144-.414.513-.757.918-.757.055 0 .1.01.145.01v.711c-.045-.009-.09-.009-.145-.009-.441 0-.766.404-.838.909a2.658 2.658 0 0 0-.026.396v2.413h-.693v-3.233zm2.826-1.125l.549 2.449c.063.297.136.684.189 1.062h.026c.045-.359.117-.729.181-1.062l.54-2.449h.684l-1.134 4.357h-.621l-1.134-4.357h.72zm3.141 2.242c.009 1.332.531 1.62 1.035 1.62.297 0 .549-.072.721-.171l.107.513c-.243.136-.612.207-.955.207-1.043 0-1.584-.854-1.584-2.188 0-1.413.594-2.296 1.468-2.296.892 0 1.242.937 1.242 1.927 0 .162 0 .279-.009.388h-2.025zm1.369-.513c.019-.873-.315-1.261-.648-1.261-.45 0-.685.667-.711 1.261h1.359zm1.403-.604c0-.368-.027-.801-.036-1.125h.622l.035.685h.018c.145-.414.514-.757.919-.757.054 0 .099.01.144.01v.711c-.045-.009-.09-.009-.144-.009-.441 0-.765.404-.837.909a2.524 2.524 0 0 0-.027.396v2.413h-.693v-3.233zm2.124 2.513c.153.099.423.225.702.225.396 0 .639-.243.639-.63 0-.333-.117-.559-.558-.855-.567-.369-.873-.738-.873-1.242 0-.702.522-1.207 1.197-1.207.342 0 .603.117.783.226l-.188.522a1.026 1.026 0 0 0-.576-.189c-.379 0-.568.271-.568.549 0 .298.108.459.541.757.504.324.9.72.9 1.323 0 .873-.595 1.296-1.306 1.296-.324 0-.675-.099-.864-.252l.171-.523z"/><path fill="#c1272d" d="M56.72 131.699h.693v2.34h.018a1.23 1.23 0 0 1 .36-.378c.162-.099.333-.162.585-.162.549 0 1.018.441 1.018 1.54v2.889H58.7v-2.808c0-.531-.117-1.035-.585-1.035-.324 0-.567.233-.675.692-.018.1-.027.226-.027.334v2.817h-.693v-6.229zm4.437.719v1.152h.837v.531h-.837v2.583c0 .568.207.721.459.721.108 0 .198-.01.279-.027l.027.531a1.518 1.518 0 0 1-.513.072c-.27 0-.513-.072-.684-.262-.171-.197-.261-.494-.261-1.098V134.1h-.531v-.531h.531v-.954l.693-.197zm2.295 0v1.152h.837v.531h-.837v2.583c0 .568.207.721.459.721.108 0 .198-.01.279-.027l.027.531a1.518 1.518 0 0 1-.513.072c-.27 0-.513-.072-.684-.262-.171-.197-.261-.494-.261-1.098V134.1h-.531v-.531h.531v-.954l.693-.197zm1.439 2.512c0-.666-.027-1.053-.036-1.359h.622l.036.559h.018c.234-.469.576-.631.918-.631.756 0 1.26.811 1.26 2.242 0 1.611-.666 2.259-1.35 2.259-.405 0-.64-.262-.756-.504h-.018v2.16h-.693v-4.726zm.693 1.396c0 .135 0 .26.027.359.135.621.45.738.639.738.576 0 .756-.791.756-1.674 0-.9-.216-1.656-.765-1.656-.315 0-.594.396-.639.792-.018.108-.018.216-.018.333v1.108zm2.79.883c.153.098.423.225.702.225.396 0 .639-.244.639-.631 0-.332-.117-.559-.558-.855-.567-.369-.873-.738-.873-1.242 0-.702.522-1.207 1.197-1.207.342 0 .603.117.783.226l-.189.522a1.024 1.024 0 0 0-.576-.189.534.534 0 0 0-.567.549c0 .298.108.459.54.757.504.324.9.719.9 1.323 0 .873-.594 1.297-1.305 1.297-.324 0-.675-.1-.864-.252l.171-.523z"/><path d="M9.79 90.921H8.581v-.979h3.488v.979H10.86v5.757H9.79v-5.757zm3.93 5.837c-1.03 0-1.739-.859-1.739-2.499 0-1.769.87-2.528 1.779-2.528 1.019 0 1.719.89 1.719 2.499 0 1.969-1.02 2.528-1.749 2.528h-.01zm.04-.819c.529 0 .649-.96.649-1.699 0-.71-.12-1.689-.669-1.689-.58 0-.69.979-.69 1.689 0 .819.14 1.699.7 1.699h.01zM17.33 94h.02c.09-.239.17-.43.25-.619l.78-1.569h1.149L18.31 93.85l1.309 2.828H18.43l-.85-2.129-.25.43v1.699h-1.06v-6.916h1.06V94zm3.53-2.189l.55 2.648c.07.33.12.62.17.899h.02c.04-.26.1-.58.16-.89l.48-2.658h1.049l-.91 3.478c-.26 1.05-.589 2.1-1.139 2.769-.38.46-.81.69-1 .76l-.35-.919a2.194 2.194 0 0 0 1.089-1.18c.04-.1.06-.16.06-.229 0-.061-.01-.12-.03-.181l-1.289-4.497h1.14zm4.379 4.947c-1.03 0-1.739-.859-1.739-2.499 0-1.769.87-2.528 1.779-2.528 1.019 0 1.719.89 1.719 2.499 0 1.969-1.02 2.528-1.749 2.528h-.01zm.04-.819c.529 0 .649-.96.649-1.699 0-.71-.12-1.689-.669-1.689-.58 0-.69.979-.69 1.689 0 .819.14 1.699.7 1.699h.01zm1.871 1.988c.25-.72.52-1.769.629-2.509l1.12-.1c-.27.859-.69 1.929-1.05 2.528l-.699.081zm4.839-7.985h1.069v4.697c0 1.749-.79 2.119-1.749 2.119-.24 0-.45-.03-.589-.08l.09-.909c.11.04.25.05.4.05.459 0 .779-.18.779-1.14v-4.737zm2.171.099c.34-.079.779-.13 1.249-.13.71 0 1.29.13 1.689.51.36.34.54.859.54 1.439 0 .68-.19 1.14-.5 1.499-.399.47-1.049.7-1.619.7-.11 0-.2 0-.3-.011v2.629H34.16v-6.636zm1.059 3.129c.08.02.15.02.26.02.699 0 1.089-.479 1.089-1.249 0-.63-.26-1.159-.979-1.159-.15 0-.28.02-.37.05v2.338zm46.825 5.831c.009 1.332.531 1.62 1.036 1.62.297 0 .549-.072.72-.171l.108.513c-.243.136-.612.207-.955.207-1.044 0-1.584-.854-1.584-2.188 0-1.413.594-2.296 1.468-2.296.891 0 1.242.937 1.242 1.927 0 .162 0 .279-.009.388h-2.026zm1.369-.514c.018-.873-.315-1.261-.648-1.261-.45 0-.684.667-.711 1.261h1.359zm4.032-3.6v5.186c0 .297.027.792.036 1.044h-.594l-.045-.549h-.027c-.144.314-.45.621-.909.621-.738 0-1.27-.802-1.27-2.233 0-1.548.64-2.269 1.314-2.269.315 0 .621.153.792.522h.018v-2.322h.685zm-.684 3.528c0-.09 0-.188-.009-.288-.045-.45-.315-.846-.648-.846-.576 0-.774.801-.774 1.674 0 .919.234 1.657.738 1.657.216 0 .513-.117.666-.747a1.37 1.37 0 0 0 .027-.288v-1.162zm4.32-1.656c-.009.307-.036.693-.036 1.359v2.439c0 1.144-.144 1.576-.432 1.891-.261.298-.675.469-1.161.469-.369 0-.729-.09-.954-.216l.162-.541c.171.091.459.189.811.189.549 0 .891-.342.891-1.332v-.441h-.018a.886.886 0 0 1-.837.531c-.774 0-1.279-.873-1.279-2.152 0-1.602.729-2.269 1.369-2.269.468 0 .684.307.81.567h.018l.036-.495h.62zm-.721 1.504a1.16 1.16 0 0 0-.036-.315c-.081-.297-.234-.666-.63-.666-.504 0-.774.675-.774 1.639 0 1.116.351 1.62.774 1.62.207 0 .477-.099.621-.621.036-.135.045-.271.045-.396v-1.261zm2.133.738c.009 1.332.531 1.62 1.036 1.62.297 0 .549-.072.72-.171l.108.513c-.243.136-.612.207-.955.207-1.044 0-1.584-.854-1.584-2.188 0-1.413.594-2.296 1.468-2.296.891 0 1.242.937 1.242 1.927 0 .162 0 .279-.009.388h-2.026zm1.368-.514c.018-.873-.315-1.261-.648-1.261-.45 0-.684.667-.711 1.261h1.359zm2.817-.369c0-.666-.027-1.053-.036-1.359h.622l.036.559h.018c.234-.469.576-.631.918-.631.756 0 1.26.811 1.26 2.242 0 1.611-.666 2.26-1.35 2.26-.405 0-.64-.262-.756-.505h-.018v2.161h-.693v-4.727zm.693 1.396c0 .135 0 .261.027.36.135.621.45.738.639.738.576 0 .756-.792.756-1.675 0-.9-.216-1.656-.765-1.656-.315 0-.594.396-.639.792-.018.108-.018.216-.018.333v1.108zm2.898-1.63c0-.368-.027-.801-.036-1.125h.622l.036.685h.018c.144-.414.513-.757.918-.757.054 0 .099.01.144.01v.711c-.045-.009-.09-.009-.144-.009-.441 0-.765.404-.837.909a2.65 2.65 0 0 0-.027.396v2.413h-.693v-3.233zm4.789 1.053c0 1.684-.783 2.251-1.45 2.251-.783 0-1.414-.712-1.414-2.242 0-1.593.711-2.26 1.458-2.26.775.001 1.406.73 1.406 2.251zm-2.17 0c0 .721.126 1.701.756 1.701.594 0 .711-1.026.711-1.701 0-.666-.117-1.692-.729-1.692-.621 0-.738 1.026-.738 1.692zm3.195-2.178l.405.937c.108.252.189.504.288.765h.018c.099-.278.198-.53.288-.765l.396-.937h.711l-1.035 2.151 1.026 2.206h-.756l-.415-.981c-.099-.234-.18-.459-.288-.747h-.018c-.09.261-.189.495-.288.747l-.405.981h-.702l1.035-2.188-1.008-2.17h.748zm3.204 0l.576 2.503c.081.342.126.63.18.9h.018c.045-.243.117-.576.189-.892l.513-2.512h.684l-.711 2.8c-.271 1.099-.567 2.151-1.081 2.809-.306.388-.63.595-.783.667l-.252-.595c.198-.107.414-.297.612-.549.18-.226.324-.522.396-.729a.609.609 0 0 0 .045-.216c0-.054 0-.108-.018-.162l-1.098-4.024h.73z"/></svg>