<svg xmlns="http://www.w3.org/2000/svg" viewBox="0 0 341.451 123.891"><path fill="#ecbec0" d="M12.893 22.64h59.502v75.666H12.893zm59.503 37.833h59.502v37.833H72.396z"/><path fill="none" stroke="#c1272d" d="M35.146 109.223h91.5" stroke-linecap="round" stroke-linejoin="round"/><path fill="#c1272d" d="M125.77 112.224l5.182-2.992-5.182-2.991zm-89.749-6.002l-5.182 2.992 5.182 2.991z"/><path fill="none" stroke="#0071bc" d="M137.396 52.682h60.499" stroke-linecap="round" stroke-linejoin="round"/><path fill="#0071bc" d="M197.02 55.683l5.181-2.992-5.181-2.991zm-58.749-6.002l-5.181 2.991 5.181 2.992z"/><path fill="#b2dec7" d="M12.893 22.64h17.502v75.583H12.893z"/><path fill="#ecbec0" d="M202.893 22.64h59.502v75.666h-59.502zm59.503 37.833h59.502v37.833h-59.502z"/><path fill="none" stroke="#c1272d" d="M225.145 109.223h91.501" stroke-linecap="round" stroke-linejoin="round"/><path fill="#c1272d" d="M315.771 112.224l5.181-2.992-5.181-2.991zm-89.751-6.002l-5.181 2.992 5.181 2.991z"/><path fill="#b2dec7" d="M202.893 22.64h17.502v75.583h-17.502z"/><path fill="none" stroke="#000" d="M12.893 4.306v94.168h324.253" stroke-linecap="round" stroke-linejoin="round"/><path d="M336.271 101.475l5.18-2.992-5.18-2.991zM15.894 5.182L12.902 0 9.911 5.182zM1.733 60.361c-.079-.31-.13-.68-.13-1.12 0-.62.15-1.139.5-1.489.32-.33.81-.5 1.39-.5.619 0 1.039.15 1.379.41.5.37.75.99.75 1.589 0 .13 0 .23-.011.34H8.37v.77H1.733zm3.229-.77c.021-.09.03-.17.03-.3 0-.76-.5-1.27-1.449-1.27-.689 0-1.31.29-1.31 1.14 0 .18.021.33.05.43h2.679zm.989-5.879c1.869 0 2.499.87 2.499 1.609 0 .87-.79 1.569-2.488 1.569-1.77 0-2.509-.79-2.509-1.619 0-.859.81-1.559 2.498-1.559zm0 2.409c.8 0 1.89-.14 1.89-.839 0-.66-1.14-.79-1.89-.79-.739 0-1.879.13-1.879.81 0 .689 1.14.819 1.879.819zm-2.418-3.59l2.368-.47c.52-.09 1.039-.2 1.539-.26v-.04c-.5-.07-1.06-.19-1.519-.3l-2.389-.56v-.59l2.318-.529c.54-.12 1.05-.23 1.589-.31v-.04c-.51-.06-1.009-.15-1.559-.26l-2.349-.46v-.77l4.837 1.219v.63l-2.349.56c-.47.12-.899.19-1.449.27v.02c.569.08 1.02.17 1.479.28l2.318.58v.65L3.53 53.33v-.799zm2.488-5.68c1.479-.01 1.799-.589 1.799-1.149 0-.33-.08-.609-.189-.799l.569-.12c.15.27.229.68.229 1.06 0 1.159-.949 1.759-2.429 1.759-1.568 0-2.548-.66-2.548-1.629 0-.989 1.039-1.379 2.139-1.379.18 0 .31 0 .43.01v2.247zm-.569-1.52c-.97-.02-1.399.35-1.399.72 0 .5.739.76 1.399.79v-1.51zm-.67-1.561c-.41 0-.89.03-1.249.04v-.689l.759-.04v-.02c-.459-.16-.839-.57-.839-1.02 0-.06.01-.11.01-.16h.789c-.01.05-.01.1-.01.16 0 .49.45.85 1.01.93.13.02.279.03.439.03H8.37v.77H4.782zm164.077 71.574h-1.229v-.689h3.229v.689h-1.229v6.047h-.77v-6.047zm3.41-.04c.01.3-.18.5-.47.5-.25 0-.439-.2-.439-.5s.2-.499.45-.499c.279 0 .459.199.459.499zm-.83 6.087v-4.837h.77v4.837h-.77zm1.84-3.588c0-.569-.03-.859-.04-1.249h.67l.04.6h.021c.209-.391.579-.68 1.089-.68.45 0 .829.22 1.009.739h.021c.13-.24.3-.43.479-.55.189-.13.42-.189.67-.189.649 0 1.159.479 1.159 1.709v3.208h-.759v-3.028c0-.63-.091-1.239-.68-1.239-.32 0-.6.27-.71.72-.021.13-.03.279-.03.439v3.108h-.76v-3.168c0-.54-.1-1.1-.67-1.1-.309 0-.629.27-.719.779-.021.13-.03.271-.03.42v3.068h-.76v-3.587zm6.74 1.239c.01 1.479.59 1.799 1.15 1.799.329 0 .609-.08.799-.189l.12.569c-.271.15-.68.229-1.06.229-1.159 0-1.76-.949-1.76-2.429 0-1.568.66-2.548 1.63-2.548.989 0 1.38 1.039 1.38 2.139 0 .18 0 .31-.011.43h-2.248zm1.519-.569c.02-.97-.35-1.399-.72-1.399-.499 0-.759.739-.79 1.399h1.51zM45.59 27.004c.3-.09.65-.13 1.04-.13.709 0 1.209.181 1.579.51.52.45.91 1.319.91 2.729 0 1.539-.38 2.379-.81 2.839-.44.5-1.08.729-1.859.729-.31 0-.629-.021-.859-.07v-6.607zm.77 6.007c.11.021.22.021.29.021.85 0 1.669-.61 1.669-2.898 0-1.699-.52-2.629-1.599-2.629-.12 0-.26.01-.36.04v5.466zm6.619.509c-.21.11-.54.18-.959.18-1.319 0-2.259-1.059-2.259-3.348 0-2.658 1.319-3.508 2.379-3.508.41 0 .699.08.839.17l-.17.649c-.16-.07-.33-.14-.68-.14-.72 0-1.559.699-1.559 2.758 0 2.06.76 2.738 1.579 2.738.29 0 .55-.069.709-.149l.121.65zm1.561-6.616v2.889h1.889v-2.889h.77v6.736h-.77v-3.148H54.54v3.148h-.77v-6.736h.77zm40.461 37.75h2.569v.67h-1.799v2.358h1.679v.649h-1.679v3.059h-.77v-6.736zm3.79 4.718l-.45 2.019h-.74l1.539-6.736h.85l1.5 6.736h-.76l-.45-2.019h-1.489zm1.389-.62l-.35-1.709c-.1-.479-.19-1.039-.27-1.539h-.04c-.08.51-.18 1.089-.27 1.539l-.35 1.709h1.28zm4.889 2.518c-.21.11-.54.18-.959.18-1.319 0-2.259-1.059-2.259-3.348 0-2.658 1.319-3.508 2.379-3.508.41 0 .699.08.839.17l-.17.649c-.16-.07-.33-.14-.68-.14-.72 0-1.559.699-1.559 2.758 0 2.06.76 2.738 1.579 2.738.29 0 .55-.069.709-.149l.121.65zm1.561-6.616v2.889h1.889v-2.889h.77v6.736h-.77v-3.148h-1.889v3.148h-.77v-6.736h.77zM17.943 79.717c-.09-.3-.13-.65-.13-1.04 0-.709.181-1.209.51-1.579.45-.52 1.319-.91 2.729-.91 1.539 0 2.379.38 2.839.81.5.44.729 1.08.729 1.859 0 .31-.021.629-.07.859h-6.607zm6.007-.77c.021-.11.021-.22.021-.29 0-.85-.61-1.669-2.898-1.669-1.699 0-2.629.52-2.629 1.599 0 .12.01.26.04.36h5.466zm.63-5.529l-.51.05v.03c.37.21.59.55.59.959 0 .649-.55 1.149-1.379 1.149-1.21 0-1.749-.97-1.76-2.059h-.149c-.649 0-1.1.16-1.1.77 0 .3.1.57.25.8l-.54.17c-.149-.2-.319-.65-.319-1.129 0-.97.64-1.389 1.729-1.389h2.089c.37 0 .79 0 1.1-.05v.699zm-2.499.11c0 .4.07 1.33 1.12 1.33.629 0 .859-.32.859-.59 0-.34-.25-.63-.729-.72-.09-.02-.19-.02-.271-.02h-.979zm-3.617-2.691h1.279v-.93h.589v.93h2.869c.629 0 .799-.23.799-.51 0-.12-.01-.22-.029-.31l.59-.03c.05.14.079.32.079.569 0 .3-.079.57-.289.76-.221.19-.55.29-1.22.29h-2.799v.589h-.589v-.589h-1.06l-.219-.769zm6.116-3.519l-.51.05v.03c.37.21.59.55.59.959 0 .649-.55 1.149-1.379 1.149-1.21 0-1.749-.97-1.76-2.059h-.149c-.649 0-1.1.16-1.1.77 0 .3.1.57.25.8l-.54.17c-.149-.2-.319-.65-.319-1.129 0-.97.64-1.389 1.729-1.389h2.089c.37 0 .79 0 1.1-.05v.699zm-2.499.11c0 .4.07 1.33 1.12 1.33.629 0 .859-.32.859-.59 0-.34-.25-.63-.729-.72-.09-.02-.19-.02-.271-.02h-.979zm-3.548-3.911v1.229h-.689v-3.229h.689v1.229h6.047v.77h-6.047zm2.459-2.141c-.41 0-.89.03-1.249.04v-.689l.759-.04v-.02c-.459-.16-.839-.57-.839-1.02 0-.06.01-.11.01-.16h.789c-.01.05-.01.1-.01.16 0 .49.45.85 1.01.93.13.02.279.03.439.03h2.679v.77h-3.588zm3.588-4.338l-.51.05v.03c.37.21.59.55.59.959 0 .649-.55 1.149-1.379 1.149-1.21 0-1.749-.97-1.76-2.059h-.149c-.649 0-1.1.16-1.1.77 0 .3.1.57.25.8l-.54.17c-.149-.2-.319-.65-.319-1.129 0-.97.64-1.389 1.729-1.389h2.089c.37 0 .79 0 1.1-.05v.699zm-2.499.109c0 .4.07 1.33 1.12 1.33.629 0 .859-.32.859-.59 0-.34-.25-.63-.729-.72-.09-.02-.19-.02-.271-.02h-.979zm-1.089-1.84c-.569 0-.859.03-1.249.04v-.67l.579-.04v-.02c-.39-.209-.659-.6-.659-1.109 0-.669.499-1.169 1.669-1.169h3.248v.77h-3.118c-.569 0-1.149.11-1.149.669 0 .32.27.63.789.729.12.02.271.03.431.03h3.048v.77h-3.589zm2.788-3.92c.11-.17.25-.47.25-.78 0-.439-.27-.709-.699-.709-.37 0-.62.13-.95.62-.409.63-.819.969-1.379.969-.779 0-1.339-.58-1.339-1.329 0-.38.13-.669.25-.87l.579.21c-.12.18-.21.39-.21.64 0 .42.3.63.61.63.329 0 .509-.12.839-.6.36-.56.8-1 1.47-1 .969 0 1.438.66 1.438 1.449 0 .36-.109.75-.279.959l-.58-.189zm.8-3.18h-4.248v.61h-.589v-.61h-.29c-.52 0-1.06-.08-1.459-.43-.311-.28-.41-.669-.41-.969 0-.26.05-.46.12-.6l.6.13c-.04.09-.08.22-.08.419 0 .55.59.68 1.22.68h.3v-.879h.589v.879h4.248v.77zm-2.349-2.63c1.479-.01 1.799-.589 1.799-1.149 0-.33-.08-.609-.189-.799l.569-.12c.15.27.229.68.229 1.06 0 1.159-.949 1.759-2.429 1.759-1.568 0-2.548-.66-2.548-1.629 0-.989 1.039-1.379 2.139-1.379.18 0 .31 0 .43.01v2.247zm-.569-1.519c-.97-.02-1.399.35-1.399.72 0 .5.739.76 1.399.79v-1.51zm-.67-1.561c-.41 0-.89.03-1.249.04v-.689l.759-.04v-.02c-.459-.16-.839-.57-.839-1.02 0-.06.01-.11.01-.16h.789c-.01.05-.01.1-.01.16 0 .49.45.85 1.01.93.13.02.279.03.439.03h2.679v.77h-3.588zm47.723 62.265c.008 1.184.472 1.439.92 1.439.264 0 .487-.064.64-.152l.096.456c-.216.12-.543.184-.848.184-.927 0-1.407-.76-1.407-1.942 0-1.256.528-2.039 1.304-2.039.792 0 1.103.831 1.103 1.711 0 .144 0 .248-.008.344h-1.8zm1.216-.456c.016-.775-.28-1.119-.576-1.119-.399 0-.607.592-.631 1.119h1.207zm1.256-.536c0-.456-.024-.688-.032-1h.536l.032.464h.016a.982.982 0 0 1 .888-.527c.536 0 .936.399.936 1.335v2.599h-.616v-2.495c0-.455-.088-.919-.536-.919-.256 0-.504.216-.584.632a2.173 2.173 0 0 0-.024.344v2.438h-.616v-2.871zm3.672.992c.008 1.184.472 1.439.919 1.439.264 0 .488-.064.64-.152l.096.456c-.216.12-.543.184-.848.184-.927 0-1.407-.76-1.407-1.942 0-1.256.528-2.039 1.303-2.039.792 0 1.104.831 1.104 1.711 0 .144 0 .248-.008.344h-1.799zm1.215-.456c.016-.775-.28-1.119-.575-1.119-.4 0-.608.592-.632 1.119h1.207zm1.249-.536c0-.328-.024-.712-.032-1h.552l.032.607h.016c.128-.367.456-.671.816-.671.048 0 .088.008.128.008v.632c-.04-.008-.08-.008-.128-.008-.392 0-.68.359-.744.807a2.37 2.37 0 0 0-.024.353v2.143h-.616v-2.871zm4.247-1c-.008.272-.032.616-.032 1.208v2.166c0 1.016-.128 1.399-.384 1.68-.232.264-.6.415-1.032.415-.328 0-.647-.079-.847-.191l.144-.479c.152.08.408.168.72.168.488 0 .792-.304.792-1.184v-.392h-.016a.787.787 0 0 1-.743.472c-.688 0-1.136-.775-1.136-1.911 0-1.423.648-2.015 1.215-2.015.416 0 .608.271.72.504h.016l.032-.44h.551zm-.64 1.336c0-.097-.008-.2-.032-.28-.072-.264-.208-.592-.56-.592-.448 0-.688.6-.688 1.455 0 .991.312 1.439.688 1.439.184 0 .423-.088.551-.552.032-.12.04-.24.04-.352v-1.118zm1.785-1.336l.512 2.223c.072.305.112.561.16.8h.016c.04-.216.104-.512.168-.791l.456-2.231h.607l-.631 2.487c-.24.975-.504 1.91-.959 2.494-.272.344-.56.527-.696.592l-.224-.527c.176-.097.368-.265.544-.488.16-.2.288-.464.352-.647a.541.541 0 0 0 .04-.192c0-.048 0-.096-.016-.144l-.976-3.574h.647zm4.456-1.023v1.023h.743v.472h-.743v2.295c0 .504.184.64.408.64.096 0 .176-.008.248-.023l.024.472c-.112.04-.256.063-.456.063-.24 0-.456-.063-.607-.231-.152-.176-.232-.44-.232-.976v-2.239h-.472v-.472h.472v-.848l.615-.176zm2.815 4.894l-.04-.408h-.024c-.168.296-.44.472-.768.472-.52 0-.919-.439-.919-1.103 0-.968.775-1.399 1.647-1.407v-.12c0-.52-.128-.88-.616-.88-.24 0-.456.08-.64.2l-.136-.432c.16-.12.52-.256.903-.256.775 0 1.111.512 1.111 1.383v1.671c0 .296 0 .632.04.88h-.558zm-.088-1.999c-.32 0-1.063.056-1.063.896 0 .504.256.688.472.688.272 0 .504-.199.576-.583.016-.072.016-.152.016-.217v-.784zm2.136-2.871c.008.239-.144.399-.375.399-.2 0-.352-.16-.352-.399 0-.24.16-.4.36-.4.224 0 .367.16.367.4zm-.663 4.87v-3.87h.616v3.87h-.616zm1.472-5.534h.616v5.533h-.616v-5.533zm71.35-55.877c.008.239-.144.399-.375.399-.2 0-.352-.16-.352-.399 0-.24.16-.4.36-.4.223 0 .367.16.367.4zm-.664 4.869v-3.87h.616v3.87h-.616zm3.799-5.533v4.605c0 .264.024.704.032.928h-.528l-.04-.487h-.024c-.128.279-.4.551-.808.551-.656 0-1.127-.711-1.127-1.982 0-1.375.568-2.015 1.167-2.015a.75.75 0 0 1 .704.464h.016v-2.063h.608zm-.607 3.135c0-.08 0-.168-.008-.256-.04-.4-.28-.752-.575-.752-.512 0-.688.712-.688 1.487 0 .815.208 1.471.656 1.471.192 0 .456-.104.592-.663.016-.072.024-.16.024-.256v-1.031zm1.472-3.135h.616v5.533h-.616v-5.533zm1.96 3.654c.008 1.184.472 1.439.92 1.439.264 0 .487-.064.64-.152l.096.456c-.216.12-.543.184-.848.184-.927 0-1.407-.76-1.407-1.942 0-1.256.528-2.039 1.304-2.039.792 0 1.103.831 1.103 1.711 0 .144 0 .248-.008.344h-1.8zm1.216-.456c.016-.775-.28-1.119-.576-1.119-.399 0-.607.592-.631 1.119h1.207z"/><path fill="none" stroke="#000" stroke-miterlimit="10" d="M12.893 22.64h59.503v37.833h59.502v37.75"/><path fill="none" stroke="#000" d="M72.396 60.473v38.001m59.502-51.501v64.418M30.396 22.64v88.751" stroke-linecap="round" stroke-linejoin="round" stroke-dasharray="2 2"/><path d="M235.591 27.004a3.64 3.64 0 0 1 1.039-.13c.709 0 1.209.181 1.579.51.52.45.909 1.319.909 2.729 0 1.539-.379 2.379-.809 2.839-.44.5-1.08.729-1.859.729-.311 0-.63-.021-.859-.07v-6.607zm.769 6.007c.109.021.22.021.289.021.85 0 1.67-.61 1.67-2.898 0-1.699-.52-2.629-1.6-2.629-.12 0-.26.01-.359.04v5.466zm6.619.509c-.21.11-.54.18-.96.18-1.318 0-2.258-1.059-2.258-3.348 0-2.658 1.318-3.508 2.379-3.508.409 0 .699.08.839.17l-.17.649a1.47 1.47 0 0 0-.68-.14c-.72 0-1.56.699-1.56 2.758 0 2.06.76 2.738 1.58 2.738.289 0 .549-.069.709-.149l.121.65zm1.561-6.616v2.889h1.889v-2.889h.77v6.736h-.77v-3.148h-1.889v3.148h-.77v-6.736h.77zm40.461 37.75h2.568v.67h-1.799v2.358h1.68v.649h-1.68v3.059H285v-6.736zm3.789 4.718l-.449 2.019h-.74l1.539-6.736h.85l1.5 6.736h-.76l-.449-2.019h-1.491zm1.39-.62l-.35-1.709c-.101-.479-.19-1.039-.271-1.539h-.039c-.08.51-.18 1.089-.27 1.539l-.351 1.709h1.281zm4.889 2.518c-.21.11-.539.18-.959.18-1.32 0-2.26-1.059-2.26-3.348 0-2.658 1.32-3.508 2.379-3.508.41 0 .699.08.84.17l-.17.649c-.16-.07-.33-.14-.68-.14-.72 0-1.559.699-1.559 2.758 0 2.06.76 2.738 1.578 2.738.291 0 .551-.069.71-.149l.121.65zm1.561-6.616v2.889h1.89v-2.889h.77v6.736h-.77v-3.148h-1.89v3.148h-.77v-6.736h.77zm-88.688 15.063c-.09-.3-.13-.65-.13-1.04 0-.709.181-1.209.51-1.579.45-.52 1.319-.91 2.729-.91 1.539 0 2.379.38 2.839.81.5.44.729 1.08.729 1.859 0 .31-.021.629-.07.859h-6.607zm6.007-.77c.021-.11.021-.22.021-.29 0-.85-.61-1.669-2.898-1.669-1.699 0-2.629.52-2.629 1.599 0 .12.01.26.04.36h5.466zm.63-5.529l-.51.05v.03c.37.21.59.55.59.959 0 .649-.55 1.149-1.379 1.149-1.21 0-1.749-.97-1.76-2.059h-.149c-.649 0-1.1.16-1.1.77 0 .3.1.57.25.8l-.54.17c-.149-.2-.319-.65-.319-1.129 0-.97.64-1.389 1.729-1.389h2.089c.37 0 .79 0 1.1-.05v.699zm-2.499.11c0 .4.07 1.33 1.12 1.33.629 0 .859-.32.859-.59 0-.34-.25-.63-.729-.72-.09-.02-.19-.02-.271-.02h-.979zm-3.617-2.691h1.279v-.93h.589v.93h2.869c.629 0 .799-.23.799-.51 0-.12-.01-.22-.029-.31l.59-.03c.05.14.079.32.079.569 0 .3-.079.57-.289.76-.221.19-.55.29-1.22.29h-2.799v.589h-.589v-.589h-1.06l-.219-.769zm6.116-3.519l-.51.05v.03c.37.21.59.55.59.959 0 .649-.55 1.149-1.379 1.149-1.21 0-1.749-.97-1.76-2.059h-.149c-.649 0-1.1.16-1.1.77 0 .3.1.57.25.8l-.54.17c-.149-.2-.319-.65-.319-1.129 0-.97.64-1.389 1.729-1.389h2.089c.37 0 .79 0 1.1-.05v.699zm-2.499.11c0 .4.07 1.33 1.12 1.33.629 0 .859-.32.859-.59 0-.34-.25-.63-.729-.72-.09-.02-.19-.02-.271-.02h-.979zm-3.548-3.911v1.229h-.689v-3.229h.689v1.229h6.047v.77h-6.047zm2.459-2.141c-.41 0-.89.03-1.249.04v-.689l.759-.04v-.02c-.459-.16-.839-.57-.839-1.02 0-.06.01-.11.01-.16h.789c-.01.05-.01.1-.01.16 0 .49.45.85 1.01.93.13.02.279.03.439.03h2.679v.77h-3.588zm3.588-4.338l-.51.05v.03c.37.21.59.55.59.959 0 .649-.55 1.149-1.379 1.149-1.21 0-1.749-.97-1.76-2.059h-.149c-.649 0-1.1.16-1.1.77 0 .3.1.57.25.8l-.54.17c-.149-.2-.319-.65-.319-1.129 0-.97.64-1.389 1.729-1.389h2.089c.37 0 .79 0 1.1-.05v.699zm-2.499.109c0 .4.07 1.33 1.12 1.33.629 0 .859-.32.859-.59 0-.34-.25-.63-.729-.72-.09-.02-.19-.02-.271-.02h-.979zm-1.089-1.84c-.569 0-.859.03-1.249.04v-.67l.579-.04v-.02c-.39-.209-.659-.6-.659-1.109 0-.669.499-1.169 1.669-1.169h3.248v.77h-3.118c-.569 0-1.149.11-1.149.669 0 .32.27.63.789.729.12.02.271.03.431.03h3.048v.77h-3.589zm2.788-3.92c.11-.17.25-.47.25-.78 0-.439-.27-.709-.699-.709-.37 0-.62.13-.95.62-.409.63-.819.969-1.379.969-.779 0-1.339-.58-1.339-1.329 0-.38.13-.669.25-.87l.579.21c-.12.18-.21.39-.21.64 0 .42.3.63.61.63.329 0 .509-.12.839-.6.36-.56.8-1 1.47-1 .969 0 1.438.66 1.438 1.449 0 .36-.109.75-.279.959l-.58-.189zm.8-3.18h-4.248v.61h-.589v-.61h-.29c-.52 0-1.06-.08-1.459-.43-.311-.28-.41-.669-.41-.969 0-.26.05-.46.12-.6l.6.13c-.04.09-.08.22-.08.419 0 .55.59.68 1.22.68h.3v-.879h.589v.879h4.248v.77zm-2.349-2.63c1.479-.01 1.799-.589 1.799-1.149 0-.33-.08-.609-.189-.799l.569-.12c.15.27.229.68.229 1.06 0 1.159-.949 1.759-2.429 1.759-1.568 0-2.548-.66-2.548-1.629 0-.989 1.039-1.379 2.139-1.379.18 0 .31 0 .43.01v2.247zm-.569-1.519c-.97-.02-1.399.35-1.399.72 0 .5.739.76 1.399.79v-1.51zm-.67-1.561c-.41 0-.89.03-1.249.04v-.689l.759-.04v-.02c-.459-.16-.839-.57-.839-1.02 0-.06.01-.11.01-.16h.789c-.01.05-.01.1-.01.16 0 .49.45.85 1.01.93.13.02.279.03.439.03h2.679v.77h-3.588zm47.724 62.265c.009 1.184.472 1.439.92 1.439.264 0 .487-.064.64-.152l.096.456c-.216.12-.543.184-.848.184-.928 0-1.407-.76-1.407-1.942 0-1.256.528-2.039 1.304-2.039.791 0 1.104.831 1.104 1.711 0 .144 0 .248-.008.344h-1.801zm1.216-.456c.016-.775-.28-1.119-.576-1.119-.399 0-.607.592-.631 1.119h1.207zm1.256-.536c0-.456-.023-.688-.031-1h.535l.032.464h.017a.98.98 0 0 1 .887-.527c.536 0 .936.399.936 1.335v2.599h-.615v-2.495c0-.455-.088-.919-.535-.919-.256 0-.504.216-.584.632a2.06 2.06 0 0 0-.024.344v2.438h-.616v-2.871zm3.672.992c.008 1.184.472 1.439.919 1.439.264 0 .488-.064.641-.152l.096.456c-.217.12-.544.184-.848.184-.928 0-1.408-.76-1.408-1.942 0-1.256.528-2.039 1.304-2.039.792 0 1.104.831 1.104 1.711 0 .144 0 .248-.008.344h-1.8zm1.215-.456c.017-.775-.28-1.119-.575-1.119-.4 0-.607.592-.632 1.119h1.207zm1.249-.536c0-.328-.023-.712-.032-1h.552l.032.607h.016c.128-.367.456-.671.815-.671.049 0 .088.008.129.008v.632c-.041-.008-.08-.008-.129-.008-.392 0-.68.359-.743.807a2.243 2.243 0 0 0-.024.353v2.143h-.615v-2.871zm4.246-1c-.008.272-.031.616-.031 1.208v2.166c0 1.016-.128 1.399-.384 1.68-.231.264-.6.415-1.032.415-.327 0-.646-.079-.847-.191l.144-.479c.152.08.408.168.72.168.487 0 .792-.304.792-1.184v-.392h-.017a.786.786 0 0 1-.743.472c-.688 0-1.136-.775-1.136-1.911 0-1.423.647-2.015 1.216-2.015.416 0 .607.271.719.504h.017l.032-.44h.55zm-.638 1.336c0-.097-.008-.2-.032-.28-.072-.264-.208-.592-.56-.592-.448 0-.688.6-.688 1.455 0 .991.312 1.439.688 1.439.184 0 .424-.088.551-.552.033-.12.041-.24.041-.352v-1.118zm1.784-1.336l.512 2.223c.072.305.112.561.16.8h.016c.04-.216.104-.512.168-.791l.456-2.231h.607l-.631 2.487c-.24.975-.504 1.91-.96 2.494-.272.344-.56.527-.696.592l-.224-.527c.177-.097.368-.265.544-.488.16-.2.288-.464.352-.647a.541.541 0 0 0 .04-.192c0-.048 0-.096-.016-.144l-.976-3.574h.648zm4.456-1.023v1.023h.743v.472h-.743v2.295c0 .504.184.64.408.64.096 0 .176-.008.247-.023l.024.472c-.112.04-.256.063-.456.063-.239 0-.456-.063-.607-.231-.152-.176-.231-.44-.231-.976v-2.239h-.473v-.472h.473v-.848l.615-.176zm2.815 4.894l-.04-.408h-.023c-.168.296-.44.472-.768.472-.521 0-.92-.439-.92-1.103 0-.968.775-1.399 1.646-1.407v-.12c0-.52-.127-.88-.615-.88-.24 0-.455.08-.64.2l-.136-.432c.16-.12.52-.256.903-.256.775 0 1.111.512 1.111 1.383v1.671c0 .296 0 .632.04.88h-.558zm-.088-1.999c-.319 0-1.063.056-1.063.896 0 .504.256.688.472.688.272 0 .504-.199.575-.583.017-.072.017-.152.017-.217v-.784zm2.136-2.871c.008.239-.144.399-.375.399-.201 0-.353-.16-.353-.399 0-.24.16-.4.36-.4.225 0 .368.16.368.4zm-.664 4.87v-3.87h.616v3.87h-.616zm1.473-5.534h.615v5.533h-.615v-5.533z"/><path fill="none" stroke="#000" stroke-miterlimit="10" d="M321.897 98.223v-37.75h-59.501V22.64h-59.503v75.834"/><path fill="none" stroke="#000" d="M262.396 60.473v38.001m59.501-.251v13.168M220.395 22.64v88.751" stroke-linecap="round" stroke-linejoin="round" stroke-dasharray="2 2"/></svg>