<svg xmlns="http://www.w3.org/2000/svg" viewBox="0 0 330.468 241.768"><path fill="none" stroke="#009245" d="M28.743 136.148l25.105-1.215-9.628-29.599"/><path fill="#009245" d="M47.344 105.238l-4.448-4.002-1.241 5.852zm-17.871 27.87l-5.031 3.238 5.32 2.738z"/><path fill="none" stroke="#c1272d" d="M13.271 125l-.492-17.876L22.962 96"/><path fill="#c1272d" d="M24.584 98.672l1.292-5.842-5.705 1.802zm-14.337 25.535l3.133 5.098 2.848-5.262z"/><path fill="none" stroke="#0071bc" d="M78.381 81.916h54.158l10.557-21.662" stroke-linecap="round" stroke-linejoin="round"/><path fill="#0071bc" d="M145.41 62.356l-.419-5.968-4.959 3.347z"/><path fill="none" stroke="#000" d="M204.039 56.456h52" stroke-linecap="round" stroke-linejoin="round"/><path d="M255.164 59.457l5.181-2.992-5.181-2.991z"/><path fill="none" stroke="#0071bc" d="M161.039 56.456h26" stroke-linecap="round" stroke-linejoin="round"/><path fill="#0071bc" d="M186.164 59.457l5.181-2.992-5.181-2.991z"/><g fill="none" stroke="#000" stroke-miterlimit="10"><path d="M117.539 155.994v-1"/><path d="M117.539 152.994V2" stroke-dasharray="2 2"/><path d="M117.539 1V0"/></g><g fill="none" stroke="#000" stroke-miterlimit="10"><path d="M244.539 155.994v-1"/><path d="M244.539 152.994V2" stroke-dasharray="2 2"/><path d="M244.539 1V0"/></g><path fill="#b2d4eb" fill-rule="evenodd" d="M312.214 80.435c-3.3.944-6.579.248-9.021-1.601-1.439 1.684-3.146 2.845-5.382 3.482-5.78 1.649-11.093-.258-12.362-6.055a11.26 11.26 0 0 1-3.424 1.637c-5.773 1.648-11.777-1.831-13.049-7.63-5.027.443-9.605-2.776-10.724-7.889-1.271-5.797 2.385-11.833 8.159-13.481a10.659 10.659 0 0 1 3.876-.379c-1.271-5.794 2.455-10.348 8.232-11.998 2.316-.659 4.313-.895 6.327-.109 1.423-2.808 3.97-5.058 7.161-5.969 5.774-1.647 11.484 1.715 12.756 7.512.594-.292 1.093-.31 1.743-.498 5.777-1.649 11.489 1.713 12.758 7.511 5.009-.414 9.9 2.914 11.015 8.008 1.271 5.795-4.125 12.328-9.901 13.979 1.269 5.797-2.384 11.834-8.164 13.48z" clip-rule="evenodd" mask="url(#b)"/><path fill="#fddfbb" fill-rule="evenodd" d="M31.061 100.009L20.863 82.347l10.198-17.663h20.394l10.197 17.663-10.197 17.662z" clip-rule="evenodd"/><path fill="none" stroke="#000" d="M31.061 100.009L20.863 82.347l10.198-17.663h20.394l10.197 17.663-10.197 17.662z" stroke-linecap="round" stroke-linejoin="round"/><path fill="#fddfbb" fill-rule="evenodd" d="M61.855 82.288L51.658 64.626l10.197-17.663h20.394l10.198 17.663-10.198 17.662z" clip-rule="evenodd"/><path fill="none" stroke="#000" d="M61.855 82.288L51.658 64.626l10.197-17.663h20.394l10.198 17.663-10.198 17.662z" stroke-linecap="round" stroke-linejoin="round"/><path fill="#fddfbb" fill-rule="evenodd" d="M61.652 117.729l-10.197-17.662 10.197-17.662h20.394l10.198 17.662-10.198 17.662z" clip-rule="evenodd"/><path fill="none" stroke="#000" d="M61.652 117.729l-10.197-17.662 10.197-17.662h20.394l10.198 17.662-10.198 17.662z" stroke-linecap="round" stroke-linejoin="round"/><path fill="#ecbec0" fill-rule="evenodd" d="M148.098 43.513h25.885v25.886h-25.885z" clip-rule="evenodd"/><path fill="none" stroke="#000" d="M148.098 43.513h25.885v25.886h-25.885z" stroke-linecap="round" stroke-linejoin="round"/><path fill="none" stroke="#000" d="M161.039 92.967V75.115"/><path d="M164.04 75.991l-2.992-5.182-2.991 5.182zm-6.002 16.101l2.991 5.181 2.991-5.181z"/><path fill="#b2dec7" fill-rule="evenodd" d="M192.098 43.513h25.885v25.886h-25.885z" clip-rule="evenodd"/><path fill="none" stroke="#000" d="M192.098 43.513h25.885v25.886h-25.885z" stroke-linecap="round" stroke-linejoin="round"/><path fill="#e6e6e6" fill-rule="evenodd" d="M192.096 98.513h25.885v25.886h-25.885z" clip-rule="evenodd"/><path fill="none" stroke="#000" d="M192.096 98.513h25.885v25.886h-25.885z" stroke-linecap="round" stroke-linejoin="round"/><path fill="none" stroke="#000" d="M205.038 92.967V75.115"/><path d="M208.039 75.991l-2.991-5.182-2.992 5.182zm-6.002 16.101l2.991 5.181 2.992-5.181z"/><path fill="#b2d4eb" fill-rule="evenodd" d="M148.096 98.513h25.884v25.886h-25.884z" clip-rule="evenodd"/><path fill="none" stroke="#000" d="M148.096 98.513h25.884v25.886h-25.884z" stroke-linecap="round" stroke-linejoin="round"/><circle cx="13.215" cy="107.319" r="6.934" fill="#fff" fill-rule="evenodd" stroke="#000" clip-rule="evenodd" stroke-linecap="round" stroke-linejoin="round"/><path d="M13.003 104.529h-.02l-1.123.622-.177-.668 1.411-.774.75-.008.07 6.496-.849.009-.062-5.677z"/><circle cx="18.846" cy="174.334" r="6.934" fill="#fff" fill-rule="evenodd" stroke="#000" clip-rule="evenodd" stroke-linecap="round" stroke-linejoin="round"/><path d="M18.634 171.544l-.02.001-1.123.621-.177-.668 1.411-.774.75-.009.07 6.496-.849.01-.062-5.677z"/><circle cx="117.539" cy="82.288" r="6.934" fill="#fff" fill-rule="evenodd" stroke="#000" clip-rule="evenodd" stroke-linecap="round" stroke-linejoin="round"/><path d="M115.679 84.184c.251.157.834.401 1.443.395 1.129-.012 1.472-.736 1.456-1.276-.02-.909-.844-1.29-1.693-1.28l-.49.005-.007-.66.49-.005c.64-.007 1.446-.345 1.438-1.114-.005-.52-.341-.976-1.15-.967-.52.005-1.017.24-1.294.443l-.237-.637c.337-.254.994-.511 1.694-.519 1.279-.014 1.867.74 1.875 1.529.007.67-.386 1.244-1.182 1.542v.021c.802.151 1.457.744 1.467 1.653.011 1.039-.788 1.958-2.347 1.975-.729.008-1.372-.216-1.693-.422l.23-.683z"/><circle cx="233.039" cy="56.456" r="6.934" fill="#fff" fill-rule="evenodd" stroke="#000" clip-rule="evenodd" stroke-linecap="round" stroke-linejoin="round"/><path d="M233.699 59.334l-.02-1.769-3.019.033-.007-.58 2.854-4.179.95-.01.044 4.037.908-.01.008.69-.908.01.019 1.769-.829.009zm-.027-2.459l-.023-2.169a16.51 16.51 0 0 1 .02-1.019h-.03c-.196.381-.353.663-.53.965l-1.564 2.226v.02l2.127-.023z"/><path fill="#53586c" fill-rule="evenodd" d="M14.415 148.702l4.818-2.12 14.013-8.091 3.994-2.949v.239l-3.878 2.883-14.032 8.102-4.915 2.175z" clip-rule="evenodd"/><path fill="#2d334c" d="M.268 140.54l14.147 8.167v.234L.268 140.775z"/><g fill="#6c7082"><path fill-rule="evenodd" d="M14.415 148.464l4.818-2.12 14.013-8.091 3.994-2.95v.239l-3.878 2.883-14.032 8.101-4.915 2.177z" clip-rule="evenodd"/><path d="M.268 140.301l14.147 8.167v.235L.268 140.536z"/></g><path fill="#b3b3b3" d="M14.415 147.832l4.852-2.153 14.013-8.091 3.993-2.949v.732l-3.877 2.883-14.03 8.101-4.951 2.211z"/><path fill="#53586c" d="M.268 139.67l14.147 8.168v.728L.268 140.399z"/><path fill="#b3b3b3" d="M14.415 148.934l4.818-2.12 14.013-8.091 3.994-2.948v.731l-3.878 2.882-14.032 8.102-4.915 2.177z"/><path fill="#53586c" d="M.268 140.772l14.147 8.167v.728L.268 141.5z"/><path fill="#b3b3b3" d="M37.27 134.639l-4.067 3.004-14.113 8.149-4.675 2.042L.25 139.659l3.54-2.701 14.112-8.148 5.205-2.349z"/><path fill="#0071bc" d="M5.311 138.948l17.652-10.193 10.334 5.967-17.653 10.192z"/><path fill="#6c7082" d="M5.311 138.948l17.652-10.193.363.21-17.652 10.192z"/><path fill="#53586c" d="M22.962 129.176l.001-.421 10.334 5.967-.369.211z"/><path fill="#4d4d4d" d="M5.953 141.29c-.259-.149-.349-.341-.197-.427l.373-.215c.149-.087.48-.036.739.115l6.077 3.507c.258.149.348.341.197.427l-.372.216c-.149.086-.481.035-.74-.115l-6.077-3.508z"/><g fill="#fff"><path d="M7.103 141.107c.146.083.15.217.011.299a.58.58 0 0 1-.518-.006c-.147-.084-.151-.218-.011-.299a.576.576 0 0 1 .518.006zm1.049.606c.145.084.151.218.011.299a.576.576 0 0 1-.518-.006c-.147-.084-.15-.218-.011-.299a.57.57 0 0 1 .518.006zm1.049.605c.146.084.15.218.01.299a.573.573 0 0 1-.518-.006c-.147-.084-.151-.218-.011-.299a.575.575 0 0 1 .519.006zm1.049.606c.146.084.149.218.01.299-.14.081-.372.078-.518-.006s-.15-.218-.01-.299a.567.567 0 0 1 .518.006zm1.049.605c.145.084.149.218.009.299a.571.571 0 0 1-.517-.006c-.146-.083-.151-.218-.009-.299a.571.571 0 0 1 .517.006zm1.049.606c.146.083.149.218.009.298a.578.578 0 0 1-.519-.005c-.145-.084-.15-.218-.009-.299a.57.57 0 0 1 .519.006z"/><path fill-rule="evenodd" d="M7.103 141.107c.146.083.15.217.011.299a.58.58 0 0 1-.518-.006c-.147-.084-.151-.218-.011-.299a.576.576 0 0 1 .518.006zm1.049.606c.145.084.151.218.011.299a.576.576 0 0 1-.518-.006c-.147-.084-.15-.218-.011-.299a.57.57 0 0 1 .518.006zm1.049.605c.146.084.15.218.01.299a.573.573 0 0 1-.518-.006c-.147-.084-.151-.218-.011-.299a.575.575 0 0 1 .519.006zm1.049.606c.146.084.149.218.01.299-.14.081-.372.078-.518-.006s-.15-.218-.01-.299a.567.567 0 0 1 .518.006zm1.049.605c.145.084.149.218.009.299a.571.571 0 0 1-.517-.006c-.146-.083-.151-.218-.009-.299a.571.571 0 0 1 .517.006zm1.049.606c.146.083.149.218.009.298a.578.578 0 0 1-.519-.005c-.145-.084-.15-.218-.009-.299a.57.57 0 0 1 .519.006z" clip-rule="evenodd"/></g><path fill="#4d4d4d" d="M4.721 140.107c.192.111.199.289.013.395a.759.759 0 0 1-.685-.007c-.192-.112-.197-.289-.011-.396.184-.107.492-.103.683.008zm-1.263-.729c.192.111.198.288.012.395a.757.757 0 0 1-.684-.007c-.192-.112-.198-.288-.013-.396a.756.756 0 0 1 .685.008zm1.356-.747a.462.462 0 0 1-.416-.005l-.529-.305c-.116-.067-.12-.175-.008-.24l3.815-2.203a.459.459 0 0 1 .413.006l.529.306c.118.066.122.174.008.239l-3.812 2.202z"/><path fill="#009245" d="M18.696 144.335c.194.111.199.288.015.395a.766.766 0 0 1-.687-.007c-.191-.111-.197-.288-.013-.395a.752.752 0 0 1 .685.007zm1.336-.773c.194.112.199.29.015.396a.76.76 0 0 1-.686-.007c-.191-.112-.197-.289-.013-.396a.763.763 0 0 1 .684.007z"/><path fill="none" stroke="#000" stroke-width=".5" stroke-miterlimit="3.864" d="M37.27 134.542l-9.151-5.283 2.693-7.746s-.185-.245-.358-.292c-.145-.039-.382.029-.382.029l-2.646 7.609-4.319-2.495-5.205 2.348-2.603 1.504-.094-.054-6.822 3.939.093.054-4.687 2.705-3.54 2.701.018 1.841 14.147 8.167 4.915-2.177 14.033-8.103 3.911-2.882v-1.867h-.003z" stroke-linejoin="round"/><g fill="#b3b3b3"><path d="M26.011 133.747l.136-1.21 3.924-11.287s.237-.068.382-.029c.173.047.358.292.358.292l-3.923 11.285-.62 1.013-.257-.064z"/><path d="M27.228 129.797c.177-.369.433-.609.573-.538.14.073.109.43-.068.799-.175.368-.432.608-.572.537-.137-.072-.108-.43.067-.798z"/></g><path fill="#b3b3b3" stroke="#333" stroke-width=".25" d="M26.011 133.747l.136-1.21 3.924-11.287s.237-.068.382-.029c.173.047.358.292.358.292l-3.923 11.285-.62 1.013-.257-.064z"/><path fill="#f2f2f2" fill-rule="evenodd" d="M27.228 129.797c.177-.369.433-.609.573-.538.14.073.109.43-.068.799-.175.368-.432.608-.572.537-.137-.072-.108-.43.067-.798z" clip-rule="evenodd"/><path fill="#4d4d4d" d="M17.176 131.296l-1.971-1.133-6.822 3.939 1.971 1.132zm4.704 10.589l1.918 1.102 6.82-3.937-1.92-1.102z"/><path fill="#53586c" d="M30.618 139.05l.025 1.783-6.819 3.937-.026-1.783"/><circle cx="53.848" cy="133.956" r="6.934" fill="#fff" fill-rule="evenodd" stroke="#000" clip-rule="evenodd" stroke-linecap="round" stroke-linejoin="round"/><path d="M51.789 136.864l-.006-.54.682-.676c1.642-1.597 2.383-2.445 2.382-3.424-.007-.66-.333-1.266-1.303-1.256-.589.006-1.076.312-1.373.565l-.287-.616a2.851 2.851 0 0 1 1.832-.68c1.399-.015 1.999.938 2.009 1.867.013 1.199-.846 2.178-2.201 3.513l-.515.485v.021l2.918-.031.008.729-4.146.043z"/><path fill="none" stroke="#c1272d" d="M28.618 174.334h15.454" stroke-linecap="round" stroke-linejoin="round"/><path fill="#c1272d" d="M43.196 177.335l5.182-2.991-5.182-2.992z"/><circle cx="18.846" cy="194.334" r="6.934" fill="#fff" fill-rule="evenodd" stroke="#000" clip-rule="evenodd" stroke-linecap="round" stroke-linejoin="round"/><path d="M16.787 197.241l-.006-.54.682-.676c1.642-1.598 2.383-2.445 2.382-3.425-.007-.66-.333-1.267-1.303-1.256-.589.007-1.076.312-1.373.565l-.287-.617a2.851 2.851 0 0 1 1.832-.68c1.399-.016 1.999.938 2.009 1.867.013 1.199-.846 2.178-2.201 3.513l-.515.485v.02l2.918-.031.008.73-4.146.045z"/><path fill="none" stroke="#009245" d="M28.618 194.334h15.454" stroke-linecap="round" stroke-linejoin="round"/><path fill="#009245" d="M43.196 197.335l5.182-2.991-5.182-2.992z"/><circle cx="18.846" cy="214.334" r="6.934" fill="#fff" fill-rule="evenodd" stroke="#000" clip-rule="evenodd" stroke-linecap="round" stroke-linejoin="round"/><path d="M16.986 216.229c.251.157.834.401 1.443.395 1.129-.013 1.472-.735 1.456-1.276-.02-.908-.844-1.289-1.693-1.279l-.49.004-.007-.66.49-.004c.64-.008 1.446-.346 1.438-1.115-.005-.52-.341-.976-1.15-.967-.52.006-1.017.24-1.294.443l-.237-.637c.337-.254.994-.512 1.694-.519 1.279-.014 1.867.739 1.875 1.528.007.67-.386 1.244-1.182 1.543v.02c.802.151 1.457.744 1.467 1.654.011 1.039-.788 1.957-2.347 1.975-.729.008-1.372-.216-1.693-.422l.23-.683z"/><path fill="none" stroke="#0071bc" d="M28.618 214.334h15.454" stroke-linecap="round" stroke-linejoin="round"/><path fill="#0071bc" d="M43.196 217.335l5.182-2.991-5.182-2.992z"/><circle cx="18.846" cy="234.334" r="6.934" fill="#fff" fill-rule="evenodd" stroke="#000" clip-rule="evenodd" stroke-linecap="round" stroke-linejoin="round"/><path d="M19.505 237.212l-.019-1.769-3.019.033-.006-.58 2.854-4.18.95-.01.044 4.037.909-.01.007.69-.909.01.019 1.769-.83.01zm-.026-2.459l-.023-2.169a16.51 16.51 0 0 1 .019-1.019h-.03c-.196.382-.353.663-.53.965l-1.565 2.226v.02l2.129-.023z"/><path fill="none" stroke="#000" d="M28.618 234.334h15.454" stroke-linecap="round" stroke-linejoin="round"/><path d="M43.196 237.335l5.182-2.991-5.182-2.992zM9.89 24.655c.363-.1.803-.144 1.221-.144.737 0 1.287.154 1.672.528.363.374.517.869.517 1.452 0 .946-.44 1.562-1.188 1.903v.021c.55.165.836.693 1.001 1.662.165 1.022.319 1.649.418 1.881h-.858c-.11-.22-.253-.924-.396-1.837-.165-1.013-.484-1.397-1.21-1.397h-.33v3.234H9.89v-7.303zm.847 3.421h.352c.814 0 1.353-.594 1.353-1.485 0-.857-.352-1.386-1.265-1.396-.165 0-.33.011-.44.044v2.837zm5.764 3.883l-.055-.562h-.033c-.231.407-.605.649-1.056.649-.715 0-1.265-.604-1.265-1.519 0-1.331 1.067-1.925 2.266-1.936v-.165c0-.716-.176-1.21-.847-1.21-.33 0-.627.109-.88.274l-.187-.594c.22-.165.715-.353 1.243-.353 1.067 0 1.529.704 1.529 1.903v2.3c0 .407 0 .869.055 1.21h-.77zm-.122-2.75c-.44 0-1.463.076-1.463 1.231 0 .693.352.946.649.946.374 0 .693-.274.792-.803.022-.1.022-.209.022-.297v-1.077zm5.226-4.863v6.337c0 .363.033.969.044 1.276h-.726l-.055-.671h-.033c-.176.385-.55.759-1.111.759-.902 0-1.551-.979-1.551-2.729 0-1.892.781-2.772 1.606-2.772.385 0 .759.188.968.639h.022v-2.839h.836zm-.836 4.313c0-.109 0-.23-.011-.352-.055-.55-.385-1.034-.792-1.034-.704 0-.946.979-.946 2.046 0 1.122.286 2.024.902 2.024.264 0 .627-.143.814-.913.022-.099.033-.22.033-.352v-1.419zm2.937-3.4c.011.33-.198.551-.517.551-.275 0-.484-.221-.484-.551s.22-.55.495-.55c.307 0 .506.22.506.55zm-.913 6.7v-5.325h.847v5.325h-.847zm5.291-2.662c0 2.057-.957 2.75-1.771 2.75-.957 0-1.727-.869-1.727-2.739 0-1.947.869-2.762 1.782-2.762.946 0 1.716.892 1.716 2.751zm-2.652 0c0 .88.154 2.079.924 2.079.726 0 .869-1.254.869-2.079 0-.814-.143-2.068-.891-2.068-.759 0-.902 1.254-.902 2.068zm6.281.44l-.495 2.223h-.814l1.694-7.415h.935l1.65 7.415h-.836l-.495-2.223h-1.639zm1.53-.682l-.385-1.882a38.668 38.668 0 0 1-.297-1.693h-.044a43.913 43.913 0 0 1-.297 1.693l-.385 1.882h1.408zm4.784 2.773c-.187.109-.506.198-.88.198-1.167 0-1.947-.936-1.947-2.695 0-1.529.77-2.772 2.101-2.772.286 0 .594.076.748.165l-.165.692a1.382 1.382 0 0 0-.605-.143c-.847 0-1.232 1.012-1.232 2.058 0 1.243.473 1.991 1.254 1.991.231 0 .418-.056.616-.144l.11.65zm3.256 0c-.187.109-.506.198-.88.198-1.167 0-1.947-.936-1.947-2.695 0-1.529.77-2.772 2.101-2.772.286 0 .594.076.748.165l-.165.692a1.382 1.382 0 0 0-.605-.143c-.847 0-1.232 1.012-1.232 2.058 0 1.243.473 1.991 1.254 1.991.231 0 .418-.056.616-.144l.11.65zm1.254-2.453c.011 1.628.649 1.979 1.265 1.979.363 0 .671-.088.88-.209l.132.627c-.297.165-.748.254-1.166.254-1.276 0-1.936-1.046-1.936-2.674 0-1.728.726-2.806 1.793-2.806 1.089 0 1.518 1.145 1.518 2.354 0 .198 0 .341-.011.474h-2.475zm1.672-.628c.022-1.066-.385-1.54-.792-1.54-.55 0-.836.814-.869 1.54h1.661zm1.584 2.333c.187.121.517.274.858.274.484 0 .781-.297.781-.77 0-.407-.143-.683-.682-1.045-.693-.451-1.067-.902-1.067-1.519 0-.858.638-1.475 1.463-1.475.418 0 .737.144.957.275l-.231.638a1.25 1.25 0 0 0-.704-.23c-.462 0-.693.33-.693.671 0 .363.132.562.66.924.616.396 1.1.881 1.1 1.617 0 1.067-.726 1.585-1.595 1.585-.396 0-.825-.121-1.056-.309l.209-.636zm3.179 0c.187.121.517.274.858.274.484 0 .781-.297.781-.77 0-.407-.143-.683-.682-1.045-.693-.451-1.067-.902-1.067-1.519 0-.858.638-1.475 1.463-1.475.418 0 .737.144.957.275l-.231.638a1.25 1.25 0 0 0-.704-.23c-.462 0-.693.33-.693.671 0 .363.132.562.66.924.616.396 1.1.881 1.1 1.617 0 1.067-.726 1.585-1.595 1.585-.396 0-.825-.121-1.056-.309l.209-.636zm5.114.879v-7.415h.803l1.364 3.477c.308.792.693 1.782.946 2.585h.022a55.805 55.805 0 0 1-.099-3.41v-2.651h.759v7.415h-.803l-1.408-3.564a26.597 26.597 0 0 1-.88-2.52h-.022c.066.99.088 1.937.088 3.521v2.563h-.77zm5.6-2.584c.011 1.628.649 1.979 1.265 1.979.363 0 .671-.088.88-.209l.132.627c-.297.165-.748.254-1.166.254-1.276 0-1.936-1.046-1.936-2.674 0-1.728.726-2.806 1.793-2.806 1.089 0 1.518 1.145 1.518 2.354 0 .198 0 .341-.011.474h-2.475zm1.672-.628c.022-1.066-.385-1.54-.792-1.54-.55 0-.836.814-.869 1.54h1.661zm2.761-3.521v1.408h1.023v.649h-1.023v3.157c0 .693.253.881.561.881.132 0 .242-.012.341-.033l.033.648a1.827 1.827 0 0 1-.627.089c-.33 0-.627-.089-.836-.319-.209-.242-.319-.605-.319-1.343v-3.08h-.649v-.649h.649v-1.166l.847-.242zm2.309 1.408l.517 2.607c.099.572.22 1.145.286 1.694h.044c.077-.55.209-1.166.33-1.672l.616-2.63h.649l.583 2.553c.132.594.253 1.155.341 1.749h.044c.066-.561.165-1.111.286-1.716l.506-2.586h.847l-1.342 5.325h-.693l-.616-2.585c-.132-.518-.209-.99-.297-1.596h-.022a16.63 16.63 0 0 1-.308 1.628l-.638 2.553h-.715l-1.298-5.325h.88zm8.922 2.663c0 2.057-.957 2.75-1.771 2.75-.957 0-1.727-.869-1.727-2.739 0-1.947.869-2.762 1.782-2.762.946 0 1.716.892 1.716 2.751zm-2.652 0c0 .88.154 2.079.924 2.079.726 0 .869-1.254.869-2.079 0-.814-.143-2.068-.891-2.068-.759 0-.902 1.254-.902 2.068zm3.586-1.287c0-.451-.033-.979-.044-1.376H77l.044.837h.022c.176-.507.627-.925 1.122-.925.066 0 .121.012.176.012v.869c-.055-.012-.11-.012-.176-.012-.539 0-.935.495-1.023 1.111a3.259 3.259 0 0 0-.033.484v2.948h-.847V28.01zm3.575 1.1h.022c.099-.209.187-.418.286-.594l1.056-1.882h.913l-1.408 2.245 1.529 3.08h-.946l-1.155-2.509-.297.495v2.014h-.847v-7.613h.847v4.764zm6.699-4.764c-.627.99-1.144 2.476-1.144 4.478 0 1.97.517 3.455 1.144 4.456h-.66c-.572-.836-1.21-2.311-1.21-4.467.022-2.156.638-3.642 1.21-4.467h.66zm.935.309c.363-.1.803-.144 1.221-.144.737 0 1.287.154 1.672.528.363.374.517.869.517 1.452 0 .946-.44 1.562-1.188 1.903v.021c.55.165.836.693 1.001 1.662.165 1.022.319 1.649.418 1.881h-.858c-.11-.22-.253-.924-.396-1.837-.165-1.013-.484-1.397-1.21-1.397h-.33v3.234h-.847v-7.303zm.847 3.421h.352c.814 0 1.353-.594 1.353-1.485 0-.857-.352-1.386-1.265-1.396-.165 0-.33.011-.44.044v2.837zm4.609 1.661l-.495 2.223h-.814l1.694-7.415h.935l1.65 7.415h-.836l-.495-2.223h-1.639zm1.529-.682l-.385-1.882a38.668 38.668 0 0 1-.297-1.693h-.044a43.913 43.913 0 0 1-.297 1.693l-.385 1.882h1.408zm2.365 2.904v-7.415h.803l1.364 3.477c.308.792.693 1.782.946 2.585h.022a55.805 55.805 0 0 1-.099-3.41v-2.651h.759v7.415h-.803l-1.408-3.564a26.597 26.597 0 0 1-.88-2.52h-.022c.066.99.088 1.937.088 3.521v2.563h-.77zm4.729 1.321c.627-.99 1.145-2.497 1.145-4.478s-.517-3.466-1.145-4.456h.66c.572.814 1.21 2.277 1.21 4.456-.022 2.178-.638 3.63-1.21 4.478h-.66zM54.065 177.11c-.153.091-.414.162-.72.162-.955 0-1.594-.765-1.594-2.205 0-1.252.63-2.269 1.72-2.269.234 0 .486.062.612.135l-.135.567a1.13 1.13 0 0 0-.495-.117c-.693 0-1.008.828-1.008 1.684 0 1.017.387 1.629 1.026 1.629.189 0 .342-.045.504-.117l.09.531zm3.214-2.07c0 1.684-.784 2.251-1.45 2.251-.783 0-1.414-.712-1.414-2.242 0-1.593.711-2.26 1.458-2.26.775 0 1.406.73 1.406 2.251zm-2.17 0c0 .721.126 1.701.756 1.701.594 0 .711-1.026.711-1.701 0-.666-.117-1.692-.729-1.692-.621 0-.738 1.026-.738 1.692zm2.943-1.054c0-.513-.027-.773-.036-1.125h.603l.036.522h.018c.189-.352.54-.595.999-.595.604 0 1.054.45 1.054 1.504v2.926h-.693v-2.809c0-.514-.099-1.035-.603-1.035-.288 0-.567.243-.657.711a2.445 2.445 0 0 0-.027.387v2.746h-.693v-3.232zm4.437-2.277v1.152h.837v.531h-.837v2.584c0 .567.207.72.459.72.108 0 .198-.009.279-.026l.027.531a1.522 1.522 0 0 1-.513.071c-.27 0-.513-.071-.684-.261-.171-.198-.261-.495-.261-1.099v-2.521h-.531v-.531h.531v-.954l.693-.197zm1.439 2.277c0-.368-.027-.801-.036-1.125h.622l.036.685h.018c.144-.414.513-.757.918-.757.054 0 .099.01.144.01v.711c-.045-.009-.09-.009-.144-.009-.441 0-.765.404-.837.909a2.65 2.65 0 0 0-.027.396v2.413h-.693v-3.233zm4.789 1.054c0 1.684-.784 2.251-1.45 2.251-.783 0-1.414-.712-1.414-2.242 0-1.593.711-2.26 1.458-2.26.776 0 1.406.73 1.406 2.251zm-2.17 0c0 .721.126 1.701.756 1.701.594 0 .711-1.026.711-1.701 0-.666-.117-1.692-.729-1.692-.62 0-.738 1.026-.738 1.692zm2.944-4.051h.693v6.229h-.693v-6.229zm3.474 3.61v.54h-1.972v-.54h1.972zm.746-.378c0-.666-.027-1.053-.036-1.359h.622l.036.559h.018c.234-.469.576-.631.918-.631.756 0 1.26.811 1.26 2.242 0 1.611-.666 2.26-1.351 2.26-.405 0-.639-.262-.756-.505h-.018v2.161h-.693v-4.727zm.694 1.395c0 .135 0 .261.027.36.135.621.45.738.639.738.576 0 .756-.792.756-1.675 0-.9-.216-1.656-.765-1.656-.315 0-.594.396-.639.792-.018.108-.018.216-.018.333v1.108zm2.907-4.627h.693v6.229h-.693v-6.229zm3.438 6.23l-.045-.459h-.027c-.189.333-.495.531-.864.531-.585 0-1.036-.495-1.036-1.242 0-1.09.874-1.576 1.855-1.585v-.135c0-.585-.145-.99-.693-.99-.27 0-.513.09-.72.225l-.153-.486c.18-.135.585-.288 1.018-.288.873 0 1.251.576 1.251 1.558v1.882c0 .333 0 .711.045.99h-.631zm-.1-2.251c-.36 0-1.197.063-1.197 1.009 0 .567.288.774.531.774.306 0 .567-.226.648-.657.018-.081.018-.171.018-.243v-.883zm1.656-.982c0-.513-.027-.773-.036-1.125h.603l.036.522h.018c.189-.352.54-.595.999-.595.604 0 1.054.45 1.054 1.504v2.926h-.693v-2.809c0-.514-.099-1.035-.603-1.035-.288 0-.567.243-.657.711a2.445 2.445 0 0 0-.027.387v2.746h-.693v-3.232zm4.131 1.118c.009 1.332.531 1.62 1.036 1.62.297 0 .549-.072.72-.171l.108.513c-.243.136-.612.207-.955.207-1.044 0-1.584-.854-1.584-2.188 0-1.413.594-2.296 1.468-2.296.891 0 1.242.937 1.242 1.927 0 .162 0 .279-.009.388h-2.026zm1.369-.514c.018-.873-.315-1.261-.648-1.261-.45 0-.684.667-.711 1.261h1.359zm2.825-3.601h.693v6.229h-.693v-6.229zm3.438 6.23l-.045-.459h-.027c-.189.333-.495.531-.864.531-.585 0-1.036-.495-1.036-1.242 0-1.09.874-1.576 1.854-1.585v-.135c0-.585-.144-.99-.693-.99-.27 0-.513.09-.72.225l-.153-.486c.18-.135.585-.288 1.018-.288.873 0 1.251.576 1.251 1.558v1.882c0 .333 0 .711.045.99h-.63zm-.099-2.251c-.36 0-1.197.063-1.197 1.009 0 .567.288.774.531.774.306 0 .567-.226.648-.657.018-.081.018-.171.018-.243v-.883zm2.422-3.259v1.152h.837v.531h-.837v2.584c0 .567.207.72.459.72.108 0 .198-.009.279-.026l.027.531a1.522 1.522 0 0 1-.513.071c-.27 0-.513-.071-.684-.261-.171-.198-.261-.495-.261-1.099v-2.521h-.531v-.531h.531v-.954l.693-.197zm1.862 3.395c.009 1.332.531 1.62 1.036 1.62.297 0 .549-.072.72-.171l.108.513c-.243.136-.612.207-.955.207-1.044 0-1.584-.854-1.584-2.188 0-1.413.594-2.296 1.468-2.296.891 0 1.242.937 1.242 1.927 0 .162 0 .279-.009.388h-2.026zm1.369-.514c.018-.873-.315-1.261-.648-1.261-.45 0-.684.667-.711 1.261h1.359zm1.412-.604c0-.513-.027-.773-.036-1.125h.603l.036.522h.018c.189-.352.54-.595.999-.595.604 0 1.054.45 1.054 1.504v2.926h-.693v-2.809c0-.514-.099-1.035-.603-1.035-.288 0-.567.243-.657.711a2.445 2.445 0 0 0-.027.387v2.746h-.693v-3.232zm5.77 3.124c-.153.091-.414.162-.72.162-.955 0-1.594-.765-1.594-2.205 0-1.252.63-2.269 1.72-2.269.234 0 .486.062.612.135l-.135.567a1.13 1.13 0 0 0-.495-.117c-.693 0-1.008.828-1.008 1.684 0 1.017.387 1.629 1.026 1.629.189 0 .342-.045.504-.117l.09.531zm1.133-4.249l.576 2.503c.081.342.126.63.18.9h.018c.045-.243.117-.576.189-.892l.513-2.512h.684l-.711 2.8c-.271 1.099-.567 2.151-1.081 2.809-.306.388-.63.595-.783.667l-.252-.595c.198-.107.414-.297.612-.549.18-.226.324-.522.396-.729a.609.609 0 0 0 .045-.216c0-.054 0-.108-.018-.162l-1.098-4.024h.73zm5.733-1.872c-.513.81-.937 2.025-.937 3.664 0 1.611.423 2.826.937 3.646h-.541c-.468-.684-.99-1.891-.99-3.655.018-1.764.522-2.979.99-3.654h.541zm.765.252a3.952 3.952 0 0 1 1-.117c.603 0 1.053.126 1.368.432.297.307.423.712.423 1.188 0 .774-.36 1.278-.972 1.558v.019c.45.135.684.566.819 1.359.135.837.261 1.35.342 1.539h-.702c-.09-.18-.207-.756-.324-1.504-.135-.828-.396-1.143-.99-1.143h-.27v2.646h-.693v-5.977zm.693 2.8h.288c.666 0 1.107-.486 1.107-1.216 0-.702-.288-1.134-1.036-1.144-.135 0-.27.01-.36.036v2.324zm2.987-2.8a3.952 3.952 0 0 1 1-.117c.603 0 1.053.126 1.368.432.297.307.423.712.423 1.188 0 .774-.36 1.278-.972 1.558v.019c.45.135.684.566.819 1.359.135.837.261 1.35.342 1.539h-.702c-.09-.18-.207-.756-.324-1.504-.135-.828-.396-1.143-.99-1.143h-.27v2.646h-.693v-5.977zm.694 2.8h.288c.666 0 1.107-.486 1.107-1.216 0-.702-.288-1.134-1.036-1.144-.135 0-.27.01-.36.036v2.324zm5.634 3.069c-.189.1-.486.162-.864.162-1.188 0-2.035-.954-2.035-3.016 0-2.395 1.188-3.16 2.143-3.16.369 0 .63.072.756.153l-.153.585a1.339 1.339 0 0 0-.612-.126c-.648 0-1.405.63-1.405 2.485 0 1.854.685 2.466 1.423 2.466.261 0 .495-.062.639-.135l.108.586zm2.07-3.124c0-.513-.027-.773-.036-1.125h.603l.036.522h.018c.189-.352.54-.595.999-.595.604 0 1.054.45 1.054 1.504v2.926h-.693v-2.809c0-.514-.099-1.035-.603-1.035-.288 0-.567.243-.657.711a2.445 2.445 0 0 0-.027.387v2.746h-.693v-3.232zm4.131 1.118c.009 1.332.531 1.62 1.036 1.62.297 0 .549-.072.72-.171l.108.513c-.243.136-.612.207-.955.207-1.044 0-1.584-.854-1.584-2.188 0-1.413.594-2.296 1.468-2.296.891 0 1.242.937 1.242 1.927 0 .162 0 .279-.009.388h-2.026zm1.368-.514c.018-.873-.315-1.261-.648-1.261-.45 0-.684.667-.711 1.261h1.359zm4.077-1.729c-.009.307-.036.693-.036 1.359v2.439c0 1.144-.144 1.576-.432 1.891-.261.298-.675.469-1.161.469-.369 0-.729-.09-.954-.216l.162-.541c.171.091.459.189.811.189.549 0 .891-.342.891-1.332v-.441h-.018a.886.886 0 0 1-.837.531c-.774 0-1.279-.873-1.279-2.152 0-1.602.729-2.269 1.369-2.269.468 0 .684.307.81.567h.018l.036-.495h.62zm-.72 1.504a1.16 1.16 0 0 0-.036-.315c-.081-.297-.234-.666-.63-.666-.504 0-.774.675-.774 1.639 0 1.116.351 1.62.774 1.62.207 0 .477-.099.621-.621.036-.135.045-.271.045-.396v-1.261zm4.32.675c0 1.684-.784 2.251-1.45 2.251-.783 0-1.414-.712-1.414-2.242 0-1.593.711-2.26 1.458-2.26.776 0 1.406.73 1.406 2.251zm-2.17 0c0 .721.126 1.701.756 1.701.594 0 .711-1.026.711-1.701 0-.666-.117-1.692-.729-1.692-.621 0-.738 1.026-.738 1.692zm3.79-3.331v1.152h.837v.531h-.837v2.584c0 .567.207.72.459.72.108 0 .198-.009.279-.026l.027.531a1.522 1.522 0 0 1-.513.071c-.27 0-.513-.071-.684-.261-.171-.198-.261-.495-.261-1.099v-2.521h-.531v-.531h.531v-.954l.693-.197zm2.195.027c.009.27-.162.45-.423.45-.225 0-.396-.181-.396-.45 0-.271.18-.45.405-.45.252 0 .414.18.414.45zm-.747 5.483v-4.357h.693v4.357h-.693zm3.375 0l-.045-.459h-.027c-.189.333-.495.531-.864.531-.585 0-1.036-.495-1.036-1.242 0-1.09.874-1.576 1.855-1.585v-.135c0-.585-.145-.99-.693-.99-.27 0-.513.09-.72.225l-.153-.486c.18-.135.585-.288 1.018-.288.873 0 1.251.576 1.251 1.558v1.882c0 .333 0 .711.045.99h-.631zm-.099-2.251c-.36 0-1.197.063-1.197 1.009 0 .567.288.774.531.774.306 0 .567-.226.648-.657.018-.081.018-.171.018-.243v-.883zm2.422-3.259v1.152h.837v.531h-.837v2.584c0 .567.207.72.459.72.108 0 .198-.009.279-.026l.027.531a1.522 1.522 0 0 1-.513.071c-.27 0-.513-.071-.684-.261-.171-.198-.261-.495-.261-1.099v-2.521h-.531v-.531h.531v-.954l.693-.197zm2.195.027c.009.27-.162.45-.423.45-.225 0-.396-.181-.396-.45 0-.271.18-.45.405-.45.252 0 .414.18.414.45zm-.747 5.483v-4.357h.693v4.357h-.693zm4.33-2.179c0 1.684-.784 2.251-1.45 2.251-.783 0-1.414-.712-1.414-2.242 0-1.593.711-2.26 1.458-2.26.776 0 1.406.73 1.406 2.251zm-2.17 0c0 .721.126 1.701.756 1.701.594 0 .711-1.026.711-1.701 0-.666-.117-1.692-.729-1.692-.621 0-.738 1.026-.738 1.692zm2.943-1.054c0-.513-.027-.773-.036-1.125h.604l.035.522h.019c.189-.352.54-.595.999-.595.604 0 1.054.45 1.054 1.504v2.926h-.693v-2.809c0-.514-.099-1.035-.604-1.035-.288 0-.566.243-.657.711a2.454 2.454 0 0 0-.026.387v2.746h-.693v-3.232zm3.609-.504c0-.297.198-.513.45-.513.279 0 .45.207.45.513 0 .297-.162.504-.45.504-.26 0-.45-.207-.45-.504zm0 3.304c0-.297.198-.513.45-.513.279 0 .45.207.45.513 0 .298-.162.505-.45.505-.26 0-.45-.207-.45-.505zm3.302-2.178l4.178-2.179v.603l-3.493 1.783v.018l3.493 1.792v.594l-4.178-2.179v-.432zm7.876-2.539h-.018l-.973.558-.135-.54 1.233-.72h.576v5.852h-.685v-5.15zm4.995 2.215c0 2.134-.675 3.007-1.521 3.007-.909 0-1.458-1.081-1.458-2.989 0-1.972.585-3.007 1.539-3.007.945 0 1.44 1.125 1.44 2.989zm-2.286.009c0 1.413.243 2.403.819 2.403.549 0 .773-.999.773-2.403 0-1.368-.225-2.403-.783-2.403-.557 0-.809.999-.809 2.403zm5.751-.009c0 2.134-.675 3.007-1.521 3.007-.909 0-1.458-1.081-1.458-2.989 0-1.972.585-3.007 1.539-3.007.945 0 1.44 1.125 1.44 2.989zm-2.286.009c0 1.413.243 2.403.819 2.403.549 0 .773-.999.773-2.403 0-1.368-.225-2.403-.783-2.403-.557 0-.809.999-.809 2.403zm4.428-.307c0-.513-.027-.773-.036-1.125h.604l.035.54h.019c.189-.351.522-.612.981-.612.405 0 .747.198.909.667h.018c.117-.217.271-.388.433-.495.171-.117.378-.172.603-.172.586 0 1.045.433 1.045 1.54v2.89h-.685v-2.728c0-.567-.081-1.116-.612-1.116-.288 0-.54.243-.639.647a2.524 2.524 0 0 0-.027.396v2.8h-.684v-2.854c0-.486-.091-.99-.604-.99-.279 0-.567.243-.648.702a2.49 2.49 0 0 0-.027.378v2.764h-.684v-3.232zm5.462 2.513c.153.099.423.225.702.225.396 0 .64-.243.64-.63 0-.333-.117-.559-.559-.855-.567-.369-.873-.738-.873-1.242 0-.702.521-1.207 1.197-1.207.342 0 .604.117.783.226l-.189.522a1.024 1.024 0 0 0-.576-.189.533.533 0 0 0-.566.549c0 .298.107.459.54.757.504.324.9.72.9 1.323 0 .873-.595 1.296-1.306 1.296-.324 0-.676-.099-.864-.252l.171-.523zm2.456 1.8c.514-.81.937-2.043.937-3.664 0-1.62-.423-2.836-.937-3.646h.541c.468.666.99 1.863.99 3.646-.019 1.783-.522 2.971-.99 3.664h-.541zM54.552 196.03c0 .486.027.864.036 1.188h-.603l-.045-.459h-.018c-.135.216-.468.531-.937.531-.765 0-1.062-.595-1.062-1.675v-2.755h.693v2.656c0 .684.108 1.188.585 1.188.405 0 .585-.379.621-.576.027-.117.036-.253.036-.396v-2.872h.693v3.17zm.854.469c.153.099.423.225.702.225.396 0 .639-.243.639-.63 0-.333-.117-.559-.558-.855-.567-.369-.873-.738-.873-1.242 0-.702.522-1.207 1.197-1.207.342 0 .603.117.783.226l-.189.522a1.024 1.024 0 0 0-.576-.189.534.534 0 0 0-.567.549c0 .298.108.459.54.757.504.324.9.72.9 1.323 0 .873-.594 1.296-1.305 1.296-.324 0-.675-.099-.864-.252l.171-.523zm3.203-1.395c.009 1.332.531 1.62 1.036 1.62.297 0 .549-.072.72-.171l.108.513c-.243.136-.612.207-.955.207-1.044 0-1.584-.854-1.584-2.188 0-1.413.594-2.296 1.468-2.296.891 0 1.242.937 1.242 1.927 0 .162 0 .279-.009.388h-2.026zm1.369-.514c.018-.873-.315-1.261-.648-1.261-.45 0-.684.667-.711 1.261h1.359zm1.403-.604c0-.368-.027-.801-.036-1.125h.622l.036.685h.018c.144-.414.513-.757.918-.757.054 0 .099.01.144.01v.711c-.045-.009-.09-.009-.144-.009-.441 0-.765.404-.837.909a2.65 2.65 0 0 0-.027.396v2.413h-.693v-3.233zm3.997.613v.54h-1.972v-.54h1.972zm.746-.378c0-.666-.027-1.053-.036-1.359h.622l.036.559h.018c.234-.469.576-.631.918-.631.756 0 1.26.811 1.26 2.242 0 1.611-.666 2.26-1.35 2.26-.405 0-.64-.262-.756-.505h-.018v2.161h-.693v-4.727zm.693 1.395c0 .135 0 .261.027.36.135.621.45.738.639.738.576 0 .756-.792.756-1.675 0-.9-.216-1.656-.765-1.656-.315 0-.594.396-.639.792-.018.108-.018.216-.018.333v1.108zm2.907-4.627h.693v6.229h-.693v-6.229zm3.439 6.23l-.045-.459h-.027c-.189.333-.495.531-.864.531-.585 0-1.036-.495-1.036-1.242 0-1.09.874-1.576 1.855-1.585v-.135c0-.585-.145-.99-.693-.99-.27 0-.513.09-.72.225l-.153-.486c.18-.135.585-.288 1.018-.288.873 0 1.251.576 1.251 1.558v1.882c0 .333 0 .711.045.99h-.631zm-.099-2.251c-.36 0-1.197.063-1.197 1.009 0 .567.288.774.531.774.306 0 .567-.226.648-.657.018-.081.018-.171.018-.243v-.883zm1.655-.982c0-.513-.027-.773-.036-1.125h.603l.036.522h.018c.189-.352.54-.595.999-.595.604 0 1.054.45 1.054 1.504v2.926H76.7v-2.809c0-.514-.099-1.035-.603-1.035-.288 0-.567.243-.657.711a2.445 2.445 0 0 0-.027.387v2.746h-.693v-3.232zm4.131 1.118c.009 1.332.531 1.62 1.036 1.62.297 0 .549-.072.72-.171l.108.513c-.243.136-.612.207-.955.207-1.044 0-1.584-.854-1.584-2.188 0-1.413.594-2.296 1.468-2.296.891 0 1.242.937 1.242 1.927 0 .162 0 .279-.009.388H78.85zm1.369-.514c.018-.873-.315-1.261-.648-1.261-.45 0-.684.667-.711 1.261h1.359zm5.499.45c0 1.684-.783 2.251-1.45 2.251-.783 0-1.414-.712-1.414-2.242 0-1.593.711-2.26 1.458-2.26.775 0 1.406.73 1.406 2.251zm-2.17 0c0 .721.126 1.701.756 1.701.594 0 .711-1.026.711-1.701 0-.666-.117-1.692-.729-1.692-.621 0-.738 1.026-.738 1.692zm2.943-1.054c0-.513-.027-.773-.036-1.125h.603l.036.522h.018c.189-.352.54-.595.999-.595.604 0 1.054.45 1.054 1.504v2.926h-.693v-2.809c0-.514-.099-1.035-.603-1.035-.288 0-.567.243-.657.711a2.445 2.445 0 0 0-.027.387v2.746h-.693v-3.232zm4.131 1.118c.009 1.332.531 1.62 1.036 1.62.297 0 .549-.072.72-.171l.108.513c-.243.136-.612.207-.955.207-1.044 0-1.584-.854-1.584-2.188 0-1.413.594-2.296 1.468-2.296.891 0 1.242.937 1.242 1.927 0 .162 0 .279-.009.388h-2.026zm1.369-.514c.018-.873-.315-1.261-.648-1.261-.45 0-.684.667-.711 1.261h1.359zm3.329.009v.54h-1.972v-.54h1.972zm1.107-1.738l.423 2.134c.081.468.18.937.234 1.387h.036c.063-.45.171-.955.27-1.369l.504-2.151h.531l.477 2.089c.108.486.207.945.279 1.432h.036c.054-.459.135-.909.234-1.404l.414-2.116h.693l-1.098 4.357h-.567l-.504-2.115a12.152 12.152 0 0 1-.243-1.306h-.018c-.072.513-.153.918-.252 1.332l-.522 2.089h-.585l-1.062-4.357h.72zm6.381 4.358l-.045-.459h-.027c-.189.333-.495.531-.864.531-.585 0-1.036-.495-1.036-1.242 0-1.09.874-1.576 1.855-1.585v-.135c0-.585-.145-.99-.693-.99-.27 0-.513.09-.72.225l-.153-.486c.18-.135.585-.288 1.018-.288.873 0 1.251.576 1.251 1.558v1.882c0 .333 0 .711.045.99h-.631zm-.099-2.251c-.36 0-1.197.063-1.197 1.009 0 .567.288.774.531.774.306 0 .567-.226.648-.657.018-.081.018-.171.018-.243v-.883zm1.926-2.107l.576 2.503c.081.342.126.63.18.9h.018c.045-.243.117-.576.189-.892l.513-2.512h.684l-.711 2.8c-.271 1.099-.567 2.151-1.081 2.809-.306.388-.63.595-.783.667l-.252-.595c.198-.107.414-.297.612-.549.18-.226.324-.522.396-.729a.609.609 0 0 0 .045-.216c0-.054 0-.108-.018-.162l-1.098-4.024h.73zm4.167-1.872h.693v6.229h-.693v-6.229zm3.438 6.23l-.045-.459h-.027c-.189.333-.495.531-.864.531-.585 0-1.036-.495-1.036-1.242 0-1.09.874-1.576 1.854-1.585v-.135c0-.585-.144-.99-.693-.99-.27 0-.513.09-.72.225l-.153-.486c.18-.135.585-.288 1.018-.288.873 0 1.251.576 1.251 1.558v1.882c0 .333 0 .711.045.99h-.63zm-.099-2.251c-.36 0-1.197.063-1.197 1.009 0 .567.288.774.531.774.306 0 .567-.226.648-.657.018-.081.018-.171.018-.243v-.883zm2.421-3.259v1.152h.837v.531h-.837v2.584c0 .567.207.72.459.72.108 0 .198-.009.279-.026l.027.531a1.522 1.522 0 0 1-.513.071c-.27 0-.513-.071-.684-.261-.171-.198-.261-.495-.261-1.099v-2.521h-.531v-.531h.531v-.954l.693-.197zm1.863 3.395c.009 1.332.531 1.62 1.036 1.62.297 0 .549-.072.72-.171l.108.513c-.243.136-.612.207-.955.207-1.044 0-1.584-.854-1.584-2.188 0-1.413.594-2.296 1.468-2.296.891 0 1.242.937 1.242 1.927 0 .162 0 .279-.009.388h-2.026zm1.368-.514c.018-.873-.315-1.261-.648-1.261-.45 0-.684.667-.711 1.261h1.359zm1.413-.604c0-.513-.027-.773-.036-1.125h.603l.036.522h.018c.189-.352.54-.595.999-.595.604 0 1.054.45 1.054 1.504v2.926h-.693v-2.809c0-.514-.099-1.035-.603-1.035-.288 0-.567.243-.657.711a2.445 2.445 0 0 0-.027.387v2.746h-.693v-3.232zm5.769 3.124c-.153.091-.414.162-.72.162-.954 0-1.594-.765-1.594-2.205 0-1.252.63-2.269 1.72-2.269.234 0 .486.062.612.135l-.135.567a1.13 1.13 0 0 0-.495-.117c-.693 0-1.008.828-1.008 1.684 0 1.017.387 1.629 1.026 1.629.189 0 .342-.045.504-.117l.09.531zm1.133-4.249l.576 2.503c.081.342.126.63.18.9h.018c.045-.243.117-.576.189-.892l.513-2.512h.684l-.711 2.8c-.271 1.099-.567 2.151-1.081 2.809-.306.388-.63.595-.783.667l-.252-.595c.198-.107.414-.297.612-.549.18-.226.324-.522.396-.729a.609.609 0 0 0 .045-.216c0-.054 0-.108-.018-.162l-1.098-4.024h.73zm5.734-1.872c-.513.81-.937 2.025-.937 3.664 0 1.611.423 2.826.937 3.646h-.54c-.468-.684-.991-1.891-.991-3.655.018-1.764.522-2.979.991-3.654h.54zm3.24 0v5.186c0 .297.027.792.036 1.044h-.594l-.045-.549h-.027c-.144.314-.45.621-.909.621-.738 0-1.27-.802-1.27-2.233 0-1.548.639-2.269 1.314-2.269.315 0 .622.153.792.522h.018v-2.322h.685zm-.684 3.529c0-.09 0-.188-.009-.288-.045-.45-.315-.846-.648-.846-.576 0-.774.801-.774 1.674 0 .919.234 1.657.738 1.657.216 0 .513-.117.666-.747a1.37 1.37 0 0 0 .027-.288v-1.162zm2.141.586c.009 1.332.531 1.62 1.036 1.62.297 0 .549-.072.72-.171l.108.513c-.243.136-.612.207-.955.207-1.044 0-1.584-.854-1.584-2.188 0-1.413.594-2.296 1.468-2.296.891 0 1.242.937 1.242 1.927 0 .162 0 .279-.009.388h-2.026zm1.369-.514c.018-.873-.315-1.261-.648-1.261-.45 0-.684.667-.711 1.261h1.359zm1.763-1.729l.549 2.449c.063.297.135.684.189 1.062h.027c.045-.359.117-.729.18-1.062l.54-2.449h.684l-1.134 4.357h-.621l-1.134-4.357h.72zm3.519-1.125c.009.27-.162.45-.423.45-.225 0-.396-.181-.396-.45 0-.271.18-.45.405-.45.252 0 .414.18.414.45zm-.747 5.483v-4.357h.693v4.357h-.693zm3.781-.109c-.153.091-.414.162-.72.162-.955 0-1.594-.765-1.594-2.205 0-1.252.63-2.269 1.72-2.269.234 0 .486.062.612.135l-.135.567a1.13 1.13 0 0 0-.495-.117c-.693 0-1.008.828-1.008 1.684 0 1.017.387 1.629 1.026 1.629.189 0 .342-.045.504-.117l.09.531zm1.025-2.006c.009 1.332.531 1.62 1.036 1.62.297 0 .549-.072.72-.171l.108.513c-.243.136-.612.207-.955.207-1.044 0-1.584-.854-1.584-2.188 0-1.413.594-2.296 1.468-2.296.891 0 1.242.937 1.242 1.927 0 .162 0 .279-.009.388h-2.026zm1.369-.514c.018-.873-.315-1.261-.648-1.261-.45 0-.684.667-.711 1.261h1.359zm3.671-2.881v1.152h.837v.531h-.837v2.584c0 .567.207.72.459.72.108 0 .198-.009.279-.026l.027.531a1.522 1.522 0 0 1-.513.071c-.27 0-.513-.071-.684-.261-.171-.198-.261-.495-.261-1.099v-2.521h-.531v-.531h.531v-.954l.693-.197zm4.051 3.331c0 1.684-.783 2.251-1.449 2.251-.784 0-1.414-.712-1.414-2.242 0-1.593.711-2.26 1.459-2.26.773 0 1.404.73 1.404 2.251zm-2.17 0c0 .721.126 1.701.756 1.701.595 0 .712-1.026.712-1.701 0-.666-.117-1.692-.729-1.692-.622 0-.739 1.026-.739 1.692zm5.201-3.331v1.152h.838v.531h-.838v2.584c0 .567.207.72.46.72.107 0 .197-.009.278-.026l.027.531a1.522 1.522 0 0 1-.513.071c-.271 0-.514-.071-.685-.261-.171-.198-.261-.495-.261-1.099v-2.521h-.531v-.531h.531v-.954l.694-.197zm4.052 3.331c0 1.684-.783 2.251-1.449 2.251-.783 0-1.414-.712-1.414-2.242 0-1.593.711-2.26 1.459-2.26.773 0 1.404.73 1.404 2.251zm-2.17 0c0 .721.126 1.701.756 1.701.595 0 .712-1.026.712-1.701 0-.666-.117-1.692-.729-1.692-.622 0-.739 1.026-.739 1.692zm3.23-2.179l.424 2.134c.081.468.18.937.233 1.387h.036c.063-.45.171-.955.271-1.369l.504-2.151h.531l.478 2.089c.107.486.207.945.278 1.432h.036c.054-.459.135-.909.234-1.404l.414-2.116h.693l-1.099 4.357h-.567l-.504-2.115a12.152 12.152 0 0 1-.243-1.306h-.018c-.072.513-.153.918-.252 1.332l-.522 2.089h-.585l-1.062-4.357h.72zm5.113 2.243c.009 1.332.531 1.62 1.035 1.62.297 0 .549-.072.72-.171l.108.513c-.243.136-.612.207-.954.207-1.045 0-1.585-.854-1.585-2.188 0-1.413.595-2.296 1.468-2.296.892 0 1.242.937 1.242 1.927 0 .162 0 .279-.009.388h-2.025zm1.368-.514c.018-.873-.315-1.261-.648-1.261-.45 0-.684.667-.711 1.261h1.359zm1.404-.604c0-.368-.027-.801-.036-1.125h.621l.036.685h.018c.145-.414.514-.757.918-.757.055 0 .1.01.145.01v.711c-.045-.009-.09-.009-.145-.009-.44 0-.765.404-.837.909a2.65 2.65 0 0 0-.027.396v2.413h-.692v-3.233zm2.204-.504c0-.297.198-.513.45-.513.279 0 .45.207.45.513 0 .297-.162.504-.45.504-.26 0-.45-.207-.45-.504zm0 3.304c0-.297.198-.513.45-.513.279 0 .45.207.45.513 0 .298-.162.505-.45.505-.26 0-.45-.207-.45-.505zm3.303-2.178l4.178-2.179v.603l-3.493 1.783v.018l3.493 1.792v.594l-4.178-2.179v-.432zm9.181-2.629h-1.575l-.243 1.558c.071-.019.135-.019.216-.019.315 0 .801.135 1.116.441.306.306.486.738.486 1.332 0 1.161-.729 1.999-1.773 1.999-.352 0-.757-.1-.99-.252l.152-.559c.181.108.495.234.819.234.595 0 1.107-.459 1.107-1.351 0-.928-.567-1.314-1.323-1.314-.216 0-.351.009-.459.027l.369-2.71h2.098v.614zm2.366 2.007c0-.513-.027-.773-.036-1.125h.604l.035.54h.019c.188-.351.522-.612.981-.612.405 0 .747.198.909.667h.018c.117-.217.271-.388.433-.495.171-.117.378-.172.603-.172.586 0 1.045.433 1.045 1.54v2.89h-.685v-2.728c0-.567-.081-1.116-.612-1.116-.288 0-.54.243-.639.647a2.524 2.524 0 0 0-.027.396v2.8h-.685v-2.854c0-.486-.09-.99-.603-.99-.279 0-.567.243-.648.702a2.49 2.49 0 0 0-.027.378v2.764h-.684v-3.232zm5.463 2.513c.153.099.423.225.702.225.396 0 .64-.243.64-.63 0-.333-.117-.559-.559-.855-.567-.369-.873-.738-.873-1.242 0-.702.521-1.207 1.197-1.207.342 0 .604.117.783.226l-.189.522a1.024 1.024 0 0 0-.576-.189.533.533 0 0 0-.566.549c0 .298.107.459.54.757.504.324.9.72.9 1.323 0 .873-.595 1.296-1.306 1.296-.324 0-.676-.099-.864-.252l.171-.523zm2.457 1.8c.514-.81.937-2.043.937-3.664 0-1.62-.423-2.836-.937-3.646h.541c.468.666.99 1.863.99 3.646-.019 1.783-.522 2.971-.99 3.664h-.541zm-145.446 18.92c.009-.252.036-.747.036-1.044v-5.186h.693v2.386h.018c.225-.433.549-.586.918-.586.675 0 1.188.783 1.188 2.206 0 1.575-.648 2.296-1.323 2.296-.459 0-.693-.271-.864-.64h-.027l-.045.567h-.594zm.729-1.539c0 .099 0 .197.027.27.162.648.459.766.648.766.558 0 .756-.757.756-1.684 0-.873-.207-1.647-.765-1.647-.324 0-.594.405-.648.774-.018.099-.018.207-.018.306v1.215zm4.626 1.539l-.045-.459h-.027c-.189.333-.495.531-.864.531-.585 0-1.036-.495-1.036-1.242 0-1.09.874-1.576 1.854-1.585v-.135c0-.585-.144-.99-.693-.99-.27 0-.513.09-.72.225l-.153-.486c.18-.135.585-.288 1.018-.288.873 0 1.251.576 1.251 1.558v1.882c0 .333 0 .711.045.99h-.63zm-.099-2.251c-.36 0-1.197.063-1.197 1.009 0 .567.288.774.531.774.306 0 .567-.226.648-.657.018-.081.018-.171.018-.243v-.883zm3.78 2.142c-.153.091-.414.162-.72.162-.954 0-1.594-.765-1.594-2.205 0-1.252.63-2.269 1.72-2.269.234 0 .486.062.612.135l-.135.567a1.13 1.13 0 0 0-.495-.117c-.693 0-1.008.828-1.008 1.684 0 1.017.387 1.629 1.026 1.629.189 0 .342-.045.504-.117l.09.531zm1.278-2.223h.018c.081-.171.153-.342.234-.485l.864-1.54h.747l-1.152 1.837 1.251 2.521h-.774l-.945-2.053-.243.405v1.647h-.693v-6.229h.693v3.897zm2.456 2.332c.009-.252.036-.747.036-1.044v-5.186h.693v2.386h.018c.225-.433.549-.586.918-.586.675 0 1.188.783 1.188 2.206 0 1.575-.648 2.296-1.323 2.296-.459 0-.693-.271-.864-.64h-.027l-.045.567h-.594zm.73-1.539c0 .099 0 .197.027.27.162.648.459.766.648.766.558 0 .756-.757.756-1.684 0-.873-.207-1.647-.765-1.647-.324 0-.594.405-.648.774-.018.099-.018.207-.018.306v1.215zm5.58-.64c0 1.684-.784 2.251-1.45 2.251-.783 0-1.414-.712-1.414-2.242 0-1.593.711-2.26 1.458-2.26.776 0 1.406.73 1.406 2.251zm-2.17 0c0 .721.126 1.701.756 1.701.594 0 .711-1.026.711-1.701 0-.666-.117-1.692-.729-1.692-.621 0-.738 1.026-.738 1.692zm2.944-1.054c0-.513-.027-.773-.036-1.125h.603l.036.522h.018c.189-.352.54-.595.999-.595.604 0 1.054.45 1.054 1.504v2.926h-.694v-2.809c0-.514-.099-1.035-.603-1.035-.288 0-.567.243-.657.711a2.445 2.445 0 0 0-.027.387v2.746h-.693v-3.232zm4.13 1.118c.009 1.332.531 1.62 1.036 1.62.297 0 .549-.072.72-.171l.108.513c-.243.136-.612.207-.955.207-1.044 0-1.584-.854-1.584-2.188 0-1.413.594-2.296 1.468-2.296.891 0 1.242.937 1.242 1.927 0 .162 0 .279-.009.388H75.88zm1.369-.514c.018-.873-.315-1.261-.648-1.261-.45 0-.684.667-.711 1.261h1.359zm4.544 2.629l-.045-.459h-.027c-.189.333-.495.531-.864.531-.585 0-1.036-.495-1.036-1.242 0-1.09.874-1.576 1.855-1.585v-.135c0-.585-.145-.99-.693-.99-.27 0-.513.09-.72.225l-.153-.486c.18-.135.585-.288 1.018-.288.873 0 1.251.576 1.251 1.558v1.882c0 .333 0 .711.045.99h-.631zm-.099-2.251c-.36 0-1.197.063-1.197 1.009 0 .567.288.774.531.774.306 0 .567-.226.648-.657.018-.081.018-.171.018-.243v-.883zm1.656-.982c0-.513-.027-.773-.036-1.125h.603l.036.522h.018c.189-.352.54-.595.999-.595.604 0 1.054.45 1.054 1.504v2.926h-.693v-2.809c0-.514-.099-1.035-.603-1.035-.288 0-.567.243-.657.711a2.445 2.445 0 0 0-.027.387v2.746h-.694v-3.232zm6.265-2.997v5.186c0 .297.027.792.036 1.044h-.594l-.045-.549h-.027c-.144.314-.45.621-.909.621-.738 0-1.27-.802-1.27-2.233 0-1.548.64-2.269 1.314-2.269.315 0 .621.153.792.522h.018v-2.322h.685zm-.684 3.529c0-.09 0-.188-.009-.288-.045-.45-.315-.846-.648-.846-.576 0-.774.801-.774 1.674 0 .919.234 1.657.738 1.657.216 0 .513-.117.666-.747a1.37 1.37 0 0 0 .027-.288v-1.162zm5.193 2.592c-.153.091-.414.162-.72.162-.954 0-1.594-.765-1.594-2.205 0-1.252.63-2.269 1.72-2.269.234 0 .486.062.612.135l-.135.567a1.13 1.13 0 0 0-.495-.117c-.693 0-1.008.828-1.008 1.684 0 1.017.387 1.629 1.026 1.629.189 0 .342-.045.504-.117l.09.531zm3.213-2.07c0 1.684-.783 2.251-1.45 2.251-.783 0-1.414-.712-1.414-2.242 0-1.593.711-2.26 1.458-2.26.776 0 1.406.73 1.406 2.251zm-2.17 0c0 .721.126 1.701.756 1.701.594 0 .711-1.026.711-1.701 0-.666-.117-1.692-.729-1.692-.621 0-.738 1.026-.738 1.692zm2.934-1.054c0-.368-.027-.801-.036-1.125h.622l.036.685h.018c.144-.414.513-.757.918-.757.054 0 .099.01.144.01v.711c-.045-.009-.09-.009-.144-.009-.441 0-.765.404-.837.909a2.65 2.65 0 0 0-.027.396v2.413h-.693v-3.233zm2.601 1.118c.009 1.332.531 1.62 1.036 1.62.297 0 .549-.072.72-.171l.108.513c-.243.136-.612.207-.955.207-1.044 0-1.584-.854-1.584-2.188 0-1.413.594-2.296 1.468-2.296.891 0 1.242.937 1.242 1.927 0 .162 0 .279-.009.388h-2.026zm1.368-.514c.018-.873-.315-1.261-.648-1.261-.45 0-.684.667-.711 1.261h1.359zm2.826-.604c0-.513-.027-.773-.036-1.125h.603l.036.522h.018c.189-.352.54-.595.999-.595.604 0 1.054.45 1.054 1.504v2.926h-.693v-2.809c0-.514-.099-1.035-.603-1.035-.288 0-.567.243-.657.711a2.445 2.445 0 0 0-.027.387v2.746h-.693v-3.232zm4.131 1.118c.009 1.332.531 1.62 1.036 1.62.297 0 .549-.072.72-.171l.108.513c-.243.136-.612.207-.955.207-1.044 0-1.584-.854-1.584-2.188 0-1.413.594-2.296 1.468-2.296.891 0 1.242.937 1.242 1.927 0 .162 0 .279-.009.388h-2.026zm1.369-.514c.018-.873-.315-1.261-.648-1.261-.45 0-.684.667-.711 1.261h1.359zm2.258-2.881v1.152h.837v.531h-.837v2.584c0 .567.207.72.459.72.108 0 .198-.009.279-.026l.027.531a1.522 1.522 0 0 1-.513.071c-.27 0-.513-.071-.684-.261-.171-.198-.261-.495-.261-1.099v-2.521h-.531v-.531h.531v-.954l.693-.197zm1.889 1.152l.423 2.134c.081.468.18.937.234 1.387h.036c.063-.45.171-.955.271-1.369l.504-2.151h.531l.477 2.089c.108.486.207.945.279 1.432h.036c.054-.459.135-.909.234-1.404l.414-2.116h.693l-1.099 4.357h-.567l-.504-2.115a12.152 12.152 0 0 1-.243-1.306h-.018c-.072.513-.153.918-.252 1.332l-.522 2.089h-.585l-1.062-4.357h.72zm7.301 2.179c0 1.684-.783 2.251-1.45 2.251-.783 0-1.414-.712-1.414-2.242 0-1.593.711-2.26 1.458-2.26.775 0 1.406.73 1.406 2.251zm-2.17 0c0 .721.126 1.701.756 1.701.594 0 .711-1.026.711-1.701 0-.666-.117-1.692-.729-1.692-.621 0-.738 1.026-.738 1.692zm2.933-1.054c0-.368-.027-.801-.036-1.125h.622l.036.685h.018c.144-.414.513-.757.918-.757.054 0 .099.01.144.01v.711c-.045-.009-.09-.009-.144-.009-.441 0-.765.404-.837.909a2.65 2.65 0 0 0-.027.396v2.413h-.693v-3.233zm2.926.901h.018c.081-.171.153-.342.234-.485l.864-1.54h.747l-1.152 1.837 1.251 2.521h-.774l-.945-2.053-.243.405v1.647h-.693v-6.229h.693v3.897zm3.914-3.898h.693v6.229h-.693v-6.229zm3.439 6.23l-.045-.459h-.027c-.189.333-.495.531-.864.531-.585 0-1.036-.495-1.036-1.242 0-1.09.874-1.576 1.854-1.585v-.135c0-.585-.144-.99-.693-.99-.27 0-.513.09-.72.225l-.153-.486c.18-.135.585-.288 1.018-.288.873 0 1.251.576 1.251 1.558v1.882c0 .333 0 .711.045.99h-.63zm-.099-2.251c-.36 0-1.197.063-1.197 1.009 0 .567.288.774.531.774.306 0 .567-.226.648-.657.018-.081.018-.171.018-.243v-.883zm2.421-3.259v1.152h.837v.531h-.837v2.584c0 .567.207.72.459.72.108 0 .198-.009.279-.026l.027.531a1.522 1.522 0 0 1-.513.071c-.27 0-.513-.071-.684-.261-.171-.198-.261-.495-.261-1.099v-2.521h-.531v-.531h.531v-.954l.693-.197zm1.862 3.395c.009 1.332.531 1.62 1.036 1.62.297 0 .549-.072.72-.171l.108.513c-.243.136-.612.207-.955.207-1.044 0-1.584-.854-1.584-2.188 0-1.413.594-2.296 1.468-2.296.891 0 1.242.937 1.242 1.927 0 .162 0 .279-.009.388h-2.026zm1.369-.514c.018-.873-.315-1.261-.648-1.261-.45 0-.684.667-.711 1.261h1.359zm1.413-.604c0-.513-.027-.773-.036-1.125h.603l.036.522h.018c.189-.352.54-.595.999-.595.604 0 1.054.45 1.054 1.504v2.926h-.693v-2.809c0-.514-.099-1.035-.603-1.035-.288 0-.567.243-.657.711a2.445 2.445 0 0 0-.027.387v2.746h-.693v-3.232zm5.769 3.124c-.153.091-.414.162-.72.162-.954 0-1.594-.765-1.594-2.205 0-1.252.63-2.269 1.72-2.269.234 0 .486.062.612.135l-.135.567a1.13 1.13 0 0 0-.495-.117c-.693 0-1.008.828-1.008 1.684 0 1.017.387 1.629 1.026 1.629.189 0 .342-.045.504-.117l.09.531zm1.133-4.249l.576 2.503c.081.342.126.63.18.9h.018c.045-.243.117-.576.189-.892l.513-2.512h.684l-.711 2.8c-.271 1.099-.567 2.151-1.081 2.809-.306.388-.63.595-.783.667l-.252-.595c.198-.107.414-.297.612-.549.18-.226.324-.522.396-.729a.609.609 0 0 0 .045-.216c0-.054 0-.108-.018-.162l-1.098-4.024h.73zm5.733-1.872c-.513.81-.937 2.025-.937 3.664 0 1.611.423 2.826.937 3.646h-.54c-.468-.684-.991-1.891-.991-3.655.018-1.764.522-2.979.991-3.654h.54zm1.062 1.872l.549 2.449c.063.297.135.684.189 1.062h.027c.045-.359.117-.729.18-1.062l.54-2.449h.685l-1.135 4.357h-.621l-1.134-4.357h.72zm4.411 4.358l-.045-.459h-.027c-.189.333-.495.531-.864.531-.585 0-1.035-.495-1.035-1.242 0-1.09.873-1.576 1.854-1.585v-.135c0-.585-.145-.99-.693-.99-.271 0-.514.09-.721.225l-.152-.486c.18-.135.585-.288 1.017-.288.874 0 1.252.576 1.252 1.558v1.882c0 .333 0 .711.045.99h-.631zm-.1-2.251c-.36 0-1.197.063-1.197 1.009 0 .567.288.774.531.774.306 0 .567-.226.648-.657.018-.081.018-.171.018-.243v-.883zm1.647-.982c0-.368-.027-.801-.036-1.125h.621l.036.685h.018c.145-.414.514-.757.918-.757.055 0 .1.01.145.01v.711c-.045-.009-.09-.009-.145-.009-.44 0-.765.404-.837.909a2.65 2.65 0 0 0-.027.396v2.413h-.692v-3.233zm2.988-2.25c.009.27-.162.45-.423.45-.226 0-.396-.181-.396-.45 0-.271.18-.45.405-.45.252 0 .414.18.414.45zm-.747 5.483v-4.357h.693v4.357h-.693zm3.375 0l-.046-.459h-.026c-.189.333-.495.531-.864.531-.585 0-1.035-.495-1.035-1.242 0-1.09.873-1.576 1.854-1.585v-.135c0-.585-.145-.99-.693-.99-.271 0-.514.09-.721.225l-.152-.486c.18-.135.585-.288 1.017-.288.874 0 1.252.576 1.252 1.558v1.882c0 .333 0 .711.045.99h-.631zm-.1-2.251c-.36 0-1.197.063-1.197 1.009 0 .567.288.774.531.774.306 0 .567-.226.648-.657.018-.081.018-.171.018-.243v-.883zm1.612 2.251c.009-.252.036-.747.036-1.044v-5.186h.692v2.386h.019c.225-.433.549-.586.918-.586.676 0 1.188.783 1.188 2.206 0 1.575-.648 2.296-1.323 2.296-.459 0-.693-.271-.864-.64h-.027l-.045.567h-.594zm.728-1.539c0 .099 0 .197.027.27.162.648.459.766.648.766.558 0 .756-.757.756-1.684 0-.873-.207-1.647-.765-1.647-.324 0-.595.405-.648.774-.019.099-.019.207-.019.306v1.215zm2.908-4.691h.693v6.229h-.693v-6.229zm2.205 4.115c.009 1.332.531 1.62 1.035 1.62.297 0 .549-.072.72-.171l.108.513c-.243.136-.612.207-.954.207-1.045 0-1.585-.854-1.585-2.188 0-1.413.595-2.296 1.468-2.296.892 0 1.242.937 1.242 1.927 0 .162 0 .279-.009.388h-2.025zm1.368-.514c.018-.873-.315-1.261-.648-1.261-.45 0-.685.667-.711 1.261h1.359zm2.825-3.601h.693v6.229h-.693v-6.229zm3.439 6.23l-.045-.459h-.027c-.189.333-.495.531-.864.531-.585 0-1.035-.495-1.035-1.242 0-1.09.873-1.576 1.854-1.585v-.135c0-.585-.145-.99-.693-.99-.271 0-.514.09-.721.225l-.152-.486c.18-.135.585-.288 1.017-.288.874 0 1.252.576 1.252 1.558v1.882c0 .333 0 .711.045.99h-.631zm-.099-2.251c-.36 0-1.197.063-1.197 1.009 0 .567.288.774.531.774.306 0 .567-.226.648-.657.018-.081.018-.171.018-.243v-.883zm2.42-3.259v1.152h.838v.531h-.838v2.584c0 .567.207.72.46.72.107 0 .197-.009.278-.026l.027.531a1.524 1.524 0 0 1-.514.071c-.27 0-.513-.071-.684-.261-.171-.198-.261-.495-.261-1.099v-2.521h-.531v-.531h.531v-.954l.694-.197zm1.864 3.395c.009 1.332.531 1.62 1.035 1.62.297 0 .549-.072.72-.171l.108.513c-.243.136-.612.207-.954.207-1.045 0-1.585-.854-1.585-2.188 0-1.413.595-2.296 1.468-2.296.892 0 1.242.937 1.242 1.927 0 .162 0 .279-.009.388h-2.025zm1.368-.514c.018-.873-.315-1.261-.648-1.261-.45 0-.684.667-.711 1.261h1.359zm1.412-.604c0-.513-.027-.773-.036-1.125h.604l.035.522h.019c.189-.352.54-.595.999-.595.604 0 1.054.45 1.054 1.504v2.926h-.693v-2.809c0-.514-.099-1.035-.604-1.035-.288 0-.566.243-.657.711a2.454 2.454 0 0 0-.026.387v2.746h-.693v-3.232zm5.77 3.124c-.152.091-.414.162-.72.162-.954 0-1.594-.765-1.594-2.205 0-1.252.631-2.269 1.72-2.269.234 0 .486.062.612.135l-.135.567a1.138 1.138 0 0 0-.495-.117c-.693 0-1.009.828-1.009 1.684 0 1.017.387 1.629 1.026 1.629.189 0 .342-.045.504-.117l.091.531zm1.134-4.249l.576 2.503c.081.342.126.63.18.9h.018c.045-.243.117-.576.189-.892l.513-2.512h.685l-.711 2.8c-.271 1.099-.567 2.151-1.08 2.809-.307.388-.631.595-.784.667l-.252-.595c.198-.107.414-.297.612-.549.181-.226.324-.522.396-.729a.609.609 0 0 0 .045-.216c0-.054 0-.108-.018-.162l-1.099-4.024h.73zm2.492 5.438c.514-.81.937-2.043.937-3.664 0-1.62-.423-2.836-.937-3.646h.541c.468.666.99 1.863.99 3.646-.019 1.783-.522 2.971-.99 3.664h-.541zM52.688 231.736c.009.27-.162.45-.423.45-.225 0-.396-.181-.396-.45 0-.271.18-.45.405-.45.252 0 .414.18.414.45zm-.747 5.483v-4.357h.693v4.357h-.693zm1.656-3.233c0-.513-.027-.773-.036-1.125h.603l.036.522h.018c.189-.352.54-.595.999-.595.604 0 1.054.45 1.054 1.504v2.926h-.693v-2.809c0-.514-.099-1.035-.603-1.035-.288 0-.567.243-.657.711a2.445 2.445 0 0 0-.027.387v2.746h-.693v-3.232zm4.437-2.277v1.152h.837v.531h-.837v2.584c0 .567.207.72.459.72.108 0 .198-.009.279-.026l.027.531a1.522 1.522 0 0 1-.513.071c-.27 0-.513-.071-.684-.261-.171-.198-.261-.495-.261-1.099v-2.521h-.531v-.531h.531v-.954l.693-.197zm1.863 3.395c.009 1.332.531 1.62 1.036 1.62.297 0 .549-.072.72-.171l.108.513c-.243.136-.612.207-.955.207-1.044 0-1.584-.854-1.584-2.188 0-1.413.594-2.296 1.468-2.296.891 0 1.242.937 1.242 1.927 0 .162 0 .279-.009.388h-2.026zm1.368-.514c.018-.873-.315-1.261-.648-1.261-.45 0-.684.667-.711 1.261h1.359zm1.403-.604c0-.368-.027-.801-.036-1.125h.622l.036.685h.018c.144-.414.513-.757.918-.757.054 0 .099.01.144.01v.711c-.045-.009-.09-.009-.144-.009-.441 0-.765.404-.837.909a2.65 2.65 0 0 0-.027.396v2.413h-.693v-3.233zm2.242 0c0-.513-.027-.773-.036-1.125h.603l.036.522h.018c.189-.352.54-.595.999-.595.604 0 1.054.45 1.054 1.504v2.926h-.694v-2.809c0-.514-.099-1.035-.603-1.035-.288 0-.567.243-.657.711a2.445 2.445 0 0 0-.027.387v2.746h-.693v-3.232zm4.131 1.118c.009 1.332.531 1.62 1.036 1.62.297 0 .549-.072.72-.171l.108.513c-.243.136-.612.207-.955.207-1.044 0-1.584-.854-1.584-2.188 0-1.413.594-2.296 1.468-2.296.891 0 1.242.937 1.242 1.927 0 .162 0 .279-.009.388h-2.026zm1.368-.514c.018-.873-.315-1.261-.648-1.261-.45 0-.684.667-.711 1.261h1.359zm2.259-2.881v1.152h.837v.531h-.837v2.584c0 .567.207.72.459.72.108 0 .198-.009.279-.026l.027.531a1.522 1.522 0 0 1-.513.071c-.27 0-.513-.071-.684-.261-.171-.198-.261-.495-.261-1.099v-2.521h-.531v-.531h.531v-.954l.693-.197zm2.852 2.277c0-.368-.027-.801-.036-1.125h.622l.036.685h.018c.144-.414.513-.757.918-.757.054 0 .099.01.144.01v.711c-.045-.009-.09-.009-.144-.009-.441 0-.765.404-.837.909a2.65 2.65 0 0 0-.027.396v2.413h-.694v-3.233zm4.789 1.054c0 1.684-.784 2.251-1.45 2.251-.783 0-1.414-.712-1.414-2.242 0-1.593.711-2.26 1.458-2.26.776 0 1.406.73 1.406 2.251zm-2.17 0c0 .721.126 1.701.756 1.701.594 0 .711-1.026.711-1.701 0-.666-.117-1.692-.729-1.692-.621 0-.738 1.026-.738 1.692zm5.554.99c0 .486.027.864.036 1.188h-.603l-.045-.459h-.018c-.135.216-.468.531-.937.531-.765 0-1.062-.595-1.062-1.675v-2.755h.693v2.656c0 .684.108 1.188.585 1.188.405 0 .585-.379.621-.576.027-.117.036-.253.036-.396v-2.872h.693v3.17zm1.817-4.321v1.152h.837v.531h-.837v2.584c0 .567.207.72.459.72.108 0 .198-.009.279-.026l.027.531a1.522 1.522 0 0 1-.513.071c-.27 0-.513-.071-.684-.261-.171-.198-.261-.495-.261-1.099v-2.521h-.531v-.531h.531v-.954l.693-.197zm2.196.027c.009.27-.162.45-.423.45-.225 0-.396-.181-.396-.45 0-.271.18-.45.405-.45.252 0 .414.18.414.45zm-.747 5.483v-4.357h.693v4.357h-.693zm1.656-3.233c0-.513-.027-.773-.036-1.125h.603l.036.522h.018c.189-.352.54-.595.999-.595.604 0 1.054.45 1.054 1.504v2.926h-.693v-2.809c0-.514-.099-1.035-.603-1.035-.288 0-.567.243-.657.711a2.445 2.445 0 0 0-.027.387v2.746h-.693v-3.232zm6.31-1.125c-.009.307-.036.693-.036 1.359v2.439c0 1.144-.144 1.576-.432 1.891-.261.298-.675.469-1.161.469-.369 0-.729-.09-.954-.216l.162-.541c.171.091.459.189.811.189.549 0 .891-.342.891-1.332v-.441h-.018a.886.886 0 0 1-.837.531c-.774 0-1.279-.873-1.279-2.152 0-1.602.729-2.269 1.369-2.269.468 0 .684.307.81.567h.018l.036-.495h.62zm-.72 1.504a1.16 1.16 0 0 0-.036-.315c-.081-.297-.234-.666-.63-.666-.504 0-.774.675-.774 1.639 0 1.116.351 1.62.774 1.62.207 0 .477-.099.621-.621.036-.135.045-.271.045-.396v-1.261zm3.059-3.376h.693v6.229h-.693v-6.229zm3.438 6.23l-.045-.459h-.027c-.189.333-.495.531-.864.531-.585 0-1.036-.495-1.036-1.242 0-1.09.874-1.576 1.854-1.585v-.135c0-.585-.144-.99-.693-.99-.27 0-.513.09-.72.225l-.153-.486c.18-.135.585-.288 1.018-.288.873 0 1.251.576 1.251 1.558v1.882c0 .333 0 .711.045.99h-.63zm-.099-2.251c-.36 0-1.197.063-1.197 1.009 0 .567.288.774.531.774.306 0 .567-.226.648-.657.018-.081.018-.171.018-.243v-.883zm2.421-3.259v1.152h.837v.531h-.837v2.584c0 .567.207.72.459.72.108 0 .198-.009.279-.026l.027.531a1.522 1.522 0 0 1-.513.071c-.27 0-.513-.071-.684-.261-.171-.198-.261-.495-.261-1.099v-2.521h-.531v-.531h.531v-.954l.693-.197zm1.863 3.395c.009 1.332.531 1.62 1.036 1.62.297 0 .549-.072.72-.171l.108.513c-.243.136-.612.207-.955.207-1.044 0-1.584-.854-1.584-2.188 0-1.413.594-2.296 1.468-2.296.891 0 1.242.937 1.242 1.927 0 .162 0 .279-.009.388h-2.026zm1.368-.514c.018-.873-.315-1.261-.648-1.261-.45 0-.684.667-.711 1.261h1.359zm1.413-.604c0-.513-.027-.773-.036-1.125h.603l.036.522h.018c.189-.352.54-.595.999-.595.604 0 1.054.45 1.054 1.504v2.926h-.693v-2.809c0-.514-.099-1.035-.603-1.035-.288 0-.567.243-.657.711a2.445 2.445 0 0 0-.027.387v2.746h-.693v-3.232zm5.77 3.124c-.153.091-.414.162-.72.162-.955 0-1.594-.765-1.594-2.205 0-1.252.63-2.269 1.72-2.269.234 0 .486.062.612.135l-.135.567a1.13 1.13 0 0 0-.495-.117c-.693 0-1.008.828-1.008 1.684 0 1.017.387 1.629 1.026 1.629.189 0 .342-.045.504-.117l.09.531zm1.132-4.249l.576 2.503c.081.342.126.63.18.9h.018c.045-.243.117-.576.189-.892l.513-2.512h.684l-.711 2.8c-.271 1.099-.567 2.151-1.081 2.809-.306.388-.63.595-.783.667l-.252-.595c.198-.107.414-.297.612-.549.18-.226.324-.522.396-.729a.609.609 0 0 0 .045-.216c0-.054 0-.108-.018-.162l-1.098-4.024h.73zm5.734-1.872c-.513.81-.937 2.025-.937 3.664 0 1.611.423 2.826.937 3.646h-.54c-.468-.684-.991-1.891-.991-3.655.018-1.764.522-2.979.991-3.654h.54zm1.062 1.872l.549 2.449c.063.297.135.684.189 1.062h.027c.045-.359.117-.729.18-1.062l.54-2.449h.684l-1.134 4.357h-.621l-1.134-4.357h.72zm4.41 4.358l-.045-.459h-.027c-.189.333-.495.531-.864.531-.585 0-1.036-.495-1.036-1.242 0-1.09.874-1.576 1.855-1.585v-.135c0-.585-.145-.99-.693-.99-.27 0-.513.09-.72.225l-.153-.486c.18-.135.585-.288 1.018-.288.873 0 1.251.576 1.251 1.558v1.882c0 .333 0 .711.045.99h-.631zm-.099-2.251c-.36 0-1.197.063-1.197 1.009 0 .567.288.774.531.774.306 0 .567-.226.648-.657.018-.081.018-.171.018-.243v-.883zm1.646-.982c0-.368-.027-.801-.036-1.125h.622l.036.685h.018c.144-.414.513-.757.918-.757.054 0 .099.01.144.01v.711c-.045-.009-.09-.009-.144-.009-.441 0-.765.404-.837.909a2.65 2.65 0 0 0-.027.396v2.413h-.693v-3.233zm2.989-2.25c.009.27-.162.45-.423.45-.225 0-.396-.181-.396-.45 0-.271.18-.45.405-.45.251 0 .414.18.414.45zm-.748 5.483v-4.357h.693v4.357h-.693zm3.375 0l-.045-.459h-.027c-.189.333-.495.531-.864.531-.585 0-1.036-.495-1.036-1.242 0-1.09.874-1.576 1.854-1.585v-.135c0-.585-.144-.99-.693-.99-.27 0-.513.09-.72.225l-.153-.486c.18-.135.585-.288 1.018-.288.873 0 1.251.576 1.251 1.558v1.882c0 .333 0 .711.045.99h-.63zm-.099-2.251c-.36 0-1.197.063-1.197 1.009 0 .567.288.774.531.774.306 0 .567-.226.648-.657.018-.081.018-.171.018-.243v-.883zm1.611 2.251c.009-.252.036-.747.036-1.044v-5.186h.693v2.386h.018c.225-.433.549-.586.918-.586.675 0 1.188.783 1.188 2.206 0 1.575-.648 2.296-1.323 2.296-.459 0-.693-.271-.864-.64h-.027l-.045.567h-.594zm.729-1.539c0 .099 0 .197.027.27.162.648.459.766.648.766.558 0 .756-.757.756-1.684 0-.873-.207-1.647-.765-1.647-.324 0-.594.405-.648.774-.018.099-.018.207-.018.306v1.215zm2.907-4.691h.693v6.229h-.693v-6.229zm2.205 4.115c.009 1.332.531 1.62 1.036 1.62.297 0 .549-.072.72-.171l.108.513c-.243.136-.612.207-.955.207-1.044 0-1.584-.854-1.584-2.188 0-1.413.594-2.296 1.468-2.296.891 0 1.242.937 1.242 1.927 0 .162 0 .279-.009.388h-2.026zm1.369-.514c.018-.873-.315-1.261-.648-1.261-.45 0-.684.667-.711 1.261h1.359zm2.825-3.601h.693v6.229h-.693v-6.229zm3.438 6.23l-.045-.459h-.027c-.189.333-.495.531-.864.531-.585 0-1.036-.495-1.036-1.242 0-1.09.874-1.576 1.855-1.585v-.135c0-.585-.145-.99-.693-.99-.27 0-.513.09-.72.225l-.153-.486c.18-.135.585-.288 1.018-.288.873 0 1.251.576 1.251 1.558v1.882c0 .333 0 .711.045.99h-.631zm-.099-2.251c-.36 0-1.197.063-1.197 1.009 0 .567.288.774.531.774.306 0 .567-.226.648-.657.018-.081.018-.171.018-.243v-.883zm2.421-3.259v1.152h.837v.531h-.837v2.584c0 .567.207.72.459.72.108 0 .198-.009.279-.026l.027.531a1.522 1.522 0 0 1-.513.071c-.27 0-.513-.071-.684-.261-.171-.198-.261-.495-.261-1.099v-2.521h-.531v-.531h.531v-.954l.693-.197zm1.863 3.395c.009 1.332.531 1.62 1.036 1.62.297 0 .549-.072.72-.171l.108.513c-.243.136-.612.207-.955.207-1.044 0-1.584-.854-1.584-2.188 0-1.413.594-2.296 1.468-2.296.891 0 1.242.937 1.242 1.927 0 .162 0 .279-.009.388h-2.026zm1.369-.514c.018-.873-.315-1.261-.648-1.261-.45 0-.684.667-.711 1.261h1.359zm1.412-.604c0-.513-.027-.773-.036-1.125h.604l.035.522h.019c.189-.352.54-.595.999-.595.604 0 1.054.45 1.054 1.504v2.926h-.693v-2.809c0-.514-.099-1.035-.604-1.035-.288 0-.566.243-.657.711a2.454 2.454 0 0 0-.026.387v2.746h-.693v-3.232zm5.769 3.124c-.152.091-.414.162-.72.162-.954 0-1.594-.765-1.594-2.205 0-1.252.631-2.269 1.72-2.269.234 0 .486.062.612.135l-.135.567a1.138 1.138 0 0 0-.495-.117c-.693 0-1.009.828-1.009 1.684 0 1.017.387 1.629 1.026 1.629.189 0 .342-.045.504-.117l.091.531zm1.134-4.249l.576 2.503c.081.342.126.63.18.9h.018c.045-.243.117-.576.189-.892l.513-2.512h.685l-.711 2.8c-.271 1.099-.567 2.151-1.08 2.809-.307.388-.631.595-.784.667l-.252-.595c.198-.107.414-.297.612-.549.181-.226.324-.522.396-.729a.609.609 0 0 0 .045-.216c0-.054 0-.108-.018-.162l-1.099-4.024h.73zm2.492 5.438c.514-.81.937-2.043.937-3.664 0-1.62-.423-2.836-.937-3.646h.541c.468.666.99 1.863.99 3.646-.019 1.783-.522 2.971-.99 3.664h-.541zm-9.877-206.471c-.231.121-.594.198-1.056.198-1.452 0-2.486-1.167-2.486-3.686 0-2.927 1.452-3.862 2.618-3.862.451 0 .771.088.924.188l-.187.715a1.62 1.62 0 0 0-.748-.154c-.792 0-1.716.771-1.716 3.037s.836 3.015 1.738 3.015c.319 0 .605-.077.781-.165l.132.714zm3.872-2.531c0 2.057-.957 2.75-1.771 2.75-.957 0-1.727-.869-1.727-2.739 0-1.947.869-2.762 1.782-2.762.946 0 1.716.892 1.716 2.751zm-2.652 0c0 .88.154 2.079.924 2.079.726 0 .869-1.254.869-2.079 0-.814-.143-2.068-.891-2.068-.758 0-.902 1.254-.902 2.068zm3.586-1.287c0-.451-.033-.979-.044-1.376h.759l.044.837h.022c.176-.507.627-.925 1.122-.925.066 0 .121.012.176.012v.869c-.055-.012-.11-.012-.176-.012-.539 0-.935.495-1.023 1.111a3.259 3.259 0 0 0-.033.484v2.948h-.847V28.01zm3.18 1.365c.011 1.628.649 1.979 1.265 1.979.363 0 .671-.088.88-.209l.132.627c-.297.165-.748.254-1.166.254-1.276 0-1.936-1.046-1.936-2.674 0-1.728.726-2.806 1.793-2.806 1.089 0 1.518 1.145 1.518 2.354 0 .198 0 .341-.011.474h-2.475zm1.672-.628c.022-1.066-.385-1.54-.792-1.54-.55 0-.836.814-.869 1.54h1.661zm3.519 3.212v-7.415h.803l1.364 3.477c.308.792.693 1.782.946 2.585h.022a55.805 55.805 0 0 1-.099-3.41v-2.651h.759v7.415h-.803l-1.408-3.564a26.597 26.597 0 0 1-.88-2.52h-.022c.066.99.088 1.937.088 3.521v2.563h-.77zm5.6-2.584c.011 1.628.649 1.979 1.265 1.979.363 0 .672-.088.881-.209l.132.627c-.297.165-.748.254-1.166.254-1.276 0-1.937-1.046-1.937-2.674 0-1.728.727-2.806 1.793-2.806 1.09 0 1.519 1.145 1.519 2.354 0 .198 0 .341-.011.474h-2.476zm1.672-.628c.021-1.066-.385-1.54-.793-1.54-.55 0-.836.814-.869 1.54h1.662zm2.76-3.521v1.408h1.023v.649h-1.023v3.157c0 .693.254.881.562.881.132 0 .241-.012.341-.033l.033.648a1.827 1.827 0 0 1-.627.089c-.33 0-.627-.089-.836-.319-.209-.242-.319-.605-.319-1.343v-3.08h-.649v-.649h.649v-1.166l.846-.242zm2.311 1.408l.517 2.607c.099.572.22 1.145.286 1.694h.044c.077-.55.209-1.166.33-1.672l.616-2.63h.648l.584 2.553c.132.594.253 1.155.341 1.749h.044c.066-.561.165-1.111.286-1.716l.506-2.586h.847l-1.342 5.325h-.693l-.615-2.585c-.133-.518-.209-.99-.297-1.596h-.022a16.63 16.63 0 0 1-.308 1.628l-.639 2.553h-.715l-1.299-5.325h.881zm8.921 2.663c0 2.057-.957 2.75-1.771 2.75-.957 0-1.728-.869-1.728-2.739 0-1.947.868-2.762 1.782-2.762.946 0 1.717.892 1.717 2.751zm-2.652 0c0 .88.154 2.079.924 2.079.727 0 .869-1.254.869-2.079 0-.814-.143-2.068-.891-2.068-.759 0-.902 1.254-.902 2.068zm3.586-1.287c0-.451-.033-.979-.044-1.376h.759l.045.837h.021c.176-.507.627-.925 1.122-.925.065 0 .121.012.177.012v.869c-.056-.012-.111-.012-.177-.012-.539 0-.935.495-1.022 1.111a3.259 3.259 0 0 0-.033.484v2.948h-.848V28.01zm3.575 1.1h.022c.099-.209.187-.418.285-.594l1.057-1.882h.913l-1.408 2.245 1.529 3.08h-.946l-1.155-2.509-.297.495v2.014h-.847v-7.613h.847v4.764zm6.699-4.764c-.627.99-1.144 2.476-1.144 4.478 0 1.97.517 3.455 1.144 4.456h-.66c-.571-.836-1.209-2.311-1.209-4.467.021-2.156.638-3.642 1.209-4.467h.66zm3.641 4.093h-1.859v2.783h2.112v.737h-2.959v-7.415h2.826v.737h-1.979v2.442h1.859v.716zm1.188-3.784a4.87 4.87 0 0 1 1.231-.144c.683 0 1.255.165 1.641.55.362.353.549.892.549 1.529 0 .683-.164 1.145-.451 1.519-.406.55-1.088.825-1.748.825-.144 0-.254 0-.375-.011v3.036h-.847v-7.304zm.846 3.553c.1.022.188.033.33.033.836 0 1.397-.55 1.397-1.595 0-.76-.319-1.441-1.254-1.441-.198 0-.363.021-.474.055v2.948zm6.777 3.62c-.231.121-.595.198-1.056.198-1.453 0-2.486-1.167-2.486-3.686 0-2.927 1.451-3.862 2.617-3.862.451 0 .771.088.925.188l-.187.715a1.62 1.62 0 0 0-.748-.154c-.793 0-1.717.771-1.717 3.037s.836 3.015 1.738 3.015c.318 0 .605-.077.781-.165l.133.714zm.55 1.452c.627-.99 1.145-2.497 1.145-4.478s-.518-3.466-1.145-4.456h.66c.572.814 1.21 2.277 1.21 4.456-.022 2.178-.638 3.63-1.21 4.478h-.66zm-59.506 25.425c.253.165.693.298 1.067.298.771 0 1.232-.507 1.232-1.255 0-.682-.396-1.1-.979-1.54-.583-.407-1.397-1.101-1.397-2.058 0-1.122.781-1.947 1.958-1.947.462 0 .869.144 1.045.275l-.209.727a1.542 1.542 0 0 0-.88-.254c-.726 0-1.067.551-1.067 1.057 0 .737.385 1.023 1.089 1.529.891.627 1.287 1.309 1.287 2.134 0 1.276-.902 2.08-2.08 2.08-.506 0-1.045-.165-1.254-.319l.188-.727zm7.788.792a3.783 3.783 0 0 1-1.32.254c-.649 0-1.254-.177-1.75-.727-.539-.572-.902-1.595-.891-2.948.011-2.883 1.485-3.873 2.794-3.873.462 0 .825.088 1.056.209l-.187.727c-.198-.099-.462-.176-.858-.176-.924 0-1.925.736-1.925 3.036 0 2.288.869 3.025 1.761 3.025.286 0 .451-.055.517-.088v-2.421h-.957v-.703h1.76v3.685zm2.134.188l-1.43-7.415h.88l.627 3.575c.154.936.275 1.761.363 2.674h.044c.088-.936.264-1.738.44-2.685l.682-3.564h.726l.682 3.487c.165.88.33 1.728.429 2.762h.033c.121-1.067.253-1.87.396-2.718l.616-3.531h.825l-1.441 7.415h-.825l-.715-3.608a33.911 33.911 0 0 1-.374-2.432h-.022c-.11.836-.231 1.64-.407 2.465l-.737 3.575h-.792zm-5.824 51.809c-.055-.979-.11-2.068-.077-2.904h-.044a42.745 42.745 0 0 1-.594 2.574l-.913 3.477h-.539l-.869-3.334c-.242-.945-.462-1.858-.605-2.717h-.033c0 .869-.044 1.903-.088 2.959l-.143 3.136h-.759l.44-7.415h.913l.869 3.389c.253.979.44 1.705.594 2.552h.033c.143-.847.308-1.551.55-2.552l.836-3.389h.946l.429 7.415h-.792l-.154-3.191zm6.589 0c-.055-.979-.11-2.068-.077-2.904h-.044a42.745 42.745 0 0 1-.594 2.574l-.913 3.477h-.539l-.869-3.334c-.242-.945-.462-1.858-.605-2.717h-.033c0 .869-.044 1.903-.088 2.959l-.143 3.136h-.759l.44-7.415h.913l.869 3.389c.253.979.44 1.705.594 2.552h.033c.143-.847.308-1.551.55-2.552l.836-3.389h.946l.429 7.415h-.792l-.154-3.191zm4.807-.33h-1.859v2.783h2.112v.737h-2.959v-7.415h2.827v.737h-1.98v2.442h1.859v.716zM197.51 52.38c.34-.089.748-.144 1.231-.144.683 0 1.255.165 1.64.55.363.353.55.892.55 1.529 0 .683-.165 1.145-.451 1.519-.407.55-1.089.825-1.749.825-.143 0-.253 0-.374-.011v3.036h-.847V52.38zm.846 3.553c.099.022.187.033.33.033.836 0 1.397-.55 1.397-1.595 0-.76-.319-1.441-1.254-1.441-.199 0-.363.021-.474.055v2.948zm7.195 3.564a3.788 3.788 0 0 1-1.32.254c-.649 0-1.254-.177-1.75-.727-.539-.572-.902-1.595-.891-2.948.012-2.883 1.485-3.873 2.795-3.873.461 0 .824.088 1.056.209l-.187.727c-.199-.099-.463-.176-.859-.176-.924 0-1.925.736-1.925 3.036 0 2.288.869 3.025 1.761 3.025.285 0 .451-.055.517-.088v-2.421h-.957v-.703h1.761v3.685zm2.133.188l-1.43-7.415h.88l.627 3.575c.154.936.275 1.761.363 2.674h.044c.088-.936.264-1.738.439-2.685l.683-3.564h.726l.683 3.487c.165.88.33 1.728.429 2.762h.033a47.88 47.88 0 0 1 .396-2.718l.615-3.531h.826l-1.441 7.415h-.825l-.716-3.608a33.913 33.913 0 0 1-.373-2.432h-.022c-.11.836-.231 1.64-.407 2.465l-.736 3.575h-.794zm-10.377 47.695c.34-.089.748-.144 1.231-.144.683 0 1.255.165 1.64.55.363.353.55.892.55 1.529 0 .683-.165 1.145-.451 1.519-.407.55-1.089.825-1.749.825-.143 0-.253 0-.374-.011v3.036h-.847v-7.304zm.846 3.553c.099.022.187.033.33.033.836 0 1.397-.55 1.397-1.595 0-.76-.319-1.441-1.254-1.441-.199 0-.363.021-.474.055v2.948zm6.777 3.62c-.231.121-.595.198-1.057.198-1.452 0-2.486-1.167-2.486-3.686 0-2.927 1.452-3.862 2.618-3.862.451 0 .771.088.925.188l-.188.715a1.62 1.62 0 0 0-.748-.154c-.792 0-1.717.771-1.717 3.037s.836 3.015 1.738 3.015c.319 0 .605-.077.781-.165l.134.714zm.868-7.173c.362-.1.804-.144 1.222-.144.736 0 1.287.154 1.672.528.363.374.518.869.518 1.452 0 .946-.441 1.562-1.189 1.903v.021c.551.165.837.693 1.002 1.662.165 1.022.318 1.649.418 1.881h-.858c-.11-.22-.253-.924-.396-1.837-.166-1.013-.484-1.397-1.211-1.397h-.33v3.234h-.847v-7.303zm.847 3.421h.353c.813 0 1.353-.594 1.353-1.485 0-.857-.352-1.386-1.265-1.396-.165 0-.33.011-.44.044v2.837zm3.652-3.531h2.827v.737h-1.979v2.596h1.848v.716h-1.848v3.366h-.848v-7.415zm73.406-56.606h-1.859v2.783h2.111v.737h-2.959V46.77h2.827v.737h-1.979v2.442h1.859v.715zm1.594-1.805l.495 1.145c.132.309.231.616.353.936h.021c.121-.342.242-.649.352-.936l.484-1.145h.869l-1.265 2.63 1.254 2.695h-.924l-.507-1.199c-.121-.286-.219-.562-.352-.913h-.021c-.11.319-.231.605-.353.913l-.495 1.199h-.857l1.265-2.674-1.232-2.651h.913zm4.467-1.408v1.408h1.022v.649h-1.022v3.157c0 .693.252.881.561.881.132 0 .242-.012.341-.033l.033.648a1.833 1.833 0 0 1-.628.089c-.329 0-.627-.089-.836-.319-.209-.242-.318-.605-.318-1.343v-3.08h-.649v-.649h.649v-1.166l.847-.242zm2.275 4.149c.012 1.628.65 1.979 1.266 1.979.363 0 .672-.088.881-.209l.131.627c-.297.165-.748.254-1.166.254-1.275 0-1.936-1.046-1.936-2.674 0-1.728.727-2.806 1.793-2.806 1.09 0 1.518 1.145 1.518 2.354 0 .198 0 .341-.01.474h-2.477zm1.673-.628c.022-1.066-.385-1.54-.792-1.54-.551 0-.836.814-.869 1.54h1.661zm1.716-.737c0-.451-.033-.979-.044-1.376h.759l.045.837h.021c.176-.507.627-.925 1.122-.925.065 0 .121.012.177.012v.869c-.056-.012-.111-.012-.177-.012-.539 0-.935.495-1.022 1.111a3.259 3.259 0 0 0-.033.484v2.948h-.848v-3.948zm2.738 0c0-.628-.033-.946-.043-1.376h.736l.044.639h.022c.23-.43.66-.727 1.221-.727.737 0 1.287.551 1.287 1.838v3.575h-.847v-3.433c0-.627-.121-1.265-.737-1.265-.352 0-.693.297-.803.869a2.988 2.988 0 0 0-.033.473v3.355h-.848v-3.948zm6.557 3.95l-.055-.562h-.033c-.23.407-.605.649-1.057.649-.715 0-1.265-.604-1.265-1.519 0-1.331 1.067-1.925 2.267-1.936v-.165c0-.716-.176-1.21-.848-1.21-.33 0-.627.109-.88.274l-.187-.594c.219-.165.715-.353 1.242-.353 1.067 0 1.529.704 1.529 1.903v2.3c0 .407 0 .869.055 1.21h-.768zm-.121-2.75c-.439 0-1.463.076-1.463 1.231 0 .693.352.946.648.946.375 0 .693-.274.793-.803.021-.1.021-.209.021-.297v-1.077zm2.023-4.864h.848v7.613h-.848v-7.613zm-26.179 18.614V57.77h.804l1.363 3.477c.309.792.693 1.782.946 2.585h.022a55.778 55.778 0 0 1-.1-3.41V57.77h.76v7.415h-.804l-1.408-3.564a26.597 26.597 0 0 1-.88-2.52h-.021c.065.99.088 1.937.088 3.521v2.563h-.77zm5.599-2.585c.012 1.628.649 1.979 1.266 1.979.363 0 .671-.088.88-.209l.132.627c-.297.165-.748.254-1.166.254-1.276 0-1.936-1.046-1.936-2.674 0-1.728.726-2.806 1.793-2.806 1.089 0 1.518 1.145 1.518 2.354 0 .198 0 .341-.011.474h-2.476zm1.672-.628c.022-1.066-.385-1.54-.791-1.54-.551 0-.836.814-.869 1.54h1.66zm2.762-3.521v1.408h1.023v.649h-1.023v3.157c0 .693.253.881.561.881.133 0 .242-.012.342-.033l.033.648a1.83 1.83 0 0 1-.627.089c-.33 0-.628-.089-.837-.319-.209-.242-.319-.605-.319-1.343v-3.08h-.648v-.649h.648v-1.166l.847-.242zm2.308 1.408l.518 2.607c.1.572.221 1.145.286 1.694h.044c.077-.55.209-1.166.33-1.672l.616-2.63h.649l.582 2.553c.133.594.254 1.155.342 1.749h.044c.065-.561.165-1.111.286-1.716l.506-2.586h.848l-1.343 5.325h-.692l-.617-2.585a15.04 15.04 0 0 1-.297-1.596h-.021a16.613 16.613 0 0 1-.309 1.628l-.638 2.553h-.715l-1.298-5.325h.879zm8.922 2.663c0 2.057-.957 2.75-1.771 2.75-.957 0-1.728-.869-1.728-2.739 0-1.947.869-2.762 1.783-2.762.946 0 1.716.892 1.716 2.751zm-2.65 0c0 .88.154 2.079.924 2.079.727 0 .869-1.254.869-2.079 0-.814-.143-2.068-.891-2.068-.76 0-.902 1.254-.902 2.068zm3.586-1.287c0-.451-.033-.979-.045-1.376h.76l.044.837h.022c.176-.507.627-.925 1.121-.925.066 0 .121.012.177.012v.869c-.056-.012-.11-.012-.177-.012-.539 0-.935.495-1.022 1.111a3.259 3.259 0 0 0-.033.484v2.948h-.847v-3.948zm3.574 1.1h.021c.1-.209.188-.418.287-.594l1.056-1.882h.913l-1.408 2.245 1.529 3.08h-.946l-1.155-2.509-.297.495v2.014h-.848v-7.613h.848v4.764z"/><g fill="none" stroke="#000" stroke-miterlimit="3.864" clip-rule="evenodd"><path stroke-width=".5" d="M40.853 93.623l-4.938-8.709 5.117-2.154-3.365-5.162 3.186-1.75-2.331-2.422 2.51-1.349-1.845-2.49 1.92-.931-1.4-1.722 1.418-.887-1.493-1.906"/><path stroke-width=".5" d="M41.229 64.741l-1.428.913 1.324 1.954-1.687.593 1.873 1.888-2.504 1.109 2.111 2.644-2.579 1.467 2.357 2.996-3.829 2.009 3.862 6.99-5.8 2.1m5.924 4.219l5.219-8.543-5.044-2.32 4.027-5.078-3.622-1.826 2.491-2.479-2.548-1.295 1.933-2.353-1.895-1.069 1.468-1.49-1.402-1.118 1.555-1.856"/><path stroke-width=".5" d="M41.42 64.744l1.557 1.289-1.547 1.579 1.785.837-1.81 1.55 2.425 1.484-2.398 2.367 3.091 1.612-3.014 2.856 3.763 2.133-4.091 6.86 5.732 2.288m-7.429-31.527l1.818.808m-1.818.808l1.818.808m-1.818.808l1.818.808m-1.818.808l1.818.808m0-4.848l1.75-.875m-1.75 2.491l1.75-.875m-1.75 2.491l1.75-.875m-1.75 2.491l1.75-.875"/><path d="M41.256 56.254v9.18l-.403 28.189"/><path d="M47.586 89.404l-6.733 4.219-5.924-4.219 4.577-23.611v-9.337h3.591"/><path d="M40.853 93.623l6.733-4.281-4.489-23.953-.045-9.295"/></g><g fill="none" stroke="#000" stroke-miterlimit="3.864" clip-rule="evenodd"><path stroke-width=".5" d="M71.647 75.902l-4.937-8.709 5.117-2.154-3.366-5.162 3.186-1.75-2.331-2.422 2.511-1.349-1.846-2.49 1.921-.931-1.4-1.722 1.418-.887-1.494-1.906"/><path stroke-width=".5" d="M72.023 47.02l-1.427.914 1.324 1.953-1.687.593 1.872 1.888-2.504 1.109 2.112 2.645-2.579 1.466 2.356 2.996-3.829 2.01 3.862 6.99-5.799 2.099m5.923 4.219l5.219-8.543-5.043-2.32 4.026-5.078-3.621-1.826 2.491-2.479-2.549-1.295 1.934-2.353-1.896-1.069 1.469-1.49-1.402-1.118 1.555-1.856"/><path stroke-width=".5" d="M72.215 47.023l1.556 1.289-1.546 1.58 1.784.837-1.809 1.55 2.424 1.483-2.398 2.367 3.092 1.612-3.014 2.856 3.762 2.133-4.09 6.86 5.732 2.288m-7.429-31.526l1.818.808m-1.818.807l1.818.808m-1.818.808l1.818.809m-1.818.807l1.818.808m0-4.847l1.749-.876m-1.749 2.491l1.749-.875m-1.749 2.492l1.749-.876m-1.749 2.491l1.749-.875"/><path d="M72.051 38.534v9.179l-.404 28.189"/><path d="M78.381 71.683l-6.734 4.219-5.923-4.219 4.577-23.611v-9.337h3.59"/><path d="M71.647 75.902l6.734-4.28-4.49-23.954-.045-9.294"/></g><g fill="none" stroke="#000" stroke-miterlimit="3.864" clip-rule="evenodd"><path stroke-width=".5" d="M71.444 111.343l-4.938-8.709 5.118-2.154-3.366-5.162 3.186-1.75-2.331-2.422 2.511-1.348-1.846-2.49 1.921-.931-1.401-1.723 1.419-.886-1.494-1.907"/><path stroke-width=".5" d="M71.82 82.461l-1.427.914 1.324 1.954-1.687.593 1.872 1.888-2.504 1.109 2.112 2.644-2.579 1.467 2.356 2.996-3.829 2.009 3.862 6.99-5.799 2.099m5.923 4.219l5.219-8.542-5.043-2.321 4.026-5.077-3.622-1.826 2.492-2.479-2.549-1.295 1.933-2.354-1.895-1.069 1.469-1.489-1.402-1.119 1.555-1.856"/><path stroke-width=".5" d="M72.012 82.465l1.556 1.289-1.547 1.579 1.785.837-1.809 1.55 2.424 1.484-2.398 2.367 3.092 1.612-3.014 2.856 3.762 2.133-4.091 6.859 5.732 2.288m-7.428-31.526l1.818.808m-1.818.808l1.818.808m-1.818.807l1.818.809m-1.818.808l1.818.808m0-4.848l1.749-.875m-1.749 2.491l1.749-.875m-1.749 2.491l1.749-.876m-1.749 2.492l1.749-.876"/><path d="M71.848 73.975v9.18l-.404 28.188"/><path d="M78.178 107.124l-6.734 4.219-5.923-4.219 4.577-23.611v-9.336h3.59"/><path d="M71.444 111.343l6.734-4.28-4.49-23.953-.045-9.295"/></g></svg>