<svg xmlns="http://www.w3.org/2000/svg" viewBox="0 0 319.885 183.708"><path fill="none" stroke="#000" stroke-miterlimit="10" d="M170.54 87.85V35.096" clip-rule="evenodd"/><path fill="none" stroke="#009245" stroke-miterlimit="10" d="M179.811 156.698l94.645-54.242m-95.995-10.121h86.995" clip-rule="evenodd"/><path fill="none" stroke="#000" stroke-miterlimit="10" d="M38.279 92.335H154.79" clip-rule="evenodd"/><g fill="none" stroke="#000" stroke-miterlimit="10"><path d="M30.538 21.209h1"/><path d="M33.557 21.209h136.264" stroke-dasharray="2.019 2.019"/><path d="M170.831 21.209h1"/></g><g fill="none" stroke="#c1272d" stroke-miterlimit="10"><path d="M30.538 156.758h1"/><path d="M33.535 156.758H160.31" stroke-dasharray="1.996 1.996"/><path d="M161.308 156.758h1"/></g><path fill="#ccc" d="M25.525 40.608v1.309L4.381 29.804v-1.307z"/><path fill="gray" d="M25.525 40.608l14.731-8.379v1.309l-14.731 8.38z"/><path fill="#fff" d="M4.381 28.499l14.709-8.43 21.166 12.16-14.731 8.379z"/><path fill="#999" d="M42.305 13.222l.988-.563-2.061 18.966-.99.563zm-14.95 24.103v.254L9.483 27.342v-.253z"/><path fill="#b3b3b3" d="M27.355 37.325l10.124-5.759v.254l-10.124 5.761z"/><path fill="#e6e6e6" d="M9.483 27.09l10.107-5.8 17.889 10.276-10.124 5.759zm2.57 5.476l2.902-1.666 5.135 2.951-2.906 1.653zm30.252-19.344l-2.063 18.965-21.144-12.113 2.06-18.964z"/><path fill="#0071bc" d="M39.4 30.731L19.941 19.585l2.061-17.02L41.461 13.71 39.4 30.731z"/><path fill="#b3b3b3" d="M21.158 1.111L22.129.5l21.164 12.159-.988.563z"/><path fill="none" stroke="#000" d="M41.232 31.625l2.061-18.966L22.129.5l-.969.61h-.002l-2.06 18.963-.008-.004-14.707 8.429-.002-.001v1.307l21.144 12.113v.001l14.731-8.38v-1.309l-.014-.042v.001z" stroke-linecap="round" stroke-linejoin="round"/><path fill="#b3b3b3" d="M173.563 101.33v4.29l-22.437-12.942V88.39z"/><path fill="#333" d="M154.79 91.683v1.793l-1.893-1.092v-1.795zm2.125 1.206v1.794l-1.893-1.094v-1.795zm2.125 1.249v1.794l-1.893-1.093v-1.795zm2.125 1.226v1.795l-1.893-1.094v-1.794zm2.125 1.227v1.793l-1.893-1.092v-1.796zm2.125 1.221v1.793l-1.893-1.092v-1.795zm2.127 1.226v1.794l-1.895-1.093v-1.795zm2.125 1.225v1.795l-1.895-1.094v-1.795zm2.125 1.226v1.793l-1.893-1.092v-1.794z"/><path fill="gray" d="M173.55 101.368l16.336-9.404v4.29l-16.336 9.403z"/><path fill="#999" d="M151.179 88.417l16.381-9.404 22.394 12.941-16.338 9.403z"/><path fill="none" stroke="#000" d="M189.954 91.954L167.56 79.013l-16.381 9.404-.053-.027v4.288l22.424 12.934v.045l16.336-9.403v-4.26z" stroke-linecap="round" stroke-linejoin="round"/><path fill="#b2d4eb" fill-rule="evenodd" d="M301.631 116.314c-3.3.944-6.579.247-9.021-1.601-1.439 1.684-3.145 2.845-5.382 3.482-5.78 1.649-11.093-.258-12.362-6.055a11.272 11.272 0 0 1-3.424 1.637c-5.773 1.648-11.777-1.831-13.049-7.63-5.027.443-9.605-2.776-10.724-7.889-1.271-5.797 2.385-11.833 8.159-13.48a10.68 10.68 0 0 1 3.876-.379c-1.271-5.794 2.455-10.348 8.232-11.998 2.316-.659 4.314-.895 6.327-.109 1.423-2.808 3.97-5.058 7.161-5.969 5.774-1.647 11.484 1.715 12.756 7.512.594-.292 1.093-.31 1.743-.497 5.777-1.649 11.489 1.713 12.758 7.511 5.009-.414 9.9 2.914 11.015 8.008 1.271 5.795-4.125 12.328-9.901 13.979 1.269 5.794-2.384 11.832-8.164 13.478z" clip-rule="evenodd" mask="url(#b)"/><path fill="#0071bc" d="M172.349 35.096v4.867l-12.626-4.048v-4.866z"/><path fill="#338dc9" d="M172.349 35.096l9.921-4.783v4.867l-9.921 4.784z"/><path fill="#4c9cd0" d="M159.723 31.05l9.906-4.821 12.641 4.084-9.921 4.783z"/><path fill="#009245" d="M160.843 33.063c.286.165.517.562.513.89 0 .328-.231.461-.517.295-.284-.163-.516-.561-.515-.889.002-.326.235-.461.519-.296m1.16.693c.284.164.517.56.512.889 0 .328-.23.461-.517.297-.284-.165-.516-.563-.514-.892.002-.327.234-.461.519-.294"/><path fill="#c1272d" d="M168.336 34.855c.464.266.84.912.834 1.445 0 .533-.377.749-.842.48-.461-.268-.837-.914-.835-1.446.004-.531.38-.748.843-.479"/><path fill="#009245" d="M170.464 36.107c.463.266.839.912.833 1.445 0 .533-.376.748-.841.479-.461-.267-.837-.913-.835-1.446.003-.53.379-.747.843-.478m-9.621-1.616c.286.164.517.562.513.89 0 .328-.231.461-.517.295-.284-.164-.516-.562-.515-.889.002-.328.235-.461.519-.296m1.16.692c.284.164.517.562.512.89 0 .326-.23.46-.517.295-.284-.164-.516-.561-.514-.89.002-.328.234-.46.519-.295"/><path fill="#4d4d4d" d="M172.548 30.727c.881.432.885 1.133.01 1.564-.873.434-2.296.434-3.175 0-.881-.432-.883-1.133-.011-1.564.875-.432 2.295-.432 3.176 0z"/><path fill="#1a1a1a" d="M169.341 31.098l.815-20.624c0-.683 1.693-.683 1.693 0l.742 20.624c0 .684-.729.778-1.624.778-.9 0-1.626-.095-1.626-.778z"/><path fill="none" stroke="#000" d="M172.592 27.186l-.742-16.712c0-.683-1.693-.683-1.693 0l-.527 15.755-9.903 4.821-.003-.001v4.866l12.626 4.049 9.921-4.782v-4.868l-9.679-3.128z" stroke-linecap="round" stroke-linejoin="round"/><path fill="none" stroke="#f7931e" stroke-width="1.5" d="M165.214 4.367a11.342 11.342 0 0 0-2.733 7.4c0 2.82 1.026 5.402 2.727 7.391" stroke-linecap="round"/><path fill="none" stroke="#f7931e" stroke-width="1.5" d="M162.618 3.598a13.65 13.65 0 0 0-2.698 8.17c0 3.053.997 5.873 2.684 8.151" stroke-linecap="round"/><path fill="none" stroke="#f7931e" stroke-width="1.5" d="M160.048 2.687a16.442 16.442 0 0 0-2.716 9.081c0 3.346.995 6.461 2.704 9.064m15.829-16.697a11.343 11.343 0 0 1 2.734 7.4c0 2.82-1.027 5.402-2.727 7.391" stroke-linecap="round"/><path fill="none" stroke="#f7931e" stroke-width="1.5" d="M178.461 3.366a13.65 13.65 0 0 1 2.699 8.17c0 3.053-.998 5.873-2.686 8.151" stroke-linecap="round"/><path fill="none" stroke="#f7931e" stroke-width="1.5" d="M181.031 2.455a16.448 16.448 0 0 1 2.717 9.081c0 3.346-.996 6.461-2.705 9.064" stroke-linecap="round"/><path fill="gray" d="M38.26 98.22c-.008.084-.012.168-.027.252-.014.066-.033.129-.049.193-.021.08-.039.158-.068.236a1.809 1.809 0 0 1-.078.184c-.035.082-.07.164-.113.244-.031.057-.068.113-.104.17a3.596 3.596 0 0 1-.182.273c-.064.082-.129.166-.201.25-.02.02-.035.041-.055.062-.1.107-.209.213-.322.316-.078.068-.16.133-.24.201-.072.055-.139.111-.215.168-.09.062-.186.125-.281.188-.098.06-.186.125-.291.185-.23.135-.475.256-.729.369-.072.033-.146.062-.219.094-.197.082-.4.158-.605.229-.076.025-.15.055-.226.078-.127.041-.26.076-.389.111-.105.029-.207.059-.312.082-.135.035-.273.061-.408.09-.105.021-.207.045-.311.062-.287.051-.58.092-.873.121-.096.01-.19.016-.285.023a11 11 0 0 1-.85.043c-.143.004-.283.006-.422.004a10.346 10.346 0 0 1-.355-.012c-.131-.004-.26-.012-.389-.02-.121-.008-.244-.02-.363-.031a11.434 11.434 0 0 1-1.131-.16 19.25 19.25 0 0 1-.33-.066 18.853 18.853 0 0 1-.469-.115l-.273-.074a8.965 8.965 0 0 1-1.228-.449c-.062-.029-.127-.055-.188-.082a8.459 8.459 0 0 1-.568-.297c-1.523-.879-2.283-2.033-2.279-3.185l-.033.697c-.004 1.152.758 2.305 2.279 3.186.182.105.373.203.566.297.066.031.135.059.205.088.113.051.227.104.344.15l.041.012c.267.105.547.199.83.283.024.006.045.014.066.021.064.018.131.031.195.047.158.043.318.084.482.119.045.008.084.021.127.031.062.014.129.021.191.033.139.025.274.051.412.072.057.008.107.02.164.029.059.008.119.01.178.018.131.018.26.031.392.045.059.006.119.016.18.02l.172.01c.129.01.262.016.394.021.065.002.129.008.195.01.051.002.104-.002.156 0 .143.002.283 0 .428-.002.068-.002.139 0 .205-.002l.121-.008c.18-.008.354-.02.529-.035.07-.006.141-.006.207-.014.024-.002.043-.006.065-.01a12.34 12.34 0 0 0 .92-.127c.088-.016.17-.037.254-.055.143-.029.283-.057.422-.09.105-.025.205-.055.309-.084.133-.035.266-.072.394-.111.027-.01.057-.016.084-.025.049-.016.09-.037.137-.053.207-.068.41-.145.605-.227.076-.033.15-.064.225-.098a7.601 7.601 0 0 0 .821-.424c.072-.041.133-.088.201-.133.094-.061.189-.121.279-.186.074-.053.141-.111.211-.166.082-.066.166-.133.24-.199l.047-.039c.1-.092.191-.185.277-.279.02-.021.035-.043.055-.064.051-.057.102-.113.146-.172.02-.025.033-.051.051-.076.068-.09.131-.182.186-.273.023-.037.055-.076.076-.111.012-.02.018-.039.027-.059a2.4 2.4 0 0 0 .113-.244c.021-.047.047-.09.064-.139.006-.014.008-.029.014-.045.027-.078.047-.158.068-.236.012-.051.033-.102.043-.152.004-.014.002-.027.006-.039.014-.086.02-.17.027-.254.004-.051.016-.1.018-.15v-.066l.035-.697c.001.072-.012.146-.018.218z"/><path fill="#ccc" d="M35.998 94.816c3.027 1.748 3.043 4.58.035 6.328-3.006 1.748-7.896 1.748-10.924 0-3.027-1.748-3.041-4.58-.035-6.328 3.006-1.746 7.897-1.746 10.924 0zm-11.371 20.107l.002.455-17.885-10.316v-.471z"/><path fill="gray" d="M24.627 114.923l9.435-6.746v1.737l-9.435 5.478z"/><path fill="#f2f2f2" d="M6.744 104.591l9.477-6.732 17.867 10.314-9.461 6.75z"/><path fill="#999" d="M24.199 112.658l.002.361-14.191-8.185v-.374z"/><path fill="#b3b3b3" d="M24.199 112.658l7.176-5.184v.428l-7.176 5.129z"/><path fill="#e6e6e6" d="M10.01 104.46l7.336-5.086 14.029 8.1-7.176 5.184zm29.636-21.341v21.285L16.812 91.232V69.947z"/><path fill="#0071bc" d="M38.334 83.585v18.834L18.127 90.765V71.931z"/><path fill="#999" d="M39.643 83.136l1.253-.681v21.285l-1.253.681z"/><path fill="#b3b3b3" d="M16.84 69.96l1.277-.682L40.93 82.449l-1.256.683z"/><path fill="none" stroke="#000" d="M22.693 94.624l1.461.842c-.883.754-1.326 1.629-1.324 2.504v-.012l-.033.697c-.004 1.152.758 2.305 2.279 3.186.182.105.373.203.566.297.066.031.135.059.205.088.113.051.227.104.344.15l.041.012c.267.105.547.199.83.283.024.006.045.014.066.021.064.018.131.031.195.047.158.043.318.084.482.119.045.008.084.021.127.031.062.014.129.021.191.033.139.025.274.051.412.072.057.008.107.02.164.029.059.008.119.01.178.018.131.018.26.031.392.045.059.006.119.016.18.02l.172.01c.129.01.262.016.394.021.065.002.129.008.195.01.051.002.104-.002.156 0 .143.002.283 0 .428-.002.068-.002.139 0 .205-.002l.121-.008c.18-.008.354-.02.529-.035.07-.006.141-.006.207-.014.024-.002.043-.006.065-.01a12.34 12.34 0 0 0 .92-.127c.088-.016.17-.037.254-.055.143-.029.283-.057.422-.09.105-.025.205-.055.309-.084.133-.035.266-.072.394-.111.027-.01.057-.016.084-.025.049-.016.09-.037.137-.053.207-.068.41-.145.605-.227.076-.033.15-.064.225-.098.106-.047.201-.104.303-.152l4.066 2.344v.021l1.254-.682V82.468l.033-.02-22.81-13.17-1.277.682m-.619 27.899l-9.477 6.732v.471l17.883 10.312v.018l9.435-5.478v-1.721l.026-.02-16.776-9.683-1.091-.631" stroke-linecap="round" stroke-linejoin="round"/><path fill="none" stroke="#000" d="M16.812 69.947v21.285l5.881 3.392" stroke-linecap="round" stroke-linejoin="round"/><path fill="#53586c" fill-rule="evenodd" d="M18.416 173.301l6.009-2.644 17.476-10.091 4.981-3.677v.297l-4.836 3.595-17.501 10.104-6.129 2.714z" clip-rule="evenodd"/><path fill="#2d334c" d="M.772 163.121l17.644 10.185v.293L.772 163.415z"/><g fill="#6c7082"><path fill-rule="evenodd" d="M18.416 173.003l6.009-2.644 17.476-10.09 4.981-3.679v.299l-4.836 3.595-17.501 10.103-6.129 2.714z" clip-rule="evenodd"/><path d="M.772 162.824l17.644 10.184v.293L.772 163.116z"/></g><path fill="#b3b3b3" d="M18.416 172.216l6.051-2.686 17.476-10.09 4.981-3.678v.913l-4.837 3.595-17.497 10.104-6.174 2.757z"/><path fill="#53586c" d="M.772 162.037l17.644 10.186v.908L.772 162.946z"/><path fill="#b3b3b3" d="M18.416 173.59l6.009-2.644 17.476-10.091 4.981-3.677v.912l-4.836 3.595-17.501 10.105-6.129 2.714z"/><path fill="#53586c" d="M.772 163.411l17.644 10.185v.908L.772 164.319z"/><path fill="#b3b3b3" d="M46.919 155.762l-5.071 3.746-17.602 10.163-5.83 2.546L.75 162.022l4.415-3.368 17.6-10.162 6.491-2.928z"/><path fill="#0071bc" d="M7.061 161.136l22.016-12.712 12.887 7.441-22.015 12.712z"/><path fill="#6c7082" d="M7.061 161.136l22.016-12.712.452.262-22.015 12.71z"/><path fill="#53586c" d="M29.075 148.948l.002-.524 12.887 7.441-.46.264z"/><path fill="#4d4d4d" d="M7.863 164.058c-.323-.187-.435-.425-.246-.533l.465-.268c.186-.108.599-.044.922.143l7.579 4.375c.322.186.434.425.246.532l-.464.27c-.187.108-.601.044-.923-.143l-7.579-4.376z"/><g fill="#fff"><path d="M9.297 163.829c.181.104.188.27.013.373a.718.718 0 0 1-.645-.008c-.184-.105-.189-.272-.014-.373a.714.714 0 0 1 .646.008zm1.308.756c.181.104.188.271.013.372-.175.101-.464.096-.647-.008-.183-.105-.188-.272-.013-.373a.716.716 0 0 1 .647.009zm1.309.754c.181.104.187.271.012.372a.717.717 0 0 1-.646-.007c-.183-.105-.189-.273-.013-.374a.723.723 0 0 1 .647.009zm1.307.756c.182.104.187.271.013.372a.717.717 0 0 1-.646-.007c-.182-.105-.188-.272-.012-.373a.71.71 0 0 1 .645.008zm1.309.755c.182.105.187.271.012.373a.714.714 0 0 1-.646-.008c-.182-.105-.188-.271-.012-.373a.711.711 0 0 1 .646.008zm1.308.755c.181.105.186.272.011.372a.717.717 0 0 1-.646-.007c-.181-.104-.188-.271-.011-.373a.711.711 0 0 1 .646.008z"/><path fill-rule="evenodd" d="M9.297 163.829c.181.104.188.27.013.373a.718.718 0 0 1-.645-.008c-.184-.105-.189-.272-.014-.373a.714.714 0 0 1 .646.008zm1.308.756c.181.104.188.271.013.372-.175.101-.464.096-.647-.008-.183-.105-.188-.272-.013-.373a.716.716 0 0 1 .647.009zm1.309.754c.181.104.187.271.012.372a.717.717 0 0 1-.646-.007c-.183-.105-.189-.273-.013-.374a.723.723 0 0 1 .647.009zm1.307.756c.182.104.187.271.013.372a.717.717 0 0 1-.646-.007c-.182-.105-.188-.272-.012-.373a.71.71 0 0 1 .645.008zm1.309.755c.182.105.187.271.012.373a.714.714 0 0 1-.646-.008c-.182-.105-.188-.271-.012-.373a.711.711 0 0 1 .646.008zm1.308.755c.181.105.186.272.011.372a.717.717 0 0 1-.646-.007c-.181-.104-.188-.271-.011-.373a.711.711 0 0 1 .646.008z" clip-rule="evenodd"/></g><path fill="#4d4d4d" d="M6.326 162.582c.24.138.249.36.017.493-.232.133-.614.129-.855-.009-.24-.139-.246-.36-.014-.494.23-.134.614-.129.852.01zm-1.575-.91c.24.138.248.359.015.493-.231.133-.612.129-.853-.009-.24-.14-.247-.36-.017-.494.232-.133.614-.129.855.01zm1.691-.931a.573.573 0 0 1-.518-.006l-.66-.38c-.144-.085-.149-.218-.009-.299l4.757-2.747a.575.575 0 0 1 .516.007l.659.381c.148.083.152.217.01.298l-4.755 2.746z"/><path fill="#009245" d="M23.755 167.854c.243.138.249.359.019.493-.232.133-.613.129-.856-.01-.238-.138-.246-.359-.016-.493.233-.134.613-.13.853.01zm1.666-.963c.242.139.249.361.019.494-.232.133-.613.129-.856-.009-.239-.139-.246-.36-.017-.494.234-.133.615-.129.854.009z"/><path fill="none" stroke="#000" stroke-width="1.5" stroke-miterlimit="3.864" d="M46.919 155.641l-11.413-6.588 3.359-9.66s-.231-.306-.447-.364c-.181-.049-.476.037-.476.037l-3.299 9.489-5.387-3.111-6.491 2.928-3.248 1.875-.116-.067-8.508 4.912.116.067-5.844 3.374-4.415 3.368.022 2.297 17.643 10.186 6.13-2.715 17.5-10.105 4.878-3.595v-2.329h-.004z" stroke-linejoin="round"/><g fill="#b3b3b3"><path d="M32.879 154.649l.169-1.508 4.895-14.076s.295-.085.476-.037c.216.059.447.364.447.364l-4.893 14.074-.773 1.263-.321-.08z"/><path d="M34.396 149.723c.221-.46.54-.76.714-.671.174.091.137.536-.085.996-.217.459-.538.759-.713.67-.171-.09-.134-.535.084-.995z"/></g><path fill="#b3b3b3" stroke="#333" stroke-width=".25" d="M32.879 154.649l.169-1.508 4.895-14.076s.295-.085.476-.037c.216.059.447.364.447.364l-4.893 14.074-.773 1.263-.321-.08z"/><path fill="#f2f2f2" fill-rule="evenodd" d="M34.396 149.723c.221-.46.54-.76.714-.671.174.091.137.536-.085.996-.217.459-.538.759-.713.67-.171-.09-.134-.535.084-.995z" clip-rule="evenodd"/><path fill="#4d4d4d" d="M21.859 151.592l-2.458-1.413-8.508 4.912 2.459 1.413zm5.867 13.207l2.392 1.374 8.505-4.91-2.394-1.374z"/><path fill="#53586c" d="M38.623 161.263l.031 2.224-8.504 4.911-.032-2.225"/><path fill="#fddfbb" fill-rule="evenodd" d="M110.846 172.909l-11.203-16.151 11.203-16.15h22.407l11.203 16.15-11.203 16.151z" clip-rule="evenodd"/><path fill="none" stroke="#000" d="M110.846 172.909l-11.203-16.151 11.203-16.15h22.407l11.203 16.15-11.203 16.151z" stroke-linecap="round" stroke-linejoin="round"/><path d="M115.623 152.316a5.304 5.304 0 0 1 1.331-.155c.804 0 1.403.168 1.823.575.396.408.563.947.563 1.583 0 1.031-.479 1.703-1.295 2.075v.023c.6.181.912.756 1.092 1.812.18 1.115.348 1.799.456 2.051h-.936c-.12-.24-.276-1.008-.432-2.003-.18-1.104-.528-1.523-1.319-1.523h-.36v3.526h-.923v-7.964zm.923 3.731h.384c.888 0 1.475-.647 1.475-1.619 0-.936-.384-1.512-1.379-1.523-.18 0-.36.012-.48.048v3.094zm3.985-3.731a5.304 5.304 0 0 1 1.331-.155c.804 0 1.403.168 1.823.575.396.408.563.947.563 1.583 0 1.031-.479 1.703-1.295 2.075v.023c.6.181.912.756 1.092 1.812.18 1.115.348 1.799.456 2.051h-.936c-.12-.24-.276-1.008-.432-2.003-.18-1.104-.528-1.523-1.319-1.523h-.36v3.526h-.923v-7.964zm.924 3.731h.384c.888 0 1.475-.647 1.475-1.619 0-.936-.384-1.512-1.379-1.523-.18 0-.36.012-.48.048v3.094zm7.51 4.09c-.252.132-.647.216-1.151.216-1.583 0-2.71-1.271-2.71-4.019 0-3.189 1.583-4.209 2.854-4.209.492 0 .839.096 1.007.204l-.204.779a1.767 1.767 0 0 0-.816-.168c-.863 0-1.871.84-1.871 3.31 0 2.471.911 3.287 1.895 3.287.348 0 .66-.084.852-.181l.144.781zM84.341 84.012h-2.027v3.034h2.303v.804h-3.226v-8.084h3.082v.804h-2.159v2.663h2.027v.779zm2.305-3.502v1.535h1.116v.707h-1.116v3.442c0 .756.276.96.612.96.144 0 .264-.013.372-.036l.036.707a1.995 1.995 0 0 1-.684.097c-.36 0-.684-.097-.912-.348-.228-.265-.348-.66-.348-1.464v-3.358h-.708v-.707h.708v-1.271l.924-.264zm1.932-.96h.924v3.119h.024c.12-.204.3-.385.479-.504.216-.132.444-.216.78-.216.731 0 1.355.587 1.355 2.051v3.85h-.923v-3.742c0-.707-.156-1.379-.779-1.379-.432 0-.756.312-.9.924-.024.132-.036.3-.036.443v3.754h-.924v-8.3zm5.508 5.481c.012 1.775.708 2.159 1.379 2.159.396 0 .732-.097.959-.229l.144.684c-.324.18-.815.276-1.271.276-1.392 0-2.111-1.14-2.111-2.915 0-1.883.792-3.058 1.955-3.058 1.188 0 1.655 1.247 1.655 2.566 0 .216 0 .372-.012.516h-2.698zm1.823-.683c.024-1.163-.419-1.679-.863-1.679-.6 0-.912.887-.948 1.679h1.811zm1.873-.804c0-.492-.036-1.067-.048-1.499h.827l.048.911h.024c.192-.552.684-1.007 1.223-1.007.072 0 .132.012.192.012v.947c-.06-.012-.12-.012-.192-.012-.587 0-1.02.54-1.115 1.211a3.534 3.534 0 0 0-.036.528v3.214h-.923v-4.305zm2.988 0c0-.684-.036-1.031-.048-1.499h.804l.048.695h.024c.252-.468.72-.791 1.332-.791.803 0 1.403.6 1.403 2.003v3.897h-.923v-3.742c0-.684-.132-1.379-.804-1.379-.384 0-.755.323-.875.947a3.26 3.26 0 0 0-.036.516v3.658h-.924v-4.305zm5.508 1.487c.012 1.775.708 2.159 1.379 2.159.396 0 .732-.097.959-.229l.144.684c-.324.18-.815.276-1.271.276-1.392 0-2.111-1.14-2.111-2.915 0-1.883.792-3.058 1.955-3.058 1.188 0 1.655 1.247 1.655 2.566 0 .216 0 .372-.012.516h-2.698zm1.823-.683c.024-1.163-.419-1.679-.863-1.679-.6 0-.912.887-.948 1.679h1.811zm3.012-3.838v1.535h1.116v.707h-1.116v3.442c0 .756.276.96.612.96.144 0 .264-.013.372-.036l.036.707a1.995 1.995 0 0 1-.684.097c-.36 0-.684-.097-.912-.348-.228-.265-.348-.66-.348-1.464v-3.358h-.708v-.707h.708v-1.271l.924-.264zm72.642-6.188c.359-.107.779-.155 1.246-.155.852 0 1.451.216 1.896.611.624.54 1.091 1.583 1.091 3.274 0 1.847-.455 2.854-.971 3.406-.527.6-1.295.875-2.23.875-.372 0-.756-.023-1.031-.084v-7.927zm.923 7.208c.132.024.264.024.348.024 1.02 0 2.003-.731 2.003-3.479 0-2.039-.623-3.154-1.919-3.154-.144 0-.312.013-.432.048v6.561zm4.236-.312c.276.18.756.324 1.163.324.84 0 1.344-.552 1.344-1.367 0-.744-.432-1.2-1.067-1.68-.636-.443-1.523-1.199-1.523-2.242 0-1.224.852-2.123 2.135-2.123.504 0 .948.155 1.14.3l-.229.791c-.203-.144-.539-.275-.959-.275-.791 0-1.163.6-1.163 1.151 0 .804.419 1.115 1.187 1.667.973.684 1.404 1.427 1.404 2.327 0 1.391-.984 2.267-2.268 2.267-.551 0-1.139-.181-1.367-.348l.203-.792zm4.513-7.016h.923v7.305h2.278v.779h-3.201v-8.084zm3.504 8.563l2.578-8.659h.695l-2.59 8.659h-.683zm7.521-.623c-.252.132-.648.216-1.152.216-1.582 0-2.71-1.271-2.71-4.019 0-3.189 1.583-4.209 2.854-4.209.492 0 .84.096 1.008.204l-.204.779a1.766 1.766 0 0 0-.815-.168c-.863 0-1.871.84-1.871 3.31 0 2.471.911 3.287 1.895 3.287.348 0 .66-.084.852-.181l.143.781zm3.049.144l-.061-.611h-.036c-.252.443-.659.707-1.151.707-.779 0-1.379-.659-1.379-1.655 0-1.451 1.163-2.099 2.471-2.11v-.18c0-.78-.192-1.319-.924-1.319-.359 0-.684.12-.959.3l-.204-.647c.239-.181.779-.384 1.354-.384 1.164 0 1.668.768 1.668 2.074v2.507c0 .443 0 .947.06 1.319h-.839zm-.133-2.998c-.479 0-1.595.084-1.595 1.343 0 .756.384 1.031.708 1.031.407 0 .755-.3.863-.875.023-.108.023-.229.023-.324v-1.175zm2.151 2.998c.012-.336.047-.995.047-1.392v-6.908h.924v3.179h.023c.301-.576.732-.779 1.225-.779.898 0 1.582 1.043 1.582 2.938 0 2.099-.863 3.058-1.763 3.058-.611 0-.923-.359-1.151-.852h-.036l-.06.756h-.791zm.97-2.051c0 .132 0 .264.036.359.216.864.611 1.02.863 1.02.743 0 1.008-1.007 1.008-2.242 0-1.164-.276-2.195-1.02-2.195-.432 0-.792.54-.864 1.031-.023.132-.023.276-.023.408v1.619zm3.876-6.249h.924v8.3h-.924v-8.3zm2.941 5.481c.012 1.775.707 2.159 1.379 2.159.396 0 .731-.097.959-.229l.145.684c-.324.18-.816.276-1.271.276-1.392 0-2.111-1.14-2.111-2.915 0-1.883.792-3.058 1.955-3.058 1.188 0 1.655 1.247 1.655 2.566 0 .216 0 .372-.013.516h-2.698zm1.822-.683c.023-1.163-.42-1.679-.863-1.679-.6 0-.912.887-.947 1.679h1.81zm1.334 3.981l2.578-8.659h.695l-2.59 8.659h-.683zm3.863-1.079c0-.408.276-.695.611-.695.373 0 .612.275.612.695s-.228.695-.612.695c-.347 0-.611-.275-.611-.695zm2.328 0c0-.408.275-.695.611-.695.372 0 .611.275.611.695s-.228.695-.611.695c-.347 0-.611-.275-.611-.695zm2.328 0c0-.408.275-.695.611-.695.372 0 .611.275.611.695s-.228.695-.611.695c-.347 0-.611-.275-.611-.695zm-45.407 85.946c.24.144.659.323 1.128.323.803 0 1.343-.588 1.343-1.559 0-1.02-.636-1.607-1.571-1.607h-.216v-.695h.181c.551-.013 1.402-.432 1.402-1.392 0-.779-.42-1.199-1.031-1.199-.384 0-.72.191-.971.372l-.205-.696c.289-.228.816-.443 1.404-.443 1.104 0 1.727.791 1.727 1.799 0 .779-.408 1.463-1.164 1.823v.023c.696.192 1.368.816 1.368 2.039 0 1.271-.815 2.303-2.231 2.303-.504 0-1.055-.144-1.367-.359l.203-.732zm8.782.791a4.129 4.129 0 0 1-1.439.276c-.707 0-1.367-.192-1.906-.792-.588-.623-.984-1.739-.973-3.214.013-3.143 1.619-4.222 3.047-4.222.504 0 .899.096 1.151.228l-.204.792c-.216-.108-.504-.192-.936-.192-1.008 0-2.099.804-2.099 3.311 0 2.494.947 3.298 1.919 3.298.312 0 .492-.06.563-.096v-2.639h-1.043v-.768h1.919v4.018zm.626.684l2.579-8.659h.695l-2.59 8.659h-.684zm6.083-.48v-2.146h-2.592v-.624l2.531-5.025h.899v4.894h.852v.756h-.852v2.146h-.838zm0-2.902v-2.207c0-.539.035-1.02.071-1.535h-.048c-.264.624-.432.996-.66 1.476l-1.079 2.242v.024h1.716zm6.515 2.698a4.134 4.134 0 0 1-1.439.276c-.708 0-1.367-.192-1.907-.792-.588-.623-.983-1.739-.971-3.214.012-3.143 1.619-4.222 3.046-4.222.504 0 .899.096 1.151.228l-.204.792c-.216-.108-.503-.192-.936-.192-1.007 0-2.099.804-2.099 3.311 0 2.494.947 3.298 1.919 3.298.312 0 .491-.06.563-.096v-2.639h-1.043v-.768h1.919v4.018zM88.562 16.648l-1.559-8.084h.959l.684 3.898c.168 1.02.3 1.919.396 2.914h.048c.096-1.02.288-1.895.48-2.926l.743-3.887h.792l.743 3.803c.18.959.36 1.883.468 3.01h.036a50.99 50.99 0 0 1 .432-2.962l.672-3.851h.899l-1.571 8.084h-.899l-.779-3.934a37.177 37.177 0 0 1-.408-2.65h-.024c-.12.911-.251 1.786-.443 2.687l-.804 3.897h-.865zm7.392-7.304c.012.359-.216.6-.563.6-.3 0-.528-.24-.528-.6s.24-.6.54-.6c.335.001.551.24.551.6zm-.995 7.304v-5.805h.924v5.805h-.924zm4.546-3.49v.72h-2.626v-.72h2.626zm1.081-4.594h3.082v.804h-2.159v2.831h2.015v.779h-2.015v3.67h-.923V8.564zm4.932.78c.012.359-.216.6-.563.6-.3 0-.528-.24-.528-.6s.24-.6.54-.6c.335.001.551.24.551.6zm-.995 7.304v-5.805h.924v5.805h-.924zm171.855 79.209l-1.559-8.084h.959l.684 3.898c.168 1.02.301 1.919.396 2.914h.048c.097-1.02.288-1.895.479-2.926l.744-3.887h.791l.744 3.803c.18.959.359 1.883.467 3.01h.037a49.32 49.32 0 0 1 .432-2.962l.672-3.851h.898l-1.57 8.084h-.9l-.779-3.934a37.177 37.177 0 0 1-.408-2.65h-.023a34.032 34.032 0 0 1-.443 2.687l-.804 3.897h-.865zm7.236-2.423l-.539 2.423h-.889l1.848-8.084h1.02l1.799 8.084h-.912l-.539-2.423h-1.788zm1.668-.743l-.42-2.051a39.439 39.439 0 0 1-.324-1.848h-.049a48.41 48.41 0 0 1-.323 1.848l-.419 2.051h1.535zm2.581 3.166v-8.084h.876l1.486 3.79c.336.864.756 1.943 1.031 2.818h.024a61.6 61.6 0 0 1-.108-3.718v-2.891H292v8.084h-.875l-1.535-3.886a28.865 28.865 0 0 1-.96-2.747h-.024c.072 1.08.096 2.111.096 3.838v2.795h-.839z"/><g fill="none" stroke="#000" stroke-miterlimit="3.864" clip-rule="evenodd"><path stroke-width=".5" d="M169.972 183.107l-6.934-12.229 7.186-3.024-4.727-7.249 4.475-2.457-3.274-3.401 3.526-1.894-2.592-3.497 2.697-1.307-1.967-2.419 1.992-1.245-2.097-2.677"/><path stroke-width=".5" d="M170.499 142.552l-2.004 1.282 1.859 2.744-2.369.833 2.629 2.65-3.515 1.557 2.964 3.714-3.621 2.06 3.309 4.207-5.377 2.821 5.424 9.815-8.145 2.948m8.319 5.924l7.328-11.995-7.082-3.258 5.654-7.13-5.086-2.565 3.498-3.48-3.578-1.819 2.715-3.304-2.662-1.501 2.062-2.092-1.968-1.57 2.183-2.607"/><path stroke-width=".5" d="M170.769 142.557l2.185 1.809-2.172 2.217 2.506 1.176-2.541 2.177 3.404 2.083-3.367 3.324 4.342 2.263-4.232 4.01 5.283 2.996-5.744 9.632 8.048 3.212m-10.431-44.268l2.553 1.134m-2.553 1.134l2.553 1.135m-2.553 1.135l2.553 1.134m-2.553 1.135l2.553 1.134m0-6.807l2.457-1.229m-2.457 3.498l2.457-1.229m-2.457 3.498l2.457-1.229m-2.457 3.498l2.457-1.229"/><path d="M170.538 130.635v12.89l-.566 39.582"/><path d="M179.427 177.183l-9.455 5.924-8.319-5.924 6.428-33.155v-13.109h5.041"/><path d="M169.972 183.107l9.455-6.01-6.305-33.635-.062-13.052"/></g></svg>