<svg xmlns="http://www.w3.org/2000/svg" viewBox="0 0 345.261 473.698"><path fill="none" stroke="#000" d="M61.88 91.873h173.705m-139.999 20H272.38M95.586 151.971h139.999" stroke-dasharray="1 1"/><path fill="#b2d4eb" fill-rule="evenodd" d="M73.786 96.801c0 1.98-1.62 3.6-3.6 3.6H7.48a3.61 3.61 0 0 1-3.6-3.6v-9.856c0-1.98 1.62-3.6 3.6-3.6h62.706c1.98 0 3.6 1.62 3.6 3.6v9.856z" clip-rule="evenodd"/><path fill="none" stroke="#000" d="M73.786 96.801c0 1.98-1.62 3.6-3.6 3.6H7.48a3.61 3.61 0 0 1-3.6-3.6v-9.856c0-1.98 1.62-3.6 3.6-3.6h62.706c1.98 0 3.6 1.62 3.6 3.6v9.856z" stroke-linecap="round" stroke-linejoin="round"/><path fill="#b2d4eb" fill-rule="evenodd" d="M326.786 116.801c0 1.98-1.62 3.6-3.6 3.6h-62.707c-1.979 0-3.6-1.62-3.6-3.6v-9.856c0-1.98 1.62-3.6 3.6-3.6h62.707c1.979 0 3.6 1.62 3.6 3.6v9.856z" clip-rule="evenodd"/><path fill="none" stroke="#000" d="M326.786 116.801c0 1.98-1.62 3.6-3.6 3.6h-62.707c-1.979 0-3.6-1.62-3.6-3.6v-9.856c0-1.98 1.62-3.6 3.6-3.6h62.707c1.979 0 3.6 1.62 3.6 3.6v9.856z" stroke-linecap="round" stroke-linejoin="round"/><path fill="none" stroke="#000" d="M61.88 131.873h173.705" stroke-dasharray="1 1"/><path fill="#b2dec7" fill-rule="evenodd" d="M73.786 141.788c0 1.98-1.62 3.6-3.6 3.6H7.48a3.61 3.61 0 0 1-3.6-3.6v-19.829c0-1.98 1.62-3.6 3.6-3.6h62.706c1.98 0 3.6 1.62 3.6 3.6v19.829z" clip-rule="evenodd"/><path fill="none" stroke="#000" d="M73.786 141.788c0 1.98-1.62 3.6-3.6 3.6H7.48a3.61 3.61 0 0 1-3.6-3.6v-19.829c0-1.98 1.62-3.6 3.6-3.6h62.706c1.98 0 3.6 1.62 3.6 3.6v19.829z" stroke-linecap="round" stroke-linejoin="round"/><path fill="none" stroke="#000" d="M95.586 191.873H272.38m-210.5 20h173.705" stroke-dasharray="1 1"/><path fill="#ecbec0" fill-rule="evenodd" d="M73.786 216.801c0 1.98-1.62 3.6-3.6 3.6H7.48a3.61 3.61 0 0 1-3.6-3.6v-9.856c0-1.98 1.62-3.6 3.6-3.6h62.706c1.98 0 3.6 1.62 3.6 3.6v9.856z" clip-rule="evenodd"/><path fill="none" stroke="#000" d="M73.786 216.801c0 1.98-1.62 3.6-3.6 3.6H7.48a3.61 3.61 0 0 1-3.6-3.6v-9.856c0-1.98 1.62-3.6 3.6-3.6h62.706c1.98 0 3.6 1.62 3.6 3.6v9.856z" stroke-linecap="round" stroke-linejoin="round"/><path fill="#b2dec7" fill-rule="evenodd" d="M327.01 196.801c0 1.98-1.62 3.6-3.6 3.6h-62.706a3.61 3.61 0 0 1-3.6-3.6v-9.856c0-1.98 1.62-3.6 3.6-3.6h62.706c1.979 0 3.6 1.62 3.6 3.6v9.856z" clip-rule="evenodd"/><path fill="none" stroke="#000" d="M327.01 196.801c0 1.98-1.62 3.6-3.6 3.6h-62.706a3.61 3.61 0 0 1-3.6-3.6v-9.856c0-1.98 1.62-3.6 3.6-3.6h62.706c1.979 0 3.6 1.62 3.6 3.6v9.856zM235.585 61.934v170.793" stroke-linecap="round" stroke-linejoin="round"/><path d="M232.584 231.852l2.991 5.181 2.992-5.181z"/><path fill="none" stroke="#0071bc" d="M95.586 94.319l135.544 13.554" stroke-linecap="round" stroke-linejoin="round"/><path fill="#0071bc" d="M229.96 110.772l5.454-2.461-4.858-3.493z"/><path fill="none" stroke="#0071bc" d="M235.585 114.319l-134.481 12.804" stroke-linecap="round" stroke-linejoin="round"/><path fill="#0071bc" d="M101.691 124.053l-4.875 3.469 5.442 2.487z"/><path fill="none" stroke="#0071bc" d="M95.586 134.319l134.628 13.304" stroke-linecap="round" stroke-linejoin="round"/><path fill="#0071bc" d="M229.048 150.523l5.45-2.467-4.862-3.487z"/><path fill="none" stroke="#009245" d="M95.586 137.319l134.628 13.304" stroke-linecap="round" stroke-linejoin="round"/><path fill="#009245" d="M229.048 153.523l5.45-2.467-4.862-3.487z"/><path fill="none" stroke="#009245" d="M235.585 194.319l-134.481 12.804" stroke-linecap="round" stroke-linejoin="round"/><path fill="#009245" d="M101.691 204.053l-4.875 3.468 5.442 2.488z"/><path fill="none" stroke="#000" d="M95.586 61.934v170.793" stroke-linecap="round" stroke-linejoin="round"/><path d="M92.585 231.852l2.991 5.181 2.991-5.181z"/><path fill="#ccc" d="M97.274 74.913v1.309L76.129 64.11v-1.307z"/><path fill="gray" d="M97.274 74.913l14.73-8.378v1.308l-14.73 8.381z"/><path fill="#fff" d="M76.129 62.805l14.709-8.43 21.166 12.16-14.73 8.378z"/><path fill="#999" d="M114.053 47.527l.988-.562-2.06 18.965-.99.564zM99.104 71.63v.254L81.231 61.647v-.252z"/><path fill="#b3b3b3" d="M99.104 71.63l10.123-5.759v.255l-10.123 5.76z"/><path fill="#e6e6e6" d="M81.231 61.396l10.107-5.8 17.889 10.275-10.123 5.759zm2.57 5.476l2.903-1.666 5.134 2.951-2.906 1.653zm30.252-19.345l-2.062 18.965L90.846 54.38l2.061-18.964z"/><path fill="#0071bc" d="M111.149 65.037L91.69 53.891l2.061-17.021 19.458 11.146-2.06 17.021z"/><path fill="#b3b3b3" d="M92.907 35.417l.971-.611 21.163 12.159-.988.562z"/><path fill="none" stroke="#000" d="M112.981 65.93l2.06-18.965-21.163-12.159-.969.61h-.002l-2.061 18.963-.008-.004-14.707 8.428h-.002v1.307l21.145 12.112v.002l14.73-8.381v-1.308l-.013-.043v.002z" stroke-linecap="round" stroke-linejoin="round"/><path fill="#b3b3b3" d="M232.214 50.153v29.234l-11.485-7.06V43.089z"/><path fill="#333" d="M230.085 51.071v3.491l-8.19-5.038v-3.492zm0 11.77v3.486l-8.19-5.037v-3.488z"/><path fill="#e6e6e6" d="M230.085 58.454v1.008l-8.19-5.035v-1.014z"/><path fill="#333" d="M230.085 67.796v3.486l-8.19-5.035v-3.49zm0 4.953v3.489l-8.19-5.038v-3.488z"/><path fill="gray" d="M232.208 50.171l18.203-11.483v29.237l-18.203 11.481z"/><path fill="#999" d="M220.755 43.106l18.224-11.482 11.461 7.061-18.205 11.482z"/><path fill="#009245" d="M222.171 50.003c.18.105.318.365.318.582 0 .211-.141.303-.318.191a.744.744 0 0 1-.312-.582c-.001-.216.14-.298.312-.191"/><path fill="#c1272d" d="M222.94 50.478c.178.107.316.369.316.586 0 .211-.146.299-.318.191-.176-.105-.316-.367-.316-.582 0-.217.143-.305.318-.195"/><path fill="#009245" d="M223.708 50.942a.76.76 0 0 1 .316.582c0 .217-.145.303-.318.195-.178-.107-.316-.373-.316-.588 0-.21.14-.296.318-.189"/><path fill="#c1272d" d="M224.474 51.415c.176.107.314.367.314.584-.002.211-.143.299-.32.189-.172-.105-.314-.369-.314-.582-.001-.214.144-.302.32-.191m.775.475a.74.74 0 0 1 .316.584c0 .215-.141.303-.318.191a.755.755 0 0 1-.312-.582c0-.213.14-.301.314-.193"/><path fill="#009245" d="M226.017 52.368c.178.105.316.367.316.582 0 .215-.141.301-.318.193-.174-.106-.316-.367-.316-.584-.001-.212.142-.302.318-.191m.767.461a.75.75 0 0 1 .314.584c0 .219-.143.303-.314.193-.178-.107-.318-.369-.318-.584 0-.212.142-.3.318-.193m.768.475c.172.105.312.365.312.582s-.141.299-.318.191a.74.74 0 0 1-.312-.582c-.001-.217.142-.305.318-.191"/><path fill="#c1272d" d="M222.171 51.138c.18.105.318.369.318.584 0 .213-.141.297-.318.193a.746.746 0 0 1-.312-.586c-.001-.215.14-.299.312-.191m.769.474c.178.109.316.369.316.586 0 .213-.146.303-.318.193-.176-.109-.316-.373-.316-.586 0-.214.143-.298.318-.193"/><path fill="#009245" d="M223.708 52.077c.172.104.316.373.316.582 0 .217-.145.303-.318.197-.178-.109-.316-.371-.316-.588 0-.212.14-.298.318-.191"/><path fill="#c1272d" d="M224.474 52.55c.176.105.314.367.314.584-.002.211-.143.299-.32.193a.774.774 0 0 1-.314-.584c-.001-.217.144-.305.32-.193"/><path fill="#009245" d="M225.249 53.024a.742.742 0 0 1 .316.582c0 .217-.141.305-.318.197-.172-.107-.312-.371-.312-.584 0-.214.14-.302.314-.195"/><path fill="#c1272d" d="M226.017 53.499c.178.107.316.375.316.586 0 .217-.141.301-.318.195a.757.757 0 0 1-.316-.584c-.001-.215.142-.302.318-.197"/><path fill="#009245" d="M226.784 53.964a.763.763 0 0 1 .314.586c0 .217-.143.303-.314.191-.178-.104-.318-.367-.318-.582 0-.215.142-.303.318-.195"/><path fill="#c1272d" d="M227.552 54.435c.172.111.312.369.312.586s-.141.299-.318.195a.757.757 0 0 1-.312-.584c-.001-.219.142-.301.318-.197"/><path fill="#009245" d="M228.144 59.317c.178.108.32.367.32.586 0 .211-.145.299-.32.193a.762.762 0 0 1-.316-.586c-.001-.214.14-.3.316-.193m.769.463a.763.763 0 0 1 .312.586c0 .215-.141.299-.312.193a.742.742 0 0 1-.318-.584c0-.214.14-.298.318-.195"/><path fill="#c1272d" d="M229.677 60.253c.176.107.316.367.316.584 0 .211-.141.303-.318.193a.744.744 0 0 1-.314-.584c-.001-.215.142-.304.316-.193m-1.533.201c.178.105.32.367.32.586 0 .213-.145.299-.32.188-.178-.104-.316-.369-.316-.582-.001-.213.14-.303.316-.192m.769.463a.772.772 0 0 1 .312.582c0 .217-.141.305-.312.193-.18-.105-.318-.369-.318-.582 0-.216.14-.3.318-.193"/><path fill="#009245" d="M229.677 61.39c.176.104.316.365.316.582 0 .215-.141.303-.318.191a.731.731 0 0 1-.314-.582c-.001-.213.142-.301.316-.191"/><path fill="none" stroke="#000" d="M250.44 38.685l-11.462-7.061-18.223 11.482-.026-.017v29.238l11.479 7.06v.019l18.201-11.481V38.704z" stroke-linecap="round" stroke-linejoin="round"/><path fill="none" stroke="#b3b3b3" d="M.5 12.373h344.261" clip-rule="evenodd" stroke-linecap="round" stroke-linejoin="round"/><path fill="none" stroke="#000" d="M61.88 341.873h173.705m-139.999 20H272.38M95.586 401.971h139.999" stroke-dasharray="1 1"/><path fill="#b2d4eb" fill-rule="evenodd" d="M73.786 346.801c0 1.98-1.62 3.601-3.6 3.601H7.48a3.61 3.61 0 0 1-3.6-3.601v-9.855c0-1.98 1.62-3.601 3.6-3.601h62.706c1.98 0 3.6 1.62 3.6 3.601v9.855z" clip-rule="evenodd"/><path fill="none" stroke="#000" d="M73.786 346.801c0 1.98-1.62 3.601-3.6 3.601H7.48a3.61 3.61 0 0 1-3.6-3.601v-9.855c0-1.98 1.62-3.601 3.6-3.601h62.706c1.98 0 3.6 1.62 3.6 3.601v9.855z" stroke-linecap="round" stroke-linejoin="round"/><path fill="#b2d4eb" fill-rule="evenodd" d="M326.786 366.801c0 1.98-1.62 3.601-3.6 3.601h-62.707c-1.979 0-3.6-1.62-3.6-3.601v-9.855c0-1.98 1.62-3.601 3.6-3.601h62.707c1.979 0 3.6 1.62 3.6 3.601v9.855z" clip-rule="evenodd"/><path fill="none" stroke="#000" d="M326.786 366.801c0 1.98-1.62 3.601-3.6 3.601h-62.707c-1.979 0-3.6-1.62-3.6-3.601v-9.855c0-1.98 1.62-3.601 3.6-3.601h62.707c1.979 0 3.6 1.62 3.6 3.601v9.855z" stroke-linecap="round" stroke-linejoin="round"/><path fill="none" stroke="#000" d="M61.88 381.873h173.705" stroke-dasharray="1 1"/><path fill="#b2dec7" fill-rule="evenodd" d="M73.786 391.787c0 1.98-1.62 3.6-3.6 3.6H7.48a3.61 3.61 0 0 1-3.6-3.6v-19.828c0-1.98 1.62-3.6 3.6-3.6h62.706c1.98 0 3.6 1.62 3.6 3.6v19.828z" clip-rule="evenodd"/><path fill="none" stroke="#000" d="M73.786 391.787c0 1.98-1.62 3.6-3.6 3.6H7.48a3.61 3.61 0 0 1-3.6-3.6v-19.828c0-1.98 1.62-3.6 3.6-3.6h62.706c1.98 0 3.6 1.62 3.6 3.6v19.828z" stroke-linecap="round" stroke-linejoin="round"/><path fill="none" stroke="#000" d="M95.586 429.873H272.38m-210.5 20h173.705" stroke-dasharray="1 1"/><path fill="#ecbec0" fill-rule="evenodd" d="M73.786 454.801c0 1.98-1.62 3.601-3.6 3.601H7.48a3.61 3.61 0 0 1-3.6-3.601v-9.855c0-1.98 1.62-3.601 3.6-3.601h62.706c1.98 0 3.6 1.62 3.6 3.601v9.855z" clip-rule="evenodd"/><path fill="none" stroke="#000" d="M73.786 454.801c0 1.98-1.62 3.601-3.6 3.601H7.48a3.61 3.61 0 0 1-3.6-3.601v-9.855c0-1.98 1.62-3.601 3.6-3.601h62.706c1.98 0 3.6 1.62 3.6 3.601v9.855z" stroke-linecap="round" stroke-linejoin="round"/><path fill="#b2dec7" fill-rule="evenodd" d="M327.01 434.801c0 1.98-1.62 3.601-3.6 3.601h-62.706a3.61 3.61 0 0 1-3.6-3.601v-9.855c0-1.98 1.62-3.601 3.6-3.601h62.706c1.979 0 3.6 1.62 3.6 3.601v9.855z" clip-rule="evenodd"/><path fill="none" stroke="#000" d="M327.01 434.801c0 1.98-1.62 3.601-3.6 3.601h-62.706a3.61 3.61 0 0 1-3.6-3.601v-9.855c0-1.98 1.62-3.601 3.6-3.601h62.706c1.979 0 3.6 1.62 3.6 3.601v9.855zm-91.425-122.867v157.458" stroke-linecap="round" stroke-linejoin="round"/><path d="M232.584 468.517l2.991 5.181 2.992-5.181z"/><path fill="none" stroke="#0071bc" d="M95.586 344.319l135.544 13.554" stroke-linecap="round" stroke-linejoin="round"/><path fill="#0071bc" d="M229.96 360.771l5.454-2.461-4.858-3.492z"/><path fill="none" stroke="#0071bc" d="M235.585 364.319l-134.481 12.804" stroke-linecap="round" stroke-linejoin="round"/><path fill="#0071bc" d="M101.691 374.053l-4.875 3.468 5.442 2.488z"/><path fill="none" stroke="#0071bc" d="M95.586 384.319l134.628 13.304" stroke-linecap="round" stroke-linejoin="round"/><path fill="#0071bc" d="M229.048 400.523l5.45-2.467-4.862-3.487z"/><path fill="none" stroke="#009245" d="M95.586 387.319l134.628 13.304" stroke-linecap="round" stroke-linejoin="round"/><path fill="#009245" d="M229.048 403.523l5.45-2.467-4.862-3.487z"/><path fill="none" stroke="#009245" d="M235.585 432.319l-134.481 12.804" stroke-linecap="round" stroke-linejoin="round"/><path fill="#009245" d="M101.691 442.053l-4.875 3.468 5.442 2.488z"/><path fill="none" stroke="#000" d="M95.586 311.934v157.458" stroke-linecap="round" stroke-linejoin="round"/><path d="M92.585 468.517l2.991 5.181 2.991-5.181z"/><path fill="#ccc" d="M97.274 324.914v1.309l-21.145-12.114v-1.306z"/><path fill="gray" d="M97.274 324.914l14.73-8.379v1.309l-14.73 8.381z"/><path fill="#fff" d="M76.129 312.805l14.709-8.43 21.166 12.16-14.73 8.379z"/><path fill="#999" d="M114.053 297.527l.988-.562-2.06 18.965-.99.564zm-14.949 24.104v.254l-17.873-10.238v-.252z"/><path fill="#b3b3b3" d="M99.104 321.631l10.123-5.76v.255l-10.123 5.761z"/><path fill="#e6e6e6" d="M81.231 311.396l10.107-5.8 17.889 10.275-10.123 5.76zm2.57 5.476l2.903-1.666 5.134 2.95-2.906 1.654zm30.252-19.345l-2.062 18.965-21.145-12.112 2.061-18.964z"/><path fill="#0071bc" d="M111.149 315.037L91.69 303.891l2.061-17.021 19.458 11.146-2.06 17.021z"/><path fill="#b3b3b3" d="M92.907 285.417l.971-.611 21.163 12.159-.988.562z"/><path fill="none" stroke="#000" d="M112.981 315.93l2.06-18.965-21.163-12.159-.969.61h-.002l-2.061 18.963-.008-.004-14.707 8.428h-.002v1.306l21.145 12.114v.002l14.73-8.381v-1.309l-.013-.043v.002z" stroke-linecap="round" stroke-linejoin="round"/><path fill="#b3b3b3" d="M232.214 300.153v29.234l-11.485-7.06v-29.238z"/><path fill="#333" d="M230.085 301.071v3.49l-8.19-5.037v-3.492zm0 11.77v3.486l-8.19-5.037v-3.488z"/><path fill="#e6e6e6" d="M230.085 308.454v1.008l-8.19-5.035v-1.014z"/><path fill="#333" d="M230.085 317.796v3.486l-8.19-5.035v-3.49zm0 4.953v3.489l-8.19-5.038v-3.488z"/><path fill="gray" d="M232.208 300.171l18.203-11.483v29.237l-18.203 11.481z"/><path fill="#999" d="M220.755 293.106l18.224-11.482 11.461 7.061-18.205 11.482z"/><path fill="#009245" d="M222.171 300.003c.18.105.318.365.318.582 0 .211-.141.303-.318.191a.744.744 0 0 1-.312-.582c-.001-.216.14-.298.312-.191"/><path fill="#c1272d" d="M222.94 300.478c.178.107.316.369.316.586 0 .211-.146.299-.318.191-.176-.105-.316-.367-.316-.582 0-.217.143-.305.318-.195"/><path fill="#009245" d="M223.708 300.942a.76.76 0 0 1 .316.582c0 .217-.145.303-.318.195-.178-.107-.316-.373-.316-.588 0-.21.14-.296.318-.189"/><path fill="#c1272d" d="M224.474 301.415c.176.107.314.367.314.584-.002.211-.143.299-.32.189-.172-.105-.314-.369-.314-.582-.001-.214.144-.302.32-.191m.775.475a.74.74 0 0 1 .316.584c0 .215-.141.303-.318.191a.755.755 0 0 1-.312-.582c0-.213.14-.301.314-.193"/><path fill="#009245" d="M226.017 302.368c.178.105.316.367.316.582 0 .215-.141.301-.318.193-.174-.105-.316-.367-.316-.584-.001-.212.142-.302.318-.191m.767.461a.75.75 0 0 1 .314.584c0 .219-.143.303-.314.193-.178-.107-.318-.369-.318-.584 0-.212.142-.3.318-.193m.768.475c.172.105.312.365.312.582s-.141.299-.318.191a.74.74 0 0 1-.312-.582c-.001-.217.142-.305.318-.191"/><path fill="#c1272d" d="M222.171 301.138c.18.105.318.369.318.584 0 .213-.141.297-.318.193a.746.746 0 0 1-.312-.586c-.001-.215.14-.299.312-.191m.769.474c.178.109.316.369.316.586 0 .213-.146.303-.318.193-.176-.109-.316-.373-.316-.586 0-.214.143-.298.318-.193"/><path fill="#009245" d="M223.708 302.077c.172.104.316.373.316.582 0 .217-.145.303-.318.197-.178-.109-.316-.371-.316-.588 0-.212.14-.298.318-.191"/><path fill="#c1272d" d="M224.474 302.55c.176.105.314.367.314.584-.002.211-.143.299-.32.193a.774.774 0 0 1-.314-.584c-.001-.217.144-.305.32-.193"/><path fill="#009245" d="M225.249 303.024a.742.742 0 0 1 .316.582c0 .217-.141.305-.318.197-.172-.108-.312-.371-.312-.584 0-.214.14-.302.314-.195"/><path fill="#c1272d" d="M226.017 303.499c.178.107.316.375.316.586 0 .217-.141.301-.318.195a.757.757 0 0 1-.316-.584c-.001-.215.142-.303.318-.197"/><path fill="#009245" d="M226.784 303.964a.763.763 0 0 1 .314.586c0 .217-.143.303-.314.191-.178-.104-.318-.367-.318-.582 0-.215.142-.303.318-.195"/><path fill="#c1272d" d="M227.552 304.435c.172.111.312.369.312.586s-.141.299-.318.195a.757.757 0 0 1-.312-.584c-.001-.219.142-.301.318-.197"/><path fill="#009245" d="M228.144 309.317c.178.108.32.367.32.586 0 .211-.145.299-.32.193a.762.762 0 0 1-.316-.586c-.001-.214.14-.3.316-.193m.769.463a.763.763 0 0 1 .312.586c0 .215-.141.299-.312.193a.742.742 0 0 1-.318-.584c0-.214.14-.298.318-.195"/><path fill="#c1272d" d="M229.677 310.253c.176.107.316.367.316.584 0 .211-.141.303-.318.193a.744.744 0 0 1-.314-.584c-.001-.215.142-.304.316-.193m-1.533.201c.178.105.32.367.32.586 0 .213-.145.299-.32.188-.178-.104-.316-.369-.316-.582-.001-.213.14-.303.316-.192m.769.463a.772.772 0 0 1 .312.582c0 .217-.141.305-.312.193-.18-.105-.318-.369-.318-.582 0-.217.14-.3.318-.193"/><path fill="#009245" d="M229.677 311.39c.176.104.316.365.316.582 0 .215-.141.303-.318.191a.731.731 0 0 1-.314-.582c-.001-.213.142-.301.316-.191"/><path fill="none" stroke="#000" d="M250.44 288.685l-11.462-7.061-18.223 11.482-.026-.017v29.238l11.479 7.06v.019l18.201-11.481v-29.221z" stroke-linecap="round" stroke-linejoin="round"/><path fill="none" stroke="#b3b3b3" d="M.5 262.373h344.261" clip-rule="evenodd" stroke-linecap="round" stroke-linejoin="round"/><path d="M239.865 94.383c-.808 0-1.296-.959-1.296-2.654 0-1.751.521-2.67 1.367-2.67.84 0 1.279.999 1.279 2.654 0 1.895-.6 2.67-1.343 2.67h-.007zm.04-.528c.496 0 .695-.888.695-2.135 0-1.215-.199-2.135-.695-2.135-.504 0-.72.88-.72 2.135-.008 1.256.208 2.135.712 2.135h.008zm3.217-2.406c0-.456-.024-.688-.032-1h.544l.031.472h.017c.167-.312.456-.535.863-.535.36 0 .672.168.815.583h.016c.104-.191.24-.344.377-.439.159-.096.335-.144.535-.144.527 0 .936.376.936 1.367v2.566h-.615v-2.431c0-.504-.072-.991-.536-.991-.256 0-.479.216-.567.583-.024.097-.024.217-.024.344v2.495h-.616v-2.543c0-.424-.071-.879-.527-.879-.256 0-.504.216-.576.632a2.028 2.028 0 0 0-.023.327v2.463h-.615v-2.87zm4.856 2.231c.137.088.376.2.624.2.344 0 .567-.216.567-.56 0-.296-.104-.504-.496-.76-.504-.328-.775-.664-.775-1.104 0-.632.464-1.071 1.063-1.071.304 0 .528.096.688.199l-.16.464a.884.884 0 0 0-.52-.176c-.328 0-.496.24-.496.496s.096.407.479.663c.448.288.8.648.8 1.184 0 .775-.527 1.151-1.168 1.151-.279 0-.592-.088-.76-.224l.154-.462zM77.922 114.319v-.399l.432-.592c.624-.863 1.352-1.839 1.352-2.814 0-.576-.248-.928-.736-.928-.375 0-.624.2-.751.288l-.152-.464a1.624 1.624 0 0 1 1.015-.352c.864 0 1.239.64 1.239 1.423 0 .976-.64 1.927-1.287 2.799l-.344.479v.016h1.727v.544h-2.495zm4.423-5.26c.744 0 1.12.623 1.12 1.223 0 .456-.216.896-.696 1.231v.017c.479.327.832.791.832 1.423 0 .808-.536 1.431-1.335 1.431-.863 0-1.295-.688-1.295-1.327 0-.735.432-1.199.856-1.495l-.008-.016c-.432-.296-.68-.752-.68-1.191 0-.8.568-1.295 1.2-1.295h.006zm-.056 4.869c.384 0 .704-.288.704-.943 0-.6-.344-.936-.744-1.199a1.388 1.388 0 0 0-.671 1.167c0 .584.264.976.704.976h.007zm.016-4.414c-.344 0-.576.328-.576.8 0 .527.32.792.64.999.312-.224.512-.567.512-.959 0-.504-.2-.84-.567-.84h-.009zm3.209 1.935c0-.456-.024-.688-.032-1h.543l.032.472h.016c.168-.312.456-.535.864-.535.36 0 .671.168.815.583h.016c.104-.191.24-.344.376-.439.16-.096.335-.144.536-.144.528 0 .936.376.936 1.367v2.566H89v-2.431c0-.504-.072-.991-.536-.991-.256 0-.48.216-.568.583-.024.097-.024.217-.024.344v2.495h-.616v-2.543c0-.424-.072-.879-.528-.879-.256 0-.503.216-.576.632a2.02 2.02 0 0 0-.024.327v2.463h-.616v-2.87zm4.856 2.231c.136.088.376.2.624.2.344 0 .567-.216.567-.56 0-.296-.104-.504-.496-.76-.504-.328-.775-.664-.775-1.104 0-.632.463-1.071 1.063-1.071.304 0 .527.096.688.199l-.16.464a.884.884 0 0 0-.52-.176c-.328 0-.496.24-.496.496s.096.407.479.663c.448.288.8.648.8 1.184 0 .775-.528 1.151-1.167 1.151-.28 0-.592-.088-.76-.224l.153-.462zm-11.105 35.379c.744 0 1.12.623 1.12 1.223 0 .456-.216.896-.696 1.231v.017c.479.327.832.791.832 1.423 0 .808-.536 1.431-1.335 1.431-.863 0-1.295-.688-1.295-1.327 0-.735.432-1.199.856-1.495l-.008-.016c-.432-.296-.68-.752-.68-1.191 0-.8.568-1.295 1.2-1.295h.006zm-.056 4.869c.384 0 .704-.288.704-.943 0-.6-.344-.936-.744-1.199a1.388 1.388 0 0 0-.671 1.167c0 .584.264.976.704.976h.007zm.016-4.414c-.344 0-.576.328-.576.8 0 .527.32.792.64.999.312-.224.512-.567.512-.959 0-.504-.2-.84-.567-.84h-.009zm3.392 4.805v-1.439H80.89v-.415l1.687-3.343h.6v3.254h.56v.504h-.56v1.439h-.56zm0-1.943v-1.463c0-.359.024-.68.048-1.023h-.032c-.176.416-.288.655-.439.976l-.72 1.495v.016h1.143zm2.897-.927c0-.456-.024-.688-.032-1h.543l.032.472h.016c.168-.312.456-.535.864-.535.36 0 .671.168.815.583h.016c.104-.191.24-.344.376-.439.16-.096.335-.144.536-.144.528 0 .936.376.936 1.367v2.566H89v-2.431c0-.504-.072-.991-.536-.991-.256 0-.48.216-.568.583-.024.097-.024.217-.024.344v2.495h-.616v-2.543c0-.424-.072-.879-.528-.879-.256 0-.503.216-.576.632a2.02 2.02 0 0 0-.024.327v2.463h-.616v-2.87zm4.856 2.231c.136.088.376.2.624.2.344 0 .567-.216.567-.56 0-.296-.104-.504-.496-.76-.504-.328-.775-.664-.775-1.104 0-.632.463-1.071 1.063-1.071.304 0 .527.096.688.199l-.16.464a.884.884 0 0 0-.52-.176c-.328 0-.496.24-.496.496s.096.407.479.663c.448.288.8.648.8 1.184 0 .775-.528 1.151-1.167 1.151-.28 0-.592-.088-.76-.224l.153-.462zM33.183 93.918c.23.14.63.27.97.27.699 0 1.119-.459 1.119-1.139 0-.62-.36-1-.89-1.399-.53-.37-1.269-.999-1.269-1.869 0-1.02.72-1.769 1.779-1.769.42 0 .79.14.95.249l-.19.66a1.41 1.41 0 0 0-.8-.229c-.66 0-.969.499-.969.959 0 .67.35.939.989 1.39.81.569 1.169 1.189 1.169 1.938 0 1.159-.819 1.889-1.889 1.889-.46 0-.95-.149-1.14-.3l.171-.65zm4.739.89v-2.849l-1.489-3.888h.82l.6 1.689c.16.47.35.999.5 1.519h.02c.13-.52.31-1.029.49-1.549l.57-1.659h.799l-1.539 3.858v2.878h-.771zm2.971 0v-6.736h.719l1.239 3.158c.28.729.63 1.619.86 2.349h.02c-.06-1.06-.09-1.929-.09-3.098v-2.409h.689v6.736h-.72l-1.279-3.238c-.28-.68-.57-1.449-.81-2.289h-.02c.06.899.08 1.76.08 3.198v2.329h-.688zm49.415-68.123c-.209.11-.549.18-.969.18-1.309 0-2.259-1.049-2.259-3.338 0-2.668 1.319-3.518 2.389-3.518.4 0 .7.08.83.17l-.17.649c-.16-.07-.32-.14-.669-.14-.72 0-1.569.699-1.569 2.758 0 2.069.76 2.738 1.589 2.738.29 0 .54-.069.699-.14l.129.641zm.722-6.795h.77v6.916h-.77V19.89zm2.269 1.329c-.25 0-.439-.2-.439-.5s.2-.499.45-.499c.28 0 .459.199.459.499s-.18.5-.459.5h-.011zm-.36 5.587v-4.837h.77v4.837h-.77zm2.38-2.349c.01 1.489.589 1.799 1.139 1.799.34 0 .61-.08.8-.18l.13.56c-.27.15-.68.229-1.069.229-1.149 0-1.75-.939-1.75-2.429 0-1.568.66-2.548 1.629-2.548.979 0 1.379 1.039 1.379 2.129 0 .189-.01.319-.02.439h-2.238zm1.519-.569c.01-.97-.35-1.399-.72-1.399-.5 0-.76.739-.79 1.399h1.51zm1.571-.67c0-.569-.03-.859-.04-1.249h.67l.04.579h.02c.21-.39.6-.659 1.109-.659.669 0 1.169.489 1.169 1.669v3.248h-.77v-3.118c0-.58-.11-1.149-.669-1.149-.32 0-.629.27-.72.789-.03.11-.04.261-.04.431v3.048h-.77v-3.589zm4.93-2.379v1.13h.93v.579h-.93v2.879c0 .64.22.799.5.799.13 0 .23-.01.31-.029l.04.59c-.14.05-.32.079-.57.079-.31 0-.58-.079-.759-.289-.2-.221-.29-.55-.29-1.22v-2.809h-.589v-.579h.589v-.82l.769-.31zM5.219 2.613H4.01v-.979h3.488v.979H6.289V8.37h-1.07V2.613zm5.899 5.647c-.2.101-.55.17-.989.17-1.54 0-2.419-1.259-2.419-3.338 0-2.589 1.369-3.518 2.569-3.518.439 0 .75.09.879.17l-.2.909c-.16-.08-.32-.14-.64-.14-.729 0-1.479.669-1.479 2.508 0 1.81.68 2.459 1.489 2.459.25 0 .5-.06.66-.12l.13.9zm.752-6.527c.34-.079.779-.13 1.249-.13.71 0 1.29.13 1.689.51.36.34.54.859.54 1.439 0 .68-.19 1.14-.5 1.499-.399.47-1.049.7-1.619.7-.11 0-.2 0-.3-.011v2.63H11.87V1.733zm1.059 3.129c.08.02.15.02.26.02.699 0 1.089-.479 1.089-1.249 0-.63-.26-1.159-.979-1.159-.15 0-.28.02-.37.05v2.338zm7.289 3.408c-.15.08-.46.159-.819.159-1.16 0-1.929-.859-1.929-2.458 0-1.459.81-2.539 2.099-2.539.29 0 .57.07.7.14l-.16.85c-.11-.04-.28-.109-.52-.109-.689 0-1.049.739-1.049 1.639 0 1 .4 1.6 1.049 1.6.2 0 .37-.04.52-.11l.109.828zm2.081.18c-1.03 0-1.739-.859-1.739-2.499 0-1.769.87-2.528 1.779-2.528 1.02 0 1.719.89 1.719 2.499 0 1.969-1.02 2.528-1.749 2.528h-.01zm.039-.819c.53 0 .65-.96.65-1.699 0-.71-.12-1.689-.669-1.689-.58 0-.69.979-.69 1.689 0 .819.14 1.699.7 1.699h.009zm2.511-2.759c0-.55-.02-.939-.04-1.369h.93l.05.569h.02c.23-.39.64-.649 1.149-.649.819 0 1.249.63 1.249 1.759V8.37h-1.069V5.282c0-.49-.1-.96-.569-.96-.26 0-.5.2-.6.6-.03.1-.05.26-.05.439V8.37H24.85V4.872zm4.34 0c0-.55-.02-.939-.04-1.369h.93l.05.569h.02c.23-.39.64-.649 1.149-.649.819 0 1.249.63 1.249 1.759V8.37h-1.069V5.282c0-.49-.1-.96-.569-.96-.26 0-.5.2-.6.6-.03.1-.05.26-.05.439V8.37H29.19V4.872zm5.199 1.35c.01 1.089.51 1.389 1.08 1.389.36 0 .66-.08.87-.17l.16.76c-.31.14-.779.229-1.219.229-1.259 0-1.929-.909-1.929-2.418 0-1.609.77-2.589 1.809-2.589 1.02 0 1.54.93 1.54 2.229 0 .28-.01.44-.03.57h-2.281zm1.32-.76c.01-.779-.25-1.239-.629-1.239-.46 0-.67.669-.69 1.239h1.319zm4.319 2.808c-.15.08-.46.159-.819.159-1.16 0-1.929-.859-1.929-2.458 0-1.459.81-2.539 2.099-2.539.29 0 .57.07.7.14l-.16.85c-.11-.04-.28-.109-.52-.109-.689 0-1.049.739-1.049 1.639 0 1 .4 1.6 1.049 1.6.2 0 .37-.04.52-.11l.109.828zm2.021-5.977v1.21h.939v.77h-.939v2.528c0 .6.23.75.5.75.12 0 .22-.01.33-.03l.02.83c-.16.05-.4.079-.7.079-.34 0-.649-.09-.859-.3-.24-.239-.36-.589-.36-1.319V4.272h-.58v-.77h.58v-.84l1.069-.369zm2.091.56c-.31 0-.56-.25-.56-.62 0-.38.26-.619.569-.619.34 0 .58.239.58.619 0 .37-.24.62-.58.62h-.009zm-.51 5.517V3.503h1.069V8.37h-1.069zm3.599.08c-1.03 0-1.739-.859-1.739-2.499 0-1.769.87-2.528 1.779-2.528 1.019 0 1.719.89 1.719 2.499 0 1.969-1.02 2.528-1.749 2.528h-.01zm.04-.819c.529 0 .649-.96.649-1.699 0-.71-.12-1.689-.669-1.689-.58 0-.69.979-.69 1.689 0 .819.14 1.699.7 1.699h.01zm2.51-2.759c0-.55-.02-.939-.04-1.369h.93l.05.569h.02c.23-.39.64-.649 1.149-.649.819 0 1.249.63 1.249 1.759V8.37h-1.069V5.282c0-.49-.1-.96-.569-.96-.26 0-.5.2-.6.6-.03.1-.05.26-.05.439V8.37h-1.069V4.872zm6.04 3.498l.26-1.969h-.69v-.649h.77l.169-1.319h-.729v-.64h.81l.24-1.919h.64l-.25 1.919h.75l.24-1.919h.64l-.25 1.919h.68v.64h-.759l-.16 1.319h.72v.64h-.81l-.25 1.979h-.64l.25-1.979h-.74l-.25 1.979h-.641zm1.719-2.618l.16-1.319h-.74l-.16 1.319h.74zm3.581-2.849h-.02l-1.089.59-.19-.83 1.429-.789h.919V8.37h-1.049V2.903zm2.391 6.716c.25-.72.52-1.769.629-2.509l1.12-.1c-.27.859-.69 1.929-1.05 2.528l-.699.081zm4.189-7.886c.37-.09.839-.13 1.279-.13.699 0 1.279.12 1.669.49.38.359.51.81.51 1.369 0 .779-.38 1.389-1.06 1.699v.02c.48.17.72.62.859 1.42.14.819.3 1.539.41 1.769h-1.109c-.08-.189-.23-.85-.34-1.639-.13-.88-.38-1.16-.919-1.16h-.24V8.37h-1.059V1.733zm1.059 3.019h.28c.64 0 1.04-.5 1.04-1.189 0-.659-.27-1.109-.959-1.119-.14 0-.27.01-.36.04v2.268zm4.13 1.47c.01 1.089.51 1.389 1.08 1.389.36 0 .66-.08.87-.17l.16.76c-.31.14-.779.229-1.219.229-1.259 0-1.929-.909-1.929-2.418 0-1.609.77-2.589 1.809-2.589 1.02 0 1.54.93 1.54 2.229 0 .28-.01.44-.03.57h-2.281zm1.32-.76c.01-.779-.25-1.239-.629-1.239-.46 0-.67.669-.69 1.239h1.319zm3.97 2.448h-.03c-.18.31-.5.54-.919.54-.87 0-1.439-.989-1.439-2.429 0-1.679.719-2.599 1.589-2.599.32 0 .68.14.899.609l.02.021.05-.55h.929c-.02.399-.04.89-.04 1.529v5.257h-1.059V7.91zm0-2.608c0-.1-.01-.22-.03-.31-.06-.39-.3-.67-.56-.67-.51 0-.729.68-.729 1.629 0 .95.229 1.619.719 1.619.2 0 .44-.13.55-.6.04-.109.05-.239.05-.359V5.302zm5.319 1.649c0 .529.02 1.009.04 1.419h-.93l-.06-.51h-.02c-.19.29-.58.59-1.089.59-.89 0-1.249-.67-1.249-1.939V3.503h1.069v2.878c0 .7.12 1.18.56 1.18.33 0 .5-.28.55-.479.04-.11.06-.26.06-.42V3.503h1.069v3.448zm1.861-.729c.01 1.089.51 1.389 1.08 1.389.36 0 .66-.08.87-.17l.16.76c-.31.14-.779.229-1.219.229-1.259 0-1.929-.909-1.929-2.418 0-1.609.77-2.589 1.809-2.589 1.02 0 1.54.93 1.54 2.229 0 .28-.01.44-.03.57h-2.281zm1.319-.76c.01-.779-.25-1.239-.629-1.239-.46 0-.67.669-.69 1.239h1.319zm1.681 1.898c.18.12.51.26.84.26.379 0 .609-.199.609-.56 0-.3-.14-.499-.589-.789-.73-.43-.99-.899-.99-1.39 0-.839.61-1.459 1.489-1.459.39 0 .7.11.93.24l-.21.789c-.19-.12-.41-.21-.67-.21-.37 0-.549.24-.549.51 0 .26.12.41.58.71.649.39 1 .869 1 1.479 0 .99-.69 1.489-1.609 1.489-.38 0-.83-.109-1.04-.279l.209-.79zm4.44-5.067v1.21h.939v.77h-.939v2.528c0 .6.23.75.5.75.12 0 .22-.01.33-.03l.02.83c-.16.05-.4.079-.7.079-.34 0-.649-.09-.859-.3-.24-.239-.36-.589-.36-1.319V4.272h-.58v-.77h.58v-.84l1.069-.369zm3.281 6.077l.26-1.969h-.69v-.649h.77l.17-1.319h-.73v-.64h.81l.24-1.919h.64l-.25 1.919h.75l.24-1.919h.64l-.25 1.919h.68v.64h-.759l-.16 1.319h.72v.64h-.81l-.25 1.979h-.64l.25-1.979h-.74l-.25 1.979h-.641zm1.718-2.618l.16-1.319h-.74l-.16 1.319h.74zm3.58-2.849h-.02l-1.089.59-.19-.83 1.429-.789h.919V8.37h-1.049V2.903zm3.381 2.089c-.35 0-.62-.29-.62-.71 0-.399.28-.71.629-.71.37 0 .63.28.63.71 0 .42-.24.71-.63.71h-.009zm0 3.458c-.35 0-.62-.29-.62-.71 0-.399.28-.709.629-.709.37 0 .63.279.63.709 0 .42-.24.71-.63.71h-.009zm4.27-6.816v2.788h1.599V1.634h1.069V8.37h-1.069V5.401h-1.599V8.37h-1.069V1.634h1.069zm4.599.979h-1.209v-.979h3.488v.979h-1.21V8.37h-1.069V2.613zm7.109 3.158c-.04-.76-.08-1.679-.07-2.419h-.029c-.13.74-.311 1.55-.47 2.199l-.7 2.738h-.729l-.659-2.668c-.181-.68-.36-1.52-.48-2.27h-.029c-.011.76-.051 1.649-.09 2.449l-.12 2.568h-.93l.449-6.736h1.13l.649 2.729c.21.869.38 1.579.51 2.339h.021c.119-.76.27-1.459.47-2.339l.629-2.729h1.149l.4 6.736h-.97l-.131-2.597zm2.101-4.137h1.069v5.837h1.799v.899h-2.868V1.634zm5.121 3.238c0-.45-.02-.96-.039-1.369h.929l.061.729h.029c.19-.49.59-.81.99-.81.1 0 .159.01.229.02v1.06c-.07-.01-.14-.01-.229-.01-.37 0-.74.31-.859.84-.021.109-.04.279-.04.46V8.37h-1.07V4.872zm3.5 1.35c.01 1.089.51 1.389 1.079 1.389.359 0 .659-.08.869-.17l.16.76c-.31.14-.779.229-1.219.229-1.26 0-1.93-.909-1.93-2.418 0-1.609.77-2.589 1.81-2.589 1.02 0 1.539.93 1.539 2.229 0 .28-.01.44-.03.57h-2.278zm1.319-.76c.01-.779-.25-1.239-.63-1.239-.46 0-.67.669-.689 1.239h1.319zm3.97 2.448h-.029c-.181.31-.5.54-.92.54-.869 0-1.439-.989-1.439-2.429 0-1.679.72-2.599 1.59-2.599.319 0 .679.14.899.609l.02.021.05-.55h.93c-.02.399-.04.89-.04 1.529v5.257h-1.06V7.91zm0-2.608c0-.1-.01-.22-.029-.31-.061-.39-.3-.67-.561-.67-.509 0-.729.68-.729 1.629 0 .95.23 1.619.72 1.619.2 0 .44-.13.55-.6.04-.109.05-.239.05-.359V5.302zm5.318 1.649c0 .529.021 1.009.04 1.419h-.93l-.06-.51h-.02c-.19.29-.58.59-1.09.59-.89 0-1.249-.67-1.249-1.939V3.503h1.069v2.878c0 .7.12 1.18.56 1.18.33 0 .5-.28.55-.479.04-.11.06-.26.06-.42V3.503h1.069v3.448zm1.862-.729c.01 1.089.51 1.389 1.079 1.389.359 0 .659-.08.869-.17l.16.76c-.31.14-.779.229-1.22.229-1.259 0-1.929-.909-1.929-2.418 0-1.609.77-2.589 1.81-2.589 1.02 0 1.539.93 1.539 2.229 0 .28-.01.44-.03.57h-2.278zm1.32-.76c.01-.779-.25-1.239-.63-1.239-.46 0-.67.669-.689 1.239h1.319zm1.681 1.898c.18.12.51.26.839.26.38 0 .61-.199.61-.56 0-.3-.141-.499-.59-.789-.729-.43-.989-.899-.989-1.39 0-.839.609-1.459 1.488-1.459.391 0 .7.11.93.24l-.21.789a1.231 1.231 0 0 0-.669-.21c-.37 0-.55.24-.55.51 0 .26.12.41.579.71.65.39 1 .869 1 1.479 0 .99-.689 1.489-1.609 1.489-.38 0-.829-.109-1.039-.279l.21-.79zm4.439-5.067v1.21h.94v.77h-.94v2.528c0 .6.23.75.5.75.12 0 .22-.01.33-.03l.02.83c-.159.05-.399.079-.699.079-.34 0-.649-.09-.859-.3-.24-.239-.36-.589-.36-1.319V4.272h-.579v-.77h.579v-.84l1.068-.369zm77.689 23.623c.229.14.63.27.97.27.699 0 1.119-.459 1.119-1.139 0-.62-.359-1-.89-1.399-.53-.37-1.269-.999-1.269-1.869 0-1.02.719-1.769 1.778-1.769.42 0 .79.14.95.249l-.19.66a1.41 1.41 0 0 0-.8-.229c-.66 0-.969.499-.969.959 0 .67.35.939.988 1.39.811.569 1.17 1.189 1.17 1.938 0 1.159-.819 1.889-1.889 1.889-.46 0-.949-.149-1.14-.3l.172-.65zm4.309-1.459c.01 1.489.59 1.799 1.139 1.799.34 0 .61-.08.801-.18l.129.56c-.27.15-.68.229-1.068.229-1.15 0-1.75-.939-1.75-2.429 0-1.568.66-2.548 1.629-2.548.98 0 1.38 1.039 1.38 2.129 0 .189-.011.319-.021.439h-2.239zm1.52-.569c.01-.97-.351-1.399-.721-1.399-.499 0-.76.739-.789 1.399h1.51zm1.56-.67c0-.41-.03-.89-.04-1.249h.689l.04.759h.02c.16-.459.57-.839 1.02-.839.061 0 .11 0 .16.01v.789c-.05-.01-.1-.01-.16-.01-.489 0-.85.45-.93 1.01-.02.13-.029.27-.029.439v2.679h-.77v-3.588zm3.14-1.249l.609 2.718c.069.33.149.76.21 1.18h.029c.051-.399.131-.81.201-1.18l.6-2.718h.76l-1.27 4.837h-.68l-1.26-4.837h.801zm3.49 2.488c.01 1.489.589 1.799 1.14 1.799.34 0 .609-.08.799-.18l.131.56c-.271.15-.68.229-1.07.229-1.148 0-1.749-.939-1.749-2.429 0-1.568.659-2.548 1.63-2.548.979 0 1.379 1.039 1.379 2.129 0 .189-.01.319-.02.439h-2.24zm1.519-.569c.01-.97-.35-1.399-.719-1.399-.5 0-.76.739-.79 1.399h1.509zm1.561-.67c0-.41-.03-.89-.04-1.249h.689l.04.759h.021c.16-.459.569-.839 1.02-.839.06 0 .109 0 .159.01v.789c-.05-.01-.1-.01-.159-.01-.49 0-.85.45-.93 1.01-.021.13-.03.27-.03.439v2.679h-.77v-3.588zm33.509 90.7c.229.14.629.27.969.27.699 0 1.119-.459 1.119-1.139 0-.62-.359-1-.889-1.399-.529-.37-1.27-.999-1.27-1.869 0-1.02.72-1.769 1.779-1.769.42 0 .789.14.949.249l-.189.66a1.41 1.41 0 0 0-.801-.229c-.659 0-.969.499-.969.959 0 .67.35.939.989 1.39.81.569 1.169 1.189 1.169 1.938 0 1.159-.818 1.889-1.889 1.889-.459 0-.949-.149-1.139-.3l.172-.65zm4.738.89v-2.849l-1.488-3.888h.819l.6 1.689c.159.47.35.999.499 1.519h.021c.13-.52.31-1.029.489-1.549l.57-1.659h.799l-1.539 3.858v2.878h-.77zm2.971 0v-6.736h.72l1.239 3.158c.28.729.63 1.619.859 2.349h.021a50.662 50.662 0 0 1-.091-3.098v-2.409h.69v6.736h-.72l-1.279-3.238c-.279-.68-.57-1.449-.81-2.289h-.021c.061.899.08 1.76.08 3.198v2.329h-.688zm7.02-2.018l-.439 2.019h-.75l1.539-6.736h.85l1.5 6.736h-.76l-.439-2.019h-1.501zm1.389-.621l-.35-1.709c-.101-.479-.19-1.039-.271-1.539h-.029c-.08.51-.18 1.089-.279 1.549l-.351 1.699h1.28zm4.9 2.519c-.209.11-.549.18-.969.18-1.31 0-2.26-1.049-2.26-3.338 0-2.668 1.32-3.518 2.389-3.518.4 0 .7.08.83.17l-.17.649c-.16-.07-.32-.14-.67-.14-.719 0-1.568.699-1.568 2.758 0 2.069.76 2.738 1.588 2.738.291 0 .541-.069.7-.14l.13.641zm.781-6.616h.77v3.198h.021c.149-.28.29-.55.42-.81l1.249-2.389h.859l-1.648 2.879 1.689 3.857h-.83l-1.379-3.248-.381.649v2.599h-.77v-6.735zm40.685-13.599v-1.209h.979v3.488h-.979v-1.209h-5.757v-1.069h5.757zm-5.646 5.898c-.101-.2-.17-.55-.17-.989 0-1.54 1.259-2.419 3.338-2.419 2.589 0 3.518 1.369 3.518 2.569 0 .439-.09.75-.17.879l-.909-.2c.08-.16.14-.32.14-.64 0-.729-.669-1.479-2.508-1.479-1.81 0-2.459.68-2.459 1.489 0 .25.06.5.12.66l-.9.13zm6.526.752c.079.34.13.779.13 1.249 0 .71-.13 1.29-.51 1.689-.34.36-.859.54-1.439.54-.68 0-1.14-.19-1.499-.5-.47-.399-.7-1.049-.7-1.619 0-.11 0-.2.011-.3h-2.629v-1.059h6.636zm-3.129 1.059c-.02.08-.02.15-.02.26 0 .699.479 1.089 1.249 1.089.63 0 1.159-.26 1.159-.979 0-.15-.02-.28-.05-.37h-2.338zm-.429 6.62h-.779v-2.079h.779v2.079zm2.738 6.779v-1.749l-1.729-.27c.02.08.02.15.02.24 0 .35-.159.899-.489 1.239-.34.35-.819.55-1.479.55-1.299 0-2.219-.82-2.219-1.969 0-.4.11-.85.28-1.109l.609.17c-.11.2-.25.55-.25.91 0 .66.5 1.229 1.499 1.229 1.029 0 1.46-.629 1.46-1.469 0-.24-.011-.39-.03-.51l3.008.41v2.329h-.68zm.11 3.71c0-.13-.02-.28-.06-.46-.271-1.08-1.35-1.509-2.349-1.669v.03c.369.25.619.61.619 1.1 0 .819-.76 1.399-1.999 1.399-1.229 0-2.219-.56-2.219-1.599 0-1.139 1.149-1.709 2.648-1.709 1.26 0 2.229.33 2.929.839.55.39.899 1.01 1.02 1.58.04.2.05.37.06.49h-.649zm-5.407-1.189c0 .43.43.819 1.56.819.979 0 1.469-.35 1.469-.87 0-.33-.21-.66-.699-.849-.061-.02-.2-.05-.39-.05-1.33.01-1.939.41-1.939.939v.011zm3.069 3.96c.569 0 .859-.03 1.249-.04v.68l-.589.04v.02c.39.21.669.57.669 1.08 0 .45-.21.839-.729 1.02v.02c.24.13.43.3.55.47.12.2.18.419.18.669 0 .66-.47 1.169-1.709 1.169h-3.208v-.77h3.038c.63 0 1.239-.09 1.239-.67 0-.32-.27-.6-.729-.709-.12-.03-.27-.03-.43-.03h-3.118v-.77h3.179c.529 0 1.099-.09 1.099-.66 0-.32-.27-.63-.789-.72-.12-.02-.26-.03-.41-.03h-3.078v-.77h3.586zm-2.789 6.07c-.11.17-.25.47-.25.78 0 .43.27.709.699.709.37 0 .63-.13.95-.62.409-.63.829-.969 1.379-.969.789 0 1.339.58 1.339 1.329 0 .38-.119.66-.25.859l-.579-.2c.13-.19.22-.39.22-.65 0-.41-.3-.62-.62-.62-.319 0-.509.12-.829.6-.359.56-.81 1-1.479 1-.969 0-1.438-.66-1.438-1.459 0-.35.109-.74.279-.95l.579.191zm-96.173 1.534h-1.399l-.216 1.383c.064-.016.12-.016.191-.016.28 0 .721.128.992.392.279.272.439.655.439 1.184 0 1.039-.655 1.774-1.575 1.774-.319 0-.68-.088-.888-.224l.137-.487c.16.088.439.199.727.199.528 0 .984-.399.984-1.199 0-.823-.504-1.167-1.176-1.167-.191 0-.312.008-.408.024l.328-2.407h1.863v.544zm2.968-.088c-.104 0-.225.016-.369.048-.863.216-1.207 1.079-1.334 1.879h.023c.199-.296.488-.496.879-.496.656 0 1.12.608 1.12 1.6 0 .983-.448 1.774-1.279 1.774-.911 0-1.367-.919-1.367-2.118 0-1.008.264-1.783.671-2.343.312-.439.809-.72 1.264-.815.16-.032.296-.04.393-.048v.519zm-.952 4.325c.344 0 .655-.344.655-1.247 0-.783-.279-1.176-.695-1.176-.264 0-.527.168-.68.561-.016.048-.04.159-.04.312.009 1.063.328 1.551.752 1.551h.008zm3.169-2.454c0-.456-.024-.688-.032-1h.544l.031.472h.017c.167-.312.456-.535.863-.535.36 0 .672.168.815.583h.016c.104-.191.24-.344.377-.439.159-.096.335-.144.535-.144.527 0 .936.376.936 1.367v2.566h-.615v-2.431c0-.504-.072-.991-.536-.991-.256 0-.479.216-.567.583-.024.097-.024.217-.024.344v2.495h-.616v-2.543c0-.424-.071-.879-.527-.879-.256 0-.504.216-.576.632a2.028 2.028 0 0 0-.023.327v2.463h-.615v-2.87zm4.856 2.231c.137.088.376.2.624.2.344 0 .567-.216.567-.56 0-.296-.104-.504-.496-.76-.504-.328-.775-.664-.775-1.104 0-.632.464-1.071 1.063-1.071.304 0 .528.096.688.199l-.16.464a.884.884 0 0 0-.52-.176c-.328 0-.496.24-.496.496s.096.407.479.663c.448.288.8.648.8 1.184 0 .775-.527 1.151-1.168 1.151-.279 0-.592-.088-.76-.224l.154-.462zm-216.776-5.89l-.44 2.019h-.75l1.54-6.736h.849l1.5 6.736h-.76l-.44-2.019h-1.499zm1.389-.621l-.35-1.709c-.1-.479-.19-1.039-.27-1.539h-.03c-.08.51-.18 1.089-.28 1.549l-.35 1.699h1.28zm4.9 2.519c-.209.11-.549.18-.969.18-1.309 0-2.259-1.049-2.259-3.338 0-2.668 1.319-3.518 2.389-3.518.4 0 .7.08.83.17l-.17.649c-.16-.07-.32-.14-.669-.14-.72 0-1.569.699-1.569 2.758 0 2.069.76 2.738 1.589 2.738.29 0 .54-.069.699-.14l.129.641zm.782-6.616h.77v3.198h.02c.15-.28.29-.55.42-.81l1.249-2.389h.86l-1.649 2.879 1.689 3.857h-.83l-1.379-3.248-.38.649v2.599h-.77v-6.735zm-14.507 16.556c-.29.12-.839.239-1.309.239-.69 0-1.259-.189-1.709-.659-.529-.55-.849-1.52-.839-2.709.02-2.528 1.399-3.487 2.719-3.487.47 0 .83.09 1.039.199l-.209.92c-.18-.1-.43-.16-.77-.16-.869 0-1.669.64-1.669 2.539 0 1.829.7 2.448 1.409 2.448.18 0 .29-.02.35-.05v-1.889h-.72v-.88h1.709v3.489zm3.681-2.888h-1.599v2.139h1.819v.93h-2.888v-6.736h2.768v.93h-1.699v1.849h1.599v.888zm1.841-2.689h-1.209v-.979h3.488v.979h-1.209v5.757h-1.069v-5.757zm3.91 6.156l2.259-7.216h.729l-2.259 7.216h-.729zm3.38-7.315h1.069v2.559h.02c.11-.17.26-.31.42-.41.18-.109.4-.18.649-.18.77 0 1.199.64 1.199 1.869v3.078h-1.069v-3.038c0-.53-.11-1.01-.56-1.01-.28 0-.51.19-.62.6-.02.09-.04.25-.04.37v3.078h-1.069v-6.916zm5.579.839v1.21h.939v.77h-.939v2.528c0 .6.23.75.5.75.12 0 .22-.01.33-.03l.02.83c-.16.05-.4.079-.7.079-.34 0-.649-.09-.859-.3-.24-.239-.36-.589-.36-1.319v-2.538h-.58v-.77h.58v-.84l1.069-.37zm1.581 2.579c0-.55-.02-.939-.04-1.369h.93l.05.579h.02c.23-.369.629-.659 1.139-.659.5 0 .86.24 1.04.699h.02c.12-.21.3-.399.48-.52.2-.12.43-.18.679-.18.78 0 1.22.6 1.22 1.799v3.148h-1.06v-2.948c0-.59-.08-1.109-.55-1.109-.28 0-.5.21-.589.569-.03.101-.04.24-.04.39v3.099h-1.06v-3.118c0-.43-.06-.939-.54-.939-.26 0-.51.2-.6.59-.02.109-.04.25-.04.39v3.078h-1.06v-3.499zm6.53-3.418h1.069v6.916h-1.069v-6.916zm22.742 56.854h-.016l-.864.495-.12-.479 1.095-.64h.504v5.197h-.6v-4.573zm1.832 4.573v-.399l.432-.592c.624-.863 1.352-1.839 1.352-2.814 0-.576-.248-.928-.736-.928-.376 0-.624.2-.751.288l-.152-.464a1.624 1.624 0 0 1 1.015-.352c.864 0 1.24.64 1.24 1.423 0 .976-.64 1.927-1.288 2.799l-.344.479v.016h1.727v.544h-2.495zm4.695 0v-1.439H80.89v-.415l1.687-3.343h.6v3.254h.56v.504h-.56v1.439h-.56zm0-1.943v-1.463c0-.359.024-.68.048-1.023h-.032c-.176.416-.288.655-.439.976l-.72 1.495v.016h1.143zm2.897-.927c0-.456-.024-.688-.032-1h.543l.032.472h.016c.168-.312.456-.535.864-.535.36 0 .671.168.815.583h.016c.104-.191.24-.344.376-.439.16-.096.335-.144.536-.144.528 0 .936.376.936 1.367v2.566H89v-2.431c0-.504-.072-.991-.536-.991-.256 0-.48.216-.568.583-.024.097-.024.217-.024.344v2.495h-.616v-2.543c0-.424-.072-.879-.528-.879-.256 0-.503.216-.576.632a2.02 2.02 0 0 0-.024.327v2.463h-.616v-2.87zm4.856 2.231c.136.088.376.2.624.2.344 0 .567-.216.567-.56 0-.296-.104-.504-.496-.76-.504-.328-.775-.664-.775-1.104 0-.632.463-1.071 1.063-1.071.304 0 .527.096.688.199l-.16.464a.884.884 0 0 0-.52-.176c-.328 0-.496.24-.496.496s.096.407.479.663c.448.288.8.648.8 1.184 0 .775-.528 1.151-1.167 1.151-.28 0-.592-.088-.76-.224l.153-.462zm149.487 16.066h-.017l-.863.495-.119-.479 1.095-.64h.504v5.197h-.6v-4.573zm4.24-.08h-1.399l-.216 1.383c.064-.016.12-.016.191-.016.28 0 .721.128.992.392.279.272.439.655.439 1.184 0 1.039-.655 1.774-1.575 1.774-.319 0-.68-.088-.888-.224l.137-.487c.16.088.439.199.727.199.528 0 .984-.399.984-1.199 0-.823-.504-1.167-1.176-1.167-.191 0-.312.008-.408.024l.328-2.407h1.863v.544zm.673 4.653v-.399l.432-.592c.624-.863 1.352-1.839 1.352-2.814 0-.576-.248-.928-.735-.928-.376 0-.624.2-.752.288l-.152-.464a1.628 1.628 0 0 1 1.016-.352c.863 0 1.239.64 1.239 1.423 0 .976-.64 1.927-1.287 2.799l-.344.479v.016h1.728v.544h-2.497zm4.511-2.87c0-.456-.024-.688-.032-1h.544l.032.472h.016c.168-.312.456-.535.863-.535.36 0 .672.168.816.583h.016c.104-.191.24-.344.376-.439a1.01 1.01 0 0 1 .536-.144c.527 0 .936.376.936 1.367v2.566h-.616v-2.431c0-.504-.072-.991-.536-.991-.256 0-.479.216-.567.583-.024.097-.024.217-.024.344v2.495h-.615v-2.543c0-.424-.072-.879-.527-.879-.256 0-.504.216-.576.632a2.028 2.028 0 0 0-.023.327v2.463h-.616v-2.87zm4.857 2.231c.136.088.375.2.623.2.344 0 .568-.216.568-.56 0-.296-.104-.504-.496-.76-.504-.328-.775-.664-.775-1.104 0-.632.463-1.071 1.063-1.071.304 0 .527.096.688.199l-.16.464a.881.881 0 0 0-.52-.176c-.328 0-.495.24-.495.496s.096.407.479.663c.448.288.801.648.801 1.184 0 .775-.528 1.151-1.168 1.151-.279 0-.592-.088-.76-.224l.152-.462zm-237.226 1.048c-.18.08-.459.14-.79.14-.969 0-1.319-.789-1.319-1.729 0-1.409.83-3.238 2.409-3.238.21 0 .38.03.48.08l-.19.619c-.1-.029-.21-.069-.36-.069-1.009 0-1.599 1.438-1.599 2.528 0 .71.21 1.189.77 1.189.19 0 .4-.05.59-.12l.009.6zm.601.08l1.299-6.916h.73l-1.319 6.916h-.71zm5.198-3.338c0 1.219-.6 3.418-2.079 3.418-.9 0-1.18-.779-1.18-1.64 0-1.299.7-3.357 2.139-3.357.971 0 1.12.929 1.12 1.579zm-2.528 1.709c0 .55.04 1.119.549 1.119.88 0 1.25-2.059 1.25-2.878 0-.5-.09-.93-.51-.93-.799.001-1.289 1.74-1.289 2.689zm2.83.879c.15.101.39.23.75.23.49-.01.78-.36.78-.819 0-.43-.21-.69-.49-.939-.33-.3-.629-.72-.629-1.18 0-.819.6-1.459 1.509-1.459.32 0 .6.08.75.189l-.2.55c-.14-.08-.36-.149-.56-.149-.5 0-.78.329-.78.749 0 .38.22.6.45.81.38.33.68.779.68 1.27 0 1.039-.68 1.559-1.579 1.559-.38 0-.759-.149-.899-.26l.218-.551zm5.459.51c-.35.19-.72.3-1.139.3-1.02 0-1.35-.779-1.35-1.709 0-1.309.73-3.268 2.109-3.268.709 0 1 .539 1 1.099 0 1.17-1.04 1.67-2.359 1.68-.02.14-.05.68.03.97.11.409.36.629.74.629.379 0 .64-.13.859-.26l.11.559zm-.49-4.058c-.43 0-.89.53-1.149 1.579.77-.01 1.579-.27 1.579-1.049 0-.339-.14-.53-.43-.53zm4.959 4.218c-.18.08-.459.14-.79.14-.969 0-1.319-.789-1.319-1.729 0-1.409.83-3.238 2.409-3.238.21 0 .38.03.48.08l-.19.619c-.1-.029-.21-.069-.36-.069-1.009 0-1.599 1.438-1.599 2.528 0 .71.21 1.189.77 1.189.19 0 .4-.05.59-.12l.009.6zm3.86-3.258c0 1.219-.6 3.418-2.079 3.418-.899 0-1.18-.779-1.18-1.64 0-1.299.7-3.357 2.139-3.357.97 0 1.12.929 1.12 1.579zm-2.529 1.709c0 .55.04 1.119.549 1.119.88 0 1.25-2.059 1.25-2.878 0-.5-.09-.93-.51-.93-.799.001-1.289 1.74-1.289 2.689zm2.811 1.629l.59-3.179c.14-.699.21-1.269.26-1.658h.63l-.08.77h.02c.39-.59.81-.85 1.299-.85.6 0 .83.47.83.979 0 .279-.04.51-.09.789l-.59 3.148h-.72l.59-3.139c.04-.22.07-.419.07-.669 0-.29-.12-.49-.42-.49-.45 0-.989.689-1.169 1.609l-.51 2.688h-.71zm3.93 0l.59-3.179c.14-.699.21-1.269.26-1.658h.63l-.08.77h.02c.39-.59.81-.85 1.299-.85.6 0 .83.47.83.979 0 .279-.04.51-.09.789l-.59 3.148h-.72l.59-3.139c.04-.22.07-.419.07-.669 0-.29-.12-.49-.42-.49-.45 0-.989.689-1.169 1.609l-.51 2.688h-.71zm6.588-.24c-.35.19-.72.3-1.139.3-1.02 0-1.35-.779-1.35-1.709 0-1.309.73-3.268 2.109-3.268.71 0 1 .539 1 1.099 0 1.17-1.04 1.67-2.359 1.68-.02.14-.05.68.03.97.11.409.36.629.74.629.379 0 .64-.13.859-.26l.11.559zm-.49-4.058c-.43 0-.89.53-1.149 1.579.77-.01 1.579-.27 1.579-1.049 0-.339-.14-.53-.43-.53zm3.49 4.218c-.18.08-.459.14-.79.14-.969 0-1.319-.789-1.319-1.729 0-1.409.83-3.238 2.409-3.238.21 0 .38.03.48.08l-.19.619c-.1-.029-.21-.069-.36-.069-1.009 0-1.599 1.438-1.599 2.528 0 .71.21 1.189.77 1.189.19 0 .4-.05.59-.12l.009.6zm2.72-6.026l-.26 1.27h.919l-.11.56h-.91l-.52 2.758c-.05.26-.07.48-.07.61 0 .239.09.369.33.369.13 0 .21 0 .3-.02l-.06.56c-.17.05-.36.07-.52.07-.51 0-.81-.3-.81-.78 0-.189.02-.39.1-.779l.529-2.788h-.58l.1-.56h.59l.2-1.05.772-.22zm.401 6.106l.919-4.837h.72l-.929 4.837h-.71zm1.09-6.066c.01-.26.21-.51.48-.51.28 0 .41.21.39.47-.02.33-.24.51-.5.51s-.4-.191-.37-.47zm4.108 2.728c0 1.219-.6 3.418-2.079 3.418-.9 0-1.18-.779-1.18-1.64 0-1.299.7-3.357 2.139-3.357.971 0 1.12.929 1.12 1.579zm-2.528 1.709c0 .55.04 1.119.549 1.119.88 0 1.25-2.059 1.25-2.878 0-.5-.09-.93-.51-.93-.799.001-1.289 1.74-1.289 2.689zm2.81 1.629l.59-3.179c.14-.699.21-1.269.26-1.658h.63l-.08.77h.02c.39-.59.81-.85 1.299-.85.6 0 .83.47.83.979 0 .279-.04.51-.09.789l-.59 3.148h-.72l.59-3.139c.04-.22.07-.419.07-.669 0-.29-.12-.49-.42-.49-.45 0-.989.689-1.169 1.609l-.51 2.688h-.71zm211.035-26.736v2.889h1.889v-2.889h.77v6.736h-.77v-3.148h-1.889v3.148h-.77v-6.736h.77zm4.65.689h-1.229v-.689h3.229v.689h-1.229v6.047h-.77v-6.047zm6.788 3.149c-.05-.89-.1-1.879-.07-2.639h-.039c-.15.75-.33 1.56-.54 2.339l-.819 3.158h-.5l-.779-3.028a30.83 30.83 0 0 1-.561-2.469h-.029c.01.79-.04 1.729-.08 2.688l-.13 2.849h-.689l.399-6.736h.84l.779 3.078c.23.89.4 1.55.54 2.319h.03c.129-.77.279-1.409.499-2.319l.76-3.078h.859l.39 6.736h-.719l-.141-2.898zm1.912-3.838h.77v6.087h1.889v.649h-2.658v-6.736zm4.94 3.148c0-.41-.03-.89-.04-1.249h.689l.04.759h.021c.16-.459.569-.839 1.02-.839.06 0 .109 0 .159.01v.789c-.05-.01-.1-.01-.159-.01-.49 0-.85.45-.93 1.01-.021.13-.03.27-.03.439v2.679h-.77v-3.588zm2.89 1.239c.01 1.489.59 1.799 1.139 1.799.34 0 .61-.08.801-.18l.129.56c-.27.15-.68.229-1.069.229-1.149 0-1.749-.939-1.749-2.429 0-1.568.66-2.548 1.629-2.548.98 0 1.38 1.039 1.38 2.129 0 .189-.011.319-.021.439h-2.239zm1.52-.569c.01-.97-.351-1.399-.721-1.399-.499 0-.759.739-.789 1.399h1.51zm1.44 2.118c.17.11.47.25.78.25.43 0 .709-.27.709-.699 0-.37-.13-.63-.619-.95-.631-.409-.97-.829-.97-1.379 0-.789.579-1.339 1.329-1.339.38 0 .66.119.859.25l-.199.579c-.19-.13-.391-.22-.65-.22-.41 0-.619.3-.619.62 0 .319.119.509.6.829.56.359.999.81.999 1.479 0 .969-.659 1.438-1.459 1.438-.351 0-.739-.109-.95-.279l.19-.579zm3.011-2.528c0-.739-.031-1.169-.041-1.509h.689l.041.609h.02c.26-.51.65-.689 1.02-.689.85 0 1.399.89 1.399 2.488 0 1.799-.739 2.509-1.489 2.509-.46 0-.72-.28-.85-.55h-.02v2.389h-.77v-5.247zm.769 1.56c0 .14.01.279.039.399.15.689.49.81.7.81.64 0 .849-.88.849-1.849 0-1.01-.239-1.85-.849-1.85-.351 0-.67.439-.71.88-.029.12-.029.239-.029.369v1.241zm4.589 1.848c-.87 0-1.569-.79-1.569-2.488 0-1.77.79-2.509 1.619-2.509.869 0 1.56.799 1.56 2.488 0 1.879-.86 2.509-1.599 2.509h-.011zm.04-.609c.66 0 .799-1.13.799-1.89 0-.749-.139-1.889-.818-1.889-.689 0-.82 1.14-.82 1.889 0 .8.141 1.89.83 1.89h.009zm2.43-3.059c0-.569-.029-.859-.039-1.249h.67l.039.579h.021c.21-.39.6-.659 1.109-.659.669 0 1.169.489 1.169 1.669v3.248h-.77v-3.118c0-.58-.109-1.149-.67-1.149-.319 0-.629.27-.719.789-.03.11-.041.261-.041.431v3.048h-.77v-3.589zm3.921 2.788c.17.11.47.25.78.25.43 0 .709-.27.709-.699 0-.37-.13-.63-.619-.95-.631-.409-.97-.829-.97-1.379 0-.789.579-1.339 1.329-1.339.38 0 .66.119.859.25l-.199.579c-.19-.13-.391-.22-.65-.22-.41 0-.619.3-.619.62 0 .319.119.509.6.829.56.359.999.81.999 1.479 0 .969-.659 1.438-1.459 1.438-.351 0-.739-.109-.95-.279l.19-.579zm3.559-1.549c.01 1.489.59 1.799 1.139 1.799.34 0 .61-.08.801-.18l.129.56c-.27.15-.68.229-1.069.229-1.149 0-1.749-.939-1.749-2.429 0-1.568.66-2.548 1.629-2.548.98 0 1.38 1.039 1.38 2.129 0 .189-.011.319-.021.439h-2.239zm1.52-.569c.01-.97-.351-1.399-.721-1.399-.499 0-.759.739-.789 1.399h1.51z"/><path fill="none" stroke="#0071bc" d="M330.443 93.602c7.57 2.613-2.728 16.236 4.396 18.271-7.123 2.035 3.175 15.658-4.396 18.271" stroke-linejoin="round"/><path d="M343.127 152.581h-2.788v1.599h2.788v1.069h-6.736v-1.069h2.969v-1.599h-2.969v-1.069h6.736v1.069zm-.98 4.6v-1.209h.979v3.488h-.979v-1.209h-5.757v-1.069h5.757zm0 3.88v-1.209h.979v3.488h-.979v-1.209h-5.757v-1.069h5.757zm.88 3.01c.079.34.13.779.13 1.249 0 .71-.13 1.29-.51 1.689-.34.36-.859.54-1.439.54-.68 0-1.14-.19-1.499-.5-.47-.399-.7-1.049-.7-1.619 0-.11 0-.2.011-.3h-2.629v-1.059h6.636zm-3.129 1.059c-.02.08-.02.15-.02.26 0 .699.479 1.089 1.249 1.089.63 0 1.159-.26 1.159-.979 0-.15-.02-.28-.05-.37h-2.338zm-.429 6.62h-.779v-2.079h.779v2.079zm-2.498 4.121c0 .16.02.31.06.48.08.33.26.649.51.89.39.36.989.649 1.839.759v-.02c-.3-.24-.54-.589-.54-1.059 0-.82.75-1.429 1.93-1.429 1.179 0 2.198.649 2.198 1.649 0 1.119-1.179 1.629-2.608 1.629-1.289 0-2.289-.32-3.008-.859-.521-.38-.86-.93-.979-1.509-.051-.2-.061-.37-.061-.53h.659zm5.396 1.219c0-.39-.42-.84-1.539-.83-.949 0-1.409.36-1.409.879 0 .32.22.64.58.799.1.05.189.06.409.06 1.369 0 1.959-.39 1.959-.899v-.009zm-.05 5.15c0-.13-.02-.28-.06-.46-.271-1.08-1.35-1.509-2.349-1.669v.03c.369.25.619.61.619 1.1 0 .819-.76 1.399-1.999 1.399-1.229 0-2.219-.56-2.219-1.599 0-1.139 1.149-1.709 2.648-1.709 1.26 0 2.229.33 2.929.839.55.39.899 1.01 1.02 1.58.04.2.05.37.06.49h-.649zm-5.407-1.19c0 .43.43.819 1.56.819.979 0 1.469-.35 1.469-.87 0-.33-.21-.66-.699-.849-.061-.02-.2-.05-.39-.05-1.33.01-1.939.41-1.939.939v.011zm3.069 3.961c.569 0 .859-.03 1.249-.04v.68l-.589.04v.02c.39.21.669.57.669 1.08 0 .45-.21.839-.729 1.02v.02c.24.13.43.3.55.47.12.2.18.419.18.669 0 .66-.47 1.169-1.709 1.169h-3.208v-.77h3.038c.63 0 1.239-.09 1.239-.67 0-.32-.27-.6-.729-.709-.12-.03-.27-.03-.43-.03h-3.118v-.77h3.179c.529 0 1.099-.09 1.099-.66 0-.32-.27-.63-.789-.72-.12-.02-.26-.03-.41-.03h-3.078v-.77h3.586zm-2.789 6.07c-.11.17-.25.47-.25.78 0 .43.27.709.699.709.37 0 .63-.13.95-.62.409-.63.829-.969 1.379-.969.789 0 1.339.58 1.339 1.329 0 .38-.119.66-.25.859l-.579-.2c.13-.19.22-.39.22-.65 0-.41-.3-.62-.62-.62-.319 0-.509.12-.829.6-.359.56-.81 1-1.479 1-.969 0-1.438-.66-1.438-1.459 0-.35.109-.74.279-.95l.579.191z"/><path fill="none" stroke="#009245" d="M330.443 133.602c7.57 5.526-2.728 34.335 4.396 38.639-7.123 4.304 3.175 33.112-4.396 38.639" stroke-linejoin="round"/><path fill="#f7931e" fill-rule="evenodd" d="M232.214 156.02h8.305v30.687h-8.305z" clip-rule="evenodd"/><path fill="none" stroke="#000" d="M232.214 156.02h8.305v30.687h-8.305z" stroke-linecap="round" stroke-linejoin="round"/><path d="M169.15 173.071c.136.088.376.2.624.2.344 0 .567-.216.567-.56 0-.296-.104-.504-.496-.76-.504-.328-.775-.664-.775-1.104 0-.632.463-1.071 1.063-1.071.304 0 .527.096.688.199l-.16.464a.884.884 0 0 0-.52-.176c-.328 0-.496.24-.496.496s.096.407.479.663c.448.288.8.648.8 1.184 0 .775-.528 1.151-1.167 1.151-.28 0-.592-.088-.76-.224l.153-.462zm2.848-1.239c.008 1.191.472 1.439.911 1.439.272 0 .488-.064.64-.145l.104.448c-.216.12-.543.184-.855.184-.919 0-1.399-.752-1.399-1.942 0-1.256.528-2.039 1.303-2.039.784 0 1.104.831 1.104 1.703 0 .151-.008.256-.016.352h-1.792zm1.215-.456c.008-.775-.28-1.119-.575-1.119-.4 0-.608.592-.632 1.119h1.207zm1.249-.535c0-.328-.024-.712-.032-1h.552l.032.607h.016c.128-.367.456-.671.816-.671.048 0 .087 0 .128.008v.632c-.041-.008-.08-.008-.128-.008-.392 0-.68.359-.744.807a2.295 2.295 0 0 0-.024.353v2.143h-.616v-2.871zm2.512-1l.488 2.175c.055.264.119.608.168.943h.023c.04-.319.104-.647.16-.943l.479-2.175h.607l-1.015 3.87h-.545l-1.007-3.87h.642zm2.792 1.991c.008 1.191.472 1.439.911 1.439.271 0 .488-.064.64-.145l.104.448c-.217.12-.544.184-.855.184-.92 0-1.4-.752-1.4-1.942 0-1.256.528-2.039 1.304-2.039.784 0 1.104.831 1.104 1.703 0 .151-.008.256-.016.352h-1.792zm1.214-.456c.009-.775-.28-1.119-.575-1.119-.4 0-.607.592-.632 1.119h1.207zm1.25-.535c0-.328-.023-.712-.032-1h.552l.032.607h.016c.128-.367.456-.671.815-.671.049 0 .088 0 .129.008v.632c-.041-.008-.08-.008-.129-.008-.392 0-.68.359-.743.807a2.175 2.175 0 0 0-.024.353v2.143h-.615v-2.871zm3.24.208c0-.592-.023-.936-.032-1.208h.552l.032.488h.016c.208-.408.521-.552.815-.552.68 0 1.119.711 1.119 1.99 0 1.439-.591 2.007-1.191 2.007-.367 0-.575-.224-.679-.439h-.017v1.911h-.615v-4.197zm.615 1.247c0 .111.008.224.032.319.12.552.392.647.56.647.512 0 .68-.703.68-1.479 0-.808-.191-1.479-.68-1.479-.279 0-.535.352-.567.704-.024.096-.024.191-.024.296v.992zm2.576-1.455c0-.328-.023-.712-.032-1h.552l.032.607h.016c.128-.367.456-.671.815-.671.049 0 .088 0 .129.008v.632c-.041-.008-.08-.008-.129-.008-.392 0-.68.359-.743.807a2.175 2.175 0 0 0-.024.353v2.143h-.615v-2.871zm2.967 2.933c-.695 0-1.255-.631-1.255-1.99 0-1.415.632-2.007 1.296-2.007.695 0 1.247.64 1.247 1.99 0 1.504-.688 2.007-1.279 2.007h-.009zm.033-.487c.527 0 .639-.903.639-1.511 0-.6-.111-1.512-.655-1.512-.552 0-.655.912-.655 1.512 0 .64.111 1.511.663 1.511h.008zm3.831.328c-.136.08-.368.144-.64.144-.848 0-1.416-.68-1.416-1.959 0-1.111.561-2.015 1.527-2.015.209 0 .432.056.544.128l-.12.496a1 1 0 0 0-.439-.104c-.623 0-.896.735-.896 1.495 0 .903.344 1.447.911 1.447.16 0 .305-.032.44-.104l.089.472zm.913-1.783c.008 1.191.472 1.439.911 1.439.272 0 .487-.064.64-.145l.104.448c-.215.12-.543.184-.855.184-.919 0-1.398-.752-1.398-1.942 0-1.256.527-2.039 1.303-2.039.783 0 1.104.831 1.104 1.703 0 .151-.008.256-.016.352h-1.793zm1.215-.456c.008-.775-.279-1.119-.575-1.119-.399 0-.608.592-.632 1.119h1.207zm1.152 1.695c.137.088.377.2.625.2.344 0 .566-.216.566-.56 0-.296-.104-.504-.495-.76-.504-.328-.775-.664-.775-1.104 0-.632.464-1.071 1.063-1.071.304 0 .527.096.688.199l-.16.464a.884.884 0 0 0-.52-.176c-.328 0-.496.24-.496.496s.096.407.48.663c.447.288.799.648.799 1.184 0 .775-.527 1.151-1.167 1.151-.28 0-.592-.088-.76-.224l.152-.462zm2.313 0c.137.088.376.2.624.2.344 0 .567-.216.567-.56 0-.296-.104-.504-.496-.76-.504-.328-.775-.664-.775-1.104 0-.632.464-1.071 1.063-1.071.304 0 .528.096.688.199l-.16.464a.884.884 0 0 0-.52-.176c-.328 0-.496.24-.496.496s.096.407.479.663c.448.288.8.648.8 1.184 0 .775-.527 1.151-1.168 1.151-.279 0-.592-.088-.76-.224l.154-.462zm2.704-3.83c-.2 0-.353-.16-.353-.399 0-.24.16-.4.36-.4.224 0 .368.16.368.4 0 .239-.145.399-.368.399h-.007zm-.288 4.47v-3.87h.615v3.87h-.615zm1.472-2.87c0-.456-.024-.688-.032-1h.536l.032.464h.016a.982.982 0 0 1 .888-.527c.536 0 .936.392.936 1.335v2.599h-.616v-2.495c0-.463-.088-.919-.535-.919-.256 0-.504.216-.576.632a1.452 1.452 0 0 0-.031.344v2.438h-.616v-2.871zm5.575 2.374c0 1.016-.128 1.399-.384 1.688-.24.256-.6.407-1.032.407-.327 0-.646-.079-.847-.191l.144-.479c.152.08.408.168.712.168.487 0 .792-.304.792-1.184v-.392h-.017a.775.775 0 0 1-.735.472c-.688 0-1.136-.775-1.136-1.911 0-1.432.64-2.015 1.216-2.015.407 0 .6.271.719.495h.017l.032-.432h.551c-.008.264-.031.607-.031 1.208v2.166zm-.615-2.038c0-.104-.009-.2-.033-.288-.063-.256-.207-.584-.559-.584-.44 0-.68.6-.68 1.455 0 .991.312 1.439.68 1.439.191 0 .432-.088.551-.552.041-.12.041-.24.041-.352v-1.118zm1.832-.336c-.225 0-.393-.185-.393-.448s.176-.456.4-.456c.24 0 .399.185.399.456 0 .264-.144.448-.399.448h-.007zm0 2.933c-.225 0-.393-.184-.393-.447s.176-.456.4-.456c.24 0 .399.185.399.456 0 .264-.144.447-.399.447h-.007zm3.886-.063v-1.439h-1.727v-.415l1.688-3.343h.6v3.254h.559v.504h-.559v1.439h-.561zm0-1.943v-1.463c0-.359.024-.68.049-1.023h-.032c-.177.416-.288.655-.44.976l-.719 1.495v.016h1.142zm2.721 2.006c-.808 0-1.295-.959-1.295-2.654 0-1.751.52-2.67 1.367-2.67.84 0 1.279.999 1.279 2.654 0 1.895-.6 2.67-1.344 2.67h-.007zm.04-.527c.495 0 .695-.888.695-2.135 0-1.215-.2-2.135-.695-2.135-.504 0-.72.88-.72 2.135-.008 1.256.208 2.135.711 2.135h.009zm3.216-2.406c0-.456-.023-.688-.031-1h.543l.033.472h.016c.168-.312.455-.535.863-.535.359 0 .672.168.815.583h.017c.104-.191.239-.344.375-.439.16-.096.336-.144.536-.144.527 0 .936.376.936 1.367v2.566h-.616v-2.431c0-.504-.072-.991-.535-.991-.256 0-.48.216-.568.583-.023.097-.023.217-.023.344v2.495h-.615v-2.543c0-.424-.072-.879-.528-.879-.256 0-.503.216-.575.632a1.914 1.914 0 0 0-.024.327v2.463h-.616v-2.87zm4.856 2.23c.136.088.376.2.624.2.344 0 .567-.216.567-.56 0-.296-.104-.504-.495-.76-.504-.328-.775-.664-.775-1.104 0-.632.463-1.071 1.062-1.071.305 0 .527.096.688.199l-.16.464a.88.88 0 0 0-.52-.176c-.327 0-.495.24-.495.496s.096.407.479.663c.447.288.8.648.8 1.184 0 .775-.528 1.151-1.167 1.151-.28 0-.592-.088-.76-.224l.152-.462zm13.381 171.312c-.808 0-1.296-.959-1.296-2.654 0-1.751.521-2.67 1.367-2.67.84 0 1.279.999 1.279 2.654 0 1.895-.6 2.67-1.343 2.67h-.007zm.04-.528c.496 0 .695-.888.695-2.135 0-1.215-.199-2.135-.695-2.135-.504 0-.72.88-.72 2.135-.008 1.256.208 2.135.712 2.135h.008zm3.217-2.406c0-.456-.024-.688-.032-1h.544l.031.472h.017c.167-.312.456-.535.863-.535.36 0 .672.168.815.583h.016c.104-.191.24-.344.377-.439.159-.096.335-.144.535-.144.527 0 .936.376.936 1.367v2.566h-.615v-2.431c0-.504-.072-.991-.536-.991-.256 0-.479.216-.567.583-.024.097-.024.217-.024.344v2.495h-.616v-2.543c0-.424-.071-.879-.527-.879-.256 0-.504.216-.576.632a2.028 2.028 0 0 0-.023.327v2.463h-.615v-2.87zm4.856 2.231c.137.088.376.2.624.2.344 0 .567-.216.567-.56 0-.296-.104-.504-.496-.76-.504-.328-.775-.664-.775-1.104 0-.632.464-1.071 1.063-1.071.304 0 .528.096.688.199l-.16.464a.884.884 0 0 0-.52-.176c-.328 0-.496.24-.496.496s.096.407.479.663c.448.288.8.648.8 1.184 0 .775-.527 1.151-1.168 1.151-.279 0-.592-.088-.76-.224l.154-.462zM77.922 364.319v-.399l.432-.592c.624-.863 1.352-1.839 1.352-2.814 0-.576-.248-.928-.736-.928-.375 0-.624.2-.751.288l-.152-.464a1.624 1.624 0 0 1 1.015-.352c.864 0 1.239.64 1.239 1.423 0 .976-.64 1.927-1.287 2.799l-.344.479v.016h1.727v.544h-2.495zm4.423-5.26c.744 0 1.12.623 1.12 1.223 0 .456-.216.896-.696 1.231v.017c.479.327.832.791.832 1.423 0 .808-.536 1.431-1.335 1.431-.863 0-1.295-.688-1.295-1.327 0-.735.432-1.199.856-1.495l-.008-.016c-.432-.296-.68-.752-.68-1.191 0-.8.568-1.295 1.2-1.295h.006zm-.056 4.869c.384 0 .704-.288.704-.943 0-.6-.344-.936-.744-1.199a1.388 1.388 0 0 0-.671 1.167c0 .584.264.976.704.976h.007zm.016-4.414c-.344 0-.576.328-.576.8 0 .527.32.792.64.999.312-.224.512-.567.512-.959 0-.504-.2-.84-.567-.84h-.009zm3.209 1.935c0-.456-.024-.688-.032-1h.543l.032.472h.016c.168-.312.456-.535.864-.535.36 0 .671.168.815.583h.016c.104-.191.24-.344.376-.439.16-.096.335-.144.536-.144.528 0 .936.376.936 1.367v2.566H89v-2.431c0-.504-.072-.991-.536-.991-.256 0-.48.216-.568.583-.024.097-.024.217-.024.344v2.495h-.616v-2.543c0-.424-.072-.879-.528-.879-.256 0-.503.216-.576.632a2.02 2.02 0 0 0-.024.327v2.463h-.616v-2.87zm4.856 2.231c.136.088.376.2.624.2.344 0 .567-.216.567-.56 0-.296-.104-.504-.496-.76-.504-.328-.775-.664-.775-1.104 0-.632.463-1.071 1.063-1.071.304 0 .527.096.688.199l-.16.464a.884.884 0 0 0-.52-.176c-.328 0-.496.24-.496.496s.096.407.479.663c.448.288.8.648.8 1.184 0 .775-.528 1.151-1.167 1.151-.28 0-.592-.088-.76-.224l.153-.462zm-11.105 35.379c.744 0 1.12.623 1.12 1.223 0 .456-.216.896-.696 1.231v.017c.479.327.832.791.832 1.423 0 .808-.536 1.431-1.335 1.431-.863 0-1.295-.688-1.295-1.327 0-.735.432-1.199.856-1.495l-.008-.016c-.432-.296-.68-.752-.68-1.191 0-.8.568-1.295 1.2-1.295h.006zm-.056 4.869c.384 0 .704-.288.704-.943 0-.6-.344-.936-.744-1.199a1.388 1.388 0 0 0-.671 1.167c0 .584.264.976.704.976h.007zm.016-4.414c-.344 0-.576.328-.576.8 0 .527.32.792.64.999.312-.224.512-.567.512-.959 0-.504-.2-.84-.567-.84h-.009zm3.392 4.805v-1.439H80.89v-.415l1.687-3.343h.6v3.254h.56v.504h-.56v1.439h-.56zm0-1.943v-1.463c0-.359.024-.68.048-1.023h-.032c-.176.416-.288.655-.439.976l-.72 1.495v.016h1.143zm2.897-.927c0-.456-.024-.688-.032-1h.543l.032.472h.016c.168-.312.456-.535.864-.535.36 0 .671.168.815.583h.016c.104-.191.24-.344.376-.439.16-.096.335-.144.536-.144.528 0 .936.376.936 1.367v2.566H89v-2.431c0-.504-.072-.991-.536-.991-.256 0-.48.216-.568.583-.024.097-.024.217-.024.344v2.495h-.616v-2.543c0-.424-.072-.879-.528-.879-.256 0-.503.216-.576.632a2.02 2.02 0 0 0-.024.327v2.463h-.616v-2.87zm4.856 2.231c.136.088.376.2.624.2.344 0 .567-.216.567-.56 0-.296-.104-.504-.496-.76-.504-.328-.775-.664-.775-1.104 0-.632.463-1.071 1.063-1.071.304 0 .527.096.688.199l-.16.464a.884.884 0 0 0-.52-.176c-.328 0-.496.24-.496.496s.096.407.479.663c.448.288.8.648.8 1.184 0 .775-.528 1.151-1.167 1.151-.28 0-.592-.088-.76-.224l.153-.462zm-57.187-59.762c.23.141.63.27.97.27.699 0 1.119-.459 1.119-1.139 0-.619-.36-1-.89-1.398-.53-.371-1.269-1-1.269-1.869 0-1.02.72-1.77 1.779-1.77.42 0 .79.141.95.25l-.19.66c-.17-.121-.45-.23-.8-.23-.66 0-.969.5-.969.959 0 .67.35.939.989 1.391.81.568 1.169 1.189 1.169 1.938 0 1.16-.819 1.889-1.889 1.889-.46 0-.95-.148-1.14-.299l.171-.652zm4.739.891v-2.85l-1.489-3.887h.82l.6 1.689c.16.469.35.998.5 1.518h.02c.13-.52.31-1.029.49-1.549l.57-1.658h.799l-1.539 3.857v2.879h-.771zm2.971 0v-6.736h.719l1.239 3.158c.28.729.63 1.619.86 2.348h.02a50.641 50.641 0 0 1-.09-3.098v-2.408h.689v6.736h-.72l-1.279-3.238c-.28-.68-.57-1.449-.81-2.289h-.02c.06.898.08 1.76.08 3.197v2.33h-.688zm49.415-68.124c-.209.11-.549.18-.969.18-1.309 0-2.259-1.049-2.259-3.338 0-2.668 1.319-3.518 2.389-3.518.4 0 .7.08.83.17l-.17.649c-.16-.07-.32-.14-.669-.14-.72 0-1.569.699-1.569 2.758 0 2.069.76 2.738 1.589 2.738.29 0 .54-.069.699-.14l.129.641zm.722-6.795h.77v6.916h-.77v-6.916zm2.269 1.329c-.25 0-.439-.2-.439-.5s.2-.499.45-.499c.28 0 .459.199.459.499s-.18.5-.459.5h-.011zm-.36 5.587v-4.837h.77v4.837h-.77zm2.38-2.349c.01 1.489.589 1.799 1.139 1.799.34 0 .61-.08.8-.18l.13.56c-.27.15-.68.229-1.069.229-1.149 0-1.75-.939-1.75-2.429 0-1.568.66-2.548 1.629-2.548.979 0 1.379 1.039 1.379 2.129 0 .189-.01.319-.02.439h-2.238zm1.519-.569c.01-.97-.35-1.399-.72-1.399-.5 0-.76.739-.79 1.399h1.51zm1.571-.67c0-.569-.03-.859-.04-1.249h.67l.04.579h.02c.21-.39.6-.659 1.109-.659.669 0 1.169.489 1.169 1.669v3.248h-.77v-3.118c0-.58-.11-1.149-.669-1.149-.32 0-.629.27-.72.789-.03.11-.04.261-.04.431v3.048h-.77v-3.589zm4.93-2.379v1.13h.93v.579h-.93v2.879c0 .64.22.799.5.799.13 0 .23-.01.31-.029l.04.59c-.14.05-.32.079-.57.079-.31 0-.58-.079-.759-.289-.2-.221-.29-.55-.29-1.22v-2.809h-.589v-.579h.589v-.82l.769-.31zm-98.12-18.226H4.01v-.979h3.488v.979H6.289v5.757h-1.07v-5.757zm5.899 5.647c-.2.101-.55.17-.989.17-1.54 0-2.419-1.259-2.419-3.338 0-2.589 1.369-3.518 2.569-3.518.439 0 .75.09.879.17l-.2.909c-.16-.08-.32-.14-.64-.14-.729 0-1.479.669-1.479 2.508 0 1.81.68 2.459 1.489 2.459.25 0 .5-.06.66-.12l.13.9zm.752-6.527c.34-.079.779-.13 1.249-.13.71 0 1.29.13 1.689.51.36.34.54.859.54 1.439 0 .68-.19 1.14-.5 1.499-.399.47-1.049.7-1.619.7-.11 0-.2 0-.3-.011v2.629H11.87v-6.636zm1.059 3.129c.08.02.15.02.26.02.699 0 1.089-.479 1.089-1.249 0-.63-.26-1.159-.979-1.159-.15 0-.28.02-.37.05v2.338zm7.289 3.408c-.15.08-.46.159-.819.159-1.16 0-1.929-.859-1.929-2.458 0-1.459.81-2.539 2.099-2.539.29 0 .57.07.7.14l-.16.85c-.11-.04-.28-.109-.52-.109-.689 0-1.049.739-1.049 1.639 0 1 .4 1.6 1.049 1.6.2 0 .37-.04.52-.11l.109.828zm2.081.18c-1.03 0-1.739-.859-1.739-2.499 0-1.769.87-2.528 1.779-2.528 1.02 0 1.719.89 1.719 2.499 0 1.969-1.02 2.528-1.749 2.528h-.01zm.039-.819c.53 0 .65-.96.65-1.699 0-.71-.12-1.689-.669-1.689-.58 0-.69.979-.69 1.689 0 .819.14 1.699.7 1.699h.009zm2.511-2.759c0-.55-.02-.939-.04-1.369h.93l.05.569h.02c.23-.39.64-.649 1.149-.649.819 0 1.249.63 1.249 1.759v3.188h-1.069v-3.088c0-.49-.1-.96-.569-.96-.26 0-.5.2-.6.6-.03.1-.05.26-.05.439v3.009H24.85v-3.498zm4.34 0c0-.55-.02-.939-.04-1.369h.93l.05.569h.02c.23-.39.64-.649 1.149-.649.819 0 1.249.63 1.249 1.759v3.188h-1.069v-3.088c0-.49-.1-.96-.569-.96-.26 0-.5.2-.6.6-.03.1-.05.26-.05.439v3.009H29.19v-3.498zm5.199 1.35c.01 1.089.51 1.389 1.08 1.389.36 0 .66-.08.87-.17l.16.76c-.31.14-.779.229-1.219.229-1.259 0-1.929-.909-1.929-2.418 0-1.609.77-2.589 1.809-2.589 1.02 0 1.54.93 1.54 2.229 0 .28-.01.44-.03.57h-2.281zm1.32-.76c.01-.779-.25-1.239-.629-1.239-.46 0-.67.669-.69 1.239h1.319zm4.319 2.808c-.15.08-.46.159-.819.159-1.16 0-1.929-.859-1.929-2.458 0-1.459.81-2.539 2.099-2.539.29 0 .57.07.7.14l-.16.85c-.11-.04-.28-.109-.52-.109-.689 0-1.049.739-1.049 1.639 0 1 .4 1.6 1.049 1.6.2 0 .37-.04.52-.11l.109.828zm2.021-5.977v1.21h.939v.77h-.939v2.528c0 .6.23.75.5.75.12 0 .22-.01.33-.03l.02.83c-.16.05-.4.079-.7.079-.34 0-.649-.09-.859-.3-.24-.239-.36-.589-.36-1.319v-2.538h-.58v-.77h.58v-.84l1.069-.37zm2.091.56c-.31 0-.56-.25-.56-.62 0-.38.26-.619.569-.619.34 0 .58.239.58.619 0 .37-.24.62-.58.62h-.009zm-.51 5.517v-4.867h1.069v4.867h-1.069zm3.599.08c-1.03 0-1.739-.859-1.739-2.499 0-1.769.87-2.528 1.779-2.528 1.019 0 1.719.89 1.719 2.499 0 1.969-1.02 2.528-1.749 2.528h-.01zm.04-.819c.529 0 .649-.96.649-1.699 0-.71-.12-1.689-.669-1.689-.58 0-.69.979-.69 1.689 0 .819.14 1.699.7 1.699h.01zm2.51-2.759c0-.55-.02-.939-.04-1.369h.93l.05.569h.02c.23-.39.64-.649 1.149-.649.819 0 1.249.63 1.249 1.759v3.188h-1.069v-3.088c0-.49-.1-.96-.569-.96-.26 0-.5.2-.6.6-.03.1-.05.26-.05.439v3.009h-1.069v-3.498zm6.04 3.498l.26-1.969h-.69v-.649h.77l.169-1.319h-.729v-.64h.81l.24-1.919h.64l-.25 1.919h.75l.24-1.919h.64l-.25 1.919h.68v.64h-.759l-.16 1.319h.72v.64h-.81l-.25 1.979h-.64l.25-1.979h-.74l-.25 1.979h-.641zm1.719-2.618l.16-1.319h-.74l-.16 1.319h.74zm2.031 2.618v-.71l.6-.789c.81-1.069 1.599-2.109 1.599-3.168 0-.61-.3-1.01-.87-1.01-.439 0-.759.21-.959.34l-.209-.819c.26-.19.77-.42 1.359-.42 1.27 0 1.729.879 1.729 1.839 0 1.219-.779 2.289-1.549 3.258l-.41.52v.021h2.059v.939h-3.349zm3.941 1.249c.25-.72.52-1.769.629-2.509l1.12-.1c-.27.859-.69 1.929-1.05 2.528l-.699.081zm4.189-7.886c.37-.09.839-.13 1.279-.13.699 0 1.279.12 1.669.49.38.359.51.81.51 1.369 0 .779-.38 1.389-1.06 1.699v.02c.48.17.72.62.859 1.42.14.819.3 1.539.41 1.769h-1.109c-.08-.189-.23-.85-.34-1.639-.13-.88-.38-1.16-.919-1.16h-.24v2.799h-1.059v-6.637zm1.059 3.019h.28c.64 0 1.04-.5 1.04-1.189 0-.659-.27-1.109-.959-1.119-.14 0-.27.01-.36.04v2.268zm4.13 1.47c.01 1.089.51 1.389 1.08 1.389.36 0 .66-.08.87-.17l.16.76c-.31.14-.779.229-1.219.229-1.259 0-1.929-.909-1.929-2.418 0-1.609.77-2.589 1.809-2.589 1.02 0 1.54.93 1.54 2.229 0 .28-.01.44-.03.57h-2.281zm1.32-.76c.01-.779-.25-1.239-.629-1.239-.46 0-.67.669-.69 1.239h1.319zm3.97 2.448h-.03c-.18.31-.5.54-.919.54-.87 0-1.439-.989-1.439-2.429 0-1.679.719-2.599 1.589-2.599.32 0 .68.14.899.609l.02.021.05-.55h.929c-.02.399-.04.89-.04 1.529v5.257h-1.059v-2.378zm0-2.608c0-.1-.01-.22-.03-.31-.06-.39-.3-.67-.56-.67-.51 0-.729.68-.729 1.629 0 .95.229 1.619.719 1.619.2 0 .44-.13.55-.6.04-.109.05-.239.05-.359v-1.309zm5.319 1.649c0 .529.02 1.009.04 1.419h-.93l-.06-.51h-.02c-.19.29-.58.59-1.089.59-.89 0-1.249-.67-1.249-1.939v-3.008h1.069v2.878c0 .7.12 1.18.56 1.18.33 0 .5-.28.55-.479.04-.11.06-.26.06-.42v-3.158h1.069v3.447zm1.861-.729c.01 1.089.51 1.389 1.08 1.389.36 0 .66-.08.87-.17l.16.76c-.31.14-.779.229-1.219.229-1.259 0-1.929-.909-1.929-2.418 0-1.609.77-2.589 1.809-2.589 1.02 0 1.54.93 1.54 2.229 0 .28-.01.44-.03.57h-2.281zm1.319-.76c.01-.779-.25-1.239-.629-1.239-.46 0-.67.669-.69 1.239h1.319zm1.681 1.898c.18.12.51.26.84.26.379 0 .609-.199.609-.56 0-.3-.14-.499-.589-.789-.73-.43-.99-.899-.99-1.39 0-.839.61-1.459 1.489-1.459.39 0 .7.11.93.24l-.21.789c-.19-.12-.41-.21-.67-.21-.37 0-.549.24-.549.51 0 .26.12.41.58.71.649.39 1 .869 1 1.479 0 .99-.69 1.489-1.609 1.489-.38 0-.83-.109-1.04-.279l.209-.79zm4.44-5.067v1.21h.939v.77h-.939v2.528c0 .6.23.75.5.75.12 0 .22-.01.33-.03l.02.83c-.16.05-.4.079-.7.079-.34 0-.649-.09-.859-.3-.24-.239-.36-.589-.36-1.319v-2.538h-.58v-.77h.58v-.84l1.069-.37zm3.281 6.077l.26-1.969h-.69v-.649h.77l.17-1.319h-.73v-.64h.81l.24-1.919h.64l-.25 1.919h.75l.24-1.919h.64l-.25 1.919h.68v.64h-.759l-.16 1.319h.72v.64h-.81l-.25 1.979h-.64l.25-1.979h-.74l-.25 1.979h-.641zm1.718-2.618l.16-1.319h-.74l-.16 1.319h.74zm2.031 2.618v-.71l.6-.789c.81-1.069 1.599-2.109 1.599-3.168 0-.61-.3-1.01-.87-1.01-.439 0-.759.21-.959.34l-.209-.819c.26-.19.77-.42 1.359-.42 1.27 0 1.729.879 1.729 1.839 0 1.219-.779 2.289-1.549 3.258l-.41.52v.021h2.059v.939h-3.349zm4.93-3.378c-.35 0-.62-.29-.62-.71 0-.399.28-.71.629-.71.37 0 .63.28.63.71 0 .42-.24.71-.63.71h-.009zm0 3.458c-.35 0-.62-.29-.62-.71 0-.399.28-.709.629-.709.37 0 .63.279.63.709 0 .42-.24.71-.63.71h-.009zm6.298-.19c-.199.101-.549.17-.989.17-1.539 0-2.418-1.259-2.418-3.338 0-2.589 1.369-3.518 2.568-3.518.439 0 .749.09.879.17l-.199.909c-.16-.08-.32-.14-.64-.14-.729 0-1.479.669-1.479 2.508 0 1.81.68 2.459 1.489 2.459.25 0 .5-.06.659-.12l.13.9zm.602-1.03c.25.15.689.271 1.04.271.659 0 1.02-.38 1.02-.939 0-.54-.33-.85-.88-1.229-.75-.48-1.27-1.149-1.27-1.879 0-1.05.71-1.879 1.969-1.879.43 0 .82.13 1 .239l-.19.92c-.189-.12-.47-.23-.829-.23-.609 0-.899.41-.899.82 0 .52.27.759.959 1.199.85.56 1.189 1.209 1.189 1.929 0 1.209-.859 1.979-2.068 1.979-.5 0-1.01-.14-1.22-.279l.179-.922zm3.79 0c.25.15.689.271 1.04.271.659 0 1.02-.38 1.02-.939 0-.54-.33-.85-.88-1.229-.75-.48-1.27-1.149-1.27-1.879 0-1.05.71-1.879 1.969-1.879.43 0 .82.13 1 .239l-.19.92c-.189-.12-.47-.23-.829-.23-.609 0-.899.41-.899.82 0 .52.27.759.959 1.199.85.56 1.189 1.209 1.189 1.929 0 1.209-.859 1.979-2.068 1.979-.5 0-1.01-.14-1.22-.279l.179-.922zm5.42-2.358c0-.45-.02-.96-.039-1.369h.929l.061.729h.029c.19-.49.59-.81.99-.81.1 0 .159.01.229.02v1.06c-.07-.01-.14-.01-.229-.01-.37 0-.74.31-.859.84-.021.109-.04.279-.04.46v2.578h-1.07v-3.498zm3.5 1.35c.01 1.089.51 1.389 1.079 1.389.359 0 .659-.08.869-.17l.16.76c-.31.14-.779.229-1.219.229-1.26 0-1.93-.909-1.93-2.418 0-1.609.77-2.589 1.81-2.589 1.02 0 1.539.93 1.539 2.229 0 .28-.01.44-.03.57h-2.278zm1.319-.76c.01-.779-.25-1.239-.63-1.239-.46 0-.67.669-.689 1.239h1.319zm3.97 2.448h-.029c-.181.31-.5.54-.92.54-.869 0-1.439-.989-1.439-2.429 0-1.679.72-2.599 1.59-2.599.319 0 .679.14.899.609l.02.021.05-.55h.93c-.02.399-.04.89-.04 1.529v5.257h-1.06v-2.378zm0-2.608c0-.1-.01-.22-.029-.31-.061-.39-.3-.67-.561-.67-.509 0-.729.68-.729 1.629 0 .95.23 1.619.72 1.619.2 0 .44-.13.55-.6.04-.109.05-.239.05-.359v-1.309zm5.318 1.649c0 .529.021 1.009.04 1.419h-.93l-.06-.51h-.02c-.19.29-.58.59-1.09.59-.89 0-1.249-.67-1.249-1.939v-3.008h1.069v2.878c0 .7.12 1.18.56 1.18.33 0 .5-.28.55-.479.04-.11.06-.26.06-.42v-3.158h1.069v3.447zm1.862-.729c.01 1.089.51 1.389 1.079 1.389.359 0 .659-.08.869-.17l.16.76c-.31.14-.779.229-1.22.229-1.259 0-1.929-.909-1.929-2.418 0-1.609.77-2.589 1.81-2.589 1.02 0 1.539.93 1.539 2.229 0 .28-.01.44-.03.57h-2.278zm1.32-.76c.01-.779-.25-1.239-.63-1.239-.46 0-.67.669-.689 1.239h1.319zm1.681 1.898c.18.12.51.26.839.26.38 0 .61-.199.61-.56 0-.3-.141-.499-.59-.789-.729-.43-.989-.899-.989-1.39 0-.839.609-1.459 1.488-1.459.391 0 .7.11.93.24l-.21.789a1.231 1.231 0 0 0-.669-.21c-.37 0-.55.24-.55.51 0 .26.12.41.579.71.65.39 1 .869 1 1.479 0 .99-.689 1.489-1.609 1.489-.38 0-.829-.109-1.039-.279l.21-.79zm4.439-5.067v1.21h.94v.77h-.94v2.528c0 .6.23.75.5.75.12 0 .22-.01.33-.03l.02.83c-.159.05-.399.079-.699.079-.34 0-.649-.09-.859-.3-.24-.239-.36-.589-.36-1.319v-2.538h-.579v-.77h.579v-.84l1.068-.37zm84.779 23.623c.229.14.63.27.97.27.699 0 1.119-.459 1.119-1.139 0-.62-.359-1-.89-1.399-.53-.37-1.269-.999-1.269-1.869 0-1.02.719-1.769 1.778-1.769.42 0 .79.14.95.249l-.19.66a1.41 1.41 0 0 0-.8-.229c-.66 0-.969.499-.969.959 0 .67.35.939.988 1.39.811.569 1.17 1.189 1.17 1.938 0 1.159-.819 1.889-1.889 1.889-.46 0-.949-.149-1.14-.3l.172-.65zm4.309-1.459c.01 1.489.59 1.799 1.139 1.799.34 0 .61-.08.801-.18l.129.56c-.27.15-.68.229-1.068.229-1.15 0-1.75-.939-1.75-2.429 0-1.568.66-2.548 1.629-2.548.98 0 1.38 1.039 1.38 2.129 0 .189-.011.319-.021.439h-2.239zm1.52-.569c.01-.97-.351-1.399-.721-1.399-.499 0-.76.739-.789 1.399h1.51zm1.56-.67c0-.41-.03-.89-.04-1.249h.689l.04.759h.02c.16-.459.57-.839 1.02-.839.061 0 .11 0 .16.01v.789c-.05-.01-.1-.01-.16-.01-.489 0-.85.45-.93 1.01-.02.13-.029.27-.029.439v2.679h-.77v-3.588zm3.14-1.249l.609 2.718c.069.33.149.76.21 1.18h.029c.051-.399.131-.81.201-1.18l.6-2.718h.76l-1.27 4.837h-.68l-1.26-4.837h.801zm3.49 2.488c.01 1.489.589 1.799 1.14 1.799.34 0 .609-.08.799-.18l.131.56c-.271.15-.68.229-1.07.229-1.148 0-1.749-.939-1.749-2.429 0-1.568.659-2.548 1.63-2.548.979 0 1.379 1.039 1.379 2.129 0 .189-.01.319-.02.439h-2.24zm1.519-.569c.01-.97-.35-1.399-.719-1.399-.5 0-.76.739-.79 1.399h1.509zm1.561-.67c0-.41-.03-.89-.04-1.249h.689l.04.759h.021c.16-.459.569-.839 1.02-.839.06 0 .109 0 .159.01v.789c-.05-.01-.1-.01-.159-.01-.49 0-.85.45-.93 1.01-.021.13-.03.27-.03.439v2.679h-.77v-3.588zm33.509 90.7c.229.141.629.27.969.27.699 0 1.119-.459 1.119-1.139 0-.619-.359-1-.889-1.398-.529-.371-1.27-1-1.27-1.869 0-1.02.72-1.77 1.779-1.77.42 0 .789.141.949.25l-.189.66c-.17-.121-.45-.23-.801-.23-.659 0-.969.5-.969.959 0 .67.35.939.989 1.391.81.568 1.169 1.189 1.169 1.938 0 1.16-.818 1.889-1.889 1.889-.459 0-.949-.148-1.139-.299l.172-.652zm4.738.891v-2.85l-1.488-3.887h.819l.6 1.689c.159.469.35.998.499 1.518h.021c.13-.52.31-1.029.489-1.549l.57-1.658h.799l-1.539 3.857v2.879h-.77zm2.971 0v-6.736h.72l1.239 3.158c.28.729.63 1.619.859 2.348h.021a50.614 50.614 0 0 1-.091-3.098v-2.408h.69v6.736h-.72l-1.279-3.238c-.279-.68-.57-1.449-.81-2.289h-.021c.061.898.08 1.76.08 3.197v2.33h-.688zm7.02-2.02l-.439 2.02h-.75l1.539-6.736h.85l1.5 6.736h-.76l-.439-2.02h-1.501zm1.389-.619l-.35-1.709c-.101-.48-.19-1.039-.271-1.539h-.029c-.08.51-.18 1.088-.279 1.549l-.351 1.699h1.28zm4.9 2.517c-.209.111-.549.18-.969.18-1.31 0-2.26-1.049-2.26-3.338 0-2.668 1.32-3.518 2.389-3.518.4 0 .7.08.83.17l-.17.65c-.16-.07-.32-.141-.67-.141-.719 0-1.568.699-1.568 2.758 0 2.07.76 2.738 1.588 2.738.291 0 .541-.068.7-.139l.13.64zm.781-6.615h.77v3.197h.021c.149-.279.29-.549.42-.809l1.249-2.389h.859l-1.648 2.879 1.689 3.857h-.83l-1.379-3.248-.381.648v2.6h-.77v-6.735zm40.685-13.599v-1.209h.979v3.488h-.979v-1.21h-5.757v-1.069h5.757zm-5.646 5.898c-.101-.199-.17-.55-.17-.989 0-1.54 1.259-2.419 3.338-2.419 2.589 0 3.518 1.369 3.518 2.568 0 .439-.09.75-.17.88l-.909-.2c.08-.16.14-.32.14-.64 0-.729-.669-1.479-2.508-1.479-1.81 0-2.459.68-2.459 1.49 0 .25.06.499.12.659l-.9.13zm6.526.752c.079.34.13.779.13 1.249 0 .71-.13 1.29-.51 1.688-.34.36-.859.541-1.439.541-.68 0-1.14-.19-1.499-.5-.47-.4-.7-1.05-.7-1.619 0-.11 0-.2.011-.301h-2.629v-1.059h6.636zm-3.129 1.059c-.02.08-.02.15-.02.261 0 .699.479 1.089 1.249 1.089.63 0 1.159-.26 1.159-.979 0-.15-.02-.28-.05-.371h-2.338zm-.429 6.621h-.779v-2.08h.779v2.08zm2.738 6.778v-1.749l-1.729-.27c.02.08.02.149.02.24 0 .35-.159.898-.489 1.238-.34.35-.819.551-1.479.551-1.299 0-2.219-.82-2.219-1.97 0-.399.11-.85.28-1.109l.609.17c-.11.2-.25.55-.25.909 0 .66.5 1.229 1.499 1.229 1.029 0 1.46-.63 1.46-1.469 0-.24-.011-.39-.03-.51l3.008.409v2.329h-.68zm.11 3.71c0-.13-.02-.279-.06-.459-.271-1.08-1.35-1.51-2.349-1.67v.03c.369.25.619.61.619 1.1 0 .819-.76 1.399-1.999 1.399-1.229 0-2.219-.561-2.219-1.6 0-1.139 1.149-1.709 2.648-1.709 1.26 0 2.229.33 2.929.84.55.39.899 1.01 1.02 1.579.04.2.05.37.06.489h-.649zm-5.407-1.189c0 .43.43.82 1.56.82.979 0 1.469-.35 1.469-.87 0-.329-.21-.659-.699-.849a1.303 1.303 0 0 0-.39-.051c-1.33.01-1.939.41-1.939.939v.011zm3.069 3.96c.569 0 .859-.029 1.249-.04v.68l-.589.04v.02c.39.211.669.57.669 1.08 0 .449-.21.84-.729 1.02v.02c.24.131.43.301.55.471.12.199.18.419.18.669 0 .659-.47 1.169-1.709 1.169h-3.208v-.77h3.038c.63 0 1.239-.09 1.239-.67 0-.319-.27-.6-.729-.709-.12-.029-.27-.029-.43-.029h-3.118v-.77h3.179c.529 0 1.099-.091 1.099-.66 0-.32-.27-.63-.789-.72-.12-.021-.26-.03-.41-.03h-3.078v-.77h3.586zm-2.789 6.071c-.11.17-.25.469-.25.779 0 .43.27.709.699.709.37 0 .63-.129.95-.619.409-.63.829-.969 1.379-.969.789 0 1.339.579 1.339 1.328 0 .381-.119.66-.25.859l-.579-.199c.13-.189.22-.39.22-.65 0-.409-.3-.619-.62-.619-.319 0-.509.12-.829.6-.359.561-.81 1-1.479 1-.969 0-1.438-.66-1.438-1.459 0-.351.109-.74.279-.95l.579.19zm-96.173 1.533h-1.399l-.216 1.383c.064-.016.12-.016.191-.016.28 0 .721.128.992.392.279.272.439.655.439 1.184 0 1.039-.655 1.774-1.575 1.774-.319 0-.68-.088-.888-.224l.137-.487c.16.088.439.199.727.199.528 0 .984-.399.984-1.199 0-.823-.504-1.167-1.176-1.167-.191 0-.312.008-.408.024l.328-2.407h1.863v.544zm2.968-.088c-.104 0-.225.016-.369.048-.863.216-1.207 1.079-1.334 1.879h.023c.199-.296.488-.496.879-.496.656 0 1.12.608 1.12 1.6 0 .983-.448 1.774-1.279 1.774-.911 0-1.367-.919-1.367-2.118 0-1.008.264-1.783.671-2.343.312-.439.809-.72 1.264-.815.16-.032.296-.04.393-.048v.519zm-.952 4.325c.344 0 .655-.344.655-1.247 0-.783-.279-1.176-.695-1.176-.264 0-.527.168-.68.561-.016.048-.04.159-.04.312.009 1.063.328 1.551.752 1.551h.008zm3.169-2.454c0-.456-.024-.688-.032-1h.544l.031.472h.017c.167-.312.456-.535.863-.535.36 0 .672.168.815.583h.016c.104-.191.24-.344.377-.439.159-.096.335-.144.535-.144.527 0 .936.376.936 1.367v2.566h-.615v-2.431c0-.504-.072-.991-.536-.991-.256 0-.479.216-.567.583-.024.097-.024.217-.024.344v2.495h-.616v-2.543c0-.424-.071-.879-.527-.879-.256 0-.504.216-.576.632a2.028 2.028 0 0 0-.023.327v2.463h-.615v-2.87zm4.856 2.231c.137.088.376.2.624.2.344 0 .567-.216.567-.56 0-.296-.104-.504-.496-.76-.504-.328-.775-.664-.775-1.104 0-.632.464-1.071 1.063-1.071.304 0 .528.096.688.199l-.16.464a.884.884 0 0 0-.52-.176c-.328 0-.496.24-.496.496s.096.407.479.663c.448.288.8.648.8 1.184 0 .775-.527 1.151-1.168 1.151-.279 0-.592-.088-.76-.224l.154-.462zm-216.776-5.891l-.44 2.02h-.75l1.54-6.736h.849l1.5 6.736h-.76l-.44-2.02h-1.499zm1.389-.619l-.35-1.709c-.1-.48-.19-1.039-.27-1.539h-.03c-.08.51-.18 1.088-.28 1.549l-.35 1.699h1.28zm4.9 2.517c-.209.111-.549.18-.969.18-1.309 0-2.259-1.049-2.259-3.338 0-2.668 1.319-3.518 2.389-3.518.4 0 .7.08.83.17l-.17.65c-.16-.07-.32-.141-.669-.141-.72 0-1.569.699-1.569 2.758 0 2.07.76 2.738 1.589 2.738.29 0 .54-.068.699-.139l.129.64zm.782-6.615h.77v3.197h.02c.15-.279.29-.549.42-.809l1.249-2.389h.86l-1.649 2.879 1.689 3.857h-.83l-1.379-3.248-.38.648v2.6h-.77v-6.735zm-11.257 16.557c-.29.119-.839.238-1.309.238-.69 0-1.259-.189-1.709-.658-.529-.551-.849-1.52-.839-2.709.02-2.529 1.399-3.488 2.719-3.488.47 0 .83.09 1.039.199l-.209.92c-.18-.1-.43-.16-.77-.16-.869 0-1.669.641-1.669 2.539 0 1.83.7 2.449 1.409 2.449.18 0 .29-.02.35-.051v-1.889h-.72v-.879h1.709v3.489zm3.681-2.889h-1.599v2.139h1.819v.93h-2.888v-6.736h2.768v.93h-1.699v1.848h1.599v.889zm1.841-2.689h-1.209v-.979h3.488v.979h-1.209v5.758h-1.069v-5.758zm3.91 6.156l2.259-7.215h.729l-2.259 7.215h-.729zm5.938-.498c-.15.08-.46.158-.819.158-1.16 0-1.929-.859-1.929-2.457 0-1.459.81-2.539 2.099-2.539.29 0 .569.07.699.139l-.16.85c-.11-.039-.28-.109-.52-.109-.689 0-1.049.74-1.049 1.639 0 1 .4 1.6 1.049 1.6.2 0 .37-.039.52-.109l.11.828zm.492-.91c.18.119.51.26.84.26.379 0 .609-.199.609-.561 0-.299-.14-.498-.589-.789-.73-.43-.99-.898-.99-1.389 0-.84.61-1.459 1.489-1.459.39 0 .7.109.93.24l-.21.789a1.23 1.23 0 0 0-.67-.211c-.37 0-.549.24-.549.51 0 .26.12.41.58.711.649.389 1 .869 1 1.479 0 .99-.69 1.488-1.609 1.488-.38 0-.83-.109-1.04-.279l.209-.789zm3.08 0c.18.119.51.26.84.26.379 0 .609-.199.609-.561 0-.299-.14-.498-.589-.789-.73-.43-.99-.898-.99-1.389 0-.84.61-1.459 1.489-1.459.39 0 .7.109.93.24l-.21.789a1.23 1.23 0 0 0-.67-.211c-.37 0-.549.24-.549.51 0 .26.12.41.58.711.649.389 1 .869 1 1.479 0 .99-.69 1.488-1.609 1.488-.38 0-.83-.109-1.04-.279l.209-.789zm27.052 38.947h-.016l-.864.495-.12-.479 1.095-.64h.504v5.197h-.6v-4.573zm3.088 4.637c-.808 0-1.295-.959-1.295-2.654 0-1.751.52-2.67 1.367-2.67.84 0 1.279.999 1.279 2.654 0 1.895-.6 2.67-1.343 2.67h-.008zm.04-.528c.496 0 .695-.888.695-2.135 0-1.215-.2-2.135-.695-2.135-.504 0-.72.88-.72 2.135-.008 1.256.208 2.135.711 2.135h.009zm3.399.464v-1.439H80.89v-.415l1.687-3.343h.6v3.254h.56v.504h-.56v1.439h-.56zm0-1.943v-1.463c0-.359.024-.68.048-1.023h-.032c-.176.416-.288.655-.439.976l-.72 1.495v.016h1.143zm2.897-.927c0-.456-.024-.688-.032-1h.543l.032.472h.016c.168-.312.456-.535.864-.535.36 0 .671.168.815.583h.016c.104-.191.24-.344.376-.439.16-.096.335-.144.536-.144.528 0 .936.376.936 1.367v2.566H89v-2.431c0-.504-.072-.991-.536-.991-.256 0-.48.216-.568.583-.024.097-.024.217-.024.344v2.495h-.616v-2.543c0-.424-.072-.879-.528-.879-.256 0-.503.216-.576.632a2.02 2.02 0 0 0-.024.327v2.463h-.616v-2.87zm4.856 2.231c.136.088.376.2.624.2.344 0 .567-.216.567-.56 0-.296-.104-.504-.496-.76-.504-.328-.775-.664-.775-1.104 0-.632.463-1.071 1.063-1.071.304 0 .527.096.688.199l-.16.464a.884.884 0 0 0-.52-.176c-.328 0-.496.24-.496.496s.096.407.479.663c.448.288.8.648.8 1.184 0 .775-.528 1.151-1.167 1.151-.28 0-.592-.088-.76-.224l.153-.462zm149.487 16.066h-.017l-.863.495-.119-.479 1.095-.64h.504v5.197h-.6v-4.573zm1.937 3.909c.16.097.439.216.752.216.535 0 .895-.392.895-1.031 0-.68-.424-1.079-1.047-1.079h-.145v-.464h.121c.367 0 .936-.279.936-.928 0-.527-.28-.799-.688-.799-.256 0-.479.128-.647.247l-.128-.463c.185-.152.536-.296.928-.296.735 0 1.151.52 1.151 1.191 0 .527-.271.991-.775 1.223v.017c.463.128.911.543.911 1.367 0 .839-.544 1.526-1.487 1.526-.336 0-.703-.096-.911-.239l.134-.488zm2.976.664v-.399l.432-.592c.624-.863 1.352-1.839 1.352-2.814 0-.576-.248-.928-.735-.928-.376 0-.624.2-.752.288l-.152-.464a1.628 1.628 0 0 1 1.016-.352c.863 0 1.239.64 1.239 1.423 0 .976-.64 1.927-1.287 2.799l-.344.479v.016h1.728v.544h-2.497zm4.511-2.87c0-.456-.024-.688-.032-1h.544l.032.472h.016c.168-.312.456-.535.863-.535.36 0 .672.168.816.583h.016c.104-.191.24-.344.376-.439a1.01 1.01 0 0 1 .536-.144c.527 0 .936.376.936 1.367v2.566h-.616v-2.431c0-.504-.072-.991-.536-.991-.256 0-.479.216-.567.583-.024.097-.024.217-.024.344v2.495h-.615v-2.543c0-.424-.072-.879-.527-.879-.256 0-.504.216-.576.632a2.028 2.028 0 0 0-.023.327v2.463h-.616v-2.87zm4.857 2.231c.136.088.375.2.623.2.344 0 .568-.216.568-.56 0-.296-.104-.504-.496-.76-.504-.328-.775-.664-.775-1.104 0-.632.463-1.071 1.063-1.071.304 0 .527.096.688.199l-.16.464a.881.881 0 0 0-.52-.176c-.328 0-.495.24-.495.496s.096.407.479.663c.448.288.801.648.801 1.184 0 .775-.528 1.151-1.168 1.151-.279 0-.592-.088-.76-.224l.152-.462zm-237.226 1.048c-.18.08-.459.139-.79.139-.969 0-1.319-.789-1.319-1.729 0-1.408.83-3.238 2.409-3.238.21 0 .38.031.48.08l-.19.619c-.1-.029-.21-.068-.36-.068-1.009 0-1.599 1.438-1.599 2.527 0 .711.21 1.189.77 1.189.19 0 .4-.049.59-.119l.009.6zm.601.081l1.299-6.916h.73l-1.319 6.916h-.71zm5.198-3.338c0 1.219-.6 3.418-2.079 3.418-.9 0-1.18-.779-1.18-1.641 0-1.299.7-3.357 2.139-3.357.971 0 1.12.929 1.12 1.58zm-2.528 1.709c0 .549.04 1.119.549 1.119.88 0 1.25-2.059 1.25-2.879 0-.5-.09-.93-.51-.93-.799 0-1.289 1.74-1.289 2.69zm2.83.879c.15.1.39.23.75.23.49-.01.78-.361.78-.82 0-.43-.21-.689-.49-.939-.33-.299-.629-.719-.629-1.18 0-.818.6-1.459 1.509-1.459.32 0 .6.08.75.189l-.2.551c-.14-.08-.36-.15-.56-.15-.5 0-.78.33-.78.75 0 .379.22.6.45.809.38.33.68.779.68 1.27 0 1.039-.68 1.559-1.579 1.559-.38 0-.759-.148-.899-.26l.218-.55zm5.459.509c-.35.189-.72.299-1.139.299-1.02 0-1.35-.779-1.35-1.709 0-1.309.73-3.268 2.109-3.268.709 0 1 .539 1 1.1 0 1.17-1.04 1.67-2.359 1.68-.02.139-.05.68.03.969.11.41.36.629.74.629.379 0 .64-.129.859-.26l.11.56zm-.49-4.058c-.43 0-.89.531-1.149 1.58.77-.01 1.579-.27 1.579-1.049 0-.34-.14-.531-.43-.531zm4.959 4.218c-.18.08-.459.139-.79.139-.969 0-1.319-.789-1.319-1.729 0-1.408.83-3.238 2.409-3.238.21 0 .38.031.48.08l-.19.619c-.1-.029-.21-.068-.36-.068-1.009 0-1.599 1.438-1.599 2.527 0 .711.21 1.189.77 1.189.19 0 .4-.049.59-.119l.009.6zm3.86-3.257c0 1.219-.6 3.418-2.079 3.418-.899 0-1.18-.779-1.18-1.641 0-1.299.7-3.357 2.139-3.357.97 0 1.12.929 1.12 1.58zm-2.529 1.709c0 .549.04 1.119.549 1.119.88 0 1.25-2.059 1.25-2.879 0-.5-.09-.93-.51-.93-.799 0-1.289 1.74-1.289 2.69zm2.811 1.629l.59-3.18c.14-.699.21-1.268.26-1.658h.63l-.08.77h.02c.39-.59.81-.85 1.299-.85.6 0 .83.471.83.98 0 .279-.04.51-.09.789l-.59 3.148h-.72l.59-3.139c.04-.221.07-.42.07-.67 0-.289-.12-.49-.42-.49-.45 0-.989.689-1.169 1.609l-.51 2.689h-.71zm3.93 0l.59-3.18c.14-.699.21-1.268.26-1.658h.63l-.08.77h.02c.39-.59.81-.85 1.299-.85.6 0 .83.471.83.98 0 .279-.04.51-.09.789l-.59 3.148h-.72l.59-3.139c.04-.221.07-.42.07-.67 0-.289-.12-.49-.42-.49-.45 0-.989.689-1.169 1.609l-.51 2.689h-.71zm6.588-.241c-.35.189-.72.299-1.139.299-1.02 0-1.35-.779-1.35-1.709 0-1.309.73-3.268 2.109-3.268.71 0 1 .539 1 1.1 0 1.17-1.04 1.67-2.359 1.68-.02.139-.05.68.03.969.11.41.36.629.74.629.379 0 .64-.129.859-.26l.11.56zm-.49-4.058c-.43 0-.89.531-1.149 1.58.77-.01 1.579-.27 1.579-1.049 0-.34-.14-.531-.43-.531zm3.49 4.218c-.18.08-.459.139-.79.139-.969 0-1.319-.789-1.319-1.729 0-1.408.83-3.238 2.409-3.238.21 0 .38.031.48.08l-.19.619c-.1-.029-.21-.068-.36-.068-1.009 0-1.599 1.438-1.599 2.527 0 .711.21 1.189.77 1.189.19 0 .4-.049.59-.119l.009.6zm2.72-6.027l-.26 1.27h.919l-.11.561h-.91l-.52 2.758c-.05.26-.07.48-.07.609 0 .24.09.369.33.369.13 0 .21 0 .3-.02l-.06.561c-.17.049-.36.07-.52.07-.51 0-.81-.301-.81-.781 0-.189.02-.389.1-.779l.529-2.787h-.58l.1-.561h.59l.2-1.049.772-.221zm.401 6.108l.919-4.838h.72l-.929 4.838h-.71zm1.09-6.067c.01-.26.21-.51.48-.51.28 0 .41.209.39.469-.02.33-.24.51-.5.51s-.4-.19-.37-.469zm4.108 2.729c0 1.219-.6 3.418-2.079 3.418-.9 0-1.18-.779-1.18-1.641 0-1.299.7-3.357 2.139-3.357.971 0 1.12.929 1.12 1.58zm-2.528 1.709c0 .549.04 1.119.549 1.119.88 0 1.25-2.059 1.25-2.879 0-.5-.09-.93-.51-.93-.799 0-1.289 1.74-1.289 2.69zm2.81 1.629l.59-3.18c.14-.699.21-1.268.26-1.658h.63l-.08.77h.02c.39-.59.81-.85 1.299-.85.6 0 .83.471.83.98 0 .279-.04.51-.09.789l-.59 3.148h-.72l.59-3.139c.04-.221.07-.42.07-.67 0-.289-.12-.49-.42-.49-.45 0-.989.689-1.169 1.609l-.51 2.689h-.71zm216.519-20.122c-.21.111-.55.18-.97.18-1.309 0-2.258-1.049-2.258-3.338 0-2.668 1.318-3.518 2.389-3.518.399 0 .699.08.829.17l-.17.65c-.16-.07-.319-.141-.669-.141-.721 0-1.57.699-1.57 2.758 0 2.07.76 2.738 1.59 2.738.289 0 .539-.068.699-.139l.13.64zm.632-.769c.23.141.63.27.97.27.699 0 1.119-.459 1.119-1.139 0-.619-.36-1-.89-1.398-.529-.371-1.27-1-1.27-1.869 0-1.02.721-1.77 1.779-1.77.42 0 .789.141.949.25l-.189.66a1.399 1.399 0 0 0-.8-.23c-.659 0-.97.5-.97.959 0 .67.35.939.99 1.391.809.568 1.169 1.189 1.169 1.938 0 1.16-.819 1.889-1.889 1.889-.46 0-.95-.148-1.14-.299l.172-.652zm3.609 0c.23.141.631.27.971.27.699 0 1.119-.459 1.119-1.139 0-.619-.36-1-.891-1.398-.529-.371-1.269-1-1.269-1.869 0-1.02.72-1.77 1.778-1.77.42 0 .79.141.95.25l-.19.66a1.398 1.398 0 0 0-.799-.23c-.66 0-.97.5-.97.959 0 .67.35.939.989 1.391.81.568 1.17 1.189 1.17 1.938 0 1.16-.82 1.889-1.889 1.889-.461 0-.95-.148-1.141-.299l.172-.652zm5.26-2.697c0-.41-.029-.891-.039-1.25h.689l.039.76h.021c.16-.459.569-.84 1.02-.84.06 0 .11 0 .159.01v.789c-.049-.01-.1-.01-.159-.01-.489 0-.85.451-.93 1.01-.021.131-.03.27-.03.439v2.68h-.77v-3.588zm2.89 1.238c.01 1.49.589 1.799 1.139 1.799.34 0 .609-.08.8-.18l.13.561c-.27.15-.68.229-1.069.229-1.149 0-1.749-.939-1.749-2.428 0-1.568.659-2.549 1.629-2.549.979 0 1.379 1.039 1.379 2.129 0 .189-.01.32-.02.439h-2.239zm1.519-.568c.01-.971-.351-1.4-.72-1.4-.5 0-.76.74-.789 1.4h1.509zm1.441 2.117c.17.111.47.25.78.25.43 0 .709-.27.709-.699 0-.369-.13-.629-.619-.949-.631-.41-.97-.83-.97-1.379 0-.789.579-1.34 1.329-1.34.38 0 .66.119.859.25l-.199.58a1.101 1.101 0 0 0-.65-.221c-.41 0-.619.301-.619.621 0 .318.119.508.6.828.56.359.999.811.999 1.48 0 .969-.659 1.438-1.459 1.438-.351 0-.739-.109-.95-.279l.19-.58zm3.01-2.528c0-.74-.03-1.17-.04-1.51h.689l.04.609h.021c.26-.51.649-.689 1.02-.689.85 0 1.398.891 1.398 2.488 0 1.799-.739 2.51-1.488 2.51-.461 0-.721-.281-.85-.551h-.021v2.389h-.77v-5.246zm.77 1.559c0 .141.01.279.04.4.15.689.49.809.699.809.641 0 .85-.879.85-1.848 0-1.01-.24-1.85-.85-1.85-.35 0-.67.439-.709.879-.03.121-.03.24-.03.369v1.241zm4.588 1.85c-.869 0-1.568-.791-1.568-2.488 0-1.77.789-2.51 1.619-2.51.869 0 1.559.799 1.559 2.488 0 1.879-.859 2.51-1.599 2.51h-.011zm.041-.61c.659 0 .799-1.131.799-1.891 0-.748-.14-1.889-.819-1.889-.689 0-.819 1.141-.819 1.889 0 .801.14 1.891.829 1.891h.01zm2.43-3.058c0-.57-.029-.859-.039-1.25h.67l.039.58h.021c.21-.391.6-.66 1.109-.66.669 0 1.169.49 1.169 1.67v3.248h-.77v-3.119c0-.58-.109-1.148-.67-1.148-.319 0-.629.27-.719.789-.03.109-.041.26-.041.43v3.049h-.77v-3.589zm3.92 2.787c.17.111.471.25.78.25.43 0 .71-.27.71-.699 0-.369-.131-.629-.62-.949-.63-.41-.97-.83-.97-1.379 0-.789.58-1.34 1.33-1.34.379 0 .659.119.859.25l-.2.58a1.098 1.098 0 0 0-.649-.221c-.41 0-.62.301-.62.621 0 .318.12.508.6.828.56.359.999.811.999 1.48 0 .969-.659 1.438-1.459 1.438-.35 0-.739-.109-.949-.279l.189-.58zm3.561-1.549c.01 1.49.59 1.799 1.139 1.799.34 0 .61-.08.801-.18l.129.561c-.27.15-.68.229-1.069.229-1.149 0-1.749-.939-1.749-2.428 0-1.568.66-2.549 1.629-2.549.98 0 1.38 1.039 1.38 2.129 0 .189-.011.32-.021.439h-2.239zm1.519-.568c.01-.971-.351-1.4-.721-1.4-.499 0-.759.74-.789 1.4h1.51z"/><path fill="none" stroke="#0071bc" d="M330.443 343.602c7.57 2.613-2.728 16.236 4.396 18.271-7.123 2.035 3.175 15.658-4.396 18.272" stroke-linejoin="round"/><path d="M343.127 398.822h-2.788v1.6h2.788v1.068h-6.736v-1.068h2.969v-1.6h-2.969v-1.069h6.736v1.069zm-.98 4.6v-1.209h.979v3.488h-.979v-1.209h-5.757v-1.07h5.757zm0 3.881v-1.21h.979v3.488h-.979v-1.21h-5.757v-1.068h5.757zm.88 3.009c.079.34.13.779.13 1.249 0 .71-.13 1.29-.51 1.688-.34.36-.859.541-1.439.541-.68 0-1.14-.19-1.499-.5-.47-.4-.7-1.05-.7-1.619 0-.11 0-.2.011-.301h-2.629v-1.059h6.636zm-3.129 1.059c-.02.08-.02.15-.02.261 0 .699.479 1.089 1.249 1.089.63 0 1.159-.26 1.159-.979 0-.15-.02-.28-.05-.371h-2.338zm-.599 8.291h-.59v-2.189h.59v2.189zm3.588 5.369h-.459l-6.037-2.1v-.75l5.797 2.06h.02v-2.339h.68v3.129zm-.57 3.539c0-.13-.02-.279-.06-.459-.271-1.08-1.35-1.51-2.349-1.67v.03c.369.25.619.61.619 1.1 0 .819-.76 1.399-1.999 1.399-1.229 0-2.219-.561-2.219-1.6 0-1.139 1.149-1.709 2.648-1.709 1.26 0 2.229.33 2.929.84.55.39.899 1.01 1.02 1.579.04.2.05.37.06.489h-.649zm-5.407-1.189c0 .43.43.82 1.56.82.979 0 1.469-.35 1.469-.87 0-.329-.21-.659-.699-.849a1.303 1.303 0 0 0-.39-.051c-1.33.01-1.939.41-1.939.939v.011zm3.069 3.961c.569 0 .859-.029 1.249-.04v.68l-.589.04v.02c.39.211.669.57.669 1.08 0 .449-.21.84-.729 1.02v.02c.24.131.43.301.55.471.12.199.18.419.18.669 0 .659-.47 1.169-1.709 1.169h-3.208v-.77h3.038c.63 0 1.239-.09 1.239-.67 0-.319-.27-.6-.729-.709-.12-.029-.27-.029-.43-.029h-3.118v-.771h3.179c.529 0 1.099-.09 1.099-.659 0-.32-.27-.63-.789-.72-.12-.021-.26-.03-.41-.03h-3.078v-.77h3.586zm-2.789 6.07c-.11.17-.25.47-.25.779 0 .43.27.71.699.71.37 0 .63-.13.95-.62.409-.629.829-.969 1.379-.969.789 0 1.339.58 1.339 1.329 0 .38-.119.659-.25.859l-.579-.2a1.1 1.1 0 0 0 .22-.649c0-.409-.3-.62-.62-.62-.319 0-.509.121-.829.6-.359.561-.81 1-1.479 1-.969 0-1.438-.66-1.438-1.459 0-.35.109-.74.279-.949l.579.189z"/><path fill="none" stroke="#009245" d="M330.443 383.603c7.57 4.995-2.728 31.035 4.396 34.925-7.123 3.891 3.175 29.931-4.396 34.926" stroke-linejoin="round"/><path fill="#f7931e" fill-rule="evenodd" d="M232.214 406.02h8.305v17.691h-8.305z" clip-rule="evenodd"/><path fill="none" stroke="#000" d="M232.214 406.02h8.305v17.691h-8.305z" stroke-linecap="round" stroke-linejoin="round"/><path d="M169.15 416.574c.136.088.376.199.624.199.344 0 .567-.215.567-.559 0-.297-.104-.504-.496-.76-.504-.328-.775-.664-.775-1.104 0-.633.463-1.072 1.063-1.072.304 0 .527.096.688.199l-.16.465a.884.884 0 0 0-.52-.176c-.328 0-.496.24-.496.496s.096.406.479.662c.448.289.8.648.8 1.184 0 .775-.528 1.152-1.167 1.152-.28 0-.592-.088-.76-.225l.153-.461zm2.848-1.24c.008 1.191.472 1.439.911 1.439.272 0 .488-.064.64-.145l.104.449c-.216.119-.543.184-.855.184-.919 0-1.399-.752-1.399-1.943 0-1.256.528-2.039 1.303-2.039.784 0 1.104.832 1.104 1.703 0 .152-.008.256-.016.352h-1.792zm1.215-.455c.008-.775-.28-1.119-.575-1.119-.4 0-.608.592-.632 1.119h1.207zm1.249-.535c0-.328-.024-.713-.032-1h.552l.032.607h.016c.128-.367.456-.672.816-.672.048 0 .087 0 .128.008v.633c-.041-.008-.08-.008-.128-.008-.392 0-.68.359-.744.807a2.29 2.29 0 0 0-.024.352v2.143h-.616v-2.87zm2.512-1l.488 2.174c.055.264.119.609.168.943h.023c.04-.318.104-.646.16-.943l.479-2.174h.607l-1.015 3.869h-.545l-1.007-3.869h.642zm2.792 1.99c.008 1.191.472 1.439.911 1.439.271 0 .488-.064.64-.145l.104.449c-.217.119-.544.184-.855.184-.92 0-1.4-.752-1.4-1.943 0-1.256.528-2.039 1.304-2.039.784 0 1.104.832 1.104 1.703 0 .152-.008.256-.016.352h-1.792zm1.214-.455c.009-.775-.28-1.119-.575-1.119-.4 0-.607.592-.632 1.119h1.207zm1.25-.535c0-.328-.023-.713-.032-1h.552l.032.607h.016c.128-.367.456-.672.815-.672.049 0 .088 0 .129.008v.633c-.041-.008-.08-.008-.129-.008-.392 0-.68.359-.743.807a2.17 2.17 0 0 0-.024.352v2.143h-.615v-2.87zm3.24.207c0-.592-.023-.936-.032-1.207h.552l.032.488h.016c.208-.408.521-.553.815-.553.68 0 1.119.711 1.119 1.99 0 1.439-.591 2.008-1.191 2.008-.367 0-.575-.225-.679-.439h-.017v1.91h-.615v-4.197zm.615 1.248c0 .111.008.223.032.318.12.553.392.648.56.648.512 0 .68-.703.68-1.479 0-.809-.191-1.48-.68-1.48-.279 0-.535.352-.567.705-.024.096-.024.191-.024.295v.993zm2.576-1.455c0-.328-.023-.713-.032-1h.552l.032.607h.016c.128-.367.456-.672.815-.672.049 0 .088 0 .129.008v.633c-.041-.008-.08-.008-.129-.008-.392 0-.68.359-.743.807a2.17 2.17 0 0 0-.024.352v2.143h-.615v-2.87zm2.967 2.933c-.695 0-1.255-.631-1.255-1.99 0-1.416.632-2.008 1.296-2.008.695 0 1.247.641 1.247 1.99 0 1.504-.688 2.008-1.279 2.008h-.009zm.033-.488c.527 0 .639-.902.639-1.51 0-.6-.111-1.512-.655-1.512-.552 0-.655.912-.655 1.512 0 .639.111 1.51.663 1.51h.008zm3.831.328c-.136.08-.368.145-.64.145-.848 0-1.416-.68-1.416-1.959 0-1.111.561-2.016 1.527-2.016.209 0 .432.057.544.129l-.12.496a.984.984 0 0 0-.439-.105c-.623 0-.896.736-.896 1.496 0 .902.344 1.447.911 1.447.16 0 .305-.033.44-.104l.089.471zm.913-1.783c.008 1.191.472 1.439.911 1.439.272 0 .487-.064.64-.145l.104.449c-.215.119-.543.184-.855.184-.919 0-1.398-.752-1.398-1.943 0-1.256.527-2.039 1.303-2.039.783 0 1.104.832 1.104 1.703 0 .152-.008.256-.016.352h-1.793zm1.215-.455c.008-.775-.279-1.119-.575-1.119-.399 0-.608.592-.632 1.119h1.207zm1.152 1.695c.137.088.377.199.625.199.344 0 .566-.215.566-.559 0-.297-.104-.504-.495-.76-.504-.328-.775-.664-.775-1.104 0-.633.464-1.072 1.063-1.072.304 0 .527.096.688.199l-.16.465a.884.884 0 0 0-.52-.176c-.328 0-.496.24-.496.496s.096.406.48.662c.447.289.799.648.799 1.184 0 .775-.527 1.152-1.167 1.152-.28 0-.592-.088-.76-.225l.152-.461zm2.313 0c.137.088.376.199.624.199.344 0 .567-.215.567-.559 0-.297-.104-.504-.496-.76-.504-.328-.775-.664-.775-1.104 0-.633.464-1.072 1.063-1.072.304 0 .528.096.688.199l-.16.465a.884.884 0 0 0-.52-.176c-.328 0-.496.24-.496.496s.096.406.479.662c.448.289.8.648.8 1.184 0 .775-.527 1.152-1.168 1.152-.279 0-.592-.088-.76-.225l.154-.461zm2.704-3.83c-.2 0-.353-.16-.353-.4s.16-.4.36-.4c.224 0 .368.16.368.4s-.145.4-.368.4h-.007zm-.288 4.469v-3.869h.615v3.869h-.615zm1.472-2.869c0-.457-.024-.688-.032-1h.536l.032.463h.016a.984.984 0 0 1 .888-.527c.536 0 .936.393.936 1.336v2.598h-.616v-2.494c0-.463-.088-.92-.535-.92-.256 0-.504.217-.576.633a1.447 1.447 0 0 0-.031.344v2.438h-.616v-2.871zm5.575 2.373c0 1.016-.128 1.4-.384 1.688-.24.256-.6.408-1.032.408-.327 0-.646-.08-.847-.191l.144-.48c.152.08.408.168.712.168.487 0 .792-.303.792-1.184v-.391h-.017a.775.775 0 0 1-.735.471c-.688 0-1.136-.775-1.136-1.91 0-1.432.64-2.016 1.216-2.016.407 0 .6.271.719.496h.017l.032-.432h.551c-.008.264-.031.607-.031 1.207v2.166zm-.615-2.037c0-.105-.009-.201-.033-.289-.063-.256-.207-.584-.559-.584-.44 0-.68.6-.68 1.455 0 .992.312 1.439.68 1.439.191 0 .432-.088.551-.551.041-.121.041-.24.041-.352v-1.118zm1.832-.336c-.225 0-.393-.186-.393-.449s.176-.455.4-.455c.24 0 .399.184.399.455 0 .264-.144.449-.399.449h-.007zm0 2.933c-.225 0-.393-.184-.393-.447s.176-.457.4-.457c.24 0 .399.186.399.457 0 .264-.144.447-.399.447h-.007zm2.271-.064v-.398l.432-.592c.624-.863 1.352-1.84 1.352-2.814 0-.576-.248-.928-.735-.928-.376 0-.624.199-.751.287l-.152-.463a1.625 1.625 0 0 1 1.016-.352c.863 0 1.239.639 1.239 1.422 0 .977-.64 1.928-1.288 2.799l-.344.48v.016h1.728v.543h-2.497zm4.336.064c-.808 0-1.295-.959-1.295-2.654 0-1.752.52-2.67 1.367-2.67.84 0 1.279.998 1.279 2.654 0 1.895-.6 2.67-1.344 2.67h-.007zm.04-.527c.495 0 .695-.889.695-2.135 0-1.215-.2-2.135-.695-2.135-.504 0-.72.879-.72 2.135-.008 1.256.208 2.135.711 2.135h.009zm3.216-2.406c0-.457-.023-.688-.031-1h.543l.033.471h.016c.168-.311.455-.535.863-.535.359 0 .672.168.815.584h.017c.104-.191.239-.344.375-.439.16-.096.336-.145.536-.145.527 0 .936.377.936 1.367v2.566h-.616v-2.43c0-.504-.072-.992-.535-.992-.256 0-.48.217-.568.584-.023.096-.023.217-.023.344v2.494h-.615v-2.543c0-.424-.072-.879-.528-.879-.256 0-.503.217-.575.633a1.91 1.91 0 0 0-.024.326v2.463h-.616v-2.869zm4.856 2.23c.136.088.376.199.624.199.344 0 .567-.215.567-.559 0-.297-.104-.504-.495-.76-.504-.328-.775-.664-.775-1.104 0-.633.463-1.072 1.062-1.072.305 0 .527.096.688.199l-.16.465a.88.88 0 0 0-.52-.176c-.327 0-.495.24-.495.496s.096.406.479.662c.447.289.8.648.8 1.184 0 .775-.528 1.152-1.167 1.152-.28 0-.592-.088-.76-.225l.152-.461z"/></svg>