<svg xmlns="http://www.w3.org/2000/svg" viewBox="0 0 331.946 168.21"><path fill="none" stroke="#ccc" stroke-miterlimit="10" d="M30.696 54.014h300.75"/><path fill="none" stroke="#000" d="M30.696 54.014h-2m2 13.5h-2" stroke-linecap="round" stroke-linejoin="round"/><path fill="none" stroke="#ccc" stroke-miterlimit="10" d="M30.696 41.347h300.75"/><path fill="none" stroke="#000" d="M30.696 41.347h-2" stroke-linecap="round" stroke-linejoin="round"/><path fill="none" stroke="#ccc" stroke-miterlimit="10" d="M30.696 28.681h300.75"/><path fill="none" stroke="#000" d="M30.696 28.681h-2" stroke-linecap="round" stroke-linejoin="round"/><path fill="none" stroke="#ccc" stroke-miterlimit="10" d="M30.696 16.014h300.75"/><path fill="none" stroke="#000" d="M30.696 16.014h-2" stroke-linecap="round" stroke-linejoin="round"/><path fill="none" stroke="#ccc" stroke-miterlimit="10" d="M30.696 3.348h300.75"/><path fill="none" stroke="#000" d="M30.696 3.348h-2" stroke-linecap="round" stroke-linejoin="round"/><path fill="#0071bc" d="M34.613 13.014H55.28v54.5H34.613zm30 29.666H85.28v24.833H64.613zm30 7.917h20.666v16.917H94.613zm30 3.166h20.666v13.75h-20.666zm30 1.084h20.667v12.667h-20.667zm30 .999h20.667v11.667h-20.667zm30 1.015h20.667v10.653h-20.667zm30-.084h20.667v10.736h-20.667zm30-.083h20.667v10.82h-20.667zm30-.084h20.667v10.903h-20.667z"/><path fill="none" stroke="#000" d="M30.696 3.848v63.666h300.75" stroke-linecap="round" stroke-linejoin="round"/><path fill="none" stroke="#ccc" stroke-miterlimit="10" d="M30.696 144.014h300.75"/><path fill="none" stroke="#000" d="M30.696 144.014h-2m2 13.5h-2" stroke-linecap="round" stroke-linejoin="round"/><path fill="none" stroke="#ccc" stroke-miterlimit="10" d="M30.696 131.347h300.75"/><path fill="none" stroke="#000" d="M30.696 131.347h-2" stroke-linecap="round" stroke-linejoin="round"/><path fill="none" stroke="#ccc" stroke-miterlimit="10" d="M30.696 118.681h300.75"/><path fill="none" stroke="#000" d="M30.696 118.681h-2" stroke-linecap="round" stroke-linejoin="round"/><path fill="none" stroke="#ccc" stroke-miterlimit="10" d="M30.696 106.014h300.75"/><path fill="none" stroke="#000" d="M30.696 106.014h-2" stroke-linecap="round" stroke-linejoin="round"/><path fill="none" stroke="#ccc" stroke-miterlimit="10" d="M30.696 93.348h300.75"/><path fill="none" stroke="#000" d="M30.696 93.348h-2" stroke-linecap="round" stroke-linejoin="round"/><path fill="#f7931e" d="M34.613 95.014H55.28v62.5H34.613zm30 6.363H85.28v56.137H64.613zm30 7.818h20.666v48.318H94.613zm30 7.318h20.666v41h-20.666zm30 7.167h20.667v33.834h-20.667zm30 7.25h20.667v26.584h-20.667zm30 7.083h20.667v19.501h-20.667zm30 6.042h20.667v13.459h-20.667zm30 6.646h20.667v6.813h-20.667zm30 4.311h20.667v2.501h-20.667z"/><path fill="none" stroke="#000" d="M30.696 93.848v63.666h300.75" stroke-linecap="round" stroke-linejoin="round"/><path d="M37.538 71.637h-.016l-.864.495-.12-.479 1.095-.64h.504v5.197h-.6v-4.573zm6.575 2.255c-.04-.712-.08-1.504-.056-2.111h-.032c-.12.6-.264 1.247-.432 1.871l-.656 2.526h-.399l-.624-2.423a24.809 24.809 0 0 1-.448-1.975h-.024c.008.632-.032 1.384-.064 2.151l-.104 2.278h-.552l.32-5.389h.671l.624 2.462c.184.712.32 1.239.432 1.855h.024c.104-.616.224-1.128.399-1.855l.608-2.462h.688l.312 5.39h-.576l-.111-2.318zm1.473-3.215h.616v2.119h.016c.2-.384.487-.52.815-.52.607 0 1.055.688 1.055 1.959 0 1.399-.576 2.038-1.167 2.038-.416 0-.624-.239-.768-.567h-.032l-.04.504h-.528c.008-.224.032-.664.032-.92v-4.613zm.616 4.174c0 .088.008.168.024.24.144.567.408.671.576.671.496 0 .671-.671.671-1.495 0-.775-.184-1.463-.68-1.463-.288 0-.52.352-.575.688a3.123 3.123 0 0 0-.016.272v1.087zm2.576-1.303c0-.592-.024-.936-.032-1.208h.552l.032.488h.016c.208-.408.52-.552.815-.552.68 0 1.119.711 1.119 1.99 0 1.439-.592 2.007-1.191 2.007-.368 0-.576-.224-.68-.439h-.016v1.911h-.616v-4.197zm.616 1.247c0 .111.008.224.032.319.12.552.392.647.56.647.512 0 .679-.703.679-1.479 0-.808-.192-1.479-.679-1.479-.28 0-.536.352-.568.704-.024.096-.024.191-.024.296v.992zm2.48.775c.136.088.376.2.624.2.344 0 .567-.216.567-.56 0-.296-.104-.504-.496-.76-.504-.328-.775-.664-.775-1.104 0-.632.463-1.071 1.063-1.071.304 0 .527.096.688.199l-.16.464a.884.884 0 0 0-.52-.176c-.328 0-.496.24-.496.496s.096.407.479.663c.448.288.8.648.8 1.184 0 .775-.528 1.151-1.167 1.151-.28 0-.592-.088-.76-.224l.153-.462zm81.454-69.42a3.58 3.58 0 0 1 .896-.104c.496 0 .92.12 1.2.392.256.256.392.647.392 1.12 0 .495-.12.831-.328 1.103-.288.4-.792.6-1.271.6-.104 0-.184 0-.272-.008v2.207h-.616V6.15zm.615 2.591c.072.008.144.017.248.017.6 0 1.007-.4 1.007-1.16 0-.551-.224-1.047-.911-1.047-.144 0-.264.016-.344.04v2.15zm4.368 1.839c0 .296 0 .632.04.88h-.552l-.04-.408h-.024c-.168.296-.44.472-.768.472-.52 0-.919-.432-.919-1.103 0-.976.775-1.399 1.647-1.407v-.12c0-.52-.128-.88-.616-.88-.24 0-.456.072-.64.2l-.136-.432c.168-.12.52-.256.903-.256.775 0 1.104.512 1.104 1.375v1.679zm-.6-1.127c-.32 0-1.063.063-1.063.903 0 .512.256.688.472.688.272 0 .496-.199.568-.583.016-.072.024-.152.024-.225v-.783zm3.808 1.511c0 1.016-.128 1.399-.384 1.688-.24.256-.6.407-1.032.407-.328 0-.647-.079-.847-.191l.144-.479c.152.08.408.168.712.168.488 0 .792-.304.792-1.184v-.393h-.016a.776.776 0 0 1-.735.472c-.688 0-1.136-.775-1.136-1.911 0-1.432.64-2.015 1.215-2.015.408 0 .6.271.72.495h.016l.032-.432h.552c-.008.264-.032.607-.032 1.208v2.167zm-.616-2.038c0-.104-.008-.2-.032-.288-.064-.256-.208-.584-.56-.584-.439 0-.68.6-.68 1.455 0 .991.312 1.439.68 1.439.192 0 .432-.088.552-.552.04-.12.04-.24.04-.352V8.926zm1.904.655c.008 1.191.472 1.439.912 1.439.272 0 .488-.064.64-.145l.104.448c-.216.12-.543.184-.855.184-.919 0-1.399-.752-1.399-1.942 0-1.256.528-2.039 1.304-2.039.783 0 1.103.831 1.103 1.703 0 .151-.008.256-.016.352h-1.793zm1.216-.456c.008-.775-.28-1.119-.576-1.119-.399 0-.607.592-.631 1.119h1.207zm2.561-3.054h.616v4.869h1.511v.52h-2.127V6.071zm3.663 5.452c-.695 0-1.255-.631-1.255-1.99 0-1.415.632-2.007 1.295-2.007.696 0 1.248.64 1.248 1.99 0 1.504-.688 2.007-1.279 2.007h-.009zm.032-.487c.528 0 .64-.903.64-1.511 0-.6-.112-1.512-.656-1.512-.552 0-.656.912-.656 1.512 0 .64.112 1.511.664 1.511h.008zm3.984-.456c0 .296 0 .632.04.88h-.552l-.04-.408h-.024c-.168.296-.44.472-.768.472-.52 0-.919-.432-.919-1.103 0-.976.775-1.399 1.647-1.407v-.12c0-.52-.128-.88-.616-.88-.24 0-.456.072-.64.2l-.136-.432c.168-.12.52-.256.903-.256.776 0 1.104.512 1.104 1.375v1.679zm-.6-1.127c-.32 0-1.063.063-1.063.903 0 .512.256.688.472.688.272 0 .496-.199.568-.583.016-.072.024-.152.024-.225v-.783zm3.807-3.526v4.605c0 .264.024.704.032.928h-.528l-.04-.479h-.032a.888.888 0 0 1-.808.543c-.656 0-1.127-.703-1.127-1.982 0-1.375.568-2.015 1.167-2.015.28 0 .552.128.704.455h.016V5.927h.616zm-.615 3.135c0-.08 0-.168-.008-.256-.032-.4-.28-.752-.575-.752-.512 0-.688.712-.688 1.487 0 .815.208 1.471.656 1.471.192 0 .456-.104.592-.663.024-.072.024-.16.024-.256V9.062zm3.128-2.439H159v-.552h2.583v.552h-.983v4.837h-.616V6.623zm2.352.367c-.2 0-.352-.16-.352-.399 0-.24.16-.4.36-.4.224 0 .368.16.368.4 0 .239-.144.399-.368.399h-.008zm-.288 4.47V7.59h.616v3.87h-.616zm1.473-2.87c0-.456-.024-.687-.032-1h.543l.032.472h.017c.167-.312.455-.535.863-.535.359 0 .672.168.815.583h.016c.104-.191.24-.344.376-.439.16-.096.336-.144.536-.144.527 0 .936.376.936 1.367v2.566h-.616V9.029c0-.504-.072-.991-.535-.991-.256 0-.48.216-.568.583-.023.097-.023.217-.023.344v2.495h-.616V8.917c0-.424-.071-.879-.527-.879-.256 0-.504.216-.576.632a2.028 2.028 0 0 0-.023.327v2.463h-.616V8.59zm5.392.991c.008 1.191.472 1.439.911 1.439.271 0 .487-.064.64-.145l.104.448c-.216.12-.543.184-.855.184-.919 0-1.399-.752-1.399-1.942 0-1.256.528-2.039 1.304-2.039.783 0 1.104.831 1.104 1.703 0 .151-.008.256-.016.352h-1.793zm1.215-.456c.008-.775-.28-1.119-.575-1.119-.4 0-.608.592-.632 1.119h1.207zm4.552 1.455c0 .296 0 .632.04.88h-.552l-.04-.408h-.024c-.168.296-.439.472-.768.472-.52 0-.919-.432-.919-1.103 0-.976.775-1.399 1.646-1.407v-.12c0-.52-.128-.88-.615-.88-.24 0-.456.072-.64.2l-.136-.432c.168-.12.52-.256.903-.256.775 0 1.104.512 1.104 1.375v1.679zm-.6-1.127c-.32 0-1.063.063-1.063.903 0 .512.256.688.472.688.271 0 .495-.199.567-.583.016-.072.024-.152.024-.225v-.783zm1.368 1.367c.137.088.376.2.624.2.344 0 .567-.216.567-.56 0-.296-.104-.504-.495-.76-.504-.328-.775-.664-.775-1.104 0-.632.463-1.071 1.063-1.071.304 0 .527.096.688.199l-.16.464a.884.884 0 0 0-.52-.176c-.328 0-.496.24-.496.496s.096.407.479.663c.448.288.8.648.8 1.184 0 .775-.527 1.151-1.167 1.151-.28 0-.592-.088-.76-.224l.152-.462zm3.664-4.893h.616v2.119h.016c.2-.384.487-.52.815-.52.607 0 1.056.687 1.056 1.959 0 1.399-.576 2.038-1.167 2.038-.416 0-.624-.239-.768-.567h-.032l-.04.504h-.528c.009-.224.032-.664.032-.92V5.927zm.617 4.174c0 .088.008.168.023.24.145.567.408.671.576.671.495 0 .671-.671.671-1.495 0-.775-.184-1.463-.679-1.463-.288 0-.521.352-.576.688a3.123 3.123 0 0 0-.016.272v1.087zm4.623.479c0 .296 0 .632.04.88h-.552l-.04-.408h-.024c-.168.296-.439.472-.768.472-.52 0-.919-.432-.919-1.103 0-.976.775-1.399 1.646-1.407v-.12c0-.52-.128-.88-.615-.88-.24 0-.456.072-.64.2l-.136-.432c.168-.12.52-.256.903-.256.775 0 1.104.512 1.104 1.375v1.679zm-.6-1.127c-.32 0-1.063.063-1.063.903 0 .512.256.688.472.688.271 0 .495-.199.567-.583.016-.072.024-.152.024-.225v-.783zm1.473-.863c0-.456-.024-.687-.032-1h.536l.031.464h.017a.98.98 0 0 1 .888-.527c.535 0 .936.392.936 1.335v2.599h-.616V8.965c0-.463-.088-.919-.535-.919-.256 0-.504.216-.576.632a1.446 1.446 0 0 0-.032.344v2.438h-.615V8.59zm5.574-2.663v4.605c0 .264.024.704.032.928h-.527l-.04-.479h-.032a.888.888 0 0 1-.808.543c-.655 0-1.128-.703-1.128-1.982 0-1.375.568-2.015 1.168-2.015.279 0 .552.128.703.455h.017V5.927h.615zm-.615 3.135c0-.08 0-.168-.008-.256-.032-.4-.28-.752-.576-.752-.512 0-.688.712-.688 1.487 0 .815.208 1.471.655 1.471.192 0 .456-.104.592-.663.024-.072.024-.16.024-.256V9.062zm1.784-1.472l.376 1.896c.08.415.16.831.208 1.231h.032c.056-.4.151-.848.239-1.216l.448-1.911h.472l.424 1.855c.096.432.184.839.248 1.271h.031c.048-.408.12-.808.208-1.248l.368-1.879h.615l-.976 3.87h-.503l-.448-1.879a11.02 11.02 0 0 1-.216-1.159h-.016c-.064.455-.137.815-.225 1.184l-.463 1.854h-.521l-.943-3.87h.642zm4.505-.6c-.2 0-.353-.16-.353-.399 0-.24.16-.4.36-.4.224 0 .367.16.367.4 0 .239-.144.399-.367.399h-.007zm-.288 4.47V7.59h.615v3.87h-.615zm3.806-5.533v4.605c0 .264.023.704.031.928h-.527l-.04-.479h-.032a.886.886 0 0 1-.808.543c-.655 0-1.127-.703-1.127-1.982 0-1.375.567-2.015 1.167-2.015.28 0 .552.128.704.455h.016V5.927h.616zm-.616 3.135c0-.08 0-.168-.008-.256-.032-.4-.28-.752-.575-.752-.512 0-.688.712-.688 1.487 0 .815.208 1.471.656 1.471.191 0 .455-.104.592-.663.023-.072.023-.16.023-.256V9.062zm2.225-2.375v.903h.743v.464h-.743v2.303c0 .512.176.64.399.64.104 0 .185-.008.248-.023l.032.472c-.112.04-.256.063-.456.063-.248 0-.464-.063-.607-.231-.16-.176-.231-.44-.231-.976V8.054h-.472V7.59h.472v-.655l.615-.248zm1.288-.76h.616v2.079h.016c.08-.136.2-.256.328-.344a.9.9 0 0 1 .512-.136c.487 0 .903.384.903 1.367v2.566h-.615V8.965c0-.479-.104-.919-.521-.919-.287 0-.503.208-.6.615-.016.088-.023.2-.023.288v2.511h-.616V5.927zm4.784 1.063c-.2 0-.353-.16-.353-.399 0-.24.16-.4.36-.4.224 0 .367.16.367.4 0 .239-.144.399-.367.399h-.007zm-.288 4.47V7.59h.615v3.87h-.615zm1.472-2.87c0-.456-.023-.687-.031-1h.535l.032.464h.016a.982.982 0 0 1 .888-.527c.536 0 .936.392.936 1.335v2.599h-.615V8.965c0-.463-.088-.919-.536-.919-.256 0-.504.216-.575.632a1.395 1.395 0 0 0-.032.344v2.438h-.616V8.59zm5.126 2.774c-.136.08-.367.144-.64.144-.848 0-1.415-.68-1.415-1.959 0-1.111.56-2.015 1.527-2.015.208 0 .432.056.544.128l-.12.496c-.08-.04-.24-.104-.44-.104-.623 0-.896.735-.896 1.495 0 .903.344 1.447.912 1.447.16 0 .304-.032.439-.104l.089.472zm.522-2.774c0-.328-.024-.712-.032-1h.552l.032.607h.016c.128-.367.456-.671.815-.671.048 0 .088 0 .128.008v.632c-.04-.008-.08-.008-.128-.008-.392 0-.68.359-.743.807a2.175 2.175 0 0 0-.024.353v2.143h-.615V8.59zm2.311.991c.008 1.191.472 1.439.911 1.439.272 0 .488-.064.64-.145l.104.448c-.216.12-.544.184-.855.184-.92 0-1.399-.752-1.399-1.942 0-1.256.527-2.039 1.304-2.039.783 0 1.103.831 1.103 1.703 0 .151-.008.256-.016.352h-1.792zm1.216-.456c.008-.775-.28-1.119-.576-1.119-.399 0-.607.592-.632 1.119h1.208zm3.295 1.455c0 .296 0 .632.04.88h-.552l-.04-.408h-.023c-.168.296-.44.472-.768.472-.52 0-.92-.432-.92-1.103 0-.976.775-1.399 1.647-1.407v-.12c0-.52-.128-.88-.616-.88a1.11 1.11 0 0 0-.64.2l-.136-.432c.168-.12.52-.256.903-.256.776 0 1.104.512 1.104 1.375v1.679zm-.599-1.127c-.319 0-1.063.063-1.063.903 0 .512.256.688.472.688.272 0 .496-.199.568-.583.016-.072.023-.152.023-.225v-.783zm1.369 1.367c.136.088.376.2.624.2.344 0 .567-.216.567-.56 0-.296-.104-.504-.496-.76-.504-.328-.775-.664-.775-1.104 0-.632.464-1.071 1.063-1.071.304 0 .527.096.688.199l-.16.464a.881.881 0 0 0-.52-.176c-.327 0-.495.24-.495.496s.096.407.479.663c.447.288.8.648.8 1.184 0 .775-.528 1.151-1.168 1.151-.279 0-.592-.088-.76-.224l.153-.462zm2.847-1.239c.008 1.191.472 1.439.911 1.439.272 0 .488-.064.64-.145l.104.448c-.216.12-.544.184-.855.184-.92 0-1.399-.752-1.399-1.942 0-1.256.527-2.039 1.304-2.039.783 0 1.103.831 1.103 1.703 0 .151-.008.256-.016.352h-1.792zm1.216-.456c.008-.775-.28-1.119-.576-1.119-.399 0-.607.592-.632 1.119h1.208zm1.153 1.695c.136.088.376.2.624.2.344 0 .567-.216.567-.56 0-.296-.104-.504-.496-.76-.504-.328-.775-.664-.775-1.104 0-.632.464-1.071 1.063-1.071.304 0 .527.096.688.199l-.16.464a.881.881 0 0 0-.52-.176c-.327 0-.495.24-.495.496s.096.407.479.663c.447.288.8.648.8 1.184 0 .775-.528 1.151-1.168 1.151-.279 0-.592-.088-.76-.224l.153-.462zM1.387 60.541a3.58 3.58 0 0 1-.104-.896c0-.496.12-.92.392-1.2.256-.256.647-.392 1.12-.392.495 0 .831.12 1.103.328.4.288.6.792.6 1.271 0 .104 0 .184-.008.272h2.207v.616h-5.31zm2.591-.616c.008-.072.017-.144.017-.248 0-.6-.4-1.007-1.16-1.007-.551 0-1.047.224-1.047.911 0 .144.016.264.04.344h2.15zm1.838-4.367c.296 0 .632 0 .88-.04v.552l-.408.04v.024c.296.168.472.44.472.768 0 .52-.432.919-1.103.919-.976 0-1.399-.775-1.407-1.647h-.12c-.52 0-.88.128-.88.616 0 .24.072.456.2.64l-.432.136c-.12-.168-.256-.52-.256-.903 0-.775.512-1.104 1.375-1.104h1.679zm-1.127.599c0 .32.063 1.063.903 1.063.512 0 .688-.256.688-.472 0-.272-.199-.496-.583-.568a1.069 1.069 0 0 0-.225-.024h-.783zM6.2 52.35c1.016 0 1.399.128 1.688.384.256.24.407.6.407 1.032 0 .328-.079.647-.191.847l-.479-.144c.08-.152.168-.408.168-.712 0-.488-.304-.792-1.184-.792h-.392v.016a.776.776 0 0 1 .472.735c0 .688-.775 1.136-1.911 1.136-1.432 0-2.015-.64-2.015-1.215 0-.408.271-.6.495-.72v-.016l-.432-.031v-.552c.264.008.607.032 1.208.032H6.2zm-2.038.616c-.104 0-.2.008-.288.032-.256.064-.584.208-.584.56 0 .439.6.68 1.455.68.991 0 1.439-.312 1.439-.68 0-.192-.088-.432-.552-.552-.12-.04-.24-.04-.352-.04H4.162zm.655-1.904c1.191-.008 1.439-.472 1.439-.912 0-.272-.064-.488-.145-.64l.448-.104c.12.216.184.543.184.855 0 .919-.752 1.399-1.942 1.399-1.256 0-2.039-.528-2.039-1.304 0-.783.831-1.103 1.703-1.103.151 0 .256.008.352.016v1.793zm-.456-1.216c-.775-.008-1.119.28-1.119.576 0 .399.592.607 1.119.631v-1.207zm-3.053-2.561v-.616h4.869v-1.511h.52v2.127H1.308zm5.452-3.663c0 .695-.631 1.255-1.99 1.255-1.415 0-2.007-.632-2.007-1.295 0-.696.64-1.248 1.99-1.248 1.504 0 2.007.688 2.007 1.279v.009zm-.488-.033c0-.528-.903-.64-1.511-.64-.6 0-1.512.112-1.512.656 0 .552.912.656 1.512.656.64 0 1.511-.112 1.511-.664v-.008zm-.456-3.983c.296 0 .632 0 .88-.04v.552l-.408.04v.024c.296.168.472.44.472.768 0 .52-.432.919-1.103.919-.976 0-1.399-.775-1.407-1.647h-.12c-.52 0-.88.128-.88.616 0 .24.072.456.2.64l-.432.136c-.12-.168-.256-.52-.256-.903 0-.776.512-1.104 1.375-1.104h1.679zm-1.127.6c0 .32.063 1.063.903 1.063.512 0 .688-.256.688-.472 0-.272-.199-.496-.583-.568a1.069 1.069 0 0 0-.225-.024h-.783zm-3.526-3.808h4.605c.264 0 .704-.024.928-.032v.528l-.479.04v.032c.271.12.543.4.543.808 0 .656-.703 1.127-1.982 1.127-1.375 0-2.015-.568-2.015-1.167 0-.28.128-.552.455-.704v-.016H1.163v-.616zm3.135.616c-.08 0-.168 0-.256.008-.4.032-.752.28-.752.575 0 .512.712.688 1.487.688.815 0 1.471-.208 1.471-.656 0-.192-.104-.456-.663-.592-.072-.024-.16-.024-.256-.024H4.298zm-2.439-3.128v.983h-.551v-2.583h.552v.983h4.837v.616H1.859zm.368-2.353c0 .2-.16.352-.399.352-.24 0-.4-.16-.4-.36 0-.224.16-.368.4-.368.239 0 .399.144.399.368v.008zm4.469.288h-3.87v-.616h3.87v.616zm-2.87-1.472c-.456 0-.688.024-1 .032v-.543l.472-.032v-.016c-.312-.167-.535-.456-.535-.863 0-.36.168-.672.583-.815v-.016a1.294 1.294 0 0 1-.439-.376 1.012 1.012 0 0 1-.144-.536c0-.527.376-.936 1.367-.936h2.566v.616h-2.43c-.504 0-.991.072-.991.536 0 .256.216.48.583.568.097.024.217.024.344.024h2.495v.616H4.153c-.424 0-.879.072-.879.528 0 .256.216.503.632.576.096.016.207.024.327.024h2.463v.616h-2.87zm.991-5.392c1.191-.008 1.439-.472 1.439-.911 0-.272-.064-.488-.145-.64l.448-.104c.12.216.184.543.184.855 0 .919-.752 1.399-1.942 1.399-1.256 0-2.039-.528-2.039-1.303 0-.784.831-1.104 1.703-1.104.151 0 .256.008.352.016v1.792zm-.456-1.215c-.775-.008-1.119.28-1.119.575 0 .4.592.608 1.119.632v-1.207zm-3.198-3.904c.72.456 1.799.832 3.255.832 1.431 0 2.51-.376 3.238-.832v.48c-.608.416-1.68.872-3.247.872-1.566-.016-2.646-.456-3.246-.872v-.48zm2.663-.632c-.456 0-.688.024-1 .032v-.543l.472-.032v-.016c-.312-.167-.535-.456-.535-.863 0-.36.168-.672.583-.815v-.016a1.294 1.294 0 0 1-.439-.376 1.012 1.012 0 0 1-.144-.536c0-.527.376-.936 1.367-.936h2.566v.616h-2.43c-.504 0-.991.072-.991.536 0 .256.216.48.583.568.097.024.217.024.344.024h2.495v.616H4.153c-.424 0-.879.072-.879.528 0 .256.216.503.632.576.096.016.207.024.327.024h2.463v.616h-2.87zm2.231-4.856c.088-.136.2-.376.2-.624 0-.344-.216-.567-.56-.567-.296 0-.504.104-.76.496-.328.504-.664.775-1.104.775-.632 0-1.071-.463-1.071-1.063 0-.304.096-.528.199-.688l.464.16a.884.884 0 0 0-.175.519c0 .328.24.496.496.496s.407-.096.663-.479c.288-.448.648-.8 1.184-.8.775 0 1.151.528 1.151 1.167 0 .28-.088.592-.224.76l-.463-.152zm1.599-2.184c-.72-.456-1.815-.832-3.255-.832s-2.519.375-3.238.832v-.48c.592-.416 1.655-.872 3.238-.872 1.583.016 2.639.456 3.255.872v.48zm7.948 40.623h-.016l-.864.495-.12-.479 1.095-.64h.504v5.197h-.6v-4.573zm4.239-.08h-1.399l-.216 1.383c.064-.016.12-.016.192-.016.28 0 .72.128.992.392.28.272.439.655.439 1.184 0 1.039-.656 1.774-1.575 1.774-.32 0-.679-.088-.887-.224l.136-.487c.16.088.44.199.728.199.528 0 .983-.399.983-1.199 0-.823-.503-1.167-1.175-1.167-.192 0-.312.008-.408.024l.328-2.407h1.863v.544zm1.929 4.716c-.808 0-1.295-.959-1.295-2.654 0-1.751.52-2.67 1.367-2.67.84 0 1.279.999 1.279 2.654 0 1.895-.6 2.67-1.343 2.67h-.008zm.04-.527c.496 0 .695-.888.695-2.135 0-1.215-.2-2.135-.695-2.135-.504 0-.72.88-.72 2.135-.008 1.256.208 2.135.711 2.135h.009zm3.04.527c-.808 0-1.295-.959-1.295-2.654 0-1.751.52-2.67 1.367-2.67.84 0 1.279.999 1.279 2.654 0 1.895-.6 2.67-1.343 2.67h-.008zm.04-.527c.496 0 .695-.888.695-2.135 0-1.215-.2-2.135-.695-2.135-.504 0-.72.88-.72 2.135-.008 1.256.208 2.135.711 2.135h.009zm-9.288 8.891h-.016l-.864.495-.12-.479 1.095-.64h.504v5.197h-.6v-4.573zm3.088 4.636c-.808 0-1.295-.959-1.295-2.654 0-1.751.52-2.67 1.367-2.67.84 0 1.279.999 1.279 2.654 0 1.895-.6 2.67-1.343 2.67h-.008zm.04-.527c.496 0 .695-.888.695-2.135 0-1.215-.2-2.135-.695-2.135-.504 0-.72.88-.72 2.135-.008 1.256.208 2.135.711 2.135h.009zm3.04.527c-.808 0-1.295-.959-1.295-2.654 0-1.751.52-2.67 1.367-2.67.84 0 1.279.999 1.279 2.654 0 1.895-.6 2.67-1.343 2.67h-.008zm.04-.527c.496 0 .695-.888.695-2.135 0-1.215-.2-2.135-.695-2.135-.504 0-.72.88-.72 2.135-.008 1.256.208 2.135.711 2.135h.009zm3.04.527c-.808 0-1.295-.959-1.295-2.654 0-1.751.52-2.67 1.367-2.67.84 0 1.279.999 1.279 2.654 0 1.895-.6 2.67-1.343 2.67h-.008zm.04-.527c.496 0 .695-.888.695-2.135 0-1.215-.2-2.135-.695-2.135-.504 0-.72.88-.72 2.135-.008 1.256.208 2.135.711 2.135h.009zM14.356 44.695v-.399l.432-.592c.624-.863 1.352-1.839 1.352-2.814 0-.576-.248-.928-.736-.928-.375 0-.624.2-.751.288l-.153-.464a1.624 1.624 0 0 1 1.015-.352c.864 0 1.239.64 1.239 1.423 0 .976-.64 1.927-1.287 2.799l-.344.479v.016h1.727v.544h-2.494zm4.336.064c-.808 0-1.295-.959-1.295-2.654 0-1.751.52-2.67 1.367-2.67.84 0 1.279.999 1.279 2.654 0 1.895-.6 2.67-1.343 2.67h-.008zm.04-.528c.496 0 .695-.888.695-2.135 0-1.215-.2-2.135-.695-2.135-.504 0-.72.88-.72 2.135-.008 1.256.208 2.135.711 2.135h.009zm3.04.528c-.808 0-1.295-.959-1.295-2.654 0-1.751.52-2.67 1.367-2.67.84 0 1.279.999 1.279 2.654 0 1.895-.6 2.67-1.343 2.67h-.008zm.04-.528c.496 0 .695-.888.695-2.135 0-1.215-.2-2.135-.695-2.135-.504 0-.72.88-.72 2.135-.008 1.256.208 2.135.711 2.135h.009zm3.04.528c-.808 0-1.295-.959-1.295-2.654 0-1.751.52-2.67 1.367-2.67.84 0 1.279.999 1.279 2.654 0 1.895-.6 2.67-1.343 2.67h-.008zm.04-.528c.496 0 .695-.888.695-2.135 0-1.215-.2-2.135-.695-2.135-.504 0-.72.88-.72 2.135-.008 1.256.208 2.135.711 2.135h.009zM14.356 32.028v-.399l.432-.592c.624-.863 1.352-1.839 1.352-2.814 0-.576-.248-.928-.736-.928-.375 0-.624.2-.751.288l-.153-.464a1.624 1.624 0 0 1 1.015-.352c.864 0 1.239.64 1.239 1.423 0 .976-.64 1.927-1.287 2.799l-.344.479v.016h1.727v.544h-2.494zm5.487-4.653h-1.399l-.216 1.383c.064-.016.12-.016.192-.016.28 0 .72.128.992.392.28.272.439.655.439 1.184 0 1.039-.656 1.774-1.575 1.774-.32 0-.679-.088-.887-.224l.136-.487c.16.088.44.199.728.199.528 0 .983-.399.983-1.199 0-.823-.503-1.167-1.175-1.167-.192 0-.312.008-.408.024l.328-2.407h1.863v.544zm1.929 4.717c-.808 0-1.295-.959-1.295-2.654 0-1.751.52-2.67 1.367-2.67.84 0 1.279.999 1.279 2.654 0 1.895-.6 2.67-1.343 2.67h-.008zm.04-.528c.496 0 .695-.888.695-2.135 0-1.215-.2-2.135-.695-2.135-.504 0-.72.88-.72 2.135-.008 1.256.208 2.135.711 2.135h.009zm3.04.528c-.808 0-1.295-.959-1.295-2.654 0-1.751.52-2.67 1.367-2.67.84 0 1.279.999 1.279 2.654 0 1.895-.6 2.67-1.343 2.67h-.008zm.04-.528c.496 0 .695-.888.695-2.135 0-1.215-.2-2.135-.695-2.135-.504 0-.72.88-.72 2.135-.008 1.256.208 2.135.711 2.135h.009zM14.46 18.698c.16.097.44.216.751.216.536 0 .896-.392.896-1.031 0-.68-.424-1.079-1.047-1.079h-.144v-.464h.12c.368 0 .936-.279.936-.928 0-.527-.28-.799-.688-.799-.256 0-.48.128-.648.247l-.128-.463c.184-.152.536-.296.928-.296.735 0 1.151.52 1.151 1.191 0 .527-.272.991-.776 1.223v.017c.464.128.912.543.912 1.367 0 .839-.543 1.526-1.487 1.526-.335 0-.704-.096-.912-.239l.136-.488zm4.232.728c-.808 0-1.295-.959-1.295-2.654 0-1.751.52-2.67 1.367-2.67.84 0 1.279.999 1.279 2.654 0 1.895-.6 2.67-1.343 2.67h-.008zm.04-.528c.496 0 .695-.888.695-2.135 0-1.215-.2-2.135-.695-2.135-.504 0-.72.88-.72 2.135-.008 1.256.208 2.135.711 2.135h.009zm3.04.528c-.808 0-1.295-.959-1.295-2.654 0-1.751.52-2.67 1.367-2.67.84 0 1.279.999 1.279 2.654 0 1.895-.6 2.67-1.343 2.67h-.008zm.04-.528c.496 0 .695-.888.695-2.135 0-1.215-.2-2.135-.695-2.135-.504 0-.72.88-.72 2.135-.008 1.256.208 2.135.711 2.135h.009zm3.04.528c-.808 0-1.295-.959-1.295-2.654 0-1.751.52-2.67 1.367-2.67.84 0 1.279.999 1.279 2.654 0 1.895-.6 2.67-1.343 2.67h-.008zm.04-.528c.496 0 .695-.888.695-2.135 0-1.215-.2-2.135-.695-2.135-.504 0-.72.88-.72 2.135-.008 1.256.208 2.135.711 2.135h.009zM14.46 6.032c.16.097.44.216.751.216.536 0 .896-.392.896-1.031 0-.68-.424-1.079-1.047-1.079h-.144v-.464h.12c.368 0 .936-.279.936-.928 0-.527-.28-.799-.688-.799-.256 0-.48.128-.648.247l-.128-.463c.184-.152.536-.296.928-.296.735 0 1.151.52 1.151 1.191 0 .527-.272.991-.776 1.223v.017c.464.128.912.543.912 1.367 0 .839-.543 1.526-1.487 1.526-.335 0-.704-.096-.912-.239l.136-.488zm5.383-3.989h-1.399l-.216 1.383c.064-.016.12-.016.192-.016.28 0 .72.128.992.392.28.272.439.655.439 1.184 0 1.039-.656 1.774-1.575 1.774-.32 0-.679-.088-.887-.224l.136-.487c.16.088.44.199.728.199.528 0 .983-.399.983-1.199 0-.823-.503-1.167-1.175-1.167-.192 0-.312.008-.408.024l.328-2.407h1.863v.544zm1.929 4.717c-.808 0-1.295-.959-1.295-2.654 0-1.751.52-2.67 1.367-2.67.84 0 1.279.999 1.279 2.654 0 1.895-.6 2.67-1.343 2.67h-.008zm.04-.528c.496 0 .695-.888.695-2.135 0-1.215-.2-2.135-.695-2.135-.504 0-.72.88-.72 2.135-.008 1.256.208 2.135.711 2.135h.009zm3.04.528c-.808 0-1.295-.959-1.295-2.654 0-1.751.52-2.67 1.367-2.67.84 0 1.279.999 1.279 2.654 0 1.895-.6 2.67-1.343 2.67h-.008zm.04-.528c.496 0 .695-.888.695-2.135 0-1.215-.2-2.135-.695-2.135-.504 0-.72.88-.72 2.135-.008 1.256.208 2.135.711 2.135h.009zM66.291 76.21v-.399l.432-.592c.624-.863 1.352-1.839 1.352-2.814 0-.576-.248-.928-.736-.928-.375 0-.624.2-.751.288l-.152-.464a1.624 1.624 0 0 1 1.015-.352c.864 0 1.239.64 1.239 1.423 0 .976-.64 1.927-1.287 2.799l-.344.479v.016h1.727v.544h-2.495zm7.822-2.318c-.04-.712-.08-1.504-.056-2.111h-.032c-.12.6-.264 1.247-.432 1.871l-.656 2.526h-.399l-.624-2.423a24.809 24.809 0 0 1-.448-1.975h-.024c.008.632-.032 1.384-.064 2.151l-.104 2.278h-.552l.32-5.389h.671l.624 2.462c.184.712.32 1.239.432 1.855h.024c.104-.616.224-1.128.399-1.855l.608-2.462h.688l.312 5.39h-.576l-.111-2.318zm1.473-3.215h.616v2.119h.016c.2-.384.487-.52.815-.52.607 0 1.055.688 1.055 1.959 0 1.399-.576 2.038-1.167 2.038-.416 0-.624-.239-.768-.567h-.032l-.04.504h-.528c.008-.224.032-.664.032-.92v-4.613zm.616 4.174c0 .088.008.168.024.24.144.567.408.671.576.671.496 0 .671-.671.671-1.495 0-.775-.184-1.463-.68-1.463-.288 0-.52.352-.575.688a3.123 3.123 0 0 0-.016.272v1.087zm2.576-1.303c0-.592-.024-.936-.032-1.208h.552l.032.488h.016c.208-.408.52-.552.815-.552.68 0 1.119.711 1.119 1.99 0 1.439-.592 2.007-1.191 2.007-.368 0-.576-.224-.68-.439h-.016v1.911h-.616v-4.197zm.616 1.247c0 .111.008.224.032.319.12.552.392.647.56.647.512 0 .679-.703.679-1.479 0-.808-.192-1.479-.679-1.479-.28 0-.536.352-.568.704-.024.096-.024.191-.024.296v.992zm2.48.775c.136.088.376.2.624.2.344 0 .567-.216.567-.56 0-.296-.104-.504-.496-.76-.504-.328-.775-.664-.775-1.104 0-.632.463-1.071 1.063-1.071.304 0 .527.096.688.199l-.16.464a.884.884 0 0 0-.52-.176c-.328 0-.496.24-.496.496s.096.407.479.663c.448.288.8.648.8 1.184 0 .775-.528 1.151-1.167 1.151-.28 0-.592-.088-.76-.224l.153-.462zm14.521-.024c.16.097.44.216.751.216.536 0 .896-.392.896-1.031 0-.68-.424-1.079-1.047-1.079h-.145v-.464h.12c.368 0 .936-.279.936-.928 0-.527-.28-.799-.688-.799-.256 0-.48.128-.648.247l-.128-.463c.184-.152.536-.296.928-.296.735 0 1.151.52 1.151 1.191 0 .527-.272.991-.776 1.223v.017c.464.128.912.543.912 1.367 0 .839-.543 1.526-1.487 1.526-.335 0-.704-.096-.912-.239l.137-.488zm7.718-1.654c-.04-.712-.08-1.504-.056-2.111h-.032c-.12.6-.264 1.247-.432 1.871l-.656 2.526h-.399l-.624-2.423a24.809 24.809 0 0 1-.448-1.975h-.024c.008.632-.032 1.384-.064 2.151l-.104 2.278h-.552l.32-5.389h.671l.624 2.462c.184.712.32 1.239.432 1.855h.024c.104-.616.224-1.128.399-1.855l.608-2.462h.688l.312 5.389h-.576l-.111-2.317zm1.473-3.215h.616v2.119h.016c.2-.384.487-.52.815-.52.607 0 1.055.688 1.055 1.959 0 1.399-.576 2.038-1.167 2.038-.416 0-.624-.239-.768-.567h-.032l-.04.504h-.528c.008-.224.032-.664.032-.92v-4.613zm.616 4.174c0 .088.008.168.024.24.144.567.408.671.576.671.496 0 .671-.671.671-1.495 0-.775-.184-1.463-.68-1.463-.288 0-.52.352-.575.688a3.123 3.123 0 0 0-.016.272v1.087zm2.576-1.303c0-.592-.024-.936-.032-1.208h.552l.032.488h.016c.208-.408.52-.552.815-.552.68 0 1.119.711 1.119 1.99 0 1.439-.592 2.007-1.191 2.007-.368 0-.576-.224-.68-.439h-.016v1.911h-.616v-4.197zm.616 1.247c0 .111.008.224.032.319.12.552.392.647.56.647.512 0 .679-.703.679-1.479 0-.808-.192-1.479-.679-1.479-.28 0-.536.352-.568.704-.024.096-.024.191-.024.296v.992zm2.48.775c.136.088.376.2.624.2.344 0 .567-.216.567-.56 0-.296-.104-.504-.496-.76-.504-.328-.775-.664-.775-1.104 0-.632.463-1.071 1.063-1.071.304 0 .527.096.688.199l-.16.464a.884.884 0 0 0-.52-.176c-.328 0-.496.24-.496.496s.096.407.479.663c.448.288.8.648.8 1.184 0 .775-.528 1.151-1.167 1.151-.28 0-.592-.088-.76-.224l.153-.462zm16.032.64v-1.439h-1.727v-.415l1.687-3.343h.6v3.254h.56v.504h-.56v1.439h-.56zm0-1.943v-1.463c0-.359.024-.68.048-1.023h-.032c-.176.416-.288.655-.439.976l-.72 1.495v.016h1.143zm6.207-.375c-.04-.712-.08-1.504-.056-2.111h-.032c-.12.6-.264 1.247-.432 1.871l-.656 2.526h-.399l-.624-2.423a24.809 24.809 0 0 1-.448-1.975h-.024c.008.632-.032 1.384-.064 2.151l-.104 2.278h-.552l.32-5.389h.671l.624 2.462c.184.712.32 1.239.432 1.855h.024c.104-.616.224-1.128.399-1.855l.608-2.462h.688l.312 5.389h-.576l-.111-2.317zm1.473-3.215h.616v2.119h.016c.2-.384.487-.52.815-.52.607 0 1.055.688 1.055 1.959 0 1.399-.576 2.038-1.167 2.038-.416 0-.624-.239-.768-.567h-.032l-.04.504h-.528c.008-.224.032-.664.032-.92v-4.613zm.616 4.174c0 .088.008.168.024.24.144.567.408.671.576.671.496 0 .671-.671.671-1.495 0-.775-.184-1.463-.68-1.463-.288 0-.52.352-.575.688a3.123 3.123 0 0 0-.016.272v1.087zm2.576-1.303c0-.592-.024-.936-.032-1.208h.552l.032.488h.016c.208-.408.52-.552.815-.552.68 0 1.119.711 1.119 1.99 0 1.439-.592 2.007-1.191 2.007-.368 0-.576-.224-.68-.439h-.016v1.911h-.616v-4.197zm.616 1.247c0 .111.008.224.032.319.12.552.392.647.56.647.512 0 .679-.703.679-1.479 0-.808-.192-1.479-.679-1.479-.28 0-.536.352-.568.704-.024.096-.024.191-.024.296v.992zm2.48.775c.136.088.376.2.624.2.344 0 .567-.216.567-.56 0-.296-.104-.504-.496-.76-.504-.328-.775-.664-.775-1.104 0-.632.463-1.071 1.063-1.071.304 0 .527.096.688.199l-.16.464a.884.884 0 0 0-.52-.176c-.328 0-.496.24-.496.496s.096.407.479.663c.448.288.8.648.8 1.184 0 .775-.528 1.151-1.167 1.151-.28 0-.592-.088-.76-.224l.153-.462zm16.823-4.013h-1.399l-.216 1.383c.064-.016.12-.016.192-.016.28 0 .72.128.992.392.28.272.439.655.439 1.184 0 1.039-.656 1.774-1.575 1.774-.32 0-.679-.088-.887-.224l.136-.487c.16.088.44.199.728.199.528 0 .983-.399.983-1.199 0-.823-.503-1.167-1.175-1.167-.192 0-.312.008-.408.024l.328-2.407h1.863v.544zm5.416 2.335c-.04-.712-.08-1.504-.057-2.111h-.032c-.12.6-.264 1.247-.432 1.871l-.656 2.526h-.399l-.624-2.423a24.809 24.809 0 0 1-.448-1.975h-.024c.008.632-.032 1.384-.064 2.151l-.104 2.278h-.552l.32-5.389h.671l.624 2.462c.184.712.32 1.239.432 1.855h.024c.104-.616.224-1.128.399-1.855l.608-2.462h.688l.312 5.389h-.576l-.11-2.317zm1.474-3.215h.615v2.119h.017c.199-.384.487-.52.815-.52.607 0 1.055.688 1.055 1.959 0 1.399-.575 2.038-1.167 2.038-.416 0-.624-.239-.768-.567h-.032l-.04.504h-.527c.008-.224.032-.664.032-.92v-4.613zm.615 4.174c0 .088.008.168.024.24.144.567.407.671.575.671.496 0 .672-.671.672-1.495 0-.775-.184-1.463-.68-1.463-.288 0-.52.352-.575.688a2.777 2.777 0 0 0-.017.272v1.087zm2.576-1.303c0-.592-.023-.936-.032-1.208h.552l.032.488h.017c.207-.408.52-.552.815-.552.68 0 1.119.711 1.119 1.99 0 1.439-.592 2.007-1.191 2.007-.368 0-.576-.224-.68-.439h-.016v1.911h-.616v-4.197zm.617 1.247c0 .111.008.224.031.319.12.552.393.647.561.647.512 0 .679-.703.679-1.479 0-.808-.191-1.479-.679-1.479-.28 0-.536.352-.568.704-.023.096-.023.191-.023.296v.992zm2.479.775c.137.088.376.2.624.2.344 0 .567-.216.567-.56 0-.296-.104-.504-.495-.76-.504-.328-.775-.664-.775-1.104 0-.632.463-1.071 1.063-1.071.304 0 .527.096.688.199l-.16.464a.884.884 0 0 0-.52-.176c-.328 0-.496.24-.496.496s.096.407.479.663c.448.288.8.648.8 1.184 0 .775-.527 1.151-1.167 1.151-.28 0-.592-.088-.76-.224l.152-.462zm16.711-4.101c-.104 0-.224.016-.367.048-.863.216-1.207 1.079-1.336 1.879h.024c.2-.296.487-.496.88-.496.655 0 1.119.608 1.119 1.6 0 .983-.447 1.774-1.279 1.774-.912 0-1.367-.919-1.367-2.118 0-1.008.264-1.783.672-2.343.312-.439.807-.72 1.263-.815.16-.032.296-.04.392-.048v.519zm-.951 4.325c.344 0 .656-.344.656-1.247 0-.783-.28-1.176-.696-1.176-.264 0-.528.168-.68.561-.017.048-.04.159-.04.312.008 1.063.328 1.551.752 1.551h.008zm6.478-1.902c-.039-.712-.08-1.504-.056-2.111h-.032c-.119.6-.264 1.247-.432 1.871l-.656 2.526h-.398l-.625-2.423a24.356 24.356 0 0 1-.447-1.975h-.023c.008.632-.032 1.384-.064 2.151l-.104 2.278h-.553l.32-5.389h.672l.623 2.462c.185.712.32 1.239.432 1.855h.025c.104-.616.223-1.128.398-1.855l.608-2.462h.688l.312 5.389h-.575l-.113-2.317zm1.475-3.215h.615v2.119h.016c.2-.384.488-.52.816-.52.607 0 1.055.688 1.055 1.959 0 1.399-.576 2.038-1.168 2.038-.415 0-.623-.239-.768-.567h-.031l-.04.504h-.528c.009-.224.033-.664.033-.92v-4.613zm.615 4.174c0 .088.008.168.023.24.145.567.408.671.576.671.496 0 .672-.671.672-1.495 0-.775-.184-1.463-.68-1.463-.288 0-.52.352-.576.688a3.123 3.123 0 0 0-.016.272v1.087zm2.576-1.303c0-.592-.023-.936-.032-1.208h.552l.032.488h.017c.207-.408.52-.552.814-.552.68 0 1.119.711 1.119 1.99 0 1.439-.592 2.007-1.191 2.007-.367 0-.575-.224-.68-.439h-.016v1.911h-.615v-4.197zm.616 1.247c0 .111.008.224.032.319.12.552.392.647.56.647.512 0 .68-.703.68-1.479 0-.808-.191-1.479-.68-1.479-.279 0-.535.352-.567.704-.024.096-.024.191-.024.296v.992zm2.48.775c.137.088.376.2.624.2.344 0 .567-.216.567-.56 0-.296-.104-.504-.496-.76-.504-.328-.775-.664-.775-1.104 0-.632.464-1.071 1.064-1.071.303 0 .527.096.688.199l-.16.464a.884.884 0 0 0-.52-.176c-.328 0-.496.24-.496.496s.096.407.479.663c.448.288.8.648.8 1.184 0 .775-.527 1.151-1.168 1.151-.279 0-.592-.088-.76-.224l.153-.462zm16.959-4.557v.368l-1.68 4.829h-.6l1.648-4.638v-.016h-1.871v-.544h2.503zm5.279 2.879c-.039-.712-.08-1.504-.056-2.111h-.032c-.119.6-.264 1.247-.432 1.871l-.656 2.526h-.398l-.625-2.423a24.356 24.356 0 0 1-.447-1.975h-.023c.008.632-.032 1.384-.064 2.151l-.104 2.278h-.553l.32-5.389h.672l.623 2.462c.185.712.32 1.239.432 1.855h.025c.104-.616.223-1.128.398-1.855l.608-2.462h.688l.312 5.389h-.575l-.113-2.317zm1.475-3.215h.615v2.119h.016c.2-.384.488-.52.816-.52.607 0 1.055.688 1.055 1.959 0 1.399-.576 2.038-1.168 2.038-.415 0-.623-.239-.768-.567h-.031l-.04.504h-.528c.009-.224.033-.664.033-.92v-4.613zm.615 4.174c0 .088.008.168.023.24.145.567.408.671.576.671.496 0 .672-.671.672-1.495 0-.775-.184-1.463-.68-1.463-.288 0-.52.352-.576.688a3.123 3.123 0 0 0-.016.272v1.087zm2.576-1.303c0-.592-.023-.936-.032-1.208h.552l.032.488h.017c.207-.408.52-.552.814-.552.68 0 1.119.711 1.119 1.99 0 1.439-.592 2.007-1.191 2.007-.367 0-.575-.224-.68-.439h-.016v1.911h-.615v-4.197zm.616 1.247c0 .111.008.224.032.319.12.552.392.647.56.647.512 0 .68-.703.68-1.479 0-.808-.191-1.479-.68-1.479-.279 0-.535.352-.567.704-.024.096-.024.191-.024.296v.992zm2.48.775c.137.088.376.2.624.2.344 0 .567-.216.567-.56 0-.296-.104-.504-.496-.76-.504-.328-.775-.664-.775-1.104 0-.632.464-1.071 1.064-1.071.303 0 .527.096.688.199l-.16.464a.884.884 0 0 0-.52-.176c-.328 0-.496.24-.496.496s.096.407.479.663c.448.288.8.648.8 1.184 0 .775-.527 1.151-1.168 1.151-.279 0-.592-.088-.76-.224l.153-.462zm15.76-4.621c.744 0 1.119.623 1.119 1.223 0 .456-.216.896-.695 1.231v.017c.479.327.832.791.832 1.423 0 .808-.536 1.431-1.336 1.431-.863 0-1.295-.688-1.295-1.327 0-.735.432-1.199.855-1.495l-.008-.016c-.432-.296-.68-.752-.68-1.191 0-.8.567-1.295 1.199-1.295h.009zm-.057 4.869c.385 0 .704-.288.704-.943 0-.6-.344-.936-.743-1.199a1.389 1.389 0 0 0-.672 1.167c0 .584.264.976.703.976h.008zm.017-4.414c-.344 0-.575.328-.575.8 0 .527.319.792.639.999.312-.224.512-.567.512-.959 0-.504-.199-.84-.566-.84h-.01zm6.518 2.488c-.039-.712-.08-1.504-.056-2.111h-.032c-.119.6-.264 1.247-.432 1.871l-.656 2.526h-.398l-.625-2.423a24.356 24.356 0 0 1-.447-1.975h-.023c.008.632-.032 1.384-.064 2.151l-.104 2.278h-.553l.32-5.389h.672l.623 2.462c.185.712.32 1.239.432 1.855h.025c.104-.616.223-1.128.398-1.855l.608-2.462h.688l.312 5.389h-.575l-.113-2.317zm1.475-3.215h.615v2.119h.016c.2-.384.488-.52.816-.52.607 0 1.055.688 1.055 1.959 0 1.399-.576 2.038-1.168 2.038-.415 0-.623-.239-.768-.567h-.031l-.04.504h-.528c.009-.224.033-.664.033-.92v-4.613zm.615 4.174c0 .088.008.168.023.24.145.567.408.671.576.671.496 0 .672-.671.672-1.495 0-.775-.184-1.463-.68-1.463-.288 0-.52.352-.576.688a3.123 3.123 0 0 0-.016.272v1.087zm2.576-1.303c0-.592-.023-.936-.032-1.208h.552l.032.488h.017c.207-.408.52-.552.814-.552.68 0 1.119.711 1.119 1.99 0 1.439-.592 2.007-1.191 2.007-.367 0-.575-.224-.68-.439h-.016v1.911h-.615v-4.197zm.616 1.247c0 .111.008.224.032.319.12.552.392.647.56.647.512 0 .68-.703.68-1.479 0-.808-.191-1.479-.68-1.479-.279 0-.535.352-.567.704-.024.096-.024.191-.024.296v.992zm2.48.775c.137.088.376.2.624.2.344 0 .567-.216.567-.56 0-.296-.104-.504-.496-.76-.504-.328-.775-.664-.775-1.104 0-.632.464-1.071 1.064-1.071.303 0 .527.096.688.199l-.16.464a.884.884 0 0 0-.52-.176c-.328 0-.496.24-.496.496s.096.407.479.663c.448.288.8.648.8 1.184 0 .775-.527 1.151-1.168 1.151-.279 0-.592-.088-.76-.224l.153-.462zm14.696.176c.128 0 .248-.016.384-.048.264-.063.52-.208.711-.408.289-.312.521-.791.608-1.471h-.017c-.191.24-.471.432-.848.432-.654 0-1.143-.6-1.143-1.543s.52-1.759 1.319-1.759c.896 0 1.304.943 1.304 2.087 0 1.031-.256 1.831-.688 2.406a2.007 2.007 0 0 1-1.208.783c-.159.04-.296.048-.424.048v-.527zm.976-4.317c-.312 0-.672.336-.664 1.231 0 .76.288 1.127.704 1.127.256 0 .512-.176.64-.464.04-.08.048-.151.048-.327 0-1.096-.312-1.567-.72-1.567h-.008zm6.566 2.463c-.039-.712-.08-1.504-.056-2.111h-.032c-.119.6-.264 1.247-.432 1.871l-.656 2.526h-.398l-.625-2.423a24.356 24.356 0 0 1-.447-1.975h-.023c.008.632-.032 1.384-.064 2.151l-.104 2.278h-.553l.32-5.389h.672l.623 2.462c.185.712.32 1.239.432 1.855h.025c.104-.616.223-1.128.398-1.855l.608-2.462h.688l.312 5.389h-.575l-.113-2.317zm1.475-3.215h.615v2.119h.016c.2-.384.488-.52.816-.52.607 0 1.055.688 1.055 1.959 0 1.399-.576 2.038-1.168 2.038-.415 0-.623-.239-.768-.567h-.031l-.04.504h-.528c.009-.224.033-.664.033-.92v-4.613zm.615 4.174c0 .088.008.168.023.24.145.567.408.671.576.671.496 0 .672-.671.672-1.495 0-.775-.184-1.463-.68-1.463-.288 0-.52.352-.576.688a3.123 3.123 0 0 0-.016.272v1.087zm2.576-1.303c0-.592-.023-.936-.032-1.208h.552l.032.488h.017c.207-.408.52-.552.814-.552.68 0 1.119.711 1.119 1.99 0 1.439-.592 2.007-1.191 2.007-.367 0-.575-.224-.68-.439h-.016v1.911h-.615v-4.197zm.616 1.247c0 .111.008.224.032.319.12.552.392.647.56.647.512 0 .68-.703.68-1.479 0-.808-.191-1.479-.68-1.479-.279 0-.535.352-.567.704-.024.096-.024.191-.024.296v.992zm2.48.775c.137.088.376.2.624.2.344 0 .567-.216.567-.56 0-.296-.104-.504-.496-.76-.504-.328-.775-.664-.775-1.104 0-.632.464-1.071 1.064-1.071.303 0 .527.096.688.199l-.16.464a.884.884 0 0 0-.52-.176c-.328 0-.496.24-.496.496s.096.407.479.663c.448.288.8.648.8 1.184 0 .775-.527 1.151-1.168 1.151-.279 0-.592-.088-.76-.224l.153-.462zm14.123-3.933h-.016l-.863.495-.119-.479 1.095-.64h.504v5.197h-.601v-4.573zm3.089 4.636c-.808 0-1.296-.959-1.296-2.654 0-1.751.52-2.67 1.367-2.67.84 0 1.279.999 1.279 2.654 0 1.895-.6 2.67-1.343 2.67h-.007zm.04-.527c.496 0 .695-.888.695-2.135 0-1.215-.199-2.135-.695-2.135-.504 0-.72.88-.72 2.135-.008 1.256.208 2.135.712 2.135h.008zm6.527-1.854c-.041-.712-.08-1.504-.057-2.111h-.032c-.12.6-.264 1.247-.432 1.871l-.655 2.526h-.4l-.623-2.423a24.377 24.377 0 0 1-.448-1.975h-.024c.009.632-.031 1.384-.063 2.151l-.104 2.278h-.551l.32-5.389h.671l.624 2.462c.184.712.319 1.239.432 1.855h.023c.104-.616.225-1.128.4-1.855l.607-2.462h.688l.312 5.389h-.576l-.112-2.317zm1.473-3.215h.616v2.119h.017c.199-.384.486-.52.814-.52.607 0 1.056.688 1.056 1.959 0 1.399-.575 2.038-1.167 2.038-.416 0-.624-.239-.768-.567h-.032l-.04.504h-.527c.008-.224.031-.664.031-.92v-4.613zm.616 4.174c0 .088.008.168.024.24.144.567.407.671.575.671.495 0 .671-.671.671-1.495 0-.775-.184-1.463-.68-1.463-.287 0-.52.352-.574.688a2.777 2.777 0 0 0-.017.272v1.087zm2.576-1.303c0-.592-.024-.936-.032-1.208h.552l.032.488h.016c.208-.408.52-.552.816-.552.68 0 1.119.711 1.119 1.99 0 1.439-.592 2.007-1.191 2.007-.368 0-.576-.224-.68-.439h-.016v1.911h-.616v-4.197zm.617 1.247c0 .111.008.224.031.319.12.552.393.647.561.647.512 0 .679-.703.679-1.479 0-.808-.192-1.479-.679-1.479-.281 0-.537.352-.568.704-.023.096-.023.191-.023.296v.992zm2.479.775c.136.088.376.2.624.2.344 0 .567-.216.567-.56 0-.296-.104-.504-.495-.76-.504-.328-.775-.664-.775-1.104 0-.632.463-1.071 1.062-1.071.305 0 .527.096.688.199l-.16.464a.88.88 0 0 0-.52-.176c-.328 0-.495.24-.495.496s.096.407.479.663c.447.288.8.648.8 1.184 0 .775-.528 1.151-1.167 1.151-.28 0-.592-.088-.76-.224l.152-.462zM36.318 166.21v-.399l.432-.592c.624-.863 1.352-1.839 1.352-2.814 0-.576-.248-.928-.736-.928-.376 0-.624.2-.751.288l-.152-.464a1.624 1.624 0 0 1 1.015-.352c.864 0 1.24.64 1.24 1.423 0 .976-.64 1.927-1.288 2.799l-.344.479v.016h1.727v.544h-2.495zm4.336.063c-.808 0-1.295-.959-1.295-2.654 0-1.751.52-2.67 1.367-2.67.84 0 1.279.999 1.279 2.654 0 1.895-.6 2.67-1.343 2.67h-.008zm.04-.527c.496 0 .695-.888.695-2.135 0-1.215-.2-2.135-.695-2.135-.504 0-.72.88-.72 2.135-.008 1.256.208 2.135.711 2.135h.009zm3.039.527c-.808 0-1.295-.959-1.295-2.654 0-1.751.52-2.67 1.367-2.67.84 0 1.279.999 1.279 2.654 0 1.895-.6 2.67-1.343 2.67h-.008zm.04-.527c.496 0 .695-.888.695-2.135 0-1.215-.2-2.135-.695-2.135-.504 0-.72.88-.72 2.135-.008 1.256.208 2.135.711 2.135h.009zm3.217-2.406c0-.456-.024-.688-.032-1h.543l.032.472h.016c.168-.312.456-.535.864-.535.36 0 .671.168.815.583h.016c.104-.191.24-.344.376-.439.16-.096.335-.144.536-.144.528 0 .936.376.936 1.367v2.566h-.616v-2.431c0-.504-.072-.991-.536-.991-.256 0-.48.216-.568.583-.024.097-.024.217-.024.344v2.495h-.616v-2.543c0-.424-.072-.879-.528-.879-.256 0-.503.216-.576.632a2.02 2.02 0 0 0-.024.327v2.463h-.614v-2.87zm4.856 2.23c.136.088.376.2.624.2.344 0 .567-.216.567-.56 0-.296-.104-.504-.496-.76-.504-.328-.775-.664-.775-1.104 0-.632.463-1.071 1.063-1.071.304 0 .527.096.688.199l-.16.464a.884.884 0 0 0-.52-.176c-.328 0-.496.24-.496.496s.096.407.479.663c.448.288.8.648.8 1.184 0 .775-.528 1.151-1.167 1.151-.28 0-.592-.088-.76-.224l.153-.462zm85.378-69.42a3.58 3.58 0 0 1 .896-.104c.496 0 .919.12 1.199.392.256.256.392.647.392 1.12 0 .495-.12.831-.328 1.103-.288.4-.792.6-1.271.6-.104 0-.184 0-.272-.008v2.207h-.615v-5.31zm.615 2.591c.072.008.144.017.248.017.6 0 1.007-.4 1.007-1.16 0-.551-.224-1.047-.912-1.047-.144 0-.264.016-.344.04v2.15zm4.368 1.839c0 .296 0 .632.04.88h-.552l-.04-.408h-.024c-.168.296-.44.472-.768.472-.52 0-.919-.432-.919-1.103 0-.976.775-1.399 1.647-1.407v-.12c0-.52-.128-.88-.616-.88-.24 0-.456.072-.64.2l-.136-.432c.168-.12.52-.256.903-.256.775 0 1.104.512 1.104 1.375v1.679zm-.6-1.127c-.32 0-1.063.063-1.063.903 0 .512.256.688.472.688.272 0 .496-.199.568-.583.016-.072.024-.152.024-.225v-.783zm3.808 1.511c0 1.016-.128 1.399-.384 1.688-.24.256-.6.407-1.032.407-.328 0-.647-.079-.847-.191l.144-.479c.152.08.408.168.712.168.488 0 .792-.304.792-1.184v-.392h-.016a.776.776 0 0 1-.735.472c-.688 0-1.136-.775-1.136-1.911 0-1.432.64-2.015 1.215-2.015.408 0 .6.271.72.495h.016l.032-.432h.552c-.008.264-.032.607-.032 1.208v2.166zm-.616-2.038c0-.104-.008-.2-.032-.288-.064-.256-.208-.584-.56-.584-.44 0-.68.6-.68 1.455 0 .991.312 1.439.68 1.439.192 0 .432-.088.552-.552.04-.12.04-.24.04-.352v-1.118zm1.905.655c.008 1.191.472 1.439.911 1.439.272 0 .488-.064.64-.145l.104.448c-.216.12-.543.184-.855.184-.919 0-1.399-.752-1.399-1.942 0-1.256.528-2.039 1.303-2.039.784 0 1.104.831 1.104 1.703 0 .151-.008.256-.016.352h-1.792zm1.214-.456c.008-.775-.28-1.119-.575-1.119-.4 0-.608.592-.632 1.119h1.207zm2.562-3.054h.615v4.869h1.511v.52h-2.126v-5.389zm3.663 5.452c-.695 0-1.255-.631-1.255-1.99 0-1.415.632-2.007 1.295-2.007.696 0 1.248.64 1.248 1.99 0 1.504-.688 2.007-1.279 2.007h-.009zm.032-.487c.527 0 .64-.903.64-1.511 0-.6-.112-1.512-.656-1.512-.552 0-.656.912-.656 1.512 0 .64.112 1.511.664 1.511h.008zm3.984-.456c0 .296 0 .632.04.88h-.552l-.04-.408h-.024c-.168.296-.44.472-.768.472-.52 0-.919-.432-.919-1.103 0-.976.775-1.399 1.647-1.407v-.12c0-.52-.128-.88-.616-.88-.24 0-.456.072-.64.2l-.136-.432c.168-.12.52-.256.903-.256.775 0 1.104.512 1.104 1.375v1.679zm-.6-1.127c-.32 0-1.063.063-1.063.903 0 .512.256.688.472.688.272 0 .496-.199.568-.583.016-.072.024-.152.024-.225v-.783zm3.808-3.526v4.605c0 .264.024.704.032.928h-.528l-.04-.479h-.032a.888.888 0 0 1-.808.543c-.656 0-1.127-.703-1.127-1.982 0-1.375.568-2.015 1.167-2.015.28 0 .552.128.704.455h.016v-2.055h.616zm-.616 3.135c0-.08 0-.168-.008-.256-.032-.4-.28-.752-.575-.752-.512 0-.688.712-.688 1.487 0 .815.208 1.471.656 1.471.192 0 .456-.104.592-.663.024-.072.024-.16.024-.256v-1.031zm3.128-2.439h-.983v-.552h2.583v.552h-.983v4.837h-.616v-4.837zm2.352.367c-.2 0-.352-.16-.352-.399 0-.24.16-.4.359-.4.225 0 .368.16.368.4 0 .239-.144.399-.368.399h-.007zm-.288 4.47v-3.87h.616v3.87h-.616zm1.473-2.87c0-.456-.024-.688-.032-1h.544l.032.472h.016c.168-.312.456-.535.863-.535.36 0 .672.168.815.583h.017c.104-.191.239-.344.376-.439.159-.096.335-.144.535-.144.528 0 .936.376.936 1.367v2.566h-.615v-2.431c0-.504-.072-.991-.536-.991-.256 0-.479.216-.567.583-.024.097-.024.217-.024.344v2.495h-.615v-2.543c0-.424-.072-.879-.528-.879-.256 0-.503.216-.575.632a2.02 2.02 0 0 0-.024.327v2.463h-.615v-2.87zm5.392.991c.008 1.191.472 1.439.911 1.439.272 0 .488-.064.64-.145l.104.448c-.216.12-.544.184-.855.184-.92 0-1.399-.752-1.399-1.942 0-1.256.527-2.039 1.304-2.039.783 0 1.103.831 1.103 1.703 0 .151-.008.256-.016.352h-1.792zm1.215-.456c.008-.775-.28-1.119-.576-1.119-.399 0-.607.592-.632 1.119h1.208zm4.551 1.455c0 .296 0 .632.04.88h-.552l-.04-.408h-.023c-.168.296-.44.472-.768.472-.52 0-.92-.432-.92-1.103 0-.976.775-1.399 1.647-1.407v-.12c0-.52-.128-.88-.616-.88a1.11 1.11 0 0 0-.64.2l-.136-.432c.168-.12.52-.256.903-.256.776 0 1.104.512 1.104 1.375v1.679zm-.599-1.127c-.319 0-1.063.063-1.063.903 0 .512.256.688.472.688.272 0 .496-.199.568-.583.016-.072.023-.152.023-.225v-.783zm1.369 1.367c.136.088.376.2.624.2.344 0 .567-.216.567-.56 0-.296-.104-.504-.496-.76-.504-.328-.775-.664-.775-1.104 0-.632.464-1.071 1.063-1.071.304 0 .527.096.688.199l-.16.464a.881.881 0 0 0-.52-.176c-.327 0-.495.24-.495.496s.096.407.479.663c.447.288.8.648.8 1.184 0 .775-.528 1.151-1.168 1.151-.279 0-.592-.088-.76-.224l.153-.462zm3.672-4.893h.615v5.533h-.615v-5.533zm3.566 4.653c0 .296 0 .632.04.88h-.552l-.04-.408h-.023c-.168.296-.44.472-.768.472-.52 0-.92-.432-.92-1.103 0-.976.775-1.399 1.647-1.407v-.12c0-.52-.128-.88-.616-.88a1.11 1.11 0 0 0-.64.2l-.136-.432c.168-.12.52-.256.903-.256.776 0 1.104.512 1.104 1.375v1.679zm-.6-1.127c-.319 0-1.063.063-1.063.903 0 .512.256.688.472.688.272 0 .496-.199.568-.583.016-.072.023-.152.023-.225v-.783zm2.154-2.766v.903h.743v.464h-.743v2.303c0 .512.176.64.399.64.104 0 .184-.008.248-.023l.031.472c-.111.04-.256.063-.455.063-.248 0-.464-.063-.607-.231-.16-.176-.232-.44-.232-.976v-2.247h-.472v-.465h.472v-.655l.616-.248zm1.655 2.894c.008 1.191.472 1.439.911 1.439.272 0 .488-.064.64-.145l.104.448c-.216.12-.544.184-.855.184-.92 0-1.399-.752-1.399-1.942 0-1.256.527-2.039 1.304-2.039.783 0 1.103.831 1.103 1.703 0 .151-.008.256-.016.352h-1.792zm1.216-.456c.008-.775-.28-1.119-.576-1.119-.399 0-.607.592-.632 1.119h1.208zm1.257-.535c0-.456-.024-.688-.032-1h.536l.031.464h.017a.98.98 0 0 1 .888-.527c.535 0 .936.392.936 1.335v2.599h-.616v-2.495c0-.463-.088-.919-.535-.919-.256 0-.504.216-.576.632a1.446 1.446 0 0 0-.032.344v2.438h-.615V98.59zm5.127 2.774c-.137.08-.368.144-.64.144-.848 0-1.416-.68-1.416-1.959 0-1.111.561-2.015 1.527-2.015.208 0 .432.056.544.128l-.12.496a1 1 0 0 0-.439-.104c-.624 0-.896.735-.896 1.495 0 .903.344 1.447.911 1.447.16 0 .304-.032.44-.104l.089.472zm1.007-3.774l.512 2.223c.072.305.104.552.16.8h.017c.039-.224.104-.512.167-.791l.456-2.231h.607l-.631 2.487c-.24.967-.504 1.902-.96 2.494-.271.344-.56.52-.695.584l-.224-.52a2.01 2.01 0 0 0 .543-.488c.16-.208.288-.464.353-.655a.527.527 0 0 0 .039-.192c0-.048 0-.096-.016-.144l-.976-3.566h.648zm6.04-1.663v4.605c0 .264.023.704.031.928h-.527l-.04-.479h-.032a.886.886 0 0 1-.808.543c-.655 0-1.127-.703-1.127-1.982 0-1.375.567-2.015 1.167-2.015.28 0 .552.128.704.455h.016v-2.055h.616zm-.616 3.135c0-.08 0-.168-.008-.256-.032-.4-.28-.752-.575-.752-.512 0-.688.712-.688 1.487 0 .815.208 1.471.656 1.471.191 0 .455-.104.592-.663.023-.072.023-.16.023-.256v-1.031zm1.905.519c.008 1.191.472 1.439.911 1.439.272 0 .488-.064.64-.145l.104.448c-.216.12-.544.184-.855.184-.92 0-1.399-.752-1.399-1.942 0-1.256.527-2.039 1.304-2.039.783 0 1.103.831 1.103 1.703 0 .151-.008.256-.016.352h-1.792zm1.215-.456c.008-.775-.28-1.119-.576-1.119-.399 0-.607.592-.632 1.119h1.208zm3.144 2.239c-.136.08-.367.144-.64.144-.848 0-1.415-.68-1.415-1.959 0-1.111.56-2.015 1.527-2.015.208 0 .432.056.544.128l-.12.496c-.08-.04-.24-.104-.44-.104-.623 0-.896.735-.896 1.495 0 .903.344 1.447.912 1.447.16 0 .304-.032.439-.104l.089.472zm.521-2.774c0-.328-.024-.712-.032-1h.552l.032.607h.016c.128-.367.456-.671.815-.671.048 0 .088 0 .128.008v.632c-.04-.008-.08-.008-.128-.008-.392 0-.68.359-.743.807a2.175 2.175 0 0 0-.024.353v2.143h-.615V98.59zm2.312.991c.008 1.191.472 1.439.911 1.439.271 0 .487-.064.64-.145l.104.448c-.216.12-.543.184-.855.184-.919 0-1.399-.752-1.399-1.942 0-1.256.528-2.039 1.304-2.039.783 0 1.104.831 1.104 1.703 0 .151-.008.256-.016.352h-1.793zm1.215-.456c.008-.775-.28-1.119-.575-1.119-.4 0-.608.592-.632 1.119h1.207zm3.296 1.455c0 .296 0 .632.04.88h-.552l-.04-.408h-.024c-.168.296-.439.472-.768.472-.52 0-.919-.432-.919-1.103 0-.976.775-1.399 1.646-1.407v-.12c0-.52-.128-.88-.615-.88-.24 0-.456.072-.64.2l-.136-.432c.168-.12.52-.256.903-.256.775 0 1.104.512 1.104 1.375v1.679zm-.6-1.127c-.32 0-1.063.063-1.063.903 0 .512.256.688.472.688.271 0 .495-.199.567-.583.016-.072.024-.152.024-.225v-.783zm1.368 1.367c.137.088.376.2.624.2.344 0 .567-.216.567-.56 0-.296-.104-.504-.495-.76-.504-.328-.775-.664-.775-1.104 0-.632.463-1.071 1.063-1.071.304 0 .527.096.688.199l-.16.464a.884.884 0 0 0-.52-.176c-.328 0-.496.24-.496.496s.096.407.479.663c.448.288.8.648.8 1.184 0 .775-.527 1.151-1.167 1.151-.28 0-.592-.088-.76-.224l.152-.462zm2.849-1.239c.008 1.191.472 1.439.911 1.439.271 0 .487-.064.64-.145l.104.448c-.216.12-.543.184-.855.184-.919 0-1.399-.752-1.399-1.942 0-1.256.528-2.039 1.304-2.039.783 0 1.104.831 1.104 1.703 0 .151-.008.256-.016.352h-1.793zm1.215-.456c.008-.775-.28-1.119-.575-1.119-.4 0-.608.592-.632 1.119h1.207zm1.152 1.695c.137.088.376.2.624.2.344 0 .567-.216.567-.56 0-.296-.104-.504-.495-.76-.504-.328-.775-.664-.775-1.104 0-.632.463-1.071 1.063-1.071.304 0 .527.096.688.199l-.16.464a.884.884 0 0 0-.52-.176c-.328 0-.496.24-.496.496s.096.407.479.663c.448.288.8.648.8 1.184 0 .775-.527 1.151-1.167 1.151-.28 0-.592-.088-.76-.224l.152-.462zM1.387 150.541a3.58 3.58 0 0 1-.104-.896c0-.496.12-.92.392-1.2.256-.256.647-.392 1.12-.392.495 0 .831.12 1.103.328.4.288.6.792.6 1.271 0 .104 0 .184-.008.272h2.207v.616h-5.31zm2.591-.616c.008-.072.017-.144.017-.248 0-.6-.4-1.007-1.16-1.007-.551 0-1.047.224-1.047.911 0 .144.016.264.04.344h2.15zm1.838-4.367c.296 0 .632 0 .88-.04v.552l-.408.04v.024c.296.168.472.44.472.768 0 .52-.432.919-1.103.919-.976 0-1.399-.775-1.407-1.647h-.12c-.52 0-.88.128-.88.616 0 .24.072.456.2.64l-.432.136c-.12-.168-.256-.52-.256-.903 0-.775.512-1.104 1.375-1.104h1.679zm-1.127.599c0 .32.063 1.063.903 1.063.512 0 .688-.256.688-.472 0-.272-.199-.496-.583-.568a1.069 1.069 0 0 0-.225-.024h-.783zM6.2 142.35c1.016 0 1.399.128 1.688.384.256.24.407.6.407 1.032 0 .328-.079.647-.191.847l-.479-.144c.08-.152.168-.408.168-.712 0-.488-.304-.792-1.184-.792h-.392v.016a.776.776 0 0 1 .472.735c0 .688-.775 1.136-1.911 1.136-1.432 0-2.015-.64-2.015-1.215 0-.408.271-.6.495-.72v-.016l-.432-.032v-.552c.264.008.607.032 1.208.032H6.2zm-2.038.616c-.104 0-.2.008-.288.032-.256.064-.584.208-.584.56 0 .439.6.68 1.455.68.991 0 1.439-.312 1.439-.68 0-.192-.088-.432-.552-.552-.12-.04-.24-.04-.352-.04H4.162zm.655-1.904c1.191-.008 1.439-.472 1.439-.912 0-.272-.064-.488-.145-.64l.448-.104c.12.216.184.543.184.855 0 .919-.752 1.399-1.942 1.399-1.256 0-2.039-.528-2.039-1.304 0-.783.831-1.103 1.703-1.103.151 0 .256.008.352.016v1.793zm-.456-1.216c-.775-.008-1.119.28-1.119.576 0 .399.592.607 1.119.631v-1.207zm-3.053-2.561v-.616h4.869v-1.511h.52v2.127H1.308zm5.452-3.663c0 .695-.631 1.255-1.99 1.255-1.415 0-2.007-.632-2.007-1.295 0-.696.64-1.248 1.99-1.248 1.504 0 2.007.688 2.007 1.279v.009zm-.488-.033c0-.528-.903-.64-1.511-.64-.6 0-1.512.112-1.512.656 0 .552.912.656 1.512.656.64 0 1.511-.112 1.511-.664v-.008zm-.456-3.983c.296 0 .632 0 .88-.04v.552l-.408.04v.024c.296.168.472.44.472.768 0 .52-.432.919-1.103.919-.976 0-1.399-.775-1.407-1.647h-.12c-.52 0-.88.128-.88.616 0 .24.072.456.2.64l-.432.136c-.12-.168-.256-.52-.256-.903 0-.776.512-1.104 1.375-1.104h1.679zm-1.127.6c0 .32.063 1.063.903 1.063.512 0 .688-.256.688-.472 0-.272-.199-.496-.583-.568a1.069 1.069 0 0 0-.225-.024h-.783zm-3.526-3.808h4.605c.264 0 .704-.024.928-.032v.528l-.479.04v.032c.271.12.543.4.543.808 0 .656-.703 1.127-1.982 1.127-1.375 0-2.015-.568-2.015-1.167 0-.28.128-.552.455-.704v-.016H1.163v-.616zm3.135.616c-.08 0-.168 0-.256.008-.4.032-.752.28-.752.575 0 .512.712.688 1.487.688.815 0 1.471-.208 1.471-.656 0-.192-.104-.456-.663-.592-.072-.024-.16-.024-.256-.024H4.298zm-2.439-3.128v.983h-.551v-2.583h.552v.983h4.837v.616H1.859zm.368-2.353c0 .2-.16.352-.399.352-.24 0-.4-.16-.4-.36 0-.224.16-.368.4-.368.239 0 .399.144.399.368v.008zm4.469.288h-3.87v-.616h3.87v.616zm-2.87-1.472c-.456 0-.688.024-1 .032v-.543l.472-.032v-.016c-.312-.167-.535-.456-.535-.863 0-.36.168-.672.583-.815v-.016a1.294 1.294 0 0 1-.439-.376 1.012 1.012 0 0 1-.144-.536c0-.527.376-.936 1.367-.936h2.566v.616h-2.43c-.504 0-.991.072-.991.536 0 .256.216.48.583.568.097.024.217.024.344.024h2.495v.616H4.153c-.424 0-.879.072-.879.528 0 .256.216.503.632.576.096.016.207.024.327.024h2.463v.616h-2.87zm.991-5.392c1.191-.008 1.439-.472 1.439-.911 0-.272-.064-.488-.145-.64l.448-.104c.12.216.184.543.184.855 0 .919-.752 1.399-1.942 1.399-1.256 0-2.039-.528-2.039-1.303 0-.784.831-1.104 1.703-1.104.151 0 .256.008.352.016v1.792zm-.456-1.215c-.775-.008-1.119.28-1.119.575 0 .4.592.608 1.119.632v-1.207zm-3.198-3.904c.72.456 1.799.832 3.255.832 1.431 0 2.51-.376 3.238-.832v.48c-.608.416-1.68.872-3.247.872-1.566-.016-2.646-.456-3.246-.872v-.48zm2.663-.632c-.456 0-.688.024-1 .032v-.543l.472-.032v-.016c-.312-.167-.535-.456-.535-.863 0-.36.168-.672.583-.815v-.016a1.294 1.294 0 0 1-.439-.376 1.012 1.012 0 0 1-.144-.536c0-.527.376-.936 1.367-.936h2.566v.616h-2.43c-.504 0-.991.072-.991.536 0 .256.216.48.583.568.097.024.217.024.344.024h2.495v.616H4.153c-.424 0-.879.072-.879.528 0 .256.216.503.632.576.096.016.207.024.327.024h2.463v.616h-2.87zm2.231-4.856c.088-.136.2-.376.2-.624 0-.344-.216-.567-.56-.567-.296 0-.504.104-.76.496-.328.504-.664.775-1.104.775-.632 0-1.071-.463-1.071-1.063 0-.304.096-.528.199-.688l.464.16a.884.884 0 0 0-.176.52c0 .328.24.496.496.496s.407-.096.663-.479c.288-.448.648-.8 1.184-.8.775 0 1.151.528 1.151 1.167 0 .28-.088.592-.224.76l-.462-.153zm1.599-2.184c-.72-.456-1.815-.832-3.255-.832s-2.519.375-3.238.832v-.48c.592-.416 1.655-.872 3.238-.872 1.583.016 2.639.456 3.255.872v.48zm7.948 40.623h-.016l-.864.495-.12-.479 1.095-.64h.504v5.197h-.6v-4.573zm4.239-.08h-1.399l-.216 1.383c.064-.016.12-.016.192-.016.28 0 .72.128.992.392.28.272.439.655.439 1.184 0 1.039-.656 1.774-1.575 1.774-.32 0-.679-.088-.887-.224l.136-.487c.16.088.44.199.728.199.528 0 .983-.399.983-1.199 0-.823-.503-1.167-1.175-1.167-.192 0-.312.008-.408.024l.328-2.407h1.863v.544zm1.929 4.716c-.808 0-1.295-.959-1.295-2.654 0-1.751.52-2.67 1.367-2.67.84 0 1.279.999 1.279 2.654 0 1.895-.6 2.67-1.343 2.67h-.008zm.04-.527c.496 0 .695-.888.695-2.135 0-1.215-.2-2.135-.695-2.135-.504 0-.72.88-.72 2.135-.008 1.256.208 2.135.711 2.135h.009zm3.04.527c-.808 0-1.295-.959-1.295-2.654 0-1.751.52-2.67 1.367-2.67.84 0 1.279.999 1.279 2.654 0 1.895-.6 2.67-1.343 2.67h-.008zm.04-.527c.496 0 .695-.888.695-2.135 0-1.215-.2-2.135-.695-2.135-.504 0-.72.88-.72 2.135-.008 1.256.208 2.135.711 2.135h.009zm-9.288 8.891h-.016l-.864.495-.12-.479 1.095-.64h.504v5.197h-.6v-4.573zm3.088 4.636c-.808 0-1.295-.959-1.295-2.654 0-1.751.52-2.67 1.367-2.67.84 0 1.279.999 1.279 2.654 0 1.895-.6 2.67-1.343 2.67h-.008zm.04-.527c.496 0 .695-.888.695-2.135 0-1.215-.2-2.135-.695-2.135-.504 0-.72.88-.72 2.135-.008 1.256.208 2.135.711 2.135h.009zm3.04.527c-.808 0-1.295-.959-1.295-2.654 0-1.751.52-2.67 1.367-2.67.84 0 1.279.999 1.279 2.654 0 1.895-.6 2.67-1.343 2.67h-.008zm.04-.527c.496 0 .695-.888.695-2.135 0-1.215-.2-2.135-.695-2.135-.504 0-.72.88-.72 2.135-.008 1.256.208 2.135.711 2.135h.009zm3.04.527c-.808 0-1.295-.959-1.295-2.654 0-1.751.52-2.67 1.367-2.67.84 0 1.279.999 1.279 2.654 0 1.895-.6 2.67-1.343 2.67h-.008zm.04-.527c.496 0 .695-.888.695-2.135 0-1.215-.2-2.135-.695-2.135-.504 0-.72.88-.72 2.135-.008 1.256.208 2.135.711 2.135h.009zm-10.536-25.203v-.399l.432-.592c.624-.863 1.352-1.839 1.352-2.814 0-.576-.248-.928-.736-.928-.375 0-.624.2-.751.288l-.152-.464a1.624 1.624 0 0 1 1.015-.352c.864 0 1.239.64 1.239 1.423 0 .976-.64 1.927-1.287 2.799l-.344.479v.016h1.727v.544h-2.495zm4.336.064c-.808 0-1.295-.959-1.295-2.654 0-1.751.52-2.67 1.367-2.67.84 0 1.279.999 1.279 2.654 0 1.895-.6 2.67-1.343 2.67h-.008zm.04-.528c.496 0 .695-.888.695-2.135 0-1.215-.2-2.135-.695-2.135-.504 0-.72.88-.72 2.135-.008 1.256.208 2.135.711 2.135h.009zm3.04.528c-.808 0-1.295-.959-1.295-2.654 0-1.751.52-2.67 1.367-2.67.84 0 1.279.999 1.279 2.654 0 1.895-.6 2.67-1.343 2.67h-.008zm.04-.528c.496 0 .695-.888.695-2.135 0-1.215-.2-2.135-.695-2.135-.504 0-.72.88-.72 2.135-.008 1.256.208 2.135.711 2.135h.009zm3.04.528c-.808 0-1.295-.959-1.295-2.654 0-1.751.52-2.67 1.367-2.67.84 0 1.279.999 1.279 2.654 0 1.895-.6 2.67-1.343 2.67h-.008zm.04-.528c.496 0 .695-.888.695-2.135 0-1.215-.2-2.135-.695-2.135-.504 0-.72.88-.72 2.135-.008 1.256.208 2.135.711 2.135h.009zm-10.536-12.202v-.399l.432-.592c.624-.863 1.352-1.839 1.352-2.814 0-.576-.248-.928-.736-.928-.375 0-.624.2-.751.288l-.153-.464a1.624 1.624 0 0 1 1.015-.352c.864 0 1.239.64 1.239 1.423 0 .976-.64 1.927-1.287 2.799l-.344.479v.016h1.727v.544h-2.494zm5.487-4.653h-1.399l-.216 1.383c.064-.016.12-.016.192-.016.28 0 .72.128.992.392.28.272.439.655.439 1.184 0 1.039-.656 1.774-1.575 1.774-.32 0-.679-.088-.887-.224l.136-.487c.16.088.44.199.728.199.528 0 .983-.399.983-1.199 0-.823-.503-1.167-1.175-1.167-.192 0-.312.008-.408.024l.328-2.407h1.863v.544zm1.929 4.716c-.808 0-1.295-.959-1.295-2.654 0-1.751.52-2.67 1.367-2.67.84 0 1.279.999 1.279 2.654 0 1.895-.6 2.67-1.343 2.67h-.008zm.04-.527c.496 0 .695-.888.695-2.135 0-1.215-.2-2.135-.695-2.135-.504 0-.72.88-.72 2.135-.008 1.256.208 2.135.711 2.135h.009zm3.04.527c-.808 0-1.295-.959-1.295-2.654 0-1.751.52-2.67 1.367-2.67.84 0 1.279.999 1.279 2.654 0 1.895-.6 2.67-1.343 2.67h-.008zm.04-.527c.496 0 .695-.888.695-2.135 0-1.215-.2-2.135-.695-2.135-.504 0-.72.88-.72 2.135-.008 1.256.208 2.135.711 2.135h.009zM14.46 108.698c.16.097.44.216.751.216.536 0 .896-.392.896-1.031 0-.68-.424-1.079-1.047-1.079h-.144v-.464h.12c.368 0 .936-.279.936-.928 0-.527-.28-.799-.688-.799-.256 0-.48.128-.648.247l-.128-.463c.184-.152.536-.296.928-.296.735 0 1.151.52 1.151 1.191 0 .527-.272.991-.776 1.223v.017c.464.128.912.543.912 1.367 0 .839-.543 1.526-1.487 1.526-.335 0-.704-.096-.912-.239l.136-.488zm4.232.728c-.808 0-1.295-.959-1.295-2.654 0-1.751.52-2.67 1.367-2.67.84 0 1.279.999 1.279 2.654 0 1.895-.6 2.67-1.343 2.67h-.008zm.04-.528c.496 0 .695-.888.695-2.135 0-1.215-.2-2.135-.695-2.135-.504 0-.72.88-.72 2.135-.008 1.256.208 2.135.711 2.135h.009zm3.04.528c-.808 0-1.295-.959-1.295-2.654 0-1.751.52-2.67 1.367-2.67.84 0 1.279.999 1.279 2.654 0 1.895-.6 2.67-1.343 2.67h-.008zm.04-.528c.496 0 .695-.888.695-2.135 0-1.215-.2-2.135-.695-2.135-.504 0-.72.88-.72 2.135-.008 1.256.208 2.135.711 2.135h.009zm3.04.528c-.808 0-1.295-.959-1.295-2.654 0-1.751.52-2.67 1.367-2.67.84 0 1.279.999 1.279 2.654 0 1.895-.6 2.67-1.343 2.67h-.008zm.04-.528c.496 0 .695-.888.695-2.135 0-1.215-.2-2.135-.695-2.135-.504 0-.72.88-.72 2.135-.008 1.256.208 2.135.711 2.135h.009zM14.46 96.032c.16.097.44.216.751.216.536 0 .896-.392.896-1.031 0-.68-.424-1.079-1.047-1.079h-.144v-.464h.12c.368 0 .936-.279.936-.928 0-.527-.28-.799-.688-.799-.256 0-.48.128-.648.247l-.128-.463c.184-.152.536-.296.928-.296.735 0 1.151.52 1.151 1.191 0 .527-.272.991-.776 1.223v.017c.464.128.912.543.912 1.367 0 .839-.543 1.526-1.487 1.526-.335 0-.704-.096-.912-.239l.136-.488zm5.383-3.989h-1.399l-.216 1.383c.064-.016.12-.016.192-.016.28 0 .72.128.992.392.28.272.439.655.439 1.184 0 1.039-.656 1.774-1.575 1.774-.32 0-.679-.088-.887-.224l.136-.487c.16.088.44.199.728.199.528 0 .983-.399.983-1.199 0-.823-.503-1.167-1.175-1.167-.192 0-.312.008-.408.024l.328-2.407h1.863v.544zm1.929 4.716c-.808 0-1.295-.959-1.295-2.654 0-1.751.52-2.67 1.367-2.67.84 0 1.279.999 1.279 2.654 0 1.895-.6 2.67-1.343 2.67h-.008zm.04-.527c.496 0 .695-.888.695-2.135 0-1.215-.2-2.135-.695-2.135-.504 0-.72.88-.72 2.135-.008 1.256.208 2.135.711 2.135h.009zm3.04.527c-.808 0-1.295-.959-1.295-2.654 0-1.751.52-2.67 1.367-2.67.84 0 1.279.999 1.279 2.654 0 1.895-.6 2.67-1.343 2.67h-.008zm.04-.527c.496 0 .695-.888.695-2.135 0-1.215-.2-2.135-.695-2.135-.504 0-.72.88-.72 2.135-.008 1.256.208 2.135.711 2.135h.009zm42.674 65.405h-.016l-.864.495-.12-.479 1.095-.64h.504v5.197h-.6v-4.573zm3.176-.688c.744 0 1.119.623 1.119 1.223 0 .456-.216.896-.695 1.231v.017c.479.327.832.791.832 1.423 0 .808-.536 1.431-1.335 1.431-.863 0-1.295-.688-1.295-1.327 0-.735.432-1.199.855-1.495l-.008-.016c-.432-.296-.68-.752-.68-1.191 0-.8.568-1.295 1.2-1.295h.007zm-.056 4.869c.384 0 .704-.288.704-.943 0-.6-.344-.936-.743-1.199a1.389 1.389 0 0 0-.672 1.167c0 .584.264.976.704.976h.007zm.016-4.414c-.344 0-.576.328-.576.8 0 .527.32.792.64.999.312-.224.512-.567.512-.959 0-.504-.2-.84-.568-.84h-.008zm3.031 4.869c-.808 0-1.295-.959-1.295-2.654 0-1.751.52-2.67 1.367-2.67.84 0 1.279.999 1.279 2.654 0 1.895-.6 2.67-1.343 2.67h-.008zm.04-.527c.496 0 .695-.888.695-2.135 0-1.215-.2-2.135-.695-2.135-.504 0-.72.88-.72 2.135-.008 1.256.208 2.135.711 2.135h.009zm3.217-2.406c0-.456-.024-.688-.032-1h.543l.032.472h.016c.168-.312.456-.535.864-.535.36 0 .671.168.815.583h.016c.104-.191.24-.344.376-.439.16-.096.335-.144.536-.144.528 0 .936.376.936 1.367v2.566h-.616v-2.431c0-.504-.072-.991-.536-.991-.256 0-.48.216-.568.583-.024.097-.024.217-.024.344v2.495h-.616v-2.543c0-.424-.072-.879-.528-.879-.256 0-.503.216-.576.632a2.02 2.02 0 0 0-.024.327v2.463h-.614v-2.87zm4.856 2.23c.136.088.376.2.624.2.344 0 .567-.216.567-.56 0-.296-.104-.504-.496-.76-.504-.328-.775-.664-.775-1.104 0-.632.463-1.071 1.063-1.071.304 0 .527.096.688.199l-.16.464a.884.884 0 0 0-.52-.176c-.328 0-.496.24-.496.496s.096.407.479.663c.448.288.8.648.8 1.184 0 .775-.528 1.151-1.167 1.151-.28 0-.592-.088-.76-.224l.153-.462zm15.72-3.933h-.016l-.864.495-.12-.479 1.095-.64h.504v5.197h-.6v-4.573zm4.127-.168a1.72 1.72 0 0 0-.368.048c-.863.216-1.207 1.079-1.335 1.879h.024c.2-.296.488-.496.879-.496.656 0 1.12.608 1.12 1.6 0 .983-.448 1.774-1.279 1.774-.912 0-1.367-.919-1.367-2.118 0-1.008.264-1.783.671-2.343.312-.439.808-.72 1.263-.815.16-.032.296-.04.392-.048v.519zm-.951 4.325c.344 0 .656-.344.656-1.247 0-.783-.28-1.176-.696-1.176-.264 0-.528.168-.68.561-.016.048-.04.159-.04.312.008 1.063.328 1.551.752 1.551h.008zm2.991.479c-.808 0-1.295-.959-1.295-2.654 0-1.751.52-2.67 1.367-2.67.84 0 1.279.999 1.279 2.654 0 1.895-.6 2.67-1.343 2.67h-.008zm.04-.527c.496 0 .695-.888.695-2.135 0-1.215-.2-2.135-.695-2.135-.504 0-.72.88-.72 2.135-.008 1.256.208 2.135.711 2.135h.009zm3.217-2.406c0-.456-.024-.688-.032-1h.543l.032.472h.016c.168-.312.456-.535.864-.535.36 0 .671.168.815.583h.016c.104-.191.24-.344.376-.439.16-.096.335-.144.536-.144.528 0 .936.376.936 1.367v2.566h-.616v-2.431c0-.504-.072-.991-.536-.991-.256 0-.48.216-.568.583-.024.097-.024.217-.024.344v2.495h-.616v-2.543c0-.424-.072-.879-.528-.879-.256 0-.503.216-.576.632a2.02 2.02 0 0 0-.024.327v2.463h-.616v-2.87zm4.856 2.23c.136.088.376.2.624.2.344 0 .567-.216.567-.56 0-.296-.104-.504-.496-.76-.504-.328-.775-.664-.775-1.104 0-.632.463-1.071 1.063-1.071.304 0 .527.096.688.199l-.16.464a.884.884 0 0 0-.52-.176c-.328 0-.496.24-.496.496s.096.407.479.663c.448.288.8.648.8 1.184 0 .775-.528 1.151-1.167 1.151-.28 0-.592-.088-.76-.224l.153-.462zm15.72-3.933h-.016l-.864.495-.12-.479 1.095-.64h.504v5.197h-.6v-4.573zm3.448 4.573v-1.439h-1.727v-.415l1.687-3.343h.6v3.254h.56v.504h-.56v1.439h-.56zm0-1.943v-1.463c0-.359.024-.68.048-1.023h-.032a22.16 22.16 0 0 1-.44.976l-.72 1.495v.016h1.144zm2.719 2.006c-.808 0-1.295-.959-1.295-2.654 0-1.751.52-2.67 1.367-2.67.84 0 1.279.999 1.279 2.654 0 1.895-.6 2.67-1.343 2.67h-.008zm.04-.527c.496 0 .695-.888.695-2.135 0-1.215-.2-2.135-.695-2.135-.504 0-.72.88-.72 2.135-.008 1.256.208 2.135.711 2.135h.009zm3.217-2.406c0-.456-.024-.688-.032-1h.543l.032.472h.016c.168-.312.456-.535.864-.535.36 0 .671.168.815.583h.016c.104-.191.24-.344.376-.439.16-.096.335-.144.536-.144.528 0 .936.376.936 1.367v2.566h-.616v-2.431c0-.504-.072-.991-.536-.991-.256 0-.48.216-.568.583-.024.097-.024.217-.024.344v2.495h-.616v-2.543c0-.424-.072-.879-.528-.879-.256 0-.503.216-.576.632a2.02 2.02 0 0 0-.024.327v2.463h-.616v-2.87zm4.856 2.23c.136.088.376.2.624.2.344 0 .567-.216.567-.56 0-.296-.104-.504-.496-.76-.504-.328-.775-.664-.775-1.104 0-.632.463-1.071 1.063-1.071.304 0 .527.096.688.199l-.16.464a.884.884 0 0 0-.52-.176c-.328 0-.496.24-.496.496s.096.407.479.663c.448.288.8.648.8 1.184 0 .775-.528 1.151-1.167 1.151-.28 0-.592-.088-.76-.224l.153-.462zm15.72-3.933h-.016l-.864.495-.12-.479 1.095-.64h.504v5.197h-.6v-4.573zm1.832 4.573v-.399l.432-.592c.624-.863 1.352-1.839 1.352-2.814 0-.576-.248-.928-.736-.928-.376 0-.624.2-.751.288l-.152-.464a1.624 1.624 0 0 1 1.015-.352c.864 0 1.24.64 1.24 1.423 0 .976-.64 1.927-1.288 2.799l-.344.479v.016h1.727v.544h-2.495zm4.335.063c-.808 0-1.295-.959-1.295-2.654 0-1.751.52-2.67 1.367-2.67.84 0 1.28.999 1.28 2.654 0 1.895-.6 2.67-1.344 2.67h-.008zm.04-.527c.496 0 .695-.888.695-2.135 0-1.215-.199-2.135-.695-2.135-.504 0-.72.88-.72 2.135-.008 1.256.208 2.135.711 2.135h.009zm3.217-2.406c0-.456-.024-.688-.032-1h.544l.032.472h.016c.168-.312.456-.535.863-.535.36 0 .672.168.815.583h.017c.104-.191.239-.344.376-.439.159-.096.335-.144.535-.144.528 0 .936.376.936 1.367v2.566h-.615v-2.431c0-.504-.072-.991-.536-.991-.256 0-.479.216-.567.583-.024.097-.024.217-.024.344v2.495h-.615v-2.543c0-.424-.072-.879-.528-.879-.256 0-.503.216-.575.632a2.02 2.02 0 0 0-.024.327v2.463h-.615v-2.87zm4.856 2.23c.137.088.376.2.624.2.344 0 .567-.216.567-.56 0-.296-.104-.504-.495-.76-.504-.328-.775-.664-.775-1.104 0-.632.463-1.071 1.063-1.071.304 0 .527.096.688.199l-.16.464a.884.884 0 0 0-.52-.176c-.328 0-.496.24-.496.496s.096.407.479.663c.448.288.8.648.8 1.184 0 .775-.527 1.151-1.167 1.151-.28 0-.592-.088-.76-.224l.152-.462zm15.719-3.933h-.016l-.863.495-.12-.479 1.095-.64h.504v5.197h-.6v-4.573zm3.088 4.636c-.807 0-1.295-.959-1.295-2.654 0-1.751.52-2.67 1.367-2.67.84 0 1.279.999 1.279 2.654 0 1.895-.6 2.67-1.344 2.67h-.007zm.041-.527c.495 0 .695-.888.695-2.135 0-1.215-.2-2.135-.695-2.135-.504 0-.721.88-.721 2.135-.008 1.256.209 2.135.712 2.135h.009zm3.039.527c-.808 0-1.295-.959-1.295-2.654 0-1.751.52-2.67 1.367-2.67.84 0 1.279.999 1.279 2.654 0 1.895-.6 2.67-1.344 2.67h-.007zm.04-.527c.495 0 .695-.888.695-2.135 0-1.215-.2-2.135-.695-2.135-.504 0-.72.88-.72 2.135-.008 1.256.208 2.135.711 2.135h.009zm3.216-2.406c0-.456-.023-.688-.031-1h.543l.033.472h.016c.168-.312.455-.535.863-.535.359 0 .672.168.815.583h.017c.104-.191.239-.344.375-.439.16-.096.336-.144.536-.144.528 0 .936.376.936 1.367v2.566h-.616v-2.431c0-.504-.072-.991-.535-.991-.256 0-.48.216-.568.583-.023.097-.023.217-.023.344v2.495h-.615v-2.543c0-.424-.072-.879-.528-.879-.256 0-.503.216-.575.632a2.02 2.02 0 0 0-.024.327v2.463h-.616v-2.87zm4.857 2.23c.136.088.376.2.624.2.344 0 .567-.216.567-.56 0-.296-.104-.504-.495-.76-.504-.328-.775-.664-.775-1.104 0-.632.463-1.071 1.062-1.071.305 0 .527.096.688.199l-.16.464a.88.88 0 0 0-.52-.176c-.328 0-.495.24-.495.496s.096.407.479.663c.447.288.8.648.8 1.184 0 .775-.528 1.151-1.167 1.151-.28 0-.592-.088-.76-.224l.152-.462zm17.356-4.621c.743 0 1.119.623 1.119 1.223 0 .456-.217.896-.695 1.231v.017c.479.327.831.791.831 1.423 0 .808-.536 1.431-1.335 1.431-.863 0-1.295-.688-1.295-1.327 0-.735.432-1.199.855-1.495l-.009-.016c-.432-.296-.68-.752-.68-1.191 0-.8.567-1.295 1.2-1.295h.009zm-.056 4.869c.384 0 .703-.288.703-.943 0-.6-.344-.936-.742-1.199a1.389 1.389 0 0 0-.672 1.167c0 .584.264.976.703.976h.008zm.015-4.414c-.344 0-.575.328-.575.8 0 .527.319.792.64.999.312-.224.512-.567.512-.959 0-.504-.199-.84-.568-.84h-.009zm3.033 4.869c-.809 0-1.296-.959-1.296-2.654 0-1.751.521-2.67 1.367-2.67.84 0 1.279.999 1.279 2.654 0 1.895-.6 2.67-1.343 2.67h-.007zm.039-.527c.496 0 .695-.888.695-2.135 0-1.215-.199-2.135-.695-2.135-.504 0-.719.88-.719 2.135-.008 1.256.207 2.135.711 2.135h.008zm3.217-2.406c0-.456-.023-.688-.031-1h.543l.032.472h.017c.167-.312.455-.535.863-.535.359 0 .672.168.814.583h.017c.104-.191.239-.344.376-.439.16-.096.336-.144.535-.144.527 0 .936.376.936 1.367v2.566h-.615v-2.431c0-.504-.072-.991-.535-.991-.256 0-.48.216-.568.583-.023.097-.023.217-.023.344v2.495h-.616v-2.543c0-.424-.071-.879-.528-.879-.256 0-.503.216-.575.632a1.914 1.914 0 0 0-.024.327v2.463h-.615v-2.87zm4.856 2.23c.137.088.377.2.625.2.344 0 .566-.216.566-.56 0-.296-.104-.504-.495-.76-.504-.328-.775-.664-.775-1.104 0-.632.464-1.071 1.063-1.071.304 0 .527.096.688.199l-.16.464a.884.884 0 0 0-.52-.176c-.328 0-.496.24-.496.496s.096.407.48.663c.447.288.799.648.799 1.184 0 .775-.527 1.151-1.167 1.151-.28 0-.592-.088-.76-.224l.152-.462zm19.847-4.101c-.104 0-.225.016-.368.048-.863.216-1.207 1.079-1.335 1.879h.023c.2-.296.488-.496.88-.496.655 0 1.12.608 1.12 1.6 0 .983-.448 1.774-1.279 1.774-.912 0-1.367-.919-1.367-2.118 0-1.008.264-1.783.671-2.343.312-.439.808-.72 1.263-.815.16-.032.297-.04.393-.048v.519zm-.951 4.325c.344 0 .655-.344.655-1.247 0-.783-.28-1.176-.696-1.176-.264 0-.527.168-.68.561a1.079 1.079 0 0 0-.039.312c.008 1.063.328 1.551.752 1.551h.008zm2.992.479c-.809 0-1.296-.959-1.296-2.654 0-1.751.521-2.67 1.367-2.67.84 0 1.279.999 1.279 2.654 0 1.895-.6 2.67-1.343 2.67h-.007zm.039-.527c.496 0 .695-.888.695-2.135 0-1.215-.199-2.135-.695-2.135-.504 0-.719.88-.719 2.135-.008 1.256.207 2.135.711 2.135h.008zm3.217-2.406c0-.456-.023-.688-.031-1h.543l.032.472h.017c.167-.312.455-.535.863-.535.359 0 .672.168.814.583h.017c.104-.191.239-.344.376-.439.16-.096.336-.144.535-.144.527 0 .936.376.936 1.367v2.566h-.615v-2.431c0-.504-.072-.991-.535-.991-.256 0-.48.216-.568.583-.023.097-.023.217-.023.344v2.495h-.616v-2.543c0-.424-.071-.879-.528-.879-.256 0-.503.216-.575.632a1.914 1.914 0 0 0-.024.327v2.463h-.615v-2.87zm4.856 2.23c.137.088.377.2.625.2.344 0 .566-.216.566-.56 0-.296-.104-.504-.495-.76-.504-.328-.775-.664-.775-1.104 0-.632.464-1.071 1.063-1.071.304 0 .527.096.688.199l-.16.464a.884.884 0 0 0-.52-.176c-.328 0-.496.24-.496.496s.096.407.48.663c.447.288.799.648.799 1.184 0 .775-.527 1.151-1.167 1.151-.28 0-.592-.088-.76-.224l.152-.462zm19.168.64v-1.439h-1.727v-.415l1.687-3.343h.6v3.254h.56v.504h-.56v1.439h-.56zm0-1.943v-1.463c0-.359.023-.68.048-1.023h-.032a22.25 22.25 0 0 1-.439.976l-.72 1.495v.016h1.143zm2.72 2.006c-.809 0-1.296-.959-1.296-2.654 0-1.751.521-2.67 1.367-2.67.84 0 1.279.999 1.279 2.654 0 1.895-.6 2.67-1.343 2.67h-.007zm.039-.527c.496 0 .695-.888.695-2.135 0-1.215-.199-2.135-.695-2.135-.504 0-.719.88-.719 2.135-.008 1.256.207 2.135.711 2.135h.008zm3.217-2.406c0-.456-.023-.688-.031-1h.543l.032.472h.017c.167-.312.455-.535.863-.535.359 0 .672.168.814.583h.017c.104-.191.239-.344.376-.439.16-.096.336-.144.535-.144.527 0 .936.376.936 1.367v2.566h-.615v-2.431c0-.504-.072-.991-.535-.991-.256 0-.48.216-.568.583-.023.097-.023.217-.023.344v2.495h-.616v-2.543c0-.424-.071-.879-.528-.879-.256 0-.503.216-.575.632a1.914 1.914 0 0 0-.024.327v2.463h-.615v-2.87zm4.856 2.23c.137.088.377.2.625.2.344 0 .566-.216.566-.56 0-.296-.104-.504-.495-.76-.504-.328-.775-.664-.775-1.104 0-.632.464-1.071 1.063-1.071.304 0 .527.096.688.199l-.16.464a.884.884 0 0 0-.52-.176c-.328 0-.496.24-.496.496s.096.407.48.663c.447.288.799.648.799 1.184 0 .775-.527 1.151-1.167 1.151-.28 0-.592-.088-.76-.224l.152-.462zm17.552.64v-.399l.432-.592c.623-.863 1.352-1.839 1.352-2.814 0-.576-.248-.928-.736-.928-.375 0-.623.2-.751.288l-.151-.464a1.624 1.624 0 0 1 1.015-.352c.864 0 1.239.64 1.239 1.423 0 .976-.639 1.927-1.287 2.799l-.344.479v.016h1.727v.544h-2.496zm4.336.063c-.809 0-1.296-.959-1.296-2.654 0-1.751.521-2.67 1.367-2.67.84 0 1.279.999 1.279 2.654 0 1.895-.6 2.67-1.343 2.67h-.007zm.039-.527c.496 0 .695-.888.695-2.135 0-1.215-.199-2.135-.695-2.135-.504 0-.719.88-.719 2.135-.008 1.256.207 2.135.711 2.135h.008zm3.217-2.406c0-.456-.023-.688-.031-1h.543l.032.472h.017c.167-.312.455-.535.863-.535.359 0 .672.168.814.583h.017c.104-.191.239-.344.376-.439.16-.096.336-.144.535-.144.527 0 .936.376.936 1.367v2.566h-.615v-2.431c0-.504-.072-.991-.535-.991-.256 0-.48.216-.568.583-.023.097-.023.217-.023.344v2.495h-.616v-2.543c0-.424-.071-.879-.528-.879-.256 0-.503.216-.575.632a1.914 1.914 0 0 0-.024.327v2.463h-.615v-2.87zm4.856 2.23c.137.088.377.2.625.2.344 0 .566-.216.566-.56 0-.296-.104-.504-.495-.76-.504-.328-.775-.664-.775-1.104 0-.632.464-1.071 1.063-1.071.304 0 .527.096.688.199l-.16.464a.884.884 0 0 0-.52-.176c-.328 0-.496.24-.496.496s.096.407.48.663c.447.288.799.648.799 1.184 0 .775-.527 1.151-1.167 1.151-.28 0-.592-.088-.76-.224l.152-.462z"/></svg>