<svg xmlns="http://www.w3.org/2000/svg" viewBox="0 0 330.16 164.88"><path fill="#fff" fill-rule="evenodd" d="M133.38 3.38h190.333v155.315H133.38z" clip-rule="evenodd"/><path fill="none" stroke="#000" d="M133.38 3.38h190.333v155.315H133.38zM97.676 42.208h57.704" stroke-linecap="round" stroke-linejoin="round"/><path d="M154.504 45.209l5.182-2.991-5.182-2.991z"/><path fill="none" stroke="#000" d="M168.713 78.479v39.164h44.333" stroke-linecap="round" stroke-linejoin="round"/><path d="M212.17 120.644l5.182-2.992-5.182-2.991z"/><path fill="#ecbec0" fill-rule="evenodd" d="M3.38 3.38h98.747v25.886H3.38z" clip-rule="evenodd"/><path fill="none" stroke="#000" d="M3.38 3.38h98.747v25.886H3.38z" stroke-linecap="round" stroke-linejoin="round"/><path d="M21.503 17.239l-.45 2.019h-.74l1.54-6.736h.849l1.5 6.736h-.76l-.45-2.019h-1.489zm1.39-.62l-.35-1.709c-.1-.479-.19-1.039-.27-1.539h-.04c-.08.51-.18 1.089-.27 1.539l-.35 1.709h1.28zm2.051-.689c0-.739-.03-1.169-.04-1.509h.689l.04.619h.02c.26-.52.64-.699 1.02-.699.839 0 1.399.899 1.399 2.488 0 1.789-.74 2.509-1.5 2.509-.45 0-.709-.29-.839-.56h-.02v2.398h-.77V15.93zm.77 1.549c0 .15 0 .29.03.4.15.689.5.819.71.819.64 0 .839-.88.839-1.859 0-.999-.24-1.839-.85-1.839-.35 0-.66.439-.709.88-.02.12-.02.239-.02.369v1.23zm3.22-1.549c0-.739-.03-1.169-.04-1.509h.689l.04.619h.02c.26-.52.64-.699 1.02-.699.839 0 1.399.899 1.399 2.488 0 1.789-.74 2.509-1.5 2.509-.45 0-.709-.29-.839-.56h-.02v2.398h-.77V15.93zm.77 1.549c0 .15 0 .29.03.4.15.689.5.819.71.819.64 0 .839-.88.839-1.859 0-.999-.24-1.839-.85-1.839-.35 0-.66.439-.709.88-.02.12-.02.239-.02.369v1.23zm3.23-5.137h.77v6.916h-.77v-6.916zm2.739.829c.01.3-.18.5-.47.5-.25 0-.439-.2-.439-.5s.2-.499.45-.499c.28 0 .459.199.459.499zm-.829 6.087v-4.837h.77v4.837h-.77zm4.198-.12c-.17.101-.46.18-.8.18-1.059 0-1.769-.85-1.769-2.448 0-1.39.7-2.519 1.909-2.519.26 0 .54.07.68.149l-.15.63c-.1-.05-.3-.13-.55-.13-.77 0-1.119.92-1.119 1.869 0 1.129.43 1.809 1.139 1.809.21 0 .38-.05.56-.13l.1.59zm2.601.12l-.05-.51h-.03c-.21.37-.55.59-.959.59-.649 0-1.149-.55-1.149-1.379 0-1.21.97-1.749 2.059-1.76v-.149c0-.649-.16-1.1-.77-1.1-.3 0-.57.1-.8.25l-.17-.54c.2-.149.65-.319 1.129-.319.97 0 1.389.64 1.389 1.729v2.089c0 .37 0 .79.05 1.1h-.699zm-.11-2.499c-.4 0-1.33.07-1.33 1.12 0 .629.32.859.59.859.34 0 .63-.25.72-.729.02-.09.02-.19.02-.271v-.979zm2.69-3.617v1.279h.93v.589h-.93v2.869c0 .629.23.799.51.799.12 0 .22-.01.31-.029l.03.59c-.14.05-.32.079-.57.079-.3 0-.569-.079-.759-.289-.19-.221-.29-.55-.29-1.22V15.01h-.589v-.589h.589v-1.06l.769-.219zm2.44.029c.01.3-.18.5-.47.5-.25 0-.439-.2-.439-.5s.2-.499.45-.499c.279 0 .459.199.459.499zm-.83 6.087v-4.837h.77v4.837h-.77zm4.809-2.419c0 1.869-.87 2.499-1.609 2.499-.87 0-1.569-.79-1.569-2.488 0-1.77.79-2.509 1.619-2.509.859 0 1.559.809 1.559 2.498zm-2.409 0c0 .8.14 1.89.839 1.89.66 0 .79-1.14.79-1.89 0-.739-.13-1.879-.81-1.879-.689 0-.819 1.14-.819 1.879zm3.27-1.169c0-.569-.03-.859-.04-1.249h.67l.04.579h.02c.21-.39.6-.659 1.109-.659.669 0 1.169.499 1.169 1.669v3.248h-.77V16.14c0-.569-.11-1.149-.669-1.149-.32 0-.629.27-.729.789-.02.12-.03.271-.03.431v3.048h-.77V15.67zm7.359-3.328c-.57.899-1.04 2.249-1.04 4.067 0 1.789.47 3.139 1.04 4.048h-.6c-.52-.76-1.1-2.099-1.1-4.058.02-1.959.58-3.309 1.1-4.058h.6zm1.62.18v2.889h1.889v-2.889h.77v6.736h-.77V16.11h-1.889v3.148h-.77v-6.736h.77zm4.65.689h-1.229v-.689h3.228v.689h-1.229v6.047h-.77v-6.047zm3.65 0h-1.229v-.689h3.229v.689h-1.229v6.047h-.77v-6.047zm2.751-.59c.31-.079.68-.13 1.12-.13.62 0 1.139.15 1.489.5.33.32.5.81.5 1.39 0 .619-.15 1.039-.41 1.379-.37.5-.99.75-1.589.75-.13 0-.23 0-.34-.011v2.759h-.77v-6.637zm.769 3.229c.09.021.17.03.3.03.76 0 1.27-.5 1.27-1.449 0-.689-.29-1.31-1.14-1.31-.18 0-.33.021-.43.05v2.679zm1.421 4.668c.21-.58.479-1.64.58-2.329l.87-.1c-.22.81-.65 1.908-.919 2.358l-.531.071zm3.829-1.76c0-.34.23-.579.51-.579.31 0 .51.229.51.579s-.19.58-.51.58c-.29 0-.51-.231-.51-.58zm1.94 0c0-.34.23-.579.51-.579.31 0 .51.229.51.579s-.19.58-.51.58c-.29 0-.51-.231-.51-.58zm1.94 0c0-.34.23-.579.51-.579.31 0 .51.229.51.579s-.19.58-.51.58c-.29 0-.51-.231-.51-.58zm1.7 1.699c.569-.899 1.039-2.269 1.039-4.067s-.47-3.148-1.039-4.048h.6c.52.739 1.099 2.068 1.099 4.048-.02 1.979-.58 3.298-1.099 4.067h-.6z"/><path fill="#e5f1f8" fill-rule="evenodd" stroke="#000" d="M177.046 11.807h75.667v16.668h-75.667z" clip-rule="evenodd" stroke-linecap="round" stroke-linejoin="round"/><path fill="#b2d4eb" fill-rule="evenodd" stroke="#000" d="M160.378 11.807h16.669v66.672h-16.669z" clip-rule="evenodd" stroke-linecap="round" stroke-linejoin="round"/><path d="M200.435 20.964l-.404 1.818h-.666l1.386-6.067h.765l1.352 6.067h-.685l-.405-1.818h-1.343zm1.252-.558l-.315-1.539c-.09-.433-.171-.937-.243-1.387h-.035c-.072.459-.162.981-.244 1.387l-.314 1.539h1.151zm1.843-.621c0-.666-.026-1.053-.035-1.359h.621l.035.559h.019c.234-.469.576-.631.919-.631.756 0 1.26.811 1.26 2.242 0 1.611-.666 2.26-1.351 2.26-.405 0-.64-.262-.756-.505h-.019v2.161h-.693v-4.727zm.694 1.395c0 .135 0 .261.027.36.135.621.45.738.639.738.576 0 .757-.792.757-1.675 0-.9-.216-1.656-.765-1.656-.315 0-.595.396-.64.792-.019.108-.019.216-.019.333v1.108zm2.898-1.395c0-.666-.027-1.053-.037-1.359h.622l.036.559h.018c.234-.469.576-.631.918-.631.757 0 1.261.811 1.261 2.242 0 1.611-.666 2.26-1.351 2.26-.404 0-.639-.262-.756-.505h-.018v2.161h-.693v-4.727zm.693 1.395c0 .135 0 .261.026.36.136.621.45.738.64.738.576 0 .756-.792.756-1.675 0-.9-.216-1.656-.766-1.656-.314 0-.594.396-.639.792-.018.108-.018.216-.018.333v1.108zm2.907-4.627h.693v6.229h-.693v-6.229zm2.466.747c.009.27-.162.45-.423.45-.226 0-.396-.181-.396-.45 0-.271.18-.45.405-.45.251 0 .414.18.414.45zm-.748 5.483v-4.357h.693v4.357h-.693zm3.781-.109c-.153.091-.414.162-.72.162-.955 0-1.594-.765-1.594-2.205 0-1.252.63-2.269 1.719-2.269.234 0 .486.062.613.135l-.136.567a1.134 1.134 0 0 0-.495-.117c-.693 0-1.008.828-1.008 1.684 0 1.017.387 1.629 1.025 1.629.189 0 .343-.045.505-.117l.091.531zm2.339.109l-.045-.459h-.026c-.189.333-.495.531-.864.531-.586 0-1.035-.495-1.035-1.242 0-1.09.873-1.576 1.854-1.585v-.135c0-.585-.145-.99-.693-.99-.271 0-.513.09-.72.225l-.154-.486c.181-.135.586-.288 1.018-.288.873 0 1.252.576 1.252 1.558v1.882c0 .333 0 .711.045.99h-.632zm-.099-2.251c-.36 0-1.197.063-1.197 1.009 0 .567.288.774.531.774.306 0 .567-.226.648-.657.018-.081.018-.171.018-.243v-.883zm2.421-3.259v1.152h.837v.531h-.837v2.584c0 .567.207.72.459.72.107 0 .198-.009.279-.026l.027.531a1.532 1.532 0 0 1-.514.071c-.27 0-.514-.071-.684-.261-.172-.198-.262-.495-.262-1.099v-2.521h-.531v-.531h.531v-.954l.695-.197zm2.195.027c.01.27-.162.45-.423.45-.226 0-.396-.181-.396-.45 0-.271.18-.45.404-.45.253 0 .415.18.415.45zm-.746 5.483v-4.357h.692v4.357h-.692zm4.329-2.179c0 1.684-.783 2.251-1.45 2.251-.783 0-1.413-.712-1.413-2.242 0-1.593.712-2.26 1.458-2.26.775 0 1.405.73 1.405 2.251zm-2.17 0c0 .721.126 1.701.757 1.701.594 0 .711-1.026.711-1.701 0-.666-.117-1.692-.729-1.692-.622 0-.739 1.026-.739 1.692zm2.943-1.054c0-.513-.027-.773-.035-1.125H228l.036.522h.018a1.106 1.106 0 0 1 1-.595c.604 0 1.053.45 1.053 1.504v2.926h-.693v-2.809c0-.514-.099-1.035-.603-1.035-.288 0-.567.243-.657.711a2.445 2.445 0 0 0-.027.387v2.746h-.693V19.55zm-62.057 37.297a5.076 5.076 0 0 1-.117-1.125c0-.639.117-1.161.459-1.521.307-.324.774-.486 1.297-.486.612 0 1.026.172 1.35.451.424.359.631.945.631 1.458 0 .099 0 .18-.01.271h2.368v.953h-5.978zm2.818-.953c.019-.072.019-.136.019-.234 0-.631-.433-.981-1.126-.981-.567 0-1.044.233-1.044.882 0 .135.018.252.045.334h2.106zm.009-2.799c-.404 0-.864.018-1.234.035v-.836l.658-.055v-.027c-.44-.171-.729-.531-.729-.891 0-.09.009-.145.018-.207h.955c-.009.062-.009.125-.009.207 0 .333.279.666.756.773.1.019.253.037.415.037h2.322v.963h-3.152zm3.224-3.771c0 .927-.774 1.566-2.251 1.566-1.594 0-2.278-.783-2.278-1.604 0-.918.801-1.548 2.25-1.548 1.773 0 2.278.918 2.278 1.575v.011zm-.739-.037c0-.477-.864-.584-1.53-.584-.64 0-1.521.107-1.521.603 0 .522.882.621 1.521.621.738 0 1.53-.126 1.53-.63v-.01zm-4.808-3.411h1.089v-.846h.694v.847h2.278c.54 0 .675-.207.675-.45 0-.108-.009-.198-.027-.297l.748-.018c.045.144.071.36.071.63 0 .306-.081.585-.27.774-.217.216-.531.324-1.188.324h-2.287v.522h-.694v-.522h-.756l-.333-.964zm5.547-2.753c0 .927-.774 1.566-2.251 1.566-1.594 0-2.278-.783-2.278-1.603 0-.918.801-1.548 2.25-1.548 1.773 0 2.278.918 2.278 1.575v.01zm-.739-.037c0-.477-.864-.585-1.53-.585-.64 0-1.521.108-1.521.603 0 .522.882.621 1.521.621.738 0 1.53-.126 1.53-.63v-.009zm.577-4.563c.072.135.144.414.144.738 0 1.044-.773 1.738-2.215 1.738-1.313 0-2.287-.729-2.287-1.891 0-.261.062-.513.126-.63l.766.144c-.036.099-.1.252-.1.468 0 .621.666.945 1.477.945.9 0 1.44-.36 1.44-.945 0-.18-.036-.333-.099-.468l.748-.099zm.162-1.871c0 .927-.774 1.566-2.251 1.566-1.594 0-2.278-.783-2.278-1.603 0-.918.801-1.548 2.25-1.548 1.773 0 2.278.918 2.278 1.575v.01zm-.739-.036c0-.477-.864-.585-1.53-.585-.64 0-1.521.108-1.521.603 0 .522.882.621 1.521.621.738 0 1.53-.126 1.53-.63v-.009zm-5.563-2.259v-.963h6.23v.963h-6.23z"/><path fill="#e5f1f8" fill-rule="evenodd" stroke="#000" d="M177.046 28.475h75.667v16.668h-75.667z" clip-rule="evenodd" stroke-linecap="round" stroke-linejoin="round"/><path d="M209.341 37.632l-.405 1.818h-.666l1.386-6.067h.766l1.351 6.067h-.685l-.404-1.818h-1.343zm1.251-.558l-.315-1.539c-.09-.433-.17-.937-.242-1.387h-.036c-.072.459-.162.981-.243 1.387l-.315 1.539h1.151zm1.854-3.853h.692v6.229h-.692v-6.229zm2.204 4.114c.009 1.332.531 1.62 1.036 1.62.297 0 .549-.072.72-.171l.108.513c-.244.136-.613.207-.955.207-1.044 0-1.584-.854-1.584-2.188 0-1.413.594-2.296 1.467-2.296.892 0 1.242.937 1.242 1.927 0 .162 0 .279-.008.388h-2.026zm1.369-.513c.019-.873-.314-1.261-.648-1.261-.449 0-.684.667-.711 1.261h1.359zm1.404-.604c0-.368-.027-.801-.037-1.125h.622l.036.685h.018c.145-.414.514-.757.918-.757.055 0 .1.01.145.01v.711c-.045-.009-.09-.009-.145-.009-.441 0-.765.404-.837.909a2.53 2.53 0 0 0-.026.396v2.413h-.693v-3.233zm3.303-2.277v1.152h.837v.531h-.837v2.584c0 .567.207.72.459.72.107 0 .198-.009.279-.026l.027.531a1.532 1.532 0 0 1-.514.071c-.27 0-.514-.071-.684-.261-.172-.198-.262-.495-.262-1.099v-2.521h-.531v-.531h.531v-.954l.695-.197z"/><path fill="#e5f1f8" fill-rule="evenodd" stroke="#000" d="M177.046 45.143h75.667v16.668h-75.667z" clip-rule="evenodd" stroke-linecap="round" stroke-linejoin="round"/><path d="M192.408 56.01c-.188.1-.486.162-.864.162-1.188 0-2.035-.954-2.035-3.016 0-2.395 1.189-3.16 2.143-3.16.369 0 .631.072.757.153l-.153.585a1.34 1.34 0 0 0-.611-.126c-.648 0-1.405.63-1.405 2.485 0 1.854.685 2.466 1.423 2.466.261 0 .495-.062.639-.135l.106.586zm.63-6.121h.692v2.34h.019c.09-.152.225-.287.359-.378.162-.099.334-.162.586-.162.549 0 1.018.441 1.018 1.54v2.89h-.693V53.31c0-.531-.117-1.035-.586-1.035-.324 0-.566.233-.675.692-.019.1-.027.226-.027.334v2.817h-.692v-6.229zm5.363 6.23l-.045-.459h-.026c-.189.333-.495.531-.864.531-.586 0-1.035-.495-1.035-1.242 0-1.09.873-1.576 1.854-1.585v-.135c0-.585-.145-.99-.693-.99-.271 0-.513.09-.72.225l-.154-.486c.181-.135.586-.288 1.018-.288.873 0 1.252.576 1.252 1.558v1.882c0 .333 0 .711.045.99h-.632zm-.098-2.251c-.36 0-1.197.063-1.197 1.009 0 .567.288.774.531.774.306 0 .567-.226.648-.657.018-.081.018-.171.018-.243v-.883zm1.655-.982c0-.513-.027-.773-.035-1.125h.603l.036.522h.018a1.106 1.106 0 0 1 1-.595c.604 0 1.053.45 1.053 1.504v2.926h-.693V53.31c0-.514-.099-1.035-.603-1.035-.288 0-.567.243-.657.711a2.445 2.445 0 0 0-.027.387v2.746h-.693v-3.233zm6.311-1.125c-.01.307-.037.693-.037 1.359v2.439c0 1.144-.144 1.576-.432 1.891-.261.298-.675.469-1.161.469-.369 0-.729-.09-.954-.216l.162-.541c.171.091.459.189.811.189.549 0 .891-.342.891-1.332v-.441h-.018a.887.887 0 0 1-.838.531c-.773 0-1.278-.873-1.278-2.152 0-1.602.729-2.269 1.368-2.269.469 0 .685.307.811.567h.018l.037-.495h.62zm-.721 1.504a1.16 1.16 0 0 0-.036-.315c-.081-.297-.233-.666-.63-.666-.504 0-.774.675-.774 1.639 0 1.116.351 1.62.774 1.62.207 0 .477-.099.621-.621.036-.135.045-.271.045-.396v-1.261zm2.133.738c.009 1.332.531 1.62 1.035 1.62.297 0 .549-.072.721-.171l.107.513c-.243.136-.612.207-.955.207-1.043 0-1.584-.854-1.584-2.188 0-1.413.594-2.296 1.468-2.296.892 0 1.242.937 1.242 1.927 0 .162 0 .279-.009.388h-2.025zm1.368-.513c.019-.873-.315-1.261-.648-1.261-.45 0-.685.667-.711 1.261h1.359zm4.113 2.52c-.188.1-.486.162-.864.162-1.188 0-2.035-.954-2.035-3.016 0-2.395 1.189-3.16 2.143-3.16.369 0 .631.072.757.153l-.153.585a1.34 1.34 0 0 0-.611-.126c-.648 0-1.405.63-1.405 2.485 0 1.854.685 2.466 1.423 2.466.261 0 .495-.062.639-.135l.106.586zm1.367-5.374c.009.27-.162.45-.423.45-.226 0-.396-.181-.396-.45 0-.271.18-.45.405-.45.252 0 .414.18.414.45zm-.747 5.483v-4.357h.693v4.357h-.693zm1.647-2.998c0-.666-.027-1.053-.036-1.359h.622l.035.559h.018c.234-.469.576-.631.919-.631.757 0 1.261.811 1.261 2.242 0 1.611-.666 2.26-1.351 2.26-.405 0-.64-.262-.757-.505h-.018v2.161h-.693v-4.727zm.693 1.395c0 .135 0 .261.027.36.135.621.449.738.639.738.576 0 .756-.792.756-1.675 0-.9-.216-1.656-.765-1.656-.315 0-.595.396-.64.792-.018.108-.018.216-.018.333v1.108zm2.906-4.627h.693v2.34h.018c.091-.152.226-.287.361-.378.162-.099.332-.162.584-.162.55 0 1.018.441 1.018 1.54v2.89h-.693V53.31c0-.531-.117-1.035-.585-1.035-.323 0-.567.233-.675.692-.018.1-.027.226-.027.334v2.817h-.693v-6.229zm4.131 4.114c.01 1.332.531 1.62 1.036 1.62.297 0 .549-.072.72-.171l.108.513c-.243.136-.612.207-.954.207-1.045 0-1.585-.854-1.585-2.188 0-1.413.595-2.296 1.468-2.296.891 0 1.242.937 1.242 1.927 0 .162 0 .279-.009.388h-2.026zm1.369-.513c.018-.873-.315-1.261-.648-1.261-.45 0-.684.667-.711 1.261h1.359zm1.404-.604c0-.368-.026-.801-.036-1.125h.621l.036.685h.019c.144-.414.513-.757.918-.757.054 0 .1.01.145.01v.711c-.045-.009-.091-.009-.145-.009-.441 0-.766.404-.838.909a2.658 2.658 0 0 0-.026.396v2.413h-.693v-3.233zm2.16 2.432c.207.135.567.242.873.242.63 0 1.009-.414 1.009-1.026 0-.558-.324-.899-.802-1.26-.478-.333-1.144-.9-1.144-1.684 0-.918.64-1.594 1.603-1.594.378 0 .712.117.855.226l-.171.594a1.277 1.277 0 0 0-.721-.207c-.594 0-.873.45-.873.864 0 .604.315.837.892 1.252.729.513 1.054 1.071 1.054 1.746 0 1.044-.738 1.701-1.702 1.701-.414 0-.854-.135-1.026-.261l.153-.593zm3.347-2.197c0-.666-.026-1.053-.036-1.359h.621l.036.559h.019c.234-.469.576-.631.918-.631.756 0 1.26.811 1.26 2.242 0 1.611-.666 2.26-1.35 2.26-.405 0-.64-.262-.756-.505h-.019v2.161h-.693v-4.727zm.694 1.395c0 .135 0 .261.026.36.136.621.451.738.64.738.576 0 .757-.792.757-1.675 0-.9-.217-1.656-.766-1.656-.315 0-.594.396-.639.792-.019.108-.019.216-.019.333v1.108zm3.392-.513c.009 1.332.531 1.62 1.036 1.62.297 0 .549-.072.72-.171l.108.513c-.244.136-.613.207-.955.207-1.044 0-1.584-.854-1.584-2.188 0-1.413.594-2.296 1.467-2.296.892 0 1.242.937 1.242 1.927 0 .162 0 .279-.008.388h-2.026zm1.369-.513c.019-.873-.314-1.261-.648-1.261-.449 0-.684.667-.711 1.261h1.359zm3.537 2.52c-.152.091-.414.162-.72.162-.954 0-1.594-.765-1.594-2.205 0-1.252.63-2.269 1.72-2.269.234 0 .486.062.612.135l-.136.567a1.13 1.13 0 0 0-.494-.117c-.693 0-1.009.828-1.009 1.684 0 1.017.388 1.629 1.026 1.629.189 0 .342-.045.504-.117l.091.531z"/><path fill="#e5f1f8" fill-rule="evenodd" stroke="#000" d="M177.046 61.811h75.667v16.668h-75.667z" clip-rule="evenodd" stroke-linecap="round" stroke-linejoin="round"/><path d="M200.854 66.719v2.602h1.702v-2.602h.692v6.067h-.692V69.95h-1.702v2.836h-.693v-6.067h.693zm5.139 6.068l-.045-.459h-.027c-.189.333-.495.531-.864.531-.585 0-1.036-.495-1.036-1.242 0-1.09.874-1.576 1.855-1.585v-.135c0-.585-.145-.99-.693-.99-.27 0-.514.09-.721.225l-.152-.486c.18-.135.585-.288 1.018-.288.873 0 1.251.576 1.251 1.558v1.882c0 .333 0 .711.045.99h-.631zm-.099-2.251c-.359 0-1.197.063-1.197 1.009 0 .567.288.774.531.774.307 0 .567-.226.648-.657.018-.081.018-.171.018-.243v-.883zm1.656-.982c0-.513-.027-.773-.037-1.125h.604l.036.522h.019c.188-.352.539-.595.998-.595.604 0 1.055.45 1.055 1.504v2.926h-.693v-2.809c0-.514-.1-1.035-.604-1.035-.288 0-.567.243-.657.711a2.331 2.331 0 0 0-.027.387v2.746h-.692v-3.232zm6.263-2.997v5.186c0 .297.027.792.037 1.044h-.595l-.045-.549h-.027c-.144.314-.45.621-.909.621-.738 0-1.27-.802-1.27-2.233 0-1.548.64-2.269 1.314-2.269.315 0 .621.153.793.522h.018v-2.322h.684zm-.683 3.528c0-.09 0-.188-.01-.288-.045-.45-.314-.846-.647-.846-.576 0-.774.801-.774 1.674 0 .919.234 1.657.738 1.657.216 0 .514-.117.666-.747a1.37 1.37 0 0 0 .027-.288v-1.162zm1.538 1.982c.153.099.423.225.702.225.396 0 .639-.243.639-.63 0-.333-.117-.559-.558-.855-.567-.369-.873-.738-.873-1.242 0-.702.522-1.207 1.197-1.207.342 0 .603.117.783.226l-.188.522a1.026 1.026 0 0 0-.576-.189c-.379 0-.568.271-.568.549 0 .298.108.459.541.757.504.324.9.72.9 1.323 0 .873-.595 1.296-1.306 1.296-.324 0-.675-.099-.864-.252l.171-.523zm2.718-5.51h.693v2.34h.018c.091-.152.226-.287.361-.378.162-.099.332-.162.584-.162.55 0 1.018.441 1.018 1.54v2.89h-.693v-2.809c0-.531-.117-1.035-.585-1.035-.323 0-.567.233-.675.692-.018.1-.027.226-.027.334v2.817h-.693v-6.229zm5.365 6.23l-.045-.459h-.027c-.189.333-.495.531-.864.531-.585 0-1.036-.495-1.036-1.242 0-1.09.874-1.576 1.855-1.585v-.135c0-.585-.145-.99-.693-.99-.27 0-.514.09-.721.225l-.152-.486c.18-.135.585-.288 1.018-.288.873 0 1.251.576 1.251 1.558v1.882c0 .333 0 .711.045.99h-.631zm-.1-2.251c-.359 0-1.197.063-1.197 1.009 0 .567.288.774.531.774.307 0 .567-.226.648-.657.018-.081.018-.171.018-.243v-.883zm2.34-.081h.018c.082-.171.153-.342.234-.485l.864-1.54h.747l-1.152 1.837 1.252 2.521h-.774l-.945-2.053-.243.405v1.647h-.693v-6.229h.693v3.897zm2.854.216c.009 1.332.531 1.62 1.035 1.62.297 0 .549-.072.721-.171l.107.513c-.243.136-.612.207-.955.207-1.043 0-1.584-.854-1.584-2.188 0-1.413.594-2.296 1.468-2.296.892 0 1.242.937 1.242 1.927 0 .162 0 .279-.009.388h-2.025zm1.368-.513c.019-.873-.315-1.261-.648-1.261-.45 0-.685.667-.711 1.261h1.359z"/><path fill="#fef4e8" fill-rule="evenodd" stroke="#000" d="M235.046 84.307h75.667v16.668h-75.667z" clip-rule="evenodd" stroke-linecap="round" stroke-linejoin="round"/><path fill="#fddfbb" fill-rule="evenodd" stroke="#000" d="M218.378 84.307h16.669v66.672h-16.669z" clip-rule="evenodd" stroke-linecap="round" stroke-linejoin="round"/><path d="M252.909 89.215h2.313v.603h-1.62v2.125h1.512v.585h-1.512v2.755h-.693v-6.068zm2.944 2.835c0-.368-.027-.801-.037-1.125h.622l.036.685h.018c.145-.414.514-.757.918-.757.055 0 .1.01.145.01v.711c-.045-.009-.09-.009-.145-.009-.441 0-.765.404-.837.909a2.53 2.53 0 0 0-.026.396v2.413h-.693V92.05zm3.906 3.233l-.045-.459h-.027c-.189.333-.495.531-.864.531-.585 0-1.036-.495-1.036-1.242 0-1.09.874-1.576 1.855-1.585v-.135c0-.585-.145-.99-.693-.99-.27 0-.514.09-.721.225l-.152-.486c.18-.135.585-.288 1.018-.288.873 0 1.251.576 1.251 1.558v1.882c0 .333 0 .711.045.99h-.631zm-.1-2.251c-.359 0-1.197.063-1.197 1.009 0 .567.288.774.531.774.307 0 .567-.226.648-.657.018-.081.018-.171.018-.243v-.883zm4.32-2.107c-.009.307-.036.693-.036 1.359v2.439c0 1.144-.144 1.576-.433 1.891-.26.298-.674.469-1.16.469-.369 0-.729-.09-.955-.216l.162-.541c.172.091.459.189.811.189.549 0 .891-.342.891-1.332v-.441h-.018a.885.885 0 0 1-.837.531c-.774 0-1.278-.873-1.278-2.152 0-1.602.729-2.269 1.368-2.269.468 0 .685.307.81.567h.019l.036-.495h.62zm-.72 1.504c0-.108-.008-.226-.035-.315-.082-.297-.234-.666-.631-.666-.504 0-.773.675-.773 1.639 0 1.116.351 1.62.773 1.62.207 0 .478-.099.621-.621.037-.135.045-.271.045-.396v-1.261zm1.646-.379c0-.513-.027-.773-.035-1.125h.603l.036.54h.018c.189-.351.522-.612.981-.612.405 0 .747.198.909.667h.019c.116-.217.271-.388.433-.495.17-.117.377-.172.603-.172.585 0 1.044.433 1.044 1.54v2.89h-.684v-2.728c0-.567-.082-1.116-.612-1.116-.288 0-.54.243-.64.647a2.65 2.65 0 0 0-.027.396v2.8h-.684v-2.854c0-.486-.09-.99-.604-.99-.279 0-.566.243-.648.702a2.494 2.494 0 0 0-.026.378v2.764h-.685V92.05zm6.067 1.118c.01 1.332.531 1.62 1.035 1.62.297 0 .549-.072.721-.171l.107.513c-.242.136-.611.207-.954.207-1.044 0-1.585-.854-1.585-2.188 0-1.413.595-2.296 1.469-2.296.891 0 1.242.937 1.242 1.927 0 .162 0 .279-.01.388h-2.025zm1.369-.514c.018-.873-.316-1.261-.648-1.261-.451 0-.685.667-.711 1.261h1.359zm1.412-.604c0-.513-.027-.773-.036-1.125h.603l.037.522h.018c.189-.352.54-.595.999-.595.604 0 1.054.45 1.054 1.504v2.926h-.693v-2.809c0-.514-.1-1.035-.604-1.035-.287 0-.566.243-.656.711a2.331 2.331 0 0 0-.027.387v2.746h-.693V92.05zm4.437-2.277v1.152h.836v.531h-.836v2.584c0 .567.207.72.459.72.107 0 .197-.009.279-.026l.026.531a1.522 1.522 0 0 1-.513.071c-.271 0-.514-.071-.685-.261-.171-.198-.261-.495-.261-1.099v-2.521h-.531v-.531h.531v-.954l.695-.197zm3.168 5.51l-.045-.459h-.027c-.189.333-.495.531-.864.531-.585 0-1.036-.495-1.036-1.242 0-1.09.874-1.576 1.855-1.585v-.135c0-.585-.145-.99-.693-.99-.27 0-.514.09-.721.225l-.152-.486c.18-.135.585-.288 1.018-.288.873 0 1.251.576 1.251 1.558v1.882c0 .333 0 .711.045.99h-.631zm-.099-2.251c-.359 0-1.197.063-1.197 1.009 0 .567.288.774.531.774.307 0 .567-.226.648-.657.018-.081.018-.171.018-.243v-.883zm2.422-3.259v1.152h.836v.531h-.836v2.584c0 .567.207.72.459.72.107 0 .197-.009.279-.026l.026.531a1.522 1.522 0 0 1-.513.071c-.271 0-.514-.071-.685-.261-.171-.198-.261-.495-.261-1.099v-2.521h-.531v-.531h.531v-.954l.695-.197zm2.195.027c.009.27-.162.45-.424.45-.225 0-.396-.181-.396-.45 0-.271.181-.45.405-.45.253 0 .415.18.415.45zm-.747 5.483v-4.357h.692v4.357h-.692zm4.329-2.179c0 1.684-.783 2.251-1.449 2.251-.783 0-1.414-.712-1.414-2.242 0-1.593.712-2.26 1.459-2.26.774 0 1.404.73 1.404 2.251zm-2.17 0c0 .721.127 1.701.757 1.701.595 0 .711-1.026.711-1.701 0-.666-.116-1.692-.729-1.692-.622 0-.739 1.026-.739 1.692zm2.943-1.054c0-.513-.027-.773-.036-1.125h.603l.037.522h.018c.189-.352.54-.595.999-.595.604 0 1.054.45 1.054 1.504v2.926h-.693v-2.809c0-.514-.1-1.035-.604-1.035-.287 0-.566.243-.656.711a2.331 2.331 0 0 0-.027.387v2.746h-.693V92.05zm-66.854 34.19a5.162 5.162 0 0 1-.117-1.152c0-.631.108-1.152.441-1.504.324-.342.729-.459 1.233-.459.702 0 1.251.342 1.53.954h.018c.153-.433.559-.647 1.278-.774.738-.126 1.387-.27 1.594-.369v1c-.171.072-.766.207-1.477.306-.792.117-1.044.343-1.044.828v.216h2.521v.955h-5.977zm2.719-.955v-.252c0-.576-.45-.936-1.071-.936-.595 0-.999.242-1.009.863 0 .127.01.244.036.324h2.044zm1.323-3.717c.981-.009 1.251-.459 1.251-.972 0-.324-.071-.595-.152-.783l.684-.144c.126.278.207.701.207 1.098 0 1.135-.819 1.737-2.179 1.737-1.449 0-2.331-.692-2.331-1.63 0-.918.837-1.386 2.008-1.386.252 0 .396.009.513.026v2.054zm-.685-1.188c-.702-.01-1.116.225-1.116.566 0 .414.604.604 1.116.621v-1.187zm2.531-3.888c.072.135.144.414.144.738 0 1.045-.773 1.738-2.215 1.738-1.313 0-2.286-.73-2.286-1.891 0-.262.062-.514.126-.631l.766.145c-.036.099-.1.252-.1.468 0 .621.666.945 1.477.945.9 0 1.44-.36 1.44-.945 0-.181-.036-.333-.099-.468l.747-.099zm.162-1.871c0 .928-.774 1.566-2.251 1.566-1.594 0-2.277-.783-2.277-1.603 0-.919.801-1.548 2.25-1.548 1.773 0 2.278.918 2.278 1.574v.011zm-.739-.036c0-.478-.864-.585-1.53-.585-.64 0-1.521.107-1.521.604 0 .521.882.621 1.521.621.738 0 1.53-.127 1.53-.631v-.009zm-2.485-2.259c-.404 0-.864.018-1.233.036v-.837l.657-.055v-.026c-.44-.171-.729-.531-.729-.892 0-.09.009-.145.018-.207h.954c-.009.062-.009.126-.009.207 0 .334.279.666.756.774.1.019.253.036.415.036h2.322v.963h-3.151zm-3.078-5.321h5.041c.36 0 .855-.018 1.188-.035v.818l-.522.063v.026c.315.145.595.486.595.91 0 .855-.928 1.332-2.251 1.332-1.539 0-2.277-.666-2.277-1.377 0-.361.171-.621.477-.766v-.018h-2.25v-.953zm3.52.955c-.081 0-.18 0-.27.018-.352.036-.667.234-.667.521 0 .486.693.658 1.477.658.883 0 1.45-.234 1.45-.64 0-.181-.091-.405-.55-.522a.842.842 0 0 0-.279-.035h-1.161z"/><path fill="#fef4e8" fill-rule="evenodd" stroke="#000" d="M235.046 100.975h75.667v16.668h-75.667zm0 16.668h75.667v16.668h-75.667z" clip-rule="evenodd" stroke-linecap="round" stroke-linejoin="round"/><path d="M262.188 106.551v6.067h-.693v-6.067h.693zm1.043 2.835c0-.513-.027-.773-.035-1.125h.603l.036.522h.018a1.106 1.106 0 0 1 1-.595c.604 0 1.053.45 1.053 1.504v2.926h-.693v-2.809c0-.514-.099-1.035-.603-1.035-.288 0-.567.243-.657.711a2.445 2.445 0 0 0-.027.387v2.746h-.693v-3.232zm4.438-2.277v1.152h.837v.531h-.837v2.584c0 .567.207.72.459.72.107 0 .198-.009.279-.026l.027.531a1.532 1.532 0 0 1-.514.071c-.27 0-.514-.071-.684-.261-.172-.198-.262-.495-.262-1.099v-2.521h-.531v-.531h.531v-.954l.695-.197zm1.863 3.394c.009 1.332.531 1.62 1.035 1.62.297 0 .549-.072.721-.171l.107.513c-.243.136-.612.207-.955.207-1.043 0-1.584-.854-1.584-2.188 0-1.413.594-2.296 1.468-2.296.892 0 1.242.937 1.242 1.927 0 .162 0 .279-.009.388h-2.025zm1.368-.513c.019-.873-.315-1.261-.648-1.261-.45 0-.685.667-.711 1.261h1.359zm4.078-1.729c-.009.307-.036.693-.036 1.359v2.439c0 1.144-.144 1.576-.433 1.891-.26.298-.674.469-1.16.469-.369 0-.729-.09-.955-.216l.162-.541c.172.091.459.189.811.189.549 0 .891-.342.891-1.332v-.441h-.018a.885.885 0 0 1-.837.531c-.774 0-1.278-.873-1.278-2.152 0-1.602.729-2.269 1.368-2.269.468 0 .685.307.81.567h.019l.036-.495h.62zm-.721 1.504c0-.108-.008-.226-.035-.315-.082-.297-.234-.666-.631-.666-.504 0-.773.675-.773 1.639 0 1.116.351 1.62.773 1.62.207 0 .478-.099.621-.621.037-.135.045-.271.045-.396v-1.261zm1.638-.379c0-.368-.026-.801-.036-1.125h.621l.036.685h.019c.144-.414.513-.757.918-.757.054 0 .1.01.145.01v.711c-.045-.009-.091-.009-.145-.009-.441 0-.766.404-.838.909a2.658 2.658 0 0 0-.026.396v2.413h-.693v-3.233zm2.988-2.25c.009.27-.162.45-.423.45-.226 0-.396-.181-.396-.45 0-.271.18-.45.405-.45.252 0 .414.18.414.45zm-.747 5.483v-4.357h.693v4.357h-.693zm2.502-5.51v1.152h.837v.531h-.837v2.584c0 .567.207.72.459.72.107 0 .198-.009.279-.026l.027.531a1.532 1.532 0 0 1-.514.071c-.27 0-.514-.071-.684-.261-.172-.198-.262-.495-.262-1.099v-2.521h-.531v-.531h.531v-.954l.695-.197zm1.898 1.152l.576 2.503c.081.342.126.63.18.9h.019c.045-.243.116-.576.188-.892l.514-2.512h.684l-.711 2.8c-.27 1.099-.566 2.151-1.08 2.809-.307.388-.631.595-.783.667l-.252-.595c.197-.107.414-.297.612-.549.18-.226.323-.522.396-.729a.609.609 0 0 0 .045-.216c0-.054 0-.108-.018-.162l-1.098-4.024h.728z"/><path fill="#fef4e8" fill-rule="evenodd" stroke="#000" d="M235.046 134.311h75.667v16.668h-75.667z" clip-rule="evenodd" stroke-linecap="round" stroke-linejoin="round"/><path d="M253.562 127.468l-.404 1.818h-.666l1.386-6.067h.765l1.352 6.067h-.685l-.405-1.818h-1.343zm1.251-.558l-.315-1.539c-.09-.433-.171-.937-.243-1.387h-.035c-.072.459-.162.981-.244 1.387l-.314 1.539h1.151zm4.437 1.188c0 .486.027.864.036 1.188h-.604l-.045-.459h-.018c-.135.216-.469.531-.937.531-.765 0-1.062-.595-1.062-1.675v-2.755h.692v2.656c0 .684.108 1.188.585 1.188.406 0 .586-.379.621-.576.027-.117.037-.253.037-.396v-2.872h.692v3.17zm1.817-4.321v1.152h.838v.531h-.838v2.584c0 .567.207.72.459.72.108 0 .199-.009.279-.026l.027.531a1.524 1.524 0 0 1-.514.071c-.27 0-.513-.071-.684-.261-.172-.198-.262-.495-.262-1.099v-2.521h-.531v-.531h.531v-.954l.695-.197zm1.45-.72h.693v2.34h.018a1.23 1.23 0 0 1 .36-.378c.162-.099.333-.162.585-.162.549 0 1.018.441 1.018 1.54v2.89h-.693v-2.809c0-.531-.117-1.035-.586-1.035-.323 0-.566.233-.674.692-.019.1-.027.226-.027.334v2.817h-.693v-6.229zm4.13 4.114c.01 1.332.531 1.62 1.035 1.62.297 0 .549-.072.721-.171l.107.513c-.242.136-.611.207-.954.207-1.044 0-1.585-.854-1.585-2.188 0-1.413.595-2.296 1.469-2.296.891 0 1.242.937 1.242 1.927 0 .162 0 .279-.01.388h-2.025zm1.37-.513c.018-.873-.316-1.261-.648-1.261-.451 0-.685.667-.711 1.261h1.359zm1.412-.604c0-.513-.027-.773-.036-1.125h.603l.037.522h.018c.189-.352.54-.595.999-.595.604 0 1.054.45 1.054 1.504v2.926h-.693v-2.809c0-.514-.1-1.035-.604-1.035-.287 0-.566.243-.656.711a2.331 2.331 0 0 0-.027.387v2.746h-.693v-3.232zm4.437-2.277v1.152h.837v.531h-.837v2.584c0 .567.207.72.459.72.107 0 .198-.009.279-.026l.027.531a1.532 1.532 0 0 1-.514.071c-.27 0-.514-.071-.684-.261-.172-.198-.262-.495-.262-1.099v-2.521h-.531v-.531h.531v-.954l.695-.197zm2.196.027c.01.27-.162.45-.423.45-.226 0-.396-.181-.396-.45 0-.271.18-.45.404-.45.252 0 .415.18.415.45zm-.747 5.483v-4.357h.692v4.357h-.692zm3.78-.109c-.152.091-.414.162-.72.162-.954 0-1.594-.765-1.594-2.205 0-1.252.63-2.269 1.72-2.269.234 0 .486.062.612.135l-.136.567a1.13 1.13 0 0 0-.494-.117c-.693 0-1.009.828-1.009 1.684 0 1.017.388 1.629 1.026 1.629.189 0 .342-.045.504-.117l.091.531zm2.34.109l-.045-.459h-.027c-.188.333-.494.531-.863.531-.586 0-1.036-.495-1.036-1.242 0-1.09.874-1.576 1.854-1.585v-.135c0-.585-.144-.99-.693-.99-.27 0-.513.09-.72.225l-.153-.486c.18-.135.586-.288 1.018-.288.873 0 1.252.576 1.252 1.558v1.882c0 .333 0 .711.045.99h-.632zm-.1-2.251c-.359 0-1.197.063-1.197 1.009 0 .567.289.774.531.774.307 0 .568-.226.648-.657.018-.081.018-.171.018-.243v-.883zm2.422-3.259v1.152h.836v.531h-.836v2.584c0 .567.207.72.459.72.107 0 .197-.009.279-.026l.026.531a1.522 1.522 0 0 1-.513.071c-.271 0-.514-.071-.685-.261-.171-.198-.261-.495-.261-1.099v-2.521h-.531v-.531h.531v-.954l.695-.197zm2.195.027c.009.27-.162.45-.424.45-.225 0-.396-.181-.396-.45 0-.271.181-.45.405-.45.253 0 .415.18.415.45zm-.747 5.483v-4.357h.692v4.357h-.692zm4.329-2.179c0 1.684-.783 2.251-1.449 2.251-.783 0-1.414-.712-1.414-2.242 0-1.593.712-2.26 1.459-2.26.774 0 1.404.729 1.404 2.251zm-2.17 0c0 .721.127 1.701.757 1.701.595 0 .711-1.026.711-1.701 0-.666-.116-1.692-.729-1.692-.622 0-.739 1.026-.739 1.692zm2.944-1.054c0-.513-.027-.773-.036-1.125h.603l.037.522h.018c.189-.352.54-.595.999-.595.604 0 1.054.45 1.054 1.504v2.926h-.693v-2.809c0-.514-.1-1.035-.604-1.035-.287 0-.566.243-.656.711a2.331 2.331 0 0 0-.027.387v2.746h-.693v-3.232zm-29.536 16.402h-1.521v2.277h1.729v.604h-2.422v-6.067h2.313v.603h-1.62v1.999h1.521v.584zm.881-.352c0-.513-.027-.773-.036-1.125h.603l.037.522h.018c.189-.352.54-.595.999-.595.604 0 1.054.45 1.054 1.504v2.926h-.693v-2.809c0-.514-.1-1.035-.604-1.035-.287 0-.566.243-.656.711a2.331 2.331 0 0 0-.027.387v2.746h-.693v-3.232zm5.77 3.124c-.153.091-.414.162-.721.162-.954 0-1.594-.765-1.594-2.205 0-1.252.631-2.269 1.721-2.269.233 0 .486.062.611.135l-.135.567a1.13 1.13 0 0 0-.495-.117c-.693 0-1.009.828-1.009 1.684 0 1.017.388 1.629 1.027 1.629.188 0 .342-.045.504-.117l.091.531zm.584-3.124c0-.368-.027-.801-.036-1.125h.622l.035.685h.018c.145-.414.514-.757.919-.757.054 0 .099.01.144.01v.711c-.045-.009-.09-.009-.144-.009-.441 0-.765.404-.837.909a2.524 2.524 0 0 0-.027.396v2.413h-.693v-3.233zm2.835-1.125l.576 2.503c.081.342.126.63.181.9h.018c.045-.243.117-.576.189-.892l.513-2.512h.685l-.711 2.8c-.271 1.099-.568 2.151-1.081 2.809-.306.388-.63.595-.783.667l-.252-.595c.198-.107.414-.297.612-.549.18-.226.324-.522.396-.729a.632.632 0 0 0 .045-.216c0-.054 0-.108-.019-.162l-1.099-4.024h.73zm2.745 1.359c0-.666-.027-1.053-.037-1.359h.622l.036.559h.018c.234-.469.576-.631.918-.631.757 0 1.261.811 1.261 2.242 0 1.611-.666 2.26-1.351 2.26-.404 0-.639-.262-.756-.505h-.018v2.161h-.693v-4.727zm.693 1.396c0 .135 0 .261.026.36.136.621.45.738.64.738.576 0 .756-.792.756-1.675 0-.9-.216-1.656-.766-1.656-.314 0-.594.396-.639.792-.018.108-.018.216-.018.333v1.108zm3.752-3.907v1.152h.838v.531h-.838v2.584c0 .567.207.72.459.72.108 0 .199-.009.279-.026l.027.531a1.524 1.524 0 0 1-.514.071c-.27 0-.513-.071-.684-.261-.172-.198-.262-.495-.262-1.099v-2.521h-.531v-.531h.531v-.954l.695-.197zm2.197.027c.009.27-.162.45-.423.45-.226 0-.396-.181-.396-.45 0-.271.18-.45.405-.45.251 0 .414.18.414.45zm-.748 5.482v-4.357h.693v4.357h-.693zm4.331-2.178c0 1.684-.784 2.251-1.45 2.251-.783 0-1.413-.712-1.413-2.242 0-1.593.711-2.26 1.458-2.26.774 0 1.405.729 1.405 2.251zm-2.17 0c0 .721.125 1.701.756 1.701.594 0 .711-1.026.711-1.701 0-.666-.117-1.692-.729-1.692-.621-.001-.738 1.026-.738 1.692zm2.942-1.054c0-.513-.027-.773-.036-1.125h.604l.035.522h.019c.188-.352.54-.595.999-.595.604 0 1.054.45 1.054 1.504v2.926h-.693v-2.809c0-.514-.099-1.035-.603-1.035-.289 0-.568.243-.658.711a2.445 2.445 0 0 0-.027.387v2.746h-.692v-3.232z"/><path fill="#b2d4eb" fill-rule="evenodd" d="M3.38 29.266h98.747v25.886H3.38z" clip-rule="evenodd"/><path fill="none" stroke="#000" d="M3.38 29.266h98.747v25.886H3.38z" stroke-linecap="round" stroke-linejoin="round"/><path d="M31.964 44.004c.25.15.689.271 1.039.271.66 0 1.02-.38 1.02-.939 0-.54-.33-.85-.879-1.229-.75-.48-1.27-1.149-1.27-1.879 0-1.05.71-1.879 1.969-1.879.43 0 .819.13 1 .239l-.19.92c-.19-.12-.47-.23-.83-.23-.61 0-.899.41-.899.82 0 .52.27.759.959 1.199.849.56 1.189 1.209 1.189 1.929 0 1.209-.859 1.979-2.069 1.979-.5 0-1.009-.14-1.219-.279l.18-.922zm4.779-1.009c.01 1.089.51 1.389 1.08 1.389.36 0 .66-.08.87-.17l.16.76c-.31.14-.779.229-1.219.229-1.259 0-1.929-.909-1.929-2.418 0-1.609.77-2.589 1.809-2.589 1.02 0 1.54.93 1.54 2.229 0 .28-.01.44-.03.57h-2.281zm1.319-.76c.01-.779-.25-1.239-.629-1.239-.46 0-.67.669-.69 1.239h1.319zm1.682 1.899c.18.12.51.26.84.26.379 0 .609-.199.609-.56 0-.3-.14-.499-.589-.789-.73-.43-.99-.899-.99-1.39 0-.839.61-1.459 1.489-1.459.39 0 .7.11.93.24l-.21.789c-.19-.12-.41-.21-.67-.21-.37 0-.549.24-.549.51 0 .26.12.41.58.71.649.39 1 .869 1 1.479 0 .99-.69 1.489-1.609 1.489-.38 0-.83-.109-1.04-.279l.209-.79zm3.08 0c.18.12.51.26.84.26.379 0 .609-.199.609-.56 0-.3-.14-.499-.589-.789-.73-.43-.99-.899-.99-1.39 0-.839.61-1.459 1.489-1.459.39 0 .7.11.93.24l-.21.789c-.19-.12-.41-.21-.67-.21-.37 0-.549.24-.549.51 0 .26.12.41.58.71.649.39 1 .869 1 1.479 0 .99-.69 1.489-1.609 1.489-.38 0-.83-.109-1.04-.279l.209-.79zm3.67-4.507c-.31 0-.56-.25-.56-.62 0-.38.26-.619.569-.619.34 0 .58.239.58.619 0 .37-.24.62-.58.62h-.009zm-.51 5.517v-4.867h1.069v4.867h-1.069zm3.599.08c-1.03 0-1.739-.859-1.739-2.499 0-1.769.87-2.528 1.779-2.528 1.019 0 1.719.89 1.719 2.499 0 1.969-1.02 2.528-1.749 2.528h-.01zm.04-.82c.529 0 .649-.96.649-1.699 0-.71-.12-1.689-.669-1.689-.58 0-.69.979-.69 1.689 0 .819.14 1.699.7 1.699h.01zm2.511-2.758c0-.55-.02-.939-.04-1.369h.93l.05.569h.02c.23-.39.64-.649 1.149-.649.819 0 1.249.63 1.249 1.759v3.188h-1.069v-3.088c0-.49-.1-.96-.569-.96-.26 0-.5.2-.6.6-.03.1-.05.26-.05.439v3.009h-1.069v-3.498zm7.779-3.418c-.57.899-1.049 2.219-1.049 4.067 0 1.799.479 3.129 1.049 4.048h-.79c-.54-.749-1.119-2.108-1.119-4.048.03-1.959.58-3.308 1.119-4.067h.79zm1.66 1.159h-1.209v-.979h3.488v.979h-1.209v5.757h-1.069v-5.757zm3.01-.98h1.069v5.837h1.799v.899h-2.868v-6.736zm3.491 5.597c.25.15.689.271 1.039.271.66 0 1.02-.38 1.02-.939 0-.54-.33-.85-.879-1.229-.75-.48-1.27-1.149-1.27-1.879 0-1.05.71-1.879 1.969-1.879.43 0 .819.13 1 .239l-.19.92c-.19-.12-.47-.23-.83-.23-.61 0-.899.41-.899.82 0 .52.27.759.959 1.199.849.56 1.189 1.209 1.189 1.929 0 1.209-.859 1.979-2.069 1.979-.5 0-1.009-.14-1.219-.279l.18-.922zm3.56 2.339c.57-.909 1.049-2.259 1.049-4.077 0-1.8-.479-3.129-1.049-4.038h.79c.54.739 1.119 2.068 1.119 4.048-.03 1.969-.58 3.298-1.119 4.067h-.79z"/><path fill="#fddfbb" fill-rule="evenodd" d="M3.38 55.152h98.747v25.886H3.38z" clip-rule="evenodd"/><path fill="none" stroke="#000" d="M3.38 55.152h98.747v25.886H3.38z" stroke-linecap="round" stroke-linejoin="round"/><path d="M30.788 64.983h-1.229v-.689h3.229v.689h-1.229v6.047h-.77v-6.047zm2.141 2.459c0-.41-.03-.89-.04-1.249h.689l.04.759h.02c.16-.459.57-.839 1.02-.839.06 0 .11.01.16.01v.789c-.05-.01-.1-.01-.16-.01-.49 0-.85.45-.93 1.01-.02.13-.03.279-.03.439v2.679h-.77v-3.588zm4.339 3.588l-.05-.51h-.03c-.21.37-.55.59-.959.59-.649 0-1.149-.55-1.149-1.379 0-1.21.97-1.749 2.059-1.76v-.149c0-.649-.16-1.1-.77-1.1-.3 0-.57.1-.8.25l-.17-.54c.2-.149.65-.319 1.129-.319.97 0 1.389.64 1.389 1.729v2.089c0 .37 0 .79.05 1.1h-.699zm-.11-2.499c-.4 0-1.33.07-1.33 1.12 0 .629.32.859.59.859.34 0 .63-.25.72-.729.02-.09.02-.19.02-.271v-.979zm1.841-1.089c0-.569-.03-.859-.04-1.249h.67l.04.579h.02c.209-.39.6-.659 1.109-.659.669 0 1.169.499 1.169 1.669v3.248h-.77v-3.118c0-.569-.11-1.149-.669-1.149-.32 0-.63.27-.729.789-.02.12-.03.271-.03.431v3.048h-.77v-3.589zm3.92 2.788c.17.11.47.25.78.25.439 0 .709-.27.709-.699 0-.37-.13-.62-.62-.95-.63-.409-.969-.819-.969-1.379 0-.779.58-1.339 1.329-1.339.38 0 .669.13.87.25l-.21.579c-.18-.12-.39-.21-.64-.21-.42 0-.63.3-.63.61 0 .329.12.509.6.839.56.36 1 .8 1 1.47 0 .969-.66 1.438-1.449 1.438-.36 0-.75-.109-.959-.279l.189-.58zm3.01-2.528c0-.739-.03-1.169-.04-1.509h.689l.04.619h.02c.26-.52.64-.699 1.02-.699.839 0 1.399.899 1.399 2.488 0 1.789-.74 2.509-1.5 2.509-.45 0-.709-.29-.839-.56h-.02v2.398h-.77v-5.246zm.769 1.549c0 .15 0 .29.03.4.15.689.5.819.71.819.64 0 .839-.88.839-1.859 0-.999-.24-1.839-.85-1.839-.35 0-.66.439-.709.88-.02.12-.02.239-.02.369v1.23zm6.199-.64c0 1.869-.87 2.499-1.609 2.499-.87 0-1.569-.79-1.569-2.488 0-1.77.79-2.509 1.619-2.509.859 0 1.559.809 1.559 2.498zm-2.409 0c0 .8.14 1.89.839 1.89.66 0 .79-1.14.79-1.89 0-.739-.13-1.879-.81-1.879-.689 0-.819 1.14-.819 1.879zm3.261-1.169c0-.41-.03-.89-.04-1.249h.689l.04.759h.02c.16-.459.57-.839 1.02-.839.06 0 .11.01.16.01v.789c-.05-.01-.1-.01-.16-.01-.49 0-.85.45-.93 1.01-.02.13-.03.279-.03.439v2.679h-.77v-3.588zm3.668-2.528v1.279h.93v.589h-.93v2.869c0 .629.23.799.51.799.12 0 .22-.01.31-.029l.03.59c-.14.05-.32.079-.57.079-.3 0-.569-.079-.759-.289-.19-.221-.29-.55-.29-1.22v-2.799h-.589v-.589h.589v-1.06l.769-.219zm4.92-.8c-.57.899-1.04 2.249-1.04 4.067 0 1.789.47 3.139 1.04 4.048h-.6c-.52-.76-1.1-2.099-1.1-4.058.02-1.959.58-3.309 1.1-4.058h.6zm1.75.869h-1.229v-.689h3.229v.689h-1.229v6.047h-.77v-6.047zm5.369 5.927c-.21.11-.54.18-.959.18-1.319 0-2.259-1.059-2.259-3.348 0-2.658 1.319-3.508 2.379-3.508.41 0 .699.08.839.17l-.17.649c-.16-.07-.33-.14-.68-.14-.72 0-1.559.699-1.559 2.758 0 2.06.76 2.738 1.579 2.738.29 0 .55-.069.709-.149l.121.65zm.791-6.517c.31-.079.68-.13 1.12-.13.62 0 1.139.15 1.489.5.33.32.5.81.5 1.39 0 .619-.15 1.039-.41 1.379-.37.5-.99.75-1.589.75-.13 0-.23 0-.34-.011v2.759h-.77v-6.637zm.77 3.229c.09.021.17.03.3.03.76 0 1.27-.5 1.27-1.449 0-.689-.29-1.31-1.14-1.31-.18 0-.33.021-.43.05v2.679zm2.811 4.607c.569-.899 1.039-2.269 1.039-4.067s-.47-3.148-1.039-4.048h.6c.52.739 1.099 2.068 1.099 4.048-.02 1.979-.58 3.298-1.099 4.067h-.6z"/><path fill="#b2dec7" fill-rule="evenodd" d="M3.38 81.038h98.747v25.886H3.38z" clip-rule="evenodd"/><path fill="none" stroke="#000" d="M3.38 81.038h98.747v25.886H3.38z" stroke-linecap="round" stroke-linejoin="round"/><path d="M33.943 96.916V90.18h.729l1.239 3.158c.28.719.63 1.619.86 2.348h.02a50.641 50.641 0 0 1-.09-3.098V90.18h.689v6.736h-.729l-1.279-3.238c-.27-.68-.56-1.449-.8-2.289h-.02c.06.898.08 1.76.08 3.197v2.33h-.699zm5.09-2.35c.01 1.48.589 1.799 1.149 1.799.33 0 .609-.08.799-.189l.12.57c-.27.15-.68.229-1.06.229-1.159 0-1.759-.949-1.759-2.428 0-1.568.66-2.549 1.629-2.549.989 0 1.379 1.039 1.379 2.139 0 .18 0 .311-.01.43h-2.247zm1.519-.568c.02-.971-.35-1.4-.72-1.4-.5 0-.759.74-.79 1.4h1.51zm2.51-3.2v1.279h.93v.59h-.93v2.869c0 .629.23.799.51.799.12 0 .22-.01.31-.029l.03.59c-.14.049-.32.078-.569.078-.3 0-.57-.078-.76-.289-.19-.221-.29-.549-.29-1.219v-2.799h-.589v-.59h.589v-1.059l.769-.22zm2.101 1.28l.47 2.369c.09.52.2 1.039.26 1.539h.04c.07-.5.19-1.061.3-1.52l.56-2.389h.59l.529 2.318c.12.541.23 1.051.31 1.59h.04c.06-.51.15-1.01.26-1.559l.46-2.35h.77l-1.219 4.838h-.63l-.56-2.35c-.12-.469-.19-.898-.27-1.449h-.02c-.08.57-.17 1.02-.28 1.48l-.58 2.318h-.65l-1.179-4.838h.799zm8.109 2.418c0 1.869-.87 2.5-1.609 2.5-.87 0-1.569-.791-1.569-2.488 0-1.77.79-2.51 1.619-2.51.859 0 1.559.81 1.559 2.498zm-2.409 0c0 .801.14 1.891.839 1.891.66 0 .79-1.141.79-1.891 0-.738-.13-1.879-.81-1.879-.689 0-.819 1.14-.819 1.879zm3.261-1.168c0-.41-.03-.891-.04-1.25h.689l.04.76h.02c.16-.459.57-.84 1.02-.84.06 0 .11.01.16.01v.789c-.05-.01-.1-.01-.16-.01-.49 0-.85.451-.93 1.01a2.94 2.94 0 0 0-.03.439v2.68h-.77v-3.588zm3.249.998h.02c.09-.189.17-.379.26-.539l.959-1.709h.83l-1.279 2.039 1.389 2.799h-.859l-1.049-2.279-.27.449v1.83h-.77V90h.77v4.326zM63.462 90c-.57.898-1.04 2.248-1.04 4.066 0 1.789.47 3.139 1.04 4.049h-.6c-.52-.76-1.1-2.1-1.1-4.059.02-1.959.58-3.309 1.1-4.057h.6zm1.621.179v6.736h-.77v-6.736h.77zm1.22.1c.31-.08.68-.131 1.12-.131.62 0 1.139.15 1.489.5.33.32.5.811.5 1.391 0 .619-.15 1.039-.41 1.379-.37.5-.99.75-1.589.75-.13 0-.23 0-.34-.012v2.76h-.77v-6.637zm.769 3.228c.09.02.17.029.3.029.76 0 1.27-.5 1.27-1.449 0-.689-.29-1.309-1.14-1.309-.18 0-.33.02-.43.049v2.68zm2.811 4.608c.569-.9 1.039-2.27 1.039-4.068s-.47-3.148-1.039-4.047h.6c.52.738 1.099 2.068 1.099 4.047-.02 1.979-.58 3.299-1.099 4.068h-.6z"/><path fill="#b3b3b3" fill-rule="evenodd" d="M3.38 106.923h98.747v25.886H3.38z" clip-rule="evenodd"/><path fill="none" stroke="#000" d="M3.38 106.923h98.747v25.886H3.38z" stroke-linecap="round" stroke-linejoin="round"/><path d="M39.038 116.164c.3-.09.65-.13 1.04-.13.709 0 1.209.181 1.579.51.52.45.91 1.319.91 2.729 0 1.539-.38 2.379-.81 2.839-.44.5-1.08.729-1.859.729-.31 0-.629-.021-.859-.07v-6.607zm.77 6.006c.11.021.22.021.29.021.85 0 1.669-.61 1.669-2.898 0-1.699-.52-2.629-1.599-2.629-.12 0-.26.01-.36.04v5.466zm5.529.63l-.05-.51h-.03c-.21.37-.55.59-.959.59-.649 0-1.149-.55-1.149-1.379 0-1.21.97-1.749 2.059-1.76v-.149c0-.649-.16-1.1-.77-1.1-.3 0-.57.1-.8.25l-.17-.54c.2-.149.65-.319 1.129-.319.97 0 1.389.64 1.389 1.729v2.089c0 .37 0 .79.05 1.1h-.699zm-.11-2.499c-.4 0-1.33.07-1.33 1.12 0 .629.32.859.59.859.34 0 .63-.25.72-.729.02-.09.02-.19.02-.271v-.979zm2.69-3.617v1.279h.93v.589h-.93v2.869c0 .629.23.799.51.799.12 0 .22-.01.31-.029l.03.59c-.14.05-.32.079-.57.079-.3 0-.569-.079-.759-.289-.19-.221-.29-.55-.29-1.22v-2.799h-.589v-.589h.589v-1.06l.769-.219zm3.52 6.116l-.05-.51h-.03c-.21.37-.55.59-.959.59-.649 0-1.149-.55-1.149-1.379 0-1.21.97-1.749 2.059-1.76v-.149c0-.649-.16-1.1-.77-1.1-.3 0-.57.1-.8.25l-.17-.54c.2-.149.65-.319 1.129-.319.97 0 1.389.64 1.389 1.729v2.089c0 .37 0 .79.05 1.1h-.699zm-.11-2.499c-.4 0-1.33.07-1.33 1.12 0 .629.32.859.59.859.34 0 .63-.25.72-.729.02-.09.02-.19.02-.271v-.979zm3.471-4.237h.77v6.087h1.899v.649h-2.668v-6.736zm4.209.649c.01.3-.18.5-.47.5-.25 0-.439-.2-.439-.5s.2-.499.45-.499c.28 0 .459.2.459.499zm-.829 6.087v-4.837h.77v4.837h-.77zm1.84-3.588c0-.569-.03-.859-.04-1.249h.67l.04.579h.02c.209-.39.6-.659 1.109-.659.669 0 1.169.499 1.169 1.669v3.248h-.77v-3.118c0-.569-.11-1.149-.669-1.149-.32 0-.63.27-.729.789-.02.12-.03.271-.03.431v3.048h-.77v-3.589zm4.809.999h.02c.09-.189.17-.38.26-.539l.959-1.709h.83l-1.279 2.038 1.389 2.799h-.859l-1.049-2.278-.27.449v1.829h-.77v-6.916h.77v4.327z"/><path fill="#f2f2f2" fill-rule="evenodd" d="M3.38 132.809h98.747v25.886H3.38z" clip-rule="evenodd"/><path fill="none" stroke="#000" d="M3.38 132.809h98.747v25.886H3.38z" stroke-linecap="round" stroke-linejoin="round"/><path d="M40.983 142.049c.31-.079.68-.13 1.12-.13.62 0 1.139.15 1.489.5.33.32.5.81.5 1.39 0 .619-.15 1.039-.41 1.379-.37.5-.99.75-1.589.75-.13 0-.23 0-.34-.011v2.759h-.77v-6.637zm.77 3.229c.09.021.17.03.3.03.76 0 1.27-.5 1.27-1.449 0-.689-.29-1.31-1.14-1.31-.18 0-.33.021-.43.05v2.679zm3.16-3.508h.77v2.599h.02c.1-.17.25-.32.4-.42.18-.11.37-.18.65-.18.609 0 1.129.489 1.129 1.709v3.208h-.77v-3.118c0-.59-.13-1.149-.649-1.149-.36 0-.63.26-.75.77-.02.11-.03.25-.03.37v3.128h-.77v-6.917zm4.36 2.079l.64 2.778c.09.38.14.699.2.999h.02c.05-.27.13-.64.21-.989l.57-2.788h.76l-.79 3.107c-.3 1.22-.63 2.389-1.2 3.119-.34.43-.7.659-.869.739l-.28-.66c.22-.119.46-.329.68-.609.2-.25.36-.579.44-.81.04-.12.05-.17.05-.239 0-.061 0-.12-.02-.181l-1.219-4.467h.808zm2.93 4.037c.17.11.47.25.78.25.439 0 .709-.27.709-.699 0-.37-.13-.62-.62-.95-.63-.409-.969-.819-.969-1.379 0-.779.58-1.339 1.329-1.339.38 0 .669.13.87.25l-.21.579c-.18-.12-.39-.21-.64-.21-.42 0-.63.3-.63.61 0 .329.12.509.6.839.56.36 1 .8 1 1.47 0 .969-.66 1.438-1.449 1.438-.36 0-.75-.109-.959-.279l.189-.58zm3.849-5.287c.01.3-.18.5-.47.5-.25 0-.439-.2-.439-.5s.2-.499.45-.499c.28 0 .459.199.459.499zm-.829 6.087v-4.837h.77v4.837h-.77zm4.198-.12c-.17.101-.46.18-.8.18-1.059 0-1.769-.85-1.769-2.448 0-1.39.7-2.519 1.909-2.519.26 0 .54.07.68.149l-.15.63c-.1-.05-.3-.13-.55-.13-.77 0-1.119.92-1.119 1.869 0 1.129.43 1.809 1.139 1.809.21 0 .38-.05.56-.13l.1.59zm2.6.12l-.05-.51h-.03c-.21.37-.55.59-.959.59-.649 0-1.149-.55-1.149-1.379 0-1.21.97-1.749 2.059-1.76v-.149c0-.649-.16-1.1-.77-1.1-.3 0-.57.1-.8.25l-.17-.54c.2-.149.65-.319 1.129-.319.97 0 1.389.64 1.389 1.729v2.089c0 .37 0 .79.05 1.1h-.699zm-.109-2.499c-.4 0-1.33.07-1.33 1.12 0 .629.32.859.59.859.34 0 .63-.25.72-.729.02-.09.02-.19.02-.271v-.979zm1.84-4.417h.77v6.916h-.77v-6.916z"/></svg>