<svg xmlns="http://www.w3.org/2000/svg" xmlns:xlink="http://www.w3.org/1999/xlink" viewBox="0 0 315.864 165.432"><image width="128" height="273" xlink:href="66F393ADFEBE4B93.png" transform="matrix(.24 0 0 .24 54.12 42.452)" overflow="visible"/><path fill-rule="evenodd" clip-rule="evenodd" fill="#fff" d="M57.5 45.832h21.021v55.763H57.5z"/><path fill="none" stroke="#000" stroke-linecap="round" stroke-linejoin="round" d="M57.5 45.832h21.021v55.763H57.5z"/><path fill="#ccc" d="M21.645 93.112v1.309L.5 82.309v-1.308z"/><path fill="gray" d="M21.645 93.112l14.73-8.379v1.309l-14.73 8.381z"/><path fill="#fff" d="M.5 81.003l14.709-8.43 21.166 12.16-14.73 8.379z"/><path fill="#999" d="M38.424 65.726l.988-.563-2.06 18.966-.991.563zM23.475 89.829v.254L5.602 79.846v-.252z"/><path fill="#b3b3b3" d="M23.475 89.829l10.123-5.759v.254l-10.123 5.761z"/><path fill="#e6e6e6" d="M5.602 79.595l10.107-5.801L33.598 84.07l-10.123 5.759zM8.172 85.07l2.902-1.666 5.135 2.951-2.906 1.654zM38.424 65.726L36.361 84.69 15.217 72.578l2.06-18.964z"/><path fill="#0071bc" d="M35.52 83.235L16.06 72.089l2.061-17.021L37.58 66.215l-2.06 17.02z"/><path fill="#b3b3b3" d="M17.277 53.615l.971-.611 21.164 12.159-.988.563z"/><path fill="none" stroke="#000" stroke-linecap="round" stroke-linejoin="round" d="M37.352 84.129l2.06-18.966-21.164-12.159-.969.61h-.002l-2.06 18.963-.008-.004L.502 81.002.5 81.001v1.308l21.145 12.112v.002l14.73-8.381v-1.309l-.014-.043v.002z"/><g><image width="273" height="128" xlink:href="66F393ADFEBE4B91.png" transform="matrix(.24 0 0 .24 75.142 59.802)" overflow="visible"/><path fill-rule="evenodd" clip-rule="evenodd" fill="#ecbec0" d="M78.521 63.182h55.763v21.063H78.521z"/><path fill="none" stroke="#000" stroke-linecap="round" stroke-linejoin="round" d="M78.521 63.182h55.763v21.063H78.521z"/></g><g><path fill="none" stroke="#000" d="M47 77.265v-7.103"/><path d="M49 70.746l-1.994-3.455-1.994 3.455zM45 76.681l1.994 3.454 1.994-3.454z"/></g><g><path fill="none" stroke="#000" d="M277 77.265v-7.103"/><path d="M279 70.746l-1.994-3.455-1.994 3.455zM275 76.681l1.994 3.454 1.994-3.454z"/></g><g><image width="116" height="387" xlink:href="66F393ADFEBE4B97.png" transform="matrix(.24 0 0 .24 130.904 28.734)" overflow="visible"/><path fill-rule="evenodd" clip-rule="evenodd" fill="#b2d4eb" d="M134.284 32.114h18.122v83.198h-18.122z"/><path fill="none" stroke="#000" stroke-linecap="round" stroke-linejoin="round" d="M134.284 32.114h18.122v83.198h-18.122z"/></g><g><image width="65" height="532" xlink:href="66F393ADFEBE4B90.png" transform="matrix(.24 0 0 .24 149.026 11.334)" overflow="visible"/><path fill-rule="evenodd" clip-rule="evenodd" fill="#fff" d="M152.406 14.713h5.761v118h-5.761z"/><path fill="none" stroke="#000" stroke-linecap="round" stroke-linejoin="round" d="M152.406 14.713h5.761v118h-5.761z"/></g><g><image width="65" height="532" xlink:href="66F393ADFEBE4B9E.png" transform="matrix(.24 0 0 .24 203.023 11.334)" overflow="visible"/><path fill-rule="evenodd" clip-rule="evenodd" fill="#fff" d="M206.403 14.713h5.762v118h-5.762z"/><path fill="none" stroke="#000" stroke-linecap="round" stroke-linejoin="round" d="M206.403 14.713h5.762v118h-5.762z"/></g><g><image width="65" height="627" xlink:href="66F393ADFEBE4B9F.png" transform="translate(154.788) scale(.24)" overflow="visible"/><path fill-rule="evenodd" clip-rule="evenodd" fill="#fff" d="M158.167 3.38h5.761v140.667h-5.761z"/><path fill="none" stroke="#000" stroke-linecap="round" stroke-linejoin="round" d="M158.167 3.38h5.761v140.667h-5.761z"/></g><g><image width="65" height="463" xlink:href="66F393ADFEBE4B92.png" transform="matrix(.24 0 0 .24 160.545 19.667)" overflow="visible"/><path fill-rule="evenodd" clip-rule="evenodd" fill="#fff" d="M163.925 23.047h5.761V124.38h-5.761z"/><path fill="none" stroke="#000" stroke-linecap="round" stroke-linejoin="round" d="M163.925 23.047h5.761V124.38h-5.761z"/></g><g><image width="65" height="227" xlink:href="66F393ADFEBE4B95.png" transform="matrix(.24 0 0 .24 181.784 47.942)" overflow="visible"/><path fill-rule="evenodd" clip-rule="evenodd" fill="#fff" d="M185.164 51.322h5.762v44.782h-5.762z"/><path fill="none" stroke="#000" stroke-linecap="round" stroke-linejoin="round" d="M185.164 51.322h5.762v44.782h-5.762z"/></g><g><image width="116" height="495" xlink:href="66F393ADFEBE4B96.png" transform="matrix(.24 0 0 .24 208.785 15.99)" overflow="visible"/><path fill-rule="evenodd" clip-rule="evenodd" fill="#b2d4eb" d="M212.165 19.371h18.122v109h-18.122z"/><path fill="none" stroke="#000" stroke-linecap="round" stroke-linejoin="round" d="M212.165 19.371h18.122v109h-18.122z"/></g><g><image width="188" height="185" xlink:href="E1345825D180EC40.png" transform="matrix(.24 0 0 .24 226.907 53.142)" overflow="visible"/><path fill-rule="evenodd" clip-rule="evenodd" fill="#fff" d="M230.287 56.521h35.463v34.698h-35.463z"/><path fill="none" stroke="#000" stroke-linecap="round" stroke-linejoin="round" d="M230.287 56.521h35.463v34.698h-35.463z"/></g><g><path fill="#b3b3b3" d="M297.138 68.352v29.233l-11.485-7.06V61.287z"/><path fill="#333" d="M295.009 69.27v3.49l-8.19-5.037V64.23zM295.009 81.039v3.486l-8.19-5.037V76z"/><path fill="#e6e6e6" d="M295.009 76.652v1.008l-8.19-5.035v-1.014z"/><path fill="#333" d="M295.009 85.994v3.486l-8.19-5.035v-3.49zM295.009 90.947v3.49l-8.19-5.039V85.91z"/><path fill="gray" d="M297.132 68.369l18.203-11.482v29.236l-18.203 11.481z"/><path fill="#999" d="M285.679 61.305l18.224-11.483 11.461 7.061-18.205 11.482z"/><path d="M287.095 68.201c.18.105.318.365.318.582 0 .211-.141.303-.318.191a.744.744 0 0 1-.312-.582c-.001-.216.14-.298.312-.191" fill="#009245"/><path d="M287.864 68.676c.178.107.316.369.316.586 0 .211-.147.299-.318.191-.176-.105-.316-.367-.316-.582 0-.217.143-.305.318-.195" fill="#c1272d"/><path d="M288.632 69.141a.76.76 0 0 1 .316.582c0 .217-.145.303-.318.195-.178-.107-.316-.373-.316-.588 0-.211.14-.297.318-.189" fill="#009245"/><path d="M289.397 69.613c.176.107.314.367.314.584-.002.211-.143.299-.32.189-.172-.105-.315-.369-.315-.582.001-.214.146-.302.321-.191M290.173 70.088a.74.74 0 0 1 .316.584c0 .215-.141.303-.318.191a.755.755 0 0 1-.312-.582c-.001-.213.14-.301.314-.193" fill="#c1272d"/><path d="M290.94 70.566c.178.105.316.367.316.582 0 .215-.141.301-.318.193-.174-.105-.316-.367-.316-.584 0-.212.143-.302.318-.191M291.708 71.027a.75.75 0 0 1 .314.584c0 .219-.143.303-.314.193-.178-.107-.318-.369-.318-.584 0-.212.142-.3.318-.193M292.476 71.502c.172.105.312.365.312.582s-.141.299-.318.191a.74.74 0 0 1-.312-.582c-.001-.216.142-.304.318-.191" fill="#009245"/><path d="M287.095 69.336c.18.105.318.369.318.584 0 .213-.141.297-.318.193a.746.746 0 0 1-.312-.586c-.001-.215.14-.298.312-.191M287.864 69.811c.178.109.316.369.316.586 0 .213-.147.303-.318.193-.176-.109-.316-.373-.316-.586 0-.215.143-.299.318-.193" fill="#c1272d"/><path d="M288.632 70.275c.172.104.316.373.316.582 0 .217-.145.303-.318.197-.178-.109-.316-.371-.316-.588 0-.212.14-.298.318-.191" fill="#009245"/><path d="M289.397 70.748c.176.105.314.367.314.584-.002.211-.143.299-.32.193a.775.775 0 0 1-.315-.584c.001-.216.146-.304.321-.193" fill="#c1272d"/><path d="M290.173 71.223a.742.742 0 0 1 .316.582c0 .217-.141.305-.318.197-.172-.107-.312-.371-.312-.584-.001-.215.14-.303.314-.195" fill="#009245"/><path d="M290.94 71.697c.178.107.316.375.316.586 0 .217-.141.301-.318.195a.757.757 0 0 1-.316-.584c0-.214.143-.302.318-.197" fill="#c1272d"/><path d="M291.708 72.162a.763.763 0 0 1 .314.586c0 .217-.143.303-.314.191-.178-.104-.318-.367-.318-.582 0-.214.142-.302.318-.195" fill="#009245"/><path d="M292.476 72.633a.766.766 0 0 1 .312.586c0 .217-.141.299-.318.195a.757.757 0 0 1-.312-.584c-.001-.219.142-.301.318-.197" fill="#c1272d"/><path d="M293.067 77.516c.178.107.32.367.32.586 0 .211-.145.299-.32.193a.762.762 0 0 1-.316-.586c0-.215.141-.301.316-.193M293.837 77.979a.763.763 0 0 1 .312.586c0 .215-.141.299-.312.193a.742.742 0 0 1-.318-.584c0-.215.14-.299.318-.195" fill="#009245"/><path d="M294.601 78.451c.176.107.316.367.316.584 0 .211-.141.303-.318.193a.744.744 0 0 1-.314-.584c-.001-.214.142-.304.316-.193M293.067 78.652c.178.105.32.367.32.586 0 .213-.145.299-.32.188-.178-.103-.316-.369-.316-.582 0-.213.141-.303.316-.192M293.837 79.115a.772.772 0 0 1 .312.582c0 .217-.141.305-.312.193-.18-.105-.318-.369-.318-.582 0-.216.14-.3.318-.193" fill="#c1272d"/><path d="M294.601 79.588c.176.104.316.365.316.582 0 .215-.141.303-.318.191a.731.731 0 0 1-.314-.582c-.001-.213.142-.3.316-.191" fill="#009245"/><path fill="none" stroke="#000" stroke-linecap="round" stroke-linejoin="round" d="M315.364 56.883l-11.463-7.061-18.222 11.483-.026-.018v29.238l11.479 7.06v.019l18.201-11.481V56.902z"/></g><g><path d="M63.372 76.355l-1.17-6.067h.72l.513 2.926c.126.765.225 1.44.297 2.188h.036c.072-.766.216-1.423.36-2.197l.558-2.916h.594l.558 2.854c.135.72.271 1.413.352 2.26h.027c.099-.873.207-1.53.324-2.224l.504-2.89h.675l-1.179 6.067h-.675l-.585-2.953a27.794 27.794 0 0 1-.306-1.989h-.018c-.09.685-.189 1.342-.333 2.017l-.603 2.926h-.649zM68.915 70.873c.009.27-.162.45-.423.45-.225 0-.396-.181-.396-.45 0-.271.18-.45.405-.45.252-.001.414.179.414.45zm-.747 5.482v-4.357h.693v4.357h-.693zM69.877 70.288h2.314v.603H70.57v2.125h1.512v.584H70.57v2.755h-.693v-6.067zM73.577 70.873c.009.27-.162.45-.423.45-.225 0-.396-.181-.396-.45 0-.271.18-.45.405-.45.252-.001.414.179.414.45zm-.747 5.482v-4.357h.693v4.357h-.693zM25.245 38.204c.288-.072.63-.117 1.018-.117.549 0 1.017.117 1.341.423.261.243.396.603.396 1.035 0 .621-.342 1.116-.936 1.351v.019c.702.188 1.125.756 1.125 1.548 0 .504-.162.909-.432 1.207-.342.387-.909.549-1.603.549-.45 0-.72-.027-.909-.063v-5.952zm.693 2.484h.315c.567 0 1.053-.432 1.053-1.071 0-.558-.261-.99-.999-.99-.162 0-.288.018-.369.045v2.016zm0 2.945c.081.018.198.036.351.036.72 0 1.188-.424 1.188-1.207 0-.837-.585-1.233-1.233-1.242h-.306v2.413zM30.708 44.182l-.045-.459h-.027c-.189.333-.495.531-.864.531-.585 0-1.036-.495-1.036-1.242 0-1.09.874-1.576 1.855-1.585v-.135c0-.585-.145-.99-.693-.99-.27 0-.513.09-.72.225l-.153-.486c.18-.135.585-.288 1.018-.288.873 0 1.251.576 1.251 1.558v1.882c0 .333 0 .711.045.99h-.631zm-.099-2.251c-.36 0-1.197.063-1.197 1.009 0 .567.288.774.531.774.306 0 .567-.226.648-.657.018-.081.018-.171.018-.243v-.883zM32.265 40.949c0-.513-.027-.773-.036-1.125h.603l.036.522h.018c.189-.352.54-.595.999-.595.604 0 1.054.45 1.054 1.504v2.926h-.693v-2.809c0-.514-.099-1.035-.603-1.035-.288 0-.567.243-.657.711a2.445 2.445 0 0 0-.027.387v2.746h-.693v-3.232zM38.529 37.952v5.186c0 .297.027.792.036 1.044h-.594l-.045-.549h-.027c-.144.314-.45.621-.909.621-.738 0-1.27-.802-1.27-2.233 0-1.548.64-2.269 1.314-2.269.315 0 .621.153.792.522h.018v-2.322h.685zm-.684 3.528c0-.09 0-.188-.009-.288-.045-.45-.315-.846-.648-.846-.576 0-.774.801-.774 1.674 0 .919.234 1.657.738 1.657.216 0 .513-.117.666-.747a1.37 1.37 0 0 0 .027-.288V41.48zM39.852 39.824l.423 2.134c.081.468.18.937.234 1.387h.036c.063-.45.171-.955.271-1.369l.504-2.151h.531l.477 2.089c.108.486.207.945.279 1.432h.036c.054-.459.135-.909.234-1.404l.414-2.116h.693l-1.099 4.357h-.567l-.504-2.115a12.152 12.152 0 0 1-.243-1.306h-.018c-.072.513-.153.918-.252 1.332l-.522 2.089h-.585l-1.062-4.357h.72zM45.341 38.699c.009.27-.162.45-.423.45-.225 0-.396-.181-.396-.45 0-.271.18-.45.405-.45.252 0 .414.18.414.45zm-.747 5.483v-4.357h.693v4.357h-.693zM48.87 37.952v5.186c0 .297.027.792.036 1.044h-.594l-.045-.549h-.027c-.144.314-.45.621-.909.621-.738 0-1.27-.802-1.27-2.233 0-1.548.639-2.269 1.314-2.269.315 0 .622.153.792.522h.018v-2.322h.685zm-.684 3.528c0-.09 0-.188-.009-.288-.045-.45-.315-.846-.648-.846-.576 0-.774.801-.774 1.674 0 .919.234 1.657.738 1.657.216 0 .513-.117.666-.747a1.37 1.37 0 0 0 .027-.288V41.48zM50.687 38.672v1.152h.837v.531h-.837v2.584c0 .567.207.72.459.72.108 0 .198-.009.279-.026l.027.531a1.522 1.522 0 0 1-.513.071c-.27 0-.513-.071-.684-.261-.171-.198-.261-.495-.261-1.099v-2.521h-.531v-.531h.531v-.953l.693-.198zM52.136 37.952h.693v2.34h.018a1.23 1.23 0 0 1 .36-.378c.162-.099.333-.162.585-.162.549 0 1.018.441 1.018 1.54v2.89h-.693v-2.809c0-.531-.117-1.035-.585-1.035-.324 0-.567.233-.675.692-.018.1-.027.226-.027.334v2.817h-.693v-6.229zM32.189 46.952c-.513.81-.937 2.025-.937 3.664 0 1.611.423 2.826.937 3.646h-.54c-.468-.684-.991-1.891-.991-3.655.018-1.764.522-2.979.991-3.654h.54zM36.626 50.571c-.045-.802-.09-1.693-.063-2.377h-.036a34.798 34.798 0 0 1-.486 2.106l-.747 2.845h-.441l-.711-2.728a27.18 27.18 0 0 1-.495-2.224h-.027c0 .711-.036 1.558-.072 2.422l-.117 2.565h-.621l.36-6.067h.747l.711 2.772c.207.801.36 1.396.486 2.089h.027c.117-.693.252-1.27.45-2.089l.685-2.772h.774l.351 6.067h-.648l-.127-2.609zM38.245 53.182c.009-.252.036-.747.036-1.044v-5.186h.693v2.386h.018c.225-.433.549-.586.918-.586.675 0 1.188.783 1.188 2.206 0 1.575-.648 2.296-1.323 2.296-.459 0-.693-.271-.864-.64h-.027l-.045.567h-.594zm.73-1.539c0 .099 0 .197.027.27.162.648.459.766.648.766.558 0 .756-.757.756-1.684 0-.873-.207-1.647-.765-1.647-.324 0-.594.405-.648.774-.018.099-.018.207-.018.306v1.215zM41.872 50.184c0-.666-.027-1.053-.036-1.359h.622l.036.559h.018c.234-.469.576-.631.918-.631.756 0 1.26.811 1.26 2.242 0 1.611-.666 2.26-1.351 2.26-.405 0-.639-.262-.756-.505h-.018v2.161h-.693v-4.727zm.693 1.395c0 .135 0 .261.027.36.135.621.45.738.639.738.576 0 .756-.792.756-1.675 0-.9-.216-1.656-.765-1.656-.315 0-.594.396-.639.792-.018.108-.018.216-.018.333v1.108zM45.355 52.462c.153.099.423.225.702.225.396 0 .639-.243.639-.63 0-.333-.117-.559-.558-.855-.567-.369-.873-.738-.873-1.242 0-.702.522-1.207 1.197-1.207.342 0 .603.117.783.226l-.188.521a1.024 1.024 0 0 0-.576-.189.534.534 0 0 0-.567.549c0 .298.108.459.54.757.504.324.9.72.9 1.323 0 .873-.594 1.296-1.305 1.296-.324 0-.675-.099-.864-.252l.17-.522zM47.812 54.262c.513-.81.936-2.043.936-3.664 0-1.62-.423-2.836-.936-3.646h.54c.468.666.99 1.863.99 3.646-.018 1.783-.522 2.971-.99 3.664h-.54z"/><g><path d="M144.636 157.114h.693v5.482h1.71v.585h-2.404v-6.067zM149.371 163.182l-.045-.459h-.027c-.189.333-.495.531-.864.531-.585 0-1.036-.495-1.036-1.242 0-1.09.874-1.576 1.854-1.585v-.135c0-.585-.144-.99-.693-.99-.27 0-.513.09-.72.225l-.153-.486c.18-.135.585-.288 1.018-.288.873 0 1.251.576 1.251 1.558v1.882c0 .333 0 .711.045.99h-.63zm-.1-2.251c-.36 0-1.197.063-1.197 1.009 0 .567.288.774.531.774.306 0 .567-.226.648-.657.018-.081.018-.171.018-.243v-.883zM151.692 157.672v1.152h.837v.531h-.837v2.584c0 .567.207.72.459.72.108 0 .198-.009.279-.026l.027.531a1.522 1.522 0 0 1-.513.071c-.27 0-.513-.071-.684-.261-.171-.198-.261-.495-.261-1.099v-2.521h-.531v-.531h.531v-.954l.693-.197zM153.555 161.066c.009 1.332.531 1.62 1.036 1.62.297 0 .549-.072.72-.171l.108.513c-.243.136-.612.207-.955.207-1.044 0-1.584-.854-1.584-2.188 0-1.413.594-2.296 1.468-2.296.891 0 1.242.937 1.242 1.927 0 .162 0 .279-.009.388h-2.026zm1.369-.513c.018-.873-.315-1.261-.648-1.261-.45 0-.684.667-.711 1.261h1.359zM156.336 159.949c0-.513-.027-.773-.036-1.125h.603l.036.522h.018c.189-.352.54-.595.999-.595.604 0 1.054.45 1.054 1.504v2.926h-.693v-2.809c0-.514-.099-1.035-.603-1.035-.288 0-.567.243-.657.711a2.445 2.445 0 0 0-.027.387v2.746h-.693v-3.232zM162.106 163.073c-.153.091-.414.162-.72.162-.955 0-1.594-.765-1.594-2.205 0-1.252.63-2.269 1.72-2.269.234 0 .486.062.612.135l-.135.567a1.13 1.13 0 0 0-.495-.117c-.693 0-1.008.828-1.008 1.684 0 1.017.387 1.629 1.026 1.629.189 0 .342-.045.504-.117l.09.531zM163.239 158.824l.576 2.503c.081.342.126.63.18.9h.018c.045-.243.117-.576.189-.892l.513-2.512h.684l-.711 2.8c-.271 1.099-.567 2.151-1.081 2.809-.306.388-.63.595-.783.667l-.252-.595c.198-.107.414-.297.612-.549.18-.226.324-.522.396-.729a.609.609 0 0 0 .045-.216c0-.054 0-.108-.018-.162l-1.098-4.024h.73zM168.973 156.952c-.514.81-.937 2.025-.937 3.664 0 1.611.423 2.826.937 3.646h-.54c-.469-.684-.991-1.891-.991-3.655.019-1.764.522-2.979.991-3.654h.54zM169.683 159.949c0-.513-.027-.773-.036-1.125h.604l.036.54h.018c.189-.351.522-.612.981-.612.405 0 .747.198.909.667h.019a1.36 1.36 0 0 1 .432-.495c.171-.117.378-.172.604-.172.585 0 1.044.433 1.044 1.54v2.89h-.685v-2.728c0-.567-.081-1.116-.611-1.116-.288 0-.541.243-.64.647a2.65 2.65 0 0 0-.027.396v2.8h-.684v-2.854c0-.486-.09-.99-.604-.99-.279 0-.567.243-.648.702a2.494 2.494 0 0 0-.026.378v2.764h-.685v-3.232zM175.146 162.462c.153.099.424.225.702.225.396 0 .64-.243.64-.63 0-.333-.117-.559-.559-.855-.567-.369-.873-.738-.873-1.242 0-.702.522-1.207 1.197-1.207.342 0 .604.117.783.226l-.188.522a1.026 1.026 0 0 0-.576-.189.533.533 0 0 0-.567.549c0 .298.107.459.54.757.504.324.9.72.9 1.323 0 .873-.595 1.296-1.306 1.296-.324 0-.675-.099-.864-.252l.171-.523zM177.603 164.262c.514-.81.937-2.043.937-3.664 0-1.62-.423-2.836-.937-3.646h.54c.469.666.99 1.863.99 3.646-.018 1.783-.521 2.971-.99 3.664h-.54z"/></g><g><path d="M238.875 73.474h-1.521v2.277h1.729v.604h-2.422v-6.067h2.314v.603h-1.621v1.999h1.521v.584zM240.604 70.845v1.152h.836v.531h-.836v2.584c0 .567.207.72.459.72.107 0 .197-.009.279-.026l.026.531a1.522 1.522 0 0 1-.513.071c-.271 0-.514-.071-.685-.261-.171-.198-.261-.495-.261-1.099v-2.521h-.531v-.531h.531v-.954l.695-.197zM242.052 70.126h.692v2.34h.019c.091-.152.226-.287.36-.378.162-.099.333-.162.585-.162.55 0 1.018.441 1.018 1.54v2.89h-.693v-2.809c0-.531-.117-1.035-.585-1.035-.324 0-.567.233-.676.692-.018.1-.027.226-.027.334v2.817h-.692v-6.229zM246.183 74.24c.009 1.332.531 1.62 1.036 1.62.297 0 .549-.072.72-.171l.108.513c-.244.136-.613.207-.955.207-1.044 0-1.584-.854-1.584-2.188 0-1.413.594-2.296 1.467-2.296.892 0 1.242.937 1.242 1.927 0 .162 0 .279-.008.388h-2.026zm1.368-.514c.019-.873-.314-1.261-.648-1.261-.449 0-.684.667-.711 1.261h1.359zM248.955 73.123c0-.368-.027-.801-.037-1.125h.622l.036.685h.018c.145-.414.514-.757.918-.757.055 0 .1.01.145.01v.711c-.045-.009-.09-.009-.145-.009-.441 0-.765.404-.837.909a2.53 2.53 0 0 0-.026.396v2.413h-.693v-3.233zM251.195 73.123c0-.513-.027-.773-.035-1.125h.603l.036.522h.018a1.106 1.106 0 0 1 1-.595c.604 0 1.053.45 1.053 1.504v2.926h-.693v-2.809c0-.514-.099-1.035-.603-1.035-.288 0-.567.243-.657.711a2.445 2.445 0 0 0-.027.387v2.746h-.693v-3.232zM255.326 74.24c.01 1.332.531 1.62 1.036 1.62.297 0 .549-.072.72-.171l.108.513c-.243.136-.612.207-.954.207-1.045 0-1.585-.854-1.585-2.188 0-1.413.595-2.296 1.468-2.296.891 0 1.242.937 1.242 1.927 0 .162 0 .279-.009.388h-2.026zm1.369-.514c.018-.873-.315-1.261-.648-1.261-.45 0-.684.667-.711 1.261h1.359zM258.954 70.845v1.152h.837v.531h-.837v2.584c0 .567.207.72.459.72.108 0 .198-.009.279-.026l.026.531a1.513 1.513 0 0 1-.513.071c-.271 0-.513-.071-.685-.261-.171-.198-.261-.495-.261-1.099v-2.521h-.531v-.531h.531v-.954l.695-.197z"/></g><g><path d="M140.263 70.288v6.067h-.693v-6.067h.693zM141.226 75.554c.207.135.567.242.873.242.63 0 1.008-.414 1.008-1.026 0-.558-.324-.899-.801-1.26-.477-.333-1.143-.9-1.143-1.684 0-.918.639-1.594 1.603-1.594.378 0 .711.117.855.226l-.171.594a1.276 1.276 0 0 0-.72-.207c-.594 0-.874.45-.874.864 0 .604.315.837.892 1.252.729.513 1.053 1.071 1.053 1.746 0 1.044-.738 1.701-1.702 1.701-.414 0-.855-.135-1.026-.261l.153-.593zM144.61 70.377a4.028 4.028 0 0 1 1.008-.117c.558 0 1.026.135 1.341.45.297.288.45.729.45 1.251 0 .559-.135.937-.369 1.242-.333.45-.891.676-1.431.676-.117 0-.207 0-.306-.009v2.484h-.693v-5.977zm.693 2.908c.081.019.153.027.27.027.684 0 1.144-.45 1.144-1.306 0-.621-.261-1.179-1.026-1.179-.162 0-.297.018-.387.045v2.413z"/></g><g><path d="M218.145 70.445v6.067h-.693v-6.067h.693zM219.107 75.711c.207.135.566.242.873.242.63 0 1.008-.414 1.008-1.026 0-.558-.324-.899-.801-1.26-.478-.333-1.144-.9-1.144-1.684 0-.918.64-1.594 1.603-1.594.378 0 .711.117.855.226l-.172.594a1.27 1.27 0 0 0-.72-.207c-.595 0-.874.45-.874.864 0 .604.316.837.893 1.252.729.513 1.053 1.071 1.053 1.746 0 1.044-.738 1.701-1.701 1.701-.414 0-.855-.135-1.027-.261l.154-.593zM222.49 70.535a4.037 4.037 0 0 1 1.009-.117c.558 0 1.026.135 1.341.45.298.288.451.729.451 1.251 0 .559-.135.937-.369 1.242-.334.45-.892.676-1.432.676-.117 0-.207 0-.307-.009v2.484h-.693v-5.977zm.694 2.907c.082.019.153.027.271.027.685 0 1.144-.45 1.144-1.306 0-.621-.262-1.179-1.026-1.179a1.43 1.43 0 0 0-.388.045v2.413z"/></g><g><path d="M175.656 75.905c0-.306.207-.522.459-.522.279 0 .459.207.459.522s-.17.522-.459.522c-.261 0-.459-.207-.459-.522zM177.402 75.905c0-.306.207-.522.459-.522.279 0 .459.207.459.522s-.17.522-.459.522c-.26 0-.459-.207-.459-.522zM179.148 75.905c0-.306.207-.522.459-.522.279 0 .459.207.459.522s-.17.522-.459.522c-.26 0-.459-.207-.459-.522z"/></g><g><path d="M195.989 75.905c0-.306.208-.522.46-.522.278 0 .459.207.459.522s-.172.522-.459.522c-.261 0-.46-.207-.46-.522zM197.735 75.905c0-.306.208-.522.46-.522.278 0 .459.207.459.522s-.172.522-.459.522c-.261 0-.46-.207-.46-.522zM199.481 75.905c0-.306.208-.522.46-.522.278 0 .459.207.459.522s-.172.522-.459.522c-.261 0-.46-.207-.46-.522z"/></g><g><path d="M102.03 76.247c-.189.1-.486.162-.864.162-1.188 0-2.035-.954-2.035-3.016 0-2.395 1.188-3.16 2.143-3.16.369 0 .63.072.756.153l-.153.585a1.339 1.339 0 0 0-.612-.126c-.648 0-1.405.63-1.405 2.485 0 1.854.685 2.466 1.423 2.466.261 0 .495-.062.639-.135l.108.586zM104.316 76.355l-.045-.459h-.027c-.189.333-.495.531-.864.531-.585 0-1.036-.495-1.036-1.242 0-1.09.874-1.576 1.854-1.585v-.135c0-.585-.144-.99-.693-.99-.27 0-.513.09-.72.225l-.153-.486c.18-.135.585-.288 1.018-.288.873 0 1.251.576 1.251 1.558v1.882c0 .333 0 .711.045.99h-.63zm-.099-2.251c-.36 0-1.197.063-1.197 1.009 0 .567.288.774.531.774.306 0 .567-.226.648-.657.018-.081.018-.171.018-.243v-.883zM105.827 76.355c.009-.252.036-.747.036-1.044v-5.186h.693v2.386h.018c.225-.433.549-.586.918-.586.675 0 1.188.783 1.188 2.206 0 1.575-.648 2.296-1.323 2.296-.459 0-.693-.271-.864-.64h-.027l-.045.567h-.594zm.73-1.539c0 .099 0 .197.027.27.162.648.459.766.648.766.558 0 .756-.757.756-1.684 0-.873-.207-1.647-.765-1.647-.324 0-.594.405-.648.774-.018.099-.018.207-.018.306v1.215zM109.463 70.126h.693v6.229h-.693v-6.229zM111.668 74.24c.009 1.332.531 1.62 1.036 1.62.297 0 .549-.072.72-.171l.108.513c-.243.136-.612.207-.955.207-1.044 0-1.584-.854-1.584-2.188 0-1.413.594-2.296 1.468-2.296.891 0 1.242.937 1.242 1.927 0 .162 0 .279-.009.388h-2.026zm1.369-.514c.018-.873-.315-1.261-.648-1.261-.45 0-.684.667-.711 1.261h1.359z"/></g><path clip-rule="evenodd" fill="none" stroke="#c1272d" stroke-linecap="round" stroke-linejoin="round" d="M50.5 67.072h222.75M50.5 80.072h222.75"/><g><path fill="none" stroke="#0071bc" stroke-dasharray="1,1" d="M50.5 153.396h222.75"/><path fill="#0071bc" d="M272.375 156.398l5.181-2.992-5.181-2.992zM51.375 150.395l-5.181 2.992 5.181 2.992z"/></g></g></svg>