<svg xmlns="http://www.w3.org/2000/svg" viewBox="0 0 325.36 155.75"><circle cx="256.17" cy="77.873" r="62.788" fill="#e6e6e6" fill-rule="evenodd" clip-rule="evenodd"/><circle cx="256.17" cy="77.873" r="62.788" fill="none" stroke="#000" stroke-linecap="round" stroke-linejoin="round"/><circle cx="256.169" cy="77.873" r="40.812" fill="#fff" fill-rule="evenodd" stroke="#000" clip-rule="evenodd" stroke-linecap="round" stroke-linejoin="round"/><circle cx="66.17" cy="77.873" r="62.788" fill="#fff" fill-rule="evenodd" clip-rule="evenodd"/><circle cx="66.17" cy="77.873" r="62.788" fill="none" stroke="#000" stroke-linecap="round" stroke-linejoin="round"/><circle cx="231.506" cy="84.607" r="40.164" fill="#fcd4a5" fill-opacity=".5" fill-rule="evenodd" stroke="#000" clip-rule="evenodd" stroke-linecap="round" stroke-linejoin="round"/><ellipse cx="71.662" cy="89.007" fill="#998675" fill-rule="evenodd" rx="2.562" ry=".5" clip-rule="evenodd"/><path fill="#4cb37d" d="M74.285 72.638l-.061 15.721c0 .275-1.146.5-2.561.5-1.416 0-2.562-.225-2.562-.5l.059-15.721s-.125-3.828 2.562-3.828c2.625 0 2.563 3.828 2.563 3.828z"/><path fill="#009245" d="M60.076 76.401c.082-5.734 6.426-6.57 8.121-6.465 2.805.176 4.469 1.527 4.615 4.164.006.135-.004.268-.029.398l.031-.129v17.844c.047 1.141-1.912 3.5-6.631 4.141-4.895.664-6.137-1.391-6.137-1.875l.03-18.078z"/><ellipse cx="60.537" cy="94.757" fill="#998675" fill-rule="evenodd" rx="2.562" ry=".5" clip-rule="evenodd"/><path fill="#4cb37d" d="M68.904 70.269c1.662.39 1.889 1.526.508 2.539-1.381 1.012-3.846 1.516-5.506 1.127-1.662-.391-1.889-1.527-.508-2.539 1.381-1.014 3.846-1.518 5.506-1.127z"/><path fill="#c7b299" d="M65.265 71.948c-4.82-1.174-5.748-9.28-1.377-12.045 1.338-.846 2.619-.705 3.268-.578 2.865.73 3.938 3.623 4.121 5.217.4 3.506-1.154 5.826-2.744 6.828-1.418.895-2.758.702-3.268.578z"/><path fill="#99d3b5" d="M63.16 78.388l-.061 15.721c0 .275-1.146.5-2.561.5-1.416 0-2.562-.225-2.562-.5l.059-15.721s-.125-3.828 2.562-3.828c2.625 0 2.563 3.828 2.563 3.828z"/><path fill="none" stroke="#000" d="M71.8 68.81c-.494 0-.893.131-1.215.344.623-1.182.986-2.717.769-4.611-.184-1.594-1.256-4.486-4.121-5.217-.648-.127-1.93-.268-3.268.578-3.742 2.366-3.592 8.633-.451 11.129-1.346.701-2.561 1.816-3.084 3.55-2.428.231-2.318 3.806-2.318 3.806l-.059 15.721-.002.648.602.5h1.883c.389 0 1.123.979 3.117 1.229 1.994.25 6-.926 6-.926 3.16-.803 3.16-3.346 3.16-3.346v-2.707l1.488-.5v-.648l.061-15.721c.001-.001.063-3.829-2.562-3.829z" stroke-linecap="round" stroke-linejoin="round"/><ellipse cx="261.662" cy="89.007" fill="#998675" fill-rule="evenodd" rx="2.562" ry=".5" clip-rule="evenodd"/><path fill="#4cb37d" d="M264.285 72.638l-.061 15.721c0 .275-1.146.5-2.561.5-1.416 0-2.562-.225-2.562-.5l.059-15.721s-.125-3.828 2.562-3.828c2.626 0 2.563 3.828 2.563 3.828z"/><path fill="#009245" d="M250.076 76.401c.082-5.734 6.426-6.57 8.121-6.465 2.805.176 4.469 1.527 4.615 4.164.006.135-.004.268-.029.398l.031-.129v17.844c.047 1.141-1.912 3.5-6.631 4.141-4.895.664-6.137-1.391-6.137-1.875l.03-18.078z"/><ellipse cx="250.537" cy="94.757" fill="#998675" fill-rule="evenodd" rx="2.562" ry=".5" clip-rule="evenodd"/><path fill="#4cb37d" d="M258.904 70.269c1.662.39 1.889 1.526.508 2.539-1.381 1.012-3.846 1.516-5.506 1.127-1.662-.391-1.889-1.527-.508-2.539 1.381-1.014 3.846-1.518 5.506-1.127z"/><path fill="#c7b299" d="M255.266 71.948c-4.82-1.174-5.748-9.28-1.377-12.045 1.338-.846 2.619-.705 3.268-.578 2.865.73 3.938 3.623 4.121 5.217.4 3.506-1.154 5.826-2.744 6.828-1.419.895-2.759.702-3.268.578z"/><path fill="#99d3b5" d="M253.16 78.388l-.06 15.72c0 .275-1.146.5-2.561.5-1.416 0-2.563-.225-2.563-.5l.059-15.721s-.125-3.828 2.562-3.828c2.626.001 2.563 3.829 2.563 3.829z"/><path fill="none" stroke="#000" d="M261.801 68.81c-.494 0-.892.131-1.215.344.623-1.182.986-2.717.77-4.611-.184-1.594-1.256-4.486-4.121-5.217-.648-.127-1.93-.268-3.267.578-3.742 2.366-3.592 8.633-.451 11.129-1.346.701-2.561 1.816-3.084 3.55-2.428.231-2.318 3.806-2.318 3.806l-.059 15.721-.002.648.602.5h1.883c.389 0 1.123.979 3.117 1.229 1.994.25 6-.926 6-.926 3.16-.803 3.16-3.346 3.16-3.346v-2.707l1.488-.5v-.648l.06-15.721c-.001-.001.062-3.829-2.563-3.829z" stroke-linecap="round" stroke-linejoin="round"/><ellipse cx="134.662" cy="89.007" fill="#998675" fill-rule="evenodd" rx="2.562" ry=".5" clip-rule="evenodd"/><path fill="#4c9cd0" d="M137.285 72.638l-.061 15.721c0 .275-1.146.5-2.561.5-1.416 0-2.562-.225-2.562-.5l.059-15.721s-.125-3.828 2.562-3.828c2.626 0 2.563 3.828 2.563 3.828z"/><path fill="#0071bc" d="M123.076 76.401c.082-5.734 6.426-6.57 8.121-6.465 2.805.176 4.469 1.527 4.615 4.164.006.135-.004.268-.029.398l.031-.129v17.844c.047 1.141-1.912 3.5-6.631 4.141-4.895.664-6.137-1.391-6.137-1.875l.03-18.078z"/><ellipse cx="123.537" cy="94.757" fill="#998675" fill-rule="evenodd" rx="2.562" ry=".5" clip-rule="evenodd"/><path fill="#4c9cd0" d="M131.904 70.269c1.662.39 1.889 1.526.508 2.539-1.381 1.012-3.846 1.516-5.506 1.127-1.662-.391-1.889-1.527-.508-2.539 1.381-1.014 3.846-1.518 5.506-1.127z"/><path fill="#c7b299" d="M128.266 71.948c-4.82-1.174-5.748-9.28-1.377-12.045 1.338-.846 2.619-.705 3.268-.578 2.865.73 3.938 3.623 4.121 5.217.4 3.506-1.154 5.826-2.744 6.828-1.419.895-2.759.702-3.268.578z"/><path fill="#b2d4eb" d="M126.16 78.388l-.06 15.72c0 .275-1.146.5-2.561.5-1.416 0-2.563-.225-2.563-.5l.059-15.721s-.125-3.828 2.562-3.828c2.626.001 2.563 3.829 2.563 3.829z"/><path fill="none" stroke="#000" d="M134.801 68.81c-.494 0-.892.131-1.215.344.623-1.182.986-2.717.77-4.611-.184-1.594-1.256-4.486-4.121-5.217-.648-.127-1.93-.268-3.268.578-3.742 2.366-3.592 8.633-.451 11.129-1.346.701-2.561 1.816-3.084 3.55-2.428.231-2.318 3.806-2.318 3.806l-.059 15.721-.002.648.602.5h1.883c.389 0 1.123.979 3.117 1.229 1.994.25 6-.926 6-.926 3.16-.803 3.16-3.346 3.16-3.346v-2.707l1.488-.5v-.648l.06-15.721c0-.001.063-3.829-2.562-3.829z" stroke-linecap="round" stroke-linejoin="round"/><ellipse cx="300.662" cy="89.007" fill="#998675" fill-rule="evenodd" rx="2.562" ry=".5" clip-rule="evenodd"/><path fill="#4c9cd0" d="M303.285 72.638l-.061 15.721c0 .275-1.146.5-2.561.5-1.416 0-2.562-.225-2.562-.5l.059-15.721s-.125-3.828 2.562-3.828c2.626 0 2.563 3.828 2.563 3.828z"/><path fill="#0071bc" d="M289.076 76.401c.082-5.734 6.426-6.57 8.121-6.465 2.805.176 4.469 1.527 4.615 4.164.006.135-.004.268-.029.398l.031-.129v17.844c.047 1.141-1.912 3.5-6.631 4.141-4.895.664-6.137-1.391-6.137-1.875l.03-18.078z"/><ellipse cx="289.537" cy="94.757" fill="#998675" fill-rule="evenodd" rx="2.562" ry=".5" clip-rule="evenodd"/><path fill="#4c9cd0" d="M297.904 70.269c1.662.39 1.889 1.526.508 2.539-1.381 1.012-3.846 1.516-5.506 1.127-1.662-.391-1.889-1.527-.508-2.539 1.381-1.014 3.846-1.518 5.506-1.127z"/><path fill="#c7b299" d="M294.266 71.948c-4.82-1.174-5.748-9.28-1.377-12.045 1.338-.846 2.619-.705 3.268-.578 2.865.73 3.938 3.623 4.121 5.217.4 3.506-1.154 5.826-2.744 6.828-1.419.895-2.759.702-3.268.578z"/><path fill="#b2d4eb" d="M292.16 78.388l-.06 15.72c0 .275-1.146.5-2.561.5-1.416 0-2.562-.225-2.562-.5l.059-15.721s-.125-3.828 2.562-3.828c2.625.001 2.562 3.829 2.562 3.829z"/><path fill="none" stroke="#000" d="M300.801 68.81c-.494 0-.892.131-1.215.344.623-1.182.986-2.717.769-4.611-.184-1.594-1.256-4.486-4.121-5.217-.648-.127-1.93-.268-3.267.578-3.742 2.366-3.592 8.633-.451 11.129-1.346.701-2.561 1.816-3.084 3.55-2.428.231-2.318 3.806-2.318 3.806l-.059 15.721-.002.648.602.5h1.883c.389 0 1.123.979 3.117 1.229 1.994.25 6-.926 6-.926 3.16-.803 3.16-3.346 3.16-3.346v-2.707l1.488-.5v-.648l.06-15.721c0-.001.063-3.829-2.562-3.829z" stroke-linecap="round" stroke-linejoin="round"/><path fill="none" stroke="#000" d="M79.647 78.834h35.703"/><path d="M114.475 81.834l5.182-2.991-5.182-2.991zm-33.953-6.002l-5.181 2.992 5.181 2.991z"/><path fill="none" stroke="#000" d="M269.646 78.834h12.395"/><path d="M281.166 81.835l5.181-2.991-5.181-2.992zm-10.645-6.002l-5.18 2.991 5.18 2.992z"/><ellipse cx="196.875" cy="114.361" fill="#998675" fill-rule="evenodd" rx="2.562" ry=".5" clip-rule="evenodd"/><path fill="#f9b361" d="M199.498 97.992l-.061 15.721c0 .275-1.146.5-2.561.5-1.416 0-2.562-.225-2.562-.5l.059-15.721s-.125-3.828 2.562-3.828c2.626 0 2.563 3.828 2.563 3.828z"/><path fill="#f7931e" d="M185.289 101.756c.082-5.734 6.426-6.57 8.121-6.465 2.805.176 4.469 1.527 4.615 4.164.006.135-.004.268-.029.398l.031-.129v17.844c.047 1.141-1.912 3.5-6.631 4.141-4.895.664-6.137-1.391-6.137-1.875l.03-18.078z"/><ellipse cx="185.75" cy="120.111" fill="#998675" fill-rule="evenodd" rx="2.562" ry=".5" clip-rule="evenodd"/><path fill="#f9b361" d="M194.117 95.623c1.662.39 1.889 1.526.508 2.539-1.381 1.012-3.846 1.516-5.506 1.127-1.662-.391-1.889-1.527-.508-2.539 1.381-1.014 3.846-1.518 5.506-1.127z"/><path fill="#c7b299" d="M190.479 97.303c-4.82-1.174-5.748-9.28-1.377-12.045 1.338-.846 2.619-.705 3.268-.578 2.865.73 3.938 3.623 4.121 5.217.4 3.506-1.154 5.826-2.744 6.828-1.419.894-2.759.702-3.268.578z"/><path fill="#fddfbb" d="M188.373 103.742l-.061 15.721c0 .275-1.146.5-2.561.5-1.416 0-2.562-.225-2.562-.5l.059-15.721s-.125-3.828 2.562-3.828c2.626 0 2.563 3.828 2.563 3.828z"/><path fill="none" stroke="#000" d="M197.014 94.164c-.494 0-.893.131-1.215.344.623-1.182.986-2.717.77-4.611-.184-1.594-1.256-4.486-4.121-5.217-.648-.127-1.93-.268-3.268.578-3.742 2.366-3.592 8.633-.451 11.129-1.346.701-2.561 1.816-3.084 3.55-2.428.231-2.318 3.806-2.318 3.806l-.059 15.721-.002.648.602.5h1.883c.389 0 1.123.979 3.117 1.229 1.994.25 6-.926 6-.926 3.16-.803 3.16-3.346 3.16-3.346v-2.707l1.488-.5v-.648l.061-15.721c-.001-.001.062-3.829-2.563-3.829z" stroke-linecap="round" stroke-linejoin="round"/><ellipse cx="235.875" cy="114.361" fill="#998675" fill-rule="evenodd" rx="2.562" ry=".5" clip-rule="evenodd"/><path fill="#d4686c" d="M238.498 97.992l-.061 15.721c0 .275-1.146.5-2.561.5-1.416 0-2.562-.225-2.562-.5l.059-15.721s-.125-3.828 2.562-3.828c2.626 0 2.563 3.828 2.563 3.828z"/><path fill="#c1272d" d="M224.289 101.756c.082-5.734 6.426-6.57 8.121-6.465 2.805.176 4.469 1.527 4.615 4.164.006.135-.004.268-.029.398l.031-.129v17.844c.047 1.141-1.912 3.5-6.631 4.141-4.895.664-6.137-1.391-6.137-1.875l.03-18.078z"/><ellipse cx="224.75" cy="120.111" fill="#998675" fill-rule="evenodd" rx="2.562" ry=".5" clip-rule="evenodd"/><path fill="#d4686c" d="M233.117 95.623c1.662.39 1.889 1.526.508 2.539-1.381 1.012-3.846 1.516-5.506 1.127-1.662-.391-1.889-1.527-.508-2.539 1.381-1.014 3.846-1.518 5.506-1.127z"/><path fill="#c7b299" d="M229.479 97.303c-4.82-1.174-5.748-9.28-1.377-12.045 1.338-.846 2.619-.705 3.268-.578 2.865.73 3.938 3.623 4.121 5.217.4 3.506-1.154 5.826-2.744 6.828-1.419.894-2.759.702-3.268.578z"/><path fill="#ecbec0" d="M227.373 103.742l-.061 15.721c0 .275-1.146.5-2.561.5-1.416 0-2.562-.225-2.562-.5l.059-15.721s-.125-3.828 2.562-3.828c2.626 0 2.563 3.828 2.563 3.828z"/><path fill="none" stroke="#000" d="M236.014 94.164c-.494 0-.893.131-1.215.344.623-1.182.986-2.717.77-4.611-.184-1.594-1.256-4.486-4.121-5.217-.648-.127-1.93-.268-3.268.578-3.742 2.366-3.592 8.633-.451 11.129-1.346.701-2.561 1.816-3.084 3.55-2.428.231-2.318 3.806-2.318 3.806l-.059 15.721-.002.648.602.5h1.883c.389 0 1.123.979 3.117 1.229 1.994.25 6-.926 6-.926 3.16-.803 3.16-3.346 3.16-3.346v-2.707l1.488-.5v-.648l.061-15.721c-.001-.001.062-3.829-2.563-3.829z" stroke-linecap="round" stroke-linejoin="round"/><path fill="none" stroke="#000" d="M204.859 104.188h12.395"/><path d="M216.379 107.189l5.18-2.991-5.18-2.992zm-10.645-6.001l-5.18 2.991 5.18 2.992z"/><path fill="#fcd4a5" fill-rule="evenodd" stroke="#000" d="M161.123 0v155.75" clip-rule="evenodd" stroke-dasharray="1 1"/><path d="M91.419 75.504v-.45l.495-.675c.693-.964 1.521-2.062 1.521-3.16 0-.648-.288-1.044-.837-1.044-.423 0-.693.225-.846.323l-.171-.521a1.831 1.831 0 0 1 1.143-.396c.973 0 1.396.721 1.396 1.603 0 1.099-.72 2.16-1.44 3.151l-.396.54v.018h1.954v.612h-2.819zm6.4-2.935c0 2.134-.675 3.007-1.521 3.007-.909 0-1.458-1.081-1.458-2.989 0-1.972.585-3.007 1.54-3.007.944 0 1.439 1.125 1.439 2.989zm-2.287.009c0 1.413.243 2.403.819 2.403.549 0 .774-.999.774-2.403 0-1.368-.225-2.403-.783-2.403s-.81.999-.81 2.403zm4.572 2.926v-3.826h-.549v-.531h.549v-.261c0-.469.072-.954.387-1.314a1.18 1.18 0 0 1 .874-.369c.234 0 .414.045.54.107l-.117.541a.898.898 0 0 0-.378-.072c-.495 0-.612.531-.612 1.099v.27h.792v.531h-.792v3.826h-.694zm2.8-5.51v1.152h.837v.531h-.837v2.584c0 .567.207.72.459.72.108 0 .198-.009.279-.026l.027.531a1.522 1.522 0 0 1-.513.071c-.27 0-.513-.071-.684-.261-.171-.198-.261-.495-.261-1.099v-2.521h-.531v-.531h.531v-.954l.693-.197zm140.035-47.47h.692v6.229h-.692v-6.229zm4.393 4.051c0 1.684-.784 2.251-1.45 2.251-.783 0-1.413-.712-1.413-2.242 0-1.593.711-2.26 1.458-2.26.774 0 1.405.73 1.405 2.251zm-2.17 0c0 .721.125 1.701.756 1.701.594 0 .711-1.026.711-1.701 0-.666-.117-1.692-.729-1.692-.621 0-.738 1.026-.738 1.692zm2.826 1.459c.152.099.423.225.701.225.396 0 .64-.243.64-.63 0-.333-.117-.559-.558-.855-.568-.369-.873-.738-.873-1.242 0-.702.521-1.207 1.197-1.207.342 0 .603.117.783.226l-.189.522a1.026 1.026 0 0 0-.576-.189.533.533 0 0 0-.567.549c0 .298.108.459.54.757.504.324.9.72.9 1.323 0 .873-.594 1.296-1.305 1.296-.324 0-.676-.099-.865-.252l.172-.523zm3.564-4.79v1.152h.837v.531h-.837v2.584c0 .567.207.72.459.72.108 0 .198-.009.279-.026l.026.531a1.513 1.513 0 0 1-.513.071c-.271 0-.513-.071-.685-.261-.171-.198-.261-.495-.261-1.099v-2.521h-.531v-.531h.531v-.954l.695-.197zm2.852 2.277c0-.368-.027-.801-.036-1.125h.622l.035.685h.018c.145-.414.514-.757.919-.757.054 0 .099.01.144.01v.711c-.045-.009-.09-.009-.144-.009-.441 0-.765.404-.837.909a2.524 2.524 0 0 0-.027.396v2.413h-.693v-3.233zm3.906 3.233l-.045-.459h-.027c-.188.333-.494.531-.863.531-.586 0-1.036-.495-1.036-1.242 0-1.09.874-1.576 1.854-1.585v-.135c0-.585-.144-.99-.693-.99-.27 0-.513.09-.72.225l-.153-.486c.18-.135.586-.288 1.018-.288.873 0 1.252.576 1.252 1.558v1.882c0 .333 0 .711.045.99h-.632zm-.099-2.251c-.359 0-1.197.063-1.197 1.009 0 .567.289.774.531.774.307 0 .568-.226.648-.657.018-.081.018-.171.018-.243v-.883zm1.656-.982c0-.513-.027-.773-.035-1.125h.603l.036.522h.018a1.106 1.106 0 0 1 1-.595c.604 0 1.053.45 1.053 1.504v2.926h-.693v-2.809c0-.514-.099-1.035-.603-1.035-.288 0-.567.243-.657.711a2.445 2.445 0 0 0-.027.387v2.746h-.693v-3.232zm6.311-1.125c-.01.307-.037.693-.037 1.359v2.439c0 1.144-.144 1.576-.432 1.891-.261.298-.675.469-1.161.469-.369 0-.729-.09-.954-.216l.162-.541c.171.091.459.189.811.189.549 0 .891-.342.891-1.332v-.441h-.018a.887.887 0 0 1-.838.531c-.773 0-1.278-.873-1.278-2.152 0-1.602.729-2.269 1.368-2.269.469 0 .685.307.811.567h.018l.037-.495h.62zm-.721 1.504a1.16 1.16 0 0 0-.036-.315c-.081-.297-.233-.666-.63-.666-.504 0-.774.675-.774 1.639 0 1.116.351 1.62.774 1.62.207 0 .477-.099.621-.621.036-.135.045-.271.045-.396V25.9zm2.133.739c.009 1.332.531 1.62 1.035 1.62.297 0 .549-.072.721-.171l.107.513c-.243.136-.612.207-.955.207-1.043 0-1.584-.854-1.584-2.188 0-1.413.594-2.296 1.468-2.296.892 0 1.242.937 1.242 1.927 0 .162 0 .279-.009.388h-2.025zm1.368-.514c.019-.873-.315-1.261-.648-1.261-.45 0-.685.667-.711 1.261h1.359zm2.211 42.229h-.019l-.972.558-.135-.54 1.233-.72h.576v5.852h-.685v-5.15zm4.995 2.215c0 2.134-.675 3.007-1.521 3.007-.908 0-1.458-1.081-1.458-2.989 0-1.972.585-3.007 1.54-3.007.945 0 1.439 1.125 1.439 2.989zm-2.287.009c0 1.413.244 2.403.82 2.403.549 0 .773-.999.773-2.403 0-1.368-.225-2.403-.783-2.403-.557 0-.81.999-.81 2.403zm4.572 2.926v-3.826h-.549v-.531h.549v-.261c0-.469.072-.954.387-1.314.253-.279.604-.369.874-.369.233 0 .414.045.54.107l-.117.541a.89.89 0 0 0-.378-.072c-.495 0-.612.531-.612 1.099v.27h.793v.531h-.793v3.826h-.694zm2.8-5.51v1.152h.837v.531h-.837v2.584c0 .567.207.72.459.72.108 0 .198-.009.279-.026l.026.531a1.513 1.513 0 0 1-.513.071c-.271 0-.513-.071-.685-.261-.171-.198-.261-.495-.261-1.099v-2.521h-.531v-.531h.531v-.954l.695-.197zm-74.867 25.715h-.019l-.972.558-.135-.54 1.233-.72h.576v5.852h-.685v-5.15zm4.995 2.215c0 2.134-.675 3.007-1.521 3.007-.908 0-1.458-1.081-1.458-2.989 0-1.972.585-3.007 1.54-3.007.945 0 1.439 1.125 1.439 2.989zm-2.287.009c0 1.413.244 2.403.82 2.403.549 0 .773-.999.773-2.403 0-1.368-.225-2.403-.783-2.403-.557-.001-.81.998-.81 2.403zm4.572 2.925v-3.826h-.549v-.531h.549v-.261c0-.469.072-.954.387-1.314.253-.279.604-.369.874-.369.233 0 .414.045.54.107l-.117.541a.89.89 0 0 0-.378-.072c-.495 0-.612.531-.612 1.099v.27h.793v.531h-.793v3.826h-.694zm2.8-5.509v1.152h.837v.531h-.837v2.584c0 .567.207.72.459.72.108 0 .198-.009.279-.026l.026.531a1.513 1.513 0 0 1-.513.071c-.271 0-.513-.071-.685-.261-.171-.198-.261-.495-.261-1.099v-2.521h-.531V94.5h.531v-.954l.695-.197z"/></svg>