<svg xmlns="http://www.w3.org/2000/svg" viewBox="0 0 344.261 235.597"><path fill="none" stroke="#000" d="M61.38 73.438h173.705m-139.999 20H271.88M95.086 133.536h139.999" stroke-dasharray="1 1"/><path fill="#b2d4eb" fill-rule="evenodd" d="M73.286 78.366c0 1.98-1.62 3.6-3.6 3.6H6.98a3.61 3.61 0 0 1-3.6-3.6V68.51c0-1.98 1.62-3.6 3.6-3.6h62.706c1.98 0 3.6 1.62 3.6 3.6v9.856z" clip-rule="evenodd"/><path fill="none" stroke="#000" d="M73.286 78.366c0 1.98-1.62 3.6-3.6 3.6H6.98a3.61 3.61 0 0 1-3.6-3.6V68.51c0-1.98 1.62-3.6 3.6-3.6h62.706c1.98 0 3.6 1.62 3.6 3.6v9.856z" stroke-linecap="round" stroke-linejoin="round"/><path fill="#b2d4eb" fill-rule="evenodd" d="M326.286 98.366c0 1.98-1.62 3.6-3.6 3.6h-62.707c-1.979 0-3.6-1.62-3.6-3.6V88.51c0-1.98 1.62-3.6 3.6-3.6h62.707c1.979 0 3.6 1.62 3.6 3.6v9.856z" clip-rule="evenodd"/><path fill="none" stroke="#000" d="M326.286 98.366c0 1.98-1.62 3.6-3.6 3.6h-62.707c-1.979 0-3.6-1.62-3.6-3.6V88.51c0-1.98 1.62-3.6 3.6-3.6h62.707c1.979 0 3.6 1.62 3.6 3.6v9.856z" stroke-linecap="round" stroke-linejoin="round"/><path fill="none" stroke="#000" d="M61.38 113.438h173.705" stroke-dasharray="1 1"/><path fill="#b2dec7" fill-rule="evenodd" d="M73.286 133.984c0 1.98-1.62 3.6-3.6 3.6H6.98a3.61 3.61 0 0 1-3.6-3.6v-30.461c0-1.98 1.62-3.6 3.6-3.6h62.706c1.98 0 3.6 1.62 3.6 3.6v30.461z" clip-rule="evenodd"/><path fill="none" stroke="#000" d="M73.286 133.984c0 1.98-1.62 3.6-3.6 3.6H6.98a3.61 3.61 0 0 1-3.6-3.6v-30.461c0-1.98 1.62-3.6 3.6-3.6h62.706c1.98 0 3.6 1.62 3.6 3.6v30.461z" stroke-linecap="round" stroke-linejoin="round"/><path fill="none" stroke="#000" d="M95.086 168.438H271.88" stroke-dasharray="1 1"/><path fill="#b2dec7" fill-rule="evenodd" d="M326.51 173.366c0 1.98-1.62 3.6-3.6 3.6h-62.706a3.61 3.61 0 0 1-3.6-3.6v-9.856c0-1.98 1.62-3.6 3.6-3.6h62.706c1.979 0 3.6 1.62 3.6 3.6v9.856z" clip-rule="evenodd"/><path fill="none" stroke="#000" d="M326.51 173.366c0 1.98-1.62 3.6-3.6 3.6h-62.706a3.61 3.61 0 0 1-3.6-3.6v-9.856c0-1.98 1.62-3.6 3.6-3.6h62.706c1.979 0 3.6 1.62 3.6 3.6v9.856zM235.085 43.499v187.792" stroke-linecap="round" stroke-linejoin="round"/><path d="M232.084 230.416l2.991 5.181 2.992-5.181z"/><path fill="none" stroke="#0071bc" d="M95.086 75.884L230.63 89.438" stroke-linecap="round" stroke-linejoin="round"/><path fill="#0071bc" d="M229.46 92.336l5.454-2.461-4.858-3.492z"/><path fill="none" stroke="#0071bc" d="M235.085 95.884l-134.481 12.804" stroke-linecap="round" stroke-linejoin="round"/><path fill="#0071bc" d="M101.191 105.617l-4.875 3.469 5.442 2.487z"/><path fill="none" stroke="#0071bc" d="M95.086 115.884l134.628 13.304" stroke-linecap="round" stroke-linejoin="round"/><path fill="#0071bc" d="M228.548 132.088l5.45-2.468-4.862-3.486z"/><path fill="none" stroke="#009245" d="M95.086 118.884l134.628 13.304" stroke-linecap="round" stroke-linejoin="round"/><path fill="#009245" d="M228.548 135.088l5.45-2.468-4.862-3.486z"/><path fill="none" stroke="#009245" d="M235.085 170.884l-134.481 12.804" stroke-linecap="round" stroke-linejoin="round"/><path fill="#009245" d="M101.191 180.617l-4.875 3.469 5.442 2.487z"/><path fill="none" stroke="#000" d="M95.086 43.499v187.792" stroke-linecap="round" stroke-linejoin="round"/><path d="M92.085 230.416l2.991 5.181 2.991-5.181z"/><path fill="#ccc" d="M96.774 56.478v1.309L75.629 45.674v-1.307z"/><path fill="gray" d="M96.774 56.478l14.73-8.379v1.309l-14.73 8.381z"/><path fill="#fff" d="M75.629 44.369l14.709-8.43 21.166 12.16-14.73 8.379z"/><path fill="#999" d="M113.553 29.092l.988-.563-2.06 18.966-.99.563zM98.604 53.195v.254L80.731 43.212v-.253z"/><path fill="#b3b3b3" d="M98.604 53.195l10.123-5.759v.254l-10.123 5.761z"/><path fill="#e6e6e6" d="M80.731 42.96l10.107-5.8 17.889 10.276-10.123 5.759zm2.57 5.477l2.903-1.666 5.134 2.95-2.906 1.654zm30.252-19.345l-2.062 18.965-21.145-12.113 2.061-18.964z"/><path fill="#0071bc" d="M110.649 46.602L91.19 35.455l2.061-17.02 19.458 11.146-2.06 17.021z"/><path fill="#b3b3b3" d="M92.407 16.981l.971-.611 21.163 12.159-.988.563z"/><path fill="none" stroke="#000" d="M112.481 47.495l2.06-18.966L93.378 16.37l-.969.61h-.002l-2.061 18.963-.008-.004-14.707 8.429-.002-.001v1.307l21.145 12.113v.002l14.73-8.381v-1.309l-.013-.042v.001z" stroke-linecap="round" stroke-linejoin="round"/><path fill="#b3b3b3" d="M231.714 31.718v29.233l-11.485-7.059V24.653z"/><path fill="#333" d="M229.585 32.636v3.49l-8.19-5.037v-3.492zm0 11.769v3.487l-8.19-5.038v-3.488z"/><path fill="#e6e6e6" d="M229.585 40.019v1.007l-8.19-5.035v-1.013z"/><path fill="#333" d="M229.585 49.36v3.487l-8.19-5.035v-3.491zm0 4.953v3.49l-8.19-5.038v-3.489z"/><path fill="gray" d="M231.708 31.735l18.203-11.482v29.236l-18.203 11.482z"/><path fill="#999" d="M220.255 24.671l18.224-11.482 11.461 7.06-18.205 11.482z"/><path fill="#009245" d="M221.671 31.567c.18.105.318.365.318.582 0 .211-.141.303-.318.191a.744.744 0 0 1-.312-.582c-.001-.216.14-.298.312-.191"/><path fill="#c1272d" d="M222.44 32.042c.178.107.316.369.316.586 0 .211-.146.299-.318.191-.176-.105-.316-.367-.316-.582 0-.216.143-.304.318-.195"/><path fill="#009245" d="M223.208 32.507a.76.76 0 0 1 .316.582c0 .217-.145.303-.318.195-.178-.107-.316-.373-.316-.588 0-.211.14-.297.318-.189"/><path fill="#c1272d" d="M223.974 32.979c.176.107.314.367.314.584-.002.211-.143.299-.32.189-.172-.105-.314-.369-.314-.582-.001-.214.144-.302.32-.191m.775.475a.74.74 0 0 1 .316.584c0 .215-.141.303-.318.191a.755.755 0 0 1-.312-.582c0-.212.14-.3.314-.193"/><path fill="#009245" d="M225.517 33.933c.178.106.316.367.316.582 0 .215-.141.301-.318.193-.174-.105-.316-.367-.316-.584-.001-.213.142-.303.318-.191m.767.461a.75.75 0 0 1 .314.584c0 .219-.143.303-.314.193-.178-.107-.318-.369-.318-.584 0-.213.142-.301.318-.193m.768.474c.172.105.312.365.312.582s-.141.299-.318.191a.742.742 0 0 1-.312-.582c-.001-.216.142-.304.318-.191"/><path fill="#c1272d" d="M221.671 32.702c.18.105.318.369.318.584 0 .213-.141.297-.318.193a.746.746 0 0 1-.312-.586c-.001-.214.14-.298.312-.191m.769.475c.178.109.316.369.316.586 0 .213-.146.303-.318.193-.176-.109-.316-.373-.316-.586 0-.215.143-.299.318-.193"/><path fill="#009245" d="M223.208 33.642c.172.103.316.373.316.582 0 .217-.145.303-.318.197-.178-.109-.316-.371-.316-.588 0-.213.14-.299.318-.191"/><path fill="#c1272d" d="M223.974 34.114c.176.105.314.367.314.584-.002.211-.143.299-.32.193a.774.774 0 0 1-.314-.584c-.001-.216.144-.304.32-.193"/><path fill="#009245" d="M224.749 34.589a.742.742 0 0 1 .316.582c0 .217-.141.305-.318.197-.172-.107-.312-.371-.312-.584 0-.215.14-.303.314-.195"/><path fill="#c1272d" d="M225.517 35.063c.178.107.316.375.316.586 0 .217-.141.301-.318.195a.757.757 0 0 1-.316-.584c-.001-.214.142-.302.318-.197"/><path fill="#009245" d="M226.284 35.528a.763.763 0 0 1 .314.586c0 .217-.143.303-.314.191-.178-.104-.318-.367-.318-.582 0-.214.142-.302.318-.195"/><path fill="#c1272d" d="M227.052 35.999c.172.111.312.369.312.586s-.141.299-.318.195a.757.757 0 0 1-.312-.584c-.001-.218.142-.3.318-.197"/><path fill="#009245" d="M227.644 40.882c.178.107.32.367.32.586 0 .211-.145.299-.32.193a.762.762 0 0 1-.316-.586c-.001-.215.14-.301.316-.193m.769.463a.763.763 0 0 1 .312.586c0 .215-.141.299-.312.193a.742.742 0 0 1-.318-.584c0-.215.14-.299.318-.195"/><path fill="#c1272d" d="M229.177 41.817c.176.107.316.367.316.584 0 .211-.141.303-.318.193a.744.744 0 0 1-.314-.584c-.001-.214.142-.304.316-.193m-1.533.202c.178.105.32.367.32.586 0 .213-.145.299-.32.188-.178-.104-.316-.369-.316-.582-.001-.214.14-.304.316-.192m.769.462a.772.772 0 0 1 .312.582c0 .217-.141.305-.312.193-.18-.105-.318-.369-.318-.582 0-.216.14-.3.318-.193"/><path fill="#009245" d="M229.177 42.954c.176.103.316.365.316.582 0 .215-.141.303-.318.191a.731.731 0 0 1-.314-.582c-.001-.212.142-.3.316-.191"/><path fill="none" stroke="#000" d="M249.94 20.249l-11.462-7.06-18.223 11.482-.026-.018v29.239l11.479 7.059v.02l18.201-11.482v-29.22z" stroke-linecap="round" stroke-linejoin="round"/><path fill="none" stroke="#000" d="M235.085 186.438h36.795m-210.5 22h173.705" stroke-dasharray="1 1"/><path fill="#ecbec0" fill-rule="evenodd" d="M73.286 213.366c0 1.98-1.62 3.6-3.6 3.6H6.98a3.61 3.61 0 0 1-3.6-3.6v-9.857c0-1.98 1.62-3.6 3.6-3.6h62.706c1.98 0 3.6 1.62 3.6 3.6v9.857z" clip-rule="evenodd"/><path fill="none" stroke="#000" d="M73.286 213.366c0 1.98-1.62 3.6-3.6 3.6H6.98a3.61 3.61 0 0 1-3.6-3.6v-9.857c0-1.98 1.62-3.6 3.6-3.6h62.706c1.98 0 3.6 1.62 3.6 3.6v9.857z" stroke-linecap="round" stroke-linejoin="round"/><path fill="#b2dec7" fill-rule="evenodd" d="M326.51 191.366c0 1.98-1.62 3.6-3.6 3.6h-62.706a3.61 3.61 0 0 1-3.6-3.6v-9.857c0-1.98 1.62-3.6 3.6-3.6h62.706c1.979 0 3.6 1.62 3.6 3.6v9.857z" clip-rule="evenodd"/><path fill="none" stroke="#000" d="M326.51 191.366c0 1.98-1.62 3.6-3.6 3.6h-62.706a3.61 3.61 0 0 1-3.6-3.6v-9.857c0-1.98 1.62-3.6 3.6-3.6h62.706c1.979 0 3.6 1.62 3.6 3.6v9.857z" stroke-linecap="round" stroke-linejoin="round"/><path fill="none" stroke="#009245" d="M235.085 189.884l-134.481 12.804" stroke-linecap="round" stroke-linejoin="round"/><path fill="#009245" d="M101.191 199.617l-4.875 3.469 5.442 2.487z"/><path d="M239.365 75.947c-.808 0-1.296-.959-1.296-2.654 0-1.751.521-2.67 1.367-2.67.84 0 1.279.999 1.279 2.654 0 1.895-.6 2.67-1.343 2.67h-.007zm.04-.527c.496 0 .695-.888.695-2.135 0-1.215-.199-2.135-.695-2.135-.504 0-.72.88-.72 2.135-.008 1.256.208 2.135.712 2.135h.008zm3.217-2.406c0-.456-.024-.688-.032-1h.544l.031.472h.017c.167-.312.456-.535.863-.535.36 0 .672.168.815.583h.016c.104-.191.24-.344.377-.439.159-.096.335-.144.535-.144.527 0 .936.376.936 1.367v2.566h-.615v-2.431c0-.504-.072-.991-.536-.991-.256 0-.479.216-.567.583-.024.097-.024.217-.024.344v2.495h-.616v-2.543c0-.424-.071-.879-.527-.879-.256 0-.504.216-.576.632a2.028 2.028 0 0 0-.023.327v2.463h-.615v-2.87zm4.856 2.23c.137.088.376.2.624.2.344 0 .567-.216.567-.56 0-.296-.104-.504-.496-.76-.504-.328-.775-.664-.775-1.104 0-.632.464-1.071 1.063-1.071.304 0 .528.096.688.199l-.16.464a.884.884 0 0 0-.52-.176c-.328 0-.496.24-.496.496s.096.407.479.663c.448.288.8.648.8 1.184 0 .775-.527 1.151-1.168 1.151-.279 0-.592-.088-.76-.224l.154-.462zM77.422 95.884v-.399l.432-.592c.624-.863 1.352-1.839 1.352-2.814 0-.576-.248-.928-.736-.928-.375 0-.624.2-.751.288l-.152-.464a1.624 1.624 0 0 1 1.015-.352c.864 0 1.239.64 1.239 1.423 0 .976-.64 1.927-1.287 2.799l-.344.479v.016h1.727v.544h-2.495zm4.423-5.261c.744 0 1.12.623 1.12 1.223 0 .456-.216.896-.696 1.231v.017c.479.327.832.791.832 1.423 0 .808-.536 1.431-1.335 1.431-.863 0-1.295-.688-1.295-1.327 0-.735.432-1.199.856-1.495l-.008-.016c-.432-.296-.68-.752-.68-1.191 0-.8.568-1.295 1.2-1.295h.006zm-.056 4.869c.384 0 .704-.288.704-.943 0-.6-.344-.936-.744-1.199a1.388 1.388 0 0 0-.671 1.167c0 .584.264.976.704.976h.007zm.016-4.414c-.344 0-.576.328-.576.8 0 .527.32.792.64.999.312-.224.512-.567.512-.959 0-.504-.2-.84-.567-.84h-.009zm3.209 1.936c0-.456-.024-.688-.032-1h.543l.032.472h.016c.168-.312.456-.535.864-.535.36 0 .671.168.815.583h.016c.104-.191.24-.344.376-.439.16-.096.335-.144.536-.144.528 0 .936.376.936 1.367v2.566H88.5v-2.431c0-.504-.072-.991-.536-.991-.256 0-.48.216-.568.583-.024.097-.024.217-.024.344v2.495h-.616v-2.543c0-.424-.072-.879-.528-.879-.256 0-.503.216-.576.632a2.02 2.02 0 0 0-.024.327v2.463h-.616v-2.87zm4.856 2.23c.136.088.376.2.624.2.344 0 .567-.216.567-.56 0-.296-.104-.504-.496-.76-.504-.328-.775-.664-.775-1.104 0-.632.463-1.071 1.063-1.071.304 0 .527.096.688.199l-.16.464a.884.884 0 0 0-.52-.176c-.328 0-.496.24-.496.496s.096.407.479.663c.448.288.8.648.8 1.184 0 .775-.528 1.151-1.167 1.151-.28 0-.592-.088-.76-.224l.153-.462zm-11.105 35.379c.744 0 1.12.623 1.12 1.223 0 .456-.216.896-.696 1.231v.017c.479.327.832.791.832 1.423 0 .808-.536 1.431-1.335 1.431-.863 0-1.295-.688-1.295-1.327 0-.735.432-1.199.856-1.495l-.008-.016c-.432-.296-.68-.752-.68-1.191 0-.8.568-1.295 1.2-1.295h.006zm-.056 4.869c.384 0 .704-.288.704-.943 0-.6-.344-.936-.744-1.199a1.388 1.388 0 0 0-.671 1.167c0 .584.264.976.704.976h.007zm.016-4.414c-.344 0-.576.328-.576.8 0 .527.32.792.64.999.312-.224.512-.567.512-.959 0-.504-.2-.84-.567-.84h-.009zm3.392 4.806v-1.439H80.39v-.415l1.687-3.343h.6v3.254h.56v.504h-.56v1.439h-.56zm0-1.944v-1.463c0-.359.024-.68.048-1.023h-.032c-.176.416-.288.655-.439.976l-.72 1.495v.016h1.143zm2.897-.926c0-.456-.024-.688-.032-1h.543l.032.472h.016c.168-.312.456-.535.864-.535.36 0 .671.168.815.583h.016c.104-.191.24-.344.376-.439.16-.096.335-.144.536-.144.528 0 .936.376.936 1.367v2.566H88.5v-2.431c0-.504-.072-.991-.536-.991-.256 0-.48.216-.568.583-.024.097-.024.217-.024.344v2.495h-.616v-2.543c0-.424-.072-.879-.528-.879-.256 0-.503.216-.576.632a2.02 2.02 0 0 0-.024.327v2.463h-.616v-2.87zm4.856 2.23c.136.088.376.2.624.2.344 0 .567-.216.567-.56 0-.296-.104-.504-.496-.76-.504-.328-.775-.664-.775-1.104 0-.632.463-1.071 1.063-1.071.304 0 .527.096.688.199l-.16.464a.884.884 0 0 0-.52-.176c-.328 0-.496.24-.496.496s.096.407.479.663c.448.288.8.648.8 1.184 0 .775-.528 1.151-1.167 1.151-.28 0-.592-.088-.76-.224l.153-.462zm-13.727 30.968h-.016l-.864.495-.12-.479 1.095-.64h.504v5.197h-.6v-4.573zm1.832 4.574v-.399l.432-.592c.624-.863 1.352-1.839 1.352-2.814 0-.576-.248-.928-.736-.928-.376 0-.624.2-.751.288l-.152-.464a1.624 1.624 0 0 1 1.015-.352c.864 0 1.24.64 1.24 1.423 0 .976-.64 1.927-1.288 2.799l-.344.479v.016h1.727v.544h-2.495zm4.695 0v-1.439h-1.727v-.415l1.687-3.343h.6v3.254h.56v.504h-.56v1.439h-.56zm0-1.944v-1.463c0-.359.024-.68.048-1.023h-.032c-.176.416-.288.655-.439.976l-.72 1.495v.016h1.143zm2.896-.926c0-.456-.024-.688-.032-1h.543l.032.472h.016c.168-.312.456-.535.864-.535.36 0 .671.168.815.583h.016c.104-.191.24-.344.376-.439.16-.096.335-.144.536-.144.528 0 .936.376.936 1.367v2.566h-.616v-2.431c0-.504-.072-.991-.536-.991-.256 0-.48.216-.568.583-.024.097-.024.217-.024.344v2.495h-.614v-2.543c0-.424-.072-.879-.528-.879-.256 0-.503.216-.576.632a2.02 2.02 0 0 0-.024.327v2.463h-.616v-2.87zm4.856 2.23c.136.088.376.2.624.2.344 0 .567-.216.567-.56 0-.296-.104-.504-.496-.76-.504-.328-.775-.664-.775-1.104 0-.632.463-1.071 1.063-1.071.304 0 .527.096.688.199l-.16.464a.884.884 0 0 0-.52-.176c-.328 0-.496.24-.496.496s.096.407.479.663c.448.288.8.648.8 1.184 0 .775-.528 1.151-1.167 1.151-.28 0-.592-.088-.76-.224l.153-.462zM32.683 75.483c.23.14.63.27.97.27.699 0 1.119-.459 1.119-1.139 0-.62-.36-1-.89-1.399-.53-.37-1.269-.999-1.269-1.869 0-1.02.72-1.769 1.779-1.769.42 0 .79.14.95.249l-.19.66a1.41 1.41 0 0 0-.8-.229c-.66 0-.969.499-.969.959 0 .67.35.939.989 1.39.81.569 1.169 1.189 1.169 1.938 0 1.159-.819 1.889-1.889 1.889-.46 0-.95-.149-1.14-.3l.171-.65zm4.739.89v-2.849l-1.489-3.888h.82l.6 1.689c.16.47.35.999.5 1.519h.02c.13-.52.31-1.029.49-1.549l.57-1.659h.799l-1.539 3.858v2.878h-.771zm2.971 0v-6.736h.719l1.239 3.158c.28.729.63 1.619.86 2.349h.02c-.06-1.06-.09-1.929-.09-3.098v-2.409h.689v6.736h-.72l-1.279-3.238c-.28-.68-.57-1.449-.81-2.289h-.02c.06.899.08 1.76.08 3.198v2.329h-.688zM89.808 8.25c-.209.11-.549.18-.969.18-1.309 0-2.259-1.049-2.259-3.338 0-2.668 1.319-3.518 2.389-3.518.4 0 .7.08.83.17l-.17.649c-.16-.07-.32-.14-.669-.14-.72 0-1.569.699-1.569 2.758 0 2.069.76 2.738 1.589 2.738.29 0 .54-.069.699-.14l.129.641zm.722-6.796h.77V8.37h-.77V1.454zm2.269 1.329c-.25 0-.439-.2-.439-.5s.2-.499.45-.499c.28 0 .459.199.459.499s-.18.5-.459.5h-.011zm-.36 5.587V3.533h.77V8.37h-.77zm2.38-2.349c.01 1.489.589 1.799 1.139 1.799.34 0 .61-.08.8-.18l.13.56c-.27.15-.68.229-1.069.229-1.149 0-1.75-.939-1.75-2.429 0-1.568.66-2.548 1.629-2.548.979 0 1.379 1.039 1.379 2.129 0 .189-.01.319-.02.439h-2.238zm1.519-.569c.01-.97-.35-1.399-.72-1.399-.5 0-.76.739-.79 1.399h1.51zm1.571-.67c0-.569-.03-.859-.04-1.249h.67l.04.579h.02c.21-.39.6-.659 1.109-.659.669 0 1.169.489 1.169 1.669V8.37h-.77V5.252c0-.58-.11-1.149-.669-1.149-.32 0-.629.27-.72.789-.03.11-.04.261-.04.431V8.37h-.77V4.782zm4.93-2.379v1.13h.93v.579h-.93v2.879c0 .64.22.799.5.799.13 0 .23-.01.31-.029l.04.59c-.14.05-.32.079-.57.079-.31 0-.58-.079-.759-.289-.2-.221-.29-.55-.29-1.22V4.112h-.589v-.579h.589v-.82l.769-.31zM228.555 7.48c.229.14.63.27.97.27.699 0 1.119-.459 1.119-1.139 0-.62-.359-1-.89-1.399-.53-.37-1.269-.999-1.269-1.869 0-1.02.719-1.769 1.778-1.769.42 0 .79.14.95.249l-.19.66a1.41 1.41 0 0 0-.8-.229c-.66 0-.969.499-.969.959 0 .67.35.939.988 1.39.811.569 1.17 1.189 1.17 1.938 0 1.159-.819 1.889-1.889 1.889-.46 0-.949-.149-1.14-.3l.172-.65zm4.309-1.459c.01 1.489.59 1.799 1.139 1.799.34 0 .61-.08.801-.18l.129.56c-.27.15-.68.229-1.068.229-1.15 0-1.75-.939-1.75-2.429 0-1.568.66-2.548 1.629-2.548.98 0 1.38 1.039 1.38 2.129 0 .189-.011.319-.021.439h-2.239zm1.52-.569c.01-.97-.351-1.399-.721-1.399-.499 0-.76.739-.789 1.399h1.51zm1.56-.67c0-.41-.03-.89-.04-1.249h.689l.04.759h.02c.16-.459.57-.839 1.02-.839.061 0 .11 0 .16.01v.789c-.05-.01-.1-.01-.16-.01-.489 0-.85.45-.93 1.01-.02.13-.029.27-.029.439V8.37h-.77V4.782zm3.14-1.249l.609 2.718c.069.33.149.76.21 1.18h.029c.051-.399.131-.81.201-1.18l.6-2.718h.76l-1.27 4.837h-.68l-1.26-4.837h.801zm3.49 2.488c.01 1.489.589 1.799 1.14 1.799.34 0 .609-.08.799-.18l.131.56c-.271.15-.68.229-1.07.229-1.148 0-1.749-.939-1.749-2.429 0-1.568.659-2.548 1.63-2.548.979 0 1.379 1.039 1.379 2.129 0 .189-.01.319-.02.439h-2.24zm1.519-.569c.01-.97-.35-1.399-.719-1.399-.5 0-.76.739-.79 1.399h1.509zm1.561-.67c0-.41-.03-.89-.04-1.249h.689l.04.759h.021c.16-.459.569-.839 1.02-.839.06 0 .109 0 .159.01v.789c-.05-.01-.1-.01-.159-.01-.49 0-.85.45-.93 1.01-.021.13-.03.27-.03.439V8.37h-.77V4.782zm33.509 90.701c.229.14.629.27.969.27.699 0 1.119-.459 1.119-1.139 0-.62-.359-1-.889-1.399-.529-.37-1.27-.999-1.27-1.869 0-1.02.72-1.769 1.779-1.769.42 0 .789.14.949.249l-.189.66a1.41 1.41 0 0 0-.801-.229c-.659 0-.969.499-.969.959 0 .67.35.939.989 1.39.81.569 1.169 1.189 1.169 1.938 0 1.159-.818 1.889-1.889 1.889-.459 0-.949-.149-1.139-.3l.172-.65zm4.738.89v-2.849l-1.488-3.888h.819l.6 1.689c.159.47.35.999.499 1.519h.021c.13-.52.31-1.029.489-1.549l.57-1.659h.799l-1.539 3.858v2.878h-.77zm2.971 0v-6.736h.72l1.239 3.158c.28.729.63 1.619.859 2.349h.021a50.662 50.662 0 0 1-.091-3.098v-2.409h.69v6.736h-.72l-1.279-3.238c-.279-.68-.57-1.449-.81-2.289h-.021c.061.899.08 1.76.08 3.198v2.329h-.688zm7.02-2.019l-.439 2.019h-.75l1.539-6.736h.85l1.5 6.736h-.76l-.439-2.019h-1.501zm1.389-.62l-.35-1.709c-.101-.479-.19-1.039-.271-1.539h-.029c-.08.51-.18 1.089-.279 1.549l-.351 1.699h1.28zm4.9 2.518c-.209.11-.549.18-.969.18-1.31 0-2.26-1.049-2.26-3.338 0-2.668 1.32-3.518 2.389-3.518.4 0 .7.08.83.17l-.17.649c-.16-.07-.32-.14-.67-.14-.719 0-1.568.699-1.568 2.758 0 2.069.76 2.738 1.588 2.738.291 0 .541-.069.7-.14l.13.641zm.781-6.616h.77v3.198h.021c.149-.28.29-.55.42-.81l1.249-2.389h.859l-1.648 2.879 1.689 3.857h-.83l-1.379-3.248-.381.649v2.599h-.77v-6.735zm40.685-13.599v-1.209h.979v3.488h-.979v-1.209h-5.757v-1.069h5.757zm-5.646 5.899c-.101-.2-.17-.55-.17-.989 0-1.54 1.259-2.419 3.338-2.419 2.589 0 3.518 1.369 3.518 2.569 0 .439-.09.75-.17.879l-.909-.2c.08-.16.14-.32.14-.64 0-.729-.669-1.479-2.508-1.479-1.81 0-2.459.68-2.459 1.489 0 .25.06.5.12.66l-.9.13zm6.526.752c.079.34.13.779.13 1.249 0 .71-.13 1.29-.51 1.689-.34.36-.859.54-1.439.54-.68 0-1.14-.19-1.499-.5-.47-.399-.7-1.049-.7-1.619 0-.11 0-.2.011-.3h-2.629v-1.059h6.636zm-3.129 1.059c-.02.08-.02.15-.02.26 0 .699.479 1.089 1.249 1.089.63 0 1.159-.26 1.159-.979 0-.15-.02-.28-.05-.37h-2.338zm-.429 6.62h-.779v-2.079h.779v2.079zm2.738 6.779v-1.749l-1.729-.27c.02.08.02.15.02.24 0 .35-.159.899-.489 1.239-.34.35-.819.55-1.479.55-1.299 0-2.219-.82-2.219-1.969 0-.4.11-.85.28-1.109l.609.17c-.11.2-.25.55-.25.91 0 .66.5 1.229 1.499 1.229 1.029 0 1.46-.629 1.46-1.469 0-.24-.011-.39-.03-.51l3.008.41v2.329h-.68zm.11 3.71c0-.13-.02-.28-.06-.46-.271-1.08-1.35-1.509-2.349-1.669v.03c.369.25.619.61.619 1.1 0 .819-.76 1.399-1.999 1.399-1.229 0-2.219-.56-2.219-1.599 0-1.139 1.149-1.709 2.648-1.709 1.26 0 2.229.33 2.929.839.55.39.899 1.01 1.02 1.58.04.2.05.37.06.49h-.649zm-5.407-1.189c0 .43.43.819 1.56.819.979 0 1.469-.35 1.469-.87 0-.33-.21-.66-.699-.849-.061-.02-.2-.05-.39-.05-1.33.01-1.939.41-1.939.939v.011zm3.069 3.96c.569 0 .859-.03 1.249-.04v.68l-.589.04v.02c.39.21.669.57.669 1.08 0 .45-.21.839-.729 1.02v.02c.24.13.43.3.55.47.12.2.18.419.18.669 0 .66-.47 1.169-1.709 1.169h-3.208v-.77h3.038c.63 0 1.239-.09 1.239-.67 0-.32-.27-.6-.729-.709-.12-.03-.27-.03-.43-.03h-3.118v-.77h3.179c.529 0 1.099-.09 1.099-.66 0-.32-.27-.63-.789-.72-.12-.02-.26-.03-.41-.03h-3.078v-.77h3.586zm-2.789 6.07c-.11.17-.25.47-.25.78 0 .43.27.709.699.709.37 0 .63-.13.95-.62.409-.63.829-.969 1.379-.969.789 0 1.339.58 1.339 1.329 0 .38-.119.66-.25.859l-.579-.2c.13-.19.22-.39.22-.65 0-.41-.3-.62-.62-.62-.319 0-.509.12-.829.6-.359.56-.81 1-1.479 1-.969 0-1.438-.66-1.438-1.459 0-.35.109-.74.279-.95l.579.191zm-96.173 1.533h-1.399l-.216 1.383c.064-.016.12-.016.191-.016.28 0 .721.128.992.392.279.272.439.655.439 1.184 0 1.039-.655 1.774-1.575 1.774-.319 0-.68-.088-.888-.224l.137-.487c.16.088.439.199.727.199.528 0 .984-.399.984-1.199 0-.823-.504-1.167-1.176-1.167-.191 0-.312.008-.408.024l.328-2.407h1.863v.544zm2.968-.087c-.104 0-.225.016-.369.048-.863.216-1.207 1.079-1.334 1.879h.023c.199-.296.488-.496.879-.496.656 0 1.12.608 1.12 1.6 0 .983-.448 1.774-1.279 1.774-.911 0-1.367-.919-1.367-2.118 0-1.008.264-1.783.671-2.343.312-.439.809-.72 1.264-.815.16-.032.296-.04.393-.048v.519zm-.952 4.325c.344 0 .655-.344.655-1.247 0-.783-.279-1.176-.695-1.176-.264 0-.527.168-.68.561-.016.048-.04.159-.04.312.009 1.063.328 1.551.752 1.551h.008zm3.169-2.454c0-.456-.024-.688-.032-1h.544l.031.472h.017c.167-.312.456-.535.863-.535.36 0 .672.168.815.583h.016c.104-.191.24-.344.377-.439.159-.096.335-.144.535-.144.527 0 .936.376.936 1.367v2.566h-.615v-2.431c0-.504-.072-.991-.536-.991-.256 0-.479.216-.567.583-.024.097-.024.217-.024.344v2.495h-.616v-2.543c0-.424-.071-.879-.527-.879-.256 0-.504.216-.576.632a2.028 2.028 0 0 0-.023.327v2.463h-.615v-2.87zm4.856 2.23c.137.088.376.2.624.2.344 0 .567-.216.567-.56 0-.296-.104-.504-.496-.76-.504-.328-.775-.664-.775-1.104 0-.632.464-1.071 1.063-1.071.304 0 .528.096.688.199l-.16.464a.884.884 0 0 0-.52-.176c-.328 0-.496.24-.496.496s.096.407.479.663c.448.288.8.648.8 1.184 0 .775-.527 1.151-1.168 1.151-.279 0-.592-.088-.76-.224l.154-.462zM33.782 109.67l-.44 2.019h-.75l1.54-6.736h.849l1.5 6.736h-.76l-.44-2.019h-1.499zm1.389-.62l-.35-1.709c-.1-.479-.19-1.039-.27-1.539h-.03c-.08.51-.18 1.089-.28 1.549l-.35 1.699h1.28zm4.9 2.518c-.209.11-.549.18-.969.18-1.309 0-2.259-1.049-2.259-3.338 0-2.668 1.319-3.518 2.389-3.518.4 0 .7.08.83.17l-.17.649c-.16-.07-.32-.14-.669-.14-.72 0-1.569.699-1.569 2.758 0 2.069.76 2.738 1.589 2.738.29 0 .54-.069.699-.14l.129.641zm.782-6.616h.77v3.198h.02c.15-.28.29-.55.42-.81l1.249-2.389h.86l-1.649 2.879 1.689 3.857h-.83l-1.379-3.248-.38.649v2.599h-.77v-6.735zm-14.507 16.557c-.29.12-.839.239-1.309.239-.69 0-1.259-.189-1.709-.659-.529-.55-.849-1.52-.839-2.709.02-2.528 1.399-3.487 2.719-3.487.47 0 .83.09 1.039.199l-.209.92c-.18-.1-.43-.16-.77-.16-.869 0-1.669.64-1.669 2.539 0 1.829.7 2.448 1.409 2.448.18 0 .29-.02.35-.05V118.9h-.72v-.88h1.709v3.489zm3.681-2.889h-1.599v2.139h1.819v.93h-2.888v-6.736h2.768v.93h-1.699v1.849h1.599v.888zm1.841-2.688h-1.209v-.979h3.488v.979h-1.209v5.757h-1.069v-5.757zm3.91 6.156l2.259-7.216h.729l-2.259 7.216h-.729zm3.38-7.316h1.069v2.559h.02c.11-.17.26-.31.42-.41.18-.109.4-.18.649-.18.77 0 1.199.64 1.199 1.869v3.078h-1.069v-3.038c0-.53-.11-1.01-.56-1.01-.28 0-.51.19-.62.6-.02.09-.04.25-.04.37v3.078h-1.069v-6.916zm5.579.839v1.21h.939v.77h-.939v2.528c0 .6.23.75.5.75.12 0 .22-.01.33-.03l.02.83c-.16.05-.4.079-.7.079-.34 0-.649-.09-.859-.3-.24-.239-.36-.589-.36-1.319v-2.538h-.58v-.77h.58v-.84l1.069-.37zm1.581 2.579c0-.55-.02-.939-.04-1.369h.93l.05.579h.02c.23-.369.629-.659 1.139-.659.5 0 .86.24 1.04.699h.02c.12-.21.3-.399.48-.52.2-.12.43-.18.679-.18.78 0 1.22.6 1.22 1.799v3.148h-1.06v-2.948c0-.59-.08-1.109-.55-1.109-.28 0-.5.21-.589.569-.03.101-.04.24-.04.39v3.099h-1.06v-3.118c0-.43-.06-.939-.54-.939-.26 0-.51.2-.6.59-.02.109-.04.25-.04.39v3.078h-1.06v-3.499zm6.53-3.418h1.069v6.916h-1.069v-6.916zm-23.252 16.737c-.29.12-.839.239-1.309.239-.69 0-1.259-.189-1.709-.659-.529-.55-.849-1.52-.839-2.709.02-2.528 1.399-3.487 2.719-3.487.47 0 .83.09 1.039.199l-.209.92c-.18-.1-.43-.16-.77-.16-.869 0-1.669.64-1.669 2.539 0 1.829.7 2.448 1.409 2.448.18 0 .29-.02.35-.05V128.9h-.72v-.88h1.709v3.489zm3.681-2.889h-1.599v2.139h1.819v.93h-2.888v-6.736h2.768v.93h-1.699v1.849h1.599v.888zm1.841-2.688h-1.209v-.979h3.488v.979h-1.209v5.757h-1.069v-5.757zm3.91 6.156l2.259-7.216h.729l-2.259 7.216h-.729zm5.938-.499c-.15.08-.46.159-.819.159-1.16 0-1.929-.859-1.929-2.458 0-1.459.81-2.539 2.099-2.539.29 0 .569.07.699.14l-.16.85c-.11-.04-.28-.109-.52-.109-.689 0-1.049.739-1.049 1.639 0 1 .4 1.6 1.049 1.6.2 0 .37-.04.52-.11l.11.828zm.492-.91c.18.12.51.26.84.26.379 0 .609-.199.609-.56 0-.3-.14-.499-.589-.789-.73-.43-.99-.899-.99-1.39 0-.839.61-1.459 1.489-1.459.39 0 .7.11.93.24l-.21.789c-.19-.12-.41-.21-.67-.21-.37 0-.549.24-.549.51 0 .26.12.41.58.71.649.39 1 .869 1 1.479 0 .99-.69 1.489-1.609 1.489-.38 0-.83-.109-1.04-.279l.209-.79zm3.08 0c.18.12.51.26.84.26.379 0 .609-.199.609-.56 0-.3-.14-.499-.589-.789-.73-.43-.99-.899-.99-1.39 0-.839.61-1.459 1.489-1.459.39 0 .7.11.93.24l-.21.789c-.19-.12-.41-.21-.67-.21-.37 0-.549.24-.549.51 0 .26.12.41.58.71.649.39 1 .869 1 1.479 0 .99-.69 1.489-1.609 1.489-.38 0-.83-.109-1.04-.279l.209-.79zm221.199 33.957v2.889h1.889v-2.889h.77v6.736h-.77v-3.148h-1.889v3.148h-.77v-6.736h.77zm4.65.69h-1.229v-.689h3.229v.689h-1.229v6.047h-.77v-6.047zm6.788 3.148c-.05-.89-.1-1.879-.07-2.639h-.039c-.15.75-.33 1.56-.54 2.339l-.819 3.158h-.5l-.779-3.028a30.83 30.83 0 0 1-.561-2.469h-.029c.01.79-.04 1.729-.08 2.688l-.13 2.849h-.689l.399-6.736h.84l.779 3.078c.23.89.4 1.55.54 2.319h.03c.129-.77.279-1.409.499-2.319l.76-3.078h.859l.39 6.736h-.719l-.141-2.898zm1.912-3.838h.77v6.087h1.889v.649h-2.658v-6.736zm4.94 3.149c0-.41-.03-.89-.04-1.249h.689l.04.759h.021c.16-.459.569-.839 1.02-.839.06 0 .109 0 .159.01v.789c-.05-.01-.1-.01-.159-.01-.49 0-.85.45-.93 1.01-.021.13-.03.27-.03.439v2.679h-.77v-3.588zm2.89 1.239c.01 1.489.59 1.799 1.139 1.799.34 0 .61-.08.801-.18l.129.56c-.27.15-.68.229-1.069.229-1.149 0-1.749-.939-1.749-2.429 0-1.568.66-2.548 1.629-2.548.98 0 1.38 1.039 1.38 2.129 0 .189-.011.319-.021.439h-2.239zm1.52-.569c.01-.97-.351-1.399-.721-1.399-.499 0-.759.739-.789 1.399h1.51zm1.44 2.118c.17.11.47.25.78.25.43 0 .709-.27.709-.699 0-.37-.13-.63-.619-.95-.631-.409-.97-.829-.97-1.379 0-.789.579-1.339 1.329-1.339.38 0 .66.119.859.25l-.199.579c-.19-.13-.391-.22-.65-.22-.41 0-.619.3-.619.62 0 .319.119.509.6.829.56.359.999.81.999 1.479 0 .969-.659 1.438-1.459 1.438-.351 0-.739-.109-.95-.279l.19-.579zm3.011-2.529c0-.739-.031-1.169-.041-1.509h.689l.041.609h.02c.26-.51.65-.689 1.02-.689.85 0 1.399.89 1.399 2.488 0 1.799-.739 2.509-1.489 2.509-.46 0-.72-.28-.85-.55h-.02v2.389h-.77v-5.247zm.769 1.56c0 .14.01.279.039.399.15.689.49.81.7.81.64 0 .849-.88.849-1.849 0-1.01-.239-1.85-.849-1.85-.351 0-.67.439-.71.88-.029.12-.029.239-.029.369v1.241zm4.589 1.849c-.87 0-1.569-.79-1.569-2.488 0-1.77.79-2.509 1.619-2.509.869 0 1.56.799 1.56 2.488 0 1.879-.86 2.509-1.599 2.509h-.011zm.04-.61c.66 0 .799-1.13.799-1.89 0-.749-.139-1.889-.818-1.889-.689 0-.82 1.14-.82 1.889 0 .8.141 1.89.83 1.89h.009zm2.43-3.058c0-.569-.029-.859-.039-1.249h.67l.039.579h.021c.21-.39.6-.659 1.109-.659.669 0 1.169.489 1.169 1.669v3.248h-.77v-3.118c0-.58-.109-1.149-.67-1.149-.319 0-.629.27-.719.789-.03.11-.041.261-.041.431v3.048h-.77v-3.589zm3.921 2.788c.17.11.47.25.78.25.43 0 .709-.27.709-.699 0-.37-.13-.63-.619-.95-.631-.409-.97-.829-.97-1.379 0-.789.579-1.339 1.329-1.339.38 0 .66.119.859.25l-.199.579c-.19-.13-.391-.22-.65-.22-.41 0-.619.3-.619.62 0 .319.119.509.6.829.56.359.999.81.999 1.479 0 .969-.659 1.438-1.459 1.438-.351 0-.739-.109-.95-.279l.19-.579zm3.559-1.549c.01 1.489.59 1.799 1.139 1.799.34 0 .61-.08.801-.18l.129.56c-.27.15-.68.229-1.069.229-1.149 0-1.749-.939-1.749-2.429 0-1.568.66-2.548 1.629-2.548.98 0 1.38 1.039 1.38 2.129 0 .189-.011.319-.021.439h-2.239zm1.52-.569c.01-.97-.351-1.399-.721-1.399-.499 0-.759.739-.789 1.399h1.51z"/><path fill="none" stroke="#0071bc" d="M329.943 75.166c7.57 2.613-2.728 16.236 4.396 18.271-7.123 2.035 3.175 15.658-4.396 18.271" stroke-linejoin="round"/><path d="M342.627 141.752h-2.788v1.599h2.788v1.069h-6.736v-1.069h2.969v-1.599h-2.969v-1.069h6.736v1.069zm-.98 4.6v-1.209h.979v3.488h-.979v-1.209h-5.757v-1.069h5.757zm0 3.88v-1.209h.979v3.488h-.979v-1.209h-5.757v-1.069h5.757zm.88 3.01c.079.34.13.779.13 1.249 0 .71-.13 1.29-.51 1.689-.34.36-.859.54-1.439.54-.68 0-1.14-.19-1.499-.5-.47-.399-.7-1.049-.7-1.619 0-.11 0-.2.011-.3h-2.629v-1.059h6.636zm-3.129 1.059c-.02.08-.02.15-.02.26 0 .699.479 1.089 1.249 1.089.63 0 1.159-.26 1.159-.979 0-.15-.02-.28-.05-.37h-2.338zm-.599 8.29h-.59v-2.189h.59v2.189zm2.808 3.75v-.02l-.619-1.079.6-.15.799 1.369v.629h-6.496v-.75h5.716zm0 3.85v-.02l-.619-1.079.6-.15.799 1.369v.629h-6.496v-.75h5.716zm.21 5.16c0-.13-.02-.28-.06-.46-.271-1.08-1.35-1.509-2.349-1.669v.03c.369.25.619.61.619 1.1 0 .819-.76 1.399-1.999 1.399-1.229 0-2.219-.56-2.219-1.599 0-1.139 1.149-1.709 2.648-1.709 1.26 0 2.229.33 2.929.839.55.39.899 1.01 1.02 1.58.04.2.05.37.06.49h-.649zm-5.407-1.19c0 .43.43.819 1.56.819.979 0 1.469-.35 1.469-.87 0-.33-.21-.66-.699-.849-.061-.02-.2-.05-.39-.05-1.33.01-1.939.41-1.939.939v.011zm3.069 3.961c.569 0 .859-.03 1.249-.04v.68l-.589.04v.02c.39.21.669.57.669 1.08 0 .45-.21.839-.729 1.02v.02c.24.13.43.3.55.47.12.2.18.419.18.669 0 .66-.47 1.169-1.709 1.169h-3.208v-.77h3.038c.63 0 1.239-.09 1.239-.67 0-.32-.27-.6-.729-.709-.12-.03-.27-.03-.43-.03h-3.118v-.77h3.179c.529 0 1.099-.09 1.099-.66 0-.32-.27-.63-.789-.72-.12-.02-.26-.03-.41-.03h-3.078v-.77h3.586zm-2.789 6.07c-.11.17-.25.47-.25.78 0 .43.27.709.699.709.37 0 .63-.13.95-.62.409-.63.829-.969 1.379-.969.789 0 1.339.58 1.339 1.329 0 .38-.119.66-.25.859l-.579-.2c.13-.19.22-.39.22-.65 0-.41-.3-.62-.62-.62-.319 0-.509.12-.829.6-.359.56-.81 1-1.479 1-.969 0-1.438-.66-1.438-1.459 0-.35.109-.74.279-.95l.579.191z"/><path fill="none" stroke="#009245" d="M329.943 115.168c7.57 6.896-2.728 42.845 4.396 48.215-7.123 5.371 3.175 41.319-4.396 48.215" stroke-linejoin="round"/><path fill="#f7931e" fill-rule="evenodd" d="M231.714 137.584h8.305v30.687h-8.305z" clip-rule="evenodd"/><path fill="none" stroke="#000" d="M231.714 137.584h8.305v30.687h-8.305z" stroke-linecap="round" stroke-linejoin="round"/><path d="M155.21 154.636c.136.088.376.2.624.2.344 0 .567-.216.567-.56 0-.296-.104-.504-.496-.76-.504-.328-.775-.664-.775-1.104 0-.632.463-1.071 1.063-1.071.304 0 .528.096.688.199l-.16.464a.884.884 0 0 0-.52-.176c-.328 0-.496.24-.496.496s.096.407.479.663c.448.288.8.648.8 1.184 0 .775-.528 1.151-1.167 1.151-.28 0-.592-.088-.76-.224l.153-.462zm2.848-1.24c.008 1.191.472 1.439.912 1.439.272 0 .488-.064.64-.145l.104.448c-.216.12-.543.184-.855.184-.919 0-1.399-.752-1.399-1.942 0-1.256.528-2.039 1.304-2.039.783 0 1.103.831 1.103 1.703 0 .151-.008.256-.016.352h-1.793zm1.215-.456c.008-.775-.28-1.119-.576-1.119-.399 0-.607.592-.631 1.119h1.207zm1.249-.535c0-.328-.024-.712-.032-1h.552l.032.607h.016c.128-.367.456-.671.815-.671.048 0 .088 0 .128.008v.632c-.04-.008-.08-.008-.128-.008-.392 0-.68.359-.744.807a2.295 2.295 0 0 0-.024.353v2.143h-.616v-2.871zm2.512-1l.488 2.175c.056.264.12.608.168.943h.024c.04-.319.104-.647.16-.943l.48-2.175h.607l-1.015 3.87h-.544l-1.007-3.87h.639zm2.791 1.991c.008 1.191.472 1.439.912 1.439.272 0 .488-.064.64-.145l.104.448c-.216.12-.543.184-.855.184-.919 0-1.399-.752-1.399-1.942 0-1.256.528-2.039 1.304-2.039.783 0 1.103.831 1.103 1.703 0 .151-.008.256-.016.352h-1.793zm1.216-.456c.008-.775-.28-1.119-.576-1.119-.399 0-.607.592-.631 1.119h1.207zm1.249-.535c0-.328-.024-.712-.032-1h.552l.032.607h.016c.128-.367.456-.671.815-.671.048 0 .088 0 .128.008v.632c-.04-.008-.08-.008-.128-.008-.392 0-.68.359-.744.807a2.295 2.295 0 0 0-.024.353v2.143h-.616v-2.871zm3.239.208c0-.592-.024-.936-.032-1.208h.552l.032.488h.016c.208-.408.52-.552.816-.552.68 0 1.119.711 1.119 1.99 0 1.439-.591 2.007-1.191 2.007-.368 0-.576-.224-.679-.439h-.016v1.911h-.616v-4.197zm.616 1.247c0 .111.008.224.032.319.12.552.392.647.56.647.512 0 .68-.703.68-1.479 0-.808-.192-1.479-.68-1.479-.28 0-.536.352-.567.704-.024.096-.024.191-.024.296v.992zm2.577-1.455c0-.328-.024-.712-.032-1h.552l.032.607h.016c.128-.367.456-.671.815-.671.049 0 .088 0 .129.008v.632c-.041-.008-.08-.008-.129-.008-.392 0-.68.359-.743.807a2.295 2.295 0 0 0-.024.353v2.143h-.616v-2.871zm2.966 2.934c-.695 0-1.256-.631-1.256-1.99 0-1.415.633-2.007 1.296-2.007.696 0 1.247.64 1.247 1.99 0 1.504-.688 2.007-1.279 2.007h-.008zm.033-.487c.527 0 .64-.903.64-1.511 0-.6-.112-1.512-.656-1.512-.551 0-.655.912-.655 1.512 0 .64.112 1.511.663 1.511h.008zm3.831.328c-.136.08-.367.144-.639.144-.848 0-1.416-.68-1.416-1.959 0-1.111.561-2.015 1.527-2.015.208 0 .432.056.544.128l-.12.496c-.08-.04-.24-.104-.439-.104-.624 0-.896.735-.896 1.495 0 .903.344 1.447.912 1.447.16 0 .304-.032.439-.104l.088.472zm.913-1.784c.009 1.191.472 1.439.911 1.439.272 0 .488-.064.641-.145l.104.448c-.216.12-.543.184-.855.184-.92 0-1.399-.752-1.399-1.942 0-1.256.528-2.039 1.304-2.039.783 0 1.104.831 1.104 1.703 0 .151-.008.256-.017.352h-1.793zm1.216-.456c.008-.775-.28-1.119-.576-1.119-.399 0-.607.592-.631 1.119h1.207zm1.152 1.696c.137.088.376.2.624.2.344 0 .567-.216.567-.56 0-.296-.104-.504-.496-.76-.504-.328-.775-.664-.775-1.104 0-.632.464-1.071 1.063-1.071.304 0 .528.096.688.199l-.16.464a.884.884 0 0 0-.52-.176c-.328 0-.496.24-.496.496s.096.407.479.663c.448.288.8.648.8 1.184 0 .775-.527 1.151-1.168 1.151-.279 0-.592-.088-.76-.224l.154-.462zm2.313 0c.136.088.375.2.623.2.344 0 .568-.216.568-.56 0-.296-.104-.504-.496-.76-.504-.328-.775-.664-.775-1.104 0-.632.463-1.071 1.063-1.071.304 0 .527.096.688.199l-.16.464a.881.881 0 0 0-.52-.176c-.328 0-.495.24-.495.496s.096.407.479.663c.448.288.801.648.801 1.184 0 .775-.528 1.151-1.168 1.151-.279 0-.592-.088-.76-.224l.152-.462zm2.703-3.83c-.2 0-.352-.16-.352-.399 0-.24.16-.4.359-.4.225 0 .367.16.367.4 0 .239-.143.399-.367.399h-.007zm-.288 4.469v-3.87h.616v3.87h-.616zm1.471-2.87c0-.456-.023-.688-.031-1h.535l.032.464h.017a.98.98 0 0 1 .887-.527c.536 0 .936.392.936 1.335v2.599h-.615v-2.495c0-.463-.088-.919-.535-.919-.256 0-.504.216-.576.632a1.395 1.395 0 0 0-.032.344v2.438h-.616v-2.871zm5.575 2.374c0 1.016-.128 1.399-.384 1.688-.24.256-.6.407-1.031.407-.328 0-.648-.079-.848-.191l.144-.479c.152.08.408.168.712.168.488 0 .791-.304.791-1.184v-.392h-.016a.776.776 0 0 1-.735.472c-.688 0-1.136-.775-1.136-1.911 0-1.432.64-2.015 1.215-2.015.408 0 .601.271.721.495h.016l.031-.432h.553c-.008.264-.032.607-.032 1.208v2.166zm-.616-2.038c0-.104-.008-.2-.031-.288-.064-.256-.208-.584-.561-.584-.439 0-.68.6-.68 1.455 0 .991.312 1.439.68 1.439.192 0 .432-.088.553-.552.039-.12.039-.24.039-.352v-1.118zm1.834-.336c-.225 0-.393-.185-.393-.448s.176-.456.4-.456c.24 0 .399.185.399.456 0 .264-.144.448-.399.448h-.007zm0 2.934c-.225 0-.393-.184-.393-.447s.176-.456.4-.456c.24 0 .399.185.399.456 0 .264-.144.447-.399.447h-.007zm3.887-.064v-1.439h-1.727v-.415l1.687-3.343h.6v3.254h.56v.504h-.56v1.439h-.56zm0-1.943v-1.463c0-.359.023-.68.048-1.023h-.032a22.25 22.25 0 0 1-.439.976l-.72 1.495v.016h1.143zm2.721 2.007c-.809 0-1.296-.959-1.296-2.654 0-1.751.52-2.67 1.367-2.67.84 0 1.279.999 1.279 2.654 0 1.895-.6 2.67-1.343 2.67h-.007zm.039-.527c.496 0 .695-.888.695-2.135 0-1.215-.199-2.135-.695-2.135-.504 0-.719.88-.719 2.135-.008 1.256.207 2.135.711 2.135h.008zm5.4-3.798v1.903h1.838v.439h-1.838v1.919h-.457v-1.919h-1.83v-.439h1.83v-1.903h.457zm3.664 4.261v-.399l.432-.592c.624-.863 1.352-1.839 1.352-2.814 0-.576-.248-.928-.735-.928-.376 0-.624.2-.751.288l-.152-.464a1.625 1.625 0 0 1 1.016-.352c.863 0 1.239.64 1.239 1.423 0 .976-.64 1.927-1.288 2.799l-.344.479v.016h1.728v.544h-2.497zm4.336.064c-.809 0-1.296-.959-1.296-2.654 0-1.751.52-2.67 1.367-2.67.84 0 1.279.999 1.279 2.654 0 1.895-.6 2.67-1.343 2.67h-.007zm.039-.527c.496 0 .695-.888.695-2.135 0-1.215-.199-2.135-.695-2.135-.504 0-.719.88-.719 2.135-.008 1.256.207 2.135.711 2.135h.008zm3.217-2.407c0-.456-.023-.688-.031-1h.543l.032.472h.016c.168-.312.456-.535.864-.535.359 0 .671.168.814.583h.017c.104-.191.239-.344.376-.439.16-.096.336-.144.535-.144.528 0 .936.376.936 1.367v2.566h-.615v-2.431c0-.504-.072-.991-.535-.991-.256 0-.48.216-.568.583-.023.097-.023.217-.023.344v2.495h-.616v-2.543c0-.424-.071-.879-.528-.879-.256 0-.503.216-.575.632a2.02 2.02 0 0 0-.024.327v2.463h-.615v-2.87zm4.855 2.231c.137.088.377.2.625.2.344 0 .566-.216.566-.56 0-.296-.104-.504-.495-.76-.504-.328-.775-.664-.775-1.104 0-.632.464-1.071 1.063-1.071.304 0 .527.096.688.199l-.16.464a.884.884 0 0 0-.52-.176c-.328 0-.496.24-.496.496s.096.407.48.663c.447.288.799.648.799 1.184 0 .775-.527 1.151-1.167 1.151-.28 0-.592-.088-.76-.224l.152-.462zm12.127 56.248v-.399l.432-.592c.623-.863 1.352-1.839 1.352-2.814 0-.576-.248-.928-.736-.928-.376 0-.623.2-.752.288l-.151-.464a1.627 1.627 0 0 1 1.015-.352c.864 0 1.24.64 1.24 1.423 0 .976-.64 1.927-1.287 2.799l-.344.479v.016h1.727v.544h-2.496zm3.08 0v-.399l.432-.592c.623-.863 1.352-1.839 1.352-2.814 0-.576-.248-.928-.736-.928-.376 0-.623.2-.752.288l-.151-.464a1.627 1.627 0 0 1 1.015-.352c.864 0 1.24.64 1.24 1.423 0 .976-.64 1.927-1.287 2.799l-.344.479v.016h1.727v.544h-2.496zm4.422-5.261c.744 0 1.12.623 1.12 1.223 0 .456-.216.896-.696 1.231v.017c.48.327.832.791.832 1.423 0 .808-.535 1.431-1.336 1.431-.863 0-1.295-.688-1.295-1.327 0-.735.432-1.199.855-1.495l-.008-.016c-.432-.296-.68-.752-.68-1.191 0-.8.568-1.295 1.199-1.295h.009zm-.055 4.869c.384 0 .704-.288.704-.943 0-.6-.344-.936-.744-1.199a1.389 1.389 0 0 0-.672 1.167c0 .584.264.976.704.976h.008zm.016-4.414c-.344 0-.576.328-.576.8 0 .527.32.792.64.999.312-.224.512-.567.512-.959 0-.504-.2-.84-.567-.84h-.009zm3.208 1.936c0-.456-.024-.688-.032-1h.544l.032.472h.016c.168-.312.456-.535.863-.535.36 0 .672.168.816.583h.016c.104-.191.24-.344.376-.439a1.01 1.01 0 0 1 .536-.144c.527 0 .936.376.936 1.367v2.566h-.616v-2.431c0-.504-.072-.991-.536-.991-.256 0-.479.216-.567.583-.024.097-.024.217-.024.344v2.495h-.615v-2.543c0-.424-.072-.879-.527-.879-.256 0-.504.216-.576.632a2.028 2.028 0 0 0-.023.327v2.463h-.616v-2.87zm4.857 2.23c.136.088.375.2.623.2.344 0 .568-.216.568-.56 0-.296-.104-.504-.496-.76-.504-.328-.775-.664-.775-1.104 0-.632.463-1.071 1.063-1.071.304 0 .527.096.688.199l-.16.464a.881.881 0 0 0-.52-.176c-.328 0-.495.24-.495.496s.096.407.479.663c.448.288.801.648.801 1.184 0 .775-.528 1.151-1.168 1.151-.279 0-.592-.088-.76-.224l.152-.462zm-237.226 1.048c-.18.08-.459.14-.79.14-.969 0-1.319-.789-1.319-1.729 0-1.409.83-3.238 2.409-3.238.21 0 .38.03.48.08l-.19.619c-.1-.029-.21-.069-.36-.069-1.009 0-1.599 1.438-1.599 2.528 0 .71.21 1.189.77 1.189.19 0 .4-.05.59-.12l.009.6zm.601.081l1.299-6.916h.73l-1.319 6.916h-.71zm5.198-3.338c0 1.219-.6 3.418-2.079 3.418-.9 0-1.18-.779-1.18-1.64 0-1.299.7-3.357 2.139-3.357.971 0 1.12.928 1.12 1.579zm-2.528 1.709c0 .55.04 1.119.549 1.119.88 0 1.25-2.059 1.25-2.878 0-.5-.09-.93-.51-.93-.799 0-1.289 1.739-1.289 2.689zm2.83.879c.15.101.39.23.75.23.49-.01.78-.36.78-.819 0-.43-.21-.69-.49-.939-.33-.3-.629-.72-.629-1.18 0-.819.6-1.459 1.509-1.459.32 0 .6.08.75.189l-.2.55c-.14-.08-.36-.149-.56-.149-.5 0-.78.329-.78.749 0 .38.22.6.45.81.38.33.68.779.68 1.27 0 1.039-.68 1.559-1.579 1.559-.38 0-.759-.149-.899-.26l.218-.551zm5.459.509c-.35.19-.72.3-1.139.3-1.02 0-1.35-.779-1.35-1.709 0-1.309.73-3.268 2.109-3.268.709 0 1 .539 1 1.099 0 1.17-1.04 1.67-2.359 1.68-.02.14-.05.68.03.97.11.409.36.629.74.629.379 0 .64-.13.859-.26l.11.559zm-.49-4.057c-.43 0-.89.53-1.149 1.579.77-.01 1.579-.27 1.579-1.049 0-.34-.14-.53-.43-.53zm4.959 4.217c-.18.08-.459.14-.79.14-.969 0-1.319-.789-1.319-1.729 0-1.409.83-3.238 2.409-3.238.21 0 .38.03.48.08l-.19.619c-.1-.029-.21-.069-.36-.069-1.009 0-1.599 1.438-1.599 2.528 0 .71.21 1.189.77 1.189.19 0 .4-.05.59-.12l.009.6zm3.86-3.257c0 1.219-.6 3.418-2.079 3.418-.899 0-1.18-.779-1.18-1.64 0-1.299.7-3.357 2.139-3.357.97 0 1.12.928 1.12 1.579zm-2.529 1.709c0 .55.04 1.119.549 1.119.88 0 1.25-2.059 1.25-2.878 0-.5-.09-.93-.51-.93-.799 0-1.289 1.739-1.289 2.689zm2.811 1.629l.59-3.179c.14-.699.21-1.269.26-1.658h.63l-.08.77h.02c.39-.59.81-.85 1.299-.85.6 0 .83.47.83.979 0 .279-.04.51-.09.789l-.59 3.148h-.72l.59-3.139c.04-.22.07-.419.07-.669 0-.29-.12-.49-.42-.49-.45 0-.989.689-1.169 1.609l-.51 2.688h-.71zm3.93 0l.59-3.179c.14-.699.21-1.269.26-1.658h.63l-.08.77h.02c.39-.59.81-.85 1.299-.85.6 0 .83.47.83.979 0 .279-.04.51-.09.789l-.59 3.148h-.72l.59-3.139c.04-.22.07-.419.07-.669 0-.29-.12-.49-.42-.49-.45 0-.989.689-1.169 1.609l-.51 2.688h-.71zm6.588-.241c-.35.19-.72.3-1.139.3-1.02 0-1.35-.779-1.35-1.709 0-1.309.73-3.268 2.109-3.268.71 0 1 .539 1 1.099 0 1.17-1.04 1.67-2.359 1.68-.02.14-.05.68.03.97.11.409.36.629.74.629.379 0 .64-.13.859-.26l.11.559zm-.49-4.057c-.43 0-.89.53-1.149 1.579.77-.01 1.579-.27 1.579-1.049 0-.34-.14-.53-.43-.53zm3.49 4.217c-.18.08-.459.14-.79.14-.969 0-1.319-.789-1.319-1.729 0-1.409.83-3.238 2.409-3.238.21 0 .38.03.48.08l-.19.619c-.1-.029-.21-.069-.36-.069-1.009 0-1.599 1.438-1.599 2.528 0 .71.21 1.189.77 1.189.19 0 .4-.05.59-.12l.009.6zm2.72-6.026l-.26 1.27h.919l-.11.56h-.91l-.52 2.758c-.05.26-.07.48-.07.61 0 .239.09.369.33.369.13 0 .21 0 .3-.02l-.06.56c-.17.05-.36.07-.52.07-.51 0-.81-.3-.81-.78 0-.189.02-.39.1-.779l.529-2.788h-.58l.1-.56h.59l.2-1.05.772-.22zm.401 6.107l.919-4.837h.72l-.929 4.837h-.71zm1.09-6.067c.01-.26.21-.51.48-.51.28 0 .41.21.39.47-.02.33-.24.51-.5.51s-.4-.191-.37-.47zm4.108 2.729c0 1.219-.6 3.418-2.079 3.418-.9 0-1.18-.779-1.18-1.64 0-1.299.7-3.357 2.139-3.357.971 0 1.12.928 1.12 1.579zm-2.528 1.709c0 .55.04 1.119.549 1.119.88 0 1.25-2.059 1.25-2.878 0-.5-.09-.93-.51-.93-.799 0-1.289 1.739-1.289 2.689zm2.81 1.629l.59-3.179c.14-.699.21-1.269.26-1.658h.63l-.08.77h.02c.39-.59.81-.85 1.299-.85.6 0 .83.47.83.979 0 .279-.04.51-.09.789l-.59 3.148h-.72l.59-3.139c.04-.22.07-.419.07-.669 0-.29-.12-.49-.42-.49-.45 0-.989.689-1.169 1.609l-.51 2.688h-.71zm216.519-22.121c-.21.11-.55.18-.97.18-1.309 0-2.258-1.049-2.258-3.338 0-2.668 1.318-3.518 2.389-3.518.399 0 .699.08.829.17l-.17.649c-.16-.07-.319-.14-.669-.14-.721 0-1.57.699-1.57 2.758 0 2.069.76 2.738 1.59 2.738.289 0 .539-.069.699-.14l.13.641zm.632-.769c.23.14.63.27.97.27.699 0 1.119-.459 1.119-1.139 0-.62-.36-1-.89-1.399-.529-.37-1.27-.999-1.27-1.869 0-1.02.721-1.769 1.779-1.769.42 0 .789.14.949.249l-.189.66a1.407 1.407 0 0 0-.8-.229c-.659 0-.97.499-.97.959 0 .67.35.939.99 1.39.809.569 1.169 1.189 1.169 1.938 0 1.159-.819 1.889-1.889 1.889-.46 0-.95-.149-1.14-.3l.172-.65zm3.609 0c.23.14.631.27.971.27.699 0 1.119-.459 1.119-1.139 0-.62-.36-1-.891-1.399-.529-.37-1.269-.999-1.269-1.869 0-1.02.72-1.769 1.778-1.769.42 0 .79.14.95.249l-.19.66a1.406 1.406 0 0 0-.799-.229c-.66 0-.97.499-.97.959 0 .67.35.939.989 1.39.81.569 1.17 1.189 1.17 1.938 0 1.159-.82 1.889-1.889 1.889-.461 0-.95-.149-1.141-.3l.172-.65zm5.26-2.698c0-.41-.029-.89-.039-1.249h.689l.039.759h.021c.16-.459.569-.839 1.02-.839.06 0 .11 0 .159.01v.789c-.049-.01-.1-.01-.159-.01-.489 0-.85.45-.93 1.01-.021.13-.03.27-.03.439v2.679h-.77v-3.588zm2.89 1.239c.01 1.489.589 1.799 1.139 1.799.34 0 .609-.08.8-.18l.13.56c-.27.15-.68.229-1.069.229-1.149 0-1.749-.939-1.749-2.429 0-1.568.659-2.548 1.629-2.548.979 0 1.379 1.039 1.379 2.129 0 .189-.01.319-.02.439h-2.239zm1.519-.569c.01-.97-.351-1.399-.72-1.399-.5 0-.76.739-.789 1.399h1.509zm1.441 2.118c.17.11.47.25.78.25.43 0 .709-.27.709-.699 0-.37-.13-.63-.619-.95-.631-.409-.97-.829-.97-1.379 0-.789.579-1.339 1.329-1.339.38 0 .66.119.859.25l-.199.579c-.19-.13-.391-.22-.65-.22-.41 0-.619.3-.619.62 0 .319.119.509.6.829.56.359.999.81.999 1.479 0 .969-.659 1.438-1.459 1.438-.351 0-.739-.109-.95-.279l.19-.579zm3.01-2.529c0-.739-.03-1.169-.04-1.509h.689l.04.609h.021c.26-.51.649-.689 1.02-.689.85 0 1.398.89 1.398 2.488 0 1.799-.739 2.509-1.488 2.509-.461 0-.721-.28-.85-.55h-.021v2.389h-.77v-5.247zm.77 1.56c0 .14.01.279.04.399.15.689.49.81.699.81.641 0 .85-.88.85-1.849 0-1.01-.24-1.85-.85-1.85-.35 0-.67.439-.709.88-.03.12-.03.239-.03.369v1.241zm4.588 1.849c-.869 0-1.568-.79-1.568-2.488 0-1.77.789-2.509 1.619-2.509.869 0 1.559.799 1.559 2.488 0 1.879-.859 2.509-1.599 2.509h-.011zm.041-.61c.659 0 .799-1.13.799-1.89 0-.749-.14-1.889-.819-1.889-.689 0-.819 1.14-.819 1.889 0 .8.14 1.89.829 1.89h.01zm2.43-3.058c0-.569-.029-.859-.039-1.249h.67l.039.579h.021c.21-.39.6-.659 1.109-.659.669 0 1.169.489 1.169 1.669v3.248h-.77v-3.118c0-.58-.109-1.149-.67-1.149-.319 0-.629.27-.719.789-.03.11-.041.261-.041.431v3.048h-.77v-3.589zm3.92 2.788c.17.11.471.25.78.25.43 0 .71-.27.71-.699 0-.37-.131-.63-.62-.95-.63-.409-.97-.829-.97-1.379 0-.789.58-1.339 1.33-1.339.379 0 .659.119.859.25l-.2.579c-.19-.13-.39-.22-.649-.22-.41 0-.62.3-.62.62 0 .319.12.509.6.829.56.359.999.81.999 1.479 0 .969-.659 1.438-1.459 1.438-.35 0-.739-.109-.949-.279l.189-.579zm3.561-1.549c.01 1.489.59 1.799 1.139 1.799.34 0 .61-.08.801-.18l.129.56c-.27.15-.68.229-1.069.229-1.149 0-1.749-.939-1.749-2.429 0-1.568.66-2.548 1.629-2.548.98 0 1.38 1.039 1.38 2.129 0 .189-.011.319-.021.439h-2.239zm1.519-.569c.01-.97-.351-1.399-.721-1.399-.499 0-.759.739-.789 1.399h1.51z"/><path fill="#f7931e" fill-rule="evenodd" d="M231.714 168.271h8.305v17.691h-8.305z" clip-rule="evenodd"/><path fill="none" stroke="#000" d="M231.714 168.271h8.305v17.691h-8.305z" stroke-linecap="round" stroke-linejoin="round"/></svg>