<svg xmlns="http://www.w3.org/2000/svg" viewBox="0 0 315.298 56.687"><path fill="none" stroke="#000" d="M221.274 33.913V54.02m-160-20.107V54.02" stroke-dasharray="1 1"/><path fill="none" stroke="#000" d="M267.024 33.686H66.641" stroke-linecap="round" stroke-linejoin="round"/><path d="M67.516 30.685l-5.182 2.992 5.182 2.991z"/><path fill="none" stroke="#c1272d" d="M216.274 53.686H66.641" stroke-linecap="round" stroke-linejoin="round"/><path fill="#c1272d" d="M67.516 50.685l-5.182 2.992 5.182 2.991zm147.883 6.002l5.181-2.992-5.181-2.991z"/><path fill="none" stroke="#000" d="M50.642 18.686h202.383" stroke-linecap="round" stroke-linejoin="round"/><path d="M252.15 21.687l5.181-2.992-5.181-2.991z"/><path fill="#ccc" d="M44.168 43.79v1.308L23.024 32.986v-1.307z"/><path fill="gray" d="M44.168 43.79l14.731-8.379v1.308L44.168 45.1z"/><path fill="#fff" d="M23.024 31.681l14.709-8.43 21.166 12.16-14.731 8.379z"/><path fill="#999" d="M60.948 16.403l.988-.562-2.061 18.965-.99.564zM45.999 40.506v.254L28.125 30.523v-.252z"/><path fill="#b3b3b3" d="M45.999 40.506l10.123-5.758v.254l-10.123 5.76z"/><path fill="#e6e6e6" d="M28.125 30.272l10.108-5.8 17.889 10.276-10.123 5.758zm2.571 5.476l2.902-1.666 5.135 2.951-2.906 1.653zm30.252-19.345l-2.063 18.965-21.144-12.112 2.06-18.964z"/><path fill="#0071bc" d="M58.043 33.913L38.584 22.767l2.061-17.021 19.459 11.146-2.061 17.021z"/><path fill="#b3b3b3" d="M39.801 4.293l.971-.611 21.164 12.159-.988.562z"/><path fill="none" stroke="#000" d="M59.875 34.806l2.061-18.965L40.772 3.682l-.969.61h-.002l-2.06 18.963-.008-.004-14.707 8.428h-.002v1.307l21.144 12.112v.002l14.731-8.381v-1.308l-.014-.043v.002z" stroke-linecap="round" stroke-linejoin="round"/><path fill="#b3b3b3" d="M269.108 19.029v29.234l-11.484-7.06V11.965z"/><path fill="#333" d="M266.979 19.947v3.491L258.79 18.4v-3.492zm0 11.77v3.486l-8.189-5.037v-3.488z"/><path fill="#e6e6e6" d="M266.979 27.33v1.008l-8.189-5.035v-1.014z"/><path fill="#333" d="M266.979 36.672v3.486l-8.189-5.035v-3.49zm0 4.953v3.489l-8.189-5.038v-3.488z"/><path fill="gray" d="M269.102 19.047l18.204-11.483v29.237l-18.204 11.481z"/><path fill="#999" d="M257.649 11.982L275.874.5l11.461 7.061-18.205 11.482z"/><path fill="#009245" d="M259.065 18.879c.18.105.318.365.318.582 0 .211-.141.303-.318.191a.744.744 0 0 1-.312-.582c0-.216.14-.299.312-.191"/><path fill="#c1272d" d="M259.835 19.354c.178.107.316.369.316.586 0 .211-.147.299-.318.191-.176-.105-.316-.367-.316-.582 0-.217.142-.305.318-.195"/><path fill="#009245" d="M260.602 19.818a.76.76 0 0 1 .316.582c0 .217-.144.303-.318.195-.178-.107-.316-.373-.316-.588 0-.21.141-.296.318-.189"/><path fill="#c1272d" d="M261.368 20.291c.176.107.314.367.314.584-.002.211-.143.299-.32.189-.172-.105-.315-.369-.315-.582.001-.214.145-.302.321-.191m.775.475a.74.74 0 0 1 .316.584c0 .215-.141.303-.318.191a.755.755 0 0 1-.312-.582c0-.213.141-.301.314-.193"/><path fill="#009245" d="M262.911 21.244c.178.105.316.367.316.582 0 .215-.141.301-.318.193-.174-.106-.316-.367-.316-.584 0-.212.142-.302.318-.191m.768.461a.75.75 0 0 1 .315.584c0 .219-.143.303-.315.193-.178-.107-.318-.369-.318-.584-.001-.213.142-.3.318-.193m.767.475c.172.105.312.365.312.582 0 .217-.141.299-.318.191a.74.74 0 0 1-.312-.582c0-.217.143-.305.318-.191"/><path fill="#c1272d" d="M259.065 20.014c.18.106.318.369.318.584 0 .213-.141.297-.318.193a.746.746 0 0 1-.312-.586c0-.215.14-.299.312-.191m.77.474c.178.109.316.369.316.586 0 .213-.147.303-.318.193-.176-.109-.316-.373-.316-.586 0-.214.142-.298.318-.193"/><path fill="#009245" d="M260.602 20.953c.172.104.316.373.316.582 0 .217-.144.303-.318.197-.178-.109-.316-.371-.316-.588 0-.212.141-.298.318-.191"/><path fill="#c1272d" d="M261.368 21.426c.176.105.314.367.314.584-.002.211-.143.299-.32.193a.775.775 0 0 1-.315-.584c.001-.217.145-.305.321-.193"/><path fill="#009245" d="M262.143 21.9a.742.742 0 0 1 .316.582c0 .217-.141.305-.318.197-.172-.108-.312-.371-.312-.584 0-.214.141-.302.314-.195"/><path fill="#c1272d" d="M262.911 22.375c.178.107.316.375.316.586 0 .217-.141.301-.318.195a.757.757 0 0 1-.316-.584c0-.215.142-.302.318-.197"/><path fill="#009245" d="M263.679 22.84a.764.764 0 0 1 .315.586c0 .217-.143.303-.315.191-.178-.104-.318-.367-.318-.582-.001-.215.142-.303.318-.195"/><path fill="#c1272d" d="M264.446 23.31a.766.766 0 0 1 .312.586c0 .217-.141.299-.318.195a.757.757 0 0 1-.312-.584c0-.218.143-.3.318-.197"/><path fill="#009245" d="M265.038 28.193c.178.108.32.367.32.586 0 .211-.145.299-.32.193a.762.762 0 0 1-.316-.586c0-.214.14-.3.316-.193m.77.463a.763.763 0 0 1 .312.586c0 .215-.141.299-.312.193a.742.742 0 0 1-.318-.584c-.001-.214.14-.298.318-.195"/><path fill="#c1272d" d="M266.571 29.129c.176.107.316.367.316.584 0 .211-.141.303-.318.193a.744.744 0 0 1-.314-.584c0-.215.142-.304.316-.193m-1.533.201c.178.105.32.367.32.586 0 .213-.145.299-.32.188-.178-.104-.316-.369-.316-.582s.14-.303.316-.192m.77.463a.772.772 0 0 1 .312.582c0 .217-.141.305-.312.193-.18-.105-.318-.369-.318-.582-.001-.216.14-.301.318-.193"/><path fill="#009245" d="M266.571 30.266c.176.104.316.365.316.582 0 .215-.141.303-.318.191a.731.731 0 0 1-.314-.582c0-.213.142-.301.316-.191"/><path fill="none" stroke="#000" d="M287.335 7.561L275.872.5l-18.223 11.482-.025-.017v29.238l11.478 7.06v.019l18.202-11.481V7.58z" stroke-linecap="round" stroke-linejoin="round"/><circle cx="72.48" cy="18.686" r="3.375" fill="#c1272d" stroke="#000" stroke-linecap="round" stroke-linejoin="round"/><circle cx="82.48" cy="18.686" r="3.375" fill="#c1272d" stroke="#000" stroke-linecap="round" stroke-linejoin="round"/><circle cx="92.48" cy="18.686" r="3.375" fill="#c1272d" stroke="#000" stroke-linecap="round" stroke-linejoin="round"/><circle cx="226.274" cy="33.521" r="3.375" fill="#f7931e" stroke="#000" stroke-linecap="round" stroke-linejoin="round"/><circle cx="236.274" cy="33.521" r="3.375" fill="#f7931e" stroke="#000" stroke-linecap="round" stroke-linejoin="round"/><circle cx="246.274" cy="33.521" r="3.375" fill="#f7931e" stroke="#000" stroke-linecap="round" stroke-linejoin="round"/><path d="M.45 33.436c.23.15.63.27.97.27.699 0 1.119-.459 1.119-1.139 0-.62-.36-1-.89-1.399-.529-.37-1.269-.999-1.269-1.869 0-1.02.709-1.769 1.779-1.769.42 0 .79.13.95.249l-.19.66a1.41 1.41 0 0 0-.8-.229c-.66 0-.969.499-.969.959 0 .67.35.93.989 1.39.81.569 1.169 1.189 1.169 1.938 0 1.159-.819 1.889-1.889 1.889-.46 0-.95-.149-1.14-.289l.171-.661zm4.309-1.459c.01 1.479.589 1.799 1.149 1.799.33 0 .609-.08.799-.189l.12.569c-.27.15-.68.229-1.06.229-1.159 0-1.759-.949-1.759-2.429 0-1.568.66-2.548 1.629-2.548.989 0 1.379 1.039 1.379 2.139 0 .18 0 .31-.01.43H4.759zm1.519-.569c.02-.97-.35-1.399-.72-1.399-.5 0-.759.739-.79 1.399h1.51zm1.571-.67c0-.569-.03-.859-.04-1.249h.67l.04.579h.02c.209-.39.6-.659 1.109-.659.669 0 1.169.499 1.169 1.669v3.248h-.77v-3.118c0-.569-.11-1.149-.669-1.149-.32 0-.63.27-.729.789-.02.12-.03.271-.03.431v3.048h-.77v-3.589zm6.959-3.328v5.757c0 .33.03.879.04 1.159h-.66l-.05-.609h-.03c-.16.35-.5.689-1.009.689-.82 0-1.41-.89-1.41-2.479 0-1.72.71-2.519 1.459-2.519.35 0 .689.17.879.579h.02V27.41h.761zm-.76 3.918c0-.101 0-.21-.01-.32-.05-.5-.35-.939-.72-.939-.64 0-.859.89-.859 1.859 0 1.02.26 1.839.819 1.839.24 0 .57-.13.74-.83.02-.09.03-.199.03-.319v-1.29zm2.381.649c.01 1.479.589 1.799 1.149 1.799.33 0 .609-.08.799-.189l.12.569c-.27.15-.68.229-1.06.229-1.159 0-1.759-.949-1.759-2.429 0-1.568.66-2.548 1.629-2.548.989 0 1.379 1.039 1.379 2.139 0 .18 0 .31-.01.43h-2.247zm1.519-.569c.02-.97-.35-1.399-.72-1.399-.5 0-.759.739-.79 1.399h1.51zm1.561-.67c0-.41-.03-.89-.04-1.249h.689l.04.759h.02c.16-.459.57-.839 1.02-.839.06 0 .11.01.16.01v.789c-.05-.01-.1-.01-.16-.01-.49 0-.85.45-.93 1.01-.02.13-.03.279-.03.439v2.679h-.77v-3.588zM64.706 5.629h-1.107v-.621h2.908v.621H65.4v5.446h-.693V5.629zm4.834 5.338c-.189.1-.486.162-.864.162-1.188 0-2.035-.954-2.035-3.016 0-2.395 1.188-3.16 2.143-3.16.369 0 .63.072.756.153l-.153.585a1.339 1.339 0 0 0-.612-.126c-.648 0-1.405.63-1.405 2.485 0 1.854.685 2.466 1.423 2.466.261 0 .495-.062.639-.135l.108.586zm.709-5.869a4.028 4.028 0 0 1 1.008-.117c.558 0 1.026.135 1.341.45.297.288.45.729.45 1.251 0 .559-.135.937-.369 1.242-.332.45-.89.676-1.43.676-.117 0-.207 0-.306-.009v2.484h-.693V5.098zm.694 2.907c.081.019.153.027.27.027.684 0 1.144-.45 1.144-1.306 0-.621-.261-1.179-1.026-1.179-.162 0-.297.018-.387.045v2.413zm4.14 2.351c.153.099.423.225.702.225.396 0 .639-.243.639-.63 0-.333-.117-.559-.558-.855-.567-.369-.873-.738-.873-1.242 0-.702.522-1.207 1.197-1.207.342 0 .603.117.783.226l-.189.522a1.024 1.024 0 0 0-.576-.189.534.534 0 0 0-.567.549c0 .298.108.459.54.757.504.324.9.72.9 1.323 0 .873-.594 1.296-1.305 1.296-.324 0-.675-.099-.864-.252l.171-.523zm3.203-1.396c.009 1.332.531 1.62 1.036 1.62.297 0 .549-.072.72-.171l.108.513c-.243.136-.612.207-.955.207-1.044 0-1.584-.854-1.584-2.188 0-1.413.594-2.296 1.468-2.296.891 0 1.242.937 1.242 1.927 0 .162 0 .279-.009.388h-2.026zm1.369-.513c.018-.873-.315-1.261-.648-1.261-.45 0-.684.667-.711 1.261h1.359zm4.077-1.729c-.009.307-.036.693-.036 1.359v2.439c0 1.144-.144 1.576-.432 1.891-.261.298-.675.469-1.161.469-.369 0-.729-.09-.954-.216l.162-.541c.171.091.459.189.811.189.549 0 .891-.342.891-1.332v-.441h-.018a.886.886 0 0 1-.837.531c-.774 0-1.279-.873-1.279-2.152 0-1.602.729-2.269 1.369-2.269.468 0 .684.307.81.567h.018l.036-.495h.62zm-.72 1.504a1.16 1.16 0 0 0-.036-.315c-.081-.297-.234-.666-.63-.666-.504 0-.774.675-.774 1.639 0 1.116.351 1.62.774 1.62.207 0 .477-.099.621-.621.036-.135.045-.271.045-.396V8.222zm1.646-.379c0-.513-.027-.773-.036-1.125h.603l.036.54h.018c.189-.351.522-.612.981-.612.405 0 .747.198.909.667h.018a1.37 1.37 0 0 1 .432-.495c.171-.117.378-.172.603-.172.585 0 1.044.433 1.044 1.54v2.89h-.685V8.348c0-.567-.081-1.116-.612-1.116-.288 0-.541.243-.639.647a2.65 2.65 0 0 0-.027.396v2.8h-.684V8.222c0-.486-.09-.99-.603-.99-.279 0-.567.243-.648.702a2.49 2.49 0 0 0-.027.378v2.764h-.684V7.843zm6.066 1.117c.009 1.332.531 1.62 1.036 1.62.297 0 .549-.072.72-.171l.108.513c-.243.136-.612.207-.955.207-1.044 0-1.584-.854-1.584-2.188 0-1.413.594-2.296 1.468-2.296.891 0 1.242.937 1.242 1.927 0 .162 0 .279-.009.388h-2.026zm1.369-.513c.018-.873-.315-1.261-.648-1.261-.45 0-.684.667-.711 1.261h1.359zm1.412-.604c0-.513-.027-.773-.036-1.125h.603l.036.522h.018c.189-.352.54-.595.999-.595.604 0 1.054.45 1.054 1.504v2.926h-.693V8.267c0-.514-.099-1.035-.603-1.035-.288 0-.567.243-.657.711a2.445 2.445 0 0 0-.027.387v2.746h-.693V7.843zm4.437-2.277v1.152h.837v.531h-.837v2.584c0 .567.207.72.459.72.108 0 .198-.009.279-.026l.027.531a1.522 1.522 0 0 1-.513.071c-.27 0-.513-.071-.684-.261-.171-.198-.261-.495-.261-1.099v-2.52h-.531v-.531h.531v-.954l.693-.198zm1.332 4.79c.153.099.423.225.702.225.396 0 .639-.243.639-.63 0-.333-.117-.559-.558-.855-.567-.369-.873-.738-.873-1.242 0-.702.522-1.207 1.197-1.207.342 0 .603.117.783.226l-.189.522a1.024 1.024 0 0 0-.576-.189.534.534 0 0 0-.567.549c0 .298.108.459.54.757.504.324.9.72.9 1.323 0 .873-.594 1.296-1.305 1.296-.324 0-.675-.099-.864-.252l.171-.523z"/><path fill="#c1272d" d="M131.807 44.013v5.041c0 .36.018.855.036 1.188h-.819l-.063-.522h-.027a1.022 1.022 0 0 1-.909.595c-.855 0-1.333-.928-1.333-2.251 0-1.539.666-2.277 1.377-2.277.36 0 .621.171.765.477h.018v-2.25h.955zm-.955 3.519c0-.081 0-.18-.018-.27-.036-.352-.234-.667-.522-.667-.486 0-.657.693-.657 1.477 0 .883.234 1.45.639 1.45.18 0 .405-.091.522-.55a.84.84 0 0 0 .036-.279v-1.161zm4.509 1.711c0 .342.009.711.054.999h-.864l-.054-.441h-.018c-.225.333-.549.514-.927.514-.63 0-1.107-.522-1.107-1.297 0-1.125.954-1.603 1.944-1.611v-.117c0-.459-.18-.774-.657-.774-.315 0-.576.091-.819.243l-.18-.657c.216-.135.675-.314 1.206-.314 1.134 0 1.422.774 1.422 1.71v1.745zm-.945-1.197c-.378.009-1.053.107-1.053.873 0 .495.261.675.477.675.243 0 .468-.162.549-.504a.857.857 0 0 0 .027-.225v-.819zm2.897-3.277v1.089h.847v.693h-.847v2.278c0 .54.207.675.45.675.108 0 .198-.009.297-.027l.018.748c-.144.045-.36.071-.63.071-.306 0-.585-.081-.774-.27-.216-.217-.324-.531-.324-1.188v-2.287h-.522v-.693h.522v-.756l.963-.333zm4.096 4.474c0 .342.009.711.054.999h-.864l-.054-.441h-.018c-.225.333-.549.514-.928.514-.63 0-1.107-.522-1.107-1.297 0-1.125.954-1.603 1.944-1.611v-.117c0-.459-.18-.774-.657-.774-.315 0-.576.091-.819.243l-.18-.657c.216-.135.675-.314 1.206-.314 1.134 0 1.422.774 1.422 1.71v1.745zm-.945-1.197c-.378.009-1.053.107-1.053.873 0 .495.261.675.477.675.243 0 .468-.162.549-.504a.857.857 0 0 0 .027-.225v-.819zm6.21 1.674c0 1.035-.162 1.513-.486 1.846-.297.307-.738.478-1.305.478-.396 0-.765-.081-1.044-.207l.198-.747c.198.099.477.188.828.188.576 0 .855-.369.855-1.188v-.342h-.018c-.153.306-.459.478-.811.478-.891 0-1.332-.991-1.332-2.144 0-1.53.693-2.295 1.431-2.295.405 0 .657.243.81.54h.018l.054-.469h.846c-.027.36-.045.784-.045 1.378v2.484zm-.954-2.305a1.18 1.18 0 0 0-.045-.324c-.063-.233-.198-.495-.486-.495-.459 0-.675.622-.675 1.45 0 .954.288 1.413.657 1.413.18 0 .387-.09.495-.459a1.02 1.02 0 0 0 .054-.369v-1.216zm4.5 1.828c0 .342.01.711.055.999h-.865l-.054-.441h-.018c-.226.333-.55.514-.928.514-.63 0-1.107-.522-1.107-1.297 0-1.125.954-1.603 1.944-1.611v-.117c0-.459-.18-.774-.657-.774-.315 0-.576.091-.819.243l-.18-.657c.216-.135.675-.314 1.207-.314 1.134 0 1.422.774 1.422 1.71v1.745zm-.946-1.197c-.378.009-1.053.107-1.053.873 0 .495.261.675.477.675.243 0 .469-.162.549-.504a.817.817 0 0 0 .027-.225v-.819zm1.836-.811c0-.594-.018-1.009-.036-1.378h.837l.055.531h.018c.207-.414.54-.603.918-.603.873 0 1.324.936 1.324 2.25 0 1.603-.685 2.278-1.396 2.278-.387 0-.621-.234-.746-.459h-.019v2.115h-.954v-4.734zm.954 1.405c0 .135.019.271.045.369.117.423.343.514.504.514.486 0 .648-.693.648-1.468 0-.873-.207-1.459-.648-1.459-.243 0-.459.271-.513.567-.027.1-.036.207-.036.324v1.153z"/><path d="M225.233 41.879h-1.107v-.621h2.907v.621h-1.107v5.446h-.692v-5.446zm4.833 5.338c-.188.1-.486.162-.864.162-1.188 0-2.035-.954-2.035-3.016 0-2.395 1.189-3.16 2.143-3.16.369 0 .631.072.757.153l-.153.585a1.34 1.34 0 0 0-.611-.126c-.648 0-1.405.63-1.405 2.485 0 1.854.685 2.466 1.423 2.466.261 0 .495-.062.639-.135l.106.586zm.71-5.869a4.028 4.028 0 0 1 1.008-.117c.559 0 1.027.135 1.342.45.297.288.45.729.45 1.251 0 .559-.135.937-.369 1.242-.333.45-.892.676-1.431.676-.117 0-.207 0-.307-.009v2.484h-.693v-5.977zm.694 2.907c.081.019.152.027.27.027.685 0 1.145-.45 1.145-1.306 0-.621-.262-1.179-1.027-1.179-.162 0-.297.018-.387.045v2.413zm5.04 1.252l-.405 1.818h-.666l1.387-6.067h.765l1.351 6.067h-.684l-.406-1.818h-1.342zm1.251-.558l-.314-1.539a31.98 31.98 0 0 1-.244-1.387h-.035c-.072.459-.162.981-.243 1.387l-.315 1.539h1.151zm4.401 2.268c-.188.1-.486.162-.864.162-1.188 0-2.035-.954-2.035-3.016 0-2.395 1.189-3.16 2.143-3.16.369 0 .631.072.757.153l-.153.585a1.34 1.34 0 0 0-.611-.126c-.648 0-1.405.63-1.405 2.485 0 1.854.685 2.466 1.423 2.466.261 0 .495-.062.639-.135l.106.586zm.71-5.959h.693v2.881h.018c.135-.253.262-.495.379-.729l1.134-2.151h.766l-1.485 2.593 1.521 3.475h-.748l-1.242-2.926-.342.585v2.341h-.693v-6.069zm3.465 5.348c.152.099.423.225.702.225.396 0 .64-.243.64-.63 0-.333-.117-.559-.559-.855-.567-.369-.873-.738-.873-1.242 0-.702.521-1.207 1.197-1.207.342 0 .604.117.783.226l-.189.522a1.024 1.024 0 0 0-.576-.189.533.533 0 0 0-.566.549c0 .298.107.459.539.757.505.324.9.72.9 1.323 0 .873-.594 1.296-1.305 1.296-.324 0-.676-.099-.864-.252l.171-.523zm43.962-25.917c.33-.09.729-.13 1.109-.13.67 0 1.169.141 1.519.48.33.34.471.789.471 1.319 0 .859-.4 1.419-1.08 1.729v.021c.5.149.76.629.91 1.509.15.93.289 1.499.379 1.709h-.779c-.1-.2-.229-.84-.359-1.669-.15-.92-.439-1.27-1.1-1.27h-.3v2.938h-.77v-6.636zm.769 3.109h.319c.74 0 1.23-.539 1.23-1.349 0-.78-.32-1.26-1.15-1.27-.149 0-.299.01-.399.04v2.579zm3.8 1.18c.01 1.479.59 1.799 1.15 1.799.329 0 .609-.08.799-.189l.12.569c-.271.15-.68.229-1.06.229-1.159 0-1.76-.949-1.76-2.429 0-1.568.66-2.548 1.63-2.548.989 0 1.38 1.039 1.38 2.139 0 .18 0 .31-.011.43h-2.248zm1.52-.57c.02-.97-.35-1.399-.72-1.399-.499 0-.759.739-.79 1.399h1.51zm3.929 2.798c-.17.101-.46.18-.8.18-1.06 0-1.769-.85-1.769-2.448 0-1.39.699-2.519 1.908-2.519.26 0 .54.07.68.149l-.149.63a1.26 1.26 0 0 0-.55-.13c-.77 0-1.119.92-1.119 1.869 0 1.129.43 1.809 1.139 1.809.211 0 .381-.05.561-.13l.099.59zm1.141-2.228c.01 1.479.59 1.799 1.15 1.799.329 0 .609-.08.799-.189l.12.569c-.271.15-.68.229-1.06.229-1.159 0-1.76-.949-1.76-2.429 0-1.568.66-2.548 1.63-2.548.989 0 1.38 1.039 1.38 2.139 0 .18 0 .31-.011.43h-2.248zm1.52-.57c.02-.97-.35-1.399-.72-1.399-.499 0-.759.739-.79 1.399h1.51zm2.4-3.169c.01.3-.18.5-.47.5-.25 0-.439-.2-.439-.5s.2-.499.45-.499c.279 0 .459.199.459.499zm-.83 6.087v-4.837h.77v4.837h-.77zm2.23-4.837l.609 2.718c.07.33.15.76.21 1.18h.03c.05-.399.13-.81.199-1.18l.6-2.718h.76l-1.26 4.837h-.689l-1.259-4.837h.8zm3.491 2.489c.01 1.479.59 1.799 1.149 1.799.329 0 .609-.08.8-.189l.119.569c-.27.15-.68.229-1.059.229-1.16 0-1.76-.949-1.76-2.429 0-1.568.66-2.548 1.629-2.548.99 0 1.38 1.039 1.38 2.139 0 .18 0 .31-.011.43h-2.247zm1.519-.57c.02-.97-.351-1.399-.721-1.399-.499 0-.76.739-.789 1.399h1.51zm1.561-.67c0-.41-.03-.89-.04-1.249h.689l.04.759h.02c.16-.459.57-.839 1.02-.839.061 0 .11.01.16.01v.789c-.05-.01-.1-.01-.16-.01-.489 0-.85.45-.93 1.01-.02.13-.029.279-.029.439v2.679h-.77v-3.588z"/></svg>