<svg xmlns="http://www.w3.org/2000/svg" viewBox="0 0 342.68 165.271"><path fill="none" stroke="#000" d="M100.086 93.438H276.88" stroke-dasharray="1 1"/><path fill="#ccc" fill-rule="evenodd" d="M336.286 99.664c0 1.98-1.62 3.6-3.6 3.6h-62.707c-1.979 0-3.6-1.62-3.6-3.6V87.211c0-1.98 1.62-3.6 3.6-3.6h62.707c1.979 0 3.6 1.62 3.6 3.6v12.453z" clip-rule="evenodd"/><path fill="none" stroke="#000" d="M336.286 99.664c0 1.98-1.62 3.6-3.6 3.6h-62.707c-1.979 0-3.6-1.62-3.6-3.6V87.211c0-1.98 1.62-3.6 3.6-3.6h62.707c1.979 0 3.6 1.62 3.6 3.6v12.453z" stroke-linecap="round" stroke-linejoin="round"/><path fill="none" stroke="#000" d="M66.38 73.438h173.705m-139.999 60H283.63" stroke-dasharray="1 1"/><path fill="#fddfbb" fill-rule="evenodd" d="M73.286 78.366c0 1.98-1.62 3.6-3.6 3.6H6.98a3.61 3.61 0 0 1-3.6-3.6V68.51c0-1.98 1.62-3.6 3.6-3.6h62.706c1.98 0 3.6 1.62 3.6 3.6v9.856z" clip-rule="evenodd"/><path fill="none" stroke="#000" d="M73.286 78.366c0 1.98-1.62 3.6-3.6 3.6H6.98a3.61 3.61 0 0 1-3.6-3.6V68.51c0-1.98 1.62-3.6 3.6-3.6h62.706c1.98 0 3.6 1.62 3.6 3.6v9.856z" stroke-linecap="round" stroke-linejoin="round"/><path fill="#fddfbb" fill-rule="evenodd" d="M332.956 96.602c0 1.98-1.62 3.6-3.6 3.6h-12.051c-1.979 0-3.6-1.62-3.6-3.6v-6.328c0-1.98 1.62-3.6 3.6-3.6h12.051c1.979 0 3.6 1.62 3.6 3.6v6.328z" clip-rule="evenodd"/><path fill="none" stroke="#000" d="M332.956 96.602c0 1.98-1.62 3.6-3.6 3.6h-12.051c-1.979 0-3.6-1.62-3.6-3.6v-6.328c0-1.98 1.62-3.6 3.6-3.6h12.051c1.979 0 3.6 1.62 3.6 3.6v6.328z" stroke-linecap="round" stroke-linejoin="round"/><path fill="#fddfbb" fill-rule="evenodd" d="M310.956 96.602c0 1.98-1.62 3.6-3.6 3.6h-12.051c-1.979 0-3.6-1.62-3.6-3.6v-6.328c0-1.98 1.62-3.6 3.6-3.6h12.051c1.979 0 3.6 1.62 3.6 3.6v6.328z" clip-rule="evenodd"/><path fill="none" stroke="#000" d="M310.956 96.602c0 1.98-1.62 3.6-3.6 3.6h-12.051c-1.979 0-3.6-1.62-3.6-3.6v-6.328c0-1.98 1.62-3.6 3.6-3.6h12.051c1.979 0 3.6 1.62 3.6 3.6v6.328z" stroke-linecap="round" stroke-linejoin="round"/><path fill="#ccc" fill-rule="evenodd" d="M336.284 139.664c0 1.98-1.62 3.6-3.6 3.6h-62.707c-1.979 0-3.6-1.62-3.6-3.6v-12.452c0-1.98 1.62-3.6 3.6-3.6h62.707c1.979 0 3.6 1.62 3.6 3.6v12.452z" clip-rule="evenodd"/><path fill="none" stroke="#000" d="M336.284 139.664c0 1.98-1.62 3.6-3.6 3.6h-62.707c-1.979 0-3.6-1.62-3.6-3.6v-12.452c0-1.98 1.62-3.6 3.6-3.6h62.707c1.979 0 3.6 1.62 3.6 3.6v12.452z" stroke-linecap="round" stroke-linejoin="round"/><path fill="#fddfbb" fill-rule="evenodd" d="M332.956 136.602c0 1.98-1.62 3.6-3.6 3.6h-12.051c-1.979 0-3.6-1.62-3.6-3.6v-6.328c0-1.98 1.62-3.6 3.6-3.6h12.051c1.979 0 3.6 1.62 3.6 3.6v6.328z" clip-rule="evenodd"/><path fill="none" stroke="#000" d="M332.956 136.602c0 1.98-1.62 3.6-3.6 3.6h-12.051c-1.979 0-3.6-1.62-3.6-3.6v-6.328c0-1.98 1.62-3.6 3.6-3.6h12.051c1.979 0 3.6 1.62 3.6 3.6v6.328z" stroke-linecap="round" stroke-linejoin="round"/><path fill="#fddfbb" fill-rule="evenodd" d="M310.956 136.602c0 1.98-1.62 3.6-3.6 3.6h-12.051c-1.979 0-3.6-1.62-3.6-3.6v-6.328c0-1.98 1.62-3.6 3.6-3.6h12.051c1.979 0 3.6 1.62 3.6 3.6v6.328z" clip-rule="evenodd"/><path fill="none" stroke="#000" d="M310.956 136.602c0 1.98-1.62 3.6-3.6 3.6h-12.051c-1.979 0-3.6-1.62-3.6-3.6v-6.328c0-1.98 1.62-3.6 3.6-3.6h12.051c1.979 0 3.6 1.62 3.6 3.6v6.328z" stroke-linecap="round" stroke-linejoin="round"/><path fill="#fddfbb" fill-rule="evenodd" d="M288.956 136.602c0 1.98-1.62 3.6-3.6 3.6h-12.051c-1.979 0-3.6-1.62-3.6-3.6v-6.328c0-1.98 1.62-3.6 3.6-3.6h12.051c1.979 0 3.6 1.62 3.6 3.6v6.328z" clip-rule="evenodd"/><path fill="none" stroke="#000" d="M288.956 136.602c0 1.98-1.62 3.6-3.6 3.6h-12.051c-1.979 0-3.6-1.62-3.6-3.6v-6.328c0-1.98 1.62-3.6 3.6-3.6h12.051c1.979 0 3.6 1.62 3.6 3.6v6.328z" stroke-linecap="round" stroke-linejoin="round"/><path fill="none" stroke="#000" d="M66.38 113.438h173.705" stroke-dasharray="1 1"/><path fill="#fddfbb" fill-rule="evenodd" d="M73.286 118.366c0 1.98-1.62 3.6-3.6 3.6H6.98a3.61 3.61 0 0 1-3.6-3.6v-9.857c0-1.98 1.62-3.6 3.6-3.6h62.706c1.98 0 3.6 1.62 3.6 3.6v9.857z" clip-rule="evenodd"/><path fill="none" stroke="#000" d="M73.286 118.366c0 1.98-1.62 3.6-3.6 3.6H6.98a3.61 3.61 0 0 1-3.6-3.6v-9.857c0-1.98 1.62-3.6 3.6-3.6h62.706c1.98 0 3.6 1.62 3.6 3.6v9.857z" stroke-linecap="round" stroke-linejoin="round"/><path fill="#b2d4eb" fill-rule="evenodd" d="M73.286 135.423c0 1.98-1.62 3.6-3.6 3.6H6.98a3.61 3.61 0 0 1-3.6-3.6v-9.857c0-1.98 1.62-3.6 3.6-3.6h62.706c1.98 0 3.6 1.62 3.6 3.6v9.857z" clip-rule="evenodd"/><path fill="none" stroke="#000" d="M73.286 135.423c0 1.98-1.62 3.6-3.6 3.6H6.98a3.61 3.61 0 0 1-3.6-3.6v-9.857c0-1.98 1.62-3.6 3.6-3.6h62.706c1.98 0 3.6 1.62 3.6 3.6v9.857z" stroke-linecap="round" stroke-linejoin="round"/><path fill="none" stroke="#009245" d="M100.086 76.884L235.63 90.438" stroke-linecap="round" stroke-linejoin="round"/><path fill="#009245" d="M234.46 93.336l5.454-2.461-4.858-3.492z"/><path fill="none" stroke="#c1272d" d="M100.086 73.438l85.287 8.528" stroke-linecap="round" stroke-linejoin="round"/><path fill="none" stroke="#999" d="M240.085 95.884l-134.481 12.804" stroke-linecap="round" stroke-linejoin="round"/><path fill="#999" d="M106.191 105.617l-4.875 3.469 5.442 2.487z"/><path fill="none" stroke="#009245" d="M100.086 115.884l134.628 13.304" stroke-linecap="round" stroke-linejoin="round"/><path fill="#009245" d="M233.548 132.088l5.45-2.468-4.862-3.486z"/><path fill="none" stroke="#000" d="M100.086 43.499v114.439" stroke-linecap="round" stroke-linejoin="round"/><path d="M97.085 157.062l2.991 5.181 2.992-5.181z"/><path fill="#ccc" d="M101.774 56.478v1.309L80.629 45.674v-1.307z"/><path fill="gray" d="M101.774 56.478l14.73-8.379v1.309l-14.73 8.381z"/><path fill="#fff" d="M80.629 44.369l14.709-8.43 21.166 12.16-14.73 8.379z"/><path fill="#999" d="M118.553 29.092l.988-.563-2.06 18.966-.99.563zm-14.949 24.103v.254L85.731 43.212v-.253z"/><path fill="#b3b3b3" d="M103.604 53.195l10.123-5.759v.254l-10.123 5.761z"/><path fill="#e6e6e6" d="M85.731 42.96l10.107-5.8 17.889 10.276-10.123 5.759zm2.57 5.477l2.903-1.666 5.134 2.95-2.906 1.654zm30.252-19.345l-2.062 18.965-21.145-12.113 2.061-18.964z"/><path fill="#0071bc" d="M115.649 46.602L96.19 35.455l2.061-17.02 19.458 11.146-2.06 17.021z"/><path fill="#b3b3b3" d="M97.407 16.981l.971-.611 21.163 12.159-.988.563z"/><path fill="none" stroke="#000" d="M117.481 47.495l2.06-18.966L98.378 16.37l-.969.61h-.002l-2.061 18.963-.008-.004-14.707 8.429-.002-.001v1.307l21.145 12.113v.002l14.73-8.381v-1.309l-.013-.042v.001zm122.604-3.996v114.439" stroke-linecap="round" stroke-linejoin="round"/><path d="M237.084 157.062l2.992 5.181 2.991-5.181z"/><path fill="#b3b3b3" d="M236.714 31.718v29.233l-11.485-7.059V24.653z"/><path fill="#333" d="M234.585 32.636v3.49l-8.19-5.037v-3.492zm0 11.769v3.487l-8.19-5.038v-3.488z"/><path fill="#e6e6e6" d="M234.585 40.019v1.007l-8.19-5.035v-1.013z"/><path fill="#333" d="M234.585 49.36v3.487l-8.19-5.035v-3.491zm0 4.953v3.49l-8.19-5.038v-3.489z"/><path fill="gray" d="M236.708 31.735l18.203-11.482v29.236l-18.203 11.482z"/><path fill="#999" d="M225.255 24.671l18.224-11.482 11.461 7.06-18.205 11.482z"/><path fill="#009245" d="M226.671 31.567c.18.105.318.365.318.582 0 .211-.141.303-.318.191a.744.744 0 0 1-.312-.582c-.001-.216.14-.298.312-.191"/><path fill="#c1272d" d="M227.44 32.042c.178.107.316.369.316.586 0 .211-.146.299-.318.191-.176-.105-.316-.367-.316-.582 0-.216.143-.304.318-.195"/><path fill="#009245" d="M228.208 32.507a.76.76 0 0 1 .316.582c0 .217-.145.303-.318.195-.178-.107-.316-.373-.316-.588 0-.211.14-.297.318-.189"/><path fill="#c1272d" d="M228.974 32.979c.176.107.314.367.314.584-.002.211-.143.299-.32.189-.172-.105-.314-.369-.314-.582-.001-.214.144-.302.32-.191m.775.475a.74.74 0 0 1 .316.584c0 .215-.141.303-.318.191a.755.755 0 0 1-.312-.582c0-.212.14-.3.314-.193"/><path fill="#009245" d="M230.517 33.933c.178.106.316.367.316.582 0 .215-.141.301-.318.193-.174-.105-.316-.367-.316-.584-.001-.213.142-.303.318-.191m.767.461a.75.75 0 0 1 .314.584c0 .219-.143.303-.314.193-.178-.107-.318-.369-.318-.584 0-.213.142-.301.318-.193m.768.474c.172.105.312.365.312.582s-.141.299-.318.191a.742.742 0 0 1-.312-.582c-.001-.216.142-.304.318-.191"/><path fill="#c1272d" d="M226.671 32.702c.18.105.318.369.318.584 0 .213-.141.297-.318.193a.746.746 0 0 1-.312-.586c-.001-.214.14-.298.312-.191m.769.475c.178.109.316.369.316.586 0 .213-.146.303-.318.193-.176-.109-.316-.373-.316-.586 0-.215.143-.299.318-.193"/><path fill="#009245" d="M228.208 33.642c.172.103.316.373.316.582 0 .217-.145.303-.318.197-.178-.109-.316-.371-.316-.588 0-.213.14-.299.318-.191"/><path fill="#c1272d" d="M228.974 34.114c.176.105.314.367.314.584-.002.211-.143.299-.32.193a.774.774 0 0 1-.314-.584c-.001-.216.144-.304.32-.193"/><path fill="#009245" d="M229.749 34.589a.742.742 0 0 1 .316.582c0 .217-.141.305-.318.197-.172-.107-.312-.371-.312-.584 0-.215.14-.303.314-.195"/><path fill="#c1272d" d="M230.517 35.063c.178.107.316.375.316.586 0 .217-.141.301-.318.195a.757.757 0 0 1-.316-.584c-.001-.214.142-.302.318-.197"/><path fill="#009245" d="M231.284 35.528a.763.763 0 0 1 .314.586c0 .217-.143.303-.314.191-.178-.104-.318-.367-.318-.582 0-.214.142-.302.318-.195"/><path fill="#c1272d" d="M232.052 35.999c.172.111.312.369.312.586s-.141.299-.318.195a.757.757 0 0 1-.312-.584c-.001-.218.142-.3.318-.197"/><path fill="#009245" d="M232.644 40.882c.178.107.32.367.32.586 0 .211-.145.299-.32.193a.762.762 0 0 1-.316-.586c-.001-.215.14-.301.316-.193m.769.463a.763.763 0 0 1 .312.586c0 .215-.141.299-.312.193a.742.742 0 0 1-.318-.584c0-.215.14-.299.318-.195"/><path fill="#c1272d" d="M234.177 41.817c.176.107.316.367.316.584 0 .211-.141.303-.318.193a.744.744 0 0 1-.314-.584c-.001-.214.142-.304.316-.193m-1.533.202c.178.105.32.367.32.586 0 .213-.145.299-.32.188-.178-.104-.316-.369-.316-.582-.001-.214.14-.304.316-.192m.769.462a.772.772 0 0 1 .312.582c0 .217-.141.305-.312.193-.18-.105-.318-.369-.318-.582 0-.216.14-.3.318-.193"/><path fill="#009245" d="M234.177 42.954c.176.103.316.365.316.582 0 .215-.141.303-.318.191a.731.731 0 0 1-.314-.582c-.001-.212.142-.3.316-.191"/><path fill="none" stroke="#000" d="M254.94 20.249l-11.462-7.06-18.223 11.482-.026-.018v29.239l11.479 7.059v.02l18.201-11.482v-29.22z" stroke-linecap="round" stroke-linejoin="round"/><path fill="#c1272d" fill-rule="evenodd" d="M187.798 80.511l-.97-.97-1.455 1.455-1.455-1.455-.97.97 1.455 1.455-1.455 1.454.97.97 1.455-1.454 1.455 1.454.97-.97-1.455-1.454z" clip-rule="evenodd"/><path d="M13.408 75.543c.2.119.55.27.939.27.67 0 1.12-.49 1.12-1.3 0-.85-.53-1.339-1.31-1.339h-.18v-.58h.15c.459-.01 1.169-.359 1.169-1.159 0-.649-.35-.999-.86-.999-.32 0-.6.16-.81.31l-.17-.58c.24-.189.68-.369 1.169-.369.919 0 1.439.659 1.439 1.499 0 .649-.34 1.22-.97 1.52v.02c.58.16 1.14.68 1.14 1.699 0 1.06-.68 1.919-1.859 1.919-.42 0-.88-.12-1.14-.3l.173-.611zm4.37-4.007l.45 1.039c.12.279.209.56.32.85h.02c.11-.31.22-.59.319-.85l.44-1.039h.79l-1.149 2.389 1.14 2.448h-.84l-.459-1.09c-.11-.26-.2-.509-.32-.829h-.02c-.1.29-.21.55-.32.829l-.45 1.09h-.78l1.149-2.429-1.119-2.408h.829zm5.039-1.21h-1.229v-.689h3.228v.689h-1.229v6.047h-.77v-6.047zm5.37 5.926c-.21.11-.54.18-.959.18-1.319 0-2.259-1.059-2.259-3.348 0-2.658 1.319-3.508 2.379-3.508.41 0 .699.08.839.17l-.17.649c-.16-.07-.33-.14-.68-.14-.72 0-1.559.699-1.559 2.758 0 2.06.76 2.738 1.579 2.738.29 0 .55-.069.709-.149l.121.65zm.791-6.516c.31-.079.68-.13 1.12-.13.62 0 1.139.15 1.489.5.33.32.5.81.5 1.39 0 .619-.15 1.039-.41 1.379-.37.5-.99.75-1.589.75-.13 0-.23 0-.34-.011v2.759h-.77v-6.637zm.77 3.228c.09.021.17.03.3.03.76 0 1.27-.5 1.27-1.449 0-.689-.29-1.31-1.14-1.31-.18 0-.33.021-.43.05v2.679zm4.6 2.609c.17.11.47.25.78.25.439 0 .709-.27.709-.699 0-.37-.13-.62-.62-.95-.63-.409-.969-.819-.969-1.379 0-.779.58-1.339 1.329-1.339.38 0 .669.13.87.25l-.21.579c-.18-.12-.39-.21-.64-.21-.42 0-.63.3-.63.61 0 .329.12.509.6.839.56.36 1 .8 1 1.47 0 .969-.66 1.438-1.449 1.438-.36 0-.75-.109-.959-.279l.189-.58zm3.559-1.549c.01 1.479.589 1.799 1.149 1.799.33 0 .609-.08.799-.189l.12.569c-.27.15-.68.229-1.06.229-1.159 0-1.759-.949-1.759-2.429 0-1.568.66-2.548 1.629-2.548.989 0 1.379 1.039 1.379 2.139 0 .18 0 .31-.01.43h-2.247zm1.519-.569c.02-.97-.35-1.399-.72-1.399-.5 0-.76.739-.79 1.399h1.51zm4.53-1.919c-.01.34-.04.77-.04 1.509v2.708c0 1.27-.16 1.749-.479 2.1-.29.329-.75.52-1.29.52-.41 0-.81-.1-1.059-.24l.18-.6c.19.101.51.21.899.21.61 0 .99-.38.99-1.479v-.489h-.02c-.17.38-.52.59-.93.59-.859 0-1.419-.97-1.419-2.389 0-1.779.81-2.519 1.52-2.519.52 0 .759.34.899.629h.02l.04-.549h.689zm-.8 1.669c0-.12-.01-.25-.04-.351-.09-.329-.26-.739-.7-.739-.56 0-.859.75-.859 1.819 0 1.239.39 1.799.859 1.799.23 0 .53-.11.689-.689.04-.15.05-.3.05-.439v-1.4zm1.831-.42c0-.569-.03-.859-.04-1.249h.67l.04.6h.02c.209-.391.58-.68 1.089-.68.45 0 .83.22 1.009.739h.02c.13-.24.3-.43.48-.55.189-.13.419-.189.669-.189.649 0 1.159.479 1.159 1.709v3.208h-.759v-3.028c0-.63-.09-1.239-.68-1.239-.32 0-.6.27-.709.72-.02.13-.03.279-.03.439v3.108h-.76v-3.168c0-.54-.1-1.1-.669-1.1-.31 0-.629.27-.72.779-.02.13-.03.271-.03.42v3.068h-.76v-3.587zm6.74 1.239c.01 1.479.589 1.799 1.149 1.799.33 0 .609-.08.799-.189l.12.569c-.27.15-.68.229-1.06.229-1.159 0-1.759-.949-1.759-2.429 0-1.568.66-2.548 1.629-2.548.989 0 1.379 1.039 1.379 2.139 0 .18 0 .31-.01.43h-2.247zm1.519-.569c.02-.97-.35-1.399-.72-1.399-.5 0-.76.739-.79 1.399h1.51zm1.57-.67c0-.569-.03-.859-.04-1.249h.67l.04.579h.02c.21-.39.6-.659 1.109-.659.669 0 1.169.499 1.169 1.669v3.248h-.77v-3.118c0-.569-.11-1.149-.669-1.149-.32 0-.629.27-.729.789-.02.12-.03.271-.03.431v3.048h-.77v-3.589zm4.93-2.529v1.279h.93v.589h-.93v2.869c0 .629.23.799.51.799.12 0 .22-.01.31-.029l.03.59c-.14.05-.32.079-.569.079-.3 0-.57-.079-.76-.289-.19-.221-.29-.55-.29-1.22v-2.799h-.589v-.589h.589v-1.06l.769-.219zm1.48 5.317c.17.11.47.25.78.25.439 0 .709-.27.709-.699 0-.37-.13-.62-.62-.95-.63-.409-.969-.819-.969-1.379 0-.779.58-1.339 1.329-1.339.38 0 .669.13.87.25l-.21.579c-.18-.12-.39-.21-.64-.21-.42 0-.63.3-.63.61 0 .329.12.509.6.839.56.36 1 .8 1 1.47 0 .969-.66 1.438-1.449 1.438-.36 0-.75-.109-.959-.279l.189-.58zm258.785 14.163c.311-.079.68-.13 1.119-.13.62 0 1.14.15 1.489.5.33.32.5.81.5 1.39 0 .619-.149 1.039-.409 1.379-.371.5-.99.75-1.59.75-.13 0-.23 0-.34-.011v2.759h-.77v-6.637zm.769 3.228c.09.021.17.03.3.03.76 0 1.27-.5 1.27-1.449 0-.689-.29-1.31-1.14-1.31-.18 0-.33.021-.43.05v2.679zm3.071 2.579c.199.119.55.27.939.27.67 0 1.119-.49 1.119-1.3 0-.85-.529-1.339-1.309-1.339h-.18v-.58h.149c.46-.01 1.169-.359 1.169-1.159 0-.649-.35-.999-.859-.999-.32 0-.6.16-.81.31l-.17-.58c.24-.189.68-.369 1.169-.369.92 0 1.439.659 1.439 1.499 0 .649-.34 1.22-.969 1.52v.02c.58.16 1.139.68 1.139 1.699 0 1.06-.68 1.919-1.858 1.919-.42 0-.88-.12-1.14-.3l.172-.611zm-25.84-5.807c.311-.079.68-.13 1.119-.13.62 0 1.14.15 1.489.5.33.32.5.81.5 1.39 0 .619-.149 1.039-.409 1.379-.371.5-.99.75-1.59.75-.13 0-.23 0-.34-.011v2.759h-.77v-6.637zm.769 3.228c.09.021.17.03.3.03.76 0 1.27-.5 1.27-1.449 0-.689-.29-1.31-1.14-1.31-.18 0-.33.021-.43.05v2.679zm2.941 3.409v-.5l.55-.749c.77-1.069 1.689-2.289 1.689-3.509 0-.719-.32-1.159-.93-1.159-.471 0-.77.25-.939.36l-.19-.58c.229-.189.68-.439 1.27-.439 1.079 0 1.55.8 1.55 1.778 0 1.22-.801 2.399-1.6 3.499l-.439.6v.02h2.168v.68h-3.129zm18.29 33.363c.311-.079.68-.13 1.119-.13.62 0 1.14.15 1.489.5.33.32.5.81.5 1.39 0 .619-.149 1.039-.409 1.379-.371.5-.99.75-1.59.75-.13 0-.23 0-.34-.011v2.759h-.77v-6.637zm.769 3.228c.09.021.17.03.3.03.76 0 1.27-.5 1.27-1.449 0-.689-.29-1.31-1.14-1.31-.18 0-.33.021-.43.05v2.679zm3.071 2.579c.199.119.55.27.939.27.67 0 1.119-.49 1.119-1.3 0-.85-.529-1.339-1.309-1.339h-.18v-.58h.149c.46-.01 1.169-.359 1.169-1.159 0-.649-.35-.999-.859-.999-.32 0-.6.16-.81.31l-.17-.58c.24-.189.68-.369 1.169-.369.92 0 1.439.659 1.439 1.499 0 .649-.34 1.22-.969 1.52v.02c.58.16 1.139.68 1.139 1.699 0 1.06-.68 1.919-1.858 1.919-.42 0-.88-.12-1.14-.3l.172-.611zm-25.84-5.807c.311-.079.68-.13 1.119-.13.62 0 1.14.15 1.489.5.33.32.5.81.5 1.39 0 .619-.149 1.039-.409 1.379-.371.5-.99.75-1.59.75-.13 0-.23 0-.34-.011v2.759h-.77v-6.637zm.769 3.228c.09.021.17.03.3.03.76 0 1.27-.5 1.27-1.449 0-.689-.29-1.31-1.14-1.31-.18 0-.33.021-.43.05v2.679zm2.941 3.409v-.5l.55-.749c.77-1.069 1.689-2.289 1.689-3.509 0-.719-.32-1.159-.93-1.159-.471 0-.77.25-.939.36l-.19-.58c.229-.189.68-.439 1.27-.439 1.079 0 1.55.8 1.55 1.778 0 1.22-.801 2.399-1.6 3.499l-.439.6v.02h2.168v.68h-3.129zm-25.71-6.637c.311-.079.68-.13 1.119-.13.62 0 1.14.15 1.489.5.33.32.5.81.5 1.39 0 .619-.149 1.039-.409 1.379-.371.5-.99.75-1.59.75-.13 0-.23 0-.34-.011v2.759h-.77v-6.637zm.769 3.228c.09.021.17.03.3.03.76 0 1.27-.5 1.27-1.449 0-.689-.29-1.31-1.14-1.31-.18 0-.33.021-.43.05v2.679zm4.5-2.308h-.021l-1.079.619-.15-.6 1.369-.799h.641v6.496h-.76v-5.716zM89.805 7.48c.23.15.63.27.97.27.699 0 1.119-.459 1.119-1.139 0-.62-.36-1-.89-1.399-.529-.37-1.269-.999-1.269-1.869 0-1.02.709-1.769 1.779-1.769.42 0 .79.13.95.249l-.19.66a1.41 1.41 0 0 0-.8-.229c-.66 0-.969.499-.969.959 0 .67.35.93.989 1.39.81.569 1.169 1.189 1.169 1.938 0 1.159-.819 1.889-1.889 1.889-.46 0-.95-.149-1.14-.289l.171-.661zm4.31-1.459c.01 1.479.589 1.799 1.149 1.799.33 0 .609-.08.799-.189l.12.569c-.27.15-.68.229-1.06.229-1.159 0-1.759-.949-1.759-2.429 0-1.568.66-2.548 1.629-2.548.989 0 1.379 1.039 1.379 2.139 0 .18 0 .31-.01.43h-2.247zm1.519-.569c.02-.97-.35-1.399-.72-1.399-.5 0-.759.739-.79 1.399h1.51zm1.571-.67c0-.569-.03-.859-.04-1.249h.67l.04.579h.02c.209-.39.6-.659 1.109-.659.669 0 1.169.499 1.169 1.669V8.37h-.77V5.252c0-.569-.11-1.149-.669-1.149-.32 0-.63.27-.729.789-.02.12-.03.271-.03.431V8.37h-.77V4.782zm6.958-3.328v5.757c0 .33.03.879.04 1.159h-.66l-.05-.609h-.03c-.16.35-.5.689-1.009.689-.82 0-1.41-.89-1.41-2.479 0-1.72.71-2.519 1.459-2.519.35 0 .689.17.879.579h.02V1.454h.761zm-.76 3.918c0-.101 0-.21-.01-.32-.05-.5-.35-.939-.72-.939-.64 0-.859.89-.859 1.859 0 1.02.26 1.839.819 1.839.24 0 .57-.13.74-.83.02-.09.03-.199.03-.319v-1.29zm2.381.649c.01 1.479.589 1.799 1.149 1.799.33 0 .609-.08.799-.189l.12.569c-.27.15-.68.229-1.06.229-1.159 0-1.759-.949-1.759-2.429 0-1.568.66-2.548 1.629-2.548.989 0 1.379 1.039 1.379 2.139 0 .18 0 .31-.01.43h-2.247zm1.519-.569c.02-.97-.35-1.399-.72-1.399-.5 0-.76.739-.79 1.399h1.51zm1.561-.67c0-.41-.03-.89-.04-1.249h.689l.04.759h.02c.16-.459.57-.839 1.02-.839.06 0 .11.01.16.01v.789c-.05-.01-.1-.01-.16-.01-.49 0-.85.45-.93 1.01-.02.13-.03.279-.03.439V8.37h-.77V4.782zm121.79-3.049c.33-.09.729-.13 1.109-.13.67 0 1.169.141 1.519.48.33.34.471.789.471 1.319 0 .859-.4 1.419-1.08 1.729v.021c.5.149.76.629.91 1.509.15.93.289 1.499.379 1.709h-.779c-.1-.2-.229-.84-.359-1.669-.15-.92-.439-1.27-1.1-1.27h-.3V8.37h-.77V1.733zm.77 3.109h.319c.74 0 1.23-.539 1.23-1.349 0-.78-.32-1.26-1.15-1.27-.149 0-.299.01-.399.04v2.579zm3.8 1.179c.01 1.479.59 1.799 1.15 1.799.329 0 .609-.08.799-.189l.12.569c-.271.15-.68.229-1.06.229-1.159 0-1.76-.949-1.76-2.429 0-1.568.66-2.548 1.63-2.548.989 0 1.38 1.039 1.38 2.139 0 .18 0 .31-.011.43h-2.248zm1.519-.569c.02-.97-.35-1.399-.72-1.399-.499 0-.759.739-.79 1.399h1.51zm3.93 2.798c-.17.101-.46.18-.8.18-1.06 0-1.769-.85-1.769-2.448 0-1.39.699-2.519 1.908-2.519.26 0 .54.07.68.149l-.149.63a1.26 1.26 0 0 0-.55-.13c-.77 0-1.119.92-1.119 1.869 0 1.129.43 1.809 1.139 1.809.211 0 .381-.05.561-.13l.099.59zm1.14-2.229c.01 1.479.59 1.799 1.15 1.799.329 0 .609-.08.799-.189l.12.569c-.271.15-.68.229-1.06.229-1.159 0-1.76-.949-1.76-2.429 0-1.568.66-2.548 1.63-2.548.989 0 1.38 1.039 1.38 2.139 0 .18 0 .31-.011.43h-2.248zm1.52-.569c.02-.97-.35-1.399-.72-1.399-.499 0-.759.739-.79 1.399h1.51zm2.4-3.169c.01.3-.18.5-.47.5-.25 0-.439-.2-.439-.5s.2-.499.45-.499c.28 0 .459.199.459.499zm-.83 6.087V3.533h.77V8.37h-.77zm2.231-4.837l.609 2.718c.07.33.15.76.21 1.18h.03c.05-.399.13-.81.199-1.18l.6-2.718h.76l-1.26 4.837h-.689l-1.259-4.837h.8zm3.49 2.488c.01 1.479.589 1.799 1.148 1.799.33 0 .609-.08.8-.189l.12.569c-.27.15-.68.229-1.06.229-1.159 0-1.759-.949-1.759-2.429 0-1.568.659-2.548 1.629-2.548.989 0 1.379 1.039 1.379 2.139 0 .18 0 .31-.01.43h-2.247zm1.519-.569c.021-.97-.351-1.399-.72-1.399-.5 0-.76.739-.789 1.399h1.509zm1.561-.67c0-.41-.031-.89-.041-1.249h.689l.041.759h.02c.16-.459.57-.839 1.02-.839.061 0 .109.01.16.01v.789c-.051-.01-.1-.01-.16-.01-.49 0-.85.45-.93 1.01-.02.13-.029.279-.029.439V8.37h-.77V4.782z"/><path fill="#0071bc" d="M267.489 75.036h-.983v-.552h2.582v.552h-.983v4.837h-.615v-4.837zm4.295 4.741c-.168.088-.432.144-.768.144-1.056 0-1.807-.848-1.807-2.679 0-2.127 1.055-2.806 1.902-2.806.328 0 .56.063.672.136l-.136.52a1.178 1.178 0 0 0-.544-.112c-.575 0-1.247.56-1.247 2.207s.607 2.19 1.264 2.19c.231 0 .439-.056.567-.119l.097.519zm.633-5.214c.248-.063.544-.104.896-.104.496 0 .912.12 1.191.399.265.256.4.648.4 1.112 0 .495-.12.831-.328 1.103-.296.4-.791.6-1.271.6-.104 0-.184 0-.271-.008v2.207h-.616v-5.309zm.616 2.583c.072.016.136.024.24.024.607 0 1.015-.4 1.015-1.16 0-.551-.231-1.047-.911-1.047-.144 0-.264.016-.344.04v2.143zm3.744 2.727c.008-.224.032-.664.032-.928V74.34h.615v2.119h.016c.2-.384.488-.52.816-.52.6 0 1.055.695 1.055 1.959 0 1.399-.575 2.038-1.175 2.038-.408 0-.616-.239-.768-.567h-.024l-.04.504h-.527zm.648-1.368c0 .088 0 .176.024.24.144.575.407.679.575.679.496 0 .672-.671.672-1.495 0-.775-.184-1.463-.68-1.463-.288 0-.527.36-.576.688-.016.088-.016.185-.016.272v1.079zm4.903.312c0 .432.023.768.031 1.056h-.535l-.04-.408h-.016c-.12.192-.416.472-.832.472-.68 0-.943-.527-.943-1.486v-2.447h.615v2.359c0 .607.097 1.055.521 1.055.359 0 .52-.336.552-.512.023-.104.031-.224.031-.352v-2.551h.616v2.814zm2.777 1.056v-3.398h-1.168v3.398h-.615v-3.398h-.488v-.472h.488v-.224c0-.479.111-.88.352-1.136.184-.191.448-.304.8-.304.16 0 .319.04.399.072l-.12.487a.75.75 0 0 0-.287-.056c-.4 0-.528.328-.528.936v.224h1.168v-.231c0-.416.063-.848.344-1.168.224-.247.535-.327.768-.327.216 0 .376.04.487.096l-.104.479a.835.835 0 0 0-.336-.063c-.439 0-.544.472-.544.976v.239h.704v.472h-.704v3.398h-.616zm2.104-1.879c.008 1.184.472 1.439.92 1.439.264 0 .487-.064.64-.152l.096.456c-.216.12-.544.184-.848.184-.928 0-1.407-.76-1.407-1.942 0-1.256.527-2.039 1.303-2.039.792 0 1.104.831 1.104 1.711 0 .144 0 .248-.008.344h-1.8zm1.215-.456c.017-.775-.279-1.119-.575-1.119-.399 0-.607.592-.632 1.119h1.207zm1.249-.536c0-.328-.023-.712-.032-1h.552l.032.607h.016c.128-.367.456-.671.816-.671.048 0 .088.008.128.008v.632c-.04-.008-.08-.008-.128-.008-.393 0-.68.359-.744.807a2.378 2.378 0 0 0-.023.353v2.143h-.616v-2.871z"/><g fill="#c1272d"><path d="M266.368 155.373l.629-3.318c.11-.56.18-1.119.25-1.569h1.069c-.02.25-.04.51-.069.81h.029c.36-.619.8-.889 1.21-.889.08 0 .14 0 .199.02l-.229 1.249c-.05 0-.14-.01-.21-.01-.54 0-1.05.62-1.199 1.449l-.43 2.259h-1.249zm6.148-.21c-.43.18-.85.27-1.409.27-1.199 0-1.659-.789-1.659-1.839 0-1.419.79-3.188 2.35-3.188.889 0 1.289.659 1.299 1.329 0 1.339-1.079 1.839-2.438 1.799-.01.14 0 .39.109.569.12.2.34.35.68.35.41 0 .7-.1.99-.239l.078.949zm-.879-3.758c-.38 0-.72.489-.859 1.189.659.03 1.209-.23 1.209-.74-.001-.279-.111-.449-.35-.449zm4.05 3.897c-.141.061-.46.13-.87.13-1.079 0-1.529-.859-1.529-1.759 0-1.749 1.09-3.258 2.629-3.258.3 0 .49.04.609.09l-.31 1.02c-.12-.03-.24-.05-.35-.05-.729 0-1.329.979-1.329 2.019 0 .56.229.919.64.919.229 0 .439-.069.6-.109l-.09.998zm3.709-.139c-.43.18-.85.27-1.409.27-1.199 0-1.659-.789-1.659-1.839 0-1.419.79-3.188 2.35-3.188.889 0 1.289.659 1.299 1.329 0 1.339-1.079 1.839-2.438 1.799-.01.14 0 .39.109.569.12.2.34.35.68.35.41 0 .7-.1.99-.239l.078.949zm-.879-3.758c-.38 0-.72.489-.859 1.189.659.03 1.209-.23 1.209-.74-.001-.279-.111-.449-.35-.449zm1.441 3.968l.939-4.888h1.249l-.939 4.888h-1.249zm1.169-6.137c0-.359.26-.77.699-.77.41 0 .6.31.59.649-.01.5-.35.78-.72.78-.399.001-.579-.289-.569-.659zm2.81 1.249l-.07 2.239c-.04.67-.04.93-.07 1.389h.021c.13-.449.229-.719.43-1.309l.85-2.319h1.249l-2.198 4.888h-1.25l-.279-4.888h1.317zm5.178 4.678c-.43.18-.85.27-1.409.27-1.199 0-1.659-.789-1.659-1.839 0-1.419.789-3.188 2.349-3.188.89 0 1.289.659 1.299 1.329 0 1.339-1.079 1.839-2.438 1.799-.01.14 0 .39.11.569.12.2.34.35.68.35.409 0 .699-.1.989-.239l.079.949zm-.88-3.758c-.38 0-.72.489-.859 1.189.66.03 1.209-.23 1.209-.74 0-.279-.109-.449-.35-.449zm4.92-2.948c-1 1.039-2.029 2.998-2.029 5.337 0 .999.07 1.869.45 2.778h-.88c-.38-.77-.56-1.719-.56-2.778 0-2.488 1.159-4.438 2.039-5.337h.98z"/><path d="M291.487 156.572c.959-1.049 2.019-3.008 2.019-5.377 0-.999-.05-1.849-.439-2.738h.92c.359.749.52 1.709.52 2.738 0 2.509-1.159 4.458-1.999 5.377h-1.021zm7.229-4.428l-.181.939h-1.988l.18-.939h1.989zm5.678 1.01l-4.808 2.219v-.989l3.838-1.659v-.021l-3.838-1.658v-.99l4.808 2.219v.879zm3.252-4.428c.41-.069.93-.12 1.35-.12.449 0 1.129.09 1.539.54.29.31.42.8.42 1.159 0 .939-.45 1.64-.87 2.02-.47.399-1.139.589-1.698.589-.11 0-.221 0-.32-.01l-.47 2.469h-1.219l1.268-6.647zm.62 3.149c.08.01.16.01.239.01.91 0 1.189-.899 1.189-1.489 0-.449-.21-.77-.699-.77-.12 0-.229.01-.3.03l-.429 2.219zm4.759-1.799h-.021l-1.1.529-.02-.999 1.509-.729h1.09l-1.239 6.496h-1.229l1.01-5.297zm1.362 6.546c.43-.829.92-1.869 1.18-2.658l1.329-.1c-.42.899-1.02 1.948-1.6 2.668l-.909.09zm5.709-7.896c.409-.069.93-.12 1.349-.12.45 0 1.13.09 1.54.54.289.31.419.8.419 1.159 0 .939-.449 1.64-.869 2.02-.47.399-1.14.589-1.699.589-.109 0-.22 0-.319-.01l-.47 2.469h-1.22l1.269-6.647zm.619 3.149c.08.01.16.01.24.01.909 0 1.189-.899 1.189-1.489 0-.449-.21-.77-.7-.77-.119 0-.229.01-.3.03l-.429 2.219zm2.381 3.498l.15-.88.729-.81c.999-1.099 2.029-2.188 2.029-3.088 0-.43-.2-.75-.74-.75-.39 0-.659.13-.859.25l-.12-.949c.35-.189.83-.35 1.369-.35 1.319 0 1.59.909 1.59 1.539 0 1.419-1.17 2.559-2.079 3.518l-.36.391v.02h1.919l-.199 1.109h-3.429zm3.74 1.249c.431-.829.92-1.869 1.18-2.658l1.329-.1c-.42.899-1.02 1.948-1.599 2.668l-.91.09zm5.709-7.896c.41-.069.93-.12 1.35-.12.449 0 1.129.09 1.539.54.29.31.42.8.42 1.159 0 .939-.45 1.64-.87 2.02-.47.399-1.139.589-1.698.589-.11 0-.221 0-.32-.01l-.47 2.469h-1.219l1.268-6.647zm.62 3.149c.08.01.16.01.239.01.91 0 1.189-.899 1.189-1.489 0-.449-.21-.77-.699-.77-.12 0-.229.01-.3.03l-.429 2.219zm2.841 2.329c.229.09.47.159.789.159.689 0 1.159-.439 1.159-1.06 0-.64-.47-.899-.979-.899h-.18l.18-.979h.13c.46 0 1.17-.249 1.17-.919 0-.37-.25-.609-.7-.609-.26 0-.529.079-.699.17l.01-1.04c.21-.1.65-.229 1.13-.229 1.199 0 1.569.749 1.569 1.399 0 .839-.58 1.449-1.18 1.669l-.01.02c.52.23.819.76.819 1.369 0 1.279-.989 2.199-2.398 2.199-.49 0-.939-.1-1.13-.2l.32-1.05z"/></g><path d="M28.283 116.373v-.5l.55-.749c.77-1.069 1.689-2.289 1.689-3.509 0-.719-.32-1.159-.93-1.159-.47 0-.77.25-.939.36l-.19-.58a2.04 2.04 0 0 1 1.27-.439c1.08 0 1.549.8 1.549 1.778 0 1.22-.8 2.399-1.599 3.499l-.44.6v.02h2.169v.68h-3.129zm4.5-4.837l.45 1.039c.12.279.209.56.32.85h.02c.11-.31.22-.59.319-.85l.44-1.039h.79l-1.149 2.389 1.14 2.448h-.84l-.459-1.09c-.11-.26-.2-.509-.32-.829h-.02c-.1.29-.21.55-.32.829l-.45 1.09h-.78l1.149-2.429-1.119-2.408h.829zm5.409 2.818l-.45 2.019h-.74l1.54-6.736h.849l1.5 6.736h-.76l-.45-2.019h-1.489zm1.39-.62l-.35-1.709c-.1-.479-.19-1.039-.27-1.539h-.04c-.08.51-.18 1.089-.27 1.539l-.35 1.709h1.28zm4.89 2.518c-.21.11-.54.18-.959.18-1.319 0-2.259-1.059-2.259-3.348 0-2.658 1.319-3.508 2.379-3.508.41 0 .699.08.839.17l-.17.649c-.16-.07-.33-.14-.68-.14-.72 0-1.559.699-1.559 2.758 0 2.06.76 2.738 1.579 2.738.29 0 .55-.069.709-.149l.121.65zm.791-6.616h.77v3.198h.02c.15-.28.29-.55.42-.81l1.259-2.389h.85l-1.649 2.879 1.689 3.857h-.83l-1.379-3.248-.38.649v2.599h-.77v-6.735zm-27.851 17.747h-1.229v-.689h3.229v.689h-1.229v6.047h-.77v-6.047zm5.369 5.927c-.21.11-.54.18-.959.18-1.319 0-2.259-1.059-2.259-3.348 0-2.658 1.319-3.508 2.379-3.508.41 0 .699.08.839.17l-.17.649c-.16-.07-.33-.14-.68-.14-.72 0-1.559.699-1.559 2.758 0 2.06.76 2.738 1.579 2.738.29 0 .55-.069.709-.149l.121.65zm.792-6.517c.31-.079.68-.13 1.12-.13.62 0 1.139.15 1.489.5.33.32.5.81.5 1.39 0 .619-.15 1.039-.41 1.379-.37.5-.99.75-1.589.75-.13 0-.23 0-.34-.011v2.759h-.77v-6.637zm.769 3.228c.09.021.17.03.3.03.76 0 1.27-.5 1.27-1.449 0-.689-.29-1.31-1.14-1.31-.18 0-.33.021-.43.05v2.679zm4.721-.179c0-.41-.03-.89-.04-1.249h.689l.04.759h.02c.16-.459.57-.839 1.02-.839.06 0 .11.01.16.01v.789c-.05-.01-.1-.01-.16-.01-.49 0-.85.45-.93 1.01-.02.13-.03.279-.03.439v2.679h-.77v-3.588zm2.889 1.239c.01 1.479.589 1.799 1.149 1.799.33 0 .609-.08.799-.189l.12.569c-.27.15-.68.229-1.06.229-1.159 0-1.759-.949-1.759-2.429 0-1.568.66-2.548 1.629-2.548.989 0 1.379 1.039 1.379 2.139 0 .18 0 .31-.01.43h-2.247zm1.519-.569c.02-.97-.35-1.399-.72-1.399-.5 0-.759.739-.79 1.399h1.51zm2.51-3.199v1.279h.93v.589h-.93v2.869c0 .629.23.799.51.799.12 0 .22-.01.31-.029l.03.59c-.14.05-.32.079-.569.079-.3 0-.57-.079-.76-.289-.19-.221-.29-.55-.29-1.22v-2.799h-.589v-.589h.589v-1.06l.769-.219zm1.601 2.529c0-.41-.03-.89-.04-1.249h.689l.04.759h.02c.16-.459.57-.839 1.02-.839.06 0 .11.01.16.01v.789c-.05-.01-.1-.01-.16-.01-.49 0-.85.45-.93 1.01-.02.13-.03.279-.03.439v2.679h-.77v-3.588zm4.339 3.588l-.05-.51h-.03c-.21.37-.55.59-.959.59-.649 0-1.149-.55-1.149-1.379 0-1.21.97-1.749 2.059-1.76v-.149c0-.649-.16-1.1-.77-1.1-.3 0-.57.1-.8.25l-.17-.54c.2-.149.65-.319 1.129-.319.97 0 1.389.64 1.389 1.729v2.089c0 .37 0 .79.05 1.1h-.699zm-.11-2.499c-.4 0-1.33.07-1.33 1.12 0 .629.32.859.59.859.34 0 .63-.25.72-.729.02-.09.02-.19.02-.271v-.979zm1.841-1.089c0-.569-.03-.859-.04-1.249h.67l.04.579h.02c.21-.39.6-.659 1.109-.659.669 0 1.169.499 1.169 1.669v3.248h-.77v-3.118c0-.569-.11-1.149-.669-1.149-.32 0-.629.27-.729.789-.02.12-.03.271-.03.431v3.048h-.77v-3.589zm3.92 2.788c.17.11.47.25.78.25.439 0 .709-.27.709-.699 0-.37-.13-.62-.62-.95-.63-.409-.969-.819-.969-1.379 0-.779.58-1.339 1.329-1.339.38 0 .669.13.87.25l-.21.579c-.18-.12-.39-.21-.64-.21-.42 0-.63.3-.63.61 0 .329.12.509.6.839.56.36 1 .8 1 1.47 0 .969-.66 1.438-1.449 1.438-.36 0-.75-.109-.959-.279l.189-.58zm3.019-2.788c0-.569-.03-.859-.04-1.249h.67l.04.6h.02c.21-.391.58-.68 1.089-.68.45 0 .83.22 1.009.739h.02c.13-.24.3-.43.48-.55.189-.13.419-.189.669-.189.649 0 1.159.479 1.159 1.709v3.208h-.759v-3.028c0-.63-.09-1.239-.68-1.239-.32 0-.6.27-.709.72-.02.13-.03.279-.03.439v3.108h-.759v-3.168c0-.54-.1-1.1-.67-1.1-.31 0-.629.27-.72.779-.02.13-.03.271-.03.42v3.068h-.76v-3.587zm7.03-2.499c.01.3-.18.5-.47.5-.25 0-.439-.2-.439-.5s.2-.499.45-.499c.279 0 .459.199.459.499zm-.83 6.087v-4.837h.77v4.837h-.77zm2.779-6.117v1.279h.93v.589h-.93v2.869c0 .629.23.799.51.799.12 0 .22-.01.31-.029l.03.59c-.14.05-.32.079-.569.079-.3 0-.57-.079-.76-.289-.19-.221-.29-.55-.29-1.22v-2.799h-.589v-.589h.589v-1.06l.769-.219z"/><g fill="#c1272d"><path d="M266.368 114.438l.63-3.318c.109-.56.18-1.119.249-1.569h1.069c-.02.25-.039.51-.069.81h.03c.359-.62.799-.89 1.209-.89.08 0 .14 0 .2.02l-.23 1.25c-.05 0-.14-.01-.21-.01-.539 0-1.049.62-1.199 1.449l-.43 2.259h-1.249zm6.148-.21c-.43.18-.85.27-1.409.27-1.2 0-1.659-.79-1.659-1.839 0-1.419.789-3.188 2.349-3.188.89 0 1.289.66 1.299 1.329 0 1.339-1.079 1.839-2.438 1.799-.01.14 0 .39.11.569.119.2.34.35.68.35.409 0 .699-.1.989-.24l.079.95zm-.88-3.758c-.38 0-.72.49-.859 1.189.659.03 1.209-.23 1.209-.74-.001-.279-.11-.449-.35-.449zm4.05 3.898c-.14.06-.46.13-.869.13-1.08 0-1.529-.859-1.529-1.759 0-1.749 1.089-3.258 2.628-3.258.3 0 .49.04.61.09l-.311 1.02a1.463 1.463 0 0 0-.35-.05c-.729 0-1.329.979-1.329 2.019 0 .56.229.919.64.919.229 0 .439-.07.6-.11l-.09.999zm3.711-.14c-.43.18-.85.27-1.409.27-1.2 0-1.659-.79-1.659-1.839 0-1.419.789-3.188 2.349-3.188.89 0 1.289.66 1.299 1.329 0 1.339-1.079 1.839-2.438 1.799-.01.14 0 .39.11.569.119.2.34.35.68.35.409 0 .699-.1.989-.24l.079.95zm-.88-3.758c-.38 0-.72.49-.859 1.189.659.03 1.209-.23 1.209-.74-.001-.279-.11-.449-.35-.449zm1.441 3.968l.939-4.887h1.249l-.939 4.887h-1.249zm1.169-6.137c0-.36.26-.77.7-.77.409 0 .6.31.589.65-.01.5-.35.779-.719.779-.4 0-.58-.289-.57-.659zm2.81 1.249l-.07 2.239c-.04.669-.04.929-.069 1.389h.02c.13-.45.23-.72.43-1.309l.85-2.319h1.249l-2.198 4.887H282.9l-.28-4.887h1.317zm5.178 4.678c-.43.18-.85.27-1.409.27-1.2 0-1.659-.79-1.659-1.839 0-1.419.789-3.188 2.349-3.188.89 0 1.289.66 1.299 1.329 0 1.339-1.079 1.839-2.438 1.799-.01.14 0 .39.11.569.119.2.34.35.68.35.409 0 .699-.1.989-.24l.079.95zm-.88-3.758c-.38 0-.72.49-.859 1.189.659.03 1.209-.23 1.209-.74 0-.279-.109-.449-.35-.449zm4.919-2.949c-.999 1.039-2.028 2.998-2.028 5.337 0 1 .069 1.869.449 2.778h-.879c-.38-.77-.56-1.719-.56-2.778 0-2.489 1.159-4.438 2.038-5.337h.98z"/><path d="M291.487 115.637c.959-1.049 2.019-3.008 2.019-5.377 0-1-.05-1.849-.439-2.738h.919c.36.75.52 1.709.52 2.738 0 2.509-1.159 4.458-1.998 5.377h-1.021zm7.228-4.428l-.18.939h-1.988l.18-.939h1.988zm5.679 1.01l-4.808 2.219v-.989l3.838-1.659v-.02l-3.838-1.659v-.989l4.808 2.219v.878zm1.833 2.219l.63-3.298c.109-.569.189-1.129.26-1.589h1.069l-.05.629h.02c.34-.459.79-.709 1.319-.709.689 0 .949.48.949 1.069 0 .29-.05.59-.12.93l-.56 2.968h-1.249l.58-3.039c.029-.169.06-.33.06-.52 0-.23-.1-.39-.31-.39-.29 0-.68.43-.859 1.359l-.49 2.588h-1.249zm4.429 0l.939-4.887h1.249l-.939 4.887h-1.249zm1.169-6.137c0-.36.26-.77.7-.77.409 0 .6.31.589.65-.01.5-.35.779-.719.779-.4 0-.58-.289-.57-.659zm1.011 6.137l1.319-6.916h1.249l-1.319 6.916h-1.249z"/></g></svg>