<svg xmlns="http://www.w3.org/2000/svg" viewBox="0 0 279.04 122.431"><path fill="none" stroke="#0071bc" d="M75.762 25.754v60.834" stroke-linecap="round" stroke-linejoin="round"/><path fill="#0071bc" d="M72.761 85.713l2.992 5.181 2.991-5.181z"/><path fill="none" stroke="#000" d="M85.679 102.754h90.833" stroke-linecap="round" stroke-linejoin="round"/><path d="M175.637 105.755l5.181-2.991-5.181-2.993z"/><path fill="none" stroke="#c1272d" d="M35.762 25.754v30.417" stroke-linecap="round" stroke-linejoin="round"/><path fill="#c1272d" d="M32.761 55.296l2.992 5.181 2.991-5.181z"/><path fill="none" stroke="#c1272d" d="M45.762 61.171V30.754" stroke-linecap="round" stroke-linejoin="round"/><path fill="#c1272d" d="M48.763 31.629l-2.992-5.181-2.991 5.181z"/><path fill="#fddfbb" fill-rule="evenodd" d="M24.998 3.38h69.764v22.374H24.998z" clip-rule="evenodd"/><path fill="none" stroke="#000" d="M24.998 3.38h69.764v22.374H24.998z" stroke-linecap="round" stroke-linejoin="round"/><path fill="#ecbec0" fill-rule="evenodd" d="M3.38 61.566h54.382v22.375H3.38z" clip-rule="evenodd"/><path fill="none" stroke="#000" d="M3.38 61.566h54.382v22.375H3.38z" stroke-linecap="round" stroke-linejoin="round"/><path fill="#b2d4eb" fill-rule="evenodd" d="M3.38 91.566h91.382v22.375H3.38z" clip-rule="evenodd"/><path fill="none" stroke="#000" d="M3.38 91.566h91.382v22.375H3.38z" stroke-linecap="round" stroke-linejoin="round"/><path fill="#b2d4eb" fill-rule="evenodd" d="M181.379 91.566h91.383v22.375h-91.383z" clip-rule="evenodd"/><path fill="none" stroke="#000" d="M181.379 91.566h91.383v22.375h-91.383z" stroke-linecap="round" stroke-linejoin="round"/><circle cx="23.636" cy="40.962" r="6.934" fill="#fff" fill-rule="evenodd" stroke="#000" clip-rule="evenodd" stroke-linecap="round" stroke-linejoin="round"/><path d="M23.168 38.782h-.02l-1.104.552-.263-1.207 1.532-.777 1.37-.015.07 6.5-1.53.017-.055-5.07z"/><circle cx="87.636" cy="40.962" r="6.934" fill="#fff" fill-rule="evenodd" stroke="#000" clip-rule="evenodd" stroke-linecap="round" stroke-linejoin="round"/><path d="M85.683 43.869l-.011-1.05.681-.868c.217-.269.413-.521.587-.756s.325-.459.453-.67c.128-.211.226-.416.293-.613.068-.198.101-.396.099-.597a.775.775 0 0 0-.211-.548c-.139-.145-.334-.216-.587-.213-.193.002-.373.035-.539.101s-.315.138-.447.22l-.263-1.198a2.92 2.92 0 0 1 .657-.276c.272-.083.558-.126.858-.129.393-.004.721.051.982.164.261.114.471.262.63.443.158.182.271.387.337.617.065.229.099.457.102.684.003.307-.037.592-.12.857a3.95 3.95 0 0 1-.327.753 4.485 4.485 0 0 1-.463.67c-.174.209-.351.41-.528.605l-.366.405v.02l1.91-.021.015 1.36-3.742.04z"/><path fill="none" stroke="#0071bc" d="M205.762 91.588V30.754" stroke-linecap="round" stroke-linejoin="round"/><path fill="#0071bc" d="M208.763 31.629l-2.991-5.181-2.992 5.181z"/><path fill="#fddfbb" fill-rule="evenodd" d="M184.998 3.38h69.764v22.374h-69.764z" clip-rule="evenodd"/><path fill="none" stroke="#000" d="M184.998 3.38h69.764v22.374h-69.764z" stroke-linecap="round" stroke-linejoin="round"/><circle cx="217.636" cy="40.962" r="6.934" fill="#fff" fill-rule="evenodd" stroke="#000" clip-rule="evenodd" stroke-linecap="round" stroke-linejoin="round"/><path d="M215.877 42.446c.141.079.3.139.477.18.178.042.346.062.506.06.313-.003.546-.084.697-.243a.765.765 0 0 0 .225-.557.818.818 0 0 0-.105-.419.793.793 0 0 0-.268-.272 1.205 1.205 0 0 0-.377-.15 1.807 1.807 0 0 0-.439-.046l-.18.001-.013-1.12.12-.001c.119-.001.243-.014.369-.039.127-.024.241-.064.344-.119s.186-.125.248-.213a.561.561 0 0 0 .091-.341.604.604 0 0 0-.194-.463c-.128-.116-.303-.172-.522-.17a1.552 1.552 0 0 0-.817.239l-.192-1.158a2.24 2.24 0 0 1 .598-.237c.259-.069.528-.105.809-.108.308-.003.579.039.814.126s.431.204.583.349.268.313.348.506c.08.193.12.393.123.599a1.49 1.49 0 0 1-.244.863 1.656 1.656 0 0 1-.668.578v.02c.33.117.599.314.807.592.207.277.312.62.317 1.026.003.24-.044.479-.138.717a1.83 1.83 0 0 1-.436.64 2.338 2.338 0 0 1-.725.463c-.287.119-.62.182-1 .186a3.146 3.146 0 0 1-.771-.077 2.824 2.824 0 0 1-.562-.189l.175-1.223zM44.366 15.633l-.324 1.575h-.937l1.351-6.067h1.125l1.251 6.067h-.936l-.324-1.575h-1.206zm1.107-.757l-.252-1.396c-.081-.396-.162-.954-.225-1.377h-.027a41.298 41.298 0 0 1-.225 1.387l-.27 1.386h.999zm1.979-.674c0-.594-.018-1.009-.036-1.378h.837l.054.531h.018c.207-.414.54-.603.918-.603.874 0 1.324.936 1.324 2.25 0 1.603-.684 2.278-1.396 2.278-.387 0-.621-.234-.747-.459h-.018v2.115h-.955v-4.734zm.955 1.404c0 .135.018.271.045.369.117.423.342.514.504.514.486 0 .648-.693.648-1.468 0-.873-.207-1.459-.648-1.459-.243 0-.459.271-.513.567-.027.1-.036.207-.036.324v1.153zm2.87-1.404c0-.594-.018-1.009-.036-1.378h.837l.054.531h.018c.207-.414.54-.603.918-.603.874 0 1.324.936 1.324 2.25 0 1.603-.684 2.278-1.396 2.278-.387 0-.621-.234-.747-.459h-.018v2.115h-.955v-4.734zm.955 1.404c0 .135.018.271.045.369.117.423.342.514.504.514.486 0 .648-.693.648-1.468 0-.873-.207-1.459-.648-1.459-.243 0-.459.271-.513.567-.027.1-.036.207-.036.324v1.153zm2.87-4.627h.963v6.229h-.963v-6.229zm2.35 1.26c-.279 0-.504-.225-.504-.558 0-.343.234-.559.513-.559.306 0 .522.216.522.559 0 .333-.216.558-.522.558h-.009zm-.46 4.969v-4.385h.963v4.385h-.963zm4.15-.089c-.135.072-.414.144-.738.144-1.044 0-1.738-.773-1.738-2.215 0-1.313.729-2.286 1.891-2.286.261 0 .513.062.63.126l-.144.766c-.099-.036-.252-.1-.468-.1-.621 0-.945.666-.945 1.477 0 .9.36 1.44.945 1.44.18 0 .333-.036.468-.099l.099.747zm3.267-.91c0 .342.009.711.054.999h-.864l-.054-.441h-.018c-.225.333-.549.514-.928.514-.63 0-1.107-.522-1.107-1.297 0-1.125.954-1.603 1.944-1.611v-.117c0-.459-.18-.774-.657-.774-.315 0-.576.091-.819.243l-.18-.657c.216-.135.675-.314 1.206-.314 1.134 0 1.422.774 1.422 1.71v1.745zm-.946-1.197c-.378.009-1.053.107-1.053.873 0 .495.261.675.477.675.243 0 .468-.162.549-.504a.857.857 0 0 0 .027-.225v-.819zm2.898-3.277v1.089h.847v.693h-.847v2.278c0 .54.208.675.45.675.108 0 .198-.009.297-.027l.018.748c-.144.045-.36.071-.63.071-.306 0-.585-.081-.774-.27-.216-.217-.324-.531-.324-1.188v-2.287h-.522v-.693h.522v-.756l.963-.333zm1.881.504c-.279 0-.504-.225-.504-.558 0-.343.234-.559.513-.559.306 0 .522.216.522.559 0 .333-.216.558-.522.558h-.009zm-.459 4.969v-4.385h.963v4.385h-.963zm3.24.073c-.927 0-1.566-.774-1.566-2.251 0-1.594.783-2.277 1.603-2.277.918 0 1.548.801 1.548 2.25 0 1.773-.918 2.278-1.575 2.278h-.01zm.036-.739c.477 0 .585-.864.585-1.53 0-.64-.108-1.521-.603-1.521-.522 0-.621.882-.621 1.521 0 .738.126 1.53.63 1.53h.009zm2.258-2.485c0-.495-.018-.846-.036-1.233h.837l.045.514h.018a1.176 1.176 0 0 1 1.036-.585c.738 0 1.125.566 1.125 1.584v2.872h-.963v-2.782c0-.44-.09-.864-.513-.864-.234 0-.45.181-.541.541a1.49 1.49 0 0 0-.045.396v2.71h-.963v-3.153zm26.679 28.8c0 .333 0 .711.045.99h-.621l-.045-.459h-.027c-.189.333-.495.531-.864.531-.585 0-1.036-.486-1.036-1.242 0-1.099.874-1.576 1.854-1.585v-.135c0-.585-.144-.99-.693-.99-.27 0-.513.081-.72.225l-.153-.486c.189-.135.585-.288 1.018-.288.873 0 1.242.576 1.242 1.549v1.89zm-.676-1.27c-.36 0-1.197.072-1.197 1.018 0 .576.288.774.531.774.306 0 .558-.226.639-.657a1.2 1.2 0 0 0 .027-.252v-.883zm4.284-3.969v5.186c0 .297.027.792.036 1.044h-.594l-.045-.54h-.036c-.135.306-.45.612-.909.612-.738 0-1.27-.792-1.27-2.233 0-1.548.64-2.269 1.314-2.269.315 0 .621.145.792.514h.018v-2.313h.694zm-.692 3.528c0-.09 0-.188-.009-.288-.036-.45-.315-.846-.648-.846-.576 0-.774.801-.774 1.674 0 .919.234 1.657.738 1.657.216 0 .513-.117.666-.747.027-.081.027-.181.027-.288v-1.162zm4.283-3.528v5.186c0 .297.027.792.036 1.044h-.594l-.045-.54h-.036c-.135.306-.45.612-.909.612-.738 0-1.27-.792-1.27-2.233 0-1.548.64-2.269 1.314-2.269.315 0 .621.145.792.514h.018v-2.313h.694zm-.693 3.528c0-.09 0-.188-.009-.288-.036-.45-.315-.846-.648-.846-.576 0-.774.801-.774 1.674 0 .919.234 1.657.738 1.657.216 0 .513-.117.666-.747.027-.081.027-.181.027-.288v-1.162zm1.539 1.981c.153.099.423.225.702.225.387 0 .639-.243.639-.63 0-.333-.117-.567-.558-.855-.567-.369-.873-.747-.873-1.242 0-.712.522-1.207 1.197-1.207.342 0 .594.108.774.226l-.18.522a.994.994 0 0 0-.585-.198c-.369 0-.558.27-.558.558s.108.459.54.747c.504.324.9.729.9 1.333 0 .873-.594 1.296-1.314 1.296-.315 0-.666-.099-.855-.252l.171-.523zm3.564-4.655v1.018h.837v.522h-.837v2.593c0 .576.198.72.45.72.117 0 .207-.009.279-.026l.036.531a1.522 1.522 0 0 1-.513.071c-.279 0-.522-.071-.684-.261-.18-.198-.261-.495-.261-1.099v-2.529h-.531v-.522h.531v-.738l.693-.28zm1.439 2.143c0-.368-.027-.801-.036-1.125h.622l.036.685h.018c.144-.414.513-.757.918-.757.054 0 .099 0 .144.01v.711c-.045-.009-.09-.009-.144-.009-.441 0-.765.404-.837.909a2.566 2.566 0 0 0-.027.396v2.413h-.693v-3.233zm2.602 1.117c.009 1.341.531 1.62 1.026 1.62.306 0 .549-.072.72-.162l.117.504c-.243.136-.612.207-.963.207-1.035 0-1.576-.846-1.576-2.188 0-1.413.594-2.296 1.468-2.296.882 0 1.242.937 1.242 1.918 0 .171-.009.288-.018.396h-2.016zm1.368-.514c.009-.873-.315-1.261-.648-1.261-.45 0-.684.667-.711 1.261h1.359zm3.708 1.639c0 .333 0 .711.045.99h-.621l-.045-.459h-.027c-.189.333-.495.531-.864.531-.585 0-1.036-.486-1.036-1.242 0-1.099.874-1.576 1.854-1.585v-.135c0-.585-.144-.99-.693-.99-.27 0-.513.081-.72.225l-.153-.486c.189-.135.585-.288 1.018-.288.873 0 1.242.576 1.242 1.549v1.89zm-.675-1.27c-.36 0-1.197.072-1.197 1.018 0 .576.288.774.531.774.306 0 .558-.226.639-.657a1.2 1.2 0 0 0 .027-.252v-.883zm1.656-.972c0-.513-.027-.773-.036-1.125h.612l.036.531h.018c.189-.351.513-.604.973-.604.405 0 .756.189.918.657h.018a1.46 1.46 0 0 1 .423-.495c.18-.107.378-.162.603-.162.594 0 1.053.424 1.053 1.54v2.89h-.693V41.11c0-.566-.081-1.116-.603-1.116-.288 0-.54.243-.639.657-.027.108-.027.243-.027.388v2.809h-.693v-2.863c0-.477-.081-.99-.594-.99-.288 0-.567.243-.648.712a2.27 2.27 0 0 0-.027.369v2.772h-.693v-3.233zm-5.39 78.765c.207.126.567.242.873.242.63 0 1.008-.414 1.008-1.026 0-.558-.324-.899-.801-1.26-.477-.333-1.143-.9-1.143-1.684 0-.918.648-1.594 1.603-1.594.378 0 .711.126.855.226l-.171.594a1.276 1.276 0 0 0-.72-.207c-.594 0-.874.45-.874.864 0 .604.315.847.892 1.252.729.513 1.053 1.071 1.053 1.746 0 1.044-.738 1.701-1.702 1.701-.414 0-.855-.135-1.026-.27l.153-.584zm3.384-5.177a3.952 3.952 0 0 1 1-.117c.603 0 1.053.126 1.368.432.297.307.423.712.423 1.188 0 .774-.36 1.278-.972 1.566v.019c.45.135.684.567.81 1.359.144.828.261 1.341.351 1.53h-.702c-.09-.18-.207-.756-.324-1.494-.135-.838-.396-1.144-.99-1.144h-.27v2.638h-.693v-5.977zm.693 2.8h.288c.666 0 1.107-.486 1.107-1.216 0-.693-.288-1.134-1.036-1.144-.135 0-.27.01-.36.036v2.324zm3.6-2.269h-1.107v-.621h2.908v.621h-1.107v5.446h-.693v-5.446zm2.475-.531a3.982 3.982 0 0 1 1.008-.117c.558 0 1.036.135 1.351.441.288.288.441.729.441 1.26 0 .559-.135.937-.369 1.242-.324.45-.891.676-1.431.676-.117 0-.207 0-.306-.009v2.484h-.693v-5.977zm.693 2.917c.081.009.162.018.279.018.675 0 1.134-.45 1.134-1.306 0-.621-.252-1.179-1.026-1.179-.162 0-.297.018-.387.045v2.422zm5.481 3.133c-.783 0-1.414-.712-1.414-2.242 0-1.593.711-2.26 1.458-2.26.783 0 1.405.721 1.405 2.242 0 1.692-.774 2.26-1.44 2.26h-.009zm.036-.55c.594 0 .72-1.017.72-1.701 0-.675-.126-1.701-.738-1.701-.621 0-.738 1.026-.738 1.701 0 .721.126 1.701.747 1.701h.009zm2.475-3.88l.549 2.449c.063.297.135.684.189 1.062h.027c.045-.359.117-.729.18-1.062l.54-2.449h.684l-1.143 4.357h-.612l-1.134-4.357h.72zm3.141 2.242c.009 1.341.531 1.62 1.026 1.62.306 0 .549-.072.72-.162l.117.504c-.243.136-.612.207-.963.207-1.035 0-1.576-.846-1.576-2.188 0-1.413.594-2.296 1.468-2.296.882 0 1.242.937 1.242 1.918 0 .171-.009.288-.018.396h-2.016zm1.368-.513c.009-.873-.315-1.261-.648-1.261-.45 0-.684.667-.711 1.261h1.359zm1.403-.604c0-.368-.027-.801-.036-1.125h.622l.036.685h.018c.144-.414.513-.757.918-.757.054 0 .099 0 .144.01v.711c-.045-.009-.09-.009-.144-.009-.441 0-.765.404-.837.909a2.566 2.566 0 0 0-.027.396v2.413h-.693v-3.233zm4.393-2.835v4.068c0 1.09.369 1.459.819 1.459.513 0 .846-.396.846-1.459v-4.068h.693v3.961c0 1.575-.648 2.179-1.548 2.179-.909 0-1.503-.595-1.503-2.098v-4.042h.693zm3.428.09c.261-.081.585-.117.937-.117.63 0 1.089.162 1.422.459.468.405.819 1.188.819 2.458 0 1.386-.342 2.143-.729 2.565-.396.441-.981.648-1.674.648-.279 0-.576-.019-.774-.063v-5.95zm.694 5.419c.099.019.198.019.261.019.765 0 1.503-.549 1.503-2.62 0-1.53-.468-2.367-1.44-2.367-.108 0-.234.009-.324.036v4.932zm3.311-5.419a3.982 3.982 0 0 1 1.008-.117c.558 0 1.036.135 1.351.441.288.288.441.729.441 1.26 0 .559-.135.937-.369 1.242-.324.45-.891.676-1.431.676-.117 0-.207 0-.306-.009v2.484h-.693v-5.977zm.694 2.917c.081.009.162.018.279.018.675 0 1.135-.45 1.135-1.306 0-.621-.252-1.179-1.026-1.179-.162 0-.297.018-.387.045v2.422zm50.784-101.487l-.324 1.575h-.936l1.35-6.067h1.125l1.252 6.067h-.936l-.324-1.575h-1.207zm1.107-.757l-.252-1.396c-.081-.396-.162-.954-.225-1.377h-.027a38.888 38.888 0 0 1-.225 1.387l-.271 1.386h1zm1.979-.674c0-.594-.018-1.009-.035-1.378h.837l.054.531h.019c.207-.414.54-.603.918-.603.874 0 1.323.936 1.323 2.25 0 1.603-.684 2.278-1.395 2.278-.388 0-.621-.234-.748-.459h-.018v2.115h-.955v-4.734zm.955 1.404c0 .135.018.271.045.369.117.423.342.514.504.514.486 0 .648-.693.648-1.468 0-.873-.207-1.459-.648-1.459-.242 0-.459.271-.513.567-.027.1-.036.207-.036.324v1.153zm2.871-1.404c0-.594-.018-1.009-.036-1.378h.837l.055.531h.018c.207-.414.54-.603.918-.603.873 0 1.324.936 1.324 2.25 0 1.603-.685 2.278-1.396 2.278-.387 0-.621-.234-.746-.459h-.019v2.115h-.954v-4.734zm.954 1.404c0 .135.019.271.045.369.117.423.343.514.504.514.486 0 .648-.693.648-1.468 0-.873-.207-1.459-.648-1.459-.243 0-.459.271-.513.567-.027.1-.036.207-.036.324v1.153zm2.87-4.627h.963v6.229h-.963v-6.229zm2.35 1.26c-.279 0-.504-.225-.504-.558 0-.343.234-.559.513-.559.306 0 .522.216.522.559 0 .333-.217.558-.522.558h-.009zm-.459 4.969v-4.385h.963v4.385h-.963zm4.148-.089c-.135.072-.414.144-.737.144-1.044 0-1.737-.773-1.737-2.215 0-1.313.729-2.286 1.891-2.286.261 0 .513.062.63.126l-.144.766c-.1-.036-.253-.1-.469-.1-.621 0-.945.666-.945 1.477 0 .9.359 1.44.945 1.44.18 0 .333-.036.469-.099l.097.747zm3.268-.91c0 .342.01.711.055.999h-.865l-.054-.441h-.018c-.226.333-.55.514-.928.514-.63 0-1.106-.522-1.106-1.297 0-1.125.953-1.603 1.943-1.611v-.117c0-.459-.18-.774-.656-.774a1.5 1.5 0 0 0-.82.243l-.18-.657c.217-.135.676-.314 1.207-.314 1.134 0 1.422.774 1.422 1.71v1.745zm-.946-1.197c-.378.009-1.053.107-1.053.873 0 .495.261.675.477.675.243 0 .469-.162.549-.504a.817.817 0 0 0 .027-.225v-.819zm2.899-3.277v1.089h.846v.693h-.846v2.278c0 .54.207.675.449.675.109 0 .199-.009.298-.027l.019.748a2.256 2.256 0 0 1-.631.071c-.307 0-.585-.081-.774-.27-.216-.217-.323-.531-.323-1.188v-2.287h-.523v-.693h.523v-.756l.962-.333zm1.881.504c-.279 0-.505-.225-.505-.558 0-.343.234-.559.513-.559.307 0 .523.216.523.559 0 .333-.217.558-.523.558h-.008zm-.46 4.969v-4.385h.964v4.385h-.964zm3.24.073c-.927 0-1.566-.774-1.566-2.251 0-1.594.783-2.277 1.603-2.277.918 0 1.549.801 1.549 2.25 0 1.773-.918 2.278-1.576 2.278h-.01zm.036-.739c.477 0 .585-.864.585-1.53 0-.64-.108-1.521-.603-1.521-.522 0-.621.882-.621 1.521 0 .738.125 1.53.63 1.53h.009zm2.258-2.485c0-.495-.018-.846-.035-1.233h.837l.046.514h.018a1.174 1.174 0 0 1 1.035-.585c.738 0 1.125.566 1.125 1.584v2.872h-.963v-2.782c0-.44-.09-.864-.514-.864-.234 0-.449.181-.54.541-.026.09-.045.233-.045.396v2.71h-.964v-3.153zm-4.393 29.862c-.783 0-1.414-.712-1.414-2.242 0-1.593.712-2.26 1.459-2.26.783 0 1.404.721 1.404 2.242 0 1.692-.773 2.26-1.439 2.26h-.01zm.036-.549c.595 0 .72-1.017.72-1.701 0-.675-.125-1.701-.738-1.701-.621 0-.738 1.026-.738 1.701 0 .721.127 1.701.748 1.701h.008zm2.187-2.755c0-.513-.027-.773-.036-1.125h.603l.037.522h.018c.189-.352.54-.595.999-.595.604 0 1.054.441 1.054 1.504v2.926h-.693v-2.809c0-.522-.1-1.035-.604-1.035-.287 0-.566.243-.648.711a1.626 1.626 0 0 0-.035.387v2.746h-.693v-3.232zm5.94 2.242c0 .333 0 .711.045.99h-.621l-.045-.459h-.026c-.189.333-.496.531-.865.531-.585 0-1.035-.486-1.035-1.242 0-1.099.873-1.576 1.854-1.585v-.135c0-.585-.144-.99-.692-.99-.271 0-.514.081-.721.225l-.153-.486c.189-.135.585-.288 1.018-.288.873 0 1.242.576 1.242 1.549v1.89zm-.674-1.27c-.36 0-1.197.072-1.197 1.018 0 .576.287.774.531.774.306 0 .558-.226.639-.657a1.2 1.2 0 0 0 .027-.252v-.883zm4.284-3.969v5.186c0 .297.027.792.036 1.044h-.594l-.045-.54h-.037c-.135.306-.449.612-.908.612-.738 0-1.27-.792-1.27-2.233 0-1.548.639-2.269 1.314-2.269.314 0 .621.145.792.514h.019v-2.313h.693zm-.693 3.528c0-.09 0-.188-.01-.288-.036-.45-.314-.846-.648-.846-.576 0-.773.801-.773 1.674 0 .919.233 1.657.738 1.657.216 0 .513-.117.666-.747.027-.081.027-.181.027-.288v-1.162zm4.284-3.528v5.186c0 .297.027.792.036 1.044h-.595l-.045-.54h-.035c-.135.306-.451.612-.91.612-.738 0-1.27-.792-1.27-2.233 0-1.548.64-2.269 1.314-2.269.316 0 .622.145.793.514h.018v-2.313h.694zm-.694 3.528c0-.09 0-.188-.009-.288-.036-.45-.315-.846-.647-.846-.576 0-.775.801-.775 1.674 0 .919.234 1.657.738 1.657.217 0 .514-.117.666-.747.027-.081.027-.181.027-.288v-1.162zm1.539 1.981c.152.099.423.225.701.225.388 0 .64-.243.64-.63 0-.333-.117-.567-.558-.855-.568-.369-.873-.747-.873-1.242 0-.712.521-1.207 1.197-1.207.342 0 .594.108.773.226l-.18.522a1 1 0 0 0-.586-.198c-.369 0-.558.27-.558.558s.108.459.54.747c.504.324.9.729.9 1.333 0 .873-.594 1.296-1.314 1.296-.314 0-.666-.099-.855-.252l.173-.523zm3.564-4.655v1.018h.837v.522h-.837v2.593c0 .576.198.72.45.72.117 0 .207-.009.279-.026l.035.531a1.513 1.513 0 0 1-.513.071c-.279 0-.522-.071-.685-.261-.18-.198-.261-.495-.261-1.099v-2.529h-.531v-.522h.531v-.738l.695-.28zm1.439 2.143c0-.368-.026-.801-.036-1.125h.621l.036.685h.019c.144-.414.513-.757.918-.757.054 0 .1 0 .145.01v.711c-.045-.009-.091-.009-.145-.009-.441 0-.766.404-.838.909a2.576 2.576 0 0 0-.026.396v2.413h-.693v-3.233zm2.601 1.117c.01 1.341.531 1.62 1.027 1.62.306 0 .549-.072.72-.162l.117.504c-.243.136-.612.207-.964.207-1.035 0-1.575-.846-1.575-2.188 0-1.413.595-2.296 1.468-2.296.883 0 1.242.937 1.242 1.918 0 .171-.009.288-.018.396h-2.017zm1.369-.514c.009-.873-.315-1.261-.648-1.261-.45 0-.684.667-.711 1.261h1.359zm3.708 1.639c0 .333 0 .711.045.99h-.621l-.045-.459h-.026c-.189.333-.496.531-.865.531-.585 0-1.035-.486-1.035-1.242 0-1.099.873-1.576 1.854-1.585v-.135c0-.585-.144-.99-.692-.99-.271 0-.514.081-.721.225l-.153-.486c.189-.135.585-.288 1.018-.288.873 0 1.242.576 1.242 1.549v1.89zm-.675-1.27c-.36 0-1.197.072-1.197 1.018 0 .576.287.774.531.774.306 0 .558-.226.639-.657a1.2 1.2 0 0 0 .027-.252v-.883zm1.655-.972c0-.513-.027-.773-.036-1.125h.612l.036.531h.018c.189-.351.514-.604.973-.604.404 0 .756.189.918.657h.018c.117-.216.271-.387.424-.495.18-.107.378-.162.604-.162.594 0 1.053.424 1.053 1.54v2.89h-.693V41.11c0-.566-.081-1.116-.604-1.116-.287 0-.539.243-.639.657-.027.108-.027.243-.027.388v2.809h-.693v-2.863c0-.477-.08-.99-.594-.99-.288 0-.566.243-.648.712a2.27 2.27 0 0 0-.027.369v2.772h-.692v-3.233zM14.454 74.837c0 1.144-.144 1.576-.432 1.9-.27.288-.675.459-1.161.459-.369 0-.729-.09-.954-.216l.162-.541c.171.091.459.189.801.189.549 0 .892-.342.892-1.332v-.441h-.018a.873.873 0 0 1-.828.531c-.774 0-1.279-.873-1.279-2.152 0-1.611.72-2.269 1.369-2.269.459 0 .675.307.81.559h.018l.036-.486h.621c-.009.297-.036.685-.036 1.359v2.44zm-.693-2.295c0-.117-.009-.226-.036-.324-.072-.288-.234-.657-.63-.657-.495 0-.765.675-.765 1.639 0 1.116.351 1.62.765 1.62.216 0 .486-.099.621-.621.045-.135.045-.271.045-.396v-1.261zm2.141.738c.009 1.341.531 1.62 1.026 1.62.306 0 .549-.072.72-.162l.117.504c-.243.136-.612.207-.963.207-1.035 0-1.576-.846-1.576-2.188 0-1.413.594-2.296 1.468-2.296.882 0 1.242.937 1.242 1.918 0 .171-.009.288-.018.396h-2.016zm1.369-.513c.009-.873-.315-1.261-.648-1.261-.45 0-.684.667-.711 1.261h1.359zm2.258-2.746v1.018h.837v.522h-.837v2.593c0 .576.198.72.45.72.117 0 .207-.009.279-.026l.036.531a1.522 1.522 0 0 1-.513.071c-.279 0-.522-.071-.684-.261-.18-.198-.261-.495-.261-1.099v-2.529h-.531v-.522h.531V70.3l.693-.279zm2.187-.693v4.068c0 1.09.369 1.459.819 1.459.513 0 .846-.396.846-1.459v-4.068h.693v3.961c0 1.575-.648 2.179-1.548 2.179-.909 0-1.503-.595-1.503-2.098v-4.042h.693zm3.177 5.348c.153.099.423.225.702.225.387 0 .639-.243.639-.63 0-.333-.117-.567-.558-.855-.567-.369-.873-.747-.873-1.242 0-.712.522-1.207 1.197-1.207.342 0 .594.108.774.226l-.18.522a.994.994 0 0 0-.585-.198c-.369 0-.558.27-.558.558s.108.459.54.747c.504.324.9.729.9 1.333 0 .873-.594 1.296-1.314 1.296-.315 0-.666-.099-.855-.252l.171-.523zm3.204-1.396c.009 1.341.531 1.62 1.026 1.62.306 0 .549-.072.72-.162l.117.504c-.243.136-.612.207-.963.207-1.035 0-1.576-.846-1.576-2.188 0-1.413.594-2.296 1.468-2.296.882 0 1.242.937 1.242 1.918 0 .171-.009.288-.018.396h-2.016zm1.368-.513c.009-.873-.315-1.261-.648-1.261-.45 0-.684.667-.711 1.261h1.359zm1.403-.604c0-.368-.027-.801-.036-1.125h.622l.036.685h.018c.144-.414.513-.757.918-.757.054 0 .099 0 .144.01v.711c-.045-.009-.09-.009-.144-.009-.441 0-.765.404-.837.909a2.566 2.566 0 0 0-.027.396v2.413h-.693v-3.233zm5.968.622c-.045-.802-.09-1.693-.063-2.377h-.036a33.457 33.457 0 0 1-.486 2.106l-.738 2.845h-.45l-.703-2.728a27.371 27.371 0 0 1-.504-2.224h-.026c.009.711-.036 1.558-.072 2.422l-.117 2.565h-.621l.36-6.067h.756l.703 2.772c.207.801.36 1.396.486 2.089h.027c.117-.693.252-1.27.45-2.089l.685-2.772h.774l.351 6.067h-.648l-.128-2.609zm2.15.495c.009 1.341.531 1.62 1.026 1.62.306 0 .549-.072.72-.162l.117.504c-.243.136-.612.207-.963.207-1.035 0-1.576-.846-1.576-2.188 0-1.413.594-2.296 1.468-2.296.882 0 1.242.937 1.242 1.918 0 .171-.009.288-.018.396h-2.016zm1.369-.513c.009-.873-.315-1.261-.648-1.261-.45 0-.684.667-.711 1.261h1.359zm4.041-3.601v5.186c0 .297.027.792.036 1.044h-.594l-.045-.54h-.036c-.135.306-.45.612-.909.612-.738 0-1.27-.792-1.27-2.233 0-1.548.639-2.269 1.314-2.269.315 0 .622.145.792.514h.018v-2.313h.694zm-.693 3.528c0-.09 0-.188-.009-.288-.036-.45-.315-.846-.648-.846-.576 0-.774.801-.774 1.674 0 .919.234 1.657.738 1.657.216 0 .513-.117.666-.747.027-.081.027-.181.027-.288v-1.162zm1.979-2.331c-.225 0-.396-.181-.396-.45 0-.271.18-.45.405-.45.252 0 .414.18.414.45s-.162.45-.414.45h-.009zm-.324 5.033v-4.357h.693v4.357h-.693zm3.952-.991c0 .333 0 .711.045.99h-.621l-.045-.459h-.027c-.189.333-.495.531-.864.531-.585 0-1.036-.486-1.036-1.242 0-1.099.874-1.576 1.855-1.585v-.135c0-.585-.145-.99-.693-.99-.27 0-.513.081-.72.225l-.153-.486c.189-.135.585-.288 1.018-.288.873 0 1.242.576 1.242 1.549v1.89zm-.676-1.269c-.36 0-1.197.072-1.197 1.018 0 .576.288.774.531.774.306 0 .558-.226.639-.657a1.2 1.2 0 0 0 .027-.252v-.883zM23.08 99.418a3.952 3.952 0 0 1 1-.117c.603 0 1.053.126 1.368.432.297.307.423.712.423 1.188 0 .774-.36 1.278-.972 1.566v.019c.45.135.684.567.81 1.359.144.828.261 1.341.351 1.53h-.702c-.09-.18-.207-.756-.324-1.494-.135-.838-.396-1.144-.99-1.144h-.27v2.638h-.694v-5.977zm.693 2.8h.288c.666 0 1.107-.486 1.107-1.216 0-.693-.288-1.134-1.036-1.144-.135 0-.27.01-.36.036v2.324zm3.6-2.269h-1.107v-.621h2.908v.621h-1.107v5.446h-.693v-5.446zm4.842 5.338c-.189.1-.495.162-.873.162-1.179 0-2.035-.945-2.035-3.007 0-2.403 1.188-3.169 2.152-3.169.36 0 .63.072.747.153l-.153.585c-.144-.062-.288-.126-.603-.126-.648 0-1.414.63-1.414 2.485 0 1.863.685 2.466 1.432 2.466a1.6 1.6 0 0 0 .63-.126l.117.577zm.701-5.869a3.982 3.982 0 0 1 1.008-.117c.558 0 1.036.135 1.351.441.288.288.441.729.441 1.26 0 .559-.135.937-.369 1.242-.324.45-.891.676-1.431.676-.117 0-.207 0-.306-.009v2.484h-.693v-5.977zm.694 2.917c.081.009.162.018.279.018.675 0 1.134-.45 1.134-1.306 0-.621-.252-1.179-1.026-1.179-.162 0-.297.018-.387.045v2.422zm3.104.945c.009 1.341.531 1.62 1.026 1.62.306 0 .549-.072.72-.162l.117.504c-.243.136-.612.207-.963.207-1.035 0-1.576-.846-1.576-2.188 0-1.413.594-2.296 1.468-2.296.882 0 1.242.937 1.242 1.918 0 .171-.009.288-.018.396h-2.016zm1.369-.513c.009-.873-.315-1.261-.648-1.261-.45 0-.684.667-.711 1.261h1.359zm1.898.513c.009 1.341.531 1.62 1.026 1.62.306 0 .549-.072.72-.162l.117.504c-.243.136-.612.207-.963.207-1.035 0-1.576-.846-1.576-2.188 0-1.413.594-2.296 1.468-2.296.882 0 1.242.937 1.242 1.918 0 .171-.009.288-.018.396h-2.016zm1.369-.513c.009-.873-.315-1.261-.648-1.261-.45 0-.684.667-.711 1.261h1.359zm1.403-.604c0-.368-.027-.801-.036-1.125h.622l.036.685h.018c.144-.414.513-.757.918-.757.054 0 .099 0 .144.01v.711c-.045-.009-.09-.009-.144-.009-.441 0-.765.404-.837.909a2.566 2.566 0 0 0-.027.396v2.413h-.693v-3.233zm4.951 3.124c-.189.1-.495.162-.873.162-1.179 0-2.035-.945-2.035-3.007 0-2.403 1.188-3.169 2.152-3.169.36 0 .63.072.747.153l-.153.585c-.144-.062-.288-.126-.603-.126-.648 0-1.414.63-1.414 2.485 0 1.863.685 2.466 1.432 2.466a1.6 1.6 0 0 0 .63-.126l.117.577zm1.71.181c-.783 0-1.414-.712-1.414-2.242 0-1.593.711-2.26 1.458-2.26.783 0 1.405.721 1.405 2.242 0 1.692-.774 2.26-1.44 2.26h-.009zm.036-.55c.594 0 .72-1.017.72-1.701 0-.675-.126-1.701-.738-1.701-.621 0-.738 1.026-.738 1.701 0 .721.126 1.701.747 1.701h.009zm2.186-2.755c0-.513-.027-.773-.036-1.125h.603l.036.522h.018c.189-.352.54-.595.999-.595.604 0 1.054.441 1.054 1.504v2.926h-.693v-2.809c0-.522-.099-1.035-.603-1.035-.288 0-.567.243-.648.711a1.57 1.57 0 0 0-.036.387v2.746h-.693v-3.232zm3.645 0c0-.513-.027-.773-.036-1.125h.603l.036.522h.018c.189-.352.54-.595.999-.595.604 0 1.054.441 1.054 1.504v2.926h-.693v-2.809c0-.522-.099-1.035-.603-1.035-.288 0-.567.243-.648.711a1.57 1.57 0 0 0-.036.387v2.746h-.693v-3.232zm4.131 1.117c.009 1.341.531 1.62 1.026 1.62.306 0 .549-.072.72-.162l.117.504c-.243.136-.612.207-.963.207-1.035 0-1.576-.846-1.576-2.188 0-1.413.594-2.296 1.468-2.296.882 0 1.242.937 1.242 1.918 0 .171-.009.288-.018.396h-2.016zm1.369-.513c.009-.873-.315-1.261-.648-1.261-.45 0-.684.667-.711 1.261h1.359zm3.537 2.52c-.153.091-.414.162-.72.162-.955 0-1.594-.765-1.594-2.205 0-1.252.63-2.269 1.72-2.269.234 0 .486.062.612.144l-.135.559a1.13 1.13 0 0 0-.495-.117c-.702 0-1.008.828-1.008 1.684 0 1.017.387 1.629 1.026 1.629.18 0 .342-.036.495-.117l.099.53zm1.574-5.266v1.018h.837v.522h-.837v2.593c0 .576.198.72.45.72.117 0 .207-.009.279-.026l.036.531a1.522 1.522 0 0 1-.513.071c-.279 0-.522-.071-.684-.261-.18-.198-.261-.495-.261-1.099v-2.529h-.531v-.522h.531v-.739l.693-.279zm1.773.342c-.225 0-.396-.181-.396-.45 0-.271.18-.45.405-.45.252 0 .414.18.414.45s-.162.45-.414.45h-.009zm-.324 5.033v-4.357h.693v4.357h-.693zm2.88.072c-.783 0-1.414-.712-1.414-2.242 0-1.593.711-2.26 1.458-2.26.783 0 1.405.721 1.405 2.242 0 1.692-.774 2.26-1.44 2.26h-.009zm.036-.55c.594 0 .72-1.017.72-1.701 0-.675-.126-1.701-.738-1.701-.621 0-.738 1.026-.738 1.701 0 .721.126 1.701.747 1.701h.009zm2.187-2.755c0-.513-.027-.773-.036-1.125h.603l.036.522h.018c.189-.352.54-.595.999-.595.604 0 1.054.441 1.054 1.504v2.926h-.693v-2.809c0-.522-.099-1.035-.603-1.035-.288 0-.567.243-.648.711a1.57 1.57 0 0 0-.036.387v2.746h-.693v-3.232zm128.636-2.745c.298-.081.657-.117.999-.117.604 0 1.054.126 1.369.432.297.307.423.712.423 1.188 0 .774-.36 1.278-.972 1.566v.019c.449.135.684.567.81 1.359.144.828.261 1.341.351 1.53h-.701c-.09-.18-.207-.756-.324-1.494-.135-.838-.396-1.144-.99-1.144h-.271v2.638h-.693v-5.977zm.693 2.8h.288c.666 0 1.107-.486 1.107-1.216 0-.693-.288-1.134-1.035-1.144-.135 0-.271.01-.36.036v2.324zm3.601-2.269h-1.107v-.621h2.907v.621h-1.107v5.446h-.692v-5.446zm4.841 5.338c-.189.1-.495.162-.873.162-1.18 0-2.035-.945-2.035-3.007 0-2.403 1.189-3.169 2.152-3.169.359 0 .63.072.747.153l-.153.585c-.145-.062-.288-.126-.604-.126-.647 0-1.413.63-1.413 2.485 0 1.863.685 2.466 1.432 2.466a1.6 1.6 0 0 0 .63-.126l.117.577zm.702-5.869a3.982 3.982 0 0 1 1.008-.117c.559 0 1.036.135 1.352.441.287.288.44.729.44 1.26 0 .559-.135.937-.369 1.242-.323.45-.892.676-1.431.676-.117 0-.207 0-.307-.009v2.484h-.693v-5.977zm.693 2.917c.081.009.162.018.279.018.675 0 1.135-.45 1.135-1.306 0-.621-.253-1.179-1.027-1.179-.162 0-.297.018-.387.045v2.422zm3.104.945c.009 1.341.531 1.62 1.026 1.62.307 0 .549-.072.721-.162l.117.504c-.244.136-.613.207-.964.207-1.035 0-1.575-.846-1.575-2.188 0-1.413.594-2.296 1.467-2.296.883 0 1.242.937 1.242 1.918 0 .171-.008.288-.018.396h-2.016zm1.369-.513c.01-.873-.314-1.261-.648-1.261-.449 0-.684.667-.711 1.261h1.359zm1.898.513c.01 1.341.531 1.62 1.027 1.62.306 0 .549-.072.72-.162l.117.504c-.243.136-.612.207-.964.207-1.035 0-1.575-.846-1.575-2.188 0-1.413.595-2.296 1.468-2.296.883 0 1.242.937 1.242 1.918 0 .171-.009.288-.018.396h-2.017zm1.369-.513c.009-.873-.315-1.261-.648-1.261-.45 0-.684.667-.711 1.261h1.359zm1.403-.604c0-.368-.026-.801-.036-1.125h.621l.036.685h.019c.144-.414.513-.757.918-.757.054 0 .1 0 .145.01v.711c-.045-.009-.091-.009-.145-.009-.441 0-.766.404-.838.909a2.576 2.576 0 0 0-.026.396v2.413h-.693v-3.233zm4.951 3.124c-.188.1-.494.162-.873.162-1.179 0-2.034-.945-2.034-3.007 0-2.403 1.188-3.169 2.151-3.169.36 0 .631.072.748.153l-.154.585c-.144-.062-.287-.126-.603-.126-.647 0-1.413.63-1.413 2.485 0 1.863.684 2.466 1.432 2.466a1.6 1.6 0 0 0 .63-.126l.116.577zm1.71.181c-.783 0-1.413-.712-1.413-2.242 0-1.593.711-2.26 1.458-2.26.783 0 1.405.721 1.405 2.242 0 1.692-.775 2.26-1.441 2.26h-.009zm.036-.55c.594 0 .721-1.017.721-1.701 0-.675-.127-1.701-.738-1.701-.621 0-.738 1.026-.738 1.701 0 .721.125 1.701.746 1.701h.009zm2.186-2.755c0-.513-.027-.773-.036-1.125h.604l.035.522h.019c.188-.352.54-.595.999-.595.604 0 1.054.441 1.054 1.504v2.926h-.693v-2.809c0-.522-.099-1.035-.603-1.035-.289 0-.568.243-.648.711a1.564 1.564 0 0 0-.037.387v2.746h-.692v-3.232zm3.646 0c0-.513-.027-.773-.037-1.125h.604l.036.522h.019c.188-.352.539-.595.998-.595.604 0 1.055.441 1.055 1.504v2.926h-.693v-2.809c0-.522-.1-1.035-.604-1.035-.288 0-.567.243-.648.711a1.57 1.57 0 0 0-.036.387v2.746h-.692v-3.232zm4.131 1.117c.009 1.341.531 1.62 1.025 1.62.307 0 .55-.072.721-.162l.117.504c-.243.136-.612.207-.963.207-1.035 0-1.576-.846-1.576-2.188 0-1.413.594-2.296 1.468-2.296.882 0 1.242.937 1.242 1.918 0 .171-.009.288-.019.396h-2.015zm1.368-.513c.009-.873-.315-1.261-.648-1.261-.45 0-.685.667-.711 1.261h1.359zm3.537 2.52c-.153.091-.414.162-.72.162-.955 0-1.594-.765-1.594-2.205 0-1.252.63-2.269 1.719-2.269.234 0 .486.062.613.144l-.136.559a1.134 1.134 0 0 0-.495-.117c-.702 0-1.008.828-1.008 1.684 0 1.017.387 1.629 1.025 1.629.181 0 .343-.036.496-.117l.1.53zm1.574-5.266v1.018h.837v.522h-.837v2.593c0 .576.198.72.45.72.117 0 .207-.009.279-.026l.035.531a1.513 1.513 0 0 1-.513.071c-.279 0-.522-.071-.685-.261-.18-.198-.261-.495-.261-1.099v-2.529h-.531v-.522h.531v-.739l.695-.279zm1.773.342c-.225 0-.396-.181-.396-.45 0-.271.181-.45.406-.45.252 0 .414.18.414.45s-.162.45-.414.45h-.01zm-.325 5.033v-4.357h.693v4.357h-.693zm2.881.072c-.783 0-1.414-.712-1.414-2.242 0-1.593.712-2.26 1.459-2.26.783 0 1.404.721 1.404 2.242 0 1.692-.773 2.26-1.439 2.26h-.01zm.036-.55c.595 0 .72-1.017.72-1.701 0-.675-.125-1.701-.738-1.701-.621 0-.738 1.026-.738 1.701 0 .721.127 1.701.748 1.701h.008zm2.187-2.755c0-.513-.027-.773-.036-1.125h.603l.037.522h.018c.189-.352.54-.595.999-.595.604 0 1.054.441 1.054 1.504v2.926h-.693v-2.809c0-.522-.1-1.035-.604-1.035-.287 0-.566.243-.648.711a1.626 1.626 0 0 0-.035.387v2.746h-.693v-3.232z"/><path fill="#0071bc" d="M159.568 109.42c-.073-.007-.146-.013-.219-.025a2.147 2.147 0 0 1-.167-.042c-.068-.018-.137-.035-.203-.058-.055-.02-.107-.045-.16-.068-.071-.031-.141-.061-.21-.098-.051-.027-.099-.06-.148-.09a3.36 3.36 0 0 1-.451-.332c-.019-.016-.037-.029-.055-.046a4.548 4.548 0 0 1-.274-.28c-.059-.064-.115-.138-.173-.208-.048-.061-.097-.119-.145-.185-.057-.076-.109-.161-.163-.244-.054-.083-.109-.161-.161-.251a6.744 6.744 0 0 1-.318-.63c-.028-.062-.055-.127-.081-.189a8.204 8.204 0 0 1-.199-.524c-.022-.065-.047-.13-.066-.194-.035-.111-.065-.225-.097-.337-.023-.091-.051-.18-.073-.271a12.202 12.202 0 0 1-.075-.353c-.019-.091-.038-.179-.055-.27-.044-.248-.078-.5-.105-.755-.009-.082-.014-.164-.02-.247a9.462 9.462 0 0 1-.037-.736c-.003-.122-.004-.243-.003-.364.002-.102.005-.204.009-.305.004-.113.011-.225.018-.337l.026-.315c.012-.109.023-.216.037-.325.013-.103.027-.205.044-.307.017-.115.037-.231.059-.345l.058-.287a9.93 9.93 0 0 1 .1-.404l.063-.237a8.406 8.406 0 0 1 .39-1.062c.023-.055.045-.109.07-.162.08-.169.164-.334.256-.492.761-1.316 1.759-1.975 2.756-1.972l-47.707-.028c-.997-.004-1.994.654-2.755 1.972a6.48 6.48 0 0 0-.256.49c-.027.058-.051.118-.078.177-.043.099-.088.195-.129.297l-.012.036a8.544 8.544 0 0 0-.243.719c-.006.02-.014.037-.019.056-.017.057-.027.114-.042.17a10.63 10.63 0 0 0-.102.418c-.009.037-.02.072-.027.11-.012.054-.019.109-.029.165-.022.118-.044.236-.062.355-.007.048-.019.093-.025.141-.008.052-.011.104-.017.155-.015.112-.026.225-.038.338-.005.052-.013.104-.017.157-.004.048-.006.099-.009.148-.008.114-.013.227-.018.341-.002.057-.008.113-.01.17-.001.045.001.09.001.136-.002.123-.001.245.001.369.003.06-.001.119.001.179.002.035.007.07.008.105.007.153.018.305.03.457.005.06.006.121.012.18.001.019.005.037.008.054.026.257.063.511.106.76l.005.038c.014.074.032.146.047.219.025.122.049.245.079.364.021.091.046.179.07.267.032.115.063.229.099.342.007.023.013.05.021.074.013.04.03.078.044.119.061.178.127.352.198.521.027.065.054.131.083.194a6.85 6.85 0 0 0 .366.71c.037.062.077.114.115.173.054.082.106.166.16.241.047.065.097.122.145.184.058.07.114.143.172.208.013.013.022.028.035.041.078.085.158.164.24.239.018.017.038.031.056.048.05.042.099.087.149.127.021.018.044.028.065.044.079.059.157.111.237.161.032.019.063.046.096.064.017.01.034.014.05.022.07.038.142.07.212.1.04.017.078.041.118.056.014.005.027.007.04.011.067.025.138.041.205.06.044.011.087.028.132.038l.034.003c.073.014.146.019.219.025.043.004.087.014.13.014l.059.002 47.706.029c-.061-.002-.125-.013-.187-.018z"/><path fill="#4c9cd0" d="M162.512 107.463c-1.513 2.618-3.962 2.632-5.474.03-1.512-2.601-1.512-6.831 0-9.449 1.512-2.618 3.961-2.631 5.474-.03 1.511 2.6 1.511 6.831 0 9.449z"/><path fill="none" stroke="#000" d="M159.568 109.448l-.007-.001c1.061.095 2.141-.553 2.951-1.956 1.511-2.618 1.511-6.849 0-9.449-.754-1.296-1.74-1.941-2.728-1.94l.01-.001-47.707-.028c-.997-.003-1.994.654-2.755 1.972a6.676 6.676 0 0 0-.256.49c-.027.058-.051.118-.078.177-.043.099-.088.195-.129.297l-.012.036a8.544 8.544 0 0 0-.243.719c-.006.02-.014.037-.019.057-.017.056-.027.113-.042.17-.036.137-.071.275-.102.417-.009.037-.02.072-.027.11-.012.054-.019.109-.029.165-.022.118-.044.236-.062.356-.007.048-.019.093-.025.141-.008.051-.011.104-.017.154-.015.112-.026.226-.038.338-.005.052-.013.104-.017.157l-.009.147c-.008.114-.013.229-.018.342-.002.056-.008.112-.01.169-.001.045.001.09.001.136-.002.123-.001.245.001.369.003.06-.001.12.001.179.002.036.007.07.008.105.007.153.018.305.03.457.005.06.006.121.012.18.001.019.005.037.008.054.026.257.063.511.106.76l.005.038c.014.074.032.146.047.219.025.122.049.245.079.364.021.091.046.179.07.267.032.115.063.229.099.342.007.024.013.05.021.074.013.041.03.078.044.119.061.178.127.352.198.522.027.064.054.13.083.193a6.85 6.85 0 0 0 .366.711c.037.062.077.113.115.173.054.081.106.165.16.24.047.065.097.122.145.183.058.072.114.144.172.209.013.013.022.029.035.041.078.085.158.164.24.239.018.017.038.031.056.048.05.043.099.088.149.127.021.018.044.027.065.045.079.058.157.11.237.16.032.02.063.046.096.064.017.01.034.014.05.023.07.037.142.068.212.099.04.018.078.04.118.056l.04.012c.067.023.138.041.205.059.044.012.087.028.132.038l.034.004c.073.013.146.019.219.024.043.004.087.014.13.014.019.002.039.002.059.003l47.706.028c-.059-.001-.123-.012-.185-.017z" stroke-linecap="round" stroke-linejoin="round"/><path fill="none" stroke="#000" stroke-miterlimit="10" d="M163.645 102.773h-7.741"/></svg>