<svg xmlns="http://www.w3.org/2000/svg" viewBox="0 0 344.261 256.938"><path fill="none" stroke="#000" d="M95.086 213.438H271.88m-210.5-140h173.705m-139.999 20H271.88m-176.794 40h183.628" stroke-dasharray="1 1"/><path fill="#b2d4eb" fill-rule="evenodd" d="M73.286 78.366c0 1.98-1.62 3.6-3.6 3.6H6.98a3.61 3.61 0 0 1-3.6-3.6v-9.857c0-1.98 1.62-3.6 3.6-3.6h62.706c1.98 0 3.6 1.62 3.6 3.6v9.857z" clip-rule="evenodd"/><path fill="none" stroke="#000" d="M73.286 78.366c0 1.98-1.62 3.6-3.6 3.6H6.98a3.61 3.61 0 0 1-3.6-3.6v-9.857c0-1.98 1.62-3.6 3.6-3.6h62.706c1.98 0 3.6 1.62 3.6 3.6v9.857z" stroke-linecap="round" stroke-linejoin="round"/><path fill="#b2d4eb" fill-rule="evenodd" d="M326.286 98.366c0 1.98-1.62 3.6-3.6 3.6h-62.707c-1.979 0-3.6-1.62-3.6-3.6V88.51c0-1.98 1.62-3.6 3.6-3.6h62.707c1.979 0 3.6 1.62 3.6 3.6v9.856z" clip-rule="evenodd"/><path fill="none" stroke="#000" d="M326.286 98.366c0 1.98-1.62 3.6-3.6 3.6h-62.707c-1.979 0-3.6-1.62-3.6-3.6V88.51c0-1.98 1.62-3.6 3.6-3.6h62.707c1.979 0 3.6 1.62 3.6 3.6v9.856z" stroke-linecap="round" stroke-linejoin="round"/><path fill="none" stroke="#000" d="M61.38 113.438h173.705" stroke-dasharray="1 1"/><path fill="#fddfbb" fill-rule="evenodd" d="M326.286 145.677c0 1.98-1.62 3.6-3.6 3.6h-62.707c-1.979 0-3.6-1.62-3.6-3.6v-24.479c0-1.98 1.62-3.6 3.6-3.6h62.707c1.979 0 3.6 1.62 3.6 3.6v24.479z" clip-rule="evenodd"/><path fill="none" stroke="#000" d="M326.286 145.677c0 1.98-1.62 3.6-3.6 3.6h-62.707c-1.979 0-3.6-1.62-3.6-3.6v-24.479c0-1.98 1.62-3.6 3.6-3.6h62.707c1.979 0 3.6 1.62 3.6 3.6v24.479z" stroke-linecap="round" stroke-linejoin="round"/><path fill="none" stroke="#000" d="M95.086 173.438H271.88" stroke-dasharray="1 1"/><path fill="#fddfbb" fill-rule="evenodd" d="M326.511 183.351c0 1.98-1.62 3.6-3.6 3.6h-62.707a3.61 3.61 0 0 1-3.6-3.6v-19.827c0-1.98 1.62-3.6 3.6-3.6h62.707c1.979 0 3.6 1.62 3.6 3.6v19.827z" clip-rule="evenodd"/><path fill="none" stroke="#000" d="M326.511 183.351c0 1.98-1.62 3.6-3.6 3.6h-62.707a3.61 3.61 0 0 1-3.6-3.6v-19.827c0-1.98 1.62-3.6 3.6-3.6h62.707c1.979 0 3.6 1.62 3.6 3.6v19.827z" stroke-linecap="round" stroke-linejoin="round"/><path fill="none" stroke="#000" d="M61.38 153.438h173.705" stroke-dasharray="1 1"/><path fill="#fddfbb" fill-rule="evenodd" d="M73.286 173.677c0 1.98-1.62 3.6-3.6 3.6H6.98a3.61 3.61 0 0 1-3.6-3.6v-24.479c0-1.98 1.62-3.6 3.6-3.6h62.706c1.98 0 3.6 1.62 3.6 3.6v24.479z" clip-rule="evenodd"/><path fill="none" stroke="#000" d="M73.286 173.677c0 1.98-1.62 3.6-3.6 3.6H6.98a3.61 3.61 0 0 1-3.6-3.6v-24.479c0-1.98 1.62-3.6 3.6-3.6h62.706c1.98 0 3.6 1.62 3.6 3.6v24.479z" stroke-linecap="round" stroke-linejoin="round"/><path fill="none" stroke="#000" d="M61.38 193.438h173.705" stroke-dasharray="1 1"/><path fill="#ccc" fill-rule="evenodd" d="M73.286 198.366c0 1.98-1.62 3.6-3.6 3.6H6.98a3.61 3.61 0 0 1-3.6-3.6v-9.856c0-1.98 1.62-3.6 3.6-3.6h62.706c1.98 0 3.6 1.62 3.6 3.6v9.856z" clip-rule="evenodd"/><path fill="none" stroke="#000" d="M73.286 198.366c0 1.98-1.62 3.6-3.6 3.6H6.98a3.61 3.61 0 0 1-3.6-3.6v-9.856c0-1.98 1.62-3.6 3.6-3.6h62.706c1.98 0 3.6 1.62 3.6 3.6v9.856z" stroke-linecap="round" stroke-linejoin="round"/><path fill="#ccc" fill-rule="evenodd" d="M326.51 218.366c0 1.98-1.62 3.6-3.6 3.6h-62.706a3.61 3.61 0 0 1-3.6-3.6v-9.856c0-1.98 1.62-3.6 3.6-3.6h62.706c1.979 0 3.6 1.62 3.6 3.6v9.856z" clip-rule="evenodd"/><path fill="none" stroke="#000" d="M326.51 218.366c0 1.98-1.62 3.6-3.6 3.6h-62.706a3.61 3.61 0 0 1-3.6-3.6v-9.856c0-1.98 1.62-3.6 3.6-3.6h62.706c1.979 0 3.6 1.62 3.6 3.6v9.856zM235.085 43.499v204.439" stroke-linecap="round" stroke-linejoin="round"/><path d="M232.084 247.062l2.992 5.181 2.991-5.181z"/><path fill="none" stroke="#0071bc" d="M95.086 75.884L230.63 89.438" stroke-linecap="round" stroke-linejoin="round"/><path fill="#0071bc" d="M229.46 92.336l5.454-2.461-4.858-3.492z"/><path fill="none" stroke="#0071bc" d="M235.085 95.884l-134.481 12.804" stroke-linecap="round" stroke-linejoin="round"/><path fill="#0071bc" d="M101.191 105.617l-4.875 3.469 5.442 2.487z"/><path fill="none" stroke="#009245" d="M235.085 135.884l-134.481 12.804" stroke-linecap="round" stroke-linejoin="round"/><path fill="#009245" d="M101.191 145.617l-4.875 3.469 5.442 2.487z"/><path fill="none" stroke="#009245" d="M95.086 115.884l134.628 13.304" stroke-linecap="round" stroke-linejoin="round"/><path fill="#009245" d="M228.548 132.088l5.45-2.468-4.862-3.486z"/><path fill="none" stroke="#009245" d="M235.085 175.884l-134.481 12.804" stroke-linecap="round" stroke-linejoin="round"/><path fill="#009245" d="M101.191 185.617l-4.875 3.469 5.442 2.487z"/><path fill="none" stroke="#009245" d="M95.086 155.884l134.628 13.304" stroke-linecap="round" stroke-linejoin="round"/><path fill="#009245" d="M228.548 172.088l5.45-2.468-4.862-3.486z"/><path fill="none" stroke="#000" d="M94.729 233.438h140.356" stroke-dasharray="1 1"/><path fill="none" stroke="#000" d="M235.085 215.884l-134.481 12.804" stroke-dasharray="2 2"/><path d="M101.191 225.617l-4.875 3.469 5.442 2.487z"/><path fill="none" stroke="#000" d="M95.086 195.884l134.628 13.304" stroke-linecap="round" stroke-linejoin="round"/><path d="M228.548 212.088l5.45-2.468-4.862-3.486z"/><path fill="none" stroke="#000" d="M95.086 43.499v204.439" stroke-linecap="round" stroke-linejoin="round"/><path d="M92.085 247.062l2.991 5.181 2.992-5.181z"/><path fill="#ccc" d="M96.774 56.478v1.309L75.629 45.674v-1.307z"/><path fill="gray" d="M96.774 56.478l14.73-8.379v1.309l-14.73 8.381z"/><path fill="#fff" d="M75.629 44.369l14.709-8.43 21.166 12.16-14.73 8.379z"/><path fill="#999" d="M113.553 29.092l.988-.563-2.06 18.966-.99.563zM98.604 53.195v.254L80.731 43.212v-.253z"/><path fill="#b3b3b3" d="M98.604 53.195l10.123-5.759v.254l-10.123 5.761z"/><path fill="#e6e6e6" d="M80.731 42.96l10.107-5.8 17.889 10.276-10.123 5.759zm2.57 5.477l2.903-1.666 5.134 2.95-2.906 1.654zm30.252-19.345l-2.062 18.965-21.145-12.113 2.061-18.964z"/><path fill="#0071bc" d="M110.649 46.602L91.19 35.455l2.061-17.02 19.458 11.146-2.06 17.021z"/><path fill="#b3b3b3" d="M92.407 16.981l.971-.611 21.163 12.159-.988.563z"/><path fill="none" stroke="#000" d="M112.481 47.495l2.06-18.966L93.378 16.37l-.969.61h-.002l-2.061 18.963-.008-.004-14.707 8.429-.002-.001v1.307l21.145 12.113v.002l14.73-8.381v-1.309l-.013-.042v.001z" stroke-linecap="round" stroke-linejoin="round"/><path fill="#b3b3b3" d="M231.714 31.718v29.233l-11.485-7.059V24.653z"/><path fill="#333" d="M229.585 32.636v3.49l-8.19-5.037v-3.492zm0 11.769v3.487l-8.19-5.038v-3.488z"/><path fill="#e6e6e6" d="M229.585 40.019v1.007l-8.19-5.035v-1.013z"/><path fill="#333" d="M229.585 49.36v3.487l-8.19-5.035v-3.491zm0 4.953v3.49l-8.19-5.038v-3.489z"/><path fill="gray" d="M231.708 31.735l18.203-11.482v29.236l-18.203 11.482z"/><path fill="#999" d="M220.255 24.671l18.224-11.482 11.461 7.06-18.205 11.482z"/><path fill="#009245" d="M221.671 31.567c.18.105.318.365.318.582 0 .211-.141.303-.318.191a.744.744 0 0 1-.312-.582c-.001-.216.14-.298.312-.191"/><path fill="#c1272d" d="M222.44 32.042c.178.107.316.369.316.586 0 .211-.146.299-.318.191-.176-.105-.316-.367-.316-.582 0-.216.143-.304.318-.195"/><path fill="#009245" d="M223.208 32.507a.76.76 0 0 1 .316.582c0 .217-.145.303-.318.195-.178-.107-.316-.373-.316-.588 0-.211.14-.297.318-.189"/><path fill="#c1272d" d="M223.974 32.979c.176.107.314.367.314.584-.002.211-.143.299-.32.189-.172-.105-.314-.369-.314-.582-.001-.214.144-.302.32-.191m.775.475a.74.74 0 0 1 .316.584c0 .215-.141.303-.318.191a.755.755 0 0 1-.312-.582c0-.212.14-.3.314-.193"/><path fill="#009245" d="M225.517 33.933c.178.106.316.367.316.582 0 .215-.141.301-.318.193-.174-.105-.316-.367-.316-.584-.001-.213.142-.303.318-.191m.767.461a.75.75 0 0 1 .314.584c0 .219-.143.303-.314.193-.178-.107-.318-.369-.318-.584 0-.213.142-.301.318-.193m.768.474c.172.105.312.365.312.582s-.141.299-.318.191a.742.742 0 0 1-.312-.582c-.001-.216.142-.304.318-.191"/><path fill="#c1272d" d="M221.671 32.702c.18.105.318.369.318.584 0 .213-.141.297-.318.193a.746.746 0 0 1-.312-.586c-.001-.214.14-.298.312-.191m.769.475c.178.109.316.369.316.586 0 .213-.146.303-.318.193-.176-.109-.316-.373-.316-.586 0-.215.143-.299.318-.193"/><path fill="#009245" d="M223.208 33.642c.172.103.316.373.316.582 0 .217-.145.303-.318.197-.178-.109-.316-.371-.316-.588 0-.213.14-.299.318-.191"/><path fill="#c1272d" d="M223.974 34.114c.176.105.314.367.314.584-.002.211-.143.299-.32.193a.774.774 0 0 1-.314-.584c-.001-.216.144-.304.32-.193"/><path fill="#009245" d="M224.749 34.589a.742.742 0 0 1 .316.582c0 .217-.141.305-.318.197-.172-.107-.312-.371-.312-.584 0-.215.14-.303.314-.195"/><path fill="#c1272d" d="M225.517 35.063c.178.107.316.375.316.586 0 .217-.141.301-.318.195a.757.757 0 0 1-.316-.584c-.001-.214.142-.302.318-.197"/><path fill="#009245" d="M226.284 35.528a.763.763 0 0 1 .314.586c0 .217-.143.303-.314.191-.178-.104-.318-.367-.318-.582 0-.214.142-.302.318-.195"/><path fill="#c1272d" d="M227.052 35.999c.172.111.312.369.312.586s-.141.299-.318.195a.757.757 0 0 1-.312-.584c-.001-.218.142-.3.318-.197"/><path fill="#009245" d="M227.644 40.882c.178.107.32.367.32.586 0 .211-.145.299-.32.193a.762.762 0 0 1-.316-.586c-.001-.215.14-.301.316-.193m.769.463a.763.763 0 0 1 .312.586c0 .215-.141.299-.312.193a.742.742 0 0 1-.318-.584c0-.215.14-.299.318-.195"/><path fill="#c1272d" d="M229.177 41.817c.176.107.316.367.316.584 0 .211-.141.303-.318.193a.744.744 0 0 1-.314-.584c-.001-.214.142-.304.316-.193m-1.533.202c.178.105.32.367.32.586 0 .213-.145.299-.32.188-.178-.104-.316-.369-.316-.582-.001-.214.14-.304.316-.192m.769.462a.772.772 0 0 1 .312.582c0 .217-.141.305-.312.193-.18-.105-.318-.369-.318-.582 0-.216.14-.3.318-.193"/><path fill="#009245" d="M229.177 42.954c.176.103.316.365.316.582 0 .215-.141.303-.318.191a.731.731 0 0 1-.314-.582c-.001-.212.142-.3.316-.191"/><path fill="none" stroke="#000" d="M249.94 20.249l-11.462-7.06-18.223 11.482-.026-.018v29.239l11.479 7.059v.02l18.201-11.482v-29.22z" stroke-linecap="round" stroke-linejoin="round"/><path fill="#b2d4eb" fill-rule="evenodd" d="M73.286 118.214c0 1.98-1.62 3.6-3.6 3.6H6.98a3.61 3.61 0 0 1-3.6-3.6v-9.856c0-1.98 1.62-3.6 3.6-3.6h62.706c1.98 0 3.6 1.62 3.6 3.6v9.856z" clip-rule="evenodd"/><path fill="none" stroke="#000" d="M73.286 118.214c0 1.98-1.62 3.6-3.6 3.6H6.98a3.61 3.61 0 0 1-3.6-3.6v-9.856c0-1.98 1.62-3.6 3.6-3.6h62.706c1.98 0 3.6 1.62 3.6 3.6v9.856z" stroke-linecap="round" stroke-linejoin="round"/><path d="M240.716 73.277c0 1.895-.6 2.67-1.351 2.67-.808 0-1.296-.959-1.296-2.654 0-1.751.521-2.67 1.367-2.67.84 0 1.28.999 1.28 2.654zm-2.03.008c0 1.256.216 2.135.728 2.135.488 0 .688-.888.688-2.135 0-1.215-.199-2.135-.695-2.135s-.721.888-.721 2.135zm3.936-.271c0-.456-.024-.688-.032-1h.536l.031.48h.016c.168-.312.465-.544.872-.544.36 0 .663.176.808.592h.016c.104-.192.24-.344.385-.44a.93.93 0 0 1 .535-.151c.52 0 .928.384.928 1.367v2.566h-.607v-2.423c0-.504-.072-.991-.545-.991-.256 0-.479.216-.566.575a2.243 2.243 0 0 0-.024.353v2.486h-.608V73.35c0-.433-.08-.88-.535-.88-.248 0-.504.216-.576.624a2.213 2.213 0 0 0-.023.335v2.455h-.607v-2.87zm4.856 2.23c.137.088.376.2.624.2.352 0 .567-.216.567-.56 0-.296-.104-.496-.496-.76-.504-.328-.775-.656-.775-1.104a1.04 1.04 0 0 1 1.063-1.071c.304 0 .536.104.696.199l-.168.464a.913.913 0 0 0-.512-.168.474.474 0 0 0-.504.488c0 .264.096.407.479.672.448.287.8.64.8 1.175 0 .775-.527 1.151-1.16 1.151-.287 0-.6-.088-.768-.224l.154-.462zM77.422 95.884v-.399l.44-.6c.615-.855 1.351-1.831 1.351-2.807 0-.576-.256-.928-.744-.928-.376 0-.616.2-.751.288l-.152-.464a1.624 1.624 0 0 1 1.015-.352c.864 0 1.24.64 1.24 1.423 0 .976-.64 1.919-1.279 2.799l-.352.479v.016h1.735v.544h-2.503zm3.049-1.272c0-.728.432-1.191.855-1.487l-.008-.016c-.432-.296-.68-.752-.68-1.191 0-.8.568-1.295 1.215-1.295.744 0 1.111.623 1.111 1.223 0 .456-.216.896-.695 1.224v.024c.479.319.832.791.832 1.415 0 .808-.536 1.438-1.335 1.438-.864 0-1.295-.687-1.295-1.335zm2.022-.063c0-.6-.344-.936-.743-1.199a1.386 1.386 0 0 0-.672 1.159c0 .583.264.983.711.983.384 0 .704-.296.704-.943zm-1.263-2.671c0 .527.32.792.64.999.312-.224.52-.567.52-.959 0-.504-.208-.84-.584-.84-.344 0-.576.328-.576.8zm3.784 1.136c0-.456-.024-.688-.032-1h.536l.032.48h.016c.168-.312.464-.544.872-.544.36 0 .664.176.808.592h.016c.104-.192.24-.344.384-.44a.932.932 0 0 1 .536-.151c.52 0 .927.384.927 1.367v2.566h-.607v-2.423c0-.504-.072-.991-.544-.991-.256 0-.479.216-.567.575a2.37 2.37 0 0 0-.024.353v2.486h-.608V93.35c0-.433-.08-.88-.536-.88-.248 0-.504.216-.576.624a2.209 2.209 0 0 0-.024.335v2.455h-.608v-2.87zm4.856 2.23c.136.088.376.2.624.2.352 0 .567-.216.567-.56 0-.296-.104-.496-.496-.76-.504-.328-.775-.656-.775-1.104 0-.624.463-1.071 1.063-1.071.304 0 .536.104.696.199l-.168.464a.91.91 0 0 0-.512-.168.474.474 0 0 0-.503.488c0 .264.096.407.479.672.448.287.8.64.8 1.175 0 .775-.528 1.151-1.16 1.151-.288 0-.6-.088-.768-.224l.153-.462zm-12.479 39.368c0-.728.432-1.191.855-1.487l-.008-.016c-.432-.296-.68-.752-.68-1.191 0-.8.568-1.295 1.215-1.295.744 0 1.111.623 1.111 1.223 0 .456-.216.896-.695 1.224v.024c.479.319.832.791.832 1.415 0 .808-.536 1.438-1.335 1.438-.864 0-1.295-.687-1.295-1.335zm2.022-.063c0-.6-.344-.936-.743-1.199a1.386 1.386 0 0 0-.672 1.159c0 .583.264.983.711.983.384 0 .704-.296.704-.943zm-1.263-2.671c0 .527.32.792.64.999.312-.224.52-.567.52-.959 0-.504-.208-.84-.584-.84-.344 0-.576.328-.576.8zm3.968 4.006v-1.432h-1.727v-.415l1.687-3.351h.6v3.263h.568v.503h-.568v1.432h-.56zm0-1.935v-1.472c0-.359.024-.68.048-1.023h-.032c-.176.416-.288.664-.44.983l-.72 1.495v.017h1.144zm2.896-.935c0-.456-.024-.688-.032-1h.536l.032.48h.016c.168-.312.464-.544.872-.544.36 0 .664.176.808.592h.016c.104-.192.24-.344.384-.44a.932.932 0 0 1 .536-.151c.52 0 .927.384.927 1.367v2.566h-.607v-2.423c0-.504-.072-.991-.544-.991-.256 0-.479.216-.567.575a2.37 2.37 0 0 0-.024.353v2.486h-.608v-2.534c0-.433-.08-.88-.536-.88-.248 0-.504.216-.576.624a2.209 2.209 0 0 0-.024.335v2.455h-.608v-2.87zm4.856 2.23c.136.088.376.2.624.2.352 0 .567-.216.567-.56 0-.296-.104-.496-.496-.76-.504-.328-.775-.656-.775-1.104 0-.624.463-1.071 1.063-1.071.304 0 .536.104.696.199l-.168.464a.91.91 0 0 0-.512-.168.474.474 0 0 0-.503.488c0 .264.096.407.479.672.448.287.8.64.8 1.175 0 .775-.528 1.151-1.16 1.151-.288 0-.6-.088-.768-.224l.153-.462zM32.683 75.483c.23.15.63.27.97.27.699 0 1.119-.459 1.119-1.139 0-.62-.36-1-.89-1.399-.53-.37-1.269-.999-1.269-1.869 0-1.02.709-1.769 1.779-1.769.42 0 .79.13.95.249l-.19.66a1.41 1.41 0 0 0-.8-.229c-.66 0-.969.499-.969.959 0 .67.35.93.989 1.39.81.569 1.169 1.189 1.169 1.938 0 1.159-.819 1.889-1.889 1.889-.46 0-.95-.149-1.14-.289l.171-.661zm4.739.89v-2.849l-1.479-3.888h.81l.6 1.689c.17.47.35.999.5 1.519h.02c.14-.52.31-1.029.49-1.549l.57-1.659h.81l-1.549 3.858v2.878h-.772zm2.96 0v-6.736h.729l1.239 3.158c.28.72.63 1.619.86 2.349h.02c-.06-1.06-.09-1.929-.09-3.098v-2.409h.689v6.736H43.1l-1.279-3.238c-.27-.68-.56-1.449-.8-2.289h-.02c.06.899.08 1.76.08 3.198v2.329h-.699zM84.805 7.48c.23.15.63.27.97.27.699 0 1.119-.459 1.119-1.139 0-.62-.36-1-.89-1.399-.529-.37-1.269-.999-1.269-1.869 0-1.02.709-1.769 1.779-1.769.42 0 .79.13.95.249l-.19.66a1.41 1.41 0 0 0-.8-.229c-.66 0-.969.499-.969.959 0 .67.35.93.989 1.39.81.569 1.169 1.189 1.169 1.938 0 1.159-.819 1.889-1.889 1.889-.46 0-.95-.149-1.14-.289l.171-.661zm4.31-1.459c.01 1.479.589 1.799 1.149 1.799.33 0 .609-.08.799-.189l.12.569c-.27.15-.68.229-1.06.229-1.159 0-1.759-.949-1.759-2.429 0-1.568.66-2.548 1.629-2.548.989 0 1.379 1.039 1.379 2.139 0 .18 0 .31-.01.43h-2.247zm1.519-.569c.02-.97-.35-1.399-.72-1.399-.5 0-.759.739-.79 1.399h1.51zm1.571-.67c0-.569-.03-.859-.04-1.249h.67l.04.579h.02c.209-.39.6-.659 1.109-.659.669 0 1.169.499 1.169 1.669V8.37h-.77V5.252c0-.569-.11-1.149-.669-1.149-.32 0-.63.27-.729.789-.02.12-.03.271-.03.431V8.37h-.77V4.782zm6.958-3.328v5.757c0 .33.03.879.04 1.159h-.66l-.05-.609h-.03c-.16.35-.5.689-1.009.689-.82 0-1.41-.89-1.41-2.479 0-1.72.71-2.519 1.459-2.519.35 0 .689.17.879.579h.02V1.454h.761zm-.76 3.918c0-.101 0-.21-.01-.32-.05-.5-.35-.939-.72-.939-.64 0-.859.89-.859 1.859 0 1.02.26 1.839.819 1.839.24 0 .57-.13.74-.83.02-.09.03-.199.03-.319v-1.29zm2.381.649c.01 1.479.589 1.799 1.149 1.799.33 0 .609-.08.799-.189l.12.569c-.27.15-.68.229-1.06.229-1.159 0-1.759-.949-1.759-2.429 0-1.568.66-2.548 1.629-2.548.989 0 1.379 1.039 1.379 2.139 0 .18 0 .31-.01.43h-2.247zm1.519-.569c.02-.97-.35-1.399-.72-1.399-.5 0-.76.739-.79 1.399h1.51zm1.561-.67c0-.41-.03-.89-.04-1.249h.689l.04.759h.02c.16-.459.57-.839 1.02-.839.06 0 .11.01.16.01v.789c-.05-.01-.1-.01-.16-.01-.49 0-.85.45-.93 1.01-.02.13-.03.279-.03.439V8.37h-.77V4.782zm121.79-3.049c.33-.09.729-.13 1.109-.13.67 0 1.169.141 1.519.48.33.34.471.789.471 1.319 0 .859-.4 1.419-1.08 1.729v.021c.5.149.76.629.91 1.509.15.93.289 1.499.379 1.709h-.779c-.1-.2-.229-.84-.359-1.669-.15-.92-.439-1.27-1.1-1.27h-.3V8.37h-.77V1.733zm.77 3.109h.319c.74 0 1.23-.539 1.23-1.349 0-.78-.32-1.26-1.15-1.27-.149 0-.299.01-.399.04v2.579zm3.8 1.179c.01 1.479.59 1.799 1.15 1.799.329 0 .609-.08.799-.189l.12.569c-.271.15-.68.229-1.06.229-1.159 0-1.76-.949-1.76-2.429 0-1.568.66-2.548 1.63-2.548.989 0 1.38 1.039 1.38 2.139 0 .18 0 .31-.011.43h-2.248zm1.519-.569c.02-.97-.35-1.399-.72-1.399-.499 0-.759.739-.79 1.399h1.51zm3.93 2.798c-.17.101-.46.18-.8.18-1.06 0-1.769-.85-1.769-2.448 0-1.39.699-2.519 1.908-2.519.26 0 .54.07.68.149l-.149.63a1.26 1.26 0 0 0-.55-.13c-.77 0-1.119.92-1.119 1.869 0 1.129.43 1.809 1.139 1.809.211 0 .381-.05.561-.13l.099.59zm1.14-2.229c.01 1.479.59 1.799 1.15 1.799.329 0 .609-.08.799-.189l.12.569c-.271.15-.68.229-1.06.229-1.159 0-1.76-.949-1.76-2.429 0-1.568.66-2.548 1.63-2.548.989 0 1.38 1.039 1.38 2.139 0 .18 0 .31-.011.43h-2.248zm1.52-.569c.02-.97-.35-1.399-.72-1.399-.499 0-.759.739-.79 1.399h1.51zm2.4-3.169c.01.3-.18.5-.47.5-.25 0-.439-.2-.439-.5s.2-.499.45-.499c.28 0 .459.199.459.499zm-.83 6.087V3.533h.77V8.37h-.77zm2.231-4.837l.609 2.718c.07.33.15.76.21 1.18h.03c.05-.399.13-.81.199-1.18l.6-2.718h.76l-1.26 4.837h-.689l-1.259-4.837h.8zm3.49 2.488c.01 1.479.589 1.799 1.148 1.799.33 0 .609-.08.8-.189l.12.569c-.27.15-.68.229-1.06.229-1.159 0-1.759-.949-1.759-2.429 0-1.568.659-2.548 1.629-2.548.989 0 1.379 1.039 1.379 2.139 0 .18 0 .31-.01.43h-2.247zm1.519-.569c.021-.97-.351-1.399-.72-1.399-.5 0-.76.739-.789 1.399h1.509zm1.561-.67c0-.41-.031-.89-.041-1.249h.689l.041.759h.02c.16-.459.57-.839 1.02-.839.061 0 .109.01.16.01v.789c-.051-.01-.1-.01-.16-.01-.49 0-.85.45-.93 1.01-.02.13-.029.279-.029.439V8.37h-.77V4.782zm30.459 90.701c.229.15.629.27.969.27.699 0 1.119-.459 1.119-1.139 0-.62-.359-1-.889-1.399-.529-.37-1.27-.999-1.27-1.869 0-1.02.709-1.769 1.779-1.769.42 0 .789.13.949.249l-.189.66a1.41 1.41 0 0 0-.801-.229c-.659 0-.969.499-.969.959 0 .67.35.93.989 1.39.81.569 1.169 1.189 1.169 1.938 0 1.159-.818 1.889-1.889 1.889-.459 0-.949-.149-1.139-.289l.172-.661zm4.738.89v-2.849l-1.479-3.888h.81l.6 1.689c.17.47.35.999.499 1.519h.021c.14-.52.31-1.029.489-1.549l.57-1.659h.81l-1.55 3.858v2.878h-.77zm2.961 0v-6.736h.729l1.239 3.158c.28.72.63 1.619.859 2.349h.021a50.662 50.662 0 0 1-.091-3.098v-2.409h.69v6.736h-.729l-1.279-3.238c-.27-.68-.561-1.449-.8-2.289h-.021c.061.899.08 1.76.08 3.198v2.329h-.698zm7.03-2.019l-.449 2.019h-.74l1.539-6.736h.85l1.5 6.736h-.76l-.45-2.019h-1.49zm1.388-.62l-.35-1.709c-.1-.479-.189-1.039-.27-1.539h-.04c-.079.51-.18 1.089-.27 1.539l-.351 1.709h1.281zm4.891 2.518c-.21.11-.539.18-.959.18-1.32 0-2.26-1.059-2.26-3.348 0-2.658 1.32-3.508 2.379-3.508.41 0 .699.08.84.17l-.17.649c-.16-.07-.33-.14-.68-.14-.72 0-1.559.699-1.559 2.758 0 2.06.76 2.738 1.578 2.738.291 0 .551-.069.71-.149l.121.65zm.791-6.616h.77v3.198h.021c.149-.28.29-.55.42-.81l1.259-2.389h.85l-1.648 2.879 1.689 3.857h-.83l-1.379-3.248-.381.649v2.599h-.77v-6.735zm40.976-13.209v-1.229h.689v3.229h-.689v-1.229h-6.047v-.77h6.047zm-5.927 5.369c-.11-.21-.18-.54-.18-.959 0-1.319 1.059-2.259 3.348-2.259 2.658 0 3.508 1.319 3.508 2.379 0 .41-.08.699-.17.839l-.649-.17c.07-.16.14-.33.14-.68 0-.72-.699-1.559-2.758-1.559-2.06 0-2.738.76-2.738 1.579 0 .29.069.55.149.709l-.65.121zm6.516.792c.079.31.13.68.13 1.12 0 .62-.15 1.139-.5 1.489-.32.33-.81.5-1.39.5-.619 0-1.039-.15-1.379-.41-.5-.37-.75-.99-.75-1.589 0-.13 0-.23.011-.34h-2.759v-.77h6.637zm-3.228.769c-.021.09-.03.17-.03.3 0 .76.5 1.27 1.449 1.27.689 0 1.31-.29 1.31-1.14 0-.18-.021-.33-.05-.43h-2.679zm-.5 6.68h-.6v-2.189h.6v2.189zm2.908 6.769v-1.749l-1.729-.27c.02.08.02.15.02.24 0 .35-.149.889-.489 1.239-.34.34-.819.54-1.479.54-1.289 0-2.219-.81-2.219-1.969 0-.39.11-.84.28-1.1l.619.17c-.12.2-.26.55-.26.91 0 .66.51 1.229 1.499 1.229 1.029 0 1.46-.629 1.46-1.469 0-.24-.011-.39-.03-.51l3.008.41v2.329h-.68zm.11 3.71c-.01-.13-.03-.27-.07-.46-.26-1.08-1.339-1.509-2.338-1.669v.03c.369.25.619.61.619 1.1 0 .83-.76 1.399-1.999 1.399-1.229 0-2.219-.56-2.219-1.599 0-1.129 1.149-1.699 2.639-1.699 1.26 0 2.239.33 2.929.839.55.39.909 1.009 1.029 1.569.04.209.05.379.06.49h-.65zm-3.847-.37c.979 0 1.469-.34 1.469-.87 0-.32-.22-.649-.699-.839-.07-.03-.2-.06-.39-.06-1.33.01-1.939.42-1.939.939-.001.44.429.83 1.559.83zm1.509 3.141c.569 0 .859-.03 1.249-.04v.67l-.6.04v.02c.391.21.68.58.68 1.089 0 .45-.22.83-.739 1.009v.02c.24.13.43.3.55.48.13.189.189.419.189.669 0 .649-.479 1.159-1.709 1.159h-3.208v-.759h3.028c.63 0 1.239-.09 1.239-.68 0-.32-.27-.6-.72-.709-.13-.02-.279-.03-.439-.03h-3.108v-.759h3.168c.54 0 1.1-.1 1.1-.67 0-.31-.27-.629-.779-.72-.13-.02-.271-.03-.42-.03h-3.068v-.76h3.587zm-2.789 6.07c-.11.17-.25.47-.25.78 0 .439.27.709.699.709.37 0 .62-.13.95-.62.409-.63.819-.969 1.379-.969.779 0 1.339.58 1.339 1.329 0 .38-.13.669-.25.87l-.579-.21c.12-.18.21-.39.21-.64 0-.42-.3-.63-.61-.63-.329 0-.509.12-.839.6-.36.56-.8 1-1.47 1-.969 0-1.438-.66-1.438-1.449 0-.36.109-.75.279-.959l.58.189zm-96.173 1.873h-1.399l-.216 1.383c.064-.016.12-.016.191-.016.28 0 .712.12.992.392.271.272.432.655.432 1.184 0 1.031-.647 1.774-1.575 1.774-.312 0-.672-.088-.88-.224l.137-.495c.16.096.439.207.727.207.528 0 .984-.407.984-1.199 0-.823-.504-1.167-1.176-1.167-.191 0-.312.008-.408.024l.328-2.407h1.863v.544zm2.968-.087a2.626 2.626 0 0 0-.369.056c-.863.208-1.207 1.071-1.334 1.871h.023c.199-.296.488-.496.879-.496.664 0 1.12.608 1.12 1.6 0 .983-.448 1.774-1.279 1.774-.903 0-1.359-.919-1.359-2.11 0-1.008.264-1.791.671-2.343a2.143 2.143 0 0 1 1.256-.823c.168-.032.304-.04.393-.048v.519zm-.297 3.078c0-.783-.271-1.176-.695-1.176-.256 0-.52.177-.672.561a.851.851 0 0 0-.048.312c.009 1.063.336 1.551.752 1.551.352-.001.663-.345.663-1.248zm2.514-1.207c0-.456-.024-.688-.032-1h.536l.031.48h.016c.168-.312.465-.544.872-.544.36 0 .663.176.808.592h.016c.104-.192.24-.344.385-.44a.93.93 0 0 1 .535-.151c.52 0 .928.384.928 1.367v2.566h-.607v-2.423c0-.504-.072-.991-.545-.991-.256 0-.479.216-.566.575a2.243 2.243 0 0 0-.024.353v2.486h-.608v-2.534c0-.433-.08-.88-.535-.88-.248 0-.504.216-.576.624a2.213 2.213 0 0 0-.023.335v2.455h-.607v-2.87zm4.856 2.23c.137.088.376.2.624.2.352 0 .567-.216.567-.56 0-.296-.104-.496-.496-.76-.504-.328-.775-.656-.775-1.104a1.04 1.04 0 0 1 1.063-1.071c.304 0 .536.104.696.199l-.168.464a.913.913 0 0 0-.512-.168.474.474 0 0 0-.504.488c0 .264.096.407.479.672.448.287.8.64.8 1.175 0 .775-.527 1.151-1.16 1.151-.287 0-.6-.088-.768-.224l.154-.462zm23.765 10.239c.229.15.629.27.969.27.699 0 1.119-.459 1.119-1.139 0-.62-.359-1-.889-1.399-.529-.37-1.27-.999-1.27-1.869 0-1.02.709-1.769 1.779-1.769.42 0 .789.13.949.249l-.189.66a1.41 1.41 0 0 0-.801-.229c-.659 0-.969.499-.969.959 0 .67.35.93.989 1.39.81.569 1.169 1.189 1.169 1.938 0 1.159-.818 1.889-1.889 1.889-.459 0-.949-.149-1.139-.289l.172-.661zm4.309-1.459c.01 1.479.59 1.799 1.15 1.799.329 0 .609-.08.799-.189l.12.569c-.271.15-.68.229-1.06.229-1.159 0-1.76-.949-1.76-2.429 0-1.568.66-2.548 1.63-2.548.989 0 1.38 1.039 1.38 2.139 0 .18 0 .31-.011.43h-2.248zm1.519-.569c.02-.97-.35-1.399-.72-1.399-.499 0-.759.739-.79 1.399h1.51zm1.561-.67c0-.41-.029-.89-.039-1.249h.689l.039.759h.021c.16-.459.569-.839 1.02-.839.06 0 .11.01.159.01v.789c-.049-.01-.1-.01-.159-.01-.489 0-.85.45-.93 1.01-.021.13-.03.279-.03.439v2.679h-.77v-3.588zm3.141-1.249l.609 2.718c.069.33.149.76.209 1.18h.03c.05-.399.13-.81.2-1.18l.6-2.718h.76l-1.26 4.837h-.689l-1.26-4.837h.801zm3.489 2.488c.01 1.479.589 1.799 1.149 1.799.33 0 .609-.08.799-.189l.121.569c-.271.15-.68.229-1.061.229-1.158 0-1.759-.949-1.759-2.429 0-1.568.659-2.548 1.63-2.548.988 0 1.379 1.039 1.379 2.139 0 .18 0 .31-.01.43h-2.248zm1.518-.569c.021-.97-.35-1.399-.719-1.399-.5 0-.76.739-.79 1.399h1.509zm1.562-.67c0-.41-.03-.89-.04-1.249h.689l.04.759h.021c.16-.459.569-.839 1.02-.839.06 0 .109.01.159.01v.789c-.05-.01-.1-.01-.159-.01-.49 0-.85.45-.93 1.01-.021.13-.03.279-.03.439v2.679h-.77v-3.588zm3.319-3.149v2.889h1.889v-2.889h.77v6.736h-.77v-3.148h-1.889v3.148h-.77v-6.736h.77zm4.301 4.388c.01 1.479.59 1.799 1.149 1.799.329 0 .609-.08.8-.189l.119.569c-.27.15-.68.229-1.059.229-1.16 0-1.76-.949-1.76-2.429 0-1.568.66-2.548 1.629-2.548.99 0 1.38 1.039 1.38 2.139 0 .18 0 .31-.011.43h-2.247zm1.52-.569c.02-.97-.351-1.399-.721-1.399-.499 0-.76.739-.789 1.399h1.51zm1.57-3.998h.77v6.916h-.77v-6.916zm1.91 0h.77v6.916h-.77v-6.916zm4.879 4.497c0 1.869-.869 2.499-1.609 2.499-.869 0-1.569-.79-1.569-2.488 0-1.77.79-2.509 1.619-2.509.86 0 1.559.809 1.559 2.498zm-2.408 0c0 .8.139 1.89.839 1.89.659 0 .79-1.14.79-1.89 0-.739-.131-1.879-.811-1.879-.689 0-.818 1.139-.818 1.879zm-27.002 12.298c-.209.11-.539.18-.959.18-1.319 0-2.259-1.059-2.259-3.348 0-2.658 1.319-3.508 2.379-3.508.409 0 .699.08.839.17l-.17.649c-.16-.07-.33-.14-.68-.14-.719 0-1.559.699-1.559 2.758 0 2.06.76 2.738 1.579 2.738.29 0 .55-.069.71-.149l.12.65zm1.092-2.228c.01 1.479.59 1.799 1.15 1.799.329 0 .609-.08.799-.189l.12.569c-.271.15-.68.229-1.06.229-1.159 0-1.76-.949-1.76-2.429 0-1.568.66-2.548 1.63-2.548.989 0 1.38 1.039 1.38 2.139 0 .18 0 .31-.011.43h-2.248zm1.519-.569c.02-.97-.35-1.399-.72-1.399-.499 0-.759.739-.79 1.399h1.51zm1.561-.67c0-.41-.029-.89-.039-1.249h.689l.039.759h.021c.16-.459.569-.839 1.02-.839.06 0 .11.01.159.01v.789c-.049-.01-.1-.01-.159-.01-.489 0-.85.45-.93 1.01-.021.13-.03.279-.03.439v2.679h-.77v-3.588zm3.67-2.529v1.279h.93v.589h-.93v2.869c0 .629.229.799.51.799.119 0 .22-.01.31-.029l.03.59c-.141.05-.32.079-.57.079-.3 0-.569-.079-.76-.289-.189-.221-.289-.55-.289-1.22v-2.799h-.59v-.589h.59v-1.06l.769-.219zm2.439.03c.01.3-.18.5-.47.5-.25 0-.439-.2-.439-.5s.2-.499.45-.499c.279 0 .459.199.459.499zm-.83 6.087v-4.837h.77v4.837h-.77zm2 0v-4.248h-.609v-.589h.609v-.32c0-.859.42-1.839 1.76-1.839.41 0 .77.12.949.229l-.17.6a1.93 1.93 0 0 0-.8-.189c-.779 0-.97.54-.97 1.279v.24h2.17v4.837h-.77v-4.248h-1.4v4.248h-.769zm6.379-.121c-.17.101-.459.18-.799.18-1.06 0-1.77-.85-1.77-2.448 0-1.39.699-2.519 1.909-2.519.26 0 .54.07.68.149l-.149.63a1.265 1.265 0 0 0-.551-.13c-.77 0-1.119.92-1.119 1.869 0 1.129.43 1.809 1.14 1.809.21 0 .38-.05.56-.13l.099.59zm2.6.121l-.05-.51h-.03c-.21.37-.55.59-.96.59-.648 0-1.148-.55-1.148-1.379 0-1.21.969-1.749 2.059-1.76v-.149c0-.649-.16-1.1-.77-1.1-.3 0-.57.1-.8.25l-.17-.54c.2-.149.649-.319 1.13-.319.969 0 1.389.64 1.389 1.729v2.089c0 .37 0 .79.051 1.1h-.701zm-.11-2.499c-.399 0-1.329.07-1.329 1.12 0 .629.319.859.59.859.34 0 .63-.25.72-.729.02-.09.02-.19.02-.271v-.979zm2.691-3.618v1.279h.93v.589h-.93v2.869c0 .629.229.799.51.799.119 0 .22-.01.31-.029l.03.59c-.141.05-.32.079-.57.079-.3 0-.569-.079-.76-.289-.189-.221-.289-.55-.289-1.22v-2.799h-.59v-.589h.59v-1.06l.769-.219zm2.071 3.768c.01 1.479.589 1.799 1.148 1.799.33 0 .609-.08.8-.189l.12.569c-.27.15-.68.229-1.06.229-1.159 0-1.759-.949-1.759-2.429 0-1.568.659-2.548 1.629-2.548.989 0 1.379 1.039 1.379 2.139 0 .18 0 .31-.01.43h-2.247zm1.518-.569c.021-.97-.351-1.399-.72-1.399-.5 0-.76.739-.789 1.399h1.509zm-39.808 12.028c.229.15.63.27.97.27.699 0 1.119-.459 1.119-1.139 0-.62-.359-1-.89-1.399-.53-.37-1.269-.999-1.269-1.869 0-1.02.709-1.769 1.778-1.769.42 0 .79.13.95.249l-.19.66a1.41 1.41 0 0 0-.8-.229c-.66 0-.969.499-.969.959 0 .67.35.93.988 1.39.811.569 1.17 1.189 1.17 1.938 0 1.159-.819 1.889-1.889 1.889-.46 0-.949-.149-1.14-.289l.172-.661zm4.309-1.459c.01 1.479.59 1.799 1.149 1.799.329 0 .609-.08.8-.189l.119.569c-.27.15-.68.229-1.059.229-1.16 0-1.76-.949-1.76-2.429 0-1.568.66-2.548 1.629-2.548.99 0 1.38 1.039 1.38 2.139 0 .18 0 .31-.011.43h-2.247zm1.52-.569c.02-.97-.351-1.399-.721-1.399-.499 0-.76.739-.789 1.399h1.51zm1.56-.67c0-.41-.03-.89-.04-1.249h.689l.04.759h.02c.16-.459.57-.839 1.02-.839.061 0 .11.01.16.01v.789c-.05-.01-.1-.01-.16-.01-.489 0-.85.45-.93 1.01-.02.13-.029.279-.029.439v2.679h-.77v-3.588zm3.14-1.249l.609 2.718c.069.33.149.76.21 1.18h.029c.051-.399.131-.81.201-1.18l.6-2.718h.76l-1.26 4.837h-.689l-1.26-4.837h.8zm3.489 2.488c.01 1.479.59 1.799 1.15 1.799.329 0 .609-.08.799-.189l.12.569c-.271.15-.68.229-1.06.229-1.159 0-1.76-.949-1.76-2.429 0-1.568.66-2.548 1.63-2.548.989 0 1.38 1.039 1.38 2.139 0 .18 0 .31-.011.43h-2.248zm1.52-.569c.02-.97-.35-1.399-.72-1.399-.499 0-.759.739-.79 1.399h1.51zm1.56-.67c0-.41-.029-.89-.039-1.249h.689l.039.759h.021c.16-.459.569-.839 1.02-.839.06 0 .11.01.159.01v.789c-.049-.01-.1-.01-.159-.01-.489 0-.85.45-.93 1.01-.021.13-.03.279-.03.439v2.679h-.77v-3.588zm3.321-3.149v2.889h1.889v-2.889h.77v6.736h-.77v-3.148h-1.889v3.148h-.77v-6.736h.77zm4.3 4.388c.01 1.479.589 1.799 1.149 1.799.33 0 .609-.08.799-.189l.121.569c-.271.15-.68.229-1.061.229-1.158 0-1.759-.949-1.759-2.429 0-1.568.659-2.548 1.63-2.548.988 0 1.379 1.039 1.379 2.139 0 .18 0 .31-.01.43h-2.248zm1.518-.569c.021-.97-.35-1.399-.719-1.399-.5 0-.76.739-.79 1.399h1.509zm1.571-3.998h.77v6.916h-.77v-6.916zm1.911 0h.77v6.916h-.77v-6.916zm4.878 4.497c0 1.869-.87 2.499-1.609 2.499-.87 0-1.569-.79-1.569-2.488 0-1.77.789-2.509 1.619-2.509.859 0 1.559.809 1.559 2.498zm-2.409 0c0 .8.141 1.89.84 1.89.66 0 .789-1.14.789-1.89 0-.739-.129-1.879-.809-1.879-.689 0-.82 1.139-.82 1.879zm3.33-4.218c.301-.09.65-.13 1.04-.13.71 0 1.21.181 1.579.51.52.45.91 1.319.91 2.729 0 1.539-.381 2.379-.811 2.839-.439.5-1.079.729-1.859.729-.309 0-.629-.021-.859-.07v-6.607zm.77 6.007c.11.021.221.021.291.021.85 0 1.668-.61 1.668-2.898 0-1.699-.52-2.629-1.599-2.629-.12 0-.26.01-.36.04v5.466zm6.67-1.789c0 1.869-.87 2.499-1.609 2.499-.87 0-1.57-.79-1.57-2.488 0-1.77.791-2.509 1.619-2.509.86 0 1.56.809 1.56 2.498zm-2.409 0c0 .8.14 1.89.839 1.89.66 0 .79-1.14.79-1.89 0-.739-.13-1.879-.81-1.879-.69 0-.819 1.139-.819 1.879zm3.27-1.169c0-.569-.03-.859-.041-1.249h.67l.041.579h.02c.209-.39.6-.659 1.109-.659.67 0 1.17.499 1.17 1.669v3.248h-.771v-3.118c0-.569-.11-1.149-.669-1.149-.32 0-.631.27-.73.789a2.74 2.74 0 0 0-.029.431v3.048h-.77v-3.589zm4.59 1.239c.01 1.479.589 1.799 1.148 1.799.33 0 .609-.08.8-.189l.12.569c-.27.15-.68.229-1.06.229-1.159 0-1.759-.949-1.759-2.429 0-1.568.659-2.548 1.629-2.548.989 0 1.379 1.039 1.379 2.139 0 .18 0 .31-.01.43h-2.247zm1.518-.569c.021-.97-.351-1.399-.72-1.399-.5 0-.76.739-.789 1.399h1.509zM75.59 171.311h-.016l-.864.495-.12-.479 1.095-.64h.512v5.197h-.607v-4.573zm3.448 4.573v-1.432h-1.727v-.415l1.687-3.351h.6v3.263h.568v.503h-.568v1.432h-.56zm0-1.935v-1.472c0-.359.024-.68.048-1.023h-.032c-.176.416-.288.664-.44.983l-.72 1.495v.017h1.144zm4.071-.672c0 1.895-.6 2.67-1.351 2.67-.808 0-1.295-.959-1.295-2.654 0-1.751.52-2.67 1.367-2.67.839 0 1.279.999 1.279 2.654zm-2.031.008c0 1.256.216 2.135.728 2.135.488 0 .688-.888.688-2.135 0-1.215-.2-2.135-.695-2.135-.497 0-.721.888-.721 2.135zm3.936-.271c0-.456-.024-.688-.032-1h.536l.032.48h.016c.168-.312.464-.544.872-.544.36 0 .664.176.808.592h.016c.104-.192.24-.344.384-.44a.932.932 0 0 1 .536-.151c.52 0 .927.384.927 1.367v2.566h-.607v-2.423c0-.504-.072-.991-.544-.991-.256 0-.479.216-.567.575a2.37 2.37 0 0 0-.024.353v2.486h-.608v-2.534c0-.433-.08-.88-.536-.88-.248 0-.504.216-.576.624a2.209 2.209 0 0 0-.024.335v2.455h-.608v-2.87zm4.856 2.23c.136.088.376.2.624.2.352 0 .567-.216.567-.56 0-.296-.104-.496-.496-.76-.504-.328-.775-.656-.775-1.104 0-.624.463-1.071 1.063-1.071.304 0 .536.104.696.199l-.168.464a.91.91 0 0 0-.512-.168.474.474 0 0 0-.503.488c0 .264.096.407.479.672.448.287.8.64.8 1.175 0 .775-.528 1.151-1.16 1.151-.288 0-.6-.088-.768-.224l.153-.462zm176.717-3.992c-.211.11-.54.18-.96.18-1.319 0-2.259-1.059-2.259-3.348 0-2.658 1.319-3.508 2.379-3.508.41 0 .699.08.84.17l-.17.649c-.16-.07-.33-.14-.68-.14-.721 0-1.56.699-1.56 2.758 0 2.06.76 2.738 1.579 2.738.29 0 .55-.069.709-.149l.122.65zm.701-6.795h.77v2.599h.02c.101-.17.25-.32.4-.42.18-.11.369-.18.65-.18.609 0 1.129.489 1.129 1.709v3.208h-.77v-3.118c0-.59-.131-1.149-.65-1.149-.359 0-.629.26-.749.77-.021.11-.03.25-.03.37v3.128h-.77v-6.917zm5.959 6.916l-.051-.51h-.029c-.21.37-.55.59-.959.59-.65 0-1.15-.55-1.15-1.379 0-1.21.971-1.749 2.06-1.76v-.149c0-.649-.16-1.1-.77-1.1-.3 0-.569.1-.8.25l-.17-.54c.2-.149.65-.319 1.129-.319.971 0 1.39.64 1.39 1.729v2.089c0 .37 0 .79.05 1.1h-.7zm-.109-2.499c-.4 0-1.33.07-1.33 1.12 0 .629.32.859.59.859.34 0 .63-.25.72-.729.021-.09.021-.19.021-.271v-.979zm1.84-1.089c0-.569-.029-.859-.039-1.249h.67l.039.579h.021c.21-.39.6-.659 1.109-.659.669 0 1.169.499 1.169 1.669v3.248h-.77v-3.118c0-.569-.109-1.149-.67-1.149-.319 0-.629.27-.729.789-.021.12-.031.271-.031.431v3.048h-.77v-3.589zm7.008-1.249c-.01.34-.04.77-.04 1.509v2.708c0 1.27-.16 1.749-.479 2.1-.29.329-.749.52-1.29.52-.409 0-.809-.1-1.059-.24l.18-.6c.189.101.51.21.899.21.61 0 .989-.38.989-1.479v-.489h-.02c-.17.38-.52.59-.93.59-.859 0-1.42-.97-1.42-2.389 0-1.779.811-2.519 1.52-2.519.52 0 .76.34.9.629h.02l.04-.549h.69zm-.799 1.669c0-.12-.01-.25-.039-.351-.091-.329-.26-.739-.7-.739-.56 0-.859.75-.859 1.819 0 1.239.39 1.799.859 1.799.229 0 .53-.11.689-.689.04-.15.05-.3.05-.439v-1.4zm2.371.819c.01 1.479.59 1.799 1.149 1.799.329 0 .609-.08.8-.189l.119.569c-.27.15-.68.229-1.059.229-1.16 0-1.76-.949-1.76-2.429 0-1.568.66-2.548 1.629-2.548.99 0 1.38 1.039 1.38 2.139 0 .18 0 .31-.011.43h-2.247zm1.519-.569c.02-.97-.351-1.399-.721-1.399-.499 0-.76.739-.789 1.399h1.51zm4.569 2.797c-.209.11-.539.18-.959.18-1.319 0-2.259-1.059-2.259-3.348 0-2.658 1.319-3.508 2.379-3.508.409 0 .699.08.839.17l-.17.649c-.16-.07-.33-.14-.68-.14-.719 0-1.559.699-1.559 2.758 0 2.06.76 2.738 1.579 2.738.29 0 .55-.069.71-.149l.12.65zm1.521-5.966c.01.3-.18.5-.47.5-.25 0-.439-.2-.439-.5s.2-.499.45-.499c.279 0 .459.199.459.499zm-.83 6.087v-4.837h.77v4.837h-.77zm1.83-3.329c0-.739-.029-1.169-.039-1.509h.689l.039.619h.021c.26-.52.64-.699 1.02-.699.839 0 1.399.899 1.399 2.488 0 1.789-.74 2.509-1.5 2.509-.449 0-.709-.29-.839-.56h-.021v2.398h-.77v-5.246zm.77 1.549c0 .15 0 .29.03.4.149.689.5.819.71.819.64 0 .84-.88.84-1.859 0-.999-.24-1.839-.85-1.839-.35 0-.66.439-.71.88-.021.12-.021.239-.021.369v1.23zm3.23-5.136h.77v2.599h.02c.101-.17.25-.32.4-.42.18-.11.369-.18.65-.18.609 0 1.129.489 1.129 1.709v3.208h-.77v-3.118c0-.59-.131-1.149-.65-1.149-.359 0-.629.26-.749.77-.021.11-.03.25-.03.37v3.128h-.77v-6.917zm4.59 4.567c.01 1.479.59 1.799 1.149 1.799.329 0 .609-.08.8-.189l.119.569c-.27.15-.68.229-1.059.229-1.16 0-1.76-.949-1.76-2.429 0-1.568.66-2.548 1.629-2.548.99 0 1.38 1.039 1.38 2.139 0 .18 0 .31-.011.43h-2.247zm1.519-.569c.02-.97-.351-1.399-.721-1.399-.499 0-.76.739-.789 1.399h1.51zm1.561-.67c0-.41-.03-.89-.04-1.249h.689l.04.759h.02c.16-.459.57-.839 1.02-.839.061 0 .11.01.16.01v.789c-.05-.01-.1-.01-.16-.01-.489 0-.85.45-.93 1.01-.02.13-.029.279-.029.439v2.679h-.77v-3.588zm2.4 2.698c.229.15.629.27.969.27.699 0 1.119-.459 1.119-1.139 0-.62-.359-1-.889-1.399-.529-.37-1.27-.999-1.27-1.869 0-1.02.709-1.769 1.779-1.769.42 0 .789.13.949.249l-.189.66a1.41 1.41 0 0 0-.801-.229c-.659 0-.969.499-.969.959 0 .67.35.93.989 1.39.81.569 1.169 1.189 1.169 1.938 0 1.159-.818 1.889-1.889 1.889-.459 0-.949-.149-1.139-.289l.172-.661zm3.719-2.439c0-.739-.029-1.169-.039-1.509h.689l.039.619h.021c.26-.52.64-.699 1.02-.699.839 0 1.399.899 1.399 2.488 0 1.789-.74 2.509-1.5 2.509-.449 0-.709-.29-.839-.56h-.021v2.398h-.77v-5.246zm.77 1.549c0 .15 0 .29.03.4.149.689.5.819.71.819.64 0 .84-.88.84-1.859 0-.999-.24-1.839-.85-1.839-.35 0-.66.439-.71.88-.021.12-.021.239-.021.369v1.23zm3.77-.569c.01 1.479.589 1.799 1.149 1.799.33 0 .609-.08.799-.189l.121.569c-.271.15-.68.229-1.061.229-1.158 0-1.759-.949-1.759-2.429 0-1.568.659-2.548 1.63-2.548.988 0 1.379 1.039 1.379 2.139 0 .18 0 .31-.01.43h-2.248zm1.519-.569c.021-.97-.35-1.399-.719-1.399-.5 0-.76.739-.79 1.399h1.509zm3.929 2.797c-.17.101-.459.18-.799.18-1.06 0-1.77-.85-1.77-2.448 0-1.39.699-2.519 1.909-2.519.26 0 .54.07.68.149l-.149.63a1.265 1.265 0 0 0-.551-.13c-.77 0-1.119.92-1.119 1.869 0 1.129.43 1.809 1.14 1.809.21 0 .38-.05.56-.13l.099.59zm-40.601 3.384h2.568v.67h-1.799v2.358h1.679v.649h-1.679v3.059h-.77v-6.736zm4.109.65c.01.3-.18.5-.471.5-.25 0-.439-.2-.439-.5s.2-.499.45-.499c.28 0 .46.199.46.499zm-.83 6.087v-4.837h.77v4.837h-.77zm1.84-3.588c0-.569-.029-.859-.04-1.249h.67l.04.579h.02c.211-.39.6-.659 1.109-.659.67 0 1.17.499 1.17 1.669v3.248h-.77v-3.118c0-.569-.11-1.149-.67-1.149-.32 0-.629.27-.729.789-.021.12-.03.271-.03.431v3.048h-.77v-3.589zm4.879-2.499c.011.3-.18.5-.469.5-.25 0-.439-.2-.439-.5s.199-.499.449-.499c.279 0 .459.199.459.499zm-.829 6.087v-4.837h.77v4.837h-.77zm1.71-.8c.17.11.47.25.779.25.439 0 .71-.27.71-.699 0-.37-.13-.62-.62-.95-.629-.409-.969-.819-.969-1.379 0-.779.58-1.339 1.329-1.339.38 0 .669.13.87.25l-.211.579c-.18-.12-.389-.21-.639-.21-.42 0-.631.3-.631.61 0 .329.121.509.6.839.561.36 1 .8 1 1.47 0 .969-.66 1.438-1.449 1.438-.359 0-.75-.109-.959-.279l.19-.58zm3.019-6.116h.77v2.599h.02c.101-.17.25-.32.4-.42.18-.11.369-.18.65-.18.609 0 1.129.489 1.129 1.709v3.208h-.77v-3.118c0-.59-.131-1.149-.65-1.149-.359 0-.629.26-.749.77-.021.11-.03.25-.03.37v3.128h-.77v-6.917zm4.59 4.567c.01 1.479.59 1.799 1.149 1.799.329 0 .609-.08.8-.189l.119.569c-.27.15-.68.229-1.059.229-1.16 0-1.76-.949-1.76-2.429 0-1.568.66-2.548 1.629-2.548.99 0 1.38 1.039 1.38 2.139 0 .18 0 .31-.011.43h-2.247zm1.52-.569c.02-.97-.351-1.399-.721-1.399-.499 0-.76.739-.789 1.399h1.51zm4.478-3.998v5.757c0 .33.03.879.041 1.159h-.66l-.051-.609h-.029c-.16.35-.5.689-1.01.689-.819 0-1.409-.89-1.409-2.479 0-1.72.71-2.519 1.46-2.519.35 0 .689.17.879.579h.02v-2.578h.759zm-.76 3.918c0-.101 0-.21-.01-.32-.05-.5-.35-.939-.719-.939-.641 0-.859.89-.859 1.859 0 1.02.26 1.839.818 1.839.24 0 .57-.13.74-.83.02-.09.029-.199.029-.319v-1.29zm-63.712-27.064h-.017l-.863.495-.119-.479 1.095-.64h.512v5.197h-.607v-4.573zm3.081 0h-.017l-.863.495-.119-.479 1.095-.64h.512v5.197h-.607v-4.573zm1.833 4.573v-.399l.439-.6c.615-.855 1.352-1.831 1.352-2.807 0-.576-.256-.928-.744-.928-.376 0-.615.2-.752.288l-.151-.464a1.627 1.627 0 0 1 1.015-.352c.864 0 1.24.64 1.24 1.423 0 .976-.64 1.919-1.279 2.799l-.352.479v.016h1.734v.544h-2.502zm4.511-2.87c0-.456-.024-.688-.032-1h.536l.031.48h.016c.168-.312.465-.544.872-.544.36 0 .663.176.808.592h.016c.104-.192.24-.344.385-.44a.93.93 0 0 1 .535-.151c.52 0 .928.384.928 1.367v2.566h-.607v-2.423c0-.504-.072-.991-.545-.991-.256 0-.479.216-.566.575a2.243 2.243 0 0 0-.024.353v2.486h-.608v-2.534c0-.433-.08-.88-.535-.88-.248 0-.504.216-.576.624a2.213 2.213 0 0 0-.023.335v2.455h-.607v-2.87zm4.856 2.23c.137.088.376.2.624.2.352 0 .567-.216.567-.56 0-.296-.104-.496-.496-.76-.504-.328-.775-.656-.775-1.104a1.04 1.04 0 0 1 1.063-1.071c.304 0 .536.104.696.199l-.168.464a.913.913 0 0 0-.512-.168.474.474 0 0 0-.504.488c0 .264.096.407.479.672.448.287.8.64.8 1.175 0 .775-.527 1.151-1.16 1.151-.287 0-.6-.088-.768-.224l.154-.462zm-240.681-.992c-.21.11-.54.18-.959.18-1.319 0-2.259-1.059-2.259-3.348 0-2.658 1.319-3.508 2.379-3.508.41 0 .699.08.839.17l-.17.649c-.16-.07-.33-.14-.68-.14-.72 0-1.559.699-1.559 2.758 0 2.06.76 2.738 1.579 2.738.29 0 .55-.069.709-.149l.121.65zm.701-6.795h.77v6.916h-.77v-6.916zm2.74.829c.01.3-.18.5-.47.5-.25 0-.439-.2-.439-.5s.2-.499.45-.499c.279 0 .459.199.459.499zm-.83 6.087v-4.837h.77v4.837h-.77zm2.38-2.349c.01 1.479.589 1.799 1.149 1.799.33 0 .609-.08.799-.189l.12.569c-.27.15-.68.229-1.06.229-1.159 0-1.759-.949-1.759-2.429 0-1.568.66-2.548 1.629-2.548.989 0 1.379 1.039 1.379 2.139 0 .18 0 .31-.01.43h-2.247zm1.519-.569c.02-.97-.35-1.399-.72-1.399-.5 0-.76.739-.79 1.399h1.51zm1.571-.67c0-.569-.03-.859-.04-1.249h.67l.04.579h.02c.21-.39.6-.659 1.109-.659.669 0 1.169.499 1.169 1.669v3.248h-.77v-3.118c0-.569-.11-1.149-.669-1.149-.32 0-.629.27-.729.789-.02.12-.03.271-.03.431v3.048h-.77v-3.589zm4.929-2.529v1.279h.93v.589h-.93v2.869c0 .629.23.799.51.799.12 0 .22-.01.31-.029l.03.59c-.14.05-.32.079-.569.079-.3 0-.57-.079-.76-.289-.19-.221-.29-.55-.29-1.22v-2.799h-.589v-.589h.589v-1.06l.769-.219zm1.671-.62h.77v3.198h.02c.15-.28.29-.55.42-.81l1.259-2.389h.85l-1.649 2.879 1.689 3.857h-.83l-1.379-3.248-.38.649v2.599h-.77v-6.735zm4.42 4.388c.01 1.479.589 1.799 1.149 1.799.33 0 .609-.08.799-.189l.12.569c-.27.15-.68.229-1.06.229-1.159 0-1.759-.949-1.759-2.429 0-1.568.66-2.548 1.629-2.548.989 0 1.379 1.039 1.379 2.139 0 .18 0 .31-.01.43h-2.247zm1.519-.569c.02-.97-.35-1.399-.72-1.399-.5 0-.76.739-.79 1.399h1.51zm1.97-1.919l.64 2.778c.09.38.14.699.2.999h.02c.05-.27.13-.64.21-.989l.57-2.788h.76l-.79 3.107c-.3 1.22-.63 2.389-1.2 3.119-.34.43-.7.659-.87.739l-.28-.66c.22-.119.46-.329.68-.609.2-.25.36-.579.44-.81.04-.12.05-.17.05-.239 0-.061 0-.12-.02-.181l-1.219-4.467h.809zm5.579 1.638h-1.689v2.528h1.919v.67h-2.688v-6.736h2.569v.67h-1.799v2.219h1.689v.649zm1.451-1.638l.45 1.039c.12.279.209.56.32.85h.02c.11-.31.22-.59.32-.85l.439-1.039h.79l-1.149 2.389 1.14 2.448h-.84l-.459-1.09c-.11-.26-.2-.509-.32-.829h-.02c-.1.29-.21.55-.32.829l-.45 1.09h-.78l1.149-2.429-1.119-2.408h.829zm5.19 4.716c-.17.101-.46.18-.8.18-1.059 0-1.769-.85-1.769-2.448 0-1.39.7-2.519 1.909-2.519.26 0 .54.07.68.149l-.15.63c-.1-.05-.3-.13-.55-.13-.77 0-1.119.92-1.119 1.869 0 1.129.43 1.809 1.139 1.809.21 0 .38-.05.56-.13l.1.59zm.661-6.795h.77v2.599h.02c.1-.17.25-.32.4-.42.18-.11.37-.18.65-.18.609 0 1.129.489 1.129 1.709v3.208h-.77v-3.118c0-.59-.13-1.149-.649-1.149-.36 0-.63.26-.75.77-.02.11-.03.25-.03.37v3.128h-.77v-6.917zm5.959 6.916l-.05-.51h-.03c-.21.37-.55.59-.959.59-.649 0-1.149-.55-1.149-1.379 0-1.21.97-1.749 2.059-1.76v-.149c0-.649-.16-1.1-.77-1.1-.3 0-.57.1-.8.25l-.17-.54c.2-.149.65-.319 1.129-.319.97 0 1.389.64 1.389 1.729v2.089c0 .37 0 .79.05 1.1h-.699zm-.11-2.499c-.4 0-1.33.07-1.33 1.12 0 .629.32.859.59.859.34 0 .63-.25.72-.729.02-.09.02-.19.02-.271v-.979zm1.841-1.089c0-.569-.03-.859-.04-1.249h.67l.04.579h.02c.209-.39.6-.659 1.109-.659.669 0 1.169.499 1.169 1.669v3.248h-.77v-3.118c0-.569-.11-1.149-.669-1.149-.32 0-.63.27-.729.789-.02.12-.03.271-.03.431v3.048h-.77v-3.589zm7.008-1.249c-.01.34-.04.77-.04 1.509v2.708c0 1.27-.16 1.749-.479 2.1-.29.329-.75.52-1.29.52-.41 0-.81-.1-1.059-.24l.18-.6c.19.101.51.21.899.21.61 0 .99-.38.99-1.479v-.489h-.02c-.17.38-.52.59-.93.59-.859 0-1.419-.97-1.419-2.389 0-1.779.81-2.519 1.52-2.519.52 0 .759.34.899.629h.02l.04-.549h.689zm-.799 1.669c0-.12-.01-.25-.04-.351-.09-.329-.26-.739-.7-.739-.56 0-.859.75-.859 1.819 0 1.239.39 1.799.859 1.799.23 0 .53-.11.689-.689.04-.15.05-.3.05-.439v-1.4zm2.37.819c.01 1.479.589 1.799 1.149 1.799.33 0 .609-.08.799-.189l.12.569c-.27.15-.68.229-1.06.229-1.159 0-1.759-.949-1.759-2.429 0-1.568.66-2.548 1.629-2.548.989 0 1.379 1.039 1.379 2.139 0 .18 0 .31-.01.43h-2.247zm1.519-.569c.02-.97-.35-1.399-.72-1.399-.5 0-.76.739-.79 1.399h1.51zm-52.854 12.797c-.21.11-.54.18-.959.18-1.319 0-2.259-1.059-2.259-3.348 0-2.658 1.319-3.508 2.379-3.508.41 0 .699.08.839.17l-.17.649c-.16-.07-.33-.14-.68-.14-.72 0-1.559.699-1.559 2.758 0 2.06.76 2.738 1.579 2.738.29 0 .55-.069.709-.149l.121.65zm.701-6.795h.77v2.599h.02c.1-.17.25-.32.4-.42.18-.11.37-.18.65-.18.609 0 1.129.489 1.129 1.709v3.208h-.77v-3.118c0-.59-.13-1.149-.649-1.149-.36 0-.63.26-.75.77-.02.11-.03.25-.03.37v3.128h-.77v-6.917zm5.959 6.916l-.05-.51h-.03c-.21.37-.55.59-.959.59-.649 0-1.149-.55-1.149-1.379 0-1.21.97-1.749 2.059-1.76v-.149c0-.649-.16-1.1-.77-1.1-.3 0-.57.1-.8.25l-.17-.54c.2-.149.65-.319 1.129-.319.97 0 1.389.64 1.389 1.729v2.089c0 .37 0 .79.05 1.1h-.699zm-.109-2.499c-.4 0-1.33.07-1.33 1.12 0 .629.32.859.59.859.34 0 .63-.25.72-.729.02-.09.02-.19.02-.271v-.979zm1.84-1.089c0-.569-.03-.859-.04-1.249h.67l.04.579h.02c.209-.39.6-.659 1.109-.659.669 0 1.169.499 1.169 1.669v3.248h-.77v-3.118c0-.569-.11-1.149-.669-1.149-.32 0-.63.27-.729.789-.02.12-.03.271-.03.431v3.048h-.77v-3.589zm7.009-1.249c-.01.34-.04.77-.04 1.509v2.708c0 1.27-.16 1.749-.479 2.1-.29.329-.75.52-1.29.52-.41 0-.81-.1-1.059-.24l.18-.6c.19.101.51.21.899.21.61 0 .99-.38.99-1.479v-.489h-.02c-.17.38-.52.59-.93.59-.859 0-1.419-.97-1.419-2.389 0-1.779.81-2.519 1.52-2.519.52 0 .759.34.899.629h.02l.04-.549h.689zm-.8 1.669c0-.12-.01-.25-.04-.351-.09-.329-.26-.739-.7-.739-.56 0-.859.75-.859 1.819 0 1.239.39 1.799.859 1.799.23 0 .53-.11.689-.689.04-.15.05-.3.05-.439v-1.4zm2.371.819c.01 1.479.589 1.799 1.149 1.799.33 0 .609-.08.799-.189l.12.569c-.27.15-.68.229-1.06.229-1.159 0-1.759-.949-1.759-2.429 0-1.568.66-2.548 1.629-2.548.989 0 1.379 1.039 1.379 2.139 0 .18 0 .31-.01.43h-2.247zm1.519-.569c.02-.97-.35-1.399-.72-1.399-.5 0-.76.739-.79 1.399h1.51zm4.569 2.797c-.21.11-.54.18-.959.18-1.319 0-2.259-1.059-2.259-3.348 0-2.658 1.319-3.508 2.379-3.508.41 0 .699.08.839.17l-.17.649c-.16-.07-.33-.14-.68-.14-.72 0-1.559.699-1.559 2.758 0 2.06.76 2.738 1.579 2.738.29 0 .55-.069.709-.149l.121.65zm1.521-5.966c.01.3-.18.5-.47.5-.25 0-.439-.2-.439-.5s.2-.499.45-.499c.28 0 .459.199.459.499zm-.829 6.087v-4.837h.77v4.837h-.77zm1.83-3.329c0-.739-.03-1.169-.04-1.509h.689l.04.619h.02c.26-.52.64-.699 1.02-.699.839 0 1.399.899 1.399 2.488 0 1.789-.74 2.509-1.5 2.509-.45 0-.709-.29-.839-.56h-.02v2.398h-.77v-5.246zm.769 1.549c0 .15 0 .29.03.4.15.689.5.819.71.819.64 0 .839-.88.839-1.859 0-.999-.24-1.839-.85-1.839-.35 0-.66.439-.709.88-.02.12-.02.239-.02.369v1.23zm3.23-5.136h.77v2.599h.02c.1-.17.25-.32.4-.42.18-.11.37-.18.65-.18.609 0 1.129.489 1.129 1.709v3.208h-.77v-3.118c0-.59-.13-1.149-.649-1.149-.36 0-.63.26-.75.77-.02.11-.03.25-.03.37v3.128h-.77v-6.917zm4.59 4.567c.01 1.479.589 1.799 1.149 1.799.33 0 .609-.08.799-.189l.12.569c-.27.15-.68.229-1.06.229-1.159 0-1.759-.949-1.759-2.429 0-1.568.66-2.548 1.629-2.548.989 0 1.379 1.039 1.379 2.139 0 .18 0 .31-.01.43h-2.247zm1.519-.569c.02-.97-.35-1.399-.72-1.399-.5 0-.76.739-.79 1.399h1.51zm1.561-.67c0-.41-.03-.89-.04-1.249h.689l.04.759h.02c.16-.459.57-.839 1.02-.839.06 0 .11.01.16.01v.789c-.05-.01-.1-.01-.16-.01-.49 0-.85.45-.93 1.01-.02.13-.03.279-.03.439v2.679h-.77v-3.588zm2.4 2.698c.23.15.63.27.97.27.699 0 1.119-.459 1.119-1.139 0-.62-.36-1-.89-1.399-.529-.37-1.269-.999-1.269-1.869 0-1.02.709-1.769 1.779-1.769.42 0 .79.13.95.249l-.19.66a1.41 1.41 0 0 0-.8-.229c-.66 0-.969.499-.969.959 0 .67.35.93.989 1.39.81.569 1.169 1.189 1.169 1.938 0 1.159-.819 1.889-1.889 1.889-.46 0-.95-.149-1.14-.289l.171-.661zm3.72-2.439c0-.739-.03-1.169-.04-1.509h.689l.04.619h.02c.26-.52.64-.699 1.02-.699.839 0 1.399.899 1.399 2.488 0 1.789-.74 2.509-1.5 2.509-.45 0-.709-.29-.839-.56h-.02v2.398h-.77v-5.246zm.769 1.549c0 .15 0 .29.03.4.15.689.5.819.71.819.64 0 .839-.88.839-1.859 0-.999-.24-1.839-.85-1.839-.35 0-.66.439-.709.88-.02.12-.02.239-.02.369v1.23zm3.771-.569c.01 1.479.589 1.799 1.149 1.799.33 0 .609-.08.799-.189l.12.569c-.27.15-.68.229-1.06.229-1.159 0-1.759-.949-1.759-2.429 0-1.568.66-2.548 1.629-2.548.989 0 1.379 1.039 1.379 2.139 0 .18 0 .31-.01.43h-2.247zm1.519-.569c.02-.97-.35-1.399-.72-1.399-.5 0-.76.739-.79 1.399h1.51zm3.929 2.797c-.17.101-.46.18-.8.18-1.059 0-1.769-.85-1.769-2.448 0-1.39.7-2.519 1.909-2.519.26 0 .54.07.68.149l-.15.63c-.1-.05-.3-.13-.55-.13-.77 0-1.119.92-1.119 1.869 0 1.129.43 1.809 1.139 1.809.21 0 .38-.05.56-.13l.1.59zm-40.602 3.384h2.569v.67h-1.799v2.358h1.679v.649h-1.679v3.059h-.77v-6.736zm4.109.65c.01.3-.18.5-.47.5-.25 0-.439-.2-.439-.5s.2-.499.45-.499c.279 0 .459.199.459.499zm-.83 6.087v-4.837h.77v4.837h-.77zm1.84-3.588c0-.569-.03-.859-.04-1.249h.67l.04.579h.02c.21-.39.6-.659 1.109-.659.669 0 1.169.499 1.169 1.669v3.248h-.77v-3.118c0-.569-.11-1.149-.669-1.149-.32 0-.629.27-.729.789-.02.12-.03.271-.03.431v3.048h-.77v-3.589zm4.88-2.499c.01.3-.18.5-.47.5-.25 0-.439-.2-.439-.5s.2-.499.45-.499c.279 0 .459.199.459.499zm-.83 6.087v-4.837h.77v4.837h-.77zm1.71-.8c.17.11.47.25.78.25.439 0 .709-.27.709-.699 0-.37-.13-.62-.62-.95-.63-.409-.969-.819-.969-1.379 0-.779.58-1.339 1.329-1.339.38 0 .669.13.87.25l-.21.579c-.18-.12-.39-.21-.64-.21-.42 0-.63.3-.63.61 0 .329.12.509.6.839.56.36 1 .8 1 1.47 0 .969-.66 1.438-1.449 1.438-.36 0-.75-.109-.959-.279l.189-.58zm3.02-6.116h.77v2.599h.02c.1-.17.25-.32.4-.42.18-.11.37-.18.65-.18.609 0 1.129.489 1.129 1.709v3.208h-.77v-3.118c0-.59-.13-1.149-.649-1.149-.36 0-.63.26-.75.77-.02.11-.03.25-.03.37v3.128h-.77v-6.917zm4.589 4.567c.01 1.479.589 1.799 1.149 1.799.33 0 .609-.08.799-.189l.12.569c-.27.15-.68.229-1.06.229-1.159 0-1.759-.949-1.759-2.429 0-1.568.66-2.548 1.629-2.548.989 0 1.379 1.039 1.379 2.139 0 .18 0 .31-.01.43h-2.247zm1.52-.569c.02-.97-.35-1.399-.72-1.399-.5 0-.76.739-.79 1.399h1.51zm4.479-3.998v5.757c0 .33.03.879.04 1.159h-.66l-.05-.609h-.03c-.16.35-.5.689-1.009.689-.82 0-1.41-.89-1.41-2.479 0-1.72.71-2.519 1.459-2.519.35 0 .689.17.879.579h.02v-2.578h.761zm-.76 3.918c0-.101 0-.21-.01-.32-.05-.5-.35-.939-.72-.939-.64 0-.859.89-.859 1.859 0 1.02.26 1.839.819 1.839.24 0 .57-.13.74-.83.02-.09.03-.199.03-.319v-1.29zm189.512 19.936h-.017l-.863.495-.119-.479 1.095-.64h.512v5.197h-.607v-4.573zm4.128-.168a2.626 2.626 0 0 0-.369.056c-.863.208-1.207 1.071-1.334 1.871h.023c.199-.296.488-.496.879-.496.664 0 1.12.608 1.12 1.6 0 .983-.448 1.774-1.279 1.774-.903 0-1.359-.919-1.359-2.11 0-1.008.264-1.791.671-2.343a2.143 2.143 0 0 1 1.256-.823c.168-.032.304-.04.393-.048v.519zm-.297 3.078c0-.783-.271-1.176-.695-1.176-.256 0-.52.177-.672.561a.851.851 0 0 0-.048.312c.009 1.063.336 1.551.752 1.551.352-.001.663-.345.663-1.248zm1.05.391c0-.728.432-1.191.855-1.487l-.009-.016c-.432-.296-.68-.752-.68-1.191 0-.8.568-1.295 1.216-1.295.743 0 1.111.623 1.111 1.223 0 .456-.216.896-.695 1.224v.024c.479.319.831.791.831 1.415 0 .808-.535 1.438-1.335 1.438-.862 0-1.294-.687-1.294-1.335zm2.023-.063c0-.6-.344-.936-.743-1.199a1.386 1.386 0 0 0-.672 1.159c0 .583.264.983.712.983.382 0 .703-.296.703-.943zm-1.264-2.671c0 .527.32.792.641.999.312-.224.52-.567.52-.959 0-.504-.208-.84-.584-.84-.344 0-.577.328-.577.8zm3.785 1.136c0-.456-.024-.688-.032-1h.536l.031.48h.016c.168-.312.465-.544.872-.544.36 0 .663.176.808.592h.016c.104-.192.24-.344.385-.44a.93.93 0 0 1 .535-.151c.52 0 .928.384.928 1.367v2.566h-.607v-2.423c0-.504-.072-.991-.545-.991-.256 0-.479.216-.566.575a2.243 2.243 0 0 0-.024.353v2.486h-.608v-2.534c0-.433-.08-.88-.535-.88-.248 0-.504.216-.576.624a2.213 2.213 0 0 0-.023.335v2.455h-.607v-2.87zm4.856 2.23c.137.088.376.2.624.2.352 0 .567-.216.567-.56 0-.296-.104-.496-.496-.76-.504-.328-.775-.656-.775-1.104a1.04 1.04 0 0 1 1.063-1.071c.304 0 .536.104.696.199l-.168.464a.913.913 0 0 0-.512-.168.474.474 0 0 0-.504.488c0 .264.096.407.479.672.448.287.8.64.8 1.175 0 .775-.527 1.151-1.16 1.151-.287 0-.6-.088-.768-.224l.154-.462zm-15.528 40.542v-.399l.439-.6c.615-.855 1.352-1.831 1.352-2.807 0-.576-.256-.928-.744-.928-.376 0-.615.2-.752.288l-.151-.464a1.627 1.627 0 0 1 1.015-.352c.864 0 1.24.64 1.24 1.423 0 .976-.64 1.919-1.279 2.799l-.352.479v.016h1.734v.544h-2.502zm3.08 0v-.399l.439-.6c.615-.855 1.352-1.831 1.352-2.807 0-.576-.256-.928-.744-.928-.376 0-.615.2-.752.288l-.151-.464a1.627 1.627 0 0 1 1.015-.352c.864 0 1.24.64 1.24 1.423 0 .976-.64 1.919-1.279 2.799l-.352.479v.016h1.734v.544h-2.502zm4.696 0v-1.432h-1.728v-.415l1.687-3.351h.6v3.263h.568v.503h-.568v1.432h-.559zm0-1.934v-1.472c0-.359.023-.68.047-1.023h-.031a22.99 22.99 0 0 1-.439.983l-.721 1.496v.017h1.144zm2.896-.936c0-.456-.024-.688-.032-1h.536l.031.48h.016c.168-.312.465-.544.872-.544.36 0 .663.176.808.592h.016c.104-.192.24-.344.385-.44a.93.93 0 0 1 .535-.151c.52 0 .928.384.928 1.368v2.566h-.607v-2.423c0-.504-.072-.992-.545-.992-.256 0-.479.216-.566.576a2.243 2.243 0 0 0-.024.353v2.486h-.608v-2.534c0-.433-.08-.88-.535-.88-.248 0-.504.216-.576.625a2.213 2.213 0 0 0-.023.335v2.455h-.607v-2.872zm4.856 2.23c.137.088.376.2.624.2.352 0 .567-.216.567-.56 0-.296-.104-.496-.496-.76-.504-.328-.775-.656-.775-1.104a1.04 1.04 0 0 1 1.063-1.071c.304 0 .536.104.696.199l-.168.464a.913.913 0 0 0-.512-.168.474.474 0 0 0-.504.488c0 .264.096.408.479.672.448.287.8.64.8 1.175 0 .775-.527 1.151-1.16 1.151-.287 0-.6-.088-.768-.224l.154-.462zM14.403 194.354l-.45 2.019h-.74l1.539-6.736h.85l1.5 6.736h-.76l-.45-2.019h-1.489zm1.389-.62l-.35-1.709c-.1-.479-.19-1.039-.27-1.539h-.04c-.08.51-.18 1.089-.27 1.539l-.35 1.709h1.28zm2.052-.69c0-.739-.03-1.169-.04-1.509h.689l.04.619h.02c.26-.52.64-.699 1.02-.699.839 0 1.399.899 1.399 2.488 0 1.789-.74 2.509-1.5 2.509-.45 0-.709-.29-.839-.56h-.02v2.398h-.77v-5.246zm.769 1.549c0 .15 0 .29.03.4.15.689.5.819.71.819.64 0 .839-.88.839-1.859 0-.999-.24-1.839-.85-1.839-.35 0-.66.439-.709.88-.02.12-.02.239-.02.369v1.23zm3.221-1.549c0-.739-.03-1.169-.04-1.509h.689l.04.619h.02c.26-.52.64-.699 1.02-.699.839 0 1.399.899 1.399 2.488 0 1.789-.74 2.509-1.5 2.509-.45 0-.709-.29-.839-.56h-.02v2.398h-.77v-5.246zm.769 1.549c0 .15 0 .29.03.4.15.689.5.819.71.819.64 0 .839-.88.839-1.859 0-.999-.24-1.839-.85-1.839-.35 0-.66.439-.709.88-.02.12-.02.239-.02.369v1.23zm3.23-5.136h.77v6.916h-.77v-6.916zm2.74.829c.01.3-.18.5-.47.5-.25 0-.439-.2-.439-.5s.2-.499.45-.499c.279 0 .459.199.459.499zm-.83 6.087v-4.837h.77v4.837h-.77zm4.199-.121c-.17.101-.46.18-.8.18-1.059 0-1.769-.85-1.769-2.448 0-1.39.7-2.519 1.909-2.519.26 0 .54.07.68.149l-.15.63c-.1-.05-.3-.13-.55-.13-.77 0-1.119.92-1.119 1.869 0 1.129.43 1.809 1.139 1.809.21 0 .38-.05.56-.13l.1.59zm2.6.121l-.05-.51h-.03c-.21.37-.55.59-.959.59-.649 0-1.149-.55-1.149-1.379 0-1.21.97-1.749 2.059-1.76v-.149c0-.649-.16-1.1-.77-1.1-.3 0-.57.1-.8.25l-.17-.54c.2-.149.65-.319 1.129-.319.97 0 1.389.64 1.389 1.729v2.089c0 .37 0 .79.05 1.1h-.699zm-.11-2.499c-.4 0-1.33.07-1.33 1.12 0 .629.32.859.59.859.34 0 .63-.25.72-.729.02-.09.02-.19.02-.271v-.979zm2.691-3.618v1.279h.93v.589h-.93v2.869c0 .629.23.799.51.799.12 0 .22-.01.31-.029l.03.59c-.14.05-.32.079-.569.079-.3 0-.57-.079-.76-.289-.19-.221-.29-.55-.29-1.22v-2.799h-.589v-.589h.589v-1.06l.769-.219zm2.44.03c.01.3-.18.5-.47.5-.25 0-.439-.2-.439-.5s.2-.499.45-.499c.279 0 .459.199.459.499zm-.83 6.087v-4.837h.77v4.837h-.77zm4.809-2.419c0 1.869-.87 2.499-1.609 2.499-.87 0-1.569-.79-1.569-2.488 0-1.77.79-2.509 1.619-2.509.859 0 1.559.809 1.559 2.498zm-2.409 0c0 .8.14 1.89.839 1.89.66 0 .79-1.14.79-1.89 0-.739-.13-1.879-.81-1.879-.689 0-.819 1.139-.819 1.879zm3.27-1.169c0-.569-.03-.859-.04-1.249h.67l.04.579h.02c.209-.39.6-.659 1.109-.659.669 0 1.169.499 1.169 1.669v3.248h-.77v-3.118c0-.569-.11-1.149-.669-1.149-.32 0-.63.27-.729.789-.02.12-.03.271-.03.431v3.048h-.77v-3.589zm5.68-3.049c.3-.09.65-.13 1.04-.13.709 0 1.209.181 1.579.51.52.45.91 1.319.91 2.729 0 1.539-.38 2.379-.81 2.839-.44.5-1.08.729-1.859.729-.31 0-.629-.021-.859-.07v-6.607zm.769 6.007c.11.021.22.021.29.021.85 0 1.669-.61 1.669-2.898 0-1.699-.52-2.629-1.599-2.629-.12 0-.26.01-.36.04v5.466zm5.529.63l-.05-.51h-.03c-.21.37-.55.59-.959.59-.649 0-1.149-.55-1.149-1.379 0-1.21.97-1.749 2.059-1.76v-.149c0-.649-.16-1.1-.77-1.1-.3 0-.57.1-.8.25l-.17-.54c.2-.149.65-.319 1.129-.319.97 0 1.389.64 1.389 1.729v2.089c0 .37 0 .79.05 1.1h-.699zm-.109-2.499c-.4 0-1.33.07-1.33 1.12 0 .629.32.859.59.859.34 0 .63-.25.72-.729.02-.09.02-.19.02-.271v-.979zm2.69-3.618v1.279h.93v.589h-.93v2.869c0 .629.23.799.51.799.12 0 .22-.01.31-.029l.03.59c-.14.05-.32.079-.57.079-.3 0-.569-.079-.759-.289-.19-.221-.29-.55-.29-1.22v-2.799h-.589v-.589h.589v-1.06l.769-.219zm3.519 6.117l-.05-.51h-.03c-.21.37-.55.59-.959.59-.649 0-1.149-.55-1.149-1.379 0-1.21.97-1.749 2.059-1.76v-.149c0-.649-.16-1.1-.77-1.1-.3 0-.57.1-.8.25l-.17-.54c.2-.149.65-.319 1.129-.319.97 0 1.389.64 1.389 1.729v2.089c0 .37 0 .79.05 1.1h-.699zm-.109-2.499c-.4 0-1.33.07-1.33 1.12 0 .629.32.859.59.859.34 0 .63-.25.72-.729.02-.09.02-.19.02-.271v-.979zm205.255 20.48l-.45 2.019h-.739l1.539-6.736h.85l1.499 6.736h-.76l-.449-2.019h-1.49zm1.39-.62l-.35-1.709c-.101-.479-.19-1.039-.271-1.539h-.04c-.08.51-.18 1.089-.27 1.539l-.35 1.709h1.281zm2.05-.69c0-.739-.029-1.169-.039-1.509h.689l.039.619h.021c.26-.52.64-.699 1.02-.699.839 0 1.399.899 1.399 2.488 0 1.789-.74 2.509-1.5 2.509-.449 0-.709-.29-.839-.56h-.021v2.398h-.77v-5.246zm.77 1.549c0 .15 0 .29.03.4.149.689.5.819.71.819.64 0 .84-.88.84-1.859 0-.999-.24-1.839-.85-1.839-.35 0-.66.439-.71.88-.021.12-.021.239-.021.369v1.23zm3.221-1.549c0-.739-.03-1.169-.04-1.509h.689l.04.619h.02c.26-.52.641-.699 1.02-.699.84 0 1.4.899 1.4 2.488 0 1.789-.74 2.509-1.5 2.509-.449 0-.709-.29-.84-.56h-.02v2.398h-.77v-5.246zm.769 1.549c0 .15 0 .29.029.4.15.689.5.819.711.819.639 0 .839-.88.839-1.859 0-.999-.239-1.839-.85-1.839-.35 0-.659.439-.71.88-.02.12-.02.239-.02.369v1.23zm3.231-5.136h.77v6.916h-.77v-6.916zm2.739.829c.011.3-.18.5-.47.5-.25 0-.439-.2-.439-.5s.199-.499.449-.499c.28 0 .46.199.46.499zm-.829 6.087v-4.837h.77v4.837h-.77zm4.198-.121c-.17.101-.46.18-.8.18-1.059 0-1.77-.85-1.77-2.448 0-1.39.7-2.519 1.91-2.519.26 0 .539.07.68.149l-.15.63c-.1-.05-.3-.13-.55-.13-.77 0-1.119.92-1.119 1.869 0 1.129.43 1.809 1.14 1.809.209 0 .379-.05.559-.13l.1.59zm2.601.121l-.051-.51h-.029c-.211.37-.551.59-.96.59-.649 0-1.149-.55-1.149-1.379 0-1.21.97-1.749 2.059-1.76v-.149c0-.649-.16-1.1-.77-1.1-.299 0-.569.1-.799.25l-.17-.54c.199-.149.649-.319 1.129-.319.97 0 1.389.64 1.389 1.729v2.089c0 .37 0 .79.051 1.1h-.7zm-.111-2.499c-.399 0-1.329.07-1.329 1.12 0 .629.319.859.59.859.34 0 .629-.25.719-.729.021-.09.021-.19.021-.271v-.979zm2.691-3.618v1.279h.93v.589h-.93v2.869c0 .629.23.799.51.799.12 0 .221-.01.311-.029l.029.59c-.14.05-.32.079-.569.079-.3 0-.569-.079-.76-.289-.19-.221-.29-.55-.29-1.22v-2.799h-.59v-.589h.59v-1.06l.769-.219zm2.439.03c.011.3-.18.5-.469.5-.25 0-.439-.2-.439-.5s.199-.499.449-.499c.279 0 .459.199.459.499zm-.829 6.087v-4.837h.77v4.837h-.77zm4.809-2.419c0 1.869-.87 2.499-1.609 2.499-.87 0-1.569-.79-1.569-2.488 0-1.77.79-2.509 1.619-2.509.858 0 1.559.809 1.559 2.498zm-2.41 0c0 .8.141 1.89.84 1.89.66 0 .789-1.14.789-1.89 0-.739-.129-1.879-.809-1.879-.689 0-.82 1.139-.82 1.879zm3.271-1.169c0-.569-.03-.859-.04-1.249h.67l.04.579h.021c.209-.39.6-.659 1.109-.659.669 0 1.169.499 1.169 1.669v3.248h-.771v-3.118c0-.569-.109-1.149-.669-1.149-.319 0-.63.27-.729.789-.02.12-.03.271-.03.431v3.048h-.77v-3.589zm5.68-3.049c.3-.09.649-.13 1.04-.13.709 0 1.209.181 1.578.51.52.45.91 1.319.91 2.729 0 1.539-.38 2.379-.81 2.839-.44.5-1.079.729-1.859.729-.31 0-.63-.021-.859-.07v-6.607zm.769 6.007c.11.021.22.021.29.021.85 0 1.669-.61 1.669-2.898 0-1.699-.52-2.629-1.599-2.629-.121 0-.26.01-.36.04v5.466zm5.529.63l-.05-.51h-.03c-.21.37-.55.59-.96.59-.648 0-1.148-.55-1.148-1.379 0-1.21.969-1.749 2.059-1.76v-.149c0-.649-.16-1.1-.77-1.1-.3 0-.57.1-.8.25l-.17-.54c.2-.149.649-.319 1.13-.319.969 0 1.389.64 1.389 1.729v2.089c0 .37 0 .79.051 1.1h-.701zm-.11-2.499c-.399 0-1.329.07-1.329 1.12 0 .629.319.859.59.859.34 0 .63-.25.72-.729.02-.09.02-.19.02-.271v-.979zm2.692-3.618v1.279h.93v.589h-.93v2.869c0 .629.229.799.51.799.119 0 .22-.01.31-.029l.03.59c-.141.05-.32.079-.57.079-.3 0-.569-.079-.76-.289-.189-.221-.289-.55-.289-1.22v-2.799h-.59v-.589h.59v-1.06l.769-.219zm3.519 6.117l-.051-.51h-.029c-.211.37-.551.59-.96.59-.649 0-1.149-.55-1.149-1.379 0-1.21.97-1.749 2.059-1.76v-.149c0-.649-.16-1.1-.77-1.1-.299 0-.569.1-.799.25l-.17-.54c.199-.149.649-.319 1.129-.319.97 0 1.389.64 1.389 1.729v2.089c0 .37 0 .79.051 1.1h-.7zm-.11-2.499c-.399 0-1.329.07-1.329 1.12 0 .629.319.859.59.859.34 0 .629-.25.719-.729.021-.09.021-.19.021-.271v-.979zM75.59 211.311h-.016l-.864.495-.12-.479 1.095-.64h.512v5.197h-.607v-4.573zm2.112 4.109c.136 0 .248-.016.384-.048a1.48 1.48 0 0 0 .712-.408c.288-.319.52-.791.607-1.479h-.024c-.192.248-.464.439-.839.439-.648 0-1.136-.6-1.136-1.543 0-.951.512-1.759 1.312-1.759.887 0 1.303.936 1.303 2.087 0 1.023-.256 1.831-.688 2.406a2.066 2.066 0 0 1-1.2.792 2.292 2.292 0 0 1-.432.039v-.526zm.312-3.094c0 .768.288 1.135.704 1.135.256 0 .512-.176.64-.464a.847.847 0 0 0 .048-.336c0-1.087-.312-1.559-.72-1.559-.312.001-.672.336-.672 1.224zm4.783-1.183a2.615 2.615 0 0 0-.368.056c-.863.208-1.207 1.071-1.335 1.871h.024c.2-.296.488-.496.879-.496.664 0 1.12.608 1.12 1.6 0 .983-.448 1.774-1.279 1.774-.904 0-1.359-.919-1.359-2.11 0-1.008.264-1.791.671-2.343a2.14 2.14 0 0 1 1.255-.823c.168-.032.304-.04.392-.048v.519zm-.296 3.078c0-.783-.272-1.176-.696-1.176-.256 0-.52.177-.671.561a.83.83 0 0 0-.048.312c.008 1.063.336 1.551.752 1.551.351-.001.663-.345.663-1.248zm2.513-1.207c0-.456-.024-.688-.032-1h.536l.032.48h.016c.168-.312.464-.544.872-.544.36 0 .664.176.808.592h.016c.104-.192.24-.344.384-.44a.932.932 0 0 1 .536-.151c.52 0 .927.384.927 1.367v2.566h-.607v-2.423c0-.504-.072-.991-.544-.991-.256 0-.479.216-.567.575a2.37 2.37 0 0 0-.024.353v2.486h-.608v-2.534c0-.433-.08-.88-.536-.88-.248 0-.504.216-.576.624a2.209 2.209 0 0 0-.024.335v2.455h-.608v-2.87zm4.856 2.23c.136.088.376.2.624.2.352 0 .567-.216.567-.56 0-.296-.104-.496-.496-.76-.504-.328-.775-.656-.775-1.104 0-.624.463-1.071 1.063-1.071.304 0 .536.104.696.199l-.168.464a.91.91 0 0 0-.512-.168.474.474 0 0 0-.503.488c0 .264.096.407.479.672.448.287.8.64.8 1.175 0 .775-.528 1.151-1.16 1.151-.288 0-.6-.088-.768-.224l.153-.462z"/><path fill="none" stroke="#0071bc" d="M329.943 75.166c7.57 2.613-2.728 16.236 4.396 18.271-7.123 2.035 3.175 15.658-4.396 18.271" stroke-linejoin="round"/><path d="M341.938 135.045v-1.229h.689v3.229h-.689v-1.229h-6.047v-.77h6.047zm.689 2.751v.77h-6.087v1.899h-.649v-2.668h6.736zm-5.847 3.29c-.15.23-.27.63-.27.97 0 .699.459 1.119 1.139 1.119.62 0 1-.36 1.399-.89.37-.53.999-1.269 1.869-1.269 1.02 0 1.769.709 1.769 1.779 0 .42-.13.79-.249.95l-.66-.19c.12-.17.229-.45.229-.8 0-.66-.499-.969-.959-.969-.67 0-.93.35-1.39.989-.569.81-1.189 1.169-1.938 1.169-1.159 0-1.889-.819-1.889-1.889 0-.46.149-.95.289-1.14l.661.171zm2.019 8.789h-.6v-2.189h.6v2.189zm2.808 3.75v-.02l-.619-1.079.6-.15.799 1.369v.64h-6.496v-.76h5.716zm0 3.85v-.02l-.619-1.079.6-.15.799 1.369v.64h-6.496v-.76h5.716zm-5.716 2.291h.5l.749.55c1.069.77 2.289 1.689 3.509 1.689.719 0 1.159-.32 1.159-.93 0-.47-.25-.77-.36-.939l.58-.19c.189.23.439.68.439 1.27 0 1.08-.8 1.549-1.778 1.549-1.22 0-2.399-.8-3.499-1.599l-.6-.44h-.02v2.169h-.68v-3.129zm3.588 5.639c.569 0 .859-.03 1.249-.04v.67l-.6.04v.02c.391.21.68.58.68 1.089 0 .45-.22.83-.739 1.009v.02c.24.13.43.3.55.48.13.189.189.419.189.669 0 .649-.479 1.159-1.709 1.159h-3.208v-.759h3.028c.63 0 1.239-.09 1.239-.68 0-.32-.27-.6-.72-.709-.13-.02-.279-.03-.439-.03h-3.108v-.759h3.168c.54 0 1.1-.1 1.1-.67 0-.31-.27-.629-.779-.72-.13-.02-.271-.03-.42-.03h-3.068v-.76h3.587zm-2.789 6.071c-.11.17-.25.47-.25.78 0 .439.27.709.699.709.37 0 .62-.13.95-.62.409-.63.819-.969 1.379-.969.779 0 1.339.58 1.339 1.329 0 .38-.13.669-.25.87l-.579-.21c.12-.18.21-.39.21-.64 0-.42-.3-.63-.61-.63-.329 0-.509.12-.839.6-.36.56-.8 1-1.47 1-.969 0-1.438-.66-1.438-1.449 0-.36.109-.75.279-.959l.58.189z"/><path fill="none" stroke="#009245" d="M329.943 115.167c7.57 5.526-2.728 34.335 4.396 38.639-7.123 4.304 3.175 33.112-4.396 38.639" stroke-linejoin="round"/><path d="M33.782 114.202l-.45 2.019h-.74l1.54-6.736h.849l1.5 6.736h-.76l-.45-2.019h-1.489zm1.389-.62l-.35-1.709c-.1-.479-.19-1.039-.27-1.539h-.04c-.08.51-.18 1.089-.27 1.539l-.35 1.709h1.28zm4.891 2.519c-.21.11-.54.18-.959.18-1.319 0-2.259-1.059-2.259-3.348 0-2.658 1.319-3.508 2.379-3.508.41 0 .699.08.839.17l-.17.649c-.16-.07-.33-.14-.68-.14-.72 0-1.559.699-1.559 2.758 0 2.06.76 2.738 1.579 2.738.29 0 .55-.069.709-.149l.121.65zm.791-6.617h.77v3.198h.02c.15-.28.29-.55.42-.81l1.259-2.389h.85l-1.649 2.879 1.689 3.857h-.83l-1.379-3.248-.38.649v2.599h-.77v-6.735z"/><path fill="#fddfbb" fill-rule="evenodd" d="M73.286 135.589c0 1.98-1.62 3.6-3.6 3.6H6.98a3.61 3.61 0 0 1-3.6-3.6v-9.856c0-1.98 1.62-3.6 3.6-3.6h62.706c1.98 0 3.6 1.62 3.6 3.6v9.856z" clip-rule="evenodd"/><path fill="none" stroke="#000" d="M73.286 135.589c0 1.98-1.62 3.6-3.6 3.6H6.98a3.61 3.61 0 0 1-3.6-3.6v-9.856c0-1.98 1.62-3.6 3.6-3.6h62.706c1.98 0 3.6 1.62 3.6 3.6v9.856z" stroke-linecap="round" stroke-linejoin="round"/><path d="M25.728 133.567c-.21.11-.54.18-.959.18-1.319 0-2.259-1.059-2.259-3.348 0-2.658 1.319-3.508 2.379-3.508.41 0 .699.08.839.17l-.17.649c-.16-.07-.33-.14-.68-.14-.72 0-1.559.699-1.559 2.758 0 2.06.76 2.738 1.579 2.738.29 0 .55-.069.709-.149l.121.65zm.702-6.796h.77v6.916h-.77v-6.916zm2.739.83c.01.3-.18.5-.47.5-.25 0-.439-.2-.439-.5s.2-.499.45-.499c.28 0 .459.199.459.499zm-.829 6.087v-4.837h.77v4.837h-.77zm2.38-2.349c.01 1.479.589 1.799 1.149 1.799.33 0 .609-.08.799-.189l.12.569c-.27.15-.68.229-1.06.229-1.159 0-1.759-.949-1.759-2.429 0-1.568.66-2.548 1.629-2.548.989 0 1.379 1.039 1.379 2.139 0 .18 0 .31-.01.43H30.72zm1.519-.569c.02-.97-.35-1.399-.72-1.399-.5 0-.76.739-.79 1.399h1.51zm1.571-.67c0-.569-.03-.859-.04-1.249h.67l.04.579h.02c.21-.39.6-.659 1.109-.659.669 0 1.169.499 1.169 1.669v3.248h-.77v-3.118c0-.569-.11-1.149-.669-1.149-.32 0-.629.27-.729.789-.02.12-.03.271-.03.431v3.048h-.77V130.1zm4.929-2.529v1.279h.93v.589h-.93v2.869c0 .629.23.799.51.799.12 0 .22-.01.31-.029l.03.59c-.14.05-.32.079-.569.079-.3 0-.57-.079-.76-.289-.19-.221-.29-.55-.29-1.22v-2.799h-.59v-.589h.589v-1.06l.77-.219zm2.44-.62v2.889h1.889v-2.889h.77v6.736h-.77v-3.148h-1.889v3.148h-.77v-6.736h.77zm4.3 4.388c.01 1.479.589 1.799 1.149 1.799.33 0 .609-.08.799-.189l.12.569c-.27.15-.68.229-1.06.229-1.159 0-1.759-.949-1.759-2.429 0-1.568.66-2.548 1.629-2.548.989 0 1.379 1.039 1.379 2.139 0 .18 0 .31-.01.43h-2.247zm1.519-.569c.02-.97-.35-1.399-.72-1.399-.5 0-.759.739-.79 1.399h1.51zm1.571-3.999h.77v6.916h-.77v-6.916zm1.91 0h.77v6.916h-.77v-6.916zm4.879 4.498c0 1.869-.87 2.499-1.609 2.499-.87 0-1.569-.79-1.569-2.488 0-1.77.79-2.509 1.619-2.509.859 0 1.559.809 1.559 2.498zm-2.409 0c0 .8.14 1.89.839 1.89.66 0 .79-1.14.79-1.89 0-.739-.13-1.879-.81-1.879-.689 0-.819 1.139-.819 1.879z"/></svg>