<svg xmlns="http://www.w3.org/2000/svg" viewBox="0 0 295.522 218.471"><path fill="#4d4d4d" fill-rule="evenodd" d="M146.263 41.884l6.988-6.098h-3.887V3.38h-6.203v32.406h-3.887z" clip-rule="evenodd"/><path fill="#b2dec7" fill-rule="evenodd" d="M3.382 3.38h285.765v19.943H3.382z" clip-rule="evenodd"/><path fill="none" stroke="#000" d="M3.382 3.38h285.765v19.943H3.382z" stroke-linecap="round" stroke-linejoin="round"/><path fill="#b2d4eb" fill-rule="evenodd" d="M3.382 42.379h285.765v19.944H3.382z" clip-rule="evenodd"/><path fill="none" stroke="#000" d="M3.382 42.379h285.765v19.944H3.382z" stroke-linecap="round" stroke-linejoin="round"/><path fill="#fff" fill-rule="evenodd" d="M3.38 62.323h285.765v109.824H3.38z" clip-rule="evenodd"/><path fill="none" stroke="#000" d="M3.38 62.323h285.765v109.824H3.38z" stroke-linecap="round" stroke-linejoin="round"/><path fill="#fddfbb" fill-rule="evenodd" stroke="#000" d="M14.269 84.293h115.988v19.944H14.269zm0 19.945h115.988v19.944H14.269zm0 19.944h115.988v19.944H14.269zm0 19.944h115.988v19.944H14.269zM162.27 84.293h115.988v19.944H162.27zm0 19.945h115.988v19.944H162.27zm0 19.944h115.988v19.944H162.27zm0 19.944h115.988v19.944H162.27z" clip-rule="evenodd" stroke-linecap="round" stroke-linejoin="round"/><path fill="#ecbec0" fill-rule="evenodd" d="M3.38 172.147h142.885v19.944H3.38z" clip-rule="evenodd"/><path fill="none" stroke="#000" d="M3.38 172.147h142.885v19.944H3.38z" stroke-linecap="round" stroke-linejoin="round"/><path fill="#ecbec0" fill-rule="evenodd" d="M146.262 172.147h142.885v19.944H146.262z" clip-rule="evenodd"/><path fill="none" stroke="#000" d="M146.262 172.147h142.885v19.944H146.262z" stroke-linecap="round" stroke-linejoin="round"/><path fill="#ccc" fill-rule="evenodd" d="M3.38 192.091h285.765v19.944H3.38z" clip-rule="evenodd"/><path fill="none" stroke="#000" d="M3.38 192.091h285.765v19.944H3.38z" stroke-linecap="round" stroke-linejoin="round"/><path d="M99.345 16.581l-1.342-7.415h1.221l.473 3.234c.132.892.22 1.738.308 2.641h.033c.099-.924.264-1.728.429-2.651l.605-3.224h.968l.572 3.19a31.9 31.9 0 0 1 .396 2.685h.022c.11-1.013.22-1.815.33-2.662l.473-3.213h1.155l-1.364 7.415h-1.199l-.561-2.948a39.356 39.356 0 0 1-.352-2.442h-.022a34.559 34.559 0 0 1-.407 2.453l-.605 2.938h-1.133zm7.008-2.366c.011 1.199.561 1.529 1.188 1.529.396 0 .726-.088.957-.188l.176.836c-.341.154-.858.254-1.342.254-1.386 0-2.124-1.002-2.124-2.663 0-1.771.847-2.849 1.992-2.849 1.122 0 1.694 1.022 1.694 2.453 0 .308-.011.483-.033.627h-2.508zm1.452-.836c.011-.858-.275-1.364-.693-1.364-.506 0-.737.737-.759 1.364h1.452zm1.935-4.412h1.166v2.839h.022c.264-.451.627-.671 1.123-.671.946 0 1.496 1.078 1.496 2.662 0 1.903-.77 2.871-1.694 2.871-.506 0-.803-.253-1.056-.748h-.033l-.066.66h-1.001a30.15 30.15 0 0 0 .044-1.452V8.967zm1.166 5.71c0 .132.022.253.044.341.154.562.429.683.627.683.572 0 .792-.748.792-1.826 0-.99-.231-1.75-.803-1.75-.297 0-.55.353-.616.704a1.82 1.82 0 0 0-.044.342v1.506zm6.402-.021l-.396 1.925h-1.145l1.65-7.415h1.375l1.529 7.415h-1.144l-.396-1.925h-1.473zm1.353-.925l-.308-1.705c-.099-.484-.198-1.166-.275-1.684h-.033a49.482 49.482 0 0 1-.275 1.694l-.33 1.694h1.221zm2.42-.825c0-.726-.022-1.231-.044-1.683h1.023l.066.648h.022c.253-.506.66-.736 1.122-.736 1.067 0 1.617 1.144 1.617 2.75 0 1.958-.836 2.783-1.706 2.783-.473 0-.759-.286-.913-.561h-.022v2.585h-1.166v-5.786zm1.166 1.717c0 .165.022.33.055.451.143.517.418.627.616.627.594 0 .792-.848.792-1.794 0-1.066-.253-1.782-.792-1.782-.297 0-.561.33-.627.693a1.507 1.507 0 0 0-.044.396v1.409zm3.509-1.717c0-.726-.022-1.231-.044-1.683h1.023l.066.648h.022c.253-.506.66-.736 1.122-.736 1.067 0 1.617 1.144 1.617 2.75 0 1.958-.836 2.783-1.706 2.783-.473 0-.759-.286-.913-.561h-.022v2.585h-1.166v-5.786zm1.166 1.717c0 .165.022.33.055.451.143.517.418.627.616.627.594 0 .792-.848.792-1.794 0-1.066-.253-1.782-.792-1.782-.297 0-.561.33-.627.693a1.507 1.507 0 0 0-.044.396v1.409zm3.509-5.656h1.177v7.613h-1.177V8.967zm2.871 1.54c-.341 0-.616-.274-.616-.682 0-.418.286-.683.627-.683.374 0 .638.265.638.683 0 .407-.264.682-.638.682h-.011zm-.561 6.074v-5.357h1.177v5.357h-1.177zm5.071-.111c-.165.088-.506.177-.902.177-1.276 0-2.123-.946-2.123-2.707 0-1.606.891-2.794 2.311-2.794.319 0 .627.077.77.154l-.176.935c-.121-.044-.308-.121-.572-.121-.759 0-1.155.814-1.155 1.805 0 1.1.44 1.76 1.155 1.76.22 0 .407-.044.572-.121l.12.912zm3.993-1.11c0 .418.011.868.066 1.221h-1.056l-.066-.539h-.022c-.275.407-.671.627-1.133.627-.77 0-1.353-.638-1.353-1.584 0-1.375 1.166-1.958 2.376-1.97v-.143c0-.562-.22-.946-.803-.946-.385 0-.704.11-1.001.297l-.22-.803c.264-.165.825-.385 1.474-.385 1.386 0 1.738.945 1.738 2.09v2.135zm-1.156-1.464c-.462.011-1.287.132-1.287 1.067 0 .605.319.825.583.825.297 0 .572-.198.671-.616.022-.077.033-.176.033-.275v-1.001zm3.542-4.004v1.331h1.034v.847h-1.034v2.783c0 .66.253.825.55.825.132 0 .242-.011.363-.033l.022.913c-.176.056-.44.089-.77.089-.374 0-.715-.1-.946-.33-.264-.265-.396-.649-.396-1.452V12.07h-.638v-.847h.638v-.925l1.177-.406zm2.299.615c-.341 0-.616-.274-.616-.682 0-.418.286-.683.627-.683.374 0 .638.265.638.683 0 .407-.264.682-.638.682h-.011zm-.561 6.074v-5.357h1.177v5.357h-1.177zm3.96.087c-1.133 0-1.914-.946-1.914-2.75 0-1.947.957-2.783 1.958-2.783 1.123 0 1.893.979 1.893 2.75 0 2.167-1.122 2.783-1.925 2.783h-.012zm.044-.902c.583 0 .715-1.056.715-1.87 0-.781-.132-1.859-.737-1.859-.638 0-.759 1.078-.759 1.859 0 .902.154 1.87.77 1.87h.011zm2.761-3.036c0-.605-.022-1.034-.044-1.507h1.023l.055.627h.022c.253-.43.704-.715 1.265-.715.902 0 1.375.692 1.375 1.936v3.51h-1.177v-3.399c0-.539-.11-1.057-.627-1.057-.286 0-.55.221-.66.66-.033.11-.055.286-.055.484v3.312h-1.177V12.73zm7.667 1.926l-.396 1.925h-1.145l1.65-7.415h1.375l1.529 7.415h-1.144l-.396-1.925h-1.473zm1.353-.925l-.308-1.705c-.099-.484-.198-1.166-.275-1.684h-.033a49.482 49.482 0 0 1-.275 1.694l-.33 1.694h1.221zm2.53-4.455a6.151 6.151 0 0 1 1.376-.144c.78 0 1.418.144 1.859.562.396.374.594.946.594 1.584 0 .748-.209 1.254-.551 1.65-.439.517-1.154.77-1.781.77-.121 0-.221 0-.33-.011v2.894h-1.167V9.276zm1.167 3.443c.088.021.164.021.285.021.771 0 1.199-.527 1.199-1.375 0-.693-.285-1.276-1.078-1.276-.165 0-.309.022-.406.056v2.574zm4.751-3.554v7.415h-1.177V9.165h1.177zm4.983-.198c-.627.99-1.155 2.442-1.155 4.478 0 1.98.528 3.443 1.155 4.456h-.869c-.594-.825-1.232-2.321-1.232-4.456.033-2.156.639-3.642 1.232-4.478h.869zm2.067 7.614l-1.342-7.415h1.221l.474 3.234c.132.892.22 1.738.308 2.641h.033c.099-.924.265-1.728.429-2.651l.605-3.224h.968l.572 3.19a31.9 31.9 0 0 1 .396 2.685h.022c.11-1.013.22-1.815.33-2.662l.474-3.213h1.154l-1.363 7.415h-1.199l-.562-2.948a40.091 40.091 0 0 1-.353-2.442h-.021a34.559 34.559 0 0 1-.407 2.453l-.604 2.938h-1.135zm6.314-1.166c.254.154.65.286 1.046.286.726 0 1.155-.484 1.155-1.21 0-.858-.605-1.288-1.387-1.288h-.197v-.869h.143c.528 0 1.243-.297 1.243-1.078 0-.604-.353-.945-.88-.945-.342 0-.649.143-.891.308l-.199-.88c.287-.209.826-.396 1.387-.396 1.155 0 1.76.771 1.76 1.684 0 .726-.385 1.331-1.045 1.639v.022c.672.209 1.243.814 1.243 1.849 0 1.122-.803 2.134-2.244 2.134-.528 0-1.034-.143-1.331-.33l.197-.926zm8.064 1.044c-.221.11-.605.188-1.09.188-1.693 0-2.662-1.387-2.662-3.675 0-2.85 1.508-3.873 2.827-3.873.484 0 .825.1.968.188l-.219 1.001c-.177-.088-.353-.154-.705-.154-.803 0-1.628.737-1.628 2.762 0 1.991.748 2.706 1.64 2.706.274 0 .55-.065.726-.132l.143.989zm.527 1.442c.627-1.001 1.155-2.486 1.155-4.489 0-1.979-.528-3.443-1.155-4.444h.869c.595.814 1.232 2.277 1.232 4.456-.033 2.167-.638 3.63-1.232 4.478h-.869zm-78.445 30.264v7.415h-.847v-7.415h.847zm1.276 3.466c0-.628-.033-.946-.044-1.376h.737l.044.639h.022a1.35 1.35 0 0 1 1.221-.727c.737 0 1.287.539 1.287 1.838v3.575h-.847v-3.433c0-.638-.121-1.265-.737-1.265-.352 0-.693.297-.792.869-.033.12-.044.285-.044.473v3.355h-.847v-3.948zm5.424-2.619v1.243h1.023v.639h-1.023v3.168c0 .704.242.881.55.881.143 0 .253-.012.341-.033l.044.648a1.827 1.827 0 0 1-.627.089c-.341 0-.638-.089-.836-.319-.22-.242-.319-.605-.319-1.343v-3.091h-.649v-.639h.649v-.901l.847-.342zm2.276 3.983c.011 1.639.649 1.979 1.254 1.979.374 0 .671-.088.88-.197l.143.615c-.297.165-.748.254-1.177.254-1.266 0-1.925-1.034-1.925-2.674 0-1.728.726-2.806 1.793-2.806 1.078 0 1.518 1.145 1.518 2.344 0 .209-.011.352-.022.484h-2.464zm1.672-.628c.011-1.066-.385-1.54-.792-1.54-.55 0-.836.814-.869 1.54h1.661zm1.716-.736c0-.451-.033-.979-.044-1.376h.759l.044.837h.022c.176-.507.627-.925 1.122-.925.066 0 .121 0 .176.012v.869c-.055-.012-.11-.012-.176-.012-.539 0-.935.495-1.023 1.111a3.146 3.146 0 0 0-.033.484v2.948h-.847v-3.948zm2.739 0c0-.628-.033-.946-.044-1.376h.737l.044.639h.022a1.35 1.35 0 0 1 1.221-.727c.737 0 1.287.539 1.287 1.838v3.575h-.847v-3.433c0-.638-.121-1.265-.737-1.265-.352 0-.693.297-.792.869-.033.12-.044.285-.044.473v3.355h-.847v-3.948zm7.26 2.739c0 .407 0 .869.055 1.21h-.759l-.055-.562h-.033c-.231.407-.605.649-1.056.649-.715 0-1.265-.594-1.265-1.519 0-1.342 1.067-1.925 2.266-1.936v-.165c0-.716-.176-1.21-.847-1.21-.33 0-.627.099-.88.274l-.187-.594c.231-.165.715-.353 1.243-.353 1.067 0 1.518.704 1.518 1.893v2.313zm-.825-1.552c-.44 0-1.463.088-1.463 1.243 0 .704.352.946.649.946.374 0 .682-.274.781-.803.022-.1.033-.209.033-.309v-1.077zm2.024-4.851h.847v7.613h-.847v-7.613zm4.488 7.613l-1.419-7.415h.869l.627 3.575c.165.936.275 1.761.374 2.674h.033c.099-.936.264-1.738.451-2.685l.682-3.564h.715l.693 3.487c.165.88.33 1.728.429 2.762h.033c.121-1.067.253-1.882.385-2.718l.616-3.531h.836l-1.441 7.415h-.836l-.704-3.608a33.895 33.895 0 0 1-.385-2.432h-.022a26.77 26.77 0 0 1-.407 2.465l-.726 3.575h-.803zm6.336-2.585c.011 1.639.649 1.979 1.254 1.979.374 0 .671-.088.88-.197l.143.615c-.297.165-.748.254-1.177.254-1.265 0-1.925-1.034-1.925-2.674 0-1.728.726-2.806 1.793-2.806 1.078 0 1.518 1.145 1.518 2.344 0 .209-.011.352-.022.484h-2.464zm1.672-.628c.011-1.066-.385-1.54-.792-1.54-.55 0-.836.814-.869 1.54h1.661zm1.716-4.4h.847v2.916h.022c.275-.528.671-.716 1.122-.716.836 0 1.452.946 1.452 2.695 0 1.926-.792 2.806-1.606 2.806-.572 0-.858-.33-1.056-.781h-.044l-.055.693h-.726c.011-.308.044-.913.044-1.266v-6.347zm.847 5.743c0 .121.011.23.033.33.198.781.561.924.792.924.682 0 .924-.924.924-2.058 0-1.066-.253-2.013-.936-2.013-.396 0-.715.484-.792.946a4.263 4.263 0 0 0-.022.374v1.497zm3.619-5.435c.363-.1.803-.144 1.221-.144.737 0 1.287.154 1.672.528.363.374.517.869.517 1.452 0 .946-.44 1.562-1.188 1.914v.022c.55.165.836.692.99 1.661.176 1.012.319 1.639.429 1.87h-.858c-.11-.22-.253-.924-.396-1.826-.165-1.023-.484-1.397-1.21-1.397h-.33v3.224h-.847v-7.304zm.847 3.421h.352c.814 0 1.353-.594 1.353-1.485 0-.847-.352-1.386-1.265-1.396-.165 0-.33.011-.44.044v2.837zm4.4-2.772h-1.354v-.759h3.554v.759h-1.353v6.656h-.847v-6.656zm5.918 6.524c-.23.121-.605.198-1.066.198-1.442 0-2.487-1.155-2.487-3.675 0-2.938 1.452-3.873 2.629-3.873.439 0 .77.088.913.188l-.187.715a1.572 1.572 0 0 0-.738-.154c-.792 0-1.727.771-1.727 3.037 0 2.277.836 3.015 1.749 3.015.319 0 .595-.077.771-.154l.143.703zm3.476-2.091l-.484 2.223h-.825l1.694-7.415h.936l1.649 7.415h-.836l-.483-2.223h-1.651zm1.53-.681l-.386-1.882a38.668 38.668 0 0 1-.297-1.693h-.033a31.83 31.83 0 0 1-.308 1.705l-.385 1.87h1.409zm2.363-4.401a4.816 4.816 0 0 1 1.232-.144c.682 0 1.266.165 1.65.539.352.353.539.892.539 1.54 0 .683-.165 1.145-.451 1.519-.396.55-1.089.825-1.749.825-.144 0-.253 0-.374-.011v3.036h-.848v-7.304zm.847 3.565c.1.011.197.021.341.021.825 0 1.386-.55 1.386-1.595 0-.76-.308-1.441-1.254-1.441-.197 0-.363.021-.473.055v2.96zm4.389-3.675v7.415h-.847v-7.415h.847zM15.544 78.494l-.264-7.415h.858l.077 4.544c.011.692.011 1.243-.055 1.804h.044c.154-.55.363-1.144.616-1.793l1.782-4.555h.858l-3.103 7.415h-.813zm6.755-3.675c0 1.343-.66 3.763-2.289 3.763-.99 0-1.298-.858-1.298-1.804 0-1.431.77-3.697 2.354-3.697 1.068 0 1.233 1.023 1.233 1.738zm-2.784 1.882c0 .604.044 1.231.605 1.231.968 0 1.375-2.266 1.375-3.168 0-.55-.099-1.023-.561-1.023-.88 0-1.419 1.914-1.419 2.96zm3.091 1.793l1.012-5.325h.792l-1.023 5.325h-.781zm1.199-6.678c.011-.286.231-.562.528-.562.308 0 .451.231.429.518-.022.362-.264.561-.55.561s-.44-.209-.407-.517zm3.278 6.59c-.198.088-.506.154-.869.154-1.067 0-1.452-.869-1.452-1.903 0-1.552.913-3.564 2.651-3.564.231 0 .418.032.528.088l-.209.682c-.11-.033-.231-.077-.396-.077-1.111 0-1.76 1.585-1.76 2.784 0 .78.231 1.309.847 1.309.209 0 .44-.055.649-.132l.011.659zm3.421-.176a2.57 2.57 0 0 1-1.254.33c-1.122 0-1.485-.858-1.485-1.882 0-1.441.803-3.598 2.321-3.598.781 0 1.1.595 1.1 1.211 0 1.287-1.144 1.837-2.596 1.848-.022.154-.055.748.033 1.067.121.451.396.693.814.693.418 0 .704-.144.946-.286l.121.617zm-.539-4.466c-.473 0-.979.583-1.265 1.738.847-.012 1.738-.297 1.738-1.155 0-.374-.154-.583-.473-.583zm5.874 4.466a2.57 2.57 0 0 1-1.254.33c-1.122 0-1.485-.858-1.485-1.882 0-1.441.803-3.598 2.321-3.598.781 0 1.1.595 1.1 1.211 0 1.287-1.144 1.837-2.596 1.848-.022.154-.055.748.033 1.067.121.451.396.693.814.693.418 0 .704-.144.946-.286l.121.617zm-.539-4.466c-.473 0-.979.583-1.265 1.738.847-.012 1.738-.297 1.738-1.155 0-.374-.154-.583-.473-.583zm1.331 4.73l.649-3.498c.154-.771.231-1.397.286-1.827h.693l-.088.848h.022c.429-.649.891-.936 1.43-.936.66 0 .913.518.913 1.078 0 .309-.044.562-.099.869l-.649 3.466h-.792l.649-3.454c.044-.242.077-.463.077-.737 0-.319-.132-.539-.462-.539-.495 0-1.089.759-1.288 1.771l-.561 2.959h-.78zm4.399 1.31c.22.121.561.23.858.23.803 0 1.133-.583 1.342-1.562l.187-.836h-.022c-.451.737-.891.902-1.276.902-.616 0-1.001-.539-1.012-1.54-.011-1.573.825-3.917 2.729-3.917.418 0 .847.121 1.133.265l-.869 4.609c-.209 1.111-.462 1.805-.836 2.179-.363.385-.847.561-1.419.561-.407 0-.825-.11-1.045-.253l.23-.638zm3.059-5.975c-.11-.055-.242-.088-.462-.088-1.089 0-1.694 1.882-1.716 2.981-.011.627.077 1.155.539 1.155.572 0 1.045-1.001 1.188-1.694l.451-2.354zm1.056 4.665l1.012-5.325h.792l-1.023 5.325h-.781zm1.199-6.678c.011-.286.231-.562.528-.562.308 0 .451.231.429.518-.022.362-.264.561-.55.561s-.44-.209-.407-.517zm.769 6.678l.649-3.498c.154-.771.231-1.397.286-1.827h.693l-.088.848h.022c.429-.649.891-.936 1.43-.936.66 0 .913.518.913 1.078 0 .309-.044.562-.099.869l-.649 3.466h-.792l.649-3.454c.044-.242.077-.463.077-.737 0-.319-.132-.539-.462-.539-.495 0-1.089.759-1.288 1.771l-.561 2.959h-.78zm7.25-.264a2.57 2.57 0 0 1-1.254.33c-1.122 0-1.485-.858-1.485-1.882 0-1.441.803-3.598 2.321-3.598.781 0 1.1.595 1.1 1.211 0 1.287-1.144 1.837-2.596 1.848-.022.154-.055.748.033 1.067.121.451.396.693.814.693.418 0 .704-.144.946-.286l.121.617zm-.539-4.466c-.473 0-.979.583-1.265 1.738.847-.012 1.738-.297 1.738-1.155 0-.374-.154-.583-.473-.583zm-1.909 21.507l-.484 2.223h-.825l1.694-7.415h.936l1.65 7.415h-.836l-.484-2.223h-1.651zm1.529-.681l-.385-1.882a38.668 38.668 0 0 1-.297-1.693h-.033a31.83 31.83 0 0 1-.308 1.705l-.385 1.87h1.408zm5.423 1.452c0 .583.033 1.056.044 1.452h-.737l-.066-.562h-.022c-.154.265-.561.649-1.133.649-.924 0-1.298-.726-1.298-2.046v-3.367h.847v3.246c0 .825.132 1.452.715 1.452.495 0 .715-.462.759-.715.033-.144.044-.298.044-.474v-3.51h.847v3.875zm4.4-6.161v6.337c0 .363.033.969.044 1.276h-.726l-.055-.66h-.044c-.165.374-.55.748-1.111.748-.902 0-1.551-.968-1.551-2.729 0-1.892.781-2.772 1.606-2.772.385 0 .759.177.968.627h.022v-2.827h.847zm-.847 4.312c0-.109 0-.23-.011-.352-.044-.55-.385-1.034-.792-1.034-.704 0-.946.979-.946 2.046 0 1.122.286 2.024.902 2.024.264 0 .627-.143.814-.913.033-.099.033-.22.033-.352v-1.419zm2.419-2.848c-.275 0-.484-.221-.484-.551s.22-.55.495-.55c.308 0 .506.22.506.55s-.198.551-.506.551h-.011zm-.396 6.149v-5.325h.847v5.325h-.847zm3.52.088c-.957 0-1.727-.869-1.727-2.739 0-1.947.869-2.762 1.782-2.762.957 0 1.716.881 1.716 2.739 0 2.068-.946 2.762-1.76 2.762h-.011zm.044-.671c.726 0 .88-1.243.88-2.079 0-.825-.154-2.079-.902-2.079-.759 0-.902 1.254-.902 2.079 0 .88.154 2.079.914 2.079h.01zm6.996.451c-.187.109-.506.198-.88.198-1.167 0-1.947-.936-1.947-2.695 0-1.529.77-2.772 2.101-2.772.286 0 .594.076.748.176l-.165.681a1.382 1.382 0 0 0-.605-.143c-.858 0-1.232 1.012-1.232 2.058 0 1.243.473 1.991 1.254 1.991.22 0 .418-.044.605-.144l.121.65zm2.156.22c-.957 0-1.727-.869-1.727-2.739 0-1.947.869-2.762 1.782-2.762.957 0 1.716.881 1.716 2.739 0 2.068-.946 2.762-1.76 2.762h-.011zm.044-.671c.726 0 .88-1.243.88-2.079 0-.825-.154-2.079-.902-2.079-.759 0-.902 1.254-.902 2.079 0 .88.154 2.079.914 2.079h.01zm5.885-7.03v6.337c0 .363.033.969.044 1.276h-.726l-.055-.66h-.044c-.165.374-.55.748-1.111.748-.902 0-1.551-.968-1.551-2.729 0-1.892.781-2.772 1.606-2.772.385 0 .759.177.968.627h.022v-2.827h.847zm-.847 4.312c0-.109 0-.23-.011-.352-.044-.55-.385-1.034-.792-1.034-.704 0-.946.979-.946 2.046 0 1.122.286 2.024.902 2.024.264 0 .627-.143.814-.913.033-.099.033-.22.033-.352v-1.419zm2.617.716c.011 1.639.649 1.979 1.254 1.979.374 0 .671-.088.88-.197l.143.615c-.297.165-.748.254-1.177.254-1.265 0-1.925-1.034-1.925-2.674 0-1.728.726-2.806 1.793-2.806 1.078 0 1.518 1.145 1.518 2.344 0 .209-.011.352-.022.484h-2.464zm1.673-.628c.011-1.066-.385-1.54-.792-1.54-.55 0-.836.814-.869 1.54h1.661zm4.323 3.081c-.187.109-.506.198-.88.198-1.167 0-1.947-.936-1.947-2.695 0-1.529.77-2.772 2.101-2.772.286 0 .594.076.748.176l-.165.682a1.382 1.382 0 0 0-.605-.143c-.858 0-1.232 1.012-1.232 2.058 0 1.243.473 1.991 1.254 1.991.22 0 .418-.044.605-.144l.121.649zm.583-.748c.187.121.517.274.858.274.473 0 .781-.297.781-.77 0-.407-.143-.693-.682-1.045-.693-.451-1.067-.913-1.067-1.519 0-.869.638-1.475 1.463-1.475.418 0 .726.133.946.275l-.22.638a1.214 1.214 0 0 0-.715-.241c-.451 0-.682.329-.682.682 0 .352.132.562.66.913.616.396 1.1.892 1.1 1.628 0 1.067-.726 1.585-1.606 1.585-.385 0-.814-.121-1.045-.309l.209-.636zm-68.661 13.409h.847v5.325c0 1.661-.671 2.178-1.738 2.178-.209 0-.407-.021-.55-.077l.077-.715c.11.033.253.044.407.044.594 0 .957-.242.957-1.419v-5.336zm2.431 1.266c-.275 0-.484-.221-.484-.551s.22-.55.495-.55c.308 0 .506.22.506.55s-.198.551-.506.551h-.011zm-.396 6.149v-5.325h.847v5.325h-.847zm3.058-6.568v1.243h1.023v.639h-1.023v3.168c0 .704.242.881.55.881.143 0 .253-.012.341-.033l.044.648a1.827 1.827 0 0 1-.627.089c-.341 0-.638-.089-.836-.319-.22-.242-.319-.605-.319-1.343v-3.091h-.649v-.639h.649v-.901l.847-.342zm2.805 0v1.243h1.023v.639h-1.023v3.168c0 .704.242.881.55.881.143 0 .253-.012.341-.033l.044.648a1.827 1.827 0 0 1-.627.089c-.341 0-.638-.089-.836-.319-.22-.242-.319-.605-.319-1.343v-3.091h-.649v-.639h.649v-.901l.847-.342zm2.277 3.983c.011 1.639.649 1.979 1.254 1.979.374 0 .671-.088.88-.197l.143.615c-.297.165-.748.254-1.177.254-1.266 0-1.925-1.034-1.925-2.674 0-1.728.726-2.806 1.793-2.806 1.078 0 1.518 1.145 1.518 2.344 0 .209-.011.352-.022.484h-2.464zm1.672-.627c.011-1.066-.385-1.54-.792-1.54-.55 0-.836.814-.869 1.54h1.661zm1.715-.737c0-.451-.033-.979-.044-1.376h.759l.044.837h.022c.176-.507.627-.925 1.122-.925.066 0 .121 0 .176.012v.869c-.055-.012-.11-.012-.176-.012-.539 0-.935.495-1.023 1.111a3.146 3.146 0 0 0-.033.484v2.948h-.847v-3.948zm2.233 4.39l2.365-7.943h.638l-2.365 7.943h-.638zm3.586-4.104c0-.814-.033-1.288-.044-1.662h.759l.044.672h.022c.286-.562.715-.76 1.122-.76.935 0 1.54.979 1.54 2.739 0 1.98-.814 2.762-1.639 2.762-.506 0-.792-.308-.935-.604h-.022v2.629h-.847v-5.776zm.847 1.716c0 .154.011.308.044.44.165.759.539.891.77.891.704 0 .936-.968.936-2.035 0-1.111-.264-2.035-.936-2.035-.385 0-.737.484-.781.968-.033.132-.033.265-.033.407v1.364zm6.358.737c0 .407 0 .869.055 1.21h-.759l-.055-.562h-.033c-.231.407-.605.649-1.056.649-.715 0-1.265-.594-1.265-1.519 0-1.342 1.067-1.925 2.266-1.936v-.165c0-.716-.176-1.21-.847-1.21-.33 0-.627.099-.88.274l-.187-.594c.231-.165.715-.353 1.243-.353 1.067 0 1.518.704 1.518 1.893v2.313zm-.825-1.551c-.44 0-1.463.088-1.463 1.243 0 .704.352.946.649.946.374 0 .682-.274.781-.803.022-.1.033-.209.033-.309v-1.077zm4.62 2.63c-.187.109-.506.198-.88.198-1.167 0-1.947-.936-1.947-2.695 0-1.529.77-2.772 2.101-2.772.286 0 .594.076.748.176l-.165.682a1.382 1.382 0 0 0-.605-.143c-.858 0-1.232 1.012-1.232 2.058 0 1.243.473 1.991 1.254 1.991.22 0 .418-.044.605-.144l.121.649zm1.562-2.718h.022c.099-.209.187-.418.286-.594l1.056-1.882h.913l-1.408 2.245 1.54 3.08h-.946l-1.155-2.509-.308.495v2.014h-.847v-7.613h.847v4.764zm3.487.264c.011 1.639.649 1.979 1.254 1.979.374 0 .671-.088.88-.197l.143.615c-.297.165-.748.254-1.177.254-1.266 0-1.925-1.034-1.925-2.674 0-1.728.726-2.806 1.793-2.806 1.078 0 1.518 1.145 1.518 2.344 0 .209-.011.352-.022.484h-2.464zm1.672-.627c.011-1.066-.385-1.54-.792-1.54-.55 0-.836.814-.869 1.54h1.661zm2.761-3.356v1.243h1.023v.639h-1.023v3.168c0 .704.242.881.55.881.143 0 .253-.012.341-.033l.044.648a1.827 1.827 0 0 1-.627.089c-.341 0-.638-.089-.836-.319-.22-.242-.319-.605-.319-1.343v-3.091h-.649v-.639h.649v-.901l.847-.342zm3.498-1.045h.847v7.613h-.847v-7.613zm3.597 7.701c-.957 0-1.727-.869-1.727-2.739 0-1.947.869-2.762 1.782-2.762.957 0 1.716.881 1.716 2.739 0 2.068-.946 2.762-1.76 2.762h-.011zm.044-.671c.726 0 .88-1.243.88-2.079 0-.825-.154-2.079-.902-2.079-.759 0-.902 1.254-.902 2.079 0 .88.154 2.079.914 2.079h.01zm2.53-.296c.187.121.517.274.858.274.473 0 .781-.297.781-.77 0-.407-.143-.693-.682-1.045-.693-.451-1.067-.913-1.067-1.519 0-.869.638-1.475 1.463-1.475.418 0 .726.133.946.275l-.22.638a1.214 1.214 0 0 0-.715-.241c-.451 0-.682.329-.682.682 0 .352.132.562.66.913.616.396 1.1.892 1.1 1.628 0 1.067-.726 1.585-1.606 1.585-.385 0-.814-.121-1.045-.309l.209-.636zm3.178 0c.187.121.517.274.858.274.473 0 .781-.297.781-.77 0-.407-.143-.693-.682-1.045-.693-.451-1.067-.913-1.067-1.519 0-.869.638-1.475 1.463-1.475.418 0 .726.133.946.275l-.22.638a1.214 1.214 0 0 0-.715-.241c-.451 0-.682.329-.682.682 0 .352.132.562.66.913.616.396 1.1.892 1.1 1.628 0 1.067-.726 1.585-1.606 1.585-.385 0-.814-.121-1.045-.309l.209-.636zm7.645.748c-.187.109-.506.198-.88.198-1.167 0-1.947-.936-1.947-2.695 0-1.529.77-2.772 2.101-2.772.286 0 .594.076.748.176l-.165.682a1.382 1.382 0 0 0-.605-.143c-.858 0-1.232 1.012-1.232 2.058 0 1.243.473 1.991 1.254 1.991.22 0 .418-.044.605-.144l.121.649zm2.156.219c-.957 0-1.727-.869-1.727-2.739 0-1.947.869-2.762 1.782-2.762.957 0 1.716.881 1.716 2.739 0 2.068-.946 2.762-1.76 2.762h-.011zm.044-.671c.726 0 .88-1.243.88-2.079 0-.825-.154-2.079-.902-2.079-.759 0-.902 1.254-.902 2.079 0 .88.154 2.079.914 2.079h.01zm2.673-3.366c0-.628-.033-.946-.044-1.376h.737l.044.639h.022a1.35 1.35 0 0 1 1.221-.727c.737 0 1.287.539 1.287 1.838v3.575h-.847v-3.433c0-.638-.121-1.265-.737-1.265-.352 0-.693.297-.792.869-.033.12-.044.285-.044.473v3.355h-.847v-3.948zm7.051 3.818c-.187.109-.506.198-.88.198-1.167 0-1.947-.936-1.947-2.695 0-1.529.77-2.772 2.101-2.772.286 0 .594.076.748.176l-.165.682a1.382 1.382 0 0 0-.605-.143c-.858 0-1.232 1.012-1.232 2.058 0 1.243.473 1.991 1.254 1.991.22 0 .418-.044.605-.144l.121.649zm1.254-2.454c.011 1.639.649 1.979 1.254 1.979.374 0 .671-.088.88-.197l.143.615c-.297.165-.748.254-1.177.254-1.265 0-1.925-1.034-1.925-2.674 0-1.728.726-2.806 1.793-2.806 1.078 0 1.518 1.145 1.518 2.344 0 .209-.011.352-.022.484h-2.464zm1.672-.627c.011-1.066-.385-1.54-.792-1.54-.55 0-.836.814-.869 1.54h1.661zm4.532 2.002c0 .407 0 .869.055 1.21h-.759l-.055-.562h-.033c-.231.407-.605.649-1.056.649-.715 0-1.265-.594-1.265-1.519 0-1.342 1.067-1.925 2.266-1.936v-.165c0-.716-.176-1.21-.847-1.21-.33 0-.627.099-.88.274l-.187-.594c.231-.165.715-.353 1.243-.353 1.067 0 1.518.704 1.518 1.893v2.313zm-.825-1.551c-.44 0-1.463.088-1.463 1.243 0 .704.352.946.649.946.374 0 .682-.274.781-.803.022-.1.033-.209.033-.309v-1.077zm2.024-4.852h.847v7.613h-.847v-7.613zm2.101 3.664c0-.628-.033-.946-.044-1.376h.748l.044.649h.022c.231-.429.627-.737 1.188-.737.495 0 .924.231 1.122.804h.022c.143-.265.33-.474.517-.605.22-.132.462-.198.737-.198.726 0 1.287.518 1.287 1.882v3.531h-.847v-3.345c0-.692-.099-1.364-.737-1.364-.352 0-.66.297-.781.804-.033.132-.033.297-.033.473v3.433h-.847v-3.498c0-.584-.099-1.211-.727-1.211-.352 0-.693.297-.792.869a2.796 2.796 0 0 0-.033.451v3.389h-.847v-3.951zm7.414 1.364c.011 1.639.649 1.979 1.254 1.979.374 0 .671-.088.88-.197l.143.615c-.297.165-.748.254-1.177.254-1.265 0-1.925-1.034-1.925-2.674 0-1.728.726-2.806 1.793-2.806 1.078 0 1.518 1.145 1.518 2.344 0 .209-.011.352-.022.484h-2.464zm1.672-.627c.011-1.066-.385-1.54-.792-1.54-.55 0-.836.814-.869 1.54h1.661zm1.726-.737c0-.628-.033-.946-.044-1.376h.737l.044.639h.022a1.35 1.35 0 0 1 1.221-.727c.737 0 1.287.539 1.287 1.838v3.575h-.847v-3.433c0-.638-.121-1.265-.737-1.265-.352 0-.693.297-.792.869-.033.12-.044.285-.044.473v3.355h-.847v-3.948zm5.424-2.619v1.243h1.023v.639h-1.023v3.168c0 .704.242.881.55.881.143 0 .253-.012.341-.033l.044.648a1.827 1.827 0 0 1-.627.089c-.341 0-.638-.089-.836-.319-.22-.242-.319-.605-.319-1.343v-3.091h-.649v-.639h.649v-.901l.847-.342zm-75.464 22.992h-1.859v2.783h2.112v.737h-2.959v-7.415h2.827v.737h-1.98v2.442h1.859v.716zm3.564 3.389c-.187.109-.506.198-.88.198-1.167 0-1.947-.936-1.947-2.695 0-1.529.77-2.772 2.101-2.772.286 0 .594.076.748.176l-.165.682a1.382 1.382 0 0 0-.605-.143c-.858 0-1.232 1.012-1.232 2.058 0 1.243.473 1.991 1.254 1.991.22 0 .418-.044.605-.144l.121.649zm.726-7.481h.847v2.86h.022c.11-.187.275-.352.451-.473.187-.121.407-.188.704-.188.671 0 1.243.528 1.243 1.882v3.531h-.847v-3.433c0-.66-.143-1.265-.715-1.265-.396 0-.693.285-.825.847a2.405 2.405 0 0 0-.033.396v3.454h-.847v-7.611zm5.951 7.701c-.957 0-1.727-.869-1.727-2.739 0-1.947.869-2.762 1.782-2.762.957 0 1.716.881 1.716 2.739 0 2.068-.946 2.762-1.76 2.762h-.011zm.044-.671c.726 0 .88-1.243.88-2.079 0-.825-.154-2.079-.902-2.079-.759 0-.902 1.254-.902 2.079 0 .88.154 2.079.914 2.079h.01zm6.996.451c-.187.109-.506.198-.88.198-1.167 0-1.947-.936-1.947-2.695 0-1.529.77-2.772 2.101-2.772.286 0 .594.076.748.176l-.165.682a1.382 1.382 0 0 0-.605-.143c-.858 0-1.232 1.012-1.232 2.058 0 1.243.473 1.991 1.254 1.991.22 0 .418-.044.605-.144l.121.649zm3.531-1.078c0 .407 0 .869.055 1.21h-.759l-.055-.562h-.033c-.231.407-.605.649-1.056.649-.715 0-1.265-.594-1.265-1.519 0-1.342 1.067-1.925 2.266-1.936v-.165c0-.716-.176-1.21-.847-1.21-.33 0-.627.099-.88.274l-.187-.594c.231-.165.715-.353 1.243-.353 1.067 0 1.518.704 1.518 1.893v2.313zm-.825-1.552c-.44 0-1.463.088-1.463 1.243 0 .704.352.946.649.946.374 0 .682-.274.781-.803.022-.1.033-.209.033-.309v-1.077zm2.024-1.187c0-.628-.033-.946-.044-1.376h.737l.044.639h.022a1.35 1.35 0 0 1 1.221-.727c.737 0 1.287.539 1.287 1.838v3.575h-.847v-3.433c0-.638-.121-1.265-.737-1.265-.352 0-.693.297-.792.869-.033.12-.044.285-.044.473v3.355h-.847v-3.948zm7.051 3.817c-.187.109-.506.198-.88.198-1.167 0-1.947-.936-1.947-2.695 0-1.529.77-2.772 2.101-2.772.286 0 .594.076.748.176l-.165.682a1.382 1.382 0 0 0-.605-.143c-.858 0-1.232 1.012-1.232 2.058 0 1.243.473 1.991 1.254 1.991.22 0 .418-.044.605-.144l.121.649zm1.253-2.453c.011 1.639.649 1.979 1.254 1.979.374 0 .671-.088.88-.197l.143.615c-.297.165-.748.254-1.177.254-1.265 0-1.925-1.034-1.925-2.674 0-1.728.726-2.806 1.793-2.806 1.078 0 1.518 1.145 1.518 2.344 0 .209-.011.352-.022.484H76.9zm1.673-.628c.011-1.066-.385-1.54-.792-1.54-.55 0-.836.814-.869 1.54h1.661zm1.726-4.4h.847v7.613h-.847v-7.613zm2.101 0h.847v7.613H82.4v-7.613zm4.906 6.403c0 .407 0 .869.055 1.21h-.759l-.055-.562h-.033c-.231.407-.605.649-1.056.649-.715 0-1.265-.594-1.265-1.519 0-1.342 1.067-1.925 2.266-1.936v-.165c0-.716-.176-1.21-.847-1.21-.33 0-.627.099-.88.274l-.187-.594c.231-.165.715-.353 1.243-.353 1.067 0 1.518.704 1.518 1.893v2.313zm-.825-1.552c-.44 0-1.463.088-1.463 1.243 0 .704.352.946.649.946.374 0 .682-.274.781-.803.022-.1.033-.209.033-.309v-1.077zm2.959-3.807v1.243h1.023v.639H89.44v3.168c0 .704.242.881.55.881.143 0 .253-.012.341-.033l.044.648a1.827 1.827 0 0 1-.627.089c-.341 0-.638-.089-.836-.319-.22-.242-.319-.605-.319-1.343v-3.091h-.649v-.639h.649v-.901l.847-.342zm2.167.419c-.275 0-.484-.221-.484-.551s.22-.55.495-.55c.308 0 .506.22.506.55s-.198.551-.506.551h-.011zm-.396 6.15v-5.325h.847v5.325h-.847zm3.52.088c-.957 0-1.727-.869-1.727-2.739 0-1.947.869-2.762 1.782-2.762.957 0 1.716.881 1.716 2.739 0 2.068-.946 2.762-1.76 2.762h-.011zm.044-.671c.726 0 .88-1.243.88-2.079 0-.825-.154-2.079-.902-2.079-.759 0-.902 1.254-.902 2.079 0 .88.154 2.079.914 2.079h.01zm2.673-3.366c0-.628-.033-.946-.044-1.376h.737l.044.639h.022a1.35 1.35 0 0 1 1.221-.727c.737 0 1.287.539 1.287 1.838v3.575h-.847v-3.433c0-.638-.121-1.265-.737-1.265-.352 0-.693.297-.792.869-.033.12-.044.285-.044.473v3.355h-.847v-3.948zm-50.775 23.893v-7.415h.792l1.364 3.477c.308.803.693 1.782.946 2.585h.022a55.805 55.805 0 0 1-.099-3.41v-2.651h.759v7.415h-.792l-1.408-3.564a23.754 23.754 0 0 1-.891-2.52h-.022c.066.99.088 1.937.088 3.521v2.563h-.759zm6.49.088c-.957 0-1.727-.869-1.727-2.739 0-1.947.869-2.762 1.782-2.762.957 0 1.716.881 1.716 2.739 0 2.068-.946 2.762-1.76 2.762h-.011zm.044-.671c.726 0 .88-1.243.88-2.079 0-.825-.154-2.079-.902-2.079-.759 0-.902 1.254-.902 2.079 0 .88.154 2.079.914 2.079h.01zm3.069-5.566c-.275 0-.484-.221-.484-.551s.22-.55.495-.55c.308 0 .506.22.506.55s-.198.551-.506.551h-.011zm-.396 6.149v-5.325h.847v5.325h-.847zm1.881-.88c.187.121.517.274.858.274.473 0 .781-.297.781-.77 0-.407-.143-.693-.682-1.045-.693-.451-1.067-.913-1.067-1.519 0-.869.638-1.475 1.463-1.475.418 0 .726.133.946.275l-.22.638a1.214 1.214 0 0 0-.715-.241c-.451 0-.682.329-.682.682 0 .352.132.562.66.913.616.396 1.1.892 1.1 1.628 0 1.067-.726 1.585-1.606 1.585-.385 0-.814-.121-1.045-.309l.209-.636zm3.916-1.705c.011 1.639.649 1.979 1.254 1.979.374 0 .671-.088.88-.197l.143.615c-.297.165-.748.254-1.177.254-1.265 0-1.925-1.034-1.925-2.674 0-1.728.726-2.806 1.793-2.806 1.078 0 1.518 1.145 1.518 2.344 0 .209-.011.352-.022.484h-2.464zm1.672-.628c.011-1.066-.385-1.54-.792-1.54-.55 0-.836.814-.869 1.54h1.661zm3.442-.736c0-.451-.033-.979-.044-1.376h.759l.044.837h.022c.176-.507.627-.925 1.122-.925.066 0 .121 0 .176.012v.869c-.055-.012-.11-.012-.176-.012-.539 0-.935.495-1.023 1.111a3.146 3.146 0 0 0-.033.484v2.948h-.847v-3.948zm3.179 1.364c.011 1.639.649 1.979 1.254 1.979.374 0 .671-.088.88-.197l.143.615c-.297.165-.748.254-1.177.254-1.266 0-1.925-1.034-1.925-2.674 0-1.728.726-2.806 1.793-2.806 1.078 0 1.518 1.145 1.518 2.344 0 .209-.011.352-.022.484H69.97zm1.673-.628c.011-1.066-.385-1.54-.792-1.54-.55 0-.836.814-.869 1.54h1.661zm4.939-4.4v6.337c0 .363.033.969.044 1.276H75.9l-.055-.66h-.044c-.165.374-.55.748-1.111.748-.902 0-1.551-.968-1.551-2.729 0-1.892.781-2.772 1.606-2.772.385 0 .759.177.968.627h.022v-2.827h.847zm-.847 4.312c0-.109 0-.23-.011-.352-.044-.55-.385-1.034-.792-1.034-.704 0-.946.979-.946 2.046 0 1.122.286 2.024.902 2.024.264 0 .627-.143.814-.913.033-.099.033-.22.033-.352v-1.419zm5.214 1.849c0 .583.033 1.056.044 1.452h-.737l-.066-.562h-.022c-.154.265-.561.649-1.133.649-.924 0-1.298-.726-1.298-2.046v-3.367h.847v3.246c0 .825.132 1.452.715 1.452.495 0 .715-.462.759-.715.033-.144.044-.298.044-.474V152h.847v3.875zm3.783 1.32c-.187.109-.506.198-.88.198-1.167 0-1.947-.936-1.947-2.695 0-1.529.77-2.772 2.101-2.772.286 0 .594.076.748.176l-.165.682a1.382 1.382 0 0 0-.605-.143c-.858 0-1.232 1.012-1.232 2.058 0 1.243.473 1.991 1.254 1.991.22 0 .418-.044.605-.144l.121.649zm1.925-6.436v1.243h1.023v.639h-1.023v3.168c0 .704.242.881.55.881.143 0 .253-.012.341-.033l.044.648a1.827 1.827 0 0 1-.627.089c-.341 0-.638-.089-.836-.319-.22-.242-.319-.605-.319-1.343v-3.091h-.649v-.639h.649v-.901l.847-.342zm2.167.419c-.275 0-.484-.221-.484-.551s.22-.55.495-.55c.308 0 .506.22.506.55s-.198.551-.506.551h-.011zm-.396 6.149v-5.325h.847v5.325h-.847zm3.52.088c-.957 0-1.727-.869-1.727-2.739 0-1.947.869-2.762 1.782-2.762.957 0 1.716.881 1.716 2.739 0 2.068-.946 2.762-1.76 2.762h-.011zm.044-.671c.726 0 .88-1.243.88-2.079 0-.825-.154-2.079-.902-2.079-.759 0-.902 1.254-.902 2.079 0 .88.154 2.079.914 2.079h.01zm2.673-3.366c0-.628-.033-.946-.044-1.376h.737l.044.639h.022a1.35 1.35 0 0 1 1.221-.727c.737 0 1.287.539 1.287 1.838v3.575h-.847v-3.433c0-.638-.121-1.265-.737-1.265-.352 0-.693.297-.792.869-.033.12-.044.285-.044.473v3.355h-.847v-3.948zm68.879-74.884l-.264-7.415h.858l.077 4.544c.011.692.011 1.243-.055 1.804h.044c.154-.55.363-1.144.616-1.793l1.783-4.555h.858l-3.103 7.415h-.814zm3.114 0l1.012-5.325h.792l-1.023 5.325h-.781zm1.199-6.678c.011-.286.23-.562.527-.562.309 0 .451.231.43.518-.022.362-.265.561-.551.561s-.439-.209-.406-.517zm5.235-.935l-1.089 5.743c-.11.583-.22 1.364-.242 1.87h-.682l.065-.836h-.021c-.264.55-.759.924-1.276.924-.671 0-1.078-.627-1.078-1.595 0-1.815.957-3.906 2.52-3.906.209 0 .429.088.561.198l.451-2.398h.791zm-1.396 3.092a.575.575 0 0 0-.495-.242c-1.023 0-1.617 2.014-1.617 3.103 0 .627.143 1.067.583 1.067.385 0 .902-.484 1.111-1.541l.418-2.387zm4.058 4.257a2.57 2.57 0 0 1-1.254.33c-1.122 0-1.485-.858-1.485-1.882 0-1.441.803-3.598 2.321-3.598.781 0 1.101.595 1.101 1.211 0 1.287-1.145 1.837-2.597 1.848-.022.154-.055.748.033 1.067.121.451.396.693.813.693.419 0 .704-.144.946-.286l.122.617zm-.539-4.466c-.473 0-.979.583-1.265 1.738.847-.012 1.738-.297 1.738-1.155.001-.374-.153-.583-.473-.583zm5.082 1.055c0 1.343-.66 3.763-2.288 3.763-.99 0-1.298-.858-1.298-1.804 0-1.431.77-3.697 2.354-3.697 1.067 0 1.232 1.023 1.232 1.738zm-2.783 1.882c0 .604.044 1.231.605 1.231.968 0 1.375-2.266 1.375-3.168 0-.55-.1-1.023-.562-1.023-.879 0-1.418 1.914-1.418 2.96zm7.634 1.529a2.57 2.57 0 0 1-1.254.33c-1.122 0-1.485-.858-1.485-1.882 0-1.441.803-3.598 2.321-3.598.781 0 1.101.595 1.101 1.211 0 1.287-1.145 1.837-2.597 1.848-.022.154-.055.748.033 1.067.121.451.396.693.813.693.419 0 .704-.144.946-.286l.122.617zm-.539-4.466c-.473 0-.979.583-1.265 1.738.847-.012 1.738-.297 1.738-1.155.001-.374-.154-.583-.473-.583zm1.331 4.73l.648-3.498c.154-.771.231-1.397.286-1.827h.693l-.088.848h.021c.43-.649.892-.936 1.431-.936.66 0 .913.518.913 1.078 0 .309-.044.562-.1.869l-.648 3.466h-.792l.648-3.454c.044-.242.077-.463.077-.737 0-.319-.132-.539-.462-.539-.495 0-1.089.759-1.287 1.771l-.562 2.959h-.778zm4.399 1.31c.221.121.562.23.858.23.804 0 1.134-.583 1.343-1.562l.187-.836h-.021c-.451.737-.892.902-1.276.902-.616 0-1.001-.539-1.013-1.54-.011-1.573.825-3.917 2.729-3.917.418 0 .848.121 1.134.265l-.869 4.609c-.209 1.111-.463 1.805-.837 2.179-.362.385-.847.561-1.419.561-.407 0-.825-.11-1.045-.253l.229-.638zm3.059-5.975c-.109-.055-.242-.088-.462-.088-1.089 0-1.694 1.882-1.716 2.981-.012.627.077 1.155.539 1.155.572 0 1.045-1.001 1.188-1.694l.451-2.354zm1.056 4.665l1.013-5.325h.792l-1.023 5.325h-.782zm1.199-6.678c.011-.286.231-.562.528-.562.308 0 .451.231.429.518-.021.362-.264.561-.55.561s-.44-.209-.407-.517zm.769 6.678l.649-3.498c.153-.771.23-1.397.286-1.827h.692l-.088.848h.022c.429-.649.891-.936 1.43-.936.66 0 .913.518.913 1.078 0 .309-.044.562-.099.869l-.649 3.466h-.792l.649-3.454c.044-.242.077-.463.077-.737 0-.319-.132-.539-.462-.539-.495 0-1.09.759-1.288 1.771l-.561 2.959h-.779zm7.249-.264a2.57 2.57 0 0 1-1.254.33c-1.122 0-1.485-.858-1.485-1.882 0-1.441.803-3.598 2.321-3.598.781 0 1.101.595 1.101 1.211 0 1.287-1.145 1.837-2.597 1.848-.022.154-.055.748.033 1.067.121.451.396.693.813.693.419 0 .704-.144.946-.286l.122.617zm-.539-4.466c-.473 0-.979.583-1.265 1.738.847-.012 1.738-.297 1.738-1.155.001-.374-.153-.583-.473-.583zm-2.524 23.73l-1.694-7.415h.913l.715 3.477c.176.836.396 1.903.528 2.85h.032c.111-.957.32-1.991.496-2.872l.703-3.454h.902l-1.727 7.415h-.868zm3.475-6.149c-.274 0-.484-.221-.484-.551s.22-.55.495-.55c.309 0 .506.22.506.55s-.197.551-.506.551h-.011zm-.395 6.149v-5.325h.847v5.325h-.847zm5.236-7.613v6.337c0 .363.032.969.043 1.276h-.726l-.056-.66h-.043c-.166.374-.551.748-1.111.748-.902 0-1.551-.968-1.551-2.729 0-1.892.78-2.772 1.605-2.772.385 0 .76.177.969.627h.021v-2.827h.849zm-.847 4.312c0-.109 0-.23-.012-.352-.043-.55-.385-1.034-.791-1.034-.705 0-.947.979-.947 2.046 0 1.122.287 2.024.902 2.024.265 0 .627-.143.814-.913.033-.099.033-.22.033-.352v-1.419zm2.617.716c.012 1.639.649 1.979 1.254 1.979.375 0 .672-.088.881-.197l.143.615c-.297.165-.748.254-1.177.254-1.266 0-1.925-1.034-1.925-2.674 0-1.728.726-2.806 1.793-2.806 1.078 0 1.518 1.145 1.518 2.344 0 .209-.011.352-.021.484h-2.466zm1.672-.628c.012-1.066-.385-1.54-.791-1.54-.551 0-.837.814-.869 1.54h1.66zm3.223 3.301c-.957 0-1.728-.869-1.728-2.739 0-1.947.869-2.762 1.783-2.762.957 0 1.715.881 1.715 2.739 0 2.068-.945 2.762-1.76 2.762h-.01zm.044-.671c.727 0 .881-1.243.881-2.079 0-.825-.154-2.079-.902-2.079-.76 0-.902 1.254-.902 2.079 0 .88.154 2.079.913 2.079h.01zm6.996.451c-.188.109-.506.198-.88.198-1.167 0-1.947-.936-1.947-2.695 0-1.529.771-2.772 2.101-2.772.287 0 .595.076.748.176l-.164.682a1.382 1.382 0 0 0-.605-.143c-.858 0-1.232 1.012-1.232 2.058 0 1.243.473 1.991 1.254 1.991.221 0 .418-.044.605-.144l.12.649zm2.157.22c-.957 0-1.728-.869-1.728-2.739 0-1.947.869-2.762 1.782-2.762.957 0 1.716.881 1.716 2.739 0 2.068-.946 2.762-1.761 2.762h-.009zm.043-.671c.727 0 .881-1.243.881-2.079 0-.825-.154-2.079-.902-2.079-.76 0-.902 1.254-.902 2.079 0 .88.154 2.079.914 2.079h.009zm5.885-7.03v6.337c0 .363.032.969.044 1.276h-.727l-.055-.66h-.044c-.165.374-.55.748-1.111.748-.901 0-1.551-.968-1.551-2.729 0-1.892.78-2.772 1.606-2.772.385 0 .759.177.968.627h.022v-2.827h.848zm-.846 4.312c0-.109 0-.23-.012-.352-.044-.55-.385-1.034-.792-1.034-.704 0-.946.979-.946 2.046 0 1.122.286 2.024.902 2.024.264 0 .627-.143.814-.913.033-.099.033-.22.033-.352v-1.419zm2.617.716c.011 1.639.648 1.979 1.254 1.979.374 0 .671-.088.88-.197l.144.615c-.297.165-.748.254-1.178.254-1.266 0-1.925-1.034-1.925-2.674 0-1.728.726-2.806 1.793-2.806 1.078 0 1.519 1.145 1.519 2.344 0 .209-.012.352-.022.484h-2.465zm1.672-.628c.012-1.066-.385-1.54-.792-1.54-.55 0-.836.814-.869 1.54h1.661zm4.323 3.081c-.187.109-.506.198-.88.198-1.166 0-1.947-.936-1.947-2.695 0-1.529.77-2.772 2.102-2.772.285 0 .594.076.748.176l-.166.682a1.376 1.376 0 0 0-.604-.143c-.858 0-1.232 1.012-1.232 2.058 0 1.243.474 1.991 1.255 1.991.22 0 .418-.044.604-.144l.12.649zm.583-.748c.187.121.517.274.857.274.473 0 .781-.297.781-.77 0-.407-.143-.693-.682-1.045-.693-.451-1.068-.913-1.068-1.519 0-.869.639-1.475 1.464-1.475.418 0 .726.133.946.275l-.221.638a1.214 1.214 0 0 0-.715-.241c-.451 0-.682.329-.682.682 0 .352.132.562.66.913.615.396 1.1.892 1.1 1.628 0 1.067-.726 1.585-1.605 1.585-.385 0-.814-.121-1.045-.309l.21-.636zm-68.287 13.409h.848v5.325c0 1.661-.672 2.178-1.738 2.178-.209 0-.407-.021-.551-.077l.077-.715c.11.033.253.044.407.044.594 0 .957-.242.957-1.419v-5.336zm2.432 1.266c-.275 0-.484-.221-.484-.551s.22-.55.494-.55c.309 0 .507.22.507.55s-.198.551-.507.551h-.01zm-.397 6.149v-5.325h.848v5.325h-.848zm3.059-6.568v1.243h1.022v.639h-1.022v3.168c0 .704.241.881.549.881.144 0 .254-.012.342-.033l.044.648a1.83 1.83 0 0 1-.627.089c-.341 0-.638-.089-.837-.319-.22-.242-.318-.605-.318-1.343v-3.091h-.649v-.639h.649v-.901l.847-.342zm2.804 0v1.243h1.022v.639h-1.022v3.168c0 .704.241.881.549.881.144 0 .254-.012.342-.033l.044.648a1.83 1.83 0 0 1-.627.089c-.341 0-.638-.089-.837-.319-.22-.242-.318-.605-.318-1.343v-3.091h-.649v-.639h.649v-.901l.847-.342zm2.277 3.983c.011 1.639.649 1.979 1.255 1.979.373 0 .67-.088.879-.197l.144.615c-.297.165-.748.254-1.177.254-1.266 0-1.926-1.034-1.926-2.674 0-1.728.727-2.806 1.793-2.806 1.078 0 1.519 1.145 1.519 2.344 0 .209-.011.352-.022.484h-2.465zm1.673-.627c.011-1.066-.385-1.54-.793-1.54-.55 0-.836.814-.869 1.54h1.662zm1.714-.737c0-.451-.033-.979-.044-1.376h.759l.045.837h.021c.176-.507.627-.925 1.122-.925.065 0 .121 0 .177.012v.869c-.056-.012-.111-.012-.177-.012-.539 0-.935.495-1.022 1.111a3.146 3.146 0 0 0-.033.484v2.948h-.848v-3.948zm2.233 4.39l2.365-7.943h.639l-2.365 7.943h-.639zm3.586-4.104c0-.814-.032-1.288-.043-1.662h.759l.044.672h.021c.287-.562.715-.76 1.123-.76.935 0 1.539.979 1.539 2.739 0 1.98-.813 2.762-1.639 2.762-.506 0-.792-.308-.936-.604h-.021v2.629h-.848v-5.776zm.847 1.716c0 .154.012.308.044.44.165.759.539.891.771.891.703 0 .936-.968.936-2.035 0-1.111-.265-2.035-.936-2.035-.385 0-.737.484-.781.968-.033.132-.033.265-.033.407v1.364zm6.358.737c0 .407 0 .869.056 1.21h-.759l-.056-.562h-.032c-.231.407-.605.649-1.057.649-.715 0-1.266-.594-1.266-1.519 0-1.342 1.067-1.925 2.267-1.936v-.165c0-.716-.176-1.21-.847-1.21-.33 0-.627.099-.881.274l-.187-.594c.231-.165.715-.353 1.243-.353 1.066 0 1.518.704 1.518 1.893v2.313zm-.824-1.551c-.44 0-1.463.088-1.463 1.243 0 .704.352.946.648.946.374 0 .682-.274.781-.803.021-.1.033-.209.033-.309v-1.077zm4.619 2.63c-.187.109-.506.198-.879.198-1.167 0-1.947-.936-1.947-2.695 0-1.529.77-2.772 2.101-2.772.286 0 .595.076.748.176l-.165.682a1.378 1.378 0 0 0-.605-.143c-.857 0-1.232 1.012-1.232 2.058 0 1.243.474 1.991 1.255 1.991.22 0 .418-.044.604-.144l.12.649zm1.562-2.718h.021c.1-.209.188-.418.286-.594l1.056-1.882h.914l-1.408 2.245 1.539 3.08h-.945l-1.155-2.509-.308.495v2.014h-.848v-7.613h.848v4.764zm3.487.264c.012 1.639.649 1.979 1.254 1.979.375 0 .672-.088.881-.197l.143.615c-.297.165-.748.254-1.177.254-1.266 0-1.925-1.034-1.925-2.674 0-1.728.726-2.806 1.793-2.806 1.078 0 1.518 1.145 1.518 2.344 0 .209-.011.352-.021.484h-2.466zm1.671-.627c.012-1.066-.385-1.54-.791-1.54-.551 0-.837.814-.869 1.54h1.66zm2.762-3.356v1.243h1.023v.639h-1.023v3.168c0 .704.242.881.55.881.144 0 .253-.012.341-.033l.045.648a1.833 1.833 0 0 1-.628.089c-.341 0-.638-.089-.836-.319-.22-.242-.319-.605-.319-1.343v-3.091h-.648v-.639h.648v-.901l.847-.342zm3.498-1.045h.847v7.613h-.847v-7.613zm3.597 7.701c-.957 0-1.728-.869-1.728-2.739 0-1.947.869-2.762 1.783-2.762.957 0 1.715.881 1.715 2.739 0 2.068-.945 2.762-1.76 2.762h-.01zm.044-.671c.727 0 .881-1.243.881-2.079 0-.825-.154-2.079-.902-2.079-.76 0-.902 1.254-.902 2.079 0 .88.154 2.079.913 2.079h.01zm2.529-.296c.188.121.518.274.858.274.474 0 .781-.297.781-.77 0-.407-.144-.693-.683-1.045-.692-.451-1.066-.913-1.066-1.519 0-.869.638-1.475 1.463-1.475a1.7 1.7 0 0 1 .946.275l-.22.638a1.217 1.217 0 0 0-.715-.241c-.451 0-.683.329-.683.682 0 .352.132.562.66.913.616.396 1.101.892 1.101 1.628 0 1.067-.727 1.585-1.607 1.585-.385 0-.813-.121-1.045-.309l.21-.636zm3.18 0c.187.121.517.274.857.274.473 0 .781-.297.781-.77 0-.407-.143-.693-.682-1.045-.693-.451-1.068-.913-1.068-1.519 0-.869.639-1.475 1.464-1.475.418 0 .726.133.946.275l-.221.638a1.214 1.214 0 0 0-.715-.241c-.451 0-.682.329-.682.682 0 .352.132.562.66.913.615.396 1.1.892 1.1 1.628 0 1.067-.726 1.585-1.605 1.585-.385 0-.814-.121-1.045-.309l.21-.636zm7.644.748c-.188.109-.506.198-.88.198-1.167 0-1.947-.936-1.947-2.695 0-1.529.771-2.772 2.101-2.772.287 0 .595.076.748.176l-.164.682a1.382 1.382 0 0 0-.605-.143c-.858 0-1.232 1.012-1.232 2.058 0 1.243.473 1.991 1.254 1.991.221 0 .418-.044.605-.144l.12.649zm2.157.219c-.957 0-1.728-.869-1.728-2.739 0-1.947.869-2.762 1.782-2.762.957 0 1.716.881 1.716 2.739 0 2.068-.946 2.762-1.761 2.762h-.009zm.043-.671c.727 0 .881-1.243.881-2.079 0-.825-.154-2.079-.902-2.079-.76 0-.902 1.254-.902 2.079 0 .88.154 2.079.914 2.079h.009zm2.673-3.366c0-.628-.033-.946-.045-1.376h.737l.044.639h.021a1.35 1.35 0 0 1 1.222-.727c.737 0 1.287.539 1.287 1.838v3.575h-.847v-3.433c0-.638-.121-1.265-.737-1.265-.353 0-.693.297-.792.869-.033.12-.044.285-.044.473v3.355h-.847v-3.948zm7.051 3.818c-.188.109-.506.198-.88.198-1.167 0-1.947-.936-1.947-2.695 0-1.529.771-2.772 2.101-2.772.287 0 .595.076.748.176l-.164.682a1.382 1.382 0 0 0-.605-.143c-.858 0-1.232 1.012-1.232 2.058 0 1.243.473 1.991 1.254 1.991.221 0 .418-.044.605-.144l.12.649zm1.254-2.454c.011 1.639.648 1.979 1.254 1.979.374 0 .671-.088.88-.197l.144.615c-.297.165-.748.254-1.178.254-1.266 0-1.925-1.034-1.925-2.674 0-1.728.726-2.806 1.793-2.806 1.078 0 1.519 1.145 1.519 2.344 0 .209-.012.352-.022.484h-2.465zm1.672-.627c.012-1.066-.385-1.54-.792-1.54-.55 0-.836.814-.869 1.54h1.661zm4.532 2.002c0 .407 0 .869.056 1.21h-.76l-.055-.562h-.033c-.23.407-.605.649-1.057.649-.715 0-1.265-.594-1.265-1.519 0-1.342 1.067-1.925 2.267-1.936v-.165c0-.716-.176-1.21-.848-1.21-.33 0-.627.099-.88.274l-.187-.594c.23-.165.715-.353 1.242-.353 1.067 0 1.519.704 1.519 1.893v2.313zm-.825-1.551c-.439 0-1.463.088-1.463 1.243 0 .704.352.946.648.946.375 0 .683-.274.781-.803.022-.1.033-.209.033-.309v-1.077zm2.023-4.852h.848v7.613h-.848v-7.613zm2.102 3.664c0-.628-.033-.946-.044-1.376h.748l.044.649h.021c.231-.429.627-.737 1.188-.737.495 0 .925.231 1.122.804h.022c.143-.265.329-.474.517-.605a1.4 1.4 0 0 1 .737-.198c.726 0 1.287.518 1.287 1.882v3.531h-.847v-3.345c0-.692-.1-1.364-.737-1.364-.353 0-.66.297-.781.804-.033.132-.033.297-.033.473v3.433h-.847v-3.498c0-.584-.1-1.211-.727-1.211-.352 0-.693.297-.792.869a2.803 2.803 0 0 0-.032.451v3.389h-.848v-3.951zm7.414 1.364c.011 1.639.648 1.979 1.254 1.979.374 0 .671-.088.88-.197l.144.615c-.297.165-.748.254-1.178.254-1.266 0-1.925-1.034-1.925-2.674 0-1.728.726-2.806 1.793-2.806 1.078 0 1.519 1.145 1.519 2.344 0 .209-.012.352-.022.484h-2.465zm1.672-.627c.012-1.066-.385-1.54-.792-1.54-.55 0-.836.814-.869 1.54h1.661zm1.726-.737c0-.628-.033-.946-.044-1.376h.737l.043.639h.022a1.35 1.35 0 0 1 1.222-.727c.736 0 1.287.539 1.287 1.838v3.575h-.848v-3.433c0-.638-.121-1.265-.736-1.265-.353 0-.693.297-.793.869-.033.12-.043.285-.043.473v3.355h-.848v-3.948zm5.424-2.619v1.243h1.022v.639h-1.022v3.168c0 .704.241.881.549.881.144 0 .254-.012.342-.033l.044.648a1.83 1.83 0 0 1-.627.089c-.341 0-.638-.089-.837-.319-.22-.242-.318-.605-.318-1.343v-3.091h-.649v-.639h.649v-.901l.847-.342zm-76.295 25.533a2.29 2.29 0 0 0 1.066.298c.771 0 1.232-.507 1.232-1.255 0-.682-.396-1.1-.979-1.54-.583-.407-1.397-1.101-1.397-2.058 0-1.122.792-1.947 1.958-1.947.463 0 .869.154 1.045.275l-.209.727a1.538 1.538 0 0 0-.879-.254c-.727 0-1.068.551-1.068 1.057 0 .737.386 1.034 1.09 1.529.891.627 1.287 1.309 1.287 2.134 0 1.276-.902 2.08-2.08 2.08-.506 0-1.045-.165-1.254-.33l.188-.716zm4.401-4.345l.703 3.059c.1.418.144.76.221 1.101h.021c.055-.309.144-.704.231-1.089l.627-3.07h.836l-.869 3.422c-.329 1.331-.692 2.618-1.319 3.433-.375.473-.771.715-.958.803l-.308-.717c.242-.143.518-.374.748-.671a3.32 3.32 0 0 0 .484-.902.723.723 0 0 0 .055-.264c0-.066 0-.133-.021-.198l-1.343-4.907h.892zm3.365 1.376c0-.628-.033-.946-.043-1.376h.736l.044.639h.022c.23-.43.66-.727 1.221-.727.737 0 1.287.539 1.287 1.838v3.575h-.847v-3.433c0-.638-.121-1.265-.737-1.265-.352 0-.693.297-.792.869-.033.12-.044.285-.044.473v3.355h-.848v-3.948zm7.052 3.817c-.187.109-.506.198-.88.198-1.166 0-1.947-.936-1.947-2.695 0-1.529.77-2.772 2.102-2.772.285 0 .594.076.748.176l-.166.682a1.376 1.376 0 0 0-.604-.143c-.858 0-1.232 1.012-1.232 2.058 0 1.243.474 1.991 1.255 1.991.22 0 .418-.044.604-.144l.12.649zm.725-7.481h.848v2.86h.021c.109-.187.275-.352.451-.473.187-.121.406-.188.703-.188.672 0 1.244.528 1.244 1.882v3.531h-.848v-3.433c0-.66-.143-1.265-.715-1.265-.396 0-.693.285-.825.847a2.403 2.403 0 0 0-.032.396v3.454h-.848v-7.611zm4.444 3.664c0-.451-.032-.979-.043-1.376h.759l.044.837h.021c.176-.507.627-.925 1.123-.925.065 0 .121 0 .176.012v.869c-.055-.012-.11-.012-.176-.012-.539 0-.936.495-1.023 1.111a3.277 3.277 0 0 0-.033.484v2.948h-.848v-3.948zm4.082 4.037c-.957 0-1.728-.869-1.728-2.739 0-1.947.869-2.762 1.782-2.762.957 0 1.716.881 1.716 2.739 0 2.068-.946 2.762-1.761 2.762h-.009zm.043-.671c.727 0 .881-1.243.881-2.079 0-.825-.154-2.079-.902-2.079-.76 0-.902 1.254-.902 2.079 0 .88.154 2.079.914 2.079h.009zm2.674-3.366c0-.628-.033-.946-.045-1.376h.737l.044.639h.021a1.35 1.35 0 0 1 1.222-.727c.737 0 1.287.539 1.287 1.838v3.575h-.847v-3.433c0-.638-.121-1.265-.737-1.265-.353 0-.693.297-.792.869-.033.12-.044.285-.044.473v3.355h-.847v-3.948zm4.85-2.201c-.274 0-.484-.221-.484-.551s.22-.55.495-.55c.309 0 .506.22.506.55s-.197.551-.506.551h-.011zm-.395 6.15v-5.325h.847v5.325h-.847zm1.605-.517l1.684-3.301c.143-.265.308-.55.429-.781v-.022h-1.903v-.704h2.85v.562l-1.673 3.245c-.143.265-.308.551-.429.792v.022h2.09v.704H226.6v-.517zm6.666-.693c0 .407 0 .869.055 1.21h-.759l-.055-.562h-.033c-.231.407-.604.649-1.056.649-.716 0-1.266-.594-1.266-1.519 0-1.342 1.066-1.925 2.266-1.936v-.165c0-.716-.176-1.21-.847-1.21-.33 0-.627.099-.88.274l-.188-.594c.231-.165.715-.353 1.244-.353 1.066 0 1.518.704 1.518 1.893v2.313zm-.825-1.552c-.44 0-1.463.088-1.463 1.243 0 .704.353.946.649.946.373 0 .682-.274.781-.803.021-.1.032-.209.032-.309v-1.077zm2.96-3.807v1.243h1.022v.639h-1.022v3.168c0 .704.241.881.549.881.144 0 .254-.012.342-.033l.044.648a1.83 1.83 0 0 1-.627.089c-.341 0-.638-.089-.837-.319-.22-.242-.318-.605-.318-1.343v-3.091h-.649v-.639h.649v-.901l.847-.342zm2.166.419c-.275 0-.484-.221-.484-.551s.221-.55.495-.55c.308 0 .507.22.507.55s-.199.551-.507.551h-.011zm-.397 6.15v-5.325h.848v5.325h-.848zm3.521.088c-.957 0-1.728-.869-1.728-2.739 0-1.947.869-2.762 1.783-2.762.957 0 1.715.881 1.715 2.739 0 2.068-.945 2.762-1.76 2.762h-.01zm.044-.671c.727 0 .881-1.243.881-2.079 0-.825-.154-2.079-.902-2.079-.76 0-.902 1.254-.902 2.079 0 .88.154 2.079.913 2.079h.01zm2.673-3.366c0-.628-.033-.946-.044-1.376h.736l.045.639h.021a1.35 1.35 0 0 1 1.221-.727c.738 0 1.287.539 1.287 1.838v3.575h-.846v-3.433c0-.638-.121-1.265-.738-1.265-.352 0-.692.297-.791.869-.033.12-.045.285-.045.473v3.355h-.847v-3.948zm-56.507 16.478v7.415h-.847v-7.415h.847zm1.276 3.466c0-.628-.033-.946-.044-1.376h.748l.044.649h.022c.23-.429.627-.737 1.188-.737.495 0 .924.231 1.122.804h.022c.143-.265.33-.474.517-.605.22-.132.462-.198.737-.198.727 0 1.287.518 1.287 1.882v3.531h-.848v-3.345c0-.692-.098-1.364-.736-1.364-.352 0-.66.297-.781.804-.033.132-.033.297-.033.473v3.433h-.847v-3.498c0-.584-.099-1.211-.727-1.211-.353 0-.692.297-.792.869a2.915 2.915 0 0 0-.033.451v3.389h-.847v-3.951zm9.625 2.739c0 .407 0 .869.056 1.21h-.76l-.055-.562h-.033c-.23.407-.605.649-1.057.649-.715 0-1.265-.594-1.265-1.519 0-1.342 1.067-1.925 2.267-1.936v-.165c0-.716-.176-1.21-.848-1.21-.33 0-.627.099-.88.274l-.187-.594c.23-.165.715-.353 1.242-.353 1.067 0 1.519.704 1.519 1.893v2.313zm-.825-1.552c-.439 0-1.463.088-1.463 1.243 0 .704.352.946.648.946.375 0 .683-.274.781-.803.022-.1.033-.209.033-.309v-1.077zm5.236 2.08c0 1.396-.176 1.925-.528 2.321-.33.352-.825.561-1.419.561-.451 0-.891-.11-1.166-.264l.197-.66c.209.109.562.23.979.23.671 0 1.089-.418 1.089-1.628v-.539h-.021c-.176.418-.572.649-1.012.649-.947 0-1.562-1.067-1.562-2.63 0-1.969.88-2.772 1.672-2.772.561 0 .825.374.99.683h.021l.045-.595h.759c-.011.363-.044.837-.044 1.662v2.982zm-.847-2.805c0-.144-.011-.275-.043-.396-.088-.352-.287-.803-.771-.803-.605 0-.936.825-.936 2.002 0 1.364.429 1.98.936 1.98.264 0 .594-.121.759-.759.055-.165.055-.33.055-.484v-1.54zm2.618.902c.011 1.639.649 1.979 1.255 1.979.373 0 .67-.088.879-.197l.144.615c-.297.165-.748.254-1.177.254-1.266 0-1.926-1.034-1.926-2.674 0-1.728.727-2.806 1.793-2.806 1.078 0 1.519 1.145 1.519 2.344 0 .209-.011.352-.022.484h-2.465zm1.673-.628c.011-1.066-.385-1.54-.793-1.54-.55 0-.836.814-.869 1.54h1.662zm4.047.628c.012 1.639.649 1.979 1.254 1.979.375 0 .672-.088.881-.197l.143.615c-.297.165-.748.254-1.177.254-1.266 0-1.925-1.034-1.925-2.674 0-1.728.726-2.806 1.793-2.806 1.078 0 1.518 1.145 1.518 2.344 0 .209-.011.352-.021.484h-2.466zm1.671-.628c.012-1.066-.385-1.54-.791-1.54-.551 0-.837.814-.869 1.54h1.66zm1.727-.736c0-.628-.033-.946-.043-1.376h.736l.044.639h.022c.23-.43.66-.727 1.221-.727.737 0 1.287.539 1.287 1.838v3.575h-.847v-3.433c0-.638-.121-1.265-.737-1.265-.352 0-.693.297-.792.869-.033.12-.044.285-.044.473v3.355h-.848v-3.948zm4.455-3.664h.848v2.86h.021c.11-.187.275-.352.451-.473a1.24 1.24 0 0 1 .704-.188c.671 0 1.243.528 1.243 1.882v3.531h-.847v-3.433c0-.66-.144-1.265-.716-1.265-.396 0-.692.285-.824.847a2.405 2.405 0 0 0-.033.396v3.454h-.848v-7.611zm7.261 6.403c0 .407 0 .869.056 1.21h-.76l-.055-.562h-.033c-.23.407-.605.649-1.057.649-.715 0-1.265-.594-1.265-1.519 0-1.342 1.067-1.925 2.267-1.936v-.165c0-.716-.176-1.21-.848-1.21-.33 0-.627.099-.88.274l-.187-.594c.23-.165.715-.353 1.242-.353 1.067 0 1.519.704 1.519 1.893v2.313zm-.825-1.552c-.439 0-1.463.088-1.463 1.243 0 .704.352.946.648.946.375 0 .683-.274.781-.803.022-.1.033-.209.033-.309v-1.077zm2.023-1.187c0-.628-.033-.946-.043-1.376h.736l.044.639h.022c.23-.43.66-.727 1.221-.727.737 0 1.287.539 1.287 1.838v3.575h-.847v-3.433c0-.638-.121-1.265-.737-1.265-.352 0-.693.297-.792.869-.033.12-.044.285-.044.473v3.355h-.848v-3.948zm7.052 3.817c-.187.109-.506.198-.88.198-1.166 0-1.947-.936-1.947-2.695 0-1.529.77-2.772 2.102-2.772.285 0 .594.076.748.176l-.166.682a1.376 1.376 0 0 0-.604-.143c-.858 0-1.232 1.012-1.232 2.058 0 1.243.474 1.991 1.255 1.991.22 0 .418-.044.604-.144l.12.649zm1.253-2.453c.012 1.639.65 1.979 1.255 1.979.374 0 .671-.088.88-.197l.143.615c-.297.165-.748.254-1.177.254-1.265 0-1.925-1.034-1.925-2.674 0-1.728.727-2.806 1.793-2.806 1.078 0 1.518 1.145 1.518 2.344 0 .209-.01.352-.021.484h-2.466zm1.673-.628c.011-1.066-.385-1.54-.792-1.54-.551 0-.836.814-.869 1.54h1.661zm1.727-.736c0-.628-.033-.946-.045-1.376h.748l.045.649h.021c.23-.429.627-.737 1.188-.737.496 0 .925.231 1.123.804h.021c.143-.265.33-.474.518-.605.22-.132.462-.198.736-.198.727 0 1.287.518 1.287 1.882v3.531h-.847v-3.345c0-.692-.099-1.364-.737-1.364-.352 0-.66.297-.781.804-.033.132-.033.297-.033.473v3.433h-.847v-3.498c0-.584-.099-1.211-.726-1.211-.353 0-.693.297-.793.869a2.923 2.923 0 0 0-.032.451v3.389h-.847v-3.951zm7.413 1.364c.011 1.639.649 1.979 1.255 1.979.373 0 .67-.088.879-.197l.144.615c-.297.165-.748.254-1.177.254-1.266 0-1.926-1.034-1.926-2.674 0-1.728.727-2.806 1.793-2.806 1.078 0 1.519 1.145 1.519 2.344 0 .209-.011.352-.022.484h-2.465zm1.673-.628c.011-1.066-.385-1.54-.793-1.54-.55 0-.836.814-.869 1.54h1.662zm1.727-.736c0-.628-.033-.946-.045-1.376h.737l.044.639h.021a1.35 1.35 0 0 1 1.222-.727c.737 0 1.287.539 1.287 1.838v3.575h-.847v-3.433c0-.638-.121-1.265-.737-1.265-.353 0-.693.297-.792.869-.033.12-.044.285-.044.473v3.355h-.847v-3.948zm5.423-2.619v1.243h1.022v.639h-1.022v3.168c0 .704.241.881.55.881.143 0 .253-.012.342-.033l.043.648a1.827 1.827 0 0 1-.627.089c-.341 0-.638-.089-.836-.319-.22-.242-.318-.605-.318-1.343v-3.091h-.65v-.639h.65v-.901l.846-.342zM50.953 183.423l-.396 1.925h-1.145l1.65-7.415h1.375l1.529 7.415h-1.144l-.396-1.925h-1.473zm1.353-.925l-.308-1.705c-.099-.484-.198-1.166-.275-1.684h-.033a49.482 49.482 0 0 1-.275 1.694l-.33 1.694h1.221zm5.984 1.287c0 .583.022 1.111.044 1.562h-1.023l-.066-.562h-.022a1.458 1.458 0 0 1-1.199.649c-.979 0-1.375-.737-1.375-2.134v-3.312h1.177v3.168c0 .771.132 1.298.616 1.298.363 0 .55-.308.605-.527.044-.121.066-.286.066-.462v-3.477h1.177v3.797zm4.697-6.051v6.161c0 .44.022 1.045.044 1.452H62.03l-.077-.638h-.033c-.176.385-.594.726-1.111.726-1.045 0-1.628-1.133-1.628-2.75 0-1.882.814-2.783 1.683-2.783.44 0 .759.209.935.583h.022v-2.751h1.166zm-1.166 4.302c0-.099 0-.22-.022-.33-.044-.429-.286-.814-.638-.814-.594 0-.803.848-.803 1.805 0 1.078.286 1.771.781 1.771.22 0 .495-.11.638-.671.033-.089.044-.21.044-.342v-1.419zm2.804-2.762c-.341 0-.616-.274-.616-.682 0-.418.286-.683.627-.683.374 0 .638.265.638.683 0 .407-.264.682-.638.682h-.011zm-.561 6.074v-5.357h1.177v5.357h-1.177zm3.96.088c-1.133 0-1.914-.946-1.914-2.75 0-1.947.957-2.783 1.958-2.783 1.122 0 1.892.979 1.892 2.75 0 2.167-1.122 2.783-1.925 2.783h-.011zm.045-.903c.583 0 .715-1.056.715-1.87 0-.781-.132-1.859-.737-1.859-.638 0-.759 1.078-.759 1.859 0 .902.154 1.87.77 1.87h.011zm8.019.694c-.22.11-.605.188-1.089.188-1.694 0-2.662-1.387-2.662-3.675 0-2.85 1.507-3.873 2.827-3.873.484 0 .825.1.968.188l-.22 1.001c-.176-.088-.352-.154-.704-.154-.803 0-1.628.737-1.628 2.762 0 1.991.748 2.706 1.639 2.706.275 0 .55-.065.726-.132l.143.989zm3.982-1.1c0 .418.011.868.066 1.221H79.08l-.066-.539h-.022c-.275.407-.671.627-1.133.627-.77 0-1.353-.638-1.353-1.584 0-1.375 1.166-1.958 2.376-1.97v-.143c0-.562-.22-.946-.803-.946-.385 0-.704.11-1.001.297l-.22-.803c.264-.165.825-.385 1.474-.385 1.386 0 1.738.945 1.738 2.09v2.135zm-1.155-1.464c-.462.011-1.287.132-1.287 1.067 0 .605.319.825.583.825.297 0 .572-.198.671-.616.022-.077.033-.176.033-.275v-1.001zm2.243-.99c0-.726-.022-1.231-.044-1.683h1.023l.066.648h.022c.253-.506.66-.736 1.122-.736 1.067 0 1.617 1.144 1.617 2.75 0 1.958-.836 2.783-1.706 2.783-.473 0-.759-.286-.913-.561h-.022v2.585h-1.166v-5.786zm1.166 1.717c0 .165.022.33.055.451.143.517.418.627.616.627.594 0 .792-.848.792-1.794 0-1.066-.253-1.782-.792-1.782-.297 0-.561.33-.627.693a1.507 1.507 0 0 0-.044.396v1.409zm4.917-4.731v1.331h1.034v.847h-1.034v2.783c0 .66.253.825.55.825.132 0 .242-.011.363-.033l.022.913c-.176.056-.44.089-.77.089-.374 0-.715-.1-.946-.33-.264-.265-.396-.649-.396-1.452v-2.795h-.638v-.847h.638v-.925l1.177-.406zm5.346 5.126c0 .583.022 1.111.044 1.562h-1.023l-.066-.562h-.022a1.458 1.458 0 0 1-1.199.649c-.979 0-1.375-.737-1.375-2.134v-3.312h1.177v3.168c0 .771.132 1.298.616 1.298.363 0 .55-.308.605-.527.044-.121.066-.286.066-.462v-3.477h1.177v3.797zm1.1-2.288c0-.495-.022-1.056-.044-1.507h1.023l.066.803h.033c.209-.539.649-.891 1.089-.891.11 0 .176.011.253.021v1.166c-.077-.011-.154-.011-.253-.011-.407 0-.814.341-.946.924a2.987 2.987 0 0 0-.044.506v2.839h-1.177v-3.85zm3.85 1.485c.011 1.199.561 1.529 1.188 1.529.396 0 .726-.088.957-.188l.176.836c-.341.154-.858.254-1.342.254-1.386 0-2.124-1.002-2.124-2.663 0-1.771.847-2.849 1.992-2.849 1.122 0 1.694 1.022 1.694 2.453 0 .308-.011.483-.033.627h-2.508zm1.452-.836c.011-.858-.275-1.364-.693-1.364-.506 0-.737.737-.759 1.364h1.452zm95.22 3.202l-1.672-7.415h1.287l.615 3.322c.144.814.33 1.793.44 2.695h.033c.099-.913.265-1.859.418-2.717l.595-3.301h1.275l-1.705 7.415h-1.286zm3.983-6.074c-.342 0-.617-.274-.617-.682 0-.418.287-.683.628-.683.374 0 .638.265.638.683 0 .407-.264.682-.638.682h-.011zm-.562 6.074v-5.357h1.177v5.357h-1.177zm5.853-7.614v6.161c0 .44.021 1.045.044 1.452h-1.001l-.077-.638h-.033c-.176.385-.594.726-1.11.726-1.046 0-1.629-1.133-1.629-2.75 0-1.882.814-2.783 1.684-2.783.439 0 .759.209.935.583h.022v-2.751h1.165zm-1.166 4.302c0-.099 0-.22-.022-.33-.044-.429-.286-.814-.638-.814-.594 0-.803.848-.803 1.805 0 1.078.285 1.771.781 1.771.219 0 .494-.11.637-.671.033-.089.045-.21.045-.342v-1.419zm3.189.946c.011 1.199.561 1.529 1.188 1.529.396 0 .727-.088.957-.188l.177.836c-.341.154-.858.254-1.343.254-1.386 0-2.123-1.002-2.123-2.663 0-1.771.848-2.849 1.992-2.849 1.121 0 1.693 1.022 1.693 2.453 0 .308-.011.483-.033.627h-2.508zm1.452-.836c.011-.858-.274-1.364-.693-1.364-.506 0-.737.737-.759 1.364h1.452zm3.641 3.29c-1.133 0-1.914-.946-1.914-2.75 0-1.947.957-2.783 1.958-2.783 1.123 0 1.893.979 1.893 2.75 0 2.167-1.122 2.783-1.926 2.783h-.011zm.044-.903c.584 0 .715-1.056.715-1.87 0-.781-.131-1.859-.736-1.859-.639 0-.76 1.078-.76 1.859 0 .902.154 1.87.771 1.87h.01zm8.02.694c-.221.11-.605.188-1.09.188-1.693 0-2.662-1.387-2.662-3.675 0-2.85 1.508-3.873 2.827-3.873.484 0 .825.1.968.188l-.219 1.001c-.177-.088-.353-.154-.705-.154-.803 0-1.628.737-1.628 2.762 0 1.991.748 2.706 1.64 2.706.274 0 .55-.065.726-.132l.143.989zm3.981-1.1c0 .418.011.868.065 1.221h-1.056l-.065-.539h-.022c-.275.407-.671.627-1.134.627-.77 0-1.353-.638-1.353-1.584 0-1.375 1.166-1.958 2.376-1.97v-.143c0-.562-.22-.946-.803-.946-.385 0-.704.11-1.002.297l-.219-.803c.264-.165.824-.385 1.474-.385 1.386 0 1.738.945 1.738 2.09v2.135zm-1.155-1.464c-.462.011-1.287.132-1.287 1.067 0 .605.318.825.583.825.297 0 .572-.198.671-.616a1.09 1.09 0 0 0 .033-.275v-1.001zm2.244-.99c0-.726-.022-1.231-.045-1.683h1.023l.066.648h.021c.254-.506.66-.736 1.123-.736 1.066 0 1.617 1.144 1.617 2.75 0 1.958-.837 2.783-1.705 2.783-.474 0-.76-.286-.914-.561h-.021v2.585h-1.166v-5.786zm1.166 1.717c0 .165.021.33.055.451.143.517.418.627.616.627.594 0 .792-.848.792-1.794 0-1.066-.253-1.782-.792-1.782-.298 0-.562.33-.628.693a1.552 1.552 0 0 0-.043.396v1.409zm4.916-4.731v1.331h1.035v.847h-1.035v2.783c0 .66.254.825.551.825.132 0 .242-.011.363-.033l.021.913c-.176.056-.439.089-.77.089-.375 0-.716-.1-.947-.33-.264-.265-.396-.649-.396-1.452v-2.795H228v-.847h.638v-.925l1.177-.406zm5.347 5.126c0 .583.022 1.111.044 1.562h-1.023l-.065-.562h-.022a1.458 1.458 0 0 1-1.199.649c-.979 0-1.375-.737-1.375-2.134v-3.312h1.178v3.168c0 .771.132 1.298.615 1.298.363 0 .551-.308.605-.527.044-.121.066-.286.066-.462v-3.477h1.177v3.797zm1.099-2.288c0-.495-.022-1.056-.044-1.507h1.023l.066.803h.032c.209-.539.649-.891 1.089-.891.11 0 .176.011.254.021v1.166c-.078-.011-.154-.011-.254-.011-.406 0-.814.341-.945.924a2.973 2.973 0 0 0-.045.506v2.839h-1.177v-3.85zm3.851 1.485c.011 1.199.561 1.529 1.188 1.529.396 0 .727-.088.957-.188l.177.836c-.341.154-.858.254-1.343.254-1.386 0-2.123-1.002-2.123-2.663 0-1.771.848-2.849 1.992-2.849 1.121 0 1.693 1.022 1.693 2.453 0 .308-.011.483-.033.627h-2.508zm1.452-.836c.011-.858-.274-1.364-.693-1.364-.506 0-.737.737-.759 1.364h1.452zm-120.859 15.808c.341-.066.726-.11 1.111-.11.781 0 1.331.286 1.661.727.352.462.484 1.066.484 1.804 0 1.738-.682 3.466-1.485 4.203-.605.561-1.309.748-2.058.748-.418 0-.803-.033-1.089-.11l1.376-7.262zm-.484 6.644c.099.012.264.033.418.033.55 0 1.089-.264 1.562-.891.528-.693.935-2.068.935-3.411 0-1.144-.418-1.815-1.342-1.815-.209 0-.319.012-.418.033l-1.155 6.051zm6.82.43a2.57 2.57 0 0 1-1.254.33c-1.122 0-1.485-.858-1.485-1.882 0-1.441.803-3.598 2.321-3.598.781 0 1.1.595 1.1 1.211 0 1.287-1.144 1.837-2.596 1.848-.022.154-.055.748.033 1.067.121.451.396.693.814.693.418 0 .704-.144.946-.286l.121.617zm-.539-4.467c-.473 0-.979.583-1.265 1.738.847-.012 1.738-.297 1.738-1.155 0-.374-.154-.583-.473-.583zm2.672-.595l.077 3.015c0 .572.022.913-.011 1.31h.033c.121-.385.275-.76.473-1.276l1.232-3.048h.803l-2.354 5.325h-.759l-.308-5.325h.814zm2.366 5.325l1.012-5.325h.792l-1.023 5.325h-.781zm1.199-6.677c.011-.286.231-.562.528-.562.308 0 .451.231.429.518-.022.362-.264.561-.55.561s-.44-.21-.407-.517zm3.278 6.59c-.198.088-.506.154-.869.154-1.067 0-1.452-.869-1.452-1.903 0-1.552.913-3.564 2.651-3.564.231 0 .418.032.528.088l-.209.682c-.11-.033-.231-.077-.396-.077-1.111 0-1.76 1.585-1.76 2.784 0 .78.231 1.309.847 1.309.209 0 .44-.055.649-.132l.011.659zm3.42-.176a2.57 2.57 0 0 1-1.254.33c-1.122 0-1.485-.858-1.485-1.882 0-1.441.803-3.598 2.321-3.598.781 0 1.1.595 1.1 1.211 0 1.287-1.144 1.837-2.596 1.848-.022.154-.055.748.033 1.067.121.451.396.693.814.693.418 0 .704-.144.946-.286l.121.617zm-.539-4.467c-.473 0-.979.583-1.265 1.738.847-.012 1.738-.297 1.738-1.155.001-.374-.154-.583-.473-.583zm2.948 4.73l1.43-7.613h.803l-.572 3.036h.022c.374-.55.803-.836 1.32-.836.638 0 .902.495.902 1.078 0 .286-.033.528-.099.892l-.649 3.443h-.792l.66-3.477c.044-.231.066-.451.066-.715 0-.33-.143-.539-.462-.539-.528 0-1.1.792-1.265 1.683l-.583 3.048h-.781zm6.798 0c.011-.297.044-.594.077-1.012h-.022c-.528.901-1.001 1.1-1.397 1.1-.616 0-.99-.539-.99-1.496 0-1.617.858-4.005 2.915-4.005.374 0 .759.077.979.177l-.616 3.047c-.143.715-.242 1.596-.231 2.189h-.715zm.671-4.73a1.524 1.524 0 0 0-.33-.033c-1.188 0-1.849 1.947-1.881 3.113-.011.671.121 1.057.495 1.057.539 0 1.111-1.057 1.32-2.112l.396-2.025zm1.034 4.73l.671-3.575c.132-.716.198-1.354.231-1.75h.693c-.011.286-.033.572-.088 1.002h.033c.33-.66.792-1.09 1.331-1.09.055 0 .099.012.143.012l-.154.836c-.022 0-.066-.012-.099-.012-.704 0-1.298.99-1.452 1.783l-.528 2.794h-.781zm6.963-7.613l-1.089 5.743c-.11.583-.22 1.364-.242 1.87h-.682l.066-.836h-.022c-.264.55-.759.924-1.276.924-.671 0-1.078-.627-1.078-1.595 0-1.815.957-3.906 2.519-3.906.209 0 .429.088.561.198l.451-2.398h.792zm-1.397 3.092a.573.573 0 0 0-.495-.242c-1.023 0-1.617 2.014-1.617 3.103 0 .627.143 1.067.583 1.067.385 0 .902-.484 1.111-1.541l.418-2.387zm2.497-.804l.033 2.993c-.011.571-.011.935-.044 1.342h.033c.121-.396.264-.803.473-1.298l1.298-3.037h.627l.11 3.015c.011.572.022.902-.033 1.32h.044c.121-.396.253-.814.462-1.364l1.177-2.971h.781l-2.299 5.325h-.671l-.143-2.883a9.15 9.15 0 0 1 .033-1.331h-.033c-.154.484-.297.946-.462 1.331l-1.254 2.883h-.693l-.253-5.325h.814zm7.062 5.325c.012-.297.044-.594.077-1.012h-.021c-.529.901-1.002 1.1-1.398 1.1-.616 0-.99-.539-.99-1.496 0-1.617.858-4.005 2.915-4.005.374 0 .76.077.979.177l-.616 3.047c-.143.715-.242 1.596-.23 2.189h-.716zm.672-4.73c-.1-.022-.21-.033-.33-.033-1.189 0-1.849 1.947-1.882 3.113-.011.671.121 1.057.495 1.057.539 0 1.111-1.057 1.32-2.112l.397-2.025zm1.033 4.73l.671-3.575c.132-.716.198-1.354.23-1.75h.693c-.011.286-.033.572-.088 1.002h.033c.33-.66.792-1.09 1.331-1.09.055 0 .099.012.143.012l-.153.836c-.022 0-.066-.012-.1-.012-.704 0-1.298.99-1.452 1.783l-.528 2.794h-.78zm5.423-.263a2.57 2.57 0 0 1-1.254.33c-1.122 0-1.485-.858-1.485-1.882 0-1.441.803-3.598 2.321-3.598.781 0 1.101.595 1.101 1.211 0 1.287-1.145 1.837-2.597 1.848-.022.154-.055.748.033 1.067.121.451.396.693.813.693.419 0 .704-.144.946-.286l.122.617zm-.539-4.467c-.473 0-.979.583-1.265 1.738.847-.012 1.738-.297 1.738-1.155.001-.374-.154-.583-.473-.583z"/><path fill="none" stroke="#000" stroke-miterlimit="10" d="M146.262 172.147V62.323" clip-rule="evenodd"/></svg>