<svg xmlns="http://www.w3.org/2000/svg" viewBox="0 0 343.116 120.894"><path fill="none" stroke="#000" d="M182.213 74.902h55.703" stroke-linecap="round" stroke-linejoin="round"/><path d="M237.041 77.903l5.181-2.992-5.181-2.991z"/><path fill="none" stroke="#000" d="M63.059 49.608h55.703" stroke-linecap="round" stroke-linejoin="round"/><path d="M117.887 52.609l5.18-2.991-5.18-2.992z"/><path fill="#e6e6e6" fill-rule="evenodd" d="M3.38 3.38h81.333v72.571H3.38z" clip-rule="evenodd"/><path fill="none" stroke="#000" d="M3.38 3.38h81.333v72.571H3.38zm129.382 58.228H90.059" stroke-linecap="round" stroke-linejoin="round"/><path d="M90.934 58.607l-5.181 2.992 5.181 2.991z"/><g fill-rule="evenodd" stroke="#000" clip-rule="evenodd" stroke-linecap="round" stroke-linejoin="round"><path fill="#fddfbb" d="M10.88 29.723h66.333v12.943H10.88zm0-12.943h66.333v12.943H10.88z"/><path fill="#ecbec0" d="M10.88 42.666h66.333v12.943H10.88z"/><path fill="#ecbec0" d="M10.88 55.608h66.333v12.943H10.88z"/></g><path fill="#e6e6e6" fill-rule="evenodd" d="M123.38 29.38h81.333v72.572H123.38z" clip-rule="evenodd"/><path fill="none" stroke="#000" d="M123.38 29.38h81.333v72.572H123.38z" stroke-linecap="round" stroke-linejoin="round"/><path fill="#ecbec0" fill-rule="evenodd" stroke="#000" d="M130.88 55.723h66.333v12.943H130.88zm0-12.943h66.333v12.943H130.88z" clip-rule="evenodd" stroke-linecap="round" stroke-linejoin="round"/><path fill="#b2dec7" fill-rule="evenodd" stroke="#000" d="M130.88 68.665h66.333v12.943H130.88zm0 12.943h66.333v12.943H130.88z" clip-rule="evenodd" stroke-linecap="round" stroke-linejoin="round"/><path fill="none" stroke="#000" d="M251.916 86.902h-41.703" stroke-linecap="round" stroke-linejoin="round"/><path d="M211.088 83.901l-5.181 2.992 5.181 2.991z"/><path fill="#e6e6e6" fill-rule="evenodd" d="M242.534 54.673h83.679v59.773h-83.679z" clip-rule="evenodd"/><path fill="none" stroke="#000" d="M242.534 54.673h83.679v59.773h-83.679z" stroke-linecap="round" stroke-linejoin="round"/><path fill="#b2dec7" fill-rule="evenodd" stroke="#000" d="M250.034 81.016h66.333v12.943h-66.333zm0-12.943h66.333v12.943h-66.333zm0 25.886h66.333v12.943h-66.333z" clip-rule="evenodd" stroke-linecap="round" stroke-linejoin="round"/><path fill="none" stroke="#000" d="M316.367 87.488h14.846v12.942h-10" stroke-linecap="round" stroke-linejoin="round"/><path d="M322.088 97.429l-5.181 2.992 5.181 2.991zM27.906 22.813c0 2.278-.783 3.151-1.755 3.151-1.008 0-1.684-1.071-1.684-3.115 0-2.008.72-3.097 1.783-3.097 1.035.001 1.656 1.126 1.656 3.061zm-2.718.045c0 1.252.243 2.494 1.008 2.494.783 0 .99-1.323.99-2.512 0-1.135-.207-2.476-.999-2.476-.756.001-.999 1.261-.999 2.494zm3.923-1.323l.423 2.134c.081.468.18.937.234 1.387h.036c.063-.45.171-.955.27-1.369l.504-2.151h.531l.477 2.089c.108.486.207.945.279 1.432h.036c.054-.459.135-.909.234-1.404l.414-2.116h.693l-1.098 4.357h-.567l-.504-2.115a12.152 12.152 0 0 1-.243-1.306h-.018c-.072.513-.153.918-.252 1.332l-.522 2.089h-.585l-1.062-4.357h.72zm4.743 1.125c0-.513-.027-.773-.036-1.125h.603l.036.522h.018c.189-.352.54-.595.999-.595.604 0 1.054.45 1.054 1.504v2.926h-.693v-2.809c0-.514-.099-1.035-.603-1.035-.288 0-.567.243-.657.711a2.445 2.445 0 0 0-.027.387v2.746h-.693V22.66zm4.131 1.117c.009 1.332.531 1.62 1.036 1.62.297 0 .549-.072.72-.171l.108.513c-.243.136-.612.207-.955.207-1.044 0-1.584-.854-1.584-2.188 0-1.413.594-2.296 1.468-2.296.891 0 1.242.937 1.242 1.927 0 .162 0 .279-.009.388h-2.026zm1.369-.513c.018-.873-.315-1.261-.648-1.261-.45 0-.684.667-.711 1.261h1.359zm1.403-.604c0-.368-.027-.801-.036-1.125h.622l.036.685h.018c.144-.414.513-.757.918-.757.054 0 .099.01.144.01v.711c-.045-.009-.09-.009-.144-.009-.441 0-.765.404-.837.909a2.65 2.65 0 0 0-.027.396v2.413h-.693V22.66zm3.294-2.907c-.189.729-.576 1.665-.81 2.07l-.414.063c.189-.522.432-1.44.522-2.062l.702-.071zm-.09 5.42c.153.099.423.225.702.225.396 0 .639-.243.639-.63 0-.333-.117-.559-.558-.855-.567-.369-.873-.738-.873-1.242 0-.702.522-1.207 1.197-1.207.342 0 .603.117.783.226l-.189.522a1.024 1.024 0 0 0-.576-.189.534.534 0 0 0-.567.549c0 .298.108.459.54.757.504.324.9.72.9 1.323 0 .873-.594 1.296-1.305 1.296-.324 0-.675-.099-.864-.252l.171-.523zm4.185.72v-6.067h.657l1.116 2.845c.252.647.567 1.458.774 2.115h.018a45.668 45.668 0 0 1-.081-2.791v-2.169h.621v6.067h-.657l-1.152-2.917a21.766 21.766 0 0 1-.72-2.062h-.018c.054.811.072 1.585.072 2.881v2.098h-.63zm5.85 0l-.045-.459h-.027c-.189.333-.495.531-.864.531-.585 0-1.036-.495-1.036-1.242 0-1.09.874-1.576 1.854-1.585v-.135c0-.585-.144-.99-.693-.99-.27 0-.513.09-.72.225l-.153-.486c.18-.135.585-.288 1.018-.288.873 0 1.251.576 1.251 1.558v1.882c0 .333 0 .711.045.99h-.63zm-.099-2.251c-.36 0-1.197.063-1.197 1.009 0 .567.288.774.531.774.306 0 .567-.226.648-.657.018-.081.018-.171.018-.243v-.883zm1.656-.982c0-.513-.027-.773-.036-1.125h.603l.036.54h.018c.189-.351.522-.612.981-.612.405 0 .747.198.909.667h.018a1.37 1.37 0 0 1 .432-.495c.171-.117.378-.172.603-.172.585 0 1.044.433 1.044 1.54v2.89h-.685v-2.728c0-.567-.081-1.116-.612-1.116-.288 0-.541.243-.639.647a2.65 2.65 0 0 0-.027.396v2.8h-.684v-2.854c0-.486-.09-.99-.603-.99-.279 0-.567.243-.648.702a2.49 2.49 0 0 0-.027.378v2.764h-.684V22.66zm6.066 1.117c.009 1.332.531 1.62 1.036 1.62.297 0 .549-.072.72-.171l.108.513c-.243.136-.612.207-.955.207-1.044 0-1.584-.854-1.584-2.188 0-1.413.594-2.296 1.468-2.296.891 0 1.242.937 1.242 1.927 0 .162 0 .279-.009.388h-2.026zm1.368-.513c.018-.873-.315-1.261-.648-1.261-.45 0-.684.667-.711 1.261h1.359zM7.442 11.866c.225.135.621.243.937.243.594 0 .918-.342.918-.847 0-.485-.297-.765-.792-1.107-.675-.431-1.144-1.035-1.144-1.692 0-.945.639-1.692 1.773-1.692.387 0 .738.117.9.217l-.17.827a1.392 1.392 0 0 0-.747-.207c-.549 0-.811.369-.811.738 0 .468.243.684.864 1.08.765.504 1.071 1.089 1.071 1.737 0 1.089-.774 1.782-1.863 1.782-.45 0-.909-.126-1.099-.252l.163-.827zm3.97-3.943c-.279 0-.504-.225-.504-.558 0-.343.234-.559.513-.559.306 0 .522.216.522.559 0 .333-.216.558-.522.558h-.009zm-.46 4.97V8.508h.963v4.385h-.963zm2.998-5.474v1.089h.847v.693h-.847v2.278c0 .54.208.675.45.675.108 0 .198-.009.297-.027l.018.748c-.144.045-.36.071-.63.071-.306 0-.585-.081-.774-.27-.216-.217-.324-.531-.324-1.188V9.201h-.522v-.693h.522v-.756l.963-.333zm2.133 3.538c.009.981.459 1.251.972 1.251.324 0 .594-.071.783-.152l.144.684c-.279.126-.702.207-1.098.207-1.134 0-1.737-.819-1.737-2.179 0-1.449.693-2.331 1.629-2.331.918 0 1.386.837 1.386 2.008 0 .252-.009.396-.027.513h-2.052zm1.188-.685c.009-.702-.225-1.116-.567-1.116-.414 0-.603.604-.621 1.116h1.188zm5.31 2.531c-.135.072-.414.144-.738.144-1.044 0-1.738-.773-1.738-2.215 0-1.313.729-2.286 1.891-2.286.261 0 .513.062.63.126l-.144.766c-.099-.036-.252-.1-.468-.1-.621 0-.945.666-.945 1.477 0 .9.36 1.44.945 1.44.18 0 .333-.036.468-.099l.099.747zm1.251-1.846c.009.981.459 1.251.972 1.251.324 0 .594-.071.783-.152l.144.684c-.279.126-.702.207-1.098.207-1.134 0-1.737-.819-1.737-2.179 0-1.449.693-2.331 1.629-2.331.918 0 1.386.837 1.386 2.008 0 .252-.009.396-.027.513h-2.052zm1.188-.685c.009-.702-.225-1.116-.567-1.116-.414 0-.603.604-.621 1.116h1.188zm1.583-.531c0-.404-.018-.864-.036-1.233h.837l.054.657h.027c.171-.44.531-.729.892-.729.09 0 .144.009.207.018v.954c-.063-.009-.126-.009-.207-.009-.333 0-.667.279-.774.756-.018.1-.036.253-.036.415v2.322h-.963V9.741zm3.798-2.322v1.089h.847v.693h-.847v2.278c0 .54.207.675.45.675.108 0 .198-.009.297-.027l.018.748c-.144.045-.36.071-.63.071-.306 0-.585-.081-.774-.27-.216-.217-.324-.531-.324-1.188V9.201h-.522v-.693h.522v-.756l.963-.333zm1.881.504c-.279 0-.504-.225-.504-.558 0-.343.234-.559.513-.559.306 0 .522.216.522.559 0 .333-.216.558-.522.558h-.009zm-.459 4.97V8.508h.963v4.385h-.963zm2.025 0V9.201h-.576v-.693h.576v-.252c0-.666.369-1.665 1.792-1.665.405 0 .756.09.955.198l-.155.747a2.062 2.062 0 0 0-.783-.153c-.675 0-.846.414-.846.945v.18h2.088v4.385h-.963V9.201h-1.125v3.691h-.963zm6.237-.09c-.135.072-.414.144-.738.144-1.044 0-1.738-.773-1.738-2.215 0-1.313.729-2.286 1.891-2.286.261 0 .513.062.63.126l-.144.766c-.099-.036-.252-.1-.468-.1-.621 0-.945.666-.945 1.477 0 .9.36 1.44.945 1.44.18 0 .333-.036.468-.099l.099.747zm3.267-.909c0 .342.009.711.054.999h-.864l-.054-.441h-.018c-.225.333-.549.514-.927.514-.63 0-1.107-.522-1.107-1.297 0-1.125.954-1.603 1.944-1.611v-.119c0-.459-.18-.774-.657-.774-.315 0-.576.091-.819.243l-.18-.657c.216-.135.675-.314 1.206-.314 1.134 0 1.422.774 1.422 1.71v1.747zm-.945-1.198c-.378.009-1.053.107-1.053.873 0 .495.261.675.477.675.243 0 .468-.162.549-.504a.857.857 0 0 0 .027-.225v-.819zm2.898-3.277v1.089h.847v.693h-.847v2.278c0 .54.207.675.45.675.108 0 .198-.009.297-.027l.018.748c-.144.045-.36.071-.63.071-.306 0-.585-.081-.774-.27-.216-.217-.324-.531-.324-1.188V9.201h-.522v-.693h.522v-.756l.963-.333zm2.133 3.538c.009.981.459 1.251.972 1.251.324 0 .594-.071.783-.152l.144.684c-.279.126-.702.207-1.098.207-1.134 0-1.737-.819-1.737-2.179 0-1.449.693-2.331 1.629-2.331.918 0 1.386.837 1.386 2.008 0 .252-.009.396-.027.513h-2.052zm1.188-.685c.009-.702-.225-1.116-.567-1.116-.414 0-.603.604-.621 1.116h1.188zM22.25 35.994c0 2.278-.783 3.151-1.755 3.151-1.008 0-1.684-1.071-1.684-3.115 0-2.008.72-3.097 1.783-3.097 1.035.001 1.656 1.126 1.656 3.061zm-2.719.045c0 1.252.243 2.494 1.008 2.494.783 0 .99-1.323.99-2.512 0-1.135-.207-2.476-.999-2.476-.756.001-.999 1.261-.999 2.494zm3.924-1.323l.423 2.134c.081.468.18.937.234 1.387h.036c.063-.45.171-.955.27-1.369l.504-2.151h.531l.477 2.089c.108.486.207.945.279 1.432h.036c.054-.459.135-.909.234-1.404l.414-2.116h.693l-1.098 4.357h-.567l-.504-2.115a12.152 12.152 0 0 1-.243-1.306h-.018c-.072.513-.153.918-.252 1.332l-.522 2.089h-.585l-1.062-4.357h.72zm4.743 1.125c0-.513-.027-.773-.036-1.125h.603l.036.522h.018c.189-.352.54-.595.999-.595.604 0 1.054.45 1.054 1.504v2.926h-.693v-2.809c0-.514-.099-1.035-.603-1.035-.288 0-.567.243-.657.711a2.445 2.445 0 0 0-.027.387v2.746h-.693v-3.232zm4.131 1.117c.009 1.332.531 1.62 1.036 1.62.297 0 .549-.072.72-.171l.108.513c-.243.136-.612.207-.955.207-1.044 0-1.584-.854-1.584-2.188 0-1.413.594-2.296 1.468-2.296.891 0 1.242.937 1.242 1.927 0 .162 0 .279-.009.388h-2.026zm1.369-.514c.018-.873-.315-1.261-.648-1.261-.45 0-.684.667-.711 1.261h1.359zm1.403-.603c0-.368-.027-.801-.036-1.125h.622l.036.685h.018c.144-.414.513-.757.918-.757.054 0 .099.01.144.01v.711c-.045-.009-.09-.009-.144-.009-.441 0-.765.404-.837.909a2.65 2.65 0 0 0-.027.396v2.413h-.693v-3.233zm3.294-2.907c-.189.729-.576 1.665-.81 2.07l-.414.063c.189-.522.432-1.44.522-2.062l.702-.071zm-.09 5.42c.153.099.423.225.702.225.396 0 .639-.243.639-.63 0-.333-.117-.559-.558-.855-.567-.369-.873-.738-.873-1.242 0-.702.522-1.207 1.197-1.207.342 0 .603.117.783.226l-.189.522a1.024 1.024 0 0 0-.576-.189.534.534 0 0 0-.567.549c0 .298.108.459.54.757.504.324.9.72.9 1.323 0 .873-.594 1.296-1.305 1.296-.324 0-.675-.099-.864-.252l.171-.523zm4.184-5.258a4.028 4.028 0 0 1 1.008-.117c.558 0 1.026.135 1.341.45.297.288.45.729.45 1.251 0 .559-.135.937-.369 1.242-.333.45-.891.676-1.431.676-.117 0-.207 0-.306-.009v2.484h-.693v-5.977zm.694 2.907c.081.019.153.027.27.027.684 0 1.144-.45 1.144-1.306 0-.621-.261-1.179-1.026-1.179-.162 0-.297.018-.387.045v2.413zm5.374 1.882c0 .486.027.864.036 1.188h-.603l-.045-.459h-.018c-.135.216-.468.531-.937.531-.765 0-1.062-.595-1.062-1.675v-2.755h.693v2.656c0 .684.108 1.188.585 1.188.405 0 .585-.379.621-.576.027-.117.036-.253.036-.396v-2.872h.693v3.17zm.925 1.188c.009-.252.036-.747.036-1.044v-5.186h.693v2.386h.018c.225-.433.549-.586.918-.586.675 0 1.188.783 1.188 2.206 0 1.575-.648 2.296-1.323 2.296-.459 0-.693-.271-.864-.64h-.027l-.045.567h-.594zm.73-1.539c0 .099 0 .197.027.27.162.648.459.766.648.766.558 0 .756-.757.756-1.684 0-.873-.207-1.647-.765-1.647-.324 0-.594.405-.648.774-.018.099-.018.207-.018.306v1.215zm2.907-4.69h.693v6.229h-.693v-6.229zm2.465.747c.009.27-.162.45-.423.45-.225 0-.396-.181-.396-.45 0-.271.18-.45.405-.45.252 0 .414.179.414.45zm-.747 5.482v-4.357h.693v4.357h-.693zm3.781-.108c-.153.091-.414.162-.72.162-.954 0-1.594-.765-1.594-2.205 0-1.252.63-2.269 1.72-2.269.234 0 .486.062.612.135l-.136.567a1.13 1.13 0 0 0-.495-.117c-.693 0-1.008.828-1.008 1.684 0 1.017.387 1.629 1.026 1.629.189 0 .342-.045.504-.117l.091.531zm2.69-2.224h.018c.081-.171.153-.342.234-.485l.864-1.54h.747l-1.152 1.837 1.251 2.521h-.774l-.945-2.053-.243.405v1.647h-.693v-6.229h.693v3.897zm2.853.217c.009 1.332.531 1.62 1.036 1.62.297 0 .549-.072.72-.171l.108.513c-.243.136-.612.207-.955.207-1.044 0-1.584-.854-1.584-2.188 0-1.413.594-2.296 1.468-2.296.891 0 1.242.937 1.242 1.927 0 .162 0 .279-.009.388h-2.026zm1.369-.514c.018-.873-.315-1.261-.648-1.261-.45 0-.684.667-.711 1.261h1.359zm1.772-1.728l.576 2.503c.081.342.126.63.18.9h.018c.045-.243.117-.576.189-.892l.513-2.512h.684l-.711 2.8c-.271 1.099-.567 2.151-1.081 2.809-.306.388-.63.595-.783.667l-.252-.595c.198-.107.414-.297.612-.549.18-.226.324-.522.396-.729a.609.609 0 0 0 .045-.216c0-.054 0-.108-.018-.162l-1.098-4.024h.73zm29.816 6.095c.009.27-.162.45-.423.45-.225 0-.396-.181-.396-.45 0-.271.18-.45.405-.45.252-.001.414.179.414.45zm-.747 5.482v-4.357h.693v4.357h-.693zm1.538-.72c.153.099.423.225.702.225.396 0 .639-.243.639-.63 0-.333-.117-.559-.558-.855-.567-.369-.873-.738-.873-1.242 0-.702.522-1.207 1.197-1.207.342 0 .603.117.783.226l-.189.522a1.024 1.024 0 0 0-.576-.189.534.534 0 0 0-.567.549c0 .298.108.459.54.757.504.324.9.72.9 1.323 0 .873-.594 1.296-1.305 1.296-.324 0-.675-.099-.864-.252l.171-.523zm2.601 0c.153.099.423.225.702.225.396 0 .639-.243.639-.63 0-.333-.117-.559-.558-.855-.567-.369-.873-.738-.873-1.242 0-.702.522-1.207 1.197-1.207.342 0 .603.117.783.226l-.189.522a1.024 1.024 0 0 0-.576-.189.534.534 0 0 0-.567.549c0 .298.108.459.54.757.504.324.9.72.9 1.323 0 .873-.594 1.296-1.305 1.296-.324 0-.675-.099-.864-.252l.171-.523zm5.328-.468c0 .486.027.864.036 1.188h-.603l-.045-.459h-.018c-.135.216-.468.531-.937.531-.765 0-1.062-.595-1.062-1.675v-2.755h.693v2.656c0 .684.108 1.188.585 1.188.405 0 .585-.379.621-.576.027-.117.036-.253.036-.396v-2.872h.693v3.17zm1.458-.927c.009 1.332.531 1.62 1.036 1.62.297 0 .549-.072.72-.171l.108.513c-.243.136-.612.207-.955.207-1.044 0-1.584-.854-1.584-2.188 0-1.413.594-2.296 1.468-2.296.891 0 1.242.937 1.242 1.927 0 .162 0 .279-.009.388h-2.026zm1.369-.514c.018-.873-.315-1.261-.648-1.261-.45 0-.684.667-.711 1.261h1.359zm1.403-.603c0-.368-.027-.801-.036-1.125h.622l.036.685h.018c.144-.414.513-.757.918-.757.054 0 .099.01.144.01v.711c-.045-.009-.09-.009-.144-.009-.441 0-.765.404-.837.909a2.65 2.65 0 0 0-.027.396v2.413h-.693v-3.233zM94.796 65.936l.549 2.449c.063.297.135.684.189 1.062h.027c.045-.359.117-.729.18-1.062l.54-2.449h.684l-1.134 4.357h-.621l-1.134-4.357h.72zm3.141 2.242c.009 1.332.531 1.62 1.036 1.62.297 0 .549-.072.72-.171l.107.513c-.243.136-.612.207-.955.207-1.044 0-1.584-.854-1.584-2.188 0-1.413.594-2.296 1.468-2.296.891 0 1.242.937 1.242 1.927 0 .162 0 .279-.009.388h-2.025zm1.368-.514c.018-.873-.315-1.261-.648-1.261-.45 0-.684.667-.711 1.261h1.359zm1.404-.603c0-.368-.027-.801-.036-1.125h.622l.036.685h.018c.144-.414.513-.757.918-.757.054 0 .099.01.144.01v.711c-.045-.009-.09-.009-.144-.009-.441 0-.765.404-.837.909a2.65 2.65 0 0 0-.027.396v2.413h-.693v-3.233zm2.988-2.25c.009.27-.162.45-.423.45-.225 0-.396-.181-.396-.45 0-.271.18-.45.405-.45.252-.001.414.179.414.45zm-.747 5.482v-4.357h.693v4.357h-.693zm1.8 0v-3.826h-.55v-.531h.549v-.288c0-.774.378-1.656 1.584-1.656.369 0 .693.107.855.207l-.153.54a1.721 1.721 0 0 0-.72-.171c-.702 0-.874.486-.874 1.152v.216h1.954v4.357h-.693v-3.826h-1.261v3.826h-.691zm4.104-2.115c.009 1.332.531 1.62 1.036 1.62.297 0 .549-.072.72-.171l.108.513c-.243.136-.612.207-.955.207-1.044 0-1.584-.854-1.584-2.188 0-1.413.594-2.296 1.468-2.296.891 0 1.242.937 1.242 1.927 0 .162 0 .279-.009.388h-2.026zm1.368-.514c.018-.873-.315-1.261-.648-1.261-.45 0-.684.667-.711 1.261h1.359zm1.295 1.909c.153.099.423.225.702.225.396 0 .639-.243.639-.63 0-.333-.117-.559-.558-.855-.567-.369-.873-.738-.873-1.242 0-.702.522-1.207 1.197-1.207.342 0 .603.117.783.226l-.189.522a1.024 1.024 0 0 0-.576-.189.534.534 0 0 0-.567.549c0 .298.108.459.54.757.504.324.9.72.9 1.323 0 .873-.594 1.296-1.305 1.296-.324 0-.675-.099-.864-.252l.171-.523zM20.031 45.711v6.067h-.693v-6.067h.693zm.9 5.348c.153.099.423.225.702.225.396 0 .639-.243.639-.63 0-.333-.117-.559-.558-.855-.567-.369-.873-.738-.873-1.242 0-.702.522-1.207 1.197-1.207.342 0 .603.117.783.226l-.189.522a1.024 1.024 0 0 0-.576-.189.534.534 0 0 0-.567.549c0 .298.108.459.54.757.504.324.9.72.9 1.323 0 .873-.594 1.296-1.305 1.296-.324 0-.675-.099-.864-.252l.171-.523zm2.6 0c.153.099.423.225.702.225.396 0 .639-.243.639-.63 0-.333-.117-.559-.558-.855-.567-.369-.873-.738-.873-1.242 0-.702.522-1.207 1.197-1.207.342 0 .603.117.783.226l-.189.522a1.024 1.024 0 0 0-.576-.189.534.534 0 0 0-.567.549c0 .298.108.459.54.757.504.324.9.72.9 1.323 0 .873-.594 1.296-1.305 1.296-.324 0-.675-.099-.864-.252l.171-.523zm5.329-.469c0 .486.027.864.036 1.188h-.603l-.045-.459h-.018c-.135.216-.468.531-.937.531-.765 0-1.062-.595-1.062-1.675V47.42h.693v2.656c0 .684.108 1.188.585 1.188.405 0 .585-.379.621-.576.027-.117.036-.253.036-.396V47.42h.693v3.17zm1.457-.927c.009 1.332.531 1.62 1.036 1.62.297 0 .549-.072.72-.171l.108.513c-.243.136-.612.207-.955.207-1.044 0-1.584-.854-1.584-2.188 0-1.413.594-2.296 1.468-2.296.891 0 1.242.937 1.242 1.927 0 .162 0 .279-.009.388h-2.026zm1.369-.514c.018-.873-.315-1.261-.648-1.261-.45 0-.684.667-.711 1.261h1.359zm1.403-.603c0-.368-.027-.801-.036-1.125h.622l.036.685h.018c.144-.414.513-.757.918-.757.054 0 .099.01.144.01v.711c-.045-.009-.09-.009-.144-.009-.441 0-.765.404-.837.909a2.65 2.65 0 0 0-.027.396v2.413h-.693v-3.233zm3.294-2.907c-.189.729-.576 1.665-.81 2.07l-.414.063c.189-.522.432-1.44.522-2.062l.702-.071zm-.09 5.42c.153.099.423.225.702.225.396 0 .639-.243.639-.63 0-.333-.117-.559-.558-.855-.567-.369-.873-.738-.873-1.242 0-.702.522-1.207 1.197-1.207.342 0 .603.117.783.226l-.189.522a1.024 1.024 0 0 0-.576-.189.534.534 0 0 0-.567.549c0 .298.108.459.54.757.504.324.9.72.9 1.323 0 .873-.594 1.296-1.305 1.296-.324 0-.675-.099-.864-.252l.171-.523zm5.697-5.51c-.513.81-.937 2.025-.937 3.664 0 1.611.423 2.826.937 3.646h-.54c-.468-.684-.991-1.891-.991-3.655.018-1.764.522-2.979.991-3.654h.54zm3.232 6.121c-.189.1-.486.162-.864.162-1.188 0-2.035-.954-2.035-3.016 0-2.395 1.188-3.16 2.143-3.16.369 0 .63.072.756.153l-.153.585a1.339 1.339 0 0 0-.612-.126c-.648 0-1.405.63-1.405 2.485 0 1.854.685 2.466 1.423 2.466.261 0 .495-.062.639-.135l.108.586zm1.493-1.71l-.405 1.818h-.666l1.386-6.067h.765l1.351 6.067h-.684l-.405-1.818h-1.342zm1.251-.559l-.315-1.539c-.09-.433-.171-.937-.243-1.387h-.036c-.072.459-.162.981-.243 1.387l-.315 1.539h1.152zm1.557 3.457c.513-.81.936-2.043.936-3.664 0-1.62-.423-2.836-.936-3.646h.54c.468.666.99 1.863.99 3.646-.018 1.783-.522 2.971-.99 3.664h-.54zm4.004-1.08v-6.067h.657l1.116 2.845c.252.647.567 1.458.774 2.115h.018a45.668 45.668 0 0 1-.081-2.791v-2.169h.621v6.067h-.657l-1.152-2.917a21.766 21.766 0 0 1-.72-2.062h-.018c.054.811.072 1.585.072 2.881v2.098h-.63zm5.851 0l-.045-.459h-.027c-.189.333-.495.531-.864.531-.585 0-1.036-.495-1.036-1.242 0-1.09.874-1.576 1.854-1.585v-.135c0-.585-.144-.99-.693-.99-.27 0-.513.09-.72.225l-.153-.486c.18-.135.585-.288 1.018-.288.873 0 1.251.576 1.251 1.558v1.882c0 .333 0 .711.045.99h-.63zm-.099-2.251c-.36 0-1.197.063-1.197 1.009 0 .567.288.774.531.774.306 0 .567-.226.648-.657.018-.081.018-.171.018-.243v-.883zm1.656-.981c0-.513-.027-.773-.036-1.125h.603l.036.54h.018c.189-.351.522-.612.981-.612.405 0 .747.198.909.667h.018a1.37 1.37 0 0 1 .432-.495c.171-.117.378-.172.603-.172.585 0 1.044.433 1.044 1.54v2.89h-.685v-2.728c0-.567-.081-1.116-.612-1.116-.288 0-.541.243-.639.647a2.65 2.65 0 0 0-.027.396v2.8h-.684v-2.854c0-.486-.09-.99-.603-.99-.279 0-.567.243-.648.702a2.49 2.49 0 0 0-.027.378v2.764h-.684v-3.232zM67 49.663c.009 1.332.531 1.62 1.036 1.62.297 0 .549-.072.72-.171l.108.513c-.243.136-.612.207-.955.207-1.044 0-1.584-.854-1.584-2.188 0-1.413.594-2.296 1.468-2.296.891 0 1.242.937 1.242 1.927 0 .162 0 .279-.009.388H67zm1.369-.514c.018-.873-.315-1.261-.648-1.261-.45 0-.684.667-.711 1.261h1.359zm-46.966 9.743v6.067h-.693v-6.067h.693zm.9 5.347c.153.099.423.225.702.225.396 0 .639-.243.639-.63 0-.333-.117-.559-.558-.855-.567-.369-.873-.738-.873-1.242 0-.702.522-1.207 1.197-1.207.342 0 .603.117.783.226l-.189.522a1.024 1.024 0 0 0-.576-.189.534.534 0 0 0-.567.549c0 .298.108.459.54.757.504.324.9.72.9 1.323 0 .873-.594 1.296-1.305 1.296-.324 0-.675-.099-.864-.252l.171-.523zm2.601 0c.153.099.423.225.702.225.396 0 .639-.243.639-.63 0-.333-.117-.559-.558-.855-.567-.369-.873-.738-.873-1.242 0-.702.522-1.207 1.197-1.207.342 0 .603.117.783.226l-.189.522a1.024 1.024 0 0 0-.576-.189.534.534 0 0 0-.567.549c0 .298.108.459.54.757.504.324.9.72.9 1.323 0 .873-.594 1.296-1.305 1.296-.324 0-.675-.099-.864-.252l.171-.523zm5.328-.468c0 .486.027.864.036 1.188h-.603l-.044-.459h-.018c-.135.216-.468.531-.937.531-.765 0-1.062-.595-1.062-1.675v-2.755h.693v2.656c0 .684.108 1.188.585 1.188.405 0 .585-.379.621-.576.027-.117.036-.253.036-.396v-2.872h.693v3.17zm1.458-.927c.009 1.332.531 1.62 1.036 1.62.297 0 .549-.072.72-.171l.108.513c-.243.136-.612.207-.955.207-1.044 0-1.584-.854-1.584-2.188 0-1.413.594-2.296 1.468-2.296.891 0 1.242.937 1.242 1.927 0 .162 0 .279-.009.388H31.69zm1.369-.514c.018-.873-.315-1.261-.648-1.261-.45 0-.684.667-.711 1.261h1.359zm1.402-.603c0-.368-.027-.801-.036-1.125h.622l.036.685h.018c.144-.414.513-.757.918-.757.054 0 .099.01.144.01v.711c-.045-.009-.09-.009-.144-.009-.441 0-.765.404-.837.909a2.65 2.65 0 0 0-.027.396v2.413h-.693v-3.233zm3.295-2.908c-.189.729-.576 1.665-.81 2.07l-.414.063c.189-.522.432-1.44.522-2.062l.702-.071zm-.09 5.42c.153.099.423.225.702.225.396 0 .639-.243.639-.63 0-.333-.117-.559-.558-.855-.567-.369-.873-.738-.873-1.242 0-.702.522-1.207 1.197-1.207.342 0 .603.117.783.226l-.189.522a1.024 1.024 0 0 0-.576-.189.534.534 0 0 0-.567.549c0 .298.108.459.54.757.504.324.9.72.9 1.323 0 .873-.594 1.296-1.305 1.296-.324 0-.675-.099-.864-.252l.171-.523zm4.049-.081c.207.135.567.242.873.242.63 0 1.008-.414 1.008-1.026 0-.558-.324-.899-.801-1.26-.477-.333-1.143-.9-1.143-1.684 0-.918.639-1.594 1.603-1.594.378 0 .711.117.855.226l-.171.594a1.276 1.276 0 0 0-.72-.207c-.594 0-.874.45-.874.864 0 .604.315.837.892 1.252.729.513 1.053 1.071 1.053 1.746 0 1.044-.738 1.701-1.702 1.701-.414 0-.855-.135-1.026-.261l.153-.593zm4.104-4.681c.009.27-.162.45-.423.45-.225 0-.396-.181-.396-.45 0-.271.18-.45.405-.45.252-.001.414.179.414.45zm-.747 5.482v-4.357h.693v4.357h-.693zm4.321-4.357c-.009.307-.036.693-.036 1.359V64.4c0 1.144-.144 1.576-.432 1.891-.261.298-.675.469-1.161.469-.369 0-.729-.09-.954-.216l.162-.541c.171.091.459.189.811.189.549 0 .891-.342.891-1.332v-.441h-.018a.886.886 0 0 1-.837.531c-.774 0-1.279-.873-1.279-2.152 0-1.602.729-2.269 1.369-2.269.468 0 .684.307.81.567h.018l.036-.495h.62zm-.72 1.503a1.16 1.16 0 0 0-.036-.315c-.081-.297-.234-.666-.63-.666-.504 0-.774.675-.774 1.639 0 1.116.351 1.62.774 1.62.207 0 .477-.099.621-.621.036-.135.045-.271.045-.396v-1.261zm1.646-.378c0-.513-.027-.773-.036-1.125h.603l.036.522h.018c.189-.352.54-.595.999-.595.604 0 1.054.45 1.054 1.504v2.926H52.3V62.15c0-.514-.099-1.035-.603-1.035-.288 0-.567.243-.657.711a2.445 2.445 0 0 0-.027.387v2.746h-.693v-3.232zm5.365 3.232l-.045-.459h-.027c-.189.333-.495.531-.864.531-.585 0-1.036-.495-1.036-1.242 0-1.09.874-1.576 1.854-1.585v-.135c0-.585-.144-.99-.693-.99-.27 0-.513.09-.72.225L54 60.817c.18-.135.585-.288 1.018-.288.873 0 1.251.576 1.251 1.558v1.882c0 .333 0 .711.045.99h-.63zm-.1-2.251c-.36 0-1.197.063-1.197 1.009 0 .567.288.774.531.774.306 0 .567-.226.648-.657.018-.081.018-.171.018-.243v-.883zm2.421-3.259v1.152h.837v.531h-.837v2.584c0 .567.207.72.459.72.108 0 .198-.009.279-.026l.027.531a1.522 1.522 0 0 1-.513.071c-.27 0-.513-.071-.684-.261-.171-.198-.261-.495-.261-1.099v-2.521h-.531V60.6h.531v-.954l.693-.197zm4.059 4.322c0 .486.027.864.036 1.188h-.603l-.044-.459h-.018c-.135.216-.468.531-.937.531-.765 0-1.062-.595-1.062-1.675v-2.755h.693v2.656c0 .684.108 1.188.585 1.188.405 0 .585-.379.621-.576.027-.117.036-.253.036-.396v-2.872h.693v3.17zm.963-2.044c0-.368-.027-.801-.036-1.125h.622l.036.685h.018c.144-.414.513-.757.918-.757.054 0 .099.01.144.01v.711c-.045-.009-.09-.009-.144-.009-.441 0-.765.404-.837.909a2.65 2.65 0 0 0-.027.396v2.413h-.693v-3.233zm2.601 1.117c.009 1.332.531 1.62 1.036 1.62.297 0 .549-.072.72-.171l.108.513c-.243.136-.612.207-.955.207-1.044 0-1.584-.854-1.584-2.188 0-1.413.594-2.296 1.468-2.296.891 0 1.242.937 1.242 1.927 0 .162 0 .279-.009.388h-2.026zm1.369-.514c.018-.873-.315-1.261-.648-1.261-.45 0-.684.667-.711 1.261h1.359zm80.909-13.517c0 2.278-.783 3.151-1.755 3.151-1.008 0-1.684-1.071-1.684-3.115 0-2.008.72-3.097 1.783-3.097 1.035.001 1.656 1.126 1.656 3.061zm-2.718.045c0 1.252.243 2.494 1.008 2.494.783 0 .99-1.323.99-2.512 0-1.135-.207-2.476-.999-2.476-.756.001-.999 1.261-.999 2.494zm3.923-1.323l.423 2.134c.081.468.18.937.234 1.387h.036c.063-.45.171-.955.27-1.369l.504-2.151h.531l.477 2.089c.108.486.207.945.279 1.432h.036c.054-.459.135-.909.234-1.404l.414-2.116h.693l-1.098 4.357h-.567l-.504-2.115a12.152 12.152 0 0 1-.243-1.306h-.018c-.072.513-.153.918-.252 1.332l-.522 2.089h-.585l-1.062-4.357h.72zm4.744 1.125c0-.513-.027-.773-.036-1.125h.603l.036.522h.018c.189-.352.54-.595.999-.595.604 0 1.054.45 1.054 1.504v2.926h-.693v-2.809c0-.514-.099-1.035-.603-1.035-.288 0-.567.243-.657.711a2.445 2.445 0 0 0-.027.387v2.746h-.693V48.66zm4.13 1.117c.009 1.332.531 1.62 1.036 1.62.297 0 .549-.072.72-.171l.108.513c-.243.136-.612.207-.955.207-1.044 0-1.584-.854-1.584-2.188 0-1.413.594-2.296 1.468-2.296.891 0 1.242.937 1.242 1.927 0 .162 0 .279-.009.388h-2.026zm1.369-.513c.018-.873-.315-1.261-.648-1.261-.45 0-.684.667-.711 1.261h1.359zm1.403-.604c0-.368-.027-.801-.036-1.125h.622l.036.685h.018c.144-.414.513-.757.918-.757.054 0 .099.01.144.01v.711c-.045-.009-.09-.009-.144-.009-.441 0-.765.404-.837.909a2.65 2.65 0 0 0-.027.396v2.413h-.693V48.66zm3.294-2.907c-.189.729-.576 1.665-.81 2.07l-.414.063c.189-.522.432-1.44.522-2.062l.702-.071zm-.09 5.42c.153.099.423.225.702.225.396 0 .639-.243.639-.63 0-.333-.117-.559-.558-.855-.567-.369-.873-.738-.873-1.242 0-.702.522-1.207 1.197-1.207.342 0 .603.117.783.226l-.189.522a1.024 1.024 0 0 0-.576-.189.534.534 0 0 0-.567.549c0 .298.108.459.54.757.504.324.9.72.9 1.323 0 .873-.594 1.296-1.305 1.296-.324 0-.675-.099-.864-.252l.171-.523zm4.185.72v-6.067h.657l1.116 2.845c.252.647.567 1.458.774 2.115h.018a45.668 45.668 0 0 1-.081-2.791v-2.169h.621v6.067h-.657l-1.152-2.917a21.766 21.766 0 0 1-.72-2.062h-.018c.054.811.072 1.585.072 2.881v2.098h-.63zm5.85 0l-.045-.459h-.027c-.189.333-.495.531-.864.531-.585 0-1.036-.495-1.036-1.242 0-1.09.874-1.576 1.854-1.585v-.135c0-.585-.144-.99-.693-.99-.27 0-.513.09-.72.225l-.153-.486c.18-.135.585-.288 1.018-.288.873 0 1.251.576 1.251 1.558v1.882c0 .333 0 .711.045.99h-.63zm-.099-2.251c-.36 0-1.197.063-1.197 1.009 0 .567.288.774.531.774.306 0 .567-.226.648-.657.018-.081.018-.171.018-.243v-.883zm1.656-.982c0-.513-.027-.773-.036-1.125h.603l.037.54h.018c.189-.351.521-.612.981-.612.405 0 .747.198.909.667h.018c.117-.217.271-.388.433-.495.171-.117.378-.172.603-.172.586 0 1.045.433 1.045 1.54v2.89h-.685v-2.728c0-.567-.081-1.116-.612-1.116-.287 0-.54.243-.639.647a2.65 2.65 0 0 0-.027.396v2.8h-.684v-2.854c0-.486-.09-.99-.604-.99-.279 0-.567.243-.648.702a2.49 2.49 0 0 0-.027.378v2.764h-.684V48.66zm6.066 1.117c.009 1.332.531 1.62 1.035 1.62.297 0 .549-.072.721-.171l.107.513c-.243.136-.612.207-.955.207-1.043 0-1.584-.854-1.584-2.188 0-1.413.594-2.296 1.468-2.296.892 0 1.242.937 1.242 1.927 0 .162 0 .279-.009.388h-2.025zm1.368-.513c.019-.873-.315-1.261-.648-1.261-.45 0-.685.667-.711 1.261h1.359zm-54.446-16.439v6.067h-.963v-6.067h.963zm.98 2.916c0-.495-.018-.846-.036-1.233h.837l.045.514h.018a1.175 1.175 0 0 1 1.036-.585c.738 0 1.125.566 1.125 1.584v2.872h-.963V36.11c0-.44-.09-.864-.513-.864-.234 0-.45.181-.541.541a1.49 1.49 0 0 0-.045.396v2.71h-.963v-3.152zm5.022-2.322v1.089h.847v.693h-.847v2.278c0 .54.208.675.45.675.108 0 .198-.009.297-.027l.018.748c-.144.045-.36.071-.63.071-.306 0-.585-.081-.774-.27-.216-.217-.324-.531-.324-1.188v-2.287h-.522v-.693h.522v-.756l.963-.333zm2.134 3.538c.009.981.459 1.251.972 1.251.324 0 .594-.071.783-.152l.144.684c-.279.126-.702.207-1.098.207-1.134 0-1.737-.819-1.737-2.179 0-1.449.693-2.331 1.629-2.331.918 0 1.386.837 1.386 2.008 0 .252-.009.396-.027.513h-2.052zm1.188-.685c.009-.702-.225-1.116-.567-1.116-.414 0-.603.604-.621 1.116h1.188zm1.583-.531c0-.404-.018-.864-.036-1.233h.837l.054.657h.027c.171-.44.531-.729.892-.729.09 0 .144.009.207.018v.954c-.063-.009-.126-.009-.207-.009-.333 0-.667.279-.774.756-.018.1-.036.253-.036.415v2.322h-.963v-3.151zm2.457 0c0-.495-.018-.846-.036-1.233h.837l.045.522h.018c.207-.333.567-.594 1.026-.594.45 0 .774.216.937.63h.018c.108-.189.27-.36.432-.468.18-.108.387-.162.612-.162.703 0 1.099.54 1.099 1.62v2.836h-.955v-2.656c0-.53-.072-.999-.495-.999-.252 0-.45.189-.531.514-.027.09-.036.216-.036.351v2.791h-.955v-2.809c0-.388-.054-.847-.486-.847-.234 0-.459.181-.54.531a2.03 2.03 0 0 0-.036.352v2.772h-.955v-3.151zm6.652 1.216c.009.981.459 1.251.972 1.251.324 0 .594-.071.783-.152l.144.684c-.279.126-.702.207-1.098.207-1.134 0-1.737-.819-1.737-2.179 0-1.449.693-2.331 1.629-2.331.918 0 1.386.837 1.386 2.008 0 .252-.009.396-.027.513h-2.052zm1.188-.685c.009-.702-.225-1.116-.567-1.116-.414 0-.603.604-.621 1.116h1.188zm4.527-3.609v5.041c0 .36.018.855.036 1.188h-.819l-.063-.522h-.027a1.022 1.022 0 0 1-.909.595c-.855 0-1.333-.928-1.333-2.251 0-1.539.666-2.277 1.377-2.277.36 0 .621.171.765.477h.018v-2.25h.955zm-.954 3.52c0-.081 0-.18-.018-.27-.036-.352-.234-.667-.522-.667-.486 0-.657.693-.657 1.477 0 .883.234 1.45.639 1.45.18 0 .405-.091.522-.55a.84.84 0 0 0 .036-.279v-1.161zm2.294-2.26c-.279 0-.504-.225-.504-.558 0-.343.234-.559.513-.559.306 0 .522.216.522.559 0 .333-.216.558-.522.558h-.009zm-.459 4.97v-4.385h.963v4.385h-.963zm4.519-.999c0 .342.009.711.054.999h-.864l-.054-.441h-.018c-.225.333-.549.514-.928.514-.63 0-1.107-.522-1.107-1.297 0-1.125.954-1.603 1.944-1.611v-.117c0-.459-.18-.774-.657-.774-.315 0-.576.091-.819.243l-.18-.657c.216-.135.675-.314 1.206-.314 1.134 0 1.422.774 1.422 1.71v1.745zm-.945-1.198c-.378.009-1.053.107-1.053.873 0 .495.261.675.477.675.243 0 .468-.162.549-.504a.857.857 0 0 0 .027-.225v-.819zm2.898-3.277v1.089h.847v.693h-.847v2.278c0 .54.208.675.45.675.108 0 .198-.009.297-.027l.018.748c-.144.045-.36.071-.63.071-.306 0-.585-.081-.774-.27-.216-.217-.324-.531-.324-1.188v-2.287h-.522v-.693h.522v-.756l.963-.333zm2.132 3.538c.009.981.459 1.251.972 1.251.324 0 .594-.071.783-.152l.144.684c-.279.126-.702.207-1.098.207-1.134 0-1.737-.819-1.737-2.179 0-1.449.693-2.331 1.629-2.331.918 0 1.386.837 1.386 2.008 0 .252-.009.396-.027.513h-2.052zm1.189-.685c.009-.702-.225-1.116-.567-1.116-.414 0-.603.604-.621 1.116h1.188zm5.309 2.531c-.135.072-.414.144-.738.144-1.044 0-1.738-.773-1.738-2.215 0-1.313.729-2.286 1.891-2.286.261 0 .513.062.63.126l-.144.766c-.099-.036-.252-.1-.468-.1-.621 0-.945.666-.945 1.477 0 .9.36 1.44.945 1.44.18 0 .333-.036.468-.099l.099.747zm1.251-1.846c.009.981.459 1.251.972 1.251.324 0 .594-.071.783-.152l.144.684c-.279.126-.702.207-1.098.207-1.134 0-1.737-.819-1.737-2.179 0-1.449.693-2.331 1.629-2.331.918 0 1.386.837 1.386 2.008 0 .252-.009.396-.027.513h-2.052zm1.189-.685c.009-.702-.225-1.116-.567-1.116-.414 0-.603.604-.621 1.116h1.188zm1.583-.531c0-.404-.018-.864-.036-1.233h.837l.054.657h.027c.171-.44.531-.729.892-.729.09 0 .144.009.207.018v.954c-.063-.009-.126-.009-.207-.009-.334 0-.667.279-.774.756-.019.1-.036.253-.036.415v2.322h-.963v-3.151zm3.798-2.322v1.089h.847v.693h-.847v2.278c0 .54.207.675.45.675.108 0 .198-.009.297-.027l.019.748a2.25 2.25 0 0 1-.631.071c-.306 0-.585-.081-.774-.27-.216-.217-.323-.531-.323-1.188v-2.287h-.522v-.693h.522v-.756l.962-.333zm1.881.504c-.279 0-.505-.225-.505-.558 0-.343.234-.559.514-.559.306 0 .522.216.522.559 0 .333-.217.558-.522.558h-.009zm-.46 4.97v-4.385h.964v4.385h-.964zm2.025 0v-3.691h-.576v-.693h.576v-.252c0-.666.369-1.665 1.792-1.665.405 0 .756.09.954.198l-.153.747a2.062 2.062 0 0 0-.783-.153c-.675 0-.846.414-.846.945v.18h2.089v4.385h-.964v-3.691h-1.125v3.691h-.964zm6.238-.09c-.135.072-.414.144-.737.144-1.045 0-1.738-.773-1.738-2.215 0-1.313.729-2.286 1.891-2.286.262 0 .514.062.631.126l-.145.766c-.099-.036-.252-.1-.468-.1-.621 0-.945.666-.945 1.477 0 .9.359 1.44.945 1.44.18 0 .333-.036.468-.099l.098.747zm3.266-.909c0 .342.01.711.055.999h-.864l-.055-.441h-.018c-.225.333-.549.514-.928.514-.63 0-1.106-.522-1.106-1.297 0-1.125.954-1.603 1.944-1.611v-.117c0-.459-.181-.774-.657-.774-.315 0-.576.091-.819.243l-.18-.657c.216-.135.675-.314 1.206-.314 1.134 0 1.422.774 1.422 1.71v1.745zm-.945-1.198c-.378.009-1.053.107-1.053.873 0 .495.261.675.477.675.243 0 .469-.162.55-.504a.859.859 0 0 0 .026-.225v-.819zm2.899-3.277v1.089h.847v.693h-.847v2.278c0 .54.207.675.45.675.108 0 .198-.009.297-.027l.019.748a2.25 2.25 0 0 1-.631.071c-.306 0-.585-.081-.774-.27-.216-.217-.323-.531-.323-1.188v-2.287h-.522v-.693h.522v-.756l.962-.333zm2.132 3.538c.01.981.459 1.251.973 1.251.324 0 .594-.071.783-.152l.144.684c-.278.126-.702.207-1.098.207-1.135 0-1.737-.819-1.737-2.179 0-1.449.692-2.331 1.629-2.331.918 0 1.387.837 1.387 2.008 0 .252-.009.396-.027.513h-2.054zm1.189-.685c.009-.702-.225-1.116-.567-1.116-.414 0-.603.604-.621 1.116h1.188zM142.25 61.994c0 2.278-.783 3.151-1.755 3.151-1.008 0-1.684-1.071-1.684-3.115 0-2.008.72-3.097 1.783-3.097 1.035.001 1.656 1.126 1.656 3.061zm-2.719.045c0 1.252.243 2.494 1.008 2.494.783 0 .99-1.323.99-2.512 0-1.135-.207-2.476-.999-2.476-.756.001-.999 1.261-.999 2.494zm3.924-1.323l.423 2.134c.081.468.18.937.234 1.387h.036c.063-.45.171-.955.27-1.369l.504-2.151h.531l.477 2.089c.108.486.207.945.279 1.432h.036c.054-.459.135-.909.234-1.404l.414-2.116h.693l-1.098 4.357h-.567l-.504-2.115a12.152 12.152 0 0 1-.243-1.306h-.018c-.072.513-.153.918-.252 1.332l-.522 2.089h-.585l-1.062-4.357h.72zm4.743 1.125c0-.513-.027-.773-.036-1.125h.603l.036.522h.018c.189-.352.54-.595.999-.595.604 0 1.054.45 1.054 1.504v2.926h-.693v-2.809c0-.514-.099-1.035-.603-1.035-.288 0-.567.243-.657.711a2.445 2.445 0 0 0-.027.387v2.746h-.693v-3.232zm4.131 1.117c.009 1.332.531 1.62 1.036 1.62.297 0 .549-.072.72-.171l.108.513c-.243.136-.612.207-.955.207-1.044 0-1.584-.854-1.584-2.188 0-1.413.594-2.296 1.468-2.296.891 0 1.242.937 1.242 1.927 0 .162 0 .279-.009.388h-2.026zm1.369-.514c.018-.873-.315-1.261-.648-1.261-.45 0-.684.667-.711 1.261h1.359zm1.403-.603c0-.368-.027-.801-.036-1.125h.622l.036.685h.018c.144-.414.513-.757.918-.757.054 0 .099.01.144.01v.711c-.045-.009-.09-.009-.144-.009-.441 0-.765.404-.837.909a2.65 2.65 0 0 0-.027.396v2.413h-.693v-3.233zm3.294-2.907c-.189.729-.576 1.665-.81 2.07l-.414.063c.189-.522.432-1.44.522-2.062l.702-.071zm-.09 5.42c.153.099.423.225.702.225.396 0 .639-.243.639-.63 0-.333-.117-.559-.558-.855-.567-.369-.873-.738-.873-1.242 0-.702.522-1.207 1.197-1.207.342 0 .603.117.783.226l-.189.522a1.024 1.024 0 0 0-.576-.189.534.534 0 0 0-.567.549c0 .298.108.459.54.757.504.324.9.72.9 1.323 0 .873-.594 1.296-1.305 1.296-.324 0-.675-.099-.864-.252l.171-.523zm4.184-5.258a4.028 4.028 0 0 1 1.008-.117c.558 0 1.026.135 1.341.45.297.288.45.729.45 1.251 0 .559-.135.937-.369 1.242-.333.45-.891.676-1.431.676-.117 0-.207 0-.306-.009v2.484h-.693v-5.977zm.694 2.907c.081.019.153.027.27.027.684 0 1.144-.45 1.144-1.306 0-.621-.261-1.179-1.026-1.179-.162 0-.297.018-.387.045v2.413zm5.374 1.882c0 .486.027.864.036 1.188h-.603l-.045-.459h-.018c-.135.216-.468.531-.937.531-.765 0-1.062-.595-1.062-1.675v-2.755h.693v2.656c0 .684.108 1.188.585 1.188.405 0 .585-.379.621-.576.027-.117.036-.253.036-.396v-2.872h.693v3.17zm.925 1.188c.009-.252.036-.747.036-1.044v-5.186h.693v2.386h.018c.225-.433.549-.586.918-.586.675 0 1.188.783 1.188 2.206 0 1.575-.648 2.296-1.323 2.296-.459 0-.693-.271-.864-.64h-.027l-.045.567h-.594zm.73-1.539c0 .099 0 .197.027.27.162.648.459.766.648.766.558 0 .756-.757.756-1.684 0-.873-.207-1.647-.765-1.647-.324 0-.594.405-.648.774-.018.099-.018.207-.018.306v1.215zm2.907-4.69h.693v6.229h-.693v-6.229zm2.465.747c.01.27-.162.45-.423.45-.225 0-.396-.181-.396-.45 0-.271.18-.45.405-.45.252 0 .414.179.414.45zm-.747 5.482v-4.357h.693v4.357h-.693zm3.78-.108c-.152.091-.414.162-.72.162-.954 0-1.594-.765-1.594-2.205 0-1.252.63-2.269 1.72-2.269.234 0 .486.062.612.135l-.136.567a1.13 1.13 0 0 0-.494-.117c-.693 0-1.009.828-1.009 1.684 0 1.017.388 1.629 1.026 1.629.189 0 .342-.045.504-.117l.091.531zm2.692-2.224h.018c.081-.171.152-.342.234-.485l.863-1.54h.748l-1.152 1.837 1.251 2.521h-.774l-.945-2.053-.242.405v1.647h-.693v-6.229h.693v3.897zm2.852.217c.009 1.332.531 1.62 1.036 1.62.297 0 .549-.072.72-.171l.108.513c-.244.136-.613.207-.955.207-1.044 0-1.584-.854-1.584-2.188 0-1.413.594-2.296 1.467-2.296.892 0 1.242.937 1.242 1.927 0 .162 0 .279-.008.388h-2.026zm1.368-.514c.019-.873-.314-1.261-.648-1.261-.449 0-.684.667-.711 1.261h1.359zm1.773-1.728l.576 2.503c.081.342.126.63.181.9h.018c.045-.243.117-.576.189-.892l.513-2.512h.685l-.711 2.8c-.271 1.099-.568 2.151-1.081 2.809-.306.388-.63.595-.783.667l-.252-.595c.198-.107.414-.297.612-.549.18-.226.324-.522.396-.729a.632.632 0 0 0 .045-.216c0-.054 0-.108-.019-.162l-1.099-4.024h.73zm-47.271 10.995v6.067h-.693v-6.067h.693zm.9 5.348c.153.099.423.225.702.225.396 0 .639-.243.639-.63 0-.333-.117-.559-.558-.855-.567-.369-.873-.738-.873-1.242 0-.702.522-1.207 1.197-1.207.342 0 .603.117.783.226l-.189.522a1.024 1.024 0 0 0-.576-.189.534.534 0 0 0-.567.549c0 .298.108.459.54.757.504.324.9.72.9 1.323 0 .873-.594 1.296-1.305 1.296-.324 0-.675-.099-.864-.252l.171-.523zm2.6 0c.153.099.423.225.702.225.396 0 .639-.243.639-.63 0-.333-.117-.559-.558-.855-.567-.369-.873-.738-.873-1.242 0-.702.522-1.207 1.197-1.207.342 0 .603.117.783.226l-.189.522a1.024 1.024 0 0 0-.576-.189.534.534 0 0 0-.567.549c0 .298.108.459.54.757.504.324.9.72.9 1.323 0 .873-.594 1.296-1.305 1.296-.324 0-.675-.099-.864-.252l.171-.523zm5.329-.469c0 .486.027.864.036 1.188h-.603l-.045-.459h-.018c-.135.216-.468.531-.937.531-.765 0-1.062-.595-1.062-1.675V73.42h.693v2.656c0 .684.108 1.188.585 1.188.405 0 .585-.379.621-.576.027-.117.036-.253.036-.396V73.42h.693v3.17zm1.457-.927c.009 1.332.531 1.62 1.036 1.62.297 0 .549-.072.72-.171l.108.513c-.243.136-.612.207-.955.207-1.044 0-1.584-.854-1.584-2.188 0-1.413.594-2.296 1.468-2.296.891 0 1.242.937 1.242 1.927 0 .162 0 .279-.009.388h-2.026zm1.369-.514c.018-.873-.315-1.261-.648-1.261-.45 0-.684.667-.711 1.261h1.359zm1.403-.603c0-.368-.027-.801-.036-1.125h.622l.036.685h.018c.144-.414.513-.757.918-.757.054 0 .099.01.144.01v.711c-.045-.009-.09-.009-.144-.009-.441 0-.765.404-.837.909a2.65 2.65 0 0 0-.027.396v2.413h-.693v-3.233zm3.294-2.907c-.189.729-.576 1.665-.81 2.07l-.414.063c.189-.522.432-1.44.522-2.062l.702-.071zm-.09 5.42c.153.099.423.225.702.225.396 0 .639-.243.639-.63 0-.333-.117-.559-.558-.855-.567-.369-.873-.738-.873-1.242 0-.702.522-1.207 1.197-1.207.342 0 .603.117.783.226l-.189.522a1.024 1.024 0 0 0-.576-.189.534.534 0 0 0-.567.549c0 .298.108.459.54.757.504.324.9.72.9 1.323 0 .873-.594 1.296-1.305 1.296-.324 0-.675-.099-.864-.252l.171-.523zm5.697-5.51c-.513.81-.937 2.025-.937 3.664 0 1.611.423 2.826.937 3.646h-.54c-.468-.684-.991-1.891-.991-3.655.018-1.764.522-2.979.991-3.654h.54zm3.232 6.121c-.189.1-.486.162-.864.162-1.188 0-2.035-.954-2.035-3.016 0-2.395 1.188-3.16 2.143-3.16.369 0 .63.072.756.153l-.153.585a1.339 1.339 0 0 0-.612-.126c-.648 0-1.405.63-1.405 2.485 0 1.854.685 2.466 1.423 2.466.261 0 .495-.062.639-.135l.108.586zm1.493-1.71l-.405 1.818h-.666l1.386-6.067h.765l1.351 6.067h-.684l-.405-1.818h-1.342zm1.251-.559l-.315-1.539c-.09-.433-.171-.937-.243-1.387h-.036c-.072.459-.162.981-.243 1.387l-.315 1.539h1.152zm1.557 3.457c.513-.81.936-2.043.936-3.664 0-1.62-.423-2.836-.936-3.646h.54c.468.666.99 1.863.99 3.646-.018 1.783-.522 2.971-.99 3.664h-.54zm4.004-1.08v-6.067h.657l1.116 2.845c.252.647.567 1.458.774 2.115h.019a44.854 44.854 0 0 1-.082-2.791v-2.169h.621v6.067h-.656l-1.153-2.917a21.766 21.766 0 0 1-.72-2.062h-.018c.054.811.072 1.585.072 2.881v2.098h-.63zm5.851 0l-.045-.459h-.026c-.189.333-.496.531-.865.531-.585 0-1.035-.495-1.035-1.242 0-1.09.873-1.576 1.854-1.585v-.135c0-.585-.144-.99-.692-.99-.271 0-.514.09-.721.225l-.153-.486c.181-.135.585-.288 1.018-.288.873 0 1.251.576 1.251 1.558v1.882c0 .333 0 .711.045.99h-.631zm-.099-2.251c-.36 0-1.197.063-1.197 1.009 0 .567.287.774.531.774.306 0 .566-.226.647-.657.019-.081.019-.171.019-.243v-.883zm1.656-.981c0-.513-.027-.773-.036-1.125h.604l.035.54h.019c.188-.351.522-.612.981-.612.404 0 .747.198.909.667h.019a1.36 1.36 0 0 1 .432-.495c.171-.117.378-.172.604-.172.584 0 1.044.433 1.044 1.54v2.89h-.685v-2.728c0-.567-.081-1.116-.611-1.116-.289 0-.541.243-.64.647a2.524 2.524 0 0 0-.027.396v2.8h-.685v-2.854c0-.486-.09-.99-.603-.99-.279 0-.567.243-.648.702a2.371 2.371 0 0 0-.026.378v2.764h-.685v-3.232zM187 75.663c.01 1.332.531 1.62 1.036 1.62.297 0 .549-.072.72-.171l.108.513c-.243.136-.612.207-.954.207-1.045 0-1.585-.854-1.585-2.188 0-1.413.595-2.296 1.468-2.296.891 0 1.242.937 1.242 1.927 0 .162 0 .279-.009.388H187zm1.369-.514c.018-.873-.315-1.261-.648-1.261-.45 0-.684.667-.711 1.261h1.359zm-46.966 9.743v6.067h-.693v-6.067h.693zm.9 5.347c.153.099.423.225.702.225.396 0 .639-.243.639-.63 0-.333-.117-.559-.558-.855-.567-.369-.873-.738-.873-1.242 0-.702.522-1.207 1.197-1.207.342 0 .603.117.783.226l-.189.522a1.024 1.024 0 0 0-.576-.189.534.534 0 0 0-.567.549c0 .298.108.459.54.757.504.324.9.72.9 1.323 0 .873-.594 1.296-1.305 1.296-.324 0-.675-.099-.864-.252l.171-.523zm2.601 0c.153.099.423.225.702.225.396 0 .639-.243.639-.63 0-.333-.117-.559-.558-.855-.567-.369-.873-.738-.873-1.242 0-.702.522-1.207 1.197-1.207.342 0 .603.117.783.226l-.189.522a1.024 1.024 0 0 0-.576-.189.534.534 0 0 0-.567.549c0 .298.108.459.54.757.504.324.9.72.9 1.323 0 .873-.594 1.296-1.305 1.296-.324 0-.675-.099-.864-.252l.171-.523zm5.328-.468c0 .486.027.864.036 1.188h-.603l-.045-.459h-.018c-.135.216-.468.531-.937.531-.765 0-1.062-.595-1.062-1.675v-2.755h.693v2.656c0 .684.108 1.188.585 1.188.405 0 .585-.379.621-.576.027-.117.036-.253.036-.396v-2.872h.693v3.17zm1.458-.927c.009 1.332.531 1.62 1.036 1.62.297 0 .549-.072.72-.171l.108.513c-.243.136-.612.207-.955.207-1.044 0-1.584-.854-1.584-2.188 0-1.413.594-2.296 1.468-2.296.891 0 1.242.937 1.242 1.927 0 .162 0 .279-.009.388h-2.026zm1.369-.514c.018-.873-.315-1.261-.648-1.261-.45 0-.684.667-.711 1.261h1.359zm1.402-.603c0-.368-.027-.801-.036-1.125h.622l.036.685h.018c.144-.414.513-.757.918-.757.054 0 .099.01.144.01v.711c-.045-.009-.09-.009-.144-.009-.441 0-.765.404-.837.909a2.65 2.65 0 0 0-.027.396v2.413h-.693v-3.233zm3.295-2.908c-.189.729-.576 1.665-.81 2.07l-.414.063c.189-.522.432-1.44.522-2.062l.702-.071zm-.09 5.42c.153.099.423.225.702.225.396 0 .639-.243.639-.63 0-.333-.117-.559-.558-.855-.567-.369-.873-.738-.873-1.242 0-.702.522-1.207 1.197-1.207.342 0 .603.117.783.226l-.189.522a1.024 1.024 0 0 0-.576-.189.534.534 0 0 0-.567.549c0 .298.108.459.54.757.504.324.9.72.9 1.323 0 .873-.594 1.296-1.305 1.296-.324 0-.675-.099-.864-.252l.171-.523zm4.049-.081c.207.135.567.242.873.242.63 0 1.008-.414 1.008-1.026 0-.558-.324-.899-.801-1.26-.477-.333-1.143-.9-1.143-1.684 0-.918.639-1.594 1.603-1.594.378 0 .711.117.855.226l-.171.594a1.276 1.276 0 0 0-.72-.207c-.594 0-.874.45-.874.864 0 .604.315.837.892 1.252.729.513 1.053 1.071 1.053 1.746 0 1.044-.738 1.701-1.702 1.701-.414 0-.855-.135-1.026-.261l.153-.593zm4.104-4.681c.009.27-.162.45-.423.45-.225 0-.396-.181-.396-.45 0-.271.18-.45.405-.45.252-.001.414.179.414.45zm-.747 5.482v-4.357h.693v4.357h-.693zm4.321-4.357c-.009.307-.036.693-.036 1.359V90.4c0 1.144-.144 1.576-.432 1.891-.261.298-.675.469-1.161.469-.369 0-.729-.09-.954-.216l.162-.541c.171.091.459.189.811.189.549 0 .891-.342.891-1.332v-.441h-.018a.886.886 0 0 1-.837.531c-.774 0-1.279-.873-1.279-2.152 0-1.602.729-2.269 1.369-2.269.468 0 .684.307.81.567h.018l.036-.495h.62zm-.72 1.503a1.16 1.16 0 0 0-.036-.315c-.081-.297-.234-.666-.63-.666-.504 0-.774.675-.774 1.639 0 1.116.351 1.62.774 1.62.207 0 .477-.099.621-.621.036-.135.045-.271.045-.396v-1.261zm1.646-.378c0-.513-.027-.773-.036-1.125h.603l.036.522h.018c.189-.352.54-.595.999-.595.604 0 1.054.45 1.054 1.504v2.926h-.693V88.15c0-.514-.099-1.035-.603-1.035-.288 0-.567.243-.657.711a2.445 2.445 0 0 0-.027.387v2.746h-.693v-3.232zm5.365 3.232l-.045-.459h-.027c-.188.333-.495.531-.864.531-.585 0-1.036-.495-1.036-1.242 0-1.09.874-1.576 1.854-1.585v-.135c0-.585-.144-.99-.693-.99-.27 0-.513.09-.72.225l-.153-.487c.18-.135.585-.288 1.018-.288.873 0 1.252.576 1.252 1.558v1.882c0 .333 0 .711.045.99h-.631zm-.1-2.251c-.359 0-1.197.063-1.197 1.009 0 .567.288.774.531.774.306 0 .568-.226.648-.657.018-.081.018-.171.018-.243v-.883zm2.422-3.259v1.152h.836v.531h-.836v2.584c0 .567.207.72.459.72.107 0 .197-.009.279-.026l.026.531a1.522 1.522 0 0 1-.513.071c-.271 0-.514-.071-.685-.261-.171-.198-.261-.495-.261-1.099v-2.521h-.531V86.6h.531v-.954l.695-.197zm4.058 4.322c0 .486.027.864.036 1.188h-.603l-.045-.459h-.019c-.136.216-.468.531-.937.531-.766 0-1.062-.595-1.062-1.675v-2.755h.693v2.656c0 .684.108 1.188.586 1.188.404 0 .584-.379.621-.576a1.87 1.87 0 0 0 .035-.396v-2.872h.693v3.17zm.963-2.044c0-.368-.027-.801-.037-1.125h.622l.036.685h.018c.145-.414.514-.757.918-.757.055 0 .1.01.145.01v.711c-.045-.009-.09-.009-.145-.009-.441 0-.765.404-.837.909a2.53 2.53 0 0 0-.026.396v2.413h-.693v-3.233zm2.601 1.117c.009 1.332.531 1.62 1.036 1.62.297 0 .549-.072.72-.171l.108.513c-.244.136-.613.207-.955.207-1.044 0-1.584-.854-1.584-2.188 0-1.413.594-2.296 1.467-2.296.892 0 1.242.937 1.242 1.927 0 .162 0 .279-.008.388h-2.026zm1.368-.514c.019-.873-.314-1.261-.648-1.261-.449 0-.684.667-.711 1.261h1.359zm29.275-22.226c.01.27-.162.45-.423.45-.226 0-.396-.181-.396-.45 0-.271.18-.45.404-.45.253 0 .415.18.415.45zm-.746 5.482v-4.357h.692v4.357h-.692zm1.538-.719c.153.099.423.225.702.225.396 0 .639-.243.639-.63 0-.333-.117-.559-.558-.855-.567-.369-.873-.738-.873-1.242 0-.702.522-1.207 1.197-1.207.342 0 .603.117.783.226l-.188.522a1.026 1.026 0 0 0-.576-.189c-.379 0-.568.271-.568.549 0 .298.108.459.541.757.504.324.9.72.9 1.323 0 .873-.595 1.296-1.306 1.296-.324 0-.675-.099-.864-.252l.171-.523zm2.601 0c.153.099.424.225.703.225.396 0 .639-.243.639-.63 0-.333-.117-.559-.559-.855-.566-.369-.873-.738-.873-1.242 0-.702.522-1.207 1.197-1.207.342 0 .604.117.783.226l-.188.522a1.024 1.024 0 0 0-.576-.189.534.534 0 0 0-.567.549c0 .298.107.459.54.757.505.324.9.72.9 1.323 0 .873-.595 1.296-1.306 1.296-.324 0-.675-.099-.863-.252l.17-.523zm5.328-.469c0 .486.027.864.037 1.188h-.604l-.045-.459h-.018c-.136.216-.469.531-.938.531-.765 0-1.062-.595-1.062-1.675v-2.755h.692v2.656c0 .684.109 1.188.586 1.188.405 0 .585-.379.621-.576.027-.117.036-.253.036-.396v-2.872h.692v3.17zm1.458-.927c.009 1.332.531 1.62 1.036 1.62.297 0 .549-.072.72-.171l.108.513c-.244.136-.613.207-.955.207-1.044 0-1.584-.854-1.584-2.188 0-1.413.594-2.296 1.467-2.296.892 0 1.242.937 1.242 1.927 0 .162 0 .279-.008.388h-2.026zm1.368-.513c.019-.873-.314-1.261-.648-1.261-.449 0-.684.667-.711 1.261h1.359zm1.405-.604c0-.368-.027-.801-.037-1.125h.622l.036.685h.018c.145-.414.514-.757.918-.757.055 0 .1.01.145.01v.711c-.045-.009-.09-.009-.145-.009-.441 0-.765.404-.837.909a2.53 2.53 0 0 0-.026.396v2.413h-.693v-3.233zM213.95 91.229l.549 2.449c.063.297.136.684.189 1.062h.026c.045-.359.117-.729.181-1.062l.54-2.449h.684l-1.134 4.357h-.621l-1.134-4.357h.72zm3.141 2.242c.009 1.332.531 1.62 1.036 1.62.297 0 .549-.072.72-.171l.108.513c-.244.136-.613.207-.955.207-1.044 0-1.584-.854-1.584-2.188 0-1.413.594-2.296 1.467-2.296.892 0 1.242.937 1.242 1.927 0 .162 0 .279-.008.388h-2.026zm1.368-.513c.019-.873-.314-1.261-.648-1.261-.449 0-.684.667-.711 1.261h1.359zm1.404-.604c0-.368-.027-.801-.037-1.125h.622l.036.685h.018c.145-.414.514-.757.918-.757.055 0 .1.01.145.01v.711c-.045-.009-.09-.009-.145-.009-.441 0-.765.404-.837.909a2.53 2.53 0 0 0-.026.396v2.413h-.693v-3.233zm2.989-2.25c.008.27-.162.45-.424.45-.225 0-.396-.181-.396-.45 0-.271.181-.45.406-.45.251 0 .414.18.414.45zm-.748 5.482v-4.357h.693v4.357h-.693zm1.8 0V91.76h-.55v-.531h.55v-.288c0-.774.377-1.656 1.584-1.656.369 0 .693.107.855.207l-.153.54a1.721 1.721 0 0 0-.72-.171c-.703 0-.874.486-.874 1.152v.216h1.954v4.357h-.693V91.76h-1.261v3.826h-.692zm4.104-2.115c.01 1.332.531 1.62 1.035 1.62.297 0 .549-.072.721-.171l.107.513c-.242.136-.611.207-.954.207-1.044 0-1.585-.854-1.585-2.188 0-1.413.595-2.296 1.469-2.296.891 0 1.242.937 1.242 1.927 0 .162 0 .279-.01.388h-2.025zm1.369-.513c.018-.873-.316-1.261-.648-1.261-.451 0-.685.667-.711 1.261h1.359zm1.295 1.909c.152.099.422.225.701.225.396 0 .64-.243.64-.63 0-.333-.117-.559-.558-.855-.568-.369-.873-.738-.873-1.242 0-.702.521-1.207 1.197-1.207.342 0 .603.117.783.226l-.189.522a1.026 1.026 0 0 0-.576-.189.533.533 0 0 0-.567.549c0 .298.108.459.54.757.504.324.9.72.9 1.323 0 .873-.594 1.296-1.305 1.296-.324 0-.676-.099-.865-.252l.172-.523zm109.268-9.966l-2.449.549a16.78 16.78 0 0 1-1.062.189v.027c.359.045.729.117 1.062.18l2.449.54v.684l-4.357-1.134v-.621l4.357-1.134v.72zm-2.242 3.141c-1.332.009-1.62.531-1.62 1.036 0 .297.072.549.171.72l-.513.108c-.136-.243-.207-.612-.207-.955 0-1.044.854-1.584 2.188-1.584 1.413 0 2.296.594 2.296 1.468 0 .891-.937 1.242-1.927 1.242-.162 0-.279 0-.388-.009v-2.026zm.514 1.369c.873.018 1.261-.315 1.261-.648 0-.45-.667-.684-1.261-.711v1.359zm.603 1.403c.368 0 .801-.027 1.125-.036v.622l-.685.036v.018c.414.144.757.513.757.918 0 .054-.01.099-.01.144h-.711c.009-.045.009-.09.009-.144 0-.441-.404-.765-.909-.837a2.65 2.65 0 0 0-.396-.027h-2.413v-.693h3.233zm-3.232 2.241h4.357v.693h-4.357v-.693zm5.482.747c-.27.009-.45-.162-.45-.423 0-.225.181-.396.45-.396.271 0 .45.18.45.405.001.252-.179.414-.45.414zm-5.482 1.053h3.826v-.549h.531v.549h.288c.774 0 1.656.378 1.656 1.584 0 .369-.107.693-.207.855l-.54-.153c.072-.153.171-.414.171-.72 0-.702-.486-.874-1.152-.874h-.216v1.954h-4.357v-.693h3.826v-1.261h-3.826v-.692zm2.115 4.104c-1.332.009-1.62.531-1.62 1.036 0 .297.072.549.171.72l-.513.108c-.136-.243-.207-.612-.207-.955 0-1.044.854-1.584 2.188-1.584 1.413 0 2.296.594 2.296 1.468 0 .891-.937 1.242-1.927 1.242-.162 0-.279 0-.388-.009v-2.026zm.514 1.369c.873.018 1.261-.315 1.261-.648 0-.45-.667-.684-1.261-.711v1.359zm-1.909 1.295a1.379 1.379 0 0 0-.225.702c0 .396.243.639.63.639.333 0 .559-.117.855-.558.369-.567.738-.873 1.242-.873.702 0 1.207.522 1.207 1.197 0 .342-.117.603-.226.783l-.522-.189c.108-.162.189-.351.189-.576a.534.534 0 0 0-.549-.567c-.298 0-.459.108-.757.54-.324.504-.72.9-1.323.9-.873 0-1.296-.594-1.296-1.305 0-.324.099-.675.252-.864l.523.171zm-67.858-30.414a3.952 3.952 0 0 1 1-.117c.603 0 1.053.126 1.367.432.298.307.424.712.424 1.188 0 .774-.36 1.278-.973 1.558v.019c.45.135.685.566.819 1.359.136.837.261 1.35.343 1.539h-.703c-.09-.18-.207-.756-.324-1.504-.135-.828-.396-1.143-.99-1.143h-.27v2.646h-.693v-5.977zm.694 2.799h.288c.666 0 1.107-.486 1.107-1.216 0-.702-.288-1.134-1.036-1.144-.135 0-.27.01-.359.036v2.324zm5.607.999c0 1.684-.783 2.251-1.449 2.251-.783 0-1.414-.712-1.414-2.242 0-1.593.712-2.26 1.459-2.26.774 0 1.404.73 1.404 2.251zm-2.17 0c0 .721.127 1.701.757 1.701.595 0 .711-1.026.711-1.701 0-.666-.116-1.692-.729-1.692-.622 0-.739 1.026-.739 1.692zm5.617 0c0 1.684-.783 2.251-1.449 2.251-.783 0-1.414-.712-1.414-2.242 0-1.593.711-2.26 1.459-2.26.773 0 1.404.73 1.404 2.251zm-2.17 0c0 .721.126 1.701.756 1.701.595 0 .711-1.026.711-1.701 0-.666-.116-1.692-.729-1.692-.62 0-.738 1.026-.738 1.692zm3.789-3.331v1.152h.837v.531h-.837v2.584c0 .567.207.72.459.72.107 0 .198-.009.279-.026l.027.531a1.532 1.532 0 0 1-.514.071c-.27 0-.514-.071-.684-.261-.172-.198-.262-.495-.262-1.099V73.36h-.531v-.531h.531v-.954l.695-.199zm2.917 5.51v-6.067h.656l1.117 2.845c.252.647.566 1.458.773 2.115h.019a45.668 45.668 0 0 1-.081-2.791v-2.169h.621v6.067h-.657l-1.152-2.917a21.766 21.766 0 0 1-.72-2.062h-.019c.054.811.072 1.585.072 2.881v2.098h-.629zm5.849 0l-.045-.459h-.026c-.189.333-.495.531-.864.531-.586 0-1.035-.495-1.035-1.242 0-1.09.873-1.576 1.854-1.585v-.135c0-.585-.145-.99-.693-.99-.271 0-.513.09-.72.225l-.154-.486c.181-.135.586-.288 1.018-.288.873 0 1.252.576 1.252 1.558v1.882c0 .333 0 .711.045.99h-.632zm-.099-2.251c-.36 0-1.197.063-1.197 1.009 0 .567.288.774.531.774.306 0 .567-.226.648-.657.018-.081.018-.171.018-.243v-.883zm1.656-.981c0-.513-.027-.773-.035-1.125h.603l.036.54h.018c.189-.351.522-.612.981-.612.405 0 .747.198.909.667h.019c.116-.217.271-.388.433-.495.17-.117.377-.172.603-.172.585 0 1.044.433 1.044 1.54v2.89h-.684v-2.728c0-.567-.082-1.116-.612-1.116-.288 0-.54.243-.64.647a2.65 2.65 0 0 0-.027.396v2.8h-.684v-2.854c0-.486-.09-.99-.604-.99-.279 0-.566.243-.648.702a2.494 2.494 0 0 0-.026.378v2.764h-.685v-3.232zm6.066 1.117c.01 1.332.531 1.62 1.035 1.62.297 0 .549-.072.721-.171l.107.513c-.242.136-.611.207-.954.207-1.044 0-1.585-.854-1.585-2.188 0-1.413.595-2.296 1.469-2.296.891 0 1.242.937 1.242 1.927 0 .162 0 .279-.01.388h-2.025zm1.369-.514c.018-.873-.316-1.261-.648-1.261-.451 0-.685.667-.711 1.261h1.359zm-50.838-16.348a5.144 5.144 0 0 1 1.152-.117c.629 0 1.152.108 1.503.441.342.324.459.729.459 1.233 0 .702-.342 1.251-.954 1.53v.018c.432.153.648.559.773 1.278.127.738.271 1.387.369 1.594h-.998c-.072-.171-.207-.766-.307-1.477-.117-.792-.342-1.044-.828-1.044h-.217v2.521h-.953v-5.977zm.954 2.718h.252c.576 0 .938-.45.938-1.071 0-.595-.244-.999-.865-1.009-.125 0-.242.01-.324.036v2.044zm4.337 3.331c-.927 0-1.566-.774-1.566-2.251 0-1.594.783-2.277 1.604-2.277.918 0 1.548.801 1.548 2.25 0 1.773-.918 2.278-1.575 2.278h-.011zm.038-.738c.477 0 .584-.864.584-1.53 0-.64-.107-1.521-.603-1.521-.522 0-.621.882-.621 1.521 0 .738.126 1.53.63 1.53h.01zm3.653.738c-.927 0-1.566-.774-1.566-2.251 0-1.594.783-2.277 1.603-2.277.918 0 1.549.801 1.549 2.25 0 1.773-.918 2.278-1.576 2.278h-.01zm.036-.738c.477 0 .585-.864.585-1.53 0-.64-.108-1.521-.603-1.521-.522 0-.621.882-.621 1.521 0 .738.125 1.53.63 1.53h.009zm3.41-4.808v1.089h.848v.693h-.848v2.278c0 .54.208.675.451.675a1.6 1.6 0 0 0 .297-.027l.018.748a2.238 2.238 0 0 1-.63.071c-.306 0-.585-.081-.774-.27-.216-.217-.324-.531-.324-1.188v-2.287h-.521v-.693h.521v-.756l.962-.333zm5.725 5.375c-.18.09-.494.152-.891.152-1.387 0-2.179-1.134-2.179-3.007 0-2.331 1.233-3.169 2.313-3.169.396 0 .676.081.793.153l-.181.819a1.137 1.137 0 0 0-.576-.126c-.657 0-1.332.603-1.332 2.26 0 1.629.612 2.215 1.341 2.215.226 0 .451-.055.595-.108l.117.811zm1.629-1.476l-.324 1.575h-.937l1.351-6.067h1.125l1.252 6.067h-.937l-.324-1.575h-1.206zm1.107-.757l-.252-1.396c-.082-.396-.162-.954-.226-1.377h-.026a41.23 41.23 0 0 1-.226 1.387l-.271 1.386h1.001zm5.705 2.242c-.135.072-.414.144-.737.144-1.044 0-1.737-.773-1.737-2.215 0-1.313.729-2.286 1.891-2.286.261 0 .513.062.63.126l-.144.766c-.1-.036-.253-.1-.469-.1-.621 0-.945.666-.945 1.477 0 .9.359 1.44.945 1.44.18 0 .333-.036.469-.099l.097.747zm1.251-1.845c.009.981.459 1.251.972 1.251.324 0 .595-.071.783-.152l.145.684c-.279.126-.702.207-1.098.207-1.135 0-1.738-.819-1.738-2.179 0-1.449.693-2.331 1.63-2.331.918 0 1.386.837 1.386 2.008 0 .252-.008.396-.026.513h-2.054zm1.189-.685c.009-.702-.225-1.116-.567-1.116-.414 0-.603.604-.621 1.116h1.188zm1.583-.531c0-.404-.018-.864-.036-1.233h.838l.054.657h.026c.172-.44.531-.729.893-.729.09 0 .144.009.207.018v.954c-.063-.009-.127-.009-.207-.009-.334 0-.667.279-.775.756-.018.1-.035.253-.035.415v2.322h-.964v-3.151zm3.797-2.323v1.089h.848v.693h-.848v2.278c0 .54.208.675.451.675a1.6 1.6 0 0 0 .297-.027l.018.748a2.238 2.238 0 0 1-.63.071c-.306 0-.585-.081-.774-.27-.216-.217-.324-.531-.324-1.188v-2.287h-.521v-.693h.521v-.756l.962-.333zm1.882.504c-.279 0-.505-.225-.505-.558 0-.343.234-.559.514-.559.307 0 .522.216.522.559 0 .333-.216.558-.522.558h-.009zm-.46 4.97v-4.385h.964v4.385h-.964zm2.026 0v-3.691h-.576v-.693h.576v-.252c0-.666.369-1.665 1.791-1.665.406 0 .757.09.955.198l-.153.747a2.066 2.066 0 0 0-.783-.153c-.675 0-.847.414-.847.945v.18h2.089v4.385h-.963v-3.691h-1.126v3.691h-.963zm6.237-.09c-.135.072-.414.144-.737.144-1.045 0-1.738-.773-1.738-2.215 0-1.313.729-2.286 1.891-2.286.262 0 .514.062.631.126l-.145.766c-.1-.036-.252-.1-.469-.1-.621 0-.945.666-.945 1.477 0 .9.36 1.44.945 1.44.181 0 .334-.036.469-.099l.098.747zm3.267-.909c0 .342.01.711.055.999h-.864l-.054-.441h-.019c-.225.333-.549.514-.927.514-.631 0-1.107-.522-1.107-1.297 0-1.125.954-1.603 1.944-1.611v-.117c0-.459-.181-.774-.657-.774-.314 0-.576.091-.819.243l-.18-.657c.216-.135.675-.314 1.206-.314 1.135 0 1.422.774 1.422 1.71v1.745zm-.946-1.197c-.377.009-1.053.107-1.053.873 0 .495.262.675.477.675.244 0 .469-.162.55-.504a.818.818 0 0 0 .026-.225v-.819zm2.899-3.278v1.089h.847v.693h-.847v2.278c0 .54.207.675.45.675.108 0 .198-.009.298-.027l.018.748a2.25 2.25 0 0 1-.631.071c-.306 0-.584-.081-.773-.27-.217-.217-.324-.531-.324-1.188v-2.287h-.522v-.693h.522v-.756l.962-.333zm2.133 3.539c.009.981.459 1.251.973 1.251.324 0 .594-.071.783-.152l.144.684c-.278.126-.702.207-1.099.207-1.134 0-1.736-.819-1.736-2.179 0-1.449.692-2.331 1.629-2.331.918 0 1.387.837 1.387 2.008 0 .252-.01.396-.027.513h-2.054zm1.188-.685c.009-.702-.226-1.116-.567-1.116-.414 0-.604.604-.621 1.116h1.188zm-36.583 22.823a3.952 3.952 0 0 1 1-.117c.603 0 1.053.126 1.367.432.298.307.424.712.424 1.188 0 .774-.36 1.278-.973 1.558v.019c.45.135.685.566.819 1.359.136.837.261 1.35.343 1.539h-.703c-.09-.18-.207-.756-.324-1.504-.135-.828-.396-1.143-.99-1.143h-.27v2.646h-.693v-5.977zm.693 2.8h.288c.666 0 1.107-.486 1.107-1.216 0-.702-.288-1.134-1.036-1.144-.135 0-.27.01-.359.036v2.324zm5.608.999c0 1.684-.783 2.251-1.449 2.251-.783 0-1.414-.712-1.414-2.242 0-1.593.712-2.26 1.459-2.26.774 0 1.404.73 1.404 2.251zm-2.17 0c0 .721.127 1.701.757 1.701.595 0 .711-1.026.711-1.701 0-.666-.116-1.692-.729-1.692-.622 0-.739 1.026-.739 1.692zm5.617 0c0 1.684-.783 2.251-1.449 2.251-.783 0-1.414-.712-1.414-2.242 0-1.593.711-2.26 1.459-2.26.773 0 1.404.73 1.404 2.251zm-2.17 0c0 .721.126 1.701.756 1.701.595 0 .711-1.026.711-1.701 0-.666-.116-1.692-.729-1.692-.621 0-.738 1.026-.738 1.692zm3.789-3.331v1.152h.837v.531h-.837v2.584c0 .567.207.72.459.72.107 0 .198-.009.279-.026l.027.531a1.532 1.532 0 0 1-.514.071c-.27 0-.514-.071-.684-.261-.172-.198-.262-.495-.262-1.099v-2.521h-.531v-.531h.531v-.954l.695-.197zm2.916-.468a4.022 4.022 0 0 1 1.008-.117c.559 0 1.026.135 1.342.45.297.288.449.729.449 1.251 0 .559-.135.937-.369 1.242-.332.45-.891.676-1.431.676-.117 0-.207 0-.306-.009v2.484h-.693v-5.977zm.694 2.907c.08.019.152.027.27.027.684 0 1.144-.45 1.144-1.306 0-.621-.261-1.179-1.026-1.179-.162 0-.297.018-.387.045v2.413zm5.373 1.882c0 .486.027.864.036 1.188h-.603l-.045-.459h-.019c-.136.216-.468.531-.937.531-.766 0-1.062-.595-1.062-1.675v-2.755h.693v2.656c0 .684.108 1.188.586 1.188.404 0 .584-.379.621-.576a1.87 1.87 0 0 0 .035-.396v-2.872h.693v3.17zm.925 1.189c.01-.252.036-.747.036-1.044v-5.186h.693v2.386h.019c.225-.433.549-.586.918-.586.675 0 1.188.783 1.188 2.206 0 1.575-.647 2.296-1.322 2.296-.46 0-.693-.271-.865-.64h-.026l-.046.567h-.595zm.73-1.539c0 .099 0 .197.026.27.162.648.46.766.648.766.559 0 .756-.757.756-1.684 0-.873-.207-1.647-.765-1.647-.324 0-.595.405-.647.774-.019.099-.019.207-.019.306v1.215zm2.907-4.691h.693v6.229h-.693v-6.229zm2.466.747c.009.27-.162.45-.423.45-.226 0-.396-.181-.396-.45 0-.271.18-.45.405-.45.252 0 .414.18.414.45zm-.747 5.483V86.01h.693v4.357h-.693zm3.78-.109c-.153.091-.414.162-.72.162-.955 0-1.594-.765-1.594-2.205 0-1.252.63-2.269 1.719-2.269.234 0 .486.062.613.135l-.136.567a1.134 1.134 0 0 0-.495-.117c-.693 0-1.008.828-1.008 1.684 0 1.017.387 1.629 1.025 1.629.189 0 .343-.045.505-.117l.091.531zm2.691-2.223h.018c.082-.171.153-.342.234-.485l.864-1.54h.747l-1.152 1.837 1.252 2.521h-.774l-.945-2.053-.243.405v1.647h-.693v-6.229h.693v3.897zm2.853.216c.009 1.332.531 1.62 1.035 1.62.297 0 .549-.072.721-.171l.107.513c-.243.136-.612.207-.955.207-1.043 0-1.584-.854-1.584-2.188 0-1.413.594-2.296 1.468-2.296.892 0 1.242.937 1.242 1.927 0 .162 0 .279-.009.388h-2.025zm1.368-.513c.019-.873-.315-1.261-.648-1.261-.45 0-.685.667-.711 1.261h1.359zm1.773-1.729l.576 2.503c.08.342.125.63.18.9h.018c.045-.243.117-.576.189-.892l.514-2.512h.684l-.711 2.8c-.271 1.099-.567 2.151-1.08 2.809-.307.388-.631.595-.783.667l-.252-.595a2.09 2.09 0 0 0 .611-.549c.18-.226.324-.522.396-.729a.609.609 0 0 0 .045-.216c0-.054 0-.108-.018-.162l-1.099-4.024h.73zm-38.592 11.085a3.952 3.952 0 0 1 1-.117c.603 0 1.053.126 1.367.432.298.307.424.712.424 1.188 0 .774-.36 1.278-.973 1.558v.019c.45.135.685.566.819 1.359.136.837.261 1.35.343 1.539h-.703c-.09-.18-.207-.756-.324-1.504-.135-.828-.396-1.143-.99-1.143h-.27v2.646h-.693v-5.977zm.693 2.8h.288c.666 0 1.107-.486 1.107-1.216 0-.702-.288-1.134-1.036-1.144-.135 0-.27.01-.359.036v2.324zm5.608.999c0 1.684-.783 2.251-1.449 2.251-.783 0-1.414-.712-1.414-2.242 0-1.593.712-2.26 1.459-2.26.774 0 1.404.73 1.404 2.251zm-2.17 0c0 .721.127 1.701.757 1.701.595 0 .711-1.026.711-1.701 0-.666-.116-1.692-.729-1.692-.622 0-.739 1.026-.739 1.692zm5.617 0c0 1.684-.783 2.251-1.449 2.251-.783 0-1.414-.712-1.414-2.242 0-1.593.711-2.26 1.459-2.26.773 0 1.404.73 1.404 2.251zm-2.17 0c0 .721.126 1.701.756 1.701.595 0 .711-1.026.711-1.701 0-.666-.116-1.692-.729-1.692-.621 0-.738 1.026-.738 1.692zm3.789-3.331v1.152h.837v.531h-.837v2.584c0 .567.207.72.459.72.107 0 .198-.009.279-.026l.027.531a1.532 1.532 0 0 1-.514.071c-.27 0-.514-.071-.684-.261-.172-.198-.262-.495-.262-1.099v-2.521h-.531v-.531h.531v-.953l.695-.198zm2.781 4.709c.207.135.566.242.873.242.63 0 1.008-.414 1.008-1.026 0-.558-.324-.899-.801-1.26-.478-.333-1.144-.9-1.144-1.684 0-.918.64-1.594 1.603-1.594.378 0 .711.117.855.226l-.172.594a1.27 1.27 0 0 0-.72-.207c-.595 0-.874.45-.874.864 0 .604.316.837.893 1.252.729.513 1.053 1.071 1.053 1.746 0 1.044-.738 1.701-1.701 1.701-.414 0-.855-.135-1.027-.261l.154-.593zm4.104-4.682c.009.27-.162.45-.424.45-.225 0-.396-.181-.396-.45 0-.271.181-.45.405-.45.253 0 .415.18.415.45zm-.747 5.483v-4.357h.692v4.357h-.692zm4.32-4.358c-.009.307-.036.693-.036 1.359v2.439c0 1.144-.145 1.576-.432 1.891-.262.298-.676.469-1.162.469-.369 0-.729-.09-.953-.216l.161-.541c.171.091.46.189.811.189.549 0 .892-.342.892-1.332v-.441h-.019a.886.886 0 0 1-.837.531c-.774 0-1.279-.873-1.279-2.152 0-1.602.73-2.269 1.369-2.269.469 0 .684.307.811.567h.018l.036-.495h.62zm-.72 1.504c0-.108-.01-.226-.037-.315-.08-.297-.233-.666-.629-.666-.505 0-.775.675-.775 1.639 0 1.116.352 1.62.775 1.62.207 0 .477-.099.621-.621.035-.135.045-.271.045-.396v-1.261zm1.647-.379c0-.513-.027-.773-.036-1.125h.603l.037.522h.018c.189-.352.54-.595.999-.595.604 0 1.054.45 1.054 1.504v2.926h-.693v-2.809c0-.514-.1-1.035-.604-1.035-.287 0-.566.243-.656.711a2.331 2.331 0 0 0-.027.387v2.746h-.693v-3.232zm5.363 3.233l-.045-.459h-.026c-.189.333-.495.531-.864.531-.586 0-1.035-.495-1.035-1.242 0-1.09.873-1.576 1.854-1.585v-.135c0-.585-.145-.99-.693-.99-.271 0-.513.09-.72.225l-.154-.486c.181-.135.586-.288 1.018-.288.873 0 1.252.576 1.252 1.558v1.882c0 .333 0 .711.045.99h-.632zm-.098-2.251c-.36 0-1.197.063-1.197 1.009 0 .567.288.774.531.774.306 0 .567-.226.648-.657.018-.081.018-.171.018-.243v-.883zm2.42-3.259v1.152h.838v.531h-.838v2.584c0 .567.207.72.459.72.108 0 .199-.009.279-.026l.027.531a1.524 1.524 0 0 1-.514.071c-.27 0-.513-.071-.684-.261-.172-.198-.262-.495-.262-1.099v-2.521h-.531v-.531h.531v-.953l.695-.198zm4.06 4.321c0 .486.027.864.036 1.188h-.604l-.045-.459h-.018c-.135.216-.469.531-.937.531-.765 0-1.062-.595-1.062-1.675v-2.755h.692v2.656c0 .684.108 1.188.585 1.188.406 0 .586-.379.621-.576.027-.117.037-.253.037-.396v-2.872h.692v3.17zm.962-2.044c0-.368-.026-.801-.035-1.125h.621l.035.685h.019c.144-.414.513-.757.919-.757.054 0 .099.01.144.01v.711c-.045-.009-.09-.009-.144-.009-.441 0-.766.404-.838.909a2.65 2.65 0 0 0-.027.396v2.413h-.693v-3.233zm2.602 1.118c.01 1.332.531 1.62 1.035 1.62.297 0 .549-.072.721-.171l.107.513c-.242.136-.611.207-.954.207-1.044 0-1.585-.854-1.585-2.188 0-1.413.595-2.296 1.469-2.296.891 0 1.242.937 1.242 1.927 0 .162 0 .279-.01.388h-2.025zm1.369-.514c.018-.873-.316-1.261-.648-1.261-.451 0-.685.667-.711 1.261h1.359z"/></svg>