<svg xmlns="http://www.w3.org/2000/svg" viewBox="0 0 344.26 215.44"><path fill="none" stroke="#000" d="M61.38 73.44h173.71m-140 20h176.79m-176.79 40h183.62" stroke-dasharray="1 1"/><path fill="#b2d4eb" fill-rule="evenodd" d="M73.29 78.37c0 1.98-1.62 3.6-3.6 3.6H6.98a3.61 3.61 0 0 1-3.6-3.6V68.5c0-1.98 1.62-3.6 3.6-3.6h62.7a3.6 3.6 0 0 1 3.6 3.6v9.86z" clip-rule="evenodd"/><path fill="none" stroke="#000" d="M73.29 78.37c0 1.98-1.62 3.6-3.6 3.6H6.98a3.61 3.61 0 0 1-3.6-3.6V68.5c0-1.98 1.62-3.6 3.6-3.6h62.7a3.6 3.6 0 0 1 3.6 3.6v9.86z" stroke-linecap="round" stroke-linejoin="round"/><path fill="#b2d4eb" fill-rule="evenodd" d="M326.29 98.37c0 1.98-1.62 3.6-3.6 3.6h-62.71a3.61 3.61 0 0 1-3.6-3.6V88.5c0-1.98 1.62-3.6 3.6-3.6h62.7a3.6 3.6 0 0 1 3.6 3.6v9.86z" clip-rule="evenodd"/><path fill="none" stroke="#000" d="M326.29 98.37c0 1.98-1.62 3.6-3.6 3.6h-62.71a3.61 3.61 0 0 1-3.6-3.6V88.5c0-1.98 1.62-3.6 3.6-3.6h62.7a3.6 3.6 0 0 1 3.6 3.6v9.86z" stroke-linecap="round" stroke-linejoin="round"/><path fill="none" stroke="#000" d="M61.38 113.44h173.71" stroke-dasharray="1 1"/><path fill="#fddfbb" fill-rule="evenodd" d="M326.29 145.68c0 1.98-1.62 3.6-3.6 3.6h-62.71a3.61 3.61 0 0 1-3.6-3.6V121.2c0-1.98 1.62-3.6 3.6-3.6h62.7c1.98 0 3.6 1.62 3.6 3.6v24.48z" clip-rule="evenodd"/><path fill="none" stroke="#000" d="M326.29 145.68c0 1.98-1.62 3.6-3.6 3.6h-62.71a3.61 3.61 0 0 1-3.6-3.6V121.2c0-1.98 1.62-3.6 3.6-3.6h62.7c1.98 0 3.6 1.62 3.6 3.6v24.48z" stroke-linecap="round" stroke-linejoin="round"/><path fill="none" stroke="#000" d="M95.09 173.44h176.79m-210.5-20h173.71" stroke-dasharray="1 1"/><path fill="#fddfbb" fill-rule="evenodd" d="M73.29 175.84c0 1.98-1.62 3.6-3.6 3.6H6.98a3.61 3.61 0 0 1-3.6-3.6V151.2c0-1.98 1.62-3.6 3.6-3.6h62.7a3.6 3.6 0 0 1 3.6 3.6v24.64z" clip-rule="evenodd"/><path fill="none" stroke="#000" d="M73.29 175.84c0 1.98-1.62 3.6-3.6 3.6H6.98a3.61 3.61 0 0 1-3.6-3.6V151.2c0-1.98 1.62-3.6 3.6-3.6h62.7a3.6 3.6 0 0 1 3.6 3.6v24.64z" stroke-linecap="round" stroke-linejoin="round"/><path fill="none" stroke="#000" d="M95.08 193.44h140.01" stroke-dasharray="1 1"/><path fill="none" stroke="#000" d="M235.09 43.5v161.94" stroke-linecap="round" stroke-linejoin="round"/><path d="M232.08 204.56l3 5.18 2.99-5.18z"/><path fill="none" stroke="#0071bc" d="M95.09 75.88l135.54 13.56" stroke-linecap="round" stroke-linejoin="round"/><path fill="#0071bc" d="M229.46 92.34l5.45-2.46-4.85-3.5z"/><path fill="none" stroke="#0071bc" d="M235.09 95.88L100.6 108.69" stroke-linecap="round" stroke-linejoin="round"/><path fill="#0071bc" d="M101.19 105.62l-4.87 3.47 5.44 2.48z"/><path fill="none" stroke="#009245" d="M235.09 135.88L100.6 148.69" stroke-linecap="round" stroke-linejoin="round"/><path fill="#009245" d="M101.19 145.62l-4.87 3.47 5.44 2.48z"/><path fill="none" stroke="#009245" d="M95.09 115.88l134.62 13.31" stroke-linecap="round" stroke-linejoin="round"/><path fill="#009245" d="M228.55 132.09l5.45-2.47-4.86-3.49z"/><path fill="none" stroke="#000" d="M235.09 175.88L100.6 188.69" stroke-dasharray="2 2"/><path d="M101.19 185.62l-4.87 3.47 5.44 2.48z"/><path fill="none" stroke="#000" d="M95.09 155.88l134.62 13.31" stroke-linecap="round" stroke-linejoin="round"/><path d="M228.55 172.09l5.45-2.47-4.86-3.49z"/><path fill="none" stroke="#000" d="M95.09 43.5v161.94" stroke-linecap="round" stroke-linejoin="round"/><path d="M92.08 204.56l3 5.18 2.99-5.18z"/><path fill="#ccc" d="M96.77 56.48v1.31L75.63 45.67v-1.3z"/><path fill="gray" d="M96.77 56.48l14.73-8.38v1.31l-14.73 8.38z"/><path fill="#fff" d="M75.63 44.37l14.71-8.43L111.5 48.1l-14.73 8.38z"/><path fill="#999" d="M113.55 29.09l.99-.56-2.06 18.96-.99.57zM98.6 53.2v.25L80.73 43.21v-.25z"/><path fill="#b3b3b3" d="M98.6 53.2l10.13-5.76v.25L98.6 53.45z"/><path fill="#e6e6e6" d="M80.73 42.96l10.11-5.8 17.89 10.28L98.6 53.2zm2.57 5.48l2.9-1.67 5.14 2.95-2.91 1.66zm30.25-19.35l-2.06 18.97-21.14-12.12 2.06-18.96z"/><path fill="#0071bc" d="M110.65 46.6L91.19 35.45l2.06-17.02 19.46 11.15-2.06 17.02z"/><path fill="#b3b3b3" d="M92.41 16.98l.97-.61 21.16 12.16-.99.56z"/><path fill="none" stroke="#000" d="M112.48 47.49l2.06-18.96-21.16-12.16-.97.61-2.06 18.96h-.01l-14.71 8.43v1.3l21.14 12.12 14.73-8.38V48.1l-.01-.04z" stroke-linecap="round" stroke-linejoin="round"/><path fill="#b3b3b3" d="M231.71 31.72v29.23l-11.48-7.06V24.65z"/><path fill="#333" d="M229.59 32.64v3.49l-8.19-5.04V27.6zm0 11.77v3.48l-8.19-5.04v-3.48z"/><path fill="#e6e6e6" d="M229.59 40.02v1.01l-8.19-5.04v-1.01z"/><path fill="#333" d="M229.59 49.36v3.49l-8.19-5.04v-3.49zm0 4.95v3.49l-8.19-5.03v-3.49z"/><path fill="gray" d="M231.71 31.73l18.2-11.48v29.24l-18.2 11.48z"/><path fill="#999" d="M220.25 24.67l18.23-11.48 11.46 7.06-18.2 11.48z"/><path fill="#009245" d="M221.67 31.57c.18.1.32.36.32.58 0 .21-.14.3-.32.19a.74.74 0 0 1-.31-.58c0-.22.14-.3.31-.2"/><path fill="#c1272d" d="M222.44 32.04c.18.1.32.37.32.59 0 .2-.15.3-.32.19a.74.74 0 0 1-.32-.58c0-.22.14-.3.32-.2"/><path fill="#009245" d="M223.2 32.5c.18.11.32.37.32.59 0 .22-.14.3-.31.2a.75.75 0 0 1-.32-.6c0-.2.14-.3.32-.18"/><path fill="#c1272d" d="M223.97 32.98c.18.1.32.37.32.58 0 .21-.15.3-.32.2a.76.76 0 0 1-.32-.59c0-.21.15-.3.32-.2m.78.48c.18.11.32.37.31.59 0 .21-.14.3-.31.19a.76.76 0 0 1-.32-.58c0-.21.14-.3.32-.2"/><path fill="#009245" d="M225.52 33.93c.17.1.31.37.31.59 0 .21-.14.3-.32.19a.75.75 0 0 1-.31-.59c0-.2.14-.3.32-.19m.76.47c.18.1.32.36.32.58 0 .22-.15.3-.32.2a.75.75 0 0 1-.31-.6c0-.2.14-.3.31-.19m.77.48c.17.1.31.36.31.58s-.14.3-.31.2a.74.74 0 0 1-.32-.6c0-.2.15-.3.32-.18"/><path fill="#c1272d" d="M221.67 32.7c.18.1.32.37.32.59 0 .2-.14.3-.32.19a.75.75 0 0 1-.31-.59c0-.21.14-.3.31-.19m.77.48c.18.1.32.37.32.58 0 .22-.15.3-.32.2a.76.76 0 0 1-.32-.59c0-.21.14-.3.32-.2"/><path fill="#009245" d="M223.2 33.64c.18.1.32.38.32.58 0 .22-.14.3-.31.2a.75.75 0 0 1-.32-.59c0-.21.14-.3.32-.19"/><path fill="#c1272d" d="M223.97 34.11c.18.1.32.37.32.59 0 .2-.15.3-.32.2a.77.77 0 0 1-.32-.6c0-.2.15-.3.32-.19"/><path fill="#009245" d="M224.75 34.59c.18.1.32.37.31.58 0 .22-.14.3-.31.2a.76.76 0 0 1-.32-.59c0-.21.14-.3.32-.2"/><path fill="#c1272d" d="M225.52 35.06c.17.11.31.38.31.59 0 .22-.14.3-.32.2a.76.76 0 0 1-.31-.59c0-.21.14-.3.32-.2"/><path fill="#009245" d="M226.28 35.53c.18.11.32.37.32.58 0 .22-.15.3-.32.2a.74.74 0 0 1-.31-.59c0-.21.14-.3.31-.2"/><path fill="#c1272d" d="M227.05 36c.17.11.31.37.31.59s-.14.3-.31.19a.76.76 0 0 1-.32-.58c0-.22.15-.3.32-.2"/><path fill="#009245" d="M227.64 40.88c.18.1.32.37.32.59 0 .2-.14.3-.32.2a.76.76 0 0 1-.31-.6c0-.21.14-.3.31-.19m.77.46c.18.11.32.37.32.6 0 .2-.15.29-.32.18a.74.74 0 0 1-.31-.58c0-.21.14-.3.31-.2"/><path fill="#c1272d" d="M229.18 41.82c.17.1.31.36.31.58 0 .21-.14.3-.32.2a.74.74 0 0 1-.3-.59c-.01-.21.13-.3.3-.2m-1.53.21c.18.1.32.37.32.58 0 .22-.14.3-.32.2a.74.74 0 0 1-.31-.59c0-.21.14-.3.31-.2m.77.47c.18.11.32.37.32.58 0 .22-.15.3-.32.2a.74.74 0 0 1-.31-.59c0-.21.14-.3.31-.19"/><path fill="#009245" d="M229.18 42.95c.17.1.31.37.31.59 0 .21-.14.3-.32.19a.73.73 0 0 1-.3-.58c-.01-.22.13-.3.3-.2"/><path fill="none" stroke="#000" d="M249.94 20.25l-11.46-7.06-18.23 11.48-.02-.02v29.24l11.48 7.06v.02l18.2-11.48V20.27z" stroke-linecap="round" stroke-linejoin="round"/><path fill="#ccc" fill-rule="evenodd" d="M326.51 197.84c0 1.98-1.62 3.6-3.6 3.6h-62.7a3.61 3.61 0 0 1-3.6-3.6v-9.86a3.6 3.6 0 0 1 3.6-3.6h62.7c1.98 0 3.6 1.62 3.6 3.6v9.86z" clip-rule="evenodd"/><path fill="none" stroke="#000" d="M326.51 197.84c0 1.98-1.62 3.6-3.6 3.6h-62.7a3.61 3.61 0 0 1-3.6-3.6v-9.86a3.6 3.6 0 0 1 3.6-3.6h62.7c1.98 0 3.6 1.62 3.6 3.6v9.86z" stroke-linecap="round" stroke-linejoin="round"/><path fill="#fddfbb" fill-rule="evenodd" d="M326.29 180.28c0 1.98-1.62 3.6-3.6 3.6h-62.71a3.61 3.61 0 0 1-3.6-3.6V164.2c0-1.98 1.62-3.6 3.6-3.6h62.7a3.6 3.6 0 0 1 3.6 3.6v16.08z" clip-rule="evenodd"/><path fill="none" stroke="#000" d="M326.29 180.28c0 1.98-1.62 3.6-3.6 3.6h-62.71a3.61 3.61 0 0 1-3.6-3.6V164.2c0-1.98 1.62-3.6 3.6-3.6h62.7a3.6 3.6 0 0 1 3.6 3.6v16.08z" stroke-linecap="round" stroke-linejoin="round"/><path d="M239.37 75.95c-.81 0-1.3-.96-1.3-2.66 0-1.75.52-2.67 1.37-2.67.84 0 1.28 1 1.28 2.66 0 1.9-.6 2.67-1.35 2.67zm.03-.53c.5 0 .7-.89.7-2.13 0-1.22-.2-2.14-.7-2.14-.5 0-.72.88-.72 2.13 0 1.26.21 2.14.72 2.14zm3.22-2.41c0-.45-.02-.68-.03-1h.54l.04.48h.01a.95.95 0 0 1 .87-.54.8.8 0 0 1 .81.58h.02c.1-.19.24-.34.37-.44a1 1 0 0 1 .54-.14c.53 0 .93.38.93 1.37v2.56h-.61v-2.43c0-.5-.07-.99-.54-.99-.25 0-.48.22-.56.59-.03.1-.03.21-.03.34v2.5h-.61v-2.55c0-.42-.08-.88-.53-.88-.26 0-.5.22-.58.63l-.02.33v2.46h-.61v-2.87zm4.86 2.23c.14.1.37.2.62.2.35 0 .57-.21.57-.56 0-.3-.1-.5-.5-.76-.5-.32-.77-.66-.77-1.1 0-.63.46-1.07 1.06-1.07.3 0 .53.1.69.2l-.16.46a.88.88 0 0 0-.52-.17c-.33 0-.5.24-.5.5s.1.4.48.65c.45.3.8.65.8 1.19 0 .77-.53 1.15-1.17 1.15-.28 0-.59-.09-.76-.22l.16-.47zM77.42 95.88v-.4l.43-.59c.63-.86 1.36-1.84 1.36-2.81 0-.58-.25-.93-.74-.93-.38 0-.62.2-.75.29l-.15-.46c.18-.16.54-.36 1.01-.36.87 0 1.24.64 1.24 1.43 0 .97-.64 1.92-1.29 2.8l-.34.47v.02h1.73v.54h-2.5zm4.43-5.26c.74 0 1.12.63 1.12 1.23 0 .45-.22.9-.7 1.23v.01c.48.33.83.8.83 1.43 0 .8-.53 1.43-1.33 1.43-.87 0-1.3-.69-1.3-1.33 0-.73.43-1.2.86-1.5l-.01-.01a1.5 1.5 0 0 1-.68-1.2c0-.8.57-1.29 1.2-1.29zm-.06 4.87c.38 0 .7-.29.7-.94 0-.6-.34-.94-.74-1.2-.41.26-.67.7-.67 1.17 0 .58.26.97.7.97h.01zm.02-4.41c-.35 0-.58.33-.58.8 0 .53.32.79.64 1 .31-.23.51-.57.51-.96 0-.5-.2-.84-.57-.84zm3.2 1.93c0-.45-.02-.68-.03-1h.54l.04.48h.01a.95.95 0 0 1 .87-.54.8.8 0 0 1 .81.58h.02c.1-.19.24-.34.37-.44a1 1 0 0 1 .54-.14c.53 0 .94.38.94 1.37v2.56h-.62v-2.43c0-.5-.07-.99-.54-.99-.25 0-.48.22-.56.59-.03.1-.03.21-.03.34v2.5h-.61v-2.55c0-.42-.08-.88-.53-.88-.26 0-.5.22-.58.63l-.02.33v2.46H85v-2.87zm4.86 2.23c.14.1.38.2.62.2.35 0 .57-.21.57-.56 0-.3-.1-.5-.5-.76-.5-.32-.77-.66-.77-1.1 0-.63.46-1.07 1.06-1.07.3 0 .53.1.7.2l-.17.46a.88.88 0 0 0-.52-.17c-.33 0-.5.24-.5.5s.1.4.48.65c.45.3.8.65.8 1.19 0 .77-.52 1.15-1.16 1.15-.28 0-.6-.09-.76-.22l.15-.47zm-11.1 35.38c.74 0 1.12.63 1.12 1.23 0 .45-.22.9-.7 1.23v.01c.48.33.83.8.83 1.43 0 .8-.53 1.43-1.33 1.43-.87 0-1.3-.69-1.3-1.33 0-.73.43-1.2.86-1.5l-.01-.01a1.5 1.5 0 0 1-.68-1.2c0-.8.57-1.29 1.2-1.29zm-.06 4.87c.38 0 .7-.29.7-.94 0-.6-.34-.94-.74-1.2-.42.26-.67.7-.67 1.17 0 .58.26.97.7.97zm.02-4.41c-.35 0-.58.33-.58.8 0 .53.32.79.64 1 .31-.23.51-.57.51-.96 0-.5-.2-.84-.57-.84zm3.39 4.8v-1.44h-1.73v-.41l1.69-3.34h.6v3.25h.56v.5h-.56v1.44h-.56zm0-1.94v-1.46c0-.36.02-.68.05-1.03h-.04c-.17.42-.28.66-.44.98l-.72 1.5v.01h1.15zm2.89-.93c0-.45-.02-.68-.03-1h.54l.04.48h.01a.95.95 0 0 1 .87-.54.8.8 0 0 1 .81.58h.02c.1-.19.24-.34.37-.43a1 1 0 0 1 .54-.15c.53 0 .94.38.94 1.37v2.56h-.62v-2.43c0-.5-.07-.99-.54-.99-.25 0-.48.22-.56.58-.03.1-.03.22-.03.35v2.5h-.61v-2.55c0-.42-.08-.88-.53-.88-.26 0-.5.22-.58.63l-.02.33v2.46H85v-2.87zm4.86 2.23c.14.1.38.2.62.2.35 0 .57-.21.57-.56 0-.3-.1-.5-.5-.76-.5-.32-.77-.66-.77-1.1 0-.63.46-1.07 1.06-1.07.3 0 .53.1.7.2l-.17.46a.88.88 0 0 0-.52-.17c-.33 0-.5.24-.5.5s.1.4.48.66c.45.28.8.64.8 1.18 0 .77-.52 1.15-1.16 1.15-.28 0-.6-.09-.76-.22l.15-.47zM32.68 75.48c.23.14.63.27.97.27.7 0 1.12-.46 1.12-1.14 0-.62-.36-1-.89-1.4-.53-.36-1.27-1-1.27-1.86a1.7 1.7 0 0 1 1.78-1.77c.42 0 .8.14.95.25l-.19.66a1.4 1.4 0 0 0-.8-.23c-.66 0-.97.5-.97.96 0 .67.35.93 1 1.39.8.56 1.16 1.18 1.16 1.93a1.8 1.8 0 0 1-1.89 1.9c-.46 0-.95-.16-1.14-.3l.17-.66zm4.74.89v-2.85l-1.49-3.88h.82l.6 1.68c.16.47.35 1 .5 1.52h.02c.13-.52.31-1.03.5-1.55l.56-1.65h.8l-1.54 3.85v2.88h-.77zm2.98 0v-6.73h.71l1.24 3.15c.28.73.63 1.62.86 2.35h.02a50.69 50.69 0 0 1-.09-3.1v-2.4h.69v6.73h-.72l-1.28-3.23c-.28-.68-.57-1.45-.8-2.3H41c.06.9.08 1.77.08 3.2v2.33h-.69zM84.8 7.48c.24.14.64.27.98.27.7 0 1.11-.46 1.11-1.14 0-.62-.36-1-.89-1.4-.52-.37-1.26-1-1.26-1.87a1.7 1.7 0 0 1 1.77-1.77c.42 0 .8.14.95.25l-.19.66a1.4 1.4 0 0 0-.8-.23c-.66 0-.96.5-.96.96 0 .67.35.94.98 1.4.81.56 1.17 1.18 1.17 1.93a1.8 1.8 0 0 1-1.89 1.89c-.46 0-.95-.15-1.14-.3l.18-.65zm4.31-1.46c.01 1.49.6 1.8 1.14 1.8.34 0 .61-.08.8-.18l.13.56c-.27.15-.68.23-1.07.23-1.15 0-1.75-.94-1.75-2.43 0-1.57.66-2.55 1.63-2.55.98 0 1.38 1.04 1.38 2.13 0 .19 0 .32-.02.44h-2.23zm1.52-.57c.01-.97-.35-1.4-.72-1.4-.5 0-.75.74-.79 1.4h1.51zm1.57-.67c0-.57-.03-.86-.04-1.25h.67l.04.58h.02c.21-.39.6-.66 1.11-.66.67 0 1.17.5 1.17 1.67v3.25h-.77V5.25c0-.58-.1-1.15-.67-1.15-.32 0-.63.27-.72.8-.03.1-.04.25-.04.42v3.05h-.77V4.78zm6.97-3.33v5.76c0 .33.03.88.04 1.16h-.66l-.05-.6h-.04c-.15.34-.5.68-1 .68-.83 0-1.42-.88-1.42-2.48 0-1.72.71-2.52 1.46-2.52.35 0 .7.16.88.57h.02V1.45h.77zm-.77 3.92v-.32c-.05-.5-.36-.94-.73-.94-.64 0-.86.9-.86 1.86 0 1.02.26 1.84.82 1.84.24 0 .57-.13.74-.83.03-.09.03-.2.03-.32V5.37zm2.38.65c.01 1.49.6 1.8 1.14 1.8.34 0 .61-.08.8-.18l.13.56c-.27.15-.68.23-1.07.23-1.15 0-1.75-.94-1.75-2.43 0-1.57.66-2.55 1.63-2.55.98 0 1.38 1.04 1.38 2.13 0 .19 0 .32-.02.44h-2.24zm1.52-.57c.01-.97-.35-1.4-.72-1.4-.5 0-.76.74-.79 1.4h1.51zm1.56-.67c0-.4-.03-.89-.04-1.25h.7l.03.76h.02c.16-.46.57-.84 1.02-.84l.16.01v.8c-.05-.02-.1-.02-.16-.02-.49 0-.85.45-.93 1.01-.02.13-.03.27-.03.44v2.68h-.77V4.78zm121.79-3.05c.33-.09.73-.13 1.11-.13.67 0 1.17.14 1.52.48.33.34.47.8.47 1.32 0 .86-.4 1.42-1.08 1.74v.02c.5.15.76.63.9 1.51.16.92.3 1.49.4 1.7h-.79c-.1-.2-.23-.84-.36-1.66-.15-.93-.43-1.27-1.1-1.27h-.3v2.93h-.77V1.73zm.77 3.11h.32c.74 0 1.23-.54 1.23-1.35 0-.77-.32-1.26-1.15-1.27-.15 0-.3.01-.4.04v2.58zm3.8 1.18c.01 1.49.6 1.8 1.14 1.8.34 0 .61-.08.8-.18l.13.56c-.27.15-.68.23-1.07.23-1.14 0-1.75-.94-1.75-2.43 0-1.57.66-2.55 1.63-2.55.98 0 1.38 1.04 1.38 2.13 0 .19 0 .32-.02.44h-2.24zm1.52-.57c.01-.97-.35-1.4-.72-1.4-.5 0-.76.74-.79 1.4h1.51zm3.93 2.8c-.17.1-.46.18-.8.18-1.06 0-1.77-.85-1.77-2.45 0-1.39.7-2.52 1.91-2.52.26 0 .54.07.68.16l-.15.62c-.1-.05-.3-.13-.55-.13-.78 0-1.12.92-1.12 1.87 0 1.13.43 1.81 1.14 1.81.2 0 .38-.04.55-.13l.11.59zm1.14-2.23c.01 1.49.6 1.8 1.14 1.8.34 0 .61-.08.8-.18l.13.56c-.27.15-.68.23-1.07.23-1.15 0-1.75-.94-1.75-2.43 0-1.57.66-2.55 1.63-2.55.98 0 1.38 1.04 1.38 2.13 0 .19 0 .32-.02.44h-2.24zm1.52-.57c.01-.97-.35-1.4-.72-1.4-.5 0-.76.74-.79 1.4h1.51zm1.93-2.67c-.25 0-.43-.2-.43-.5s.2-.5.45-.5c.27 0 .45.2.45.5s-.18.5-.45.5h-.02zm-.36 5.59V3.53h.77v4.84h-.77zm2.23-4.84l.61 2.72c.07.33.15.76.21 1.18h.03c.05-.4.13-.8.2-1.18l.6-2.72h.76l-1.27 4.84h-.68l-1.26-4.84h.8zm3.49 2.49c.01 1.49.6 1.8 1.14 1.8.34 0 .61-.08.8-.18l.13.56c-.27.15-.68.23-1.07.23-1.14 0-1.74-.94-1.74-2.43 0-1.57.65-2.55 1.62-2.55.98 0 1.38 1.04 1.38 2.13 0 .19 0 .32-.02.44h-2.24zm1.52-.57c.01-.97-.35-1.4-.72-1.4-.5 0-.76.74-.79 1.4h1.51zm1.56-.67c0-.4-.03-.89-.04-1.25h.7l.03.76h.02c.16-.46.57-.84 1.02-.84l.16.01v.8c-.05-.02-.1-.02-.16-.02-.49 0-.85.45-.93 1.01-.02.13-.03.27-.03.44v2.68h-.77V4.78zm30.46 90.7c.23.14.63.27.97.27.7 0 1.12-.46 1.12-1.14 0-.62-.36-1-.89-1.4-.53-.36-1.27-1-1.27-1.86a1.7 1.7 0 0 1 1.78-1.77c.42 0 .79.14.95.25l-.19.66a1.41 1.41 0 0 0-.8-.23c-.66 0-.97.5-.97.96 0 .67.35.93.99 1.39.81.56 1.17 1.18 1.17 1.93a1.8 1.8 0 0 1-1.89 1.9c-.46 0-.95-.16-1.14-.3l.17-.66zm4.74.89v-2.85l-1.49-3.88h.82l.6 1.68c.16.47.35 1 .5 1.52h.02c.13-.52.31-1.03.5-1.55l.56-1.65h.8l-1.54 3.85v2.88h-.77zm2.97 0v-6.73h.72l1.24 3.15c.28.73.63 1.62.86 2.35h.02a50.5 50.5 0 0 1-.09-3.1v-2.4h.69v6.73h-.72l-1.28-3.23c-.28-.68-.57-1.45-.8-2.3h-.03c.06.9.08 1.77.08 3.2v2.33h-.69zm7.03-2.02l-.45 2.02h-.75l1.54-6.73h.85l1.5 6.73h-.76l-.44-2.02h-1.5zm1.38-.62l-.35-1.7a35.2 35.2 0 0 1-.27-1.54h-.03c-.08.5-.18 1.08-.28 1.54l-.35 1.7h1.28zm4.9 2.52c-.2.11-.55.18-.97.18-1.3 0-2.26-1.05-2.26-3.34 0-2.66 1.32-3.51 2.4-3.51.4 0 .7.08.82.17l-.17.65c-.16-.07-.32-.14-.67-.14-.72 0-1.57.7-1.57 2.75 0 2.07.76 2.74 1.6 2.74.28 0 .53-.07.7-.14l.12.64zm.78-6.61h.77v3.2h.02c.15-.29.3-.56.42-.82l1.25-2.39h.86l-1.65 2.88 1.7 3.86h-.84l-1.38-3.25-.38.65v2.6h-.77v-6.73zm40.38-11.51v-1.1h.62v2.9h-.62v-1.1h-5.45v-.7h5.45zM336 82.97c-.1-.19-.16-.5-.16-.87 0-1.18.94-2.04 3-2.04 2.4 0 3.17 1.2 3.17 2.16 0 .36-.07.63-.15.74l-.58-.15c.06-.14.12-.29.12-.6 0-.65-.63-1.42-2.48-1.42-1.87 0-2.47.69-2.47 1.43 0 .27.06.5.13.63l-.58.12zm5.87.7c.07.28.11.6.11 1.01 0 .56-.13 1.04-.44 1.35-.28.29-.72.44-1.26.44-.55 0-.93-.13-1.24-.37a1.75 1.75 0 0 1-.67-1.43v-.3h-2.48v-.7h5.98zm-2.92.7l-.02.27c0 .68.45 1.14 1.3 1.14.63 0 1.19-.25 1.19-1.03 0-.16-.02-.3-.05-.38h-2.42zm-.44 6.01h-.53V88.4h.53v1.97zm2.62 6.09V94.9l-1.56-.25a.8.8 0 0 1 .02.22c0 .31-.14.8-.44 1.11-.3.32-.74.5-1.33.5-1.17 0-2-.74-2-1.77 0-.36.1-.77.25-1l.55.15c-.1.18-.22.5-.22.82 0 .6.45 1.1 1.35 1.1.92 0 1.31-.56 1.31-1.32 0-.21 0-.35-.03-.46l2.71.37v2.1h-.61zm.1 3.34c0-.12-.02-.25-.06-.41-.24-.98-1.21-1.36-2.11-1.5v.02c.33.23.56.55.56.99 0 .74-.69 1.26-1.8 1.26-1.1 0-2-.5-2-1.44 0-1.03 1.03-1.54 2.39-1.54 1.13 0 2 .3 2.63.76.5.35.81.9.92 1.42.04.18.05.33.06.44h-.59zm-4.87-1.07c0 .39.39.74 1.4.74.89 0 1.33-.32 1.33-.79 0-.3-.2-.59-.63-.76a1.2 1.2 0 0 0-.36-.05c-1.2.01-1.74.37-1.74.85zm2.76 3.56c.52 0 .78-.02 1.13-.03v.6l-.53.04v.02c.35.2.6.52.6.97a.9.9 0 0 1-.66.92v.02c.22.12.4.27.5.42.1.18.16.38.16.6 0 .6-.42 1.06-1.54 1.06h-2.89v-.7h2.74c.56 0 1.11-.07 1.11-.6 0-.28-.24-.54-.65-.64-.11-.02-.25-.02-.4-.02h-2.8v-.7h2.86c.48 0 1-.08 1-.59 0-.29-.25-.57-.72-.65l-.37-.02h-2.77v-.7h3.23zm-2.51 5.47c-.1.15-.23.42-.23.7 0 .39.25.64.63.64.34 0 .57-.12.86-.56.37-.57.75-.87 1.24-.87.71 0 1.2.52 1.2 1.2 0 .33-.1.59-.22.77l-.52-.18a1 1 0 0 0 .2-.59c0-.37-.27-.56-.56-.56s-.46.11-.75.54c-.32.5-.72.9-1.33.9-.87 0-1.3-.59-1.3-1.31 0-.32.1-.67.26-.86l.52.18zm-96.09 3.46h-1.4l-.22 1.38.2-.01c.27 0 .71.12.98.39.28.27.44.65.44 1.18 0 1.04-.65 1.78-1.57 1.78-.32 0-.68-.1-.89-.23l.14-.48c.16.08.44.2.72.2.53 0 .99-.4.99-1.2 0-.83-.5-1.17-1.18-1.17-.19 0-.3 0-.4.02l.32-2.4h1.87v.54zm2.97-.09c-.1 0-.23.02-.37.05-.87.22-1.21 1.08-1.34 1.88h.03c.2-.3.48-.5.87-.5.66 0 1.12.61 1.12 1.6 0 .99-.44 1.78-1.28 1.78-.9 0-1.36-.92-1.36-2.12 0-1 .26-1.78.67-2.34.31-.44.8-.72 1.26-.82l.4-.05v.52zm-.96 4.33c.35 0 .66-.35.66-1.25 0-.78-.28-1.17-.7-1.17-.26 0-.52.16-.68.56-.01.04-.04.16-.04.3.01 1.07.33 1.56.75 1.56h.01zm3.17-2.46c0-.45-.02-.68-.03-1h.54l.03.48h.02a.95.95 0 0 1 .87-.54.8.8 0 0 1 .81.58h.02c.1-.19.24-.34.37-.44a1 1 0 0 1 .54-.14c.52 0 .93.38.93 1.37v2.56h-.61v-2.43c0-.5-.07-.99-.54-.99-.25 0-.48.22-.56.59-.03.1-.03.21-.03.34v2.5h-.61v-2.55c0-.42-.08-.88-.53-.88-.26 0-.5.22-.58.63l-.02.33v2.46h-.61v-2.87zm4.86 2.23c.13.1.37.2.62.2.35 0 .57-.21.57-.56 0-.3-.1-.5-.5-.76-.5-.32-.77-.66-.77-1.1 0-.63.46-1.07 1.06-1.07.3 0 .53.1.69.2l-.16.46a.88.88 0 0 0-.52-.17c-.33 0-.5.24-.5.5s.1.4.48.65c.45.3.8.65.8 1.19 0 .77-.53 1.15-1.17 1.15-.28 0-.59-.09-.76-.22l.16-.47zm23.76 10.24c.23.14.63.27.97.27.7 0 1.12-.46 1.12-1.14 0-.62-.36-1-.89-1.4-.53-.36-1.27-1-1.27-1.86a1.7 1.7 0 0 1 1.78-1.77c.42 0 .79.14.95.25l-.19.66a1.41 1.41 0 0 0-.8-.23c-.66 0-.97.5-.97.96 0 .67.35.93.99 1.39.81.56 1.17 1.18 1.17 1.93a1.8 1.8 0 0 1-1.89 1.9c-.46 0-.95-.16-1.14-.3l.17-.66zm4.31-1.46c.01 1.5.6 1.8 1.14 1.8.34 0 .61-.08.8-.18l.13.56c-.27.15-.68.23-1.07.23-1.15 0-1.75-.94-1.75-2.43 0-1.56.66-2.54 1.63-2.54.98 0 1.38 1.03 1.38 2.12 0 .2 0 .32-.02.44h-2.24zm1.52-.56c.01-.97-.35-1.4-.72-1.4-.5 0-.76.73-.79 1.4h1.51zm1.56-.68c0-.4-.03-.89-.04-1.24h.7l.03.75h.02c.16-.45.57-.83 1.02-.83h.16v.8l-.16-.01c-.49 0-.85.45-.93 1-.02.14-.03.28-.03.44v2.68h-.77v-3.59zm3.14-1.24l.61 2.71c.07.33.15.76.21 1.18h.03c.05-.4.13-.8.2-1.18l.6-2.71h.76l-1.27 4.83h-.68l-1.26-4.83h.8zm3.49 2.48c.01 1.5.6 1.8 1.14 1.8.34 0 .61-.08.8-.18l.13.56c-.27.15-.68.23-1.07.23-1.15 0-1.75-.94-1.75-2.43 0-1.56.66-2.54 1.63-2.54.98 0 1.38 1.03 1.38 2.12 0 .2 0 .32-.02.44h-2.24zm1.52-.56c.01-.97-.35-1.4-.72-1.4-.5 0-.76.73-.79 1.4h1.51zm1.56-.68c0-.4-.03-.89-.04-1.24h.7l.03.75h.02c.16-.45.57-.83 1.02-.83h.16v.8l-.16-.01c-.49 0-.85.45-.93 1-.02.14-.03.28-.03.44v2.68h-.77v-3.59zm3.32-3.14v2.88h1.89v-2.88h.77v6.73h-.77v-3.15h-1.89v3.15h-.77v-6.73h.77zm4.3 4.38c.01 1.5.6 1.8 1.14 1.8.34 0 .61-.08.8-.18l.13.56c-.27.15-.68.23-1.07.23-1.15 0-1.75-.94-1.75-2.43 0-1.56.66-2.54 1.63-2.54.98 0 1.38 1.03 1.38 2.12 0 .2 0 .32-.02.44h-2.24zm1.52-.56c.01-.97-.35-1.4-.72-1.4-.5 0-.76.73-.79 1.4h1.51zm1.57-4h.77v6.91h-.77v-6.91zm1.91 0h.77v6.91h-.77v-6.91zm3.27 6.99c-.87 0-1.57-.79-1.57-2.48 0-1.77.8-2.51 1.62-2.51.87 0 1.56.8 1.56 2.48 0 1.88-.86 2.51-1.6 2.51zm.04-.6c.66 0 .8-1.14.8-1.9 0-.75-.14-1.89-.82-1.89-.69 0-.82 1.14-.82 1.9 0 .8.14 1.88.83 1.88h.01zm-27.81 10.4a2.2 2.2 0 0 1-.97.18c-1.31 0-2.26-1.05-2.26-3.34 0-2.66 1.32-3.51 2.39-3.51.4 0 .7.08.83.17l-.17.65c-.16-.07-.32-.14-.67-.14-.72 0-1.57.7-1.57 2.75 0 2.07.76 2.74 1.59 2.74.29 0 .54-.07.7-.14l.13.64zm1.08-2.23c0 1.5.59 1.8 1.14 1.8.34 0 .6-.08.8-.18l.13.56c-.27.15-.68.23-1.07.23-1.15 0-1.75-.94-1.75-2.43 0-1.56.66-2.54 1.63-2.54.98 0 1.38 1.03 1.38 2.12l-.02.44h-2.24zm1.52-.56c0-.97-.35-1.4-.72-1.4-.5 0-.76.74-.8 1.4h1.52zm1.56-.68c0-.4-.03-.89-.04-1.24h.69l.04.76h.02c.16-.46.57-.84 1.02-.84h.16v.8c-.05-.02-.1-.02-.16-.02-.5 0-.85.45-.93 1.01-.02.13-.03.27-.03.44v2.68h-.77v-3.59zm3.67-2.38v1.14h.93v.58h-.93v2.87c0 .64.22.8.5.8.13 0 .23 0 .3-.03l.05.6c-.14.04-.32.07-.57.07-.31 0-.58-.08-.76-.29-.2-.22-.3-.55-.3-1.22v-2.8h-.58v-.58h.59v-.82l.77-.31zm1.97.39c-.25 0-.44-.2-.44-.5s.2-.5.45-.5c.28 0 .46.2.46.5s-.18.5-.46.5h-.01zm-.36 5.58v-4.83h.77v4.83h-.77zm2 0v-4.26h-.61v-.57h.6v-.32c0-.87.43-1.84 1.77-1.84.4 0 .77.12.93.23l-.15.6a1.93 1.93 0 0 0-.8-.2c-.78 0-.97.55-.97 1.29v.24h2.17v4.83h-.77v-4.26h-1.4v4.26h-.77zm6.38-.12c-.17.1-.46.18-.8.18-1.06 0-1.77-.85-1.77-2.45 0-1.39.7-2.51 1.9-2.51.27 0 .54.07.69.16l-.15.61c-.1-.05-.3-.13-.55-.13-.78 0-1.12.92-1.12 1.87 0 1.13.43 1.81 1.14 1.81.2 0 .38-.04.55-.13l.1.6zm3.2-.98c0 .37 0 .8.05 1.1h-.68l-.05-.5h-.03a1.1 1.1 0 0 1-.96.58c-.65 0-1.15-.54-1.15-1.38 0-1.22.97-1.74 2.06-1.76v-.14c0-.65-.16-1.1-.77-1.1-.3 0-.57.09-.8.25l-.17-.54c.2-.15.65-.32 1.13-.32.97 0 1.38.64 1.38 1.72v2.1zm-.75-1.4c-.4 0-1.32.07-1.32 1.12 0 .64.31.86.59.86.34 0 .62-.25.7-.73.03-.09.03-.19.03-.28v-.98zm2.69-3.47v1.14h.94v.58h-.93v2.87c0 .64.22.8.5.8.13 0 .23 0 .3-.03l.05.6a1.7 1.7 0 0 1-.57.07c-.31 0-.58-.08-.76-.29-.2-.22-.3-.55-.3-1.22v-2.8h-.58v-.58h.59v-.82l.77-.31zm2.08 3.62c0 1.5.59 1.8 1.14 1.8.34 0 .6-.08.8-.18l.13.56c-.27.15-.68.23-1.07.23-1.15 0-1.75-.94-1.75-2.43 0-1.56.66-2.54 1.63-2.54.98 0 1.38 1.03 1.38 2.12l-.02.44h-2.24zm1.52-.56c0-.97-.36-1.4-.72-1.4-.5 0-.76.74-.8 1.4h1.52zm-39.8 12.02c.23.14.63.27.97.27.7 0 1.12-.46 1.12-1.14 0-.62-.36-1-.89-1.4-.53-.37-1.27-1-1.27-1.86a1.7 1.7 0 0 1 1.78-1.77c.42 0 .8.14.95.25l-.19.66a1.4 1.4 0 0 0-.8-.23c-.66 0-.97.5-.97.96 0 .67.35.93.99 1.39.81.56 1.17 1.18 1.17 1.93a1.8 1.8 0 0 1-1.89 1.9c-.46 0-.95-.16-1.14-.3l.17-.66zm4.31-1.46c.01 1.5.6 1.8 1.14 1.8.34 0 .61-.08.8-.18l.13.56c-.27.15-.68.23-1.07.23-1.15 0-1.75-.94-1.75-2.43 0-1.56.66-2.54 1.63-2.54.98 0 1.38 1.03 1.38 2.12 0 .2 0 .32-.02.44h-2.24zm1.52-.56c.01-.97-.35-1.4-.72-1.4-.5 0-.76.74-.79 1.4h1.51zm1.57-.68c0-.4-.04-.89-.05-1.24h.7l.03.76h.02c.16-.46.57-.84 1.02-.84h.16v.8c-.05-.02-.1-.02-.16-.02-.49 0-.85.45-.93 1.01-.02.13-.03.27-.03.44v2.68h-.77v-3.59zm3.13-1.24l.61 2.71c.07.33.15.76.21 1.18h.03c.05-.4.13-.8.2-1.18l.6-2.71h.76l-1.27 4.83h-.68l-1.26-4.83h.8zm3.49 2.48c.01 1.5.6 1.8 1.14 1.8.34 0 .61-.08.8-.18l.13.56c-.27.15-.68.23-1.07.23-1.15 0-1.75-.94-1.75-2.43 0-1.56.66-2.54 1.63-2.54.98 0 1.38 1.03 1.38 2.12 0 .2 0 .32-.02.44h-2.24zm1.52-.56c.01-.97-.35-1.4-.72-1.4-.5 0-.76.74-.79 1.4h1.51zm1.56-.68c0-.4-.03-.89-.04-1.24h.7l.03.76h.02c.16-.46.57-.84 1.02-.84h.16v.8c-.05-.02-.1-.02-.16-.02-.49 0-.85.45-.93 1.01-.02.13-.03.27-.03.44v2.68h-.77v-3.59zm3.32-3.14v2.89h1.9v-2.9h.76v6.74h-.77v-3.15h-1.89v3.15h-.77v-6.73h.77zm4.3 4.38c.01 1.5.6 1.8 1.14 1.8.34 0 .61-.08.8-.18l.13.56c-.27.15-.68.23-1.07.23-1.15 0-1.75-.94-1.75-2.43 0-1.56.66-2.54 1.63-2.54.98 0 1.38 1.03 1.38 2.12 0 .2 0 .32-.02.44h-2.24zm1.52-.56c.01-.97-.35-1.4-.72-1.4-.5 0-.76.74-.79 1.4h1.51zm1.57-4h.77v6.91h-.77v-6.91zm1.91 0h.77v6.91h-.77v-6.91zm3.28 6.99c-.88 0-1.58-.79-1.58-2.48 0-1.77.8-2.51 1.62-2.51.87 0 1.56.8 1.56 2.48 0 1.88-.86 2.51-1.6 2.51zm.03-.6c.66 0 .8-1.14.8-1.9 0-.75-.14-1.89-.82-1.89-.69 0-.82 1.14-.82 1.9 0 .8.14 1.88.83 1.88h.01zm2.49-6.11c.3-.1.65-.13 1.04-.13.7 0 1.21.18 1.58.5.52.46.91 1.32.91 2.73 0 1.54-.38 2.38-.81 2.85a2.4 2.4 0 0 1-1.86.72c-.3 0-.64-.02-.86-.07v-6.6zm.77 6.01c.11.02.22.02.3.02.84 0 1.66-.6 1.66-2.9 0-1.7-.52-2.63-1.6-2.63-.12 0-.26 0-.36.04v5.47zm5.06.7c-.87 0-1.57-.79-1.57-2.48 0-1.77.8-2.51 1.62-2.51.87 0 1.56.8 1.56 2.48 0 1.88-.86 2.51-1.6 2.51zm.04-.6c.66 0 .8-1.14.8-1.9 0-.75-.14-1.89-.82-1.89-.69 0-.82 1.14-.82 1.9 0 .8.14 1.88.83 1.88h.01zm2.43-3.07c0-.56-.03-.85-.04-1.24h.67l.04.58h.02c.21-.4.6-.66 1.11-.66.67 0 1.17.49 1.17 1.67v3.24h-.77v-3.11c0-.58-.11-1.15-.67-1.15-.32 0-.63.27-.72.79a1.8 1.8 0 0 0-.04.43v3.04h-.77v-3.59zm4.59 1.24c.01 1.5.6 1.8 1.14 1.8.34 0 .61-.08.8-.18l.13.56c-.27.15-.68.23-1.07.23-1.15 0-1.75-.94-1.75-2.43 0-1.56.66-2.54 1.63-2.54.98 0 1.38 1.03 1.38 2.12 0 .2 0 .32-.02.44h-2.24zm1.52-.56c.01-.97-.35-1.4-.72-1.4-.5 0-.76.74-.79 1.4h1.51zM75.59 171.31h-.02l-.86.5-.12-.48 1.1-.64h.5v5.2h-.6v-4.58zm3.45 4.57v-1.44H77.3v-.41l1.69-3.34h.6v3.25h.56v.5h-.56v1.44h-.56zm0-1.94v-1.46c0-.36.02-.68.05-1.03h-.04c-.17.42-.28.66-.44.98l-.72 1.5v.01h1.15zm2.72 2.01c-.81 0-1.3-.96-1.3-2.66 0-1.75.52-2.67 1.37-2.67.84 0 1.28 1 1.28 2.66 0 1.9-.6 2.67-1.34 2.67h-.01zm.04-.53c.5 0 .7-.89.7-2.13 0-1.22-.2-2.14-.7-2.14-.5 0-.72.88-.72 2.13-.01 1.26.2 2.14.7 2.14h.02zm3.21-2.41c0-.45-.02-.68-.03-1h.54l.04.48h.01a.95.95 0 0 1 .87-.54.8.8 0 0 1 .81.58h.02c.1-.19.24-.34.37-.43a1 1 0 0 1 .54-.15c.53 0 .94.38.94 1.37v2.56h-.62v-2.43c0-.5-.07-.99-.54-.99-.25 0-.48.22-.56.58-.03.1-.03.22-.03.35v2.5h-.61v-2.55c0-.42-.08-.88-.53-.88-.26 0-.5.22-.58.63l-.02.33v2.46H85v-2.87zm4.86 2.23c.14.1.38.2.62.2.35 0 .57-.21.57-.56 0-.3-.1-.5-.5-.76-.5-.32-.77-.66-.77-1.1 0-.63.46-1.07 1.06-1.07.3 0 .53.1.7.2l-.17.46a.88.88 0 0 0-.52-.17c-.33 0-.5.24-.5.5s.1.4.48.66c.45.28.8.64.8 1.18 0 .77-.52 1.15-1.16 1.15-.28 0-.6-.09-.76-.22l.15-.47zm149.49-23.93h-.02l-.86.5-.12-.48 1.1-.64h.5v5.2h-.6v-4.58zm3.08 0h-.02l-.86.5-.12-.48 1.1-.64h.5v5.2h-.6v-4.58zm1.83 4.57v-.4l.43-.59c.63-.86 1.35-1.84 1.35-2.81 0-.58-.24-.93-.73-.93-.38 0-.62.2-.75.29l-.15-.47c.18-.15.54-.35 1.01-.35.86 0 1.24.64 1.24 1.43 0 .97-.64 1.92-1.29 2.8l-.34.47v.02h1.73v.54h-2.5zm4.51-2.87c0-.45-.02-.68-.03-1h.54l.04.48h.01a.95.95 0 0 1 .87-.54.8.8 0 0 1 .81.58h.02c.1-.19.24-.34.37-.43a1 1 0 0 1 .54-.15c.53 0 .93.38.93 1.37v2.56h-.61v-2.43c0-.5-.07-.99-.54-.99-.25 0-.48.22-.56.58-.03.1-.03.22-.03.35v2.5h-.61v-2.55c0-.42-.08-.88-.53-.88-.26 0-.5.22-.58.63l-.02.33v2.46h-.61v-2.87zm4.86 2.23c.14.1.37.2.62.2.35 0 .57-.21.57-.56 0-.3-.1-.5-.5-.76-.5-.32-.77-.66-.77-1.1 0-.63.46-1.07 1.06-1.07.3 0 .53.1.69.2l-.16.46a.88.88 0 0 0-.52-.17c-.33 0-.5.24-.5.5s.1.4.48.66c.45.28.8.64.8 1.18 0 .77-.53 1.15-1.17 1.15-.28 0-.59-.09-.76-.22l.16-.47zm-240.69 1.01c-.2.11-.55.18-.97.18-1.3 0-2.26-1.05-2.26-3.34 0-2.66 1.32-3.51 2.4-3.51.4 0 .7.08.82.17l-.17.65a1.42 1.42 0 0 0-.67-.14c-.72 0-1.57.7-1.57 2.75 0 2.07.77 2.74 1.6 2.74.28 0 .53-.07.7-.14l.12.64zm.72-6.79h.77v6.91h-.77v-6.91zm2.27 1.33c-.25 0-.44-.2-.44-.5s.2-.5.45-.5c.28 0 .46.2.46.5s-.18.5-.46.5zm-.36 5.58v-4.83h.77v4.83h-.77zm2.38-2.35c.01 1.5.6 1.8 1.14 1.8.34 0 .61-.08.8-.18l.13.56c-.27.15-.68.23-1.07.23-1.15 0-1.75-.94-1.75-2.43 0-1.56.66-2.54 1.63-2.54.98 0 1.38 1.03 1.38 2.12 0 .2 0 .32-.02.44h-2.24zm1.52-.56c.01-.97-.35-1.4-.72-1.4-.5 0-.76.74-.79 1.4h1.51zm1.57-.68c0-.56-.03-.85-.04-1.24h.67l.04.58h.02c.21-.4.6-.66 1.11-.66.67 0 1.17.49 1.17 1.67v3.24h-.77v-3.11c0-.58-.1-1.15-.67-1.15-.32 0-.63.27-.72.79-.03.1-.04.26-.04.43v3.04h-.77v-3.59zm4.93-2.38v1.14h.93v.58h-.93v2.87c0 .64.22.8.5.8.13 0 .23 0 .31-.03l.04.6c-.14.04-.32.07-.57.07-.3 0-.58-.08-.76-.29-.2-.22-.29-.55-.29-1.22v-2.8h-.59v-.58h.6v-.82l.76-.31zm1.67-.76h.77v3.2h.02c.15-.29.3-.56.42-.82l1.25-2.39h.86l-1.65 2.88 1.7 3.86h-.84l-1.38-3.25-.38.65v2.6h-.77v-6.73zm4.42 4.38c.01 1.5.6 1.8 1.14 1.8.34 0 .61-.08.8-.18l.13.56c-.27.15-.68.23-1.07.23-1.15 0-1.75-.94-1.75-2.43 0-1.56.66-2.54 1.63-2.54.98 0 1.38 1.03 1.38 2.12 0 .2 0 .32-.02.44h-2.24zm1.52-.56c.01-.97-.35-1.4-.72-1.4-.5 0-.76.74-.79 1.4h1.51zm1.97-1.92l.64 2.77c.1.38.13.7.2 1h.02l.21-.99.57-2.78h.76l-.79 3.1c-.3 1.21-.63 2.38-1.2 3.12-.34.43-.7.65-.87.73l-.28-.65c.22-.13.47-.34.68-.6a3 3 0 0 0 .44-.83.64.64 0 0 0 .05-.24c0-.06 0-.12-.02-.18l-1.22-4.45h.81zm5.58 1.63h-1.69v2.53h1.92v.67h-2.69v-6.73h2.57v.67h-1.8v2.21h1.7v.65zm1.46-1.63l.44 1.03c.12.27.22.56.32.85h.02a15 15 0 0 1 .33-.85l.43-1.03h.8l-1.16 2.37 1.14 2.46h-.84l-.46-1.09-.32-.83h-.02c-.1.3-.2.56-.32.83l-.44 1.1h-.79l1.15-2.44-1.1-2.4h.81zm5.18 4.71c-.17.1-.46.18-.8.18-1.06 0-1.77-.85-1.77-2.45 0-1.39.7-2.51 1.91-2.51.26 0 .54.07.68.16l-.15.61c-.1-.05-.3-.13-.55-.13-.78 0-1.12.92-1.12 1.87 0 1.13.43 1.81 1.14 1.81.2 0 .38-.04.55-.13l.11.6zm.66-6.79h.77v2.6h.02c.1-.17.25-.32.41-.43.17-.11.37-.17.64-.17.61 0 1.13.47 1.13 1.7v3.21h-.77v-3.12c0-.6-.13-1.14-.65-1.14-.36 0-.63.26-.75.77-.02.1-.03.25-.03.36v3.13h-.77v-6.91zm6.6 5.81c0 .37 0 .8.05 1.1h-.69l-.05-.5h-.03c-.2.36-.55.58-.96.58-.65 0-1.15-.54-1.15-1.38 0-1.22.97-1.74 2.06-1.76v-.14c0-.65-.16-1.1-.77-1.1-.3 0-.57.09-.8.25l-.17-.54c.21-.15.65-.32 1.13-.32.97 0 1.38.64 1.38 1.72v2.1zm-.75-1.4c-.4 0-1.33.07-1.33 1.12 0 .64.32.86.6.86.33 0 .61-.25.7-.73.02-.09.03-.19.03-.28v-.98zm1.84-1.09c0-.56-.03-.85-.04-1.24h.67l.04.58h.02c.21-.4.6-.66 1.11-.66.67 0 1.17.49 1.17 1.67v3.24h-.77v-3.11c0-.58-.11-1.15-.67-1.15-.32 0-.63.27-.72.79-.03.1-.04.26-.04.43v3.04h-.77v-3.59zm6.97 2.97c0 1.27-.16 1.75-.48 2.11-.3.32-.75.51-1.29.51-.4 0-.8-.1-1.06-.24l.18-.6c.2.1.51.21.9.21.6 0 .98-.38.98-1.48v-.49h-.02a.97.97 0 0 1-.92.6c-.86 0-1.42-.98-1.42-2.4 0-1.79.8-2.52 1.52-2.52.51 0 .75.34.9.62h.02l.04-.54h.7c-.02.33-.05.76-.05 1.51v2.71zm-.77-2.54c0-.13 0-.25-.04-.36-.08-.32-.26-.73-.7-.73-.55 0-.85.75-.85 1.81 0 1.24.4 1.8.85 1.8.24 0 .54-.1.7-.69.04-.15.04-.3.04-.43v-1.4zm2.38.81c.01 1.5.6 1.8 1.14 1.8.34 0 .61-.08.8-.18l.13.56c-.27.15-.68.23-1.07.23-1.15 0-1.75-.94-1.75-2.43 0-1.56.66-2.54 1.63-2.54.98 0 1.38 1.03 1.38 2.12l-.02.44h-2.24zm1.52-.56c.01-.97-.35-1.4-.72-1.4-.5 0-.76.74-.79 1.4h1.51zm-52.86 12.79c-.2.11-.55.18-.97.18-1.3 0-2.26-1.05-2.26-3.34 0-2.66 1.32-3.51 2.4-3.51.4 0 .7.08.82.17l-.17.65a1.42 1.42 0 0 0-.67-.14c-.72 0-1.57.7-1.57 2.75 0 2.07.76 2.74 1.6 2.74.28 0 .53-.07.7-.14l.12.64zm.73-6.79h.76v2.6h.02c.1-.17.25-.32.41-.43.17-.11.37-.17.64-.17.61 0 1.13.47 1.13 1.7v3.21h-.77v-3.12c0-.6-.13-1.14-.65-1.14-.36 0-.63.26-.75.77-.02.1-.03.25-.03.36v3.13h-.77v-6.91zm6.6 5.81c0 .37 0 .8.04 1.1h-.69l-.05-.5h-.03c-.2.36-.55.58-.96.58-.65 0-1.15-.54-1.15-1.38 0-1.22.97-1.74 2.06-1.76v-.14c0-.65-.16-1.1-.77-1.1-.3 0-.57.09-.8.25l-.17-.54c.21-.15.65-.32 1.13-.32.97 0 1.38.64 1.38 1.72v2.1zm-.76-1.4c-.4 0-1.33.07-1.33 1.12 0 .64.32.86.6.86.33 0 .61-.25.7-.73.02-.09.03-.19.03-.28v-.98zm1.84-1.09c0-.56-.03-.85-.04-1.24h.67l.04.58h.02c.21-.4.6-.66 1.11-.66.67 0 1.17.49 1.17 1.67v3.24h-.77v-3.11c0-.58-.1-1.15-.67-1.15-.32 0-.63.27-.72.79-.03.1-.04.26-.04.43v3.04h-.77v-3.59zm6.97 2.97c0 1.27-.16 1.75-.48 2.11-.3.32-.75.51-1.29.51-.4 0-.8-.1-1.06-.24l.18-.6c.2.1.51.21.9.21.6 0 .98-.38.98-1.48v-.49h-.02a.97.97 0 0 1-.92.6c-.86 0-1.42-.98-1.42-2.4 0-1.79.8-2.52 1.52-2.52.51 0 .75.34.9.62h.02l.04-.54h.7c-.02.33-.05.76-.05 1.51v2.71zm-.77-2.54c0-.13 0-.25-.04-.36-.08-.32-.26-.73-.7-.73-.55 0-.85.75-.85 1.81 0 1.24.4 1.8.85 1.8.24 0 .54-.1.7-.69.04-.15.04-.3.04-.43v-1.4zm2.38.81c.01 1.5.6 1.8 1.14 1.8.34 0 .61-.08.8-.18l.13.56c-.27.15-.68.23-1.07.23-1.15 0-1.75-.94-1.75-2.43 0-1.56.66-2.54 1.63-2.54.98 0 1.38 1.03 1.38 2.12 0 .2 0 .32-.02.44h-2.24zm1.52-.56c.01-.97-.35-1.4-.72-1.4-.5 0-.76.74-.79 1.4h1.51zm4.58 2.79c-.2.11-.55.18-.97.18-1.3 0-2.26-1.05-2.26-3.34 0-2.66 1.32-3.51 2.4-3.51.4 0 .7.08.82.17l-.17.65a1.42 1.42 0 0 0-.67-.14c-.72 0-1.57.7-1.57 2.75 0 2.07.76 2.74 1.6 2.74.28 0 .53-.07.7-.14l.12.64zm1.04-5.46c-.25 0-.44-.2-.44-.5s.2-.5.45-.5c.28 0 .46.2.46.5s-.18.5-.46.5zm-.36 5.58v-4.83h.77v4.83h-.77zm1.83-3.33c0-.73-.03-1.16-.04-1.5h.7l.03.6h.02c.26-.5.65-.68 1.02-.68.85 0 1.4.89 1.4 2.48 0 1.8-.74 2.51-1.49 2.51a.91.91 0 0 1-.85-.55h-.02v2.4h-.77v-5.26zm.77 1.56c0 .14.01.28.04.4.15.7.5.81.7.81.64 0 .85-.88.85-1.85 0-1-.24-1.85-.85-1.85-.35 0-.67.44-.7.88-.04.12-.04.24-.04.37v1.24zm3.23-5.14h.77v2.6h.02c.1-.17.25-.32.41-.43.17-.11.37-.17.64-.17.61 0 1.13.47 1.13 1.7v3.21h-.77v-3.12c0-.6-.13-1.14-.65-1.14-.36 0-.63.26-.75.77-.02.1-.03.25-.03.36v3.13h-.77v-6.91zm4.59 4.56c.01 1.5.6 1.8 1.14 1.8.34 0 .61-.08.8-.18l.13.56c-.27.15-.68.23-1.07.23-1.15 0-1.75-.94-1.75-2.43 0-1.56.66-2.54 1.63-2.54.98 0 1.38 1.03 1.38 2.12 0 .2 0 .32-.02.44h-2.24zm1.52-.56c.01-.97-.35-1.4-.72-1.4-.5 0-.76.74-.79 1.4h1.51zm1.56-.68c0-.4-.03-.89-.04-1.24h.7l.03.76h.02c.16-.46.57-.84 1.02-.84h.16v.8c-.05-.02-.1-.02-.16-.02-.49 0-.85.45-.93 1.01-.02.13-.03.27-.03.44v2.68h-.77v-3.59zm2.4 2.7c.23.14.63.27.97.27.7 0 1.12-.46 1.12-1.14 0-.62-.36-1-.89-1.4-.53-.37-1.27-1-1.27-1.86a1.7 1.7 0 0 1 1.78-1.77c.42 0 .8.14.95.25l-.19.66a1.4 1.4 0 0 0-.8-.23c-.66 0-.97.5-.97.96 0 .67.35.93 1 1.39.8.56 1.16 1.18 1.16 1.93a1.8 1.8 0 0 1-1.89 1.9c-.46 0-.95-.16-1.14-.3l.17-.66zm3.69-2.44c0-.73-.03-1.16-.04-1.5h.7l.03.6h.02c.26-.5.65-.68 1.02-.68.85 0 1.4.89 1.4 2.48 0 1.8-.74 2.51-1.49 2.51a.91.91 0 0 1-.85-.55h-.02v2.4h-.77v-5.26zm.77 1.56c0 .14.01.28.04.4.15.7.5.81.7.81.64 0 .85-.88.85-1.85 0-1-.24-1.85-.85-1.85-.35 0-.67.44-.7.88-.04.12-.04.24-.04.37v1.24zm3.77-.58c.01 1.5.6 1.8 1.14 1.8.34 0 .61-.08.8-.18l.13.56c-.27.15-.68.23-1.07.23-1.15 0-1.75-.94-1.75-2.43 0-1.56.66-2.54 1.63-2.54.98 0 1.38 1.03 1.38 2.12l-.02.44h-2.24zm1.52-.56c.01-.97-.35-1.4-.72-1.4-.5 0-.76.74-.79 1.4h1.51zm3.93 2.79c-.17.1-.46.18-.8.18-1.06 0-1.77-.85-1.77-2.45 0-1.39.7-2.51 1.91-2.51.26 0 .54.07.68.16l-.15.61c-.1-.05-.3-.13-.55-.13-.78 0-1.12.92-1.12 1.87 0 1.13.43 1.81 1.14 1.81.2 0 .38-.04.55-.13l.11.6zm-40.6 3.39h2.57v.67h-1.8v2.35h1.68v.65h-1.68v3.06h-.77v-6.73zm3.64 1.15c-.25 0-.44-.2-.44-.5s.2-.5.45-.5c.28 0 .46.2.46.5s-.18.5-.46.5h-.01zm-.36 5.58v-4.83h.77v4.83h-.77zm1.84-3.59c0-.56-.03-.85-.04-1.24h.67l.04.58h.02c.2-.4.6-.66 1.1-.66.68 0 1.18.49 1.18 1.67v3.24h-.78v-3.11c0-.58-.1-1.15-.66-1.15-.32 0-.63.27-.72.79-.03.1-.04.26-.04.43v3.04h-.77v-3.59zm4.41-1.99c-.25 0-.44-.2-.44-.5s.2-.5.45-.5c.28 0 .46.2.46.5s-.18.5-.46.5h-.01zm-.36 5.58v-4.83h.77v4.83h-.77zm1.71-.8c.17.11.47.25.78.25.43 0 .7-.27.7-.7 0-.37-.12-.63-.61-.95-.63-.4-.97-.82-.97-1.37 0-.8.58-1.34 1.33-1.34.38 0 .66.12.86.25l-.2.58a1.1 1.1 0 0 0-.65-.22c-.41 0-.62.3-.62.62 0 .31.12.5.6.82.56.36 1 .81 1 1.48 0 .97-.66 1.44-1.46 1.44-.35 0-.74-.1-.95-.28l.19-.58zm3.02-6.11h.77v2.6h.02c.1-.17.25-.32.4-.43.18-.11.38-.17.65-.17.6 0 1.13.47 1.13 1.7v3.21h-.77v-3.12c0-.6-.13-1.14-.65-1.14-.36 0-.63.26-.75.77-.02.1-.03.25-.03.36v3.13h-.77v-6.91zm4.58 4.56c.02 1.5.6 1.8 1.15 1.8.34 0 .6-.08.8-.18l.13.56c-.27.15-.68.23-1.07.23-1.15 0-1.75-.94-1.75-2.43 0-1.56.66-2.54 1.63-2.54.97 0 1.37 1.03 1.37 2.12 0 .2 0 .32-.02.44h-2.23zm1.53-.56c0-.97-.35-1.4-.72-1.4-.5 0-.76.74-.8 1.4h1.52zm4.49-4v5.75c0 .33.03.88.04 1.16H50l-.05-.6h-.04c-.15.34-.5.68-1.01.68-.82 0-1.41-.88-1.41-2.48 0-1.72.7-2.52 1.46-2.52.35 0 .69.16.88.57h.02v-2.56h.77zm-.77 3.91l-.01-.32c-.04-.5-.35-.93-.72-.93-.64 0-.86.89-.86 1.86 0 1.02.26 1.83.82 1.83.24 0 .57-.13.74-.83.03-.09.03-.2.03-.31v-1.3zm188.51 17.94h-.02l-.86.5-.12-.48 1.1-.64h.5v5.2h-.6v-4.58zm4.13-.17c-.1 0-.23.02-.37.05-.87.22-1.21 1.08-1.34 1.88h.03c.2-.3.48-.5.87-.5.66 0 1.12.61 1.12 1.6 0 .99-.44 1.78-1.28 1.78-.9 0-1.36-.92-1.36-2.12 0-1 .26-1.78.67-2.34.31-.44.8-.72 1.26-.82l.4-.05v.52zm-.96 4.33c.35 0 .66-.35.66-1.25 0-.78-.28-1.18-.7-1.18-.26 0-.52.17-.68.57-.01.04-.04.15-.04.3.01 1.07.33 1.56.75 1.56h.01zm3.08-4.85c.75 0 1.12.63 1.12 1.23 0 .45-.21.9-.7 1.23v.01c.49.33.84.8.84 1.43 0 .8-.54 1.43-1.34 1.43-.86 0-1.3-.69-1.3-1.33 0-.73.44-1.2.86-1.5v-.01c-.44-.3-.69-.75-.69-1.2 0-.8.57-1.29 1.2-1.29h.01zm-.05 4.87c.38 0 .7-.29.7-.94 0-.6-.34-.94-.74-1.2-.42.26-.68.7-.68 1.17 0 .58.27.97.7.97h.02zm.01-4.41c-.34 0-.57.33-.57.8 0 .53.32.79.64 1 .3-.23.5-.57.5-.96 0-.5-.2-.84-.56-.84zm3.21 1.93c0-.45-.02-.68-.03-1h.54l.04.48h.01a.95.95 0 0 1 .86-.54.8.8 0 0 1 .82.58h.02c.1-.19.24-.34.37-.43a1 1 0 0 1 .54-.15c.53 0 .93.38.93 1.37v2.56h-.61v-2.43c0-.5-.07-.99-.54-.99-.25 0-.48.22-.56.58-.03.1-.03.22-.03.35v2.5h-.61v-2.55c0-.42-.08-.88-.53-.88-.26 0-.5.22-.58.63l-.02.33v2.46h-.62v-2.87zm4.86 2.23c.13.1.37.2.62.2.35 0 .57-.21.57-.56 0-.3-.1-.5-.5-.76-.5-.32-.77-.66-.77-1.1 0-.63.46-1.07 1.06-1.07.3 0 .53.1.69.2l-.16.46a.88.88 0 0 0-.52-.17c-.33 0-.5.24-.5.5s.1.4.48.66c.45.28.8.64.8 1.18 0 .77-.52 1.15-1.16 1.15-.28 0-.6-.09-.76-.22l.15-.47z"/><path fill="none" stroke="#0071bc" d="M329.94 75.17c7.57 2.6-2.73 16.23 4.4 18.27-7.12 2.03 3.17 15.65-4.4 18.27" stroke-linejoin="round"/><path d="M341.34 118.92v-1.1h.62v2.9h-.62v-1.1h-5.45v-.7h5.45zm.62 2.48v.69h-5.48v1.7h-.59v-2.4h6.07zm-5.26 2.96c-.14.2-.25.56-.25.87 0 .63.41 1 1.02 1 .56 0 .9-.32 1.26-.8.34-.47.9-1.14 1.69-1.14.92 0 1.6.65 1.6 1.6 0 .38-.13.72-.23.86l-.6-.17c.11-.15.21-.4.21-.72 0-.6-.45-.87-.86-.87-.6 0-.85.31-1.26.89-.5.73-1.07 1.05-1.74 1.05-1.05 0-1.7-.74-1.7-1.7 0-.42.13-.86.27-1.03l.58.16zm1.81 6.49h-.53v-1.97h.53v1.97zm2.62 6.1v-1.58l-1.56-.24a.8.8 0 0 1 .02.22c0 .31-.14.8-.44 1.11-.3.32-.74.5-1.33.5-1.17 0-2-.74-2-1.78 0-.36.1-.76.25-1l.55.16c-.1.18-.22.5-.22.82 0 .59.45 1.1 1.35 1.1.92 0 1.31-.56 1.31-1.32 0-.22 0-.35-.03-.46l2.71.37v2.1h-.61zm.1 3.34c0-.12-.02-.25-.06-.42-.24-.97-1.21-1.36-2.11-1.5v.03c.33.22.56.55.56.99 0 .74-.69 1.26-1.8 1.26-1.1 0-2-.5-2-1.44 0-1.03 1.03-1.54 2.39-1.54 1.13 0 2 .3 2.63.75.5.35.81.91.92 1.43.04.18.05.33.06.44h-.59zm-4.87-1.07c0 .38.39.73 1.4.73.89 0 1.33-.31 1.33-.78 0-.3-.2-.6-.63-.76a1.2 1.2 0 0 0-.36-.05c-1.2.01-1.74.37-1.74.85zm2.76 3.56c.52 0 .78-.03 1.13-.04v.62l-.53.03v.02c.35.19.6.51.6.97 0 .4-.19.76-.66.92v.02c.22.12.4.27.5.42.1.18.16.38.16.6 0 .6-.42 1.06-1.54 1.06h-2.89v-.7h2.74c.56 0 1.11-.08 1.11-.6 0-.29-.24-.54-.65-.64-.11-.02-.25-.02-.4-.02h-2.8v-.7h2.86c.48 0 1-.08 1-.6 0-.28-.25-.56-.72-.64-.1-.02-.23-.03-.37-.03h-2.77v-.69h3.23zm-2.51 5.46c-.1.16-.23.43-.23.7 0 .4.25.64.63.64.34 0 .57-.11.86-.55.37-.57.75-.88 1.24-.88.71 0 1.2.53 1.2 1.2 0 .34-.1.6-.22.77l-.52-.18a1 1 0 0 0 .2-.58c0-.37-.27-.56-.56-.56s-.46.1-.75.54c-.32.5-.72.9-1.33.9-.87 0-1.3-.6-1.3-1.31 0-.32.1-.67.26-.86l.52.17z"/><path fill="none" stroke="#009245" d="M329.94 115.17c7.57 2.7-2.73 16.8 4.4 18.9-7.12 2.1 3.17 16.2-4.4 18.9" stroke-linejoin="round"/><path fill="#b2d4eb" fill-rule="evenodd" d="M73.29 118.74c0 1.98-1.62 3.6-3.6 3.6H6.98a3.61 3.61 0 0 1-3.6-3.6v-9.85c0-1.98 1.62-3.6 3.6-3.6h62.7a3.6 3.6 0 0 1 3.6 3.6v9.85z" clip-rule="evenodd"/><path fill="none" stroke="#000" d="M73.29 118.74c0 1.98-1.62 3.6-3.6 3.6H6.98a3.61 3.61 0 0 1-3.6-3.6v-9.85c0-1.98 1.62-3.6 3.6-3.6h62.7a3.6 3.6 0 0 1 3.6 3.6v9.85z" stroke-linecap="round" stroke-linejoin="round"/><path d="M33.78 114.73l-.44 2.02h-.75l1.54-6.74h.85l1.5 6.74h-.76l-.44-2.02h-1.5zm1.4-.62l-.36-1.7c-.1-.49-.19-1.05-.27-1.55h-.03a28.9 28.9 0 0 1-.28 1.55l-.35 1.7h1.28zm4.89 2.52c-.2.1-.55.18-.97.18-1.3 0-2.26-1.05-2.26-3.34 0-2.67 1.32-3.52 2.4-3.52.4 0 .7.08.82.17l-.17.65a1.42 1.42 0 0 0-.67-.14c-.72 0-1.57.7-1.57 2.76 0 2.07.76 2.74 1.6 2.74.28 0 .53-.07.7-.14l.12.64zm.78-6.62h.77v3.2h.02l.42-.8 1.25-2.4h.86l-1.65 2.88 1.7 3.86h-.84L42 113.5l-.38.65v2.6h-.77V110z"/><path fill="#fddfbb" fill-rule="evenodd" d="M73.29 136.12c0 1.98-1.62 3.6-3.6 3.6H6.98a3.61 3.61 0 0 1-3.6-3.6v-9.86c0-1.98 1.62-3.6 3.6-3.6h62.7a3.6 3.6 0 0 1 3.6 3.6v9.86z" clip-rule="evenodd"/><path fill="none" stroke="#000" d="M73.29 136.12c0 1.98-1.62 3.6-3.6 3.6H6.98a3.61 3.61 0 0 1-3.6-3.6v-9.86c0-1.98 1.62-3.6 3.6-3.6h62.7a3.6 3.6 0 0 1 3.6 3.6v9.86z" stroke-linecap="round" stroke-linejoin="round"/><path d="M25.74 134.1c-.21.1-.55.18-.97.18-1.31 0-2.26-1.05-2.26-3.34 0-2.67 1.32-3.52 2.39-3.52.4 0 .7.08.83.17l-.17.65a1.42 1.42 0 0 0-.67-.14c-.72 0-1.57.7-1.57 2.76 0 2.07.76 2.74 1.59 2.74.29 0 .54-.07.7-.14l.13.64zm.72-6.8h.77v6.92h-.77v-6.92zm2.27 1.33c-.25 0-.44-.2-.44-.5s.2-.5.45-.5c.28 0 .46.2.46.5s-.18.5-.46.5h-.01zm-.36 5.59v-4.84h.77v4.84h-.77zm2.38-2.35c.01 1.49.59 1.8 1.14 1.8.34 0 .6-.08.8-.18l.13.56c-.27.15-.68.22-1.07.22-1.15 0-1.75-.93-1.75-2.42 0-1.57.66-2.55 1.63-2.55.98 0 1.38 1.04 1.38 2.13l-.02.44h-2.24zm1.52-.57c0-.97-.35-1.4-.72-1.4-.5 0-.76.74-.8 1.4h1.52zm1.57-.67c0-.57-.03-.86-.04-1.25h.67l.04.58h.02c.2-.4.6-.66 1.1-.66.68 0 1.18.49 1.18 1.67v3.25h-.77v-3.12c0-.58-.11-1.15-.67-1.15-.32 0-.63.27-.72.79-.03.1-.04.26-.04.43v3.05h-.77v-3.6zm4.93-2.38v1.13h.93v.58h-.93v2.88c0 .64.22.8.5.8.13 0 .23-.01.3-.03l.05.59c-.14.05-.32.08-.57.08-.31 0-.58-.08-.76-.3-.2-.21-.29-.54-.29-1.21v-2.81h-.59v-.58H38v-.82l.77-.31zm2.43-.77v2.89h1.9v-2.9h.77v6.75h-.77v-3.15h-1.9v3.15h-.76v-6.74h.77zm4.3 4.39c.02 1.49.6 1.8 1.15 1.8.34 0 .6-.08.8-.18l.13.56c-.27.15-.68.22-1.07.22-1.15 0-1.75-.93-1.75-2.42 0-1.57.66-2.55 1.63-2.55.98 0 1.38 1.04 1.38 2.13l-.02.44H45.5zm1.53-.57c0-.97-.35-1.4-.72-1.4-.5 0-.76.74-.8 1.4h1.52zm1.57-4h.77v6.92h-.77v-6.92zm1.9 0h.78v6.92h-.77v-6.92zm3.28 7c-.87 0-1.57-.8-1.57-2.5 0-1.76.79-2.5 1.62-2.5.87 0 1.56.8 1.56 2.49 0 1.88-.86 2.5-1.6 2.5h-.01zm.04-.61c.66 0 .8-1.13.8-1.9 0-.74-.14-1.88-.82-1.88-.69 0-.82 1.14-.82 1.89 0 .8.14 1.89.83 1.89z"/><path fill="#ccc" fill-rule="evenodd" d="M73.28 193.3c0 1.98-1.62 3.6-3.6 3.6H6.98a3.61 3.61 0 0 1-3.6-3.6v-9.86c0-1.98 1.62-3.6 3.6-3.6h62.7c1.98 0 3.6 1.62 3.6 3.6v9.86z" clip-rule="evenodd"/><path fill="none" stroke="#000" d="M73.28 193.3c0 1.98-1.62 3.6-3.6 3.6H6.98a3.61 3.61 0 0 1-3.6-3.6v-9.86c0-1.98 1.62-3.6 3.6-3.6h62.7c1.98 0 3.6 1.62 3.6 3.6v9.86z" stroke-linecap="round" stroke-linejoin="round"/><path d="M14.4 189.29l-.44 2.02h-.75l1.54-6.74h.85l1.5 6.74h-.76l-.44-2.02h-1.5zm1.4-.62l-.36-1.71a35.2 35.2 0 0 1-.27-1.54h-.03a28.9 28.9 0 0 1-.28 1.55l-.35 1.7h1.28zm2.07-.69c0-.74-.03-1.17-.04-1.51h.7l.03.6h.02c.26-.5.65-.68 1.02-.68.85 0 1.4.89 1.4 2.49 0 1.8-.74 2.5-1.49 2.5a.91.91 0 0 1-.85-.54h-.02v2.39h-.77v-5.25zm.77 1.56c0 .14.01.28.04.4.15.69.5.8.7.8.64 0 .85-.87.85-1.84 0-1.01-.24-1.85-.85-1.85-.35 0-.67.44-.7.88-.04.12-.04.24-.04.37v1.24zm3.22-1.56c0-.74-.03-1.17-.04-1.51h.7l.03.6h.02c.26-.5.65-.68 1.02-.68.85 0 1.4.89 1.4 2.49 0 1.8-.74 2.5-1.49 2.5a.91.91 0 0 1-.85-.54h-.02v2.39h-.77v-5.25zm.77 1.56c0 .14.01.28.04.4.15.69.5.8.7.8.64 0 .85-.87.85-1.84 0-1.01-.24-1.85-.85-1.85-.35 0-.67.44-.7.88-.04.12-.04.24-.04.37v1.24zm3.23-5.14h.77v6.9h-.77v-6.9zm2.27 1.32c-.25 0-.44-.2-.44-.5s.2-.5.45-.5c.28 0 .46.2.46.5s-.18.5-.46.5zm-.36 5.59v-4.84h.77v4.84h-.77zm4.2-.12c-.17.1-.46.18-.8.18-1.06 0-1.77-.85-1.77-2.45 0-1.39.7-2.52 1.91-2.52.26 0 .54.07.68.16l-.15.62c-.1-.05-.3-.13-.55-.13-.78 0-1.12.92-1.12 1.87 0 1.13.43 1.8 1.14 1.8.2 0 .38-.03.55-.12l.11.59zm3.21-.99c0 .38 0 .8.05 1.1h-.69l-.05-.5h-.03c-.2.37-.55.59-.96.59-.65 0-1.15-.54-1.15-1.38 0-1.22.97-1.75 2.06-1.76v-.15c0-.65-.16-1.1-.77-1.1-.3 0-.57.09-.8.25l-.17-.54c.21-.15.65-.32 1.13-.32.97 0 1.38.64 1.38 1.72v2.1zm-.75-1.4c-.4 0-1.33.08-1.33 1.13 0 .64.32.86.6.86.33 0 .61-.25.7-.73l.03-.28v-.98zm2.69-3.46v1.13h.93v.58h-.93v2.88c0 .64.22.8.5.8.13 0 .23-.01.31-.03l.04.59c-.14.05-.32.08-.57.08-.3 0-.58-.08-.76-.3-.2-.21-.29-.54-.29-1.21v-2.81h-.59v-.58h.6v-.82l.76-.3zm1.98.38c-.26 0-.45-.2-.45-.5s.2-.5.45-.5c.28 0 .46.2.46.5s-.18.5-.46.5zm-.37 5.59v-4.84h.77v4.84h-.77zm3.2.08c-.87 0-1.57-.8-1.57-2.49 0-1.77.8-2.5 1.62-2.5.87 0 1.56.79 1.56 2.48 0 1.88-.86 2.5-1.6 2.5zm.04-.61c.66 0 .8-1.13.8-1.9 0-.74-.14-1.88-.82-1.88-.69 0-.82 1.14-.82 1.89 0 .8.14 1.89.83 1.89h.01zm2.43-3.06c0-.57-.03-.86-.04-1.25h.67l.04.58h.02c.21-.39.6-.66 1.11-.66.67 0 1.17.49 1.17 1.67v3.25h-.77v-3.12c0-.58-.11-1.15-.67-1.15-.32 0-.63.27-.72.79-.03.11-.04.26-.04.43v3.05h-.77v-3.59zm5.68-3.05a3.6 3.6 0 0 1 1.04-.13c.7 0 1.21.18 1.58.51.52.45.91 1.32.91 2.73 0 1.54-.38 2.38-.8 2.85a2.4 2.4 0 0 1-1.87.72c-.3 0-.64-.02-.86-.07v-6.6zm.77 6.02c.11.02.22.02.3.02.84 0 1.66-.61 1.66-2.9 0-1.7-.52-2.64-1.6-2.64-.12 0-.26.01-.36.04v5.48zm6.17-.49c0 .38 0 .8.05 1.1h-.69l-.05-.5h-.03c-.2.37-.55.59-.96.59-.65 0-1.15-.54-1.15-1.38 0-1.22.97-1.75 2.06-1.76v-.15c0-.65-.16-1.1-.77-1.1-.3 0-.57.09-.8.25l-.17-.54c.21-.15.65-.32 1.13-.32.97 0 1.38.64 1.38 1.72v2.1zm-.75-1.4c-.4 0-1.33.08-1.33 1.13 0 .64.32.86.6.86.33 0 .61-.25.7-.73l.03-.28v-.98zm2.69-3.46v1.13h.93v.58h-.93v2.88c0 .64.22.8.5.8.13 0 .23-.01.31-.03l.04.59c-.14.05-.32.08-.57.08-.3 0-.58-.08-.76-.3-.2-.21-.29-.54-.29-1.21v-2.81h-.59v-.58h.6v-.82l.76-.3zm4.16 4.86c0 .38 0 .8.05 1.1h-.69l-.05-.5h-.03c-.2.37-.55.59-.96.59-.65 0-1.15-.54-1.15-1.38 0-1.22.97-1.75 2.06-1.76v-.15c0-.65-.16-1.1-.77-1.1-.3 0-.57.09-.8.25l-.17-.54c.21-.15.65-.32 1.13-.32.97 0 1.38.64 1.38 1.72v2.1zm-.75-1.4c-.4 0-1.33.08-1.33 1.13 0 .64.32.86.6.86.33 0 .61-.25.7-.73l.03-.28v-.98zm204-18.55a2.2 2.2 0 0 1-.97.18c-1.3 0-2.26-1.05-2.26-3.34 0-2.66 1.32-3.51 2.4-3.51.4 0 .7.08.82.17l-.17.65c-.16-.07-.32-.14-.67-.14-.72 0-1.57.7-1.57 2.75 0 2.07.76 2.74 1.6 2.74.28 0 .53-.07.7-.14l.12.64zm.73-6.79h.76v2.6h.02c.1-.17.25-.32.41-.43.17-.11.37-.17.64-.17.61 0 1.13.47 1.13 1.7v3.21h-.77v-3.12c0-.6-.13-1.14-.65-1.14-.36 0-.63.26-.74.77-.03.1-.04.25-.04.36v3.13h-.77v-6.91zm6.6 5.81c0 .37 0 .8.04 1.1h-.69l-.05-.5h-.03c-.2.36-.55.58-.96.58-.65 0-1.15-.54-1.15-1.38 0-1.22.97-1.74 2.06-1.76v-.14c0-.65-.16-1.1-.77-1.1-.3 0-.57.09-.8.25l-.17-.54c.21-.15.65-.32 1.13-.32.97 0 1.38.64 1.38 1.72v2.1zm-.76-1.4c-.4 0-1.33.07-1.33 1.12 0 .64.32.86.6.86.33 0 .61-.25.7-.73.02-.09.03-.19.03-.28v-.98zm1.84-1.09c0-.56-.03-.85-.04-1.24h.67l.04.58h.02c.21-.4.6-.66 1.11-.66.67 0 1.17.49 1.17 1.67v3.24h-.77v-3.11c0-.58-.1-1.15-.67-1.15-.32 0-.63.27-.72.79a1.8 1.8 0 0 0-.04.43v3.04h-.77v-3.59zm6.97 2.97c0 1.27-.16 1.75-.48 2.11-.3.32-.75.51-1.29.51-.4 0-.8-.1-1.06-.24l.18-.6c.2.1.51.21.9.21.6 0 .98-.38.98-1.48v-.49h-.02a.97.97 0 0 1-.92.6c-.86 0-1.42-.98-1.42-2.4 0-1.79.8-2.52 1.52-2.52.51 0 .75.34.9.62h.02l.04-.54h.7c-.02.33-.05.76-.05 1.51v2.71zm-.77-2.54c0-.13 0-.25-.04-.36-.08-.32-.26-.73-.7-.73-.55 0-.85.75-.85 1.81 0 1.24.4 1.8.85 1.8.24 0 .54-.1.7-.69.04-.15.04-.3.04-.43v-1.4zm2.38.81c.01 1.5.6 1.8 1.14 1.8.34 0 .61-.08.8-.18l.13.56c-.27.15-.68.23-1.07.23-1.15 0-1.75-.94-1.75-2.43 0-1.56.66-2.54 1.63-2.54.98 0 1.38 1.03 1.38 2.12 0 .2 0 .32-.02.44h-2.24zm1.52-.56c.01-.97-.35-1.4-.72-1.4-.5 0-.76.74-.79 1.4h1.51zm4.58 2.79a2.2 2.2 0 0 1-.97.18c-1.3 0-2.26-1.05-2.26-3.34 0-2.66 1.32-3.51 2.4-3.51.4 0 .7.08.82.17l-.17.65c-.16-.07-.32-.14-.67-.14-.72 0-1.57.7-1.57 2.75 0 2.07.76 2.74 1.6 2.74.28 0 .53-.07.7-.14l.12.64zm1.04-5.46c-.25 0-.44-.2-.44-.5s.2-.5.45-.5c.28 0 .46.2.46.5s-.18.5-.46.5zm-.36 5.58v-4.83h.77v4.83h-.77zm1.83-3.33c0-.73-.03-1.16-.04-1.5h.7l.03.6h.02c.26-.5.65-.68 1.02-.68.85 0 1.4.89 1.4 2.48 0 1.8-.74 2.51-1.49 2.51a.9.9 0 0 1-.85-.55h-.02v2.4h-.77v-5.26zm.77 1.56c0 .14.01.28.04.4.15.7.5.81.7.81.64 0 .85-.88.85-1.85 0-1-.24-1.85-.85-1.85-.35 0-.67.44-.7.88-.04.12-.04.24-.04.37v1.24zm3.23-5.14h.77v2.6h.02c.1-.17.25-.32.41-.43.17-.11.37-.17.64-.17.61 0 1.13.47 1.13 1.7v3.21h-.77v-3.12c0-.6-.13-1.14-.65-1.14-.36 0-.63.26-.75.77-.02.1-.03.25-.03.36v3.13h-.77v-6.91zm4.59 4.56c.01 1.5.6 1.8 1.14 1.8.34 0 .61-.08.8-.18l.13.56c-.27.15-.68.23-1.07.23-1.15 0-1.75-.94-1.75-2.43 0-1.56.66-2.54 1.63-2.54.98 0 1.38 1.03 1.38 2.12 0 .2 0 .32-.02.44h-2.24zm1.52-.56c.01-.97-.35-1.4-.72-1.4-.5 0-.76.74-.79 1.4h1.51zm1.56-.68c0-.4-.03-.89-.04-1.24h.7l.03.76h.02c.16-.46.57-.84 1.02-.84h.16v.8c-.05-.02-.1-.02-.16-.02-.49 0-.85.45-.93 1.01-.02.13-.03.27-.03.44v2.68h-.77v-3.59zm2.4 2.7c.23.14.63.27.97.27.7 0 1.12-.46 1.12-1.14 0-.62-.36-1-.89-1.4-.53-.37-1.27-1-1.27-1.86a1.7 1.7 0 0 1 1.78-1.77c.42 0 .79.14.95.25l-.19.66a1.4 1.4 0 0 0-.8-.23c-.66 0-.97.5-.97.96 0 .67.35.93.99 1.39.81.56 1.17 1.18 1.17 1.93a1.8 1.8 0 0 1-1.89 1.9c-.46 0-.95-.16-1.14-.3l.17-.66zm3.69-2.44c0-.73-.03-1.16-.04-1.5h.7l.03.6h.02c.26-.5.65-.68 1.02-.68.85 0 1.4.89 1.4 2.48 0 1.8-.74 2.51-1.49 2.51a.9.9 0 0 1-.85-.55h-.02v2.4h-.77v-5.26zm.77 1.56c0 .14.01.28.04.4.15.7.5.81.7.81.64 0 .85-.88.85-1.85 0-1-.24-1.85-.85-1.85-.35 0-.67.44-.7.88-.04.12-.04.24-.04.37v1.24zm3.77-.58c.01 1.5.6 1.8 1.14 1.8.34 0 .61-.08.8-.18l.13.56c-.27.15-.68.23-1.07.23-1.15 0-1.75-.94-1.75-2.43 0-1.56.66-2.54 1.63-2.54.98 0 1.38 1.03 1.38 2.12 0 .2 0 .32-.02.44h-2.24zm1.52-.56c.01-.97-.35-1.4-.72-1.4-.5 0-.76.74-.79 1.4h1.51zm3.93 2.79c-.17.1-.46.18-.8.18-1.06 0-1.77-.85-1.77-2.45 0-1.39.7-2.51 1.91-2.51.26 0 .54.07.68.16l-.15.61c-.1-.05-.3-.13-.55-.13-.78 0-1.12.92-1.12 1.87 0 1.13.43 1.81 1.14 1.81.2 0 .38-.04.55-.13l.11.6zm-40.6 3.39h2.57v.67h-1.8v2.35h1.68v.65h-1.68v3.06h-.77v-6.73zm3.64 1.15c-.25 0-.44-.2-.44-.5s.2-.5.45-.5c.28 0 .46.2.46.5s-.18.5-.46.5h-.01zm-.36 5.58v-4.83h.77v4.83h-.77zm1.84-3.59c0-.56-.03-.85-.04-1.24h.67l.04.58h.02c.2-.4.6-.66 1.1-.66.68 0 1.18.49 1.18 1.67v3.24h-.77v-3.11c0-.58-.11-1.15-.67-1.15-.32 0-.63.27-.72.79-.03.1-.04.26-.04.43v3.04h-.77v-3.59zm4.41-1.99c-.25 0-.44-.2-.44-.5s.2-.5.45-.5c.28 0 .46.2.46.5s-.18.5-.46.5h-.01zm-.36 5.58v-4.83h.77v4.83h-.77zm1.71-.8c.17.11.47.25.78.25.43 0 .7-.27.7-.7 0-.37-.12-.63-.61-.95-.63-.4-.97-.82-.97-1.37 0-.8.58-1.34 1.33-1.34.38 0 .66.12.86.25l-.2.58a1.1 1.1 0 0 0-.65-.22c-.41 0-.62.3-.62.62 0 .31.12.5.6.82.56.36 1 .81 1 1.48 0 .97-.66 1.44-1.46 1.44-.35 0-.74-.1-.95-.28l.19-.58zm3.02-6.11h.77v2.6h.02c.1-.17.25-.32.4-.43.18-.11.38-.17.65-.17.6 0 1.13.47 1.13 1.7v3.21h-.77v-3.12c0-.6-.13-1.14-.65-1.14-.36 0-.63.26-.75.77-.02.1-.03.25-.03.36v3.13h-.77v-6.91zm4.58 4.56c.02 1.5.6 1.8 1.15 1.8.34 0 .6-.08.8-.18l.13.56c-.27.15-.68.23-1.07.23-1.15 0-1.75-.94-1.75-2.43 0-1.56.66-2.54 1.63-2.54.98 0 1.38 1.03 1.38 2.12l-.02.44h-2.24zm1.53-.56c0-.97-.35-1.4-.72-1.4-.5 0-.76.74-.8 1.4h1.52zm4.49-4v5.75l.03 1.16H303l-.05-.6h-.04c-.15.34-.5.68-1.01.68-.82 0-1.41-.88-1.41-2.48 0-1.72.7-2.52 1.46-2.52.35 0 .68.16.88.57h.02v-2.56h.77zm-.77 3.91l-.01-.32c-.04-.5-.35-.93-.72-.93-.64 0-.86.89-.86 1.86 0 1.02.26 1.83.82 1.83.24 0 .57-.13.74-.83.03-.09.03-.2.03-.31v-1.3zm-35.22 16.46l-.44 2.01h-.75l1.54-6.73h.85l1.5 6.73h-.76l-.44-2.01h-1.5zm1.39-.62l-.35-1.71c-.1-.48-.2-1.04-.27-1.54h-.03c-.08.5-.18 1.09-.28 1.55l-.35 1.7h1.28zm2.08-.69c0-.74-.03-1.17-.04-1.51h.69l.04.6h.02c.26-.5.65-.68 1.02-.68.85 0 1.4.89 1.4 2.49 0 1.8-.74 2.5-1.5 2.5a.9.9 0 0 1-.84-.55h-.02v2.4h-.77v-5.25zm.77 1.56c0 .14 0 .27.04.4.15.68.49.8.7.8.64 0 .85-.88.85-1.84 0-1.01-.24-1.85-.85-1.85-.35 0-.67.44-.71.88-.03.12-.03.24-.03.37v1.24zm3.22-1.56c0-.74-.03-1.17-.04-1.51h.69l.04.6h.02c.26-.5.65-.68 1.02-.68.85 0 1.4.89 1.4 2.49 0 1.8-.74 2.5-1.5 2.5a.91.91 0 0 1-.84-.55h-.02v2.4h-.77v-5.25zm.77 1.56c0 .14 0 .27.04.4.15.68.49.8.7.8.64 0 .85-.88.85-1.84 0-1.01-.24-1.85-.85-1.85-.35 0-.67.44-.71.88-.03.12-.03.24-.03.37v1.24zm3.23-5.15h.77v6.91h-.77v-6.91zm2.27 1.33c-.25 0-.44-.2-.44-.5s.2-.5.45-.5c.28 0 .46.2.46.5s-.18.5-.46.5h-.01zm-.36 5.58v-4.83h.77v4.83H281zm4.2-.12c-.17.1-.46.18-.8.18-1.06 0-1.77-.85-1.77-2.44 0-1.4.7-2.52 1.9-2.52.27 0 .54.07.69.16l-.15.62c-.1-.05-.3-.13-.55-.13-.78 0-1.12.92-1.12 1.86 0 1.13.43 1.81 1.14 1.81.2 0 .38-.04.55-.13l.1.6zm3.2-.97c0 .37 0 .79.06 1.1h-.7l-.04-.51h-.03c-.21.37-.55.59-.96.59-.65 0-1.15-.54-1.15-1.38 0-1.22.97-1.75 2.06-1.76v-.15c0-.65-.16-1.1-.77-1.1-.3 0-.57.09-.8.25l-.17-.54c.2-.15.65-.32 1.13-.32.97 0 1.38.64 1.38 1.72v2.1zm-.74-1.41c-.4 0-1.33.08-1.33 1.13 0 .64.32.85.59.85.34 0 .62-.25.7-.72a1 1 0 0 0 .04-.28v-.98zm2.69-3.46V191h.93v.58h-.93v2.88c0 .64.22.8.5.8.13 0 .23-.02.3-.04l.05.6a1.7 1.7 0 0 1-.57.07c-.31 0-.58-.07-.76-.28-.2-.23-.3-.55-.3-1.22v-2.81H289V191h.59v-.82l.77-.31zm1.97.38c-.25 0-.44-.2-.44-.5s.2-.5.45-.5c.28 0 .46.2.46.5s-.18.5-.46.5h-.01zm-.36 5.58v-4.83h.77v4.83h-.77zm3.2.08c-.87 0-1.57-.79-1.57-2.48 0-1.77.79-2.51 1.62-2.51.87 0 1.56.8 1.56 2.49 0 1.87-.86 2.5-1.6 2.5h-.01zm.04-.6c.66 0 .8-1.13.8-1.9 0-.74-.14-1.88-.82-1.88-.7 0-.82 1.14-.82 1.89 0 .8.14 1.89.83 1.89zm2.43-3.06c0-.57-.03-.86-.04-1.25h.67l.04.58h.02c.2-.4.6-.66 1.1-.66.67 0 1.17.49 1.17 1.67v3.24h-.77v-3.11c0-.58-.1-1.15-.67-1.15-.31 0-.62.27-.71.79-.03.1-.05.26-.05.43v3.05h-.77v-3.6zm5.67-3.06a3.6 3.6 0 0 1 1.05-.12c.7 0 1.2.18 1.58.5.52.46.9 1.33.9 2.74 0 1.54-.37 2.38-.8 2.85a2.4 2.4 0 0 1-1.86.72c-.31 0-.64-.02-.86-.07v-6.61zm.78 6.02c.1.02.22.02.29.02.85 0 1.67-.6 1.67-2.9 0-1.7-.52-2.63-1.6-2.63-.12 0-.26 0-.36.04v5.47zm6.17-.47c0 .37 0 .79.05 1.1h-.7l-.04-.51h-.03c-.21.37-.55.59-.96.59-.65 0-1.15-.54-1.15-1.38 0-1.22.97-1.75 2.06-1.76v-.15c0-.65-.16-1.1-.77-1.1-.3 0-.57.09-.8.25l-.17-.54c.2-.15.65-.32 1.13-.32.97 0 1.38.64 1.38 1.72v2.1zm-.75-1.41c-.4 0-1.33.08-1.33 1.13 0 .64.31.85.59.85.34 0 .62-.25.7-.72.03-.1.03-.2.03-.28v-.98zm2.69-3.46V191h.93v.58h-.93v2.88c0 .64.22.8.5.8.13 0 .23-.02.3-.04l.05.6a1.7 1.7 0 0 1-.57.07c-.31 0-.58-.07-.76-.28-.2-.23-.3-.55-.3-1.22v-2.81h-.58V191h.59v-.82l.77-.31zm4.16 4.87c0 .37 0 .79.05 1.1h-.7l-.04-.51h-.03c-.21.37-.55.59-.96.59-.65 0-1.15-.54-1.15-1.38 0-1.22.97-1.75 2.06-1.76v-.15c0-.65-.16-1.1-.77-1.1-.3 0-.57.09-.8.25l-.17-.54c.2-.15.65-.32 1.13-.32.97 0 1.38.64 1.38 1.72v2.1zm-.75-1.41c-.4 0-1.33.08-1.33 1.13 0 .64.32.85.59.85.34 0 .62-.25.7-.72a1 1 0 0 0 .04-.28v-.98z"/></svg>