<svg xmlns="http://www.w3.org/2000/svg" viewBox="0 0 332.522 165.398"><path fill="#b3b3b3" d="M293.254 68.979v17.752l-6.974-4.287V64.688z"/><path fill="#333" d="M291.961 69.536v2.12l-4.972-3.059v-2.121zm0 7.148v2.117l-4.972-3.059v-2.119z"/><path fill="#e6e6e6" d="M291.961 74.02v.611l-4.972-3.057v-.616z"/><path fill="#333" d="M291.961 79.692v2.118l-4.972-3.058v-2.12zm0 3.009v2.118l-4.972-3.059v-2.118z"/><path fill="gray" d="M293.25 68.989l11.055-6.973v17.755l-11.055 6.972z"/><path fill="#999" d="M286.295 64.699l11.069-6.973 6.959 4.288-11.055 6.973z"/><path fill="#009245" d="M287.155 68.887a.446.446 0 0 1 .193.354c0 .128-.084.184-.193.116a.454.454 0 0 1-.189-.354c-.001-.132.085-.181.189-.116"/><path fill="#c1272d" d="M287.624 69.175a.455.455 0 0 1 .191.356c0 .128-.088.182-.193.116a.452.452 0 0 1-.191-.354c-.001-.13.085-.184.193-.118"/><path fill="#009245" d="M288.088 69.457a.46.46 0 0 1 .193.354c0 .132-.088.184-.193.119a.457.457 0 0 1-.193-.357c0-.128.086-.18.193-.116"/><path fill="#c1272d" d="M288.553 69.745a.45.45 0 0 1 .191.355c0 .128-.086.181-.193.115a.459.459 0 0 1-.191-.354c0-.131.088-.184.193-.116m.473.288a.455.455 0 0 1 .191.354c0 .13-.086.184-.193.116a.457.457 0 0 1-.189-.354c0-.128.083-.181.191-.116"/><path fill="#009245" d="M289.491 70.324a.45.45 0 0 1 .193.354c0 .13-.086.183-.193.117a.46.46 0 0 1-.193-.354c-.001-.13.087-.185.193-.117m.466.28a.46.46 0 0 1 .191.354c0 .133-.088.184-.191.118a.457.457 0 0 1-.193-.355c0-.129.086-.183.193-.117m.465.288a.456.456 0 0 1 .191.354c0 .132-.086.182-.193.116a.444.444 0 0 1-.189-.354c0-.132.086-.185.191-.116"/><path fill="#c1272d" d="M287.155 69.576a.45.45 0 0 1 .193.355c0 .129-.084.18-.193.117a.455.455 0 0 1-.189-.356c-.001-.13.085-.181.189-.116m.469.289a.457.457 0 0 1 .191.355c0 .129-.088.184-.193.118a.462.462 0 0 1-.191-.356c-.001-.13.085-.182.193-.117"/><path fill="#009245" d="M288.088 70.147a.464.464 0 0 1 .193.354c0 .131-.088.183-.193.12a.457.457 0 0 1-.193-.357c0-.13.086-.183.193-.117"/><path fill="#c1272d" d="M288.553 70.434a.449.449 0 0 1 .191.354c0 .128-.086.182-.193.117a.469.469 0 0 1-.191-.354c0-.132.088-.185.193-.117"/><path fill="#009245" d="M289.026 70.722a.456.456 0 0 1 .191.354c0 .131-.086.185-.193.12a.46.46 0 0 1-.189-.354c0-.132.083-.185.191-.12"/><path fill="#c1272d" d="M289.491 71.01a.46.46 0 0 1 .193.356c0 .132-.086.183-.193.119a.463.463 0 0 1-.193-.355c-.001-.131.087-.184.193-.12"/><path fill="#009245" d="M289.957 71.292a.471.471 0 0 1 .191.356c0 .132-.088.184-.191.116a.452.452 0 0 1-.193-.354c0-.129.086-.182.193-.118"/><path fill="#c1272d" d="M290.422 71.579a.464.464 0 0 1 .191.355c0 .132-.086.182-.193.119a.452.452 0 0 1-.189-.354c0-.134.086-.183.191-.12"/><path fill="#009245" d="M290.782 74.544a.452.452 0 0 1 .195.355c0 .128-.088.182-.195.118a.464.464 0 0 1-.191-.356c-.001-.13.085-.182.191-.117m.468.281c.104.066.19.224.19.356 0 .13-.086.182-.19.117a.451.451 0 0 1-.193-.354c0-.131.086-.182.193-.119"/><path fill="#c1272d" d="M291.713 75.112a.455.455 0 0 1 .193.354c0 .128-.086.184-.193.118a.454.454 0 0 1-.191-.354c0-.131.086-.186.191-.118m-.931.122a.45.45 0 0 1 .195.356c0 .129-.088.182-.195.114a.449.449 0 0 1-.191-.354c-.001-.129.085-.184.191-.116m.468.281a.47.47 0 0 1 .19.354c0 .131-.086.185-.19.117a.45.45 0 0 1-.193-.354c0-.131.086-.182.193-.117"/><path fill="#009245" d="M291.713 75.802a.45.45 0 0 1 .193.354c0 .13-.086.184-.193.116a.446.446 0 0 1-.191-.353c0-.13.086-.183.191-.117"/><path fill="none" stroke="#000" d="M304.323 62.014l-6.961-4.288-11.067 6.973-.015-.011v17.756l6.97 4.287v.012l11.053-6.972V62.026z" stroke-linecap="round" stroke-linejoin="round"/><g fill="#77272d" fill-rule="evenodd" clip-rule="evenodd"><path d="M127.42 116.816h4.312v.481s.105 3.226-2.156 3.226c-2.209 0-2.156-3.226-2.156-3.226v-.481z"/><ellipse cx="129.576" cy="116.816" rx="2.156" ry=".421"/><path d="M124.945 120.59h4.853v19.98c0 .579-1.086 1.047-2.426 1.047-1.341 0-2.427-.468-2.427-1.047v-19.98z"/><path d="M121.05 122.938h4.853v19.98c0 .579-1.086 1.048-2.427 1.048-1.339 0-2.426-.469-2.426-1.048v-19.98zm10.733-19.896l-.051 13.228c0 .232-.965.421-2.155.421-1.191 0-2.156-.189-2.156-.421l.05-13.228s-.105-3.221 2.156-3.221c2.209 0 2.156 3.221 2.156 3.221z"/><path d="M119.827 106.209c.069-4.826 5.407-5.529 6.833-5.44 2.36.148 3.761 1.285 3.883 3.504a1.39 1.39 0 0 1-.023.335l.025-.108v15.015c.039.959-1.608 2.945-5.578 3.484-4.12.559-5.166-1.17-5.166-1.578l.026-15.212z"/><path d="M118.059 121.654h4.312v.481s.106 3.226-2.156 3.226c-2.209 0-2.156-3.226-2.156-3.226v-.481z"/><ellipse cx="120.215" cy="121.654" rx="2.156" ry=".421"/><path d="M127.256 101.048c1.398.328 1.589 1.284.427 2.136-1.161.852-3.235 1.275-4.634.949-1.397-.329-1.588-1.286-.426-2.137 1.16-.852 3.235-1.276 4.633-.948z"/><path d="M124.193 102.461c-4.057-.987-4.838-7.809-1.158-10.135 1.125-.711 2.203-.593 2.75-.486 2.41.615 3.313 3.049 3.467 4.39.337 2.95-.972 4.902-2.309 5.746a3.59 3.59 0 0 1-2.75.485zm-1.771 5.419l-.051 13.229c0 .231-.965.42-2.155.42s-2.156-.189-2.156-.42l.05-13.229s-.105-3.221 2.156-3.221c2.209 0 2.156 3.221 2.156 3.221z"/><path d="M129.627 99.821c-.417 0-.751.11-1.023.289.524-.994.83-2.286.648-3.88-.154-1.341-1.057-3.775-3.467-4.39-.547-.107-1.625-.225-2.75.486-3.148 1.991-3.022 7.264-.38 9.365-1.132.59-2.154 1.528-2.595 2.987-2.043.195-1.951 3.203-1.951 3.203l-.05 13.229c0 .104.204.199.528.272-.324.074-.529.168-.529.273v.481s-.053 3.226 2.156 3.226c.327 0 .6-.073.835-.189v17.746c0 .579 1.087 1.048 2.426 1.048 1.341 0 2.427-.469 2.427-1.048v-1.52c.409.136.914.219 1.47.219 1.34 0 2.426-.468 2.426-1.047v-19.63c.177-.18.322-.358.434-.531 1.58-.561 1.501-3.113 1.501-3.113v-.481c0-.104-.204-.199-.528-.273.324-.074.528-.167.528-.273l.051-13.228c-.001 0 .052-3.221-2.157-3.221z"/></g><path fill="#c7b299" d="M127.42 116.816h4.312v.481s.105 3.226-2.156 3.226c-2.209 0-2.156-3.226-2.156-3.226v-.481z"/><ellipse cx="129.576" cy="116.816" fill="#998675" fill-rule="evenodd" rx="2.156" ry=".421" clip-rule="evenodd"/><path fill="#998675" d="M124.945 120.59h4.853v19.98c0 .579-1.086 1.047-2.426 1.047-1.341 0-2.427-.468-2.427-1.047v-19.98z"/><path fill="#a8988a" d="M121.05 122.938h4.853v19.98c0 .579-1.086 1.048-2.427 1.048-1.339 0-2.426-.469-2.426-1.048v-19.98z"/><path fill="#998675" d="M131.783 103.042l-.051 13.228c0 .232-.965.421-2.155.421-1.191 0-2.156-.189-2.156-.421l.05-13.228s-.105-3.221 2.156-3.221c2.209 0 2.156 3.221 2.156 3.221z"/><path fill="#9e8c7c" d="M119.827 106.209c.069-4.826 5.407-5.529 6.833-5.44 2.36.148 3.761 1.285 3.883 3.504a1.39 1.39 0 0 1-.023.335l.025-.108v15.015c.039.959-1.608 2.945-5.578 3.484-4.12.559-5.166-1.17-5.166-1.578l.026-15.212z"/><path fill="#c7b299" d="M118.059 121.654h4.312v.481s.106 3.226-2.156 3.226c-2.209 0-2.156-3.226-2.156-3.226v-.481z"/><ellipse cx="120.215" cy="121.654" fill="#998675" fill-rule="evenodd" rx="2.156" ry=".421" clip-rule="evenodd"/><path fill="#998675" d="M127.256 101.048c1.398.328 1.589 1.284.427 2.136-1.161.852-3.235 1.275-4.634.949-1.397-.329-1.588-1.286-.426-2.137 1.16-.852 3.235-1.276 4.633-.948z"/><path fill="#c7b299" d="M124.193 102.461c-4.057-.987-4.838-7.809-1.158-10.135 1.125-.711 2.203-.593 2.75-.486 2.41.615 3.313 3.049 3.467 4.39.337 2.95-.972 4.902-2.309 5.746a3.59 3.59 0 0 1-2.75.485z"/><path fill="#a8988a" d="M122.422 107.88l-.051 13.229c0 .231-.965.42-2.155.42s-2.156-.189-2.156-.42l.05-13.229s-.105-3.221 2.156-3.221c2.209 0 2.156 3.221 2.156 3.221z"/><path fill="none" stroke="#000" d="M129.627 99.821c-.417 0-.751.11-1.023.289.524-.994.83-2.286.648-3.88-.154-1.341-1.057-3.775-3.467-4.39-.547-.107-1.625-.225-2.75.486-3.148 1.991-3.022 7.264-.38 9.365-1.132.59-2.154 1.528-2.595 2.987-2.043.195-1.951 3.203-1.951 3.203l-.05 13.229c0 .104.204.199.528.272-.324.074-.529.168-.529.273v.481s-.053 3.226 2.156 3.226c.327 0 .6-.073.835-.189v17.746c0 .579 1.087 1.048 2.426 1.048 1.341 0 2.427-.469 2.427-1.048v-1.52c.409.136.914.219 1.47.219 1.34 0 2.426-.468 2.426-1.047v-19.63c.177-.18.322-.358.434-.531 1.58-.561 1.501-3.113 1.501-3.113v-.481c0-.104-.204-.199-.528-.273.324-.074.528-.167.528-.273l.051-13.228c-.001 0 .052-3.221-2.157-3.221z" stroke-linecap="round" stroke-linejoin="round"/><path fill="#c7b299" d="M128.604 26.103h3.378l-.001.483s.083 2.393-1.688 2.393c-1.73 0-1.689-2.393-1.689-2.393v-.483z"/><ellipse cx="130.293" cy="26.103" fill="#998675" fill-rule="evenodd" rx="1.689" ry=".423" clip-rule="evenodd"/><path fill="#c7b299" d="M125.829 33.959h3.035V49.53c0 .451-.68.816-1.518.816s-1.517-.365-1.517-.816V33.959zm-3.808 2.362h3.035v15.571c0 .45-.679.815-1.517.815-.838 0-1.518-.365-1.518-.815V36.321z"/><path fill="#197fc3" d="M132.022 11.741l-.04 13.812c0 .233-.757.423-1.689.423-.933 0-1.689-.19-1.689-.423l.04-13.812s-.083-3.234 1.689-3.234c1.729 0 1.689 3.234 1.689 3.234z"/><path fill="#0071bc" d="M119.174 12.963c-.007-1.161 1.117-4.54 6.159-5.5 5.566-1.06 5.654 2.837 5.654 2.837a.757.757 0 0 1-.005.259l.017 2.807s-.306 2.157-1.093 3.236c-.672.924-.715 2.631-.414 3.718.301 1.087 1.386 6.238.512 13.727 0 0-.583 1.741-4.918 2.555-4.336.92-4.918-.588-4.918-.588-.874-7.14.21-12.725.512-13.932.303-1.207.259-2.897-.414-3.552-.787-.766-1.092-2.8-1.092-2.8s-.054-2.477.001-2.898c.001.001-.007.05-.001.131z"/><path fill="#c7b299" d="M117.82 30.402h3.379l-.001.483s.082 2.394-1.69 2.394c-1.729 0-1.688-2.394-1.688-2.394v-.483z"/><ellipse cx="119.509" cy="30.402" fill="#998675" fill-rule="evenodd" rx="1.689" ry=".422" clip-rule="evenodd"/><path fill="#998675" d="M126.979 8.443c1.265.296 1.438 1.163.387 1.934-1.052.771-2.929 1.155-4.194.858-1.265-.297-1.438-1.163-.387-1.934 1.051-.771 2.928-1.155 4.194-.858z"/><path fill="#338dc9" d="M121.238 16.041l-.039 13.812c0 .233-.757.422-1.69.422-.933 0-1.689-.189-1.689-.422l.04-13.812s-.083-3.235 1.689-3.235c1.729 0 1.689 3.235 1.689 3.235z"/><path fill="#c7b299" d="M123.971 9.887c-3.837-.866-4.576-6.849-1.096-8.89 1.064-.623 2.085-.52 2.601-.426 2.282.539 3.135 2.674 3.281 3.851.319 2.587-.919 4.299-2.184 5.038a3.635 3.635 0 0 1-2.602.427z"/><path fill="none" stroke="#000" d="M130.333 8.507c-.022 0-.041.006-.063.007-.388-.468-.997-.891-1.921-1.098.364-.81.555-1.805.408-2.995-.146-1.177-.999-3.312-3.281-3.851-.516-.093-1.537-.197-2.601.426-2.747 1.611-2.856 5.669-.897 7.737-2.139 1.356-2.762 3.247-2.799 4.13l-.006.003.002-.034c-.001.009-.001.023-.003.034-1.38.427-1.313 3.174-1.313 3.174l-.04 13.812c0 .104.16.201.414.274-.254.074-.414.169-.414.274v.483s-.041 2.394 1.688 2.394c.151 0 .285-.024.41-.055.054.898.133 1.829.251 2.79 0 0 .275.712 1.852.859V51.89c0 .45.679.815 1.518.815.838 0 1.517-.365 1.517-.815V36.607l.031-.005c.261-.05.507-.103.742-.157V49.53c0 .451.679.816 1.517.816s1.518-.365 1.518-.816V35.24c.952-.633 1.141-1.193 1.141-1.193.215-1.841.31-3.538.329-5.073 1.726-.038 1.647-2.389 1.647-2.389l.001-.483c0-.106-.16-.2-.414-.274.254-.075.414-.169.414-.274l.04-13.812c.001-.001.041-3.235-1.688-3.235z" stroke-linecap="round" stroke-linejoin="round"/><path fill="none" stroke="#000" d="M23.872 81.259V59.268"/><path d="M26.873 60.144l-2.992-5.182-2.991 5.182zm-6.002 20.239l2.992 5.182 2.991-5.182z"/><path fill="none" stroke="#000" d="M65.872 81.259V59.268"/><path d="M68.873 60.144l-2.992-5.182-2.991 5.182zm-6.002 20.239l2.992 5.182 2.991-5.182z"/><path fill="none" stroke="#000" d="M111.797 26.604H78.806"/><path d="M79.682 23.603L74.5 26.594l5.182 2.991zm31.24 6.001l5.182-2.991-5.182-2.991z"/><path fill="none" stroke="#000" d="M111.797 117.863H78.806"/><path d="M79.682 114.862l-5.182 2.992 5.182 2.991zm31.24 6.002l5.182-2.992-5.182-2.991z"/><path fill="none" stroke="#000" d="M124.921 81.259V59.268"/><path d="M127.922 60.144l-2.992-5.182-2.991 5.182zm-6.002 20.239l2.992 5.182 2.991-5.182z"/><path fill="#c7b299" d="M27.556 26.102h3.378l-.002.482s.083 2.393-1.686 2.393c-1.731 0-1.69-2.393-1.69-2.393v-.482z"/><ellipse cx="29.246" cy="26.102" fill="#998675" fill-rule="evenodd" rx="1.689" ry=".423" clip-rule="evenodd"/><path fill="#c7b299" d="M24.782 33.958h3.033V49.53c0 .451-.68.815-1.518.815-.837 0-1.516-.365-1.516-.815V33.958zm-3.809 2.363h3.033v15.572c0 .449-.68.814-1.518.814s-1.516-.365-1.516-.814V36.321z"/><path fill="#199d58" d="M30.973 11.741l-.039 13.812c0 .234-.756.425-1.688.425-.936 0-1.69-.191-1.69-.425l.038-13.812s-.082-3.235 1.689-3.235c1.731-.001 1.69 3.235 1.69 3.235z"/><path fill="#009245" d="M18.125 12.961c-.008-1.158 1.117-4.539 6.16-5.501 5.565-1.06 5.652 2.84 5.652 2.84a.703.703 0 0 1-.004.258l.018 2.806s-.306 2.159-1.093 3.237c-.673.924-.716 2.63-.416 3.719.303 1.083 1.388 6.236.515 13.726 0 0-.584 1.74-4.92 2.555-4.334.919-4.916-.589-4.916-.589-.875-7.142.211-12.724.51-13.93.304-1.208.26-2.9-.413-3.554-.788-.763-1.093-2.797-1.093-2.797s-.053-2.478.003-2.9c0 .001-.008.05-.003.13z"/><path fill="#c7b299" d="M16.771 30.402h3.378v.482s.083 2.392-1.69 2.392c-1.727 0-1.688-2.392-1.688-2.392v-.482z"/><ellipse cx="18.461" cy="30.401" fill="#998675" fill-rule="evenodd" rx="1.689" ry=".421" clip-rule="evenodd"/><path fill="#998675" d="M25.93 8.442c1.265.298 1.438 1.163.387 1.934-1.052.77-2.928 1.156-4.193.859-1.266-.299-1.44-1.164-.387-1.936 1.051-.77 2.928-1.153 4.193-.857z"/><path fill="#33a86a" d="M20.19 16.041l-.041 13.81c0 .234-.757.426-1.688.426-.934 0-1.69-.192-1.69-.426l.04-13.81s-.084-3.236 1.689-3.236c1.731 0 1.69 3.236 1.69 3.236z"/><path fill="#c7b299" d="M22.922 9.887c-3.838-.867-4.574-6.849-1.095-8.893C22.89.373 23.911.477 24.428.569c2.28.539 3.136 2.676 3.281 3.851.318 2.588-.92 4.3-2.186 5.04a3.62 3.62 0 0 1-2.601.427z"/><path fill="none" stroke="#000" d="M29.284 8.505c-.021 0-.041.006-.062.007-.389-.468-.997-.892-1.922-1.096.365-.811.556-1.804.41-2.997-.146-1.175-1.001-3.312-3.281-3.851-.517-.091-1.537-.195-2.601.425-2.749 1.612-2.858 5.669-.897 7.739-2.14 1.356-2.764 3.247-2.8 4.129l-.005.004c0-.022.003-.035.003-.035l-.003.035c-1.381.426-1.314 3.174-1.314 3.174l-.04 13.81c0 .106.159.204.415.275-.256.074-.415.17-.415.275v.482s-.04 2.392 1.688 2.392c.153 0 .286-.021.411-.052.053.897.133 1.829.252 2.789 0 0 .273.712 1.852.861V51.89c0 .449.678.814 1.516.814s1.518-.365 1.518-.814V36.606c.012 0 .021-.003.031-.003.262-.051.509-.103.744-.158V49.53c0 .451.679.815 1.516.815.838 0 1.518-.365 1.518-.815V35.24c.951-.632 1.142-1.192 1.142-1.192.213-1.843.31-3.538.326-5.074 1.728-.035 1.648-2.389 1.648-2.389l.002-.482c0-.105-.158-.201-.414-.275.256-.072.414-.168.414-.275l.039-13.812c-.002 0 .039-3.236-1.691-3.236z" stroke-linecap="round" stroke-linejoin="round"/><path fill="#c7b299" d="M69.556 26.102h3.378l-.002.482s.083 2.393-1.686 2.393c-1.731 0-1.69-2.393-1.69-2.393v-.482z"/><ellipse cx="71.246" cy="26.102" fill="#998675" fill-rule="evenodd" rx="1.689" ry=".423" clip-rule="evenodd"/><path fill="#c7b299" d="M66.782 33.958h3.033V49.53c0 .451-.68.815-1.518.815-.837 0-1.516-.365-1.516-.815V33.958zm-3.809 2.363h3.033v15.572c0 .449-.68.814-1.518.814s-1.516-.365-1.516-.814V36.321z"/><path fill="#199d58" d="M72.973 11.741l-.039 13.812c0 .234-.756.425-1.688.425-.937 0-1.69-.191-1.69-.425l.038-13.812s-.082-3.235 1.689-3.235c1.731-.001 1.69 3.235 1.69 3.235z"/><path fill="#009245" d="M60.125 12.961c-.008-1.158 1.117-4.539 6.16-5.501 5.565-1.06 5.652 2.84 5.652 2.84a.703.703 0 0 1-.004.258l.018 2.806s-.306 2.159-1.093 3.237c-.673.924-.716 2.63-.416 3.719.303 1.083 1.388 6.236.515 13.726 0 0-.584 1.74-4.92 2.555-4.334.919-4.916-.589-4.916-.589-.875-7.142.211-12.724.51-13.93.304-1.208.26-2.9-.413-3.554-.788-.763-1.093-2.797-1.093-2.797s-.053-2.478.003-2.9c0 .001-.008.05-.003.13z"/><path fill="#c7b299" d="M58.771 30.402h3.378v.482s.083 2.392-1.69 2.392c-1.728 0-1.688-2.392-1.688-2.392v-.482z"/><ellipse cx="60.461" cy="30.401" fill="#998675" fill-rule="evenodd" rx="1.689" ry=".421" clip-rule="evenodd"/><path fill="#998675" d="M67.93 8.442c1.265.298 1.438 1.163.387 1.934-1.052.77-2.928 1.156-4.193.859-1.266-.299-1.439-1.164-.387-1.936 1.051-.77 2.928-1.153 4.193-.857z"/><path fill="#33a86a" d="M62.19 16.041l-.041 13.81c0 .234-.757.426-1.688.426-.934 0-1.69-.192-1.69-.426l.04-13.81s-.084-3.236 1.689-3.236c1.731 0 1.69 3.236 1.69 3.236z"/><path fill="#c7b299" d="M64.922 9.887c-3.838-.867-4.574-6.849-1.095-8.893 1.063-.621 2.084-.517 2.6-.425 2.28.539 3.136 2.676 3.281 3.851.318 2.588-.92 4.3-2.186 5.04a3.618 3.618 0 0 1-2.6.427z"/><path fill="none" stroke="#000" d="M71.284 8.505c-.021 0-.041.006-.062.007-.389-.468-.997-.892-1.922-1.096.365-.811.556-1.804.41-2.997-.146-1.175-1.001-3.312-3.281-3.851-.517-.091-1.537-.195-2.6.425-2.749 1.612-2.858 5.669-.898 7.739-2.14 1.356-2.764 3.247-2.8 4.129l-.005.004c0-.022.003-.035.003-.035l-.003.035c-1.381.426-1.314 3.174-1.314 3.174l-.04 13.81c0 .106.159.204.415.275-.256.074-.415.17-.415.275v.482s-.04 2.392 1.688 2.392c.153 0 .286-.021.411-.052.053.897.133 1.829.252 2.789 0 0 .273.712 1.852.861V51.89c0 .449.678.814 1.516.814s1.518-.365 1.518-.814V36.606c.012 0 .021-.003.031-.003.262-.051.509-.103.744-.158V49.53c0 .451.679.815 1.516.815.838 0 1.518-.365 1.518-.815V35.24c.951-.632 1.142-1.192 1.142-1.192.213-1.843.31-3.538.326-5.074 1.729-.035 1.648-2.389 1.648-2.389l.002-.482c0-.105-.158-.201-.414-.275.256-.072.414-.168.414-.275l.039-13.812c-.002 0 .039-3.236-1.691-3.236z" stroke-linecap="round" stroke-linejoin="round"/><path fill="#c7b299" d="M27.556 117.362h3.379l-.002.482s.082 2.394-1.687 2.394c-1.731 0-1.69-2.394-1.69-2.394v-.482z"/><ellipse cx="29.246" cy="117.362" fill="#998675" fill-rule="evenodd" rx="1.689" ry=".424" clip-rule="evenodd"/><path fill="#c7b299" d="M24.78 125.218h3.035v15.572c0 .451-.68.815-1.517.815s-1.518-.365-1.518-.815v-15.572zm-3.807 2.363h3.034v15.571c0 .45-.68.813-1.518.813s-1.517-.363-1.517-.813v-15.571z"/><path fill="#c73d42" d="M30.974 103.001l-.039 13.812c0 .234-.757.425-1.689.425-.936 0-1.69-.191-1.69-.425l.039-13.812s-.082-3.236 1.69-3.236c1.729 0 1.689 3.236 1.689 3.236z"/><path fill="#c1272d" d="M18.126 104.221c-.008-1.157 1.117-4.538 6.16-5.5 5.564-1.06 5.652 2.84 5.652 2.84a.698.698 0 0 1-.004.257l.018 2.807s-.307 2.159-1.094 3.236c-.672.925-.716 2.631-.416 3.72.303 1.083 1.388 6.236.516 13.726 0 0-.584 1.74-4.92 2.556-4.334.919-4.916-.589-4.916-.589-.875-7.142.21-12.724.51-13.93.303-1.208.26-2.9-.414-3.554-.787-.763-1.092-2.797-1.092-2.797s-.053-2.478.002-2.9a.585.585 0 0 0-.002.128z"/><path fill="#c7b299" d="M16.771 121.661h3.378v.483s.083 2.392-1.691 2.392c-1.726 0-1.688-2.392-1.688-2.392v-.483z"/><ellipse cx="18.461" cy="121.661" fill="#998675" fill-rule="evenodd" rx="1.689" ry=".421" clip-rule="evenodd"/><path fill="#998675" d="M25.93 99.703c1.265.298 1.438 1.163.388 1.934-1.053.769-2.929 1.156-4.193.859-1.267-.298-1.44-1.164-.387-1.936 1.049-.772 2.927-1.154 4.192-.857z"/><path fill="#cd5257" d="M20.19 107.3l-.042 13.811c0 .234-.757.427-1.687.427-.935 0-1.691-.192-1.691-.427l.041-13.811s-.084-3.235 1.688-3.235c1.731 0 1.691 3.235 1.691 3.235z"/><path fill="#c7b299" d="M22.922 101.147c-3.837-.867-4.574-6.849-1.095-8.893 1.064-.621 2.084-.518 2.601-.425 2.28.539 3.136 2.675 3.282 3.851.317 2.588-.92 4.3-2.186 5.039a3.62 3.62 0 0 1-2.602.428z"/><path fill="none" stroke="#000" d="M29.284 99.765c-.022 0-.041.005-.062.008-.39-.468-.998-.892-1.922-1.097.364-.81.555-1.804.41-2.996-.146-1.175-1.002-3.312-3.282-3.851-.517-.092-1.536-.195-2.601.425-2.748 1.612-2.858 5.67-.896 7.738-2.141 1.356-2.764 3.248-2.801 4.13l-.004.003c0-.021.002-.035.002-.035a.41.41 0 0 0-.002.035c-1.381.426-1.314 3.173-1.314 3.173l-.041 13.811c0 .104.16.204.416.275-.256.074-.416.17-.416.274v.483s-.039 2.392 1.688 2.392c.154 0 .286-.021.411-.052.054.897.134 1.828.253 2.789 0 0 .273.712 1.851.861v15.019c0 .45.679.813 1.517.813s1.518-.363 1.518-.813v-15.286c.011 0 .021-.004.031-.004.261-.051.508-.103.742-.158v13.085c0 .451.68.815 1.518.815s1.517-.365 1.517-.815V126.5c.951-.633 1.143-1.193 1.143-1.193.213-1.842.309-3.537.326-5.074 1.728-.036 1.648-2.389 1.648-2.389l.002-.482c0-.104-.158-.201-.414-.274.256-.072.414-.168.414-.275l.039-13.812c-.001 0 .039-3.236-1.691-3.236z" stroke-linecap="round" stroke-linejoin="round"/><path fill="#c7b299" d="M69.556 117.362h3.379l-.002.482s.082 2.394-1.687 2.394c-1.731 0-1.69-2.394-1.69-2.394v-.482z"/><ellipse cx="71.246" cy="117.362" fill="#998675" fill-rule="evenodd" rx="1.689" ry=".424" clip-rule="evenodd"/><path fill="#c7b299" d="M66.78 125.218h3.035v15.572c0 .451-.68.815-1.518.815s-1.518-.365-1.518-.815v-15.572zm-3.807 2.363h3.034v15.571c0 .45-.68.813-1.518.813s-1.517-.363-1.517-.813v-15.571z"/><path fill="#c73d42" d="M72.974 103.001l-.039 13.812c0 .234-.757.425-1.688.425-.937 0-1.69-.191-1.69-.425l.039-13.812s-.082-3.236 1.689-3.236c1.729 0 1.689 3.236 1.689 3.236z"/><path fill="#c1272d" d="M60.126 104.221c-.008-1.157 1.117-4.538 6.16-5.5 5.564-1.06 5.652 2.84 5.652 2.84a.698.698 0 0 1-.004.257l.018 2.807s-.307 2.159-1.094 3.236c-.672.925-.716 2.631-.416 3.72.303 1.083 1.388 6.236.516 13.726 0 0-.584 1.74-4.92 2.556-4.334.919-4.916-.589-4.916-.589-.875-7.142.21-12.724.51-13.93.303-1.208.26-2.9-.414-3.554-.787-.763-1.092-2.797-1.092-2.797s-.053-2.478.002-2.9a.585.585 0 0 0-.002.128z"/><path fill="#c7b299" d="M58.771 121.661h3.378v.483s.083 2.392-1.69 2.392c-1.727 0-1.688-2.392-1.688-2.392v-.483z"/><ellipse cx="60.461" cy="121.661" fill="#998675" fill-rule="evenodd" rx="1.689" ry=".421" clip-rule="evenodd"/><path fill="#998675" d="M67.93 99.703c1.265.298 1.438 1.163.388 1.934-1.053.769-2.929 1.156-4.193.859-1.267-.298-1.44-1.164-.387-1.936 1.049-.772 2.927-1.154 4.192-.857z"/><path fill="#cd5257" d="M62.19 107.3l-.042 13.811c0 .234-.757.427-1.687.427-.934 0-1.691-.192-1.691-.427l.041-13.811s-.084-3.235 1.688-3.235c1.731 0 1.691 3.235 1.691 3.235z"/><path fill="#c7b299" d="M64.922 101.147c-3.837-.867-4.574-6.849-1.095-8.893 1.064-.621 2.084-.518 2.6-.425 2.28.539 3.136 2.675 3.282 3.851.317 2.588-.92 4.3-2.186 5.039a3.617 3.617 0 0 1-2.601.428z"/><path fill="none" stroke="#000" d="M71.284 99.765c-.021 0-.041.005-.062.008-.39-.468-.998-.892-1.922-1.097.364-.81.555-1.804.41-2.996-.146-1.175-1.002-3.312-3.282-3.851-.517-.092-1.536-.195-2.6.425-2.748 1.612-2.858 5.67-.897 7.738-2.141 1.356-2.764 3.248-2.801 4.13l-.004.003c0-.021.002-.035.002-.035a.41.41 0 0 0-.002.035c-1.381.426-1.314 3.173-1.314 3.173l-.041 13.811c0 .104.16.204.416.275-.256.074-.416.17-.416.274v.483s-.039 2.392 1.688 2.392c.154 0 .286-.021.411-.052.054.897.134 1.828.253 2.789 0 0 .273.712 1.851.861v15.019c0 .45.679.813 1.517.813.838 0 1.518-.363 1.518-.813v-15.286c.011 0 .021-.004.031-.004.261-.051.508-.103.742-.158v13.085c0 .451.68.815 1.518.815s1.518-.365 1.518-.815V126.5c.951-.633 1.143-1.193 1.143-1.193.213-1.842.309-3.537.326-5.074 1.729-.036 1.648-2.389 1.648-2.389l.002-.482c0-.104-.158-.201-.414-.274.256-.072.414-.168.414-.275l.039-13.812c-.002 0 .038-3.236-1.692-3.236zm1.69-4.191L88.881 76.01s-3.629-12.625 9.288-11.778l16.384-19.705" stroke-linecap="round" stroke-linejoin="round"/><path d="M116.3 47.119l1.013-5.897-5.613 2.071z"/><path fill="none" stroke="#000" d="M74.974 50.707l41.16 45.687"/><path d="M113.319 97.752l5.691 1.848-1.246-5.853zm-35.53-48.403l-5.691-1.848 1.246 5.853z"/><g fill="#77272d" fill-rule="evenodd" clip-rule="evenodd"><path d="M227.42 116.816h4.312v.481s.105 3.226-2.156 3.226c-2.209 0-2.156-3.226-2.156-3.226v-.481z"/><ellipse cx="229.577" cy="116.816" rx="2.156" ry=".421"/><path d="M224.946 120.59h4.852v19.98c0 .579-1.086 1.047-2.426 1.047s-2.426-.468-2.426-1.047v-19.98z"/><path d="M221.049 122.938h4.854v19.98c0 .579-1.086 1.048-2.428 1.048-1.338 0-2.426-.469-2.426-1.048v-19.98zm10.735-19.896l-.051 13.228c0 .232-.965.421-2.156.421-1.191 0-2.156-.189-2.156-.421l.051-13.228s-.105-3.221 2.156-3.221c2.208 0 2.156 3.221 2.156 3.221z"/><path d="M219.827 106.209c.07-4.826 5.408-5.529 6.834-5.44 2.359.148 3.76 1.285 3.883 3.504a1.39 1.39 0 0 1-.023.335l.025-.108v15.015c.039.959-1.609 2.945-5.578 3.484-4.121.559-5.166-1.17-5.166-1.578l.025-15.212z"/><path d="M218.059 121.654h4.312v.481s.105 3.226-2.156 3.226c-2.209 0-2.156-3.226-2.156-3.226v-.481z"/><ellipse cx="220.215" cy="121.654" rx="2.156" ry=".421"/><path d="M227.256 101.048c1.398.328 1.588 1.284.426 2.136-1.16.852-3.234 1.275-4.633.949-1.398-.329-1.588-1.286-.426-2.137 1.161-.852 3.235-1.276 4.633-.948z"/><path d="M224.194 102.461c-4.057-.987-4.838-7.809-1.158-10.135 1.125-.711 2.203-.593 2.75-.486 2.41.615 3.312 3.049 3.467 4.39.336 2.95-.973 4.902-2.309 5.746a3.59 3.59 0 0 1-2.75.485zm-1.772 5.419l-.051 13.229c0 .231-.965.42-2.156.42-1.189 0-2.156-.189-2.156-.42l.051-13.229s-.105-3.221 2.156-3.221c2.209 0 2.156 3.221 2.156 3.221z"/><path d="M229.627 99.821c-.418 0-.752.11-1.023.289.523-.994.83-2.286.648-3.88-.154-1.341-1.057-3.775-3.467-4.39-.547-.107-1.625-.225-2.75.486-3.148 1.991-3.023 7.264-.381 9.365-1.131.59-2.154 1.528-2.594 2.987-2.043.195-1.951 3.203-1.951 3.203l-.051 13.229c0 .104.205.199.529.272-.324.074-.529.168-.529.273v.481s-.053 3.226 2.156 3.226c.326 0 .6-.073.834-.189v17.746c0 .579 1.088 1.048 2.426 1.048 1.342 0 2.428-.469 2.428-1.048v-1.52c.408.136.914.219 1.469.219 1.34 0 2.426-.468 2.426-1.047v-19.63c.178-.18.322-.358.434-.531 1.58-.561 1.502-3.113 1.502-3.113v-.481c0-.104-.205-.199-.529-.273.324-.074.529-.167.529-.273l.051-13.228s.052-3.221-2.157-3.221z"/></g><path fill="#c7b299" d="M227.42 116.816h4.312v.481s.105 3.226-2.156 3.226c-2.209 0-2.156-3.226-2.156-3.226v-.481z"/><ellipse cx="229.577" cy="116.816" fill="#998675" fill-rule="evenodd" rx="2.156" ry=".421" clip-rule="evenodd"/><path fill="#998675" d="M224.946 120.59h4.852v19.98c0 .579-1.086 1.047-2.426 1.047s-2.426-.468-2.426-1.047v-19.98z"/><path fill="#a8988a" d="M221.049 122.938h4.854v19.98c0 .579-1.086 1.048-2.428 1.048-1.338 0-2.426-.469-2.426-1.048v-19.98z"/><path fill="#998675" d="M231.784 103.042l-.051 13.228c0 .232-.965.421-2.156.421-1.191 0-2.156-.189-2.156-.421l.051-13.228s-.105-3.221 2.156-3.221c2.208 0 2.156 3.221 2.156 3.221z"/><path fill="#9e8c7c" d="M219.827 106.209c.07-4.826 5.408-5.529 6.834-5.44 2.359.148 3.76 1.285 3.883 3.504a1.39 1.39 0 0 1-.023.335l.025-.108v15.015c.039.959-1.609 2.945-5.578 3.484-4.121.559-5.166-1.17-5.166-1.578l.025-15.212z"/><path fill="#c7b299" d="M218.059 121.654h4.312v.481s.105 3.226-2.156 3.226c-2.209 0-2.156-3.226-2.156-3.226v-.481z"/><ellipse cx="220.215" cy="121.654" fill="#998675" fill-rule="evenodd" rx="2.156" ry=".421" clip-rule="evenodd"/><path fill="#998675" d="M227.256 101.048c1.398.328 1.588 1.284.426 2.136-1.16.852-3.234 1.275-4.633.949-1.398-.329-1.588-1.286-.426-2.137 1.161-.852 3.235-1.276 4.633-.948z"/><path fill="#c7b299" d="M224.194 102.461c-4.057-.987-4.838-7.809-1.158-10.135 1.125-.711 2.203-.593 2.75-.486 2.41.615 3.312 3.049 3.467 4.39.336 2.95-.973 4.902-2.309 5.746a3.59 3.59 0 0 1-2.75.485z"/><path fill="#a8988a" d="M222.422 107.88l-.051 13.229c0 .231-.965.42-2.156.42-1.189 0-2.156-.189-2.156-.42l.051-13.229s-.105-3.221 2.156-3.221c2.209 0 2.156 3.221 2.156 3.221z"/><path fill="none" stroke="#000" d="M229.627 99.821c-.418 0-.752.11-1.023.289.523-.994.83-2.286.648-3.88-.154-1.341-1.057-3.775-3.467-4.39-.547-.107-1.625-.225-2.75.486-3.148 1.991-3.023 7.264-.381 9.365-1.131.59-2.154 1.528-2.594 2.987-2.043.195-1.951 3.203-1.951 3.203l-.051 13.229c0 .104.205.199.529.272-.324.074-.529.168-.529.273v.481s-.053 3.226 2.156 3.226c.326 0 .6-.073.834-.189v17.746c0 .579 1.088 1.048 2.426 1.048 1.342 0 2.428-.469 2.428-1.048v-1.52c.408.136.914.219 1.469.219 1.34 0 2.426-.468 2.426-1.047v-19.63c.178-.18.322-.358.434-.531 1.58-.561 1.502-3.113 1.502-3.113v-.481c0-.104-.205-.199-.529-.273.324-.074.529-.167.529-.273l.051-13.228s.052-3.221-2.157-3.221z" stroke-linecap="round" stroke-linejoin="round"/><path fill="#c7b299" d="M228.604 26.103h3.379l-.002.483s.083 2.393-1.688 2.393c-1.73 0-1.689-2.393-1.689-2.393v-.483z"/><ellipse cx="230.293" cy="26.103" fill="#998675" fill-rule="evenodd" rx="1.689" ry=".423" clip-rule="evenodd"/><path fill="#c7b299" d="M225.829 33.959h3.035V49.53c0 .451-.68.816-1.518.816s-1.518-.365-1.518-.816V33.959zm-3.808 2.362h3.034v15.571c0 .45-.679.815-1.517.815-.839 0-1.518-.365-1.518-.815V36.321z"/><path fill="#197fc3" d="M232.022 11.741l-.039 13.812c0 .233-.758.423-1.689.423-.934 0-1.689-.19-1.689-.423l.039-13.812s-.082-3.234 1.689-3.234c1.73 0 1.689 3.234 1.689 3.234z"/><path fill="#0071bc" d="M219.174 12.963c-.007-1.161 1.117-4.54 6.159-5.5 5.566-1.06 5.653 2.837 5.653 2.837a.756.756 0 0 1-.004.259l.016 2.807s-.305 2.157-1.092 3.236c-.673.924-.716 2.631-.414 3.718.301 1.087 1.386 6.238.512 13.727 0 0-.582 1.741-4.918 2.555-4.336.92-4.918-.588-4.918-.588-.873-7.14.211-12.725.512-13.932.303-1.207.26-2.897-.414-3.552-.786-.766-1.092-2.8-1.092-2.8s-.054-2.477.002-2.898c0 .001-.008.05-.002.131z"/><path fill="#c7b299" d="M217.82 30.402h3.378v.483s.082 2.394-1.689 2.394c-1.73 0-1.689-2.394-1.689-2.394v-.483z"/><ellipse cx="219.509" cy="30.402" fill="#998675" fill-rule="evenodd" rx="1.689" ry=".422" clip-rule="evenodd"/><path fill="#998675" d="M226.979 8.443c1.265.296 1.438 1.163.387 1.934-1.053.771-2.93 1.155-4.194.858-1.265-.297-1.438-1.163-.387-1.934 1.051-.771 2.928-1.155 4.194-.858z"/><path fill="#338dc9" d="M221.238 16.041l-.04 13.812c0 .233-.757.422-1.689.422-.933 0-1.689-.189-1.689-.422l.04-13.812s-.083-3.235 1.689-3.235c1.729 0 1.689 3.235 1.689 3.235z"/><path fill="#c7b299" d="M223.971 9.887c-3.838-.866-4.576-6.849-1.096-8.89 1.064-.623 2.084-.52 2.601-.426 2.282.539 3.136 2.674 3.28 3.851.32 2.587-.918 4.299-2.184 5.038a3.632 3.632 0 0 1-2.601.427z"/><path fill="none" stroke="#000" d="M230.332 8.507c-.021 0-.041.006-.062.007-.389-.468-.996-.891-1.922-1.098.364-.81.555-1.805.408-2.995-.145-1.177-.998-3.312-3.28-3.851-.517-.093-1.537-.197-2.601.426-2.748 1.611-2.857 5.669-.897 7.737-2.139 1.356-2.762 3.247-2.799 4.13-.001.002-.005.003-.006.003a.318.318 0 0 1 .003-.034l-.004.034c-1.38.427-1.312 3.174-1.312 3.174l-.04 13.812c0 .104.159.201.414.274-.255.074-.414.169-.414.274v.483s-.042 2.394 1.689 2.394c.15 0 .284-.024.41-.055.053.898.133 1.829.25 2.79 0 0 .275.712 1.853.859V51.89c0 .45.679.815 1.518.815.838 0 1.517-.365 1.517-.815V36.607l.031-.005c.262-.05.508-.103.742-.157V49.53c0 .451.68.816 1.518.816s1.518-.365 1.518-.816V35.24c.951-.633 1.141-1.193 1.141-1.193a48.95 48.95 0 0 0 .33-5.073c1.726-.038 1.646-2.389 1.646-2.389l.002-.483c0-.106-.16-.2-.414-.274.254-.075.414-.169.414-.274l.039-13.812c-.002-.001.039-3.235-1.692-3.235z" stroke-linecap="round" stroke-linejoin="round"/><path fill="none" stroke="#000" d="M165.872 81.259V59.268"/><path d="M168.873 60.144l-2.992-5.182-2.991 5.182zm-6.002 20.239l2.992 5.182 2.991-5.182z"/><path fill="none" stroke="#000" d="M211.797 26.604h-32.991"/><path d="M179.682 23.603l-5.182 2.991 5.182 2.991zm31.24 6.001l5.182-2.991-5.182-2.991z"/><path fill="#c7b299" d="M169.556 26.102h3.378l-.002.482s.083 2.393-1.686 2.393c-1.731 0-1.69-2.393-1.69-2.393v-.482z"/><ellipse cx="171.246" cy="26.102" fill="#998675" fill-rule="evenodd" rx="1.689" ry=".423" clip-rule="evenodd"/><path fill="#c7b299" d="M166.782 33.958h3.033V49.53c0 .451-.68.815-1.518.815-.837 0-1.516-.365-1.516-.815V33.958zm-3.809 2.363h3.033v15.572c0 .449-.68.814-1.518.814s-1.516-.365-1.516-.814V36.321z"/><path fill="#199d58" d="M172.973 11.741l-.039 13.812c0 .234-.756.425-1.688.425-.937 0-1.69-.191-1.69-.425l.038-13.812s-.082-3.235 1.689-3.235c1.731-.001 1.69 3.235 1.69 3.235z"/><path fill="#009245" d="M160.126 12.961c-.008-1.158 1.117-4.539 6.16-5.501 5.565-1.06 5.652 2.84 5.652 2.84a.703.703 0 0 1-.004.258l.018 2.806s-.306 2.159-1.093 3.237c-.673.924-.716 2.63-.416 3.719.303 1.083 1.388 6.236.515 13.726 0 0-.584 1.74-4.92 2.555-4.334.919-4.916-.589-4.916-.589-.875-7.142.211-12.724.51-13.93.304-1.208.26-2.9-.413-3.554-.788-.763-1.093-2.797-1.093-2.797s-.053-2.478.003-2.9a.51.51 0 0 0-.003.13z"/><path fill="#c7b299" d="M158.771 30.402h3.378v.482s.083 2.392-1.69 2.392c-1.727 0-1.688-2.392-1.688-2.392v-.482z"/><ellipse cx="160.461" cy="30.401" fill="#998675" fill-rule="evenodd" rx="1.689" ry=".421" clip-rule="evenodd"/><path fill="#998675" d="M167.93 8.442c1.265.298 1.439 1.163.387 1.934-1.052.77-2.928 1.156-4.193.859-1.266-.299-1.439-1.164-.387-1.936 1.051-.77 2.928-1.153 4.193-.857z"/><path fill="#33a86a" d="M162.19 16.041l-.041 13.81c0 .234-.757.426-1.688.426-.934 0-1.69-.192-1.69-.426l.04-13.81s-.084-3.236 1.689-3.236c1.731 0 1.69 3.236 1.69 3.236z"/><path fill="#c7b299" d="M164.922 9.887c-3.838-.867-4.574-6.849-1.095-8.893 1.063-.621 2.084-.517 2.6-.425 2.28.539 3.136 2.676 3.281 3.851.318 2.588-.92 4.3-2.186 5.04a3.618 3.618 0 0 1-2.6.427z"/><path fill="none" stroke="#000" d="M171.284 8.505c-.02 0-.041.006-.062.007-.389-.468-.997-.892-1.922-1.096.365-.811.556-1.804.41-2.997-.146-1.175-1.001-3.312-3.281-3.851-.517-.091-1.537-.195-2.6.425-2.749 1.612-2.857 5.669-.898 7.739-2.14 1.356-2.764 3.247-2.8 4.129l-.005.004c0-.022.003-.035.003-.035l-.003.035c-1.381.426-1.314 3.174-1.314 3.174l-.04 13.81c0 .106.159.204.415.275-.256.074-.415.17-.415.275v.482s-.04 2.392 1.688 2.392c.153 0 .286-.021.411-.052.053.897.133 1.829.252 2.789 0 0 .273.712 1.852.861V51.89c0 .449.678.814 1.516.814s1.518-.365 1.518-.814V36.606c.012 0 .021-.003.031-.003.262-.051.509-.103.744-.158V49.53c0 .451.679.815 1.516.815.838 0 1.518-.365 1.518-.815V35.24c.951-.632 1.142-1.192 1.142-1.192.213-1.843.31-3.538.326-5.074 1.729-.035 1.648-2.389 1.648-2.389l.002-.482c0-.105-.158-.201-.414-.275.256-.072.414-.168.414-.275l.039-13.812c-.002 0 .039-3.236-1.691-3.236z" stroke-linecap="round" stroke-linejoin="round"/><path fill="#c7b299" d="M169.556 117.362h3.378l-.002.482s.082 2.394-1.686 2.394c-1.731 0-1.69-2.394-1.69-2.394v-.482z"/><ellipse cx="171.245" cy="117.362" fill="#998675" fill-rule="evenodd" rx="1.689" ry=".424" clip-rule="evenodd"/><path fill="#c7b299" d="M166.78 125.218h3.035v15.572c0 .451-.68.815-1.518.815s-1.518-.365-1.518-.815v-15.572zm-3.807 2.363h3.034v15.571c0 .45-.68.813-1.518.813s-1.517-.363-1.517-.813v-15.571z"/><path fill="#c73d42" d="M172.973 103.001l-.039 13.812c0 .234-.756.425-1.688.425-.936 0-1.69-.191-1.69-.425l.039-13.812s-.082-3.236 1.689-3.236c1.73 0 1.689 3.236 1.689 3.236z"/><path fill="#c1272d" d="M160.126 104.221c-.008-1.157 1.117-4.538 6.16-5.5 5.564-1.06 5.652 2.84 5.652 2.84a.698.698 0 0 1-.004.257l.018 2.807s-.307 2.159-1.094 3.236c-.672.925-.716 2.631-.416 3.72.303 1.083 1.388 6.236.516 13.726 0 0-.584 1.74-4.92 2.556-4.334.919-4.916-.589-4.916-.589-.875-7.142.21-12.724.51-13.93.303-1.208.26-2.9-.414-3.554-.787-.763-1.092-2.797-1.092-2.797s-.053-2.478.002-2.9a.585.585 0 0 0-.002.128z"/><path fill="#c7b299" d="M158.77 121.661h3.378v.483s.083 2.392-1.691 2.392c-1.727 0-1.688-2.392-1.688-2.392v-.483z"/><ellipse cx="160.461" cy="121.661" fill="#998675" fill-rule="evenodd" rx="1.689" ry=".421" clip-rule="evenodd"/><path fill="#998675" d="M167.93 99.703c1.265.298 1.438 1.163.388 1.934-1.053.769-2.929 1.156-4.193.859-1.267-.298-1.44-1.164-.387-1.936 1.049-.772 2.927-1.154 4.192-.857z"/><path fill="#cd5257" d="M162.19 107.3l-.042 13.811c0 .234-.757.427-1.687.427-.935 0-1.691-.192-1.691-.427l.041-13.811s-.084-3.235 1.689-3.235c1.73 0 1.69 3.235 1.69 3.235z"/><path fill="#c7b299" d="M164.922 101.147c-3.837-.867-4.574-6.849-1.095-8.893 1.064-.621 2.084-.518 2.6-.425 2.28.539 3.136 2.675 3.282 3.851.317 2.588-.92 4.3-2.186 5.039a3.618 3.618 0 0 1-2.601.428z"/><path fill="none" stroke="#000" d="M171.284 99.765c-.021 0-.041.005-.062.008-.39-.468-.998-.892-1.922-1.097.364-.81.555-1.804.41-2.996-.146-1.175-1.002-3.312-3.282-3.851-.517-.092-1.536-.195-2.6.425-2.748 1.612-2.857 5.67-.896 7.738-2.141 1.356-2.764 3.248-2.801 4.13l-.004.003c0-.021.002-.035.002-.035a.41.41 0 0 0-.002.035c-1.381.426-1.314 3.173-1.314 3.173l-.041 13.811c0 .104.16.204.416.275-.256.074-.416.17-.416.274v.483s-.039 2.392 1.688 2.392c.154 0 .286-.021.411-.052.054.897.134 1.828.253 2.789 0 0 .273.712 1.851.861v15.019c0 .45.679.813 1.517.813.838 0 1.518-.363 1.518-.813v-15.286c.011 0 .021-.004.031-.004.261-.051.508-.103.742-.158v13.085c0 .451.68.815 1.518.815s1.518-.365 1.518-.815V126.5c.951-.633 1.143-1.193 1.143-1.193.213-1.842.309-3.537.326-5.074 1.728-.036 1.648-2.389 1.648-2.389l.002-.482c0-.104-.158-.201-.414-.274.256-.072.414-.168.414-.275l.039-13.812c-.004 0 .037-3.236-1.693-3.236z" stroke-linecap="round" stroke-linejoin="round"/><path fill="none" stroke="#000" d="M174.973 50.707l41.161 45.687"/><path d="M213.319 97.752l5.691 1.848-1.246-5.853zM177.79 49.349l-5.692-1.848 1.246 5.853z"/><g fill="#77272d" fill-rule="evenodd" clip-rule="evenodd"><path d="M327.42 116.816h4.312v.481s.105 3.226-2.156 3.226c-2.209 0-2.156-3.226-2.156-3.226v-.481z"/><ellipse cx="329.577" cy="116.816" rx="2.156" ry=".421"/><path d="M324.946 120.59h4.852v19.98c0 .579-1.086 1.047-2.426 1.047s-2.426-.468-2.426-1.047v-19.98z"/><path d="M321.049 122.938h4.854v19.98c0 .579-1.086 1.048-2.428 1.048-1.338 0-2.426-.469-2.426-1.048v-19.98zm10.735-19.896l-.051 13.228c0 .232-.965.421-2.156.421-1.191 0-2.156-.189-2.156-.421l.051-13.228s-.105-3.221 2.156-3.221c2.208 0 2.156 3.221 2.156 3.221z"/><path d="M319.827 106.209c.07-4.826 5.408-5.529 6.834-5.44 2.359.148 3.76 1.285 3.883 3.504a1.39 1.39 0 0 1-.023.335l.025-.108v15.015c.039.959-1.609 2.945-5.578 3.484-4.121.559-5.166-1.17-5.166-1.578l.025-15.212z"/><path d="M318.059 121.654h4.312v.481s.105 3.226-2.156 3.226c-2.209 0-2.156-3.226-2.156-3.226v-.481z"/><ellipse cx="320.215" cy="121.654" rx="2.156" ry=".421"/><path d="M327.256 101.048c1.398.328 1.588 1.284.426 2.136-1.16.852-3.234 1.275-4.633.949-1.398-.329-1.588-1.286-.426-2.137 1.161-.852 3.235-1.276 4.633-.948z"/><path d="M324.194 102.461c-4.057-.987-4.838-7.809-1.158-10.135 1.125-.711 2.203-.593 2.75-.486 2.41.615 3.312 3.049 3.467 4.39.336 2.95-.973 4.902-2.309 5.746a3.59 3.59 0 0 1-2.75.485zm-1.772 5.419l-.051 13.229c0 .231-.965.42-2.156.42-1.189 0-2.156-.189-2.156-.42l.051-13.229s-.105-3.221 2.156-3.221c2.209 0 2.156 3.221 2.156 3.221z"/><path d="M329.628 99.821c-.418 0-.752.11-1.023.289.523-.994.83-2.286.648-3.88-.154-1.341-1.057-3.775-3.467-4.39-.547-.107-1.625-.225-2.75.486-3.148 1.991-3.023 7.264-.381 9.365-1.131.59-2.154 1.528-2.594 2.987-2.043.195-1.951 3.203-1.951 3.203l-.051 13.229c0 .104.205.199.529.272-.324.074-.529.168-.529.273v.481s-.053 3.226 2.156 3.226c.326 0 .6-.073.834-.189v17.746c0 .579 1.088 1.048 2.426 1.048 1.342 0 2.428-.469 2.428-1.048v-1.52c.408.136.914.219 1.469.219 1.34 0 2.426-.468 2.426-1.047v-19.63c.178-.18.322-.358.434-.531 1.58-.561 1.502-3.113 1.502-3.113v-.481c0-.104-.205-.199-.529-.273.324-.074.529-.167.529-.273l.051-13.228c-.001 0 .051-3.221-2.157-3.221z"/></g><path fill="#c7b299" d="M327.42 116.816h4.312v.481s.105 3.226-2.156 3.226c-2.209 0-2.156-3.226-2.156-3.226v-.481z"/><ellipse cx="329.577" cy="116.816" fill="#998675" fill-rule="evenodd" rx="2.156" ry=".421" clip-rule="evenodd"/><path fill="#998675" d="M324.946 120.59h4.852v19.98c0 .579-1.086 1.047-2.426 1.047s-2.426-.468-2.426-1.047v-19.98z"/><path fill="#a8988a" d="M321.049 122.938h4.854v19.98c0 .579-1.086 1.048-2.428 1.048-1.338 0-2.426-.469-2.426-1.048v-19.98z"/><path fill="#998675" d="M331.784 103.042l-.051 13.228c0 .232-.965.421-2.156.421-1.191 0-2.156-.189-2.156-.421l.051-13.228s-.105-3.221 2.156-3.221c2.208 0 2.156 3.221 2.156 3.221z"/><path fill="#9e8c7c" d="M319.827 106.209c.07-4.826 5.408-5.529 6.834-5.44 2.359.148 3.76 1.285 3.883 3.504a1.39 1.39 0 0 1-.023.335l.025-.108v15.015c.039.959-1.609 2.945-5.578 3.484-4.121.559-5.166-1.17-5.166-1.578l.025-15.212z"/><path fill="#c7b299" d="M318.059 121.654h4.312v.481s.105 3.226-2.156 3.226c-2.209 0-2.156-3.226-2.156-3.226v-.481z"/><ellipse cx="320.215" cy="121.654" fill="#998675" fill-rule="evenodd" rx="2.156" ry=".421" clip-rule="evenodd"/><path fill="#998675" d="M327.256 101.048c1.398.328 1.588 1.284.426 2.136-1.16.852-3.234 1.275-4.633.949-1.398-.329-1.588-1.286-.426-2.137 1.161-.852 3.235-1.276 4.633-.948z"/><path fill="#c7b299" d="M324.194 102.461c-4.057-.987-4.838-7.809-1.158-10.135 1.125-.711 2.203-.593 2.75-.486 2.41.615 3.312 3.049 3.467 4.39.336 2.95-.973 4.902-2.309 5.746a3.59 3.59 0 0 1-2.75.485z"/><path fill="#a8988a" d="M322.422 107.88l-.051 13.229c0 .231-.965.42-2.156.42-1.189 0-2.156-.189-2.156-.42l.051-13.229s-.105-3.221 2.156-3.221c2.209 0 2.156 3.221 2.156 3.221z"/><path fill="none" stroke="#000" d="M329.628 99.821c-.418 0-.752.11-1.023.289.523-.994.83-2.286.648-3.88-.154-1.341-1.057-3.775-3.467-4.39-.547-.107-1.625-.225-2.75.486-3.148 1.991-3.023 7.264-.381 9.365-1.131.59-2.154 1.528-2.594 2.987-2.043.195-1.951 3.203-1.951 3.203l-.051 13.229c0 .104.205.199.529.272-.324.074-.529.168-.529.273v.481s-.053 3.226 2.156 3.226c.326 0 .6-.073.834-.189v17.746c0 .579 1.088 1.048 2.426 1.048 1.342 0 2.428-.469 2.428-1.048v-1.52c.408.136.914.219 1.469.219 1.34 0 2.426-.468 2.426-1.047v-19.63c.178-.18.322-.358.434-.531 1.58-.561 1.502-3.113 1.502-3.113v-.481c0-.104-.205-.199-.529-.273.324-.074.529-.167.529-.273l.051-13.228c-.001 0 .051-3.221-2.157-3.221z" stroke-linecap="round" stroke-linejoin="round"/><path fill="#c7b299" d="M328.604 26.103h3.379l-.002.483s.083 2.393-1.688 2.393c-1.73 0-1.689-2.393-1.689-2.393v-.483z"/><ellipse cx="330.293" cy="26.103" fill="#998675" fill-rule="evenodd" rx="1.689" ry=".423" clip-rule="evenodd"/><path fill="#c7b299" d="M325.829 33.959h3.035V49.53c0 .451-.68.816-1.518.816s-1.518-.365-1.518-.816V33.959zm-3.808 2.362h3.034v15.571c0 .45-.679.815-1.517.815-.839 0-1.518-.365-1.518-.815V36.321z"/><path fill="#197fc3" d="M332.022 11.741l-.039 13.812c0 .233-.758.423-1.689.423-.934 0-1.689-.19-1.689-.423l.039-13.812s-.082-3.234 1.689-3.234c1.73 0 1.689 3.234 1.689 3.234z"/><path fill="#0071bc" d="M319.174 12.963c-.007-1.161 1.117-4.54 6.159-5.5 5.566-1.06 5.653 2.837 5.653 2.837a.756.756 0 0 1-.004.259l.016 2.807s-.305 2.157-1.092 3.236c-.673.924-.716 2.631-.414 3.718.301 1.087 1.386 6.238.512 13.727 0 0-.582 1.741-4.918 2.555-4.336.92-4.918-.588-4.918-.588-.873-7.14.211-12.725.512-13.932.303-1.207.26-2.897-.414-3.552-.786-.766-1.092-2.8-1.092-2.8s-.054-2.477.002-2.898c0 .001-.008.05-.002.131z"/><path fill="#c7b299" d="M317.82 30.402h3.378v.483s.082 2.394-1.689 2.394c-1.73 0-1.689-2.394-1.689-2.394v-.483z"/><ellipse cx="319.509" cy="30.402" fill="#998675" fill-rule="evenodd" rx="1.689" ry=".422" clip-rule="evenodd"/><path fill="#998675" d="M326.979 8.443c1.265.296 1.438 1.163.387 1.934-1.053.771-2.93 1.155-4.194.858-1.265-.297-1.439-1.163-.387-1.934 1.051-.771 2.928-1.155 4.194-.858z"/><path fill="#338dc9" d="M321.238 16.041l-.04 13.812c0 .233-.757.422-1.689.422-.933 0-1.689-.189-1.689-.422l.04-13.812s-.083-3.235 1.689-3.235c1.729 0 1.689 3.235 1.689 3.235z"/><path fill="#c7b299" d="M323.971 9.887c-3.838-.866-4.576-6.849-1.096-8.89 1.064-.623 2.084-.52 2.601-.426 2.282.539 3.136 2.674 3.28 3.851.32 2.587-.918 4.299-2.184 5.038a3.632 3.632 0 0 1-2.601.427z"/><path fill="none" stroke="#000" d="M330.332 8.507c-.021 0-.041.006-.062.007-.389-.468-.996-.891-1.922-1.098.364-.81.555-1.805.408-2.995-.145-1.177-.998-3.312-3.28-3.851-.517-.093-1.537-.197-2.601.426-2.748 1.611-2.857 5.669-.897 7.737-2.139 1.356-2.762 3.247-2.799 4.13-.001.002-.005.003-.006.003a.318.318 0 0 1 .003-.034l-.004.034c-1.38.427-1.312 3.174-1.312 3.174l-.04 13.812c0 .104.159.201.414.274-.255.074-.414.169-.414.274v.483s-.042 2.394 1.689 2.394c.15 0 .284-.024.41-.055.053.898.133 1.829.25 2.79 0 0 .275.712 1.853.859V51.89c0 .45.679.815 1.518.815.838 0 1.517-.365 1.517-.815V36.607l.031-.005c.262-.05.508-.103.742-.157V49.53c0 .451.68.816 1.518.816s1.518-.365 1.518-.816V35.24c.951-.633 1.141-1.193 1.141-1.193a48.95 48.95 0 0 0 .33-5.073c1.726-.038 1.646-2.389 1.646-2.389l.002-.483c0-.106-.16-.2-.414-.274.254-.075.414-.169.414-.274l.039-13.812c-.002-.001.039-3.235-1.692-3.235z" stroke-linecap="round" stroke-linejoin="round"/><path fill="#c7b299" d="M269.556 26.104h3.378l-.002.482s.083 2.393-1.686 2.393c-1.731 0-1.69-2.393-1.69-2.393v-.482z"/><ellipse cx="271.246" cy="26.104" fill="#998675" fill-rule="evenodd" rx="1.689" ry=".423" clip-rule="evenodd"/><path fill="#c7b299" d="M266.782 33.959h3.033v15.572c0 .451-.68.815-1.518.815-.837 0-1.516-.365-1.516-.815V33.959zm-3.809 2.364h3.033v15.572c0 .449-.68.814-1.518.814s-1.516-.365-1.516-.814V36.323z"/><path fill="#199d58" d="M272.973 11.743l-.039 13.812c0 .234-.756.425-1.688.425-.936 0-1.69-.191-1.69-.425l.038-13.812s-.082-3.235 1.689-3.235c1.731-.001 1.69 3.235 1.69 3.235z"/><path fill="#009245" d="M260.125 12.963c-.008-1.158 1.117-4.538 6.16-5.5 5.565-1.06 5.652 2.84 5.652 2.84a.703.703 0 0 1-.004.258l.018 2.806s-.306 2.159-1.093 3.237c-.673.924-.716 2.63-.416 3.719.303 1.083 1.388 6.236.515 13.727 0 0-.584 1.74-4.92 2.555-4.334.919-4.916-.589-4.916-.589-.875-7.142.211-12.724.51-13.93.304-1.208.26-2.9-.413-3.554-.788-.763-1.093-2.797-1.093-2.797s-.053-2.478.003-2.9a.617.617 0 0 0-.003.128z"/><path fill="#c7b299" d="M258.771 30.404h3.378v.482s.083 2.392-1.69 2.392c-1.728 0-1.688-2.392-1.688-2.392v-.482z"/><ellipse cx="260.461" cy="30.403" fill="#998675" fill-rule="evenodd" rx="1.689" ry=".421" clip-rule="evenodd"/><path fill="#998675" d="M267.93 8.444c1.265.298 1.438 1.163.387 1.934-1.052.769-2.928 1.156-4.193.859-1.266-.299-1.44-1.164-.387-1.937 1.051-.769 2.928-1.153 4.193-.856z"/><path fill="#33a86a" d="M262.19 16.043l-.041 13.81c0 .234-.757.426-1.688.426-.934 0-1.69-.192-1.69-.426l.04-13.81s-.084-3.236 1.689-3.236c1.731 0 1.69 3.236 1.69 3.236z"/><path fill="#c7b299" d="M264.922 9.889c-3.838-.867-4.574-6.849-1.095-8.893 1.063-.621 2.084-.517 2.6-.425 2.28.538 3.136 2.676 3.281 3.851.318 2.588-.92 4.3-2.186 5.04a3.623 3.623 0 0 1-2.6.427z"/><path fill="none" stroke="#000" d="M271.284 8.507c-.021 0-.041.006-.062.007-.389-.468-.997-.892-1.922-1.096.365-.81.556-1.804.41-2.997-.146-1.175-1.001-3.312-3.281-3.851-.517-.091-1.537-.195-2.6.425-2.749 1.612-2.858 5.669-.897 7.739-2.14 1.356-2.764 3.247-2.8 4.129l-.005.004c0-.022.003-.035.003-.035l-.003.035c-1.381.426-1.314 3.174-1.314 3.174l-.04 13.81c0 .106.159.204.415.275-.256.074-.415.17-.415.275v.482s-.04 2.392 1.688 2.392c.153 0 .286-.021.411-.052.053.897.133 1.829.252 2.789 0 0 .273.712 1.852.861v15.019c0 .449.678.814 1.516.814s1.518-.365 1.518-.814V36.608c.012 0 .021-.003.031-.003.262-.051.509-.103.744-.158v13.085c0 .451.679.815 1.516.815.838 0 1.518-.365 1.518-.815v-14.29c.951-.632 1.142-1.192 1.142-1.192.213-1.843.31-3.538.326-5.074 1.729-.035 1.648-2.389 1.648-2.389l.002-.482c0-.105-.158-.201-.414-.275.256-.072.414-.168.414-.275l.039-13.812c-.003 0 .038-3.236-1.692-3.236z" stroke-linecap="round" stroke-linejoin="round"/><g><path fill="#c7b299" d="M269.555 117.364h3.379l-.002.482s.082 2.394-1.686 2.394c-1.732 0-1.691-2.394-1.691-2.394v-.482z"/><ellipse cx="271.246" cy="117.364" fill="#998675" fill-rule="evenodd" rx="1.689" ry=".424" clip-rule="evenodd"/><path fill="#c7b299" d="M266.78 125.22h3.035v15.572c0 .451-.68.815-1.518.815s-1.518-.365-1.518-.815V125.22zm-3.807 2.364h3.033v15.571c0 .45-.68.813-1.518.813s-1.516-.363-1.516-.813v-15.571z"/><path fill="#c73d42" d="M272.973 103.003l-.039 13.812c0 .234-.756.425-1.688.425-.938 0-1.691-.191-1.691-.425l.039-13.812s-.082-3.236 1.689-3.236c1.731 0 1.69 3.236 1.69 3.236z"/><path fill="#c1272d" d="M260.125 104.223c-.008-1.157 1.117-4.538 6.16-5.5 5.564-1.06 5.652 2.84 5.652 2.84a.698.698 0 0 1-.004.257l.018 2.807s-.307 2.159-1.094 3.236c-.672.925-.715 2.631-.416 3.72.303 1.083 1.389 6.236.516 13.726 0 0-.584 1.74-4.92 2.556-4.334.919-4.916-.589-4.916-.589-.875-7.142.211-12.724.51-13.93.303-1.208.26-2.9-.414-3.554-.787-.763-1.092-2.797-1.092-2.797s-.053-2.478.002-2.9c.001-.001-.007.048-.002.128z"/><path fill="#c7b299" d="M258.77 121.663h3.379v.483s.082 2.392-1.691 2.392c-1.727 0-1.688-2.392-1.688-2.392v-.483z"/><ellipse cx="260.46" cy="121.663" fill="#998675" fill-rule="evenodd" rx="1.689" ry=".421" clip-rule="evenodd"/><path fill="#998675" d="M267.93 99.705c1.264.298 1.438 1.163.387 1.934-1.053.77-2.928 1.156-4.193.859-1.266-.298-1.44-1.164-.387-1.936 1.051-.772 2.928-1.154 4.193-.857z"/><path fill="#cd5257" d="M262.19 107.302l-.041 13.811c0 .234-.758.427-1.688.427-.934 0-1.691-.192-1.691-.427l.041-13.811s-.084-3.235 1.689-3.235c1.731 0 1.69 3.235 1.69 3.235z"/><path fill="#c7b299" d="M264.922 101.149c-3.838-.867-4.574-6.849-1.096-8.893 1.064-.621 2.084-.518 2.602-.425 2.279.539 3.135 2.675 3.281 3.851.318 2.588-.92 4.3-2.186 5.039a3.618 3.618 0 0 1-2.601.428z"/><path fill="none" stroke="#000" d="M271.284 99.767c-.021 0-.041.005-.062.008-.389-.468-.998-.892-1.922-1.097.365-.81.555-1.804.41-2.996-.147-1.175-1.002-3.312-3.281-3.851-.517-.092-1.537-.195-2.602.425-2.748 1.612-2.857 5.669-.896 7.738-2.141 1.356-2.764 3.248-2.801 4.13l-.004.003c0-.021.002-.035.002-.035l-.002.035c-1.381.426-1.314 3.173-1.314 3.173l-.041 13.811c0 .104.16.204.416.275-.256.074-.416.17-.416.274v.483s-.039 2.392 1.688 2.392c.154 0 .287-.021.412-.052.053.897.133 1.828.252 2.789 0 0 .273.712 1.852.861v15.018c0 .45.678.813 1.516.813s1.518-.363 1.518-.813v-15.286c.012 0 .021-.004.031-.004.262-.051.508-.103.742-.158v13.085c0 .451.68.815 1.518.815s1.518-.365 1.518-.815v-14.29c.951-.633 1.142-1.193 1.142-1.193.213-1.842.309-3.537.326-5.074 1.729-.036 1.648-2.389 1.648-2.389l.002-.482c0-.104-.158-.201-.414-.274.256-.072.414-.168.414-.275l.039-13.812c-.002.004.039-3.232-1.691-3.232z" stroke-linecap="round" stroke-linejoin="round"/></g><g><path fill="none" stroke="#000" d="M272.952 52.707l9.765 8.338"/><path d="M280.103 62.759l5.883 1.089-1.998-5.64zm-4.537-11.766l-5.883-1.089 1.998 5.639z"/></g><g><path fill="none" stroke="#000" d="M317.717 50.707l-9.765 8.338"/><path d="M306.668 56.194l-1.998 5.64 5.884-1.089zM319 53.558l1.999-5.64-5.884 1.089z"/></g><g><path fill="none" stroke="#000" d="M273.952 95.045l9.765-8.338"/><path d="M285 89.558l1.999-5.64-5.884 1.089zm-12.332 2.636l-1.998 5.64 5.884-1.089z"/></g><g><path fill="none" stroke="#000" d="M315.717 93.045l-9.765-8.338"/><path d="M308.566 82.993l-5.883-1.089 1.998 5.639zm4.537 11.766l5.883 1.089-1.998-5.639z"/></g><g><path d="M9.225 154.148v-.64l.541-.711c.729-.963 1.44-1.899 1.44-2.854 0-.549-.271-.909-.784-.909-.396 0-.684.188-.864.306l-.189-.738a2.188 2.188 0 0 1 1.225-.378c1.143 0 1.557.792 1.557 1.656 0 1.099-.702 2.062-1.395 2.936l-.369.468v.018h1.854v.847H9.225zm5.562-2.772v.702h-1.873v-.702h1.873zm1.368-1.612l.315 2.008c.072.469.144.928.189 1.359h.027c.072-.432.171-.927.261-1.341l.441-2.026h.738l.414 1.972c.108.495.189.937.261 1.396h.018c.045-.432.117-.891.198-1.377l.333-1.99h.954l-1.116 4.385h-.811l-.405-1.792a12.68 12.68 0 0 1-.234-1.35h-.018c-.063.513-.162.945-.261 1.359l-.432 1.782H16.2l-1.072-4.385h1.027zm7.282 3.385c0 .342.009.711.054.999h-.864l-.054-.441h-.018c-.225.333-.549.514-.927.514-.63 0-1.107-.522-1.107-1.297 0-1.125.954-1.603 1.944-1.611v-.117c0-.459-.18-.774-.657-.774-.315 0-.576.091-.819.243l-.18-.657c.216-.135.675-.314 1.206-.314 1.134 0 1.422.774 1.422 1.71v1.745zm-.946-1.197c-.378.009-1.053.107-1.053.873 0 .495.261.675.477.675.243 0 .468-.162.549-.504a.857.857 0 0 0 .027-.225v-.819zm2.385-2.188l.495 2.386c.063.298.108.559.153.811h.018c.036-.234.09-.522.144-.801l.432-2.396h.945l-.819 3.134c-.234.945-.531 1.891-1.026 2.493-.342.414-.729.621-.9.685l-.315-.828a1.952 1.952 0 0 0 .981-1.062.546.546 0 0 0 .054-.207.51.51 0 0 0-.027-.162l-1.162-4.052h1.027zm6.399 4.295c-.135.072-.414.144-.738.144-1.044 0-1.738-.773-1.738-2.215 0-1.313.729-2.286 1.891-2.286.261 0 .513.062.63.126l-.144.766c-.099-.036-.252-.1-.468-.1-.621 0-.945.666-.945 1.477 0 .9.36 1.44.945 1.44.18 0 .333-.036.468-.099l.099.747zm3.267-.91c0 .342.009.711.054.999h-.864l-.054-.441h-.018c-.225.333-.549.514-.927.514-.63 0-1.107-.522-1.107-1.297 0-1.125.954-1.603 1.944-1.611v-.117c0-.459-.18-.774-.657-.774-.315 0-.576.091-.819.243l-.18-.657c.216-.135.675-.314 1.206-.314 1.134 0 1.422.774 1.422 1.71v1.745zm-.945-1.197c-.378.009-1.053.107-1.053.873 0 .495.261.675.477.675.243 0 .468-.162.549-.504a.857.857 0 0 0 .027-.225v-.819zm1.835-4.033h.963v6.229h-.963v-6.229zm1.89 0h.963v6.229h-.963v-6.229zm-34.207 9v5.186c0 .297.027.792.036 1.044h-.594l-.045-.54h-.036c-.135.306-.45.612-.909.612-.738 0-1.27-.792-1.27-2.233 0-1.548.639-2.269 1.314-2.269.315 0 .622.145.792.514h.018v-2.313h.694zm-.693 3.528c0-.09 0-.188-.009-.288-.036-.45-.315-.846-.648-.846-.576 0-.774.801-.774 1.674 0 .919.234 1.657.738 1.657.216 0 .513-.117.666-.747.027-.081.027-.181.027-.288v-1.162zm1.979-2.331c-.225 0-.396-.181-.396-.45 0-.271.18-.45.405-.45.252 0 .414.18.414.45s-.162.45-.414.45h-.009zm-.324 5.032v-4.357h.693v4.357h-.693zm1.647-3.232c0-.368-.027-.801-.036-1.125h.622l.036.685h.018c.144-.414.513-.757.918-.757.054 0 .099 0 .144.01v.711c-.045-.009-.09-.009-.144-.009-.441 0-.765.404-.837.909a2.566 2.566 0 0 0-.027.396v2.413h-.694v-3.233zm2.601 1.117c.009 1.341.531 1.62 1.026 1.62.306 0 .549-.072.72-.162l.117.504c-.243.136-.612.207-.963.207-1.035 0-1.576-.846-1.576-2.188 0-1.413.594-2.296 1.468-2.296.882 0 1.242.937 1.242 1.918 0 .171-.009.288-.018.396H8.325zm1.368-.513c.009-.873-.315-1.261-.648-1.261-.45 0-.684.667-.711 1.261h1.359zm3.537 2.52c-.153.091-.414.162-.72.162-.954 0-1.594-.765-1.594-2.205 0-1.252.63-2.269 1.72-2.269.234 0 .486.062.612.144l-.135.559a1.13 1.13 0 0 0-.495-.117c-.702 0-1.008.828-1.008 1.684 0 1.017.387 1.629 1.026 1.629.18 0 .342-.036.495-.117l.099.53zm1.575-5.267v1.018h.837v.522h-.837v2.593c0 .576.198.72.45.72.117 0 .207-.009.279-.026l.036.531a1.522 1.522 0 0 1-.513.071c-.279 0-.522-.071-.684-.261-.18-.198-.261-.495-.261-1.099v-2.529h-.531v-.522h.531v-.738l.693-.28zm4.986 5.267c-.153.091-.414.162-.72.162-.954 0-1.594-.765-1.594-2.205 0-1.252.63-2.269 1.72-2.269.234 0 .486.062.612.144l-.135.559a1.13 1.13 0 0 0-.495-.117c-.702 0-1.008.828-1.008 1.684 0 1.017.387 1.629 1.026 1.629.18 0 .342-.036.495-.117l.099.53zm1.764.181c-.783 0-1.414-.712-1.414-2.242 0-1.593.711-2.26 1.458-2.26.783 0 1.405.721 1.405 2.242 0 1.692-.774 2.26-1.44 2.26h-.009zm.036-.55c.594 0 .72-1.017.72-1.701 0-.675-.126-1.701-.738-1.701-.621 0-.738 1.026-.738 1.701 0 .721.126 1.701.747 1.701h.009zm2.187-2.755c0-.513-.027-.773-.036-1.125h.603l.036.522h.018c.189-.352.54-.595.999-.595.604 0 1.054.441 1.054 1.504v2.926h-.693v-2.809c0-.522-.099-1.035-.603-1.035-.288 0-.567.243-.648.711a1.57 1.57 0 0 0-.036.387v2.746h-.693v-3.232zm3.644 0c0-.513-.027-.773-.036-1.125h.603l.036.522h.018c.189-.352.54-.595.999-.595.604 0 1.054.441 1.054 1.504v2.926h-.693v-2.809c0-.522-.099-1.035-.603-1.035-.288 0-.567.243-.648.711a1.57 1.57 0 0 0-.036.387v2.746h-.693v-3.232zm4.131 1.117c.009 1.341.531 1.62 1.026 1.62.306 0 .549-.072.72-.162l.117.504c-.243.136-.612.207-.963.207-1.035 0-1.576-.846-1.576-2.188 0-1.413.594-2.296 1.468-2.296.882 0 1.242.937 1.242 1.918 0 .171-.009.288-.018.396h-2.016zm1.369-.513c.009-.873-.315-1.261-.648-1.261-.45 0-.684.667-.711 1.261h1.359zm3.537 2.52c-.153.091-.414.162-.72.162-.954 0-1.594-.765-1.594-2.205 0-1.252.63-2.269 1.72-2.269.234 0 .486.062.612.144l-.135.559a1.13 1.13 0 0 0-.495-.117c-.702 0-1.008.828-1.008 1.684 0 1.017.387 1.629 1.026 1.629.18 0 .342-.036.495-.117l.099.53zm1.575-5.267v1.018h.837v.522h-.837v2.593c0 .576.198.72.45.72.117 0 .207-.009.279-.026l.036.531a1.522 1.522 0 0 1-.513.071c-.279 0-.522-.071-.684-.261-.18-.198-.261-.495-.261-1.099v-2.529h-.531v-.522h.531v-.738l.693-.28zm1.772.343c-.225 0-.396-.181-.396-.45 0-.271.18-.45.405-.45.252 0 .414.18.414.45s-.162.45-.414.45h-.009zm-.324 5.032v-4.357h.693v4.357h-.693zm2.88.073c-.783 0-1.414-.712-1.414-2.242 0-1.593.711-2.26 1.458-2.26.783 0 1.405.721 1.405 2.242 0 1.692-.774 2.26-1.44 2.26h-.009zm.036-.55c.594 0 .72-1.017.72-1.701 0-.675-.126-1.701-.738-1.701-.621 0-.738 1.026-.738 1.701 0 .721.126 1.701.747 1.701h.009zm2.187-2.755c0-.513-.027-.773-.036-1.125h.603l.036.522h.018c.189-.352.54-.595.999-.595.604 0 1.054.441 1.054 1.504v2.926h-.693v-2.809c0-.522-.099-1.035-.603-1.035-.288 0-.567.243-.648.711a1.57 1.57 0 0 0-.036.387v2.746h-.693v-3.232zm36.385-5.768v-1.494h-1.98v-.657l1.909-3.7h.927v3.583h.603v.774h-.603v1.494h-.856zm0-2.268v-1.404c0-.352.027-.702.054-1.045h-.027c-.162.388-.288.657-.45 1l-.711 1.431v.019h1.134zm3.708-.504v.702h-1.873v-.702h1.873zm1.368-1.612l.315 2.008c.072.469.144.928.189 1.359h.027c.072-.432.171-.927.261-1.341l.441-2.026h.738l.414 1.972c.108.495.189.937.261 1.396h.018c.045-.432.117-.891.198-1.377l.333-1.99h.954l-1.116 4.385h-.809l-.405-1.792a12.68 12.68 0 0 1-.234-1.35h-.018c-.063.513-.162.945-.261 1.359l-.432 1.782h-.828l-1.072-4.385h1.026zm7.282 3.385c0 .342.009.711.054.999h-.864l-.054-.441h-.018c-.225.333-.549.514-.927.514-.63 0-1.107-.522-1.107-1.297 0-1.125.954-1.603 1.944-1.611v-.117c0-.459-.18-.774-.657-.774-.315 0-.576.091-.819.243l-.18-.657c.216-.135.675-.314 1.206-.314 1.134 0 1.422.774 1.422 1.71v1.745zm-.946-1.197c-.378.009-1.053.107-1.053.873 0 .495.261.675.477.675.243 0 .468-.162.549-.504a.857.857 0 0 0 .027-.225v-.819zm2.385-2.188l.495 2.386c.063.298.108.559.153.811h.018c.036-.234.09-.522.144-.801l.432-2.396h.945l-.819 3.134c-.234.945-.531 1.891-1.026 2.493-.342.414-.729.621-.9.685l-.315-.828a1.952 1.952 0 0 0 .981-1.062.546.546 0 0 0 .054-.207.51.51 0 0 0-.027-.162l-1.162-4.052h1.027zm6.399 4.295c-.135.072-.414.144-.738.144-1.044 0-1.738-.773-1.738-2.215 0-1.313.729-2.286 1.891-2.286.261 0 .513.062.63.126l-.144.766c-.099-.036-.252-.1-.468-.1-.621 0-.945.666-.945 1.477 0 .9.36 1.44.945 1.44.18 0 .333-.036.468-.099l.099.747zm3.267-.91c0 .342.009.711.054.999h-.864l-.054-.441h-.018c-.225.333-.549.514-.927.514-.63 0-1.107-.522-1.107-1.297 0-1.125.954-1.603 1.944-1.611v-.117c0-.459-.18-.774-.657-.774-.315 0-.576.091-.819.243l-.18-.657c.216-.135.675-.314 1.206-.314 1.134 0 1.422.774 1.422 1.71v1.745zm-.945-1.197c-.378.009-1.053.107-1.053.873 0 .495.261.675.477.675.243 0 .468-.162.549-.504a.857.857 0 0 0 .027-.225v-.819zm1.835-4.033h.963v6.229h-.963v-6.229zm1.89 0h.963v6.229h-.963v-6.229zm-32.786 11.997c0-.513-.027-.773-.036-1.125h.612l.036.531h.018c.189-.351.513-.604.972-.604.405 0 .756.189.918.657h.018a1.46 1.46 0 0 1 .423-.495c.18-.107.378-.162.603-.162.594 0 1.053.424 1.053 1.54v2.89h-.693v-2.737c0-.566-.081-1.116-.603-1.116-.288 0-.54.243-.639.657-.027.108-.027.243-.027.388v2.809h-.692v-2.863c0-.477-.081-.99-.594-.99-.288 0-.567.243-.648.712a2.27 2.27 0 0 0-.027.369v2.772h-.693v-3.233zm6.066 1.117c.009 1.341.531 1.62 1.026 1.62.306 0 .549-.072.72-.162l.117.504c-.243.136-.612.207-.963.207-1.035 0-1.576-.846-1.576-2.188 0-1.413.594-2.296 1.468-2.296.882 0 1.242.937 1.242 1.918 0 .171-.009.288-.018.396h-2.016zm1.369-.513c.009-.873-.315-1.261-.648-1.261-.45 0-.684.667-.711 1.261h1.359zm1.295 1.909c.153.099.423.225.702.225.387 0 .639-.243.639-.63 0-.333-.117-.567-.558-.855-.567-.369-.873-.747-.873-1.242 0-.712.522-1.207 1.197-1.207.342 0 .594.108.774.226l-.18.522a.994.994 0 0 0-.585-.198c-.369 0-.558.27-.558.558s.108.459.54.747c.504.324.9.729.9 1.333 0 .873-.594 1.296-1.314 1.296-.315 0-.666-.099-.855-.252l.171-.523zm2.718-5.51h.693v2.34h.018c.09-.152.225-.287.369-.387.153-.099.333-.153.576-.153.549 0 1.018.433 1.018 1.54v2.89h-.693v-2.809c0-.54-.117-1.035-.585-1.035-.324 0-.567.233-.675.692-.018.1-.027.226-.027.324v2.827h-.693v-6.229zm5.058 2.997c0-.513-.027-.773-.036-1.125h.603l.036.522h.018c.189-.352.54-.595.999-.595.604 0 1.054.441 1.054 1.504v2.926h-.693v-2.809c0-.522-.099-1.035-.603-1.035-.288 0-.567.243-.648.711a1.57 1.57 0 0 0-.036.387v2.746h-.693v-3.232zm4.131 1.117c.009 1.341.531 1.62 1.026 1.62.306 0 .549-.072.72-.162l.117.504c-.243.136-.612.207-.963.207-1.035 0-1.576-.846-1.576-2.188 0-1.413.594-2.296 1.468-2.296.882 0 1.242.937 1.242 1.918 0 .171-.009.288-.018.396h-2.016zm1.369-.513c.009-.873-.315-1.261-.648-1.261-.45 0-.684.667-.711 1.261h1.359zm2.258-2.747v1.018h.837v.522h-.837v2.593c0 .576.198.72.45.72.117 0 .207-.009.279-.026l.036.531a1.522 1.522 0 0 1-.513.071c-.279 0-.522-.071-.684-.261-.18-.198-.261-.495-.261-1.099v-2.529h-.531v-.522h.531v-.738l.693-.28zm1.89 1.018l.423 2.134c.09.468.18.937.234 1.387h.036c.063-.45.171-.955.271-1.369l.504-2.151h.531l.477 2.089c.108.486.207.945.279 1.432h.036c.054-.459.135-.909.234-1.404l.414-2.116h.693l-1.099 4.357h-.567l-.504-2.115a12.152 12.152 0 0 1-.243-1.306h-.018c-.072.513-.153.918-.252 1.332l-.522 2.089h-.585l-1.062-4.357h.72zm5.85 4.43c-.783 0-1.414-.712-1.414-2.242 0-1.593.711-2.26 1.458-2.26.783 0 1.405.721 1.405 2.242 0 1.692-.774 2.26-1.44 2.26h-.009zm.036-.55c.594 0 .72-1.017.72-1.701 0-.675-.126-1.701-.738-1.701-.621 0-.738 1.026-.738 1.701 0 .721.126 1.701.747 1.701h.009zm2.178-2.755c0-.368-.027-.801-.036-1.125h.622l.036.685h.018c.144-.414.513-.757.918-.757.054 0 .099 0 .144.01v.711c-.045-.009-.09-.009-.144-.009-.441 0-.765.404-.837.909a2.566 2.566 0 0 0-.027.396v2.413h-.693v-3.233zm2.925.9h.018c.081-.171.153-.342.234-.485l.864-1.54h.747l-1.152 1.837 1.261 2.521h-.774l-.945-2.053-.252.405v1.647h-.693v-6.229h.693v3.897zm69.4-6.668v-1.494h-1.98v-.657l1.908-3.7h.928v3.583h.603v.774h-.603v1.494h-.856zm0-2.268v-1.404c0-.352.027-.702.054-1.045h-.026c-.162.388-.288.657-.45 1l-.712 1.431v.019h1.134zm3.708-.504v.702h-1.873v-.702h1.873zm1.367-1.612l.315 2.008c.072.469.145.928.189 1.359h.026c.072-.432.171-.927.262-1.341l.44-2.026h.738l.414 1.972c.108.495.189.937.262 1.396h.018c.045-.432.117-.891.198-1.377l.333-1.99h.954l-1.116 4.385h-.811l-.404-1.792c-.1-.423-.172-.846-.234-1.35h-.019c-.062.513-.161.945-.261 1.359l-.432 1.782h-.828l-1.072-4.385h1.028zm7.283 3.385c0 .342.009.711.054.999h-.864l-.054-.441h-.019c-.225.333-.549.514-.927.514-.63 0-1.107-.522-1.107-1.297 0-1.125.954-1.603 1.944-1.611v-.117c0-.459-.18-.774-.657-.774-.314 0-.576.091-.819.243l-.18-.657c.216-.135.675-.314 1.206-.314 1.135 0 1.423.774 1.423 1.71v1.745zm-.946-1.197c-.378.009-1.054.107-1.054.873 0 .495.262.675.478.675.243 0 .468-.162.549-.504a.817.817 0 0 0 .027-.225v-.819zm2.384-2.188l.495 2.386c.063.298.108.559.153.811h.019c.035-.234.09-.522.144-.801l.433-2.396h.945l-.819 3.134c-.234.945-.531 1.891-1.026 2.493-.343.414-.729.621-.9.685l-.315-.828a1.968 1.968 0 0 0 .982-1.062.546.546 0 0 0 .054-.207.538.538 0 0 0-.026-.162l-1.162-4.052h1.023zm6.4 4.295c-.135.072-.414.144-.737.144-1.045 0-1.738-.773-1.738-2.215 0-1.313.729-2.286 1.891-2.286.262 0 .514.062.631.126l-.145.766c-.099-.036-.252-.1-.468-.1-.621 0-.945.666-.945 1.477 0 .9.359 1.44.945 1.44.18 0 .333-.036.468-.099l.098.747zm3.267-.91c0 .342.009.711.054.999h-.864l-.054-.441h-.019c-.225.333-.549.514-.927.514-.63 0-1.107-.522-1.107-1.297 0-1.125.954-1.603 1.944-1.611v-.117c0-.459-.18-.774-.657-.774-.314 0-.576.091-.819.243l-.18-.657c.216-.135.675-.314 1.206-.314 1.135 0 1.423.774 1.423 1.71v1.745zm-.945-1.197c-.378.009-1.054.107-1.054.873 0 .495.262.675.478.675.243 0 .468-.162.549-.504a.817.817 0 0 0 .027-.225v-.819zm1.835-4.033h.964v6.229h-.964v-6.229zm1.889 0h.964v6.229h-.964v-6.229zm-30.557 14.51c.152.099.423.225.702.225.387 0 .639-.243.639-.63 0-.333-.117-.567-.558-.855-.567-.369-.873-.747-.873-1.242 0-.712.521-1.207 1.197-1.207.342 0 .594.108.773.226l-.18.522a.994.994 0 0 0-.585-.198c-.369 0-.559.27-.559.558s.108.459.54.747c.505.324.9.729.9 1.333 0 .873-.594 1.296-1.314 1.296-.314 0-.666-.099-.854-.252l.172-.523zm3.564-4.656v1.018h.837v.522h-.837v2.593c0 .576.197.72.45.72.116 0 .207-.009.278-.026l.036.531a1.522 1.522 0 0 1-.513.071c-.279 0-.522-.071-.685-.261-.18-.198-.261-.495-.261-1.099v-2.529h-.531v-.522h.531v-.738l.695-.28zm3.744 4.385c0 .333 0 .711.045.99h-.621l-.045-.459h-.027c-.189.333-.495.531-.864.531-.585 0-1.035-.486-1.035-1.242 0-1.099.873-1.576 1.854-1.585v-.135c0-.585-.145-.99-.693-.99-.27 0-.513.081-.72.225l-.153-.486c.189-.135.585-.288 1.018-.288.873 0 1.242.576 1.242 1.549v1.89zm-.675-1.269c-.359 0-1.197.072-1.197 1.018 0 .576.288.774.531.774.307 0 .559-.226.64-.657.018-.081.026-.171.026-.252v-.883zm1.646-.973c0-.368-.026-.801-.036-1.125h.622l.035.685h.019c.144-.414.513-.757.918-.757.054 0 .1 0 .145.01v.711c-.045-.009-.091-.009-.145-.009-.441 0-.765.404-.837.909a2.447 2.447 0 0 0-.027.396v2.413h-.693v-3.233zm3.654 0c0-.513-.027-.773-.036-1.125h.603l.036.522h.019c.188-.352.54-.595.999-.595.604 0 1.054.441 1.054 1.504v2.926h-.693v-2.809c0-.522-.1-1.035-.604-1.035-.288 0-.567.243-.648.711a1.62 1.62 0 0 0-.036.387v2.746h-.692v-3.232zm4.131 1.117c.009 1.341.531 1.62 1.026 1.62.306 0 .549-.072.72-.162l.117.504c-.243.136-.612.207-.963.207-1.035 0-1.576-.846-1.576-2.188 0-1.413.595-2.296 1.468-2.296.883 0 1.242.937 1.242 1.918 0 .171-.009.288-.018.396h-2.016zm1.368-.513c.009-.873-.315-1.261-.648-1.261-.45 0-.684.667-.711 1.261h1.359zm2.259-2.747v1.018h.837v.522h-.837v2.593c0 .576.198.72.45.72.117 0 .207-.009.279-.026l.036.531a1.524 1.524 0 0 1-.514.071c-.279 0-.521-.071-.684-.261-.181-.198-.262-.495-.262-1.099v-2.529h-.531v-.522h.531v-.738l.695-.28zm1.89 1.018l.423 2.134c.091.468.181.937.234 1.387h.036c.062-.45.171-.955.27-1.369l.505-2.151h.531l.477 2.089c.108.486.207.945.279 1.432h.036c.054-.459.135-.909.234-1.404l.414-2.116h.692l-1.098 4.357h-.567l-.504-2.115a12.152 12.152 0 0 1-.243-1.306h-.019c-.071.513-.152.918-.252 1.332l-.521 2.089h-.586l-1.062-4.357h.721zm5.85 4.43c-.783 0-1.414-.712-1.414-2.242 0-1.593.712-2.26 1.459-2.26.783 0 1.404.721 1.404 2.242 0 1.692-.774 2.26-1.44 2.26h-.009zm.037-.55c.594 0 .72-1.017.72-1.701 0-.675-.126-1.701-.738-1.701-.621 0-.738 1.026-.738 1.701 0 .721.126 1.701.747 1.701h.009zm2.177-2.755c0-.368-.027-.801-.036-1.125h.621l.036.685h.018c.145-.414.514-.757.919-.757.054 0 .099 0 .144.01v.711c-.045-.009-.09-.009-.144-.009-.441 0-.766.404-.838.909a2.576 2.576 0 0 0-.026.396v2.413h-.694v-3.233zm2.925.9h.019c.081-.171.152-.342.233-.485l.864-1.54h.747l-1.152 1.837 1.261 2.521h-.774l-.945-2.053-.252.405v1.647h-.693v-6.229h.693v3.897zm71.745-6.668v-1.494h-1.98v-.657l1.909-3.7h.927v3.583h.603v.774h-.603v1.494h-.856zm0-2.268v-1.404c0-.352.027-.702.054-1.045h-.026c-.162.388-.288.657-.45 1l-.711 1.431v.019h1.133zm3.708-.504v.702h-1.873v-.702h1.873zm1.367-1.612l.316 2.008c.071.469.144.928.188 1.359h.026c.072-.432.172-.927.262-1.341l.441-2.026h.738l.414 1.972c.107.495.189.937.261 1.396h.019c.045-.432.117-.891.197-1.377l.334-1.99h.953l-1.115 4.385h-.811l-.405-1.792a12.68 12.68 0 0 1-.234-1.35h-.019c-.062.513-.161.945-.26 1.359l-.433 1.782h-.828l-1.071-4.385h1.027zm7.283 3.385c0 .342.009.711.054.999h-.863l-.055-.441h-.018c-.225.333-.549.514-.928.514-.63 0-1.107-.522-1.107-1.297 0-1.125.955-1.603 1.945-1.611v-.117c0-.459-.181-.774-.658-.774a1.49 1.49 0 0 0-.818.243l-.18-.657c.215-.135.674-.314 1.205-.314 1.135 0 1.423.774 1.423 1.71v1.745zm-.946-1.197c-.378.009-1.054.107-1.054.873 0 .495.262.675.478.675.243 0 .468-.162.55-.504a.859.859 0 0 0 .026-.225v-.819zm2.384-2.188l.496 2.386c.062.298.107.559.152.811h.019c.036-.234.09-.522.144-.801l.433-2.396h.945l-.819 3.134c-.234.945-.531 1.891-1.026 2.493-.343.414-.729.621-.9.685l-.315-.828a1.968 1.968 0 0 0 .983-1.062.56.56 0 0 0 .053-.207.508.508 0 0 0-.026-.162l-1.161-4.052h1.022zm6.401 4.295c-.135.072-.414.144-.738.144-1.045 0-1.738-.773-1.738-2.215 0-1.313.73-2.286 1.891-2.286.262 0 .514.062.631.126l-.145.766c-.099-.036-.252-.1-.468-.1-.621 0-.945.666-.945 1.477 0 .9.36 1.44.945 1.44.181 0 .333-.036.468-.099l.099.747zm3.266-.91c0 .342.009.711.054.999h-.863l-.055-.441h-.018c-.225.333-.549.514-.928.514-.63 0-1.107-.522-1.107-1.297 0-1.125.955-1.603 1.945-1.611v-.117c0-.459-.181-.774-.658-.774a1.49 1.49 0 0 0-.818.243l-.18-.657c.215-.135.674-.314 1.205-.314 1.135 0 1.423.774 1.423 1.71v1.745zm-.945-1.197c-.378.009-1.054.107-1.054.873 0 .495.262.675.478.675.243 0 .468-.162.55-.504a.859.859 0 0 0 .026-.225v-.819zm1.835-4.033h.964v6.229h-.964v-6.229zm1.89 0h.963v6.229h-.963v-6.229zm-42.775 15.121c-.152.091-.414.162-.72.162-.954 0-1.594-.765-1.594-2.205 0-1.252.63-2.269 1.72-2.269.234 0 .486.062.612.144l-.136.559a1.13 1.13 0 0 0-.494-.117c-.703 0-1.009.828-1.009 1.684 0 1.017.388 1.629 1.026 1.629.18 0 .342-.036.495-.117l.1.53zm1.025-2.007c.01 1.341.531 1.62 1.027 1.62.306 0 .549-.072.72-.162l.117.504c-.243.136-.612.207-.964.207-1.035 0-1.575-.846-1.575-2.188 0-1.413.595-2.296 1.468-2.296.883 0 1.242.937 1.242 1.918 0 .171-.009.288-.018.396h-2.017zm1.37-.513c.009-.873-.315-1.261-.648-1.261-.45 0-.684.667-.711 1.261h1.359zm1.412-.604c0-.513-.027-.773-.036-1.125h.603l.037.522h.018c.189-.352.54-.595.999-.595.604 0 1.054.441 1.054 1.504v2.926h-.693v-2.809c0-.522-.1-1.035-.604-1.035-.287 0-.566.243-.648.711a1.626 1.626 0 0 0-.035.387v2.746h-.693v-3.232zm4.437-2.143v1.018h.837v.522h-.837v2.593c0 .576.197.72.45.72.116 0 .207-.009.278-.026l.037.531a1.532 1.532 0 0 1-.514.071c-.279 0-.521-.071-.684-.261-.181-.198-.262-.495-.262-1.099v-2.529h-.531v-.522h.531v-.738l.695-.28zm1.44 2.143c0-.368-.027-.801-.036-1.125h.622l.035.685h.018c.145-.414.514-.757.919-.757.054 0 .099 0 .144.01v.711c-.045-.009-.09-.009-.144-.009-.441 0-.765.404-.837.909a2.447 2.447 0 0 0-.027.396v2.413h-.693v-3.233zm4.482 2.242c0 .333 0 .711.045.99h-.621l-.045-.459h-.027c-.189.333-.494.531-.863.531-.586 0-1.036-.486-1.036-1.242 0-1.099.874-1.576 1.854-1.585v-.135c0-.585-.145-.99-.693-.99-.27 0-.513.081-.72.225l-.153-.486c.189-.135.586-.288 1.018-.288.873 0 1.242.576 1.242 1.549v1.89zm-.676-1.269c-.359 0-1.197.072-1.197 1.018 0 .576.289.774.531.774.307 0 .559-.226.64-.657.019-.081.026-.171.026-.252v-.883zm1.656-3.97h.693v6.229h-.693v-6.229zm2.043 1.197c-.225 0-.396-.181-.396-.45 0-.271.181-.45.406-.45.252 0 .414.18.414.45s-.162.45-.414.45h-.01zm-.324 5.032v-4.357h.693v4.357h-.693zm1.315-.422l1.377-2.701c.117-.216.252-.45.352-.639v-.019h-1.559v-.576h2.332v.459l-1.368 2.656c-.117.216-.252.45-.351.648v.018h1.71v.576h-2.493v-.422zm3.537-1.693c.009 1.341.531 1.62 1.025 1.62.307 0 .55-.072.721-.162l.117.504c-.243.136-.612.207-.963.207-1.035 0-1.576-.846-1.576-2.188 0-1.413.594-2.296 1.468-2.296.882 0 1.242.937 1.242 1.918 0 .171-.009.288-.019.396h-2.015zm1.368-.513c.009-.873-.315-1.261-.648-1.261-.45 0-.685.667-.711 1.261h1.359zm4.041-3.601v5.186c0 .297.027.792.036 1.044h-.594l-.045-.54h-.037c-.135.306-.449.612-.908.612-.738 0-1.27-.792-1.27-2.233 0-1.548.639-2.269 1.314-2.269.314 0 .621.145.792.514h.019v-2.313h.693zm-.692 3.528c0-.09 0-.188-.01-.288-.035-.45-.314-.846-.648-.846-.576 0-.773.801-.773 1.674 0 .919.234 1.657.738 1.657.215 0 .513-.117.666-.747.027-.081.027-.181.027-.288v-1.162zm5.696-3.528v5.186c0 .297.027.792.036 1.044h-.594l-.045-.54h-.037c-.135.306-.449.612-.908.612-.738 0-1.27-.792-1.27-2.233 0-1.548.639-2.269 1.314-2.269.314 0 .621.145.792.514h.019v-2.313h.693zm-.693 3.528c0-.09 0-.188-.01-.288-.035-.45-.314-.846-.648-.846-.576 0-.773.801-.773 1.674 0 .919.234 1.657.738 1.657.215 0 .513-.117.666-.747.027-.081.027-.181.027-.288v-1.162zm1.979-2.331c-.225 0-.396-.181-.396-.45 0-.271.181-.45.406-.45.252 0 .414.18.414.45s-.162.45-.414.45h-.01zm-.324 5.032v-4.357h.693v4.357h-.693zm1.539-.719c.152.099.424.225.702.225.388 0 .64-.243.64-.63 0-.333-.117-.567-.559-.855-.567-.369-.873-.747-.873-1.242 0-.712.521-1.207 1.197-1.207.342 0 .594.108.773.226l-.18.522a.994.994 0 0 0-.585-.198c-.369 0-.558.27-.558.558s.107.459.539.747c.505.324.9.729.9 1.333 0 .873-.594 1.296-1.314 1.296-.314 0-.666-.099-.854-.252l.172-.523zm3.564-4.656v1.018h.837v.522h-.837v2.593c0 .576.197.72.45.72.116 0 .207-.009.278-.026l.037.531a1.532 1.532 0 0 1-.514.071c-.279 0-.521-.071-.684-.261-.181-.198-.262-.495-.262-1.099v-2.529h-.531v-.522h.531v-.738l.695-.28zm1.44 2.143c0-.368-.027-.801-.036-1.125h.622l.035.685h.018c.145-.414.514-.757.919-.757.054 0 .099 0 .144.01v.711c-.045-.009-.09-.009-.144-.009-.441 0-.765.404-.837.909a2.447 2.447 0 0 0-.027.396v2.413h-.693v-3.233zm2.564-1.8c-.225 0-.396-.181-.396-.45 0-.271.181-.45.406-.45.252 0 .414.18.414.45s-.162.45-.414.45h-.01zm-.324 5.032v-4.357h.693v4.357h-.693zm1.647-6.229h.693v2.386h.019c.225-.433.549-.586.918-.586.684 0 1.188.774 1.188 2.206 0 1.575-.647 2.296-1.314 2.296-.467 0-.701-.271-.863-.64h-.037l-.045.567h-.594c.01-.252.036-.747.036-1.035v-5.194zm.694 4.699c0 .099.009.188.026.27.162.64.459.757.648.757.559 0 .756-.757.756-1.684 0-.873-.207-1.647-.765-1.647-.323 0-.585.396-.647.774-.01.099-.019.207-.019.306v1.224zm5.516.342c0 .478.027.864.037 1.188h-.604l-.055-.459h-.018a1.115 1.115 0 0 1-.928.531c-.756 0-1.062-.595-1.062-1.675v-2.755h.692v2.656c0 .675.109 1.188.586 1.188.405 0 .585-.379.621-.586.027-.117.036-.243.036-.387v-2.872h.692v3.171zm1.819-4.187v1.018h.837v.522h-.837v2.593c0 .576.197.72.45.72.116 0 .207-.009.278-.026l.037.531a1.532 1.532 0 0 1-.514.071c-.279 0-.521-.071-.684-.261-.181-.198-.262-.495-.262-1.099v-2.529h-.531v-.522h.531v-.738l.695-.28zm1.772.343c-.226 0-.396-.181-.396-.45 0-.271.18-.45.404-.45.252 0 .414.18.414.45s-.162.45-.414.45h-.008zm-.323 5.032v-4.357h.692v4.357h-.692zm2.879.073c-.783 0-1.413-.712-1.413-2.242 0-1.593.712-2.26 1.458-2.26.783 0 1.405.721 1.405 2.242 0 1.692-.774 2.26-1.44 2.26h-.01zm.037-.55c.594 0 .72-1.017.72-1.701 0-.675-.126-1.701-.738-1.701-.621 0-.738 1.026-.738 1.701 0 .721.126 1.701.747 1.701h.009zm2.186-2.755c0-.513-.027-.773-.035-1.125h.603l.036.522h.018a1.106 1.106 0 0 1 1-.595c.604 0 1.053.441 1.053 1.504v2.926h-.693v-2.809c0-.522-.099-1.035-.603-1.035-.288 0-.567.243-.648.711a1.62 1.62 0 0 0-.036.387v2.746h-.693v-3.232z"/></g></svg>