<svg xmlns="http://www.w3.org/2000/svg" viewBox="0 0 344.26 235.6"><path fill="none" stroke="#000" stroke-dasharray="1 1" d="M61.38 73.44h173.71m-140 20h176.79m-176.79 40.1h140"/><path fill="#b2d4eb" fill-rule="evenodd" d="M73.29 78.37c0 1.98-1.62 3.6-3.6 3.6H6.98a3.61 3.61 0 0 1-3.6-3.6V68.5c0-1.98 1.62-3.6 3.6-3.6h62.7a3.6 3.6 0 0 1 3.6 3.6v9.86z" clip-rule="evenodd"/><path fill="none" stroke="#000" stroke-linecap="round" stroke-linejoin="round" d="M73.29 78.37c0 1.98-1.62 3.6-3.6 3.6H6.98a3.61 3.61 0 0 1-3.6-3.6V68.5c0-1.98 1.62-3.6 3.6-3.6h62.7a3.6 3.6 0 0 1 3.6 3.6v9.86z"/><path fill="#b2d4eb" fill-rule="evenodd" d="M326.29 98.37c0 1.98-1.62 3.6-3.6 3.6h-62.71a3.61 3.61 0 0 1-3.6-3.6V88.5c0-1.98 1.62-3.6 3.6-3.6h62.7c1.98 0 3.6 1.62 3.6 3.6v9.86z" clip-rule="evenodd"/><path fill="none" stroke="#000" stroke-linecap="round" stroke-linejoin="round" d="M326.29 98.37c0 1.98-1.62 3.6-3.6 3.6h-62.71a3.61 3.61 0 0 1-3.6-3.6V88.5c0-1.98 1.62-3.6 3.6-3.6h62.7c1.98 0 3.6 1.62 3.6 3.6v9.86z"/><path fill="none" stroke="#000" stroke-dasharray="1 1" d="M61.38 113.44h173.71"/><path fill="#b2dec7" fill-rule="evenodd" d="M73.29 133.98c0 1.98-1.62 3.6-3.6 3.6H6.98a3.61 3.61 0 0 1-3.6-3.6v-30.46c0-1.98 1.62-3.6 3.6-3.6h62.7a3.6 3.6 0 0 1 3.6 3.6v30.46z" clip-rule="evenodd"/><path fill="none" stroke="#000" stroke-linecap="round" stroke-linejoin="round" d="M73.29 133.98c0 1.98-1.62 3.6-3.6 3.6H6.98a3.61 3.61 0 0 1-3.6-3.6v-30.46c0-1.98 1.62-3.6 3.6-3.6h62.7a3.6 3.6 0 0 1 3.6 3.6v30.46z"/><path fill="none" stroke="#000" stroke-dasharray="1 1" d="M95.09 168.44h176.79"/><path fill="#b2dec7" fill-rule="evenodd" d="M326.51 173.37c0 1.98-1.62 3.6-3.6 3.6h-62.7a3.61 3.61 0 0 1-3.6-3.6v-9.86a3.6 3.6 0 0 1 3.6-3.6h62.7c1.98 0 3.6 1.62 3.6 3.6v9.86z" clip-rule="evenodd"/><path fill="none" stroke="#000" stroke-linecap="round" stroke-linejoin="round" d="M326.51 173.37c0 1.98-1.62 3.6-3.6 3.6h-62.7a3.61 3.61 0 0 1-3.6-3.6v-9.86a3.6 3.6 0 0 1 3.6-3.6h62.7c1.98 0 3.6 1.62 3.6 3.6v9.86zM235.09 43.5v187.79"/><path d="M232.08 230.42l2.99 5.18 3-5.18z"/><path fill="none" stroke="#0071bc" stroke-linecap="round" stroke-linejoin="round" d="M95.09 75.88l135.54 13.56"/><path fill="#0071bc" d="M229.46 92.34l5.45-2.46-4.85-3.5z"/><path fill="none" stroke="#0071bc" stroke-linecap="round" stroke-linejoin="round" d="M235.09 95.88L100.6 108.69"/><path fill="#0071bc" d="M101.19 105.62l-4.87 3.47 5.44 2.48z"/><path fill="none" stroke="#0071bc" stroke-linecap="round" stroke-linejoin="round" d="M95.09 115.88l134.62 13.31"/><path fill="#0071bc" d="M228.55 132.09l5.45-2.47-4.86-3.49z"/><path fill="none" stroke="#009245" stroke-linecap="round" stroke-linejoin="round" d="M95.09 118.88l134.62 13.31"/><path fill="#009245" d="M228.55 135.09l5.45-2.47-4.86-3.49z"/><path fill="none" stroke="#009245" stroke-linecap="round" stroke-linejoin="round" d="M235.09 170.88L100.6 183.69"/><path fill="#009245" d="M101.19 180.62l-4.87 3.47 5.44 2.48z"/><path fill="none" stroke="#000" stroke-linecap="round" stroke-linejoin="round" d="M95.09 43.5v187.79"/><path d="M92.08 230.42l3 5.18 2.99-5.18z"/><path fill="#ccc" d="M96.77 56.48v1.31L75.63 45.67v-1.3z"/><path fill="gray" d="M96.77 56.48l14.73-8.38v1.31l-14.73 8.38z"/><path fill="#fff" d="M75.63 44.37l14.71-8.43L111.5 48.1l-14.73 8.38z"/><path fill="#999" d="M113.55 29.09l.99-.56-2.06 18.96-.99.57zM98.6 53.2v.25L80.73 43.21v-.25z"/><path fill="#b3b3b3" d="M98.6 53.2l10.13-5.76v.25L98.6 53.45z"/><path fill="#e6e6e6" d="M80.73 42.96l10.11-5.8 17.89 10.28L98.6 53.2zm2.57 5.48l2.9-1.67 5.14 2.95-2.91 1.66zm30.25-19.35l-2.06 18.97-21.14-12.12 2.06-18.96z"/><path fill="#0071bc" d="M110.65 46.6L91.19 35.45l2.06-17.02 19.46 11.15-2.06 17.02z"/><path fill="#b3b3b3" d="M92.41 16.98l.97-.61 21.16 12.16-.99.56z"/><path fill="none" stroke="#000" stroke-linecap="round" stroke-linejoin="round" d="M112.48 47.49l2.06-18.96-21.16-12.16-.97.61-2.06 18.96h-.01l-14.71 8.43v1.3l21.14 12.12 14.73-8.38V48.1l-.01-.04z"/><path fill="#b3b3b3" d="M231.71 31.72v29.23l-11.48-7.06V24.65z"/><path fill="#333" d="M229.59 32.64v3.49l-8.19-5.04V27.6zm0 11.77v3.48l-8.19-5.04v-3.48z"/><path fill="#e6e6e6" d="M229.59 40.02v1.01l-8.19-5.04v-1.01z"/><path fill="#333" d="M229.59 49.36v3.49l-8.19-5.04v-3.49zm0 4.95v3.49l-8.19-5.03v-3.49z"/><path fill="gray" d="M231.71 31.73l18.2-11.48v29.24l-18.2 11.48z"/><path fill="#999" d="M220.25 24.67l18.23-11.48 11.46 7.06-18.2 11.48z"/><path fill="#009245" d="M221.67 31.57c.18.1.32.36.32.58 0 .21-.14.3-.32.19a.74.74 0 0 1-.31-.58c0-.22.14-.3.31-.2"/><path fill="#c1272d" d="M222.44 32.04c.18.1.32.37.32.59 0 .2-.15.3-.32.19a.74.74 0 0 1-.32-.58c0-.22.14-.3.32-.2"/><path fill="#009245" d="M223.2 32.5c.18.11.32.37.32.59 0 .22-.14.3-.31.2a.75.75 0 0 1-.32-.6c0-.2.14-.3.32-.18"/><path fill="#c1272d" d="M223.97 32.98c.18.1.32.37.32.58 0 .21-.15.3-.32.2a.76.76 0 0 1-.32-.59c0-.21.15-.3.32-.2m.78.48c.18.11.32.37.31.59 0 .21-.14.3-.31.19a.76.76 0 0 1-.32-.58c0-.21.14-.3.32-.2"/><path fill="#009245" d="M225.52 33.93c.17.1.31.37.31.59 0 .21-.14.3-.32.19a.75.75 0 0 1-.31-.59c0-.2.14-.3.32-.19m.76.47c.18.1.32.36.32.58 0 .22-.15.3-.32.2a.75.75 0 0 1-.31-.6c0-.2.14-.3.31-.19m.77.48c.17.1.31.36.31.58s-.14.3-.31.2a.74.74 0 0 1-.32-.6c0-.2.15-.3.32-.18"/><path fill="#c1272d" d="M221.67 32.7c.18.1.32.37.32.59 0 .2-.14.3-.32.19a.75.75 0 0 1-.31-.59c0-.21.14-.3.31-.19m.77.48c.18.1.32.37.32.58 0 .22-.15.3-.32.2a.76.76 0 0 1-.32-.59c0-.21.14-.3.32-.2"/><path fill="#009245" d="M223.2 33.64c.18.1.32.38.32.58 0 .22-.14.3-.31.2a.75.75 0 0 1-.32-.59c0-.21.14-.3.32-.19"/><path fill="#c1272d" d="M223.97 34.11c.18.1.32.37.32.59 0 .2-.15.3-.32.2a.77.77 0 0 1-.32-.6c0-.2.15-.3.32-.19"/><path fill="#009245" d="M224.75 34.59c.18.1.32.37.31.58 0 .22-.14.3-.31.2a.76.76 0 0 1-.32-.59c0-.21.14-.3.32-.2"/><path fill="#c1272d" d="M225.52 35.06c.17.11.31.38.31.59 0 .22-.14.3-.32.2a.76.76 0 0 1-.31-.59c0-.21.14-.3.32-.2"/><path fill="#009245" d="M226.28 35.53c.18.11.32.37.32.58 0 .22-.15.3-.32.2a.74.74 0 0 1-.31-.59c0-.21.14-.3.31-.2"/><path fill="#c1272d" d="M227.05 36c.17.11.31.37.31.59s-.14.3-.31.19a.76.76 0 0 1-.32-.58c0-.22.15-.3.32-.2"/><path fill="#009245" d="M227.64 40.88c.18.1.32.37.32.59 0 .2-.14.3-.32.2a.76.76 0 0 1-.31-.6c0-.21.14-.3.31-.19m.77.46c.18.11.32.37.32.6 0 .2-.15.29-.32.18a.74.74 0 0 1-.31-.58c0-.21.14-.3.31-.2"/><path fill="#c1272d" d="M229.18 41.82c.17.1.31.36.31.58 0 .21-.14.3-.32.2a.74.74 0 0 1-.3-.59c-.01-.21.13-.3.3-.2m-1.53.21c.18.1.32.37.32.58 0 .22-.14.3-.32.2a.74.74 0 0 1-.31-.59c0-.21.14-.3.31-.2m.77.47c.18.11.32.37.32.58 0 .22-.15.3-.32.2a.74.74 0 0 1-.31-.59c0-.21.14-.3.31-.19"/><path fill="#009245" d="M229.18 42.95c.17.1.31.37.31.59 0 .21-.14.3-.32.19a.73.73 0 0 1-.3-.58c-.01-.22.13-.3.3-.2"/><path fill="none" stroke="#000" stroke-linecap="round" stroke-linejoin="round" d="M249.94 20.25l-11.46-7.06-18.23 11.48-.02-.02v29.24l11.48 7.06v.02l18.2-11.48V20.27z"/><path fill="none" stroke="#000" stroke-dasharray="1 1" d="M235.09 186.44h36.79m-210.5 22h173.71"/><path fill="#ecbec0" fill-rule="evenodd" d="M73.29 213.37c0 1.98-1.62 3.6-3.6 3.6H6.98a3.61 3.61 0 0 1-3.6-3.6v-9.86c0-1.98 1.62-3.6 3.6-3.6h62.7a3.6 3.6 0 0 1 3.6 3.6v9.86z" clip-rule="evenodd"/><path fill="none" stroke="#000" stroke-linecap="round" stroke-linejoin="round" d="M73.29 213.37c0 1.98-1.62 3.6-3.6 3.6H6.98a3.61 3.61 0 0 1-3.6-3.6v-9.86c0-1.98 1.62-3.6 3.6-3.6h62.7a3.6 3.6 0 0 1 3.6 3.6v9.86z"/><path fill="#b2dec7" fill-rule="evenodd" d="M326.51 191.37c0 1.98-1.62 3.6-3.6 3.6h-62.7a3.61 3.61 0 0 1-3.6-3.6v-9.86a3.6 3.6 0 0 1 3.6-3.6h62.7c1.98 0 3.6 1.62 3.6 3.6v9.86z" clip-rule="evenodd"/><path fill="none" stroke="#000" stroke-linecap="round" stroke-linejoin="round" d="M326.51 191.37c0 1.98-1.62 3.6-3.6 3.6h-62.7a3.61 3.61 0 0 1-3.6-3.6v-9.86a3.6 3.6 0 0 1 3.6-3.6h62.7c1.98 0 3.6 1.62 3.6 3.6v9.86z"/><path fill="none" stroke="#009245" stroke-linecap="round" stroke-linejoin="round" d="M235.09 189.88L100.6 202.69"/><path fill="#009245" d="M101.19 199.62l-4.87 3.47 5.44 2.48z"/><path d="M240.72 73.28c0 1.9-.6 2.67-1.35 2.67-.81 0-1.3-.96-1.3-2.66 0-1.75.52-2.67 1.37-2.67.84 0 1.28 1 1.28 2.66zm-2.03 0c0 1.26.21 2.14.72 2.14.5 0 .7-.89.7-2.13 0-1.22-.2-2.14-.7-2.14s-.72.89-.72 2.13zm3.93-.27c0-.45-.02-.68-.03-1h.54l.03.48h.01a.97.97 0 0 1 .88-.54c.36 0 .66.18.8.6h.02c.1-.2.24-.35.38-.45.15-.1.34-.15.54-.15.52 0 .93.39.93 1.37v2.56h-.61v-2.42c0-.5-.07-.99-.55-.99-.25 0-.47.22-.56.58-.02.1-.03.22-.03.35v2.48h-.6v-2.53c0-.43-.08-.88-.54-.88-.25 0-.5.22-.57.62-.02.1-.03.22-.03.34v2.45h-.6v-2.87zm4.86 2.23c.14.1.37.2.62.2.35 0 .57-.21.57-.56 0-.3-.1-.5-.5-.76-.5-.32-.77-.65-.77-1.1 0-.62.46-1.07 1.06-1.07.3 0 .54.1.7.2l-.17.46a.91.91 0 0 0-.51-.17c-.34 0-.5.24-.5.5s.09.4.47.66c.45.3.8.64.8 1.18 0 .77-.52 1.15-1.16 1.15-.28 0-.6-.09-.77-.22l.16-.47zM77.42 95.88v-.4l.44-.6c.62-.85 1.35-1.83 1.35-2.8 0-.58-.25-.93-.74-.93-.38 0-.62.2-.75.29l-.15-.47c.18-.15.54-.35 1.01-.35.86 0 1.24.64 1.24 1.42 0 .98-.64 1.92-1.28 2.8l-.35.48v.02h1.73v.54h-2.5zm3.05-1.27c0-.73.43-1.19.86-1.49l-.01-.01a1.5 1.5 0 0 1-.68-1.2c0-.8.57-1.29 1.21-1.29.75 0 1.11.63 1.11 1.23 0 .45-.21.9-.7 1.22v.02c.49.32.84.8.84 1.42 0 .8-.53 1.44-1.33 1.44-.87 0-1.3-.69-1.3-1.34zm2.02-.06c0-.6-.34-.94-.74-1.2-.42.26-.67.7-.67 1.16 0 .58.26.98.7.98.4 0 .71-.3.71-.94zm-1.26-2.67c0 .53.32.79.64 1 .31-.23.52-.57.52-.96 0-.5-.2-.84-.58-.84-.35 0-.58.33-.58.8zm3.78 1.13c0-.45-.02-.68-.03-1h.54l.03.48h.02a.97.97 0 0 1 .87-.54c.36 0 .66.18.8.6h.02c.1-.2.24-.35.39-.45.15-.1.33-.15.53-.15.52 0 .93.39.93 1.37v2.56h-.6v-2.42c0-.5-.08-.99-.55-.99-.26 0-.48.22-.57.58l-.02.35v2.48h-.61v-2.53c0-.43-.08-.88-.54-.88-.24 0-.5.22-.57.62-.02.1-.03.22-.03.34v2.45h-.6v-2.87zm4.86 2.23c.14.1.38.2.62.2.36 0 .57-.21.57-.56 0-.3-.1-.5-.5-.76-.5-.32-.77-.65-.77-1.1 0-.62.46-1.07 1.06-1.07.3 0 .54.1.7.2l-.17.46a.91.91 0 0 0-.51-.17c-.34 0-.5.24-.5.5s.1.4.47.66c.45.3.8.64.8 1.18 0 .77-.52 1.15-1.16 1.15-.28 0-.6-.09-.76-.22l.15-.47zM77.4 134.61c0-.73.42-1.19.85-1.49l-.01-.01a1.5 1.5 0 0 1-.68-1.2c0-.8.57-1.29 1.21-1.29.75 0 1.11.63 1.11 1.23 0 .45-.21.9-.7 1.22v.02c.49.32.84.8.84 1.42 0 .8-.53 1.44-1.33 1.44-.87 0-1.3-.69-1.3-1.34zm2.01-.06c0-.6-.34-.94-.74-1.2-.42.26-.67.7-.67 1.16 0 .58.26.98.7.98.4 0 .71-.3.71-.94zm-1.26-2.67c0 .52.32.79.64 1 .31-.23.52-.57.52-.96 0-.5-.2-.84-.58-.84-.35 0-.58.33-.58.8zm3.97 4v-1.43h-1.73v-.41l1.69-3.35h.6v3.26h.57v.5h-.57v1.43h-.56zm0-1.93v-1.47c0-.36.02-.68.05-1.03h-.04c-.17.42-.28.67-.44.99l-.72 1.5h1.15zm2.89-.94c0-.45-.02-.68-.03-1h.54l.03.48h.02a.97.97 0 0 1 .87-.54c.36 0 .66.18.8.6h.02c.1-.2.24-.35.39-.45.15-.1.33-.15.53-.15.52 0 .93.39.93 1.37v2.56h-.6v-2.42c0-.5-.08-.99-.55-.99-.26 0-.48.22-.57.57l-.02.36v2.48h-.61v-2.53c0-.43-.08-.88-.54-.88-.24 0-.5.22-.57.62-.02.1-.03.22-.03.34v2.45h-.6v-2.87zm4.86 2.23c.14.1.38.2.62.2.36 0 .57-.21.57-.56 0-.3-.1-.5-.5-.76-.5-.32-.77-.65-.77-1.1 0-.62.46-1.07 1.06-1.07.3 0 .54.1.7.2l-.17.46a.91.91 0 0 0-.51-.17c-.34 0-.5.24-.5.5s.1.4.47.66c.45.3.8.64.8 1.18 0 .77-.52 1.15-1.16 1.15-.28 0-.6-.09-.76-.22l.15-.47zm-13.73 30.97h-.01l-.87.5-.12-.48 1.1-.64h.51v5.2h-.6v-4.58zm1.83 4.58v-.4l.44-.6c.62-.86 1.36-1.83 1.36-2.81 0-.58-.26-.93-.75-.93-.37 0-.61.2-.75.29l-.15-.46c.18-.16.54-.36 1.01-.36.87 0 1.24.64 1.24 1.43 0 .97-.64 1.92-1.28 2.8l-.35.48v.01h1.74v.55h-2.5zm4.7 0v-1.44h-1.73v-.41l1.69-3.35h.6v3.26h.57v.5h-.57v1.44h-.56zm0-1.94v-1.47c0-.36.02-.68.05-1.02h-.03l-.44.98-.72 1.5v.01h1.14zm2.9-.93c0-.46-.03-.7-.04-1h.54l.03.48h.02a.97.97 0 0 1 .87-.55.8.8 0 0 1 .8.6h.03c.1-.2.24-.35.38-.45.15-.1.33-.15.54-.15.52 0 .92.39.92 1.37v2.57h-.6v-2.43c0-.5-.08-.99-.55-.99-.25 0-.48.22-.57.58l-.02.35v2.49h-.61v-2.54c0-.43-.08-.88-.54-.88-.24 0-.5.22-.57.63-.02.1-.03.21-.03.33v2.46h-.6v-2.87zm4.85 2.23c.14.08.38.2.63.2.35 0 .56-.22.56-.56 0-.3-.1-.5-.5-.76-.5-.33-.77-.66-.77-1.1 0-.63.47-1.08 1.07-1.08.3 0 .53.1.7.2l-.18.46a.91.91 0 0 0-.5-.16c-.34 0-.51.24-.51.48 0 .27.1.41.48.68.45.28.8.64.8 1.17 0 .78-.53 1.15-1.16 1.15-.29 0-.6-.09-.77-.22l.15-.46zM32.68 75.48c.23.15.63.27.97.27.7 0 1.12-.46 1.12-1.14 0-.62-.36-1-.89-1.4-.53-.36-1.27-1-1.27-1.86a1.7 1.7 0 0 1 1.78-1.77c.42 0 .8.13.95.25l-.19.66a1.4 1.4 0 0 0-.8-.23c-.66 0-.97.5-.97.96 0 .67.35.93 1 1.39.8.56 1.16 1.18 1.16 1.93a1.8 1.8 0 0 1-1.89 1.9c-.46 0-.95-.16-1.14-.3l.17-.66zm4.74.89v-2.85l-1.48-3.88h.81l.6 1.68c.17.47.35 1 .5 1.52h.02c.14-.52.31-1.03.5-1.55l.56-1.65h.81l-1.55 3.85v2.88h-.77zm2.96 0v-6.73h.73l1.24 3.15c.28.72.63 1.62.86 2.35h.02a50.69 50.69 0 0 1-.09-3.1v-2.4h.69v6.73h-.73l-1.28-3.23c-.27-.68-.56-1.45-.8-2.3H41c.06.9.08 1.77.08 3.2v2.33h-.7zM89.81 8.25c-.2.11-.54.18-.96.18-1.31 0-2.25-1.06-2.25-3.35 0-2.66 1.31-3.5 2.37-3.5.41 0 .7.07.84.16l-.17.65a1.47 1.47 0 0 0-.68-.14c-.72 0-1.56.7-1.56 2.76 0 2.06.76 2.74 1.58 2.74.3 0 .55-.07.71-.15l.12.65zm.71-6.8h.77v6.92h-.78V1.45zm2.73.83c.01.3-.18.5-.47.5-.25 0-.43-.2-.43-.5s.2-.5.45-.5c.28 0 .45.2.45.5zm-.83 6.09V3.53h.77v4.84h-.77zm2.38-2.35c.02 1.48.6 1.8 1.15 1.8.33 0 .61-.08.8-.19l.12.57c-.27.15-.68.23-1.06.23-1.16 0-1.76-.95-1.76-2.43 0-1.57.66-2.55 1.63-2.55 1 0 1.38 1.04 1.38 2.14v.43H94.8zm1.52-.57c.02-.97-.35-1.4-.72-1.4-.5 0-.75.74-.79 1.4h1.51zm1.58-.67c0-.57-.04-.86-.05-1.25h.67l.04.58h.02c.21-.39.6-.66 1.11-.66.67 0 1.17.5 1.17 1.67v3.25h-.77V5.25c0-.57-.1-1.15-.67-1.15-.32 0-.63.27-.73.8a2.5 2.5 0 0 0-.03.42v3.05h-.77V4.78zm4.92-2.53v1.28h.93v.6h-.93v2.86c0 .63.23.8.51.8.12 0 .22-.01.31-.03l.03.6c-.14.04-.32.07-.57.07-.3 0-.56-.08-.75-.29-.2-.22-.3-.55-.3-1.22v-2.8h-.58v-.59h.59V2.47l.76-.22zm125.74 5.23c.22.15.63.27.97.27.7 0 1.11-.46 1.11-1.14 0-.62-.35-1-.89-1.4-.53-.37-1.26-1-1.26-1.87 0-1.02.7-1.77 1.77-1.77.42 0 .8.13.95.25l-.19.66a1.4 1.4 0 0 0-.8-.23c-.66 0-.97.5-.97.96 0 .67.35.93 1 1.4.8.56 1.16 1.18 1.16 1.93a1.8 1.8 0 0 1-1.89 1.89c-.46 0-.95-.15-1.14-.29l.18-.66zm4.3-1.46c.01 1.48.6 1.8 1.15 1.8.33 0 .61-.08.8-.19l.12.57c-.27.15-.68.23-1.06.23-1.16 0-1.76-.95-1.76-2.43 0-1.57.66-2.55 1.63-2.55 1 0 1.38 1.04 1.38 2.14v.43h-2.26zm1.52-.57c.02-.97-.35-1.4-.72-1.4-.5 0-.76.74-.79 1.4h1.51zm1.56-.67c0-.4-.03-.89-.04-1.25h.7l.03.76h.02c.16-.46.57-.84 1.02-.84l.16.01v.8c-.05-.02-.1-.02-.16-.02-.49 0-.85.45-.93 1.01-.02.13-.03.28-.03.44v2.68h-.77V4.78zm3.14-1.25l.61 2.72c.07.33.15.76.21 1.18h.03c.05-.4.13-.8.2-1.18l.6-2.72h.76l-1.26 4.84h-.69l-1.26-4.84h.8zm3.49 2.49c.01 1.48.6 1.8 1.15 1.8.33 0 .61-.08.8-.19l.12.57c-.27.15-.68.23-1.06.23-1.16 0-1.76-.95-1.76-2.43 0-1.57.66-2.55 1.63-2.55 1 0 1.38 1.04 1.38 2.14v.43h-2.26zm1.52-.57c.02-.97-.35-1.4-.72-1.4-.5 0-.76.74-.79 1.4h1.51zm1.56-.67c0-.4-.03-.89-.04-1.25h.7l.03.76h.02c.16-.46.57-.84 1.02-.84l.16.01v.8c-.05-.02-.1-.02-.16-.02-.49 0-.85.45-.93 1.01a2.8 2.8 0 0 0-.03.44v2.68h-.77V4.78zm33.51 90.7c.23.15.63.27.97.27.7 0 1.12-.46 1.12-1.14 0-.62-.36-1-.89-1.4-.53-.36-1.27-1-1.27-1.86a1.7 1.7 0 0 1 1.78-1.77c.42 0 .79.13.95.25l-.19.66a1.41 1.41 0 0 0-.8-.23c-.66 0-.97.5-.97.96 0 .67.35.93.99 1.39.81.56 1.17 1.18 1.17 1.93a1.8 1.8 0 0 1-1.89 1.9c-.46 0-.95-.16-1.14-.3l.17-.66zm4.74.89v-2.85l-1.48-3.88h.81l.6 1.68c.17.47.35 1 .5 1.52h.02c.14-.52.31-1.03.5-1.55l.56-1.65h.81l-1.55 3.85v2.88h-.77zm2.96 0v-6.73h.73l1.24 3.15c.28.72.63 1.62.86 2.35h.02a50.2 50.2 0 0 1-.1-3.1v-2.4h.7v6.73h-.73l-1.28-3.23c-.27-.68-.56-1.45-.8-2.3h-.02c.06.9.08 1.77.08 3.2v2.33h-.7zm7.04-2.02l-.46 2.02h-.74l1.54-6.73h.85l1.5 6.73h-.76l-.45-2.02h-1.49zm1.38-.62l-.35-1.7a35.2 35.2 0 0 1-.27-1.54h-.04c-.08.5-.18 1.08-.27 1.53l-.35 1.71h1.28zm4.89 2.52c-.2.11-.54.18-.96.18-1.32 0-2.26-1.06-2.26-3.35 0-2.65 1.32-3.5 2.38-3.5.41 0 .7.08.84.17l-.17.65a1.47 1.47 0 0 0-.68-.14c-.72 0-1.56.7-1.56 2.75 0 2.06.76 2.74 1.58 2.74.3 0 .55-.07.71-.15l.12.65zm.79-6.61h.77v3.2h.02c.15-.29.3-.56.42-.82l1.26-2.39h.85l-1.65 2.88 1.7 3.86h-.84l-1.38-3.25-.38.65v2.6h-.77v-6.73zm40.69-13.6v-1.21h.98v3.49h-.98V77.1h-5.76v-1.07h5.76zm-5.65 5.9a2.4 2.4 0 0 1-.17-1c0-1.53 1.26-2.41 3.34-2.41 2.59 0 3.52 1.37 3.52 2.57a2 2 0 0 1-.17.88l-.91-.2c.08-.16.14-.32.14-.64 0-.73-.67-1.48-2.51-1.48-1.81 0-2.46.68-2.46 1.49 0 .25.06.5.12.66l-.9.13zm6.53.75c.08.34.13.78.13 1.25 0 .7-.13 1.29-.51 1.69-.34.36-.86.54-1.44.54-.68 0-1.14-.2-1.5-.5-.47-.4-.7-1.05-.7-1.62l.01-.3h-2.63v-1.06h6.64zm-3.13 1.06c-.02.08-.02.15-.02.26 0 .7.48 1.09 1.25 1.09.63 0 1.16-.26 1.16-.98 0-.15-.02-.28-.05-.37h-2.34zm-.43 6.62h-.78v-2.08h.78v2.08zm2.73 6.78V95.4l-1.72-.27c.02.08.02.15.02.24 0 .35-.15.89-.5 1.24a2 2 0 0 1-1.47.54c-1.29 0-2.22-.81-2.22-1.97 0-.4.11-.84.28-1.1l.62.17c-.12.2-.26.55-.26.9 0 .67.51 1.24 1.5 1.24 1.03 0 1.46-.63 1.46-1.47 0-.24-.01-.4-.03-.51l3 .4v2.34h-.67zm.12 3.71a3.46 3.46 0 0 0-.07-.46c-.26-1.08-1.34-1.51-2.34-1.67v.03c.37.25.62.6.62 1.1 0 .83-.76 1.4-2 1.4-1.23 0-2.22-.56-2.22-1.6 0-1.13 1.15-1.7 2.64-1.7 1.26 0 2.24.33 2.93.84.55.39.9 1 1.03 1.57.04.2.05.37.06.49h-.65zm-3.85-.37c.98 0 1.47-.34 1.47-.87 0-.32-.22-.65-.7-.84-.07-.03-.2-.06-.39-.06-1.33 0-1.94.42-1.94.94 0 .44.43.83 1.56.83zm1.51 3.14c.57 0 .86-.03 1.25-.04v.67l-.6.04v.02c.39.2.68.58.68 1.09 0 .45-.22.83-.74 1v.02c.24.13.43.3.55.48.13.2.19.42.19.67 0 .65-.48 1.16-1.71 1.16h-3.2v-.76h3.02c.63 0 1.24-.09 1.24-.68 0-.32-.27-.6-.72-.7a2.93 2.93 0 0 0-.44-.04h-3.1v-.75h3.16c.54 0 1.1-.1 1.1-.67 0-.31-.27-.63-.78-.72a2.78 2.78 0 0 0-.42-.03h-3.07v-.76h3.59zm-2.79 6.07c-.11.17-.25.47-.25.78 0 .44.27.7.7.7.37 0 .62-.12.95-.61.4-.63.82-.97 1.38-.97.78 0 1.34.58 1.34 1.33 0 .38-.13.66-.25.87l-.58-.21c.12-.18.2-.4.2-.64a.6.6 0 0 0-.6-.63c-.33 0-.51.12-.84.6-.36.56-.8 1-1.47 1-.97 0-1.44-.66-1.44-1.45 0-.36.11-.75.28-.96l.58.19zm-96.17 1.53h-1.4l-.22 1.38.2-.01c.27 0 .7.12.98.39s.44.65.44 1.18c0 1.03-.65 1.78-1.58 1.78-.31 0-.67-.1-.88-.23l.14-.5c.16.1.44.21.73.21.52 0 .98-.4.98-1.2 0-.82-.5-1.16-1.18-1.16-.19 0-.3 0-.4.02l.32-2.4h1.87v.54zm2.97-.09l-.37.06c-.87.2-1.21 1.07-1.34 1.87h.03c.2-.3.48-.5.87-.5.67 0 1.12.61 1.12 1.6 0 .99-.44 1.78-1.28 1.78-.9 0-1.35-.92-1.35-2.11 0-1.01.26-1.8.67-2.35.3-.43.8-.72 1.25-.82l.4-.05v.52zm-.3 3.08c0-.78-.27-1.17-.7-1.17-.25 0-.52.17-.67.56a.85.85 0 0 0-.05.3c.01 1.07.34 1.56.75 1.56.36 0 .67-.35.67-1.25zm2.51-1.21c0-.45-.02-.68-.03-1h.54l.03.48h.01a.97.97 0 0 1 .87-.54.8.8 0 0 1 .81.6h.02c.1-.2.24-.35.38-.45.15-.1.34-.15.54-.15.52 0 .93.39.93 1.37v2.56h-.61v-2.42c0-.5-.07-.99-.55-.99-.25 0-.47.22-.56.58-.02.1-.03.22-.03.35v2.48h-.6v-2.53c0-.43-.08-.88-.54-.88-.25 0-.5.22-.57.62-.02.1-.03.22-.03.34v2.45h-.6v-2.87zm4.86 2.23c.13.1.37.2.62.2.35 0 .57-.21.57-.56 0-.3-.1-.5-.5-.76-.5-.32-.77-.65-.77-1.1 0-.62.46-1.07 1.06-1.07.3 0 .54.1.7.2l-.17.46a.91.91 0 0 0-.51-.17c-.34 0-.5.24-.5.5s.09.4.47.66c.45.3.8.64.8 1.18 0 .77-.53 1.15-1.16 1.15-.28 0-.6-.09-.77-.22l.16-.47zm-216.78-5.57l-.45 2.02h-.74l1.54-6.74h.85l1.5 6.74h-.76l-.45-2.02h-1.49zm1.4-.62l-.36-1.7c-.1-.49-.19-1.05-.27-1.55h-.04c-.08.51-.18 1.1-.27 1.54l-.35 1.71h1.28zm4.88 2.52c-.2.1-.54.18-.96.18-1.32 0-2.26-1.06-2.26-3.35 0-2.66 1.32-3.5 2.38-3.5.41 0 .7.07.84.16l-.17.65a1.47 1.47 0 0 0-.68-.14c-.72 0-1.56.7-1.56 2.76 0 2.06.76 2.74 1.58 2.74.3 0 .55-.07.71-.15l.12.65zm.79-6.62h.77v3.2h.02c.15-.28.3-.55.42-.81l1.26-2.39h.85l-1.65 2.88 1.7 3.86h-.84L42 108.44l-.38.65v2.6h-.77v-6.74zm-14.5 16.55c-.3.13-.84.25-1.31.25-.7 0-1.26-.2-1.71-.66-.53-.55-.85-1.52-.84-2.71.02-2.53 1.4-3.49 2.72-3.49.47 0 .83.1 1.04.2l-.21.92c-.18-.1-.43-.16-.77-.16-.87 0-1.67.64-1.67 2.54 0 1.83.7 2.45 1.4 2.45.19 0 .3-.02.36-.05v-1.89h-.72v-.88h1.7v3.49zm3.68-2.88h-1.6v2.14h1.82v.93h-2.9v-6.74h2.78v.93h-1.7v1.85h1.6v.89zm1.84-2.69h-1.21v-.98h3.49v.98h-1.21v5.76h-1.07v-5.76zm3.91 6.16l2.26-7.22h.73l-2.26 7.22h-.73zm3.38-7.32h1.07v2.56h.02c.1-.17.26-.3.42-.4.18-.12.4-.19.65-.19.77 0 1.2.64 1.2 1.87v3.08h-1.07v-3.04c0-.53-.11-1.01-.56-1.01-.28 0-.51.19-.62.6a2 2 0 0 0-.04.37v3.08h-1.07v-6.92zm5.58.84v1.21h.94v.77h-.94v2.53c0 .6.23.75.5.75.12 0 .22-.01.33-.03l.02.83c-.16.05-.4.08-.7.08-.34 0-.65-.1-.86-.3-.24-.24-.36-.6-.36-1.32v-2.54h-.58v-.77h.58v-.84l1.07-.37zm1.58 2.58c0-.55-.02-.94-.04-1.37h.93l.05.58h.02c.23-.37.63-.66 1.14-.66.5 0 .86.24 1.04.7h.02c.12-.21.3-.4.48-.52.2-.12.43-.18.68-.18.78 0 1.22.6 1.22 1.8v3.15H50.8v-2.95c0-.6-.08-1.11-.55-1.11-.28 0-.5.21-.6.57-.02.1-.03.24-.03.39v3.1h-1.06v-3.12c0-.43-.06-.94-.54-.94-.26 0-.51.2-.6.6-.02.1-.04.24-.04.38v3.08h-1.06v-3.5zm6.53-3.42h1.07v6.92h-1.07v-6.92zM29.6 131.5c-.3.13-.84.25-1.31.25-.7 0-1.26-.2-1.71-.66-.53-.55-.85-1.52-.84-2.71.02-2.53 1.4-3.49 2.72-3.49.47 0 .83.1 1.04.2l-.21.92c-.18-.1-.43-.16-.77-.16-.87 0-1.67.64-1.67 2.54 0 1.83.7 2.45 1.4 2.45.19 0 .3-.02.36-.05v-1.89h-.72v-.88h1.7v3.49zm3.68-2.88h-1.6v2.14h1.82v.93h-2.9v-6.74h2.78v.93h-1.7v1.85h1.6v.89zm1.84-2.69H33.9v-.98h3.49v.98h-1.21v5.76h-1.07v-5.76zm3.91 6.16l2.26-7.22h.73l-2.26 7.22h-.73zm5.94-.5c-.15.08-.46.16-.82.16-1.16 0-1.93-.86-1.93-2.46 0-1.46.8-2.54 2.1-2.54.29 0 .57.07.7.14l-.16.85c-.11-.04-.28-.1-.52-.1-.7 0-1.05.73-1.05 1.63 0 1 .4 1.6 1.05 1.6.2 0 .37-.04.52-.1l.1.82zm.49-.91c.18.12.5.26.84.26.38 0 .6-.2.6-.56 0-.3-.13-.5-.58-.79-.73-.43-1-.9-1-1.39 0-.84.62-1.46 1.5-1.46.39 0 .7.11.93.24l-.21.79a1.24 1.24 0 0 0-.67-.21c-.37 0-.55.24-.55.51 0 .26.12.41.58.71.65.39 1 .87 1 1.48 0 .99-.7 1.49-1.61 1.49-.38 0-.83-.11-1.04-.28l.2-.8zm3.08 0c.18.12.5.26.84.26.38 0 .6-.2.6-.56 0-.3-.13-.5-.58-.79-.73-.43-1-.9-1-1.39 0-.84.62-1.46 1.5-1.46.39 0 .7.11.93.24l-.21.79a1.24 1.24 0 0 0-.67-.21c-.37 0-.55.24-.55.51 0 .26.12.41.58.71.65.39 1 .87 1 1.48 0 .99-.7 1.49-1.61 1.49-.38 0-.83-.11-1.04-.28l.2-.8zm221.2 33.96v2.89h1.89v-2.9h.77v6.74h-.77v-3.15h-1.9v3.15h-.76v-6.73h.77zm4.65.69h-1.23v-.7h3.23v.7h-1.23v6.04h-.77v-6.04zm6.79 3.14c-.05-.89-.1-1.88-.07-2.64h-.04c-.15.75-.33 1.55-.54 2.34l-.83 3.16h-.5l-.78-3.03c-.22-.86-.42-1.69-.55-2.47h-.03c0 .8-.04 1.73-.08 2.7l-.13 2.84h-.7l.4-6.73h.84l.79 3.07c.23.9.4 1.55.54 2.32h.03c.13-.77.28-1.4.5-2.32l.76-3.07h.85l.4 6.73h-.72l-.14-2.9zm1.91-3.83h.77v6.08h1.9v.65h-2.67v-6.73zm4.94 3.14c0-.4-.03-.89-.04-1.24h.69l.04.76h.02c.16-.46.57-.84 1.02-.84h.16v.8c-.05-.02-.1-.02-.16-.02-.5 0-.85.45-.93 1.01a2.8 2.8 0 0 0-.03.44v2.68h-.77v-3.59zm2.89 1.24c0 1.48.59 1.8 1.15 1.8.32 0 .6-.08.8-.19l.11.57c-.27.15-.68.23-1.05.23-1.16 0-1.76-.95-1.76-2.43 0-1.56.66-2.54 1.62-2.54 1 0 1.38 1.03 1.38 2.13v.43h-2.25zm1.52-.56c.02-.97-.35-1.4-.72-1.4-.5 0-.76.74-.8 1.4h1.52zm1.44 2.11c.17.11.47.25.78.25.44 0 .7-.27.7-.7 0-.37-.12-.62-.61-.95-.63-.4-.97-.81-.97-1.37 0-.78.58-1.34 1.33-1.34.38 0 .67.13.86.25l-.2.58a1.2 1.2 0 0 0-.65-.21.6.6 0 0 0-.62.6c0 .33.11.51.6.84.56.36 1 .8 1 1.47 0 .97-.66 1.44-1.45 1.44-.36 0-.75-.1-.96-.28l.19-.58zm3.01-2.53c0-.73-.03-1.16-.04-1.5h.69l.04.61h.02c.26-.52.64-.7 1.02-.7.84 0 1.4.9 1.4 2.5 0 1.78-.74 2.5-1.5 2.5-.45 0-.71-.29-.84-.56h-.02v2.4h-.77v-5.25zm.77 1.55c0 .15 0 .3.03.4.14.7.5.82.7.82.65 0 .84-.88.84-1.86 0-1-.24-1.84-.85-1.84-.35 0-.66.44-.7.88-.03.12-.03.24-.03.37v1.23zm6.2-.64c0 1.87-.87 2.5-1.61 2.5-.87 0-1.57-.79-1.57-2.48 0-1.77.79-2.51 1.62-2.51.85 0 1.56.8 1.56 2.5zm-2.41 0c0 .8.14 1.9.84 1.9.65 0 .78-1.15.78-1.9 0-.73-.13-1.87-.8-1.87-.7 0-.82 1.13-.82 1.87zm3.27-1.17c0-.56-.03-.85-.04-1.24h.67l.04.58h.02c.2-.4.6-.66 1.1-.66.68 0 1.18.5 1.18 1.67v3.24h-.77v-3.11c0-.57-.11-1.15-.67-1.15-.32 0-.63.27-.73.79a2.6 2.6 0 0 0-.03.43v3.04h-.77v-3.59zm3.92 2.79c.17.11.47.25.78.25.43 0 .7-.27.7-.7 0-.37-.13-.62-.61-.95-.63-.4-.97-.81-.97-1.37 0-.78.58-1.34 1.33-1.34.37 0 .66.13.86.25l-.2.58a1.14 1.14 0 0 0-.64-.21.6.6 0 0 0-.63.6c0 .33.12.51.6.84.56.36 1 .8 1 1.47 0 .97-.66 1.44-1.45 1.44-.36 0-.75-.1-.96-.28l.19-.58zm3.56-1.55c0 1.48.59 1.8 1.14 1.8.33 0 .61-.08.8-.19l.12.57c-.27.15-.68.23-1.06.23-1.15 0-1.75-.95-1.75-2.43 0-1.56.65-2.54 1.62-2.54 1 0 1.38 1.03 1.38 2.13v.43h-2.25zm1.51-.56c.03-.97-.35-1.4-.72-1.4-.5 0-.76.74-.78 1.4h1.5z"/><path fill="none" stroke="#0071bc" stroke-linejoin="round" d="M329.94 75.17c7.57 2.6-2.73 16.23 4.4 18.27-7.12 2.03 3.17 15.65-4.4 18.27"/><path d="M342.63 141.75h-2.8v1.6h2.8v1.07h-6.74v-1.07h2.97v-1.6h-2.97v-1.07h6.74v1.07zm-.98 4.6v-1.2h.98v3.48h-.98v-1.2h-5.76v-1.08h5.76zm0 3.88v-1.2h.98v3.48h-.98v-1.2h-5.76v-1.08h5.76zm.88 3.01c.08.34.13.78.13 1.25 0 .71-.13 1.3-.51 1.69-.34.36-.86.54-1.44.54-.68 0-1.14-.19-1.5-.5-.47-.4-.7-1.05-.7-1.62l.01-.3h-2.63v-1.06h6.64zm-3.13 1.06c-.02.08-.02.15-.02.26 0 .7.48 1.09 1.25 1.09.63 0 1.16-.26 1.16-.98 0-.15-.02-.28-.05-.37h-2.34zm-.6 8.3h-.6v-2.2h.6v2.2zm2.8 3.74v-.02l-.61-1.08.6-.15.8 1.37v.64h-6.5v-.76h5.72zm0 3.86v-.03l-.61-1.08.6-.15.8 1.37v.64h-6.5v-.76h5.72zm.22 5.15a3.46 3.46 0 0 0-.07-.46c-.26-1.08-1.34-1.5-2.34-1.67v.03c.37.25.62.61.62 1.1 0 .83-.76 1.4-2 1.4-1.23 0-2.22-.56-2.22-1.6 0-1.13 1.15-1.7 2.64-1.7 1.26 0 2.24.33 2.93.84.55.4.9 1.01 1.03 1.57.04.21.05.38.06.5h-.65zm-3.85-.37c.98 0 1.47-.34 1.47-.87 0-.32-.22-.65-.7-.84-.07-.03-.2-.06-.39-.06-1.33.01-1.94.42-1.94.94 0 .44.43.83 1.56.83zm1.51 3.14c.57 0 .86-.03 1.25-.04v.67l-.6.04v.02c.39.21.68.58.68 1.1 0 .44-.22.82-.74 1v.02c.24.13.43.3.55.48.13.19.19.42.19.67 0 .65-.48 1.16-1.71 1.16h-3.2v-.76h3.02c.63 0 1.24-.1 1.24-.68 0-.32-.27-.6-.72-.71a2.93 2.93 0 0 0-.44-.03h-3.1v-.76h3.16c.54 0 1.1-.1 1.1-.67 0-.3-.27-.63-.78-.72a2.78 2.78 0 0 0-.42-.03h-3.07v-.76h3.59zm-2.79 6.08c-.11.16-.25.46-.25.77 0 .44.27.71.7.71.37 0 .62-.13.95-.62.4-.63.82-.97 1.38-.97.78 0 1.34.58 1.34 1.33 0 .38-.13.67-.25.87l-.58-.2c.12-.19.2-.4.2-.65a.6.6 0 0 0-.6-.63c-.33 0-.51.12-.84.6-.36.56-.8 1-1.47 1-.97 0-1.44-.66-1.44-1.45 0-.36.11-.75.28-.96l.58.2z"/><path fill="none" stroke="#009245" stroke-linejoin="round" d="M329.94 115.17c7.57 6.9-2.73 42.84 4.4 48.21-7.12 5.37 3.17 41.32-4.4 48.22"/><path fill="#f7931e" fill-rule="evenodd" d="M231.71 137.58h8.3v30.69h-8.3z" clip-rule="evenodd"/><path fill="none" stroke="#000" stroke-linecap="round" stroke-linejoin="round" d="M231.71 137.58h8.3v30.69h-8.3z"/><path d="M155.21 154.64c.14.08.38.2.62.2.36 0 .57-.22.57-.56 0-.3-.1-.5-.5-.76-.5-.33-.77-.66-.77-1.1 0-.63.46-1.08 1.06-1.08.3 0 .54.1.7.2l-.17.46a.91.91 0 0 0-.51-.16c-.34 0-.5.24-.5.48 0 .27.1.41.47.68.45.28.8.64.8 1.17 0 .78-.52 1.15-1.15 1.15-.3 0-.6-.09-.77-.22l.15-.46zm2.85-1.24c0 1.18.47 1.43.92 1.43.26 0 .48-.06.64-.15l.1.46a1.9 1.9 0 0 1-.85.18c-.93 0-1.41-.76-1.41-1.94 0-1.26.53-2.04 1.3-2.04.8 0 1.1.83 1.1 1.71v.35h-1.8zm1.21-.46c.02-.78-.28-1.12-.57-1.12-.4 0-.61.6-.63 1.12h1.2zm1.25-.54l-.03-1h.55l.03.61h.02c.13-.36.46-.67.81-.67h.13v.64h-.13c-.39 0-.68.35-.74.8-.02.1-.02.23-.02.35v2.15h-.62v-2.88zm2.51-1l.5 2.18.16.94h.02c.04-.32.1-.64.16-.94l.48-2.17h.61l-1 3.87h-.56l-1-3.87h.63zm2.79 2c.01 1.18.48 1.43.92 1.43.27 0 .5-.06.64-.15l.1.46c-.22.12-.54.18-.85.18-.92 0-1.4-.76-1.4-1.94 0-1.26.52-2.04 1.3-2.04.8 0 1.1.83 1.1 1.71v.35h-1.8zm1.22-.46c.02-.78-.28-1.12-.57-1.12-.4 0-.61.6-.64 1.12h1.21zm1.25-.54l-.03-1h.55l.03.61h.02c.13-.36.45-.67.81-.67h.13v.64h-.13c-.39 0-.68.35-.74.8-.02.1-.03.23-.03.35v2.15h-.61v-2.88zm3.24.21c0-.59-.03-.93-.03-1.2h.55l.03.5h.02c.2-.42.5-.57.81-.57.67 0 1.12.72 1.12 2 0 1.42-.59 2-1.2 2a.73.73 0 0 1-.67-.45h-.01v1.92h-.62v-4.2zm.62 1.24c0 .12 0 .23.02.32.12.55.4.66.57.66.5 0 .67-.7.67-1.49 0-.8-.2-1.47-.68-1.47-.28 0-.53.35-.57.7l-.01.3v.98zm2.57-1.45l-.03-1h.55l.03.61h.02c.13-.36.45-.67.81-.67h.13v.64h-.13c-.39 0-.68.35-.74.8-.02.1-.02.23-.02.35v2.15h-.62v-2.88zm4.26.94c0 1.5-.7 2-1.3 2-.69 0-1.25-.63-1.25-2 0-1.4.64-2 1.3-2 .69 0 1.25.65 1.25 2zm-1.93 0c0 .64.11 1.51.67 1.51.53 0 .63-.9.63-1.5s-.1-1.51-.64-1.51c-.56 0-.66.9-.66 1.5zm4.5 1.84c-.13.08-.37.14-.64.14-.85 0-1.41-.68-1.41-1.95 0-1.12.56-2.02 1.52-2.02.21 0 .44.06.55.12l-.12.5a1 1 0 0 0-.44-.1c-.62 0-.9.73-.9 1.5 0 .9.35 1.44.91 1.44.17 0 .3-.04.45-.1l.08.47zm.92-1.78c0 1.18.47 1.43.92 1.43.26 0 .48-.06.64-.15l.1.46c-.23.12-.55.18-.86.18-.93 0-1.4-.76-1.4-1.94 0-1.26.52-2.04 1.3-2.04.8 0 1.1.83 1.1 1.71v.35h-1.8zm1.21-.46c.02-.78-.28-1.12-.57-1.12-.4 0-.61.6-.64 1.12h1.21zm1.15 1.7c.14.08.38.2.63.2.35 0 .56-.22.56-.56 0-.3-.1-.5-.5-.76-.5-.33-.77-.66-.77-1.1 0-.63.47-1.08 1.07-1.08.3 0 .53.1.7.2l-.18.46a.91.91 0 0 0-.5-.16c-.35 0-.51.24-.51.48 0 .27.1.41.48.68.44.28.8.64.8 1.17 0 .78-.53 1.15-1.16 1.15-.29 0-.6-.09-.77-.22l.15-.46zm2.32 0c.13.08.37.2.62.2.35 0 .57-.22.57-.56 0-.3-.1-.5-.5-.76-.5-.33-.77-.66-.77-1.1 0-.63.46-1.08 1.06-1.08.3 0 .53.1.7.2l-.17.46a.91.91 0 0 0-.52-.16c-.33 0-.5.24-.5.48 0 .27.1.41.48.68.45.28.8.64.8 1.17 0 .78-.53 1.15-1.16 1.15-.29 0-.6-.09-.77-.22l.16-.46zm3.07-4.24c.01.25-.14.4-.37.4-.2 0-.35-.16-.35-.4 0-.23.16-.4.36-.4.22 0 .36.17.36.4zm-.66 4.88v-3.87h.62v3.87h-.62zm1.47-2.88c0-.45-.02-.68-.03-1h.54l.03.47h.01a.98.98 0 0 1 .9-.53c.53 0 .93.4.93 1.34v2.6h-.62v-2.5c0-.45-.09-.92-.53-.92-.26 0-.5.22-.59.63l-.02.35v2.44h-.62v-2.88zm5.61-1c0 .28-.03.62-.03 1.21v2.17c0 1.01-.13 1.4-.39 1.68-.23.26-.6.41-1.03.41-.32 0-.64-.08-.84-.19l.14-.48c.15.08.4.17.72.17.49 0 .8-.3.8-1.18v-.4h-.03a.79.79 0 0 1-.74.48c-.69 0-1.13-.78-1.13-1.91 0-1.43.64-2.02 1.21-2.02.42 0 .6.27.72.5h.02l.03-.43h.55zm-.64 1.34c0-.1 0-.2-.03-.28-.07-.26-.2-.6-.56-.6-.45 0-.69.6-.69 1.46 0 1 .31 1.44.69 1.44.18 0 .42-.08.55-.55.03-.12.04-.24.04-.35v-1.12zm1.43-.78c0-.27.18-.46.4-.46.25 0 .4.19.4.46 0 .26-.14.44-.4.44-.23 0-.4-.18-.4-.44zm0 2.93c0-.26.18-.45.4-.45.25 0 .4.18.4.45s-.14.45-.4.45c-.23 0-.4-.19-.4-.45zm4.28.39v-1.44h-1.73v-.41l1.7-3.35h.6v3.26h.56v.5h-.57v1.44h-.56zm0-1.94v-1.47c0-.36.02-.68.05-1.02h-.03l-.44.98-.72 1.5v.01h1.14zm4.07-.67c0 1.9-.6 2.67-1.35 2.67-.8 0-1.3-.96-1.3-2.66 0-1.75.53-2.67 1.37-2.67.84 0 1.28 1 1.28 2.66zm-2.03 0c0 1.26.22 2.14.73 2.14.49 0 .69-.89.69-2.13 0-1.22-.2-2.14-.7-2.14-.5 0-.72.89-.72 2.14zm6.11-1.65v1.9h1.84v.44h-1.84v1.91h-.45v-1.91h-1.83v-.44h1.83v-1.9h.45zm3.68 4.26v-.4l.44-.6c.61-.86 1.35-1.83 1.35-2.81 0-.58-.26-.93-.75-.93-.37 0-.61.2-.75.29l-.15-.46c.19-.16.55-.36 1.02-.36.86 0 1.24.64 1.24 1.43 0 .97-.64 1.92-1.28 2.8l-.35.47v.02h1.73v.54h-2.5zm5.68-2.61c0 1.9-.6 2.67-1.35 2.67-.8 0-1.3-.96-1.3-2.66 0-1.75.53-2.67 1.37-2.67.84 0 1.28 1 1.28 2.66zm-2.03 0c0 1.26.22 2.14.73 2.14.49 0 .69-.89.69-2.13 0-1.22-.2-2.14-.7-2.14-.5 0-.72.89-.72 2.14zm3.94-.27c0-.45-.03-.68-.03-1h.53l.03.48h.02a.97.97 0 0 1 .87-.54.8.8 0 0 1 .81.6h.02c.1-.2.24-.35.38-.45.15-.1.34-.15.54-.15.52 0 .92.39.92 1.37v2.56h-.6v-2.42c0-.5-.08-.99-.55-.99-.25 0-.48.22-.56.58-.02.1-.03.22-.03.35v2.48h-.6v-2.53c0-.43-.09-.88-.54-.88-.25 0-.5.22-.58.62l-.02.34v2.45h-.6v-2.87zm4.86 2.24c.13.08.37.2.62.2.35 0 .57-.22.57-.56 0-.3-.1-.5-.5-.76-.5-.33-.78-.66-.78-1.1 0-.63.47-1.08 1.07-1.08.3 0 .53.1.7.2l-.18.46a.91.91 0 0 0-.5-.16c-.34 0-.51.24-.51.48 0 .27.1.41.48.68.45.28.8.64.8 1.17 0 .78-.53 1.15-1.16 1.15-.29 0-.6-.09-.77-.22l.16-.46zm13.37 51.67h-.02l-.86.5-.12-.48 1.1-.64h.5v5.2h-.6v-4.58zm4.37-.62v.37l-1.68 4.82h-.6l1.65-4.63v-.02h-1.87v-.54h2.5zm.54 5.19v-.4l.44-.6c.61-.85 1.35-1.83 1.35-2.8 0-.58-.25-.93-.74-.93-.38 0-.62.2-.75.29l-.16-.47c.19-.15.55-.35 1.02-.35.86 0 1.24.64 1.24 1.43 0 .97-.64 1.91-1.28 2.8l-.35.47v.02h1.73v.54h-2.5zm4.51-2.87c0-.45-.02-.68-.03-1h.54l.03.48h.01a.97.97 0 0 1 .87-.54c.37 0 .67.18.81.6h.02c.1-.2.24-.35.38-.45.15-.1.34-.15.54-.15.52 0 .93.39.93 1.37v2.56h-.61v-2.42c0-.5-.07-.99-.55-.99-.25 0-.47.22-.56.57-.02.1-.03.23-.03.36v2.48h-.6v-2.53c0-.43-.08-.88-.54-.88-.25 0-.5.22-.57.62-.02.1-.03.22-.03.34v2.45h-.6v-2.87zm4.86 2.23c.14.1.37.2.62.2.35 0 .57-.21.57-.56 0-.3-.1-.5-.5-.76-.5-.32-.77-.65-.77-1.1 0-.62.46-1.07 1.06-1.07.3 0 .54.1.7.2l-.17.46a.91.91 0 0 0-.51-.17c-.34 0-.5.24-.5.5s.09.4.47.66c.45.3.8.64.8 1.18 0 .77-.52 1.15-1.16 1.15-.28 0-.6-.09-.77-.22l.16-.47zM16.41 211.3c-.18.07-.46.13-.79.13-.97 0-1.32-.79-1.32-1.73 0-1.4.83-3.24 2.41-3.24.21 0 .38.03.48.08l-.19.62c-.1-.03-.2-.07-.36-.07-1 0-1.6 1.44-1.6 2.53 0 .71.21 1.2.77 1.2.2 0 .4-.06.6-.13v.6zm.6.07l1.3-6.91h.73l-1.32 6.91h-.7zm5.2-3.34c0 1.22-.6 3.42-2.08 3.42-.9 0-1.18-.78-1.18-1.64 0-1.3.7-3.35 2.14-3.35.97 0 1.12.92 1.12 1.57zm-2.53 1.71c0 .55.04 1.12.55 1.12.88 0 1.25-2.06 1.25-2.88 0-.5-.09-.92-.5-.92-.8 0-1.3 1.73-1.3 2.68zm2.83.88c.15.1.4.23.75.23.5 0 .78-.36.78-.82 0-.43-.2-.69-.49-.94-.33-.3-.63-.72-.63-1.18 0-.81.6-1.45 1.51-1.45.32 0 .6.08.75.18l-.2.55a1.22 1.22 0 0 0-.56-.14c-.5 0-.78.32-.78.74 0 .38.22.6.45.81.38.33.68.78.68 1.27 0 1.04-.68 1.56-1.58 1.56-.38 0-.75-.15-.9-.26l.22-.55zm5.46.51c-.35.2-.72.3-1.14.3-1.02 0-1.35-.78-1.35-1.7 0-1.32.73-3.27 2.11-3.27.71 0 1 .53 1 1.1 0 1.16-1.04 1.66-2.36 1.67-.02.14-.05.68.03.97.11.41.36.63.74.63s.64-.13.86-.26l.11.56zm-.49-4.06c-.43 0-.89.53-1.15 1.58.77 0 1.58-.27 1.58-1.05 0-.34-.14-.53-.43-.53zm4.96 4.23c-.18.07-.46.13-.79.13-.97 0-1.32-.79-1.32-1.73 0-1.4.83-3.24 2.41-3.24.21 0 .38.03.48.08l-.19.62c-.1-.03-.2-.07-.36-.07-1 0-1.6 1.44-1.6 2.53 0 .71.21 1.2.77 1.2.2 0 .4-.06.6-.13v.6zm3.86-3.27c0 1.22-.6 3.42-2.08 3.42-.9 0-1.18-.78-1.18-1.64 0-1.3.7-3.35 2.14-3.35.97 0 1.12.92 1.12 1.57zm-2.53 1.71c0 .55.04 1.12.55 1.12.88 0 1.25-2.06 1.25-2.88 0-.5-.09-.92-.5-.92-.8 0-1.3 1.73-1.3 2.68zm2.81 1.63l.6-3.18c.13-.7.2-1.27.25-1.65h.63l-.08.77H38c.4-.6.81-.85 1.3-.85.6 0 .83.47.83.98 0 .27-.04.5-.09.78l-.59 3.15h-.72l.6-3.14c.03-.22.06-.42.06-.67 0-.29-.12-.49-.42-.49-.45 0-.99.7-1.17 1.61l-.5 2.7h-.72zm3.93 0l.6-3.18c.13-.7.2-1.27.25-1.65H42l-.08.77h.02c.4-.6.81-.85 1.3-.85.6 0 .83.47.83.98 0 .27-.04.5-.09.78l-.59 3.15h-.72l.6-3.14c.03-.22.06-.42.06-.67 0-.29-.12-.49-.42-.49-.45 0-.99.7-1.17 1.61l-.5 2.7h-.72zm6.59-.24c-.35.2-.72.3-1.14.3-1.02 0-1.35-.78-1.35-1.7 0-1.32.73-3.27 2.11-3.27.71 0 1 .53 1 1.1 0 1.16-1.04 1.66-2.36 1.67-.02.14-.05.68.03.97.11.41.36.63.74.63s.64-.13.86-.26l.11.56zm-.49-4.06c-.43 0-.89.53-1.15 1.58.77 0 1.58-.27 1.58-1.05 0-.34-.14-.53-.43-.53zm3.49 4.23c-.18.07-.46.13-.79.13-.97 0-1.32-.79-1.32-1.73 0-1.4.83-3.24 2.41-3.24.21 0 .38.03.48.08l-.19.62c-.1-.03-.2-.07-.36-.07-1 0-1.6 1.44-1.6 2.53 0 .71.21 1.2.77 1.2.2 0 .4-.06.6-.13v.6zm2.72-6.03l-.26 1.27h.92l-.11.56h-.91l-.52 2.75c-.05.26-.07.48-.07.61 0 .24.09.37.33.37.13 0 .2 0 .3-.02l-.06.56c-.17.05-.36.07-.52.07-.51 0-.81-.3-.81-.78 0-.19.02-.39.1-.78l.53-2.78h-.58l.1-.56h.59l.2-1.05.77-.22zm.4 6.1l.92-4.83h.72l-.93 4.83h-.7zm1.1-6.06c0-.26.2-.51.47-.51.28 0 .41.2.4.47-.03.33-.25.5-.5.5s-.4-.19-.38-.46zm4.1 2.72c0 1.22-.6 3.42-2.08 3.42-.9 0-1.18-.78-1.18-1.64 0-1.3.7-3.35 2.14-3.35.97 0 1.12.92 1.12 1.57zm-2.53 1.71c0 .55.04 1.12.55 1.12.88 0 1.25-2.06 1.25-2.88 0-.5-.09-.92-.51-.92-.8 0-1.29 1.73-1.29 2.68zm2.81 1.63l.6-3.18c.13-.7.2-1.27.25-1.65h.63l-.08.77h.02c.4-.6.81-.85 1.3-.85.6 0 .83.47.83.98 0 .27-.04.5-.09.78l-.59 3.15h-.72l.59-3.14c.04-.22.07-.42.07-.67 0-.29-.12-.49-.42-.49-.45 0-.99.7-1.17 1.61l-.5 2.7h-.72zm216.51-22.12c-.2.11-.54.18-.96.18-1.32 0-2.26-1.06-2.26-3.35 0-2.65 1.32-3.5 2.38-3.5.41 0 .7.08.84.17l-.17.64a1.47 1.47 0 0 0-.68-.14c-.72 0-1.56.7-1.56 2.76 0 2.06.76 2.74 1.58 2.74.29 0 .55-.07.71-.15l.12.65zm.64-.77c.23.15.63.27.97.27.7 0 1.12-.46 1.12-1.14 0-.62-.36-1-.89-1.4-.53-.37-1.27-1-1.27-1.86a1.7 1.7 0 0 1 1.78-1.77c.42 0 .79.13.95.25l-.19.66a1.4 1.4 0 0 0-.8-.23c-.66 0-.97.5-.97.96 0 .67.35.93 1 1.39.8.56 1.16 1.18 1.16 1.93a1.8 1.8 0 0 1-1.89 1.9c-.46 0-.95-.16-1.14-.3l.17-.66zm3.61 0c.23.15.63.27.97.27.7 0 1.12-.46 1.12-1.14 0-.62-.36-1-.89-1.4-.53-.37-1.27-1-1.27-1.86a1.7 1.7 0 0 1 1.78-1.77c.42 0 .79.13.95.25l-.19.66a1.4 1.4 0 0 0-.8-.23c-.66 0-.97.5-.97.96 0 .67.35.93.99 1.39.81.56 1.17 1.18 1.17 1.93a1.8 1.8 0 0 1-1.89 1.9c-.46 0-.95-.16-1.14-.3l.17-.66zm5.26-2.7c0-.4-.03-.89-.04-1.24h.7l.03.76h.02c.16-.46.57-.84 1.02-.84h.16v.8c-.05-.02-.1-.02-.16-.02-.49 0-.85.45-.93 1.01a2.8 2.8 0 0 0-.03.44v2.68h-.77v-3.59zm2.89 1.24c.01 1.48.6 1.8 1.15 1.8.33 0 .6-.08.8-.19l.12.57c-.27.15-.68.23-1.06.23-1.16 0-1.76-.95-1.76-2.43 0-1.56.66-2.54 1.63-2.54.99 0 1.38 1.03 1.38 2.13l-.01.43h-2.25zm1.52-.56c.02-.97-.35-1.4-.72-1.4-.5 0-.76.74-.79 1.4h1.51zm1.44 2.11c.17.11.47.25.78.25.44 0 .71-.27.71-.7 0-.37-.13-.62-.62-.95-.63-.4-.97-.81-.97-1.37 0-.78.58-1.34 1.33-1.34.38 0 .67.13.87.25l-.21.58a1.14 1.14 0 0 0-.64-.21.6.6 0 0 0-.63.6c0 .33.12.51.6.84.56.36 1 .8 1 1.47 0 .97-.66 1.44-1.45 1.44-.36 0-.75-.1-.96-.28l.2-.58zm3.01-2.53c0-.73-.03-1.16-.04-1.5h.7l.03.61h.02c.26-.52.64-.7 1.02-.7.84 0 1.4.9 1.4 2.5 0 1.78-.74 2.5-1.5 2.5-.45 0-.7-.29-.84-.56h-.02v2.4h-.77v-5.25zm.77 1.55c0 .15 0 .3.03.4.15.7.5.82.71.82.64 0 .84-.88.84-1.86 0-1-.24-1.84-.85-1.84-.35 0-.66.44-.7.88-.03.12-.03.24-.03.37v1.23zm6.2-.64c0 1.87-.87 2.5-1.6 2.5-.88 0-1.58-.79-1.58-2.48 0-1.77.8-2.51 1.62-2.51.86 0 1.56.8 1.56 2.5zm-2.4 0c0 .8.13 1.9.83 1.9.66 0 .8-1.15.8-1.9 0-.73-.14-1.87-.82-1.87-.69 0-.82 1.13-.82 1.87zm3.26-1.17c0-.56-.03-.85-.04-1.24h.67l.04.58h.02c.21-.4.6-.66 1.11-.66.67 0 1.17.5 1.17 1.67v3.24h-.77v-3.11c0-.57-.11-1.15-.67-1.15-.32 0-.63.27-.73.79-.02.12-.03.27-.03.43v3.04h-.77v-3.59zm3.92 2.79c.17.11.47.25.78.25.44 0 .71-.27.71-.7 0-.37-.13-.62-.62-.95-.63-.4-.97-.81-.97-1.37 0-.78.58-1.34 1.33-1.34.38 0 .67.13.87.25l-.21.58a1.13 1.13 0 0 0-.64-.21.6.6 0 0 0-.63.6c0 .33.12.51.6.84.56.36 1 .8 1 1.47 0 .97-.66 1.44-1.45 1.44-.36 0-.75-.1-.96-.28l.2-.58zm3.57-1.55c0 1.48.58 1.8 1.14 1.8.33 0 .6-.08.8-.19l.12.57c-.27.15-.68.23-1.06.23-1.16 0-1.76-.95-1.76-2.43 0-1.56.66-2.54 1.63-2.54.99 0 1.38 1.03 1.38 2.13l-.01.43h-2.25zm1.5-.56c.03-.97-.34-1.4-.71-1.4-.5 0-.76.74-.79 1.4h1.5z"/><path fill="#f7931e" fill-rule="evenodd" d="M231.71 168.27h8.3v17.69h-8.3z" clip-rule="evenodd"/><path fill="none" stroke="#000" stroke-linecap="round" stroke-linejoin="round" d="M231.71 168.27h8.3v17.69h-8.3z"/></svg>