<svg xmlns="http://www.w3.org/2000/svg" viewBox="0 0 328.625 100.963"><path fill="none" stroke="#999" stroke-width=".5" stroke-miterlimit="10" d="M35.125 69.514h293.5m-293.5-18.875h293.5m-293.5-18.875h293.5m-293.5-18.25h293.5m-281 74.25v-74.25m52 74.25v-74.25m52 74.25v-74.25m52 74.25v-74.25m52 74.25v-74.25m52 74.25v-74.25"/><path fill="none" stroke="#000" stroke-miterlimit="10" d="M35.125 13.514v74.25h293.5"/><circle cx="47.201" cy="78.09" r="2.424" fill="#0071bc" fill-rule="evenodd" clip-rule="evenodd"/><circle cx="99.625" cy="69.514" r="2.424" fill="#0071bc" fill-rule="evenodd" clip-rule="evenodd"/><circle cx="151.625" cy="61.014" r="2.424" fill="#0071bc" fill-rule="evenodd" clip-rule="evenodd"/><circle cx="203.625" cy="50.389" r="2.424" fill="#0071bc" fill-rule="evenodd" clip-rule="evenodd"/><circle cx="307.625" cy="24.264" r="2.424" fill="#0071bc" fill-rule="evenodd" clip-rule="evenodd"/><path fill="none" stroke="#c1272d" stroke-miterlimit="10" d="M47.625 50.389l52-4.125 52-4 52-2.25 52 .924 52 2.326" clip-rule="evenodd"/><circle cx="47.201" cy="50.389" r="2.424" fill="#c1272d" fill-rule="evenodd" clip-rule="evenodd"/><circle cx="99.625" cy="46.264" r="2.424" fill="#c1272d" fill-rule="evenodd" clip-rule="evenodd"/><circle cx="151.625" cy="42.264" r="2.424" fill="#c1272d" fill-rule="evenodd" clip-rule="evenodd"/><circle cx="203.625" cy="40.014" r="2.424" fill="#c1272d" fill-rule="evenodd" clip-rule="evenodd"/><circle cx="255.625" cy="40.939" r="2.424" fill="#c1272d" fill-rule="evenodd" clip-rule="evenodd"/><circle cx="307.625" cy="43.264" r="2.424" fill="#c1272d" fill-rule="evenodd" clip-rule="evenodd"/><circle cx="255.625" cy="38.514" r="2.424" fill="#0071bc" fill-rule="evenodd" clip-rule="evenodd"/><path fill="#0071bc" d="M240.434 23.48h.693v5.482h1.71v.585h-2.403V23.48zm3.204.621h-1.107v-.621h2.907v.621h-1.107v5.446h-.692v-5.446zm4.689 2.566h-1.521v2.277h1.729v.604h-2.422V23.48h2.313v.603h-1.62v1.999h1.521v.585zm6.615.747l-4.177 2.134v-.594l3.601-1.792v-.018l-3.601-1.792v-.594l4.177 2.133v.523zm3.24-3.934v2.602h1.701V23.48h.693v6.067h-.693v-2.836h-1.701v2.836h-.693V23.48h.693zm3.338 5.267c.207.135.567.242.873.242.631 0 1.009-.414 1.009-1.026 0-.558-.324-.899-.802-1.26-.477-.333-1.143-.9-1.143-1.684 0-.918.639-1.594 1.602-1.594.379 0 .712.117.855.226l-.17.594a1.282 1.282 0 0 0-.721-.207c-.594 0-.873.45-.873.864 0 .604.314.837.891 1.252.729.513 1.054 1.071 1.054 1.746 0 1.044-.738 1.701-1.702 1.701-.414 0-.854-.135-1.025-.261l.152-.593zm3.384-5.177a4.022 4.022 0 0 1 1.008-.117c.559 0 1.026.135 1.342.45.297.288.449.729.449 1.251 0 .559-.135.937-.369 1.242-.332.45-.891.676-1.431.676-.117 0-.207 0-.306-.009v2.484h-.693V23.57zm.694 2.907c.08.019.152.027.27.027.684 0 1.144-.45 1.144-1.306 0-.621-.261-1.179-1.026-1.179-.162 0-.297.018-.387.045v2.413zm3.113 1.252l-.404 1.818h-.666l1.386-6.067h.765l1.352 6.067h-.685l-.405-1.818h-1.343zm1.252-.559l-.315-1.539c-.09-.433-.171-.937-.243-1.387h-.035c-.072.459-.162.981-.244 1.387l-.314 1.539h1.151z"/><path d="M5.472 82.85c-.89.051-1.879.1-2.639.07v.04c.75.149 1.549.329 2.339.54l3.158.83v.489l-3.028.79c-.859.22-1.689.42-2.469.55v.029c.79 0 1.729.041 2.688.08l2.849.131v.689l-6.736-.4v-.829l3.078-.79c.89-.229 1.55-.399 2.319-.539v-.03c-.77-.13-1.409-.28-2.319-.499l-3.078-.76v-.859l6.736-.391v.72l-2.898.139zm-3.189-2.711c.3-.011.5.18.5.469 0 .25-.2.439-.5.439s-.499-.199-.499-.449c0-.279.199-.459.499-.459zm6.087.829H3.533v-.77H8.37v.77zm-6.916-1.84v-.77H8.37v.77H1.454zm0-1.909v-.77H8.37v.77H1.454zm.829-2.74c.3-.01.5.18.5.47 0 .25-.2.439-.5.439s-.499-.2-.499-.45c0-.279.199-.459.499-.459zm6.087.83H3.533v-.77H8.37v.77zM5.951 70.5c1.869 0 2.499.87 2.499 1.61 0 .869-.79 1.568-2.488 1.568-1.77 0-2.509-.789-2.509-1.619 0-.859.81-1.559 2.498-1.559zm0 2.409c.8 0 1.89-.14 1.89-.84 0-.659-1.14-.789-1.89-.789-.739 0-1.879.13-1.879.81 0 .689 1.14.819 1.879.819zm-1.169-3.27c-.569 0-.859.03-1.249.04v-.67l.579-.04v-.02c-.39-.21-.659-.6-.659-1.109 0-.669.499-1.169 1.669-1.169H8.37v.77H5.252c-.569 0-1.149.11-1.149.669 0 .32.27.629.789.729.12.02.271.03.431.03H8.37v.77H4.782zm2.788-3.92c.11-.17.25-.47.25-.78 0-.439-.27-.709-.699-.709-.37 0-.62.13-.95.62-.409.63-.819.969-1.379.969-.779 0-1.339-.58-1.339-1.329 0-.38.13-.669.25-.87l.579.21c-.12.18-.21.39-.21.64 0 .42.3.63.61.63.329 0 .509-.12.839-.6.36-.56.8-1 1.47-1 .969 0 1.438.66 1.438 1.449 0 .36-.109.75-.279.959l-.58-.189zM5.951 58.16c1.869 0 2.499.87 2.499 1.609 0 .87-.79 1.569-2.488 1.569-1.77 0-2.509-.79-2.509-1.619 0-.859.81-1.559 2.498-1.559zm0 2.409c.8 0 1.89-.14 1.89-.839 0-.66-1.14-.79-1.89-.79-.739 0-1.879.13-1.879.81 0 .689 1.14.819 1.879.819zm2.419-3.43H4.122v.61h-.589v-.61h-.29c-.52 0-1.06-.08-1.459-.43-.311-.28-.41-.669-.41-.969 0-.26.05-.46.12-.6l.6.13c-.04.09-.08.22-.08.419 0 .55.59.68 1.22.68h.3v-.879h.589v.879H8.37v.77zm-.8-3.56c.11-.17.25-.47.25-.78 0-.439-.27-.709-.699-.709-.37 0-.62.13-.95.62-.409.63-.819.969-1.379.969-.779 0-1.339-.58-1.339-1.329 0-.38.13-.669.25-.87l.579.21c-.12.18-.21.39-.21.64 0 .42.3.63.61.63.329 0 .509-.12.839-.6.36-.56.8-1 1.47-1 .969 0 1.438.66 1.438 1.449 0 .36-.109.75-.279.959l-.58-.189zm-.519-5.918c.54 0 .96-.03 1.319-.04v.669l-.51.05v.02c.24.15.59.52.59 1.039 0 .85-.66 1.18-1.859 1.18H3.533v-.77h2.948c.76 0 1.319-.12 1.319-.65 0-.45-.42-.649-.64-.689-.13-.03-.28-.04-.44-.04H3.533v-.77h3.518zm1.319-1.032c-.28-.01-.829-.04-1.159-.04H1.454v-.77h2.648v-.02c-.479-.25-.649-.609-.649-1.02 0-.75.869-1.319 2.448-1.319 1.749 0 2.549.72 2.549 1.469 0 .51-.3.77-.71.959v.03l.63.05v.661zm-1.709-.81c.11 0 .22 0 .3-.03.72-.18.85-.51.85-.72 0-.62-.84-.839-1.869-.839-.97 0-1.829.229-1.829.849 0 .36.45.66.859.72.11.02.23.02.34.02h1.349zm.909-3.1c.11-.17.25-.47.25-.78 0-.439-.27-.709-.699-.709-.37 0-.62.13-.95.62-.409.63-.819.969-1.379.969-.779 0-1.339-.58-1.339-1.329 0-.38.13-.669.25-.87l.579.21c-.12.18-.21.39-.21.64 0 .42.3.63.61.63.329 0 .509-.12.839-.6.36-.56.8-1 1.47-1 .969 0 1.438.66 1.438 1.449 0 .36-.109.75-.279.959l-.58-.189zm.68-5.379c.101.17.18.46.18.8 0 1.059-.85 1.769-2.448 1.769-1.39 0-2.519-.7-2.519-1.909 0-.26.07-.54.149-.68l.63.15c-.05.1-.13.3-.13.55 0 .77.92 1.119 1.869 1.119 1.129 0 1.809-.43 1.809-1.139 0-.21-.05-.38-.13-.56l.59-.1zm-3.468-.651c-.41 0-.89.03-1.249.04v-.689l.759-.04v-.02c-.459-.16-.839-.57-.839-1.02 0-.06.01-.11.01-.16h.789c-.01.05-.01.1-.01.16 0 .49.45.85 1.01.93.13.02.279.03.439.03H8.37v.77H4.782zM2.283 33.37c.3-.01.5.18.5.47 0 .25-.2.439-.5.439s-.499-.2-.499-.45c0-.279.199-.459.499-.459zm6.087.83H3.533v-.77H8.37v.77zm-3.328-1.83c-.739 0-1.169.03-1.509.04v-.69l.619-.04v-.02c-.52-.26-.699-.64-.699-1.02 0-.839.899-1.399 2.488-1.399 1.789 0 2.509.74 2.509 1.5 0 .45-.29.709-.56.839v.02h2.398v.77H5.042zm1.549-.77c.15 0 .29 0 .4-.03.689-.15.819-.5.819-.71 0-.64-.88-.839-1.859-.839-.999 0-1.839.24-1.839.85 0 .35.439.66.88.709.12.02.239.02.369.02h1.23zm-4.337-4.169h1.279v-.93h.589v.93h2.869c.629 0 .799-.23.799-.51 0-.12-.01-.22-.029-.31l.59-.03c.05.14.079.32.079.57 0 .3-.079.569-.289.759-.221.19-.55.29-1.22.29H4.122v.589h-.589V28.2h-1.06l-.219-.769zm.029-2.44c.3-.01.5.18.5.47 0 .25-.2.439-.5.439s-.499-.2-.499-.45c0-.28.199-.459.499-.459zm6.087.829H3.533v-.77H8.37v.77zm-2.419-4.809c1.869 0 2.499.87 2.499 1.609 0 .87-.79 1.569-2.488 1.569-1.77 0-2.509-.79-2.509-1.619 0-.859.81-1.559 2.498-1.559zm0 2.409c.8 0 1.89-.14 1.89-.839 0-.66-1.14-.79-1.89-.79-.739 0-1.879.13-1.879.81 0 .689 1.14.819 1.879.819zm-1.169-3.27c-.569 0-.859.03-1.249.04v-.67l.579-.04v-.02c-.39-.21-.659-.6-.659-1.109 0-.669.499-1.169 1.669-1.169H8.37v.77H5.252c-.569 0-1.149.11-1.149.669 0 .32.27.629.789.729.12.02.271.03.431.03H8.37v.77H4.782zm2.788-3.92c.11-.17.25-.47.25-.78 0-.439-.27-.709-.699-.709-.37 0-.62.13-.95.62-.409.63-.819.969-1.379.969-.779 0-1.339-.58-1.339-1.329 0-.38.13-.669.25-.87l.579.21c-.12.18-.21.39-.21.64 0 .42.3.63.61.63.329 0 .509-.12.839-.6.36-.56.8-1 1.47-1 .969 0 1.438.66 1.438 1.449 0 .36-.109.75-.279.959l-.58-.189zm19.558 71.716c0 2.134-.675 3.007-1.521 3.007-.909 0-1.458-1.081-1.458-2.989 0-1.972.585-3.007 1.54-3.007.944 0 1.439 1.125 1.439 2.989zm-2.287.009c0 1.413.243 2.403.819 2.403.549 0 .774-.999.774-2.403 0-1.368-.225-2.403-.783-2.403s-.81.998-.81 2.403zm16.142 10.758v-.45l.495-.675c.694-.963 1.522-2.061 1.522-3.16 0-.648-.288-1.044-.837-1.044-.423 0-.693.225-.846.323l-.171-.521a1.831 1.831 0 0 1 1.143-.396c.973 0 1.396.721 1.396 1.603 0 1.099-.72 2.16-1.44 3.151l-.396.54v.018h1.954v.612h-2.82zm6.4-2.934c0 2.134-.675 3.007-1.521 3.007-.909 0-1.458-1.081-1.458-2.989 0-1.972.585-3.007 1.54-3.007.944 0 1.439 1.125 1.439 2.989zm-2.287.009c0 1.413.243 2.403.819 2.403.549 0 .774-.999.774-2.403 0-1.368-.225-2.403-.783-2.403s-.81.998-.81 2.403zm4.221-2.224h-.018l-.972.558-.135-.54 1.233-.72h.576v5.852h-.684v-5.15zm2.061 5.149v-.45l.495-.675c.693-.964 1.521-2.062 1.521-3.16 0-.648-.288-1.044-.837-1.044-.423 0-.693.225-.846.323l-.171-.521a1.831 1.831 0 0 1 1.143-.396c.973 0 1.396.721 1.396 1.603 0 1.099-.72 2.16-1.44 3.151l-.396.54v.018h1.954v.612h-2.819zm41.605 0v-.45l.495-.675c.694-.963 1.522-2.061 1.522-3.16 0-.648-.288-1.044-.837-1.044-.423 0-.693.225-.846.323l-.171-.521a1.831 1.831 0 0 1 1.143-.396c.973 0 1.396.721 1.396 1.603 0 1.099-.72 2.16-1.44 3.151l-.396.54v.018h1.954v.612h-2.82zm6.4-2.934c0 2.134-.675 3.007-1.521 3.007-.909 0-1.458-1.081-1.458-2.989 0-1.972.585-3.007 1.54-3.007.944 0 1.439 1.125 1.439 2.989zm-2.287.009c0 1.413.243 2.403.819 2.403.549 0 .774-.999.774-2.403 0-1.368-.225-2.403-.783-2.403s-.81.998-.81 2.403zm4.221-2.224h-.018l-.972.558-.135-.54 1.233-.72h.576v5.852h-.684v-5.15zm2.179 4.402c.18.107.495.243.846.243.603 0 1.008-.441 1.008-1.171 0-.765-.477-1.206-1.18-1.206h-.162v-.522h.135c.414-.009 1.053-.324 1.053-1.044 0-.585-.315-.9-.774-.9-.288 0-.541.145-.729.279l-.153-.522c.216-.171.612-.333 1.053-.333.828 0 1.296.595 1.296 1.351 0 .585-.306 1.099-.873 1.368v.019c.522.144 1.026.611 1.026 1.53 0 .954-.612 1.729-1.675 1.729-.378 0-.792-.108-1.026-.271l.155-.55zm41.487.747v-.45l.495-.675c.693-.964 1.521-2.062 1.521-3.16 0-.648-.288-1.044-.837-1.044-.423 0-.693.225-.846.323l-.171-.521a1.831 1.831 0 0 1 1.143-.396c.973 0 1.396.721 1.396 1.603 0 1.099-.72 2.16-1.44 3.151l-.396.54v.018h1.954v.612h-2.819zm6.4-2.934c0 2.134-.675 3.007-1.521 3.007-.909 0-1.458-1.081-1.458-2.989 0-1.972.585-3.007 1.54-3.007.944 0 1.439 1.125 1.439 2.989zm-2.287.009c0 1.413.243 2.403.819 2.403.549 0 .774-.999.774-2.403 0-1.368-.225-2.403-.783-2.403s-.81.998-.81 2.403zm4.221-2.224h-.018l-.972.558-.135-.54 1.233-.72h.576v5.852h-.684v-5.15zm3.88 5.149v-1.611h-1.944v-.469l1.899-3.771h.675v3.673h.639v.567h-.639v1.611h-.63zm0-2.178v-1.656c0-.405.027-.766.054-1.152h-.036c-.198.468-.324.747-.495 1.107l-.81 1.684v.018h1.287zm39.786 2.178v-.45l.495-.675c.693-.964 1.521-2.062 1.521-3.16 0-.648-.288-1.044-.838-1.044-.422 0-.692.225-.846.323l-.171-.521a1.832 1.832 0 0 1 1.144-.396c.973 0 1.395.721 1.395 1.603 0 1.099-.72 2.16-1.439 3.151l-.396.54v.018h1.953v.612h-2.818zm6.4-2.934c0 2.134-.675 3.007-1.521 3.007-.908 0-1.458-1.081-1.458-2.989 0-1.972.585-3.007 1.54-3.007.945 0 1.439 1.125 1.439 2.989zm-2.287.009c0 1.413.244 2.403.82 2.403.549 0 .773-.999.773-2.403 0-1.368-.225-2.403-.783-2.403-.557-.001-.81.998-.81 2.403zm4.221-2.224h-.019l-.972.558-.135-.54 1.233-.72H206v5.852h-.685v-5.15zm4.771-.09h-1.575l-.243 1.558c.072-.019.135-.019.217-.019.314 0 .801.135 1.115.441.307.306.486.738.486 1.332 0 1.161-.729 1.999-1.773 1.999-.352 0-.756-.1-.99-.252l.153-.559c.181.108.495.234.819.234.594 0 1.107-.459 1.107-1.351 0-.928-.567-1.314-1.324-1.314-.215 0-.351.009-.459.027l.369-2.71h2.098v.614zm38.895 5.239v-.45l.495-.675c.693-.964 1.521-2.062 1.521-3.16 0-.648-.288-1.044-.838-1.044-.422 0-.692.225-.846.323l-.171-.521a1.832 1.832 0 0 1 1.144-.396c.973 0 1.395.721 1.395 1.603 0 1.099-.72 2.16-1.439 3.151l-.396.54v.018h1.953v.612h-2.818zm6.4-2.934c0 2.134-.675 3.007-1.521 3.007-.908 0-1.458-1.081-1.458-2.989 0-1.972.585-3.007 1.54-3.007.945 0 1.439 1.125 1.439 2.989zm-2.287.009c0 1.413.244 2.403.82 2.403.549 0 .773-.999.773-2.403 0-1.368-.225-2.403-.783-2.403-.557-.001-.81.998-.81 2.403zm4.221-2.224h-.019l-.972.558-.135-.54 1.233-.72H258v5.852h-.685v-5.15zm4.646-.189c-.117.01-.244.027-.415.063-.972.233-1.359 1.206-1.503 2.106h.027c.225-.333.549-.559.99-.559.746 0 1.26.685 1.26 1.801 0 1.107-.504 1.999-1.44 1.999-1.017 0-1.53-1.035-1.53-2.377 0-1.135.297-2.017.756-2.638.352-.495.91-.819 1.414-.928.188-.035.342-.045.441-.054v.587zm-.334 3.466c0-.883-.307-1.324-.783-1.324-.288 0-.585.198-.756.631a.929.929 0 0 0-.055.351c.01 1.197.379 1.747.847 1.747.395 0 .747-.388.747-1.405zm39.354 1.872v-.45l.495-.675c.693-.964 1.521-2.062 1.521-3.16 0-.648-.288-1.044-.838-1.044-.422 0-.692.225-.846.323l-.171-.521a1.832 1.832 0 0 1 1.144-.396c.973 0 1.395.721 1.395 1.603 0 1.099-.72 2.16-1.439 3.151l-.396.54v.018h1.953v.612h-2.818zm6.4-2.934c0 2.134-.675 3.007-1.521 3.007-.908 0-1.458-1.081-1.458-2.989 0-1.972.585-3.007 1.54-3.007.945 0 1.439 1.125 1.439 2.989zm-2.287.009c0 1.413.244 2.403.82 2.403.549 0 .773-.999.773-2.403 0-1.368-.225-2.403-.783-2.403-.557-.001-.81.998-.81 2.403zm4.221-2.224h-.019l-.972.558-.135-.54 1.233-.72H310v5.852h-.685v-5.15zm4.924-.702v.414l-1.891 5.438h-.675l1.854-5.222v-.018h-2.106v-.612h2.818zM23.312 66.817c-.117.01-.243.027-.415.063-.972.233-1.359 1.206-1.503 2.106h.027c.225-.333.549-.559.99-.559.747 0 1.26.685 1.26 1.801 0 1.107-.504 1.999-1.44 1.999-1.017 0-1.53-1.035-1.53-2.377 0-1.135.297-2.017.756-2.638.352-.495.91-.819 1.414-.928.189-.035.342-.045.441-.054v.587zm-.333 3.467c0-.883-.306-1.324-.783-1.324-.288 0-.585.198-.756.631a.934.934 0 0 0-.054.351c.009 1.197.378 1.747.846 1.747.395-.001.747-.389.747-1.405zm4.149-1.063c0 2.134-.675 3.007-1.521 3.007-.909 0-1.458-1.081-1.458-2.989 0-1.972.585-3.007 1.54-3.007.944 0 1.439 1.125 1.439 2.989zm-2.287.009c0 1.413.243 2.403.819 2.403.549 0 .774-.999.774-2.403 0-1.368-.225-2.403-.783-2.403s-.81.999-.81 2.403zm-6.174-21.099h-.018l-.972.558-.135-.54 1.233-.72h.576v5.852h-.685v-5.15zm2.061 5.15v-.45l.495-.675c.693-.964 1.521-2.062 1.521-3.16 0-.648-.288-1.044-.837-1.044-.423 0-.693.225-.846.323l-.171-.521a1.831 1.831 0 0 1 1.143-.396c.973 0 1.396.721 1.396 1.603 0 1.099-.72 2.16-1.44 3.151l-.396.54v.018h1.954v.612h-2.819zm6.399-2.935c0 2.134-.675 3.007-1.521 3.007-.91 0-1.458-1.081-1.458-2.989 0-1.972.585-3.007 1.54-3.007.944 0 1.439 1.125 1.439 2.989zm-2.286.009c0 1.413.243 2.403.819 2.403.549 0 .774-.999.774-2.403 0-1.368-.225-2.403-.783-2.403s-.81.999-.81 2.403zm-6.174-21.099h-.018l-.972.558-.135-.54 1.233-.72h.576v5.852h-.685v-5.15zm2.024 3.718c0-.819.486-1.341.963-1.674l-.009-.019c-.486-.333-.766-.846-.766-1.342 0-.899.639-1.458 1.369-1.458.837 0 1.251.702 1.251 1.378 0 .513-.243 1.008-.783 1.377v.027c.54.359.936.891.936 1.593 0 .909-.603 1.621-1.503 1.621-.971.001-1.458-.773-1.458-1.503zm2.278-.072c0-.675-.387-1.053-.837-1.35-.468.288-.756.792-.756 1.305 0 .657.297 1.107.801 1.107.432 0 .792-.333.792-1.062zm-1.422-3.007c0 .595.36.892.72 1.126.351-.252.585-.64.585-1.081 0-.566-.234-.944-.657-.944-.387 0-.648.368-.648.899zm5.58 1.576c0 2.134-.675 3.007-1.521 3.007-.91 0-1.458-1.081-1.458-2.989 0-1.972.585-3.007 1.54-3.007.944 0 1.439 1.125 1.439 2.989zm-2.286.009c0 1.413.243 2.403.819 2.403.549 0 .774-.999.774-2.403 0-1.368-.225-2.403-.783-2.403s-.81.999-.81 2.403zm-7.578-15.324v-.45l.495-.675c.693-.964 1.521-2.062 1.521-3.16 0-.648-.288-1.044-.837-1.044-.423 0-.693.225-.846.323l-.171-.521a1.831 1.831 0 0 1 1.143-.396c.973 0 1.396.721 1.396 1.603 0 1.099-.72 2.16-1.44 3.151l-.396.54v.018h1.954v.612h-2.819zm5.283 0v-1.611h-1.944v-.469l1.899-3.771h.675v3.673h.639v.567h-.639v1.611h-.63zm0-2.179v-1.656c0-.405.027-.766.054-1.152h-.036c-.198.468-.324.747-.495 1.107l-.81 1.684v.018h1.287zm4.581-.756c0 2.134-.675 3.007-1.521 3.007-.91 0-1.458-1.081-1.458-2.989 0-1.972.585-3.007 1.54-3.007.944 0 1.439 1.125 1.439 2.989zm-2.286.009c0 1.413.243 2.403.819 2.403.549 0 .774-.999.774-2.403 0-1.368-.225-2.403-.783-2.403s-.81.999-.81 2.403z"/><path fill="none" stroke="#0071bc" stroke-miterlimit="10" d="M47.625 78.514l52-9 52-8.5 52-10.375 52-12.125 52-14.25"/><path d="M43.82 1.308v2.311h1.511V1.308h.616v5.389h-.616V4.178H43.82v2.519h-.615V1.308h.615zm2.969 4.676c.184.12.504.216.775.216.56 0 .896-.367.896-.911 0-.496-.288-.8-.711-1.119-.424-.296-1.016-.8-1.016-1.495 0-.815.568-1.415 1.423-1.415.336 0 .632.104.76.199l-.152.528a1.117 1.117 0 0 0-.64-.185c-.527 0-.775.4-.775.768 0 .536.28.744.792 1.111.648.456.936.952.936 1.552 0 .927-.656 1.511-1.511 1.511-.368 0-.759-.12-.911-.231l.134-.529zm3.007-4.597c.248-.063.543-.104.896-.104.496 0 .911.12 1.191.399.264.256.4.648.4 1.112 0 .495-.12.831-.328 1.103-.296.4-.792.6-1.271.6-.104 0-.184 0-.272-.008v2.207h-.615V1.387zm.616 2.583c.072.016.136.024.24.024.607 0 1.015-.4 1.015-1.16 0-.551-.232-1.047-.912-1.047-.144 0-.264.016-.344.04V3.97zm2.768 1.111l-.36 1.615h-.592l1.231-5.389h.68l1.199 5.389h-.607l-.36-1.615H53.18zm1.111-.495l-.28-1.368c-.08-.384-.152-.831-.216-1.23h-.032c-.064.407-.144.871-.216 1.23l-.28 1.368h1.024zm3.848-2.144v1.903h1.839v.432h-1.839v1.919h-.448V4.777h-1.839v-.431h1.839V2.442h.448z"/><path fill="#c1272d" fill-rule="evenodd" d="M35.125 1.348h6v6h-6z" clip-rule="evenodd"/><path d="M73.205 1.308h.615v4.869h1.52v.52h-2.135V1.308zm2.847.551h-.983v-.551h2.583v.552h-.983v4.837h-.616V1.859zm4.167 2.279h-1.352V6.16h1.535v.536h-2.15V1.308h2.055v.535h-1.439v1.775h1.352v.52z"/><path fill="#0071bc" fill-rule="evenodd" d="M65.125 1.348h6v6h-6z" clip-rule="evenodd"/></svg>