<svg xmlns="http://www.w3.org/2000/svg" viewBox="0 0 285.413 141.97"><path fill="#fff" fill-rule="evenodd" d="M152.713 46.167h126.288v77.841H152.713z" clip-rule="evenodd"/><path fill="none" stroke="#000" d="M152.713 46.167h126.288v77.841H152.713z" stroke-linecap="round" stroke-linejoin="round"/><path fill="#e6e6e6" fill-rule="evenodd" d="M3.38 3.38h87.016v23.079H3.38z" clip-rule="evenodd"/><path fill="none" stroke="#000" d="M3.38 3.38h87.016v23.079H3.38z" stroke-linecap="round" stroke-linejoin="round"/><path fill="#ecbec0" fill-rule="evenodd" d="M3.38 31.693h87.016v23.079H3.38z" clip-rule="evenodd"/><path fill="none" stroke="#000" d="M3.38 31.693h87.016v23.079H3.38z" stroke-linecap="round" stroke-linejoin="round"/><path fill="#ecbec0" fill-rule="evenodd" stroke="#000" d="M158.313 53.026h45.954v23.079h-45.954z" clip-rule="evenodd" stroke-linecap="round" stroke-linejoin="round"/><path fill="#fddfbb" fill-rule="evenodd" stroke="#000" d="M204.267 53.026h45.954v23.079h-45.954z" clip-rule="evenodd" stroke-linecap="round" stroke-linejoin="round"/><path fill="#b2d4eb" fill-rule="evenodd" stroke="#000" d="M181.313 90.026h45.953v26.54h-45.953z" clip-rule="evenodd" stroke-linecap="round" stroke-linejoin="round"/><path fill="#b2dec7" fill-rule="evenodd" stroke="#000" d="M227.267 90.026h45.954v26.54h-45.954z" clip-rule="evenodd" stroke-linecap="round" stroke-linejoin="round"/><path fill="#b2dec7" fill-rule="evenodd" d="M3.381 54.772h87.016v23.079H3.381z" clip-rule="evenodd"/><path fill="none" stroke="#000" d="M3.381 54.772h87.016v23.079H3.381z" stroke-linecap="round" stroke-linejoin="round"/><path fill="#b2d4eb" fill-rule="evenodd" d="M3.381 77.851h87.016v23.079H3.381z" clip-rule="evenodd"/><path fill="none" stroke="#000" d="M3.381 77.851h87.016v23.079H3.381z" stroke-linecap="round" stroke-linejoin="round"/><path fill="#f2f2f2" fill-rule="evenodd" d="M3.382 100.93h87.016v11.54H3.382z" clip-rule="evenodd"/><path fill="none" stroke="#000" d="M3.382 100.93h87.016v11.54H3.382z" stroke-linecap="round" stroke-linejoin="round"/><path fill="#fddfbb" fill-rule="evenodd" d="M3.38 112.47h87.016v23.079H3.38z" clip-rule="evenodd"/><path fill="none" stroke="#000" d="M3.38 112.47h87.016v23.079H3.38zm87.016 11.539l57.605-38.443" stroke-linecap="round" stroke-linejoin="round"/><path d="M148.938 88.548l2.65-5.364-5.97.387zM29.648 16.105l-.36 1.749h-1.039l1.499-6.736h1.249l1.39 6.736h-1.04l-.36-1.749h-1.339zm1.229-.839l-.28-1.549c-.09-.439-.18-1.06-.25-1.529h-.03c-.07.47-.17 1.119-.25 1.539l-.3 1.539h1.11zm2.202-.749c0-.66-.02-1.12-.04-1.529h.93l.06.59h.02c.23-.46.6-.67 1.02-.67.97 0 1.469 1.039 1.469 2.499 0 1.778-.759 2.528-1.549 2.528-.43 0-.689-.26-.829-.51h-.02v2.349h-1.06v-5.257zm1.059 1.558c0 .15.02.3.05.41.13.47.38.569.56.569.54 0 .72-.77.72-1.629 0-.97-.23-1.619-.72-1.619-.27 0-.51.3-.569.63-.03.109-.04.229-.04.359v1.28zm3.191-1.558c0-.66-.02-1.12-.04-1.529h.93l.06.59h.02c.23-.46.6-.67 1.02-.67.97 0 1.469 1.039 1.469 2.499 0 1.778-.759 2.528-1.549 2.528-.43 0-.689-.26-.829-.51h-.02v2.349h-1.06v-5.257zm1.059 1.558c0 .15.02.3.05.41.13.47.38.569.56.569.54 0 .72-.77.72-1.629 0-.97-.23-1.619-.72-1.619-.27 0-.51.3-.569.63-.03.109-.04.229-.04.359v1.28zm3.191-5.137h1.069v6.916h-1.069v-6.916zm2.609 1.4c-.31 0-.56-.25-.56-.62 0-.38.26-.619.569-.619.34 0 .58.239.58.619 0 .37-.24.62-.58.62h-.009zm-.51 5.516v-4.867h1.069v4.867h-1.069zm4.609-.099c-.15.08-.46.159-.819.159-1.16 0-1.929-.859-1.929-2.458 0-1.459.81-2.539 2.099-2.539.29 0 .57.07.7.14l-.16.85c-.11-.04-.28-.109-.52-.109-.689 0-1.049.739-1.049 1.639 0 1 .4 1.6 1.049 1.6.2 0 .37-.04.52-.11l.109.828zm3.629-1.01c0 .38.01.79.06 1.109h-.959l-.06-.489h-.02c-.25.369-.609.569-1.029.569-.7 0-1.229-.58-1.229-1.439 0-1.249 1.06-1.779 2.159-1.789v-.13c0-.51-.2-.859-.73-.859-.35 0-.64.1-.909.27l-.2-.729c.24-.149.75-.35 1.339-.35 1.259 0 1.579.859 1.579 1.899v1.938zm-1.049-1.329c-.42.01-1.169.12-1.169.97 0 .549.29.749.53.749.27 0 .52-.18.61-.56.02-.07.03-.16.03-.25v-.909zm3.22-3.639v1.21h.939v.77h-.939v2.528c0 .6.23.75.5.75.12 0 .22-.01.33-.03l.02.83c-.16.05-.4.079-.7.079-.34 0-.649-.09-.859-.3-.24-.239-.36-.589-.36-1.319v-2.538h-.58v-.77h.58v-.84l1.069-.37zm2.091.561c-.31 0-.56-.25-.56-.62 0-.38.26-.619.569-.619.34 0 .58.239.58.619 0 .37-.24.62-.58.62h-.009zm-.51 5.516v-4.867h1.069v4.867h-1.069zm3.599.081c-1.03 0-1.739-.859-1.739-2.499 0-1.769.87-2.528 1.779-2.528 1.02 0 1.719.89 1.719 2.499 0 1.969-1.02 2.528-1.749 2.528h-.01zm.04-.82c.53 0 .65-.96.65-1.699 0-.71-.12-1.689-.669-1.689-.58 0-.69.979-.69 1.689 0 .819.14 1.699.7 1.699h.009zm2.511-2.759c0-.55-.02-.939-.04-1.369h.93l.05.569h.02c.23-.39.64-.649 1.149-.649.819 0 1.249.63 1.249 1.759v3.188h-1.069v-3.088c0-.49-.1-.96-.569-.96-.26 0-.5.2-.6.6-.03.1-.05.26-.05.439v3.009h-1.069v-3.498zm-34.08 25.075v2.788h1.599v-2.788h1.069v6.736h-1.069v-2.969h-1.599v2.969h-1.069v-6.736h1.069zm4.6.98h-1.209v-.979h3.488v.979h-1.209v5.757h-1.069v-5.757zm3.88 0h-1.209v-.979h3.488v.979h-1.209v5.757h-1.069v-5.757zm3.011-.88c.34-.079.779-.13 1.249-.13.71 0 1.29.13 1.689.51.36.34.54.859.54 1.439 0 .68-.19 1.14-.5 1.499-.399.47-1.049.7-1.619.7-.11 0-.2 0-.3-.011v2.629h-1.059v-6.636zm1.059 3.129c.08.02.15.02.26.02.699 0 1.089-.479 1.089-1.249 0-.63-.26-1.159-.979-1.159-.15 0-.28.02-.37.05v2.338zm6.07-1.959h-.02l-1.089.59-.19-.83 1.429-.789h.919v6.496h-1.049v-5.467zm3.38 5.547c-.35 0-.64-.29-.64-.739 0-.431.3-.74.649-.74.37 0 .65.28.65.74 0 .449-.26.739-.65.739h-.009zm3.879-.081l-.51-1.409c-.13-.38-.25-.75-.38-1.189h-.03c-.13.439-.24.84-.35 1.209l-.459 1.39h-1.07l1.31-3.438-1.259-3.298h1.109l.479 1.39c.12.329.22.669.35 1.079h.02c.13-.439.22-.75.32-1.1l.439-1.369h1.069l-1.289 3.318 1.359 3.418h-1.108zm3.461-3.078v.779h-2.079v-.779h2.079zm.58 3.078v-.71l.6-.789c.81-1.069 1.599-2.109 1.599-3.168 0-.61-.3-1.01-.87-1.01-.439 0-.759.21-.959.34l-.209-.819c.26-.19.77-.42 1.359-.42 1.27 0 1.729.879 1.729 1.839 0 1.219-.779 2.289-1.549 3.258l-.41.52v.021h2.059v.939h-3.349zm4.93.081c-.35 0-.64-.29-.64-.739 0-.431.3-.74.649-.74.37 0 .65.28.65.74 0 .449-.26.739-.65.739h-.009zm3.049 0c-1.229 0-1.769-1.43-1.769-3.309 0-2.019.62-3.348 1.839-3.348 1.299 0 1.739 1.519 1.739 3.308 0 2.349-.8 3.349-1.799 3.349h-.01zm.05-.91c.5 0 .689-.9.689-2.419 0-1.459-.18-2.419-.699-2.419-.51 0-.75.88-.74 2.419-.01 1.549.21 2.419.74 2.419h.01zM172.97 67.5l-1.219-6.736h1.109l.43 2.938c.119.81.199 1.579.279 2.398h.029c.09-.84.24-1.569.391-2.408l.549-2.929h.881l.52 2.898c.139.77.27 1.529.359 2.438h.02c.1-.919.2-1.648.301-2.419l.43-2.918h1.049l-1.239 6.736h-1.089l-.51-2.679c-.121-.67-.23-1.429-.32-2.219h-.02c-.11.79-.221 1.529-.37 2.229l-.55 2.669h-1.03zm6.14-5.516c-.311 0-.561-.25-.561-.62 0-.38.26-.619.57-.619.34 0 .58.239.58.619 0 .37-.24.62-.58.62h-.009zm-.509 5.516v-4.867h1.068V67.5h-1.068zm2.048-3.498c0-.45-.02-.96-.039-1.369h.93l.059.729h.031c.189-.49.59-.81.988-.81.101 0 .16.01.23.02v1.06c-.07-.01-.14-.01-.23-.01-.369 0-.738.31-.859.84a2.7 2.7 0 0 0-.039.46V67.5h-1.07v-3.498zm3.5 1.35c.01 1.089.51 1.389 1.08 1.389.359 0 .659-.08.869-.17l.16.76c-.311.14-.779.229-1.22.229-1.259 0-1.929-.909-1.929-2.418 0-1.609.77-2.589 1.809-2.589 1.02 0 1.539.93 1.539 2.229 0 .28-.01.44-.029.57h-2.279zm1.32-.76c.011-.779-.25-1.239-.63-1.239-.459 0-.67.669-.689 1.239h1.319zm5.029-4.008v5.597c0 .399.021.949.04 1.319h-.91l-.069-.58h-.03c-.16.351-.539.66-1.01.66-.949 0-1.479-1.029-1.479-2.499 0-1.709.74-2.528 1.529-2.528.4 0 .689.189.85.529h.02v-2.498h1.059zm-1.059 3.908c0-.09 0-.199-.02-.3-.04-.39-.26-.739-.58-.739-.539 0-.729.77-.729 1.64 0 .979.26 1.608.71 1.608.199 0 .449-.1.58-.609a.959.959 0 0 0 .039-.31v-1.29zm25.509 3.008l-1.219-6.736h1.109l.43 2.938c.119.81.199 1.579.279 2.398h.03c.09-.84.239-1.569.39-2.408l.55-2.929h.88l.52 2.898c.14.77.27 1.529.359 2.438h.021c.1-.919.2-1.648.3-2.419l.43-2.918h1.049l-1.238 6.736h-1.09l-.51-2.679a35.74 35.74 0 0 1-.32-2.219h-.02c-.109.79-.22 1.529-.369 2.229l-.551 2.669h-1.03zm6.141-5.516c-.311 0-.56-.25-.56-.62 0-.38.26-.619.569-.619.34 0 .58.239.58.619 0 .37-.24.62-.58.62h-.009zm-.51 5.516v-4.867h1.069V67.5h-1.069zm2.05-3.498c0-.45-.021-.96-.04-1.369h.93l.061.729h.029c.189-.49.59-.81.989-.81.101 0 .16.01.229.02v1.06c-.069-.01-.139-.01-.229-.01-.37 0-.739.31-.859.84-.021.109-.04.279-.04.46V67.5h-1.069v-3.498zm3.499 1.35c.011 1.089.51 1.389 1.08 1.389.359 0 .66-.08.869-.17l.16.76c-.31.14-.779.229-1.219.229-1.26 0-1.93-.909-1.93-2.418 0-1.609.77-2.589 1.809-2.589 1.02 0 1.54.93 1.54 2.229 0 .28-.011.44-.03.57h-2.279zm1.32-.76c.01-.779-.25-1.239-.63-1.239-.46 0-.67.669-.69 1.239h1.32zm1.761-4.008h1.069V67.5h-1.069v-6.916zm2.96 4.768c.01 1.089.51 1.389 1.079 1.389.36 0 .659-.08.87-.17l.159.76c-.31.14-.779.229-1.22.229-1.259 0-1.928-.909-1.928-2.418 0-1.609.77-2.589 1.809-2.589 1.02 0 1.539.93 1.539 2.229 0 .28-.01.44-.03.57h-2.278zm1.318-.76c.011-.779-.25-1.239-.629-1.239-.46 0-.67.669-.689 1.239h1.318zm1.682 1.899c.18.12.51.26.84.26.379 0 .609-.199.609-.56 0-.3-.14-.499-.59-.789-.729-.43-.989-.899-.989-1.39 0-.839.61-1.459 1.489-1.459.39 0 .699.11.93.24l-.21.789c-.19-.12-.409-.21-.67-.21-.37 0-.55.24-.55.51 0 .26.12.41.58.71.649.39 1 .869 1 1.479 0 .99-.69 1.489-1.609 1.489-.381 0-.83-.109-1.04-.279l.21-.79zm3.08 0c.18.12.51.26.84.26.379 0 .609-.199.609-.56 0-.3-.14-.499-.59-.789-.729-.43-.989-.899-.989-1.39 0-.839.61-1.459 1.489-1.459.39 0 .699.11.93.24l-.21.789c-.19-.12-.409-.21-.67-.21-.37 0-.55.24-.55.51 0 .26.12.41.58.71.649.39 1 .869 1 1.479 0 .99-.69 1.489-1.609 1.489-.381 0-.83-.109-1.04-.279l.21-.79zm-41.039 35.24l-1.221-6.736h1.11l.43 2.938c.12.81.2 1.579.28 2.398h.029c.09-.84.24-1.569.391-2.408l.549-2.929h.88l.52 2.898c.14.77.271 1.529.36 2.438h.02c.1-.919.199-1.648.3-2.419l.43-2.918h1.05l-1.24 6.736h-1.089l-.51-2.679c-.12-.67-.229-1.429-.319-2.219h-.021c-.11.79-.22 1.529-.37 2.229l-.549 2.669h-1.03zm6.14-5.517c-.31 0-.56-.25-.56-.62 0-.38.26-.619.569-.619.34 0 .58.239.58.619 0 .37-.24.62-.58.62h-.009zm-.51 5.517v-4.867h1.069v4.867h-1.069zm3.938-3.078v.779H204.7v-.779h2.078zm.892-3.658h2.769v.93h-1.699v2.009h1.589v.89h-1.589v2.908h-1.069v-6.737zm4.029 1.219c-.31 0-.56-.25-.56-.62 0-.38.26-.619.569-.619.34 0 .58.239.58.619 0 .37-.24.62-.58.62h-.009zm-.51 5.517v-4.867h1.069v4.867h-1.069zm-17.195 2.424c.929 0 1.399.779 1.399 1.529 0 .569-.27 1.119-.869 1.539v.02c.6.41 1.039.989 1.039 1.779 0 1.01-.67 1.789-1.67 1.789-1.079 0-1.619-.859-1.619-1.659 0-.92.54-1.499 1.07-1.869l-.01-.02c-.541-.37-.85-.939-.85-1.489 0-1 .709-1.619 1.498-1.619h.012zm-.07 6.087c.479 0 .88-.36.88-1.18 0-.75-.43-1.17-.93-1.499-.52.319-.84.879-.84 1.459 0 .729.33 1.22.88 1.22h.01zm.02-5.518c-.43 0-.72.41-.72 1 0 .659.399.989.8 1.249.389-.28.639-.71.639-1.199 0-.63-.25-1.05-.709-1.05h-.01zm3.79 6.087c-1.01 0-1.619-1.199-1.619-3.318 0-2.188.649-3.338 1.709-3.338 1.05 0 1.599 1.249 1.599 3.318 0 2.368-.749 3.338-1.679 3.338h-.01zm.05-.66c.619 0 .869-1.109.869-2.668 0-1.52-.25-2.669-.869-2.669-.63 0-.899 1.1-.899 2.669-.011 1.569.26 2.668.89 2.668h.009zm2.231.58v-.5l.539-.739c.78-1.079 1.689-2.299 1.689-3.519 0-.719-.31-1.159-.92-1.159-.469 0-.779.25-.939.36l-.189-.58a2.04 2.04 0 0 1 1.27-.439c1.08 0 1.549.8 1.549 1.778 0 1.22-.799 2.409-1.609 3.499l-.43.6v.02h2.159v.68h-3.119zm4.519.08c-.279 0-.5-.23-.5-.58 0-.34.23-.579.51-.579.301 0 .51.229.51.579s-.189.58-.51.58h-.01zm2.83-5.797h-.021l-1.079.619-.15-.6 1.369-.799h.63v6.496h-.749v-5.716zm3.85 0h-.02l-1.08.619-.149-.6 1.369-.799h.63v6.496h-.75v-5.716zm2.939.88l.451 1.029c.119.279.219.56.319.85h.021c.109-.311.219-.59.329-.85l.43-1.029h.79l-1.15 2.378 1.141 2.459h-.84l-.46-1.09c-.11-.26-.2-.509-.319-.829h-.021c-.101.29-.21.56-.319.829l-.44 1.09h-.79l1.15-2.429-1.109-2.408h.817zm29.459-6.762a38.74 38.74 0 0 1-.07-2.419h-.03c-.13.74-.31 1.55-.47 2.199l-.699 2.738h-.73l-.659-2.668c-.18-.68-.36-1.52-.479-2.27h-.03c-.01.76-.05 1.649-.09 2.449l-.12 2.568h-.93l.45-6.736h1.13l.648 2.729c.211.869.381 1.579.51 2.339h.021c.12-.76.271-1.459.47-2.339l.63-2.729h1.149l.399 6.736h-.97l-.13-2.597zm3.551 2.679c-1.029 0-1.738-.859-1.738-2.499 0-1.769.869-2.528 1.779-2.528 1.019 0 1.719.89 1.719 2.499 0 1.969-1.02 2.528-1.75 2.528h-.01zm.041-.819c.529 0 .648-.96.648-1.699 0-.71-.119-1.689-.669-1.689-.58 0-.69.979-.69 1.689 0 .819.141 1.699.7 1.699h.011zm2.51-6.177h1.06v2.578h.021c.239-.409.568-.609 1.019-.609.86 0 1.359.979 1.359 2.419 0 1.729-.7 2.608-1.539 2.608-.46 0-.729-.23-.96-.68h-.029l-.061.6h-.909c.021-.359.04-.92.04-1.319v-5.597zm1.059 5.186c0 .12.021.23.04.311.14.51.39.619.569.619.521 0 .72-.68.72-1.659 0-.899-.21-1.589-.729-1.589-.271 0-.5.32-.56.64-.02.09-.04.22-.04.31v1.368zm3.701-3.787c-.311 0-.56-.25-.56-.62 0-.38.26-.619.569-.619.34 0 .58.239.58.619 0 .37-.24.62-.58.62h-.009zm-.51 5.517v-4.867h1.069v4.867h-1.069zm2.05-6.916h1.069v6.916h-1.069v-6.916zm2.96 4.767c.01 1.089.51 1.389 1.079 1.389.36 0 .659-.08.87-.17l.159.76c-.31.14-.779.229-1.22.229-1.259 0-1.928-.909-1.928-2.418 0-1.609.77-2.589 1.809-2.589 1.02 0 1.539.93 1.539 2.229 0 .28-.01.44-.03.57h-2.278zm1.318-.759c.011-.779-.25-1.239-.629-1.239-.46 0-.67.669-.689 1.239h1.318zm-25.553 11.908v-.5l.539-.739c.78-1.079 1.689-2.299 1.689-3.519 0-.719-.31-1.159-.92-1.159-.469 0-.779.25-.939.36l-.189-.58a2.04 2.04 0 0 1 1.27-.439c1.08 0 1.549.8 1.549 1.778 0 1.22-.799 2.409-1.609 3.499l-.43.6v.02h2.159v.68h-3.119zm7.438-.17c-.279.12-.77.229-1.189.229-.589 0-1.139-.159-1.588-.649-.49-.52-.82-1.449-.811-2.688.01-2.629 1.35-3.518 2.539-3.518.42 0 .75.08.949.189l-.17.66c-.18-.091-.41-.16-.77-.16-.84 0-1.748.67-1.748 2.758 0 2.079.789 2.749 1.598 2.749.261 0 .41-.04.471-.08v-2.198h-.869v-.641h1.588v3.349zm.623 1.43c.209-.58.479-1.64.579-2.329l.87-.1c-.23.81-.65 1.919-.92 2.358l-.529.071zm3.789-2.089c.199.119.55.27.939.27.67 0 1.119-.49 1.119-1.289 0-.85-.529-1.35-1.309-1.35h-.18v-.58h.149c.46 0 1.169-.35 1.169-1.159 0-.659-.35-.999-.859-.999-.32 0-.6.16-.81.31l-.159-.58c.229-.189.669-.369 1.158-.369.92 0 1.439.649 1.439 1.489 0 .659-.34 1.239-.969 1.529v.02c.58.16 1.139.68 1.139 1.709 0 1.05-.68 1.909-1.858 1.909-.42 0-.88-.12-1.14-.3l.172-.61zm7.308.659c-.28.12-.77.229-1.189.229-.59 0-1.14-.159-1.59-.649-.489-.52-.818-1.449-.809-2.688.01-2.629 1.349-3.518 2.538-3.518.42 0 .749.08.95.189l-.17.66c-.181-.091-.41-.16-.77-.16-.84 0-1.75.67-1.75 2.758 0 2.079.79 2.749 1.6 2.749.26 0 .41-.04.47-.08v-2.198h-.87v-.641h1.59v3.349zm.622 1.43c.211-.58.48-1.64.58-2.329l.869-.1c-.229.81-.649 1.919-.919 2.358l-.53.071zm5.679-1.26v-1.799h-2.16v-.52l2.109-4.178h.75v4.067h.699v.63h-.699v1.799h-.699zm0-2.429v-1.829c0-.449.029-.85.059-1.279h-.039c-.221.52-.359.819-.55 1.22l-.899 1.869v.02h1.429zm5.418 2.259c-.279.12-.77.229-1.189.229-.59 0-1.139-.159-1.589-.649-.489-.52-.819-1.449-.81-2.688.01-2.629 1.35-3.518 2.539-3.518.42 0 .749.08.949.189l-.17.66c-.18-.091-.41-.16-.77-.16-.84 0-1.75.67-1.75 2.758 0 2.079.791 2.749 1.6 2.749.26 0 .41-.04.471-.08v-2.198h-.87v-.641h1.589v3.349zM42.634 63.49h-1.209v-.98h3.488v.979h-1.209v5.757h-1.069V63.49zm3.01-.98h1.069v5.837h1.799v.899h-2.868V62.51zm3.49 5.597c.25.15.689.271 1.039.271.66 0 1.02-.38 1.02-.939 0-.54-.33-.85-.879-1.229-.75-.48-1.27-1.149-1.27-1.879 0-1.05.71-1.879 1.969-1.879.43 0 .819.13 1 .239l-.19.92c-.19-.12-.47-.23-.83-.23-.61 0-.899.41-.899.82 0 .52.27.759.959 1.199.849.56 1.189 1.209 1.189 1.929 0 1.209-.859 1.979-2.069 1.979-.5 0-1.009-.14-1.219-.279l.18-.922zm-6.76 18.462h-1.209v-.979h3.488v.979h-1.209v5.757h-1.069v-5.757zm5.898 5.646c-.2.101-.55.17-.989.17-1.54 0-2.419-1.259-2.419-3.338 0-2.589 1.369-3.518 2.569-3.518.439 0 .75.09.879.17l-.2.909c-.16-.08-.32-.14-.64-.14-.729 0-1.479.669-1.479 2.508 0 1.81.68 2.459 1.489 2.459.25 0 .5-.06.66-.12l.13.9zm.752-6.526c.34-.079.779-.13 1.249-.13.71 0 1.29.13 1.689.51.36.34.54.859.54 1.439 0 .68-.19 1.14-.5 1.499-.399.47-1.049.7-1.619.7-.11 0-.2 0-.3-.011v2.629h-1.059v-6.636zm1.06 3.129c.08.02.15.02.26.02.699 0 1.089-.479 1.089-1.249 0-.63-.26-1.159-.979-1.159-.15 0-.28.02-.37.05v2.338zm-5.304 18.667c-.35 0-.64-.29-.64-.739 0-.431.3-.74.649-.74.37 0 .65.28.65.74 0 .449-.26.739-.65.739h-.009zm2.159 0c-.35 0-.64-.29-.64-.739 0-.431.3-.74.649-.74.37 0 .65.28.65.74 0 .449-.26.739-.65.739h-.009zm2.161 0c-.35 0-.64-.29-.64-.739 0-.431.3-.74.649-.74.37 0 .65.28.65.74 0 .449-.26.739-.65.739H49.1zm-32.831 12.823c.29-.09.65-.13 1.04-.13.7 0 1.209.181 1.579.51.52.45.91 1.319.91 2.729 0 1.539-.38 2.379-.81 2.849-.44.49-1.089.72-1.859.72-.31 0-.64-.021-.859-.07v-6.608zm.769 6.016c.11.021.22.021.29.021.85 0 1.669-.609 1.669-2.908 0-1.699-.52-2.629-1.599-2.629-.12 0-.26.01-.36.04v5.476zm6.169-.479c0 .37 0 .79.05 1.1h-.689l-.05-.51h-.03c-.21.37-.55.59-.959.59-.649 0-1.149-.54-1.149-1.379 0-1.22.97-1.749 2.059-1.76v-.149c0-.649-.16-1.1-.77-1.1-.3 0-.57.09-.8.25l-.17-.54c.21-.149.65-.319 1.129-.319.97 0 1.379.64 1.379 1.719v2.098zm-.749-1.409c-.4 0-1.33.08-1.33 1.13 0 .64.32.859.59.859.34 0 .62-.25.709-.729.02-.09.03-.19.03-.28v-.98zm2.69-3.458v1.13h.93v.579h-.93v2.879c0 .64.22.799.5.799.13 0 .23-.01.31-.029l.04.59c-.14.05-.32.079-.57.079-.31 0-.58-.079-.759-.289-.2-.221-.29-.55-.29-1.22v-2.809h-.589v-.579h.589v-.82l.769-.31zm4.159 4.867c0 .37 0 .79.05 1.1h-.689l-.05-.51h-.03c-.21.37-.55.59-.959.59-.649 0-1.149-.54-1.149-1.379 0-1.22.97-1.749 2.059-1.76v-.149c0-.649-.16-1.1-.77-1.1-.3 0-.57.09-.8.25l-.17-.54c.21-.149.65-.319 1.129-.319.97 0 1.379.64 1.379 1.719v2.098zm-.749-1.409c-.4 0-1.33.08-1.33 1.13 0 .64.32.859.59.859.34 0 .62-.25.709-.729.02-.09.03-.19.03-.28v-.98zm3.47-4.228h.77v6.087h1.889v.649h-2.659v-6.736zm3.74 1.149c-.25 0-.439-.2-.439-.5s.2-.499.45-.499c.28 0 .459.199.459.499s-.18.5-.459.5h-.011zm-.36 5.587v-4.837h.77v4.837h-.77zm1.84-3.588c0-.569-.03-.859-.04-1.249h.67l.04.579h.02c.209-.39.6-.659 1.109-.659.669 0 1.169.489 1.169 1.669v3.248h-.77v-3.118c0-.58-.11-1.149-.669-1.149-.32 0-.63.27-.72.789-.03.11-.04.261-.04.431v3.048h-.77v-3.589zm4.81.999h.02c.09-.189.17-.38.26-.539l.959-1.709h.83l-1.279 2.038 1.399 2.799h-.86l-1.049-2.278-.28.449v1.829h-.77v-6.916h.77v4.327zm7.079-2.738v2.379h2.299v.55h-2.299v2.398h-.569v-2.398h-2.289v-.55h2.289v-2.379h.569zm4.861-1.309c.31-.079.67-.13 1.12-.13.62 0 1.149.15 1.499.49.32.319.49.81.49 1.399 0 .619-.15 1.039-.41 1.379-.36.5-.99.75-1.589.75-.13 0-.23 0-.34-.011v2.759h-.77v-6.636zm.77 3.238c.09.011.18.021.31.021.75 0 1.259-.5 1.259-1.449 0-.689-.28-1.31-1.14-1.31-.18 0-.33.021-.43.05v2.688zm3.16-3.518h.77v2.599h.02c.1-.17.25-.32.41-.43.17-.11.37-.17.64-.17.609 0 1.129.479 1.129 1.709v3.208h-.77v-3.118c0-.6-.13-1.149-.649-1.149-.36 0-.63.26-.75.77-.02.11-.03.25-.03.359v3.139h-.77v-6.917zm4.36 2.079l.64 2.778c.09.38.13.689.2.999h.02c.05-.279.13-.64.21-.989l.57-2.788h.76l-.79 3.107c-.3 1.21-.63 2.379-1.2 3.119-.34.43-.7.649-.87.729l-.28-.65c.22-.13.47-.34.68-.609.2-.26.36-.579.44-.819.04-.11.05-.17.05-.24 0-.06 0-.119-.02-.18l-1.219-4.457h.809zm2.93 4.038c.17.11.47.25.78.25.43 0 .709-.27.709-.699 0-.37-.13-.63-.62-.95-.63-.409-.969-.829-.969-1.379 0-.789.58-1.339 1.329-1.339.38 0 .66.119.859.25l-.2.579c-.19-.13-.39-.22-.65-.22-.41 0-.62.3-.62.62 0 .319.12.509.6.829.56.359 1 .81 1 1.479 0 .969-.66 1.438-1.459 1.438-.35 0-.74-.109-.95-.279l.191-.579zm3.38-4.788c-.25 0-.439-.2-.439-.5s.2-.499.45-.499c.28 0 .459.199.459.499s-.18.5-.459.5h-.011zm-.36 5.587v-4.837h.77v4.837h-.77zm4.199-.12c-.17.101-.46.18-.8.18-1.059 0-1.769-.85-1.769-2.448 0-1.39.7-2.519 1.909-2.519.26 0 .54.07.68.16l-.15.619c-.1-.05-.3-.13-.55-.13-.779 0-1.119.92-1.119 1.869 0 1.129.43 1.809 1.139 1.809.2 0 .38-.04.55-.13l.11.59zm3.21-.979c0 .37 0 .79.05 1.1h-.689l-.05-.51h-.03c-.21.37-.55.59-.959.59-.649 0-1.149-.54-1.149-1.379 0-1.22.97-1.749 2.059-1.76v-.149c0-.649-.16-1.1-.77-1.1-.3 0-.57.09-.8.25l-.17-.54c.21-.149.65-.319 1.129-.319.97 0 1.379.64 1.379 1.719v2.098zm-.75-1.409c-.4 0-1.33.08-1.33 1.13 0 .64.32.859.59.859.34 0 .62-.25.709-.729.02-.09.03-.19.03-.28v-.98zm1.84-4.408h.77v6.916h-.77v-6.916z"/><path fill="none" stroke="#000" d="M252.929 87.701c-3.479-16.965-21.61 6.113-24.318-9.85-2.709 15.963-20.842-7.115-24.32 9.85" stroke-linejoin="round"/></svg>