<svg xmlns="http://www.w3.org/2000/svg" viewBox="0 0 266.921 129.141"><path fill="#e6e6e6" d="M13.893 4.473h71v123.834h-71z"/><path fill="#b2dec7" d="M84.893 4.473h118.169v123.834H84.893z"/><path fill="none" stroke="#000" d="M13.893 128.474V4.306" stroke-linecap="round" stroke-linejoin="round"/><path d="M16.894 5.182L13.902 0l-2.991 5.182z"/><path fill="none" stroke="#000" d="M84.893 128.641V4.473" stroke-linecap="round" stroke-linejoin="round" stroke-dasharray="2 2"/><path fill="none" stroke="#c1272d" d="M49.394 103.974V27.575h89.251" stroke-linecap="round" stroke-linejoin="round"/><path fill="#c1272d" d="M137.77 30.576l5.182-2.992-5.182-2.991z"/><path fill="none" stroke="#0071bc" d="M171.55 31.575v81.399H81.396" stroke-linecap="round" stroke-linejoin="round"/><path fill="#0071bc" d="M82.271 109.973l-5.182 2.991 5.182 2.991z"/><path fill="none" stroke="#c1272d" d="M210.895 8.576h14.5" stroke-linecap="round" stroke-linejoin="round"/><path fill="#c1272d" d="M224.52 11.577l5.181-2.992-5.181-2.991z"/><path fill="none" stroke="#0071bc" d="M210.895 20.576h14.5" stroke-linecap="round" stroke-linejoin="round"/><path fill="#0071bc" d="M224.52 23.577l5.181-2.992-5.181-2.991z"/><path fill="#fff" fill-rule="evenodd" d="M76.965 118.373c0 1.98-1.62 3.6-3.6 3.6H25.422a3.61 3.61 0 0 1-3.6-3.6v-10.799c0-1.98 1.62-3.6 3.6-3.6h47.943c1.98 0 3.6 1.62 3.6 3.6v10.799z" clip-rule="evenodd"/><path fill="none" stroke="#000" d="M76.965 118.373c0 1.98-1.62 3.6-3.6 3.6H25.422a3.61 3.61 0 0 1-3.6-3.6v-10.799c0-1.98 1.62-3.6 3.6-3.6h47.943c1.98 0 3.6 1.62 3.6 3.6v10.799z" stroke-linecap="round" stroke-linejoin="round"/><path fill="#fff" fill-rule="evenodd" d="M199.12 32.975a3.61 3.61 0 0 1-3.6 3.6h-47.943a3.61 3.61 0 0 1-3.6-3.6V22.176c0-1.98 1.62-3.6 3.6-3.6h47.943c1.98 0 3.6 1.62 3.6 3.6v10.799z" clip-rule="evenodd"/><path fill="none" stroke="#000" d="M199.12 32.975a3.61 3.61 0 0 1-3.6 3.6h-47.943a3.61 3.61 0 0 1-3.6-3.6V22.176c0-1.98 1.62-3.6 3.6-3.6h47.943c1.98 0 3.6 1.62 3.6 3.6v10.799z" stroke-linecap="round" stroke-linejoin="round"/><path d="M8.25 89.266c.11.21.18.54.18.959 0 1.319-1.059 2.259-3.348 2.259-2.658 0-3.508-1.319-3.508-2.379 0-.41.08-.699.17-.839l.649.17c-.07.16-.14.33-.14.68 0 .72.699 1.559 2.758 1.559 2.06 0 2.738-.76 2.738-1.579 0-.29-.069-.55-.149-.709l.65-.121zm-2.299-3.52c1.869 0 2.499.87 2.499 1.609 0 .87-.79 1.569-2.488 1.569-1.77 0-2.509-.79-2.509-1.619 0-.859.81-1.559 2.498-1.559zm0 2.409c.8 0 1.89-.14 1.89-.839 0-.66-1.14-.79-1.89-.79-.739 0-1.879.13-1.879.81 0 .689 1.14.819 1.879.819zm-1.169-3.27c-.569 0-.859.03-1.249.04v-.67l.579-.04v-.02c-.39-.21-.659-.6-.659-1.109 0-.669.499-1.169 1.669-1.169H8.37v.77H5.252c-.569 0-1.149.11-1.149.669 0 .32.27.629.789.729.12.02.271.03.431.03H8.37v.77H4.782zm2.788-3.92c.11-.17.25-.47.25-.78 0-.439-.27-.709-.699-.709-.37 0-.62.13-.95.62-.409.63-.819.969-1.379.969-.779 0-1.339-.58-1.339-1.329 0-.38.13-.669.25-.87l.579.21c-.12.18-.21.39-.21.64 0 .42.3.63.61.63.329 0 .509-.12.839-.6.36-.56.8-1 1.47-1 .969 0 1.438.66 1.438 1.449 0 .36-.109.75-.279.959l-.58-.189zm-.519-5.919c.54 0 .96-.03 1.319-.04v.669l-.51.05v.02c.24.15.59.52.59 1.039 0 .85-.66 1.18-1.859 1.18H3.533v-.77h2.948c.76 0 1.319-.12 1.319-.65 0-.45-.42-.649-.64-.689-.13-.03-.28-.04-.44-.04H3.533v-.77h3.518zm-2.269-1.081c-.569 0-.859.03-1.249.04v-.67l.6-.04v-.02c-.391-.21-.68-.58-.68-1.089 0-.45.22-.83.739-1.009v-.02c-.24-.13-.43-.3-.55-.48a1.163 1.163 0 0 1-.189-.669c0-.649.479-1.159 1.709-1.159H8.37v.759H5.342c-.63 0-1.239.09-1.239.68 0 .32.27.6.72.709.13.02.279.03.439.03H8.37v.759H5.202c-.54 0-1.1.1-1.1.67 0 .31.27.629.779.72.13.02.271.03.42.03H8.37v.76H4.782zm1.239-6.74c1.479-.01 1.799-.589 1.799-1.149 0-.33-.08-.609-.189-.799l.569-.12c.15.27.229.68.229 1.06 0 1.159-.949 1.759-2.429 1.759-1.568 0-2.548-.66-2.548-1.629 0-.989 1.039-1.379 2.139-1.379.18 0 .31 0 .43.01v2.247zm-.569-1.519c-.97-.02-1.399.35-1.399.72 0 .5.739.759 1.399.79v-1.51zm-3.998-4.479h5.757c.33 0 .879-.03 1.159-.04v.66l-.609.05v.03c.35.16.689.5.689 1.009 0 .82-.89 1.41-2.479 1.41-1.72 0-2.519-.71-2.519-1.459 0-.35.17-.689.579-.879v-.02H1.454v-.761zm3.918.759c-.101 0-.21 0-.32.01-.5.05-.939.35-.939.72 0 .64.89.859 1.859.859 1.02 0 1.839-.26 1.839-.819 0-.24-.13-.57-.83-.74-.09-.02-.199-.03-.319-.03h-1.29zm-3.639-3.471c-.079-.31-.13-.68-.13-1.12 0-.62.15-1.139.5-1.489.32-.33.81-.5 1.39-.5.619 0 1.039.15 1.379.41.5.37.75.99.75 1.589 0 .13 0 .23-.011.34H8.37v.77H1.733zm3.229-.769c.021-.09.03-.17.03-.3 0-.76-.5-1.27-1.449-1.27-.689 0-1.31.29-1.31 1.14 0 .18.021.33.05.43h2.679zm.989-5.879c1.869 0 2.499.87 2.499 1.609 0 .87-.79 1.569-2.488 1.569-1.77 0-2.509-.79-2.509-1.619 0-.86.81-1.559 2.498-1.559zm0 2.408c.8 0 1.89-.14 1.89-.839 0-.66-1.14-.79-1.89-.79-.739 0-1.879.13-1.879.81 0 .689 1.14.819 1.879.819zm-2.418-3.59l2.368-.47c.52-.09 1.039-.2 1.539-.26v-.04c-.5-.07-1.06-.19-1.519-.3l-2.389-.56v-.59l2.318-.529c.54-.12 1.05-.23 1.589-.31v-.04c-.51-.06-1.009-.15-1.559-.26l-2.349-.46v-.77l4.837 1.219v.63l-2.349.56c-.47.12-.899.19-1.449.27v.02c.569.08 1.02.17 1.479.28l2.318.58v.65L3.53 51.484v-.799zm2.488-5.68c1.479-.01 1.799-.589 1.799-1.149 0-.33-.08-.609-.189-.799l.569-.12c.15.27.229.68.229 1.06 0 1.159-.949 1.759-2.429 1.759-1.568 0-2.548-.66-2.548-1.629 0-.989 1.039-1.379 2.139-1.379.18 0 .31 0 .43.01v2.247zm-.569-1.519c-.97-.02-1.399.35-1.399.72 0 .5.739.76 1.399.79v-1.51zm-.67-1.561c-.41 0-.89.03-1.249.04v-.689l.759-.04v-.02c-.459-.16-.839-.57-.839-1.02 0-.06.01-.11.01-.16h.789c-.01.05-.01.1-.01.16 0 .49.45.85 1.01.93.13.02.279.03.439.03H8.37v.77H4.782zm39.271 67.247v6.736h-.77v-6.736h.77zm1.22.1c.3-.09.65-.13 1.04-.13.709 0 1.209.181 1.579.51.52.45.91 1.319.91 2.729 0 1.539-.38 2.379-.81 2.839-.44.5-1.08.729-1.859.729-.31 0-.629-.021-.859-.07v-6.607zm.769 6.007c.11.021.22.021.29.021.85 0 1.669-.61 1.669-2.898 0-1.699-.52-2.629-1.599-2.629-.12 0-.26.01-.36.04v5.466zm3.681-6.107h.77v6.087h1.899v.649h-2.668v-6.736zm5.899 3.538h-1.689v2.528h1.919v.67h-2.688v-6.736h2.569v.67h-1.799v2.219h1.689v.649zm103.281-82.32c-.21.11-.54.18-.959.18-1.319 0-2.259-1.059-2.259-3.348 0-2.658 1.319-3.508 2.379-3.508.41 0 .699.08.839.17l-.17.649c-.16-.07-.33-.14-.68-.14-.72 0-1.559.699-1.559 2.758 0 2.06.76 2.738 1.579 2.738.29 0 .55-.069.709-.149l.121.65zm3.52-2.299c0 1.869-.87 2.499-1.609 2.499-.87 0-1.569-.79-1.569-2.488 0-1.77.79-2.509 1.619-2.509.859 0 1.559.81 1.559 2.498zm-2.409 0c0 .8.14 1.89.839 1.89.66 0 .79-1.14.79-1.89 0-.739-.13-1.879-.81-1.879-.689 0-.819 1.14-.819 1.879zm3.27-1.169c0-.569-.03-.859-.04-1.249h.67l.04.579h.02c.21-.39.6-.659 1.109-.659.67 0 1.17.499 1.17 1.669v3.248h-.771v-3.118c0-.569-.109-1.149-.669-1.149-.32 0-.63.27-.729.789-.021.12-.03.271-.03.431v3.048h-.77v-3.589zm4.05 0c0-.569-.03-.859-.04-1.249h.67l.04.579h.02c.21-.39.6-.659 1.109-.659.67 0 1.17.499 1.17 1.669v3.248h-.771v-3.118c0-.569-.109-1.149-.669-1.149-.32 0-.63.27-.729.789-.021.12-.03.271-.03.431v3.048h-.77v-3.589zm4.59 1.24c.01 1.479.59 1.799 1.149 1.799.33 0 .609-.08.8-.189l.12.569c-.271.15-.68.229-1.06.229-1.159 0-1.76-.949-1.76-2.429 0-1.568.66-2.548 1.63-2.548.989 0 1.379 1.039 1.379 2.139 0 .18 0 .31-.01.43h-2.248zm1.519-.57c.02-.97-.351-1.399-.72-1.399-.5 0-.76.739-.79 1.399h1.51zm3.93 2.798c-.17.101-.46.18-.8.18-1.06 0-1.77-.85-1.77-2.448 0-1.39.7-2.519 1.909-2.519.26 0 .54.07.68.149l-.149.63a1.26 1.26 0 0 0-.55-.13c-.77 0-1.119.92-1.119 1.869 0 1.129.43 1.809 1.139 1.809.21 0 .38-.05.56-.13l.1.59zm1.75-5.996v1.279h.93v.589h-.93v2.869c0 .629.23.799.51.799.12 0 .221-.01.311-.029l.029.59c-.14.05-.319.079-.569.079-.3 0-.569-.079-.76-.289-.189-.221-.29-.55-.29-1.22v-2.799h-.589v-.589h.589v-1.06l.769-.219zm2.07 3.768c.01 1.479.59 1.799 1.149 1.799.33 0 .609-.08.8-.189l.12.569c-.271.15-.68.229-1.06.229-1.159 0-1.76-.949-1.76-2.429 0-1.568.66-2.548 1.63-2.548.989 0 1.379 1.039 1.379 2.139 0 .18 0 .31-.01.43h-2.248zm1.52-.57c.02-.97-.351-1.399-.72-1.399-.5 0-.76.739-.79 1.399h1.51zm4.479-3.998v5.757c0 .33.029.879.04 1.159h-.66l-.05-.609h-.03c-.16.35-.5.689-1.009.689-.82 0-1.41-.89-1.41-2.479 0-1.72.71-2.519 1.46-2.519.35 0 .689.17.879.579h.021v-2.578h.759zm-.759 3.918c0-.101 0-.21-.01-.32-.051-.5-.351-.939-.72-.939-.64 0-.859.89-.859 1.859 0 1.02.26 1.839.819 1.839.239 0 .569-.13.739-.83.021-.09.03-.199.03-.319v-1.29zM28.664 17.575l.59-3.179c.14-.699.21-1.269.26-1.658h.63l-.08.77h.02c.39-.59.81-.85 1.299-.85.6 0 .83.47.83.979 0 .279-.04.51-.09.789l-.59 3.148h-.72l.59-3.139c.04-.22.07-.419.07-.669 0-.29-.12-.49-.42-.49-.45 0-.989.689-1.169 1.609l-.51 2.688h-.71zm7.338-3.338c0 1.219-.6 3.418-2.079 3.418-.899 0-1.18-.779-1.18-1.64 0-1.299.7-3.357 2.139-3.357.97 0 1.12.929 1.12 1.579zm-2.528 1.709c0 .55.04 1.119.549 1.119.88 0 1.25-2.059 1.25-2.878 0-.5-.09-.93-.51-.93-.8.001-1.289 1.74-1.289 2.689zm6.559 1.549c-.18.08-.459.14-.79.14-.969 0-1.319-.789-1.319-1.729 0-1.409.83-3.238 2.409-3.238.21 0 .38.03.48.08l-.19.619c-.1-.029-.21-.069-.36-.069-1.009 0-1.599 1.438-1.599 2.528 0 .71.21 1.189.77 1.189.19 0 .4-.05.59-.12l.009.6zm3.859-3.258c0 1.219-.6 3.418-2.079 3.418-.9 0-1.18-.779-1.18-1.64 0-1.299.7-3.357 2.139-3.357.97 0 1.12.929 1.12 1.579zm-2.528 1.709c0 .55.04 1.119.549 1.119.88 0 1.25-2.059 1.25-2.878 0-.5-.09-.93-.51-.93-.799.001-1.289 1.74-1.289 2.689zm2.809 1.629l.59-3.179c.14-.699.21-1.269.26-1.658h.63l-.08.77h.02c.39-.59.81-.85 1.299-.85.6 0 .83.47.83.979 0 .279-.04.51-.09.789l-.59 3.148h-.72l.59-3.139c.04-.22.07-.419.07-.669 0-.29-.12-.49-.42-.49-.45 0-.989.689-1.169 1.609l-.51 2.688h-.71zm3.931 0l.59-3.179c.14-.699.21-1.269.26-1.658h.63l-.08.77h.02c.39-.59.81-.85 1.299-.85.6 0 .83.47.83.979 0 .279-.04.51-.09.789l-.59 3.148h-.72l.59-3.139c.04-.22.07-.419.07-.669 0-.29-.12-.49-.42-.49-.45 0-.989.689-1.169 1.609l-.51 2.688h-.71zm6.588-.24c-.35.19-.72.3-1.139.3-1.02 0-1.35-.779-1.35-1.709 0-1.309.73-3.268 2.109-3.268.71 0 1 .539 1 1.099 0 1.17-1.04 1.67-2.359 1.68-.02.14-.05.68.03.97.11.409.36.629.74.629.379 0 .64-.13.859-.26l.11.559zm-.49-4.058c-.43 0-.89.53-1.149 1.579.77-.01 1.579-.27 1.579-1.049 0-.339-.14-.53-.43-.53zm3.49 4.218c-.18.08-.459.14-.79.14-.969 0-1.319-.789-1.319-1.729 0-1.409.83-3.238 2.409-3.238.21 0 .38.03.48.08l-.19.619c-.1-.029-.21-.069-.36-.069-1.009 0-1.599 1.438-1.599 2.528 0 .71.21 1.189.77 1.189.19 0 .4-.05.59-.12l.009.6zm2.72-6.026l-.26 1.27h.919l-.11.56h-.91l-.52 2.758c-.05.26-.07.48-.07.61 0 .239.09.369.33.369.13 0 .21 0 .3-.02l-.06.56c-.17.05-.36.07-.52.07-.51 0-.81-.3-.81-.78 0-.189.02-.39.1-.779l.529-2.788h-.58l.1-.56h.59l.2-1.05.772-.22zm.401 6.106l.919-4.837h.72l-.929 4.837h-.71zm1.089-6.066c.01-.26.21-.51.48-.51.28 0 .41.21.39.47-.02.33-.24.51-.5.51s-.399-.191-.37-.47zm4.109 2.728c0 1.219-.6 3.418-2.079 3.418-.9 0-1.18-.779-1.18-1.64 0-1.299.7-3.357 2.139-3.357.97 0 1.12.929 1.12 1.579zm-2.528 1.709c0 .55.04 1.119.549 1.119.88 0 1.25-2.059 1.25-2.878 0-.5-.09-.93-.51-.93-.799.001-1.289 1.74-1.289 2.689zm2.81 1.629l.59-3.179c.14-.699.21-1.269.26-1.658h.63l-.08.77h.02c.39-.59.81-.85 1.299-.85.6 0 .83.47.83.979 0 .279-.04.51-.09.789l-.59 3.148h-.72l.59-3.139c.04-.22.07-.419.07-.669 0-.29-.12-.49-.42-.49-.45 0-.989.689-1.169 1.609l-.51 2.688h-.71zm26.429-.08c-.18.08-.459.14-.79.14-.969 0-1.319-.789-1.319-1.729 0-1.409.83-3.238 2.409-3.238.21 0 .38.03.48.08l-.19.619c-.1-.029-.21-.069-.36-.069-1.009 0-1.599 1.438-1.599 2.528 0 .71.21 1.189.77 1.189.19 0 .4-.05.59-.12l.009.6zm3.86-3.258c0 1.219-.6 3.418-2.079 3.418-.9 0-1.18-.779-1.18-1.64 0-1.299.7-3.357 2.139-3.357.97 0 1.12.929 1.12 1.579zm-2.529 1.709c0 .55.04 1.119.549 1.119.88 0 1.25-2.059 1.25-2.878 0-.5-.09-.93-.51-.93-.799.001-1.289 1.74-1.289 2.689zm2.81 1.629l.59-3.179c.14-.699.21-1.269.26-1.658h.63l-.08.77h.02c.39-.59.81-.85 1.299-.85.6 0 .83.47.83.979 0 .279-.04.51-.09.789l-.59 3.148h-.72l.59-3.139c.04-.22.07-.419.07-.669 0-.29-.12-.49-.42-.49-.45 0-.989.689-1.169 1.609l-.51 2.688h-.71zm3.93 0l.59-3.179c.14-.699.21-1.269.26-1.658h.63l-.08.77h.02c.39-.59.81-.85 1.299-.85.6 0 .83.47.83.979 0 .279-.04.51-.09.789l-.59 3.148h-.72l.59-3.139c.04-.22.07-.419.07-.669 0-.29-.12-.49-.42-.49-.45 0-.989.689-1.169 1.609l-.51 2.688h-.71zm6.589-.24c-.35.19-.72.3-1.139.3-1.02 0-1.35-.779-1.35-1.709 0-1.309.73-3.268 2.109-3.268.709 0 1 .539 1 1.099 0 1.17-1.04 1.67-2.359 1.68-.02.14-.05.68.03.97.11.409.36.629.74.629.379 0 .64-.13.859-.26l.11.559zm-.49-4.058c-.43 0-.89.53-1.149 1.579.77-.01 1.579-.27 1.579-1.049 0-.339-.14-.53-.43-.53zm3.49 4.218c-.18.08-.459.14-.79.14-.969 0-1.319-.789-1.319-1.729 0-1.409.83-3.238 2.409-3.238.21 0 .38.03.48.08l-.19.619c-.1-.029-.21-.069-.36-.069-1.009 0-1.599 1.438-1.599 2.528 0 .71.21 1.189.77 1.189.19 0 .4-.05.59-.12l.009.6zm2.72-6.026l-.26 1.27h.919l-.11.56h-.91l-.52 2.758c-.05.26-.07.48-.07.61 0 .239.09.369.33.369.13 0 .21 0 .3-.02l-.06.56c-.17.05-.36.07-.52.07-.51 0-.81-.3-.81-.78 0-.189.02-.39.1-.779l.529-2.788h-.58l.1-.56h.59l.2-1.05.772-.22zm2.95 5.866c-.35.19-.72.3-1.139.3-1.02 0-1.35-.779-1.35-1.709 0-1.309.73-3.268 2.109-3.268.709 0 1 .539 1 1.099 0 1.17-1.04 1.67-2.359 1.68-.02.14-.05.68.03.97.11.409.36.629.74.629.379 0 .64-.13.859-.26l.11.559zm-.49-4.058c-.43 0-.89.53-1.149 1.579.77-.01 1.579-.27 1.579-1.049 0-.339-.14-.53-.43-.53zm5.269-2.618l-.99 5.217c-.1.53-.2 1.239-.22 1.699h-.62l.06-.76h-.02c-.24.5-.69.84-1.16.84-.609 0-.979-.569-.979-1.449 0-1.649.87-3.548 2.289-3.548.19 0 .39.08.51.18l.41-2.179h.72zm-1.269 2.809a.523.523 0 0 0-.45-.22c-.93 0-1.469 1.828-1.469 2.818 0 .569.13.969.53.969.35 0 .819-.439 1.009-1.398l.38-2.169zm115.177-8.474v5.186c0 .297.026.792.035 1.044h-.594l-.045-.549h-.027c-.145.314-.45.621-.909.621-.738 0-1.27-.802-1.27-2.233 0-1.548.64-2.269 1.314-2.269.315 0 .622.153.792.522h.019V4.994h.685zm-.684 3.528c0-.09 0-.188-.009-.288-.045-.45-.315-.846-.648-.846-.576 0-.774.801-.774 1.674 0 .919.233 1.657.738 1.657.216 0 .513-.117.666-.747.019-.081.027-.181.027-.288V8.522zm3.374 2.701l-.045-.459h-.026c-.188.333-.495.531-.864.531-.586 0-1.035-.495-1.035-1.242 0-1.09.873-1.576 1.854-1.585v-.135c0-.585-.143-.99-.692-.99-.271 0-.513.09-.72.225l-.154-.486c.181-.135.586-.288 1.018-.288.873 0 1.252.576 1.252 1.558v1.882c0 .333 0 .711.045.99h-.633zm-.099-2.251c-.36 0-1.197.063-1.197 1.009 0 .567.288.774.531.774.306 0 .567-.226.647-.657.019-.081.019-.171.019-.243v-.883zm2.421-3.259v1.152h.838v.531h-.838V9.98c0 .567.207.72.459.72.108 0 .199-.009.279-.026l.027.531a1.524 1.524 0 0 1-.514.071c-.27 0-.513-.071-.684-.261-.172-.198-.262-.495-.262-1.099V7.397h-.531v-.531h.531v-.954l.695-.199zm3.168 5.51l-.045-.459h-.026c-.188.333-.495.531-.864.531-.586 0-1.035-.495-1.035-1.242 0-1.09.873-1.576 1.854-1.585v-.135c0-.585-.143-.99-.692-.99-.271 0-.513.09-.72.225l-.154-.486c.181-.135.586-.288 1.018-.288.873 0 1.252.576 1.252 1.558v1.882c0 .333 0 .711.045.99h-.633zm-.099-2.251c-.36 0-1.197.063-1.197 1.009 0 .567.288.774.531.774.306 0 .567-.226.647-.657.019-.081.019-.171.019-.243v-.883zm3.915-3.259v1.152h.837v.531h-.837V9.98c0 .567.207.72.459.72.107 0 .198-.009.279-.026l.027.531a1.532 1.532 0 0 1-.514.071c-.27 0-.514-.071-.684-.261-.172-.198-.262-.495-.262-1.099V7.397h-.531v-.531h.531v-.954l.695-.199zm1.44 2.278c0-.368-.027-.801-.036-1.125h.622l.035.685h.018c.145-.414.514-.757.919-.757.054 0 .099.01.144.01v.711c-.045-.009-.09-.009-.144-.009-.441 0-.765.404-.837.909a2.524 2.524 0 0 0-.027.396v2.413h-.693V7.991zm3.906 3.232l-.045-.459h-.027c-.189.333-.494.531-.863.531-.586 0-1.036-.495-1.036-1.242 0-1.09.874-1.576 1.854-1.585v-.135c0-.585-.145-.99-.693-.99-.27 0-.513.09-.72.225l-.153-.486c.18-.135.586-.288 1.018-.288.873 0 1.252.576 1.252 1.558v1.882c0 .333 0 .711.045.99h-.632zm-.1-2.251c-.359 0-1.197.063-1.197 1.009 0 .567.289.774.531.774.307 0 .568-.226.648-.657.018-.081.018-.171.018-.243v-.883zm1.657-.981c0-.513-.027-.773-.036-1.125h.603l.037.522h.018c.189-.352.54-.595.999-.595.604 0 1.054.45 1.054 1.504v2.926h-.693V8.415c0-.514-.1-1.035-.604-1.035-.287 0-.566.243-.656.711a2.331 2.331 0 0 0-.027.387v2.746h-.693V7.991zm3.527 2.512c.153.099.424.225.703.225.396 0 .639-.243.639-.63 0-.333-.117-.559-.559-.855-.566-.369-.873-.738-.873-1.242 0-.702.522-1.207 1.197-1.207.342 0 .604.117.783.226l-.188.522a1.024 1.024 0 0 0-.576-.189.534.534 0 0 0-.567.549c0 .298.107.459.54.757.505.324.9.72.9 1.323 0 .873-.595 1.296-1.306 1.296-.324 0-.675-.099-.863-.252l.17-.523zm2.863.72V7.397h-.55v-.531h.55v-.261c0-.469.071-.954.387-1.314a1.18 1.18 0 0 1 .873-.369c.234 0 .414.045.54.107l-.117.541a.898.898 0 0 0-.378-.072c-.495 0-.612.531-.612 1.099v.27h.792v.531h-.792v3.826h-.693zm2.367-2.115c.009 1.332.531 1.62 1.036 1.62.297 0 .549-.072.72-.171l.108.513c-.244.136-.613.207-.955.207-1.044 0-1.584-.854-1.584-2.188 0-1.413.594-2.296 1.467-2.296.892 0 1.242.937 1.242 1.927 0 .162 0 .279-.008.388h-2.026zm1.368-.514c.019-.873-.314-1.261-.648-1.261-.449 0-.684.667-.711 1.261h1.359zm1.404-.603c0-.368-.027-.801-.037-1.125h.622l.036.685h.018c.145-.414.514-.757.918-.757.055 0 .1.01.145.01v.711c-.045-.009-.09-.009-.145-.009-.441 0-.765.404-.837.909a2.53 2.53 0 0 0-.026.396v2.413h-.693V7.991zm-32.201 9.722v1.152h.836v.531h-.836v2.584c0 .567.207.72.459.72.107 0 .197-.009.279-.026l.026.531a1.522 1.522 0 0 1-.513.071c-.271 0-.514-.071-.685-.261-.171-.198-.261-.495-.261-1.099v-2.521h-.531v-.531h.531v-.954l.695-.197zm2.195.028c.009.27-.162.45-.424.45-.225 0-.396-.181-.396-.45 0-.271.181-.45.405-.45.253-.001.415.179.415.45zm-.747 5.482v-4.357h.692v4.357h-.692zm1.655-3.232c0-.513-.027-.773-.035-1.125h.603l.036.54h.018c.189-.351.522-.612.982-.612.404 0 .746.198.908.667h.019c.116-.217.271-.388.433-.495.17-.117.377-.172.603-.172.585 0 1.044.433 1.044 1.54v2.89h-.684v-2.728c0-.567-.082-1.116-.612-1.116-.288 0-.54.243-.64.647a2.65 2.65 0 0 0-.027.396v2.8h-.684V20.37c0-.486-.09-.99-.604-.99-.279 0-.566.243-.648.702a2.494 2.494 0 0 0-.026.378v2.764h-.685v-3.233zm6.067 1.117c.01 1.332.531 1.62 1.035 1.62.297 0 .549-.072.721-.171l.107.513c-.242.136-.611.207-.954.207-1.044 0-1.585-.854-1.585-2.188 0-1.413.595-2.296 1.469-2.296.891 0 1.242.937 1.242 1.927 0 .162 0 .279-.01.388h-2.025zm1.369-.514c.018-.873-.316-1.261-.648-1.261-.451 0-.685.667-.711 1.261h1.359zm4.086.45c0 1.684-.783 2.251-1.449 2.251-.783 0-1.414-.712-1.414-2.242 0-1.593.711-2.26 1.459-2.26.773 0 1.404.73 1.404 2.251zm-2.17 0c0 .721.126 1.701.756 1.701.595 0 .711-1.026.711-1.701 0-.666-.116-1.692-.729-1.692-.621 0-.738 1.026-.738 1.692zm5.553.991c0 .486.027.864.037 1.188h-.604l-.045-.459h-.018c-.136.216-.469.531-.938.531-.765 0-1.062-.595-1.062-1.675v-2.755h.692v2.656c0 .684.109 1.188.586 1.188.405 0 .585-.379.621-.576.027-.117.036-.253.036-.396v-2.872h.692v3.17zm1.818-4.322v1.152h.837v.531h-.837v2.584c0 .567.207.72.459.72.107 0 .198-.009.279-.026l.027.531a1.532 1.532 0 0 1-.514.071c-.27 0-.514-.071-.684-.261-.172-.198-.262-.495-.262-1.099v-2.521h-.531v-.531h.531v-.954l.695-.197z"/></svg>