<svg xmlns="http://www.w3.org/2000/svg" viewBox="0 0 320.949 68.863"><path fill="#ecbec0" fill-rule="evenodd" d="M30.74 34.627h6.372v6.372H30.74z" clip-rule="evenodd"/><path fill="none" stroke="#000" stroke-width=".5" d="M30.74 34.627h6.372v6.372H30.74z" stroke-linecap="round" stroke-linejoin="round"/><path fill="#ecbec0" fill-rule="evenodd" d="M37.112 34.627h6.372v6.372h-6.372z" clip-rule="evenodd"/><path fill="none" stroke="#000" stroke-width=".5" d="M37.112 34.627h6.372v6.372h-6.372z" stroke-linecap="round" stroke-linejoin="round"/><path fill="#ecbec0" fill-rule="evenodd" d="M43.484 34.627h6.372v6.372h-6.372z" clip-rule="evenodd"/><path fill="none" stroke="#000" stroke-width=".5" d="M43.484 34.627h6.372v6.372h-6.372z" stroke-linecap="round" stroke-linejoin="round"/><path fill="#ecbec0" fill-rule="evenodd" d="M49.856 34.627h6.372v6.372h-6.372z" clip-rule="evenodd"/><path fill="none" stroke="#000" stroke-width=".5" d="M49.856 34.627h6.372v6.372h-6.372z" stroke-linecap="round" stroke-linejoin="round"/><path fill="#fddfbb" fill-rule="evenodd" d="M56.229 34.627h6.372v6.372h-6.372z" clip-rule="evenodd"/><path fill="none" stroke="#000" stroke-width=".5" d="M56.229 34.627h6.372v6.372h-6.372z" stroke-linecap="round" stroke-linejoin="round"/><path fill="#fddfbb" fill-rule="evenodd" d="M62.6 34.627h6.372v6.372H62.6z" clip-rule="evenodd"/><path fill="none" stroke="#000" stroke-width=".5" d="M62.6 34.627h6.372v6.372H62.6z" stroke-linecap="round" stroke-linejoin="round"/><path fill="#fddfbb" fill-rule="evenodd" d="M68.973 34.627h6.372v6.372h-6.372z" clip-rule="evenodd"/><path fill="none" stroke="#000" stroke-width=".5" d="M68.973 34.627h6.372v6.372h-6.372z" stroke-linecap="round" stroke-linejoin="round"/><path fill="#fddfbb" fill-rule="evenodd" d="M75.345 34.627h6.372v6.372h-6.372z" clip-rule="evenodd"/><path fill="none" stroke="#000" stroke-width=".5" d="M75.345 34.627h6.372v6.372h-6.372z" stroke-linecap="round" stroke-linejoin="round"/><path fill="#fddfbb" fill-rule="evenodd" d="M81.717 34.627h6.372v6.372h-6.372z" clip-rule="evenodd"/><path fill="none" stroke="#000" stroke-width=".5" d="M81.717 34.627h6.372v6.372h-6.372z" stroke-linecap="round" stroke-linejoin="round"/><path fill="#fddfbb" fill-rule="evenodd" d="M88.089 34.627h6.372v6.372h-6.372z" clip-rule="evenodd"/><path fill="none" stroke="#000" stroke-width=".5" d="M88.089 34.627h6.372v6.372h-6.372z" stroke-linecap="round" stroke-linejoin="round"/><path fill="#fddfbb" fill-rule="evenodd" d="M94.461 34.627h6.372v6.372h-6.372z" clip-rule="evenodd"/><path fill="none" stroke="#000" stroke-width=".5" d="M94.461 34.627h6.372v6.372h-6.372z" stroke-linecap="round" stroke-linejoin="round"/><path fill="#fddfbb" fill-rule="evenodd" d="M100.833 34.627h6.372v6.372h-6.372z" clip-rule="evenodd"/><path fill="none" stroke="#000" stroke-width=".5" d="M100.833 34.627h6.372v6.372h-6.372z" stroke-linecap="round" stroke-linejoin="round"/><path fill="#fddfbb" fill-rule="evenodd" d="M107.205 34.627h6.372v6.372h-6.372z" clip-rule="evenodd"/><path fill="none" stroke="#000" stroke-width=".5" d="M107.205 34.627h6.372v6.372h-6.372z" stroke-linecap="round" stroke-linejoin="round"/><path fill="#fddfbb" fill-rule="evenodd" d="M113.577 34.627h6.372v6.372h-6.372z" clip-rule="evenodd"/><path fill="none" stroke="#000" stroke-width=".5" d="M113.577 34.627h6.372v6.372h-6.372z" stroke-linecap="round" stroke-linejoin="round"/><path fill="#b2d4eb" fill-rule="evenodd" d="M119.952 34.627h6.372v6.372h-6.372z" clip-rule="evenodd"/><path fill="none" stroke="#000" stroke-width=".5" d="M119.952 34.627h6.372v6.372h-6.372z" stroke-linecap="round" stroke-linejoin="round"/><path fill="#b2d4eb" fill-rule="evenodd" d="M126.321 34.627h6.372v6.372h-6.372z" clip-rule="evenodd"/><path fill="none" stroke="#000" stroke-width=".5" d="M126.321 34.627h6.372v6.372h-6.372z" stroke-linecap="round" stroke-linejoin="round"/><path fill="#fff" fill-rule="evenodd" d="M132.693 34.627h6.372v6.372h-6.372z" clip-rule="evenodd"/><path fill="none" stroke="#000" stroke-width=".5" d="M132.693 34.627h6.372v6.372h-6.372z" stroke-linecap="round" stroke-linejoin="round"/><path fill="#fff" fill-rule="evenodd" d="M139.065 34.627h6.372v6.372h-6.372z" clip-rule="evenodd"/><path fill="none" stroke="#000" stroke-width=".5" d="M139.065 34.627h6.372v6.372h-6.372z" stroke-linecap="round" stroke-linejoin="round"/><path fill="#fff" fill-rule="evenodd" d="M145.438 34.627h6.372v6.372h-6.372z" clip-rule="evenodd"/><path fill="none" stroke="#000" stroke-width=".5" d="M145.438 34.627h6.372v6.372h-6.372z" stroke-linecap="round" stroke-linejoin="round"/><path fill="#fff" fill-rule="evenodd" d="M151.809 34.627h6.372v6.372h-6.372z" clip-rule="evenodd"/><path fill="none" stroke="#000" stroke-width=".5" d="M151.809 34.627h6.372v6.372h-6.372z" stroke-linecap="round" stroke-linejoin="round"/><path fill="#b2d4eb" fill-rule="evenodd" d="M158.182 34.627h6.372v6.372h-6.372z" clip-rule="evenodd"/><path fill="none" stroke="#000" stroke-width=".5" d="M158.182 34.627h6.372v6.372h-6.372z" stroke-linecap="round" stroke-linejoin="round"/><path fill="#b2d4eb" fill-rule="evenodd" d="M164.554 34.627h6.372v6.372h-6.372z" clip-rule="evenodd"/><path fill="none" stroke="#000" stroke-width=".5" d="M164.554 34.627h6.372v6.372h-6.372z" stroke-linecap="round" stroke-linejoin="round"/><path fill="#fff" fill-rule="evenodd" d="M170.926 34.627h6.372v6.372h-6.372z" clip-rule="evenodd"/><path fill="none" stroke="#000" stroke-width=".5" d="M170.926 34.627h6.372v6.372h-6.372z" stroke-linecap="round" stroke-linejoin="round"/><path fill="#fff" fill-rule="evenodd" d="M177.298 34.627h6.372v6.372h-6.372z" clip-rule="evenodd"/><path fill="none" stroke="#000" stroke-width=".5" d="M177.298 34.627h6.372v6.372h-6.372z" stroke-linecap="round" stroke-linejoin="round"/><path fill="#fff" fill-rule="evenodd" d="M183.67 34.627h6.372v6.372h-6.372z" clip-rule="evenodd"/><path fill="none" stroke="#000" stroke-width=".5" d="M183.67 34.627h6.372v6.372h-6.372z" stroke-linecap="round" stroke-linejoin="round"/><path fill="#fff" fill-rule="evenodd" d="M190.045 34.627h6.372v6.372h-6.372z" clip-rule="evenodd"/><path fill="none" stroke="#000" stroke-width=".5" d="M190.045 34.627h6.372v6.372h-6.372z" stroke-linecap="round" stroke-linejoin="round"/><path fill="#b2d4eb" fill-rule="evenodd" d="M196.414 34.627h6.372v6.372h-6.372z" clip-rule="evenodd"/><path fill="none" stroke="#000" stroke-width=".5" d="M196.414 34.627h6.372v6.372h-6.372z" stroke-linecap="round" stroke-linejoin="round"/><path fill="#b2d4eb" fill-rule="evenodd" d="M202.786 34.627h6.372v6.372h-6.372z" clip-rule="evenodd"/><path fill="none" stroke="#000" stroke-width=".5" d="M202.786 34.627h6.372v6.372h-6.372z" stroke-linecap="round" stroke-linejoin="round"/><path fill="#fff" fill-rule="evenodd" d="M209.158 34.627h6.372v6.372h-6.372z" clip-rule="evenodd"/><path fill="none" stroke="#000" stroke-width=".5" d="M209.158 34.627h6.372v6.372h-6.372z" stroke-linecap="round" stroke-linejoin="round"/><path fill="#fff" fill-rule="evenodd" d="M215.53 34.627h6.372v6.372h-6.372z" clip-rule="evenodd"/><path fill="none" stroke="#000" stroke-width=".5" d="M215.53 34.627h6.372v6.372h-6.372z" stroke-linecap="round" stroke-linejoin="round"/><path fill="#fff" fill-rule="evenodd" d="M221.902 34.627h6.372v6.372h-6.372z" clip-rule="evenodd"/><path fill="none" stroke="#000" stroke-width=".5" d="M221.902 34.627h6.372v6.372h-6.372z" stroke-linecap="round" stroke-linejoin="round"/><path fill="#fff" fill-rule="evenodd" d="M228.274 34.627h6.372v6.372h-6.372z" clip-rule="evenodd"/><path fill="none" stroke="#000" stroke-width=".5" d="M228.274 34.627h6.372v6.372h-6.372z" stroke-linecap="round" stroke-linejoin="round"/><path fill="#fff" fill-rule="evenodd" d="M234.646 34.627h6.372v6.372h-6.372z" clip-rule="evenodd"/><path fill="none" stroke="#000" stroke-width=".5" d="M234.646 34.627h6.372v6.372h-6.372z" stroke-linecap="round" stroke-linejoin="round"/><path fill="#fff" fill-rule="evenodd" d="M241.018 34.627h6.372v6.372h-6.372z" clip-rule="evenodd"/><path fill="none" stroke="#000" stroke-width=".5" d="M241.018 34.627h6.372v6.372h-6.372z" stroke-linecap="round" stroke-linejoin="round"/><path fill="#fff" fill-rule="evenodd" d="M247.391 34.627h6.372v6.372h-6.372z" clip-rule="evenodd"/><path fill="none" stroke="#000" stroke-width=".5" d="M247.391 34.627h6.372v6.372h-6.372z" stroke-linecap="round" stroke-linejoin="round"/><path fill="#fff" fill-rule="evenodd" d="M253.763 34.627h6.372v6.372h-6.372z" clip-rule="evenodd"/><path fill="none" stroke="#000" stroke-width=".5" d="M253.763 34.627h6.372v6.372h-6.372z" stroke-linecap="round" stroke-linejoin="round"/><path fill="#b2d4eb" fill-rule="evenodd" d="M260.135 34.627h6.372v6.372h-6.372z" clip-rule="evenodd"/><path fill="none" stroke="#000" stroke-width=".5" d="M260.135 34.627h6.372v6.372h-6.372z" stroke-linecap="round" stroke-linejoin="round"/><path fill="#b2d4eb" fill-rule="evenodd" d="M266.507 34.627h6.372v6.372h-6.372z" clip-rule="evenodd"/><path fill="none" stroke="#000" stroke-width=".5" d="M266.507 34.627h6.372v6.372h-6.372z" stroke-linecap="round" stroke-linejoin="round"/><path fill="#fff" fill-rule="evenodd" d="M272.879 34.627h6.372v6.372h-6.372z" clip-rule="evenodd"/><path fill="none" stroke="#000" stroke-width=".5" d="M272.879 34.627h6.372v6.372h-6.372z" stroke-linecap="round" stroke-linejoin="round"/><path fill="#fff" fill-rule="evenodd" d="M279.251 34.627h6.372v6.372h-6.372z" clip-rule="evenodd"/><path fill="none" stroke="#000" stroke-width=".5" d="M279.251 34.627h6.372v6.372h-6.372z" stroke-linecap="round" stroke-linejoin="round"/><path fill="#fff" fill-rule="evenodd" d="M285.623 34.627h6.372v6.372h-6.372z" clip-rule="evenodd"/><path fill="none" stroke="#000" stroke-width=".5" d="M285.623 34.627h6.372v6.372h-6.372z" stroke-linecap="round" stroke-linejoin="round"/><path fill="none" stroke="#000" d="M35.859 24.375h15.245"/><path d="M50.229 27.376l5.181-2.992-5.181-2.991zm-13.495-6.002l-5.181 2.992 5.181 2.991z"/><path fill="none" stroke="#000" stroke-width=".5" d="M30.737 32.75V16m25.488 16.75V16" clip-rule="evenodd" stroke-linecap="round" stroke-linejoin="round"/><path fill="none" stroke="#000" d="M125.074 24.375h15.245"/><path d="M139.444 27.376l5.182-2.992-5.182-2.991zm-13.494-6.002l-5.182 2.992 5.182 2.991z"/><path fill="none" stroke="#000" stroke-width=".5" d="M119.953 32.75V16" clip-rule="evenodd" stroke-linecap="round" stroke-linejoin="round"/><path fill="none" stroke="#000" stroke-width=".5" d="M119.953 59.75V43" clip-rule="evenodd" stroke-linecap="round" stroke-linejoin="round" stroke-dasharray="1 1"/><path fill="none" stroke="#000" stroke-width=".5" d="M145.441 32.75V16" clip-rule="evenodd" stroke-linecap="round" stroke-linejoin="round"/><path fill="none" stroke="#000" d="M202.154 24.375h52.245"/><path d="M253.524 27.376l5.181-2.992-5.181-2.991zm-50.495-6.002l-5.18 2.992 5.18 2.991z"/><path fill="none" stroke="#000" stroke-width=".5" d="M196.417 32.75V16m63.721 16.75V16" clip-rule="evenodd" stroke-linecap="round" stroke-linejoin="round"/><path d="M38.286 1.387c.24-.071.52-.104.831-.104.568 0 .968.144 1.264.408.416.359.728 1.055.728 2.183 0 1.231-.304 1.902-.647 2.271-.352.399-.864.584-1.487.584-.248 0-.504-.017-.688-.057V1.387zm.615 4.805c.088.017.176.017.232.017.68 0 1.335-.488 1.335-2.319 0-1.359-.416-2.103-1.279-2.103-.096 0-.208.008-.288.032v4.373zm4.424.504l-.04-.408h-.024c-.168.296-.44.472-.768.472-.52 0-.919-.439-.919-1.103 0-.968.775-1.399 1.647-1.407v-.12c0-.52-.128-.88-.616-.88-.24 0-.456.08-.64.2l-.135-.431c.16-.12.52-.256.903-.256.775 0 1.111.512 1.111 1.383v1.671c0 .296 0 .632.04.88h-.559zm-.088-1.999c-.32 0-1.063.056-1.063.896 0 .504.256.688.472.688.272 0 .504-.199.576-.583.016-.072.016-.152.016-.217v-.784zm2.152-2.894v1.023h.743v.472h-.743v2.295c0 .504.184.64.408.64.096 0 .176-.008.248-.023l.024.472c-.112.04-.256.063-.456.063-.24 0-.456-.063-.607-.231-.152-.176-.232-.44-.232-.976v-2.24h-.472v-.472h.472v-.847l.615-.176zm2.816 4.893l-.04-.408h-.024c-.168.296-.44.472-.768.472-.52 0-.919-.439-.919-1.103 0-.968.775-1.399 1.647-1.407v-.12c0-.52-.128-.88-.616-.88-.24 0-.456.08-.64.2l-.136-.432c.16-.12.52-.256.903-.256.775 0 1.111.512 1.111 1.383v1.671c0 .296 0 .632.04.88h-.558zm-.088-1.999c-.32 0-1.063.056-1.063.896 0 .504.256.688.472.688.272 0 .504-.199.576-.583.016-.072.016-.152.016-.217v-.784zM35.101 9.803v1.023h.743v.472h-.743v2.295c0 .504.184.64.408.64.096 0 .176-.008.248-.023l.024.472c-.112.04-.256.063-.456.063-.24 0-.456-.063-.607-.231-.152-.176-.232-.44-.232-.976v-2.239h-.472v-.472h.472v-.848l.615-.176zm1.28 2.023c0-.328-.024-.712-.032-1h.552l.032.607h.016c.128-.367.456-.671.816-.671.048 0 .088.008.128.008v.632c-.04-.008-.08-.008-.128-.008-.392 0-.68.359-.744.807a2.37 2.37 0 0 0-.024.353v2.143h-.616v-2.871zm3.471 2.87l-.04-.408h-.024c-.168.296-.44.472-.768.472-.52 0-.919-.439-.919-1.103 0-.968.775-1.399 1.647-1.407v-.12c0-.52-.128-.88-.616-.88-.24 0-.456.08-.64.2l-.136-.432c.16-.12.52-.256.903-.256.775 0 1.111.512 1.111 1.383v1.671c0 .296 0 .632.04.88h-.558zm-.088-1.999c-.32 0-1.063.056-1.063.896 0 .504.256.688.472.688.272 0 .504-.199.576-.583.016-.072.016-.152.016-.217v-.784zm1.473-.871c0-.456-.024-.688-.032-1h.536l.032.464h.016a.982.982 0 0 1 .888-.527c.536 0 .936.399.936 1.335v2.599h-.616v-2.495c0-.455-.088-.919-.536-.919-.256 0-.504.216-.584.632a2.173 2.173 0 0 0-.024.344v2.438h-.616v-2.871zm3.136 2.231c.136.088.376.2.624.2.352 0 .567-.216.567-.56 0-.296-.104-.496-.496-.76-.504-.328-.775-.656-.775-1.104 0-.624.463-1.071 1.063-1.071.304 0 .536.104.695.199l-.168.464a.91.91 0 0 0-.512-.168.473.473 0 0 0-.503.488c0 .264.096.407.479.672.448.287.8.64.8 1.175 0 .775-.528 1.151-1.16 1.151-.288 0-.6-.088-.768-.224l.154-.462zm2.543.639v-3.398h-.488v-.472h.488v-.231c0-.416.064-.848.344-1.168a1.05 1.05 0 0 1 .776-.327c.208 0 .368.04.479.096l-.104.479a.8.8 0 0 0-.335-.063c-.44 0-.544.472-.544.976v.239h.704v.472h-.704v3.398h-.616zm2.105-1.879c.008 1.184.472 1.439.919 1.439.264 0 .488-.064.64-.152l.096.456c-.216.12-.543.184-.848.184-.927 0-1.407-.76-1.407-1.942 0-1.256.528-2.039 1.303-2.039.792 0 1.104.831 1.104 1.711 0 .144 0 .248-.008.344h-1.799zm1.215-.456c.016-.775-.28-1.119-.575-1.119-.4 0-.608.592-.632 1.119h1.207zm1.249-.535c0-.328-.024-.712-.032-1h.552l.032.607h.016c.128-.367.456-.671.816-.671.048 0 .088.008.128.008v.632c-.04-.008-.08-.008-.128-.008-.392 0-.68.359-.744.807a2.37 2.37 0 0 0-.024.353v2.143h-.616v-2.871zm74.868-5.842c.184.12.503.216.775.216.56 0 .896-.367.896-.911 0-.496-.288-.8-.711-1.119-.424-.296-1.016-.8-1.016-1.495 0-.815.568-1.415 1.423-1.415.336 0 .632.104.76.199l-.152.528a1.12 1.12 0 0 0-.64-.185c-.528 0-.776.4-.776.768 0 .536.28.744.792 1.111.648.456.936.952.936 1.552 0 .927-.656 1.511-1.511 1.511-.368 0-.759-.12-.912-.231l.136-.529zm2.959-4.821h.616v2.079h.016c.08-.136.2-.256.32-.336a.93.93 0 0 1 .52-.144c.488 0 .904.392.904 1.367v2.566h-.616V4.201c0-.472-.104-.919-.52-.919-.288 0-.503.208-.6.615-.016.088-.024.2-.024.296v2.503h-.616V1.163zm5.616 3.599c0 1.495-.696 1.998-1.288 1.998-.695 0-1.255-.631-1.255-1.99 0-1.415.632-2.007 1.295-2.007.688 0 1.248.647 1.248 1.999zm-1.928 0c0 .64.112 1.511.672 1.511.528 0 .631-.911.631-1.511 0-.592-.104-1.504-.647-1.504-.552 0-.656.912-.656 1.504zm2.609-.936c0-.328-.024-.712-.032-1h.552l.032.607h.016c.128-.367.456-.671.815-.671.048 0 .088.008.128.008v.632c-.04-.008-.08-.008-.128-.008-.392 0-.68.359-.744.807a2.37 2.37 0 0 0-.024.353v2.143h-.616V3.826zm2.935-2.023v1.023h.744v.472h-.744v2.295c0 .504.184.64.408.64.096 0 .176-.008.248-.023l.024.472c-.112.04-.256.063-.456.063-.24 0-.456-.063-.608-.231-.152-.176-.231-.44-.231-.976v-2.24h-.472v-.472h.472v-.847l.615-.176zm-10.403 7.584c.24-.071.52-.104.832-.104.567 0 .967.144 1.263.408.416.359.728 1.055.728 2.183 0 1.231-.304 1.902-.648 2.271-.352.399-.863.584-1.487.584-.248 0-.504-.017-.688-.057V9.387zm.615 4.805c.088.017.176.017.232.017.68 0 1.335-.488 1.335-2.319 0-1.359-.416-2.103-1.279-2.103-.096 0-.208.008-.288.032v4.373zm2.945-4.805c.264-.071.583-.104.887-.104.536 0 .936.112 1.215.384.264.271.376.632.376 1.056 0 .688-.32 1.135-.864 1.383v.017c.4.119.608.503.728 1.207.12.743.232 1.199.304 1.367h-.624c-.08-.16-.184-.672-.288-1.335-.12-.736-.352-1.016-.879-1.016h-.24v2.351h-.615v-5.31zm.615 2.487h.256c.592 0 .983-.432.983-1.079 0-.624-.256-1.008-.919-1.016-.12 0-.24.008-.32.031v2.064zm4.655 2.822l-.488-1.295a20.655 20.655 0 0 1-.328-.944h-.024c-.12.36-.224.672-.328.96l-.464 1.279h-.632l1.111-2.751-1.071-2.638h.64l.48 1.247c.104.248.192.504.32.855h.016c.12-.376.2-.615.288-.88l.44-1.223h.631l-1.055 2.622 1.111 2.767h-.647zm80.062-5.388h.615v4.869h1.52v.52h-2.135V9.308zm4.95 3.454c0 1.495-.696 1.998-1.288 1.998-.695 0-1.255-.631-1.255-1.99 0-1.415.632-2.007 1.296-2.007.688 0 1.247.647 1.247 1.999zm-1.926 0c0 .64.111 1.511.672 1.511.527 0 .631-.911.631-1.511 0-.592-.104-1.504-.647-1.504-.553 0-.656.912-.656 1.504zm2.615-.936c0-.456-.023-.688-.031-1h.535l.032.464h.017a.98.98 0 0 1 .887-.527c.536 0 .936.399.936 1.335v2.599h-.615v-2.495c0-.455-.088-.919-.535-.919-.256 0-.504.216-.584.632a2.173 2.173 0 0 0-.024.344v2.438h-.616v-2.871zm5.607-1c-.008.272-.031.616-.031 1.208V14.2c0 1.016-.129 1.399-.385 1.68-.231.264-.6.415-1.031.415-.328 0-.647-.079-.848-.191l.145-.479c.152.08.408.168.719.168.488 0 .792-.304.792-1.184v-.392h-.017a.784.784 0 0 1-.742.472c-.688 0-1.137-.775-1.137-1.911 0-1.423.648-2.015 1.216-2.015.416 0 .608.271.72.504h.016l.032-.44h.551zm-.639 1.336c0-.097-.008-.2-.032-.28-.072-.264-.207-.592-.559-.592-.449 0-.688.6-.688 1.455 0 .991.312 1.439.688 1.439.184 0 .423-.088.551-.552.032-.12.04-.24.04-.352v-1.118zm2.768-2.775c.24-.071.52-.104.832-.104.567 0 .967.144 1.264.408.415.359.727 1.055.727 2.183 0 1.231-.303 1.902-.646 2.271-.353.399-.864.584-1.488.584-.248 0-.504-.017-.688-.057V9.387zm.615 4.805c.088.017.177.017.232.017.68 0 1.336-.488 1.336-2.319 0-1.359-.416-2.103-1.279-2.103-.097 0-.209.008-.289.032v4.373zm2.946-4.805c.264-.071.584-.104.887-.104.536 0 .936.112 1.216.384.265.271.376.632.376 1.056 0 .688-.32 1.135-.863 1.383v.017c.399.119.607.503.727 1.207.121.743.232 1.199.305 1.367h-.624c-.079-.16-.184-.672-.288-1.335-.119-.736-.352-1.016-.879-1.016h-.24v2.351h-.615v-5.31zm.615 2.487h.256c.592 0 .984-.432.984-1.079 0-.624-.256-1.008-.92-1.016-.12 0-.24.008-.32.031v2.064zm4.654 2.822l-.486-1.295a18.485 18.485 0 0 1-.328-.944h-.024c-.12.36-.224.672-.327.96l-.465 1.279h-.631l1.111-2.751-1.072-2.638h.641l.479 1.247c.104.248.192.504.319.855h.016c.121-.376.201-.615.289-.88l.439-1.223h.631l-1.055 2.622 1.111 2.767h-.648zm57.012 23.066c0-.272.184-.464.408-.464.248 0 .408.184.408.464 0 .279-.152.463-.408.463-.232 0-.408-.184-.408-.463zm2.809 0c0-.272.184-.464.408-.464.247 0 .407.184.407.464 0 .279-.151.463-.407.463-.233 0-.408-.184-.408-.463zm2.806 0c0-.272.185-.464.408-.464.248 0 .408.184.408.464 0 .279-.152.463-.408.463-.231 0-.408-.184-.408-.463zm-12.917-19.399c.009-.216.032-.432.056-.735h-.016c-.384.655-.728.799-1.016.799-.447 0-.719-.392-.719-1.087 0-1.176.623-2.91 2.118-2.91.272 0 .552.056.712.128l-.447 2.215c-.104.52-.177 1.159-.168 1.591h-.52zm.488-3.439a1.095 1.095 0 0 0-.239-.023c-.864 0-1.343 1.415-1.367 2.263-.009.487.088.768.36.768.391 0 .807-.768.959-1.535l.287-1.473zm2.576 3.375a1.638 1.638 0 0 1-.631.111c-.775 0-1.056-.632-1.056-1.383 0-1.128.663-2.591 1.927-2.591a.95.95 0 0 1 .385.063l-.152.496c-.08-.023-.168-.056-.288-.056-.808 0-1.279 1.151-1.279 2.022 0 .568.168.951.616.951.151 0 .319-.039.471-.096l.007.483zm2.176-4.822l-.208 1.016h.736l-.088.448h-.728l-.416 2.206a2.926 2.926 0 0 0-.056.488c0 .191.072.296.265.296.104 0 .168 0 .239-.017l-.048.448c-.137.04-.288.056-.416.056-.408 0-.647-.239-.647-.623 0-.152.017-.312.079-.624l.424-2.23h-.463l.08-.448h.471l.16-.839.616-.177zm.322 4.886l.734-3.87h.576l-.744 3.87h-.566zm.871-4.854c.008-.208.168-.407.384-.407.224 0 .327.168.312.375-.016.265-.191.408-.399.408s-.321-.152-.297-.376zm1.535.984l.057 2.191c0 .415.016.663-.008.951h.023c.088-.28.199-.552.344-.928l.896-2.215h.583l-1.711 3.87h-.551l-.225-3.87h.592zm3.76 3.677c-.279.152-.575.24-.911.24-.815 0-1.079-.623-1.079-1.367 0-1.047.584-2.614 1.687-2.614.567 0 .8.432.8.879 0 .936-.832 1.336-1.887 1.344-.016.112-.041.544.023.775.088.328.288.504.592.504.305 0 .512-.104.688-.208l.087.447zm-.392-3.246c-.344 0-.712.424-.919 1.264.615-.008 1.263-.216 1.263-.84 0-.271-.112-.424-.344-.424zm2.146 3.439l.734-3.87h.576l-.744 3.87h-.566zm.871-4.854c.008-.208.168-.407.384-.407.224 0 .327.168.312.375-.016.265-.191.408-.399.408s-.321-.152-.297-.376zm.56 4.854l.471-2.543c.112-.56.168-1.015.209-1.327h.503l-.063.616h.016c.312-.472.648-.68 1.039-.68.48 0 .664.376.664.783 0 .224-.031.408-.072.632l-.471 2.519h-.576l.472-2.511c.032-.176.056-.336.056-.535 0-.232-.096-.393-.336-.393-.359 0-.791.552-.936 1.288l-.408 2.15h-.568zm4.742-4.886l-.207 1.016h.735l-.089.448h-.727l-.416 2.206c-.04.208-.057.385-.057.488 0 .191.072.296.265.296.104 0 .167 0 .239-.017l-.047.448a1.54 1.54 0 0 1-.416.056c-.408 0-.648-.239-.648-.623 0-.152.016-.312.08-.624l.424-2.23h-.463l.079-.448h.472l.16-.839.616-.177zm2.361 4.693c-.28.152-.575.24-.911.24-.816 0-1.08-.623-1.08-1.367 0-1.047.584-2.614 1.688-2.614.567 0 .799.432.799.879 0 .936-.831 1.336-1.887 1.344-.016.112-.039.544.023.775.089.328.289.504.592.504.305 0 .512-.104.688-.208l.088.447zm-.392-3.246c-.344 0-.712.424-.92 1.264.615-.008 1.264-.216 1.264-.84 0-.271-.112-.424-.344-.424zm.969 3.439l.487-2.599c.096-.52.144-.983.168-1.271h.503a7.68 7.68 0 0 1-.063.728h.024c.24-.479.575-.791.967-.791.041 0 .072.008.104.008l-.112.607c-.016 0-.048-.008-.072-.008-.512 0-.943.72-1.055 1.295l-.385 2.031h-.566zm3.111-3.87l.056 2.191c0 .415.017.663-.008.951h.024c.088-.28.199-.552.344-.928l.895-2.215h.584l-1.711 3.87h-.552l-.224-3.87h.592zm3.432 3.87c.008-.216.031-.432.056-.735h-.017c-.383.655-.727.799-1.016.799-.447 0-.719-.392-.719-1.087 0-1.176.623-2.91 2.119-2.91.271 0 .551.056.711.128l-.447 2.215c-.104.52-.176 1.159-.168 1.591h-.519zm.487-3.439a1.095 1.095 0 0 0-.239-.023c-.864 0-1.344 1.415-1.367 2.263-.009.487.088.768.359.768.392 0 .807-.768.959-1.535l.288-1.473zm.753 3.439l1.04-5.533h.583l-1.055 5.533h-.568zm-78.451 40.5l.472-2.543c.112-.56.168-1.015.208-1.327h.504l-.064.624h.016c.305-.479.648-.688 1.008-.688.408 0 .6.327.624.68.296-.464.663-.68 1.023-.68.448 0 .647.359.647.775 0 .191-.031.432-.088.703l-.464 2.455h-.567l.463-2.471c.041-.2.064-.384.064-.592 0-.231-.096-.376-.312-.376-.353 0-.76.521-.903 1.279l-.416 2.159h-.552l.464-2.469c.039-.2.064-.376.064-.584 0-.239-.097-.384-.312-.384-.328 0-.768.552-.903 1.279l-.407 2.159h-.569zm4.744 0l.734-3.87h.576l-.744 3.87h-.566zm.871-4.854c.008-.208.168-.407.384-.407.224 0 .327.168.312.375-.016.265-.191.408-.399.408s-.32-.152-.297-.376zm2.383 4.79a1.638 1.638 0 0 1-.631.111c-.775 0-1.056-.632-1.056-1.383 0-1.128.663-2.591 1.927-2.591a.95.95 0 0 1 .385.063l-.152.496c-.08-.023-.168-.056-.288-.056-.808 0-1.279 1.151-1.279 2.022 0 .568.168.951.616.951.151 0 .319-.039.471-.096l.007.483zm.522.064l.488-2.599c.096-.52.143-.983.168-1.271h.503a8.028 8.028 0 0 1-.063.728h.023c.24-.479.576-.791.968-.791.04 0 .071.008.104.008l-.113.607c-.016 0-.047-.008-.071-.008-.512 0-.943.72-1.056 1.295l-.383 2.031h-.568zm4.543-2.671c0 .976-.48 2.734-1.664 2.734-.719 0-.943-.623-.943-1.311 0-1.04.561-2.687 1.711-2.687.774.001.896.744.896 1.264zm-2.024 1.367c0 .44.031.896.439.896.703 0 1-1.646 1-2.303 0-.399-.072-.743-.408-.743-.639 0-1.031 1.391-1.031 2.15zm4.256-1.023l-.088.48h-1.752l.088-.48h1.752zm.24 1.727c.12.08.312.184.6.184.393-.008.624-.288.624-.655 0-.344-.168-.552-.392-.752-.264-.239-.504-.575-.504-.943 0-.655.48-1.167 1.207-1.167.256 0 .48.063.6.151l-.16.44a.97.97 0 0 0-.447-.12c-.4 0-.623.264-.623.6 0 .304.176.479.359.647.304.264.543.624.543 1.016 0 .831-.543 1.247-1.263 1.247-.304 0-.607-.12-.72-.208l.176-.44zm2.24.6l1.039-5.533h.584l-1.055 5.533h-.568zm3.559-.193c-.279.152-.575.24-.911.24-.815 0-1.079-.623-1.079-1.367 0-1.047.584-2.614 1.687-2.614.567 0 .8.432.8.879 0 .936-.832 1.336-1.887 1.344-.016.112-.041.544.023.775.088.328.288.504.592.504.305 0 .512-.104.688-.208l.087.447zm-.392-3.246c-.344 0-.712.424-.919 1.264.615-.008 1.263-.216 1.263-.84 0-.271-.112-.424-.344-.424zm3.097 3.246c-.281.152-.576.24-.912.24-.815 0-1.08-.623-1.08-1.367 0-1.047.584-2.614 1.688-2.614.568 0 .8.432.8.879 0 .936-.831 1.336-1.888 1.344-.016.112-.039.544.025.775.088.328.287.504.591.504s.512-.104.688-.208l.088.447zm-.392-3.246c-.344 0-.711.424-.92 1.264.616-.008 1.264-.216 1.264-.84-.001-.271-.112-.424-.344-.424zm.672 4.974l.768-4.038c.104-.552.168-1.039.216-1.367h.512l-.088.632h.016c.256-.416.616-.695 1-.695.56 0 .711.527.711 1.104 0 1.199-.623 2.894-1.783 2.894a.88.88 0 0 1-.463-.127h-.016l-.297 1.599h-.576zm.968-2.079c.104.08.224.145.367.145.896 0 1.216-1.775 1.216-2.352 0-.375-.072-.671-.376-.671-.384 0-.791.623-.928 1.351l-.279 1.527zm3.576.544l.735-3.87h.575l-.742 3.87h-.568zm.871-4.854c.008-.208.168-.407.385-.407.223 0 .327.168.311.375-.016.265-.191.408-.398.408-.21 0-.321-.152-.298-.376zm.561 4.854l.472-2.543c.112-.56.168-1.015.208-1.327h.504l-.064.616h.016c.312-.472.648-.68 1.04-.68.479 0 .663.376.663.783a3.4 3.4 0 0 1-.071.632l-.472 2.519h-.576l.473-2.511a2.91 2.91 0 0 0 .055-.535c0-.232-.096-.393-.336-.393-.359 0-.791.552-.935 1.288l-.407 2.15h-.57zm4.743-4.886l-.208 1.016h.736l-.088.448h-.729l-.416 2.206a2.926 2.926 0 0 0-.056.488c0 .191.072.296.265.296.104 0 .168 0 .239-.017l-.048.448c-.137.04-.288.056-.416.056-.408 0-.647-.239-.647-.623 0-.152.017-.312.079-.624l.424-2.23h-.463l.08-.448h.471l.16-.839.617-.177zm2.36 4.693c-.281.152-.576.24-.912.24-.815 0-1.08-.623-1.08-1.367 0-1.047.584-2.614 1.688-2.614.568 0 .8.432.8.879 0 .936-.831 1.336-1.888 1.344-.016.112-.039.544.025.775.088.328.287.504.591.504s.512-.104.688-.208l.088.447zm-.392-3.246c-.344 0-.711.424-.92 1.264.616-.008 1.264-.216 1.264-.84 0-.271-.112-.424-.344-.424zm.969 3.439l.488-2.599c.096-.52.145-.983.168-1.271h.504a7.73 7.73 0 0 1-.064.728h.023c.24-.479.576-.791.969-.791.039 0 .071.008.104.008l-.112.607c-.016 0-.048-.008-.071-.008-.512 0-.943.72-1.057 1.295l-.383 2.031h-.569zm3.111-3.87l.057 2.191c0 .415.016.663-.008.951h.023c.088-.28.199-.552.344-.928l.896-2.215h.583l-1.711 3.87h-.551l-.225-3.87h.592zm3.432 3.87c.009-.216.033-.432.057-.735h-.016c-.385.655-.729.799-1.016.799-.447 0-.72-.392-.72-1.087 0-1.176.624-2.91 2.118-2.91.272 0 .553.056.713.128l-.449 2.215c-.104.52-.176 1.159-.167 1.591h-.52zm.488-3.439a1.111 1.111 0 0 0-.24-.023c-.863 0-1.343 1.415-1.367 2.263-.008.487.088.768.36.768.392 0 .808-.768.96-1.535l.287-1.473zm.753 3.439l1.04-5.533h.583l-1.056 5.533h-.567zM1.639 53.977l-.208 1.016h.736l-.088.448h-.728l-.416 2.206c-.04.208-.056.385-.056.488 0 .191.072.296.264.296.104 0 .167 0 .24-.017l-.048.448c-.136.04-.288.056-.416.056-.408 0-.647-.239-.647-.623 0-.152.016-.312.08-.624l.423-2.23H.312l.08-.448h.472l.16-.839.615-.177zm.321 4.886l.488-2.599c.096-.52.144-.983.168-1.271h.503a7.73 7.73 0 0 1-.064.728h.024c.24-.479.576-.791.968-.791.04 0 .072.008.104.008l-.112.607c-.016 0-.048-.008-.072-.008-.512 0-.943.72-1.055 1.295l-.384 2.031H1.96zm3.615 0c.008-.216.032-.432.056-.735h-.016c-.384.655-.728.799-1.016.799-.447 0-.719-.392-.719-1.087 0-1.176.624-2.91 2.119-2.91.272 0 .552.056.712.128l-.448 2.215c-.104.52-.176 1.159-.167 1.591h-.521zm.487-3.439a1.111 1.111 0 0 0-.24-.023c-.864 0-1.343 1.415-1.367 2.263-.008.487.088.768.36.768.392 0 .807-.768.959-1.535l.288-1.473zm.754 3.439l.472-2.543c.112-.56.168-1.015.208-1.327h.503l-.064.616h.016c.312-.472.648-.68 1.04-.68.479 0 .664.376.664.783a3.4 3.4 0 0 1-.072.632l-.472 2.519h-.576l.472-2.511c.032-.176.056-.336.056-.535 0-.232-.096-.393-.335-.393-.36 0-.792.552-.936 1.288l-.408 2.15h-.568zm3.16-.6c.12.08.312.184.6.184.392-.008.624-.288.624-.655 0-.344-.168-.552-.392-.752-.264-.239-.504-.575-.504-.943 0-.655.48-1.167 1.208-1.167.256 0 .479.063.6.151l-.16.44a.978.978 0 0 0-.448-.12c-.4 0-.624.264-.624.6 0 .304.176.479.36.647.304.264.543.624.543 1.016 0 .831-.543 1.247-1.263 1.247-.304 0-.607-.12-.72-.208l.176-.44zm2.24.6l.472-2.543c.112-.56.168-1.015.208-1.327h.503l-.064.624h.016c.304-.479.647-.688 1.007-.688.408 0 .6.327.624.68.295-.464.664-.68 1.023-.68.448 0 .647.359.647.775 0 .191-.032.432-.088.703l-.464 2.455h-.568l.464-2.471c.04-.2.064-.384.064-.592 0-.231-.096-.376-.312-.376-.352 0-.76.521-.904 1.279l-.416 2.159h-.552l.464-2.471c.04-.2.064-.376.064-.584 0-.239-.096-.384-.312-.384-.328 0-.768.552-.903 1.279l-.408 2.159h-.565zm4.743 0l.735-3.87h.576l-.744 3.87h-.567zm.872-4.854c.008-.208.168-.407.384-.407.224 0 .328.168.312.375-.016.265-.192.408-.399.408-.209 0-.321-.152-.297-.376zm2.16-.032l-.208 1.016h.736l-.088.448h-.728l-.416 2.206c-.04.208-.056.385-.056.488 0 .191.072.296.264.296.104 0 .167 0 .24-.017l-.048.448c-.136.04-.288.056-.416.056-.408 0-.647-.239-.647-.623 0-.152.016-.312.08-.624l.423-2.23h-.463l.08-.448h.472l.16-.839.615-.177zm-18.352 8l-.208 1.016h.736l-.088.448h-.728l-.416 2.207c-.04.208-.056.385-.056.488 0 .191.072.296.264.296.104 0 .167 0 .24-.017l-.048.448c-.136.04-.288.056-.416.056-.408 0-.647-.239-.647-.623 0-.152.016-.312.08-.624l.423-2.231H.312l.08-.448h.472l.16-.839.615-.177zm.321 4.886l.735-3.871h.576l-.743 3.871H1.96zm.872-4.854c.008-.208.168-.407.384-.407.224 0 .328.168.312.375-.016.265-.192.408-.399.408-.21 0-.321-.152-.297-.376zm.56 4.854l.472-2.543c.112-.56.168-1.015.208-1.327h.503l-.064.624h.016c.304-.479.648-.688 1.007-.688.408 0 .6.327.624.68.296-.464.664-.68 1.023-.68.448 0 .647.359.647.775 0 .191-.032.432-.088.703l-.464 2.456H6.71l.463-2.471c.04-.2.064-.384.064-.592 0-.231-.096-.376-.312-.376-.352 0-.76.521-.904 1.279l-.416 2.16h-.55l.464-2.471c.04-.2.064-.376.064-.584 0-.239-.096-.384-.312-.384-.328 0-.768.552-.903 1.279l-.408 2.16h-.568zm6.871-.192c-.28.152-.576.24-.912.24-.815 0-1.08-.623-1.08-1.367 0-1.047.584-2.615 1.687-2.615.568 0 .8.432.8.879 0 .936-.832 1.336-1.887 1.344-.016.112-.04.544.024.775.088.328.288.504.592.504s.512-.104.688-.208l.088.448zm-.392-3.247c-.344 0-.711.424-.919 1.264.616-.008 1.263-.216 1.263-.84-.001-.271-.112-.424-.344-.424zm.985 2.84c.12.08.312.184.6.184.392-.008.624-.288.624-.655 0-.344-.168-.552-.392-.752-.264-.24-.504-.576-.504-.944 0-.655.48-1.167 1.208-1.167.256 0 .479.063.6.151l-.16.44a.978.978 0 0 0-.448-.12c-.4 0-.624.264-.624.6 0 .304.176.479.36.647.304.264.543.625.543 1.016 0 .831-.543 1.247-1.263 1.247-.304 0-.607-.12-.72-.208l.176-.439zm2.24.599l1.04-5.534h.583l-1.055 5.534h-.568zm4.158-2.671c0 .976-.48 2.735-1.663 2.735-.72 0-.943-.623-.943-1.311 0-1.041.56-2.687 1.711-2.687.775 0 .895.743.895 1.263zm-2.023 1.368c0 .44.032.896.44.896.703 0 .999-1.647.999-2.303 0-.399-.072-.743-.408-.743-.639-.001-1.031 1.39-1.031 2.15zm3.848-3.583l-.208 1.016h.736l-.088.448h-.729l-.416 2.207c-.04.208-.056.385-.056.488 0 .191.072.296.264.296.104 0 .167 0 .24-.017l-.048.448c-.136.04-.288.056-.416.056-.408 0-.647-.239-.647-.623 0-.152.016-.312.08-.624l.423-2.231h-.463l.08-.448h.472l.16-.839.616-.177zm116.112-7.353c-.168.08-.416.12-.711.12-1.12 0-1.392-.999-1.392-1.871 0-1.063.296-2.23 1.016-2.966.456-.464.983-.647 1.447-.647.24 0 .464.048.536.096l-.168.512a1.134 1.134 0 0 0-.432-.072c-.368 0-.728.184-1 .496-.479.575-.792 1.511-.792 2.422 0 .888.216 1.504.912 1.504.216 0 .424-.048.552-.104l.032.51zm3.057-2.599c0 .976-.48 2.734-1.663 2.734-.72 0-.943-.623-.943-1.311 0-1.04.56-2.687 1.711-2.687.774.002.895.745.895 1.264zm-2.023 1.368c0 .44.032.896.44.896.703 0 .999-1.646.999-2.303 0-.399-.072-.743-.408-.743-.64-.001-1.031 1.391-1.031 2.15zm2.248 1.303l.472-2.543c.112-.56.168-1.015.208-1.327h.503l-.064.616h.016c.312-.472.647-.68 1.04-.68.479 0 .664.376.664.783a3.4 3.4 0 0 1-.072.632l-.472 2.519h-.575l.472-2.511c.032-.176.056-.336.056-.535 0-.232-.096-.393-.336-.393-.359 0-.792.552-.935 1.288l-.408 2.15h-.569zm3.144 0l.472-2.543c.112-.56.168-1.015.208-1.327h.503l-.064.616h.016c.312-.472.648-.68 1.04-.68.479 0 .664.376.664.783a3.4 3.4 0 0 1-.072.632l-.472 2.519h-.576l.472-2.511c.032-.176.056-.336.056-.535 0-.232-.096-.393-.335-.393-.36 0-.792.552-.936 1.288l-.408 2.15h-.568zm5.271-.192c-.28.152-.576.24-.912.24-.815 0-1.08-.623-1.08-1.367 0-1.047.584-2.614 1.687-2.614.568 0 .8.432.8.879 0 .936-.832 1.336-1.887 1.344-.016.112-.04.544.024.775.088.328.288.504.592.504s.512-.104.688-.208l.088.447zm-.392-3.246c-.344 0-.711.424-.919 1.264.616-.008 1.263-.216 1.263-.84-.001-.272-.112-.424-.344-.424zm2.791 3.375a1.646 1.646 0 0 1-.631.111c-.776 0-1.056-.632-1.056-1.383 0-1.128.664-2.591 1.927-2.591.167 0 .304.024.384.063l-.152.496c-.08-.023-.168-.056-.288-.056-.808 0-1.279 1.151-1.279 2.022 0 .568.168.951.616.951.152 0 .32-.039.472-.096l.007.483zm2.177-4.822l-.208 1.016h.736l-.088.448h-.728l-.416 2.206c-.04.208-.056.385-.056.488 0 .191.072.296.264.296.104 0 .168 0 .24-.017l-.048.448c-.136.04-.288.056-.416.056-.408 0-.647-.239-.647-.623 0-.152.016-.312.08-.624l.424-2.23h-.463l.08-.448h.472l.16-.839.614-.177zm2.36 4.693c-.28.152-.576.24-.912.24-.815 0-1.08-.623-1.08-1.367 0-1.047.584-2.614 1.687-2.614.568 0 .8.432.8.879 0 .936-.832 1.336-1.887 1.344-.016.112-.04.544.024.775.088.328.288.504.591.504.304 0 .512-.104.688-.208l.089.447zm-.392-3.246c-.344 0-.711.424-.919 1.264.616-.008 1.263-.216 1.263-.84-.001-.272-.112-.424-.344-.424zm4.214-2.095l-.792 4.174c-.08.424-.16.991-.176 1.359h-.496l.048-.607h-.016c-.192.399-.552.671-.928.671-.487 0-.783-.455-.783-1.159 0-1.319.695-2.838 1.831-2.838.152 0 .312.063.408.144l.328-1.743h.576zm-1.015 2.247a.418.418 0 0 0-.36-.176c-.744 0-1.175 1.463-1.175 2.255 0 .455.104.775.423.775.28 0 .656-.352.808-1.119l.304-1.735zm4.008.959l-.088.48H158.8l.088-.48h1.751zm2.464-3.006c.248-.048.528-.08.808-.08.567 0 .968.208 1.207.527.256.336.353.776.353 1.312 0 1.264-.496 2.519-1.08 3.055-.44.407-.952.544-1.495.544-.304 0-.583-.024-.792-.08l.999-5.278zm-.352 4.829c.072.008.192.024.304.024.4 0 .792-.192 1.136-.647.383-.504.68-1.504.68-2.479 0-.831-.305-1.318-.976-1.318-.152 0-.232.008-.304.023l-.84 4.397zm5.56-2.167c0 .976-.48 2.734-1.663 2.734-.72 0-.944-.623-.944-1.311 0-1.04.561-2.687 1.712-2.687.774.002.895.745.895 1.264zm-2.024 1.368c0 .44.032.896.439.896.705 0 1-1.646 1-2.303 0-.399-.072-.743-.408-.743-.638-.001-1.031 1.391-1.031 2.15zm2.249 1.303l.487-2.599c.096-.52.145-.983.168-1.271h.504a7.406 7.406 0 0 1-.064.728h.024c.24-.479.575-.791.968-.791.04 0 .072.008.104.008l-.111.607c-.016 0-.049-.008-.072-.008-.512 0-.943.72-1.055 1.295l-.385 2.031h-.568zm1.976 0l.473-2.543a17.9 17.9 0 0 0 .207-1.327h.504l-.064.624h.017c.304-.479.647-.688 1.007-.688.408 0 .6.327.625.68.295-.464.663-.68 1.023-.68.447 0 .646.359.646.775 0 .191-.031.432-.088.703l-.463 2.455h-.568l.464-2.471c.04-.2.063-.384.063-.592 0-.231-.096-.376-.311-.376-.353 0-.76.521-.904 1.279l-.416 2.159h-.551l.463-2.471c.041-.2.064-.376.064-.584 0-.239-.096-.384-.312-.384-.327 0-.768.552-.902 1.279l-.408 2.159h-.569zm6.543 0c.008-.216.032-.432.057-.735h-.017c-.384.655-.728.799-1.015.799-.449 0-.721-.392-.721-1.087 0-1.176.624-2.91 2.119-2.91.271 0 .552.056.711.128l-.447 2.215c-.104.52-.176 1.159-.168 1.591h-.519zm.488-3.438a1.111 1.111 0 0 0-.24-.023c-.863 0-1.344 1.415-1.367 2.263-.008.487.088.768.359.768.393 0 .809-.768.96-1.535l.288-1.473zm.753 3.438l.472-2.543c.111-.56.168-1.015.208-1.327h.503l-.063.616h.017c.312-.472.646-.68 1.039-.68.479 0 .664.376.664.783 0 .224-.033.408-.072.632l-.473 2.519h-.574l.471-2.511c.032-.176.057-.336.057-.535 0-.232-.096-.393-.336-.393-.359 0-.792.552-.936 1.288l-.408 2.15h-.569zm4.743-4.885l-.208 1.016h.735l-.088.448h-.728l-.415 2.206a2.747 2.747 0 0 0-.057.488c0 .191.072.296.264.296.104 0 .168 0 .24-.017l-.048.448c-.136.04-.288.056-.416.056-.407 0-.647-.239-.647-.623 0-.152.016-.312.08-.624l.424-2.23h-.464l.079-.448h.473l.16-.839.616-.177zM59.11 54.624c-.168.08-.416.12-.711.12-1.12 0-1.392-.999-1.392-1.871 0-1.063.296-2.23 1.016-2.966.456-.464.983-.647 1.447-.647.24 0 .464.048.536.096l-.168.512a1.134 1.134 0 0 0-.432-.072c-.368 0-.728.184-1 .496-.479.575-.792 1.511-.792 2.422 0 .888.216 1.504.912 1.504.216 0 .424-.048.552-.104l.032.51zm3.056-2.599c0 .976-.48 2.734-1.663 2.734-.72 0-.943-.623-.943-1.311 0-1.04.56-2.687 1.711-2.687.775.002.895.745.895 1.264zm-2.023 1.368c0 .44.032.896.44.896.703 0 .999-1.646.999-2.303 0-.399-.072-.743-.408-.743-.639-.001-1.031 1.391-1.031 2.15zm2.248 1.303l.472-2.543c.112-.56.168-1.015.208-1.327h.503l-.064.616h.016c.312-.472.647-.68 1.04-.68.479 0 .664.376.664.783a3.4 3.4 0 0 1-.072.632l-.472 2.519h-.576l.472-2.511c.032-.176.056-.336.056-.535 0-.232-.096-.393-.336-.393-.359 0-.792.552-.935 1.288l-.408 2.15h-.568zm3.144 0l.472-2.543c.112-.56.168-1.015.208-1.327h.503l-.064.616h.016c.312-.472.648-.68 1.04-.68.479 0 .664.376.664.783a3.4 3.4 0 0 1-.072.632l-.472 2.519h-.576l.472-2.511c.032-.176.056-.336.056-.535 0-.232-.096-.393-.335-.393-.36 0-.792.552-.936 1.288l-.408 2.15h-.568zm5.271-.192c-.28.152-.576.24-.912.24-.815 0-1.08-.623-1.08-1.367 0-1.047.584-2.614 1.687-2.614.568 0 .8.432.8.879 0 .936-.832 1.336-1.887 1.344-.016.112-.04.544.024.775.088.328.288.504.592.504s.512-.104.688-.208l.088.447zm-.392-3.246c-.344 0-.711.424-.919 1.264.616-.008 1.263-.216 1.263-.84 0-.272-.112-.424-.344-.424zm2.792 3.375a1.646 1.646 0 0 1-.631.111c-.776 0-1.056-.632-1.056-1.383 0-1.128.664-2.591 1.927-2.591.167 0 .304.024.384.063l-.152.496c-.08-.023-.168-.056-.288-.056-.808 0-1.279 1.151-1.279 2.022 0 .568.168.951.616.951.152 0 .32-.039.472-.096l.007.483zm2.176-4.822l-.208 1.016h.736l-.088.448h-.728l-.416 2.206c-.04.208-.056.385-.056.488 0 .191.072.296.264.296.104 0 .168 0 .24-.017l-.048.448c-.136.04-.288.056-.416.056-.408 0-.647-.239-.647-.623 0-.152.016-.312.08-.624l.424-2.23h-.463l.08-.448h.472l.16-.839.614-.177zm2.36 4.693c-.28.152-.576.24-.912.24-.815 0-1.08-.623-1.08-1.367 0-1.047.584-2.614 1.687-2.614.568 0 .8.432.8.879 0 .936-.832 1.336-1.887 1.344-.016.112-.04.544.024.775.088.328.288.504.591.504.304 0 .512-.104.688-.208l.089.447zm-.392-3.246c-.344 0-.711.424-.919 1.264.616-.008 1.263-.216 1.263-.84 0-.272-.112-.424-.344-.424zm4.215-2.095l-.792 4.174c-.08.424-.16.991-.176 1.359h-.496l.048-.607h-.016c-.192.399-.552.671-.928.671-.487 0-.783-.455-.783-1.159 0-1.319.695-2.838 1.831-2.838.152 0 .312.063.408.144l.328-1.743h.576zM80.55 51.41a.418.418 0 0 0-.36-.176c-.744 0-1.175 1.463-1.175 2.255 0 .455.104.775.423.775.28 0 .656-.352.808-1.119l.304-1.735zm4.008.959l-.088.48h-1.751l.088-.48h1.751zm2.424.696l-.656 1.631h-.576l2.231-5.389h.64l.168 5.389h-.56l-.04-1.631h-1.207zm1.207-.456l-.024-1.399c-.008-.376 0-.831 0-1.239h-.024c-.144.416-.296.888-.448 1.247l-.552 1.392h1.048zm2.952 2.024a1.646 1.646 0 0 1-.631.111c-.776 0-1.056-.632-1.056-1.383 0-1.128.664-2.591 1.927-2.591.167 0 .304.024.384.063l-.152.496c-.08-.023-.168-.056-.288-.056-.808 0-1.279 1.151-1.279 2.022 0 .568.168.951.616.951.152 0 .32-.039.472-.096l.007.483zm2.177-4.822l-.208 1.016h.736l-.088.448h-.728l-.416 2.206c-.04.208-.056.385-.056.488 0 .191.072.296.264.296.104 0 .168 0 .24-.017l-.048.448c-.136.04-.288.056-.416.056-.408 0-.647-.239-.647-.623 0-.152.016-.312.08-.624l.424-2.23h-.463l.08-.448h.472l.16-.839.614-.177zm.321 4.885l.735-3.87h.576l-.744 3.87h-.567zm.871-4.853c.008-.208.168-.407.384-.407.224 0 .328.168.312.375-.016.265-.192.408-.399.408-.209 0-.321-.153-.297-.376zm1.536.983l.056 2.191c0 .415.016.663-.008.951h.024c.088-.28.2-.552.344-.928l.896-2.215h.583l-1.711 3.87h-.552l-.224-3.87h.592zm3.759 3.678c-.28.152-.576.24-.912.24-.815 0-1.08-.623-1.08-1.367 0-1.047.584-2.614 1.687-2.614.568 0 .8.432.8.879 0 .936-.832 1.336-1.887 1.344-.016.112-.04.544.024.775.088.328.288.504.592.504s.512-.104.688-.208l.088.447zm-.392-3.246c-.344 0-.711.424-.919 1.264.616-.008 1.263-.216 1.263-.84 0-.272-.112-.424-.344-.424z"/><path fill="none" stroke="#000" d="M269.693 34.627V16h11.852" stroke-dasharray="1 1"/><path d="M280.67 19.001l5.18-2.992-5.18-2.991z"/><path fill="none" stroke="#000" d="M225.088 40.999v15.334h10.29" stroke-dasharray="1 1"/><path d="M234.503 59.334l5.181-2.991-5.181-2.991z"/><path fill="none" stroke="#000" d="M33.926 40.999v15.334h-7.715" stroke-dasharray="1 1"/><path d="M27.086 53.333l-5.181 2.991 5.181 2.991z"/></svg>