<svg xmlns="http://www.w3.org/2000/svg" viewBox="0 0 342.389 59.892"><g stroke="#000" clip-rule="evenodd" stroke-linecap="round" stroke-linejoin="round"><path fill="#ccc" fill-rule="evenodd" d="M.5.5h25.885v14.708H.5zm25.885 0h78.876v14.708H26.385z"/><path fill="#ccc" fill-rule="evenodd" d="M105.261.5h78.875v14.708h-78.875zm78.876 0h78.877v14.708h-78.877zm78.877 0h78.875v14.708h-78.875zM.501 15.269h25.885v14.708H.501z"/><path fill="none" d="M26.386 15.269h157.751v14.708H26.386z"/><path fill="none" d="M26.385 29.976h157.751v14.708H26.385z"/><path fill="#fddfbb" fill-rule="evenodd" d="M26.385 44.684h315.503v14.708H26.385z"/><path fill="none" d="M184.137 29.976h157.752v14.708H184.137z"/><path fill="none" d="M184.137 15.269h157.752v14.708H184.137z"/><path fill="#ccc" fill-rule="evenodd" d="M.501 29.976h25.885v14.708H.501zm0 14.708h25.885v14.708H.501z"/></g><path d="M9.726 4.518a5.667 5.667 0 0 1 1.197-.117c.549 0 1.071.09 1.44.423.297.262.432.648.432 1.08 0 .567-.306 1.081-.891 1.333v.026c.693.189 1.089.766 1.089 1.495 0 .504-.162.9-.441 1.197-.351.396-.945.585-1.818.585-.45 0-.774-.027-1.008-.062v-5.96zm.954 2.439h.279c.495 0 .891-.396.891-.945 0-.504-.234-.882-.828-.882-.144 0-.261.009-.342.036v1.791zm0 2.809c.081.019.18.027.306.027.585 0 1.018-.352 1.018-1.044 0-.712-.496-1.071-1.044-1.071h-.28v2.088zm3.492-4.24c-.279 0-.504-.225-.504-.558 0-.343.234-.559.513-.559.306 0 .522.216.522.559 0 .333-.216.558-.522.558h-.009zm-.46 4.97V6.111h.963v4.385h-.963zm2.998-5.474v1.089h.847v.693h-.847v2.278c0 .54.207.675.45.675.108 0 .198-.009.297-.027l.018.748c-.144.045-.36.071-.63.071-.306 0-.585-.081-.774-.27-.216-.217-.324-.531-.324-1.188V6.804h-.522v-.693h.522v-.756l.963-.333zm43.822.685v2.07h1.999v.63h-1.999v2.089h-.648V8.407h-1.999v-.63h1.999v-2.07h.648zm4.176 4.861c-1.107 0-1.593-1.288-1.593-2.98 0-1.818.558-3.016 1.656-3.016 1.17 0 1.567 1.368 1.567 2.979 0 2.116-.72 3.017-1.621 3.017h-.009zm.045-.819c.45 0 .621-.811.621-2.179 0-1.314-.162-2.179-.63-2.179-.459 0-.675.792-.666 2.179-.009 1.396.189 2.179.666 2.179h.009zm2.825.819c-.315 0-.576-.262-.576-.666 0-.388.271-.667.585-.667.333 0 .585.252.585.667 0 .404-.234.666-.585.666h-.009zm1.944 0c-.315 0-.576-.262-.576-.666 0-.388.271-.667.585-.667.333 0 .585.252.585.667 0 .404-.234.666-.585.666h-.009zm4.294-5.924v.612l-1.864 5.239h-.936l1.818-4.987V5.49h-2.043v-.846h3.025zm63.756 1.063v2.07h1.999v.63h-1.999v2.089h-.648V8.407h-1.999v-.63h1.999v-2.07h.648zm4.274-1.135c.837 0 1.396.63 1.396 1.413 0 .441-.198.955-.783 1.333v.026c.54.324.918.855.918 1.558 0 1.009-.711 1.666-1.639 1.666-.99 0-1.594-.693-1.594-1.549 0-.774.441-1.296.918-1.611l-.009-.018c-.486-.334-.738-.838-.738-1.314 0-.937.702-1.504 1.521-1.504h.01zm-.072 5.33c.396 0 .666-.352.666-.955 0-.612-.36-.972-.738-1.206a1.37 1.37 0 0 0-.621 1.152c0 .576.243 1.009.684 1.009h.009zm.019-4.664c-.36 0-.567.36-.567.802 0 .495.288.783.639.99.297-.189.486-.559.486-.945 0-.478-.171-.847-.549-.847h-.009zm2.825 5.33c-.315 0-.576-.262-.576-.666 0-.388.271-.667.585-.667.333 0 .585.252.585.667 0 .404-.234.666-.585.666h-.009zm1.944 0c-.315 0-.576-.262-.576-.666 0-.388.271-.667.585-.667.333 0 .585.252.585.667 0 .404-.234.666-.585.666h-.009zm2.574-4.997h-.018l-.981.531-.171-.747 1.288-.711h.828v5.852h-.945V5.571zm5.176-.09h-1.558l-.18 1.278c.063-.009.126-.009.198-.009.279.009.783.135 1.107.441.315.306.495.747.495 1.341 0 1.152-.738 2.035-1.917 2.035-.387 0-.819-.1-1.053-.243l.171-.766c.198.108.513.217.828.217.585 0 1.026-.405 1.026-1.152 0-.855-.576-1.171-1.296-1.171-.18 0-.315.009-.432.027l.342-2.836h2.269v.838zm60.3.226v2.07h1.999v.63h-1.999v2.089h-.647V8.407h-2v-.63h2v-2.07h.647zm4.005-.136h-.019l-.981.531-.171-.747 1.288-.711h.828v5.852h-.945V5.571zm5.067-.207c-.125 0-.279.019-.449.055-.865.207-1.252 1.008-1.396 1.81h.027c.225-.298.531-.505.945-.505.766 0 1.297.693 1.297 1.801 0 1.071-.514 2.044-1.566 2.044-1.072 0-1.666-.99-1.666-2.404 0-1.206.36-2.079.864-2.683a2.55 2.55 0 0 1 1.432-.846c.226-.045.405-.055.513-.063v.791zm-1.143 4.492c.387 0 .611-.468.611-1.305-.008-.676-.233-1.126-.656-1.126-.234 0-.469.153-.604.495-.027.063-.055.217-.055.441 0 .964.289 1.494.693 1.494h.011zm2.789.712c-.314 0-.576-.262-.576-.666 0-.388.271-.667.586-.667.332 0 .584.252.584.667 0 .404-.233.666-.584.666h-.01zm1.944 0c-.315 0-.576-.262-.576-.666 0-.388.271-.667.585-.667.334 0 .586.252.586.667 0 .404-.234.666-.586.666h-.009zm1.179-.072v-.64l.541-.711c.729-.963 1.439-1.899 1.439-2.854 0-.549-.27-.909-.783-.909-.396 0-.684.188-.864.306l-.188-.738a2.188 2.188 0 0 1 1.225-.378c1.143 0 1.557.792 1.557 1.656 0 1.099-.702 2.062-1.395 2.936l-.369.468v.018h1.854v.847h-3.017zm3.817-.955c.207.126.531.234.855.234.594 0 .945-.396.945-.991 0-.702-.496-1.053-1.135-1.053h-.162v-.71h.117c.432 0 1.018-.243 1.018-.883 0-.495-.289-.774-.721-.774-.279 0-.531.117-.729.252l-.161-.72c.233-.171.674-.324 1.134-.324.945 0 1.44.63 1.44 1.378 0 .594-.315 1.089-.855 1.341v.019c.549.171 1.018.666 1.018 1.512 0 .919-.657 1.747-1.837 1.747-.433 0-.847-.117-1.089-.271l.162-.757zm61.218-3.834v2.07h1.998v.63h-1.998v2.089h-.648V8.407h-1.998v-.63h1.998v-2.07h.648zm2.61 4.789v-.64l.539-.711c.73-.963 1.441-1.899 1.441-2.854 0-.549-.271-.909-.783-.909-.396 0-.685.188-.865.306l-.188-.738a2.188 2.188 0 0 1 1.225-.378c1.144 0 1.558.792 1.558 1.656 0 1.099-.703 2.062-1.396 2.936l-.369.468v.018h1.854v.847h-3.016zm5.525 0V9.001h-1.98v-.657l1.909-3.7h.927v3.583h.604v.774h-.604v1.494h-.856zm0-2.269V6.823c0-.352.027-.702.055-1.045h-.027c-.162.388-.287.657-.449 1l-.712 1.431v.019h1.133zm2.583 2.341c-.315 0-.576-.262-.576-.666 0-.388.271-.667.585-.667.334 0 .586.252.586.667 0 .404-.234.666-.586.666h-.009zm1.944 0c-.314 0-.576-.262-.576-.666 0-.388.271-.667.586-.667.332 0 .584.252.584.667 0 .404-.233.666-.584.666h-.01zm1.323-1.027c.207.126.531.234.855.234.595 0 .945-.396.945-.991 0-.702-.494-1.053-1.134-1.053h-.162v-.71h.116c.433 0 1.018-.243 1.018-.883 0-.495-.287-.774-.72-.774-.279 0-.531.117-.729.252l-.162-.72c.234-.171.676-.324 1.135-.324.945 0 1.44.63 1.44 1.378 0 .594-.315 1.089-.855 1.341v.019c.55.171 1.018.666 1.018 1.512 0 .919-.657 1.747-1.837 1.747-.432 0-.846-.117-1.09-.271l.162-.757zm4.924-3.97h-.018l-.982.531-.17-.747 1.287-.711h.828v5.852h-.945V5.571zM13.426 25.337c-1.107 0-1.593-1.288-1.593-2.98 0-1.818.558-3.016 1.656-3.016 1.17 0 1.567 1.368 1.567 2.979 0 2.116-.72 3.017-1.621 3.017h-.009zm.045-.819c.45 0 .621-.811.621-2.179 0-1.314-.162-2.179-.63-2.179-.459 0-.675.792-.666 2.179-.009 1.396.189 2.179.666 2.179h.009zm76.523-.054c.207.135.567.242.873.242.63 0 1.008-.414 1.008-1.026 0-.558-.324-.899-.801-1.26-.477-.333-1.143-.9-1.143-1.684 0-.918.639-1.594 1.603-1.594.378 0 .711.117.855.226l-.171.594a1.276 1.276 0 0 0-.72-.207c-.594 0-.874.45-.874.864 0 .604.315.837.892 1.252.729.513 1.053 1.071 1.053 1.746 0 1.044-.738 1.701-1.702 1.701-.414 0-.855-.135-1.026-.261l.153-.593zm6.067-1.378c0 1.684-.783 2.251-1.45 2.251-.783 0-1.414-.712-1.414-2.242 0-1.593.711-2.26 1.458-2.26.775 0 1.406.729 1.406 2.251zm-2.17 0c0 .721.126 1.701.756 1.701.594 0 .711-1.026.711-1.701 0-.666-.117-1.692-.729-1.692-.621 0-.738 1.026-.738 1.692zm5.553.99c0 .486.027.864.036 1.188h-.603l-.045-.459h-.018c-.135.216-.468.531-.937.531-.765 0-1.062-.595-1.062-1.675v-2.755h.693v2.656c0 .684.108 1.188.585 1.188.405 0 .585-.379.621-.576.027-.117.036-.253.036-.396v-2.872h.693v3.17zm.962-2.044c0-.368-.027-.801-.036-1.125h.622l.036.685h.018c.144-.414.513-.757.918-.757.054 0 .099.01.144.01v.711c-.045-.009-.09-.009-.144-.009-.441 0-.765.404-.837.909a2.65 2.65 0 0 0-.027.396v2.413h-.693v-3.233zm4.24 3.124c-.153.091-.414.162-.72.162-.954 0-1.594-.765-1.594-2.205 0-1.252.63-2.269 1.72-2.269.234 0 .486.062.612.135l-.135.567a1.13 1.13 0 0 0-.495-.117c-.693 0-1.008.828-1.008 1.684 0 1.017.387 1.629 1.026 1.629.189 0 .342-.045.504-.117l.09.531zm1.025-2.007c.009 1.332.531 1.62 1.036 1.62.297 0 .549-.072.72-.171l.108.513c-.243.136-.612.207-.955.207-1.044 0-1.584-.854-1.584-2.188 0-1.413.594-2.296 1.468-2.296.891 0 1.242.937 1.242 1.927 0 .162 0 .279-.009.388h-2.026zm1.369-.513c.018-.873-.315-1.261-.648-1.261-.45 0-.684.667-.711 1.261h1.359zm2.879-3.349a4.028 4.028 0 0 1 1.008-.117c.558 0 1.026.135 1.341.45.297.288.45.729.45 1.251 0 .559-.135.937-.369 1.242-.333.45-.891.676-1.431.676-.117 0-.207 0-.306-.009v2.484h-.693v-5.977zm.693 2.907c.081.019.153.027.27.027.684 0 1.144-.45 1.144-1.306 0-.621-.261-1.179-1.026-1.179-.162 0-.297.018-.387.045v2.413zm5.293.892c0 1.684-.784 2.251-1.45 2.251-.783 0-1.414-.712-1.414-2.242 0-1.593.711-2.26 1.458-2.26.775 0 1.406.729 1.406 2.251zm-2.17 0c0 .721.126 1.701.756 1.701.594 0 .711-1.026.711-1.701 0-.666-.117-1.692-.729-1.692-.621 0-.738 1.026-.738 1.692zm2.934-1.054c0-.368-.027-.801-.036-1.125h.622l.036.685h.018c.144-.414.513-.757.918-.757.054 0 .099.01.144.01v.711c-.045-.009-.09-.009-.144-.009-.441 0-.765.404-.837.909a2.65 2.65 0 0 0-.027.396v2.413h-.693v-3.233zm3.303-2.277v1.152h.837v.531h-.837v2.584c0 .567.207.72.459.72.108 0 .198-.009.279-.026l.027.531a1.522 1.522 0 0 1-.513.071c-.27 0-.513-.071-.684-.261-.171-.198-.261-.495-.261-1.099v-2.521h-.531v-.531h.531v-.954l.693-.197zm-23.868 14.15h.693v5.482h1.71v.585h-2.404v-6.067zm3.384 3.952c.009 1.332.531 1.62 1.036 1.62.297 0 .549-.072.72-.171l.108.513c-.243.136-.612.207-.955.207-1.044 0-1.584-.854-1.584-2.188 0-1.413.594-2.296 1.468-2.296.891 0 1.242.937 1.242 1.927 0 .162 0 .279-.009.388h-2.026zm1.368-.514c.018-.873-.315-1.261-.648-1.261-.45 0-.684.667-.711 1.261h1.359zm1.413-.603c0-.513-.027-.773-.036-1.125h.603l.036.522h.018c.189-.352.54-.595.999-.595.604 0 1.054.45 1.054 1.504v2.926h-.693v-2.809c0-.514-.099-1.035-.603-1.035-.288 0-.567.243-.657.711a2.445 2.445 0 0 0-.027.387v2.746h-.693V36.74zm6.309-1.125c-.009.307-.036.693-.036 1.359v2.439c0 1.144-.144 1.576-.432 1.891-.261.298-.675.469-1.161.469-.369 0-.729-.09-.954-.216l.162-.541c.171.091.459.189.811.189.549 0 .891-.342.891-1.332v-.441h-.018a.886.886 0 0 1-.837.531c-.774 0-1.279-.873-1.279-2.152 0-1.602.729-2.269 1.369-2.269.468 0 .684.307.81.567h.018l.036-.495h.62zm-.72 1.504a1.16 1.16 0 0 0-.036-.315c-.081-.297-.234-.666-.63-.666-.504 0-.774.675-.774 1.639 0 1.116.351 1.62.774 1.62.207 0 .477-.099.621-.621.036-.135.045-.271.045-.396v-1.261zm2.493-2.657v1.152h.837v.531h-.837v2.584c0 .567.207.72.459.72.108 0 .198-.009.279-.026l.027.531a1.522 1.522 0 0 1-.513.071c-.27 0-.513-.071-.684-.261-.171-.198-.261-.495-.261-1.099v-2.521h-.531v-.531h.531v-.954l.693-.197zm1.448-.719h.693v2.34h.018a1.23 1.23 0 0 1 .36-.378c.162-.099.333-.162.585-.162.549 0 1.018.441 1.018 1.54v2.89h-.693v-2.809c0-.531-.117-1.035-.585-1.035-.324 0-.567.233-.675.692-.018.1-.027.226-.027.334v2.817h-.693v-6.229zm62.816 14.932c.288-.054.648-.09.955-.09.377 0 .873.108 1.143.423.234.262.334.63.334.981 0 .666-.279 1.261-.613 1.62-.378.414-.945.612-1.439.612-.154 0-.289-.018-.406-.036l-.468 2.494h-.64l1.134-6.004zm.081 2.953c.108.027.207.036.351.036.928 0 1.333-.919 1.333-1.603 0-.55-.216-.928-.873-.928-.117 0-.243.019-.343.036l-.468 2.459zm4.051 3.052c.009-.243.036-.486.063-.828h-.019c-.433.738-.819.9-1.144.9-.504 0-.811-.441-.811-1.225 0-1.323.703-3.277 2.387-3.277.306 0 .621.063.801.145l-.504 2.493c-.117.586-.198 1.306-.189 1.792h-.584zm.549-3.871a1.19 1.19 0 0 0-.271-.027c-.972 0-1.512 1.594-1.539 2.548-.009.55.1.864.405.864.44 0 .909-.864 1.081-1.729l.324-1.656zm1.89-.487l.144 2.439c.019.396.027.648.045 1.081h.019c.117-.379.242-.712.387-1.099l.9-2.422h.666l-1.459 3.538c-.396.973-.854 1.782-1.431 2.277-.261.217-.513.379-.675.433l-.262-.549c.189-.091.424-.226.648-.414.27-.226.566-.622.702-.945.036-.091.045-.153.036-.243l-.387-4.097h.667zm1.97 4.358l1.17-6.229h.657l-1.188 6.229h-.639zm4.681-3.007c0 1.099-.54 3.079-1.872 3.079-.811 0-1.062-.702-1.062-1.477 0-1.171.63-3.025 1.926-3.025.873 0 1.008.838 1.008 1.423zm-2.277 1.539c0 .495.036 1.009.495 1.009.792 0 1.125-1.854 1.125-2.593 0-.45-.08-.838-.459-.838-.721 0-1.161 1.567-1.161 2.422zm4.553 1.468c.01-.243.036-.486.063-.828h-.019c-.432.738-.818.9-1.143.9-.504 0-.811-.441-.811-1.225 0-1.323.702-3.277 2.386-3.277.306 0 .621.063.802.145l-.505 2.493c-.116.586-.198 1.306-.188 1.792h-.585zm.549-3.871a1.176 1.176 0 0 0-.27-.027c-.973 0-1.512 1.594-1.539 2.548-.01.55.099.864.404.864.441 0 .91-.864 1.081-1.729l.324-1.656zm4.501-2.359l-.892 4.699c-.09.477-.18 1.116-.197 1.53h-.559l.054-.685h-.019c-.215.45-.621.757-1.043.757-.55 0-.883-.514-.883-1.306 0-1.485.783-3.196 2.062-3.196.171 0 .351.072.459.162l.369-1.962h.649zm-1.143 2.529a.47.47 0 0 0-.404-.198c-.838 0-1.324 1.647-1.324 2.539 0 .513.117.873.477.873.316 0 .738-.396.91-1.26l.341-1.954zm58.226-11.115c-.189.1-.486.162-.864.162-1.188 0-2.034-.954-2.034-3.016 0-2.395 1.188-3.16 2.143-3.16.369 0 .63.072.756.153l-.153.585a1.339 1.339 0 0 0-.612-.126c-.648 0-1.404.63-1.404 2.485 0 1.854.685 2.466 1.423 2.466.261 0 .495-.062.64-.135l.105.586zm.629-6.121h.693v2.34h.018c.091-.152.226-.287.361-.378.162-.099.332-.162.584-.162.55 0 1.018.441 1.018 1.54v2.89h-.693v-2.809c0-.531-.117-1.035-.585-1.035-.323 0-.567.233-.675.692-.018.1-.027.226-.027.334v2.817h-.693v-6.229zm4.131 4.114c.01 1.332.531 1.62 1.036 1.62.297 0 .549-.072.72-.171l.108.513c-.243.136-.612.207-.954.207-1.045 0-1.585-.854-1.585-2.188 0-1.413.595-2.296 1.468-2.296.891 0 1.242.937 1.242 1.927 0 .162 0 .279-.009.388h-2.026zm1.369-.514c.018-.873-.315-1.261-.648-1.261-.45 0-.684.667-.711 1.261h1.359zm3.537 2.521c-.154.091-.414.162-.721.162-.954 0-1.594-.765-1.594-2.205 0-1.252.631-2.269 1.72-2.269.233 0 .486.062.612.135l-.135.567a1.136 1.136 0 0 0-.496-.117c-.693 0-1.008.828-1.008 1.684 0 1.017.387 1.629 1.026 1.629.188 0 .343-.045.504-.117l.092.531zm1.277-2.224h.018c.082-.171.153-.342.234-.485l.864-1.54h.747l-1.152 1.837 1.252 2.521h-.774l-.945-2.053-.243.405v1.647h-.693v-6.229h.693v3.897zm2.385 1.612c.152.099.423.225.701.225.396 0 .64-.243.64-.63 0-.333-.117-.559-.558-.855-.568-.369-.873-.738-.873-1.242 0-.702.521-1.207 1.197-1.207.342 0 .603.117.783.226l-.189.522a1.026 1.026 0 0 0-.576-.189.533.533 0 0 0-.567.549c0 .298.108.459.54.757.504.324.9.72.9 1.323 0 .873-.594 1.296-1.305 1.296-.324 0-.676-.099-.865-.252l.172-.523zm5.328-.468c0 .486.027.864.036 1.188h-.603l-.045-.459h-.019c-.136.216-.468.531-.937.531-.766 0-1.062-.595-1.062-1.675v-2.755h.693v2.656c0 .684.108 1.188.586 1.188.404 0 .584-.379.621-.576a1.87 1.87 0 0 0 .035-.396v-2.872h.693v3.17zm.972-2.044c0-.513-.027-.773-.036-1.125h.604l.035.54h.019c.188-.351.522-.612.981-.612.404 0 .747.198.909.667h.019a1.36 1.36 0 0 1 .432-.495c.171-.117.378-.172.604-.172.584 0 1.044.433 1.044 1.54v2.89h-.685v-2.728c0-.567-.081-1.116-.611-1.116-.289 0-.541.243-.64.647a2.524 2.524 0 0 0-.027.396v2.8h-.685v-2.854c0-.486-.09-.99-.603-.99-.279 0-.567.243-.648.702a2.371 2.371 0 0 0-.026.378v2.764h-.685V36.74zM241.18 19.287c.27-.081.585-.117.936-.117.64 0 1.09.162 1.423.459.468.405.819 1.188.819 2.458 0 1.386-.342 2.143-.729 2.557-.396.45-.972.657-1.675.657-.279 0-.566-.019-.773-.063v-5.951zm.693 5.41c.099.019.197.019.261.019.765 0 1.503-.55 1.503-2.611 0-1.53-.468-2.367-1.439-2.367-.109 0-.234.009-.324.036v4.923zm3.815-1.548c.01 1.332.531 1.62 1.036 1.62.297 0 .549-.072.72-.171l.108.513c-.243.136-.612.207-.954.207-1.045 0-1.585-.854-1.585-2.188 0-1.413.595-2.296 1.468-2.296.891 0 1.242.937 1.242 1.927 0 .162 0 .279-.009.388h-2.026zm1.369-.513c.018-.873-.315-1.261-.648-1.261-.45 0-.684.667-.711 1.261h1.359zm1.295 1.909c.153.099.424.225.703.225.396 0 .639-.243.639-.63 0-.333-.117-.559-.559-.855-.566-.369-.873-.738-.873-1.242 0-.702.522-1.207 1.197-1.207.342 0 .604.117.783.226l-.188.522a1.024 1.024 0 0 0-.576-.189.534.534 0 0 0-.567.549c0 .298.107.459.54.757.505.324.9.72.9 1.323 0 .873-.595 1.296-1.306 1.296-.324 0-.675-.099-.863-.252l.17-.523zm3.564-4.79v1.152h.838v.531h-.838v2.584c0 .567.207.72.459.72.108 0 .199-.009.279-.026l.027.531a1.524 1.524 0 0 1-.514.071c-.27 0-.513-.071-.684-.261-.172-.198-.262-.495-.262-1.099v-2.521h-.531v-.531h.531v-.954l.695-.197zm2.196.027c.009.27-.162.45-.423.45-.226 0-.396-.181-.396-.45 0-.271.18-.45.405-.45.252 0 .414.18.414.45zm-.747 5.483v-4.357h.693v4.357h-.693zm1.657-3.233c0-.513-.027-.773-.037-1.125h.604l.036.522h.019c.188-.352.539-.595.998-.595.604 0 1.055.45 1.055 1.504v2.926h-.693v-2.809c0-.514-.1-1.035-.604-1.035-.288 0-.567.243-.657.711a2.331 2.331 0 0 0-.027.387v2.746h-.692v-3.232zm5.363 3.233l-.045-.459h-.026c-.188.333-.495.531-.864.531-.586 0-1.035-.495-1.035-1.242 0-1.09.873-1.576 1.854-1.585v-.135c0-.585-.143-.99-.692-.99-.271 0-.513.09-.72.225l-.154-.486c.181-.135.586-.288 1.018-.288.873 0 1.252.576 1.252 1.558v1.882c0 .333 0 .711.045.99h-.633zm-.099-2.251c-.36 0-1.197.063-1.197 1.009 0 .567.288.774.531.774.306 0 .567-.226.647-.657.019-.081.019-.171.019-.243v-.883zm2.421-3.259v1.152h.837v.531h-.837v2.584c0 .567.207.72.459.72.107 0 .198-.009.279-.026l.027.531a1.532 1.532 0 0 1-.514.071c-.27 0-.514-.071-.684-.261-.172-.198-.262-.495-.262-1.099v-2.521h-.531v-.531h.531v-.954l.695-.197zm2.195.027c.01.27-.162.45-.423.45-.226 0-.396-.181-.396-.45 0-.271.18-.45.404-.45.253 0 .415.18.415.45zm-.746 5.483v-4.357h.692v4.357h-.692zm4.33-2.179c0 1.684-.783 2.251-1.45 2.251-.783 0-1.413-.712-1.413-2.242 0-1.593.711-2.26 1.458-2.26.774 0 1.405.729 1.405 2.251zm-2.17 0c0 .721.125 1.701.756 1.701.594 0 .711-1.026.711-1.701 0-.666-.117-1.692-.729-1.692-.62 0-.738 1.026-.738 1.692zm2.943-1.054c0-.513-.027-.773-.036-1.125h.604l.035.522h.019c.188-.352.54-.595.999-.595.604 0 1.054.45 1.054 1.504v2.926h-.693v-2.809c0-.514-.099-1.035-.603-1.035-.289 0-.568.243-.658.711a2.445 2.445 0 0 0-.027.387v2.746h-.692v-3.232zm5.112-2.745a4.022 4.022 0 0 1 1.008-.117c.559 0 1.026.135 1.342.45.297.288.449.729.449 1.251 0 .559-.135.937-.369 1.242-.332.45-.891.676-1.431.676-.117 0-.207 0-.306-.009v2.484h-.693v-5.977zm.693 2.907c.08.019.152.027.27.027.684 0 1.144-.45 1.144-1.306 0-.621-.261-1.179-1.026-1.179-.162 0-.297.018-.387.045v2.413zm5.292.892c0 1.684-.784 2.251-1.45 2.251-.783 0-1.413-.712-1.413-2.242 0-1.593.712-2.26 1.458-2.26.776 0 1.405.729 1.405 2.251zm-2.169 0c0 .721.126 1.701.757 1.701.594 0 .711-1.026.711-1.701 0-.666-.117-1.692-.729-1.692-.622 0-.739 1.026-.739 1.692zm2.934-1.054c0-.368-.027-.801-.037-1.125h.622l.036.685h.018c.145-.414.514-.757.918-.757.055 0 .1.01.145.01v.711c-.045-.009-.09-.009-.145-.009-.441 0-.765.404-.837.909a2.53 2.53 0 0 0-.026.396v2.413h-.693v-3.233zm3.303-2.277v1.152h.837v.531h-.837v2.584c0 .567.207.72.459.72.107 0 .198-.009.279-.026l.027.531a1.532 1.532 0 0 1-.514.071c-.27 0-.514-.071-.684-.261-.172-.198-.262-.495-.262-1.099v-2.521h-.531v-.531h.531v-.954l.695-.197zM10.168 39.018c.207.126.531.234.855.234.594 0 .945-.396.945-.991 0-.702-.495-1.053-1.134-1.053h-.162v-.711h.117c.432 0 1.018-.243 1.018-.883 0-.495-.288-.774-.72-.774-.279 0-.531.117-.729.252l-.162-.72c.234-.171.675-.324 1.134-.324.945 0 1.44.63 1.44 1.378 0 .594-.315 1.089-.855 1.341v.019c.549.171 1.018.666 1.018 1.512 0 .919-.657 1.747-1.837 1.747-.432 0-.846-.117-1.089-.271l.161-.756zm3.527.954v-.64l.541-.711c.729-.963 1.44-1.899 1.44-2.854 0-.549-.271-.909-.784-.909-.396 0-.684.188-.864.306l-.189-.738a2.188 2.188 0 0 1 1.225-.378c1.143 0 1.557.792 1.557 1.656 0 1.099-.702 2.062-1.395 2.936l-.369.468v.018h1.854v.847h-3.016zm-2.151 14.78c-.315 0-.576-.262-.576-.666 0-.388.271-.667.585-.667.333 0 .585.252.585.667 0 .404-.234.666-.585.666h-.009zm1.944 0c-.315 0-.576-.262-.576-.666 0-.388.271-.667.585-.667.333 0 .585.252.585.667 0 .404-.234.666-.585.666h-.009zm1.944 0c-.315 0-.576-.262-.576-.666 0-.388.271-.667.585-.667.333 0 .585.252.585.667 0 .404-.234.666-.585.666h-.009z"/></svg>