<svg xmlns="http://www.w3.org/2000/svg" viewBox="0 0 337.179 157.499"><path fill="#fddfbb" fill-rule="evenodd" d="M28.413 132.5v-8.425h74.416v-7.825l74.25-.25v-15.816h74.5V66.5h73.75V5h11.35v127.5H25.829h310.85" clip-rule="evenodd"/><path d="M8.25 118.167c.11.21.18.54.18.959 0 1.319-1.059 2.259-3.348 2.259-2.658 0-3.508-1.319-3.508-2.379 0-.41.08-.699.17-.839l.649.17c-.07.16-.14.33-.14.68 0 .72.699 1.559 2.758 1.559 2.06 0 2.738-.76 2.738-1.579 0-.29-.069-.55-.149-.709l.65-.121zm-2.299-3.52c1.869 0 2.499.87 2.499 1.609 0 .87-.79 1.569-2.488 1.569-1.77 0-2.509-.79-2.509-1.619 0-.859.81-1.559 2.498-1.559zm0 2.409c.8 0 1.89-.14 1.89-.839 0-.66-1.14-.79-1.89-.79-.739 0-1.879.13-1.879.81 0 .689 1.14.819 1.879.819zm-1.169-3.27c-.569 0-.859.03-1.249.04v-.67l.579-.04v-.02c-.39-.21-.659-.6-.659-1.109 0-.669.499-1.169 1.669-1.169H8.37v.77H5.252c-.569 0-1.149.11-1.149.669 0 .32.27.629.789.729.12.02.271.03.431.03H8.37v.77H4.782zm-1.249-7.009c.34.01.77.04 1.509.04H7.75c1.27 0 1.749.16 2.1.479.329.29.52.75.52 1.29 0 .41-.1.81-.24 1.059l-.6-.18c.101-.19.21-.51.21-.899 0-.61-.38-.99-1.479-.99h-.49v.02c.38.17.59.52.59.93 0 .859-.97 1.419-2.389 1.419-1.779 0-2.519-.81-2.519-1.52 0-.52.34-.759.629-.899v-.02l-.549-.04v-.689zm1.669.8c-.12 0-.25.01-.351.04-.329.09-.739.26-.739.7 0 .56.75.859 1.819.859 1.239 0 1.799-.39 1.799-.859 0-.23-.11-.53-.689-.689-.15-.04-.3-.05-.439-.05h-1.4zm.819-2.371c1.479-.01 1.799-.589 1.799-1.149 0-.33-.08-.609-.189-.799l.569-.12c.15.27.229.68.229 1.06 0 1.159-.949 1.759-2.429 1.759-1.568 0-2.548-.66-2.548-1.629 0-.989 1.039-1.379 2.139-1.379.18 0 .31 0 .43.01v2.247zm-.569-1.519c-.97-.02-1.399.35-1.399.72 0 .5.739.759 1.399.79v-1.51zm2.118-1.441c.11-.17.25-.47.25-.78 0-.439-.27-.709-.699-.709-.37 0-.62.13-.95.62-.409.63-.819.969-1.379.969-.779 0-1.339-.58-1.339-1.329 0-.38.13-.669.25-.87l.579.21c-.12.18-.21.39-.21.64 0 .42.3.63.61.63.329 0 .509-.12.839-.6.36-.56.8-1 1.47-1 .969 0 1.438.66 1.438 1.449 0 .36-.109.75-.279.959l-.58-.189zm-5.316-3.959h1.279v-.93h.589v.93h2.869c.629 0 .799-.23.799-.51 0-.12-.01-.22-.029-.31l.59-.03c.05.14.079.32.079.569 0 .3-.079.57-.289.76-.221.19-.55.29-1.22.29H4.122v.589h-.589v-.589h-1.06l-.219-.769zm.029-2.44c.3-.01.5.18.5.47 0 .25-.2.439-.5.439s-.499-.2-.499-.45c0-.279.199-.459.499-.459zm6.087.83H3.533v-.77H8.37v.77zm-2.419-4.809c1.869 0 2.499.87 2.499 1.609 0 .87-.79 1.569-2.488 1.569-1.77 0-2.509-.79-2.509-1.619 0-.859.81-1.559 2.498-1.559zm0 2.409c.8 0 1.89-.14 1.89-.839 0-.66-1.14-.79-1.89-.79-.739 0-1.879.13-1.879.81 0 .689 1.14.819 1.879.819zm-1.169-3.27c-.569 0-.859.03-1.249.04v-.67l.579-.04v-.02c-.39-.209-.659-.6-.659-1.109 0-.669.499-1.169 1.669-1.169H8.37v.77H5.252c-.569 0-1.149.11-1.149.669 0 .32.27.63.789.729.12.02.271.03.431.03H8.37v.77H4.782zm-1.249-6.01l2.368-.47c.52-.09 1.039-.2 1.539-.26v-.04c-.5-.07-1.06-.19-1.519-.3l-2.389-.56v-.59l2.318-.529c.54-.12 1.05-.23 1.589-.31v-.04c-.51-.06-1.009-.15-1.559-.26l-2.349-.46v-.77l4.837 1.219v.63l-2.349.56c-.47.12-.899.19-1.449.27v.02c.569.08 1.02.17 1.479.28l2.318.58v.65L3.53 85.796v-.799zm-1.25-6.1c.3-.01.5.18.5.47 0 .25-.2.439-.5.439s-.499-.2-.499-.45c0-.279.199-.459.499-.459zm6.087.83H3.533v-.77H8.37v.77zm-3.588-1.84c-.569 0-.859.03-1.249.04v-.67l.579-.04v-.02c-.39-.21-.659-.6-.659-1.109 0-.669.499-1.169 1.669-1.169H8.37v.77H5.252c-.569 0-1.149.11-1.149.669 0 .32.27.629.789.729.12.02.271.03.431.03H8.37v.77H4.782zm-3.328-6.958h5.757c.33 0 .879-.03 1.159-.04v.66l-.609.05v.03c.35.16.689.5.689 1.009 0 .82-.89 1.41-2.479 1.41-1.72 0-2.519-.71-2.519-1.459 0-.35.17-.689.579-.879v-.02H1.454v-.761zm3.918.759c-.101 0-.21 0-.32.01-.5.05-.939.35-.939.72 0 .64.89.859 1.859.859 1.02 0 1.839-.26 1.839-.819 0-.24-.13-.57-.83-.74-.09-.02-.199-.03-.319-.03h-1.29zm.579-4.809c1.869 0 2.499.87 2.499 1.609 0 .87-.79 1.569-2.488 1.569-1.77 0-2.509-.79-2.509-1.619 0-.859.81-1.559 2.498-1.559zm0 2.409c.8 0 1.89-.14 1.89-.839 0-.66-1.14-.79-1.89-.79-.739 0-1.879.13-1.879.81 0 .689 1.14.819 1.879.819zm-2.418-3.59l2.368-.47c.52-.09 1.039-.2 1.539-.26v-.04c-.5-.07-1.06-.19-1.519-.3l-2.389-.56v-.59l2.318-.53c.54-.12 1.05-.229 1.589-.31V62.6c-.51-.06-1.009-.15-1.559-.26l-2.349-.46v-.77l4.839 1.22v.63l-2.349.56c-.47.12-.899.19-1.449.27v.02c.569.08 1.02.17 1.479.28l2.318.58v.65l-4.837 1.179v-.801zm4.037-6.71c.11-.17.25-.47.25-.78 0-.439-.27-.709-.699-.709-.37 0-.62.13-.95.62-.409.63-.819.969-1.379.969-.779 0-1.339-.58-1.339-1.329 0-.38.13-.669.25-.87l.579.21c-.12.18-.21.39-.21.64 0 .42.3.63.61.63.329 0 .509-.12.839-.6.36-.56.8-1 1.47-1 .969 0 1.438.66 1.438 1.449 0 .36-.109.75-.279.959l-.58-.189zm-5.287-3.849c.3-.01.5.18.5.47 0 .25-.2.439-.5.439s-.499-.2-.499-.45c0-.28.199-.459.499-.459zm6.087.829H3.533v-.77H8.37v.77zm-.47-1.46l-2.988-1.529c-.25-.13-.5-.28-.72-.39h-.02v1.729h-.64V51.74h.51l2.948 1.509c.25.13.499.28.72.39h.02V51.74h.64v2.768H7.9zm-1.879-3.93c1.479-.01 1.799-.589 1.799-1.149 0-.33-.08-.609-.189-.799l.569-.12c.15.27.229.68.229 1.06 0 1.159-.949 1.759-2.429 1.759-1.568 0-2.548-.66-2.548-1.629 0-.989 1.039-1.379 2.139-1.379.18 0 .31 0 .43.01v2.247zm-.569-1.519c-.97-.02-1.399.35-1.399.72 0 .5.739.759 1.399.79v-1.51zm-3.998-4.88c.899.57 2.249 1.04 4.067 1.04 1.789 0 3.139-.47 4.048-1.04v.6c-.76.52-2.099 1.1-4.058 1.1-1.959-.02-3.309-.58-4.058-1.1v-.6zm6.116-.66c.11-.17.25-.47.25-.78 0-.439-.27-.709-.699-.709-.37 0-.62.13-.95.62-.409.63-.819.969-1.379.969-.779 0-1.339-.58-1.339-1.329 0-.38.13-.669.25-.87l.579.21c-.12.18-.21.39-.21.64 0 .42.3.63.61.63.329 0 .509-.12.839-.6.36-.56.8-1 1.47-1 .969 0 1.438.66 1.438 1.449 0 .36-.109.75-.279.959l-.58-.189zm-1.549-3.56c1.479-.01 1.799-.589 1.799-1.149 0-.33-.08-.609-.189-.799l.569-.121c.15.27.229.68.229 1.06 0 1.159-.949 1.759-2.429 1.759-1.568 0-2.548-.66-2.548-1.629 0-.989 1.039-1.379 2.139-1.379.18 0 .31 0 .43.01v2.248zm-.569-1.519c-.97-.02-1.399.35-1.399.72 0 .5.739.759 1.399.79v-1.51zm-1.919-4.529c.34.01.77.04 1.509.04H7.75c1.27 0 1.749.16 2.1.479.329.29.52.75.52 1.29 0 .41-.1.81-.24 1.059l-.6-.18c.101-.19.21-.51.21-.899 0-.61-.38-.99-1.479-.99h-.49v.02c.38.17.59.52.59.93 0 .859-.97 1.419-2.389 1.419-1.779 0-2.519-.81-2.519-1.52 0-.52.34-.759.629-.899v-.02l-.549-.04v-.689zm1.669.799c-.12 0-.25.01-.351.04-.329.09-.739.26-.739.7 0 .56.75.859 1.819.859 1.239 0 1.799-.39 1.799-.859 0-.23-.11-.53-.689-.689-.15-.04-.3-.05-.439-.05h-1.4zm-.42-1.831c-.569 0-.859.03-1.249.04v-.67l.6-.04v-.02c-.391-.21-.68-.58-.68-1.089 0-.45.22-.83.739-1.009v-.02c-.24-.13-.43-.3-.55-.48a1.163 1.163 0 0 1-.189-.669c0-.649.479-1.159 1.709-1.159H8.37v.759H5.342c-.63 0-1.239.09-1.239.68 0 .32.27.6.72.709.13.02.279.03.439.03H8.37v.759H5.202c-.54 0-1.1.1-1.1.67 0 .31.27.629.779.72.13.02.271.03.42.03H8.37v.76H4.782zm1.239-6.739c1.48-.01 1.799-.59 1.799-1.15 0-.33-.08-.609-.189-.799l.569-.12c.15.27.229.68.229 1.06 0 1.159-.949 1.759-2.429 1.759-1.568 0-2.548-.66-2.548-1.629 0-.989 1.039-1.379 2.139-1.379.18 0 .31 0 .43.01v2.248zm-.569-1.519c-.97-.02-1.399.35-1.399.72 0 .5.739.759 1.399.79v-1.51zm-.67-1.571c-.569 0-.859.03-1.249.04v-.67l.579-.04v-.02c-.39-.209-.659-.6-.659-1.109 0-.669.499-1.169 1.669-1.169H8.37v.77H5.252c-.569 0-1.149.11-1.149.669 0 .32.27.63.789.729.12.02.271.03.431.03H8.37v.77H4.782zm-2.528-4.929h1.279v-.93h.589v.93h2.869c.629 0 .799-.23.799-.51 0-.12-.01-.22-.029-.31l.59-.03c.05.14.079.32.079.57 0 .3-.079.569-.289.759-.221.19-.55.29-1.22.29H4.122v.589h-.589v-.589h-1.06l-.219-.769zM7.57 16.64c.11-.17.25-.47.25-.78 0-.439-.27-.709-.699-.709-.37 0-.62.13-.95.62-.409.629-.819.969-1.379.969-.779 0-1.339-.58-1.339-1.329 0-.38.13-.669.25-.87l.579.21c-.12.18-.21.39-.21.64 0 .42.3.63.61.63.329 0 .509-.12.839-.6.36-.56.8-1 1.47-1 .969 0 1.438.66 1.438 1.449 0 .36-.109.75-.279.959l-.58-.189zm1.999-2.73c-.899-.569-2.269-1.039-4.067-1.039s-3.148.47-4.048 1.039v-.6c.739-.52 2.068-1.099 4.048-1.099 1.979.02 3.298.58 4.067 1.099v.6zm157.664 135.043h-1.229v-.689h3.228v.689h-1.229V155h-.77v-6.047zm3.411-.04c.01.3-.18.5-.47.5-.25 0-.439-.2-.439-.5s.2-.499.45-.499c.279 0 .459.199.459.499zm-.83 6.087v-4.837h.77V155h-.77zm1.84-3.588c0-.569-.03-.859-.04-1.249h.67l.039.6h.021c.21-.391.579-.68 1.089-.68.45 0 .83.22 1.01.739h.02c.131-.24.301-.43.48-.55.189-.13.42-.189.67-.189.648 0 1.158.479 1.158 1.709V155h-.759v-3.028c0-.63-.091-1.239-.68-1.239-.319 0-.6.27-.71.72-.02.13-.029.279-.029.439V155h-.76v-3.168c0-.54-.1-1.1-.67-1.1-.31 0-.629.27-.72.779-.021.13-.03.271-.03.42V155h-.759v-3.588zm6.74 1.239c.01 1.479.59 1.799 1.15 1.799.329 0 .609-.08.799-.189l.12.569c-.271.15-.68.229-1.06.229-1.159 0-1.76-.949-1.76-2.429 0-1.568.66-2.548 1.63-2.548.989 0 1.38 1.039 1.38 2.139 0 .18 0 .31-.011.43h-2.248zm1.519-.569c.02-.97-.35-1.399-.72-1.399-.499 0-.759.739-.79 1.399h1.51zm4.88-3.999c-.569.899-1.04 2.249-1.04 4.067 0 1.789.471 3.139 1.04 4.048h-.6c-.521-.76-1.1-2.099-1.1-4.058.021-1.959.579-3.309 1.1-4.058h.6zm.79 3.329c0-.569-.029-.859-.039-1.249h.67l.039.6h.021c.21-.391.579-.68 1.089-.68.45 0 .83.22 1.01.739h.02c.131-.24.301-.43.48-.55.189-.13.42-.189.67-.189.648 0 1.158.479 1.158 1.709V155h-.759v-3.028c0-.63-.091-1.239-.68-1.239-.319 0-.6.27-.71.72-.02.13-.029.279-.029.439V155h-.76v-3.168c0-.54-.1-1.1-.67-1.1-.31 0-.629.27-.72.779-.021.13-.03.271-.03.42V155h-.76v-3.588zm6.07 2.788c.17.11.471.25.78.25.439 0 .71-.27.71-.699 0-.37-.131-.62-.62-.95-.63-.409-.97-.819-.97-1.379 0-.779.58-1.339 1.33-1.339.379 0 .669.13.869.25l-.21.579a1.14 1.14 0 0 0-.64-.21c-.42 0-.63.3-.63.61 0 .329.12.509.6.839.56.36.999.8.999 1.47 0 .969-.659 1.438-1.449 1.438-.359 0-.749-.109-.959-.279l.19-.58zm2.731 1.999c.569-.899 1.039-2.269 1.039-4.067s-.47-3.148-1.039-4.048h.6c.52.739 1.1 2.068 1.1 4.048-.021 1.979-.58 3.298-1.1 4.067h-.6zM310.536 70.44c.265-.071.584-.104.889-.104.535 0 .936.112 1.215.384.264.271.376.632.376 1.056 0 .688-.319 1.135-.864 1.383v.017c.4.119.608.503.729 1.207.119.743.231 1.199.304 1.367h-.624c-.08-.16-.184-.672-.287-1.335-.121-.736-.353-1.016-.88-1.016h-.24v2.351h-.616v-5.31zm.616 2.487h.256c.592 0 .983-.432.983-1.079 0-.624-.256-1.008-.92-1.016a1.28 1.28 0 0 0-.319.031v2.064zm3.201-2.014h-.983v-.552h2.583v.552h-.984v4.837h-.615v-4.837zm2.919 0h-.983v-.552h2.583v.552h-.984v4.837h-.615v-4.837zm4.848 4.837v-1.432h-1.727v-.415l1.687-3.351h.6v3.263h.567v.503h-.567v1.432h-.56zm0-1.935v-1.472c0-.359.023-.68.048-1.023h-.032c-.176.416-.287.664-.439.983l-.72 1.495v.017h1.143zm-29.777-62.411c-.137.08-.367.144-.64.144-.848 0-1.415-.68-1.415-1.959 0-1.111.56-2.015 1.527-2.015.207 0 .432.056.543.12l-.119.504c-.08-.04-.24-.104-.44-.104-.616 0-.896.735-.896 1.495 0 .903.344 1.447.912 1.447.168 0 .303-.04.447-.104l.081.472zm1.001-3.774l.376 1.896c.072.415.16.831.207 1.231h.033c.055-.4.151-.848.239-1.216l.448-1.911h.471l.424 1.855c.096.432.185.839.248 1.271h.032c.048-.408.12-.808.208-1.248l.367-1.879h.616l-.976 3.87h-.504l-.447-1.879c-.096-.376-.152-.72-.217-1.159h-.016c-.063.455-.136.815-.224 1.184l-.464 1.854h-.52l-.943-3.87h.642zm4.216 1c0-.456-.024-.688-.032-1h.536l.031.464h.016a.982.982 0 0 1 .889-.527c.535 0 .936.399.936 1.335V11.5h-.616V9.005c0-.455-.088-.919-.536-.919-.256 0-.504.216-.584.632a2.183 2.183 0 0 0-.023.344V11.5h-.615V8.63zm5.566-2.663v4.605c0 .264.023.704.032.928h-.528l-.039-.487h-.024c-.128.279-.399.551-.808.551-.656 0-1.127-.711-1.127-1.982 0-1.375.567-2.015 1.167-2.015a.75.75 0 0 1 .704.464h.016V5.967h.607zm-.607 3.135c0-.08 0-.168-.008-.256-.04-.4-.28-.752-.576-.752-.512 0-.688.712-.688 1.487 0 .815.208 1.471.656 1.471.191 0 .455-.104.592-.663.016-.072.023-.16.023-.256V9.102zm2.616-.289v-.439h4.126v.439h-4.126zm0 1.511v-.439h4.126v.439h-4.126zm7.208-3.397h-.016l-.864.495-.12-.479 1.096-.64h.512V11.5h-.607V6.927zm4.127-.168a2.604 2.604 0 0 0-.367.056c-.863.208-1.207 1.071-1.336 1.871h.024c.2-.296.487-.496.88-.496.663 0 1.119.608 1.119 1.6 0 .983-.447 1.774-1.279 1.774-.904 0-1.359-.919-1.359-2.11 0-1.008.264-1.791.672-2.343a2.138 2.138 0 0 1 1.255-.823c.168-.032.304-.04.392-.048v.519zm-.295 3.078c0-.783-.272-1.176-.696-1.176-.256 0-.52.177-.671.561a.805.805 0 0 0-.049.312c.008 1.063.336 1.551.752 1.551.351-.001.664-.345.664-1.248zm3.687-.943c0 1.895-.6 2.67-1.352 2.67-.808 0-1.295-.959-1.295-2.654 0-1.751.52-2.67 1.367-2.67.841-.001 1.28.998 1.28 2.654zm-2.031.007c0 1.256.216 2.135.728 2.135.487 0 .688-.888.688-2.135 0-1.215-.2-2.135-.695-2.135s-.721.888-.721 2.135zM255.56 97.874c.264-.071.583-.104.887-.104.535 0 .936.112 1.215.384.264.271.377.632.377 1.056 0 .688-.32 1.135-.864 1.383v.017c.399.119.608.503.728 1.207.12.743.232 1.199.305 1.367h-.625c-.079-.16-.184-.672-.287-1.335-.12-.736-.352-1.016-.879-1.016h-.24v2.351h-.615v-5.31zm.615 2.487h.256c.592 0 .982-.432.982-1.079 0-.624-.256-1.008-.919-1.016-.12 0-.239.008-.319.031v2.064zm3.199-2.014h-.982v-.552h2.582v.552h-.983v4.837h-.616v-4.837zm2.92 0h-.982v-.552h2.582v.552h-.983v4.837h-.616v-4.837zm3.337 4.173c.159.097.44.216.751.216.536 0 .896-.392.896-1.039 0-.68-.424-1.071-1.048-1.071h-.144v-.464h.119c.368-.008.936-.288.936-.928 0-.52-.279-.799-.688-.799-.256 0-.479.128-.647.247l-.136-.463c.191-.152.543-.296.936-.296.735 0 1.151.527 1.151 1.199 0 .52-.272.976-.776 1.215v.017c.465.128.912.543.912 1.358 0 .848-.543 1.535-1.487 1.535-.335 0-.704-.096-.911-.239l.136-.488zm-84.898 11.42c.264-.071.584-.104.888-.104.535 0 .936.112 1.215.384.264.271.376.632.376 1.056 0 .688-.319 1.135-.863 1.383v.017c.399.119.607.503.728 1.207.12.743.231 1.199.304 1.367h-.624c-.079-.16-.184-.672-.287-1.335-.12-.736-.353-1.016-.88-1.016h-.24v2.351h-.615v-5.31zm.616 2.488h.256c.592 0 .983-.432.983-1.079 0-.624-.256-1.008-.919-1.016-.12 0-.24.008-.32.031v2.064zm3.2-2.015h-.983v-.552h2.583v.552h-.983v4.837h-.616v-4.837zm2.92 0h-.983v-.552h2.583v.552h-.983v4.837h-.616v-4.837zm3.232 4.837v-.399l.44-.6c.615-.855 1.351-1.831 1.351-2.807 0-.576-.256-.928-.743-.928-.376 0-.616.2-.752.288l-.151-.464a1.624 1.624 0 0 1 1.015-.352c.864 0 1.239.64 1.239 1.423 0 .976-.64 1.919-1.279 2.799l-.352.479v.016h1.735v.544h-2.503zm-83.967 2.582c.264-.071.583-.104.887-.104.536 0 .936.112 1.215.384.264.271.376.632.376 1.056 0 .688-.32 1.135-.864 1.383v.017c.4.119.608.503.728 1.207.12.743.232 1.199.304 1.367h-.624c-.08-.16-.184-.672-.288-1.335-.12-.736-.352-1.016-.879-1.016h-.24v2.351h-.615v-5.31zm.615 2.487h.256c.592 0 .983-.432.983-1.079 0-.624-.256-1.008-.919-1.016-.12 0-.24.008-.32.031v2.064zm3.2-2.014h-.983v-.552h2.583v.552h-.983v4.837h-.616v-4.837zm2.92 0h-.983v-.552h2.583v.552h-.983v4.837h-.616v-4.837zm4.48.263h-.016l-.864.495-.12-.479 1.095-.64h.512v5.197h-.608v-4.573zm-82.876-1.267c-.136.08-.368.144-.64.144-.848 0-1.416-.68-1.416-1.959 0-1.111.56-2.015 1.527-2.015.208 0 .432.056.543.12l-.12.504c-.08-.04-.24-.104-.44-.104-.616 0-.896.735-.896 1.495 0 .903.344 1.447.912 1.447.168 0 .304-.04.448-.104l.082.472zm1-3.774l.375 1.896c.072.415.16.831.208 1.231h.032c.056-.4.152-.848.24-1.216l.448-1.911h.472l.424 1.855c.096.432.184.839.248 1.271h.032c.048-.408.12-.808.208-1.248l.368-1.879h.616l-.976 3.87h-.503l-.448-1.879c-.096-.376-.152-.72-.216-1.159h-.016a12.21 12.21 0 0 1-.224 1.184l-.463 1.854h-.52l-.943-3.87h.638zm4.217 1c0-.456-.024-.688-.032-1h.536l.032.464h.016a.982.982 0 0 1 .888-.527c.536 0 .936.399.936 1.335v2.599h-.616v-2.495c0-.455-.088-.919-.536-.919-.256 0-.504.216-.584.632a2.173 2.173 0 0 0-.024.344v2.438h-.616v-2.871zm5.566-2.663v4.605c0 .264.024.704.032.928h-.528l-.04-.487h-.024c-.128.279-.4.551-.808.551-.656 0-1.127-.711-1.127-1.982 0-1.375.568-2.015 1.167-2.015a.75.75 0 0 1 .704.464h.016v-2.063h.608zm-.607 3.135c0-.08 0-.168-.008-.256-.04-.4-.28-.752-.575-.752-.512 0-.688.712-.688 1.487 0 .815.208 1.471.656 1.471.192 0 .456-.104.592-.663.016-.072.024-.16.024-.256v-1.031zm2.616-.289v-.439h4.125v.439h-4.125zm0 1.511v-.439h4.125v.439h-4.125zm7.208-3.397h-.016l-.864.495-.12-.479 1.095-.64h.512v5.197h-.608v-4.573zm4.439 1.967c0 1.895-.6 2.67-1.351 2.67-.808 0-1.295-.959-1.295-2.654 0-1.751.52-2.67 1.367-2.67.84-.001 1.279.998 1.279 2.654zm-2.031.007c0 1.256.216 2.135.728 2.135.488 0 .688-.888.688-2.135 0-1.215-.2-2.135-.695-2.135s-.721.888-.721 2.135zm51.092-4.894c-.136.08-.368.144-.64.144-.848 0-1.416-.68-1.416-1.959 0-1.111.56-2.015 1.527-2.015.208 0 .432.056.543.12l-.12.504c-.08-.04-.24-.104-.44-.104-.616 0-.896.735-.896 1.495 0 .903.344 1.447.912 1.447.168 0 .304-.04.448-.104l.082.472zm1-3.774l.375 1.896c.072.415.16.831.208 1.231h.032c.056-.4.152-.848.24-1.216l.448-1.911h.472l.424 1.855c.096.432.184.839.248 1.271h.032c.048-.408.12-.808.208-1.248l.368-1.879h.616l-.976 3.87h-.503l-.448-1.879c-.096-.376-.152-.72-.216-1.159h-.016a12.21 12.21 0 0 1-.224 1.184l-.464 1.855h-.52l-.943-3.87h.639zm4.217 1c0-.456-.024-.688-.032-1h.536l.032.464h.016a.982.982 0 0 1 .888-.527c.536 0 .936.399.936 1.335V114h-.616v-2.495c0-.455-.088-.919-.536-.919-.256 0-.504.216-.584.632a2.173 2.173 0 0 0-.024.344V114h-.616v-2.87zm5.566-2.663v4.605c0 .264.024.704.032.928h-.528l-.04-.487h-.024c-.128.279-.4.551-.808.551-.656 0-1.127-.711-1.127-1.982 0-1.375.568-2.015 1.167-2.015a.75.75 0 0 1 .704.464h.016v-2.063h.608zm-.607 3.135c0-.08 0-.168-.008-.256-.04-.4-.28-.752-.575-.752-.512 0-.688.712-.688 1.487 0 .815.208 1.471.656 1.471.192 0 .456-.104.592-.663.016-.072.024-.16.024-.256v-1.031zm2.616-.289v-.439h4.125v.439h-4.125zm0 1.511v-.439h4.125v.439h-4.125zm5.961 1.176v-.399l.44-.6c.616-.855 1.351-1.831 1.351-2.807 0-.576-.256-.928-.744-.928-.375 0-.616.2-.751.288l-.152-.464a1.624 1.624 0 0 1 1.015-.352c.864 0 1.239.64 1.239 1.423 0 .976-.64 1.919-1.279 2.799l-.352.479v.016h1.735V114h-2.502zm5.686-2.606c0 1.895-.6 2.67-1.351 2.67-.808 0-1.295-.959-1.295-2.654 0-1.751.52-2.67 1.367-2.67.84-.001 1.279.998 1.279 2.654zm-2.031.007c0 1.256.216 2.135.728 2.135.488 0 .688-.888.688-2.135 0-1.215-.2-2.135-.695-2.135s-.721.888-.721 2.135zm51.592-13.313c-.137.08-.369.144-.641.144-.848 0-1.415-.68-1.415-1.959 0-1.111.56-2.015 1.527-2.015.208 0 .432.056.544.12l-.12.504a1 1 0 0 0-.44-.104c-.615 0-.895.735-.895 1.495 0 .903.344 1.447.911 1.447.168 0 .304-.04.448-.104l.081.472zm1-3.775l.375 1.896c.072.415.16.831.209 1.231h.031c.057-.4.152-.848.24-1.216l.447-1.911h.473l.424 1.855c.096.432.184.839.248 1.271h.031c.048-.408.12-.808.208-1.248l.368-1.879h.615l-.976 3.87h-.503l-.448-1.879c-.097-.376-.151-.72-.216-1.159h-.016c-.064.455-.137.815-.225 1.184l-.463 1.854h-.521l-.943-3.87h.642zm4.217 1c0-.456-.024-.688-.032-1h.536l.031.464h.016a.982.982 0 0 1 .889-.527c.535 0 .936.399.936 1.335v2.599h-.616v-2.495c0-.455-.088-.919-.536-.919-.256 0-.504.216-.584.632a2.183 2.183 0 0 0-.023.344v2.438h-.615v-2.871zm5.566-2.663v4.605c0 .264.023.704.032.928h-.528l-.039-.487h-.024c-.128.279-.399.551-.808.551-.656 0-1.127-.711-1.127-1.982 0-1.375.567-2.015 1.167-2.015a.75.75 0 0 1 .704.464h.016V92.65h.607zm-.607 3.135c0-.08 0-.168-.008-.256-.04-.4-.28-.752-.576-.752-.512 0-.688.712-.688 1.487 0 .815.208 1.471.656 1.471.191 0 .455-.104.592-.663.016-.072.023-.16.023-.256v-1.031zm2.616-.288v-.439h4.126v.439h-4.126zm0 1.511v-.439h4.126v.439h-4.126zm7.575 1.176v-1.432h-1.727v-.415l1.688-3.351h.6v3.263h.567v.503h-.567v1.432h-.561zm0-1.935v-1.472c0-.359.024-.68.049-1.023h-.033c-.176.416-.287.664-.439.983l-.719 1.495v.017h1.142zm4.073-.672c0 1.895-.6 2.67-1.352 2.67-.808 0-1.295-.959-1.295-2.654 0-1.751.52-2.67 1.367-2.67.84 0 1.28.999 1.28 2.654zm-2.032.008c0 1.256.216 2.135.728 2.135.487 0 .688-.888.688-2.135 0-1.215-.2-2.135-.695-2.135s-.721.888-.721 2.135zm52.416-31.181c-.136.08-.367.144-.639.144-.848 0-1.416-.68-1.416-1.959 0-1.111.561-2.015 1.527-2.015.208 0 .432.056.543.12l-.119.504c-.08-.04-.24-.104-.439-.104-.616 0-.896.735-.896 1.495 0 .903.344 1.447.912 1.447.168 0 .304-.04.447-.104l.08.472zm1.001-3.774l.376 1.896c.072.415.16.831.207 1.231h.033c.055-.4.151-.848.239-1.216l.448-1.911h.471l.424 1.855c.096.432.185.839.248 1.271h.032c.048-.408.12-.808.208-1.248l.367-1.879h.616l-.976 3.87h-.504l-.447-1.879c-.096-.376-.152-.72-.217-1.159h-.016c-.063.455-.136.815-.224 1.184l-.464 1.854h-.52l-.943-3.87h.642zm4.216 1c0-.456-.023-.688-.031-1h.535l.032.464h.017a.98.98 0 0 1 .887-.527c.536 0 .936.399.936 1.335V64.5h-.615v-2.495c0-.455-.088-.919-.535-.919-.256 0-.504.216-.584.632a2.173 2.173 0 0 0-.024.344V64.5h-.616v-2.87zm5.568-2.663v4.605c0 .264.024.704.032.928h-.527l-.041-.487h-.023c-.128.279-.4.551-.808.551-.655 0-1.128-.711-1.128-1.982 0-1.375.568-2.015 1.168-2.015a.75.75 0 0 1 .703.464h.017v-2.063h.607zm-.608 3.135c0-.08 0-.168-.009-.256-.039-.4-.279-.752-.574-.752-.512 0-.688.712-.688 1.487 0 .815.208 1.471.655 1.471.192 0 .456-.104.592-.663.016-.072.024-.16.024-.256v-1.031zm2.616-.289v-.439h4.125v.439h-4.125zm0 1.511v-.439h4.125v.439h-4.125zm5.928-.095c0-.728.433-1.191.856-1.487l-.009-.016c-.432-.296-.68-.752-.68-1.191 0-.8.568-1.295 1.216-1.295.743 0 1.112.623 1.112 1.223 0 .456-.217.896-.696 1.224v.024c.479.319.831.791.831 1.415 0 .808-.535 1.438-1.335 1.438-.862-.001-1.295-.688-1.295-1.335zm2.024-.064c0-.6-.344-.936-.744-1.199a1.387 1.387 0 0 0-.671 1.159c0 .583.264.983.712.983.382 0 .703-.296.703-.943zm-1.264-2.671c0 .527.32.792.641.999.312-.224.52-.567.52-.959 0-.504-.208-.84-.584-.84-.345 0-.577.328-.577.8zm4.959 1.4c0 1.895-.6 2.67-1.351 2.67-.808 0-1.296-.959-1.296-2.654 0-1.751.52-2.67 1.367-2.67.84-.001 1.28.998 1.28 2.654zm-2.03.007c0 1.256.216 2.135.728 2.135.488 0 .688-.888.688-2.135 0-1.215-.199-2.135-.695-2.135s-.721.888-.721 2.135zM18.842 121.992h-.018l-.972.558-.135-.54 1.233-.72h.576v5.852h-.684v-5.15zm4.995 2.215c0 2.134-.675 3.007-1.521 3.007-.909 0-1.458-1.081-1.458-2.989 0-1.972.585-3.007 1.54-3.007.944 0 1.439 1.125 1.439 2.989zm-2.287.009c0 1.413.243 2.403.819 2.403.549 0 .774-.999.774-2.403 0-1.368-.225-2.403-.783-2.403s-.81.999-.81 2.403zm-3.995-13.821c.18.107.495.243.846.243.603 0 1.008-.441 1.008-1.171 0-.765-.477-1.206-1.179-1.206h-.162v-.522h.135c.414-.009 1.053-.324 1.053-1.044 0-.585-.315-.9-.774-.9-.288 0-.54.145-.729.279l-.153-.522c.216-.171.612-.333 1.053-.333.828 0 1.296.595 1.296 1.351 0 .585-.306 1.099-.873 1.368v.019c.522.144 1.026.611 1.026 1.53 0 .954-.612 1.729-1.674 1.729-.378 0-.792-.108-1.026-.271l.153-.55zm6.282-2.188c0 2.134-.675 3.007-1.521 3.007-.909 0-1.458-1.081-1.458-2.989 0-1.972.585-3.007 1.54-3.007.944 0 1.439 1.125 1.439 2.989zm-2.287.009c0 1.413.243 2.403.819 2.403.549 0 .774-.999.774-2.403 0-1.368-.225-2.403-.783-2.403s-.81.999-.81 2.403zm-1.403-19.205h-1.576l-.243 1.558c.072-.019.135-.019.216-.019.315 0 .801.135 1.116.441.306.306.486.738.486 1.332 0 1.161-.729 1.999-1.774 1.999-.351 0-.756-.1-.99-.252l.153-.559c.18.108.495.234.819.234.594 0 1.107-.459 1.107-1.351 0-.928-.567-1.314-1.323-1.314-.216 0-.351.009-.459.027l.369-2.71h2.098v.614zm3.69 2.304c0 2.134-.675 3.007-1.521 3.007-.909 0-1.458-1.081-1.458-2.989 0-1.972.585-3.007 1.54-3.007.944 0 1.439 1.125 1.439 2.989zm-2.287.009c0 1.413.243 2.403.819 2.403.549 0 .774-.999.774-2.403 0-1.368-.225-2.403-.783-2.403s-.81.999-.81 2.403zM20.3 71.29v.414l-1.891 5.438h-.675l1.855-5.222v-.018h-2.107v-.612H20.3zm3.537 2.917c0 2.134-.675 3.007-1.521 3.007-.909 0-1.458-1.081-1.458-2.989 0-1.972.585-3.007 1.54-3.007.944 0 1.439 1.125 1.439 2.989zm-2.287.009c0 1.413.243 2.403.819 2.403.549 0 .774-.999.774-2.403 0-1.368-.225-2.403-.783-2.403s-.81.999-.81 2.403zm-3.798-14.097c.153 0 .279-.018.432-.054.297-.072.585-.234.801-.459.324-.36.585-.892.685-1.666h-.027c-.216.279-.522.495-.945.495-.729 0-1.278-.675-1.278-1.737 0-1.071.576-1.98 1.477-1.98.999 0 1.467 1.054 1.467 2.35 0 1.152-.288 2.062-.774 2.71a2.33 2.33 0 0 1-1.351.892 2.497 2.497 0 0 1-.486.045v-.596zm.352-3.483c0 .864.324 1.278.792 1.278.288 0 .576-.198.72-.522a.956.956 0 0 0 .054-.378c0-1.225-.352-1.756-.811-1.756-.35 0-.755.378-.755 1.378zm5.733 1.071c0 2.134-.675 3.007-1.521 3.007-.909 0-1.458-1.081-1.458-2.989 0-1.972.585-3.007 1.54-3.007.944 0 1.439 1.125 1.439 2.989zm-2.287.009c0 1.413.243 2.403.819 2.403.549 0 .774-.999.774-2.403 0-1.368-.225-2.403-.783-2.403s-.81.999-.81 2.403zm-6.174-18.474h-.018l-.972.558-.135-.54 1.233-.72h.576v5.852h-.685v-5.15zm3.465 0h-.018l-.972.558-.135-.54 1.233-.72h.576v5.852h-.685v-5.15zm4.996 2.215c0 2.134-.675 3.007-1.521 3.007-.91 0-1.458-1.081-1.458-2.989 0-1.972.585-3.007 1.54-3.007.944 0 1.439 1.125 1.439 2.989zm-2.287.009c0 1.413.243 2.403.819 2.403.549 0 .774-.999.774-2.403 0-1.368-.225-2.403-.783-2.403s-.81.999-.81 2.403z"/><path fill="none" stroke="#000" stroke-miterlimit="10" d="M55.079 134.667v-4.334" clip-rule="evenodd" stroke-linecap="round" stroke-linejoin="round"/><path d="M51.902 143.446v-.45l.495-.675c.693-.964 1.521-2.062 1.521-3.16 0-.648-.288-1.044-.837-1.044-.423 0-.693.225-.846.323l-.171-.521a1.831 1.831 0 0 1 1.143-.396c.973 0 1.396.721 1.396 1.603 0 1.099-.72 2.16-1.44 3.151l-.396.54v.018h1.954v.612h-2.819zm6.4-2.934c0 2.134-.675 3.007-1.521 3.007-.909 0-1.458-1.081-1.458-2.989 0-1.972.585-3.007 1.54-3.007.944-.001 1.439 1.124 1.439 2.989zm-2.287.009c0 1.413.243 2.403.819 2.403.549 0 .774-.999.774-2.403 0-1.368-.225-2.403-.783-2.403s-.81.998-.81 2.403z"/><path fill="none" stroke="#000" stroke-miterlimit="10" d="M81.579 134.667v-4.334" clip-rule="evenodd" stroke-linecap="round" stroke-linejoin="round"/><path d="M80.221 143.446v-1.611h-1.944v-.469l1.899-3.771h.675v3.673h.639v.567h-.639v1.611h-.63zm0-2.178v-1.656c0-.405.027-.766.054-1.152h-.036c-.198.468-.324.747-.495 1.107l-.81 1.684v.018h1.287zm4.581-.756c0 2.134-.675 3.007-1.521 3.007-.909 0-1.458-1.081-1.458-2.989 0-1.972.585-3.007 1.54-3.007.944-.001 1.439 1.124 1.439 2.989zm-2.287.009c0 1.413.243 2.403.819 2.403.549 0 .774-.999.774-2.403 0-1.368-.225-2.403-.783-2.403s-.81.998-.81 2.403z"/><path fill="none" stroke="#000" stroke-miterlimit="10" d="M108.079 134.667v-4.334" clip-rule="evenodd" stroke-linecap="round" stroke-linejoin="round"/><path d="M107.486 138.107c-.117.01-.243.027-.415.063-.972.233-1.359 1.206-1.503 2.106h.027c.225-.333.549-.559.99-.559.747 0 1.26.685 1.26 1.801 0 1.107-.504 1.999-1.44 1.999-1.017 0-1.53-1.035-1.53-2.377 0-1.135.297-2.017.756-2.638.352-.495.91-.819 1.414-.928.189-.035.342-.045.441-.054v.587zm-.333 3.467c0-.883-.306-1.324-.783-1.324-.288 0-.585.198-.756.631a.934.934 0 0 0-.054.351c.009 1.197.378 1.747.846 1.747.396 0 .747-.388.747-1.405zm4.149-1.062c0 2.134-.675 3.007-1.521 3.007-.909 0-1.458-1.081-1.458-2.989 0-1.972.585-3.007 1.54-3.007.944-.001 1.439 1.124 1.439 2.989zm-2.287.009c0 1.413.243 2.403.819 2.403.549 0 .774-.999.774-2.403 0-1.368-.225-2.403-.783-2.403s-.81.998-.81 2.403z"/><path fill="none" stroke="#000" stroke-miterlimit="10" d="M134.579 134.667v-4.334" clip-rule="evenodd" stroke-linecap="round" stroke-linejoin="round"/><path d="M131.366 142.015c0-.819.486-1.341.963-1.674l-.009-.019c-.486-.333-.766-.846-.766-1.342 0-.899.64-1.458 1.369-1.458.837 0 1.251.702 1.251 1.378 0 .513-.243 1.008-.783 1.377v.027c.54.359.936.891.936 1.593 0 .909-.603 1.621-1.503 1.621-.971.001-1.458-.774-1.458-1.503zm2.278-.073c0-.675-.387-1.053-.837-1.35-.468.288-.756.792-.756 1.305 0 .657.297 1.107.801 1.107.432.001.792-.332.792-1.062zm-1.422-3.006c0 .595.36.892.72 1.126.351-.252.585-.64.585-1.081 0-.566-.234-.944-.657-.944-.387-.001-.648.367-.648.899zm5.58 1.576c0 2.134-.675 3.007-1.521 3.007-.909 0-1.458-1.081-1.458-2.989 0-1.972.585-3.007 1.54-3.007.944-.001 1.439 1.124 1.439 2.989zm-2.287.009c0 1.413.243 2.403.819 2.403.549 0 .774-.999.774-2.403 0-1.368-.225-2.403-.783-2.403s-.81.998-.81 2.403z"/><path fill="none" stroke="#000" stroke-miterlimit="10" d="M161.079 134.667v-4.334" clip-rule="evenodd" stroke-linecap="round" stroke-linejoin="round"/><path d="M157.574 138.297h-.018l-.972.558-.135-.54 1.233-.72h.576v5.852h-.684v-5.15zm4.996 2.215c0 2.134-.675 3.007-1.521 3.007-.909 0-1.458-1.081-1.458-2.989 0-1.972.585-3.007 1.54-3.007.944-.001 1.439 1.124 1.439 2.989zm-2.287.009c0 1.413.243 2.403.819 2.403.549 0 .774-.999.774-2.403 0-1.368-.225-2.403-.783-2.403s-.81.998-.81 2.403zm5.752-.009c0 2.134-.675 3.007-1.521 3.007-.909 0-1.458-1.081-1.458-2.989 0-1.972.585-3.007 1.54-3.007.944-.001 1.439 1.124 1.439 2.989zm-2.287.009c0 1.413.243 2.403.819 2.403.549 0 .774-.999.774-2.403 0-1.368-.225-2.403-.783-2.403s-.81.998-.81 2.403z"/><path fill="none" stroke="#000" stroke-miterlimit="10" d="M187.579 134.667v-4.334" clip-rule="evenodd" stroke-linecap="round" stroke-linejoin="round"/><path d="M184.074 138.297h-.018l-.973.558-.135-.54 1.233-.72h.576v5.852h-.685v-5.15zm2.061 5.149v-.45l.495-.675c.693-.964 1.521-2.062 1.521-3.16 0-.648-.288-1.044-.837-1.044-.423 0-.693.225-.847.323l-.171-.521a1.832 1.832 0 0 1 1.144-.396c.973 0 1.396.721 1.396 1.603 0 1.099-.721 2.16-1.44 3.151l-.396.54v.018h1.954v.612h-2.819zm6.4-2.934c0 2.134-.676 3.007-1.521 3.007-.909 0-1.459-1.081-1.459-2.989 0-1.972.585-3.007 1.54-3.007.945-.001 1.44 1.124 1.44 2.989zm-2.287.009c0 1.413.243 2.403.819 2.403.549 0 .774-.999.774-2.403 0-1.368-.226-2.403-.783-2.403-.558-.001-.81.998-.81 2.403z"/><path fill="none" stroke="#000" stroke-miterlimit="10" d="M214.079 134.667v-4.334" clip-rule="evenodd" stroke-linecap="round" stroke-linejoin="round"/><path d="M210.574 138.297h-.019l-.972.558-.135-.54 1.233-.72h.576v5.852h-.685v-5.15zm3.879 5.149v-1.611h-1.944v-.469l1.899-3.771h.675v3.673h.64v.567h-.64v1.611h-.63zm0-2.178v-1.656c0-.405.027-.766.054-1.152h-.035a23.9 23.9 0 0 1-.496 1.107l-.81 1.684v.018h1.287zm4.581-.756c0 2.134-.675 3.007-1.521 3.007-.908 0-1.458-1.081-1.458-2.989 0-1.972.585-3.007 1.54-3.007.945-.001 1.439 1.124 1.439 2.989zm-2.287.009c0 1.413.244 2.403.82 2.403.549 0 .773-.999.773-2.403 0-1.368-.225-2.403-.783-2.403-.557-.001-.81.998-.81 2.403z"/><path fill="none" stroke="#000" stroke-miterlimit="10" d="M240.579 134.667v-4.334" clip-rule="evenodd" stroke-linecap="round" stroke-linejoin="round"/><path d="M237.074 138.297h-.019l-.972.558-.135-.54 1.233-.72h.576v5.852h-.685v-5.15zm4.645-.19c-.117.01-.243.027-.415.063-.972.233-1.359 1.206-1.503 2.106h.027c.226-.333.549-.559.99-.559.747 0 1.261.685 1.261 1.801 0 1.107-.504 1.999-1.441 1.999-1.017 0-1.529-1.035-1.529-2.377 0-1.135.297-2.017.756-2.638a2.419 2.419 0 0 1 1.413-.928c.188-.035.343-.045.441-.054v.587zm-.333 3.467c0-.883-.307-1.324-.783-1.324-.289 0-.586.198-.756.631a.929.929 0 0 0-.055.351c.009 1.197.378 1.747.846 1.747.396 0 .748-.388.748-1.405zm4.148-1.062c0 2.134-.675 3.007-1.521 3.007-.908 0-1.458-1.081-1.458-2.989 0-1.972.585-3.007 1.54-3.007.945-.001 1.439 1.124 1.439 2.989zm-2.287.009c0 1.413.244 2.403.82 2.403.549 0 .773-.999.773-2.403 0-1.368-.225-2.403-.783-2.403-.557-.001-.81.998-.81 2.403z"/><path fill="none" stroke="#000" stroke-miterlimit="10" d="M267.079 134.667v-4.334" clip-rule="evenodd" stroke-linecap="round" stroke-linejoin="round"/><path d="M263.574 138.297h-.019l-.972.558-.135-.54 1.233-.72h.576v5.852h-.685v-5.15zm2.025 3.718c0-.819.486-1.341.963-1.674l-.008-.019c-.486-.333-.766-.846-.766-1.342 0-.899.639-1.458 1.368-1.458.837 0 1.251.702 1.251 1.378 0 .513-.242 1.008-.783 1.377v.027c.541.359.937.891.937 1.593 0 .909-.603 1.621-1.503 1.621-.973.001-1.459-.774-1.459-1.503zm2.277-.073c0-.675-.387-1.053-.837-1.35-.468.288-.757.792-.757 1.305 0 .657.298 1.107.802 1.107.433.001.792-.332.792-1.062zm-1.422-3.006c0 .595.359.892.721 1.126.351-.252.584-.64.584-1.081 0-.566-.233-.944-.656-.944-.387-.001-.649.367-.649.899zm5.58 1.576c0 2.134-.675 3.007-1.521 3.007-.908 0-1.458-1.081-1.458-2.989 0-1.972.585-3.007 1.54-3.007.945-.001 1.439 1.124 1.439 2.989zm-2.287.009c0 1.413.244 2.403.82 2.403.549 0 .773-.999.773-2.403 0-1.368-.225-2.403-.783-2.403-.557-.001-.81.998-.81 2.403z"/><path fill="none" stroke="#000" stroke-miterlimit="10" d="M293.579 134.667v-4.334" clip-rule="evenodd" stroke-linecap="round" stroke-linejoin="round"/><path d="M288.67 143.446v-.45l.495-.675c.693-.964 1.521-2.062 1.521-3.16 0-.648-.288-1.044-.838-1.044-.422 0-.692.225-.846.323l-.171-.521a1.832 1.832 0 0 1 1.144-.396c.973 0 1.395.721 1.395 1.603 0 1.099-.72 2.16-1.439 3.151l-.396.54v.018h1.953v.612h-2.818zm6.399-2.934c0 2.134-.675 3.007-1.521 3.007-.908 0-1.458-1.081-1.458-2.989 0-1.972.585-3.007 1.54-3.007.945-.001 1.439 1.124 1.439 2.989zm-2.287.009c0 1.413.244 2.403.82 2.403.549 0 .773-.999.773-2.403 0-1.368-.225-2.403-.783-2.403-.557-.001-.81.998-.81 2.403zm5.752-.009c0 2.134-.675 3.007-1.521 3.007-.908 0-1.458-1.081-1.458-2.989 0-1.972.585-3.007 1.54-3.007.945-.001 1.439 1.124 1.439 2.989zm-2.287.009c0 1.413.244 2.403.82 2.403.549 0 .773-.999.773-2.403 0-1.368-.225-2.403-.783-2.403-.557-.001-.81.998-.81 2.403z"/><path fill="none" stroke="#000" stroke-miterlimit="10" d="M320.079 134.667v-4.334" clip-rule="evenodd" stroke-linecap="round" stroke-linejoin="round"/><path d="M315.17 143.446v-.45l.495-.675c.693-.964 1.521-2.062 1.521-3.16 0-.648-.288-1.044-.838-1.044-.422 0-.692.225-.846.323l-.171-.521a1.832 1.832 0 0 1 1.144-.396c.973 0 1.395.721 1.395 1.603 0 1.099-.72 2.16-1.439 3.151l-.396.54v.018h1.953v.612h-2.818zm3.465 0v-.45l.495-.675c.693-.964 1.521-2.062 1.521-3.16 0-.648-.288-1.044-.838-1.044-.422 0-.692.225-.846.323l-.171-.521a1.832 1.832 0 0 1 1.144-.396c.973 0 1.395.721 1.395 1.603 0 1.099-.72 2.16-1.439 3.151l-.396.54v.018h1.953v.612h-2.818zm6.399-2.934c0 2.134-.675 3.007-1.521 3.007-.908 0-1.458-1.081-1.458-2.989 0-1.972.585-3.007 1.54-3.007.945-.001 1.439 1.124 1.439 2.989zm-2.287.009c0 1.413.244 2.403.82 2.403.549 0 .773-.999.773-2.403 0-1.368-.225-2.403-.783-2.403-.557-.001-.81.998-.81 2.403z"/><path fill="none" stroke="#000" stroke-miterlimit="10" d="M26.14 124.25h4.545M26.14 116h4.545m-4.545-8.25h4.545M26.14 99.5h4.545m-4.545-8.25h4.545M26.14 83h4.545m-4.545-8.25h4.545M26.14 66.5h4.545m-4.545-8.25h4.545M26.14 50h4.545m-4.545-8.25h4.545M26.14 33.5h4.545M25.6 5h5.626m-2.813 129.667V5" clip-rule="evenodd" stroke-linecap="round" stroke-linejoin="round"/><path fill="none" stroke="#000" stroke-width=".5" stroke-miterlimit="10" d="M325.329 66.5v66m-73.75-34.316V132.5m-74.5-22.206V132.5m-74.25-16.25v16.25" clip-rule="evenodd" stroke-dasharray="1 1"/><path fill="#fddfbb" fill-rule="evenodd" stroke="#000" stroke-miterlimit="10" d="M25.829 132.5h310.85" clip-rule="evenodd" stroke-linecap="round" stroke-linejoin="round"/><path fill="none" stroke="#000" stroke-miterlimit="10" d="M28.413 124.075h74.416v-7.825l74.25-.25v-15.816h74.5V66.5h73.75V5h11.35" clip-rule="evenodd"/><circle cx="325.329" cy="5" r="2" fill="#009245" fill-rule="evenodd" clip-rule="evenodd"/><circle cx="251.579" cy="66.5" r="2" fill="#009245" fill-rule="evenodd" clip-rule="evenodd"/><circle cx="177.079" cy="100.184" r="2" fill="#009245" fill-rule="evenodd" clip-rule="evenodd"/><circle cx="102.829" cy="116.25" r="2" fill="#009245" fill-rule="evenodd" clip-rule="evenodd"/><circle cx="28.413" cy="124.075" r="2" fill="#009245" fill-rule="evenodd" clip-rule="evenodd"/><circle cx="325.329" cy="66.5" r="2" fill="#c1272d" fill-rule="evenodd" clip-rule="evenodd"/><circle cx="102.829" cy="124.075" r="2" fill="#c1272d" fill-rule="evenodd" clip-rule="evenodd"/><circle cx="251.579" cy="100.184" r="2" fill="#c1272d" fill-rule="evenodd" clip-rule="evenodd"/><circle cx="177.079" cy="116" r="2" fill="#c1272d" fill-rule="evenodd" clip-rule="evenodd"/><path d="M15.376 23.742h-.018l-.972.558-.135-.54 1.233-.72h.576v5.852h-.685v-5.15zm2.178 4.403c.18.107.495.243.846.243.603 0 1.008-.441 1.008-1.171 0-.765-.477-1.206-1.18-1.206h-.162v-.522h.135c.414-.009 1.053-.324 1.053-1.044 0-.585-.315-.9-.774-.9-.288 0-.541.145-.729.279l-.153-.522c.216-.171.612-.333 1.053-.333.828 0 1.296.595 1.296 1.351 0 .585-.306 1.099-.873 1.368v.019c.522.144 1.026.611 1.026 1.53 0 .954-.612 1.729-1.675 1.729-.378 0-.792-.108-1.026-.271l.155-.55zm6.283-2.188c0 2.134-.675 3.007-1.521 3.007-.91 0-1.458-1.081-1.458-2.989 0-1.972.585-3.007 1.54-3.007.944 0 1.439 1.125 1.439 2.989zm-2.287.009c0 1.413.243 2.403.819 2.403.549 0 .774-.999.774-2.403 0-1.368-.225-2.403-.783-2.403s-.81.999-.81 2.403z"/><path fill="none" stroke="#000" stroke-miterlimit="10" d="M26.14 25.892h4.545M26.14 18.5h4.545m-4.545-7h4.546" clip-rule="evenodd" stroke-linecap="round" stroke-linejoin="round"/><path d="M15.376 9.742h-.018l-.972.558-.135-.54 1.233-.72h.576v5.852h-.685v-5.15zm4.771-.09h-1.576l-.243 1.558c.072-.019.135-.019.216-.019.315 0 .801.135 1.116.441.306.306.486.738.486 1.332 0 1.161-.729 1.999-1.773 1.999-.352 0-.756-.1-.991-.252l.153-.559c.18.108.495.234.819.234.594 0 1.107-.459 1.107-1.351 0-.928-.567-1.314-1.323-1.314-.216 0-.351.009-.459.027l.369-2.71h2.098v.614zm3.69 2.305c0 2.134-.675 3.007-1.521 3.007-.91 0-1.458-1.081-1.458-2.989 0-1.972.585-3.007 1.54-3.007.944 0 1.439 1.125 1.439 2.989zm-2.287.009c0 1.413.243 2.403.819 2.403.549 0 .774-.999.774-2.403 0-1.368-.225-2.403-.783-2.403s-.81.999-.81 2.403z"/></svg>