<svg xmlns="http://www.w3.org/2000/svg" viewBox="0 0 342.389 118.722"><g stroke="#000" clip-rule="evenodd" stroke-linecap="round" stroke-linejoin="round"><path fill="#ccc" fill-rule="evenodd" d="M.5.5h25.885v14.708H.5zm25.885 0h78.876v14.708H26.385z"/><path fill="#ccc" fill-rule="evenodd" d="M105.261.5h78.875v14.708h-78.875zm78.876 0h78.877v14.708h-78.877zm78.877 0h78.875v14.708h-78.875zM.501 15.269h25.885v14.708H.501z"/><path fill="none" d="M116.875 15.269h67.261v14.708h-67.261z"/><path fill="none" d="M26.385 29.976h315.503v14.708H26.385zm0 14.708h315.503v14.708H26.385z"/><path fill="none" d="M184.137 15.269h157.752v14.708H184.137z"/><path fill="#ccc" fill-rule="evenodd" d="M.501 29.976h25.885v14.708H.501zm0 14.708h25.885v14.708H.501z"/><path fill="none" d="M26.385 59.392h315.503V74.1H26.385zm78.876-44.124h11.614v14.71h-11.614zm-60 0h11.614v14.71H45.261zm-18.875 0h18.875v14.71H26.386zm30.489 0h11.614v14.71H56.875zm11.615 0h36.771v14.71H68.49z"/><path fill="#ccc" fill-rule="evenodd" d="M.501 59.392h25.885V74.1H.501z"/><path fill="none" d="M26.385 74.099h315.503v14.708H26.385z"/><path fill="#ccc" fill-rule="evenodd" d="M.501 74.099h25.885v14.708H.501z"/><path fill="#fddfbb" fill-rule="evenodd" d="M26.385 88.807h315.503v14.708H26.385z"/><path fill="#ccc" fill-rule="evenodd" d="M.501 88.807h25.885v14.708H.501z"/><path fill="none" d="M26.385 103.514h315.503v14.708H26.385z"/><path fill="#ccc" fill-rule="evenodd" d="M.501 103.514h25.885v14.708H.501z"/></g><path d="M9.726 4.518a5.667 5.667 0 0 1 1.197-.117c.549 0 1.071.09 1.44.423.297.262.432.648.432 1.08 0 .567-.306 1.081-.891 1.333v.026c.693.189 1.089.766 1.089 1.495 0 .504-.162.9-.441 1.197-.351.396-.945.585-1.818.585-.45 0-.774-.027-1.008-.062v-5.96zm.954 2.439h.279c.495 0 .891-.396.891-.945 0-.504-.234-.882-.828-.882-.144 0-.261.009-.342.036v1.791zm0 2.809c.081.019.18.027.306.027.585 0 1.018-.352 1.018-1.044 0-.712-.496-1.071-1.044-1.071h-.28v2.088zm3.492-4.24c-.279 0-.504-.225-.504-.558 0-.343.234-.559.513-.559.306 0 .522.216.522.559 0 .333-.216.558-.522.558h-.009zm-.46 4.97V6.111h.963v4.385h-.963zm2.998-5.474v1.089h.847v.693h-.847v2.278c0 .54.207.675.45.675.108 0 .198-.009.297-.027l.018.748c-.144.045-.36.071-.63.071-.306 0-.585-.081-.774-.27-.216-.217-.324-.531-.324-1.188V6.804h-.522v-.693h.522v-.756l.963-.333zm43.822.685v2.07h1.999v.63h-1.999v2.089h-.648V8.407h-1.999v-.63h1.999v-2.07h.648zm4.176 4.861c-1.107 0-1.593-1.288-1.593-2.98 0-1.818.558-3.016 1.656-3.016 1.17 0 1.567 1.368 1.567 2.979 0 2.116-.72 3.017-1.621 3.017h-.009zm.045-.819c.45 0 .621-.811.621-2.179 0-1.314-.162-2.179-.63-2.179-.459 0-.675.792-.666 2.179-.009 1.396.189 2.179.666 2.179h.009zm2.825.819c-.315 0-.576-.262-.576-.666 0-.388.271-.667.585-.667.333 0 .585.252.585.667 0 .404-.234.666-.585.666h-.009zm1.944 0c-.315 0-.576-.262-.576-.666 0-.388.271-.667.585-.667.333 0 .585.252.585.667 0 .404-.234.666-.585.666h-.009zm4.294-5.924v.612l-1.864 5.239h-.936l1.818-4.987V5.49h-2.043v-.846h3.025zm63.756 1.063v2.07h1.999v.63h-1.999v2.089h-.648V8.407h-1.999v-.63h1.999v-2.07h.648zm4.274-1.135c.837 0 1.396.63 1.396 1.413 0 .441-.198.955-.783 1.333v.026c.54.324.918.855.918 1.558 0 1.009-.711 1.666-1.639 1.666-.99 0-1.594-.693-1.594-1.549 0-.774.441-1.296.918-1.611l-.009-.018c-.486-.334-.738-.838-.738-1.314 0-.937.702-1.504 1.521-1.504h.01zm-.072 5.33c.396 0 .666-.352.666-.955 0-.612-.36-.972-.738-1.206a1.37 1.37 0 0 0-.621 1.152c0 .576.243 1.009.684 1.009h.009zm.019-4.664c-.36 0-.567.36-.567.802 0 .495.288.783.639.99.297-.189.486-.559.486-.945 0-.478-.171-.847-.549-.847h-.009zm2.825 5.33c-.315 0-.576-.262-.576-.666 0-.388.271-.667.585-.667.333 0 .585.252.585.667 0 .404-.234.666-.585.666h-.009zm1.944 0c-.315 0-.576-.262-.576-.666 0-.388.271-.667.585-.667.333 0 .585.252.585.667 0 .404-.234.666-.585.666h-.009zm2.574-4.997h-.018l-.981.531-.171-.747 1.288-.711h.828v5.852h-.945V5.571zm5.176-.09h-1.558l-.18 1.278c.063-.009.126-.009.198-.009.279.009.783.135 1.107.441.315.306.495.747.495 1.341 0 1.152-.738 2.035-1.917 2.035-.387 0-.819-.1-1.053-.243l.171-.766c.198.108.513.217.828.217.585 0 1.026-.405 1.026-1.152 0-.855-.576-1.171-1.296-1.171-.18 0-.315.009-.432.027l.342-2.836h2.269v.838zm60.3.226v2.07h1.999v.63h-1.999v2.089h-.647V8.407h-2v-.63h2v-2.07h.647zm4.005-.136h-.019l-.981.531-.171-.747 1.288-.711h.828v5.852h-.945V5.571zm5.067-.207c-.125 0-.279.019-.449.055-.865.207-1.252 1.008-1.396 1.81h.027c.225-.298.531-.505.945-.505.766 0 1.297.693 1.297 1.801 0 1.071-.514 2.044-1.566 2.044-1.072 0-1.666-.99-1.666-2.404 0-1.206.36-2.079.864-2.683a2.55 2.55 0 0 1 1.432-.846c.226-.045.405-.055.513-.063v.791zm-1.143 4.492c.387 0 .611-.468.611-1.305-.008-.676-.233-1.126-.656-1.126-.234 0-.469.153-.604.495-.027.063-.055.217-.055.441 0 .964.289 1.494.693 1.494h.011zm2.789.712c-.314 0-.576-.262-.576-.666 0-.388.271-.667.586-.667.332 0 .584.252.584.667 0 .404-.233.666-.584.666h-.01zm1.944 0c-.315 0-.576-.262-.576-.666 0-.388.271-.667.585-.667.334 0 .586.252.586.667 0 .404-.234.666-.586.666h-.009zm1.179-.072v-.64l.541-.711c.729-.963 1.439-1.899 1.439-2.854 0-.549-.27-.909-.783-.909-.396 0-.684.188-.864.306l-.188-.738a2.188 2.188 0 0 1 1.225-.378c1.143 0 1.557.792 1.557 1.656 0 1.099-.702 2.062-1.395 2.936l-.369.468v.018h1.854v.847h-3.017zm3.817-.955c.207.126.531.234.855.234.594 0 .945-.396.945-.991 0-.702-.496-1.053-1.135-1.053h-.162v-.71h.117c.432 0 1.018-.243 1.018-.883 0-.495-.289-.774-.721-.774-.279 0-.531.117-.729.252l-.161-.72c.233-.171.674-.324 1.134-.324.945 0 1.44.63 1.44 1.378 0 .594-.315 1.089-.855 1.341v.019c.549.171 1.018.666 1.018 1.512 0 .919-.657 1.747-1.837 1.747-.433 0-.847-.117-1.089-.271l.162-.757zm61.218-3.834v2.07h1.998v.63h-1.998v2.089h-.648V8.407h-1.998v-.63h1.998v-2.07h.648zm2.61 4.789v-.64l.539-.711c.73-.963 1.441-1.899 1.441-2.854 0-.549-.271-.909-.783-.909-.396 0-.685.188-.865.306l-.188-.738a2.188 2.188 0 0 1 1.225-.378c1.144 0 1.558.792 1.558 1.656 0 1.099-.703 2.062-1.396 2.936l-.369.468v.018h1.854v.847h-3.016zm5.525 0V9.001h-1.98v-.657l1.909-3.7h.927v3.583h.604v.774h-.604v1.494h-.856zm0-2.269V6.823c0-.352.027-.702.055-1.045h-.027c-.162.388-.287.657-.449 1l-.712 1.431v.019h1.133zm2.583 2.341c-.315 0-.576-.262-.576-.666 0-.388.271-.667.585-.667.334 0 .586.252.586.667 0 .404-.234.666-.586.666h-.009zm1.944 0c-.314 0-.576-.262-.576-.666 0-.388.271-.667.586-.667.332 0 .584.252.584.667 0 .404-.233.666-.584.666h-.01zm1.323-1.027c.207.126.531.234.855.234.595 0 .945-.396.945-.991 0-.702-.494-1.053-1.134-1.053h-.162v-.71h.116c.433 0 1.018-.243 1.018-.883 0-.495-.287-.774-.72-.774-.279 0-.531.117-.729.252l-.162-.72c.234-.171.676-.324 1.135-.324.945 0 1.44.63 1.44 1.378 0 .594-.315 1.089-.855 1.341v.019c.55.171 1.018.666 1.018 1.512 0 .919-.657 1.747-1.837 1.747-.432 0-.846-.117-1.09-.271l.162-.757zm4.924-3.97h-.018l-.982.531-.17-.747 1.287-.711h.828v5.852h-.945V5.571zM13.426 25.337c-1.107 0-1.593-1.288-1.593-2.98 0-1.818.558-3.016 1.656-3.016 1.17 0 1.567 1.368 1.567 2.979 0 2.116-.72 3.017-1.621 3.017h-.009zm.045-.819c.45 0 .621-.811.621-2.179 0-1.314-.162-2.179-.63-2.179-.459 0-.675.792-.666 2.179-.009 1.396.189 2.179.666 2.179h.009zm119.836-5.231a3.982 3.982 0 0 1 1.008-.117c.558 0 1.036.135 1.351.441.288.288.441.729.441 1.26 0 .559-.135.937-.369 1.242-.324.45-.891.676-1.431.676-.117 0-.207 0-.306-.009v2.484h-.693v-5.977zm.694 2.917c.081.009.162.018.279.018.675 0 1.134-.45 1.134-1.306 0-.621-.252-1.179-1.026-1.179-.162 0-.297.018-.387.045v2.422zm4.914 2.07c0 .333 0 .711.045.99h-.621l-.045-.459h-.027c-.189.333-.495.531-.864.531-.585 0-1.036-.486-1.036-1.242 0-1.099.874-1.576 1.854-1.585v-.135c0-.585-.144-.99-.693-.99-.27 0-.513.081-.72.225l-.153-.486c.189-.135.585-.288 1.018-.288.873 0 1.242.576 1.242 1.549v1.89zm-.676-1.269c-.36 0-1.197.072-1.197 1.018 0 .576.288.774.531.774.306 0 .558-.226.639-.657a1.2 1.2 0 0 0 .027-.252v-.883zm1.926-2.098l.576 2.503c.081.342.117.621.18.9h.018c.045-.252.117-.576.189-.892l.513-2.512h.684l-.711 2.8c-.271 1.09-.567 2.143-1.081 2.809-.306.388-.63.586-.783.657l-.252-.585c.198-.117.423-.306.612-.549.18-.234.324-.522.396-.738a.578.578 0 0 0 .045-.216c0-.055 0-.108-.018-.162l-1.098-4.016h.73zm2.754-1.872h.693v6.229h-.693v-6.229zm2.943 6.302c-.783 0-1.414-.712-1.414-2.242 0-1.593.711-2.26 1.458-2.26.783 0 1.405.721 1.405 2.242 0 1.692-.774 2.26-1.44 2.26h-.009zm.036-.55c.594 0 .72-1.017.72-1.701 0-.675-.126-1.701-.738-1.701-.621 0-.738 1.026-.738 1.701 0 .721.126 1.701.747 1.701h.009zm4.483-.513c0 .333 0 .711.045.99h-.621l-.045-.459h-.027c-.189.333-.495.531-.864.531-.585 0-1.036-.486-1.036-1.242 0-1.099.874-1.576 1.855-1.585v-.135c0-.585-.145-.99-.693-.99-.27 0-.513.081-.72.225l-.153-.486c.189-.135.585-.288 1.018-.288.873 0 1.242.576 1.242 1.549v1.89zm-.675-1.269c-.36 0-1.197.072-1.197 1.018 0 .576.288.774.531.774.306 0 .558-.226.639-.657a1.2 1.2 0 0 0 .027-.252v-.883zm4.284-3.97v5.186c0 .297.027.792.036 1.044h-.594l-.045-.54h-.036c-.135.306-.45.612-.909.612-.738 0-1.27-.792-1.27-2.233 0-1.548.639-2.269 1.314-2.269.315 0 .622.145.792.514h.018v-2.313h.694zm-.693 3.528c0-.09 0-.188-.009-.288-.036-.45-.315-.846-.648-.846-.576 0-.774.801-.774 1.674 0 .919.234 1.657.738 1.657.216 0 .513-.117.666-.747.027-.081.027-.181.027-.288v-1.162zm3.518-2.745h-1.107v-.621h2.908v.621h-1.107v5.446h-.693v-5.446z"/><path d="M159.119 20.907l.576 2.503c.081.342.117.621.18.9h.018c.045-.252.117-.576.189-.892l.513-2.512h.684l-.711 2.8c-.271 1.09-.567 2.143-1.081 2.809-.306.388-.63.586-.783.657l-.252-.585c.198-.117.423-.306.612-.549.18-.234.324-.522.396-.738a.578.578 0 0 0 .045-.216c0-.055 0-.108-.018-.162l-1.098-4.016h.73zm2.745 1.36c0-.666-.027-1.053-.036-1.359h.622l.036.549h.018c.234-.459.585-.621.918-.621.765 0 1.26.802 1.26 2.242 0 1.62-.666 2.26-1.341 2.26-.414 0-.648-.252-.765-.495h-.018v2.151h-.693v-4.727zm.693 1.404c0 .126.009.252.036.36.135.621.441.729.63.729.576 0 .765-.792.765-1.666 0-.909-.216-1.665-.765-1.665-.315 0-.603.396-.639.792-.027.108-.027.216-.027.333v1.117zm3.393-.522c.009 1.341.531 1.62 1.026 1.62.306 0 .549-.072.72-.162l.117.504c-.243.136-.612.207-.963.207-1.035 0-1.576-.846-1.576-2.188 0-1.413.594-2.296 1.468-2.296.882 0 1.242.937 1.242 1.918 0 .171-.009.288-.018.396h-2.016zm1.368-.513c.009-.873-.315-1.261-.648-1.261-.45 0-.684.667-.711 1.261h1.359zm-37.553 31.243c.207.126.567.242.873.242.63 0 1.008-.414 1.008-1.026 0-.558-.324-.899-.801-1.26-.477-.333-1.143-.9-1.143-1.684 0-.918.648-1.594 1.603-1.594.378 0 .711.126.855.226l-.171.594a1.276 1.276 0 0 0-.72-.207c-.594 0-.874.45-.874.864 0 .604.315.847.892 1.252.729.513 1.053 1.071 1.053 1.746 0 1.044-.738 1.701-1.702 1.701-.414 0-.855-.135-1.026-.27l.153-.584zm3.6-3.557l.576 2.503c.081.342.117.621.18.9h.018c.045-.252.117-.576.189-.892l.513-2.512h.684l-.711 2.8c-.271 1.09-.567 2.143-1.081 2.809-.306.388-.63.586-.783.657l-.252-.585c.198-.117.423-.306.612-.549.18-.234.324-.522.396-.738a.578.578 0 0 0 .045-.216c0-.055 0-.108-.018-.162l-1.098-4.016h.73zm2.754 1.125c0-.513-.027-.773-.036-1.125h.603l.036.522h.018c.189-.352.54-.595.999-.595.604 0 1.054.441 1.054 1.504v2.926h-.693V51.87c0-.522-.099-1.035-.603-1.035-.288 0-.567.243-.648.711a1.57 1.57 0 0 0-.036.387v2.746h-.693v-3.232zm5.769 3.124c-.153.091-.414.162-.72.162-.955 0-1.594-.765-1.594-2.205 0-1.252.63-2.269 1.72-2.269.234 0 .486.062.612.144l-.135.559a1.13 1.13 0 0 0-.495-.117c-.702 0-1.008.828-1.008 1.684 0 1.017.387 1.629 1.026 1.629.18 0 .342-.036.495-.117l.099.53zm.593-6.121h.693v2.34h.018c.09-.152.225-.287.369-.387.153-.099.333-.153.576-.153.549 0 1.018.433 1.018 1.54v2.89h-.693v-2.809c0-.54-.117-1.035-.585-1.035-.324 0-.567.233-.675.692-.018.1-.027.226-.027.324v2.827h-.693V48.45zm3.636 2.997c0-.368-.027-.801-.036-1.125h.622l.036.685h.018c.144-.414.513-.757.918-.757.054 0 .099 0 .144.01v.711c-.045-.009-.09-.009-.144-.009-.441 0-.765.404-.837.909a2.566 2.566 0 0 0-.027.396v2.413h-.693v-3.233zm3.34 3.305c-.783 0-1.414-.712-1.414-2.242 0-1.593.711-2.26 1.458-2.26.783 0 1.405.721 1.405 2.242 0 1.692-.774 2.26-1.44 2.26h-.009zm.036-.55c.594 0 .72-1.017.72-1.701 0-.675-.126-1.701-.738-1.701-.621 0-.738 1.026-.738 1.701 0 .721.126 1.701.747 1.701h.009zm2.186-2.755c0-.513-.027-.773-.036-1.125h.603l.036.522h.018c.189-.352.54-.595.999-.595.604 0 1.054.441 1.054 1.504v2.926h-.693V51.87c0-.522-.099-1.035-.603-1.035-.288 0-.567.243-.648.711a1.57 1.57 0 0 0-.036.387v2.746h-.693v-3.232zm3.969-1.8c-.225 0-.396-.181-.396-.45 0-.271.18-.45.405-.45.252 0 .414.18.414.45s-.162.45-.414.45h-.009zm-.324 5.033v-4.357h.693v4.357h-.693zm1.314-.423l1.377-2.701c.117-.216.252-.45.351-.639v-.019h-1.558v-.576h2.332v.459l-1.369 2.656c-.117.216-.252.45-.351.648v.018h1.71v.576h-2.494v-.422zm5.455-.568c0 .333 0 .711.045.99h-.621l-.045-.459h-.027c-.189.333-.495.531-.864.531-.585 0-1.036-.486-1.036-1.242 0-1.099.874-1.576 1.855-1.585v-.134c0-.585-.145-.99-.693-.99-.27 0-.513.081-.72.225l-.153-.486c.189-.135.585-.288 1.018-.288.873 0 1.242.576 1.242 1.549v1.889zm-.675-1.269c-.36 0-1.197.072-1.197 1.018 0 .576.288.774.531.774.306 0 .558-.226.639-.657a1.2 1.2 0 0 0 .027-.252v-.883zm2.42-3.115v1.018h.837v.522h-.837v2.593c0 .576.198.72.45.72.117 0 .207-.009.279-.026l.036.531a1.522 1.522 0 0 1-.513.071c-.279 0-.522-.071-.684-.261-.18-.198-.261-.495-.261-1.099v-2.529h-.531v-.522h.531v-.738l.693-.28zm1.773.342c-.225 0-.396-.181-.396-.45 0-.271.18-.45.405-.45.252 0 .414.18.414.45s-.162.45-.414.45h-.009zm-.324 5.033v-4.357h.693v4.357h-.693zm2.88.072c-.783 0-1.414-.712-1.414-2.242 0-1.593.711-2.26 1.458-2.26.783 0 1.405.721 1.405 2.242 0 1.692-.774 2.26-1.44 2.26h-.009zm.036-.55c.594 0 .72-1.017.72-1.701 0-.675-.126-1.701-.738-1.701-.621 0-.738 1.026-.738 1.701 0 .721.126 1.701.747 1.701h.009zm2.187-2.755c0-.513-.027-.773-.036-1.125h.603l.036.522h.018c.189-.352.54-.595.999-.595.604 0 1.054.441 1.054 1.504v2.926h-.694V51.87c0-.522-.099-1.035-.603-1.035-.288 0-.567.243-.648.711a1.57 1.57 0 0 0-.036.387v2.746h-.693v-3.232zm4.941 2.513c.153.099.423.225.702.225.387 0 .639-.243.639-.63 0-.333-.117-.567-.558-.855-.567-.369-.873-.747-.873-1.242 0-.712.522-1.207 1.197-1.207.342 0 .595.108.774.226l-.18.522a1 1 0 0 0-.586-.198c-.369 0-.559.27-.559.558s.108.459.541.747c.504.324.9.729.9 1.333 0 .873-.595 1.296-1.314 1.296-.315 0-.666-.099-.855-.252l.172-.523zm3.942.792c-.783 0-1.414-.712-1.414-2.242 0-1.593.711-2.26 1.459-2.26.783 0 1.404.721 1.404 2.242 0 1.692-.774 2.26-1.44 2.26h-.009zm.036-.55c.595 0 .721-1.017.721-1.701 0-.675-.126-1.701-.738-1.701-.621 0-.738 1.026-.738 1.701 0 .721.126 1.701.747 1.701h.008zm4.798-.711c0 .478.026.864.035 1.188h-.604l-.054-.459h-.019a1.113 1.113 0 0 1-.927.531c-.756 0-1.062-.595-1.062-1.675v-2.755h.692v2.656c0 .675.108 1.188.585 1.188.406 0 .586-.379.621-.586.027-.117.037-.243.037-.387V50.32h.693v3.171zm.961-2.044c0-.368-.027-.801-.036-1.125h.622l.035.685h.018c.145-.414.514-.757.919-.757.054 0 .099 0 .144.01v.711c-.045-.009-.09-.009-.144-.009-.441 0-.765.404-.837.909a2.447 2.447 0 0 0-.027.396v2.413h-.693v-3.233zm4.241 3.124c-.154.091-.414.162-.721.162-.955 0-1.594-.765-1.594-2.205 0-1.252.631-2.269 1.72-2.269.233 0 .486.062.612.144l-.135.559a1.136 1.136 0 0 0-.496-.117c-.701 0-1.008.828-1.008 1.684 0 1.017.387 1.629 1.026 1.629.181 0 .343-.036.495-.117l.101.53zm1.025-2.007c.009 1.341.531 1.62 1.025 1.62.307 0 .55-.072.721-.162l.117.504c-.243.136-.612.207-.963.207-1.035 0-1.576-.846-1.576-2.188 0-1.413.594-2.296 1.468-2.296.882 0 1.242.937 1.242 1.918 0 .171-.009.288-.019.396h-2.015zm1.368-.513c.009-.873-.315-1.261-.648-1.261-.45 0-.685.667-.711 1.261h1.359zm4.392-3.601c-.514.81-.937 2.025-.937 3.664 0 1.611.423 2.826.937 3.646h-.541c-.467-.684-.98-1.891-.98-3.655.018-1.764.514-2.979.98-3.654h.541zm.63 5.429c.207.126.567.242.873.242.63 0 1.009-.414 1.009-1.026 0-.558-.324-.899-.802-1.26-.478-.333-1.144-.9-1.144-1.684 0-.918.648-1.594 1.604-1.594.377 0 .711.126.854.226l-.171.594a1.277 1.277 0 0 0-.721-.207c-.594 0-.873.45-.873.864 0 .604.315.847.892 1.252.729.513 1.054 1.071 1.054 1.746 0 1.044-.738 1.701-1.702 1.701-.414 0-.854-.135-1.026-.27l.153-.584zm3.249 0c.207.126.566.242.873.242.63 0 1.008-.414 1.008-1.026 0-.558-.324-.899-.801-1.26-.478-.333-1.144-.9-1.144-1.684 0-.918.647-1.594 1.603-1.594.378 0 .711.126.855.226l-.172.594a1.27 1.27 0 0 0-.72-.207c-.595 0-.874.45-.874.864 0 .604.316.847.893 1.252.729.513 1.053 1.071 1.053 1.746 0 1.044-.738 1.701-1.701 1.701-.414 0-.855-.135-1.027-.27l.154-.584zm3.382-5.177a3.963 3.963 0 0 1 1-.117c.604 0 1.053.126 1.368.432.298.307.423.712.423 1.188 0 .774-.359 1.278-.972 1.566v.019c.45.135.685.567.81 1.359.145.828.262 1.341.352 1.53h-.702c-.09-.18-.207-.756-.324-1.494-.135-.838-.396-1.144-.99-1.144h-.271v2.638h-.693v-5.977zm.694 2.8h.289c.666 0 1.107-.486 1.107-1.216 0-.693-.289-1.134-1.036-1.144-.135 0-.271.01-.36.036v2.324zm5.644 3.069c-.189.1-.496.162-.873.162-1.18 0-2.035-.945-2.035-3.007 0-2.403 1.188-3.169 2.152-3.169.359 0 .629.072.746.153l-.152.585c-.145-.062-.289-.126-.604-.126-.648 0-1.414.63-1.414 2.485 0 1.863.686 2.466 1.432 2.466.262 0 .486-.062.631-.126l.117.577zm.44 1.189c.514-.81.936-2.043.936-3.664 0-1.62-.422-2.836-.936-3.646h.54c.468.666.981 1.863.981 3.646-.018 1.783-.514 2.971-.981 3.664h-.54zm4.275-6.113c-.226 0-.396-.181-.396-.45 0-.271.18-.45.405-.45.252 0 .414.18.414.45s-.162.45-.414.45h-.009zm-.324 5.033v-4.357h.693v4.357h-.693zm4.284-6.23v5.186c0 .297.027.792.036 1.044h-.594l-.045-.54h-.037c-.135.306-.449.612-.908.612-.738 0-1.27-.792-1.27-2.233 0-1.548.639-2.269 1.314-2.269.314 0 .621.145.792.514h.019V48.45h.693zm-.692 3.528c0-.09 0-.188-.01-.288-.035-.45-.314-.846-.648-.846-.576 0-.773.801-.773 1.674 0 .919.234 1.657.738 1.657.215 0 .513-.117.666-.747.027-.081.027-.181.027-.288v-1.162zm2.14.586c.01 1.341.531 1.62 1.027 1.62.306 0 .549-.072.72-.162l.117.504c-.243.136-.612.207-.964.207-1.035 0-1.575-.846-1.575-2.188 0-1.413.595-2.296 1.468-2.296.883 0 1.242.937 1.242 1.918 0 .171-.009.288-.018.396h-2.017zm1.37-.513c.009-.873-.315-1.261-.648-1.261-.45 0-.684.667-.711 1.261h1.359zm1.412-.604c0-.513-.027-.773-.036-1.125h.603l.037.522h.018c.189-.352.54-.595.999-.595.604 0 1.054.441 1.054 1.504v2.926h-.693V51.87c0-.522-.1-1.035-.604-1.035-.287 0-.566.243-.648.711a1.626 1.626 0 0 0-.035.387v2.746h-.693v-3.232zm4.437-2.142v1.018h.837v.522h-.837v2.593c0 .576.197.72.45.72.116 0 .207-.009.278-.026l.037.531a1.532 1.532 0 0 1-.514.071c-.279 0-.521-.071-.684-.261-.181-.198-.262-.495-.262-1.099v-2.529h-.531v-.522h.531v-.738l.695-.28zm1.773.342c-.226 0-.396-.181-.396-.45 0-.271.18-.45.404-.45.252 0 .414.18.414.45s-.162.45-.414.45h-.008zm-.324 5.033v-4.357h.692v4.357h-.692zm1.799 0v-3.835h-.549v-.522h.549v-.288c0-.783.379-1.656 1.585-1.656.369 0 .692.107.847.207l-.145.54a1.722 1.722 0 0 0-.721-.171c-.701 0-.873.486-.873 1.152v.216h1.953v4.357h-.692v-3.835h-1.261v3.835h-.693zm4.105-2.116c.009 1.341.531 1.62 1.026 1.62.307 0 .549-.072.721-.162l.117.504c-.244.136-.613.207-.964.207-1.035 0-1.575-.846-1.575-2.188 0-1.413.594-2.296 1.467-2.296.883 0 1.242.937 1.242 1.918 0 .171-.008.288-.018.396h-2.016zm1.368-.513c.01-.873-.314-1.261-.648-1.261-.449 0-.684.667-.711 1.261h1.359zm1.403-.604c0-.368-.026-.801-.036-1.125h.621l.036.685h.019c.144-.414.513-.757.918-.757.055 0 .1 0 .145.01v.711c-.045-.009-.09-.009-.145-.009-.441 0-.766.404-.838.909a2.576 2.576 0 0 0-.026.396v2.413h-.693v-3.233zm-67.237-16.921h-1.107v-.621h2.908v.621h-1.107v5.446h-.693v-5.446zm2.645.414c-.225 0-.396-.181-.396-.45 0-.271.18-.45.405-.45.251 0 .414.18.414.45s-.162.45-.414.45h-.009zm-.323 5.032v-4.357h.693v4.357h-.693zm1.656-3.232c0-.513-.027-.773-.037-1.125h.613l.035.531h.018c.189-.351.514-.604.973-.604.405 0 .756.189.918.657h.019c.117-.216.271-.387.423-.495.18-.107.379-.162.604-.162.594 0 1.053.424 1.053 1.54v2.89h-.693v-2.737c0-.566-.08-1.116-.603-1.116-.288 0-.54.243-.64.657-.026.108-.026.243-.026.388v2.809h-.693V37.11c0-.477-.081-.99-.595-.99-.287 0-.566.243-.647.712a2.163 2.163 0 0 0-.027.369v2.772h-.695V36.74zm6.065 1.117c.01 1.341.531 1.62 1.027 1.62.306 0 .549-.072.72-.162l.117.504c-.243.136-.612.207-.964.207-1.035 0-1.575-.846-1.575-2.188 0-1.413.595-2.296 1.468-2.296.883 0 1.242.937 1.242 1.918 0 .171-.009.288-.018.396h-2.017zm1.369-.514c.009-.873-.315-1.261-.648-1.261-.45 0-.684.667-.711 1.261h1.359zm1.295 1.909c.153.099.424.225.703.225.387 0 .639-.243.639-.63 0-.333-.117-.567-.559-.855-.566-.369-.873-.747-.873-1.242 0-.712.522-1.207 1.197-1.207.342 0 .595.108.774.226l-.18.522a.994.994 0 0 0-.585-.198c-.369 0-.559.27-.559.558s.107.459.54.747c.505.324.9.729.9 1.333 0 .873-.595 1.296-1.314 1.296-.315 0-.666-.099-.854-.252l.171-.523zm3.564-4.655v1.018h.838v.522h-.838v2.593c0 .576.198.72.451.72.116 0 .207-.009.278-.026l.036.531a1.524 1.524 0 0 1-.514.071c-.279 0-.521-.071-.684-.261-.18-.198-.262-.495-.262-1.099v-2.529h-.531v-.522h.531v-.738l.695-.28zm3.745 4.385c0 .333 0 .711.045.99h-.621l-.045-.459h-.027c-.189.333-.494.531-.863.531-.586 0-1.036-.486-1.036-1.242 0-1.099.874-1.576 1.854-1.585v-.135c0-.585-.145-.99-.693-.99-.27 0-.513.081-.72.225l-.153-.486c.189-.135.586-.288 1.018-.288.873 0 1.242.576 1.242 1.549v1.89zm-.676-1.27c-.359 0-1.197.072-1.197 1.018 0 .576.289.774.531.774.307 0 .559-.226.64-.657.019-.081.026-.171.026-.252v-.883zm1.656-.972c0-.513-.027-.773-.035-1.125h.611l.036.531h.019c.188-.351.513-.604.973-.604.404 0 .756.189.918.657h.018c.117-.216.27-.387.424-.495.18-.107.377-.162.603-.162.595 0 1.054.424 1.054 1.54v2.89h-.693v-2.737c0-.566-.082-1.116-.604-1.116-.288 0-.54.243-.639.657-.027.108-.027.243-.027.388v2.809h-.693V37.11c0-.477-.081-.99-.594-.99-.289 0-.567.243-.648.712a2.27 2.27 0 0 0-.027.369v2.772h-.693V36.74zm5.57.234c0-.666-.026-1.053-.035-1.359h.621l.035.549h.019c.234-.459.585-.621.919-.621.765 0 1.26.802 1.26 2.242 0 1.62-.666 2.26-1.342 2.26-.414 0-.648-.252-.765-.495h-.019v2.151h-.693v-4.727zm.694 1.404c0 .126.01.252.037.36.135.621.44.729.629.729.576 0 .766-.792.766-1.666 0-.909-.216-1.665-.766-1.665-.314 0-.603.396-.639.792-.027.108-.027.216-.027.333v1.117zm41.284-13.914c.207.126.567.242.873.242.63 0 1.009-.414 1.009-1.026 0-.558-.324-.899-.802-1.26-.478-.333-1.144-.9-1.144-1.684 0-.918.648-1.594 1.604-1.594.377 0 .711.126.854.226l-.171.594a1.277 1.277 0 0 0-.721-.207c-.594 0-.873.45-.873.864 0 .604.315.847.892 1.252.729.513 1.054 1.071 1.054 1.746 0 1.044-.738 1.701-1.702 1.701-.414 0-.854-.135-1.026-.27l.153-.584zm3.879-1.315c.009 1.341.531 1.62 1.026 1.62.307 0 .549-.072.721-.162l.117.504c-.244.136-.613.207-.964.207-1.035 0-1.575-.846-1.575-2.188 0-1.413.594-2.296 1.467-2.296.883 0 1.242.937 1.242 1.918 0 .171-.008.288-.018.396h-2.016zm1.368-.513c.01-.873-.314-1.261-.648-1.261-.449 0-.684.667-.711 1.261h1.359zm3.348 2.178h-.027a.921.921 0 0 1-.836.522c-.703 0-1.262-.766-1.262-2.197 0-1.539.641-2.305 1.369-2.305.27 0 .604.126.811.576l.018.01.036-.514h.621c-.009.297-.036.693-.036 1.359v4.727h-.693v-2.178zm0-2.277c0-.09 0-.207-.018-.288-.055-.459-.324-.819-.639-.819-.568 0-.775.756-.775 1.674 0 .919.226 1.657.766 1.657.207 0 .486-.126.631-.721.035-.117.035-.252.035-.378v-1.125zm4.265 1.539c0 .478.027.864.037 1.188h-.604l-.055-.459h-.018a1.115 1.115 0 0 1-.928.531c-.756 0-1.062-.595-1.062-1.675v-2.755h.692v2.656c0 .675.109 1.188.586 1.188.405 0 .585-.379.621-.586.027-.117.036-.243.036-.387v-2.872h.692v3.171zm1.458-.927c.009 1.341.531 1.62 1.026 1.62.307 0 .549-.072.721-.162l.117.504c-.244.136-.613.207-.964.207-1.035 0-1.575-.846-1.575-2.188 0-1.413.594-2.296 1.467-2.296.883 0 1.242.937 1.242 1.918 0 .171-.008.288-.018.396h-2.016zm1.368-.513c.01-.873-.314-1.261-.648-1.261-.449 0-.684.667-.711 1.261h1.359zm1.413-.604c0-.513-.027-.773-.036-1.125h.604l.035.522h.019c.188-.352.54-.595.999-.595.604 0 1.054.441 1.054 1.504v2.926h-.693v-2.809c0-.522-.099-1.035-.603-1.035-.289 0-.568.243-.648.711a1.564 1.564 0 0 0-.037.387v2.746h-.692v-3.232zm5.77 3.124c-.153.091-.414.162-.72.162-.955 0-1.594-.765-1.594-2.205 0-1.252.63-2.269 1.719-2.269.234 0 .486.062.613.144l-.136.559a1.134 1.134 0 0 0-.495-.117c-.702 0-1.008.828-1.008 1.684 0 1.017.387 1.629 1.025 1.629.181 0 .343-.036.496-.117l.1.53zm1.025-2.007c.009 1.341.531 1.62 1.026 1.62.307 0 .549-.072.721-.162l.117.504c-.244.136-.613.207-.964.207-1.035 0-1.575-.846-1.575-2.188 0-1.413.594-2.296 1.467-2.296.883 0 1.242.937 1.242 1.918 0 .171-.008.288-.018.396h-2.016zm1.369-.513c.01-.873-.314-1.261-.648-1.261-.449 0-.684.667-.711 1.261h1.359zm2.826-.604c0-.513-.027-.773-.037-1.125h.604l.036.522h.019c.188-.352.539-.595.998-.595.604 0 1.055.441 1.055 1.504v2.926h-.693v-2.809c0-.522-.1-1.035-.604-1.035-.288 0-.567.243-.648.711a1.57 1.57 0 0 0-.036.387v2.746h-.692v-3.232zm6.256 2.044c0 .478.026.864.035 1.188h-.604l-.054-.459h-.019a1.113 1.113 0 0 1-.927.531c-.756 0-1.062-.595-1.062-1.675v-2.755h.692v2.656c0 .675.108 1.188.585 1.188.406 0 .586-.379.621-.586.027-.117.037-.243.037-.387v-2.872h.693v3.171zm.97-2.044c0-.513-.027-.773-.036-1.125h.612l.035.531h.019c.188-.351.513-.604.972-.604.406 0 .757.189.919.657h.019a1.46 1.46 0 0 1 .423-.495c.18-.107.378-.162.603-.162.595 0 1.054.424 1.054 1.54v2.89h-.693v-2.737c0-.566-.081-1.116-.603-1.116-.289 0-.541.243-.64.657-.026.108-.026.243-.026.388v2.809h-.693v-2.863c0-.477-.082-.99-.595-.99-.288 0-.567.243-.647.712a2.163 2.163 0 0 0-.027.369v2.772h-.693v-3.233zm5.571-2.997h.693v2.386h.018c.226-.433.549-.586.918-.586.686 0 1.189.774 1.189 2.206 0 1.575-.648 2.296-1.314 2.296-.469 0-.703-.271-.865-.64h-.035l-.045.567h-.595c.009-.252.036-.747.036-1.035v-5.194zm.693 4.699c0 .099.009.188.027.27.162.64.459.757.648.757.558 0 .756-.757.756-1.684 0-.873-.207-1.647-.766-1.647-.324 0-.585.396-.648.774a3.488 3.488 0 0 0-.018.306v1.224zm3.393-.585c.01 1.341.531 1.62 1.027 1.62.306 0 .549-.072.72-.162l.117.504c-.243.136-.612.207-.964.207-1.035 0-1.575-.846-1.575-2.188 0-1.413.595-2.296 1.468-2.296.883 0 1.242.937 1.242 1.918 0 .171-.009.288-.018.396h-2.017zm1.369-.513c.009-.873-.315-1.261-.648-1.261-.45 0-.684.667-.711 1.261h1.359zm1.402-.604c0-.368-.026-.801-.035-1.125h.621l.035.685h.019c.144-.414.513-.757.919-.757a.66.66 0 0 1 .144.01v.711c-.045-.009-.091-.009-.144-.009-.441 0-.766.404-.838.909a2.566 2.566 0 0 0-.027.396v2.413h-.693v-3.233zM10.168 39.018c.207.126.531.234.855.234.594 0 .945-.396.945-.991 0-.702-.495-1.053-1.134-1.053h-.162v-.711h.117c.432 0 1.018-.243 1.018-.883 0-.495-.288-.774-.72-.774-.279 0-.531.117-.729.252l-.162-.72c.234-.171.675-.324 1.134-.324.945 0 1.44.63 1.44 1.378 0 .594-.315 1.089-.855 1.341v.019c.549.171 1.018.666 1.018 1.512 0 .919-.657 1.747-1.837 1.747-.432 0-.846-.117-1.089-.271l.161-.756zm3.527.954v-.64l.541-.711c.729-.963 1.44-1.899 1.44-2.854 0-.549-.271-.909-.784-.909-.396 0-.684.188-.864.306l-.189-.738a2.188 2.188 0 0 1 1.225-.378c1.143 0 1.557.792 1.557 1.656 0 1.099-.702 2.062-1.395 2.936l-.369.468v.018h1.854v.847h-3.016zm-.881 9.576c-.126 0-.279.019-.45.055-.864.207-1.251 1.008-1.396 1.81h.027c.225-.298.531-.505.945-.505.766 0 1.296.693 1.296 1.801 0 1.071-.513 2.044-1.566 2.044-1.071 0-1.666-.99-1.666-2.404 0-1.206.36-2.079.864-2.683a2.55 2.55 0 0 1 1.432-.846c.225-.045.405-.055.513-.063v.791zm-1.143 4.492c.387 0 .612-.468.612-1.305-.009-.676-.234-1.126-.657-1.126-.234 0-.468.153-.603.495-.027.063-.054.217-.054.441 0 .964.288 1.494.693 1.494h.009zm3.879.64v-1.494h-1.98v-.657l1.909-3.7h.927v3.583h.603v.774h-.603v1.494h-.856zm0-2.269v-1.404c0-.352.027-.702.054-1.045h-.027c-.162.388-.288.657-.45 1l-.711 1.431v.019h1.134zm107.273 16.868c-.189.1-.495.162-.873.162-1.179 0-2.035-.945-2.035-3.007 0-2.403 1.188-3.169 2.152-3.169.36 0 .63.072.747.153l-.153.585c-.144-.062-.288-.126-.603-.126-.648 0-1.414.63-1.414 2.485 0 1.863.685 2.466 1.432 2.466a1.6 1.6 0 0 0 .63-.126l.117.577zm1.709.18c-.783 0-1.414-.712-1.414-2.242 0-1.593.711-2.26 1.458-2.26.783 0 1.405.721 1.405 2.242 0 1.692-.774 2.26-1.44 2.26h-.009zm.036-.549c.594 0 .72-1.017.72-1.701 0-.675-.126-1.701-.738-1.701-.621 0-.738 1.026-.738 1.701 0 .721.126 1.701.747 1.701h.009zm2.187-2.755c0-.513-.027-.773-.036-1.125h.603l.036.522h.018c.189-.352.54-.595.999-.595.604 0 1.054.441 1.054 1.504v2.926h-.693v-2.809c0-.522-.099-1.035-.603-1.035-.288 0-.567.243-.648.711a1.57 1.57 0 0 0-.036.387v2.746h-.693v-3.232zm4.437-2.143v1.018h.837v.522h-.837v2.593c0 .576.198.72.45.72.117 0 .207-.009.279-.026l.036.531a1.522 1.522 0 0 1-.513.071c-.279 0-.522-.071-.684-.261-.18-.198-.261-.495-.261-1.099v-2.529h-.531v-.522h.531v-.738l.693-.28zm1.44 2.143c0-.368-.027-.801-.036-1.125h.622l.036.685h.018c.144-.414.513-.757.918-.757.054 0 .099 0 .144.01v.711c-.045-.009-.09-.009-.144-.009-.441 0-.765.404-.837.909a2.566 2.566 0 0 0-.027.396v2.413h-.693v-3.233zm2.565-1.8c-.225 0-.396-.181-.396-.45 0-.271.18-.45.405-.45.252 0 .414.18.414.45s-.162.45-.414.45h-.009zm-.324 5.032V65.03h.693v4.357h-.693zm1.647-6.229h.693v2.386h.018c.225-.433.549-.586.918-.586.685 0 1.188.774 1.188 2.206 0 1.575-.648 2.296-1.314 2.296-.468 0-.702-.271-.864-.64h-.036l-.045.567h-.594c.009-.252.036-.747.036-1.035v-5.194zm.693 4.699c0 .099.009.188.027.27.162.64.459.757.648.757.558 0 .756-.757.756-1.684 0-.873-.207-1.647-.765-1.647-.324 0-.585.396-.648.774a3.488 3.488 0 0 0-.018.306v1.224zm5.517.342c0 .478.027.864.036 1.188h-.603l-.054-.459h-.018c-.126.216-.459.531-.927.531-.756 0-1.062-.595-1.062-1.675V65.03h.693v2.656c0 .675.108 1.188.585 1.188.405 0 .585-.379.621-.586.027-.117.036-.243.036-.387V65.03h.693v3.169zm1.818-4.187v1.018h.837v.522h-.837v2.593c0 .576.198.72.45.72.117 0 .207-.009.279-.026l.036.531a1.522 1.522 0 0 1-.513.071c-.279 0-.522-.071-.684-.261-.18-.198-.261-.495-.261-1.099v-2.529h-.531v-.522h.531v-.738l.693-.28zm1.772.343c-.225 0-.396-.181-.396-.45 0-.271.18-.45.405-.45.252 0 .414.18.414.45s-.162.45-.414.45h-.009zm-.323 5.032V65.03h.693v4.357h-.693zm1.655-3.232c0-.513-.027-.773-.036-1.125h.603l.036.522h.018c.189-.352.54-.595.999-.595.604 0 1.054.441 1.054 1.504v2.926h-.693v-2.809c0-.522-.099-1.035-.603-1.035-.288 0-.567.243-.648.711a1.57 1.57 0 0 0-.036.387v2.746h-.693v-3.232zm6.274 2.674c0 1.144-.144 1.576-.432 1.9-.27.288-.675.459-1.161.459-.369 0-.729-.09-.954-.216l.162-.541c.171.091.459.189.801.189.549 0 .892-.342.892-1.332v-.441h-.018a.873.873 0 0 1-.828.531c-.774 0-1.279-.873-1.279-2.152 0-1.611.72-2.269 1.369-2.269.459 0 .675.307.81.559h.018l.036-.486h.621c-.009.297-.036.685-.036 1.359v2.44zm-.693-2.295c0-.117-.009-.226-.036-.324-.072-.288-.234-.657-.63-.657-.495 0-.765.675-.765 1.639 0 1.116.351 1.62.765 1.62.216 0 .486-.099.621-.621.045-.135.045-.271.045-.396v-1.261zm2.951 2.133c.153.099.423.225.702.225.387 0 .639-.243.639-.63 0-.333-.117-.567-.558-.855-.567-.369-.873-.747-.873-1.242 0-.712.522-1.207 1.197-1.207.342 0 .594.108.774.226l-.18.522a.994.994 0 0 0-.585-.198c-.369 0-.558.27-.558.558s.108.459.54.747c.504.324.9.729.9 1.333 0 .873-.594 1.296-1.314 1.296-.315 0-.666-.099-.855-.252l.171-.523zm3.942.792c-.783 0-1.414-.712-1.414-2.242 0-1.593.711-2.26 1.458-2.26.783 0 1.405.721 1.405 2.242 0 1.692-.774 2.26-1.44 2.26h-.009zm.037-.549c.594 0 .72-1.017.72-1.701 0-.675-.126-1.701-.738-1.701-.621 0-.738 1.026-.738 1.701 0 .721.126 1.701.747 1.701h.009zm4.797-.711c0 .478.027.864.036 1.188h-.603l-.054-.459h-.018c-.126.216-.459.531-.927.531-.756 0-1.062-.595-1.062-1.675V65.03h.693v2.656c0 .675.108 1.188.585 1.188.405 0 .585-.379.621-.586.027-.117.036-.243.036-.387V65.03h.693v3.169zm.962-2.044c0-.368-.027-.801-.036-1.125h.622l.036.685h.018c.144-.414.513-.757.918-.757.054 0 .099 0 .144.01v.711c-.045-.009-.09-.009-.144-.009-.441 0-.765.404-.837.909a2.566 2.566 0 0 0-.027.396v2.413h-.693v-3.233zm4.24 3.124c-.153.091-.414.162-.72.162-.954 0-1.594-.765-1.594-2.205 0-1.252.63-2.269 1.72-2.269.234 0 .486.062.612.144l-.135.559a1.13 1.13 0 0 0-.495-.117c-.702 0-1.008.828-1.008 1.684 0 1.017.387 1.629 1.026 1.629.18 0 .342-.036.495-.117l.099.53zm1.025-2.007c.009 1.341.531 1.62 1.026 1.62.306 0 .549-.072.72-.162l.117.504c-.243.136-.612.207-.963.207-1.035 0-1.576-.846-1.576-2.188 0-1.413.594-2.296 1.468-2.296.882 0 1.242.937 1.242 1.918 0 .171-.009.288-.019.396h-2.015zm1.369-.514c.009-.873-.315-1.261-.648-1.261-.45 0-.684.667-.711 1.261h1.359zm4.391-3.6c-.514.81-.937 2.025-.937 3.664 0 1.611.423 2.826.937 3.646h-.54c-.468-.684-.981-1.891-.981-3.655.018-1.764.514-2.979.981-3.654h.54zm3.241 6.121c-.189.1-.495.162-.873.162-1.18 0-2.035-.945-2.035-3.007 0-2.403 1.189-3.169 2.152-3.169.359 0 .63.072.747.153l-.153.585c-.145-.062-.288-.126-.604-.126-.647 0-1.413.63-1.413 2.485 0 1.863.685 2.466 1.432 2.466a1.6 1.6 0 0 0 .63-.126l.117.577zm.566-.693c.207.126.566.242.873.242.631 0 1.008-.414 1.008-1.026 0-.558-.324-.899-.801-1.26-.477-.333-1.143-.9-1.143-1.684 0-.918.647-1.594 1.602-1.594.379 0 .711.126.855.226l-.171.594a1.276 1.276 0 0 0-.72-.207c-.595 0-.874.45-.874.864 0 .604.315.847.892 1.252.729.513 1.053 1.071 1.053 1.746 0 1.044-.738 1.701-1.701 1.701-.414 0-.855-.135-1.026-.27l.153-.584zm3.384-5.176c.298-.081.657-.117.999-.117.604 0 1.054.126 1.369.432.297.307.423.712.423 1.188 0 .774-.36 1.278-.972 1.566v.019c.449.135.684.567.81 1.359.144.828.261 1.341.351 1.53h-.701c-.09-.18-.207-.756-.324-1.494-.135-.838-.396-1.144-.99-1.144h-.271v2.638h-.693V63.41zm.693 2.799h.288c.666 0 1.107-.486 1.107-1.216 0-.693-.288-1.134-1.035-1.144-.135 0-.271.01-.36.036v2.324zm5.644 3.07c-.189.1-.496.162-.873.162-1.18 0-2.035-.945-2.035-3.007 0-2.403 1.188-3.169 2.152-3.169.359 0 .629.072.746.153l-.152.585c-.145-.062-.289-.126-.604-.126-.648 0-1.414.63-1.414 2.485 0 1.863.686 2.466 1.432 2.466.262 0 .486-.062.631-.126l.117.577zm.439 1.188c.514-.81.937-2.043.937-3.664 0-1.62-.423-2.836-.937-3.646h.541c.468.666.98 1.863.98 3.646-.018 1.783-.513 2.971-.98 3.664h-.541zm4.275-6.112c-.225 0-.396-.181-.396-.45 0-.271.181-.45.406-.45.252 0 .414.18.414.45s-.162.45-.414.45h-.01zm-.324 5.032V65.03h.693v4.357h-.693zm4.285-6.229v5.186c0 .297.027.792.035 1.044h-.594l-.045-.54h-.036c-.135.306-.45.612-.909.612-.738 0-1.27-.792-1.27-2.233 0-1.548.64-2.269 1.314-2.269.315 0 .621.145.793.514h.018v-2.313h.694zm-.693 3.528c0-.09 0-.188-.01-.288-.035-.45-.314-.846-.647-.846-.576 0-.774.801-.774 1.674 0 .919.234 1.657.738 1.657.216 0 .514-.117.666-.747.027-.081.027-.181.027-.288v-1.162zm2.141.586c.01 1.341.531 1.62 1.027 1.62.306 0 .549-.072.72-.162l.117.504c-.243.136-.612.207-.964.207-1.035 0-1.575-.846-1.575-2.188 0-1.413.595-2.296 1.468-2.296.883 0 1.242.937 1.242 1.918 0 .171-.009.288-.018.396h-2.017zm1.369-.514c.009-.873-.315-1.261-.648-1.261-.45 0-.684.667-.711 1.261h1.359zm1.412-.603c0-.513-.027-.773-.035-1.125h.603l.036.522H204a1.106 1.106 0 0 1 1-.595c.604 0 1.053.441 1.053 1.504v2.926h-.693v-2.809c0-.522-.099-1.035-.603-1.035-.288 0-.567.243-.648.711a1.62 1.62 0 0 0-.036.387v2.746h-.693v-3.232zm4.437-2.143v1.018h.837v.522h-.837v2.593c0 .576.197.72.45.72.116 0 .207-.009.278-.026l.037.531a1.532 1.532 0 0 1-.514.071c-.279 0-.521-.071-.684-.261-.181-.198-.262-.495-.262-1.099v-2.529h-.531v-.522h.531v-.738l.695-.28zm1.773.343c-.226 0-.396-.181-.396-.45 0-.271.18-.45.404-.45.252 0 .414.18.414.45s-.162.45-.414.45h-.008zm-.323 5.032V65.03h.692v4.357h-.692zm1.798 0v-3.835h-.549v-.522h.549v-.288c0-.783.379-1.656 1.585-1.656.369 0 .692.107.847.207l-.145.54a1.722 1.722 0 0 0-.721-.171c-.701 0-.873.486-.873 1.152v.216h1.953v4.357h-.692v-3.835h-1.261v3.835h-.693zm4.105-2.115c.009 1.341.531 1.62 1.026 1.62.307 0 .549-.072.721-.162l.117.504c-.244.136-.613.207-.964.207-1.035 0-1.575-.846-1.575-2.188 0-1.413.594-2.296 1.467-2.296.883 0 1.242.937 1.242 1.918 0 .171-.008.288-.018.396h-2.016zm1.368-.514c.01-.873-.314-1.261-.648-1.261-.449 0-.684.667-.711 1.261h1.359zm1.404-.603c0-.368-.027-.801-.037-1.125h.622l.036.685h.018c.145-.414.514-.757.918-.757.055 0 .1 0 .145.01v.711c-.045-.009-.09-.009-.145-.009-.441 0-.765.404-.837.909a2.456 2.456 0 0 0-.026.396v2.413h-.693v-3.233zm5.22-2.997c-.513.81-.937 2.025-.937 3.664 0 1.611.424 2.826.937 3.646h-.54c-.469-.684-.981-1.891-.981-3.655.019-1.764.513-2.979.981-3.654h.54zm1.845 6.301c-.783 0-1.414-.712-1.414-2.242 0-1.593.712-2.26 1.459-2.26.783 0 1.404.721 1.404 2.242 0 1.692-.773 2.26-1.439 2.26h-.01zm.036-.549c.595 0 .72-1.017.72-1.701 0-.675-.125-1.701-.738-1.701-.621 0-.738 1.026-.738 1.701 0 .721.127 1.701.748 1.701h.008zm2.177-2.521c0-.666-.026-1.053-.035-1.359h.621l.035.549h.019c.234-.459.585-.621.919-.621.765 0 1.26.802 1.26 2.242 0 1.62-.666 2.26-1.342 2.26-.414 0-.648-.252-.765-.495h-.019v2.151h-.693v-4.727zm.693 1.404c0 .126.01.252.037.36.135.621.44.729.629.729.576 0 .766-.792.766-1.666 0-.909-.216-1.665-.766-1.665-.314 0-.603.396-.639.792-.027.108-.027.216-.027.333v1.117zm3.754-3.781v1.018h.837v.522h-.837v2.593c0 .576.197.72.45.72.116 0 .207-.009.278-.026l.037.531a1.532 1.532 0 0 1-.514.071c-.279 0-.521-.071-.684-.261-.181-.198-.262-.495-.262-1.099v-2.529h-.531v-.522h.531v-.738l.695-.28zm1.773.343c-.226 0-.396-.181-.396-.45 0-.271.18-.45.404-.45.252 0 .414.18.414.45s-.162.45-.414.45h-.008zm-.324 5.032V65.03h.692v4.357h-.692zm2.879.072c-.783 0-1.413-.712-1.413-2.242 0-1.593.712-2.26 1.458-2.26.783 0 1.405.721 1.405 2.242 0 1.692-.774 2.26-1.44 2.26h-.01zm.037-.549c.594 0 .72-1.017.72-1.701 0-.675-.126-1.701-.738-1.701-.621 0-.738 1.026-.738 1.701 0 .721.126 1.701.747 1.701h.009zm2.186-2.755c0-.513-.027-.773-.035-1.125h.603l.036.522h.018a1.106 1.106 0 0 1 1-.595c.604 0 1.053.441 1.053 1.504v2.926h-.693v-2.809c0-.522-.099-1.035-.603-1.035-.288 0-.567.243-.648.711a1.62 1.62 0 0 0-.036.387v2.746h-.693v-3.232zm5.941 2.242c0 .333 0 .711.045.99h-.621l-.045-.459h-.027c-.189.333-.495.531-.864.531-.585 0-1.036-.486-1.036-1.242 0-1.099.874-1.576 1.855-1.585v-.135c0-.585-.145-.99-.693-.99-.27 0-.514.081-.721.225l-.152-.486c.189-.135.585-.288 1.018-.288.873 0 1.242.576 1.242 1.549v1.89zm-.676-1.27c-.359 0-1.197.072-1.197 1.018 0 .576.288.774.531.774.307 0 .559-.226.639-.657.019-.081.027-.171.027-.252v-.883zm1.657-3.969h.692v6.229h-.692v-6.229zm1.457 7.309c.514-.81.937-2.043.937-3.664 0-1.62-.423-2.836-.937-3.646h.541c.468.666.98 1.863.98 3.646-.018 1.783-.513 2.971-.98 3.664h-.541zM112.587 22.685c-.045-.802-.09-1.693-.063-2.377h-.036a33.457 33.457 0 0 1-.486 2.106l-.738 2.845h-.45l-.703-2.728a27.371 27.371 0 0 1-.504-2.224h-.027c.009.711-.036 1.558-.072 2.422l-.117 2.565h-.621l.36-6.067h.756l.702 2.773c.207.801.36 1.396.486 2.089h.027c.117-.693.252-1.27.45-2.089l.685-2.772h.774l.351 6.067h-.648l-.126-2.61zm-62.773-3.367a3.982 3.982 0 0 1 1.008-.117c.558 0 1.036.135 1.351.441.288.288.441.729.441 1.26 0 .559-.135.937-.369 1.242-.324.45-.891.676-1.431.676-.117 0-.207 0-.306-.009v2.484h-.693v-5.977zm.693 2.917c.081.009.162.018.279.018.675 0 1.134-.45 1.134-1.306 0-.621-.252-1.179-1.026-1.179-.162 0-.297.018-.387.045v2.422zm-15.048 3.06l-1.386-6.067h.747l.585 2.845c.144.684.324 1.558.432 2.331h.027c.09-.783.261-1.629.405-2.35l.576-2.826h.738l-1.414 6.067h-.71zm28.143 0l-.549-1.458a23.028 23.028 0 0 1-.378-1.062h-.027l-.36 1.08-.522 1.44h-.711l1.242-3.097-1.207-2.971h.72l.549 1.404c.108.278.216.566.351.963h.018c.144-.423.234-.693.333-.99l.495-1.377h.702l-1.188 2.952 1.251 3.115h-.719zm23.189-.109c-.189.1-.495.162-.873.162-1.179 0-2.035-.945-2.035-3.007 0-2.403 1.188-3.169 2.152-3.169.36 0 .63.072.747.153l-.153.585c-.144-.062-.288-.126-.603-.126-.648 0-1.414.63-1.414 2.485 0 1.863.685 2.466 1.432 2.466a1.6 1.6 0 0 0 .63-.126l.117.577zm3.204 0c-.189.1-.495.162-.873.162-1.179 0-2.035-.945-2.035-3.007 0-2.403 1.188-3.169 2.152-3.169.36 0 .63.072.747.153l-.153.585c-.144-.062-.288-.126-.603-.126-.648 0-1.414.63-1.414 2.485 0 1.863.685 2.466 1.432 2.466a1.6 1.6 0 0 0 .63-.126l.117.577zM10.096 64.598v2.07h1.999v.63h-1.999v2.089h-.648v-2.089H7.45v-.63h1.999v-2.07h.647zm2.753 3.835c.207.126.531.234.855.234.594 0 .945-.396.945-.991 0-.702-.495-1.053-1.134-1.053h-.162v-.711h.117c.432 0 1.018-.243 1.018-.883 0-.495-.288-.774-.72-.774-.279 0-.531.117-.729.252l-.162-.72c.234-.171.675-.324 1.134-.324.945 0 1.44.63 1.44 1.378 0 .594-.315 1.089-.855 1.341v.019c.549.171 1.018.666 1.018 1.512 0 .919-.657 1.747-1.837 1.747-.432 0-.846-.117-1.089-.271l.161-.756zm3.528.954v-.64l.541-.711c.729-.963 1.44-1.899 1.44-2.854 0-.549-.271-.909-.784-.909-.396 0-.684.188-.864.306l-.189-.738a2.188 2.188 0 0 1 1.225-.378c1.143 0 1.557.792 1.557 1.656 0 1.099-.702 2.062-1.395 2.936l-.369.468v.018h1.854v.847h-3.016zm134.497 8.73a3.952 3.952 0 0 1 1-.117c.603 0 1.053.126 1.368.432.297.307.423.712.423 1.188 0 .774-.36 1.278-.972 1.566v.019c.45.135.684.567.81 1.359.144.828.261 1.341.351 1.53h-.702c-.09-.18-.207-.756-.324-1.494-.135-.838-.396-1.144-.99-1.144h-.27v2.638h-.693v-5.977zm.693 2.8h.288c.666 0 1.107-.486 1.107-1.216 0-.693-.288-1.134-1.036-1.144-.135 0-.27.01-.36.036v2.324zm3.6-2.269h-1.107v-.621h2.908v.621h-1.107v5.446h-.693v-5.446zm2.475-.531A3.982 3.982 0 0 1 158.65 78c.558 0 1.036.135 1.351.441.288.288.441.729.441 1.26 0 .559-.135.937-.369 1.242-.324.45-.891.676-1.431.676-.117 0-.207 0-.306-.009v2.484h-.693v-5.977zm.693 2.917c.081.009.162.018.279.018.675 0 1.135-.45 1.135-1.306 0-.621-.252-1.179-1.026-1.179-.162 0-.297.018-.387.045v2.422zm4.743.945c.009 1.341.531 1.62 1.026 1.62.306 0 .549-.072.72-.162l.117.504c-.243.136-.612.207-.963.207-1.035 0-1.576-.846-1.576-2.188 0-1.413.594-2.296 1.468-2.296.882 0 1.242.937 1.242 1.918 0 .171-.009.288-.018.396h-2.016zm1.368-.513c.009-.873-.315-1.261-.648-1.261-.45 0-.684.667-.711 1.261h1.359zm1.737-1.729l.405.928c.108.252.198.504.288.765h.018c.099-.279.198-.531.297-.765l.387-.928h.711l-1.035 2.143 1.026 2.215h-.756l-.415-.981c-.099-.234-.18-.459-.288-.747h-.018c-.09.261-.189.504-.288.747l-.396.981h-.711l1.035-2.188-.999-2.17h.739zm3.654-1.017v1.018h.837v.522h-.837v2.593c0 .576.198.72.45.72.117 0 .207-.009.279-.026l.036.531a1.522 1.522 0 0 1-.513.071c-.279 0-.522-.071-.684-.261-.18-.198-.261-.495-.261-1.099V80.26h-.531v-.522h.531V79l.693-.28zm1.862 3.259c.009 1.341.531 1.62 1.026 1.62.306 0 .55-.072.72-.162l.117.504c-.242.136-.611.207-.963.207-1.035 0-1.576-.846-1.576-2.188 0-1.413.594-2.296 1.468-2.296.882 0 1.243.937 1.243 1.918 0 .171-.01.288-.019.396h-2.016zm1.369-.513c.008-.873-.316-1.261-.649-1.261-.45 0-.684.667-.711 1.261h1.36zm1.412-.604c0-.513-.027-.773-.036-1.125h.603l.037.522h.018c.189-.352.54-.595.999-.595.604 0 1.054.441 1.054 1.504v2.926h-.693v-2.809c0-.522-.1-1.035-.604-1.035-.287 0-.566.243-.648.711a1.626 1.626 0 0 0-.035.387v2.746h-.693v-3.232zm3.528 2.513c.153.099.424.225.703.225.387 0 .639-.243.639-.63 0-.333-.117-.567-.559-.855-.566-.369-.873-.747-.873-1.242 0-.712.522-1.207 1.197-1.207.342 0 .595.108.774.226l-.18.522a.994.994 0 0 0-.585-.198c-.369 0-.559.27-.559.558s.107.459.54.747c.505.324.9.729.9 1.333 0 .873-.595 1.296-1.314 1.296-.315 0-.666-.099-.854-.252l.171-.523zm3.043-4.313c-.226 0-.396-.181-.396-.45 0-.271.18-.45.405-.45.252 0 .414.18.414.45s-.162.45-.414.45h-.009zm-.324 5.033v-4.357h.693v4.357h-.693zm2.879.072c-.783 0-1.413-.712-1.413-2.242 0-1.593.711-2.26 1.458-2.26.783 0 1.405.721 1.405 2.242 0 1.692-.775 2.26-1.441 2.26h-.009zm.037-.55c.594 0 .721-1.017.721-1.701 0-.675-.127-1.701-.738-1.701-.621 0-.738 1.026-.738 1.701 0 .721.125 1.701.746 1.701h.009zm2.186-2.755c0-.513-.027-.773-.036-1.125h.604l.035.522h.019c.188-.352.54-.595.999-.595.604 0 1.054.441 1.054 1.504v2.926h-.693v-2.809c0-.522-.099-1.035-.603-1.035-.289 0-.568.243-.648.711a1.564 1.564 0 0 0-.037.387v2.746h-.692v-3.232zm6.624-2.997c-.513.81-.936 2.025-.936 3.664 0 1.611.423 2.826.936 3.646h-.539c-.469-.684-.982-1.891-.982-3.655.019-1.764.514-2.979.982-3.654h.539zm1.846 6.302c-.783 0-1.414-.712-1.414-2.242 0-1.593.711-2.26 1.459-2.26.783 0 1.404.721 1.404 2.242 0 1.692-.774 2.26-1.44 2.26h-.009zm.035-.55c.595 0 .721-1.017.721-1.701 0-.675-.126-1.701-.738-1.701-.621 0-.738 1.026-.738 1.701 0 .721.126 1.701.747 1.701h.008zm2.178-2.52c0-.666-.027-1.053-.036-1.359h.622l.035.549h.018c.234-.459.586-.621.919-.621.765 0 1.261.802 1.261 2.242 0 1.62-.666 2.26-1.342 2.26-.414 0-.648-.252-.766-.495h-.018v2.151h-.693v-4.727zm.693 1.404c0 .126.009.252.036.36.135.621.44.729.63.729.576 0 .766-.792.766-1.666 0-.909-.217-1.665-.766-1.665-.314 0-.604.396-.639.792-.027.108-.027.216-.027.333v1.117zm3.753-3.781v1.018h.837v.522h-.837v2.593c0 .576.198.72.45.72.117 0 .207-.009.279-.026l.035.531a1.513 1.513 0 0 1-.513.071c-.279 0-.522-.071-.685-.261-.18-.198-.261-.495-.261-1.099V80.26h-.531v-.522h.531V79l.695-.28zm1.772.342c-.225 0-.396-.181-.396-.45 0-.271.181-.45.406-.45.252 0 .414.18.414.45s-.162.45-.414.45h-.01zm-.324 5.033v-4.357h.693v4.357h-.693zm2.881.072c-.783 0-1.414-.712-1.414-2.242 0-1.593.712-2.26 1.459-2.26.783 0 1.404.721 1.404 2.242 0 1.692-.773 2.26-1.439 2.26h-.01zm.036-.55c.595 0 .72-1.017.72-1.701 0-.675-.125-1.701-.738-1.701-.621 0-.738 1.026-.738 1.701 0 .721.127 1.701.748 1.701h.008zm2.187-2.755c0-.513-.027-.773-.036-1.125h.603l.037.522h.018c.189-.352.54-.595.999-.595.604 0 1.054.441 1.054 1.504v2.926h-.693v-2.809c0-.522-.1-1.035-.604-1.035-.287 0-.566.243-.648.711a1.626 1.626 0 0 0-.035.387v2.746h-.693v-3.232zm5.94 2.242c0 .333 0 .711.045.99h-.621l-.045-.459h-.026c-.189.333-.496.531-.865.531-.585 0-1.035-.486-1.035-1.242 0-1.099.873-1.576 1.855-1.585v-.135c0-.585-.145-.99-.693-.99-.271 0-.514.081-.721.225l-.153-.486c.189-.135.585-.288 1.018-.288.873 0 1.242.576 1.242 1.549v1.89zm-.675-1.269c-.36 0-1.197.072-1.197 1.018 0 .576.287.774.531.774.306 0 .558-.226.639-.657a1.2 1.2 0 0 0 .027-.252v-.883zm1.656-3.97h.692v6.229h-.692v-6.229zm1.458 7.31c.514-.81.936-2.043.936-3.664 0-1.62-.422-2.836-.936-3.646h.54c.468.666.981 1.863.981 3.646-.018 1.783-.514 2.971-.981 3.664h-.54zM10.096 79.306v2.07h1.999v.63h-1.999v2.089h-.648v-2.089H7.45v-.63h1.999v-2.07h.647zm2.753 3.835c.207.126.531.234.855.234.594 0 .945-.396.945-.991 0-.702-.495-1.053-1.134-1.053h-.162v-.711h.117c.432 0 1.018-.243 1.018-.883 0-.495-.288-.774-.72-.774-.279 0-.531.117-.729.252l-.162-.72c.234-.171.675-.324 1.134-.324.945 0 1.44.63 1.44 1.378 0 .594-.315 1.089-.855 1.341v.019c.549.171 1.018.666 1.018 1.512 0 .919-.657 1.747-1.837 1.747-.432 0-.846-.117-1.089-.271l.161-.756zm3.528.954v-.64l.541-.711c.729-.963 1.44-1.899 1.44-2.854 0-.549-.271-.909-.784-.909-.396 0-.684.188-.864.306l-.189-.738a2.188 2.188 0 0 1 1.225-.378c1.143 0 1.557.792 1.557 1.656 0 1.099-.702 2.062-1.395 2.936l-.369.468v.018h1.854v.847h-3.016zm136.829 11.809h-1.495l-.441 2.313h1.71l-.117.585h-2.35l1.152-6.067h2.242l-.108.576h-1.593l-.396 2.034h1.503l-.107.559zm.305 2.898l.531-2.863c.126-.63.189-1.143.234-1.494h.567l-.072.693h.018c.351-.531.729-.766 1.17-.766.54 0 .747.424.747.883 0 .252-.036.459-.081.711l-.531 2.836h-.648l.531-2.827a3.17 3.17 0 0 0 .063-.603c0-.262-.108-.441-.378-.441-.405 0-.892.621-1.053 1.449l-.459 2.422h-.639zm5.59-.072a1.83 1.83 0 0 1-.711.126c-.873 0-1.188-.711-1.188-1.558 0-1.269.747-2.916 2.169-2.916.189 0 .342.026.432.071l-.171.559c-.09-.027-.189-.063-.324-.063-.909 0-1.44 1.297-1.44 2.278 0 .639.189 1.071.693 1.071.171 0 .36-.045.531-.108l.009.54zm.584.072l.549-2.926c.108-.585.162-1.107.189-1.432h.567a8.696 8.696 0 0 1-.072.819h.027c.271-.54.648-.892 1.089-.892.045 0 .081.01.117.01l-.126.684c-.018 0-.054-.009-.081-.009-.576 0-1.062.811-1.188 1.458l-.432 2.287h-.639zm3.474-4.357l.144 2.439c.018.396.027.648.045 1.081h.018c.117-.379.243-.712.387-1.099l.9-2.422h.666l-1.458 3.538c-.396.973-.855 1.782-1.431 2.277-.261.217-.513.379-.675.433l-.261-.549c.189-.091.423-.226.648-.414a2.81 2.81 0 0 0 .702-.945c.036-.091.045-.153.036-.243l-.387-4.097h.666zm1.638 6.086l.864-4.546c.117-.622.189-1.171.243-1.54h.576l-.099.711h.018c.288-.468.693-.783 1.125-.783.63 0 .801.595.801 1.243 0 1.35-.703 3.259-2.008 3.259a.985.985 0 0 1-.522-.145h-.018l-.333 1.801h-.647zm1.089-2.341c.117.09.252.162.414.162 1.008 0 1.369-1.998 1.369-2.646 0-.424-.081-.757-.423-.757-.432 0-.891.702-1.044 1.521l-.316 1.72zm4.501-4.889l-.234 1.144h.829l-.099.504h-.819l-.468 2.485a3.153 3.153 0 0 0-.063.549c0 .216.081.333.297.333.117 0 .189 0 .27-.018l-.054.504a1.72 1.72 0 0 1-.468.063c-.459 0-.729-.271-.729-.703 0-.171.018-.351.09-.702l.477-2.512h-.522l.09-.504h.531l.18-.945.692-.198zm2.655 5.285c-.315.171-.648.27-1.026.27-.918 0-1.215-.702-1.215-1.539 0-1.18.657-2.944 1.899-2.944.64 0 .9.486.9.99 0 1.054-.936 1.504-2.125 1.513-.018.126-.045.612.027.873.099.369.324.567.666.567s.576-.117.775-.233l.099.503zm-.441-3.655c-.387 0-.801.478-1.035 1.423.693-.01 1.423-.243 1.423-.945-.001-.307-.128-.478-.388-.478zm4.743-2.358l-.891 4.699c-.09.477-.18 1.116-.198 1.53h-.558l.053-.685h-.018c-.216.45-.621.757-1.044.757-.55 0-.882-.514-.882-1.306 0-1.485.783-3.196 2.061-3.196a.76.76 0 0 1 .459.162l.369-1.962h.649zm-1.143 2.529a.473.473 0 0 0-.405-.198c-.837 0-1.323 1.647-1.323 2.539 0 .513.117.873.477.873.315 0 .738-.396.91-1.26l.341-1.954zm3.446-2.305c.307-.054.64-.09.955-.09.477 0 .864.135 1.098.378.226.243.343.567.343.945 0 .847-.531 1.611-1.27 1.854v.019c.369.144.55.566.558 1.359.019.837.055 1.35.1 1.539h-.657c-.045-.18-.054-.756-.063-1.504-.026-.846-.225-1.17-.773-1.17h-.289l-.494 2.674h-.64l1.132-6.004zm.109 2.809h.314c.729 0 1.287-.666 1.287-1.53 0-.468-.207-.837-.792-.837-.136 0-.271.009-.369.045l-.44 2.322zm3.851-2.269h-1.099l.117-.603h2.836l-.117.603h-1.089l-1.035 5.465h-.648l1.035-5.465zm2.51-.54c.289-.054.648-.09.955-.09.378 0 .873.108 1.143.423.234.262.334.63.334.981 0 .666-.279 1.261-.612 1.62-.378.414-.945.612-1.44.612-.153 0-.288-.018-.405-.036l-.468 2.494h-.64l1.133-6.004zm.082 2.953c.107.027.207.036.351.036.927 0 1.333-.919 1.333-1.603 0-.55-.217-.928-.873-.928-.117 0-.244.019-.343.036l-.468 2.459zm3.221 4.781l.865-4.546c.117-.622.188-1.171.242-1.54h.576l-.099.711h.019c.287-.468.693-.783 1.125-.783.63 0 .801.595.801 1.243 0 1.35-.702 3.259-2.008 3.259-.18 0-.396-.055-.521-.145h-.018l-.334 1.801h-.648zm1.09-2.341c.117.09.252.162.414.162 1.008 0 1.369-1.998 1.369-2.646 0-.424-.082-.757-.424-.757-.432 0-.891.702-1.045 1.521l-.314 1.72zm4.725.612c.009-.243.036-.486.063-.828h-.019c-.433.738-.819.9-1.144.9-.504 0-.811-.441-.811-1.225 0-1.323.703-3.277 2.387-3.277.306 0 .621.063.801.145l-.504 2.493c-.117.586-.198 1.306-.189 1.792h-.584zm.549-3.871a1.19 1.19 0 0 0-.271-.027c-.972 0-1.512 1.594-1.539 2.548-.009.55.1.864.405.864.441 0 .909-.864 1.081-1.729l.324-1.656zm1.89-.486l.144 2.439c.019.396.027.648.045 1.081h.019c.117-.379.242-.712.387-1.099l.9-2.422h.666l-1.459 3.538c-.396.973-.854 1.782-1.431 2.277-.261.217-.513.379-.675.433l-.262-.549c.189-.091.424-.226.648-.414.27-.226.566-.622.702-.945.036-.091.045-.153.036-.243l-.387-4.097h.667zm1.971 4.357l1.17-6.229h.657l-1.188 6.229h-.639zm4.679-3.007c0 1.099-.539 3.079-1.872 3.079-.81 0-1.062-.702-1.062-1.477 0-1.171.629-3.025 1.926-3.025.873.001 1.008.838 1.008 1.423zm-2.277 1.539c0 .495.036 1.009.496 1.009.791 0 1.125-1.854 1.125-2.593 0-.45-.081-.838-.459-.838-.721.001-1.162 1.568-1.162 2.422zm4.555 1.468c.01-.243.036-.486.063-.828h-.019c-.432.738-.818.9-1.143.9-.504 0-.811-.441-.811-1.225 0-1.323.702-3.277 2.386-3.277.306 0 .621.063.802.145l-.505 2.493c-.116.586-.198 1.306-.188 1.792h-.585zm.548-3.871a1.176 1.176 0 0 0-.27-.027c-.973 0-1.512 1.594-1.539 2.548-.01.55.099.864.404.864.441 0 .91-.864 1.081-1.729l.324-1.656zm4.501-2.358l-.892 4.699c-.09.477-.18 1.116-.197 1.53h-.559l.054-.685h-.018c-.216.45-.622.757-1.044.757-.55 0-.883-.514-.883-1.306 0-1.485.783-3.196 2.062-3.196.171 0 .351.072.459.162l.369-1.962h.649zm-1.143 2.529a.47.47 0 0 0-.404-.198c-.838 0-1.324 1.647-1.324 2.539 0 .513.117.873.477.873.316 0 .738-.396.91-1.26l.341-1.954zm2.34 3.286c0-.288.225-.559.494-.559.307 0 .433.226.433.478 0 .315-.216.567-.495.567-.271 0-.432-.198-.432-.486zm1.718 0c0-.288.225-.559.494-.559.307 0 .433.226.433.478 0 .315-.216.567-.495.567-.27 0-.432-.198-.432-.486zm1.719 0c0-.288.225-.559.495-.559.306 0 .433.226.433.478 0 .315-.217.567-.496.567-.27 0-.432-.198-.432-.486zM11.55 94.013v2.07h1.999v.63H11.55v2.089h-.648v-2.089H8.903v-.63h1.999v-2.07h.648zm2.888 4.789v-6.067h.882l1.026 2.593c.216.549.522 1.332.711 1.917h.018a39.25 39.25 0 0 1-.108-2.791v-1.719h.846v6.067h-.882l-1.035-2.584a18.028 18.028 0 0 1-.667-1.927h-.018c.045.702.072 1.558.072 2.818v1.692h-.845zm98.231 13.907c.207.126.567.242.873.242.63 0 1.008-.414 1.008-1.026 0-.558-.324-.899-.801-1.26-.477-.333-1.143-.9-1.143-1.684 0-.918.648-1.594 1.603-1.594.378 0 .711.126.855.226l-.171.594a1.276 1.276 0 0 0-.72-.207c-.594 0-.874.45-.874.864 0 .604.315.847.892 1.252.729.513 1.053 1.071 1.053 1.746 0 1.044-.738 1.701-1.702 1.701-.414 0-.855-.135-1.026-.27l.153-.584zm3.384-5.177a3.952 3.952 0 0 1 1-.117c.603 0 1.053.126 1.368.432.297.307.423.712.423 1.188 0 .774-.36 1.278-.972 1.566v.019c.45.135.684.567.81 1.359.144.828.261 1.341.351 1.53h-.702c-.09-.18-.207-.756-.324-1.494-.135-.838-.396-1.144-.99-1.144h-.27v2.638h-.693v-5.977zm.693 2.8h.288c.666 0 1.107-.486 1.107-1.216 0-.693-.288-1.134-1.036-1.144-.135 0-.27.01-.36.036v2.324zm3.6-2.269h-1.107v-.621h2.908v.621h-1.107v5.446h-.693v-5.446zm2.475-.531a3.982 3.982 0 0 1 1.008-.117c.558 0 1.036.135 1.351.441.288.288.441.729.441 1.26 0 .559-.135.937-.369 1.242-.324.45-.891.676-1.431.676-.117 0-.207 0-.306-.009v2.484h-.693v-5.977zm.693 2.917c.081.009.162.018.279.018.675 0 1.134-.45 1.134-1.306 0-.621-.252-1.179-1.026-1.179-.162 0-.297.018-.387.045v2.422zm7.984.45c-.045-.802-.09-1.693-.063-2.377h-.036a33.457 33.457 0 0 1-.486 2.106l-.738 2.845h-.45l-.703-2.728a27.371 27.371 0 0 1-.504-2.224h-.027c.009.711-.036 1.558-.072 2.422l-.117 2.565h-.621l.36-6.067h.756l.702 2.772c.207.801.36 1.396.486 2.089h.027c.117-.693.252-1.27.45-2.089l.685-2.772h.774l.351 6.067h-.648l-.126-2.609zm1.717-3.457h.693v2.881h.018c.135-.253.261-.495.378-.729l1.125-2.151h.774l-1.486 2.593 1.521 3.475h-.747l-1.242-2.926-.342.585v2.341h-.693v-6.069zm4.33 0v6.067h-.693v-6.067h.693zm4.023-.162c-.513.81-.937 2.025-.937 3.664 0 1.611.423 2.826.937 3.646h-.54c-.468-.684-.981-1.891-.981-3.655.018-1.764.513-2.979.981-3.654h.54zm1.845 6.302c-.783 0-1.414-.712-1.414-2.242 0-1.593.711-2.26 1.458-2.26.783 0 1.405.721 1.405 2.242 0 1.692-.774 2.26-1.44 2.26h-.009zm.036-.55c.594 0 .72-1.017.72-1.701 0-.675-.126-1.701-.738-1.701-.621 0-.738 1.026-.738 1.701 0 .721.126 1.701.747 1.701h.009zm2.177-2.52c0-.666-.027-1.053-.036-1.359h.622l.036.549h.018c.234-.459.585-.621.918-.621.765 0 1.26.802 1.26 2.242 0 1.62-.666 2.26-1.341 2.26-.414 0-.648-.252-.765-.495h-.018v2.151h-.693v-4.727zm.694 1.404c0 .126.009.252.036.36.135.621.441.729.63.729.576 0 .765-.792.765-1.666 0-.909-.216-1.665-.765-1.665-.315 0-.603.396-.639.792-.027.108-.027.216-.027.333v1.117zm3.753-3.781v1.018h.837v.522h-.837v2.593c0 .576.198.72.45.72.117 0 .207-.009.279-.026l.036.531a1.522 1.522 0 0 1-.513.071c-.279 0-.522-.071-.684-.261-.18-.198-.261-.495-.261-1.099v-2.529h-.531v-.522h.531v-.738l.693-.28zm1.772.343c-.225 0-.396-.181-.396-.45 0-.271.18-.45.405-.45.252 0 .414.18.414.45s-.162.45-.414.45h-.009zm-.323 5.032v-4.357h.693v4.357h-.693zm2.879.072c-.783 0-1.414-.712-1.414-2.242 0-1.593.711-2.26 1.458-2.26.783 0 1.405.721 1.405 2.242 0 1.692-.774 2.26-1.44 2.26h-.009zm.037-.55c.594 0 .72-1.017.72-1.701 0-.675-.126-1.701-.738-1.701-.621 0-.738 1.026-.738 1.701 0 .721.126 1.701.747 1.701h.009zm2.186-2.755c0-.513-.027-.773-.036-1.125h.603l.036.522h.018c.189-.352.54-.595.999-.595.604 0 1.054.441 1.054 1.504v2.926h-.693V110.7c0-.522-.099-1.035-.603-1.035-.288 0-.567.243-.648.711a1.57 1.57 0 0 0-.036.387v2.746h-.693v-3.232zm5.94 2.243c0 .333 0 .711.045.99h-.621l-.045-.459h-.027c-.189.333-.495.531-.864.531-.585 0-1.036-.486-1.036-1.242 0-1.099.874-1.576 1.855-1.585v-.135c0-.585-.145-.99-.693-.99-.27 0-.513.081-.72.225l-.153-.486c.189-.135.585-.288 1.018-.288.873 0 1.242.576 1.242 1.549v1.89zm-.675-1.27c-.36 0-1.197.072-1.197 1.018 0 .576.288.774.531.774.306 0 .558-.226.639-.657a1.2 1.2 0 0 0 .027-.252v-.883zm1.656-3.97h.693v6.229h-.693v-6.229zm1.458 7.31c.513-.81.936-2.043.936-3.664 0-1.62-.423-2.836-.936-3.646h.54c.468.666.981 1.863.981 3.646-.018 1.783-.513 2.971-.981 3.664h-.54zm6.409-5.879v2.143h2.071v.495h-2.071v2.161h-.513v-2.161h-2.062v-.495h2.062v-2.143h.513zm5.102 2.98l-.396 1.818h-.674l1.386-6.067h.765l1.352 6.067h-.685l-.396-1.818h-1.352zm1.252-.558l-.315-1.539c-.09-.433-.171-.937-.243-1.387h-.027c-.071.459-.162.981-.252 1.396l-.314 1.53h1.151zm4.437 1.188c0 .478.026.864.035 1.188h-.604l-.054-.459h-.019a1.113 1.113 0 0 1-.927.531c-.756 0-1.062-.595-1.062-1.675v-2.755h.692v2.656c0 .675.108 1.188.585 1.188.406 0 .586-.379.621-.586.027-.117.037-.243.037-.387v-2.872h.693v3.171zm1.817-4.186v1.018h.838v.522h-.838v2.593c0 .576.198.72.451.72.116 0 .207-.009.278-.026l.036.531a1.524 1.524 0 0 1-.514.071c-.279 0-.521-.071-.684-.261-.18-.198-.262-.495-.262-1.099v-2.529h-.531v-.522h.531v-.738l.695-.28zm1.449-.855h.693v2.34h.018c.09-.152.225-.287.369-.387.153-.099.333-.153.576-.153.549 0 1.018.433 1.018 1.54v2.89h-.693v-2.809c0-.54-.117-1.035-.586-1.035-.323 0-.566.233-.674.692a1.88 1.88 0 0 0-.027.324v2.827h-.693v-6.229zm4.131 4.115c.01 1.341.531 1.62 1.026 1.62.306 0 .55-.072.72-.162l.117.504c-.242.136-.611.207-.963.207-1.035 0-1.576-.846-1.576-2.188 0-1.413.595-2.296 1.469-2.296.882 0 1.242.937 1.242 1.918 0 .171-.01.288-.019.396H189.6zm1.369-.514c.008-.873-.316-1.261-.648-1.261-.451 0-.685.667-.711 1.261h1.359zm1.412-.604c0-.513-.027-.773-.036-1.125h.603l.037.522h.018c.189-.352.54-.595.999-.595.604 0 1.054.441 1.054 1.504v2.926h-.693V110.7c0-.522-.1-1.035-.604-1.035-.287 0-.566.243-.648.711a1.626 1.626 0 0 0-.035.387v2.746h-.693v-3.232zm4.437-2.142v1.018h.836v.522h-.836v2.593c0 .576.197.72.449.72.117 0 .207-.009.279-.026l.036.531a1.522 1.522 0 0 1-.513.071c-.279 0-.522-.071-.685-.261-.181-.198-.261-.495-.261-1.099v-2.529h-.531v-.522h.531v-.738l.695-.28zm1.772.343c-.225 0-.396-.181-.396-.45 0-.271.181-.45.405-.45.252 0 .414.18.414.45s-.162.45-.414.45h-.009zm-.323 5.032v-4.357h.692v4.357h-.692zm3.78-.109c-.153.091-.414.162-.721.162-.953 0-1.594-.765-1.594-2.205 0-1.252.631-2.269 1.721-2.269.233 0 .486.062.611.144l-.135.559a1.13 1.13 0 0 0-.495-.117c-.702 0-1.009.828-1.009 1.684 0 1.017.388 1.629 1.027 1.629.18 0 .342-.036.494-.117l.101.53zm2.889-.881c0 .333 0 .711.045.99h-.621l-.045-.459h-.026c-.188.333-.495.531-.864.531-.586 0-1.035-.486-1.035-1.242 0-1.099.873-1.576 1.854-1.585v-.135c0-.585-.143-.99-.692-.99a1.24 1.24 0 0 0-.72.225l-.154-.486c.189-.135.586-.288 1.018-.288.873 0 1.242.576 1.242 1.549v1.89zm-.675-1.27c-.36 0-1.197.072-1.197 1.018 0 .576.288.774.531.774.306 0 .558-.226.64-.657.018-.081.026-.171.026-.252v-.883zm2.421-3.115v1.018h.837v.522h-.837v2.593c0 .576.197.72.45.72.116 0 .207-.009.278-.026l.037.531a1.532 1.532 0 0 1-.514.071c-.279 0-.521-.071-.684-.261-.181-.198-.262-.495-.262-1.099v-2.529h-.531v-.522h.531v-.738l.695-.28zm1.772.343c-.226 0-.396-.181-.396-.45 0-.271.18-.45.404-.45.252 0 .414.18.414.45s-.162.45-.414.45h-.008zm-.323 5.032v-4.357h.692v4.357h-.692zm2.879.072c-.783 0-1.413-.712-1.413-2.242 0-1.593.712-2.26 1.458-2.26.783 0 1.405.721 1.405 2.242 0 1.692-.774 2.26-1.44 2.26h-.01zm.037-.55c.594 0 .72-1.017.72-1.701 0-.675-.126-1.701-.738-1.701-.621 0-.738 1.026-.738 1.701 0 .721.126 1.701.747 1.701h.009zm2.186-2.755c0-.513-.027-.773-.036-1.125h.604l.035.522h.019c.188-.352.54-.595.999-.595.604 0 1.054.441 1.054 1.504v2.926h-.693V110.7c0-.522-.099-1.035-.603-1.035-.289 0-.568.243-.648.711a1.564 1.564 0 0 0-.037.387v2.746h-.692v-3.232zm5.509-2.214h-1.107v-.621h2.907v.621h-1.106v5.446h-.693v-5.446zm4.23 4.457c0 .333 0 .711.045.99h-.621l-.045-.459h-.026c-.189.333-.496.531-.865.531-.585 0-1.035-.486-1.035-1.242 0-1.099.873-1.576 1.855-1.585v-.135c0-.585-.145-.99-.693-.99-.271 0-.514.081-.721.225l-.153-.486c.189-.135.585-.288 1.018-.288.873 0 1.242.576 1.242 1.549v1.89zm-.675-1.27c-.36 0-1.197.072-1.197 1.018 0 .576.287.774.531.774.306 0 .558-.226.639-.657a1.2 1.2 0 0 0 .027-.252v-.883zm4.283 1.701c0 1.144-.144 1.576-.432 1.9-.27.288-.675.459-1.161.459-.369 0-.729-.09-.954-.216l.162-.541c.171.091.459.189.801.189.549 0 .892-.342.892-1.332v-.441h-.019a.873.873 0 0 1-.828.531c-.773 0-1.278-.873-1.278-2.152 0-1.611.72-2.269 1.368-2.269.459 0 .676.307.811.559h.018l.037-.486h.621c-.01.297-.037.685-.037 1.359v2.44zm-.692-2.295c0-.117-.009-.226-.036-.324-.072-.288-.234-.657-.631-.657-.494 0-.765.675-.765 1.639 0 1.116.351 1.62.765 1.62.217 0 .486-.099.621-.621.046-.135.046-.271.046-.396v-1.261zm4.634-3.376c-.513.81-.937 2.025-.937 3.664 0 1.611.424 2.826.937 3.646h-.54c-.469-.684-.981-1.891-.981-3.655.019-1.764.513-2.979.981-3.654h.54zm1.845 6.302c-.783 0-1.414-.712-1.414-2.242 0-1.593.712-2.26 1.459-2.26.783 0 1.404.721 1.404 2.242 0 1.692-.773 2.26-1.439 2.26h-.01zm.036-.55c.595 0 .72-1.017.72-1.701 0-.675-.125-1.701-.738-1.701-.621 0-.738 1.026-.738 1.701 0 .721.127 1.701.748 1.701h.008zm2.178-2.52c0-.666-.026-1.053-.036-1.359h.621l.036.549h.019c.234-.459.585-.621.918-.621.766 0 1.26.802 1.26 2.242 0 1.62-.666 2.26-1.341 2.26-.414 0-.648-.252-.765-.495h-.019v2.151h-.693v-4.727zm.693 1.404c0 .126.009.252.036.36.135.621.441.729.63.729.576 0 .765-.792.765-1.666 0-.909-.215-1.665-.765-1.665-.315 0-.603.396-.64.792-.026.108-.026.216-.026.333v1.117zm3.753-3.781v1.018h.837v.522h-.837v2.593c0 .576.197.72.45.72.116 0 .207-.009.278-.026l.037.531a1.532 1.532 0 0 1-.514.071c-.279 0-.521-.071-.684-.261-.181-.198-.262-.495-.262-1.099v-2.529h-.531v-.522h.531v-.738l.695-.28zm1.773.343c-.226 0-.396-.181-.396-.45 0-.271.18-.45.404-.45.252 0 .414.18.414.45s-.162.45-.414.45h-.008zm-.323 5.032v-4.357h.692v4.357h-.692zm2.878.072c-.783 0-1.413-.712-1.413-2.242 0-1.593.712-2.26 1.458-2.26.783 0 1.405.721 1.405 2.242 0 1.692-.774 2.26-1.44 2.26h-.01zm.038-.55c.594 0 .72-1.017.72-1.701 0-.675-.126-1.701-.738-1.701-.621 0-.738 1.026-.738 1.701 0 .721.126 1.701.747 1.701h.009zm2.185-2.755c0-.513-.027-.773-.035-1.125h.603l.036.522h.018a1.106 1.106 0 0 1 1-.595c.604 0 1.053.441 1.053 1.504v2.926h-.693V110.7c0-.522-.099-1.035-.603-1.035-.288 0-.567.243-.648.711a1.62 1.62 0 0 0-.036.387v2.746h-.693v-3.232zm5.942 2.243c0 .333 0 .711.045.99h-.621l-.045-.459h-.027c-.189.333-.495.531-.864.531-.585 0-1.036-.486-1.036-1.242 0-1.099.874-1.576 1.855-1.585v-.135c0-.585-.145-.99-.693-.99-.27 0-.514.081-.721.225l-.152-.486c.189-.135.585-.288 1.018-.288.873 0 1.242.576 1.242 1.549v1.89zm-.676-1.27c-.359 0-1.197.072-1.197 1.018 0 .576.288.774.531.774.307 0 .559-.226.639-.657.019-.081.027-.171.027-.252v-.883zm1.656-3.97h.693v6.229h-.693v-6.229zm1.457 7.31c.514-.81.937-2.043.937-3.664 0-1.62-.423-2.836-.937-3.646h.541c.468.666.98 1.863.98 3.646-.018 1.783-.513 2.971-.98 3.664h-.541zm-242.413-1.008c-.315 0-.576-.262-.576-.666 0-.388.271-.667.585-.667.333 0 .585.252.585.667 0 .404-.234.666-.585.666h-.009zm1.944 0c-.315 0-.576-.262-.576-.666 0-.388.271-.667.585-.667.333 0 .585.252.585.667 0 .404-.234.666-.585.666h-.009zm1.944 0c-.315 0-.576-.262-.576-.666 0-.388.271-.667.585-.667.333 0 .585.252.585.667 0 .404-.234.666-.585.666h-.009z"/></svg>