<svg xmlns="http://www.w3.org/2000/svg" viewBox="0 0 229.139 257.707"><path fill="#f2f2f2" fill-rule="evenodd" stroke="#000" d="M.5.5h58.139v24.708H.5z" clip-rule="evenodd" stroke-linecap="round" stroke-linejoin="round"/><path d="M5.656 5.018a3.99 3.99 0 0 1 1.009-.117c.558 0 1.036.135 1.351.441.288.288.441.729.441 1.26 0 .559-.135.937-.369 1.242-.325.45-.892.676-1.432.676-.117 0-.207 0-.306-.009v2.484h-.694V5.018zm.694 2.917c.081.009.162.018.279.018.675 0 1.135-.45 1.135-1.306 0-.621-.252-1.179-1.026-1.179-.162 0-.297.018-.387.045v2.422zm4.914 2.07c0 .333 0 .711.045.99h-.621l-.045-.459h-.027c-.189.333-.495.531-.864.531-.585 0-1.036-.486-1.036-1.242 0-1.099.874-1.576 1.855-1.585v-.134c0-.585-.145-.99-.693-.99-.27 0-.513.081-.72.225l-.154-.487c.189-.135.585-.288 1.018-.288.873 0 1.242.576 1.242 1.549v1.89zm-.676-1.269c-.36 0-1.197.072-1.197 1.018 0 .576.288.774.531.774.306 0 .558-.226.639-.657.019-.081.027-.171.027-.252v-.883zm4.285 1.701c0 1.144-.144 1.576-.432 1.9-.27.288-.675.459-1.161.459-.369 0-.729-.09-.954-.216l.162-.541c.171.091.459.189.801.189.549 0 .892-.342.892-1.332v-.441h-.018a.873.873 0 0 1-.828.531c-.774 0-1.279-.873-1.279-2.152 0-1.611.72-2.269 1.369-2.269.459 0 .675.307.81.559h.018l.036-.486h.621c-.009.297-.036.685-.036 1.359v2.44zm-.693-2.295c0-.117-.009-.226-.036-.324-.072-.288-.234-.657-.63-.657-.495 0-.765.675-.765 1.639 0 1.116.351 1.62.765 1.62.216 0 .486-.099.622-.621.045-.135.045-.271.045-.396V8.142zm2.141.738c.009 1.341.531 1.62 1.026 1.62.306 0 .549-.072.72-.162l.117.504c-.243.136-.612.207-.963.207-1.035 0-1.576-.846-1.576-2.188 0-1.413.594-2.296 1.468-2.296.882 0 1.242.937 1.242 1.918 0 .171-.009.288-.018.396h-2.016zm1.369-.513c.009-.873-.315-1.261-.648-1.261-.45 0-.684.667-.711 1.261h1.359zm2.879-3.439h.693v5.482h1.702v.585h-2.395V4.928zm4.122 6.14c-.783 0-1.414-.712-1.414-2.242 0-1.593.711-2.26 1.458-2.26.783 0 1.405.721 1.405 2.242 0 1.692-.774 2.26-1.44 2.26h-.009zm.037-.55c.594 0 .72-1.017.72-1.701 0-.675-.126-1.701-.738-1.701-.621 0-.738 1.026-.738 1.701 0 .721.126 1.701.747 1.701h.009zm4.481-.513c0 .333 0 .711.045.99h-.621l-.045-.459h-.027c-.189.333-.495.531-.864.531-.585 0-1.036-.486-1.036-1.242 0-1.099.874-1.576 1.854-1.585v-.134c0-.585-.144-.99-.693-.99-.27 0-.513.081-.72.225l-.152-.487c.189-.135.585-.288 1.018-.288.873 0 1.242.576 1.242 1.549v1.89zm-.675-1.269c-.36 0-1.197.072-1.197 1.018 0 .576.288.774.531.774.306 0 .558-.226.639-.657a1.2 1.2 0 0 0 .027-.252v-.883zm4.285-3.97v5.186c0 .297.027.792.036 1.044h-.594l-.045-.54h-.036c-.135.306-.45.612-.909.612-.738 0-1.27-.792-1.27-2.233 0-1.548.639-2.269 1.314-2.269.315 0 .622.145.792.514h.018V4.766h.694zm-.693 3.528c0-.09 0-.188-.009-.288-.036-.45-.315-.846-.648-.846-.576 0-.774.801-.774 1.674 0 .919.234 1.657.738 1.657.216 0 .513-.117.666-.747.027-.081.027-.181.027-.288V8.294zM6.368 14.549H5.26v-.621h2.908v.621H7.061v5.446h-.693v-5.446zm2.645.414c-.225 0-.396-.181-.396-.45 0-.271.18-.45.405-.45.252 0 .414.18.414.45s-.162.45-.414.45h-.009zm-.324 5.033v-4.357h.693v4.357h-.693zm1.657-3.233c0-.513-.027-.773-.036-1.125h.612l.036.531h.018c.189-.351.513-.604.972-.604.405 0 .756.189.918.657h.018a1.46 1.46 0 0 1 .423-.495c.18-.107.378-.162.603-.162.594 0 1.053.424 1.053 1.54v2.89h-.693v-2.737c0-.566-.081-1.116-.603-1.116-.288 0-.54.243-.639.657-.027.108-.027.243-.027.388v2.809h-.693v-2.863c0-.477-.081-.99-.594-.99-.288 0-.567.243-.648.712a2.27 2.27 0 0 0-.027.369v2.772h-.693v-3.233zm6.065 1.117c.009 1.341.531 1.62 1.026 1.62.306 0 .549-.072.72-.162l.117.504c-.243.136-.612.207-.963.207-1.035 0-1.576-.846-1.576-2.188 0-1.413.594-2.296 1.468-2.296.882 0 1.242.937 1.242 1.918 0 .171-.009.288-.018.396h-2.016zm1.369-.513c.009-.873-.315-1.261-.648-1.261-.45 0-.684.667-.711 1.261h1.359zm2.879-3.349c.288-.072.63-.117 1.018-.117.549 0 1.017.117 1.341.414.261.252.396.612.396 1.044 0 .621-.342 1.116-.936 1.351v.027c.702.18 1.125.747 1.125 1.548 0 .495-.162.9-.432 1.198-.342.387-.909.549-1.603.549-.45 0-.72-.027-.909-.063v-5.951zm.694 2.493h.315c.567 0 1.053-.44 1.053-1.071 0-.566-.261-.999-.999-.999-.162 0-.288.018-.369.045v2.025zm0 2.945c.081.018.198.027.351.027.711 0 1.179-.424 1.179-1.207 0-.837-.576-1.233-1.224-1.242h-.306v2.422zm5.606-.649c0 .478.027.864.036 1.188h-.603l-.054-.459h-.018c-.126.216-.459.531-.927.531-.756 0-1.062-.595-1.062-1.675v-2.755h.693v2.656c0 .675.108 1.188.585 1.188.405 0 .585-.379.621-.586.027-.117.036-.243.036-.387v-2.872h.693v3.171zm3.097 1.08c-.153.091-.414.162-.72.162-.954 0-1.594-.765-1.594-2.205 0-1.252.63-2.269 1.72-2.269.234 0 .486.062.612.144l-.135.559a1.13 1.13 0 0 0-.495-.117c-.702 0-1.008.828-1.008 1.684 0 1.017.387 1.629 1.026 1.629.18 0 .342-.036.495-.117l.099.53zm1.277-2.223h.018c.081-.171.153-.342.234-.485l.864-1.54h.747l-1.152 1.837 1.261 2.521h-.775l-.945-2.053-.252.405v1.647h-.693v-6.229h.693v3.897zm2.853.216c.009 1.341.531 1.62 1.026 1.62.306 0 .549-.072.72-.162l.117.504c-.243.136-.612.207-.963.207-1.035 0-1.576-.846-1.576-2.188 0-1.413.594-2.296 1.468-2.296.882 0 1.242.937 1.242 1.918 0 .171-.009.288-.018.396h-2.016zm1.368-.513c.009-.873-.315-1.261-.648-1.261-.45 0-.684.667-.711 1.261h1.359zm2.259-2.746v1.018h.837v.522h-.837v2.593c0 .576.198.72.45.72.117 0 .207-.009.279-.026l.036.531a1.522 1.522 0 0 1-.513.071c-.279 0-.522-.071-.684-.261-.18-.198-.261-.495-.261-1.099v-2.529h-.531v-.522h.531V14.9l.693-.279zm4.428-.855c-.513.81-.937 2.025-.937 3.664 0 1.611.423 2.826.937 3.646H41.7c-.468-.684-.981-1.891-.981-3.655.018-1.764.513-2.979.981-3.654h.541zm.593 5.51c.153.099.423.225.702.225.387 0 .639-.243.639-.63 0-.333-.117-.567-.558-.855-.567-.369-.873-.747-.873-1.242 0-.712.522-1.207 1.197-1.207.342 0 .594.108.774.226l-.18.522a.994.994 0 0 0-.585-.198c-.369 0-.558.27-.558.558s.108.459.54.747c.504.324.9.729.9 1.333 0 .873-.594 1.296-1.314 1.296-.315 0-.666-.099-.855-.252l.171-.523zm3.205-1.396c.009 1.341.531 1.62 1.026 1.62.306 0 .549-.072.72-.162l.117.504c-.243.136-.612.207-.963.207-1.035 0-1.576-.846-1.576-2.188 0-1.413.594-2.296 1.468-2.296.882 0 1.242.937 1.242 1.918 0 .171-.009.288-.018.396h-2.016zm1.368-.513c.009-.873-.315-1.261-.648-1.261-.45 0-.684.667-.711 1.261h1.359zm3.537 2.52c-.153.091-.414.162-.72.162-.955 0-1.594-.765-1.594-2.205 0-1.252.63-2.269 1.72-2.269.234 0 .486.062.612.144l-.135.559a1.13 1.13 0 0 0-.495-.117c-.702 0-1.008.828-1.008 1.684 0 1.017.387 1.629 1.026 1.629.18 0 .342-.036.495-.117l.099.53zm.332 1.189c.513-.81.936-2.043.936-3.664 0-1.62-.423-2.836-.936-3.646h.54c.468.666.981 1.863.981 3.646-.018 1.783-.513 2.971-.981 3.664h-.54z"/><path fill="#f2f2f2" fill-rule="evenodd" stroke="#000" d="M.5 25.208h58.139v14H.5z" clip-rule="evenodd" stroke-linecap="round" stroke-linejoin="round"/><path d="M6.818 34.921c-.909 0-1.458-1.081-1.458-2.989 0-1.972.585-3.007 1.54-3.007.945 0 1.44 1.125 1.44 2.989 0 2.134-.675 3.007-1.513 3.007h-.009zm.045-.594c.558 0 .783-.999.783-2.403 0-1.368-.225-2.403-.783-2.403-.567 0-.811.99-.811 2.403-.009 1.413.234 2.403.801 2.403h.01zm5.373-2.098v.531h-1.972v-.531h1.972zM15.61 29.7h-.018l-.972.558-.135-.54 1.233-.72h.567v5.852h-.675V29.7z"/><path fill="#f2f2f2" fill-rule="evenodd" stroke="#000" d="M.5 39.208h58.139v14H.5z" clip-rule="evenodd" stroke-linecap="round" stroke-linejoin="round"/><path d="M6.809 43.7h-.018l-.972.558-.135-.54 1.233-.72h.567v5.852h-.675V43.7zm5.427 2.529v.531h-1.972v-.531h1.972zm2.087 1.873c.18.107.495.243.846.243.603 0 1.008-.441 1.008-1.161 0-.766-.477-1.216-1.179-1.216h-.162v-.522h.135c.414 0 1.053-.314 1.053-1.044 0-.595-.315-.9-.774-.9-.288 0-.54.145-.729.279l-.144-.522c.207-.171.604-.333 1.044-.333.828 0 1.296.585 1.296 1.342 0 .594-.306 1.116-.873 1.377v.019c.522.144 1.026.611 1.026 1.539 0 .945-.612 1.72-1.674 1.72-.378 0-.792-.108-1.026-.271l.153-.55z"/><path fill="#f2f2f2" fill-rule="evenodd" stroke="#000" d="M.5 53.208h58.139v14H.5z" clip-rule="evenodd" stroke-linecap="round" stroke-linejoin="round"/><path d="M5.522 62.102c.18.107.495.243.846.243.603 0 1.008-.441 1.008-1.161 0-.766-.477-1.216-1.179-1.216h-.162v-.522h.135c.414 0 1.053-.314 1.053-1.044 0-.595-.315-.9-.774-.9-.288 0-.54.145-.729.279l-.144-.522c.207-.171.604-.333 1.044-.333.828 0 1.296.585 1.296 1.342 0 .594-.306 1.116-.873 1.377v.019c.522.144 1.026.611 1.026 1.539 0 .945-.612 1.72-1.674 1.72-.378 0-.792-.108-1.026-.271l.153-.55zm6.714-1.873v.531h-1.972v-.531h1.972zm4.833-3.231v.414l-1.891 5.438h-.675l1.855-5.222v-.018h-2.107v-.612h2.818z"/><path fill="#f2f2f2" fill-rule="evenodd" stroke="#000" d="M.5 67.207h58.139v14H.5z" clip-rule="evenodd" stroke-linecap="round" stroke-linejoin="round"/><path d="M8.267 70.998v.414L6.376 76.85h-.675l1.855-5.222v-.018H5.449v-.612h2.818zm3.969 3.231v.531h-1.972v-.531h1.972zM15.61 71.7h-.018l-.972.558-.135-.54 1.233-.72h.567v5.852h-.675V71.7zm2.178 4.402c.18.107.495.243.846.243.603 0 1.008-.441 1.008-1.161 0-.766-.477-1.216-1.179-1.216h-.162v-.522h.135c.414 0 1.053-.314 1.053-1.044 0-.595-.315-.9-.774-.9-.288 0-.54.145-.729.279l-.144-.522c.207-.171.604-.333 1.044-.333.828 0 1.296.585 1.296 1.342 0 .594-.306 1.116-.873 1.377v.019c.522.144 1.026.611 1.026 1.539 0 .945-.612 1.72-1.674 1.72-.378 0-.792-.108-1.026-.271l.153-.55z"/><path fill="#f2f2f2" fill-rule="evenodd" stroke="#000" d="M.5 81.207h58.139v14H.5z" clip-rule="evenodd" stroke-linecap="round" stroke-linejoin="round"/><path d="M6.809 85.7h-.018l-.972.558-.135-.54 1.233-.72h.567v5.852h-.675V85.7zm2.177 4.402c.18.107.495.243.846.243.603 0 1.008-.441 1.008-1.161 0-.766-.477-1.216-1.179-1.216H9.5v-.522h.135c.414 0 1.053-.314 1.053-1.044 0-.595-.315-.9-.774-.9-.288 0-.54.145-.729.279l-.145-.523c.207-.171.604-.333 1.044-.333.828 0 1.296.585 1.296 1.342 0 .594-.306 1.116-.873 1.377v.019c.522.144 1.026.611 1.026 1.539 0 .945-.612 1.72-1.674 1.72-.378 0-.792-.108-1.026-.271l.153-.549zm6.715-1.873v.531h-1.972v-.531h1.972zm1.97 2.62v-.45l.486-.666c.702-.973 1.521-2.07 1.521-3.169 0-.648-.279-1.044-.829-1.044-.423 0-.702.225-.846.323l-.171-.521a1.831 1.831 0 0 1 1.143-.396c.973 0 1.396.721 1.396 1.603 0 1.099-.72 2.17-1.449 3.151l-.387.54v.018h1.945v.612h-2.809zm4.87-5.149h-.018l-.972.558-.135-.54 1.233-.72h.567v5.852h-.675V85.7z"/><path fill="#f2f2f2" fill-rule="evenodd" stroke="#000" d="M.5 95.207h58.139v14H.5z" clip-rule="evenodd" stroke-linecap="round" stroke-linejoin="round"/><path d="M5.404 104.849v-.45l.486-.666c.702-.973 1.521-2.07 1.521-3.169 0-.648-.279-1.044-.829-1.044-.423 0-.702.225-.846.323l-.171-.521a1.831 1.831 0 0 1 1.143-.396c.973 0 1.396.721 1.396 1.603 0 1.099-.72 2.17-1.449 3.151l-.387.54v.018h1.945v.612H5.404zm4.869-5.149h-.018l-.972.558-.135-.54 1.233-.72h.567v5.852h-.675V99.7zm5.428 2.529v.531h-1.972v-.531h1.972zm2.087 1.873c.18.107.495.243.846.243.603 0 1.008-.441 1.008-1.161 0-.766-.477-1.216-1.179-1.216h-.162v-.522h.135c.414 0 1.053-.314 1.053-1.044 0-.595-.315-.9-.774-.9-.288 0-.54.145-.729.279l-.144-.522c.207-.171.604-.333 1.044-.333.828 0 1.296.585 1.296 1.342 0 .594-.306 1.116-.873 1.377v.019c.522.144 1.026.611 1.026 1.539 0 .945-.612 1.72-1.674 1.72-.378 0-.792-.108-1.026-.271l.153-.55zm6.058-4.492H22.27l-.243 1.558c.072-.019.135-.019.216-.019.315 0 .81.145 1.116.441.315.306.495.738.495 1.332 0 1.171-.738 1.999-1.773 1.999-.36 0-.765-.1-1-.252l.153-.55c.18.1.495.226.819.226.594 0 1.107-.45 1.107-1.351 0-.928-.567-1.314-1.323-1.314-.216 0-.351.009-.459.027l.369-2.71h2.098v.613z"/><path fill="#f2f2f2" fill-rule="evenodd" stroke="#000" d="M.5 109.207h58.139v14H.5z" clip-rule="evenodd" stroke-linecap="round" stroke-linejoin="round"/><path d="M5.522 118.102c.18.107.495.243.846.243.603 0 1.008-.441 1.008-1.161 0-.766-.477-1.216-1.179-1.216h-.162v-.522h.135c.414 0 1.053-.314 1.053-1.044 0-.595-.315-.9-.774-.9-.288 0-.54.145-.729.279l-.144-.522c.207-.171.604-.333 1.044-.333.828 0 1.296.585 1.296 1.342 0 .594-.306 1.116-.873 1.377v.019c.522.144 1.026.611 1.026 1.539 0 .945-.612 1.72-1.674 1.72-.378 0-.792-.108-1.026-.271l.153-.55zm6.057-4.492h-1.576l-.243 1.558c.072-.019.135-.019.216-.019.315 0 .81.145 1.116.441.315.306.495.738.495 1.332 0 1.171-.738 1.999-1.773 1.999-.36 0-.765-.1-1-.252l.153-.55c.18.1.495.226.819.226.594 0 1.107-.45 1.107-1.351 0-.928-.567-1.314-1.323-1.314-.216 0-.351.009-.459.027l.369-2.71h2.098v.613zm4.122 2.619v.531h-1.972v-.531h1.972zm4.554-2.719a1.96 1.96 0 0 0-.415.055c-.972.242-1.359 1.215-1.503 2.115h.027c.225-.333.549-.559.99-.559.738 0 1.26.685 1.26 1.801 0 1.107-.504 1.999-1.44 1.999-1.026 0-1.54-1.035-1.54-2.386 0-1.135.297-2.008.756-2.638a2.389 2.389 0 0 1 1.422-.919c.18-.035.333-.045.441-.054v.586zm-1.072 4.871c.387 0 .738-.388.738-1.404 0-.883-.315-1.324-.783-1.324-.297 0-.594.189-.765.631-.018.054-.045.18-.045.351.009 1.197.369 1.747.846 1.747h.009zm3.367.54c-.91 0-1.458-1.081-1.458-2.989 0-1.972.585-3.007 1.54-3.007.945 0 1.44 1.125 1.44 2.989 0 2.134-.675 3.007-1.513 3.007h-.009zm.045-.594c.558 0 .783-.999.783-2.403 0-1.368-.225-2.403-.783-2.403-.567 0-.81.99-.81 2.403-.009 1.413.234 2.403.801 2.403h.009z"/><path fill="#ccc" fill-rule="evenodd" stroke="#000" d="M58.639.5h58.139v24.708H58.639z" clip-rule="evenodd" stroke-linecap="round" stroke-linejoin="round"/><path d="M63.795 5.018a3.982 3.982 0 0 1 1.008-.117c.558 0 1.036.135 1.351.441.288.288.441.729.441 1.26 0 .559-.135.937-.369 1.242-.324.45-.891.676-1.431.676-.117 0-.207 0-.306-.009v2.484h-.693V5.018zm.693 2.917c.081.009.162.018.279.018.675 0 1.135-.45 1.135-1.306 0-.621-.252-1.179-1.026-1.179-.162 0-.297.018-.387.045v2.422zm4.914 2.07c0 .333 0 .711.045.99h-.621l-.045-.459h-.027c-.189.333-.495.531-.864.531-.585 0-1.036-.486-1.036-1.242 0-1.099.874-1.576 1.855-1.585v-.134c0-.585-.145-.99-.693-.99-.27 0-.513.081-.72.225l-.153-.486c.189-.135.585-.288 1.018-.288.873 0 1.242.576 1.242 1.549v1.889zm-.675-1.269c-.36 0-1.197.072-1.197 1.018 0 .576.288.774.531.774.306 0 .558-.226.639-.657a1.2 1.2 0 0 0 .027-.252v-.883zm4.285 1.701c0 1.144-.144 1.576-.432 1.9-.27.288-.675.459-1.161.459-.369 0-.729-.09-.954-.216l.162-.541c.171.091.459.189.801.189.549 0 .892-.342.892-1.332v-.441h-.018a.873.873 0 0 1-.828.531c-.774 0-1.279-.873-1.279-2.152 0-1.611.72-2.269 1.369-2.269.459 0 .675.307.81.559h.018l.036-.486h.621c-.009.297-.036.685-.036 1.359v2.44zm-.693-2.295c0-.117-.009-.226-.036-.324-.072-.288-.234-.657-.63-.657-.495 0-.765.675-.765 1.639 0 1.116.351 1.62.765 1.62.216 0 .486-.099.622-.621.045-.135.045-.271.045-.396V8.142zm2.141.738c.009 1.341.531 1.62 1.026 1.62.306 0 .549-.072.72-.162l.117.504c-.243.136-.612.207-.963.207-1.035 0-1.576-.846-1.576-2.188 0-1.413.594-2.296 1.468-2.296.882 0 1.242.937 1.242 1.918 0 .171-.009.288-.018.396H74.46zm1.369-.513c.009-.873-.315-1.261-.648-1.261-.45 0-.684.667-.711 1.261h1.359zm2.879-3.439h.693v5.482h1.702v.585h-2.395V4.928zm4.122 6.14c-.783 0-1.414-.712-1.414-2.242 0-1.593.711-2.26 1.458-2.26.783 0 1.405.721 1.405 2.242 0 1.692-.774 2.26-1.44 2.26h-.009zm.036-.55c.594 0 .72-1.017.72-1.701 0-.675-.126-1.701-.738-1.701-.621 0-.738 1.026-.738 1.701 0 .721.126 1.701.747 1.701h.009zm4.482-.513c0 .333 0 .711.045.99h-.621l-.045-.459H86.7c-.189.333-.495.531-.864.531-.585 0-1.036-.486-1.036-1.242 0-1.099.874-1.576 1.854-1.585v-.134c0-.585-.144-.99-.693-.99-.27 0-.513.081-.72.225l-.153-.486c.189-.135.585-.288 1.018-.288.873 0 1.242.576 1.242 1.549v1.889zm-.675-1.269c-.36 0-1.197.072-1.197 1.018 0 .576.288.774.531.774.306 0 .558-.226.639-.657a1.2 1.2 0 0 0 .027-.252v-.883zm4.285-3.97v5.186c0 .297.027.792.036 1.044H90.4l-.045-.54h-.036c-.135.306-.45.612-.909.612-.738 0-1.27-.792-1.27-2.233 0-1.548.639-2.269 1.314-2.269.315 0 .622.145.792.514h.018V4.766h.694zm-.693 3.528c0-.09 0-.188-.009-.288-.036-.45-.315-.846-.648-.846-.576 0-.774.801-.774 1.674 0 .919.234 1.657.738 1.657.216 0 .513-.117.666-.747.027-.081.027-.181.027-.288V8.294zM63.66 19.195c.207.126.567.242.873.242.63 0 1.008-.414 1.008-1.026 0-.558-.324-.899-.801-1.26-.477-.333-1.143-.9-1.143-1.684 0-.918.648-1.594 1.603-1.594.378 0 .711.126.855.226l-.171.594a1.276 1.276 0 0 0-.72-.207c-.594 0-.874.45-.874.864 0 .604.315.847.892 1.252.729.513 1.053 1.071 1.053 1.746 0 1.044-.738 1.701-1.702 1.701-.414 0-.855-.135-1.026-.27l.153-.584zm5.697-.19c0 .333 0 .711.045.99h-.621l-.045-.459h-.027c-.189.333-.495.531-.864.531-.585 0-1.036-.486-1.036-1.242 0-1.099.874-1.576 1.855-1.585v-.135c0-.585-.145-.99-.693-.99-.27 0-.513.081-.72.225l-.153-.486c.189-.135.585-.288 1.018-.288.873 0 1.242.576 1.242 1.549v1.89zm-.675-1.269c-.36 0-1.197.072-1.197 1.018 0 .576.288.774.531.774.306 0 .558-.226.639-.657a1.2 1.2 0 0 0 .027-.252v-.883zm1.656-.973c0-.513-.027-.773-.036-1.125h.612l.036.531h.018c.189-.351.513-.604.972-.604.405 0 .756.189.918.657h.018a1.46 1.46 0 0 1 .423-.495c.18-.107.378-.162.603-.162.594 0 1.053.424 1.053 1.54v2.89h-.693v-2.737c0-.566-.081-1.116-.603-1.116-.288 0-.54.243-.639.657-.027.108-.027.243-.027.388v2.809H72.3v-2.863c0-.477-.081-.99-.594-.99-.288 0-.567.243-.648.712a2.27 2.27 0 0 0-.027.369v2.772h-.693v-3.233zm5.571.235c0-.666-.027-1.053-.036-1.359h.622l.036.549h.018c.234-.459.585-.621.918-.621.765 0 1.26.802 1.26 2.242 0 1.62-.666 2.26-1.341 2.26-.414 0-.648-.252-.765-.495h-.018v2.151h-.693v-4.727zm.693 1.404c0 .126.009.252.036.36.135.621.441.729.63.729.576 0 .765-.792.765-1.666 0-.909-.216-1.665-.765-1.665-.315 0-.603.396-.639.792-.027.108-.027.216-.027.333v1.117zm2.907-4.636h.693v6.229h-.693v-6.229zm2.205 4.114c.009 1.341.531 1.62 1.026 1.62.306 0 .549-.072.72-.162l.117.504c-.243.136-.612.207-.963.207-1.035 0-1.576-.846-1.576-2.188 0-1.413.594-2.296 1.468-2.296.882 0 1.242.937 1.242 1.918 0 .171-.009.288-.018.396h-2.016zm1.369-.513c.009-.873-.315-1.261-.648-1.261-.45 0-.684.667-.711 1.261h1.359z"/><path fill="#ccc" fill-rule="evenodd" stroke="#000" d="M58.639 25.208h58.139v14H58.639z" clip-rule="evenodd" stroke-linecap="round" stroke-linejoin="round"/><path d="M63.543 34.849v-.45l.486-.666c.702-.973 1.521-2.07 1.521-3.169 0-.648-.279-1.044-.829-1.044-.423 0-.702.225-.846.323l-.171-.521a1.831 1.831 0 0 1 1.143-.396c.973 0 1.396.721 1.396 1.603 0 1.099-.72 2.17-1.449 3.151l-.387.54v.018h1.945v.612h-2.809zm3.465 0v-.45l.486-.666c.702-.973 1.521-2.07 1.521-3.169 0-.648-.279-1.044-.829-1.044-.423 0-.702.225-.846.323l-.171-.521a1.831 1.831 0 0 1 1.143-.396c.973 0 1.396.721 1.396 1.603 0 1.099-.72 2.17-1.449 3.151l-.387.54v.018h1.945v.612h-2.809z"/><path fill="#ccc" fill-rule="evenodd" stroke="#000" d="M58.639 39.208h58.139v14H58.639z" clip-rule="evenodd" stroke-linecap="round" stroke-linejoin="round"/><path d="M64.947 43.7h-.018l-.972.558-.135-.54 1.233-.72h.567v5.852h-.675V43.7zm3.465 0h-.018l-.972.558-.135-.54 1.233-.72h.567v5.852h-.675V43.7zm4.645-.19a1.96 1.96 0 0 0-.415.055c-.972.242-1.359 1.215-1.503 2.115h.027c.225-.333.549-.559.99-.559.738 0 1.26.685 1.26 1.801 0 1.107-.504 1.999-1.44 1.999-1.026 0-1.54-1.035-1.54-2.386 0-1.135.297-2.008.756-2.638a2.389 2.389 0 0 1 1.422-.919c.18-.035.333-.045.441-.054v.586zm-1.072 4.871c.387 0 .738-.388.738-1.404 0-.883-.315-1.324-.783-1.324-.297 0-.594.189-.765.631-.018.054-.045.18-.045.351.009 1.197.369 1.747.846 1.747h.009z"/><path fill="#ccc" fill-rule="evenodd" stroke="#000" d="M58.639 53.208h58.139v14H58.639z" clip-rule="evenodd" stroke-linecap="round" stroke-linejoin="round"/><path d="M64.947 57.7h-.018l-.972.558-.135-.54 1.233-.72h.567v5.852h-.675V57.7zm3.879 5.149v-1.62h-1.944v-.469l1.899-3.763h.675v3.664h.63v.567h-.63v1.62h-.63zm0-2.187v-1.647c0-.405.027-.766.054-1.152h-.036c-.198.468-.324.738-.495 1.098l-.81 1.684v.019h1.287zm3.159-3.737c.837 0 1.261.702 1.261 1.378 0 .513-.243 1.008-.783 1.386v.019c.54.369.936.891.936 1.603 0 .909-.603 1.611-1.503 1.611-.972 0-1.458-.774-1.458-1.495 0-.828.486-1.35.963-1.683l-.009-.019c-.486-.333-.766-.846-.766-1.342 0-.899.64-1.458 1.351-1.458h.008zm-.063 5.483c.432 0 .792-.324.792-1.062 0-.675-.387-1.053-.837-1.35a1.564 1.564 0 0 0-.756 1.314c0 .657.297 1.098.792 1.098h.009zm.018-4.969c-.387 0-.648.368-.648.899 0 .595.36.892.72 1.126a1.33 1.33 0 0 0 .576-1.081c0-.566-.225-.944-.639-.944h-.009z"/><path fill="#ccc" fill-rule="evenodd" stroke="#000" d="M58.639 67.207h58.139v14H58.639z" clip-rule="evenodd" stroke-linecap="round" stroke-linejoin="round"/><path d="M66.127 71.51a1.96 1.96 0 0 0-.415.055c-.972.242-1.359 1.215-1.503 2.115h.027c.225-.333.549-.559.99-.559.738 0 1.26.685 1.26 1.801 0 1.107-.504 1.999-1.44 1.999-1.026 0-1.54-1.035-1.54-2.386 0-1.135.297-2.008.756-2.638a2.389 2.389 0 0 1 1.422-.919c.18-.035.333-.045.441-.054v.586zm-1.072 4.871c.387 0 .738-.388.738-1.404 0-.883-.315-1.324-.783-1.324-.297 0-.594.189-.765.631-.018.054-.045.18-.045.351.009 1.197.369 1.747.846 1.747h.009zm4.537-4.871a1.96 1.96 0 0 0-.415.055c-.972.242-1.359 1.215-1.503 2.115h.027c.225-.333.549-.559.99-.559.738 0 1.26.685 1.26 1.801 0 1.107-.504 1.999-1.44 1.999-1.026 0-1.54-1.035-1.54-2.386 0-1.135.297-2.008.756-2.638a2.389 2.389 0 0 1 1.422-.919c.18-.035.333-.045.441-.054v.586zm-1.072 4.871c.387 0 .738-.388.738-1.404 0-.883-.315-1.324-.783-1.324-.297 0-.594.189-.765.631-.018.054-.045.18-.045.351.009 1.197.369 1.747.846 1.747h.009z"/><path fill="#ccc" fill-rule="evenodd" stroke="#000" d="M58.639 81.207h58.139v14H58.639z" clip-rule="evenodd" stroke-linecap="round" stroke-linejoin="round"/><path d="M63.543 90.849v-.45l.486-.666c.702-.973 1.521-2.07 1.521-3.169 0-.648-.279-1.044-.829-1.044-.423 0-.702.225-.846.323l-.171-.521a1.831 1.831 0 0 1 1.143-.396c.973 0 1.396.721 1.396 1.603 0 1.099-.72 2.17-1.449 3.151l-.387.54v.018h1.945v.612h-2.809zm3.465 0v-.45l.486-.666c.702-.973 1.521-2.07 1.521-3.169 0-.648-.279-1.044-.829-1.044-.423 0-.702.225-.846.323l-.171-.521a1.831 1.831 0 0 1 1.143-.396c.973 0 1.396.721 1.396 1.603 0 1.099-.72 2.17-1.449 3.151l-.387.54v.018h1.945v.612h-2.809z"/><path fill="#ccc" fill-rule="evenodd" stroke="#000" d="M58.639 95.207h58.139v14H58.639z" clip-rule="evenodd" stroke-linecap="round" stroke-linejoin="round"/><path d="M64.947 99.7h-.018l-.972.558-.135-.54 1.233-.72h.567v5.852h-.675V99.7zm3.879 5.149v-1.62h-1.944v-.469l1.899-3.763h.675v3.664h.63v.567h-.63v1.62h-.63zm0-2.187v-1.647c0-.405.027-.766.054-1.152h-.036c-.198.468-.324.738-.495 1.098l-.81 1.684v.019h1.287z"/><path fill="#ccc" fill-rule="evenodd" stroke="#000" d="M58.639 109.207h58.139v14H58.639z" clip-rule="evenodd" stroke-linecap="round" stroke-linejoin="round"/><path d="M64.947 113.7h-.018l-.972.558-.135-.54 1.233-.72h.567v5.852h-.675v-5.15zm3.474 5.221c-.909 0-1.458-1.081-1.458-2.989 0-1.972.585-3.007 1.54-3.007.945 0 1.44 1.125 1.44 2.989 0 2.134-.675 3.007-1.513 3.007h-.009zm.045-.594c.558 0 .783-.999.783-2.403 0-1.368-.225-2.403-.783-2.403-.567 0-.811.99-.811 2.403-.009 1.413.234 2.403.801 2.403h.01z"/><path fill="#f2f2f2" fill-rule="evenodd" stroke="#000" d="M116.777.5h111.862v24.708H116.777z" clip-rule="evenodd" stroke-linecap="round" stroke-linejoin="round"/><path d="M121.934 5.018a3.982 3.982 0 0 1 1.008-.117c.558 0 1.036.135 1.351.441.288.288.441.729.441 1.26 0 .559-.135.937-.369 1.242-.324.45-.891.676-1.431.676-.117 0-.207 0-.306-.009v2.484h-.693V5.018zm.693 2.917c.081.009.162.018.279.018.675 0 1.135-.45 1.135-1.306 0-.621-.252-1.179-1.026-1.179-.162 0-.297.018-.387.045v2.422zm3.104.945c.009 1.341.531 1.62 1.026 1.62.306 0 .549-.072.72-.162l.117.504c-.243.136-.612.207-.963.207-1.035 0-1.576-.846-1.576-2.188 0-1.413.594-2.296 1.468-2.296.882 0 1.242.937 1.242 1.918 0 .171-.009.288-.018.396h-2.016zm1.369-.513c.009-.873-.315-1.261-.648-1.261-.45 0-.684.667-.711 1.261h1.359zm1.403-.604c0-.368-.027-.801-.036-1.125h.622l.036.685h.018c.144-.414.513-.757.918-.757.054 0 .099 0 .144.01v.711c-.045-.009-.09-.009-.144-.009-.441 0-.765.404-.837.909a2.566 2.566 0 0 0-.027.396v2.413h-.693V7.763zm4.24 3.124c-.153.091-.414.162-.72.162-.954 0-1.594-.765-1.594-2.205 0-1.252.63-2.269 1.72-2.269.234 0 .486.062.612.144l-.135.559a1.13 1.13 0 0 0-.495-.117c-.702 0-1.008.828-1.008 1.684 0 1.017.387 1.629 1.026 1.629.18 0 .342-.036.495-.117l.099.53zm1.026-2.007c.009 1.341.531 1.62 1.026 1.62.306 0 .549-.072.72-.162l.117.504c-.243.136-.612.207-.963.207-1.035 0-1.576-.846-1.576-2.188 0-1.413.594-2.296 1.468-2.296.882 0 1.242.937 1.242 1.918 0 .171-.009.288-.018.396h-2.016zm1.368-.513c.009-.873-.315-1.261-.648-1.261-.45 0-.684.667-.711 1.261h1.359zm1.412-.604c0-.513-.027-.773-.036-1.125h.603l.036.522h.018c.189-.352.54-.595.999-.595.604 0 1.054.441 1.054 1.504v2.926h-.693V8.187c0-.522-.099-1.035-.603-1.035-.288 0-.567.243-.648.711a1.57 1.57 0 0 0-.036.387v2.746h-.693V7.763zm4.438-2.142v1.018h.837v.522h-.837v2.593c0 .576.198.72.45.72.117 0 .207-.009.279-.026l.036.531a1.522 1.522 0 0 1-.513.071c-.279 0-.522-.071-.684-.261-.18-.198-.261-.495-.261-1.099V7.161h-.531v-.523h.531V5.9l.693-.279zm3.744 4.384c0 .333 0 .711.045.99h-.621l-.045-.459h-.027c-.189.333-.495.531-.864.531-.585 0-1.036-.486-1.036-1.242 0-1.099.874-1.576 1.854-1.585v-.134c0-.585-.144-.99-.693-.99-.27 0-.513.081-.72.225l-.153-.486c.189-.135.585-.288 1.018-.288.873 0 1.242.576 1.242 1.549v1.889zm-.675-1.269c-.36 0-1.197.072-1.197 1.018 0 .576.288.774.531.774.306 0 .558-.226.639-.657a1.2 1.2 0 0 0 .027-.252v-.883zm4.284 1.701c0 1.144-.144 1.576-.432 1.9-.27.288-.675.459-1.161.459-.369 0-.729-.09-.954-.216l.162-.541c.171.091.459.189.801.189.549 0 .892-.342.892-1.332v-.441h-.018a.873.873 0 0 1-.828.531c-.774 0-1.279-.873-1.279-2.152 0-1.611.72-2.269 1.369-2.269.459 0 .675.307.81.559h.018l.036-.486h.621c-.009.297-.036.685-.036 1.359v2.44zm-.693-2.295c0-.117-.009-.226-.036-.324-.072-.288-.234-.657-.63-.657-.495 0-.765.675-.765 1.639 0 1.116.351 1.62.765 1.62.216 0 .486-.099.622-.621.045-.135.045-.271.045-.396V8.142zm2.141.738c.009 1.341.531 1.62 1.026 1.62.306 0 .549-.072.72-.162l.117.504c-.243.136-.612.207-.963.207-1.035 0-1.576-.846-1.576-2.188 0-1.413.594-2.296 1.468-2.296.882 0 1.242.937 1.242 1.918 0 .171-.009.288-.018.396h-2.016zm1.369-.513c.009-.873-.315-1.261-.648-1.261-.45 0-.684.667-.711 1.261h1.359zm4.05 2.701c-.783 0-1.414-.712-1.414-2.242 0-1.593.711-2.26 1.458-2.26.783 0 1.405.721 1.405 2.242 0 1.692-.774 2.26-1.44 2.26h-.009zm.036-.55c.594 0 .72-1.017.72-1.701 0-.675-.126-1.701-.738-1.701-.621 0-.738 1.026-.738 1.701 0 .721.126 1.701.747 1.701h.009zm2.33.478V7.161h-.549v-.523h.549v-.27c0-.469.072-.955.387-1.306a1.18 1.18 0 0 1 .874-.369c.234 0 .414.045.54.107l-.108.541a.982.982 0 0 0-.387-.072c-.495 0-.612.531-.612 1.089v.279h.792v.522h-.792v3.835h-.694zm4.167-5.375v1.018h.837v.522h-.837v2.593c0 .576.198.72.45.72.117 0 .207-.009.279-.026l.036.531a1.522 1.522 0 0 1-.513.071c-.279 0-.522-.071-.684-.261-.18-.198-.261-.495-.261-1.099V7.161h-.531v-.523h.531V5.9l.693-.279zm2.601 5.447c-.783 0-1.414-.712-1.414-2.242 0-1.593.711-2.26 1.458-2.26.783 0 1.405.721 1.405 2.242 0 1.692-.774 2.26-1.44 2.26h-.009zm.036-.55c.594 0 .72-1.017.72-1.701 0-.675-.126-1.701-.738-1.701-.621 0-.738 1.026-.738 1.701 0 .721.126 1.701.747 1.701h.009zm3.034-4.897v1.018h.837v.522h-.837v2.593c0 .576.197.72.45.72.116 0 .207-.009.278-.026l.036.531a1.522 1.522 0 0 1-.513.071c-.279 0-.522-.071-.685-.261-.18-.198-.261-.495-.261-1.099V7.161h-.531v-.523h.531V5.9l.695-.279zm3.744 4.384c0 .333 0 .711.045.99h-.621l-.045-.459h-.027c-.189.333-.495.531-.864.531-.585 0-1.035-.486-1.035-1.242 0-1.099.873-1.576 1.854-1.585v-.134c0-.585-.145-.99-.693-.99-.27 0-.513.081-.72.225l-.153-.486c.189-.135.585-.288 1.018-.288.873 0 1.242.576 1.242 1.549v1.889zm-.676-1.269c-.359 0-1.197.072-1.197 1.018 0 .576.288.774.531.774.307 0 .559-.226.64-.657.018-.081.026-.171.026-.252v-.883zm1.656-3.97h.692v6.229h-.692V4.766z"/><path fill="#f2f2f2" fill-rule="evenodd" stroke="#000" d="M116.777 25.208h111.862v14H116.777z" clip-rule="evenodd" stroke-linecap="round" stroke-linejoin="round"/><path d="M124.392 29.61h-1.576l-.243 1.558c.072-.019.135-.019.216-.019.315 0 .81.145 1.116.441.315.306.495.738.495 1.332 0 1.171-.738 1.999-1.773 1.999-.36 0-.765-.1-1-.252l.153-.55c.18.1.495.226.819.226.594 0 1.107-.45 1.107-1.351 0-.928-.567-1.314-1.323-1.314-.216 0-.351.009-.459.027l.369-2.71h2.098v.613zm1.358 5.311c-.252 0-.45-.207-.45-.522 0-.306.207-.522.459-.522.27 0 .459.207.459.522s-.171.522-.459.522h-.009zm1.26-.819c.18.107.495.243.846.243.603 0 1.008-.441 1.008-1.161 0-.766-.477-1.216-1.179-1.216h-.162v-.522h.135c.414 0 1.053-.314 1.053-1.044 0-.595-.315-.9-.774-.9-.288 0-.54.145-.729.279l-.144-.522c.207-.171.604-.333 1.044-.333.828 0 1.296.585 1.296 1.342 0 .594-.306 1.116-.873 1.377v.019c.522.144 1.026.611 1.026 1.539 0 .945-.612 1.72-1.674 1.72-.378 0-.792-.108-1.026-.271l.153-.55zm6.057-4.492h-1.576l-.243 1.558c.072-.019.135-.019.216-.019.315 0 .81.145 1.116.441.315.306.495.738.495 1.332 0 1.171-.738 1.999-1.773 1.999-.36 0-.765-.1-1-.252l.153-.55c.18.1.495.226.819.226.594 0 1.107-.45 1.107-1.351 0-.928-.567-1.314-1.323-1.314-.216 0-.351.009-.459.027l.369-2.71h2.098v.613zm1.853-.685c.657 0 1.089.702 1.089 1.765 0 1.233-.54 1.782-1.098 1.782-.648 0-1.107-.675-1.107-1.765 0-1.125.486-1.782 1.107-1.782h.009zm-.026.433c-.441 0-.558.747-.558 1.341 0 .612.117 1.342.576 1.342s.567-.738.567-1.342c0-.576-.099-1.341-.576-1.341h-.009zm-.244 5.617l3.115-6.095h.441l-3.115 6.095h-.441zm3.331-3.61c.657 0 1.089.702 1.089 1.773 0 1.225-.54 1.774-1.098 1.774-.648 0-1.107-.676-1.107-1.765 0-1.116.486-1.783 1.107-1.783h.009zm-.026.432c-.441 0-.558.747-.558 1.341 0 .612.135 1.342.576 1.342.459 0 .567-.738.567-1.332 0-.586-.099-1.351-.576-1.351h-.009z"/><path fill="#f2f2f2" fill-rule="evenodd" stroke="#000" d="M116.777 39.208h111.862v14H116.777z" clip-rule="evenodd" stroke-linecap="round" stroke-linejoin="round"/><path d="M121.682 48.849v-.45l.486-.666c.702-.973 1.521-2.07 1.521-3.169 0-.648-.279-1.044-.829-1.044-.423 0-.702.225-.846.323l-.171-.521a1.831 1.831 0 0 1 1.143-.396c.973 0 1.396.721 1.396 1.603 0 1.099-.72 2.17-1.449 3.151l-.387.54v.018h1.945v.612h-2.809zm4.977-5.924c.837 0 1.261.702 1.261 1.378 0 .513-.243 1.008-.783 1.386v.019c.54.369.936.891.936 1.603 0 .909-.603 1.611-1.503 1.611-.972 0-1.458-.774-1.458-1.495 0-.828.486-1.35.963-1.683l-.009-.019c-.486-.333-.766-.846-.766-1.342 0-.899.64-1.458 1.351-1.458h.008zm-.063 5.483c.432 0 .792-.324.792-1.062 0-.675-.387-1.053-.837-1.35a1.564 1.564 0 0 0-.756 1.314c0 .657.297 1.098.792 1.098h.009zm.018-4.969c-.387 0-.648.368-.648.899 0 .595.36.892.72 1.126a1.33 1.33 0 0 0 .576-1.081c0-.566-.225-.944-.639-.944h-.009zm2.6 5.482c-.252 0-.45-.207-.45-.522 0-.306.207-.522.459-.522.27 0 .459.207.459.522s-.171.522-.459.522h-.009zm1.143-.072v-.45l.486-.666c.702-.973 1.521-2.07 1.521-3.169 0-.648-.279-1.044-.829-1.044-.423 0-.702.225-.846.323l-.171-.521a1.831 1.831 0 0 1 1.143-.396c.973 0 1.396.721 1.396 1.603 0 1.099-.72 2.17-1.449 3.151l-.387.54v.018h1.945v.612h-2.809zm3.465 0v-.45l.486-.666c.702-.973 1.521-2.07 1.521-3.169 0-.648-.279-1.044-.829-1.044-.423 0-.702.225-.846.323l-.171-.521a1.831 1.831 0 0 1 1.143-.396c.973 0 1.396.721 1.396 1.603 0 1.099-.72 2.17-1.449 3.151l-.387.54v.018h1.945v.612h-2.809zm4.563-5.924c.657 0 1.089.702 1.089 1.765 0 1.233-.54 1.782-1.098 1.782-.648 0-1.107-.675-1.107-1.765 0-1.125.486-1.782 1.107-1.782h.009zm-.027.433c-.441 0-.558.747-.558 1.341 0 .612.117 1.342.576 1.342s.567-.738.567-1.342c0-.576-.099-1.341-.576-1.341h-.009zm-.243 5.617l3.115-6.095h.441l-3.115 6.095h-.441zm3.331-3.61c.657 0 1.089.702 1.089 1.773 0 1.225-.54 1.774-1.098 1.774-.648 0-1.107-.676-1.107-1.765 0-1.116.486-1.783 1.107-1.783h.009zm-.027.432c-.441 0-.558.747-.558 1.341 0 .612.135 1.342.576 1.342.459 0 .567-.738.567-1.332 0-.586-.099-1.351-.576-1.351h-.009z"/><path fill="#f2f2f2" fill-rule="evenodd" stroke="#000" d="M116.777 53.208h111.862v14H116.777z" clip-rule="evenodd" stroke-linecap="round" stroke-linejoin="round"/><path d="M121.799 62.102c.18.107.495.243.846.243.603 0 1.008-.441 1.008-1.161 0-.766-.477-1.216-1.179-1.216h-.162v-.522h.135c.414 0 1.053-.314 1.053-1.044 0-.595-.315-.9-.774-.9-.288 0-.54.145-.729.279l-.144-.522c.207-.171.604-.333 1.044-.333.828 0 1.296.585 1.296 1.342 0 .594-.306 1.116-.873 1.377v.019c.522.144 1.026.611 1.026 1.539 0 .945-.612 1.72-1.674 1.72-.378 0-.792-.108-1.026-.271l.153-.55zm5.931-4.592a1.96 1.96 0 0 0-.415.055c-.972.242-1.359 1.215-1.503 2.115h.027c.225-.333.549-.559.99-.559.738 0 1.26.685 1.26 1.801 0 1.107-.504 1.999-1.44 1.999-1.026 0-1.54-1.035-1.54-2.386 0-1.135.297-2.008.756-2.638a2.389 2.389 0 0 1 1.422-.919c.18-.035.333-.045.441-.054v.586zm-1.071 4.871c.387 0 .738-.388.738-1.404 0-.883-.315-1.324-.783-1.324-.297 0-.594.189-.765.631-.018.054-.045.18-.045.351.009 1.197.369 1.747.846 1.747h.009zm2.555.54c-.252 0-.45-.207-.45-.522 0-.306.207-.522.459-.522.27 0 .459.207.459.522s-.171.522-.459.522h-.009zm2.557 0c-.909 0-1.458-1.081-1.458-2.989 0-1.972.585-3.007 1.54-3.007.945 0 1.44 1.125 1.44 2.989 0 2.134-.675 3.007-1.513 3.007h-.009zm.045-.594c.558 0 .783-.999.783-2.403 0-1.368-.225-2.403-.783-2.403-.567 0-.811.99-.811 2.403-.009 1.413.234 2.403.801 2.403h.01zm3.411-4.627h-.018l-.972.558-.135-.54 1.233-.72h.567v5.852h-.675V57.7zm3.158-.775c.657 0 1.089.702 1.089 1.765 0 1.233-.54 1.782-1.098 1.782-.648 0-1.107-.675-1.107-1.765 0-1.125.486-1.782 1.107-1.782h.009zm-.027.433c-.441 0-.558.747-.558 1.341 0 .612.117 1.342.576 1.342s.567-.738.567-1.342c0-.576-.099-1.341-.576-1.341h-.009zm-.243 5.617l3.115-6.095h.441l-3.115 6.095h-.441zm3.331-3.61c.657 0 1.089.702 1.089 1.773 0 1.225-.54 1.774-1.098 1.774-.648 0-1.107-.676-1.107-1.765 0-1.116.486-1.783 1.107-1.783h.009zm-.027.432c-.441 0-.558.747-.558 1.341 0 .612.135 1.342.576 1.342.459 0 .567-.738.567-1.332 0-.586-.099-1.351-.576-1.351h-.009z"/><path fill="#f2f2f2" fill-rule="evenodd" stroke="#000" d="M116.777 67.207h111.862v14H116.777z" clip-rule="evenodd" stroke-linecap="round" stroke-linejoin="round"/><path d="M123.086 71.7h-.018l-.972.558-.135-.54 1.233-.72h.567v5.852h-.675V71.7zm4.644-.19a1.96 1.96 0 0 0-.415.055c-.972.242-1.359 1.215-1.503 2.115h.027c.225-.333.549-.559.99-.559.738 0 1.26.685 1.26 1.801 0 1.107-.504 1.999-1.44 1.999-1.026 0-1.54-1.035-1.54-2.386 0-1.135.297-2.008.756-2.638a2.389 2.389 0 0 1 1.422-.919c.18-.035.333-.045.441-.054v.586zm-1.071 4.871c.387 0 .738-.388.738-1.404 0-.883-.315-1.324-.783-1.324-.297 0-.594.189-.765.631-.018.054-.045.18-.045.351.009 1.197.369 1.747.846 1.747h.009zm2.555.54c-.252 0-.45-.207-.45-.522 0-.306.207-.522.459-.522.27 0 .459.207.459.522s-.171.522-.459.522h-.009zm2.557 0c-.909 0-1.458-1.081-1.458-2.989 0-1.972.585-3.007 1.54-3.007.945 0 1.44 1.125 1.44 2.989 0 2.134-.675 3.007-1.513 3.007h-.009zm.045-.594c.558 0 .783-.999.783-2.403 0-1.368-.225-2.403-.783-2.403-.567 0-.811.99-.811 2.403-.009 1.413.234 2.403.801 2.403h.01zm4.59-4.817a1.96 1.96 0 0 0-.415.055c-.972.242-1.359 1.215-1.503 2.115h.027c.225-.333.549-.559.99-.559.738 0 1.26.685 1.26 1.801 0 1.107-.504 1.999-1.44 1.999-1.026 0-1.54-1.035-1.54-2.386 0-1.135.297-2.008.756-2.638a2.389 2.389 0 0 1 1.422-.919c.18-.035.333-.045.441-.054v.586zm-1.071 4.871c.387 0 .738-.388.738-1.404 0-.883-.315-1.324-.783-1.324-.297 0-.594.189-.765.631-.018.054-.045.18-.045.351.009 1.197.369 1.747.846 1.747h.009zm3.05-5.456c.657 0 1.089.702 1.089 1.765 0 1.233-.54 1.782-1.098 1.782-.648 0-1.107-.675-1.107-1.765 0-1.125.486-1.782 1.107-1.782h.009zm-.027.433c-.441 0-.558.747-.558 1.341 0 .612.117 1.342.576 1.342s.567-.738.567-1.342c0-.576-.099-1.341-.576-1.341h-.009zm-.243 5.617l3.115-6.095h.441l-3.115 6.095h-.441zm3.331-3.61c.657 0 1.089.702 1.089 1.773 0 1.225-.54 1.774-1.098 1.774-.648 0-1.107-.676-1.107-1.765 0-1.116.486-1.783 1.107-1.783h.009zm-.027.432c-.441 0-.558.747-.558 1.341 0 .612.135 1.342.576 1.342.459 0 .567-.738.567-1.332 0-.586-.099-1.351-.576-1.351h-.009z"/><path fill="#f2f2f2" fill-rule="evenodd" stroke="#000" d="M116.777 81.207h111.862v14H116.777z" clip-rule="evenodd" stroke-linecap="round" stroke-linejoin="round"/><path d="M124.392 85.61h-1.576l-.243 1.558c.072-.019.135-.019.216-.019.315 0 .81.145 1.116.441.315.306.495.738.495 1.332 0 1.171-.738 1.999-1.773 1.999-.36 0-.765-.1-1-.252l.153-.55c.18.1.495.226.819.226.594 0 1.107-.45 1.107-1.351 0-.928-.567-1.314-1.323-1.314-.216 0-.351.009-.459.027l.369-2.71h2.098v.613zm1.358 5.311c-.252 0-.45-.207-.45-.522 0-.306.207-.522.459-.522.27 0 .459.207.459.522s-.171.522-.459.522h-.009zm1.26-.819c.18.107.495.243.846.243.603 0 1.008-.441 1.008-1.161 0-.766-.477-1.216-1.179-1.216h-.162v-.522h.135c.414 0 1.053-.314 1.053-1.044 0-.595-.315-.9-.774-.9-.288 0-.54.145-.729.279l-.144-.522c.207-.171.604-.333 1.044-.333.828 0 1.296.585 1.296 1.342 0 .594-.306 1.116-.873 1.377v.019c.522.144 1.026.611 1.026 1.539 0 .945-.612 1.72-1.674 1.72-.378 0-.792-.108-1.026-.271l.153-.55zm6.057-4.492h-1.576l-.243 1.558c.072-.019.135-.019.216-.019.315 0 .81.145 1.116.441.315.306.495.738.495 1.332 0 1.171-.738 1.999-1.773 1.999-.36 0-.765-.1-1-.252l.153-.55c.18.1.495.226.819.226.594 0 1.107-.45 1.107-1.351 0-.928-.567-1.314-1.323-1.314-.216 0-.351.009-.459.027l.369-2.71h2.098v.613zm1.853-.685c.657 0 1.089.702 1.089 1.765 0 1.233-.54 1.782-1.098 1.782-.648 0-1.107-.675-1.107-1.765 0-1.125.486-1.782 1.107-1.782h.009zm-.026.433c-.441 0-.558.747-.558 1.341 0 .612.117 1.342.576 1.342s.567-.738.567-1.342c0-.576-.099-1.341-.576-1.341h-.009zm-.244 5.617l3.115-6.095h.441l-3.115 6.095h-.441zm3.331-3.61c.657 0 1.089.702 1.089 1.773 0 1.225-.54 1.774-1.098 1.774-.648 0-1.107-.676-1.107-1.765 0-1.116.486-1.783 1.107-1.783h.009zm-.026.432c-.441 0-.558.747-.558 1.341 0 .612.135 1.342.576 1.342.459 0 .567-.738.567-1.332 0-.586-.099-1.351-.576-1.351h-.009z"/><path fill="#f2f2f2" fill-rule="evenodd" stroke="#000" d="M116.777 95.207h111.862v14H116.777z" clip-rule="evenodd" stroke-linecap="round" stroke-linejoin="round"/><path d="M121.799 104.102c.18.107.495.243.846.243.603 0 1.008-.441 1.008-1.161 0-.766-.477-1.216-1.179-1.216h-.162v-.522h.135c.414 0 1.053-.314 1.053-1.044 0-.595-.315-.9-.774-.9-.288 0-.54.145-.729.279l-.144-.522c.207-.171.604-.333 1.044-.333.828 0 1.296.585 1.296 1.342 0 .594-.306 1.116-.873 1.377v.019c.522.144 1.026.611 1.026 1.539 0 .945-.612 1.72-1.674 1.72-.378 0-.792-.108-1.026-.271l.153-.55zm3.951.819c-.252 0-.45-.207-.45-.522 0-.306.207-.522.459-.522.27 0 .459.207.459.522s-.171.522-.459.522h-.009zm2.961-.072v-1.62h-1.944v-.469l1.899-3.763h.675v3.664h.63v.567h-.63v1.62h-.63zm0-2.187v-1.647c0-.405.027-.766.054-1.152h-.036c-.198.468-.324.738-.495 1.098l-.81 1.684v.019h1.287zm3.051-2.962h-.018l-.972.558-.135-.54 1.233-.72h.567v5.852h-.675V99.7zm3.158-.775c.657 0 1.089.702 1.089 1.765 0 1.233-.54 1.782-1.098 1.782-.648 0-1.107-.675-1.107-1.765 0-1.125.486-1.782 1.107-1.782h.009zm-.026.433c-.441 0-.558.747-.558 1.341 0 .612.117 1.342.576 1.342s.567-.738.567-1.342c0-.576-.099-1.341-.576-1.341h-.009zm-.244 5.617l3.115-6.095h.441l-3.115 6.095h-.441zm3.331-3.61c.657 0 1.089.702 1.089 1.773 0 1.225-.54 1.774-1.098 1.774-.648 0-1.107-.676-1.107-1.765 0-1.116.486-1.783 1.107-1.783h.009zm-.026.432c-.441 0-.558.747-.558 1.341 0 .612.135 1.342.576 1.342.459 0 .567-.738.567-1.332 0-.586-.099-1.351-.576-1.351h-.009z"/><path fill="#f2f2f2" fill-rule="evenodd" stroke="#000" d="M116.777 109.207h111.862v14H116.777z" clip-rule="evenodd" stroke-linecap="round" stroke-linejoin="round"/><path d="M121.682 118.849v-.45l.486-.666c.702-.973 1.521-2.07 1.521-3.169 0-.648-.279-1.044-.829-1.044-.423 0-.702.225-.846.323l-.171-.521a1.831 1.831 0 0 1 1.143-.396c.973 0 1.396.721 1.396 1.603 0 1.099-.72 2.17-1.449 3.151l-.387.54v.018h1.945v.612h-2.809zm4.068.072c-.252 0-.45-.207-.45-.522 0-.306.207-.522.459-.522.27 0 .459.207.459.522s-.171.522-.459.522h-.009zm2.961-.072v-1.62h-1.944v-.469l1.899-3.763h.675v3.664h.63v.567h-.63v1.62h-.63zm0-2.187v-1.647c0-.405.027-.766.054-1.152h-.036c-.198.468-.324.738-.495 1.098l-.81 1.684v.019h1.287zm1.764 1.44c.18.107.495.243.846.243.603 0 1.008-.441 1.008-1.161 0-.766-.477-1.216-1.179-1.216h-.162v-.522h.135c.414 0 1.053-.314 1.053-1.044 0-.595-.315-.9-.774-.9-.288 0-.54.145-.729.279l-.144-.522c.207-.171.604-.333 1.044-.333.828 0 1.296.585 1.296 1.342 0 .594-.306 1.116-.873 1.377v.019c.522.144 1.026.611 1.026 1.539 0 .945-.612 1.72-1.674 1.72-.378 0-.792-.108-1.026-.271l.153-.55zm4.445-5.177c.657 0 1.089.702 1.089 1.765 0 1.233-.54 1.782-1.098 1.782-.648 0-1.107-.675-1.107-1.765 0-1.125.486-1.782 1.107-1.782h.009zm-.026.433c-.441 0-.558.747-.558 1.341 0 .612.117 1.342.576 1.342s.567-.738.567-1.342c0-.576-.099-1.341-.576-1.341h-.009zm-.244 5.617l3.115-6.095h.441l-3.115 6.095h-.441zm3.331-3.61c.657 0 1.089.702 1.089 1.773 0 1.225-.54 1.774-1.098 1.774-.648 0-1.107-.676-1.107-1.765 0-1.116.486-1.783 1.107-1.783h.009zm-.026.432c-.441 0-.558.747-.558 1.341 0 .612.135 1.342.576 1.342.459 0 .567-.738.567-1.332 0-.586-.099-1.351-.576-1.351h-.009z"/><path fill="#f7931e" fill-rule="evenodd" d="M147.833 29.281h13.806v5.854h-13.806zm0 14h47.222v5.854h-47.222zm0 14h66.972v5.854h-66.972zm0 14h29.472v5.854h-29.472zm0 14h13.806v5.854h-13.806zm0 14h6.903v5.854h-6.903zm0 14h3.452v5.854h-3.452z" clip-rule="evenodd"/><path fill="#f2f2f2" fill-rule="evenodd" stroke="#000" d="M.5 134.5h58.139v24.708H.5z" clip-rule="evenodd" stroke-linecap="round" stroke-linejoin="round"/><path d="M5.522 144.194c.207.126.567.242.873.242.63 0 1.008-.414 1.008-1.026 0-.558-.324-.899-.801-1.26-.477-.333-1.143-.9-1.143-1.684 0-.918.648-1.594 1.603-1.594.378 0 .711.126.855.226l-.171.594a1.276 1.276 0 0 0-.72-.207c-.594 0-.874.45-.874.864 0 .604.315.847.892 1.252.729.513 1.053 1.071 1.053 1.746 0 1.044-.738 1.701-1.702 1.701-.414 0-.855-.135-1.026-.27l.153-.584zM9.4 142.88c.009 1.341.531 1.62 1.026 1.62.306 0 .549-.072.72-.162l.117.504c-.243.136-.612.207-.963.207-1.035 0-1.576-.846-1.576-2.188 0-1.413.594-2.296 1.468-2.296.882 0 1.242.937 1.242 1.918 0 .171-.009.288-.018.396H9.4zm1.369-.514c.009-.873-.315-1.261-.648-1.261-.45 0-.684.667-.711 1.261h1.359zm1.403-.603c0-.368-.027-.801-.036-1.125h.622l.036.685h.018c.144-.414.513-.757.918-.757.054 0 .099 0 .144.01v.711c-.045-.009-.09-.009-.144-.009-.441 0-.765.404-.837.909a2.566 2.566 0 0 0-.027.396v2.413h-.693v-3.233zm2.826-1.125l.549 2.449c.063.297.135.684.189 1.062h.027c.045-.359.117-.729.18-1.062l.54-2.449h.684l-1.143 4.357h-.612l-1.134-4.357h.72zm3.141 2.242c.009 1.341.531 1.62 1.026 1.62.306 0 .549-.072.72-.162l.117.504c-.243.136-.612.207-.963.207-1.035 0-1.576-.846-1.576-2.188 0-1.413.594-2.296 1.468-2.296.882 0 1.242.937 1.242 1.918 0 .171-.009.288-.018.396h-2.016zm1.368-.514c.009-.873-.315-1.261-.648-1.261-.45 0-.684.667-.711 1.261h1.359zm1.404-.603c0-.368-.027-.801-.036-1.125h.622l.036.685h.018c.144-.414.513-.757.918-.757.054 0 .099 0 .144.01v.711c-.045-.009-.09-.009-.144-.009-.441 0-.765.404-.837.909a2.566 2.566 0 0 0-.027.396v2.413h-.693v-3.233zm3.708-2.745a3.952 3.952 0 0 1 1-.117c.603 0 1.053.126 1.368.432.297.307.423.712.423 1.188 0 .774-.36 1.278-.972 1.566v.019c.45.135.684.567.81 1.359.144.828.261 1.341.351 1.53h-.702c-.09-.18-.207-.756-.324-1.494-.135-.838-.396-1.144-.99-1.144h-.27v2.638h-.693v-5.977zm.693 2.799h.288c.666 0 1.107-.486 1.107-1.216 0-.693-.288-1.134-1.036-1.144-.135 0-.27.01-.36.036v2.324zm3.419 1.063c.009 1.341.531 1.62 1.026 1.62.306 0 .549-.072.72-.162l.117.504c-.243.136-.612.207-.963.207-1.035 0-1.576-.846-1.576-2.188 0-1.413.594-2.296 1.468-2.296.882 0 1.242.937 1.242 1.918 0 .171-.009.288-.018.396h-2.016zm1.369-.514c.009-.873-.315-1.261-.648-1.261-.45 0-.684.667-.711 1.261H30.1zm1.296 1.909c.153.099.423.225.702.225.387 0 .639-.243.639-.63 0-.333-.117-.567-.558-.855-.567-.369-.873-.747-.873-1.242 0-.712.522-1.207 1.197-1.207.342 0 .594.108.774.226l-.18.522a.994.994 0 0 0-.585-.198c-.369 0-.558.27-.558.558s.108.459.54.747c.504.324.9.729.9 1.333 0 .873-.594 1.296-1.314 1.296-.315 0-.666-.099-.855-.252l.171-.523zm2.709-2.278c0-.666-.027-1.053-.036-1.359h.622l.036.549h.018c.234-.459.585-.621.918-.621.765 0 1.26.802 1.26 2.242 0 1.62-.666 2.26-1.341 2.26-.414 0-.648-.252-.765-.495h-.018v2.151h-.693v-4.727zm.693 1.404c0 .126.009.252.036.36.135.621.441.729.63.729.576 0 .765-.792.765-1.666 0-.909-.216-1.665-.765-1.665-.315 0-.603.396-.639.792-.027.108-.027.216-.027.333v1.117zm4.131 1.666c-.783 0-1.414-.712-1.414-2.242 0-1.593.711-2.26 1.458-2.26.783 0 1.405.721 1.405 2.242 0 1.692-.774 2.26-1.44 2.26h-.009zm.036-.549c.594 0 .72-1.017.72-1.701 0-.675-.126-1.701-.738-1.701-.621 0-.738 1.026-.738 1.701 0 .721.126 1.701.747 1.701h.009zm2.186-2.755c0-.513-.027-.773-.036-1.125h.603l.036.522h.018c.189-.352.54-.595.999-.595.604 0 1.054.441 1.054 1.504v2.926h-.693v-2.809c0-.522-.099-1.035-.603-1.035-.288 0-.567.243-.648.711a1.57 1.57 0 0 0-.036.387v2.746h-.693v-3.232zm3.528 2.512c.153.099.423.225.702.225.387 0 .639-.243.639-.63 0-.333-.117-.567-.558-.855-.567-.369-.873-.747-.873-1.242 0-.712.522-1.207 1.197-1.207.342 0 .594.108.774.226l-.18.522a.994.994 0 0 0-.585-.198c-.369 0-.558.27-.558.558s.108.459.54.747c.504.324.9.729.9 1.333 0 .873-.594 1.296-1.314 1.296-.315 0-.666-.099-.855-.252l.171-.523zm3.204-1.395c.009 1.341.531 1.62 1.026 1.62.306 0 .549-.072.72-.162l.117.504c-.243.136-.612.207-.963.207-1.035 0-1.576-.846-1.576-2.188 0-1.413.594-2.296 1.468-2.296.882 0 1.242.937 1.242 1.918 0 .171-.009.288-.018.396h-2.016zm1.369-.514c.009-.873-.315-1.261-.648-1.261-.45 0-.684.667-.711 1.261h1.359zm-42.884 6.183H5.26v-.621h2.908v.621H7.061v5.446h-.693v-5.446zm2.645.414c-.225 0-.396-.181-.396-.45 0-.271.18-.45.405-.45.252 0 .414.18.414.45s-.162.45-.414.45h-.009zm-.324 5.032v-4.357h.693v4.357h-.693zm1.657-3.232c0-.513-.027-.773-.036-1.125h.612l.036.531h.018c.189-.351.513-.604.972-.604.405 0 .756.189.918.657h.018a1.46 1.46 0 0 1 .423-.495c.18-.107.378-.162.603-.162.594 0 1.053.424 1.053 1.54v2.89h-.693v-2.737c0-.566-.081-1.116-.603-1.116-.288 0-.54.243-.639.657-.027.108-.027.243-.027.388v2.809h-.693v-2.863c0-.477-.081-.99-.594-.99-.288 0-.567.243-.648.712a2.27 2.27 0 0 0-.027.369v2.772h-.693v-3.233zm6.065 1.117c.009 1.341.531 1.62 1.026 1.62.306 0 .549-.072.72-.162l.117.504c-.243.136-.612.207-.963.207-1.035 0-1.576-.846-1.576-2.188 0-1.413.594-2.296 1.468-2.296.882 0 1.242.937 1.242 1.918 0 .171-.009.288-.018.396h-2.016zm1.369-.514c.009-.873-.315-1.261-.648-1.261-.45 0-.684.667-.711 1.261h1.359zm2.879-3.348c.288-.072.63-.117 1.018-.117.549 0 1.017.117 1.341.414.261.252.396.612.396 1.044 0 .621-.342 1.116-.936 1.351v.027c.702.18 1.125.747 1.125 1.548 0 .495-.162.9-.432 1.198-.342.387-.909.549-1.603.549-.45 0-.72-.027-.909-.063v-5.951zm.694 2.493h.315c.567 0 1.053-.44 1.053-1.071 0-.566-.261-.999-.999-.999-.162 0-.288.018-.369.045v2.025zm0 2.944c.081.018.198.027.351.027.711 0 1.179-.424 1.179-1.207 0-.837-.576-1.233-1.224-1.242h-.306v2.422zm5.606-.648c0 .478.027.864.036 1.188h-.603l-.054-.459h-.018c-.126.216-.459.531-.927.531-.756 0-1.062-.595-1.062-1.675v-2.755h.693v2.656c0 .675.108 1.188.585 1.188.405 0 .585-.379.621-.586.027-.117.036-.243.036-.387v-2.872h.693v3.171zm3.097 1.08c-.153.091-.414.162-.72.162-.954 0-1.594-.765-1.594-2.205 0-1.252.63-2.269 1.72-2.269.234 0 .486.062.612.144l-.135.559a1.13 1.13 0 0 0-.495-.117c-.702 0-1.008.828-1.008 1.684 0 1.017.387 1.629 1.026 1.629.18 0 .342-.036.495-.117l.099.53zm1.277-2.224h.018c.081-.171.153-.342.234-.485l.864-1.54h.747l-1.152 1.837 1.261 2.521h-.775l-.945-2.053-.252.405v1.647h-.693v-6.229h.693v3.897zm2.853.217c.009 1.341.531 1.62 1.026 1.62.306 0 .549-.072.72-.162l.117.504c-.243.136-.612.207-.963.207-1.035 0-1.576-.846-1.576-2.188 0-1.413.594-2.296 1.468-2.296.882 0 1.242.937 1.242 1.918 0 .171-.009.288-.018.396h-2.016zm1.368-.514c.009-.873-.315-1.261-.648-1.261-.45 0-.684.667-.711 1.261h1.359zm2.259-2.746v1.018h.837v.522h-.837v2.593c0 .576.198.72.45.72.117 0 .207-.009.279-.026l.036.531a1.522 1.522 0 0 1-.513.071c-.279 0-.522-.071-.684-.261-.18-.198-.261-.495-.261-1.099v-2.529h-.531v-.522h.531v-.738l.693-.28zm4.428-.854c-.513.81-.937 2.025-.937 3.664 0 1.611.423 2.826.937 3.646H41.7c-.468-.684-.981-1.891-.981-3.655.018-1.764.513-2.979.981-3.654h.541zm.593 5.509c.153.099.423.225.702.225.387 0 .639-.243.639-.63 0-.333-.117-.567-.558-.855-.567-.369-.873-.747-.873-1.242 0-.712.522-1.207 1.197-1.207.342 0 .594.108.774.226l-.18.522a.994.994 0 0 0-.585-.198c-.369 0-.558.27-.558.558s.108.459.54.747c.504.324.9.729.9 1.333 0 .873-.594 1.296-1.314 1.296-.315 0-.666-.099-.855-.252l.171-.523zm3.205-1.395c.009 1.341.531 1.62 1.026 1.62.306 0 .549-.072.72-.162l.117.504c-.243.136-.612.207-.963.207-1.035 0-1.576-.846-1.576-2.188 0-1.413.594-2.296 1.468-2.296.882 0 1.242.937 1.242 1.918 0 .171-.009.288-.018.396h-2.016zm1.368-.514c.009-.873-.315-1.261-.648-1.261-.45 0-.684.667-.711 1.261h1.359zm3.537 2.521c-.153.091-.414.162-.72.162-.955 0-1.594-.765-1.594-2.205 0-1.252.63-2.269 1.72-2.269.234 0 .486.062.612.144l-.135.559a1.13 1.13 0 0 0-.495-.117c-.702 0-1.008.828-1.008 1.684 0 1.017.387 1.629 1.026 1.629.18 0 .342-.036.495-.117l.099.53zm.332 1.188c.513-.81.936-2.043.936-3.664 0-1.62-.423-2.836-.936-3.646h.54c.468.666.981 1.863.981 3.646-.018 1.783-.513 2.971-.981 3.664h-.54z"/><path fill="#f2f2f2" fill-rule="evenodd" stroke="#000" d="M.5 159.208h58.139v14H.5z" clip-rule="evenodd" stroke-linecap="round" stroke-linejoin="round"/><path d="M6.818 168.921c-.909 0-1.458-1.081-1.458-2.989 0-1.972.585-3.007 1.54-3.007.945 0 1.44 1.125 1.44 2.989 0 2.134-.675 3.007-1.513 3.007h-.009zm.045-.594c.558 0 .783-.999.783-2.403 0-1.368-.225-2.403-.783-2.403-.567 0-.811.99-.811 2.403-.009 1.413.234 2.403.801 2.403h.01zm5.373-2.098v.531h-1.972v-.531h1.972zm3.384 2.692c-.909 0-1.458-1.081-1.458-2.989 0-1.972.585-3.007 1.54-3.007.945 0 1.44 1.125 1.44 2.989 0 2.134-.675 3.007-1.513 3.007h-.009zm.045-.594c.558 0 .783-.999.783-2.403 0-1.368-.225-2.403-.783-2.403-.567 0-.811.99-.811 2.403-.009 1.413.234 2.403.801 2.403h.01zm2.609.594c-.252 0-.45-.207-.45-.522 0-.306.207-.522.459-.522.27 0 .459.207.459.522s-.171.522-.459.522h-.009zm2.557 0c-.909 0-1.458-1.081-1.458-2.989 0-1.972.585-3.007 1.54-3.007.945 0 1.44 1.125 1.44 2.989 0 2.134-.675 3.007-1.513 3.007h-.009zm.045-.594c.558 0 .783-.999.783-2.403 0-1.368-.225-2.403-.783-2.403-.567 0-.811.99-.811 2.403-.009 1.413.234 2.403.801 2.403h.01zm3.41-4.627h-.018l-.972.558-.135-.54 1.233-.72h.567v5.852h-.675v-5.15z"/><path fill="#f2f2f2" fill-rule="evenodd" stroke="#000" d="M.5 173.208h58.139v14H.5z" clip-rule="evenodd" stroke-linecap="round" stroke-linejoin="round"/><path d="M6.818 182.921c-.909 0-1.458-1.081-1.458-2.989 0-1.972.585-3.007 1.54-3.007.945 0 1.44 1.125 1.44 2.989 0 2.134-.675 3.007-1.513 3.007h-.009zm.045-.594c.558 0 .783-.999.783-2.403 0-1.368-.225-2.403-.783-2.403-.567 0-.811.99-.811 2.403-.009 1.413.234 2.403.801 2.403h.01zm2.609.594c-.252 0-.45-.207-.45-.522 0-.306.207-.522.459-.522.27 0 .459.207.459.522s-.171.522-.459.522h-.009zm2.557 0c-.909 0-1.458-1.081-1.458-2.989 0-1.972.585-3.007 1.54-3.007.945 0 1.44 1.125 1.44 2.989 0 2.134-.675 3.007-1.513 3.007h-.009zm.045-.594c.558 0 .783-.999.783-2.403 0-1.368-.225-2.403-.783-2.403-.567 0-.811.99-.811 2.403-.009 1.413.234 2.403.801 2.403h.01zm3.41-4.627h-.018l-.972.558-.135-.54 1.233-.72h.567v5.852h-.675v-5.15zm5.428 2.529v.531H18.94v-.531h1.972zm3.383 2.692c-.909 0-1.458-1.081-1.458-2.989 0-1.972.585-3.007 1.54-3.007.945 0 1.44 1.125 1.44 2.989 0 2.134-.675 3.007-1.513 3.007h-.009zm.045-.594c.558 0 .783-.999.783-2.403 0-1.368-.225-2.403-.783-2.403-.567 0-.811.99-.811 2.403-.009 1.413.234 2.403.801 2.403h.01zm2.61.594c-.252 0-.45-.207-.45-.522 0-.306.207-.522.459-.522.27 0 .459.207.459.522s-.171.522-.459.522h-.009zm2.547-5.221h-.018l-.972.558-.135-.54 1.233-.72h.567v5.852h-.675v-5.15zm3.474 5.221c-.909 0-1.458-1.081-1.458-2.989 0-1.972.585-3.007 1.54-3.007.945 0 1.44 1.125 1.44 2.989 0 2.134-.675 3.007-1.513 3.007h-.009zm.045-.594c.558 0 .783-.999.783-2.403 0-1.368-.225-2.403-.783-2.403-.567 0-.811.99-.811 2.403-.009 1.413.234 2.403.801 2.403h.01z"/><path fill="#f2f2f2" fill-rule="evenodd" stroke="#000" d="M.5 187.208h58.139v14H.5z" clip-rule="evenodd" stroke-linecap="round" stroke-linejoin="round"/><path d="M6.818 196.921c-.909 0-1.458-1.081-1.458-2.989 0-1.972.585-3.007 1.54-3.007.945 0 1.44 1.125 1.44 2.989 0 2.134-.675 3.007-1.513 3.007h-.009zm.045-.594c.558 0 .783-.999.783-2.403 0-1.368-.225-2.403-.783-2.403-.567 0-.811.99-.811 2.403-.009 1.413.234 2.403.801 2.403h.01zm2.609.594c-.252 0-.45-.207-.45-.522 0-.306.207-.522.459-.522.27 0 .459.207.459.522s-.171.522-.459.522h-.009zm2.548-5.221h-.018l-.972.558-.135-.54 1.233-.72h.567v5.852h-.675v-5.15zm3.474 5.221c-.909 0-1.458-1.081-1.458-2.989 0-1.972.585-3.007 1.54-3.007.945 0 1.44 1.125 1.44 2.989 0 2.134-.675 3.007-1.513 3.007h-.009zm.045-.594c.558 0 .783-.999.783-2.403 0-1.368-.225-2.403-.783-2.403-.567 0-.811.99-.811 2.403-.009 1.413.234 2.403.801 2.403h.01zm5.373-2.098v.531H18.94v-.531h1.972zm3.383 2.692c-.909 0-1.458-1.081-1.458-2.989 0-1.972.585-3.007 1.54-3.007.945 0 1.44 1.125 1.44 2.989 0 2.134-.675 3.007-1.513 3.007h-.009zm.045-.594c.558 0 .783-.999.783-2.403 0-1.368-.225-2.403-.783-2.403-.567 0-.811.99-.811 2.403-.009 1.413.234 2.403.801 2.403h.01zm2.61.594c-.252 0-.45-.207-.45-.522 0-.306.207-.522.459-.522.27 0 .459.207.459.522s-.171.522-.459.522h-.009zm3.853-5.311h-1.576l-.243 1.558c.072-.019.135-.019.216-.019.315 0 .81.145 1.116.441.315.306.495.738.495 1.332 0 1.171-.738 1.999-1.773 1.999-.36 0-.765-.1-1-.252l.153-.55c.18.1.495.226.819.226.594 0 1.107-.45 1.107-1.351 0-.928-.567-1.314-1.323-1.314-.216 0-.351.009-.459.027l.369-2.71h2.098v.613zm2.168 5.311c-.909 0-1.458-1.081-1.458-2.989 0-1.972.585-3.007 1.54-3.007.945 0 1.44 1.125 1.44 2.989 0 2.134-.675 3.007-1.513 3.007h-.009zm.045-.594c.558 0 .783-.999.783-2.403 0-1.368-.225-2.403-.783-2.403-.567 0-.811.99-.811 2.403-.009 1.413.234 2.403.801 2.403h.01z"/><path fill="#f2f2f2" fill-rule="evenodd" stroke="#000" d="M.5 201.208h58.139v14H.5z" clip-rule="evenodd" stroke-linecap="round" stroke-linejoin="round"/><path d="M6.818 210.921c-.909 0-1.458-1.081-1.458-2.989 0-1.972.585-3.007 1.54-3.007.945 0 1.44 1.125 1.44 2.989 0 2.134-.675 3.007-1.513 3.007h-.009zm.045-.594c.558 0 .783-.999.783-2.403 0-1.368-.225-2.403-.783-2.403-.567 0-.811.99-.811 2.403-.009 1.413.234 2.403.801 2.403h.01zm2.609.594c-.252 0-.45-.207-.45-.522 0-.306.207-.522.459-.522.27 0 .459.207.459.522s-.171.522-.459.522h-.009zm3.853-5.311H11.75l-.243 1.558c.072-.019.135-.019.216-.019.315 0 .81.145 1.116.441.315.306.495.738.495 1.332 0 1.171-.738 1.999-1.773 1.999-.36 0-.765-.1-1-.252l.153-.55c.18.1.495.226.819.226.594 0 1.107-.45 1.107-1.351 0-.928-.567-1.314-1.323-1.314-.216 0-.351.009-.459.027l.369-2.71h2.098v.613zm2.169 5.311c-.909 0-1.458-1.081-1.458-2.989 0-1.972.585-3.007 1.54-3.007.945 0 1.44 1.125 1.44 2.989 0 2.134-.675 3.007-1.513 3.007h-.009zm.045-.594c.558 0 .783-.999.783-2.403 0-1.368-.225-2.403-.783-2.403-.567 0-.811.99-.811 2.403-.009 1.413.234 2.403.801 2.403h.01zm5.373-2.098v.531H18.94v-.531h1.972zm3.374-2.529h-.018l-.972.558-.135-.54 1.233-.72h.567v5.852h-.675v-5.15z"/><path fill="#f2f2f2" fill-rule="evenodd" stroke="#000" d="M.5 215.208h58.139v14H.5z" clip-rule="evenodd" stroke-linecap="round" stroke-linejoin="round"/><path d="M6.809 219.7h-.018l-.972.558-.135-.54 1.233-.72h.567v5.852h-.675v-5.15zm5.427 2.529v.531h-1.972v-.531h1.972zm1.97 2.62v-.45l.486-.666c.702-.973 1.521-2.07 1.521-3.169 0-.648-.279-1.044-.829-1.044-.423 0-.702.225-.846.323l-.171-.521a1.831 1.831 0 0 1 1.143-.396c.973 0 1.396.721 1.396 1.603 0 1.099-.72 2.17-1.449 3.151l-.387.54v.018h1.945v.612h-2.809z"/><path fill="#f2f2f2" fill-rule="evenodd" stroke="#000" d="M.5 229.208h58.139v14H.5z" clip-rule="evenodd" stroke-linecap="round" stroke-linejoin="round"/><path d="M5.404 238.849v-.45l.486-.666c.702-.973 1.521-2.07 1.521-3.169 0-.648-.279-1.044-.829-1.044-.423 0-.702.225-.846.323l-.171-.521a1.831 1.831 0 0 1 1.143-.396c.973 0 1.396.721 1.396 1.603 0 1.099-.72 2.17-1.449 3.151l-.387.54v.018h1.945v.612H5.404zm6.832-2.62v.531h-1.972v-.531h1.972zm4.68-2.619H15.34l-.243 1.558c.072-.019.135-.019.216-.019.315 0 .81.145 1.116.441.315.306.495.738.495 1.332 0 1.171-.738 1.999-1.773 1.999-.36 0-.765-.1-1-.252l.153-.55c.18.1.495.226.819.226.594 0 1.107-.45 1.107-1.351 0-.928-.567-1.314-1.323-1.314-.216 0-.351.009-.459.027l.369-2.71h2.098v.613z"/><path fill="#f2f2f2" fill-rule="evenodd" stroke="#000" d="M.5 243.208h58.139v14H.5z" clip-rule="evenodd" stroke-linecap="round" stroke-linejoin="round"/><path d="M8.114 247.61H6.539l-.243 1.558c.072-.019.135-.019.216-.019.315 0 .81.145 1.116.441.315.306.495.738.495 1.332 0 1.171-.738 1.999-1.773 1.999-.36 0-.765-.1-1-.252l.153-.55c.18.1.495.226.819.226.594 0 1.107-.45 1.107-1.351 0-.928-.567-1.314-1.323-1.314-.216 0-.351.009-.459.027l.369-2.71h2.098v.613zm3.411.44v2.143h2.071v.495h-2.071v2.161h-.513v-2.161H8.95v-.495h2.062v-2.143h.513z"/><path fill="#ccc" fill-rule="evenodd" stroke="#000" d="M58.639 134.5h58.139v24.708H58.639z" clip-rule="evenodd" stroke-linecap="round" stroke-linejoin="round"/><path d="M63.795 139.018a3.952 3.952 0 0 1 1-.117c.603 0 1.053.126 1.368.432.297.307.423.712.423 1.188 0 .774-.36 1.278-.972 1.566v.019c.45.135.684.567.81 1.359.144.828.261 1.341.351 1.53h-.702c-.09-.18-.207-.756-.324-1.494-.135-.838-.396-1.144-.99-1.144h-.27v2.638h-.693v-5.977zm.693 2.799h.288c.666 0 1.107-.486 1.107-1.216 0-.693-.288-1.134-1.036-1.144-.135 0-.27.01-.36.036v2.324zm3.42 1.063c.009 1.341.531 1.62 1.026 1.62.306 0 .549-.072.72-.162l.117.504c-.243.136-.612.207-.963.207-1.035 0-1.576-.846-1.576-2.188 0-1.413.594-2.296 1.468-2.296.882 0 1.242.937 1.242 1.918 0 .171-.009.288-.018.396h-2.016zm1.369-.514c.009-.873-.315-1.261-.648-1.261-.45 0-.684.667-.711 1.261h1.359zm1.295 1.909c.153.099.423.225.702.225.387 0 .639-.243.639-.63 0-.333-.117-.567-.558-.855-.567-.369-.873-.747-.873-1.242 0-.712.522-1.207 1.197-1.207.342 0 .594.108.774.226l-.18.522a.994.994 0 0 0-.585-.198c-.369 0-.558.27-.558.558s.108.459.54.747c.504.324.9.729.9 1.333 0 .873-.594 1.296-1.314 1.296-.315 0-.666-.099-.855-.252l.171-.523zm2.709-2.278c0-.666-.027-1.053-.036-1.359h.622l.036.549h.018c.234-.459.585-.621.918-.621.765 0 1.26.802 1.26 2.242 0 1.62-.666 2.26-1.341 2.26-.414 0-.648-.252-.765-.495h-.018v2.151h-.693v-4.727zm.693 1.404c0 .126.009.252.036.36.135.621.441.729.63.729.576 0 .765-.792.765-1.666 0-.909-.216-1.665-.765-1.665-.315 0-.603.396-.639.792-.027.108-.027.216-.027.333v1.117zm4.131 1.666c-.783 0-1.414-.712-1.414-2.242 0-1.593.711-2.26 1.458-2.26.783 0 1.405.721 1.405 2.242 0 1.692-.774 2.26-1.44 2.26h-.009zm.036-.549c.594 0 .72-1.017.72-1.701 0-.675-.126-1.701-.738-1.701-.621 0-.738 1.026-.738 1.701 0 .721.126 1.701.747 1.701h.009zm2.187-2.755c0-.513-.027-.773-.036-1.125h.603l.036.522h.018c.189-.352.54-.595.999-.595.604 0 1.054.441 1.054 1.504v2.926h-.693v-2.809c0-.522-.099-1.035-.603-1.035-.288 0-.567.243-.648.711a1.57 1.57 0 0 0-.036.387v2.746h-.693v-3.232zm3.527 2.512c.153.099.423.225.702.225.387 0 .639-.243.639-.63 0-.333-.117-.567-.558-.855-.567-.369-.873-.747-.873-1.242 0-.712.522-1.207 1.197-1.207.342 0 .594.108.774.226l-.18.522a.994.994 0 0 0-.585-.198c-.369 0-.558.27-.558.558s.108.459.54.747c.504.324.9.729.9 1.333 0 .873-.594 1.296-1.314 1.296-.315 0-.666-.099-.855-.252l.171-.523zm3.205-1.395c.009 1.341.531 1.62 1.026 1.62.306 0 .549-.072.72-.162l.117.504c-.243.136-.612.207-.963.207-1.035 0-1.576-.846-1.576-2.188 0-1.413.594-2.296 1.468-2.296.882 0 1.242.937 1.242 1.918 0 .171-.009.288-.018.396H87.06zm1.368-.514c.009-.873-.315-1.261-.648-1.261-.45 0-.684.667-.711 1.261h1.359zM63.66 153.194c.207.126.567.242.873.242.63 0 1.008-.414 1.008-1.026 0-.558-.324-.899-.801-1.26-.477-.333-1.143-.9-1.143-1.684 0-.918.648-1.594 1.603-1.594.378 0 .711.126.855.226l-.171.594a1.276 1.276 0 0 0-.72-.207c-.594 0-.874.45-.874.864 0 .604.315.847.892 1.252.729.513 1.053 1.071 1.053 1.746 0 1.044-.738 1.701-1.702 1.701-.414 0-.855-.135-1.026-.27l.153-.584zm5.697-.189c0 .333 0 .711.045.99h-.621l-.045-.459h-.027c-.189.333-.495.531-.864.531-.585 0-1.036-.486-1.036-1.242 0-1.099.874-1.576 1.855-1.585v-.135c0-.585-.145-.99-.693-.99-.27 0-.513.081-.72.225l-.153-.486c.189-.135.585-.288 1.018-.288.873 0 1.242.576 1.242 1.549v1.89zm-.675-1.27c-.36 0-1.197.072-1.197 1.018 0 .576.288.774.531.774.306 0 .558-.226.639-.657a1.2 1.2 0 0 0 .027-.252v-.883zm1.656-.972c0-.513-.027-.773-.036-1.125h.612l.036.531h.018c.189-.351.513-.604.972-.604.405 0 .756.189.918.657h.018a1.46 1.46 0 0 1 .423-.495c.18-.107.378-.162.603-.162.594 0 1.053.424 1.053 1.54v2.89h-.693v-2.737c0-.566-.081-1.116-.603-1.116-.288 0-.54.243-.639.657-.027.108-.027.243-.027.388v2.809H72.3v-2.863c0-.477-.081-.99-.594-.99-.288 0-.567.243-.648.712a2.27 2.27 0 0 0-.027.369v2.772h-.693v-3.233zm5.571.234c0-.666-.027-1.053-.036-1.359h.622l.036.549h.018c.234-.459.585-.621.918-.621.765 0 1.26.802 1.26 2.242 0 1.62-.666 2.26-1.341 2.26-.414 0-.648-.252-.765-.495h-.018v2.151h-.693v-4.727zm.693 1.404c0 .126.009.252.036.36.135.621.441.729.63.729.576 0 .765-.792.765-1.666 0-.909-.216-1.665-.765-1.665-.315 0-.603.396-.639.792-.027.108-.027.216-.027.333v1.117zm2.907-4.635h.693v6.229h-.693v-6.229zm2.205 4.114c.009 1.341.531 1.62 1.026 1.62.306 0 .549-.072.72-.162l.117.504c-.243.136-.612.207-.963.207-1.035 0-1.576-.846-1.576-2.188 0-1.413.594-2.296 1.468-2.296.882 0 1.242.937 1.242 1.918 0 .171-.009.288-.018.396h-2.016zm1.369-.514c.009-.873-.315-1.261-.648-1.261-.45 0-.684.667-.711 1.261h1.359z"/><path fill="#ccc" fill-rule="evenodd" stroke="#000" d="M58.639 159.208h58.139v14H58.639z" clip-rule="evenodd" stroke-linecap="round" stroke-linejoin="round"/><path d="M64.947 163.7h-.018l-.972.558-.135-.54 1.233-.72h.567v5.852h-.675v-5.15zm3.573-.775c.837 0 1.261.702 1.261 1.378 0 .513-.243 1.008-.783 1.386v.019c.54.369.936.891.936 1.603 0 .909-.603 1.611-1.503 1.611-.972 0-1.458-.774-1.458-1.495 0-.828.486-1.35.963-1.683l-.009-.019c-.486-.333-.766-.846-.766-1.342 0-.899.64-1.458 1.351-1.458h.008zm-.063 5.483c.432 0 .792-.324.792-1.062 0-.675-.387-1.053-.837-1.35a1.564 1.564 0 0 0-.756 1.314c0 .657.297 1.098.792 1.098h.009zm.018-4.969c-.387 0-.648.368-.648.899 0 .595.36.892.72 1.126a1.33 1.33 0 0 0 .576-1.081c0-.566-.225-.944-.639-.944h-.009z"/><path fill="#ccc" fill-rule="evenodd" stroke="#000" d="M58.639 173.208h58.139v14H58.639z" clip-rule="evenodd" stroke-linecap="round" stroke-linejoin="round"/><path d="M63.66 182.102c.18.107.495.243.846.243.603 0 1.008-.441 1.008-1.161 0-.766-.477-1.216-1.179-1.216h-.162v-.522h.135c.414 0 1.053-.314 1.053-1.044 0-.595-.315-.9-.774-.9-.288 0-.54.145-.729.279l-.144-.522c.207-.171.604-.333 1.044-.333.828 0 1.296.585 1.296 1.342 0 .594-.306 1.116-.873 1.377v.019c.522.144 1.026.611 1.026 1.539 0 .945-.612 1.72-1.674 1.72-.378 0-.792-.108-1.026-.271l.153-.55zm3.465 0c.18.107.495.243.846.243.603 0 1.008-.441 1.008-1.161 0-.766-.477-1.216-1.179-1.216h-.162v-.522h.135c.414 0 1.053-.314 1.053-1.044 0-.595-.315-.9-.774-.9-.288 0-.54.145-.729.279l-.144-.522c.207-.171.604-.333 1.044-.333.828 0 1.296.585 1.296 1.342 0 .594-.306 1.116-.873 1.377v.019c.522.144 1.026.611 1.026 1.539 0 .945-.612 1.72-1.674 1.72-.378 0-.792-.108-1.026-.271l.153-.55z"/><path fill="#ccc" fill-rule="evenodd" stroke="#000" d="M58.639 187.208h58.139v14H58.639z" clip-rule="evenodd" stroke-linecap="round" stroke-linejoin="round"/><path d="M64.947 191.7h-.018l-.972.558-.135-.54 1.233-.72h.567v5.852h-.675v-5.15zm4.645-.19a1.96 1.96 0 0 0-.415.055c-.972.242-1.359 1.215-1.503 2.115h.027c.225-.333.549-.559.99-.559.738 0 1.26.685 1.26 1.801 0 1.107-.504 1.999-1.44 1.999-1.026 0-1.54-1.035-1.54-2.386 0-1.135.297-2.008.756-2.638a2.389 2.389 0 0 1 1.422-.919c.18-.035.333-.045.441-.054v.586zm-1.072 4.871c.387 0 .738-.388.738-1.404 0-.883-.315-1.324-.783-1.324-.297 0-.594.189-.765.631-.018.054-.045.18-.045.351.009 1.197.369 1.747.846 1.747h.009zm3.465-5.456c.837 0 1.261.702 1.261 1.378 0 .513-.243 1.008-.783 1.386v.019c.54.369.936.891.936 1.603 0 .909-.603 1.611-1.503 1.611-.972 0-1.458-.774-1.458-1.495 0-.828.486-1.35.963-1.683l-.009-.019c-.486-.333-.766-.846-.766-1.342 0-.899.64-1.458 1.351-1.458h.008zm-.063 5.483c.432 0 .792-.324.792-1.062 0-.675-.387-1.053-.837-1.35a1.564 1.564 0 0 0-.756 1.314c0 .657.297 1.098.792 1.098h.009zm.018-4.969c-.387 0-.648.368-.648.899 0 .595.36.892.72 1.126a1.33 1.33 0 0 0 .576-1.081c0-.566-.225-.944-.639-.944h-.009z"/><path fill="#ccc" fill-rule="evenodd" stroke="#000" d="M58.639 201.208h58.139v14H58.639z" clip-rule="evenodd" stroke-linecap="round" stroke-linejoin="round"/><path d="M63.543 210.849v-.45l.486-.666c.702-.973 1.521-2.07 1.521-3.169 0-.648-.279-1.044-.829-1.044-.423 0-.702.225-.846.323l-.171-.521a1.831 1.831 0 0 1 1.143-.396c.973 0 1.396.721 1.396 1.603 0 1.099-.72 2.17-1.449 3.151l-.387.54v.018h1.945v.612h-2.809zm3.465 0v-.45l.486-.666c.702-.973 1.521-2.07 1.521-3.169 0-.648-.279-1.044-.829-1.044-.423 0-.702.225-.846.323l-.171-.521a1.831 1.831 0 0 1 1.143-.396c.973 0 1.396.721 1.396 1.603 0 1.099-.72 2.17-1.449 3.151l-.387.54v.018h1.945v.612h-2.809z"/><path fill="#ccc" fill-rule="evenodd" stroke="#000" d="M58.639 215.208h58.139v14H58.639z" clip-rule="evenodd" stroke-linecap="round" stroke-linejoin="round"/><path d="M64.947 219.7h-.018l-.972.558-.135-.54 1.233-.72h.567v5.852h-.675v-5.15zm2.061 5.149v-.45l.486-.666c.702-.973 1.521-2.07 1.521-3.169 0-.648-.279-1.044-.829-1.044-.423 0-.702.225-.846.323l-.171-.521a1.831 1.831 0 0 1 1.143-.396c.973 0 1.396.721 1.396 1.603 0 1.099-.72 2.17-1.449 3.151l-.387.54v.018h1.945v.612h-2.809zm5.283 0v-1.62h-1.944v-.469l1.899-3.763h.675v3.664h.63v.567h-.63v1.62h-.63zm0-2.187v-1.647c0-.405.027-.766.054-1.152h-.036c-.198.468-.324.738-.495 1.098l-.81 1.684v.019h1.287z"/><path fill="#ccc" fill-rule="evenodd" stroke="#000" d="M58.639 229.208h58.139v14H58.639z" clip-rule="evenodd" stroke-linecap="round" stroke-linejoin="round"/><path d="M63.66 238.102c.18.107.495.243.846.243.603 0 1.008-.441 1.008-1.161 0-.766-.477-1.216-1.179-1.216h-.162v-.522h.135c.414 0 1.053-.314 1.053-1.044 0-.595-.315-.9-.774-.9-.288 0-.54.145-.729.279l-.144-.522c.207-.171.604-.333 1.044-.333.828 0 1.296.585 1.296 1.342 0 .594-.306 1.116-.873 1.377v.019c.522.144 1.026.611 1.026 1.539 0 .945-.612 1.72-1.674 1.72-.378 0-.792-.108-1.026-.271l.153-.55zm4.86-5.177c.837 0 1.261.702 1.261 1.378 0 .513-.243 1.008-.783 1.386v.019c.54.369.936.891.936 1.603 0 .909-.603 1.611-1.503 1.611-.972 0-1.458-.774-1.458-1.495 0-.828.486-1.35.963-1.683l-.009-.019c-.486-.333-.766-.846-.766-1.342 0-.899.64-1.458 1.351-1.458h.008zm-.063 5.483c.432 0 .792-.324.792-1.062 0-.675-.387-1.053-.837-1.35a1.564 1.564 0 0 0-.756 1.314c0 .657.297 1.098.792 1.098h.009zm.018-4.969c-.387 0-.648.368-.648.899 0 .595.36.892.72 1.126a1.33 1.33 0 0 0 .576-1.081c0-.566-.225-.944-.639-.944h-.009z"/><path fill="#ccc" fill-rule="evenodd" stroke="#000" d="M58.639 243.208h58.139v14H58.639z" clip-rule="evenodd" stroke-linecap="round" stroke-linejoin="round"/><path d="M66.127 247.51a1.96 1.96 0 0 0-.415.055c-.972.242-1.359 1.215-1.503 2.115h.027c.225-.333.549-.559.99-.559.738 0 1.26.685 1.26 1.801 0 1.107-.504 1.999-1.44 1.999-1.026 0-1.54-1.035-1.54-2.386 0-1.135.297-2.008.756-2.638a2.389 2.389 0 0 1 1.422-.919c.18-.035.333-.045.441-.054v.586zm-1.072 4.871c.387 0 .738-.388.738-1.404 0-.883-.315-1.324-.783-1.324-.297 0-.594.189-.765.631-.018.054-.045.18-.045.351.009 1.197.369 1.747.846 1.747h.009z"/><path fill="#f2f2f2" fill-rule="evenodd" stroke="#000" d="M116.777 134.5h111.862v24.708H116.777z" clip-rule="evenodd" stroke-linecap="round" stroke-linejoin="round"/><path d="M121.934 139.018a3.982 3.982 0 0 1 1.008-.117c.558 0 1.036.135 1.351.441.288.288.441.729.441 1.26 0 .559-.135.937-.369 1.242-.324.45-.891.676-1.431.676-.117 0-.207 0-.306-.009v2.484h-.693v-5.977zm.693 2.917c.081.009.162.018.279.018.675 0 1.135-.45 1.135-1.306 0-.621-.252-1.179-1.026-1.179-.162 0-.297.018-.387.045v2.422zm3.104.945c.009 1.341.531 1.62 1.026 1.62.306 0 .549-.072.72-.162l.117.504c-.243.136-.612.207-.963.207-1.035 0-1.576-.846-1.576-2.188 0-1.413.594-2.296 1.468-2.296.882 0 1.242.937 1.242 1.918 0 .171-.009.288-.018.396h-2.016zm1.369-.514c.009-.873-.315-1.261-.648-1.261-.45 0-.684.667-.711 1.261h1.359zm1.403-.603c0-.368-.027-.801-.036-1.125h.622l.036.685h.018c.144-.414.513-.757.918-.757.054 0 .099 0 .144.01v.711c-.045-.009-.09-.009-.144-.009-.441 0-.765.404-.837.909a2.566 2.566 0 0 0-.027.396v2.413h-.693v-3.233zm4.24 3.124c-.153.091-.414.162-.72.162-.954 0-1.594-.765-1.594-2.205 0-1.252.63-2.269 1.72-2.269.234 0 .486.062.612.144l-.135.559a1.13 1.13 0 0 0-.495-.117c-.702 0-1.008.828-1.008 1.684 0 1.017.387 1.629 1.026 1.629.18 0 .342-.036.495-.117l.099.53zm1.026-2.007c.009 1.341.531 1.62 1.026 1.62.306 0 .549-.072.72-.162l.117.504c-.243.136-.612.207-.963.207-1.035 0-1.576-.846-1.576-2.188 0-1.413.594-2.296 1.468-2.296.882 0 1.242.937 1.242 1.918 0 .171-.009.288-.018.396h-2.016zm1.368-.514c.009-.873-.315-1.261-.648-1.261-.45 0-.684.667-.711 1.261h1.359zm1.412-.603c0-.513-.027-.773-.036-1.125h.603l.036.522h.018c.189-.352.54-.595.999-.595.604 0 1.054.441 1.054 1.504v2.926h-.693v-2.809c0-.522-.099-1.035-.603-1.035-.288 0-.567.243-.648.711a1.57 1.57 0 0 0-.036.387v2.746h-.693v-3.232zm4.438-2.143v1.018h.837v.522h-.837v2.593c0 .576.198.72.45.72.117 0 .207-.009.279-.026l.036.531a1.522 1.522 0 0 1-.513.071c-.279 0-.522-.071-.684-.261-.18-.198-.261-.495-.261-1.099v-2.529h-.531v-.522h.531v-.738l.693-.28zm3.744 4.385c0 .333 0 .711.045.99h-.621l-.045-.459h-.027c-.189.333-.495.531-.864.531-.585 0-1.036-.486-1.036-1.242 0-1.099.874-1.576 1.854-1.585v-.135c0-.585-.144-.99-.693-.99-.27 0-.513.081-.72.225l-.153-.486c.189-.135.585-.288 1.018-.288.873 0 1.242.576 1.242 1.549v1.89zm-.675-1.27c-.36 0-1.197.072-1.197 1.018 0 .576.288.774.531.774.306 0 .558-.226.639-.657a1.2 1.2 0 0 0 .027-.252v-.883zm4.284 1.702c0 1.144-.144 1.576-.432 1.9-.27.288-.675.459-1.161.459-.369 0-.729-.09-.954-.216l.162-.541c.171.091.459.189.801.189.549 0 .892-.342.892-1.332v-.441h-.018a.873.873 0 0 1-.828.531c-.774 0-1.279-.873-1.279-2.152 0-1.611.72-2.269 1.369-2.269.459 0 .675.307.81.559h.018l.036-.486h.621c-.009.297-.036.685-.036 1.359v2.44zm-.693-2.295c0-.117-.009-.226-.036-.324-.072-.288-.234-.657-.63-.657-.495 0-.765.675-.765 1.639 0 1.116.351 1.62.765 1.62.216 0 .486-.099.622-.621.045-.135.045-.271.045-.396v-1.261zm2.141.738c.009 1.341.531 1.62 1.026 1.62.306 0 .549-.072.72-.162l.117.504c-.243.136-.612.207-.963.207-1.035 0-1.576-.846-1.576-2.188 0-1.413.594-2.296 1.468-2.296.882 0 1.242.937 1.242 1.918 0 .171-.009.288-.018.396h-2.016zm1.369-.514c.009-.873-.315-1.261-.648-1.261-.45 0-.684.667-.711 1.261h1.359zm4.05 2.701c-.783 0-1.414-.712-1.414-2.242 0-1.593.711-2.26 1.458-2.26.783 0 1.405.721 1.405 2.242 0 1.692-.774 2.26-1.44 2.26h-.009zm.036-.549c.594 0 .72-1.017.72-1.701 0-.675-.126-1.701-.738-1.701-.621 0-.738 1.026-.738 1.701 0 .721.126 1.701.747 1.701h.009zm2.33.477v-3.835h-.549v-.522h.549v-.27c0-.469.072-.955.387-1.306a1.18 1.18 0 0 1 .874-.369c.234 0 .414.045.54.107l-.108.541a.982.982 0 0 0-.387-.072c-.495 0-.612.531-.612 1.089v.279h.792v.522h-.792v3.835h-.694zm4.167-5.375v1.018h.837v.522h-.837v2.593c0 .576.198.72.45.72.117 0 .207-.009.279-.026l.036.531a1.522 1.522 0 0 1-.513.071c-.279 0-.522-.071-.684-.261-.18-.198-.261-.495-.261-1.099v-2.529h-.531v-.522h.531v-.738l.693-.28zm2.601 5.447c-.783 0-1.414-.712-1.414-2.242 0-1.593.711-2.26 1.458-2.26.783 0 1.405.721 1.405 2.242 0 1.692-.774 2.26-1.44 2.26h-.009zm.036-.549c.594 0 .72-1.017.72-1.701 0-.675-.126-1.701-.738-1.701-.621 0-.738 1.026-.738 1.701 0 .721.126 1.701.747 1.701h.009zm3.034-4.898v1.018h.837v.522h-.837v2.593c0 .576.197.72.45.72.116 0 .207-.009.278-.026l.036.531a1.522 1.522 0 0 1-.513.071c-.279 0-.522-.071-.685-.261-.18-.198-.261-.495-.261-1.099v-2.529h-.531v-.522h.531v-.738l.695-.28zm3.744 4.385c0 .333 0 .711.045.99h-.621l-.045-.459h-.027c-.189.333-.495.531-.864.531-.585 0-1.035-.486-1.035-1.242 0-1.099.873-1.576 1.854-1.585v-.135c0-.585-.145-.99-.693-.99-.27 0-.513.081-.72.225l-.153-.486c.189-.135.585-.288 1.018-.288.873 0 1.242.576 1.242 1.549v1.89zm-.676-1.27c-.359 0-1.197.072-1.197 1.018 0 .576.288.774.531.774.307 0 .559-.226.64-.657.018-.081.026-.171.026-.252v-.883zm1.656-3.969h.692v6.229h-.692v-6.229z"/><path fill="#f2f2f2" fill-rule="evenodd" stroke="#000" d="M116.777 159.208h111.862v14H116.777z" clip-rule="evenodd" stroke-linecap="round" stroke-linejoin="round"/><path d="M123.5 168.849v-1.62h-1.944v-.469l1.899-3.763h.675v3.664h.63v.567h-.63v1.62h-.63zm0-2.187v-1.647c0-.405.027-.766.054-1.152h-.036c-.198.468-.324.738-.495 1.098l-.81 1.684v.019h1.287zm2.25 2.259c-.252 0-.45-.207-.45-.522 0-.306.207-.522.459-.522.27 0 .459.207.459.522s-.171.522-.459.522h-.009zm2.961-.072v-1.62h-1.944v-.469l1.899-3.763h.675v3.664h.63v.567h-.63v1.62h-.63zm0-2.187v-1.647c0-.405.027-.766.054-1.152h-.036c-.198.468-.324.738-.495 1.098l-.81 1.684v.019h1.287zm3.06 2.259c-.909 0-1.458-1.081-1.458-2.989 0-1.972.585-3.007 1.54-3.007.945 0 1.44 1.125 1.44 2.989 0 2.134-.675 3.007-1.513 3.007h-.009zm.045-.594c.558 0 .783-.999.783-2.403 0-1.368-.225-2.403-.783-2.403-.567 0-.811.99-.811 2.403-.009 1.413.234 2.403.801 2.403h.01zm3.104-5.402c.657 0 1.089.702 1.089 1.765 0 1.233-.54 1.782-1.098 1.782-.648 0-1.107-.675-1.107-1.765 0-1.125.486-1.782 1.107-1.782h.009zm-.026.433c-.441 0-.558.747-.558 1.341 0 .612.117 1.342.576 1.342s.567-.738.567-1.342c0-.576-.099-1.341-.576-1.341h-.009zm-.244 5.617l3.115-6.095h.441l-3.115 6.095h-.441zm3.331-3.61c.657 0 1.089.702 1.089 1.773 0 1.225-.54 1.774-1.098 1.774-.648 0-1.107-.676-1.107-1.765 0-1.116.486-1.783 1.107-1.783h.009zm-.026.432c-.441 0-.558.747-.558 1.341 0 .612.135 1.342.576 1.342.459 0 .567-.738.567-1.332 0-.586-.099-1.351-.576-1.351h-.009z"/><path fill="#f2f2f2" fill-rule="evenodd" stroke="#000" d="M116.777 173.208h111.862v14H116.777z" clip-rule="evenodd" stroke-linecap="round" stroke-linejoin="round"/><path d="M123.194 176.925c.837 0 1.261.702 1.261 1.378 0 .513-.243 1.008-.783 1.386v.019c.54.369.936.891.936 1.603 0 .909-.603 1.611-1.503 1.611-.972 0-1.458-.774-1.458-1.495 0-.828.486-1.35.963-1.683l-.009-.019c-.486-.333-.766-.846-.766-1.342 0-.899.64-1.458 1.351-1.458h.008zm-.063 5.483c.432 0 .792-.324.792-1.062 0-.675-.387-1.053-.837-1.35a1.564 1.564 0 0 0-.756 1.314c0 .657.297 1.098.792 1.098h.009zm.018-4.969c-.387 0-.648.368-.648.899 0 .595.36.892.72 1.126a1.33 1.33 0 0 0 .576-1.081c0-.566-.225-.944-.639-.944h-.009zm2.601 5.482c-.252 0-.45-.207-.45-.522 0-.306.207-.522.459-.522.27 0 .459.207.459.522s-.171.522-.459.522h-.009zm2.556 0c-.909 0-1.459-1.081-1.459-2.989 0-1.972.585-3.007 1.54-3.007.945 0 1.44 1.125 1.44 2.989 0 2.134-.675 3.007-1.513 3.007h-.008zm.045-.594c.558 0 .783-.999.783-2.403 0-1.368-.225-2.403-.783-2.403-.567 0-.811.99-.811 2.403-.009 1.413.234 2.403.801 2.403h.01zm4.869-5.329v.414l-1.891 5.438h-.675l1.855-5.222v-.018h-2.107v-.612h2.818zm1.7-.073c.657 0 1.089.702 1.089 1.765 0 1.233-.54 1.782-1.098 1.782-.648 0-1.107-.675-1.107-1.765 0-1.125.486-1.782 1.107-1.782h.009zm-.026.433c-.441 0-.558.747-.558 1.341 0 .612.117 1.342.576 1.342s.567-.738.567-1.342c0-.576-.099-1.341-.576-1.341h-.009zm-.244 5.617l3.115-6.095h.441l-3.115 6.095h-.441zm3.331-3.61c.657 0 1.089.702 1.089 1.773 0 1.225-.54 1.774-1.098 1.774-.648 0-1.107-.676-1.107-1.765 0-1.116.486-1.783 1.107-1.783h.009zm-.026.432c-.441 0-.558.747-.558 1.341 0 .612.135 1.342.576 1.342.459 0 .567-.738.567-1.332 0-.586-.099-1.351-.576-1.351h-.009z"/><path fill="#f2f2f2" fill-rule="evenodd" stroke="#000" d="M116.777 187.208h111.862v14H116.777z" clip-rule="evenodd" stroke-linecap="round" stroke-linejoin="round"/><path d="M123.5 196.849v-1.62h-1.944v-.469l1.899-3.763h.675v3.664h.63v.567h-.63v1.62h-.63zm0-2.187v-1.647c0-.405.027-.766.054-1.152h-.036c-.198.468-.324.738-.495 1.098l-.81 1.684v.019h1.287zm3.051-2.962h-.018l-.972.558-.135-.54 1.233-.72h.567v5.852h-.675v-5.15zm2.663 5.221c-.252 0-.45-.207-.45-.522 0-.306.207-.522.459-.522.27 0 .459.207.459.522s-.171.522-.459.522h-.009zm2.557 0c-.909 0-1.458-1.081-1.458-2.989 0-1.972.585-3.007 1.54-3.007.945 0 1.44 1.125 1.44 2.989 0 2.134-.675 3.007-1.513 3.007h-.009zm.045-.594c.558 0 .783-.999.783-2.403 0-1.368-.225-2.403-.783-2.403-.567 0-.811.99-.811 2.403-.009 1.413.234 2.403.801 2.403h.01zm3.519-5.402c.837 0 1.261.702 1.261 1.378 0 .513-.243 1.008-.783 1.386v.019c.54.369.936.891.936 1.603 0 .909-.603 1.611-1.503 1.611-.972 0-1.458-.774-1.458-1.495 0-.828.486-1.35.963-1.683l-.009-.019c-.486-.333-.766-.846-.766-1.342 0-.899.64-1.458 1.351-1.458h.008zm-.063 5.483c.432 0 .792-.324.792-1.062 0-.675-.387-1.053-.837-1.35a1.564 1.564 0 0 0-.756 1.314c0 .657.297 1.098.792 1.098h.009zm.018-4.969c-.387 0-.648.368-.648.899 0 .595.36.892.72 1.126a1.33 1.33 0 0 0 .576-1.081c0-.566-.225-.944-.639-.944h-.009zm3.095-.514c.657 0 1.089.702 1.089 1.765 0 1.233-.54 1.782-1.098 1.782-.648 0-1.107-.675-1.107-1.765 0-1.125.486-1.782 1.107-1.782h.009zm-.027.433c-.441 0-.558.747-.558 1.341 0 .612.117 1.342.576 1.342s.567-.738.567-1.342c0-.576-.099-1.341-.576-1.341h-.009zm-.243 5.617l3.115-6.095h.441l-3.115 6.095h-.441zm3.331-3.61c.657 0 1.089.702 1.089 1.773 0 1.225-.54 1.774-1.098 1.774-.648 0-1.107-.676-1.107-1.765 0-1.116.486-1.783 1.107-1.783h.009zm-.027.432c-.441 0-.558.747-.558 1.341 0 .612.135 1.342.576 1.342.459 0 .567-.738.567-1.332 0-.586-.099-1.351-.576-1.351h-.009z"/><path fill="#f2f2f2" fill-rule="evenodd" stroke="#000" d="M116.777 201.208h111.862v14H116.777z" clip-rule="evenodd" stroke-linecap="round" stroke-linejoin="round"/><path d="M124.392 205.61h-1.576l-.243 1.558c.072-.019.135-.019.216-.019.315 0 .81.145 1.116.441.315.306.495.738.495 1.332 0 1.171-.738 1.999-1.773 1.999-.36 0-.765-.1-1-.252l.153-.55c.18.1.495.226.819.226.594 0 1.107-.45 1.107-1.351 0-.928-.567-1.314-1.323-1.314-.216 0-.351.009-.459.027l.369-2.71h2.098v.613zm1.358 5.311c-.252 0-.45-.207-.45-.522 0-.306.207-.522.459-.522.27 0 .459.207.459.522s-.171.522-.459.522h-.009zm1.26-.819c.18.107.495.243.846.243.603 0 1.008-.441 1.008-1.161 0-.766-.477-1.216-1.179-1.216h-.162v-.522h.135c.414 0 1.053-.314 1.053-1.044 0-.595-.315-.9-.774-.9-.288 0-.54.145-.729.279l-.144-.522c.207-.171.604-.333 1.044-.333.828 0 1.296.585 1.296 1.342 0 .594-.306 1.116-.873 1.377v.019c.522.144 1.026.611 1.026 1.539 0 .945-.612 1.72-1.674 1.72-.378 0-.792-.108-1.026-.271l.153-.55zm4.86-5.177c.837 0 1.261.702 1.261 1.378 0 .513-.243 1.008-.783 1.386v.019c.54.369.936.891.936 1.603 0 .909-.603 1.611-1.503 1.611-.972 0-1.458-.774-1.458-1.495 0-.828.486-1.35.963-1.683l-.009-.019c-.486-.333-.766-.846-.766-1.342 0-.899.64-1.458 1.351-1.458h.008zm-.063 5.483c.432 0 .792-.324.792-1.062 0-.675-.387-1.053-.837-1.35a1.564 1.564 0 0 0-.756 1.314c0 .657.297 1.098.792 1.098h.009zm.018-4.969c-.387 0-.648.368-.648.899 0 .595.36.892.72 1.126a1.33 1.33 0 0 0 .576-1.081c0-.566-.225-.944-.639-.944h-.009zm3.095-.514c.657 0 1.089.702 1.089 1.765 0 1.233-.54 1.782-1.098 1.782-.648 0-1.107-.675-1.107-1.765 0-1.125.486-1.782 1.107-1.782h.009zm-.026.433c-.441 0-.558.747-.558 1.341 0 .612.117 1.342.576 1.342s.567-.738.567-1.342c0-.576-.099-1.341-.576-1.341h-.009zm-.244 5.617l3.115-6.095h.441l-3.115 6.095h-.441zm3.331-3.61c.657 0 1.089.702 1.089 1.773 0 1.225-.54 1.774-1.098 1.774-.648 0-1.107-.676-1.107-1.765 0-1.116.486-1.783 1.107-1.783h.009zm-.026.432c-.441 0-.558.747-.558 1.341 0 .612.135 1.342.576 1.342.459 0 .567-.738.567-1.332 0-.586-.099-1.351-.576-1.351h-.009z"/><path fill="#f2f2f2" fill-rule="evenodd" stroke="#000" d="M116.777 215.208h111.862v14H116.777z" clip-rule="evenodd" stroke-linecap="round" stroke-linejoin="round"/><path d="M121.799 224.102c.18.107.495.243.846.243.603 0 1.008-.441 1.008-1.161 0-.766-.477-1.216-1.179-1.216h-.162v-.522h.135c.414 0 1.053-.314 1.053-1.044 0-.595-.315-.9-.774-.9-.288 0-.54.145-.729.279l-.144-.522c.207-.171.604-.333 1.044-.333.828 0 1.296.585 1.296 1.342 0 .594-.306 1.116-.873 1.377v.019c.522.144 1.026.611 1.026 1.539 0 .945-.612 1.72-1.674 1.72-.378 0-.792-.108-1.026-.271l.153-.55zm4.761.819c-.909 0-1.458-1.081-1.458-2.989 0-1.972.585-3.007 1.54-3.007.945 0 1.44 1.125 1.44 2.989 0 2.134-.675 3.007-1.513 3.007h-.009zm.045-.594c.558 0 .783-.999.783-2.403 0-1.368-.225-2.403-.783-2.403-.567 0-.811.99-.811 2.403-.009 1.413.234 2.403.801 2.403h.01zm2.609.594c-.252 0-.45-.207-.45-.522 0-.306.207-.522.459-.522.27 0 .459.207.459.522s-.171.522-.459.522h-.009zm1.261-.819c.18.107.495.243.846.243.603 0 1.008-.441 1.008-1.161 0-.766-.477-1.216-1.179-1.216h-.162v-.522h.135c.414 0 1.053-.314 1.053-1.044 0-.595-.315-.9-.774-.9-.288 0-.54.145-.729.279l-.144-.522c.207-.171.604-.333 1.044-.333.828 0 1.296.585 1.296 1.342 0 .594-.306 1.116-.873 1.377v.019c.522.144 1.026.611 1.026 1.539 0 .945-.612 1.72-1.674 1.72-.378 0-.792-.108-1.026-.271l.153-.55zm3.347.747v-.45l.486-.666c.702-.973 1.521-2.07 1.521-3.169 0-.648-.279-1.044-.829-1.044-.423 0-.702.225-.846.323l-.171-.521a1.831 1.831 0 0 1 1.143-.396c.973 0 1.396.721 1.396 1.603 0 1.099-.72 2.17-1.449 3.151l-.387.54v.018h1.945v.612h-2.809zm4.563-5.924c.657 0 1.089.702 1.089 1.765 0 1.233-.54 1.782-1.098 1.782-.648 0-1.107-.675-1.107-1.765 0-1.125.486-1.782 1.107-1.782h.009zm-.027.433c-.441 0-.558.747-.558 1.341 0 .612.117 1.342.576 1.342s.567-.738.567-1.342c0-.576-.099-1.341-.576-1.341h-.009zm-.243 5.617l3.115-6.095h.441l-3.115 6.095h-.441zm3.331-3.61c.657 0 1.089.702 1.089 1.773 0 1.225-.54 1.774-1.098 1.774-.648 0-1.107-.676-1.107-1.765 0-1.116.486-1.783 1.107-1.783h.009zm-.027.432c-.441 0-.558.747-.558 1.341 0 .612.135 1.342.576 1.342.459 0 .567-.738.567-1.332 0-.586-.099-1.351-.576-1.351h-.009z"/><path fill="#f2f2f2" fill-rule="evenodd" stroke="#000" d="M116.777 229.208h111.862v14H116.777z" clip-rule="evenodd" stroke-linecap="round" stroke-linejoin="round"/><path d="M121.997 238.327c.144 0 .279-.018.432-.054.297-.072.585-.234.801-.459.324-.352.585-.892.685-1.656h-.018c-.216.27-.531.485-.955.485-.738 0-1.287-.675-1.287-1.737s.585-1.98 1.485-1.98c1.008 0 1.467 1.062 1.467 2.35 0 1.161-.288 2.062-.774 2.71a2.262 2.262 0 0 1-1.359.882c-.18.046-.333.055-.478.055v-.596zm1.098-4.862c-.351 0-.756.378-.748 1.387 0 .855.324 1.27.792 1.27.288 0 .576-.198.72-.522.045-.09.054-.171.054-.369 0-1.233-.352-1.765-.811-1.765h-.007zm2.655 5.456c-.252 0-.45-.207-.45-.522 0-.306.207-.522.459-.522.27 0 .459.207.459.522s-.171.522-.459.522h-.009zm1.143-.072v-.45l.486-.666c.702-.973 1.521-2.07 1.521-3.169 0-.648-.279-1.044-.829-1.044-.423 0-.702.225-.846.323l-.171-.521a1.831 1.831 0 0 1 1.143-.396c.973 0 1.396.721 1.396 1.603 0 1.099-.72 2.17-1.449 3.151l-.387.54v.018h1.945v.612h-2.809zm3.779-.522c.144 0 .279-.018.432-.054.297-.072.585-.234.801-.459.324-.352.585-.892.685-1.656h-.018c-.216.27-.531.485-.955.485-.738 0-1.287-.675-1.287-1.737s.585-1.98 1.485-1.98c1.008 0 1.467 1.062 1.467 2.35 0 1.161-.288 2.062-.774 2.71a2.262 2.262 0 0 1-1.359.882c-.18.046-.333.055-.478.055v-.596zm1.099-4.862c-.351 0-.756.378-.748 1.387 0 .855.324 1.27.792 1.27.288 0 .576-.198.72-.522.045-.09.054-.171.054-.369 0-1.233-.352-1.765-.811-1.765h-.007zm3.149-.54c.657 0 1.089.702 1.089 1.765 0 1.233-.54 1.782-1.098 1.782-.648 0-1.107-.675-1.107-1.765 0-1.125.486-1.782 1.107-1.782h.009zm-.026.433c-.441 0-.558.747-.558 1.341 0 .612.117 1.342.576 1.342s.567-.738.567-1.342c0-.576-.099-1.341-.576-1.341h-.009zm-.244 5.617l3.115-6.095h.441l-3.115 6.095h-.441zm3.331-3.61c.657 0 1.089.702 1.089 1.773 0 1.225-.54 1.774-1.098 1.774-.648 0-1.107-.676-1.107-1.765 0-1.116.486-1.783 1.107-1.783h.009zm-.026.432c-.441 0-.558.747-.558 1.341 0 .612.135 1.342.576 1.342.459 0 .567-.738.567-1.332 0-.586-.099-1.351-.576-1.351h-.009z"/><path fill="#f2f2f2" fill-rule="evenodd" stroke="#000" d="M116.777 243.208h111.862v14H116.777z" clip-rule="evenodd" stroke-linecap="round" stroke-linejoin="round"/><path d="M123.086 247.7h-.018l-.972.558-.135-.54 1.233-.72h.567v5.852h-.675v-5.15zm2.664 5.221c-.252 0-.45-.207-.45-.522 0-.306.207-.522.459-.522.27 0 .459.207.459.522s-.171.522-.459.522h-.009zm2.961-.072v-1.62h-1.944v-.469l1.899-3.763h.675v3.664h.63v.567h-.63v1.62h-.63zm0-2.187v-1.647c0-.405.027-.766.054-1.152h-.036c-.198.468-.324.738-.495 1.098l-.81 1.684v.019h1.287zm4.509-3.664v.414l-1.891 5.438h-.675l1.855-5.222v-.018h-2.107v-.612h2.818zm1.7-.073c.657 0 1.089.702 1.089 1.765 0 1.233-.54 1.782-1.098 1.782-.648 0-1.107-.675-1.107-1.765 0-1.125.486-1.782 1.107-1.782h.009zm-.026.433c-.441 0-.558.747-.558 1.341 0 .612.117 1.342.576 1.342s.567-.738.567-1.342c0-.576-.099-1.341-.576-1.341h-.009zm-.244 5.617l3.115-6.095h.441l-3.115 6.095h-.441zm3.331-3.61c.657 0 1.089.702 1.089 1.773 0 1.225-.54 1.774-1.098 1.774-.648 0-1.107-.676-1.107-1.765 0-1.116.486-1.783 1.107-1.783h.009zm-.026.432c-.441 0-.558.747-.558 1.341 0 .612.135 1.342.576 1.342.459 0 .567-.738.567-1.332 0-.586-.099-1.351-.576-1.351h-.009z"/><path fill="#0071bc" fill-rule="evenodd" d="M147.835 163.281h10.971v5.854h-10.971zm-.002 14h19.222v5.854h-19.222zm0 14h76.722v5.854h-76.722zm.002 14h13.802v5.854h-13.802zm-.002 14h63.222v5.854h-63.222zm0 14h23.472v5.854h-23.472zm-.118 14h1.962v5.854h-1.962z" clip-rule="evenodd"/></svg>