<svg xmlns="http://www.w3.org/2000/svg" viewBox="0 0 294.155 73.143"><path fill="#fddfbb" fill-rule="evenodd" d="M197.429 3.38h58.586v12.943h-58.586z" clip-rule="evenodd"/><path fill="none" stroke="#000" d="M197.429 3.38h58.586v12.943h-58.586z" stroke-linecap="round" stroke-linejoin="round"/><path fill="#fddfbb" fill-rule="evenodd" d="M197.429 16.323h58.586v12.943h-58.586z" clip-rule="evenodd"/><path fill="none" stroke="#000" d="M197.429 16.323h58.586v12.943h-58.586zM.86 42.208h55.704" stroke-linecap="round" stroke-linejoin="round"/><path d="M55.688 45.209l5.182-2.991-5.182-2.991z"/><path fill="none" stroke="#000" d="M206.564 36.208h-55.703" stroke-linecap="round" stroke-linejoin="round"/><path d="M151.736 33.208l-5.181 2.991 5.181 2.991z"/><path fill="none" stroke="#000" d="M136.861 48.208h55.703" stroke-linecap="round" stroke-linejoin="round"/><path d="M191.689 51.209l5.181-2.991-5.181-2.991z"/><ellipse cx="14.109" cy="53.34" fill="#998675" fill-rule="evenodd" rx="2.562" ry=".5" clip-rule="evenodd"/><path fill="#998675" d="M16.732 36.971l-.061 15.721c0 .275-1.146.5-2.561.5-1.416 0-2.562-.225-2.562-.5l.059-15.721s-.125-3.828 2.562-3.828c2.626 0 2.563 3.828 2.563 3.828z"/><path fill="#9e8c7c" d="M2.523 40.735c.082-5.734 6.426-6.57 8.121-6.465 2.805.176 4.469 1.527 4.615 4.164.006.135-.004.268-.029.398l.031-.129v17.844c.047 1.141-1.912 3.5-6.631 4.141-4.895.664-6.137-1.391-6.137-1.875l.03-18.078z"/><ellipse cx="2.984" cy="59.09" fill="#998675" fill-rule="evenodd" rx="2.562" ry=".5" clip-rule="evenodd"/><path fill="#998675" d="M11.351 34.602c1.662.39 1.889 1.526.508 2.539-1.381 1.012-3.846 1.516-5.506 1.127-1.662-.391-1.889-1.527-.508-2.539 1.382-1.014 3.846-1.518 5.506-1.127z"/><path fill="#c7b299" d="M7.713 36.282c-4.82-1.174-5.748-9.28-1.377-12.045 1.338-.846 2.619-.705 3.268-.578 2.865.73 3.938 3.623 4.121 5.217.4 3.506-1.154 5.826-2.744 6.828-1.419.894-2.758.702-3.268.578z"/><path fill="#a8988a" d="M5.607 42.721l-.06 15.721c0 .275-1.146.5-2.561.5-1.416 0-2.562-.225-2.562-.5l.059-15.721s-.125-3.828 2.562-3.828c2.625 0 2.562 3.828 2.562 3.828z"/><path fill="none" stroke="#000" d="M14.248 33.143c-.494 0-.893.131-1.215.344.623-1.182.986-2.717.769-4.611-.184-1.594-1.256-4.486-4.121-5.217-.648-.127-1.93-.268-3.268.578-3.742 2.366-3.592 8.633-.451 11.129-1.346.701-2.561 1.816-3.084 3.55C.45 39.147.56 42.722.56 42.722l-.058 15.72-.002.648.602.5h1.883c.389 0 1.123.979 3.117 1.229 1.994.25 6-.926 6-.926 3.16-.803 3.16-3.346 3.16-3.346V53.84l1.488-.5v-.648l.06-15.721s.063-3.828-2.562-3.828z" stroke-linecap="round" stroke-linejoin="round"/><path fill="#ecbec0" fill-rule="evenodd" d="M61.543 29.266h25.886v25.886H61.543z" clip-rule="evenodd"/><path fill="none" stroke="#000" d="M61.543 29.266h25.886v25.886H61.543z" stroke-linecap="round" stroke-linejoin="round"/><path fill="#ecbec0" fill-rule="evenodd" d="M87.429 29.266h58.586v12.943H87.429z" clip-rule="evenodd"/><path fill="none" stroke="#000" d="M87.429 29.266h58.586v12.943H87.429z" stroke-linecap="round" stroke-linejoin="round"/><path fill="#ecbec0" fill-rule="evenodd" d="M87.429 42.208h58.586v12.943H87.429z" clip-rule="evenodd"/><path fill="none" stroke="#000" d="M87.429 42.208h58.586v12.943H87.429z" stroke-linecap="round" stroke-linejoin="round"/><path fill="#ecbec0" fill-rule="evenodd" d="M197.429 29.266h58.586v12.943h-58.586z" clip-rule="evenodd"/><path fill="none" stroke="#000" d="M197.429 29.266h58.586v12.943h-58.586z" stroke-linecap="round" stroke-linejoin="round"/><path fill="#ecbec0" fill-rule="evenodd" d="M197.429 42.208h58.586v12.943h-58.586z" clip-rule="evenodd"/><path fill="none" stroke="#000" d="M197.429 42.208h58.586v12.943h-58.586z" stroke-linecap="round" stroke-linejoin="round"/><path fill="#fddfbb" fill-rule="evenodd" d="M256.015 3.38h31.667v51.771h-31.667z" clip-rule="evenodd"/><path fill="none" stroke="#000" d="M256.015 3.38h31.667v51.771h-31.667z" stroke-linecap="round" stroke-linejoin="round"/><path d="M30.199 33.383v1.152h.837v.531h-.837v2.584c0 .567.207.72.459.72.108 0 .198-.009.279-.026l.027.531a1.522 1.522 0 0 1-.513.071c-.27 0-.513-.071-.684-.261-.171-.198-.261-.495-.261-1.099v-2.521h-.531v-.531h.531v-.954l.693-.197zm1.44 2.278c0-.368-.027-.801-.036-1.125h.622l.036.685h.018c.144-.414.513-.757.918-.757.054 0 .099.01.144.01v.711c-.045-.009-.09-.009-.144-.009-.441 0-.765.404-.837.909a2.65 2.65 0 0 0-.027.396v2.413h-.693v-3.233zm4.825 2.044c0 .486.027.864.036 1.188h-.603l-.045-.459h-.018c-.135.216-.468.531-.937.531-.765 0-1.062-.595-1.062-1.675v-2.755h.693v2.656c0 .684.108 1.188.585 1.188.405 0 .585-.379.621-.576.027-.117.036-.253.036-.396v-2.872h.693v3.17zm.854.468c.153.099.423.225.702.225.396 0 .639-.243.639-.63 0-.333-.117-.559-.558-.855-.567-.369-.873-.738-.873-1.242 0-.702.522-1.207 1.197-1.207.342 0 .603.117.783.226l-.189.522a1.024 1.024 0 0 0-.576-.189.534.534 0 0 0-.567.549c0 .298.108.459.54.757.504.324.9.72.9 1.323 0 .873-.594 1.296-1.305 1.296-.324 0-.675-.099-.864-.252l.171-.523zm3.564-4.79v1.152h.837v.531h-.837v2.584c0 .567.207.72.459.72.108 0 .198-.009.279-.026l.027.531a1.522 1.522 0 0 1-.513.071c-.27 0-.513-.071-.684-.261-.171-.198-.261-.495-.261-1.099v-2.521h-.531v-.531h.531v-.954l.693-.197zm1.331 4.79c.153.099.423.225.702.225.396 0 .639-.243.639-.63 0-.333-.117-.559-.558-.855-.567-.369-.873-.738-.873-1.242 0-.702.522-1.207 1.197-1.207.342 0 .603.117.783.226l-.189.522a1.024 1.024 0 0 0-.576-.189.534.534 0 0 0-.567.549c0 .298.108.459.54.757.504.324.9.72.9 1.323 0 .873-.594 1.296-1.305 1.296-.324 0-.675-.099-.864-.252l.171-.523zm123.706-10.762c.01.27-.162.45-.423.45-.226 0-.396-.181-.396-.45 0-.271.18-.45.404-.45.253-.001.415.179.415.45zm-.746 5.482v-4.357h.692v4.357h-.692zm1.538-.72c.153.099.423.225.702.225.396 0 .639-.243.639-.63 0-.333-.117-.559-.558-.855-.567-.369-.873-.738-.873-1.242 0-.702.522-1.207 1.197-1.207.342 0 .603.117.783.226l-.188.522a1.026 1.026 0 0 0-.576-.189c-.379 0-.568.271-.568.549 0 .298.108.459.541.757.504.324.9.72.9 1.323 0 .873-.595 1.296-1.306 1.296-.324 0-.675-.099-.864-.252l.171-.523zm2.601 0c.153.099.424.225.703.225.396 0 .639-.243.639-.63 0-.333-.117-.559-.559-.855-.566-.369-.873-.738-.873-1.242 0-.702.522-1.207 1.197-1.207.342 0 .604.117.783.226l-.188.522a1.024 1.024 0 0 0-.576-.189.534.534 0 0 0-.567.549c0 .298.107.459.54.757.505.324.9.72.9 1.323 0 .873-.595 1.296-1.306 1.296-.324 0-.675-.099-.863-.252l.17-.523zm5.328-.468c0 .486.027.864.037 1.188h-.604l-.045-.459h-.018c-.136.216-.469.531-.938.531-.765 0-1.062-.595-1.062-1.675v-2.755h.692v2.656c0 .684.109 1.188.586 1.188.405 0 .585-.379.621-.576.027-.117.036-.253.036-.396v-2.872h.692v3.17zm1.458-.927c.009 1.332.531 1.62 1.036 1.62.297 0 .549-.072.72-.171l.108.513c-.244.136-.613.207-.955.207-1.044 0-1.584-.854-1.584-2.188 0-1.413.594-2.296 1.467-2.296.892 0 1.242.937 1.242 1.927 0 .162 0 .279-.008.388h-2.026zm1.368-.514c.019-.873-.314-1.261-.648-1.261-.449 0-.684.667-.711 1.261h1.359zm1.405-.603c0-.368-.027-.801-.037-1.125h.622l.036.685h.018c.145-.414.514-.757.918-.757.055 0 .1.01.145.01v.711c-.045-.009-.09-.009-.145-.009-.441 0-.765.404-.837.909a2.53 2.53 0 0 0-.026.396v2.413h-.693v-3.233zm-15.273 22.875l.549 2.449c.063.297.136.684.189 1.062h.026c.045-.359.117-.729.181-1.062l.54-2.449h.684l-1.134 4.357h-.621l-1.134-4.357h.72zm3.141 2.242c.009 1.332.531 1.62 1.036 1.62.297 0 .549-.072.72-.171l.108.513c-.244.136-.613.207-.955.207-1.044 0-1.584-.854-1.584-2.188 0-1.413.594-2.296 1.467-2.296.892 0 1.242.937 1.242 1.927 0 .162 0 .279-.008.388h-2.026zm1.368-.514c.019-.873-.314-1.261-.648-1.261-.449 0-.684.667-.711 1.261h1.359zm1.404-.603c0-.368-.027-.801-.037-1.125h.622l.036.685h.018c.145-.414.514-.757.918-.757.055 0 .1.01.145.01v.711c-.045-.009-.09-.009-.145-.009-.441 0-.765.404-.837.909a2.53 2.53 0 0 0-.026.396v2.413h-.693v-3.233zm2.988-2.25c.008.27-.162.45-.424.45-.225 0-.396-.181-.396-.45 0-.271.181-.45.406-.45.252-.001.414.179.414.45zm-.748 5.482v-4.357h.693v4.357h-.693zm1.801 0v-3.826h-.55v-.531h.55v-.288c0-.774.377-1.656 1.584-1.656.369 0 .693.107.855.207l-.153.54a1.721 1.721 0 0 0-.72-.171c-.703 0-.874.486-.874 1.152v.216h1.954v4.357h-.693v-3.826h-1.261v3.826h-.692zm4.104-2.115c.01 1.332.531 1.62 1.035 1.62.297 0 .549-.072.721-.171l.107.513c-.242.136-.611.207-.954.207-1.044 0-1.585-.854-1.585-2.188 0-1.413.595-2.296 1.469-2.296.891 0 1.242.937 1.242 1.927 0 .162 0 .279-.01.388h-2.025zm1.369-.514c.018-.873-.316-1.261-.648-1.261-.451 0-.685.667-.711 1.261h1.359zm1.295 1.909c.152.099.422.225.701.225.396 0 .64-.243.64-.63 0-.333-.117-.559-.558-.855-.568-.369-.873-.738-.873-1.242 0-.702.521-1.207 1.197-1.207.342 0 .603.117.783.226l-.189.522a1.026 1.026 0 0 0-.576-.189.533.533 0 0 0-.567.549c0 .298.108.459.54.757.504.324.9.72.9 1.323 0 .873-.594 1.296-1.305 1.296-.324 0-.676-.099-.865-.252l.172-.523zM2.956 69.318l-.324 1.575h-.937l1.351-6.067h1.125l1.251 6.067h-.936l-.324-1.575H2.956zm1.107-.757l-.252-1.396c-.081-.396-.162-.954-.225-1.377h-.027a41.298 41.298 0 0 1-.225 1.387l-.27 1.386h.999zm1.979-3.897h.963v6.229h-.963v-6.229zm2.35 1.259c-.279 0-.504-.225-.504-.558 0-.343.234-.559.513-.559.306 0 .522.216.522.559 0 .333-.216.558-.522.558h-.009zm-.46 4.97v-4.385h.963v4.385h-.963zm4.15-.09c-.135.072-.414.144-.738.144-1.044 0-1.738-.773-1.738-2.215 0-1.313.729-2.286 1.891-2.286.261 0 .513.062.63.126l-.144.766c-.099-.036-.252-.1-.468-.1-.621 0-.945.666-.945 1.477 0 .9.36 1.44.945 1.44.18 0 .333-.036.468-.099l.099.747zm1.25-1.845c.009.981.459 1.251.972 1.251.324 0 .594-.071.783-.152l.144.684c-.279.126-.702.207-1.098.207-1.134 0-1.737-.819-1.737-2.179 0-1.449.693-2.331 1.629-2.331.918 0 1.386.837 1.386 2.008 0 .252-.009.396-.027.513h-2.052zm1.189-.685c.009-.702-.225-1.116-.567-1.116-.414 0-.603.604-.621 1.116h1.188zm52.86-33.9a5.667 5.667 0 0 1 1.197-.117c.549 0 1.071.09 1.44.423.297.262.432.648.432 1.08 0 .567-.306 1.081-.891 1.333v.026c.693.189 1.089.766 1.089 1.495 0 .504-.162.9-.441 1.197-.351.396-.945.585-1.818.585-.45 0-.774-.027-1.008-.062v-5.96zm.954 2.439h.279c.495 0 .891-.396.891-.945 0-.504-.234-.882-.828-.882-.144 0-.261.009-.342.036v1.791zm0 2.809c.081.019.18.027.306.027.585 0 1.017-.352 1.017-1.044 0-.712-.495-1.071-1.044-1.071h-.279v2.088zm4.473.801c-.927 0-1.566-.774-1.566-2.251 0-1.594.783-2.277 1.603-2.277.918 0 1.548.801 1.548 2.25 0 1.773-.918 2.278-1.575 2.278h-.01zm.036-.738c.477 0 .585-.864.585-1.53 0-.64-.108-1.521-.603-1.521-.522 0-.621.882-.621 1.521 0 .738.126 1.53.63 1.53h.009zm2.259-5.563h.955v2.322h.018c.216-.369.513-.549.918-.549.774 0 1.225.882 1.225 2.179 0 1.558-.63 2.35-1.387 2.35-.414 0-.657-.207-.864-.612h-.028l-.054.54h-.819c.018-.324.036-.828.036-1.188v-5.042zm.954 4.671c0 .108.018.207.036.279.126.459.351.559.513.559.468 0 .648-.612.648-1.495 0-.81-.189-1.432-.657-1.432-.243 0-.45.288-.504.576a1.48 1.48 0 0 0-.036.279v1.234zm3.852-4.6a10.72 10.72 0 0 1-.918 2.179l-.522.072c.225-.648.468-1.485.567-2.16l.873-.091zm-.189 5.249c.162.108.459.234.756.234.342 0 .549-.181.549-.505 0-.27-.126-.45-.531-.711-.657-.387-.892-.811-.892-1.251 0-.757.549-1.314 1.341-1.314.352 0 .63.099.837.216l-.189.711a1.121 1.121 0 0 0-.603-.188c-.333 0-.495.216-.495.459 0 .234.108.369.522.639.585.352.9.783.9 1.333 0 .891-.621 1.341-1.45 1.341-.342 0-.747-.099-.936-.252l.191-.712zm-8.932 7.496h.018c.081-.216.153-.387.225-.558l.702-1.414h1.035l-1.098 1.837 1.179 2.548h-1.071l-.765-1.918-.225.388v1.53h-.955v-6.229h.955v3.816zm3.176.478c.009.981.459 1.251.972 1.251.324 0 .594-.071.783-.152l.144.684c-.279.126-.702.207-1.098.207-1.134 0-1.737-.819-1.737-2.179 0-1.449.693-2.331 1.629-2.331.918 0 1.386.837 1.386 2.008 0 .252-.009.396-.027.513h-2.052zm1.189-.685c.009-.702-.225-1.116-.567-1.116-.414 0-.603.604-.621 1.116h1.188zm2.195-1.765l.495 2.386c.063.298.108.559.153.811h.018c.036-.234.09-.522.144-.801l.432-2.396h.945l-.819 3.134c-.234.945-.531 1.891-1.026 2.493-.342.414-.729.621-.9.685l-.315-.828a1.952 1.952 0 0 0 .981-1.062.546.546 0 0 0 .054-.207.51.51 0 0 0-.027-.162l-1.162-4.052h1.027zm185.668-17.656c-.18.09-.495.152-.892.152-1.386 0-2.178-1.134-2.178-3.007 0-2.331 1.232-3.169 2.313-3.169.396 0 .675.081.792.153l-.18.819a1.142 1.142 0 0 0-.576-.126c-.657 0-1.332.603-1.332 2.26 0 1.629.611 2.215 1.341 2.215.226 0 .45-.055.595-.108l.117.811zm.584-6.131h.964v2.305h.018c.1-.153.234-.279.378-.369.162-.1.36-.162.585-.162.693 0 1.08.576 1.08 1.684v2.772h-.963V24.67c0-.477-.099-.909-.504-.909-.252 0-.459.172-.559.541a1.802 1.802 0 0 0-.035.333v2.772h-.964v-6.229zm6.58 5.23c0 .342.009.711.054.999h-.863l-.055-.441h-.018c-.225.333-.549.514-.928.514-.63 0-1.107-.522-1.107-1.297 0-1.125.955-1.603 1.945-1.611v-.117c0-.459-.181-.774-.658-.774a1.49 1.49 0 0 0-.818.243l-.18-.657c.215-.135.674-.314 1.205-.314 1.135 0 1.423.774 1.423 1.71v1.745zm-.945-1.197c-.378.009-1.054.107-1.054.873 0 .495.262.675.478.675.243 0 .468-.162.55-.504a.859.859 0 0 0 .026-.225v-.819zm1.835-.955c0-.404-.018-.864-.035-1.233h.837l.054.657h.027c.172-.44.531-.729.892-.729.09 0 .144.009.207.018v.954c-.063-.009-.126-.009-.207-.009-.333 0-.667.279-.774.756-.018.1-.036.253-.036.415v2.322h-.964v-3.151zm2.457-3.078h.963v6.229h-.963v-6.229zm2.349 1.259c-.279 0-.504-.225-.504-.558 0-.343.234-.559.513-.559.306 0 .522.216.522.559 0 .333-.217.558-.522.558h-.009zm-.459 4.97v-4.385h.963v4.385h-.963zm2.62-1.935c.009.981.459 1.251.972 1.251.324 0 .595-.071.783-.152l.144.684c-.278.126-.701.207-1.098.207-1.135 0-1.737-.819-1.737-2.179 0-1.449.692-2.331 1.63-2.331.918 0 1.386.837 1.386 2.008 0 .252-.009.396-.026.513h-2.054zm1.187-.685c.01-.702-.225-1.116-.566-1.116-.414 0-.604.604-.621 1.116h1.187zm2.566-3.538a10.777 10.777 0 0 1-.919 2.179l-.521.072c.225-.648.469-1.485.566-2.16l.874-.091zm-.19 5.249c.162.108.459.234.757.234.342 0 .549-.181.549-.505 0-.27-.127-.45-.531-.711-.657-.387-.892-.811-.892-1.251 0-.757.55-1.314 1.341-1.314.352 0 .631.099.838.216l-.189.711a1.119 1.119 0 0 0-.603-.188c-.333 0-.495.216-.495.459 0 .234.107.369.521.639.586.352.9.783.9 1.333 0 .891-.621 1.341-1.449 1.341-.342 0-.747-.099-.936-.252l.189-.712zm-13.45 7.496h.018c.082-.216.153-.387.226-.558l.702-1.414h1.035l-1.098 1.837 1.179 2.548h-1.071l-.766-1.918-.225.388v1.53h-.955v-6.229h.955v3.816zm3.177.478c.009.981.459 1.251.972 1.251.324 0 .595-.071.783-.152l.145.684c-.279.126-.702.207-1.098.207-1.135 0-1.738-.819-1.738-2.179 0-1.449.693-2.331 1.63-2.331.918 0 1.386.837 1.386 2.008 0 .252-.008.396-.026.513h-2.054zm1.188-.685c.009-.702-.225-1.116-.567-1.116-.414 0-.603.604-.621 1.116h1.188zm2.195-1.765l.495 2.386c.063.298.108.559.153.811h.018c.036-.234.09-.522.145-.801l.432-2.396h.945l-.818 3.134c-.234.945-.531 1.891-1.027 2.493-.342.414-.729.621-.9.685l-.314-.828a1.968 1.968 0 0 0 .982-1.062.546.546 0 0 0 .054-.207.51.51 0 0 0-.027-.162l-1.161-4.052h1.023zm-162.875.379c.288-.072.63-.117 1.018-.117.549 0 1.017.117 1.341.423.261.243.396.604.396 1.035 0 .621-.342 1.116-.936 1.351v.019c.702.188 1.125.756 1.125 1.548 0 .504-.162.909-.432 1.207-.342.387-.909.549-1.603.549-.45 0-.72-.027-.909-.063v-5.952zm.693 2.484h.315c.567 0 1.053-.432 1.053-1.071 0-.558-.261-.99-.999-.99-.162 0-.288.018-.369.045v2.016zm0 2.945c.081.018.198.036.351.036.72 0 1.188-.424 1.188-1.207 0-.837-.585-1.233-1.233-1.242h-.306v2.413zm5.743-1.63c0 1.684-.783 2.251-1.45 2.251-.783 0-1.414-.712-1.414-2.242 0-1.593.711-2.26 1.458-2.26.776 0 1.406.729 1.406 2.251zm-2.17 0c0 .721.126 1.701.756 1.701.594 0 .711-1.026.711-1.701 0-.666-.117-1.692-.729-1.692-.621-.001-.738 1.026-.738 1.692zm2.897 2.178c.009-.252.036-.747.036-1.044v-5.186h.693v2.386h.018c.225-.433.549-.586.918-.586.675 0 1.188.783 1.188 2.206 0 1.575-.648 2.296-1.323 2.296-.459 0-.693-.271-.864-.64h-.027l-.045.567h-.594zm.73-1.539c0 .099 0 .197.027.27.162.648.459.766.648.766.558 0 .756-.757.756-1.684 0-.873-.207-1.647-.765-1.647-.324 0-.594.405-.648.774-.018.099-.018.207-.018.306v1.215zm-16.276 8.743a4.028 4.028 0 0 1 1.008-.117c.558 0 1.026.135 1.341.45.297.288.45.729.45 1.251 0 .559-.135.937-.369 1.242-.333.45-.891.676-1.431.676-.117 0-.207 0-.306-.009v2.484h-.693v-5.977zm.693 2.907c.081.019.153.027.27.027.684 0 1.144-.45 1.144-1.306 0-.621-.261-1.179-1.026-1.179-.162 0-.297.018-.387.045v2.413zm5.373 1.882c0 .486.027.864.036 1.188h-.603l-.045-.459h-.018c-.135.216-.468.531-.937.531-.765 0-1.062-.595-1.062-1.675v-2.755h.693v2.656c0 .684.108 1.188.585 1.188.405 0 .585-.379.621-.576.027-.117.036-.253.036-.396v-2.872h.693v3.17zm.926 1.188c.009-.252.036-.747.036-1.044V45.33h.693v2.386h.018c.225-.433.549-.586.918-.586.675 0 1.188.783 1.188 2.206 0 1.575-.648 2.296-1.323 2.296-.459 0-.693-.271-.864-.64h-.027l-.045.567h-.594zm.73-1.539c0 .099 0 .197.027.27.162.648.459.766.648.766.558 0 .756-.757.756-1.684 0-.873-.207-1.647-.765-1.647-.324 0-.594.405-.648.774-.018.099-.018.207-.018.306v1.215zm2.907-4.69h.693v6.229h-.693V45.33zm2.466.747c.009.27-.162.45-.423.45-.225 0-.396-.181-.396-.45 0-.271.18-.45.405-.45.252-.001.414.179.414.45zm-.747 5.482v-4.357h.693v4.357h-.693zm3.78-.108c-.153.091-.414.162-.72.162-.954 0-1.594-.765-1.594-2.205 0-1.252.63-2.269 1.72-2.269.234 0 .486.062.612.135l-.135.567a1.13 1.13 0 0 0-.495-.117c-.693 0-1.008.828-1.008 1.684 0 1.017.387 1.629 1.026 1.629.189 0 .342-.045.504-.117l.09.531zm2.69-2.224h.018c.081-.171.153-.342.234-.485l.864-1.54h.747l-1.152 1.837 1.251 2.521h-.774l-.945-2.053-.243.405v1.647h-.693V45.33h.693v3.897zm2.853.217c.009 1.332.531 1.62 1.036 1.62.297 0 .549-.072.72-.171l.108.513c-.243.136-.612.207-.955.207-1.044 0-1.584-.854-1.584-2.188 0-1.413.594-2.296 1.468-2.296.891 0 1.242.937 1.242 1.927 0 .162 0 .279-.009.388h-2.026zm1.369-.514c.018-.873-.315-1.261-.648-1.261-.45 0-.684.667-.711 1.261h1.359zm1.772-1.728l.576 2.503c.081.342.126.63.18.9h.018c.045-.243.117-.576.189-.892l.513-2.512h.684l-.711 2.8c-.271 1.099-.567 2.151-1.081 2.809-.306.388-.63.595-.783.667l-.252-.595c.198-.107.414-.297.612-.549.18-.226.324-.522.396-.729a.609.609 0 0 0 .045-.216c0-.054 0-.108-.018-.162l-1.098-4.024h.73zm93.571-14.801a4.223 4.223 0 0 1 1.018-.117c.549 0 1.018.117 1.342.423.261.243.396.604.396 1.035 0 .621-.343 1.116-.937 1.351v.019c.703.188 1.125.756 1.125 1.548 0 .504-.162.909-.432 1.207-.342.387-.909.549-1.603.549-.45 0-.72-.027-.909-.063v-5.952zm.694 2.484h.314c.568 0 1.054-.432 1.054-1.071 0-.558-.261-.99-.999-.99-.162 0-.288.018-.369.045v2.016zm0 2.945c.081.018.198.036.352.036.72 0 1.188-.424 1.188-1.207 0-.837-.585-1.233-1.232-1.242h-.307v2.413zm5.742-1.63c0 1.684-.783 2.251-1.449 2.251-.783 0-1.414-.712-1.414-2.242 0-1.593.712-2.26 1.459-2.26.774 0 1.404.729 1.404 2.251zm-2.17 0c0 .721.127 1.701.757 1.701.595 0 .711-1.026.711-1.701 0-.666-.116-1.692-.729-1.692-.622-.001-.739 1.026-.739 1.692zm2.898 2.178c.009-.252.035-.747.035-1.044v-5.186h.693v2.386h.019c.226-.433.549-.586.918-.586.675 0 1.188.783 1.188 2.206 0 1.575-.648 2.296-1.323 2.296-.46 0-.693-.271-.864-.64h-.027l-.045.567h-.594zm.729-1.539c0 .099 0 .197.027.27.162.648.459.766.648.766.559 0 .756-.757.756-1.684 0-.873-.207-1.647-.766-1.647-.324 0-.594.405-.647.774-.019.099-.019.207-.019.306v1.215zm-23.246 8.743a4.21 4.21 0 0 1 1.018-.117c.549 0 1.017.117 1.341.423.261.243.396.604.396 1.035 0 .621-.342 1.116-.936 1.351v.019c.702.188 1.125.756 1.125 1.548 0 .504-.162.909-.432 1.207-.342.387-.91.549-1.604.549-.449 0-.72-.027-.908-.063v-5.952zm.693 2.484h.314c.567 0 1.053-.432 1.053-1.071 0-.558-.26-.99-.998-.99a1.23 1.23 0 0 0-.369.045v2.016zm0 2.944c.08.018.197.036.351.036.72 0 1.188-.424 1.188-1.207 0-.837-.586-1.233-1.233-1.242h-.306v2.413zm5.742-1.63c0 1.684-.783 2.251-1.449 2.251-.783 0-1.414-.712-1.414-2.242 0-1.593.711-2.26 1.459-2.26.774 0 1.404.73 1.404 2.251zm-2.169 0c0 .721.126 1.701.756 1.701.595 0 .711-1.026.711-1.701 0-.666-.116-1.692-.729-1.692-.621 0-.738 1.026-.738 1.692zm2.897 2.179c.009-.252.036-.747.036-1.044V45.33h.693v2.386h.018c.226-.433.549-.586.918-.586.676 0 1.189.783 1.189 2.206 0 1.575-.648 2.296-1.324 2.296-.459 0-.693-.271-.863-.64h-.027l-.045.567h-.595zm.729-1.539c0 .099 0 .197.027.27.162.648.459.766.648.766.558 0 .756-.757.756-1.684 0-.873-.207-1.647-.766-1.647-.324 0-.594.405-.648.774-.018.099-.018.207-.018.306v1.215zm3.636-4.601c-.188.729-.576 1.665-.81 2.07l-.414.063c.188-.522.432-1.44.521-2.062l.703-.071zm-.09 5.42c.153.099.423.225.702.225.396 0 .639-.243.639-.63 0-.333-.117-.559-.558-.855-.567-.369-.873-.738-.873-1.242 0-.702.522-1.207 1.197-1.207.342 0 .603.117.783.226l-.188.522a1.026 1.026 0 0 0-.576-.189c-.379 0-.568.271-.568.549 0 .298.108.459.541.757.504.324.9.72.9 1.323 0 .873-.595 1.296-1.306 1.296-.324 0-.675-.099-.864-.252l.171-.523zm4.014 0c.153.099.423.225.702.225.396 0 .639-.243.639-.63 0-.333-.117-.559-.558-.855-.567-.369-.873-.738-.873-1.242 0-.702.522-1.207 1.197-1.207.342 0 .603.117.783.226l-.188.522a1.026 1.026 0 0 0-.576-.189c-.379 0-.568.271-.568.549 0 .298.108.459.541.757.504.324.9.72.9 1.323 0 .873-.595 1.296-1.306 1.296-.324 0-.675-.099-.864-.252l.171-.523zm3.466-4.762c.008.27-.162.45-.424.45-.225 0-.396-.181-.396-.45 0-.271.181-.45.406-.45.252-.001.414.179.414.45zm-.748 5.482v-4.357h.693v4.357h-.693zm4.32-4.357c-.008.307-.035.693-.035 1.359V51c0 1.144-.145 1.576-.433 1.891-.261.298-.675.469-1.161.469-.369 0-.729-.09-.954-.216l.161-.541c.172.091.46.189.811.189.55 0 .892-.342.892-1.332v-.441h-.019a.884.884 0 0 1-.836.531c-.775 0-1.279-.873-1.279-2.152 0-1.602.729-2.269 1.369-2.269.468 0 .684.307.81.567h.019l.035-.495h.62zm-.72 1.504a1.16 1.16 0 0 0-.036-.315c-.081-.297-.234-.666-.63-.666-.505 0-.774.675-.774 1.639 0 1.116.352 1.62.774 1.62.207 0 .478-.099.621-.621.036-.135.045-.271.045-.396v-1.261zm1.647-.379c0-.513-.027-.773-.036-1.125h.604l.035.522h.019c.188-.352.54-.595.999-.595.604 0 1.054.45 1.054 1.504v2.926h-.693V48.75c0-.514-.099-1.035-.603-1.035-.289 0-.568.243-.658.711a2.445 2.445 0 0 0-.027.387v2.746h-.692v-3.232zm5.364 3.232l-.045-.459h-.027c-.188.333-.494.531-.863.531-.586 0-1.036-.495-1.036-1.242 0-1.09.874-1.576 1.854-1.585v-.135c0-.585-.144-.99-.693-.99-.27 0-.513.09-.72.225l-.153-.486c.18-.135.586-.288 1.018-.288.873 0 1.252.576 1.252 1.558v1.882c0 .333 0 .711.045.99h-.632zm-.099-2.251c-.359 0-1.197.063-1.197 1.009 0 .567.289.774.531.774.307 0 .568-.226.648-.657.018-.081.018-.171.018-.243v-.883zm2.421-3.259v1.152h.836v.531h-.836v2.584c0 .567.207.72.459.72.107 0 .197-.009.279-.026l.026.531a1.522 1.522 0 0 1-.513.071c-.271 0-.514-.071-.685-.261-.171-.198-.261-.495-.261-1.099v-2.521h-.531V47.2h.531v-.954l.695-.197zm4.059 4.322c0 .486.027.864.036 1.188h-.603l-.045-.459h-.019c-.136.216-.468.531-.937.531-.766 0-1.062-.595-1.062-1.675v-2.755h.693v2.656c0 .684.108 1.188.586 1.188.404 0 .584-.379.621-.576a1.87 1.87 0 0 0 .035-.396v-2.872h.693v3.17zm.963-2.044c0-.368-.027-.801-.037-1.125h.622l.036.685h.018c.145-.414.514-.757.918-.757.055 0 .1.01.145.01v.711c-.045-.009-.09-.009-.145-.009-.441 0-.765.404-.837.909a2.53 2.53 0 0 0-.026.396v2.413h-.693v-3.233zm2.6 1.117c.009 1.332.531 1.62 1.036 1.62.297 0 .549-.072.72-.171l.108.513c-.244.136-.613.207-.955.207-1.044 0-1.584-.854-1.584-2.188 0-1.413.594-2.296 1.467-2.296.892 0 1.242.937 1.242 1.927 0 .162 0 .279-.008.388h-2.026zm1.369-.514c.019-.873-.314-1.261-.648-1.261-.449 0-.684.667-.711 1.261h1.359zm-26.229-36.546c-.189.1-.486.162-.865.162-1.188 0-2.034-.954-2.034-3.016 0-2.395 1.188-3.16 2.143-3.16.369 0 .63.072.757.153l-.154.585a1.337 1.337 0 0 0-.611-.126c-.648 0-1.404.63-1.404 2.485 0 1.854.684 2.466 1.422 2.466.262 0 .496-.062.64-.135l.106.586zm.629-6.121h.693v2.34h.018a1.23 1.23 0 0 1 .36-.378c.162-.099.333-.162.585-.162.549 0 1.018.441 1.018 1.54v2.89h-.693V9.684c0-.531-.117-1.035-.586-1.035-.323 0-.566.233-.674.692-.019.1-.027.226-.027.334v2.817h-.693V6.263zm5.364 6.23l-.045-.459h-.026c-.189.333-.496.531-.865.531-.585 0-1.035-.495-1.035-1.242 0-1.09.873-1.576 1.855-1.585v-.135c0-.585-.145-.99-.693-.99-.271 0-.514.09-.721.225l-.153-.486c.181-.135.585-.288 1.018-.288.873 0 1.251.576 1.251 1.558v1.882c0 .333 0 .711.045.99h-.631zm-.098-2.251c-.36 0-1.197.063-1.197 1.009 0 .567.287.774.531.774.306 0 .566-.226.648-.657.018-.081.018-.171.018-.243v-.883zm1.646-.982c0-.368-.027-.801-.037-1.125h.622l.036.685h.018c.145-.414.514-.757.918-.757.055 0 .1.01.145.01v.711c-.045-.009-.09-.009-.145-.009-.441 0-.765.404-.837.909a2.53 2.53 0 0 0-.026.396v2.413h-.693V9.26zm2.24-2.997h.693v6.229h-.693V6.263zm2.467.747c.008.27-.162.45-.424.45-.225 0-.396-.181-.396-.45 0-.271.181-.45.406-.45.252 0 .414.18.414.45zm-.748 5.483V8.135h.693v4.357h-.693zm2.143-2.116c.01 1.332.531 1.62 1.035 1.62.297 0 .549-.072.721-.171l.107.513c-.242.136-.611.207-.954.207-1.044 0-1.585-.854-1.585-2.188 0-1.413.595-2.296 1.469-2.296.891 0 1.242.937 1.242 1.927 0 .162 0 .279-.01.388h-2.025zm1.369-.513c.018-.873-.316-1.261-.648-1.261-.451 0-.685.667-.711 1.261h1.359zm-21.907 9.832a4.03 4.03 0 0 1 1.009-.117c.558 0 1.025.135 1.341.45.298.288.45.729.45 1.251 0 .559-.135.937-.369 1.242-.333.45-.891.676-1.432.676-.117 0-.207 0-.306-.009v2.484h-.693v-5.977zm.693 2.907c.081.019.153.027.271.027.684 0 1.143-.45 1.143-1.306 0-.621-.261-1.179-1.025-1.179a1.43 1.43 0 0 0-.388.045v2.413zm5.373 1.882c0 .486.027.864.036 1.188h-.604l-.045-.459h-.018c-.135.216-.469.531-.937.531-.765 0-1.062-.595-1.062-1.675v-2.755h.692v2.656c0 .684.108 1.188.585 1.188.406 0 .586-.379.621-.576.027-.117.037-.253.037-.396v-2.872h.692v3.17zm.927 1.188c.009-.252.035-.747.035-1.044v-5.186h.693v2.386h.019c.226-.433.549-.586.918-.586.675 0 1.188.783 1.188 2.206 0 1.575-.648 2.296-1.323 2.296-.459 0-.693-.271-.864-.64h-.027l-.045.567h-.594zm.728-1.539c0 .099 0 .197.027.27.162.648.459.766.648.766.559 0 .756-.757.756-1.684 0-.873-.207-1.647-.766-1.647-.323 0-.594.405-.647.774-.019.099-.019.207-.019.306v1.215zm2.908-4.69h.692v6.229h-.692v-6.229zm2.465.747c.01.27-.162.45-.423.45-.226 0-.396-.181-.396-.45 0-.271.18-.45.404-.45.253 0 .415.179.415.45zm-.746 5.482v-4.357h.692v4.357h-.692zm3.78-.108c-.152.091-.414.162-.72.162-.954 0-1.594-.765-1.594-2.205 0-1.252.63-2.269 1.72-2.269.234 0 .486.062.612.135l-.136.567a1.13 1.13 0 0 0-.494-.117c-.693 0-1.009.828-1.009 1.684 0 1.017.388 1.629 1.026 1.629.189 0 .342-.045.504-.117l.091.531zm2.691-2.224h.018c.081-.171.152-.342.234-.485l.863-1.54h.748l-1.152 1.837 1.251 2.521h-.774l-.945-2.053-.242.405v1.647h-.693v-6.229h.693v3.897zm2.852.217c.01 1.332.531 1.62 1.036 1.62.297 0 .549-.072.72-.171l.108.513c-.243.136-.612.207-.954.207-1.045 0-1.585-.854-1.585-2.188 0-1.413.595-2.296 1.468-2.296.891 0 1.242.937 1.242 1.927 0 .162 0 .279-.009.388h-2.026zm1.369-.514c.018-.873-.315-1.261-.648-1.261-.45 0-.684.667-.711 1.261h1.359zm1.772-1.728l.576 2.503c.081.342.126.63.181.9h.018c.045-.243.117-.576.189-.892l.513-2.512h.685l-.711 2.8c-.271 1.099-.568 2.151-1.081 2.809-.306.388-.63.595-.783.667l-.252-.595c.198-.107.414-.297.612-.549.18-.226.324-.522.396-.729a.632.632 0 0 0 .045-.216c0-.054 0-.108-.019-.162l-1.099-4.024h.73z"/></svg>