<svg xmlns="http://www.w3.org/2000/svg" xmlns:xlink="http://www.w3.org/1999/xlink" viewBox="0 0 326.002 159.097"><path fill="none" stroke="#009245" d="M5.354 73.315v35.704h10" stroke-linecap="round" stroke-linejoin="round"/><path fill="#009245" d="M8.355 74.191l-2.991-5.182-2.991 5.182z"/><path fill="none" stroke="#009245" d="M15.354 63.316V99.02" stroke-linecap="round" stroke-linejoin="round"/><path fill="#009245" d="M12.354 98.144l2.991 5.182 2.991-5.182z"/><path fill="none" stroke="#009245" d="M143.152 71.957l-7.798 27.063" stroke-linecap="round" stroke-linejoin="round"/><path fill="#009245" d="M132.713 97.348l1.44 5.807 4.309-4.151zm13.08-23.719l-1.44-5.808-4.309 4.151z"/><path fill="none" stroke="#0071bc" d="M167.354 71.957l7.797 27.063" stroke-linecap="round" stroke-linejoin="round"/><path fill="#0071bc" d="M172.025 99.009l4.31 4.151 1.439-5.807zm-1.546-27.042l-4.309-4.151-1.44 5.808z"/><path fill="none" stroke="#000" d="M5.985 49.795h44.667" stroke-linecap="round" stroke-linejoin="round"/><path d="M49.777 52.796l5.181-2.991-5.181-2.992z"/><path fill="none" stroke="#000" d="M266.968 49.795h9.818" stroke-linecap="round" stroke-linejoin="round"/><path d="M275.911 52.796l5.181-2.991-5.181-2.992zm-8.068-6.002l-5.181 2.992 5.181 2.991z"/><path fill="none" stroke="#000" d="M69.167 56.795H34.985" stroke-linecap="round" stroke-linejoin="round"/><path d="M35.861 53.794l-5.182 2.992 5.182 2.991z"/><path fill="#c7b299" d="M94.025 47.564h3.378l-.002.482s.083 2.393-1.686 2.393c-1.731 0-1.69-2.393-1.69-2.393v-.482z"/><ellipse cx="95.715" cy="47.564" fill="#998675" fill-rule="evenodd" rx="1.689" ry=".423" clip-rule="evenodd"/><path fill="#c7b299" d="M91.251 55.419h3.034v15.572c0 .451-.68.815-1.518.815-.837 0-1.517-.365-1.517-.815V55.419zm-3.809 2.364h3.034v15.572c0 .449-.68.814-1.518.814s-1.517-.365-1.517-.814V57.783z"/><path fill="#199d58" d="M97.443 33.203l-.04 13.811c0 .234-.756.425-1.688.425-.936 0-1.69-.191-1.69-.425l.039-13.811s-.082-3.235 1.689-3.235c1.73-.001 1.69 3.235 1.69 3.235z"/><path fill="#009245" d="M84.595 34.423c-.008-1.158 1.118-4.539 6.16-5.501 5.565-1.06 5.652 2.84 5.652 2.84a.724.724 0 0 1-.003.258l.018 2.806s-.306 2.159-1.093 3.237c-.673.924-.716 2.63-.416 3.719.303 1.083 1.387 6.236.515 13.727 0 0-.584 1.74-4.92 2.555-4.334.919-4.917-.589-4.917-.589-.874-7.142.211-12.724.51-13.93.303-1.208.259-2.9-.414-3.554-.788-.763-1.093-2.797-1.093-2.797s-.052-2.478.003-2.9c.001 0-.008.049-.002.129z"/><path fill="#c7b299" d="M83.24 51.864h3.378v.482s.084 2.392-1.69 2.392c-1.727 0-1.688-2.392-1.688-2.392v-.482z"/><ellipse cx="84.93" cy="51.863" fill="#998675" fill-rule="evenodd" rx="1.689" ry=".421" clip-rule="evenodd"/><path fill="#998675" d="M92.399 29.904c1.265.298 1.439 1.163.387 1.934-1.052.769-2.928 1.156-4.194.859-1.266-.299-1.439-1.164-.386-1.937 1.05-.769 2.928-1.152 4.193-.856z"/><path fill="#33a86a" d="M86.659 37.503l-.042 13.81c0 .234-.756.426-1.688.426-.934 0-1.69-.192-1.69-.426l.04-13.81s-.083-3.236 1.689-3.236c1.732 0 1.691 3.236 1.691 3.236z"/><path fill="#c7b299" d="M89.391 31.349c-3.837-.867-4.574-6.849-1.094-8.893 1.063-.621 2.084-.517 2.6-.425 2.281.539 3.136 2.676 3.282 3.851.318 2.588-.919 4.3-2.185 5.039a3.623 3.623 0 0 1-2.603.428z"/><path fill="none" stroke="#000" d="M95.753 29.967c-.021 0-.042.006-.063.007-.389-.468-.997-.892-1.922-1.096.365-.811.556-1.804.41-2.997-.146-1.175-1.001-3.312-3.282-3.851-.516-.091-1.537-.195-2.6.425-2.749 1.612-2.857 5.669-.897 7.739-2.14 1.355-2.763 3.247-2.8 4.129l-.005.004c-1.38.426-1.315 3.174-1.315 3.174l-.04 13.81c0 .106.16.204.416.275-.256.074-.416.17-.416.275v.482s-.04 2.392 1.688 2.392c.153 0 .286-.021.411-.052.054.897.133 1.829.252 2.789 0 0 .274.712 1.851.861v15.019c0 .449.679.814 1.517.814.838 0 1.518-.365 1.518-.814V58.068c.011 0 .021-.003.031-.003.261-.051.508-.103.743-.158v13.085c0 .451.679.815 1.517.815.837 0 1.518-.365 1.518-.815v-14.29c.951-.632 1.142-1.192 1.142-1.192.213-1.843.309-3.538.327-5.074 1.728-.035 1.647-2.389 1.647-2.389l.002-.482c0-.105-.159-.201-.414-.275.256-.072.414-.168.414-.275l.04-13.811c0-.001.04-3.237-1.69-3.237z" stroke-linecap="round" stroke-linejoin="round"/><path fill="#c7b299" d="M182.085 129.693h3.378l-.002.482s.083 2.393-1.686 2.393c-1.731 0-1.69-2.393-1.69-2.393v-.482z"/><ellipse cx="183.775" cy="129.693" fill="#998675" fill-rule="evenodd" rx="1.689" ry=".423" clip-rule="evenodd"/><path fill="#c7b299" d="M179.311 137.549h3.033v15.572c0 .451-.68.815-1.518.815-.837 0-1.516-.365-1.516-.815v-15.572zm-3.809 2.364h3.033v15.572c0 .449-.68.814-1.518.814s-1.516-.365-1.516-.814v-15.572z"/><path fill="#199d58" d="M185.502 115.332l-.039 13.812c0 .234-.756.425-1.688.425-.936 0-1.69-.191-1.69-.425l.038-13.812s-.082-3.235 1.689-3.235c1.731 0 1.69 3.235 1.69 3.235z"/><path fill="#009245" d="M172.654 116.553c-.008-1.158 1.117-4.539 6.16-5.501 5.565-1.06 5.652 2.84 5.652 2.84a.703.703 0 0 1-.004.258l.018 2.806s-.306 2.159-1.093 3.237c-.673.924-.716 2.63-.416 3.719.303 1.083 1.388 6.236.515 13.727 0 0-.584 1.74-4.92 2.555-4.334.919-4.916-.589-4.916-.589-.875-7.142.211-12.724.51-13.93.304-1.208.26-2.9-.413-3.554-.788-.763-1.093-2.797-1.093-2.797s-.053-2.478.003-2.9a.546.546 0 0 0-.003.129z"/><path fill="#c7b299" d="M171.3 133.993h3.378v.482s.083 2.392-1.69 2.392c-1.727 0-1.688-2.392-1.688-2.392v-.482z"/><ellipse cx="172.989" cy="133.993" fill="#998675" fill-rule="evenodd" rx="1.689" ry=".421" clip-rule="evenodd"/><path fill="#998675" d="M180.459 112.034c1.265.298 1.438 1.163.387 1.934-1.052.77-2.928 1.156-4.193.859-1.266-.299-1.439-1.164-.387-1.937 1.05-.77 2.927-1.153 4.193-.856z"/><path fill="#33a86a" d="M174.719 119.632l-.041 13.81c0 .234-.757.426-1.688.426-.934 0-1.69-.192-1.69-.426l.04-13.81s-.083-3.236 1.69-3.236c1.73 0 1.689 3.236 1.689 3.236z"/><path fill="#c7b299" d="M177.451 113.479c-3.838-.867-4.574-6.849-1.095-8.893 1.063-.621 2.084-.517 2.601-.425 2.28.539 3.136 2.676 3.281 3.851.318 2.588-.92 4.3-2.186 5.039a3.629 3.629 0 0 1-2.601.428z"/><path fill="none" stroke="#000" d="M183.812 112.097c-.02 0-.041.006-.062.007-.389-.468-.997-.892-1.922-1.096.365-.81.556-1.804.41-2.996-.146-1.175-1.001-3.312-3.281-3.851-.517-.091-1.537-.195-2.601.425-2.749 1.612-2.857 5.669-.897 7.739-2.14 1.355-2.764 3.247-2.8 4.129l-.005.004c0-.022.003-.035.003-.035l-.003.035c-1.38.426-1.315 3.174-1.315 3.174l-.04 13.81c0 .106.16.204.416.275-.256.074-.416.17-.416.275v.482s-.04 2.392 1.688 2.392c.153 0 .286-.021.411-.052.053.897.133 1.829.252 2.789 0 0 .273.712 1.852.861v15.019c0 .449.678.814 1.516.814s1.518-.365 1.518-.814v-15.287c.012 0 .021-.003.031-.003.262-.051.509-.103.744-.158v13.085c0 .451.679.815 1.516.815.838 0 1.518-.365 1.518-.815v-14.29c.951-.632 1.143-1.192 1.143-1.192.213-1.843.31-3.538.326-5.074 1.729-.035 1.648-2.389 1.648-2.389l.002-.482c0-.105-.158-.201-.414-.275.256-.072.414-.169.414-.275l.039-13.812c-.001.001.04-3.234-1.691-3.234z" stroke-linecap="round" stroke-linejoin="round"/><path fill="#c7b299" d="M19.038 129.694h3.378l-.002.482s.083 2.394-1.686 2.394c-1.731 0-1.69-2.394-1.69-2.394v-.482z"/><ellipse cx="20.728" cy="129.694" fill="#998675" fill-rule="evenodd" rx="1.689" ry=".424" clip-rule="evenodd"/><path fill="#c7b299" d="M16.263 137.55h3.035v15.572c0 .451-.68.815-1.518.815s-1.517-.365-1.517-.815V137.55zm-3.808 2.364h3.035v15.571c0 .45-.68.813-1.518.813s-1.517-.363-1.517-.813v-15.571z"/><path fill="#c73d42" d="M22.456 115.333l-.04 13.812c0 .234-.756.425-1.688.425-.936 0-1.69-.191-1.69-.425l.039-13.812s-.082-3.236 1.689-3.236c1.73 0 1.69 3.236 1.69 3.236z"/><path fill="#c1272d" d="M9.607 116.553c-.008-1.157 1.118-4.538 6.16-5.5 5.565-1.06 5.652 2.84 5.652 2.84a.719.719 0 0 1-.003.257l.018 2.807s-.306 2.159-1.093 3.236c-.673.925-.716 2.631-.416 3.72.303 1.083 1.387 6.236.515 13.726 0 0-.583 1.74-4.92 2.556-4.335.919-4.917-.589-4.917-.589-.875-7.142.21-12.724.51-13.93.303-1.208.259-2.9-.414-3.554-.788-.763-1.093-2.797-1.093-2.797s-.052-2.478.003-2.9c.001-.001-.007.048-.002.128z"/><path fill="#c7b299" d="M8.253 133.993h3.377v.483s.083 2.392-1.69 2.392c-1.728 0-1.687-2.392-1.687-2.392v-.483z"/><ellipse cx="9.943" cy="133.993" fill="#998675" fill-rule="evenodd" rx="1.689" ry=".421" clip-rule="evenodd"/><path fill="#998675" d="M17.412 112.035c1.265.298 1.439 1.163.387 1.934-1.052.769-2.928 1.156-4.193.859-1.266-.298-1.44-1.164-.386-1.936 1.049-.771 2.926-1.154 4.192-.857z"/><path fill="#cd5257" d="M11.672 119.632l-.042 13.811c0 .234-.756.427-1.687.427-.934 0-1.69-.192-1.69-.427l.04-13.811s-.083-3.235 1.689-3.235c1.73 0 1.69 3.235 1.69 3.235z"/><path fill="#c7b299" d="M14.404 113.479c-3.837-.867-4.574-6.849-1.094-8.893 1.063-.621 2.084-.518 2.6-.425 2.281.539 3.136 2.675 3.282 3.851.318 2.588-.919 4.3-2.185 5.039a3.623 3.623 0 0 1-2.603.428z"/><path fill="none" stroke="#000" d="M20.766 112.097c-.021 0-.042.005-.063.008-.389-.468-.997-.892-1.922-1.097.365-.81.556-1.804.41-2.996-.146-1.175-1.001-3.312-3.282-3.851-.516-.092-1.537-.195-2.6.425-2.749 1.612-2.858 5.67-.898 7.738-2.14 1.356-2.763 3.248-2.8 4.13l-.005.003c-1.38.426-1.314 3.173-1.314 3.173l-.04 13.811c0 .104.16.204.416.275-.256.074-.416.17-.416.274v.483s-.04 2.392 1.687 2.392c.153 0 .286-.021.411-.052.054.897.133 1.828.252 2.789 0 0 .274.712 1.851.861v15.019c0 .45.679.813 1.517.813.837 0 1.518-.363 1.518-.813v-15.286c.01 0 .021-.004.031-.004.261-.051.508-.103.743-.158v13.085c0 .451.68.815 1.517.815s1.518-.365 1.518-.815V138.83c.951-.633 1.142-1.193 1.142-1.193.214-1.842.309-3.537.327-5.074 1.728-.036 1.648-2.389 1.648-2.389l.002-.482c0-.104-.158-.201-.414-.274.256-.072.414-.168.414-.275l.04-13.812c0 .002.04-3.234-1.69-3.234z" stroke-linecap="round" stroke-linejoin="round"/><path fill="#c7b299" d="M139.038 129.694h3.378l-.002.482s.083 2.394-1.686 2.394c-1.731 0-1.69-2.394-1.69-2.394v-.482z"/><ellipse cx="140.728" cy="129.694" fill="#998675" fill-rule="evenodd" rx="1.689" ry=".424" clip-rule="evenodd"/><path fill="#c7b299" d="M136.263 137.55h3.035v15.572c0 .451-.68.815-1.518.815s-1.517-.365-1.517-.815V137.55zm-3.808 2.364h3.035v15.571c0 .45-.68.813-1.518.813s-1.517-.363-1.517-.813v-15.571z"/><path fill="#c73d42" d="M142.456 115.333l-.04 13.812c0 .234-.756.425-1.688.425-.936 0-1.69-.191-1.69-.425l.039-13.812s-.082-3.236 1.689-3.236c1.73 0 1.69 3.236 1.69 3.236z"/><path fill="#c1272d" d="M129.607 116.553c-.008-1.157 1.118-4.538 6.16-5.5 5.565-1.06 5.652 2.84 5.652 2.84a.719.719 0 0 1-.003.257l.018 2.807s-.306 2.159-1.093 3.236c-.673.925-.716 2.631-.416 3.72.303 1.083 1.387 6.236.515 13.726 0 0-.583 1.74-4.919 2.556-4.335.919-4.917-.589-4.917-.589-.874-7.142.21-12.724.51-13.93.303-1.208.259-2.9-.414-3.554-.788-.763-1.093-2.797-1.093-2.797s-.052-2.478.003-2.9a.617.617 0 0 0-.003.128z"/><path fill="#c7b299" d="M128.253 133.993h3.378v.483s.083 2.392-1.69 2.392c-1.728 0-1.688-2.392-1.688-2.392v-.483z"/><ellipse cx="129.943" cy="133.993" fill="#998675" fill-rule="evenodd" rx="1.689" ry=".421" clip-rule="evenodd"/><path fill="#998675" d="M137.412 112.035c1.265.298 1.439 1.163.387 1.934-1.052.769-2.928 1.156-4.193.859-1.266-.298-1.44-1.164-.386-1.936 1.049-.771 2.926-1.154 4.192-.857z"/><path fill="#cd5257" d="M131.672 119.632l-.041 13.811c0 .234-.756.427-1.687.427-.934 0-1.69-.192-1.69-.427l.04-13.811s-.083-3.235 1.689-3.235c1.729 0 1.689 3.235 1.689 3.235z"/><path fill="#c7b299" d="M134.404 113.479c-3.837-.867-4.574-6.849-1.094-8.893 1.063-.621 2.084-.518 2.6-.425 2.281.539 3.136 2.675 3.282 3.851.318 2.588-.919 4.3-2.185 5.039a3.623 3.623 0 0 1-2.603.428z"/><path fill="none" stroke="#000" d="M140.766 112.097c-.021 0-.042.005-.063.008-.389-.468-.997-.892-1.922-1.097.365-.81.556-1.804.41-2.996-.145-1.175-1.001-3.312-3.282-3.851-.516-.092-1.537-.195-2.6.425-2.749 1.612-2.857 5.67-.898 7.738-2.14 1.356-2.763 3.248-2.8 4.13l-.005.003c0-.021.003-.035.003-.035l-.003.035c-1.38.426-1.314 3.173-1.314 3.173l-.04 13.811c0 .104.16.204.416.275-.256.074-.416.17-.416.274v.483s-.04 2.392 1.688 2.392c.153 0 .286-.021.411-.052.054.897.133 1.828.252 2.789 0 0 .274.712 1.851.861v15.019c0 .45.679.813 1.517.813.837 0 1.518-.363 1.518-.813v-15.286c.01 0 .021-.004.031-.004.261-.051.508-.103.743-.158v13.085c0 .451.68.815 1.517.815s1.518-.365 1.518-.815V138.83c.951-.633 1.142-1.193 1.142-1.193.214-1.842.309-3.537.327-5.074 1.728-.036 1.648-2.389 1.648-2.389l.002-.482c0-.104-.158-.201-.414-.274.256-.072.414-.168.414-.275l.04-13.812c-.001.002.039-3.234-1.691-3.234z" stroke-linecap="round" stroke-linejoin="round"/><path fill="#4d4d4d" fill-rule="evenodd" d="M52.689 38.125s.875-3.233 13.305-3.233c12.79 0 13.493 3.233 13.493 3.233-8.506-.928-17.438-.928-26.798 0z" clip-rule="evenodd"/><defs><path id="a" d="M79.487 38.125s3.382 4.085-.442 6.467c0 0-4.595-.081-5.888-2.684 0 0-.189-1.342.317-1.852 0 0 .126-.831-.823-1.342-.95-.511-4.629-.575-4.629-.575h-3.871s-3.679.064-4.628.575c-.949.511-.822 1.342-.822 1.342.506.51.316 1.852.316 1.852-1.293 2.603-5.887 2.684-5.887 2.684-3.825-2.382-.443-6.467-.443-6.467 5.471-2.964 20.907-3.194 26.8 0z"/></defs><use fill="gray" fill-rule="evenodd" xlink:href="#a" overflow="visible" clip-rule="evenodd"/><clipPath id="b"><use xlink:href="#a" overflow="visible"/></clipPath><path fill="#333" d="M59.227 41.009c-1.838 1.698-4.844 2.837-7.32 2.806l.009-.639c2.296.03 5.144-1.04 6.878-2.636l.433.469zm14.229-.85c.015.011 3.666 2.855 7.188 2.173l.122.627c-2.54.491-5.712-.739-7.703-2.298l.393-.502z" clip-path="url(#b)"/><path fill="#4d4d4d" fill-rule="evenodd" d="M77.936 56.492l-.729 3.544c.031.663-.574 1.203-1.353 1.203h-18.61c-.777 0-1.385-.54-1.358-1.203l-.721-3.367c.023-.581 22.743-.758 22.771-.177z" clip-rule="evenodd"/><path fill="#999" d="M61.04 36.42c0-.289.234-.525.523-.525h1.228c.29 0 .524.235.524.525v3.011h6.463V36.42c0-.289.234-.525.523-.525h1.228c.289 0 .524.235.524.525v3.011h2.688c.724 0 1.332.469 1.358 1.05l1.835 16.011c.031.663-.576 1.203-1.353 1.203H56.517c-.778 0-1.388-.54-1.359-1.203l1.75-16.011c.023-.582.63-1.05 1.354-1.05h2.779V36.42z"/><path fill="#4d4d4d" fill-rule="evenodd" d="M59.372 48.807c.058-3.791 3.423-6.821 7.516-6.821 4.094 0 7.458 3.031 7.516 6.821.058 3.85-3.307 7.016-7.517 7.016s-7.575-3.166-7.515-7.016z" clip-rule="evenodd"/><path fill="#f2f2f2" fill-rule="evenodd" d="M59.054 48.489c.058-3.791 3.422-6.821 7.516-6.821 4.093 0 7.457 3.031 7.515 6.821.059 3.85-3.306 7.016-7.516 7.016s-7.574-3.166-7.515-7.016z" clip-rule="evenodd"/><path fill="#333" fill-rule="evenodd" d="M60.394 48.825c.042-3.29 2.959-5.927 6.517-5.927 3.558 0 6.474 2.637 6.516 5.927.041 3.334-2.876 6.067-6.517 6.067-3.641.001-6.558-2.733-6.516-6.067zm7.955-4.039c-.261.415-.104.947.352 1.188.456.24 1.038.097 1.298-.32.26-.416.101-.946-.355-1.186-.455-.239-1.035-.097-1.295.318zm2.998 5.376c-.461-.244-1.047-.099-1.31.324-.262.425-.101.968.36 1.214.462.246 1.049.1 1.312-.325.261-.426.098-.968-.362-1.213zm-1.31 1.874c-.268-.426-.857-.572-1.317-.326-.46.245-.616.792-.35 1.219.269.428.859.575 1.321.328.46-.248.614-.795.346-1.221zm-4.092 1.017c-.001.495.431.897.965.897.533 0 .966-.402.965-.897-.001-.494-.433-.894-.964-.894-.533 0-.966.4-.966.894zm-.496-.124c.268-.428.112-.974-.348-1.219-.46-.246-1.049-.1-1.317.326-.269.426-.114.973.345 1.221.461.247 1.053.1 1.32-.328zM63.424 51.7c.462-.246.623-.789.359-1.214-.262-.423-.848-.568-1.309-.324-.461.245-.625.787-.363 1.213.262.425.85.571 1.313.325zm-2.027-2.875c-.005.487.419.883.95.883.529 0 .961-.396.964-.883.004-.486-.421-.879-.949-.879s-.96.393-.965.879zm1.1-1.33c.455.242 1.041.099 1.307-.32.266-.418.112-.953-.341-1.193-.454-.24-1.037-.098-1.304.319-.267.417-.116.952.338 1.194zm1.326-1.841c.261.417.842.56 1.298.32.456-.241.613-.773.352-1.188-.26-.415-.84-.556-1.295-.317-.456.239-.615.769-.355 1.185zm2.138-.987c-.001.479.424.868.949.868.525 0 .95-.388.95-.868-.001-.479-.426-.865-.95-.865-.523-.001-.948.386-.949.865z" clip-rule="evenodd"/><path fill="#b3b3b3" fill-rule="evenodd" d="M60.03 48.461c.042-3.291 2.959-5.928 6.517-5.928 3.557 0 6.474 2.637 6.516 5.928.041 3.333-2.876 6.067-6.517 6.067-3.641 0-6.558-2.734-6.516-6.067zm7.954-4.04c-.261.416-.104.948.352 1.188.456.241 1.038.098 1.298-.319.26-.415.101-.946-.355-1.186-.454-.239-1.034-.097-1.295.317zm2.997 5.377c-.46-.245-1.046-.1-1.309.324-.263.424-.102.968.36 1.214.462.246 1.05.1 1.312-.327.262-.424.099-.967-.363-1.211zm-1.309 1.874c-.268-.426-.858-.572-1.316-.326-.46.246-.617.792-.349 1.219.268.429.858.575 1.32.328.46-.247.614-.794.345-1.221zm-4.091 1.016c-.001.495.431.897.965.897s.966-.402.965-.897c0-.495-.433-.894-.964-.894-.533.001-.965.4-.966.894zm-.496-.123c.268-.428.111-.973-.349-1.219-.459-.246-1.048-.1-1.317.326-.268.427-.114.974.346 1.221.461.247 1.053.101 1.32-.328zm-2.025-1.228c.462-.246.623-.79.36-1.214-.262-.424-.848-.569-1.309-.324-.462.244-.625.787-.363 1.212.261.426.85.572 1.312.326zm-2.027-2.876c-.005.486.419.882.95.882.529 0 .962-.396.965-.882.003-.487-.421-.879-.949-.879-.529 0-.961.393-.966.879zm1.1-1.33c.456.243 1.04.099 1.307-.321.266-.418.113-.952-.341-1.193-.453-.241-1.038-.098-1.304.319-.267.418-.115.953.338 1.195zm1.325-1.841c.261.417.843.56 1.298.319.456-.24.613-.772.353-1.188-.261-.414-.841-.556-1.296-.317-.456.239-.614.771-.355 1.186zm2.14-.988c-.001.479.424.868.949.868.525 0 .95-.389.95-.868-.001-.479-.426-.865-.95-.865s-.949.387-.949.865z" clip-rule="evenodd"/><path fill="#f2f2f2" fill-rule="evenodd" d="M63.927 48.461c.006-1.328 1.18-2.399 2.619-2.399 1.44 0 2.613 1.071 2.619 2.399.006 1.334-1.166 2.421-2.619 2.421-1.453.001-2.626-1.087-2.619-2.421z" clip-rule="evenodd"/><path fill="none" stroke="#000" d="M80.703 42.642c.722-2.172-1.216-4.516-1.216-4.516s-.703-3.233-13.494-3.233c-12.43 0-13.304 3.233-13.304 3.233s-2.485 3.005-.778 5.364c0 0 .173.323.263.321.252.274.565.537.958.782 0 0 1.754-.032 3.399-.67l-1.375 12.57c-.002.058.007.113.013.169-.001.002-.005.005-.005.008l.01.042a.3.3 0 0 0 .011.052l.7 3.273c-.027.663.581 1.203 1.359 1.203h18.61c.778 0 1.383-.54 1.352-1.203l.629-3.058c.071-.149.108-.313.1-.486L76.528 44.21c1.333.361 2.516.382 2.516.382.772-.48 1.247-1.031 1.519-1.604.067-.009.14-.346.14-.346z" stroke-linecap="round" stroke-linejoin="round"/><path fill="#b3b3b3" d="M11.984 42.704v29.233L.5 64.878V35.639z"/><path fill="#333" d="M9.856 43.622v3.49l-8.19-5.037v-3.492zm0 11.769v3.486l-8.19-5.037v-3.488z"/><path fill="#e6e6e6" d="M9.856 51.004v1.008l-8.19-5.035v-1.014z"/><path fill="#333" d="M9.856 60.346v3.487l-8.19-5.036v-3.49zm0 4.953v3.49l-8.19-5.039v-3.488z"/><path fill="gray" d="M11.979 42.721l18.203-11.482v29.236L11.979 71.957z"/><path fill="#999" d="M.525 35.657L18.75 24.174l11.461 7.061-18.205 11.482z"/><path fill="#009245" d="M1.941 42.553c.18.105.318.365.318.582 0 .211-.141.303-.318.191a.744.744 0 0 1-.312-.582c0-.216.141-.298.312-.191"/><path fill="#c1272d" d="M2.711 43.028c.178.107.316.369.316.586 0 .211-.146.299-.318.191-.176-.105-.316-.367-.316-.582 0-.217.142-.305.318-.195"/><path fill="#009245" d="M3.479 43.493a.762.762 0 0 1 .316.582c0 .217-.145.303-.318.195-.178-.107-.316-.373-.316-.588-.001-.211.14-.297.318-.189"/><path fill="#c1272d" d="M4.244 43.965c.176.107.314.367.314.584-.002.211-.143.299-.32.189-.172-.105-.314-.369-.314-.582 0-.214.144-.302.32-.191m.776.475a.74.74 0 0 1 .316.584c0 .215-.141.303-.318.191a.757.757 0 0 1-.312-.582c-.001-.213.14-.3.314-.193"/><path fill="#009245" d="M5.787 44.918c.178.105.316.367.316.582 0 .215-.141.301-.318.193-.174-.105-.316-.367-.316-.584 0-.212.142-.302.318-.191m.768.461a.75.75 0 0 1 .314.584c0 .219-.143.303-.314.193-.178-.107-.318-.369-.318-.584-.001-.212.142-.3.318-.193m.767.475c.172.105.312.365.312.582s-.141.299-.318.191a.743.743 0 0 1-.312-.582c0-.216.142-.304.318-.191"/><path fill="#c1272d" d="M1.941 43.688c.18.105.318.369.318.584 0 .213-.141.297-.318.193a.746.746 0 0 1-.312-.586c0-.214.141-.298.312-.191m.77.475c.178.109.316.369.316.586 0 .213-.146.303-.318.193-.176-.109-.316-.373-.316-.586 0-.215.142-.299.318-.193"/><path fill="#009245" d="M3.479 44.627c.171.104.316.373.316.582 0 .217-.145.303-.318.197-.178-.109-.316-.371-.316-.588-.001-.212.14-.298.318-.191"/><path fill="#c1272d" d="M4.244 45.1c.176.105.314.367.314.584-.002.211-.143.299-.32.193a.774.774 0 0 1-.314-.584c0-.216.144-.304.32-.193"/><path fill="#009245" d="M5.02 45.575a.742.742 0 0 1 .316.582c0 .217-.141.305-.318.197-.172-.107-.312-.371-.312-.584-.001-.215.14-.303.314-.195"/><path fill="#c1272d" d="M5.787 46.049c.178.107.316.375.316.586 0 .217-.141.301-.318.195a.757.757 0 0 1-.316-.584c0-.214.142-.302.318-.197"/><path fill="#009245" d="M6.555 46.514a.763.763 0 0 1 .314.586c0 .217-.143.303-.314.191-.178-.104-.318-.367-.318-.582-.001-.214.142-.302.318-.195"/><path fill="#c1272d" d="M7.322 46.985c.172.111.312.369.312.586s-.141.299-.318.195a.76.76 0 0 1-.312-.584c0-.219.142-.301.318-.197"/><path fill="#009245" d="M7.914 51.868c.178.107.32.367.32.586 0 .211-.145.299-.32.193a.762.762 0 0 1-.316-.586c0-.215.14-.301.316-.193m.77.463a.763.763 0 0 1 .312.586c0 .215-.141.299-.312.193a.745.745 0 0 1-.319-.584c0-.215.141-.299.319-.195"/><path fill="#c1272d" d="M9.447 52.803c.176.107.316.367.316.584 0 .211-.141.303-.318.193a.744.744 0 0 1-.314-.584c0-.214.142-.304.316-.193m-1.533.201c.178.106.32.367.32.586 0 .213-.145.299-.32.188-.178-.104-.316-.369-.316-.582 0-.213.14-.303.316-.192m.77.463a.772.772 0 0 1 .312.582c0 .217-.141.305-.312.193-.18-.105-.318-.369-.318-.582-.001-.216.14-.3.318-.193"/><path fill="#009245" d="M9.447 53.94c.176.104.316.365.316.582 0 .215-.141.303-.318.191a.733.733 0 0 1-.314-.582c0-.213.142-.3.316-.191"/><path fill="none" stroke="#000" d="M30.211 31.235l-11.463-7.061L.525 35.657.5 35.639v29.239l11.479 7.059v.02L30.18 60.475V31.254z" stroke-linecap="round" stroke-linejoin="round"/><path fill="#b3b3b3" d="M153.507 42.704v29.233l-11.484-7.059V35.639z"/><path fill="#333" d="M151.378 43.622v3.49l-8.189-5.037v-3.492zm0 11.769v3.486l-8.189-5.037v-3.488z"/><path fill="#e6e6e6" d="M151.378 51.004v1.008l-8.189-5.035v-1.014z"/><path fill="#333" d="M151.378 60.346v3.487l-8.189-5.036v-3.49zm0 4.953v3.49l-8.189-5.039v-3.488z"/><path fill="gray" d="M153.501 42.721l18.204-11.482v29.236l-18.204 11.482z"/><path fill="#999" d="M142.048 35.657l18.225-11.483 11.461 7.061-18.205 11.482z"/><path fill="#009245" d="M143.464 42.553c.18.105.318.365.318.582 0 .211-.141.303-.318.191a.744.744 0 0 1-.312-.582c0-.216.14-.298.312-.191"/><path fill="#c1272d" d="M144.234 43.028c.178.107.316.369.316.586 0 .211-.146.299-.318.191-.176-.105-.316-.367-.316-.582-.001-.217.142-.305.318-.195"/><path fill="#009245" d="M145.001 43.493a.76.76 0 0 1 .316.582c0 .217-.145.303-.318.195-.178-.107-.316-.373-.316-.588 0-.211.141-.297.318-.189"/><path fill="#c1272d" d="M145.767 43.965c.176.107.314.367.314.584-.002.211-.143.299-.32.189-.172-.105-.314-.369-.314-.582 0-.214.144-.302.32-.191m.775.475a.74.74 0 0 1 .316.584c0 .215-.141.303-.318.191a.757.757 0 0 1-.312-.582c0-.213.141-.3.314-.193"/><path fill="#009245" d="M147.31 44.918c.178.105.316.367.316.582 0 .215-.141.301-.318.193-.174-.105-.316-.367-.316-.584 0-.212.142-.302.318-.191m.768.461a.75.75 0 0 1 .314.584c0 .219-.143.303-.314.193-.178-.107-.318-.369-.318-.584-.001-.212.142-.3.318-.193m.767.475c.172.105.312.365.312.582s-.141.299-.318.191a.74.74 0 0 1-.312-.582c0-.216.142-.304.318-.191"/><path fill="#c1272d" d="M143.464 43.688c.18.105.318.369.318.584 0 .213-.141.297-.318.193a.746.746 0 0 1-.312-.586c0-.214.14-.298.312-.191m.77.475c.178.109.316.369.316.586 0 .213-.146.303-.318.193-.176-.109-.316-.373-.316-.586-.001-.215.142-.299.318-.193"/><path fill="#009245" d="M145.001 44.627c.172.104.316.373.316.582 0 .217-.145.303-.318.197-.178-.109-.316-.371-.316-.588 0-.212.141-.298.318-.191"/><path fill="#c1272d" d="M145.767 45.1c.176.105.314.367.314.584-.002.211-.143.299-.32.193a.774.774 0 0 1-.314-.584c0-.216.144-.304.32-.193"/><path fill="#009245" d="M146.542 45.575a.742.742 0 0 1 .316.582c0 .217-.141.305-.318.197-.172-.107-.312-.371-.312-.584 0-.215.141-.303.314-.195"/><path fill="#c1272d" d="M147.31 46.049c.178.107.316.375.316.586 0 .217-.141.301-.318.195a.757.757 0 0 1-.316-.584c0-.214.142-.302.318-.197"/><path fill="#009245" d="M148.078 46.514a.763.763 0 0 1 .314.586c0 .217-.143.303-.314.191-.178-.104-.318-.367-.318-.582-.001-.214.142-.302.318-.195"/><path fill="#c1272d" d="M148.845 46.985c.172.111.312.369.312.586s-.141.299-.318.195a.757.757 0 0 1-.312-.584c0-.219.142-.301.318-.197"/><path fill="#009245" d="M149.437 51.868c.178.107.32.367.32.586 0 .211-.145.299-.32.193a.762.762 0 0 1-.316-.586c0-.215.14-.301.316-.193m.769.463a.763.763 0 0 1 .312.586c0 .215-.141.299-.312.193a.742.742 0 0 1-.318-.584c0-.215.141-.299.318-.195"/><path fill="#c1272d" d="M150.97 52.803c.176.107.316.367.316.584 0 .211-.141.303-.318.193a.744.744 0 0 1-.314-.584c0-.214.142-.304.316-.193m-1.533.201c.178.106.32.367.32.586 0 .213-.145.299-.32.188-.178-.104-.316-.369-.316-.582 0-.213.14-.303.316-.192m.769.463a.772.772 0 0 1 .312.582c0 .217-.141.305-.312.193-.18-.105-.318-.369-.318-.582 0-.216.141-.3.318-.193"/><path fill="#009245" d="M150.97 53.94c.176.104.316.365.316.582 0 .215-.141.303-.318.191a.733.733 0 0 1-.314-.582c0-.213.142-.3.316-.191"/><path fill="none" stroke="#000" d="M171.734 31.235l-11.463-7.061-18.223 11.483-.025-.018v29.239l11.478 7.059v.02l18.202-11.482V31.254z" stroke-linecap="round" stroke-linejoin="round"/><path fill="none" stroke="#009245" d="M233.152 71.957l-7.798 27.063" stroke-linecap="round" stroke-linejoin="round"/><path fill="#009245" d="M222.713 97.348l1.44 5.807 4.31-4.151zm13.08-23.719l-1.439-5.808-4.31 4.151z"/><path fill="none" stroke="#0071bc" d="M307.353 71.957l7.798 27.063" stroke-linecap="round" stroke-linejoin="round"/><path fill="#0071bc" d="M312.025 99.009l4.31 4.151 1.439-5.807zm-1.546-27.042l-4.309-4.151-1.44 5.808z"/><path fill="#c7b299" d="M322.085 129.693h3.378l-.002.482s.083 2.393-1.686 2.393c-1.732 0-1.69-2.393-1.69-2.393v-.482z"/><ellipse cx="323.775" cy="129.693" fill="#998675" fill-rule="evenodd" rx="1.689" ry=".423" clip-rule="evenodd"/><path fill="#c7b299" d="M319.31 137.549h3.033v15.572c0 .451-.68.815-1.518.815-.837 0-1.516-.365-1.516-.815v-15.572zm-3.808 2.364h3.033v15.572c0 .449-.68.814-1.518.814s-1.516-.365-1.516-.814v-15.572z"/><path fill="#199d58" d="M325.502 115.332l-.039 13.812c0 .234-.756.425-1.688.425-.936 0-1.69-.191-1.69-.425l.038-13.812s-.082-3.235 1.69-3.235c1.73 0 1.689 3.235 1.689 3.235z"/><path fill="#009245" d="M312.654 116.553c-.008-1.158 1.117-4.539 6.16-5.501 5.565-1.06 5.652 2.84 5.652 2.84a.703.703 0 0 1-.004.258l.018 2.806s-.306 2.159-1.093 3.237c-.673.924-.716 2.63-.416 3.719.303 1.083 1.388 6.236.515 13.727 0 0-.584 1.74-4.92 2.555-4.334.919-4.916-.589-4.916-.589-.875-7.142.211-12.724.51-13.93.304-1.208.26-2.9-.413-3.554-.788-.763-1.093-2.797-1.093-2.797s-.053-2.478.003-2.9a.546.546 0 0 0-.003.129z"/><path fill="#c7b299" d="M311.3 133.993h3.378v.482s.083 2.392-1.69 2.392c-1.728 0-1.688-2.392-1.688-2.392v-.482z"/><ellipse cx="312.989" cy="133.993" fill="#998675" fill-rule="evenodd" rx="1.689" ry=".421" clip-rule="evenodd"/><path fill="#998675" d="M320.459 112.034c1.265.298 1.438 1.163.387 1.934-1.052.77-2.928 1.156-4.193.859-1.266-.299-1.439-1.164-.387-1.937 1.05-.77 2.927-1.153 4.193-.856z"/><path fill="#33a86a" d="M314.719 119.632l-.041 13.81c0 .234-.757.426-1.688.426-.934 0-1.69-.192-1.69-.426l.04-13.81s-.084-3.236 1.69-3.236c1.73 0 1.689 3.236 1.689 3.236z"/><path fill="#c7b299" d="M317.451 113.479c-3.838-.867-4.574-6.849-1.095-8.893 1.064-.621 2.084-.517 2.601-.425 2.28.539 3.136 2.676 3.281 3.851.318 2.588-.92 4.3-2.186 5.039a3.629 3.629 0 0 1-2.601.428z"/><path fill="none" stroke="#000" d="M323.812 112.097c-.021 0-.041.006-.062.007-.389-.468-.997-.892-1.922-1.096.365-.81.556-1.804.41-2.996-.145-1.175-1.001-3.312-3.281-3.851-.517-.091-1.537-.195-2.601.425-2.749 1.612-2.857 5.669-.897 7.739-2.14 1.355-2.764 3.247-2.8 4.129l-.005.004c0-.022.003-.035.003-.035l-.003.035c-1.381.426-1.315 3.174-1.315 3.174l-.04 13.81c0 .106.159.204.415.275-.256.074-.415.17-.415.275v.482s-.04 2.392 1.688 2.392c.153 0 .286-.021.411-.052.053.897.133 1.829.252 2.789 0 0 .273.712 1.852.861v15.019c0 .449.678.814 1.516.814s1.518-.365 1.518-.814v-15.287c.012 0 .021-.003.031-.003.262-.051.509-.103.744-.158v13.085c0 .451.679.815 1.516.815.838 0 1.518-.365 1.518-.815v-14.29c.951-.632 1.143-1.192 1.143-1.192.213-1.843.31-3.538.326-5.074 1.728-.035 1.648-2.389 1.648-2.389l.002-.482c0-.105-.158-.201-.414-.275.256-.072.414-.169.414-.275l.039-13.812c-.001.001.04-3.234-1.691-3.234z" stroke-linecap="round" stroke-linejoin="round"/><path fill="#c7b299" d="M229.038 129.694h3.378l-.002.482s.083 2.394-1.686 2.394c-1.731 0-1.69-2.394-1.69-2.394v-.482z"/><ellipse cx="230.728" cy="129.694" fill="#998675" fill-rule="evenodd" rx="1.689" ry=".424" clip-rule="evenodd"/><path fill="#c7b299" d="M226.263 137.55h3.034v15.572c0 .451-.68.815-1.518.815-.837 0-1.517-.365-1.517-.815V137.55zm-3.808 2.364h3.034v15.571c0 .45-.681.813-1.518.813-.839 0-1.517-.363-1.517-.813v-15.571z"/><path fill="#c73d42" d="M232.455 115.333l-.039 13.812c0 .234-.756.425-1.688.425-.936 0-1.69-.191-1.69-.425l.038-13.812s-.081-3.236 1.689-3.236c1.731 0 1.69 3.236 1.69 3.236z"/><path fill="#c1272d" d="M219.607 116.553c-.008-1.157 1.117-4.538 6.16-5.5 5.565-1.06 5.652 2.84 5.652 2.84a.698.698 0 0 1-.004.257l.018 2.807s-.306 2.159-1.093 3.236c-.673.925-.716 2.631-.416 3.72.303 1.083 1.388 6.236.515 13.726 0 0-.584 1.74-4.92 2.556-4.334.919-4.916-.589-4.916-.589-.875-7.142.211-12.724.51-13.93.304-1.208.26-2.9-.413-3.554-.788-.763-1.093-2.797-1.093-2.797s-.053-2.478.003-2.9a.617.617 0 0 0-.003.128z"/><path fill="#c7b299" d="M218.253 133.993h3.378v.483s.083 2.392-1.69 2.392c-1.728 0-1.688-2.392-1.688-2.392v-.483z"/><ellipse cx="219.943" cy="133.993" fill="#998675" fill-rule="evenodd" rx="1.689" ry=".421" clip-rule="evenodd"/><path fill="#998675" d="M227.412 112.035c1.265.298 1.439 1.163.387 1.934-1.052.769-2.928 1.156-4.193.859-1.266-.298-1.439-1.164-.387-1.936 1.051-.771 2.927-1.154 4.193-.857z"/><path fill="#cd5257" d="M221.672 119.632l-.041 13.811c0 .234-.757.427-1.688.427-.934 0-1.69-.192-1.69-.427l.04-13.811s-.084-3.235 1.689-3.235c1.731 0 1.69 3.235 1.69 3.235z"/><path fill="#c7b299" d="M224.404 113.479c-3.838-.867-4.574-6.849-1.095-8.893 1.063-.621 2.084-.518 2.601-.425 2.28.539 3.136 2.675 3.281 3.851.318 2.588-.92 4.3-2.186 5.039a3.618 3.618 0 0 1-2.601.428z"/><path fill="none" stroke="#000" d="M230.766 112.097c-.021 0-.041.005-.062.008-.389-.468-.997-.892-1.922-1.097.365-.81.556-1.804.41-2.996-.145-1.175-1.001-3.312-3.281-3.851-.517-.092-1.537-.195-2.601.425-2.749 1.612-2.858 5.67-.898 7.738-2.14 1.356-2.763 3.248-2.8 4.13l-.005.003c0-.021.003-.035.003-.035l-.003.035c-1.381.426-1.314 3.173-1.314 3.173l-.04 13.811c0 .104.16.204.416.275-.256.074-.416.17-.416.274v.483s-.04 2.392 1.688 2.392c.153 0 .286-.021.411-.052.053.897.133 1.828.252 2.789 0 0 .273.712 1.852.861v15.019c0 .45.678.813 1.517.813.837 0 1.518-.363 1.518-.813v-15.286c.011 0 .021-.004.03-.004.262-.051.509-.103.743-.158v13.085c0 .451.68.815 1.517.815.838 0 1.518-.365 1.518-.815V138.83c.951-.633 1.143-1.193 1.143-1.193.214-1.842.309-3.537.326-5.074 1.729-.036 1.648-2.389 1.648-2.389l.002-.482c0-.104-.158-.201-.414-.274.256-.072.414-.168.414-.275l.039-13.812c-.002.002.039-3.234-1.691-3.234z" stroke-linecap="round" stroke-linejoin="round"/><path fill="#b3b3b3" d="M243.506 42.704v29.233l-11.485-7.059V35.639z"/><path fill="#333" d="M241.377 43.622v3.49l-8.189-5.037v-3.492zm0 11.769v3.486l-8.189-5.037v-3.488z"/><path fill="#e6e6e6" d="M241.377 51.004v1.008l-8.189-5.035v-1.014z"/><path fill="#333" d="M241.377 60.346v3.487l-8.189-5.036v-3.49zm0 4.953v3.49l-8.189-5.039v-3.488z"/><path fill="gray" d="M243.5 42.721l18.203-11.482v29.236L243.5 71.957z"/><path fill="#999" d="M232.047 35.657l18.224-11.483 11.461 7.061-18.205 11.482z"/><path fill="#009245" d="M233.463 42.553c.18.105.318.365.318.582 0 .211-.141.303-.318.191a.744.744 0 0 1-.312-.582c-.001-.216.14-.298.312-.191"/><path fill="#c1272d" d="M234.232 43.028c.178.107.316.369.316.586 0 .211-.146.299-.318.191-.176-.105-.316-.367-.316-.582 0-.217.143-.305.318-.195"/><path fill="#009245" d="M235 43.493a.76.76 0 0 1 .316.582c0 .217-.145.303-.318.195-.178-.107-.316-.373-.316-.588 0-.211.14-.297.318-.189"/><path fill="#c1272d" d="M235.766 43.965c.176.107.314.367.314.584-.002.211-.143.299-.32.189-.172-.105-.314-.369-.314-.582-.001-.214.144-.302.32-.191m.775.475a.74.74 0 0 1 .316.584c0 .215-.141.303-.318.191a.757.757 0 0 1-.312-.582c0-.213.14-.3.314-.193"/><path fill="#009245" d="M237.309 44.918c.178.105.316.367.316.582 0 .215-.141.301-.318.193-.174-.105-.316-.367-.316-.584-.001-.212.142-.302.318-.191m.767.461a.75.75 0 0 1 .314.584c0 .219-.143.303-.314.193-.178-.107-.318-.369-.318-.584 0-.212.142-.3.318-.193m.768.475c.172.105.312.365.312.582s-.141.299-.318.191a.74.74 0 0 1-.312-.582c-.001-.216.142-.304.318-.191"/><path fill="#c1272d" d="M233.463 43.688c.18.105.318.369.318.584 0 .213-.141.297-.318.193a.746.746 0 0 1-.312-.586c-.001-.214.14-.298.312-.191m.769.475c.178.109.316.369.316.586 0 .213-.146.303-.318.193-.176-.109-.316-.373-.316-.586 0-.215.143-.299.318-.193"/><path fill="#009245" d="M235 44.627c.172.104.316.373.316.582 0 .217-.145.303-.318.197-.178-.109-.316-.371-.316-.588 0-.212.14-.298.318-.191"/><path fill="#c1272d" d="M235.766 45.1c.176.105.314.367.314.584-.002.211-.143.299-.32.193a.774.774 0 0 1-.314-.584c-.001-.216.144-.304.32-.193"/><path fill="#009245" d="M236.541 45.575a.742.742 0 0 1 .316.582c0 .217-.141.305-.318.197-.172-.107-.312-.371-.312-.584 0-.215.14-.303.314-.195"/><path fill="#c1272d" d="M237.309 46.049c.178.107.316.375.316.586 0 .217-.141.301-.318.195a.757.757 0 0 1-.316-.584c-.001-.214.142-.302.318-.197"/><path fill="#009245" d="M238.076 46.514a.763.763 0 0 1 .314.586c0 .217-.143.303-.314.191-.178-.104-.318-.367-.318-.582 0-.214.142-.302.318-.195"/><path fill="#c1272d" d="M238.844 46.985c.172.111.312.369.312.586s-.141.299-.318.195a.757.757 0 0 1-.312-.584c-.001-.219.142-.301.318-.197"/><path fill="#009245" d="M239.436 51.868c.178.107.32.367.32.586 0 .211-.145.299-.32.193a.762.762 0 0 1-.316-.586c-.001-.215.14-.301.316-.193m.769.463a.763.763 0 0 1 .312.586c0 .215-.141.299-.312.193a.742.742 0 0 1-.318-.584c0-.215.14-.299.318-.195"/><path fill="#c1272d" d="M240.969 52.803c.176.107.316.367.316.584 0 .211-.141.303-.318.193a.744.744 0 0 1-.314-.584c-.001-.214.142-.304.316-.193m-1.533.201c.178.106.32.367.32.586 0 .213-.145.299-.32.188-.178-.104-.316-.369-.316-.582-.001-.213.14-.303.316-.192m.769.463a.772.772 0 0 1 .312.582c0 .217-.141.305-.312.193-.18-.105-.318-.369-.318-.582 0-.216.14-.3.318-.193"/><path fill="#009245" d="M240.969 53.94c.176.104.316.365.316.582 0 .215-.141.303-.318.191a.733.733 0 0 1-.314-.582c-.001-.213.142-.3.316-.191"/><path fill="none" stroke="#000" d="M261.732 31.235l-11.462-7.061-18.223 11.483-.026-.018v29.239l11.479 7.059v.02l18.201-11.482V31.254z" stroke-linecap="round" stroke-linejoin="round"/><path fill="#b3b3b3" d="M293.506 42.704v29.233l-11.485-7.059V35.639z"/><path fill="#333" d="M291.377 43.622v3.49l-8.189-5.037v-3.492zm0 11.769v3.486l-8.189-5.037v-3.488z"/><path fill="#e6e6e6" d="M291.377 51.004v1.008l-8.189-5.035v-1.014z"/><path fill="#333" d="M291.377 60.346v3.487l-8.189-5.036v-3.49zm0 4.953v3.49l-8.189-5.039v-3.488z"/><path fill="gray" d="M293.5 42.721l18.203-11.482v29.236L293.5 71.957z"/><path fill="#999" d="M282.047 35.657l18.224-11.483 11.461 7.061-18.205 11.482z"/><path fill="#009245" d="M283.463 42.553c.18.105.318.365.318.582 0 .211-.141.303-.318.191a.744.744 0 0 1-.312-.582c-.001-.216.14-.298.312-.191"/><path fill="#c1272d" d="M284.232 43.028c.178.107.316.369.316.586 0 .211-.147.299-.318.191-.176-.105-.316-.367-.316-.582 0-.217.143-.305.318-.195"/><path fill="#009245" d="M285 43.493a.76.76 0 0 1 .316.582c0 .217-.145.303-.318.195-.178-.107-.316-.373-.316-.588 0-.211.14-.297.318-.189"/><path fill="#c1272d" d="M285.766 43.965c.176.107.314.367.314.584-.002.211-.143.299-.32.189-.172-.105-.315-.369-.315-.582 0-.214.145-.302.321-.191m.775.475a.74.74 0 0 1 .316.584c0 .215-.141.303-.318.191a.757.757 0 0 1-.312-.582c0-.213.14-.3.314-.193"/><path fill="#009245" d="M287.309 44.918c.178.105.316.367.316.582 0 .215-.141.301-.318.193-.174-.105-.316-.367-.316-.584-.001-.212.142-.302.318-.191m.767.461a.75.75 0 0 1 .314.584c0 .219-.143.303-.314.193-.178-.107-.318-.369-.318-.584 0-.212.142-.3.318-.193m.768.475c.172.105.312.365.312.582s-.141.299-.318.191a.74.74 0 0 1-.312-.582c-.001-.216.142-.304.318-.191"/><path fill="#c1272d" d="M283.463 43.688c.18.105.318.369.318.584 0 .213-.141.297-.318.193a.746.746 0 0 1-.312-.586c-.001-.214.14-.298.312-.191m.769.475c.178.109.316.369.316.586 0 .213-.147.303-.318.193-.176-.109-.316-.373-.316-.586 0-.215.143-.299.318-.193"/><path fill="#009245" d="M285 44.627c.172.104.316.373.316.582 0 .217-.145.303-.318.197-.178-.109-.316-.371-.316-.588 0-.212.14-.298.318-.191"/><path fill="#c1272d" d="M285.766 45.1c.176.105.314.367.314.584-.002.211-.143.299-.32.193a.775.775 0 0 1-.315-.584c0-.216.145-.304.321-.193"/><path fill="#009245" d="M286.541 45.575a.742.742 0 0 1 .316.582c0 .217-.141.305-.318.197-.172-.107-.312-.371-.312-.584 0-.215.14-.303.314-.195"/><path fill="#c1272d" d="M287.309 46.049c.178.107.316.375.316.586 0 .217-.141.301-.318.195a.757.757 0 0 1-.316-.584c-.001-.214.142-.302.318-.197"/><path fill="#009245" d="M288.076 46.514a.763.763 0 0 1 .314.586c0 .217-.143.303-.314.191-.178-.104-.318-.367-.318-.582 0-.214.142-.302.318-.195"/><path fill="#c1272d" d="M288.844 46.985c.172.111.312.369.312.586s-.141.299-.318.195a.757.757 0 0 1-.312-.584c-.001-.219.142-.301.318-.197"/><path fill="#009245" d="M289.435 51.868c.178.107.32.367.32.586 0 .211-.145.299-.32.193a.762.762 0 0 1-.316-.586c0-.215.141-.301.316-.193m.77.463a.763.763 0 0 1 .312.586c0 .215-.141.299-.312.193a.742.742 0 0 1-.318-.584c0-.215.14-.299.318-.195"/><path fill="#c1272d" d="M290.969 52.803c.176.107.316.367.316.584 0 .211-.141.303-.318.193a.748.748 0 0 1-.315-.584c0-.214.143-.304.317-.193m-1.534.201c.178.106.32.367.32.586 0 .213-.145.299-.32.188-.178-.104-.316-.369-.316-.582 0-.213.141-.303.316-.192m.77.463a.772.772 0 0 1 .312.582c0 .217-.141.305-.312.193-.18-.105-.318-.369-.318-.582 0-.216.14-.3.318-.193"/><path fill="#009245" d="M290.969 53.94c.176.104.316.365.316.582 0 .215-.141.303-.318.191a.737.737 0 0 1-.315-.582c0-.213.143-.3.317-.191"/><path fill="none" stroke="#000" d="M311.732 31.235l-11.462-7.061-18.223 11.483-.026-.018v29.239l11.479 7.059v.02l18.201-11.482V31.254z" stroke-linecap="round" stroke-linejoin="round"/><g fill="none" stroke="#000" stroke-miterlimit="10"><path d="M111.878.431v1"/><path d="M111.878 3.414v153.691" stroke-dasharray="1.983 1.983"/><path d="M111.878 158.097v1"/></g><g fill="none" stroke="#000" stroke-miterlimit="10"><path d="M201.878.431v1"/><path d="M201.878 3.414v153.691" stroke-dasharray="1.983 1.983"/><path d="M201.878 158.097v1"/></g><path d="M26.584 6.507c.225.135.621.243.937.243.594 0 .918-.342.918-.847 0-.485-.297-.765-.792-1.107-.675-.432-1.144-1.035-1.144-1.692 0-.945.639-1.692 1.773-1.692.387 0 .738.117.9.217l-.171.828a1.392 1.392 0 0 0-.747-.207c-.549 0-.811.369-.811.738 0 .468.243.684.864 1.08.765.504 1.071 1.089 1.071 1.737 0 1.089-.774 1.782-1.863 1.782-.45 0-.909-.126-1.099-.252l.164-.828zm4.51-5.041v6.067h-.964V1.466h.964zm1.07.09a5.083 5.083 0 0 1 1.125-.117c.64 0 1.162.117 1.521.459.324.307.486.774.486 1.297 0 .611-.171 1.025-.45 1.35-.36.424-.945.631-1.458.631-.099 0-.18 0-.27-.01v2.368h-.954V1.556zm.954 2.817a.868.868 0 0 0 .234.019c.63 0 .981-.433.981-1.126 0-.566-.234-1.044-.882-1.044a1.1 1.1 0 0 0-.333.045v2.106zm2.313 3.521l2.035-6.5h.657l-2.035 6.5h-.657zm3.717-6.428h.963v4.23c0 1.576-.711 1.909-1.575 1.909-.216 0-.405-.027-.531-.072l.081-.819c.099.036.225.045.36.045.414 0 .702-.162.702-1.026V1.466zm2.322 1.098c-.279 0-.504-.225-.504-.558 0-.343.234-.559.513-.559.306 0 .522.216.522.559 0 .333-.216.558-.522.558h-.009zm-.459 4.969V3.148h.963v4.385h-.963zm1.845-3.151c0-.495-.018-.846-.036-1.233h.837l.045.514h.018a1.176 1.176 0 0 1 1.036-.585c.738 0 1.125.566 1.125 1.584v2.872h-.963V4.751c0-.44-.09-.864-.513-.864-.234 0-.45.181-.541.541a1.49 1.49 0 0 0-.045.396v2.71h-.963V4.382zm6.859 2.629c0 1.035-.162 1.513-.486 1.846-.297.307-.738.478-1.305.478-.396 0-.765-.081-1.044-.207l.198-.747c.198.099.477.188.828.188.576 0 .855-.369.855-1.188v-.343h-.018c-.153.306-.459.478-.811.478-.891 0-1.332-.991-1.332-2.144 0-1.53.693-2.295 1.431-2.295.405 0 .657.243.811.54h.018l.054-.469h.846c-.027.36-.045.784-.045 1.378v2.485zm-.954-2.305a1.18 1.18 0 0 0-.045-.324c-.063-.233-.198-.495-.486-.495-.459 0-.675.622-.675 1.45 0 .954.288 1.413.657 1.413.18 0 .387-.09.495-.459a1.02 1.02 0 0 0 .054-.369V4.706zm1.825-3.402h.963v6.229h-.963V1.304zm2.665 4.294c.009.981.459 1.251.972 1.251.324 0 .594-.071.783-.152l.144.683c-.279.126-.702.207-1.098.207-1.134 0-1.737-.819-1.737-2.179 0-1.449.693-2.331 1.629-2.331.918 0 1.386.837 1.386 2.008 0 .252-.009.396-.027.513h-2.052zm1.188-.685c.009-.702-.225-1.116-.567-1.116-.414 0-.603.604-.621 1.116h1.188zM55.5 7.894l2.035-6.5h.657l-2.035 6.5H55.5zm4.096-6.428v6.067h-.963V1.466h.963zm.935 5.041c.225.135.621.243.937.243.594 0 .918-.342.918-.847 0-.485-.297-.765-.792-1.107-.675-.432-1.144-1.035-1.144-1.692 0-.945.639-1.692 1.773-1.692.387 0 .738.117.9.217l-.171.828a1.392 1.392 0 0 0-.747-.207c-.549 0-.811.369-.811.738 0 .468.243.684.864 1.08.765.504 1.071 1.089 1.071 1.737 0 1.089-.774 1.782-1.863 1.782-.45 0-.909-.126-1.099-.252l.164-.828zm4.483-5.041v3.997c0 .981.306 1.296.685 1.296.423 0 .702-.306.702-1.296V1.466h.963v3.835c0 1.566-.621 2.305-1.665 2.305-1.107 0-1.647-.757-1.647-2.26v-3.88h.962zm3.393.09a5.083 5.083 0 0 1 1.125-.117c.639 0 1.161.117 1.521.459.324.307.486.774.486 1.297 0 .611-.171 1.025-.45 1.35-.36.424-.945.631-1.458.631-.099 0-.18 0-.27-.01v2.368h-.954V1.556zm.954 2.817a.868.868 0 0 0 .234.019c.63 0 .981-.433.981-1.126 0-.566-.234-1.044-.882-1.044a1.1 1.1 0 0 0-.333.045v2.106zM24.15 15.814c.153.099.423.225.702.225.387 0 .639-.243.639-.63 0-.333-.117-.567-.558-.855-.567-.369-.873-.747-.873-1.242 0-.712.522-1.207 1.197-1.207.342 0 .594.108.774.226l-.18.522a.994.994 0 0 0-.585-.198c-.369 0-.558.27-.558.558s.108.459.54.747c.504.324.9.729.9 1.333 0 .873-.594 1.296-1.314 1.296-.315 0-.666-.099-.855-.252l.171-.523zm3.042-4.313c-.225 0-.396-.181-.396-.45 0-.271.18-.45.405-.45.252 0 .414.18.414.45s-.162.45-.414.45h-.009zm-.324 5.032v-4.357h.693v4.357h-.693zm4.284-.558c0 1.144-.144 1.576-.432 1.9-.27.288-.675.459-1.161.459-.369 0-.729-.09-.954-.216l.162-.541c.171.091.459.189.801.189.549 0 .892-.342.892-1.332v-.441h-.018a.873.873 0 0 1-.828.531c-.774 0-1.279-.873-1.279-2.152 0-1.611.72-2.269 1.369-2.269.459 0 .675.307.81.559h.018l.036-.486h.621c-.009.297-.036.685-.036 1.359v2.44zm-.693-2.295c0-.117-.009-.226-.036-.324-.072-.288-.234-.657-.63-.657-.495 0-.765.675-.765 1.639 0 1.116.351 1.62.765 1.62.216 0 .486-.099.621-.621.045-.135.045-.271.045-.396V13.68zm1.656-.379c0-.513-.027-.773-.036-1.125h.603l.036.522h.018c.189-.352.54-.595.999-.595.604 0 1.054.441 1.054 1.504v2.926h-.693v-2.809c0-.522-.099-1.035-.603-1.035-.288 0-.567.243-.648.711a1.57 1.57 0 0 0-.036.387v2.746h-.693v-3.232zm5.94 2.242c0 .333 0 .711.045.99h-.621l-.045-.459h-.027c-.189.333-.495.531-.864.531-.585 0-1.036-.486-1.036-1.242 0-1.099.874-1.576 1.855-1.585v-.135c0-.585-.145-.99-.693-.99-.27 0-.513.081-.72.225l-.153-.486c.189-.135.585-.288 1.018-.288.873 0 1.242.576 1.242 1.549v1.89zm-.675-1.27c-.36 0-1.197.072-1.197 1.018 0 .576.288.774.531.774.306 0 .558-.226.639-.657a1.2 1.2 0 0 0 .027-.252v-.883zm1.656-3.969h.693v6.229h-.693v-6.229zm2.043 1.197c-.225 0-.396-.181-.396-.45 0-.271.18-.45.405-.45.252 0 .414.18.414.45s-.162.45-.414.45h-.009zm-.324 5.032v-4.357h.693v4.357h-.693zm1.656-3.232c0-.513-.027-.773-.036-1.125h.603l.036.522h.018c.189-.352.54-.595.999-.595.604 0 1.054.441 1.054 1.504v2.926h-.693v-2.809c0-.522-.099-1.035-.603-1.035-.288 0-.567.243-.648.711a1.57 1.57 0 0 0-.036.387v2.746h-.693v-3.232zm6.273 2.674c0 1.144-.144 1.576-.432 1.9-.27.288-.675.459-1.161.459-.369 0-.729-.09-.954-.216l.162-.541c.171.091.459.189.801.189.549 0 .892-.342.892-1.332v-.441h-.018a.873.873 0 0 1-.828.531c-.774 0-1.279-.873-1.279-2.152 0-1.611.72-2.269 1.369-2.269.459 0 .675.307.81.559h.018l.036-.486h.621c-.009.297-.036.685-.036 1.359v2.44zm-.693-2.295c0-.117-.009-.226-.036-.324-.072-.288-.234-.657-.63-.657-.495 0-.765.675-.765 1.639 0 1.116.351 1.62.765 1.62.216 0 .486-.099.622-.621.045-.135.045-.271.045-.396V13.68zm5.697 2.295c0 1.144-.144 1.576-.432 1.9-.27.288-.675.459-1.161.459-.369 0-.729-.09-.954-.216l.162-.541c.171.091.459.189.801.189.549 0 .892-.342.892-1.332v-.441h-.018a.873.873 0 0 1-.828.531c-.774 0-1.279-.873-1.279-2.152 0-1.611.72-2.269 1.369-2.269.459 0 .675.307.81.559h.018l.036-.486h.621c-.009.297-.036.685-.036 1.359v2.44zm-.693-2.295c0-.117-.009-.226-.036-.324-.072-.288-.234-.657-.63-.657-.495 0-.765.675-.765 1.639 0 1.116.351 1.62.765 1.62.216 0 .486-.099.622-.621.045-.135.045-.271.045-.396V13.68zm3.951 1.863c0 .333 0 .711.045.99h-.621l-.045-.459h-.027c-.189.333-.495.531-.864.531-.585 0-1.036-.486-1.036-1.242 0-1.099.874-1.576 1.855-1.585v-.135c0-.585-.145-.99-.693-.99-.27 0-.513.081-.72.225l-.153-.486c.189-.135.585-.288 1.018-.288.873 0 1.242.576 1.242 1.549v1.89zm-.675-1.27c-.36 0-1.197.072-1.197 1.018 0 .576.288.774.531.774.306 0 .558-.226.639-.657a1.2 1.2 0 0 0 .027-.252v-.883zm2.42-3.115v1.018h.837v.522h-.837v2.593c0 .576.198.72.45.72.117 0 .207-.009.279-.026l.036.531a1.522 1.522 0 0 1-.513.071c-.279 0-.522-.071-.684-.261-.18-.198-.261-.495-.261-1.099v-2.529h-.531v-.522h.531v-.738l.693-.28zm1.863 3.26c.009 1.341.531 1.62 1.026 1.62.306 0 .549-.072.72-.162l.117.504c-.243.136-.612.207-.963.207-1.035 0-1.576-.846-1.576-2.188 0-1.413.594-2.296 1.468-2.296.882 0 1.242.937 1.242 1.918 0 .171-.009.288-.018.396h-2.016zm1.369-.514c.009-.873-.315-1.261-.648-1.261-.45 0-.684.667-.711 1.261h1.359zm1.764-1.728l.423 2.134c.09.468.18.937.234 1.387h.036c.063-.45.171-.955.27-1.369l.504-2.151h.531l.477 2.089c.108.486.207.945.279 1.432h.036c.054-.459.135-.909.234-1.404l.414-2.116h.693l-1.098 4.357h-.567l-.504-2.115a12.152 12.152 0 0 1-.243-1.306h-.018c-.072.513-.153.918-.252 1.332l-.522 2.089h-.585l-1.062-4.357h.72zm6.957 3.367c0 .333 0 .711.045.99h-.621l-.045-.459h-.027c-.189.333-.495.531-.864.531-.585 0-1.036-.486-1.036-1.242 0-1.099.874-1.576 1.854-1.585v-.135c0-.585-.144-.99-.693-.99-.27 0-.513.081-.72.225l-.153-.486c.189-.135.585-.288 1.018-.288.873 0 1.242.576 1.242 1.549v1.89zm-.676-1.27c-.36 0-1.197.072-1.197 1.018 0 .576.288.774.531.774.306 0 .558-.226.639-.657a1.2 1.2 0 0 0 .027-.252v-.883zm1.926-2.097l.576 2.503c.081.342.117.621.18.9h.018c.045-.252.117-.576.189-.892l.513-2.512h.684l-.711 2.8c-.271 1.09-.567 2.143-1.081 2.809-.306.388-.63.586-.783.657l-.252-.585c.198-.117.423-.306.612-.549.18-.234.324-.522.396-.738a.578.578 0 0 0 .045-.216c0-.055 0-.108-.018-.162l-1.098-4.016h.73zm77.249-4.741c-.18.09-.495.152-.891.152-1.386 0-2.179-1.134-2.179-3.007 0-2.331 1.233-3.169 2.314-3.169.396 0 .675.081.792.153l-.18.819a1.137 1.137 0 0 0-.576-.126c-.657 0-1.332.603-1.332 2.26 0 1.629.612 2.215 1.341 2.215.225 0 .45-.055.594-.108l.117.811zm3.483-1.18c0 .478.018.909.036 1.278h-.837l-.054-.459h-.018a1.193 1.193 0 0 1-.981.531c-.801 0-1.125-.604-1.125-1.747v-2.71h.963v2.593c0 .631.108 1.062.504 1.062.297 0 .45-.252.495-.432.036-.1.054-.234.054-.378V3.148h.963v3.107zm.827.369c.162.108.459.234.756.234.342 0 .549-.181.549-.505 0-.27-.126-.45-.531-.711-.657-.387-.892-.811-.892-1.251 0-.757.549-1.314 1.341-1.314.352 0 .63.099.837.216l-.189.711a1.121 1.121 0 0 0-.603-.188c-.333 0-.495.216-.495.459 0 .234.108.369.522.639.585.352.9.783.9 1.333 0 .891-.621 1.341-1.45 1.341-.342 0-.747-.099-.936-.252l.191-.712zm3.996-4.564v1.089h.847v.693h-.847V6.12c0 .54.208.675.45.675.108 0 .198-.009.297-.027l.018.748c-.144.045-.36.071-.63.071-.306 0-.585-.081-.774-.27-.216-.217-.324-.531-.324-1.188V3.842h-.522v-.694h.522v-.755l.963-.333zm2.755 5.546c-.927 0-1.566-.774-1.566-2.251 0-1.594.783-2.277 1.603-2.277.918 0 1.548.801 1.548 2.25 0 1.773-.918 2.278-1.575 2.278h-.01zm.036-.739c.477 0 .585-.864.585-1.53 0-.64-.108-1.521-.603-1.521-.522 0-.621.882-.621 1.521 0 .738.126 1.53.63 1.53h.009zm2.258-2.485c0-.495-.018-.846-.036-1.233h.837l.045.522h.018c.208-.333.567-.594 1.026-.594.45 0 .774.216.937.63h.018c.108-.189.27-.36.432-.468.18-.108.387-.162.612-.162.703 0 1.099.54 1.099 1.62v2.836h-.955V4.877c0-.53-.072-.999-.495-.999-.252 0-.45.189-.531.514-.027.09-.036.216-.036.351v2.791h-.955V4.725c0-.388-.054-.847-.486-.847-.234 0-.459.181-.54.531a2.03 2.03 0 0 0-.036.352v2.772h-.955V4.382zm-30.441 11.432c.153.099.423.225.702.225.387 0 .639-.243.639-.63 0-.333-.117-.567-.558-.855-.567-.369-.873-.747-.873-1.242 0-.712.522-1.207 1.197-1.207.342 0 .594.108.774.226l-.18.522a.994.994 0 0 0-.585-.198c-.369 0-.558.27-.558.558s.108.459.54.747c.504.324.9.729.9 1.333 0 .873-.594 1.296-1.314 1.296-.315 0-.666-.099-.855-.252l.171-.523zm3.042-4.313c-.225 0-.396-.181-.396-.45 0-.271.18-.45.405-.45.252 0 .414.18.414.45s-.162.45-.414.45h-.009zm-.324 5.032v-4.357h.693v4.357h-.693zm4.284-.558c0 1.144-.144 1.576-.432 1.9-.27.288-.675.459-1.161.459-.369 0-.729-.09-.954-.216l.162-.541c.171.091.459.189.801.189.549 0 .892-.342.892-1.332v-.441h-.018a.873.873 0 0 1-.828.531c-.774 0-1.279-.873-1.279-2.152 0-1.611.72-2.269 1.369-2.269.459 0 .675.307.81.559h.018l.036-.486h.621c-.009.297-.036.685-.036 1.359v2.44zm-.693-2.295c0-.117-.009-.226-.036-.324-.072-.288-.234-.657-.63-.657-.495 0-.765.675-.765 1.639 0 1.116.351 1.62.765 1.62.216 0 .486-.099.621-.621.045-.135.045-.271.045-.396V13.68zm1.655-.379c0-.513-.027-.773-.036-1.125h.603l.036.522h.018c.189-.352.54-.595.999-.595.604 0 1.054.441 1.054 1.504v2.926h-.693v-2.809c0-.522-.099-1.035-.603-1.035-.288 0-.567.243-.648.711a1.57 1.57 0 0 0-.036.387v2.746h-.693v-3.232zm5.941 2.242c0 .333 0 .711.045.99h-.621l-.045-.459h-.027c-.189.333-.495.531-.864.531-.585 0-1.036-.486-1.036-1.242 0-1.099.874-1.576 1.855-1.585v-.135c0-.585-.145-.99-.693-.99-.27 0-.513.081-.72.225l-.153-.486c.189-.135.585-.288 1.018-.288.873 0 1.242.576 1.242 1.549v1.89zm-.675-1.27c-.36 0-1.197.072-1.197 1.018 0 .576.288.774.531.774.306 0 .558-.226.639-.657a1.2 1.2 0 0 0 .027-.252v-.883zm1.655-3.969h.693v6.229h-.693v-6.229zm2.043 1.197c-.225 0-.396-.181-.396-.45 0-.271.18-.45.405-.45.252 0 .414.18.414.45s-.162.45-.414.45h-.009zm-.323 5.032v-4.357h.693v4.357h-.693zm1.655-3.232c0-.513-.027-.773-.036-1.125h.603l.036.522h.018c.189-.352.54-.595.999-.595.604 0 1.054.441 1.054 1.504v2.926h-.693v-2.809c0-.522-.099-1.035-.603-1.035-.288 0-.567.243-.648.711a1.57 1.57 0 0 0-.036.387v2.746h-.693v-3.232zm6.274 2.674c0 1.144-.144 1.576-.432 1.9-.27.288-.675.459-1.161.459-.369 0-.729-.09-.954-.216l.162-.541c.171.091.459.189.801.189.549 0 .892-.342.892-1.332v-.441h-.018a.873.873 0 0 1-.828.531c-.774 0-1.279-.873-1.279-2.152 0-1.611.72-2.269 1.369-2.269.459 0 .675.307.81.559h.018l.036-.486h.621c-.009.297-.036.685-.036 1.359v2.44zm-.693-2.295c0-.117-.009-.226-.036-.324-.072-.288-.234-.657-.63-.657-.495 0-.765.675-.765 1.639 0 1.116.351 1.62.765 1.62.216 0 .486-.099.622-.621.045-.135.045-.271.045-.396V13.68zm5.697 2.295c0 1.144-.144 1.576-.432 1.9-.27.288-.675.459-1.161.459-.369 0-.729-.09-.954-.216l.162-.541c.171.091.459.189.801.189.549 0 .892-.342.892-1.332v-.441h-.018a.873.873 0 0 1-.828.531c-.774 0-1.279-.873-1.279-2.152 0-1.611.72-2.269 1.369-2.269.459 0 .675.307.81.559h.018l.036-.486h.621c-.009.297-.036.685-.036 1.359v2.44zm-.693-2.295c0-.117-.009-.226-.036-.324-.072-.288-.234-.657-.63-.657-.495 0-.765.675-.765 1.639 0 1.116.351 1.62.765 1.62.216 0 .486-.099.622-.621.045-.135.045-.271.045-.396V13.68zm3.951 1.863c0 .333 0 .711.045.99h-.621l-.045-.459h-.027c-.189.333-.495.531-.864.531-.585 0-1.036-.486-1.036-1.242 0-1.099.874-1.576 1.855-1.585v-.135c0-.585-.145-.99-.693-.99-.27 0-.513.081-.72.225l-.153-.486c.189-.135.585-.288 1.018-.288.873 0 1.242.576 1.242 1.549v1.89zm-.676-1.27c-.36 0-1.197.072-1.197 1.018 0 .576.288.774.531.774.306 0 .558-.226.639-.657a1.2 1.2 0 0 0 .027-.252v-.883zm2.421-3.115v1.018h.837v.522h-.837v2.593c0 .576.198.72.45.72.117 0 .207-.009.279-.026l.036.531a1.522 1.522 0 0 1-.513.071c-.279 0-.522-.071-.684-.261-.18-.198-.261-.495-.261-1.099v-2.529h-.531v-.522h.531v-.738l.693-.28zm1.863 3.26c.009 1.341.531 1.62 1.026 1.62.306 0 .549-.072.72-.162l.117.504c-.243.136-.612.207-.963.207-1.035 0-1.576-.846-1.576-2.188 0-1.413.594-2.296 1.468-2.296.882 0 1.242.937 1.242 1.918 0 .171-.009.288-.018.396h-2.016zm1.369-.514c.009-.873-.315-1.261-.648-1.261-.45 0-.684.667-.711 1.261h1.359zm1.763-1.728l.423 2.134c.09.468.18.937.234 1.387h.036c.063-.45.171-.955.271-1.369l.504-2.151h.531l.478 2.089c.107.486.207.945.279 1.432h.035c.055-.459.136-.909.234-1.404l.414-2.116h.693l-1.099 4.357h-.566l-.505-2.115a12.404 12.404 0 0 1-.243-1.306h-.018c-.072.513-.153.918-.252 1.332l-.522 2.089h-.585l-1.062-4.357h.72zm6.958 3.367c0 .333 0 .711.045.99h-.621l-.045-.459h-.027c-.188.333-.495.531-.864.531-.585 0-1.035-.486-1.035-1.242 0-1.099.873-1.576 1.854-1.585v-.135c0-.585-.144-.99-.693-.99-.27 0-.513.081-.72.225l-.153-.486c.189-.135.585-.288 1.018-.288.873 0 1.242.576 1.242 1.549v1.89zm-.676-1.27c-.359 0-1.197.072-1.197 1.018 0 .576.288.774.531.774.307 0 .559-.226.64-.657.018-.081.026-.171.026-.252v-.883zm1.926-2.097l.576 2.503c.081.342.117.621.181.9h.018c.045-.252.117-.576.189-.892l.513-2.512h.685l-.711 2.8c-.271 1.09-.567 2.143-1.081 2.809-.306.388-.63.586-.783.657l-.252-.585c.198-.117.423-.306.612-.549.18-.234.324-.522.396-.738a.578.578 0 0 0 .045-.216c0-.055 0-.108-.019-.162l-1.098-4.016h.729zm74.501-6.984a36.453 36.453 0 0 1-.063-2.179h-.026a31.37 31.37 0 0 1-.423 1.98l-.631 2.467h-.656l-.595-2.403a22.353 22.353 0 0 1-.433-2.044h-.026a65.86 65.86 0 0 1-.081 2.206l-.108 2.313h-.837l.404-6.067h1.018l.586 2.457c.188.783.342 1.423.459 2.106h.018a30.69 30.69 0 0 1 .424-2.106l.566-2.457h1.035l.36 6.067h-.873l-.118-2.34zm4.752 1.063c0 .478.019.909.036 1.278h-.838l-.054-.459h-.018a1.193 1.193 0 0 1-.981.531c-.801 0-1.125-.604-1.125-1.747v-2.71h.963v2.593c0 .631.107 1.062.504 1.062.297 0 .45-.252.495-.432.036-.1.054-.234.054-.378V3.148h.964v3.107zm.899-4.951h.963v6.229h-.963V1.304zm3.041.756v1.089h.848v.693h-.848V6.12c0 .54.208.675.451.675a1.6 1.6 0 0 0 .297-.027l.018.748a2.238 2.238 0 0 1-.63.071c-.306 0-.585-.081-.774-.27-.216-.217-.324-.531-.324-1.188V3.842h-.521v-.694h.521v-.755l.962-.333zm1.882.504c-.279 0-.505-.225-.505-.558 0-.343.234-.559.514-.559.307 0 .522.216.522.559 0 .333-.216.558-.522.558h-.009zm-.46 4.969V3.148h.964v4.385h-.964zm3.547-2.772v.702h-1.873v-.702h1.873zm3.744 2.25c0 1.035-.162 1.513-.486 1.846-.297.307-.738.478-1.305.478-.396 0-.766-.081-1.045-.207l.198-.747c.198.099.478.188.828.188.576 0 .855-.369.855-1.188v-.343h-.019c-.152.306-.459.478-.811.478-.891 0-1.332-.991-1.332-2.144 0-1.53.693-2.295 1.432-2.295.405 0 .657.243.811.54h.018l.055-.469h.846c-.027.36-.045.784-.045 1.378v2.485zm-.954-2.305c0-.117-.019-.233-.046-.324-.062-.233-.197-.495-.485-.495-.46 0-.675.622-.675 1.45 0 .954.287 1.413.656 1.413.181 0 .388-.09.496-.459a1.02 1.02 0 0 0 .054-.369V4.706zm4.499 1.828c0 .342.01.711.055.999h-.864l-.054-.441h-.019c-.225.333-.549.514-.927.514-.631 0-1.107-.522-1.107-1.297 0-1.125.954-1.603 1.944-1.611V4.58c0-.459-.181-.774-.657-.774-.314 0-.576.091-.819.243l-.18-.657c.216-.135.675-.314 1.206-.314 1.135 0 1.422.774 1.422 1.71v1.746zm-.945-1.197c-.377.009-1.053.107-1.053.873 0 .495.262.675.477.675.244 0 .469-.162.55-.504a.818.818 0 0 0 .026-.225v-.819zm2.898-3.277v1.089h.847v.693h-.847V6.12c0 .54.207.675.45.675.108 0 .198-.009.298-.027l.018.748a2.25 2.25 0 0 1-.631.071c-.306 0-.584-.081-.773-.27-.217-.217-.324-.531-.324-1.188V3.842h-.522v-.694h.522v-.755l.962-.333zm2.133 3.538c.01.981.459 1.251.973 1.251.324 0 .594-.071.783-.152l.145.684c-.279.126-.703.207-1.099.207-1.134 0-1.737-.819-1.737-2.179 0-1.449.693-2.331 1.629-2.331.918 0 1.387.837 1.387 2.008 0 .252-.009.396-.027.513h-2.054zm1.189-.685c.008-.702-.226-1.116-.568-1.116-.414 0-.603.604-.621 1.116h1.189zm2.196-1.765l.314 2.008c.072.469.145.928.189 1.359h.027c.072-.432.171-.927.261-1.341l.44-2.026h.738l.414 1.972c.109.495.189.937.262 1.396h.018c.045-.432.117-.891.198-1.377l.333-1.99h.955l-1.117 4.385h-.811l-.404-1.792c-.1-.423-.172-.846-.234-1.35h-.018c-.063.513-.162.945-.262 1.359l-.432 1.782h-.828l-1.071-4.385h1.028zm7.281 3.386c0 .342.01.711.055.999h-.865l-.054-.441h-.018c-.226.333-.55.514-.928.514-.63 0-1.106-.522-1.106-1.297 0-1.125.953-1.603 1.943-1.611V4.58c0-.459-.18-.774-.656-.774a1.5 1.5 0 0 0-.82.243l-.18-.657c.217-.135.676-.314 1.207-.314 1.134 0 1.422.774 1.422 1.71v1.746zm-.945-1.197c-.378.009-1.053.107-1.053.873 0 .495.261.675.477.675.243 0 .469-.162.549-.504a.817.817 0 0 0 .027-.225v-.819zm2.384-2.189l.495 2.386c.063.298.108.559.153.811h.018c.036-.234.09-.522.145-.801l.432-2.396h.945l-.818 3.134c-.234.945-.531 1.891-1.027 2.493-.342.414-.729.621-.9.685l-.314-.828a1.968 1.968 0 0 0 .982-1.062.546.546 0 0 0 .054-.207.51.51 0 0 0-.027-.162l-1.161-4.052h1.023zm-42.115 12.666c.153.099.424.225.703.225.387 0 .639-.243.639-.63 0-.333-.117-.567-.559-.855-.566-.369-.873-.747-.873-1.242 0-.712.522-1.207 1.197-1.207.342 0 .595.108.774.226l-.18.522a.994.994 0 0 0-.585-.198c-.369 0-.559.27-.559.558s.107.459.54.747c.505.324.9.729.9 1.333 0 .873-.595 1.296-1.314 1.296-.315 0-.666-.099-.854-.252l.171-.523zm3.043-4.313c-.226 0-.396-.181-.396-.45 0-.271.18-.45.405-.45.252 0 .414.18.414.45s-.162.45-.414.45h-.009zm-.324 5.032v-4.357h.693v4.357h-.693zm4.284-.558c0 1.144-.144 1.576-.433 1.9-.27.288-.674.459-1.16.459-.369 0-.729-.09-.955-.216l.162-.541c.172.091.459.189.801.189.55 0 .893-.342.893-1.332v-.441h-.019a.873.873 0 0 1-.828.531c-.774 0-1.278-.873-1.278-2.152 0-1.611.72-2.269 1.368-2.269.459 0 .675.307.81.559h.019l.036-.486h.621c-.009.297-.036.685-.036 1.359v2.44zm-.692-2.295c0-.117-.01-.226-.037-.324-.072-.288-.233-.657-.63-.657-.495 0-.765.675-.765 1.639 0 1.116.351 1.62.765 1.62.216 0 .486-.099.621-.621.046-.135.046-.271.046-.396V13.68zm1.654-.379c0-.513-.027-.773-.035-1.125h.603l.036.522h.018a1.106 1.106 0 0 1 1-.595c.604 0 1.053.441 1.053 1.504v2.926h-.693v-2.809c0-.522-.099-1.035-.603-1.035-.288 0-.567.243-.648.711a1.62 1.62 0 0 0-.036.387v2.746h-.693v-3.232zm5.941 2.242c0 .333 0 .711.045.99h-.621l-.045-.459h-.027c-.189.333-.495.531-.864.531-.585 0-1.036-.486-1.036-1.242 0-1.099.874-1.576 1.855-1.585v-.135c0-.585-.145-.99-.693-.99-.27 0-.514.081-.721.225l-.152-.486c.189-.135.585-.288 1.018-.288.873 0 1.242.576 1.242 1.549v1.89zm-.675-1.27c-.359 0-1.197.072-1.197 1.018 0 .576.288.774.531.774.307 0 .559-.226.639-.657.019-.081.027-.171.027-.252v-.883zm1.656-3.969h.692v6.229h-.692v-6.229zm2.043 1.197c-.226 0-.396-.181-.396-.45 0-.271.18-.45.405-.45.252 0 .414.18.414.45s-.162.45-.414.45h-.009zm-.324 5.032v-4.357h.693v4.357h-.693zm1.656-3.232c0-.513-.027-.773-.037-1.125h.604l.036.522h.019c.188-.352.539-.595.998-.595.604 0 1.055.441 1.055 1.504v2.926h-.693v-2.809c0-.522-.1-1.035-.604-1.035-.288 0-.567.243-.648.711a1.57 1.57 0 0 0-.036.387v2.746h-.692v-3.232zm6.273 2.674c0 1.144-.145 1.576-.433 1.9-.271.288-.675.459-1.161.459-.369 0-.729-.09-.954-.216l.161-.541c.172.091.46.189.802.189.55 0 .892-.342.892-1.332v-.441h-.018a.875.875 0 0 1-.828.531c-.775 0-1.279-.873-1.279-2.152 0-1.611.721-2.269 1.369-2.269.459 0 .675.307.81.559h.019l.035-.486h.621c-.008.297-.035.685-.035 1.359v2.44zm-.693-2.295c0-.117-.01-.226-.036-.324-.072-.288-.233-.657-.63-.657-.496 0-.766.675-.766 1.639 0 1.116.352 1.62.766 1.62.216 0 .486-.099.621-.621.045-.135.045-.271.045-.396V13.68zm2.951 2.134c.152.099.423.225.702.225.388 0 .64-.243.64-.63 0-.333-.117-.567-.559-.855-.567-.369-.873-.747-.873-1.242 0-.712.521-1.207 1.197-1.207.342 0 .594.108.773.226l-.18.522a.994.994 0 0 0-.585-.198c-.369 0-.558.27-.558.558s.107.459.539.747c.505.324.9.729.9 1.333 0 .873-.594 1.296-1.314 1.296-.314 0-.666-.099-.854-.252l.172-.523zm3.203-1.396c.01 1.341.531 1.62 1.027 1.62.306 0 .549-.072.72-.162l.117.504c-.243.136-.612.207-.964.207-1.035 0-1.575-.846-1.575-2.188 0-1.413.595-2.296 1.468-2.296.883 0 1.242.937 1.242 1.918 0 .171-.009.288-.018.396h-2.017zm1.369-.514c.009-.873-.315-1.261-.648-1.261-.45 0-.684.667-.711 1.261h1.359zm1.404-.603c0-.368-.026-.801-.036-1.125h.621l.036.685h.019c.144-.414.513-.757.918-.757.054 0 .1 0 .145.01v.711c-.045-.009-.091-.009-.145-.009-.441 0-.766.404-.838.909a2.576 2.576 0 0 0-.026.396v2.413h-.693v-3.233zm2.826-1.125l.549 2.449c.063.297.136.684.189 1.062h.026c.045-.359.117-.729.181-1.062l.54-2.449h.684l-1.143 4.357h-.612l-1.134-4.357h.72zm3.095-.675c-.225 0-.396-.181-.396-.45 0-.271.181-.45.405-.45.252 0 .414.18.414.45s-.162.45-.414.45h-.009zm-.324 5.032v-4.357h.692v4.357h-.692zm3.781-.108c-.152.091-.414.162-.72.162-.954 0-1.594-.765-1.594-2.205 0-1.252.63-2.269 1.72-2.269.234 0 .486.062.612.144l-.136.559a1.13 1.13 0 0 0-.494-.117c-.703 0-1.009.828-1.009 1.684 0 1.017.388 1.629 1.026 1.629.18 0 .342-.036.495-.117l.1.53zm1.025-2.007c.01 1.341.531 1.62 1.026 1.62.306 0 .55-.072.72-.162l.117.504c-.242.136-.611.207-.963.207-1.035 0-1.576-.846-1.576-2.188 0-1.413.595-2.296 1.469-2.296.882 0 1.242.937 1.242 1.918 0 .171-.01.288-.019.396H292.5zm1.369-.514c.008-.873-.316-1.261-.648-1.261-.451 0-.685.667-.711 1.261h1.359z"/></svg>