<svg xmlns="http://www.w3.org/2000/svg" viewBox="0 0 342.68 161.938"><path fill="none" stroke="#000" d="M100.086 43.499v110.105" stroke-linecap="round" stroke-linejoin="round"/><path d="M97.085 152.728l2.991 5.182 2.992-5.182z"/><path fill="none" stroke="#000" d="M240.085 43.499v110.105" stroke-linecap="round" stroke-linejoin="round"/><path d="M237.084 152.728l2.992 5.182 2.991-5.182z"/><path fill="#ccc" d="M101.774 56.478v1.309L80.629 45.674v-1.307z"/><path fill="gray" d="M101.774 56.478l14.73-8.379v1.309l-14.73 8.381z"/><path fill="#fff" d="M80.629 44.369l14.709-8.43 21.166 12.16-14.73 8.379z"/><path fill="#999" d="M118.553 29.092l.988-.563-2.06 18.966-.99.563zm-14.949 24.103v.254L85.731 43.212v-.253z"/><path fill="#b3b3b3" d="M103.604 53.195l10.123-5.759v.254l-10.123 5.761z"/><path fill="#e6e6e6" d="M85.731 42.96l10.107-5.8 17.889 10.276-10.123 5.759zm2.57 5.477l2.903-1.666 5.134 2.95-2.906 1.654zm30.252-19.345l-2.062 18.965-21.145-12.113 2.061-18.964z"/><path fill="#0071bc" d="M115.649 46.602L96.19 35.455l2.061-17.02 19.458 11.146-2.06 17.021z"/><path fill="#b3b3b3" d="M97.407 16.981l.971-.611 21.163 12.159-.988.563z"/><path fill="none" stroke="#000" d="M117.481 47.495l2.06-18.966L98.378 16.37l-.969.61h-.002l-2.061 18.963-.008-.004-14.707 8.429-.002-.001v1.307l21.145 12.113v.002l14.73-8.381v-1.309l-.013-.042v.001z" stroke-linecap="round" stroke-linejoin="round"/><path fill="#b3b3b3" d="M236.714 31.718v29.233l-11.485-7.059V24.653z"/><path fill="#333" d="M234.585 32.636v3.49l-8.19-5.037v-3.492zm0 11.769v3.487l-8.19-5.038v-3.488z"/><path fill="#e6e6e6" d="M234.585 40.019v1.007l-8.19-5.035v-1.013z"/><path fill="#333" d="M234.585 49.36v3.487l-8.19-5.035v-3.491zm0 4.953v3.49l-8.19-5.038v-3.489z"/><path fill="gray" d="M236.708 31.735l18.203-11.482v29.236l-18.203 11.482z"/><path fill="#999" d="M225.255 24.671l18.224-11.482 11.461 7.06-18.205 11.482z"/><path fill="#009245" d="M226.671 31.567c.18.105.318.365.318.582 0 .211-.141.303-.318.191a.744.744 0 0 1-.312-.582c-.001-.216.14-.298.312-.191"/><path fill="#c1272d" d="M227.44 32.042c.178.107.316.369.316.586 0 .211-.146.299-.318.191-.176-.105-.316-.367-.316-.582 0-.216.143-.304.318-.195"/><path fill="#009245" d="M228.208 32.507a.76.76 0 0 1 .316.582c0 .217-.145.303-.318.195-.178-.107-.316-.373-.316-.588 0-.211.14-.297.318-.189"/><path fill="#c1272d" d="M228.974 32.979c.176.107.314.367.314.584-.002.211-.143.299-.32.189-.172-.105-.314-.369-.314-.582-.001-.214.144-.302.32-.191m.775.475a.74.74 0 0 1 .316.584c0 .215-.141.303-.318.191a.755.755 0 0 1-.312-.582c0-.212.14-.3.314-.193"/><path fill="#009245" d="M230.517 33.933c.178.106.316.367.316.582 0 .215-.141.301-.318.193-.174-.105-.316-.367-.316-.584-.001-.213.142-.303.318-.191m.767.461a.75.75 0 0 1 .314.584c0 .219-.143.303-.314.193-.178-.107-.318-.369-.318-.584 0-.213.142-.301.318-.193m.768.474c.172.105.312.365.312.582s-.141.299-.318.191a.742.742 0 0 1-.312-.582c-.001-.216.142-.304.318-.191"/><path fill="#c1272d" d="M226.671 32.702c.18.105.318.369.318.584 0 .213-.141.297-.318.193a.746.746 0 0 1-.312-.586c-.001-.214.14-.298.312-.191m.769.475c.178.109.316.369.316.586 0 .213-.146.303-.318.193-.176-.109-.316-.373-.316-.586 0-.215.143-.299.318-.193"/><path fill="#009245" d="M228.208 33.642c.172.103.316.373.316.582 0 .217-.145.303-.318.197-.178-.109-.316-.371-.316-.588 0-.213.14-.299.318-.191"/><path fill="#c1272d" d="M228.974 34.114c.176.105.314.367.314.584-.002.211-.143.299-.32.193a.774.774 0 0 1-.314-.584c-.001-.216.144-.304.32-.193"/><path fill="#009245" d="M229.749 34.589a.742.742 0 0 1 .316.582c0 .217-.141.305-.318.197-.172-.107-.312-.371-.312-.584 0-.215.14-.303.314-.195"/><path fill="#c1272d" d="M230.517 35.063c.178.107.316.375.316.586 0 .217-.141.301-.318.195a.757.757 0 0 1-.316-.584c-.001-.214.142-.302.318-.197"/><path fill="#009245" d="M231.284 35.528a.763.763 0 0 1 .314.586c0 .217-.143.303-.314.191-.178-.104-.318-.367-.318-.582 0-.214.142-.302.318-.195"/><path fill="#c1272d" d="M232.052 35.999c.172.111.312.369.312.586s-.141.299-.318.195a.757.757 0 0 1-.312-.584c-.001-.218.142-.3.318-.197"/><path fill="#009245" d="M232.644 40.882c.178.107.32.367.32.586 0 .211-.145.299-.32.193a.762.762 0 0 1-.316-.586c-.001-.215.14-.301.316-.193m.769.463a.763.763 0 0 1 .312.586c0 .215-.141.299-.312.193a.742.742 0 0 1-.318-.584c0-.215.14-.299.318-.195"/><path fill="#c1272d" d="M234.177 41.817c.176.107.316.367.316.584 0 .211-.141.303-.318.193a.744.744 0 0 1-.314-.584c-.001-.214.142-.304.316-.193m-1.533.202c.178.105.32.367.32.586 0 .213-.145.299-.32.188-.178-.104-.316-.369-.316-.582-.001-.214.14-.304.316-.192m.769.462a.772.772 0 0 1 .312.582c0 .217-.141.305-.312.193-.18-.105-.318-.369-.318-.582 0-.216.14-.3.318-.193"/><path fill="#009245" d="M234.177 42.954c.176.103.316.365.316.582 0 .215-.141.303-.318.191a.731.731 0 0 1-.314-.582c-.001-.212.142-.3.316-.191"/><path fill="none" stroke="#000" d="M254.94 20.249l-11.462-7.06-18.223 11.482-.026-.018v29.239l11.479 7.059v.02l18.201-11.482v-29.22z" stroke-linecap="round" stroke-linejoin="round"/><path fill="none" stroke="#000" d="M66.38 73.438h173.705m-139.999 20H276.88m-176.794 40h140.012" stroke-dasharray="1 1"/><path fill="#b2d4eb" fill-rule="evenodd" d="M73.286 82.781c0 1.979-1.62 3.6-3.6 3.6H6.98a3.61 3.61 0 0 1-3.6-3.6V64.094c0-1.979 1.62-3.6 3.6-3.6h62.706c1.98 0 3.6 1.62 3.6 3.6v18.687z" clip-rule="evenodd"/><path fill="none" stroke="#000" d="M73.286 82.781c0 1.979-1.62 3.6-3.6 3.6H6.98a3.61 3.61 0 0 1-3.6-3.6V64.094c0-1.979 1.62-3.6 3.6-3.6h62.706c1.98 0 3.6 1.62 3.6 3.6v18.687z" stroke-linecap="round" stroke-linejoin="round"/><path fill="#b2d4eb" fill-rule="evenodd" d="M336.286 102.781c0 1.979-1.621 3.6-3.601 3.6h-62.706c-1.979 0-3.6-1.62-3.6-3.6V84.094c0-1.979 1.62-3.6 3.6-3.6h62.706c1.98 0 3.601 1.62 3.601 3.6v18.687z" clip-rule="evenodd"/><path fill="none" stroke="#000" d="M336.286 102.781c0 1.979-1.621 3.6-3.601 3.6h-62.706c-1.979 0-3.6-1.62-3.6-3.6V84.094c0-1.979 1.62-3.6 3.6-3.6h62.706c1.98 0 3.601 1.62 3.601 3.6v18.687z" stroke-linecap="round" stroke-linejoin="round"/><path fill="none" stroke="#000" d="M66.38 113.438h173.705" stroke-dasharray="1 1"/><path fill="#b2d4eb" fill-rule="evenodd" d="M73.286 122.781c0 1.979-1.62 3.6-3.6 3.6H6.98a3.61 3.61 0 0 1-3.6-3.6v-18.687c0-1.979 1.62-3.6 3.6-3.6h62.706c1.98 0 3.6 1.62 3.6 3.6v18.687z" clip-rule="evenodd"/><path fill="none" stroke="#000" d="M73.286 122.781c0 1.979-1.62 3.6-3.6 3.6H6.98a3.61 3.61 0 0 1-3.6-3.6v-18.687c0-1.979 1.62-3.6 3.6-3.6h62.706c1.98 0 3.6 1.62 3.6 3.6v18.687z" stroke-linecap="round" stroke-linejoin="round"/><path fill="#fddfbb" fill-rule="evenodd" d="M73.51 139.837c0 1.98-1.62 3.6-3.6 3.6H7.205a3.61 3.61 0 0 1-3.6-3.6v-9.857c0-1.98 1.62-3.6 3.6-3.6H69.91c1.98 0 3.6 1.62 3.6 3.6v9.857z" clip-rule="evenodd"/><path fill="none" stroke="#000" d="M73.51 139.837c0 1.98-1.62 3.6-3.6 3.6H7.205a3.61 3.61 0 0 1-3.6-3.6v-9.857c0-1.98 1.62-3.6 3.6-3.6H69.91c1.98 0 3.6 1.62 3.6 3.6v9.857z" stroke-linecap="round" stroke-linejoin="round"/><path d="M245.716 73.277c0 1.895-.6 2.67-1.351 2.67-.808 0-1.296-.959-1.296-2.654 0-1.751.521-2.67 1.367-2.67.84 0 1.28.999 1.28 2.654zm-2.03.008c0 1.256.216 2.135.728 2.135.488 0 .688-.888.688-2.135 0-1.215-.199-2.135-.695-2.135s-.721.888-.721 2.135zm3.936-.271c0-.456-.024-.688-.032-1h.536l.031.48h.016c.168-.312.465-.544.872-.544.36 0 .663.176.808.592h.016c.104-.192.24-.344.385-.44a.93.93 0 0 1 .535-.151c.52 0 .928.384.928 1.367v2.566h-.607v-2.423c0-.504-.072-.991-.545-.991-.256 0-.479.216-.566.575a2.243 2.243 0 0 0-.024.353v2.486h-.608V73.35c0-.433-.08-.88-.535-.88-.248 0-.504.216-.576.624a2.213 2.213 0 0 0-.023.335v2.455h-.607v-2.87zm4.856 2.23c.137.088.376.2.624.2.352 0 .567-.216.567-.56 0-.296-.104-.496-.496-.76-.504-.328-.775-.656-.775-1.104a1.04 1.04 0 0 1 1.063-1.071c.304 0 .536.104.696.199l-.168.464a.913.913 0 0 0-.512-.168.474.474 0 0 0-.504.488c0 .264.096.407.479.672.448.287.8.64.8 1.175 0 .775-.527 1.151-1.16 1.151-.287 0-.6-.088-.768-.224l.154-.462zM82.422 95.884v-.399l.44-.6c.615-.855 1.351-1.831 1.351-2.807 0-.576-.256-.928-.744-.928-.376 0-.616.2-.751.288l-.152-.464a1.624 1.624 0 0 1 1.015-.352c.864 0 1.24.64 1.24 1.423 0 .976-.64 1.919-1.279 2.799l-.352.479v.016h1.735v.544h-2.503zm3.049-1.272c0-.728.432-1.191.855-1.487l-.008-.016c-.432-.296-.68-.752-.68-1.191 0-.8.568-1.295 1.215-1.295.744 0 1.111.623 1.111 1.223 0 .456-.216.896-.695 1.224v.024c.479.319.832.791.832 1.415 0 .808-.536 1.438-1.335 1.438-.864 0-1.295-.687-1.295-1.335zm2.022-.063c0-.6-.344-.936-.743-1.199a1.386 1.386 0 0 0-.672 1.159c0 .583.264.983.711.983.384 0 .704-.296.704-.943zm-1.263-2.671c0 .527.32.792.64.999.312-.224.52-.567.52-.959 0-.504-.208-.84-.584-.84-.344 0-.576.328-.576.8zm3.784 1.136c0-.456-.024-.688-.032-1h.536l.032.48h.016c.168-.312.464-.544.872-.544.36 0 .664.176.808.592h.016c.104-.192.24-.344.384-.44a.932.932 0 0 1 .536-.151c.52 0 .927.384.927 1.367v2.566h-.607v-2.423c0-.504-.072-.991-.544-.991-.256 0-.479.216-.567.575a2.37 2.37 0 0 0-.024.353v2.486h-.608V93.35c0-.433-.08-.88-.536-.88-.248 0-.504.216-.576.624a2.209 2.209 0 0 0-.024.335v2.455h-.608v-2.87zm4.856 2.23c.136.088.376.2.624.2.352 0 .567-.216.567-.56 0-.296-.104-.496-.496-.76-.504-.328-.775-.656-.775-1.104 0-.624.463-1.071 1.063-1.071.304 0 .536.104.696.199l-.168.464a.91.91 0 0 0-.512-.168.474.474 0 0 0-.503.488c0 .264.096.407.479.672.448.287.8.64.8 1.175 0 .775-.528 1.151-1.16 1.151-.288 0-.6-.088-.768-.224l.153-.462zm-12.479 39.368c0-.728.432-1.191.855-1.487l-.008-.016c-.432-.296-.68-.752-.68-1.191 0-.8.568-1.295 1.215-1.295.744 0 1.111.623 1.111 1.223 0 .456-.216.896-.695 1.224v.024c.479.319.832.791.832 1.415 0 .808-.536 1.438-1.335 1.438-.864 0-1.295-.687-1.295-1.335zm2.022-.063c0-.6-.344-.936-.743-1.199a1.386 1.386 0 0 0-.672 1.159c0 .583.264.983.711.983.384 0 .704-.296.704-.943zm-1.263-2.671c0 .527.32.792.64.999.312-.224.52-.567.52-.959 0-.504-.208-.84-.584-.84-.344 0-.576.328-.576.8zm3.968 4.006v-1.432h-1.727v-.415l1.687-3.351h.6v3.263h.568v.503h-.568v1.432h-.56zm0-1.935v-1.472c0-.359.024-.68.048-1.023h-.032c-.176.416-.288.664-.44.983l-.72 1.495v.017h1.144zm2.896-.935c0-.456-.024-.688-.032-1h.536l.032.48h.016c.168-.312.464-.544.872-.544.36 0 .664.176.808.592h.016c.104-.192.24-.344.384-.44a.932.932 0 0 1 .536-.151c.52 0 .927.384.927 1.367v2.566h-.607v-2.423c0-.504-.072-.991-.544-.991-.256 0-.479.216-.567.575a2.37 2.37 0 0 0-.024.353v2.486h-.608v-2.534c0-.433-.08-.88-.536-.88-.248 0-.504.216-.576.624a2.209 2.209 0 0 0-.024.335v2.455h-.608v-2.87zm4.856 2.23c.136.088.376.2.624.2.352 0 .567-.216.567-.56 0-.296-.104-.496-.496-.76-.504-.328-.775-.656-.775-1.104 0-.624.463-1.071 1.063-1.071.304 0 .536.104.696.199l-.168.464a.91.91 0 0 0-.512-.168.474.474 0 0 0-.503.488c0 .264.096.407.479.672.448.287.8.64.8 1.175 0 .775-.528 1.151-1.16 1.151-.288 0-.6-.088-.768-.224l.153-.462zM32.907 70.483c.23.15.63.27.97.27.699 0 1.119-.459 1.119-1.139 0-.62-.36-1-.89-1.399-.53-.37-1.269-.999-1.269-1.869 0-1.02.709-1.769 1.779-1.769.42 0 .79.13.95.249l-.19.66a1.41 1.41 0 0 0-.8-.229c-.66 0-.969.499-.969.959 0 .67.35.93.989 1.39.81.569 1.169 1.189 1.169 1.938 0 1.159-.819 1.889-1.889 1.889-.46 0-.95-.149-1.14-.289l.171-.661zm4.74.89v-2.849l-1.479-3.888h.81l.6 1.689c.17.47.35.999.5 1.519h.02c.14-.52.31-1.029.49-1.549l.57-1.659h.81l-1.549 3.858v2.878h-.772zm2.96 0v-6.736h.729l1.239 3.158c.28.72.63 1.619.86 2.349h.02c-.06-1.06-.09-1.929-.09-3.098v-2.409h.689v6.736h-.729l-1.279-3.238c-.27-.68-.56-1.449-.8-2.289h-.02c.06.899.08 1.76.08 3.198v2.329h-.699zm-14.81 5.163l.26 1.039c.07.33.12.6.18.84h.02c.17-.3.32-.561.47-.81l.629-1.069h.78l-1.619 2.398.68 2.438h-.75l-.25-1.069c-.06-.28-.12-.51-.19-.89h-.02c-.15.28-.29.54-.47.859l-.65 1.1h-.779l1.639-2.459-.68-2.378h.75zm2.44 1.478v-.55h5.157v.55h-5.157zm0 1.89v-.55h5.157v.55h-5.157zm5.511 1.469l.61-3.248c.12-.649.18-1.229.21-1.589h.629c-.01.26-.03.52-.08.909h.03c.3-.6.72-.989 1.209-.989.05 0 .09.01.13.01l-.14.76c-.02 0-.06-.01-.09-.01-.64 0-1.179.899-1.319 1.618l-.479 2.539h-.71zm4.519 0c.01-.27.04-.54.07-.92h-.02c-.479.82-.91 1-1.269 1-.56 0-.9-.49-.9-1.359 0-1.469.78-3.638 2.649-3.638.34 0 .689.069.889.159l-.56 2.769c-.13.65-.22 1.449-.21 1.989h-.649zm.609-4.298c-.09-.02-.19-.029-.3-.029-1.079 0-1.679 1.769-1.709 2.828-.01.609.11.959.45.959.49 0 1.01-.959 1.2-1.919l.359-1.839zm.941 4.298l.59-3.179c.14-.699.21-1.269.26-1.658h.63l-.08.77h.02c.39-.59.81-.85 1.299-.85.6 0 .83.47.83.979 0 .279-.04.51-.09.789l-.59 3.148h-.72l.59-3.139c.04-.22.07-.419.07-.669 0-.29-.12-.49-.42-.49-.45 0-.989.689-1.169 1.609l-.51 2.688h-.71zm7.988-6.916l-.99 5.217c-.1.53-.2 1.239-.22 1.699h-.62l.06-.76h-.02c-.24.5-.69.84-1.16.84-.609 0-.979-.569-.979-1.449 0-1.649.87-3.548 2.289-3.548.19 0 .39.08.51.18l.41-2.179h.72zm-1.269 2.808a.523.523 0 0 0-.45-.22c-.93 0-1.469 1.828-1.469 2.818 0 .569.13.969.53.969.35 0 .819-.439 1.009-1.398l.38-2.169zm4.179-2.808c-1.199 1.339-1.999 3.258-1.999 5.217 0 1.159.1 2.089.42 2.898h-.57c-.35-.81-.49-1.849-.49-2.849 0-2.108.899-4.037 1.999-5.267h.64zm-1.258 8.115c1.189-1.339 1.999-3.269 1.999-5.227 0-1.16-.09-2.089-.41-2.889h.58c.34.81.47 1.849.47 2.838 0 2.109-.89 4.048-1.979 5.277h-.66zM89.805 7.48c.23.15.63.27.97.27.699 0 1.119-.459 1.119-1.139 0-.62-.36-1-.89-1.399-.529-.37-1.269-.999-1.269-1.869 0-1.02.709-1.769 1.779-1.769.42 0 .79.13.95.249l-.19.66a1.41 1.41 0 0 0-.8-.229c-.66 0-.969.499-.969.959 0 .67.35.93.989 1.39.81.569 1.169 1.189 1.169 1.938 0 1.159-.819 1.889-1.889 1.889-.46 0-.95-.149-1.14-.289l.171-.661zm4.31-1.459c.01 1.479.589 1.799 1.149 1.799.33 0 .609-.08.799-.189l.12.569c-.27.15-.68.229-1.06.229-1.159 0-1.759-.949-1.759-2.429 0-1.568.66-2.548 1.629-2.548.989 0 1.379 1.039 1.379 2.139 0 .18 0 .31-.01.43h-2.247zm1.519-.569c.02-.97-.35-1.399-.72-1.399-.5 0-.759.739-.79 1.399h1.51zm1.571-.67c0-.569-.03-.859-.04-1.249h.67l.04.579h.02c.209-.39.6-.659 1.109-.659.669 0 1.169.499 1.169 1.669V8.37h-.77V5.252c0-.569-.11-1.149-.669-1.149-.32 0-.63.27-.729.789-.02.12-.03.271-.03.431V8.37h-.77V4.782zm6.958-3.328v5.757c0 .33.03.879.04 1.159h-.66l-.05-.609h-.03c-.16.35-.5.689-1.009.689-.82 0-1.41-.89-1.41-2.479 0-1.72.71-2.519 1.459-2.519.35 0 .689.17.879.579h.02V1.454h.761zm-.76 3.918c0-.101 0-.21-.01-.32-.05-.5-.35-.939-.72-.939-.64 0-.859.89-.859 1.859 0 1.02.26 1.839.819 1.839.24 0 .57-.13.74-.83.02-.09.03-.199.03-.319v-1.29zm2.381.649c.01 1.479.589 1.799 1.149 1.799.33 0 .609-.08.799-.189l.12.569c-.27.15-.68.229-1.06.229-1.159 0-1.759-.949-1.759-2.429 0-1.568.66-2.548 1.629-2.548.989 0 1.379 1.039 1.379 2.139 0 .18 0 .31-.01.43h-2.247zm1.519-.569c.02-.97-.35-1.399-.72-1.399-.5 0-.76.739-.79 1.399h1.51zm1.561-.67c0-.41-.03-.89-.04-1.249h.689l.04.759h.02c.16-.459.57-.839 1.02-.839.06 0 .11.01.16.01v.789c-.05-.01-.1-.01-.16-.01-.49 0-.85.45-.93 1.01-.02.13-.03.279-.03.439V8.37h-.77V4.782zm121.79-3.049c.33-.09.729-.13 1.109-.13.67 0 1.169.141 1.519.48.33.34.471.789.471 1.319 0 .859-.4 1.419-1.08 1.729v.021c.5.149.76.629.91 1.509.15.93.289 1.499.379 1.709h-.779c-.1-.2-.229-.84-.359-1.669-.15-.92-.439-1.27-1.1-1.27h-.3V8.37h-.77V1.733zm.77 3.109h.319c.74 0 1.23-.539 1.23-1.349 0-.78-.32-1.26-1.15-1.27-.149 0-.299.01-.399.04v2.579zm3.8 1.179c.01 1.479.59 1.799 1.15 1.799.329 0 .609-.08.799-.189l.12.569c-.271.15-.68.229-1.06.229-1.159 0-1.76-.949-1.76-2.429 0-1.568.66-2.548 1.63-2.548.989 0 1.38 1.039 1.38 2.139 0 .18 0 .31-.011.43h-2.248zm1.519-.569c.02-.97-.35-1.399-.72-1.399-.499 0-.759.739-.79 1.399h1.51zm3.93 2.798c-.17.101-.46.18-.8.18-1.06 0-1.769-.85-1.769-2.448 0-1.39.699-2.519 1.908-2.519.26 0 .54.07.68.149l-.149.63a1.26 1.26 0 0 0-.55-.13c-.77 0-1.119.92-1.119 1.869 0 1.129.43 1.809 1.139 1.809.211 0 .381-.05.561-.13l.099.59zm1.14-2.229c.01 1.479.59 1.799 1.15 1.799.329 0 .609-.08.799-.189l.12.569c-.271.15-.68.229-1.06.229-1.159 0-1.76-.949-1.76-2.429 0-1.568.66-2.548 1.63-2.548.989 0 1.38 1.039 1.38 2.139 0 .18 0 .31-.011.43h-2.248zm1.52-.569c.02-.97-.35-1.399-.72-1.399-.499 0-.759.739-.79 1.399h1.51zm2.4-3.169c.01.3-.18.5-.47.5-.25 0-.439-.2-.439-.5s.2-.499.45-.499c.28 0 .459.199.459.499zm-.83 6.087V3.533h.77V8.37h-.77zm2.231-4.837l.609 2.718c.07.33.15.76.21 1.18h.03c.05-.399.13-.81.199-1.18l.6-2.718h.76l-1.26 4.837h-.689l-1.259-4.837h.8zm3.49 2.488c.01 1.479.589 1.799 1.148 1.799.33 0 .609-.08.8-.189l.12.569c-.27.15-.68.229-1.06.229-1.159 0-1.759-.949-1.759-2.429 0-1.568.659-2.548 1.629-2.548.989 0 1.379 1.039 1.379 2.139 0 .18 0 .31-.01.43h-2.247zm1.519-.569c.021-.97-.351-1.399-.72-1.399-.5 0-.76.739-.789 1.399h1.509zm1.561-.67c0-.41-.031-.89-.041-1.249h.689l.041.759h.02c.16-.459.57-.839 1.02-.839.061 0 .109.01.16.01v.789c-.051-.01-.1-.01-.16-.01-.49 0-.85.45-.93 1.01-.02.13-.029.279-.029.439V8.37h-.77V4.782zm35.459 85.701c.229.15.629.27.969.27.699 0 1.119-.459 1.119-1.139 0-.62-.359-1-.889-1.399-.529-.37-1.27-.999-1.27-1.869 0-1.02.709-1.769 1.779-1.769.42 0 .789.13.949.249l-.189.66a1.41 1.41 0 0 0-.801-.229c-.659 0-.969.499-.969.959 0 .67.35.93.989 1.39.81.569 1.169 1.189 1.169 1.938 0 1.159-.818 1.889-1.889 1.889-.459 0-.949-.149-1.139-.289l.172-.661zm4.738.89v-2.849l-1.479-3.888h.81l.6 1.689c.17.47.35.999.499 1.519h.021c.14-.52.31-1.029.489-1.549l.57-1.659h.81l-1.55 3.858v2.878h-.77zm2.961 0v-6.736h.729l1.239 3.158c.28.72.63 1.619.859 2.349h.021a50.662 50.662 0 0 1-.091-3.098v-2.409h.69v6.736h-.729l-1.279-3.238c-.27-.68-.561-1.449-.8-2.289h-.021c.061.899.08 1.76.08 3.198v2.329h-.698zm7.03-2.019l-.449 2.019h-.74l1.539-6.736h.85l1.5 6.736h-.76l-.45-2.019h-1.49zm1.388-.62l-.35-1.709c-.1-.479-.189-1.039-.27-1.539h-.04c-.079.51-.18 1.089-.27 1.539l-.351 1.709h1.281zm4.891 2.518c-.21.11-.539.18-.959.18-1.32 0-2.26-1.059-2.26-3.348 0-2.658 1.32-3.508 2.379-3.508.41 0 .699.08.84.17l-.17.649c-.16-.07-.33-.14-.68-.14-.72 0-1.559.699-1.559 2.758 0 2.06.76 2.738 1.578 2.738.291 0 .551-.069.71-.149l.121.65zm.791-6.616h.77v3.198h.021c.149-.28.29-.55.42-.81l1.259-2.389h.85l-1.648 2.879 1.689 3.857h-.83l-1.379-3.248-.381.649v2.599h-.77v-6.735zm-31.705 11.9l.26 1.039c.07.33.121.6.181.84h.021c.17-.3.319-.561.469-.81l.63-1.069h.78l-1.619 2.398.68 2.438h-.75l-.25-1.069c-.061-.28-.12-.51-.189-.89h-.021c-.149.28-.29.54-.47.859l-.65 1.1h-.779l1.64-2.459-.68-2.378h.747zm5.239-.481v2.379h2.298v.54h-2.298v2.398h-.569v-2.398h-2.289v-.54h2.289v-2.379h.569zm5.11-.409h-.02l-1.141.609-.039-.59 1.469-.789h.6l-1.229 6.496h-.71l1.07-5.726zm8.53.89l.16 2.708c.02.439.029.72.05 1.199h.021c.129-.42.27-.789.43-1.219l.999-2.688h.739l-1.619 3.928c-.439 1.079-.949 1.979-1.589 2.528-.29.24-.569.42-.749.479l-.291-.609c.211-.1.471-.25.721-.46.299-.25.629-.689.779-1.049.04-.101.05-.17.04-.271l-.431-4.547h.74zm2.64 1.478v-.55h5.156v.55h-5.156zm0 1.89v-.55h5.156v.55h-5.156zm5.51 1.469l.609-3.248c.121-.649.18-1.229.211-1.589h.629c-.01.26-.029.52-.08.909h.03c.3-.6.72-.989 1.21-.989.049 0 .09.01.129.01l-.14.76c-.021 0-.06-.01-.09-.01-.64 0-1.179.899-1.319 1.618l-.479 2.539h-.71zm4.52 0c.01-.27.039-.54.069-.92h-.021c-.479.82-.908 1-1.269 1-.56 0-.899-.49-.899-1.359 0-1.469.779-3.638 2.648-3.638.34 0 .689.069.889.159l-.559 2.769c-.131.65-.221 1.449-.211 1.989h-.647zm.609-4.298a1.385 1.385 0 0 0-.301-.029c-1.078 0-1.678 1.769-1.709 2.828-.01.609.11.959.45.959.489 0 1.01-.959 1.2-1.919l.36-1.839zm.941 4.298l.59-3.179c.14-.699.209-1.269.26-1.658h.629l-.08.77h.021c.39-.59.81-.85 1.3-.85.6 0 .829.47.829.979 0 .279-.04.51-.09.789l-.59 3.148h-.72l.59-3.139c.04-.22.07-.419.07-.669 0-.29-.121-.49-.42-.49-.45 0-.99.689-1.17 1.609l-.51 2.688h-.709zm7.988-6.916l-.989 5.217c-.1.53-.2 1.239-.221 1.699h-.619l.061-.76h-.021c-.239.5-.69.84-1.159.84-.609 0-.98-.569-.98-1.449 0-1.649.87-3.548 2.289-3.548.19 0 .391.08.51.18l.41-2.179h.719zm-1.27 2.808a.521.521 0 0 0-.45-.22c-.93 0-1.469 1.828-1.469 2.818 0 .569.13.969.529.969.35 0 .82-.439 1.01-1.398l.38-2.169zm4.18-2.808c-1.199 1.339-1.999 3.258-1.999 5.217 0 1.159.1 2.089.42 2.898h-.57c-.35-.81-.489-1.849-.489-2.849 0-2.108.899-4.037 1.999-5.267h.639zm-1.259 8.115c1.189-1.339 2-3.269 2-5.227 0-1.16-.09-2.089-.41-2.889h.58c.34.81.469 1.849.469 2.838 0 2.109-.889 4.048-1.979 5.277h-.66zm-76.478 8.658h-1.399l-.216 1.383c.064-.016.12-.016.191-.016.28 0 .712.12.992.392.271.272.432.655.432 1.184 0 1.031-.647 1.774-1.575 1.774-.312 0-.672-.088-.88-.224l.137-.495c.16.096.439.207.727.207.528 0 .984-.407.984-1.199 0-.823-.504-1.167-1.176-1.167-.191 0-.312.008-.408.024l.328-2.407h1.863v.544zm2.968-.087a2.626 2.626 0 0 0-.369.056c-.863.208-1.207 1.071-1.334 1.871h.023c.199-.296.488-.496.879-.496.664 0 1.12.608 1.12 1.6 0 .983-.448 1.774-1.279 1.774-.903 0-1.359-.919-1.359-2.11 0-1.008.264-1.791.671-2.343a2.143 2.143 0 0 1 1.256-.823c.168-.032.304-.04.393-.048v.519zm-.297 3.078c0-.783-.271-1.176-.695-1.176-.256 0-.52.177-.672.561a.851.851 0 0 0-.048.312c.009 1.063.336 1.551.752 1.551.352-.001.663-.345.663-1.248zm2.514-1.207c0-.456-.024-.688-.032-1h.536l.031.48h.016c.168-.312.465-.544.872-.544.36 0 .663.176.808.592h.016c.104-.192.24-.344.385-.44a.93.93 0 0 1 .535-.151c.52 0 .928.384.928 1.367v2.566h-.607v-2.423c0-.504-.072-.991-.545-.991-.256 0-.479.216-.566.575a2.243 2.243 0 0 0-.024.353v2.486h-.608v-2.534c0-.433-.08-.88-.535-.88-.248 0-.504.216-.576.624a2.213 2.213 0 0 0-.023.335v2.455h-.607v-2.87zm4.856 2.23c.137.088.376.2.624.2.352 0 .567-.216.567-.56 0-.296-.104-.496-.496-.76-.504-.328-.775-.656-.775-1.104a1.04 1.04 0 0 1 1.063-1.071c.304 0 .536.104.696.199l-.168.464a.913.913 0 0 0-.512-.168.474.474 0 0 0-.504.488c0 .264.096.407.479.672.448.287.8.64.8 1.175 0 .775-.527 1.151-1.16 1.151-.287 0-.6-.088-.768-.224l.154-.462zm-221.551-5.89l-.45 2.019h-.74l1.54-6.736h.849l1.5 6.736h-.76l-.45-2.019h-1.489zm1.389-.62l-.35-1.709c-.1-.479-.19-1.039-.27-1.539h-.04c-.08.51-.18 1.089-.27 1.539l-.35 1.709h1.28zm4.89 2.518c-.21.11-.54.18-.959.18-1.319 0-2.259-1.059-2.259-3.348 0-2.658 1.319-3.508 2.379-3.508.41 0 .699.08.839.17l-.17.649c-.16-.07-.33-.14-.68-.14-.72 0-1.559.699-1.559 2.758 0 2.06.76 2.738 1.579 2.738.29 0 .55-.069.709-.149l.121.65zm.792-6.616h.77v3.198h.02c.15-.28.29-.55.42-.81l1.259-2.389h.85l-1.649 2.879 1.689 3.857h-.83l-1.379-3.248-.38.649v2.599h-.77v-6.735zm-17.33 11.9l.16 2.708c.02.439.03.72.05 1.199h.02c.13-.42.27-.789.43-1.219l1-2.688h.74l-1.619 3.928c-.44 1.079-.95 1.979-1.589 2.528-.29.24-.57.42-.75.479l-.29-.609c.21-.1.47-.25.72-.46.3-.25.63-.689.78-1.049.04-.101.05-.17.04-.271l-.43-4.547h.738zm5.439-.481v2.379h2.298v.54h-2.298v2.398h-.57v-2.398h-2.289v-.54h2.289v-2.379h.57zm5.11-.409h-.02l-1.14.609-.04-.59 1.469-.789h.6l-1.229 6.496h-.709l1.069-5.726zm8.549.89l.26 1.039c.07.33.12.6.18.84h.02c.17-.3.32-.561.47-.81l.629-1.069h.78l-1.619 2.398.68 2.438h-.75l-.25-1.069c-.06-.28-.12-.51-.19-.89h-.02c-.15.28-.29.54-.47.859l-.65 1.1h-.779l1.639-2.459-.68-2.378h.75zm5.239-.481v2.379h2.298v.54h-2.298v2.398h-.57v-2.398h-2.289v-.54h2.289v-2.379h.57zm5.11-.409h-.02l-1.14.609-.04-.59 1.469-.789h.6l-1.229 6.496h-.709l1.069-5.726zm-38.343 20.18l-.45 2.019h-.74l1.539-6.736h.85l1.5 6.736h-.76l-.45-2.019h-1.489zm1.389-.62l-.35-1.709c-.1-.479-.19-1.039-.27-1.539h-.04c-.08.51-.18 1.089-.27 1.539l-.35 1.709h1.28zm2.052-.69c0-.739-.03-1.169-.04-1.509h.689l.04.619h.02c.26-.52.64-.699 1.02-.699.839 0 1.399.899 1.399 2.488 0 1.789-.74 2.509-1.5 2.509-.45 0-.709-.29-.839-.56h-.02v2.398h-.77v-5.246zm.77 1.549c0 .15 0 .29.03.4.15.689.5.819.71.819.64 0 .839-.88.839-1.859 0-.999-.24-1.839-.85-1.839-.35 0-.66.439-.709.88-.02.12-.02.239-.02.369v1.23zm3.22-1.549c0-.739-.03-1.169-.04-1.509h.689l.04.619h.02c.26-.52.64-.699 1.02-.699.839 0 1.399.899 1.399 2.488 0 1.789-.74 2.509-1.5 2.509-.45 0-.709-.29-.839-.56h-.02v2.398h-.77v-5.246zm.769 1.549c0 .15 0 .29.03.4.15.689.5.819.71.819.64 0 .839-.88.839-1.859 0-.999-.24-1.839-.85-1.839-.35 0-.66.439-.709.88-.02.12-.02.239-.02.369v1.23zm3.23-5.137h.77v6.916h-.77v-6.916zm2.74.829c.01.3-.18.5-.47.5-.25 0-.439-.2-.439-.5s.2-.499.45-.499c.279 0 .459.2.459.499zm-.83 6.087v-4.837h.77v4.837h-.77zm4.199-.12c-.17.101-.46.18-.8.18-1.059 0-1.769-.85-1.769-2.448 0-1.39.7-2.519 1.909-2.519.26 0 .54.07.68.149l-.15.63c-.1-.05-.3-.13-.55-.13-.77 0-1.119.92-1.119 1.869 0 1.129.43 1.809 1.139 1.809.21 0 .38-.05.56-.13l.1.59zm2.6.12l-.05-.51h-.03c-.21.37-.55.59-.959.59-.649 0-1.149-.55-1.149-1.379 0-1.21.97-1.749 2.059-1.76v-.149c0-.649-.16-1.1-.77-1.1-.3 0-.57.1-.8.25l-.17-.54c.2-.149.65-.319 1.129-.319.97 0 1.389.64 1.389 1.729v2.089c0 .37 0 .79.05 1.1h-.699zm-.11-2.499c-.4 0-1.33.07-1.33 1.12 0 .629.32.859.59.859.34 0 .63-.25.72-.729.02-.09.02-.19.02-.271v-.979zm2.691-3.617v1.279h.93v.589h-.93v2.869c0 .629.23.799.51.799.12 0 .22-.01.31-.029l.03.59c-.14.05-.32.079-.569.079-.3 0-.57-.079-.76-.289-.19-.221-.29-.55-.29-1.22v-2.799h-.589v-.589h.589v-1.06l.769-.219zm2.44.029c.01.3-.18.5-.47.5-.25 0-.439-.2-.439-.5s.2-.499.45-.499c.279 0 .459.2.459.499zm-.83 6.087v-4.837h.77v4.837h-.77zm4.809-2.419c0 1.869-.87 2.499-1.609 2.499-.87 0-1.569-.79-1.569-2.488 0-1.77.79-2.509 1.619-2.509.859 0 1.559.81 1.559 2.498zm-2.409 0c0 .8.14 1.89.839 1.89.66 0 .79-1.14.79-1.89 0-.739-.13-1.879-.81-1.879-.689 0-.819 1.14-.819 1.879zm3.27-1.169c0-.569-.03-.859-.04-1.249h.67l.04.579h.02c.209-.39.6-.659 1.109-.659.669 0 1.169.499 1.169 1.669v3.248h-.77v-3.118c0-.569-.11-1.149-.669-1.149-.32 0-.63.27-.729.789-.02.12-.03.271-.03.431v3.048h-.77v-3.589zm5.68-3.048c.3-.09.65-.13 1.04-.13.709 0 1.209.181 1.579.51.52.45.91 1.319.91 2.729 0 1.539-.38 2.379-.81 2.839-.44.5-1.08.729-1.859.729-.31 0-.629-.021-.859-.07v-6.607zm.769 6.006c.11.021.22.021.29.021.85 0 1.669-.61 1.669-2.898 0-1.699-.52-2.629-1.599-2.629-.12 0-.26.01-.36.04v5.466zm5.53.63l-.05-.51h-.03c-.21.37-.55.59-.959.59-.649 0-1.149-.55-1.149-1.379 0-1.21.97-1.749 2.059-1.76v-.149c0-.649-.16-1.1-.77-1.1-.3 0-.57.1-.8.25l-.17-.54c.2-.149.65-.319 1.129-.319.97 0 1.389.64 1.389 1.729v2.089c0 .37 0 .79.05 1.1h-.699zm-.11-2.499c-.4 0-1.33.07-1.33 1.12 0 .629.32.859.59.859.34 0 .63-.25.72-.729.02-.09.02-.19.02-.271v-.979zm2.69-3.617v1.279h.93v.589h-.93v2.869c0 .629.23.799.51.799.12 0 .22-.01.31-.029l.03.59c-.14.05-.32.079-.57.079-.3 0-.569-.079-.759-.289-.19-.221-.29-.55-.29-1.22v-2.799h-.589v-.589h.589v-1.06l.769-.219zm3.52 6.116l-.05-.51h-.03c-.21.37-.55.59-.959.59-.649 0-1.149-.55-1.149-1.379 0-1.21.97-1.749 2.059-1.76v-.149c0-.649-.16-1.1-.77-1.1-.3 0-.57.1-.8.25l-.17-.54c.2-.149.65-.319 1.129-.319.97 0 1.389.64 1.389 1.729v2.089c0 .37 0 .79.05 1.1h-.699zm-.11-2.499c-.4 0-1.33.07-1.33 1.12 0 .629.32.859.59.859.34 0 .63-.25.72-.729.02-.09.02-.19.02-.271v-.979z"/><path fill="none" stroke="#0071bc" d="M100.086 75.884L235.63 89.438" stroke-linecap="round" stroke-linejoin="round"/><path fill="#0071bc" d="M234.46 92.336l5.454-2.461-4.858-3.492z"/><path fill="none" stroke="#0071bc" d="M240.085 95.884l-134.481 12.804" stroke-linecap="round" stroke-linejoin="round"/><path fill="#0071bc" d="M106.191 105.617l-4.875 3.469 5.442 2.487z"/><path fill="none" stroke="#009245" d="M100.086 115.884l134.628 13.304" stroke-linecap="round" stroke-linejoin="round"/><path fill="#009245" d="M233.548 132.088l5.45-2.468-4.862-3.486z"/></svg>