<svg xmlns="http://www.w3.org/2000/svg" viewBox="0 0 342.389 89.308"><g stroke="#000" clip-rule="evenodd" stroke-linecap="round" stroke-linejoin="round"><path fill="#ccc" fill-rule="evenodd" d="M.5.5h25.885v14.708H.5zm25.885 0h78.876v14.708H26.385z"/><path fill="#ccc" fill-rule="evenodd" d="M105.261.5h78.875v14.708h-78.875zm78.876 0h78.877v14.708h-78.877zm78.877 0h78.875v14.708h-78.875zM.501 15.269h25.885v14.708H.501z"/><path fill="none" d="M129.639 15.269h54.498v14.708h-54.498zm-24.378 0h24.378v14.708h-24.378z"/><path fill="gray" fill-rule="evenodd" d="M45.306 15.269h29.978v14.708H45.306z"/><path fill="none" d="M75.283 15.269h29.978v14.708H75.283zm-48.897-.061h18.92v14.708h-18.92z"/><path fill="#b2dec7" fill-rule="evenodd" d="M184.137 44.684h157.752v14.708H184.137z"/><path fill="#b2d4eb" fill-rule="evenodd" d="M26.386 29.976h315.503v14.708H26.386z"/><path fill="#b2d4eb" fill-rule="evenodd" d="M184.137 15.269h157.752v14.708H184.137z"/><path fill="#ccc" fill-rule="evenodd" d="M.501 29.976h25.885v14.708H.501zm0 14.708h25.885v14.708H.501z"/><path fill="#fddfbb" fill-rule="evenodd" d="M184.137 59.392h157.752V74.1H184.137z"/><path fill="#b2dec7" fill-rule="evenodd" d="M26.385 59.392h157.751V74.1H26.385z"/><path fill="#b2d4eb" fill-rule="evenodd" d="M26.385 44.684h157.751v14.708H26.385z"/><path fill="#ccc" fill-rule="evenodd" d="M.501 59.392h25.885V74.1H.501z"/><path fill="#fddfbb" fill-rule="evenodd" d="M26.385 74.1h315.503v14.708H26.385z"/><path fill="#ccc" fill-rule="evenodd" d="M.501 74.1h25.885v14.708H.501z"/></g><path d="M9.726 4.518a5.667 5.667 0 0 1 1.197-.117c.549 0 1.071.09 1.44.423.297.262.432.648.432 1.08 0 .567-.306 1.081-.891 1.333v.026c.693.189 1.089.766 1.089 1.495 0 .504-.162.9-.441 1.197-.351.396-.945.585-1.818.585-.45 0-.774-.027-1.008-.062v-5.96zm.954 2.439h.279c.495 0 .891-.396.891-.945 0-.504-.234-.882-.828-.882-.144 0-.261.009-.342.036v1.791zm0 2.809c.081.019.18.027.306.027.585 0 1.018-.352 1.018-1.044 0-.712-.496-1.071-1.044-1.071h-.28v2.088zm3.492-4.24c-.279 0-.504-.225-.504-.558 0-.343.234-.559.513-.559.306 0 .522.216.522.559 0 .333-.216.558-.522.558h-.009zm-.46 4.97V6.111h.963v4.385h-.963zm2.998-5.474v1.089h.847v.693h-.847v2.278c0 .54.207.675.45.675.108 0 .198-.009.297-.027l.018.748c-.144.045-.36.071-.63.071-.306 0-.585-.081-.774-.27-.216-.217-.324-.531-.324-1.188V6.804h-.522v-.693h.522v-.756l.963-.333zm43.822.685v2.07h1.999v.63h-1.999v2.089h-.648V8.407h-1.999v-.63h1.999v-2.07h.648zm4.176 4.861c-1.107 0-1.593-1.288-1.593-2.98 0-1.818.558-3.016 1.656-3.016 1.17 0 1.567 1.368 1.567 2.979 0 2.116-.72 3.017-1.621 3.017h-.009zm.045-.819c.45 0 .621-.811.621-2.179 0-1.314-.162-2.179-.63-2.179-.459 0-.675.792-.666 2.179-.009 1.396.189 2.179.666 2.179h.009zm2.825.819c-.315 0-.576-.262-.576-.666 0-.388.271-.667.585-.667.333 0 .585.252.585.667 0 .404-.234.666-.585.666h-.009zm1.944 0c-.315 0-.576-.262-.576-.666 0-.388.271-.667.585-.667.333 0 .585.252.585.667 0 .404-.234.666-.585.666h-.009zm4.294-5.924v.612l-1.864 5.239h-.936l1.818-4.987V5.49h-2.043v-.846h3.025zm63.756 1.063v2.07h1.999v.63h-1.999v2.089h-.648V8.407h-1.999v-.63h1.999v-2.07h.648zm4.274-1.135c.837 0 1.396.63 1.396 1.413 0 .441-.198.955-.783 1.333v.026c.54.324.918.855.918 1.558 0 1.009-.711 1.666-1.639 1.666-.99 0-1.594-.693-1.594-1.549 0-.774.441-1.296.918-1.611l-.009-.018c-.486-.334-.738-.838-.738-1.314 0-.937.702-1.504 1.521-1.504h.01zm-.072 5.33c.396 0 .666-.352.666-.955 0-.612-.36-.972-.738-1.206a1.37 1.37 0 0 0-.621 1.152c0 .576.243 1.009.684 1.009h.009zm.019-4.664c-.36 0-.567.36-.567.802 0 .495.288.783.639.99.297-.189.486-.559.486-.945 0-.478-.171-.847-.549-.847h-.009zm2.825 5.33c-.315 0-.576-.262-.576-.666 0-.388.271-.667.585-.667.333 0 .585.252.585.667 0 .404-.234.666-.585.666h-.009zm1.944 0c-.315 0-.576-.262-.576-.666 0-.388.271-.667.585-.667.333 0 .585.252.585.667 0 .404-.234.666-.585.666h-.009zm2.574-4.997h-.018l-.981.531-.171-.747 1.288-.711h.828v5.852h-.945V5.571zm5.176-.09h-1.558l-.18 1.278c.063-.009.126-.009.198-.009.279.009.783.135 1.107.441.315.306.495.747.495 1.341 0 1.152-.738 2.035-1.917 2.035-.387 0-.819-.1-1.053-.243l.171-.766c.198.108.513.217.828.217.585 0 1.026-.405 1.026-1.152 0-.855-.576-1.171-1.296-1.171-.18 0-.315.009-.432.027l.342-2.836h2.269v.838zm60.3.226v2.07h1.999v.63h-1.999v2.089h-.647V8.407h-2v-.63h2v-2.07h.647zm4.005-.136h-.019l-.981.531-.171-.747 1.288-.711h.828v5.852h-.945V5.571zm5.067-.207c-.125 0-.279.019-.449.055-.865.207-1.252 1.008-1.396 1.81h.027c.225-.298.531-.505.945-.505.766 0 1.297.693 1.297 1.801 0 1.071-.514 2.044-1.566 2.044-1.072 0-1.666-.99-1.666-2.404 0-1.206.36-2.079.864-2.683a2.55 2.55 0 0 1 1.432-.846c.226-.045.405-.055.513-.063v.791zm-1.143 4.492c.387 0 .611-.468.611-1.305-.008-.676-.233-1.126-.656-1.126-.234 0-.469.153-.604.495-.027.063-.055.217-.055.441 0 .964.289 1.494.693 1.494h.011zm2.789.712c-.314 0-.576-.262-.576-.666 0-.388.271-.667.586-.667.332 0 .584.252.584.667 0 .404-.233.666-.584.666h-.01zm1.944 0c-.315 0-.576-.262-.576-.666 0-.388.271-.667.585-.667.334 0 .586.252.586.667 0 .404-.234.666-.586.666h-.009zm1.179-.072v-.64l.541-.711c.729-.963 1.439-1.899 1.439-2.854 0-.549-.27-.909-.783-.909-.396 0-.684.188-.864.306l-.188-.738a2.188 2.188 0 0 1 1.225-.378c1.143 0 1.557.792 1.557 1.656 0 1.099-.702 2.062-1.395 2.936l-.369.468v.018h1.854v.847h-3.017zm3.817-.955c.207.126.531.234.855.234.594 0 .945-.396.945-.991 0-.702-.496-1.053-1.135-1.053h-.162v-.71h.117c.432 0 1.018-.243 1.018-.883 0-.495-.289-.774-.721-.774-.279 0-.531.117-.729.252l-.161-.72c.233-.171.674-.324 1.134-.324.945 0 1.44.63 1.44 1.378 0 .594-.315 1.089-.855 1.341v.019c.549.171 1.018.666 1.018 1.512 0 .919-.657 1.747-1.837 1.747-.433 0-.847-.117-1.089-.271l.162-.757zm61.218-3.834v2.07h1.998v.63h-1.998v2.089h-.648V8.407h-1.998v-.63h1.998v-2.07h.648zm2.61 4.789v-.64l.539-.711c.73-.963 1.441-1.899 1.441-2.854 0-.549-.271-.909-.783-.909-.396 0-.685.188-.865.306l-.188-.738a2.188 2.188 0 0 1 1.225-.378c1.144 0 1.558.792 1.558 1.656 0 1.099-.703 2.062-1.396 2.936l-.369.468v.018h1.854v.847h-3.016zm5.525 0V9.001h-1.98v-.657l1.909-3.7h.927v3.583h.604v.774h-.604v1.494h-.856zm0-2.269V6.823c0-.352.027-.702.055-1.045h-.027c-.162.388-.287.657-.449 1l-.712 1.431v.019h1.133zm2.583 2.341c-.315 0-.576-.262-.576-.666 0-.388.271-.667.585-.667.334 0 .586.252.586.667 0 .404-.234.666-.586.666h-.009zm1.944 0c-.314 0-.576-.262-.576-.666 0-.388.271-.667.586-.667.332 0 .584.252.584.667 0 .404-.233.666-.584.666h-.01zm1.323-1.027c.207.126.531.234.855.234.595 0 .945-.396.945-.991 0-.702-.494-1.053-1.134-1.053h-.162v-.71h.116c.433 0 1.018-.243 1.018-.883 0-.495-.287-.774-.72-.774-.279 0-.531.117-.729.252l-.162-.72c.234-.171.676-.324 1.135-.324.945 0 1.44.63 1.44 1.378 0 .594-.315 1.089-.855 1.341v.019c.55.171 1.018.666 1.018 1.512 0 .919-.657 1.747-1.837 1.747-.432 0-.846-.117-1.09-.271l.162-.757zm4.924-3.97h-.018l-.982.531-.17-.747 1.287-.711h.828v5.852h-.945V5.571zM13.426 25.337c-1.107 0-1.593-1.288-1.593-2.98 0-1.818.558-3.016 1.656-3.016 1.17 0 1.567 1.368 1.567 2.979 0 2.116-.72 3.017-1.621 3.017h-.009zm.045-.819c.45 0 .621-.811.621-2.179 0-1.314-.162-2.179-.63-2.179-.459 0-.675.792-.666 2.179-.009 1.396.189 2.179.666 2.179h.009zm134.259-5.321h.693v5.482h1.702v.585h-2.395v-6.067zm3.384 3.952c.009 1.341.531 1.62 1.026 1.62.306 0 .549-.072.72-.162l.117.504c-.243.136-.612.207-.963.207-1.035 0-1.576-.846-1.576-2.188 0-1.413.594-2.296 1.468-2.296.882 0 1.242.937 1.242 1.918 0 .171-.009.288-.018.396h-2.016zm1.369-.513c.009-.873-.315-1.261-.648-1.261-.45 0-.684.667-.711 1.261h1.359zm1.412-.604c0-.513-.027-.773-.036-1.125h.603l.036.522h.018c.189-.352.54-.595.999-.595.604 0 1.054.441 1.054 1.504v2.926h-.693v-2.809c0-.522-.099-1.035-.603-1.035-.288 0-.567.243-.648.711a1.57 1.57 0 0 0-.036.387v2.746h-.693v-3.232zm6.273 2.674c0 1.144-.144 1.576-.432 1.9-.27.288-.675.459-1.161.459-.369 0-.729-.09-.954-.216l.162-.541c.171.091.459.189.801.189.549 0 .892-.342.892-1.332v-.441h-.018a.873.873 0 0 1-.828.531c-.774 0-1.279-.873-1.279-2.152 0-1.611.72-2.269 1.369-2.269.459 0 .675.307.81.559h.018l.036-.486h.621c-.009.297-.036.685-.036 1.359v2.44zm-.692-2.295c0-.117-.009-.226-.036-.324-.072-.288-.234-.657-.63-.657-.495 0-.765.675-.765 1.639 0 1.116.351 1.62.765 1.62.216 0 .486-.099.622-.621.045-.135.045-.271.045-.396v-1.261zm2.501-2.521v1.018h.837v.522h-.837v2.593c0 .576.198.72.45.72.117 0 .207-.009.279-.026l.036.531a1.522 1.522 0 0 1-.513.071c-.279 0-.522-.071-.684-.261-.18-.198-.261-.495-.261-1.099V21.43h-.531v-.522h.531v-.738l.693-.28zm1.449-.855h.693v2.34h.018c.09-.152.225-.287.369-.387.153-.099.333-.153.576-.153.549 0 1.018.433 1.018 1.54v2.89h-.693v-2.809c0-.54-.117-1.035-.585-1.035-.324 0-.567.233-.675.692-.018.1-.027.226-.027.324v2.827h-.693v-6.229zm-48.99 3.619c-.045-.802-.09-1.693-.063-2.377h-.036a33.457 33.457 0 0 1-.486 2.106l-.738 2.845h-.45l-.703-2.728a27.371 27.371 0 0 1-.504-2.224h-.027c.009.711-.036 1.558-.072 2.422l-.117 2.565h-.621l.36-6.067h.756l.702 2.772c.207.801.36 1.396.486 2.089h.027c.117-.693.252-1.27.45-2.089l.685-2.772h.774l.351 6.067h-.648l-.126-2.609zm3.96 1.62c0 .333 0 .711.045.99h-.621l-.045-.459h-.027c-.189.333-.495.531-.864.531-.585 0-1.036-.486-1.036-1.242 0-1.099.874-1.576 1.854-1.585v-.135c0-.585-.144-.99-.693-.99-.27 0-.513.081-.72.225l-.153-.486c.189-.135.585-.288 1.018-.288.873 0 1.242.576 1.242 1.549v1.89zm-.676-1.269c-.36 0-1.197.072-1.197 1.018 0 .576.288.774.531.774.306 0 .558-.226.639-.657a1.2 1.2 0 0 0 .027-.252v-.883zm1.539 1.54c.153.099.423.225.702.225.387 0 .639-.243.639-.63 0-.333-.117-.567-.558-.855-.567-.369-.873-.747-.873-1.242 0-.712.522-1.207 1.197-1.207.342 0 .594.108.774.226l-.18.522a.994.994 0 0 0-.585-.198c-.369 0-.558.27-.558.558s.108.459.54.747c.504.324.9.729.9 1.333 0 .873-.594 1.296-1.314 1.296-.315 0-.666-.099-.855-.252l.171-.523zm3.402-1.612h.018c.081-.171.153-.342.234-.485l.864-1.54h.747l-1.152 1.837 1.261 2.521h-.774l-.945-2.053-.252.405v1.647h-.693v-6.229h.693v3.897zM81.93 25.337c-1.008 0-1.684-1.071-1.684-3.115 0-2.008.729-3.097 1.783-3.097 1.035 0 1.656 1.125 1.656 3.061 0 2.269-.774 3.151-1.747 3.151h-.008zm.054-.612c.774 0 .981-1.323.981-2.512 0-1.135-.207-2.476-.99-2.476s-1.008 1.332-1.008 2.484c-.009 1.18.225 2.503 1.008 2.503h.009zm2.519-2.458c0-.666-.027-1.053-.036-1.359h.622l.036.549h.018c.234-.459.585-.621.918-.621.765 0 1.26.802 1.26 2.242 0 1.62-.666 2.26-1.341 2.26-.414 0-.648-.252-.765-.495h-.018v2.151h-.693v-4.727zm.694 1.404c0 .126.009.252.036.36.135.621.441.729.63.729.576 0 .765-.792.765-1.666 0-.909-.216-1.665-.765-1.665-.315 0-.603.396-.639.792-.027.108-.027.216-.027.333v1.117zm5.031 1.485c-.153.091-.414.162-.72.162-.955 0-1.594-.765-1.594-2.205 0-1.252.63-2.269 1.72-2.269.234 0 .486.062.612.144l-.135.559a1.13 1.13 0 0 0-.495-.117c-.702 0-1.008.828-1.008 1.684 0 1.017.387 1.629 1.026 1.629.18 0 .342-.036.495-.117l.099.53zm1.764.181c-.783 0-1.414-.712-1.414-2.242 0-1.593.711-2.26 1.458-2.26.783 0 1.405.721 1.405 2.242 0 1.692-.774 2.26-1.44 2.26h-.009zm.036-.55c.594 0 .72-1.017.72-1.701 0-.675-.126-1.701-.738-1.701-.621 0-.738 1.026-.738 1.701 0 .721.126 1.701.747 1.701h.009zm4.815-5.752v5.186c0 .297.027.792.036 1.044h-.594l-.045-.54h-.036c-.135.306-.45.612-.909.612-.738 0-1.27-.792-1.27-2.233 0-1.548.64-2.269 1.314-2.269.315 0 .621.145.792.514h.018v-2.313h.694zm-.693 3.528c0-.09 0-.188-.009-.288-.036-.45-.315-.846-.648-.846-.576 0-.774.801-.774 1.674 0 .919.234 1.657.738 1.657.216 0 .513-.117.666-.747.027-.081.027-.181.027-.288v-1.162zm2.141.586c.009 1.341.531 1.62 1.026 1.62.306 0 .549-.072.72-.162l.117.504c-.243.136-.612.207-.963.207-1.035 0-1.576-.846-1.576-2.188 0-1.413.594-2.296 1.468-2.296.882 0 1.242.937 1.242 1.918 0 .171-.009.288-.018.396h-2.016zm1.369-.513c.009-.873-.315-1.261-.648-1.261-.45 0-.684.667-.711 1.261h1.359zm-67.814-3.5h2.314v.603h-1.621v2.125h1.512v.585h-1.512v2.755h-.693v-6.068zm3.798 0v6.067h-.693v-6.067h.693zm1.107 6.067v-6.067h.648l1.116 2.845c.252.657.567 1.458.774 2.115h.018a45.668 45.668 0 0 1-.081-2.791v-2.169h.621v6.067H39.2l-1.152-2.917a19.439 19.439 0 0 1-.729-2.062H37.3c.054.811.072 1.585.072 2.881v2.098h-.621zM230.584 54.68l.485-3.457c.063-.513.162-1.018.261-1.63h-.035a18.537 18.537 0 0 1-.676 1.711l-1.485 3.34h-.423l-.225-3.421a23.615 23.615 0 0 1-.037-1.63h-.018c-.145.631-.225 1.117-.352 1.639l-.801 3.448h-.594l1.494-6.067h.721l.207 3.511c.026.468.045.909.035 1.396h.037c.161-.486.351-.937.549-1.404l1.512-3.502h.748l-.811 6.067h-.592zm3.5 0c.009-.243.035-.486.062-.828h-.018c-.432.738-.819.9-1.144.9-.504 0-.81-.441-.81-1.225 0-1.323.701-3.277 2.385-3.277.307 0 .621.063.802.145l-.505 2.493c-.116.586-.197 1.306-.188 1.792h-.584zm.549-3.871a1.187 1.187 0 0 0-.27-.027c-.973 0-1.513 1.594-1.54 2.548-.009.55.099.864.405.864.441 0 .909-.864 1.08-1.729l.325-1.656zm.926 3.196c.136.09.352.207.676.207.441-.01.702-.324.702-.738 0-.388-.188-.621-.44-.847-.298-.27-.568-.648-.568-1.062 0-.738.541-1.314 1.359-1.314.289 0 .541.072.676.172l-.18.495a1.104 1.104 0 0 0-.504-.136c-.451 0-.703.298-.703.676 0 .342.198.54.405.729.343.298.612.702.612 1.144 0 .937-.612 1.404-1.422 1.404-.343 0-.685-.135-.811-.233l.198-.497zm2.52.675l1.179-6.229h.641l-.712 3.754h.019c.099-.135.215-.307.287-.414l1.117-1.468h.746l-1.484 1.837.846 2.521h-.666l-.676-2.151-.332.414-.334 1.737h-.631zm3.105 0l.828-4.357h.648l-.838 4.357h-.638zm.981-5.465c.009-.233.188-.459.433-.459.252 0 .369.189.351.423-.019.298-.216.459-.45.459s-.36-.171-.334-.423zm.63 5.465l.531-2.863c.126-.63.189-1.143.234-1.494h.566l-.072.693h.019c.351-.531.729-.766 1.171-.766.539 0 .746.424.746.883 0 .252-.035.459-.08.711l-.531 2.836h-.648l.531-2.827c.036-.197.062-.378.062-.603 0-.262-.107-.441-.377-.441-.406 0-.893.621-1.054 1.449l-.46 2.422h-.638zm3.6 1.071c.18.099.459.189.702.189.657 0 .927-.478 1.099-1.278l.152-.685h-.018c-.369.604-.729.738-1.044.738-.505 0-.819-.441-.829-1.261-.008-1.287.676-3.205 2.233-3.205.342 0 .692.1.927.217l-.711 3.771c-.171.909-.378 1.477-.684 1.783-.297.314-.693.459-1.162.459-.333 0-.675-.09-.855-.207l.19-.521zm2.502-4.889a.804.804 0 0 0-.378-.072c-.892 0-1.387 1.54-1.404 2.44-.01.513.062.945.441.945.467 0 .854-.819.972-1.387l.369-1.926zm2.187 3.818l1.18-6.229h.639l-.711 3.754h.018c.1-.135.216-.307.288-.414l1.116-1.468h.747l-1.485 1.837.846 2.521h-.666l-.675-2.151-.333.414-.333 1.737h-.631zm5.365-.216c-.316.171-.648.27-1.027.27-.918 0-1.215-.702-1.215-1.539 0-1.18.657-2.944 1.899-2.944.64 0 .9.486.9.99 0 1.054-.937 1.504-2.125 1.513-.018.126-.045.612.027.873.099.369.323.567.666.567s.576-.117.774-.233l.101.503zm-.441-3.655c-.388 0-.802.478-1.035 1.423.693-.01 1.422-.243 1.422-.945 0-.308-.126-.478-.387-.478zm2.158-.487l.145 2.439c.018.396.027.648.045 1.081h.018c.117-.379.244-.712.388-1.099l.9-2.422h.666l-1.458 3.538c-.396.973-.855 1.782-1.432 2.277-.262.217-.514.379-.676.433l-.261-.549c.188-.091.423-.226.648-.414.271-.226.567-.622.702-.945.036-.091.045-.153.036-.243l-.388-4.097h.667zm6.131-1.872c-1.08 1.206-1.801 2.935-1.801 4.699 0 1.044.09 1.882.378 2.61h-.513c-.315-.729-.441-1.665-.441-2.565 0-1.899.811-3.637 1.801-4.744h.576zm2.889 1.926c0 1.378-.559 4.376-2.152 4.376-.9 0-1.07-.964-1.07-1.72 0-1.594.675-4.276 2.151-4.276.963 0 1.071.99 1.071 1.62zm-2.575 2.665c0 .693.09 1.144.539 1.144.955 0 1.387-3.016 1.387-3.907 0-.423-.072-.954-.477-.954-.99-.001-1.449 2.682-1.449 3.717zm6.85-.954l-.1.504H267.4l.09-.504h3.971zm1.879 2.593l.316-1.63h-1.891l.08-.459 2.566-3.763h.639l-.702 3.682h.64l-.108.54h-.63l-.315 1.63h-.595zm.424-2.17l.307-1.62c.09-.423.197-.811.287-1.225h-.027c-.287.495-.459.792-.765 1.242l-1.071 1.585v.018h1.269zm4.562-4.06l-.468 2.431h.019c.314-.45.621-.631.98-.631.676 0 .855.702.855 1.233 0 1.306-.711 3.269-2.197 3.269-.594 0-.863-.343-.863-.792 0-.181.027-.369.054-.486l.972-5.023h.648zm-.963 4.915a1.596 1.596 0 0 0-.045.433c0 .252.099.432.378.432.882 0 1.341-1.791 1.341-2.574 0-.505-.117-.829-.468-.829-.378 0-.792.495-.927 1.207l-.279 1.331zm3.6-3.043l.145 2.439c.018.396.027.648.045 1.081h.018c.117-.379.243-.712.387-1.099l.9-2.422h.666l-1.458 3.538c-.396.973-.854 1.782-1.431 2.277-.262.217-.514.379-.676.433l-.262-.549c.189-.091.424-.226.648-.414.271-.226.567-.622.703-.945a.46.46 0 0 0 .035-.243l-.387-4.097h.667zm3.816-1.143l-.234 1.144h.828l-.099.504h-.819l-.469 2.485a3.13 3.13 0 0 0-.062.549c0 .216.081.333.297.333.117 0 .189 0 .271-.018l-.054.504a1.722 1.722 0 0 1-.469.063c-.459 0-.729-.271-.729-.703 0-.171.018-.351.09-.702l.477-2.512h-.521l.09-.504h.531l.18-.945.692-.198zm2.656 5.285c-.315.171-.648.27-1.026.27-.918 0-1.215-.702-1.215-1.539 0-1.18.656-2.944 1.898-2.944.64 0 .9.486.9.99 0 1.054-.936 1.504-2.125 1.513-.018.126-.045.612.027.873.1.369.324.567.666.567.343 0 .576-.117.775-.233l.1.503zm-.442-3.655c-.388 0-.802.478-1.035 1.423.692-.01 1.423-.243 1.423-.945 0-.308-.127-.478-.388-.478zm1.107 3.196c.135.09.352.207.676.207.44-.01.701-.324.701-.738 0-.388-.188-.621-.44-.847-.298-.27-.567-.648-.567-1.062 0-.738.54-1.314 1.359-1.314.288 0 .54.072.676.172l-.181.495a1.1 1.1 0 0 0-.504-.136c-.45 0-.702.298-.702.676 0 .342.197.54.404.729.343.298.613.702.613 1.144 0 .937-.613 1.404-1.423 1.404-.343 0-.685-.135-.811-.233l.199-.497zm1.943 1.755c1.072-1.206 1.801-2.943 1.801-4.708 0-1.045-.08-1.882-.369-2.602h.522c.306.729.423 1.665.423 2.557 0 1.899-.801 3.646-1.782 4.753h-.595zm4.268-1.494c0-.288.225-.559.494-.559.307 0 .433.226.433.478 0 .315-.216.567-.495.567-.271 0-.432-.198-.432-.486zm1.718 0c0-.288.225-.559.494-.559.307 0 .433.226.433.478 0 .315-.216.567-.495.567-.271 0-.432-.198-.432-.486zm1.719 0c0-.288.225-.559.494-.559.307 0 .433.226.433.478 0 .315-.216.567-.495.567-.271 0-.432-.198-.432-.486zM182.409 40.044c-.252 0-.45-.207-.45-.522 0-.306.207-.522.459-.522.271 0 .459.207.459.522s-.17.522-.459.522h-.009zm1.746 0c-.252 0-.45-.207-.45-.522 0-.306.207-.522.459-.522.271 0 .459.207.459.522s-.17.522-.459.522h-.009zm1.745 0c-.252 0-.449-.207-.449-.522 0-.306.207-.522.459-.522.27 0 .459.207.459.522s-.171.522-.459.522h-.01zm38.58-17.678h-1.494l-.441 2.313h1.711l-.117.585h-2.35l1.152-6.067h2.242l-.108.576h-1.593l-.396 2.034h1.503l-.109.559zm1.459-1.459l.233.937c.064.297.109.54.162.756h.019c.153-.27.288-.504.423-.729l.567-.964h.702l-1.458 2.161.612 2.196h-.676l-.225-.963c-.055-.253-.108-.46-.172-.802h-.018c-.135.252-.261.486-.423.774l-.585.99h-.703l1.477-2.215-.611-2.143h.676zm3.815-1.143l-.234 1.144h.829l-.099.504h-.82l-.468 2.485a3.153 3.153 0 0 0-.063.549c0 .216.082.333.298.333.116 0 .188 0 .271-.018l-.055.504a1.717 1.717 0 0 1-.469.063c-.459 0-.729-.271-.729-.703 0-.171.018-.351.09-.702l.477-2.512h-.521l.09-.504h.531l.18-.945.692-.198zm2.656 5.285c-.316.171-.648.27-1.027.27-.918 0-1.215-.702-1.215-1.539 0-1.18.657-2.944 1.899-2.944.64 0 .9.486.9.99 0 1.054-.937 1.504-2.125 1.513-.018.126-.045.612.027.873.099.369.323.567.666.567s.576-.117.774-.233l.101.503zm-.441-3.655c-.388 0-.802.478-1.035 1.423.693-.01 1.422-.243 1.422-.945-.001-.308-.126-.478-.387-.478zm1.088 3.871l.531-2.863c.126-.63.189-1.143.234-1.494h.566l-.072.693h.019c.351-.531.729-.766 1.171-.766.539 0 .746.424.746.883 0 .252-.035.459-.08.711l-.531 2.836h-.648l.531-2.827c.036-.197.062-.378.062-.603 0-.262-.107-.441-.377-.441-.406 0-.893.621-1.054 1.449l-.46 2.422h-.638zm7.192-6.23l-.892 4.699c-.09.477-.18 1.116-.197 1.53h-.559l.054-.685h-.019c-.215.45-.621.757-1.043.757-.55 0-.883-.514-.883-1.306 0-1.485.783-3.196 2.062-3.196.171 0 .351.072.459.162l.369-1.962h.649zm-1.144 2.529a.47.47 0 0 0-.404-.198c-.838 0-1.324 1.647-1.324 2.539 0 .513.117.873.477.873.316 0 .738-.396.91-1.26l.341-1.954zm3.322 3.485c-.315.171-.648.27-1.026.27-.918 0-1.215-.702-1.215-1.539 0-1.18.656-2.944 1.898-2.944.64 0 .9.486.9.99 0 1.054-.936 1.504-2.125 1.513-.018.126-.045.612.027.873.1.369.324.567.666.567.343 0 .576-.117.775-.233l.1.503zm-.442-3.655c-.388 0-.802.478-1.035 1.423.692-.01 1.423-.243 1.423-.945 0-.308-.127-.478-.388-.478zm4.744-2.359l-.891 4.699c-.09.477-.18 1.116-.198 1.53h-.558l.053-.685h-.018c-.216.45-.621.757-1.044.757-.55 0-.882-.514-.882-1.306 0-1.485.783-3.196 2.061-3.196a.76.76 0 0 1 .459.162l.369-1.962h.649zm-1.143 2.529a.473.473 0 0 0-.405-.198c-.837 0-1.323 1.647-1.323 2.539 0 .513.117.873.477.873.315 0 .738-.396.91-1.26l.341-1.954zm2.248 3.701l1.171-6.229h.657l-1.188 6.229h-.64zm4.006-.216c-.314.171-.648.27-1.025.27-.919 0-1.216-.702-1.216-1.539 0-1.18.657-2.944 1.899-2.944.639 0 .9.486.9.99 0 1.054-.937 1.504-2.125 1.513-.018.126-.045.612.027.873.1.369.324.567.666.567s.576-.117.774-.233l.1.503zm-.442-3.655c-.387 0-.801.478-1.035 1.423.693-.01 1.423-.243 1.423-.945 0-.308-.126-.478-.388-.478zm1.089 3.871l.531-2.863c.126-.63.188-1.143.233-1.494h.568l-.072.693h.018c.352-.531.729-.766 1.17-.766.541 0 .748.424.748.883 0 .252-.036.459-.081.711l-.531 2.836h-.648l.531-2.827a3.17 3.17 0 0 0 .063-.603c0-.262-.108-.441-.379-.441-.404 0-.891.621-1.053 1.449l-.459 2.422h-.639zm3.6 1.071a1.6 1.6 0 0 0 .702.189c.657 0 .928-.478 1.099-1.278l.153-.685h-.019c-.369.604-.729.738-1.044.738-.504 0-.819-.441-.828-1.261-.01-1.287.675-3.205 2.232-3.205.342 0 .693.1.928.217l-.712 3.771c-.171.909-.378 1.477-.685 1.783-.297.314-.693.459-1.16.459-.334 0-.676-.09-.855-.207l.189-.521zm2.503-4.889a.803.803 0 0 0-.379-.072c-.891 0-1.386 1.54-1.404 2.44-.008.513.063.945.441.945.469 0 .855-.819.973-1.387l.369-1.926zm2.664-1.683l-.234 1.144h.828l-.099.504h-.819l-.469 2.485a3.13 3.13 0 0 0-.062.549c0 .216.081.333.297.333.117 0 .189 0 .271-.018l-.054.504a1.722 1.722 0 0 1-.469.063c-.459 0-.729-.271-.729-.703 0-.171.018-.351.09-.702l.477-2.512h-.521l.09-.504h.531l.18-.945.692-.198zm.359 5.501l1.17-6.229h.657l-.468 2.484h.018c.307-.45.657-.685 1.08-.685.522 0 .738.405.738.883 0 .233-.027.432-.08.729l-.531 2.817h-.648l.539-2.845c.037-.189.055-.369.055-.585 0-.271-.117-.441-.378-.441-.433 0-.9.648-1.036 1.377l-.477 2.494h-.639zm7.696-6.23c-1.08 1.206-1.801 2.935-1.801 4.699 0 1.044.09 1.882.379 2.61h-.514c-.314-.729-.441-1.665-.441-2.565 0-1.899.811-3.637 1.801-4.744h.576zm2.888 1.926c0 1.378-.558 4.376-2.151 4.376-.9 0-1.071-.964-1.071-1.72 0-1.594.676-4.276 2.152-4.276.963 0 1.07.99 1.07 1.62zm-2.574 2.665c0 .693.09 1.144.54 1.144.954 0 1.386-3.016 1.386-3.907 0-.423-.071-.954-.477-.954-.99-.001-1.449 2.682-1.449 3.717zm6.85-.954l-.099.504h-3.962l.091-.504h3.97zm3.644-2.17c0 .766-.459 1.297-1.044 1.647l-.009.027c.378.324.693.783.693 1.44 0 .954-.738 1.72-1.639 1.72-.793 0-1.287-.55-1.287-1.333 0-.963.675-1.557 1.251-1.881v-.019c-.405-.396-.576-.765-.576-1.197 0-.819.64-1.566 1.495-1.566.792.001 1.116.604 1.116 1.162zm-1.008 3.124c0-.567-.252-.909-.639-1.206-.459.243-.99.819-.99 1.521 0 .54.225.909.684.909.576.001.945-.584.945-1.224zm-.972-2.736c0 .459.207.72.531.999.559-.352.828-.847.828-1.332 0-.45-.17-.729-.549-.729-.459-.001-.81.458-.81 1.062zm5.203-1.855l-.469 2.431h.018c.315-.45.621-.631.981-.631.675 0 .855.702.855 1.233 0 1.306-.712 3.269-2.196 3.269-.595 0-.865-.343-.865-.792 0-.181.027-.369.055-.486l.973-5.023h.648zm-.964 4.915a1.596 1.596 0 0 0-.045.433c0 .252.099.432.378.432.883 0 1.342-1.791 1.342-2.574 0-.505-.117-.829-.469-.829-.378 0-.792.495-.928 1.207l-.278 1.331zm3.6-3.043l.144 2.439c.019.396.027.648.045 1.081h.019c.117-.379.243-.712.388-1.099l.9-2.422h.666l-1.459 3.538c-.396.973-.855 1.782-1.432 2.277-.261.217-.513.379-.675.433l-.261-.549c.189-.091.423-.226.648-.414.27-.226.566-.622.701-.945.037-.091.045-.153.037-.243l-.388-4.097h.667zm3.816-1.143l-.234 1.144h.829l-.1.504h-.819L289 23.896a3.153 3.153 0 0 0-.063.549c0 .216.081.333.298.333.116 0 .188 0 .27-.018l-.055.504a1.715 1.715 0 0 1-.468.063c-.459 0-.729-.271-.729-.703 0-.171.019-.351.09-.702l.478-2.512h-.522l.09-.504h.531l.181-.945.691-.197zm2.655 5.285c-.315.171-.648.27-1.026.27-.919 0-1.216-.702-1.216-1.539 0-1.18.658-2.944 1.9-2.944.639 0 .9.486.9.99 0 1.054-.938 1.504-2.125 1.513-.018.126-.045.612.027.873.099.369.324.567.666.567s.576-.117.773-.233l.101.503zm-.441-3.655c-.387 0-.801.478-1.035 1.423.693-.01 1.422-.243 1.422-.945 0-.308-.125-.478-.387-.478zm1.106 3.196c.136.09.351.207.675.207.441-.01.703-.324.703-.738 0-.388-.189-.621-.441-.847-.297-.27-.567-.648-.567-1.062 0-.738.54-1.314 1.359-1.314.288 0 .54.072.675.172l-.18.495a1.1 1.1 0 0 0-.504-.136c-.45 0-.703.298-.703.676 0 .342.199.54.406.729.342.298.611.702.611 1.144 0 .937-.611 1.404-1.422 1.404-.342 0-.684-.135-.811-.233l.199-.497zm1.945 1.755c1.07-1.206 1.801-2.943 1.801-4.708 0-1.045-.082-1.882-.369-2.602h.521c.307.729.424 1.665.424 2.557 0 1.899-.802 3.646-1.783 4.753h-.594zm4.265-1.494c0-.288.225-.559.495-.559.306 0 .433.226.433.478 0 .315-.217.567-.496.567-.27 0-.432-.198-.432-.486zm1.719 0c0-.288.225-.559.496-.559.305 0 .432.226.432.478 0 .315-.217.567-.495.567-.271 0-.433-.198-.433-.486zm1.719 0c0-.288.225-.559.496-.559.305 0 .432.226.432.478 0 .315-.217.567-.495.567-.271 0-.433-.198-.433-.486zM10.168 39.018c.207.126.531.234.855.234.594 0 .945-.396.945-.991 0-.702-.495-1.053-1.134-1.053h-.162v-.711h.117c.432 0 1.018-.243 1.018-.883 0-.495-.288-.774-.72-.774-.279 0-.531.117-.729.252l-.162-.72c.234-.171.675-.324 1.134-.324.945 0 1.44.63 1.44 1.378 0 .594-.315 1.089-.855 1.341v.019c.549.171 1.018.666 1.018 1.512 0 .919-.657 1.747-1.837 1.747-.432 0-.846-.117-1.089-.271l.161-.756zm3.527.954v-.64l.541-.711c.729-.963 1.44-1.899 1.44-2.854 0-.549-.271-.909-.784-.909-.396 0-.684.188-.864.306l-.189-.738a2.188 2.188 0 0 1 1.225-.378c1.143 0 1.557.792 1.557 1.656 0 1.099-.702 2.062-1.395 2.936l-.369.468v.018h1.854v.847h-3.016zm-.881 9.576c-.126 0-.279.019-.45.055-.864.207-1.251 1.008-1.396 1.81h.027c.225-.298.531-.505.945-.505.766 0 1.296.693 1.296 1.801 0 1.071-.513 2.044-1.566 2.044-1.071 0-1.666-.99-1.666-2.404 0-1.206.36-2.079.864-2.683a2.55 2.55 0 0 1 1.432-.846c.225-.045.405-.055.513-.063v.791zm-1.143 4.492c.387 0 .612-.468.612-1.305-.009-.676-.234-1.126-.657-1.126-.234 0-.468.153-.603.495-.027.063-.054.217-.054.441 0 .964.288 1.494.693 1.494h.009zm3.879.64v-1.494h-1.98v-.657l1.909-3.7h.927v3.583h.603v.774h-.603v1.494h-.856zm0-2.269v-1.404c0-.352.027-.702.054-1.045h-.027c-.162.388-.288.657-.45 1l-.711 1.431v.019h1.134zm234.702 10.972a5.52 5.52 0 0 1 .954-.09c.378 0 .873.108 1.144.423.234.262.332.63.332.981 0 .666-.278 1.261-.611 1.62-.379.414-.945.612-1.44.612-.153 0-.288-.018-.405-.036l-.469 2.494h-.639l1.134-6.004zm.08 2.953c.109.027.207.036.352.036.928 0 1.332-.919 1.332-1.603 0-.55-.215-.928-.873-.928a2.11 2.11 0 0 0-.342.036l-.469 2.459zm4.051 3.052c.01-.243.036-.486.063-.828h-.019c-.432.738-.818.9-1.143.9-.504 0-.811-.441-.811-1.225 0-1.323.702-3.277 2.386-3.277.306 0 .621.063.802.145l-.505 2.493c-.116.586-.198 1.306-.188 1.792h-.585zm.549-3.871a1.176 1.176 0 0 0-.27-.027c-.973 0-1.512 1.594-1.539 2.548-.01.55.099.864.404.864.441 0 .91-.864 1.081-1.729l.324-1.656zm1.889-.487l.144 2.439c.019.396.027.648.045 1.081h.019c.117-.379.243-.712.388-1.099l.9-2.422h.666l-1.459 3.538c-.396.973-.855 1.782-1.432 2.277-.261.217-.513.379-.675.433l-.261-.549c.189-.091.423-.226.648-.414.27-.226.566-.622.701-.945.037-.091.045-.153.037-.243l-.388-4.097h.667zm1.971 4.358l1.171-6.229h.656l-1.188 6.229h-.639zm4.681-3.007c0 1.099-.54 3.079-1.873 3.079-.81 0-1.062-.702-1.062-1.477 0-1.171.63-3.025 1.927-3.025.873 0 1.008.838 1.008 1.423zm-2.278 1.539c0 .495.035 1.009.495 1.009.792 0 1.125-1.854 1.125-2.593 0-.45-.081-.838-.459-.838-.719 0-1.161 1.567-1.161 2.422zm4.555 1.468c.009-.243.035-.486.062-.828h-.018c-.432.738-.819.9-1.144.9-.504 0-.81-.441-.81-1.225 0-1.323.701-3.277 2.385-3.277.307 0 .621.063.802.145l-.505 2.493c-.116.586-.197 1.306-.188 1.792h-.584zm.549-3.871a1.187 1.187 0 0 0-.27-.027c-.973 0-1.513 1.594-1.54 2.548-.009.55.099.864.405.864.441 0 .909-.864 1.08-1.729l.325-1.656zm4.5-2.359l-.891 4.699c-.09.477-.18 1.116-.198 1.53h-.558l.053-.685h-.018c-.216.45-.621.757-1.044.757-.55 0-.882-.514-.882-1.306 0-1.485.783-3.196 2.061-3.196a.76.76 0 0 1 .459.162l.369-1.962h.649zm-1.143 2.529a.473.473 0 0 0-.405-.198c-.837 0-1.323 1.647-1.323 2.539 0 .513.117.873.477.873.315 0 .738-.396.91-1.26l.341-1.954zm2.339 3.287c0-.288.226-.559.495-.559.307 0 .432.226.432.478 0 .315-.216.567-.494.567-.272 0-.433-.198-.433-.486zm1.719 0c0-.288.226-.559.495-.559.307 0 .432.226.432.478 0 .315-.216.567-.494.567-.272 0-.433-.198-.433-.486zm1.72 0c0-.288.225-.559.494-.559.307 0 .433.226.433.478 0 .315-.216.567-.495.567-.271 0-.432-.198-.432-.486zm-171.9.486c-.252 0-.45-.207-.45-.522 0-.306.208-.522.459-.522.27 0 .459.207.459.522s-.171.522-.459.522h-.009zm1.746 0c-.252 0-.45-.207-.45-.522 0-.306.208-.522.459-.522.27 0 .459.207.459.522s-.171.522-.459.522h-.009zm1.745 0c-.252 0-.45-.207-.45-.522 0-.306.207-.522.459-.522.27 0 .459.207.459.522s-.171.522-.459.522h-.009zm-3.491-14.708c-.252 0-.45-.207-.45-.522 0-.306.208-.522.459-.522.27 0 .459.207.459.522s-.171.522-.459.522h-.009zm1.746 0c-.252 0-.45-.207-.45-.522 0-.306.208-.522.459-.522.27 0 .459.207.459.522s-.171.522-.459.522h-.009zm1.745 0c-.252 0-.45-.207-.45-.522 0-.306.207-.522.459-.522.27 0 .459.207.459.522s-.171.522-.459.522h-.009zM10.411 68.649c.189 0 .315-.009.486-.045a1.58 1.58 0 0 0 .738-.405c.288-.288.522-.765.621-1.396h-.027a1.1 1.1 0 0 1-.882.423c-.748 0-1.333-.675-1.333-1.746 0-1.026.594-2.017 1.621-2.017 1.053 0 1.575 1.018 1.575 2.377 0 1.251-.369 2.17-.882 2.772a2.385 2.385 0 0 1-1.404.811c-.18.036-.351.036-.513.036v-.81zm1.161-4.474c-.315 0-.621.388-.612 1.225.009.702.243 1.144.657 1.144.243 0 .468-.171.576-.396.036-.107.054-.216.054-.513 0-.981-.279-1.459-.666-1.459h-.009zm4.914.081c-.126 0-.279.019-.45.055-.864.207-1.251 1.008-1.396 1.81h.027c.225-.298.531-.505.945-.505.766 0 1.296.693 1.296 1.801 0 1.071-.513 2.044-1.566 2.044-1.071 0-1.666-.99-1.666-2.404 0-1.206.36-2.079.864-2.683a2.55 2.55 0 0 1 1.432-.846c.225-.045.405-.055.513-.063v.791zm-1.143 4.492c.387 0 .612-.468.612-1.305-.009-.676-.234-1.126-.657-1.126-.234 0-.468.153-.603.495-.027.063-.054.217-.054.441 0 .964.288 1.494.693 1.494h.009zm167.066 15.42c-.252 0-.45-.207-.45-.522 0-.306.207-.522.459-.522.271 0 .459.207.459.522s-.17.522-.459.522h-.009zm1.746 0c-.252 0-.45-.207-.45-.522 0-.306.207-.522.459-.522.271 0 .459.207.459.522s-.17.522-.459.522h-.009zm1.745 0c-.252 0-.449-.207-.449-.522 0-.306.207-.522.459-.522.27 0 .459.207.459.522s-.171.522-.459.522h-.01zm-174.356 0c-.315 0-.576-.262-.576-.666 0-.388.271-.667.585-.667.333 0 .585.252.585.667 0 .404-.234.666-.585.666h-.009zm1.944 0c-.315 0-.576-.262-.576-.666 0-.388.271-.667.585-.667.333 0 .585.252.585.667 0 .404-.234.666-.585.666h-.009zm1.944 0c-.315 0-.576-.262-.576-.666 0-.388.271-.667.585-.667.333 0 .585.252.585.667 0 .404-.234.666-.585.666h-.009z"/></svg>