<svg xmlns="http://www.w3.org/2000/svg" viewBox="0 0 276.662 257.494"><path fill="#4d4d4d" fill-rule="evenodd" d="M100.649 92.556l6.989-6.098h-3.887V64.052h-6.203v22.406h-3.887z" clip-rule="evenodd"/><path fill="#b3b3b3" d="M73.277 227.741v29.234l-11.484-7.06v-29.238z"/><path fill="#333" d="M71.148 228.659v3.49l-8.189-5.037v-3.492zm0 11.77v3.486l-8.189-5.037v-3.488z"/><path fill="#e6e6e6" d="M71.148 236.042v1.008l-8.189-5.035v-1.014z"/><path fill="#333" d="M71.148 245.384v3.486l-8.189-5.035v-3.49zm0 4.953v3.489l-8.189-5.038V245.3z"/><path fill="gray" d="M73.271 227.759l18.204-11.483v29.237l-18.204 11.481z"/><path fill="#999" d="M61.818 220.694l18.225-11.482 11.461 7.061-18.205 11.482z"/><path fill="#009245" d="M63.234 227.591c.18.105.318.365.318.582 0 .211-.141.303-.318.191a.744.744 0 0 1-.312-.582c0-.217.14-.299.312-.191"/><path fill="#c1272d" d="M64.004 228.065c.178.107.316.369.316.586 0 .211-.146.299-.318.191-.176-.105-.316-.367-.316-.582-.001-.216.142-.304.318-.195"/><path fill="#009245" d="M64.771 228.53a.76.76 0 0 1 .316.582c0 .217-.145.303-.318.195-.178-.107-.316-.373-.316-.588 0-.21.141-.296.318-.189"/><path fill="#c1272d" d="M65.537 229.003c.176.107.315.367.315.584-.002.211-.143.299-.32.189-.172-.105-.314-.369-.314-.582-.001-.214.143-.302.319-.191m.775.474a.74.74 0 0 1 .316.584c0 .215-.141.303-.318.191a.755.755 0 0 1-.312-.582c0-.212.141-.3.314-.193"/><path fill="#009245" d="M67.08 229.956c.178.105.316.367.316.582 0 .215-.141.301-.318.193-.174-.105-.316-.367-.316-.584 0-.212.142-.302.318-.191m.768.461a.75.75 0 0 1 .314.584c0 .219-.143.303-.314.193-.178-.107-.318-.369-.318-.584-.001-.212.142-.3.318-.193m.767.475c.172.105.312.365.312.582s-.141.299-.318.191a.74.74 0 0 1-.312-.582c0-.217.142-.305.318-.191"/><path fill="#c1272d" d="M63.234 228.726c.18.105.318.369.318.584 0 .213-.141.297-.318.193a.746.746 0 0 1-.312-.586c0-.215.14-.299.312-.191m.77.474c.178.109.316.369.316.586 0 .213-.146.303-.318.193-.176-.109-.316-.373-.316-.586-.001-.214.142-.298.318-.193"/><path fill="#009245" d="M64.771 229.665c.172.104.316.373.316.582 0 .217-.145.303-.318.197-.178-.109-.316-.371-.316-.588 0-.212.141-.298.318-.191"/><path fill="#c1272d" d="M65.537 230.138c.176.105.315.367.315.584-.002.211-.143.299-.32.193a.774.774 0 0 1-.314-.584c-.001-.217.143-.305.319-.193"/><path fill="#009245" d="M66.312 230.612a.742.742 0 0 1 .316.582c0 .217-.141.305-.318.197-.172-.107-.312-.371-.312-.584 0-.214.141-.302.314-.195"/><path fill="#c1272d" d="M67.08 231.087c.178.107.316.375.316.586 0 .217-.141.301-.318.195a.757.757 0 0 1-.316-.584c0-.215.142-.303.318-.197"/><path fill="#009245" d="M67.848 231.552a.763.763 0 0 1 .314.586c0 .217-.143.303-.314.191-.178-.104-.318-.367-.318-.582-.001-.215.142-.303.318-.195"/><path fill="#c1272d" d="M68.615 232.023c.172.111.312.369.312.586s-.141.299-.318.195a.757.757 0 0 1-.312-.584c0-.219.142-.301.318-.197"/><path fill="#009245" d="M69.207 236.905c.178.107.32.367.32.586 0 .211-.145.299-.32.193a.762.762 0 0 1-.316-.586c0-.214.14-.3.316-.193m.77.463a.763.763 0 0 1 .312.586c0 .215-.141.299-.312.193a.742.742 0 0 1-.318-.584c-.001-.214.14-.298.318-.195"/><path fill="#c1272d" d="M70.74 237.841c.176.107.316.367.316.584 0 .211-.141.303-.318.193a.744.744 0 0 1-.314-.584c0-.215.142-.304.316-.193m-1.533.201c.178.105.32.367.32.586 0 .213-.145.299-.32.188-.178-.104-.316-.369-.316-.582s.14-.303.316-.192m.77.463a.772.772 0 0 1 .312.582c0 .217-.141.305-.312.193-.18-.105-.318-.369-.318-.582-.001-.217.14-.3.318-.193"/><path fill="#009245" d="M70.74 238.977c.176.104.316.365.316.582 0 .215-.141.303-.318.191a.733.733 0 0 1-.314-.582c0-.212.142-.3.316-.191"/><path fill="none" stroke="#000" d="M91.504 216.273l-11.463-7.061-18.223 11.482-.025-.017v29.238l11.478 7.06v.019l18.202-11.481v-29.221z" stroke-linecap="round" stroke-linejoin="round"/><path fill="#b2d4eb" fill-rule="evenodd" d="M3.38 93.349h194.539v25.886H3.38z" clip-rule="evenodd"/><path fill="none" stroke="#000" d="M3.38 93.349h194.539v25.886H3.38z" stroke-linecap="round" stroke-linejoin="round"/><path fill="#fff" fill-rule="evenodd" d="M3.38 119.235h194.539V180.5H3.38z" clip-rule="evenodd"/><path fill="none" stroke="#000" d="M3.38 119.235h194.539V180.5H3.38z" stroke-linecap="round" stroke-linejoin="round"/><ellipse cx="106.143" cy="30.277" fill="#998675" fill-rule="evenodd" rx="2.562" ry=".5" clip-rule="evenodd"/><path fill="#998675" d="M108.766 13.908l-.061 15.721c0 .275-1.146.5-2.561.5-1.416 0-2.562-.225-2.562-.5l.059-15.721s-.125-3.828 2.562-3.828c2.625 0 2.563 3.828 2.563 3.828z"/><path fill="#9e8c7c" d="M94.557 17.672c.082-5.734 6.426-6.57 8.121-6.465 2.805.176 4.469 1.527 4.615 4.164.006.135-.004.268-.029.398l.031-.129v17.844c.047 1.141-1.912 3.5-6.631 4.141-4.895.664-6.137-1.391-6.137-1.875l.03-18.078z"/><ellipse cx="95.018" cy="36.027" fill="#998675" fill-rule="evenodd" rx="2.562" ry=".5" clip-rule="evenodd"/><path fill="#998675" d="M103.385 11.539c1.662.39 1.889 1.526.508 2.539-1.381 1.012-3.846 1.516-5.506 1.127-1.662-.391-1.889-1.527-.508-2.539 1.381-1.014 3.846-1.518 5.506-1.127z"/><path fill="#c7b299" d="M99.746 13.219c-4.82-1.174-5.748-9.28-1.377-12.045 1.338-.846 2.619-.705 3.268-.578 2.865.73 3.938 3.623 4.121 5.217.4 3.506-1.154 5.826-2.744 6.828-1.418.894-2.758.702-3.268.578z"/><path fill="#a8988a" d="M97.641 19.658l-.061 15.721c0 .275-1.146.5-2.561.5-1.416 0-2.562-.225-2.562-.5l.059-15.721s-.125-3.828 2.562-3.828c2.625 0 2.563 3.828 2.563 3.828z"/><path fill="none" stroke="#000" d="M106.281 10.08c-.494 0-.893.131-1.215.344.623-1.182.986-2.717.77-4.611-.184-1.594-1.256-4.486-4.121-5.217-.648-.127-1.93-.268-3.268.578-3.742 2.366-3.592 8.633-.451 11.129-1.346.701-2.561 1.816-3.084 3.55-2.428.231-2.318 3.806-2.318 3.806l-.059 15.721-.002.648.602.5h1.883c.389 0 1.123.979 3.117 1.229 1.994.25 6-.926 6-.926 3.16-.803 3.16-3.346 3.16-3.346v-2.707l1.488-.5v-.648l.061-15.721c0-.001.062-3.829-2.563-3.829z" stroke-linecap="round" stroke-linejoin="round"/><path fill="#fddfbb" fill-rule="evenodd" stroke="#000" d="M12.182 129.895H69.12v39.943H12.182z" clip-rule="evenodd" stroke-linecap="round" stroke-linejoin="round"/><path fill="#b2dec7" fill-rule="evenodd" stroke="#000" d="M72.18 129.895h56.939v39.943H72.18z" clip-rule="evenodd" stroke-linecap="round" stroke-linejoin="round"/><path fill="none" stroke="#009245" d="M80.024 175.508V204" stroke-linecap="round" stroke-linejoin="round"/><path fill="#009245" d="M77.023 203.124l2.992 5.182 2.991-5.182zm6.002-26.74l-2.992-5.182-2.991 5.182z"/><path fill="none" stroke="#c1272d" d="M224.696 147.889h-30.592" stroke-linecap="round" stroke-linejoin="round"/><path fill="#c1272d" d="M194.979 144.888l-5.18 2.992 5.18 2.991z"/><path fill="none" stroke="#c1272d" d="M224.696 157.889h-30.592" stroke-linecap="round" stroke-linejoin="round"/><path fill="#c1272d" d="M194.979 154.888l-5.18 2.992 5.18 2.991z"/><path fill="none" stroke="#c1272d" d="M224.696 137.889h-30.592" stroke-linecap="round" stroke-linejoin="round"/><path fill="#c1272d" d="M194.979 134.888l-5.18 2.992 5.18 2.991z"/><path fill="#b3b3b3" d="M113.278 227.741v29.234l-11.485-7.06v-29.238z"/><path fill="#333" d="M111.149 228.659v3.49l-8.19-5.037v-3.492zm0 11.77v3.486l-8.19-5.037v-3.488z"/><path fill="#e6e6e6" d="M111.149 236.042v1.008l-8.19-5.035v-1.014z"/><path fill="#333" d="M111.149 245.384v3.486l-8.19-5.035v-3.49zm0 4.953v3.489l-8.19-5.038V245.3z"/><path fill="gray" d="M113.272 227.759l18.204-11.483v29.237l-18.204 11.481z"/><path fill="#999" d="M101.818 220.694l18.226-11.482 11.461 7.061-18.205 11.482z"/><path fill="#009245" d="M103.234 227.591c.18.105.318.365.318.582 0 .211-.141.303-.318.191a.744.744 0 0 1-.312-.582c0-.217.14-.299.312-.191"/><path fill="#c1272d" d="M104.004 228.065c.178.107.316.369.316.586 0 .211-.146.299-.318.191-.176-.105-.316-.367-.316-.582-.001-.216.142-.304.318-.195"/><path fill="#009245" d="M104.772 228.53a.76.76 0 0 1 .316.582c0 .217-.145.303-.318.195-.178-.107-.317-.373-.317-.588 0-.21.141-.296.319-.189"/><path fill="#c1272d" d="M105.538 229.003c.176.107.314.367.314.584-.002.211-.143.299-.32.189-.172-.105-.314-.369-.314-.582-.001-.214.144-.302.32-.191m.775.474a.74.74 0 0 1 .316.584c0 .215-.141.303-.318.191a.755.755 0 0 1-.312-.582c-.001-.212.14-.3.314-.193"/><path fill="#009245" d="M107.081 229.956c.178.105.316.367.316.582 0 .215-.141.301-.318.193-.174-.105-.316-.367-.316-.584-.001-.212.142-.302.318-.191m.767.461a.75.75 0 0 1 .315.584c0 .219-.143.303-.315.193-.178-.107-.318-.369-.318-.584 0-.212.142-.3.318-.193m.768.475c.172.105.312.365.312.582s-.141.299-.318.191a.74.74 0 0 1-.312-.582c0-.217.142-.305.318-.191"/><path fill="#c1272d" d="M103.234 228.726c.18.105.318.369.318.584 0 .213-.141.297-.318.193a.746.746 0 0 1-.312-.586c0-.215.14-.299.312-.191m.77.474c.178.109.316.369.316.586 0 .213-.146.303-.318.193-.176-.109-.316-.373-.316-.586-.001-.214.142-.298.318-.193"/><path fill="#009245" d="M104.772 229.665c.172.104.316.373.316.582 0 .217-.145.303-.318.197-.178-.109-.317-.371-.317-.588 0-.212.141-.298.319-.191"/><path fill="#c1272d" d="M105.538 230.138c.176.105.314.367.314.584-.002.211-.143.299-.32.193a.774.774 0 0 1-.314-.584c-.001-.217.144-.305.32-.193"/><path fill="#009245" d="M106.313 230.612a.742.742 0 0 1 .316.582c0 .217-.141.305-.318.197-.172-.107-.312-.371-.312-.584-.001-.214.14-.302.314-.195"/><path fill="#c1272d" d="M107.081 231.087c.178.107.316.375.316.586 0 .217-.141.301-.318.195a.757.757 0 0 1-.316-.584c-.001-.215.142-.303.318-.197"/><path fill="#009245" d="M107.848 231.552a.764.764 0 0 1 .315.586c0 .217-.143.303-.315.191-.178-.104-.318-.367-.318-.582 0-.215.142-.303.318-.195"/><path fill="#c1272d" d="M108.616 232.023c.172.111.312.369.312.586s-.141.299-.318.195a.757.757 0 0 1-.312-.584c0-.219.142-.301.318-.197"/><path fill="#009245" d="M109.208 236.905c.178.107.32.367.32.586 0 .211-.145.299-.32.193a.762.762 0 0 1-.316-.586c0-.214.14-.3.316-.193m.769.463a.763.763 0 0 1 .312.586c0 .215-.141.299-.312.193a.742.742 0 0 1-.318-.584c0-.214.141-.298.318-.195"/><path fill="#c1272d" d="M110.741 237.841c.176.107.316.367.316.584 0 .211-.141.303-.318.193a.744.744 0 0 1-.314-.584c0-.215.142-.304.316-.193m-1.533.201c.178.105.32.367.32.586 0 .213-.145.299-.32.188-.178-.104-.316-.369-.316-.582s.14-.303.316-.192m.769.463a.772.772 0 0 1 .312.582c0 .217-.141.305-.312.193-.18-.105-.318-.369-.318-.582 0-.217.141-.3.318-.193"/><path fill="#009245" d="M110.741 238.977c.176.104.316.365.316.582 0 .215-.141.303-.318.191a.733.733 0 0 1-.314-.582c0-.212.142-.3.316-.191"/><path fill="none" stroke="#000" d="M131.505 216.273l-11.463-7.061-18.224 11.482-.025-.017v29.238l11.479 7.06v.019l18.202-11.481v-29.221z" stroke-linecap="round" stroke-linejoin="round"/><path fill="none" stroke="#009245" d="M120.024 175.508V204" stroke-linecap="round" stroke-linejoin="round"/><path fill="#009245" d="M117.023 203.124l2.992 5.182 2.992-5.182zm6.002-26.74l-2.991-5.182-2.992 5.182z"/><ellipse cx="233.864" cy="159.021" fill="#998675" fill-rule="evenodd" rx="2.562" ry=".5" clip-rule="evenodd"/><path fill="#998675" d="M236.487 142.652l-.061 15.721c0 .275-1.146.5-2.561.5-1.416 0-2.562-.225-2.562-.5l.059-15.721s-.125-3.828 2.562-3.828c2.626 0 2.563 3.828 2.563 3.828z"/><path fill="#9e8c7c" d="M222.278 146.416c.082-5.734 6.426-6.57 8.121-6.465 2.805.176 4.469 1.527 4.615 4.164.006.135-.004.268-.029.398l.031-.129v17.844c.047 1.141-1.912 3.5-6.631 4.141-4.895.664-6.137-1.391-6.137-1.875l.03-18.078z"/><ellipse cx="222.739" cy="164.771" fill="#998675" fill-rule="evenodd" rx="2.562" ry=".5" clip-rule="evenodd"/><path fill="#998675" d="M231.106 140.283c1.662.39 1.889 1.526.508 2.539-1.381 1.012-3.846 1.516-5.506 1.127-1.662-.391-1.889-1.527-.508-2.539 1.381-1.014 3.846-1.517 5.506-1.127z"/><path fill="#c7b299" d="M227.468 141.963c-4.82-1.174-5.748-9.28-1.377-12.045 1.338-.846 2.619-.705 3.268-.578 2.865.73 3.938 3.623 4.121 5.217.4 3.506-1.154 5.826-2.744 6.828-1.419.894-2.759.702-3.268.578z"/><path fill="#a8988a" d="M225.362 148.402l-.061 15.721c0 .275-1.146.5-2.561.5-1.416 0-2.562-.225-2.562-.5l.059-15.721s-.125-3.828 2.562-3.828c2.626 0 2.563 3.828 2.563 3.828z"/><path fill="none" stroke="#000" d="M234.003 138.824c-.494 0-.893.131-1.215.344.623-1.182.986-2.717.77-4.611-.184-1.594-1.256-4.486-4.121-5.217-.648-.127-1.93-.268-3.268.578-3.742 2.366-3.592 8.633-.451 11.129-1.346.701-2.561 1.816-3.084 3.55-2.428.231-2.318 3.806-2.318 3.806l-.059 15.721-.002.648.602.5h1.883c.389 0 1.123.979 3.117 1.229 1.994.25 6-.926 6-.926 3.16-.803 3.16-3.346 3.16-3.346v-2.707l1.488-.5v-.648l.061-15.721c-.001-.001.062-3.829-2.563-3.829z" stroke-linecap="round" stroke-linejoin="round"/><path fill="none" stroke="#000" d="M30.651 64.052v60.198" stroke-dasharray="1 1"/><path d="M27.65 123.374l2.992 5.182 2.991-5.182zm6.002-58.447l-2.991-5.181-2.992 5.181z"/><path fill="none" stroke="#000" d="M40.651 64.052v60.198" stroke-dasharray="1 1"/><path d="M37.65 123.374l2.992 5.182 2.991-5.182zm6.002-58.447l-2.991-5.181-2.992 5.181z"/><path fill="none" stroke="#000" d="M50.651 64.052v60.198" stroke-dasharray="1 1"/><path d="M47.65 123.374l2.992 5.182 2.991-5.182zm6.002-58.447l-2.991-5.181-2.992 5.181z"/><path fill="none" stroke="#000" d="M150.646 74.052v60.198" stroke-dasharray="1 1"/><path d="M147.645 133.374l2.992 5.182 2.992-5.182zm6.002-58.447l-2.991-5.181-2.992 5.181z"/><path fill="none" stroke="#000" d="M160.646 74.052v60.198" stroke-dasharray="1 1"/><path d="M157.645 133.374l2.992 5.182 2.992-5.182zm6.002-58.447l-2.991-5.181-2.992 5.181z"/><path fill="none" stroke="#000" d="M170.646 74.052v60.198" stroke-dasharray="1 1"/><path d="M167.645 133.374l2.992 5.182 2.992-5.182zm6.002-58.447l-2.991-5.181-2.992 5.181z"/><path fill="#ecbec0" fill-rule="evenodd" d="M20.411 43.349h160.478v25.886H20.411z" clip-rule="evenodd"/><path fill="none" stroke="#000" d="M20.411 43.349h160.478v25.886H20.411z" stroke-linecap="round" stroke-linejoin="round"/><path fill="#fddfbb" fill-rule="evenodd" stroke="#000" d="M132.177 129.895h56.938v39.943h-56.938z" clip-rule="evenodd" stroke-linecap="round" stroke-linejoin="round"/><path d="M79.961 57.715l-.432 2.099h-1.247l1.799-8.084h1.5l1.667 8.084H82l-.432-2.099h-1.607zm1.476-1.008l-.336-1.858c-.108-.528-.216-1.271-.3-1.835h-.036a54.761 54.761 0 0 1-.3 1.847l-.36 1.847h1.332zm2.641-.899c0-.792-.024-1.343-.048-1.835h1.116l.072.708h.024c.276-.552.72-.804 1.223-.804 1.164 0 1.763 1.247 1.763 2.998 0 2.135-.912 3.034-1.859 3.034-.516 0-.828-.312-.996-.611h-.024v2.818h-1.271v-6.308zm1.271 1.871c0 .18.024.359.06.491.156.564.456.684.671.684.648 0 .864-.923.864-1.954 0-1.164-.276-1.943-.864-1.943-.324 0-.611.36-.684.756a1.64 1.64 0 0 0-.048.432v1.534zm3.829-1.871c0-.792-.024-1.343-.048-1.835h1.116l.072.708h.024c.276-.552.72-.804 1.224-.804 1.163 0 1.763 1.247 1.763 2.998 0 2.135-.912 3.034-1.859 3.034-.516 0-.828-.312-.996-.611h-.024v2.818h-1.271v-6.308zm1.271 1.871c0 .18.024.359.06.491.156.564.456.684.672.684.647 0 .863-.923.863-1.954 0-1.164-.276-1.943-.863-1.943-.324 0-.612.36-.684.756a1.64 1.64 0 0 0-.048.432v1.534zm3.829-6.165h1.283v8.3h-1.283v-8.3zm3.131 1.679c-.372 0-.671-.3-.671-.744 0-.455.312-.743.684-.743.408 0 .695.288.695.743 0 .444-.288.744-.695.744h-.013zm-.611 6.62v-5.841h1.283v5.841h-1.283zm5.53-.12c-.18.096-.552.192-.984.192-1.391 0-2.314-1.032-2.314-2.95 0-1.752.971-3.047 2.519-3.047.348 0 .684.084.839.168l-.192 1.02c-.132-.048-.335-.132-.624-.132-.828 0-1.259.888-1.259 1.967 0 1.199.48 1.919 1.259 1.919.24 0 .444-.048.624-.132l.132.995zm4.355-1.211c0 .455.012.947.072 1.331h-1.151l-.072-.588h-.024c-.3.444-.731.684-1.235.684-.84 0-1.476-.695-1.476-1.727 0-1.499 1.271-2.135 2.591-2.147v-.155c0-.612-.24-1.031-.875-1.031-.42 0-.768.119-1.091.323l-.24-.875c.288-.181.9-.42 1.607-.42 1.511 0 1.895 1.031 1.895 2.278v2.327zm-1.259-1.595c-.504.013-1.403.145-1.403 1.164 0 .659.348.899.636.899.324 0 .624-.216.731-.672.024-.084.036-.192.036-.3v-1.091zm3.865-4.366v1.451h1.127v.924h-1.127v3.034c0 .72.275.899.6.899.144 0 .264-.012.396-.036l.024.995c-.192.061-.479.097-.839.097-.408 0-.78-.108-1.031-.36-.288-.287-.432-.707-.432-1.583v-3.046h-.695v-.924h.695v-1.008l1.282-.443zm2.507.672c-.372 0-.671-.3-.671-.744 0-.455.312-.743.684-.743.408 0 .695.288.695.743 0 .444-.287.744-.695.744h-.013zm-.611 6.62v-5.841h1.284v5.841h-1.284zm4.319.096c-1.235 0-2.087-1.031-2.087-2.998 0-2.123 1.044-3.034 2.135-3.034 1.224 0 2.063 1.067 2.063 2.998 0 2.363-1.225 3.034-2.1 3.034h-.011zm.048-.983c.636 0 .78-1.151.78-2.039 0-.852-.145-2.026-.805-2.026-.695 0-.827 1.175-.827 2.026 0 .983.168 2.039.839 2.039h.013zm3.012-3.31c0-.66-.023-1.128-.048-1.644h1.116l.059.684h.025a1.566 1.566 0 0 1 1.379-.779c.982 0 1.499.756 1.499 2.11v3.826h-1.284v-3.706c0-.588-.119-1.151-.684-1.151-.311 0-.6.24-.719.72-.036.12-.061.312-.061.527v3.61h-1.283v-4.197zm-87.358 84.189h1.283v7.005h2.159v1.079h-3.442v-8.084zm5.987 8.18c-1.235 0-2.087-1.031-2.087-2.998 0-2.123 1.043-3.034 2.135-3.034 1.223 0 2.063 1.067 2.063 2.998 0 2.363-1.224 3.034-2.099 3.034h-.012zm.048-.984c.636 0 .78-1.151.78-2.039 0-.852-.144-2.026-.804-2.026-.696 0-.828 1.175-.828 2.026 0 .983.168 2.039.839 2.039h.013zm6.083.768c-.18.096-.552.192-.984.192-1.391 0-2.314-1.032-2.314-2.95 0-1.752.971-3.047 2.519-3.047.348 0 .684.084.839.168l-.192 1.02c-.132-.048-.335-.132-.624-.132-.828 0-1.259.888-1.259 1.967 0 1.199.48 1.919 1.259 1.919.24 0 .444-.048.624-.132l.132.995zm4.356-1.211c0 .455.012.947.072 1.331H46.6l-.072-.588h-.024c-.3.444-.731.684-1.235.684-.84 0-1.476-.695-1.476-1.727 0-1.499 1.271-2.135 2.591-2.147v-.155c0-.612-.24-1.031-.875-1.031-.42 0-.768.119-1.091.323l-.24-.875c.288-.181.9-.42 1.607-.42 1.511 0 1.895 1.031 1.895 2.278v2.327zm-1.26-1.596c-.504.013-1.403.145-1.403 1.164 0 .659.348.899.636.899.324 0 .624-.216.731-.672.024-.084.036-.192.036-.3v-1.091zm2.45-5.373h1.283v8.3H48.87v-8.3zm-22.212 18.34c.204.133.564.301.936.301.516 0 .852-.324.852-.84 0-.444-.156-.756-.744-1.14-.755-.491-1.164-.995-1.164-1.655 0-.947.696-1.606 1.595-1.606.456 0 .792.144 1.032.3l-.24.695c-.228-.156-.468-.264-.779-.264-.492 0-.744.359-.744.743s.144.612.72.996c.671.432 1.199.971 1.199 1.774 0 1.163-.792 1.728-1.751 1.728-.42 0-.888-.132-1.14-.336l.228-.696zm4.751-6.2v1.355h1.116v.695h-1.116v3.454c0 .768.264.96.6.96.156 0 .276-.013.372-.036l.048.707a1.995 1.995 0 0 1-.684.097c-.372 0-.696-.097-.912-.348-.24-.265-.348-.66-.348-1.464v-3.37h-.708v-.695h.708v-.983l.924-.372zm1.921 2.854c0-.492-.036-1.067-.048-1.499h.827l.048.911h.024c.192-.552.684-1.007 1.223-1.007a.97.97 0 0 1 .192.012v.947c-.06-.012-.12-.012-.192-.012-.587 0-1.02.54-1.115 1.211a3.422 3.422 0 0 0-.036.528v3.214h-.923v-4.305zm3.467 1.488c.012 1.787.708 2.159 1.367 2.159.408 0 .731-.097.959-.217l.156.672c-.324.18-.815.276-1.283.276-1.379 0-2.099-1.128-2.099-2.915 0-1.883.792-3.058 1.955-3.058 1.175 0 1.655 1.247 1.655 2.555 0 .228-.012.384-.024.527h-2.686zm1.823-.684c.012-1.163-.419-1.679-.863-1.679-.6 0-.912.887-.948 1.679h1.811zm4.943 2.183c0 .443 0 .947.06 1.319h-.828l-.06-.611H42.7c-.251.443-.66.707-1.151.707-.779 0-1.379-.647-1.379-1.655 0-1.463 1.163-2.099 2.47-2.11v-.18c0-.78-.191-1.319-.923-1.319-.36 0-.684.107-.959.3l-.204-.647c.251-.181.779-.384 1.355-.384 1.164 0 1.655.768 1.655 2.062v2.518zm-.899-1.692c-.48 0-1.595.097-1.595 1.355 0 .768.384 1.031.708 1.031.408 0 .744-.3.852-.875.024-.108.036-.229.036-.336v-1.175zm2.209-1.295c0-.684-.036-1.031-.048-1.499h.815l.048.707h.024c.252-.468.684-.803 1.295-.803.54 0 1.008.252 1.224.875h.024c.156-.288.36-.516.563-.659.24-.145.504-.216.804-.216.792 0 1.403.563 1.403 2.051v3.85h-.923v-3.646c0-.756-.108-1.487-.804-1.487-.384 0-.72.323-.852.875-.036.145-.036.324-.036.516v3.742h-.923v-3.813c0-.636-.108-1.319-.792-1.319-.384 0-.756.323-.864.947a3.047 3.047 0 0 0-.036.491v3.694h-.924v-4.306zm7.284 3.346c.204.133.563.301.936.301.516 0 .852-.324.852-.84 0-.444-.156-.756-.744-1.14-.755-.491-1.164-.995-1.164-1.655 0-.947.696-1.606 1.595-1.606.456 0 .792.144 1.032.3l-.24.695c-.228-.156-.468-.264-.779-.264-.492 0-.744.359-.744.743s.144.612.72.996c.671.432 1.199.971 1.199 1.774 0 1.163-.792 1.728-1.751 1.728-.42 0-.888-.132-1.14-.336l.228-.696zm31.752-18.124v8.084h-1.283v-8.084h1.283zm5.147 7.952c-.24.12-.66.204-1.188.204-1.847 0-2.902-1.512-2.902-4.006 0-3.106 1.643-4.222 3.082-4.222.528 0 .899.107 1.056.204l-.24 1.091c-.192-.096-.384-.168-.768-.168-.875 0-1.775.804-1.775 3.011 0 2.171.816 2.95 1.787 2.95.3 0 .6-.072.792-.144l.156 1.08zm4.104-3.549h-1.919v2.566h2.183v1.115h-3.466v-8.084h3.322v1.116h-2.039v2.219h1.919v1.068zm4.345 1.583l-.432 2.099h-1.247l1.799-8.084h1.5l1.667 8.084h-1.248l-.432-2.099h-1.607zm1.475-1.008l-.336-1.858c-.108-.528-.216-1.271-.3-1.835h-.036a54.761 54.761 0 0 1-.3 1.847l-.36 1.847h1.332zm6.503 2.411c0 1.379-.216 2.015-.647 2.458-.396.408-.983.636-1.739.636-.528 0-1.02-.107-1.391-.275l.264-.996c.264.133.636.252 1.104.252.768 0 1.139-.491 1.139-1.583v-.455h-.024c-.204.407-.611.635-1.079.635-1.188 0-1.775-1.318-1.775-2.854 0-2.039.924-3.059 1.907-3.059.54 0 .875.323 1.08.72h.024l.072-.624h1.127a23.93 23.93 0 0 0-.06 1.835v3.31zm-1.271-3.07c0-.156-.024-.312-.06-.432-.084-.312-.264-.66-.648-.66-.611 0-.899.827-.899 1.931 0 1.271.384 1.884.875 1.884.24 0 .516-.12.66-.612.06-.155.072-.323.072-.491v-1.62zm3.469 1.187c.012 1.307.612 1.667 1.295 1.667.432 0 .792-.097 1.043-.204l.192.911c-.372.168-.936.276-1.463.276-1.511 0-2.315-1.092-2.315-2.902 0-1.932.924-3.106 2.171-3.106 1.224 0 1.847 1.115 1.847 2.674 0 .336-.012.528-.036.685h-2.734zm1.583-.912c.012-.936-.3-1.487-.755-1.487-.552 0-.804.804-.828 1.487h1.583zm2.113-.707c0-.66-.024-1.128-.048-1.644h1.116l.059.684h.025a1.566 1.566 0 0 1 1.379-.779c.982 0 1.499.756 1.499 2.11v3.826h-1.284v-3.706c0-.588-.119-1.151-.684-1.151-.311 0-.6.24-.719.72-.036.12-.061.312-.061.527v3.61h-1.283v-4.197zm6.695-3.095v1.451h1.127v.924h-1.127v3.034c0 .72.275.899.6.899.144 0 .264-.012.396-.036l.024.995c-.192.061-.48.097-.84.097-.408 0-.779-.108-1.031-.36-.288-.287-.432-.707-.432-1.583v-3.046h-.695v-.924h.695v-1.008l1.283-.443zm27.848-.672c.443-.107 1.007-.155 1.535-.155.84 0 1.535.144 2.002.587.456.432.612.972.612 1.644 0 .936-.456 1.667-1.271 2.039v.023c.575.204.864.744 1.032 1.703.167.983.359 1.848.491 2.123h-1.331c-.096-.228-.276-1.02-.408-1.967-.156-1.056-.455-1.392-1.104-1.392h-.287v3.358h-1.271v-7.963zm1.271 3.622h.336c.768 0 1.246-.6 1.246-1.427 0-.792-.323-1.332-1.15-1.344a1.48 1.48 0 0 0-.432.048v2.723zm4.955 1.764c.013 1.307.612 1.667 1.296 1.667.432 0 .792-.097 1.044-.204l.191.911c-.372.168-.936.276-1.463.276-1.512 0-2.315-1.092-2.315-2.902 0-1.932.924-3.106 2.171-3.106 1.224 0 1.848 1.115 1.848 2.674 0 .336-.013.528-.037.685h-2.735zm1.584-.912c.012-.936-.301-1.487-.756-1.487-.552 0-.804.804-.828 1.487h1.584zm2.114-.707c0-.66-.024-1.128-.049-1.644h1.116l.06.695h.024c.275-.443.755-.791 1.367-.791.6 0 1.031.288 1.247.839h.023c.145-.251.36-.479.576-.623.24-.145.516-.216.816-.216.935 0 1.463.72 1.463 2.158v3.778h-1.271v-3.538c0-.708-.096-1.331-.66-1.331-.336 0-.6.252-.707.684a1.75 1.75 0 0 0-.049.468v3.718h-1.271v-3.742c0-.516-.072-1.127-.647-1.127-.312 0-.612.239-.721.707-.023.132-.047.3-.047.468v3.694h-1.271v-4.197zm9.695 4.293c-1.236 0-2.088-1.031-2.088-2.998 0-2.123 1.044-3.034 2.135-3.034 1.224 0 2.063 1.067 2.063 2.998 0 2.363-1.224 3.034-2.099 3.034h-.011zm.047-.984c.637 0 .78-1.151.78-2.039 0-.852-.144-2.026-.804-2.026-.695 0-.828 1.175-.828 2.026 0 .983.168 2.039.84 2.039h.012zm4.549-6.404v1.451h1.127v.924h-1.127v3.034c0 .72.275.899.6.899.144 0 .264-.012.396-.036l.024.995c-.192.061-.48.097-.84.097-.408 0-.779-.108-1.031-.36-.288-.287-.432-.707-.432-1.583v-3.046h-.695v-.924h.695v-1.008l1.283-.443zm2.844 4.714c.013 1.307.612 1.667 1.296 1.667.432 0 .792-.097 1.044-.204l.191.911c-.372.168-.936.276-1.463.276-1.512 0-2.315-1.092-2.315-2.902 0-1.932.924-3.106 2.171-3.106 1.224 0 1.848 1.115 1.848 2.674 0 .336-.013.528-.037.685h-2.735zm1.583-.912c.012-.936-.301-1.487-.756-1.487-.552 0-.804.804-.828 1.487h1.584zm-27.904 13.53c.203.133.563.301.936.301.516 0 .852-.324.852-.84 0-.444-.156-.756-.744-1.14-.756-.491-1.164-.995-1.164-1.655 0-.947.696-1.606 1.596-1.606.456 0 .791.144 1.031.3l-.24.695c-.227-.156-.467-.264-.779-.264-.491 0-.743.359-.743.743s.144.612.72.996c.672.432 1.199.971 1.199 1.774 0 1.163-.791 1.728-1.751 1.728-.42 0-.888-.132-1.14-.336l.227-.696zm4.75-6.2v1.355h1.116v.695h-1.116v3.454c0 .768.265.96.6.96.156 0 .276-.013.373-.036l.047.707c-.168.061-.383.097-.684.097-.371 0-.695-.097-.911-.348-.239-.265-.348-.66-.348-1.464v-3.37h-.708v-.695h.708v-.983l.923-.372zm1.922 2.854c0-.492-.037-1.067-.049-1.499h.828l.048.911h.024c.191-.552.684-1.007 1.223-1.007.072 0 .132 0 .191.012v.947c-.06-.012-.119-.012-.191-.012-.588 0-1.02.54-1.115 1.211a3.551 3.551 0 0 0-.036.528v3.214h-.923v-4.305zm3.467 1.488c.012 1.787.707 2.159 1.367 2.159.408 0 .731-.097.959-.217l.156.672c-.324.18-.815.276-1.283.276-1.379 0-2.099-1.128-2.099-2.915 0-1.883.792-3.058 1.954-3.058 1.176 0 1.656 1.247 1.656 2.555 0 .228-.013.384-.024.527h-2.686zm1.822-.684c.013-1.163-.419-1.679-.863-1.679-.6 0-.911.887-.947 1.679h1.81zm4.944 2.183c0 .443 0 .947.06 1.319h-.827l-.06-.611h-.037c-.251.443-.659.707-1.15.707-.779 0-1.379-.647-1.379-1.655 0-1.463 1.162-2.099 2.47-2.11v-.18c0-.78-.191-1.319-.923-1.319-.36 0-.684.107-.96.3l-.204-.647c.252-.181.779-.384 1.355-.384 1.164 0 1.655.768 1.655 2.062v2.518zm-.899-1.692c-.48 0-1.596.097-1.596 1.355 0 .768.385 1.031.708 1.031.407 0 .743-.3.852-.875.024-.108.036-.229.036-.336v-1.175zm2.209-1.295c0-.684-.035-1.031-.048-1.499h.815l.049.707h.023c.252-.468.684-.803 1.295-.803.54 0 1.008.252 1.224.875h.024a1.93 1.93 0 0 1 .562-.659c.24-.145.504-.216.805-.216.791 0 1.402.563 1.402 2.051v3.85h-.923v-3.646c0-.756-.108-1.487-.804-1.487-.384 0-.72.323-.852.875-.036.145-.036.324-.036.516v3.742h-.923v-3.813c0-.636-.108-1.319-.792-1.319-.384 0-.756.323-.864.947a3.173 3.173 0 0 0-.035.491v3.694h-.924v-4.306zm7.284 3.346c.204.133.563.301.936.301.516 0 .852-.324.852-.84 0-.444-.155-.756-.743-1.14-.756-.491-1.164-.995-1.164-1.655 0-.947.695-1.606 1.596-1.606.455 0 .791.144 1.031.3l-.24.695c-.228-.156-.468-.264-.779-.264-.492 0-.744.359-.744.743s.145.612.721.996c.671.432 1.199.971 1.199 1.774 0 1.163-.792 1.728-1.752 1.728-.42 0-.887-.132-1.139-.336l.226-.696zM65.994 101.85a5.304 5.304 0 0 1 1.331-.155c.804 0 1.403.168 1.823.575.396.408.563.947.563 1.583 0 1.031-.479 1.703-1.295 2.087v.024c.6.18.912.755 1.08 1.811.192 1.104.348 1.787.468 2.039h-.936c-.12-.24-.276-1.008-.432-1.991-.18-1.115-.528-1.522-1.319-1.522h-.36v3.514h-.923v-7.965zm.923 3.73h.384c.888 0 1.475-.647 1.475-1.619 0-.924-.384-1.512-1.379-1.523-.18 0-.36.012-.48.048v3.094zm4.8-3.022h-1.475v-.828h3.874v.828h-1.475v7.256h-.924v-7.256zm6.455 7.112c-.252.132-.66.216-1.164.216-1.571 0-2.71-1.26-2.71-4.006 0-3.202 1.583-4.222 2.866-4.222.48 0 .84.096.996.204l-.204.779a1.71 1.71 0 0 0-.804-.168c-.864 0-1.883.84-1.883 3.31 0 2.483.911 3.287 1.907 3.287.348 0 .647-.084.839-.168l.157.768zm.937-7.82a5.297 5.297 0 0 1 1.343-.155c.744 0 1.379.18 1.799.587.384.384.588.972.588 1.68 0 .743-.18 1.247-.492 1.655-.432.6-1.188.899-1.907.899-.156 0-.276 0-.408-.013v3.311h-.923v-7.964zm.924 3.885c.108.013.216.024.372.024.899 0 1.511-.6 1.511-1.739 0-.827-.335-1.571-1.367-1.571-.216 0-.396.024-.516.061v3.225zm4.14 1.26c.012 1.787.708 2.159 1.367 2.159.408 0 .731-.097.959-.217l.156.672c-.324.18-.815.276-1.283.276-1.379 0-2.099-1.128-2.099-2.915 0-1.883.792-3.058 1.955-3.058 1.175 0 1.655 1.247 1.655 2.555 0 .228-.012.384-.024.527h-2.686zm1.823-.683c.012-1.163-.419-1.679-.863-1.679-.6 0-.912.887-.948 1.679h1.811zm2.533.683c.012 1.787.708 2.159 1.367 2.159.408 0 .731-.097.959-.217l.156.672c-.324.18-.815.276-1.283.276-1.379 0-2.099-1.128-2.099-2.915 0-1.883.792-3.058 1.955-3.058 1.175 0 1.655 1.247 1.655 2.555 0 .228-.012.384-.024.527h-2.686zm1.823-.683c.012-1.163-.419-1.679-.863-1.679-.6 0-.912.887-.948 1.679h1.811zm1.873-.804c0-.492-.036-1.067-.048-1.499h.827l.048.911h.024c.192-.552.684-1.007 1.223-1.007a.97.97 0 0 1 .192.012v.947c-.06-.012-.12-.012-.192-.012-.587 0-1.02.54-1.115 1.211a3.422 3.422 0 0 0-.036.528v3.214h-.923v-4.305zm6.598 4.162c-.252.132-.66.216-1.164.216-1.571 0-2.71-1.26-2.71-4.006 0-3.202 1.583-4.222 2.866-4.222.48 0 .84.096.996.204l-.204.779a1.71 1.71 0 0 0-.804-.168c-.864 0-1.883.84-1.883 3.31 0 2.483.911 3.287 1.907 3.287.348 0 .647-.084.839-.168l.157.768zm2.281.239c-1.043 0-1.883-.947-1.883-2.986 0-2.123.947-3.01 1.943-3.01 1.043 0 1.871.959 1.871 2.986 0 2.255-1.031 3.01-1.919 3.01h-.012zm.048-.731c.792 0 .959-1.355.959-2.267 0-.899-.168-2.267-.983-2.267-.828 0-.983 1.367-.983 2.267 0 .959.168 2.267.996 2.267h.011zm2.917-3.67c0-.684-.036-1.031-.048-1.499h.804l.048.695h.024c.252-.468.72-.791 1.332-.791.803 0 1.403.587 1.403 2.003v3.897h-.923v-3.742c0-.695-.132-1.379-.804-1.379-.384 0-.755.323-.863.947a2.093 2.093 0 0 0-.048.516v3.658h-.924v-4.305zm4.86 0c0-.684-.036-1.031-.048-1.499h.804l.048.695h.024c.252-.468.72-.791 1.332-.791.803 0 1.402.587 1.402 2.003v3.897h-.923v-3.742c0-.695-.132-1.379-.804-1.379-.384 0-.755.323-.863.947a2.093 2.093 0 0 0-.048.516v3.658h-.924v-4.305zm5.508 1.487c.012 1.787.708 2.159 1.367 2.159.407 0 .731-.097.96-.217l.155.672c-.323.18-.815.276-1.283.276-1.38 0-2.099-1.128-2.099-2.915 0-1.883.791-3.058 1.955-3.058 1.175 0 1.654 1.247 1.654 2.555 0 .228-.012.384-.023.527h-2.686zm1.823-.683c.012-1.163-.42-1.679-.863-1.679-.6 0-.912.887-.948 1.679h1.811zm4.715 3.358c-.203.119-.551.216-.959.216-1.271 0-2.123-1.02-2.123-2.938 0-1.667.84-3.022 2.291-3.022.312 0 .647.084.815.191l-.18.744a1.492 1.492 0 0 0-.659-.156c-.936 0-1.344 1.104-1.344 2.243 0 1.355.516 2.171 1.367 2.171.24 0 .455-.048.66-.156l.132.707zm2.101-7.017v1.355h1.115v.695h-1.115v3.454c0 .768.264.96.6.96.156 0 .275-.013.371-.036l.049.707a2 2 0 0 1-.684.097c-.372 0-.696-.097-.912-.348-.24-.265-.348-.66-.348-1.464v-3.37h-.707v-.695h.707v-.983l.924-.372zm2.364.456c-.3 0-.528-.24-.528-.6s.24-.6.54-.6c.336 0 .552.239.552.6 0 .359-.216.6-.552.6h-.012zm-.432 6.704v-5.805h.924v5.805h-.924zm3.84.096c-1.043 0-1.883-.947-1.883-2.986 0-2.123.947-3.01 1.943-3.01 1.043 0 1.87.959 1.87 2.986 0 2.255-1.031 3.01-1.919 3.01h-.011zm.047-.731c.792 0 .96-1.355.96-2.267 0-.899-.168-2.267-.984-2.267-.827 0-.982 1.367-.982 2.267 0 .959.168 2.267.995 2.267h.011zm2.917-3.67c0-.684-.036-1.031-.049-1.499h.805l.047.695h.024c.252-.468.72-.791 1.331-.791.804 0 1.403.587 1.403 2.003v3.897h-.923v-3.742c0-.695-.133-1.379-.805-1.379-.383 0-.755.323-.863.947a2.149 2.149 0 0 0-.047.516v3.658h-.924v-4.305zM114.261 18.41h.693v5.482h1.702v.585h-2.396V18.41zm4.122 6.14c-.783 0-1.413-.712-1.413-2.242 0-1.593.712-2.26 1.458-2.26.783 0 1.405.721 1.405 2.242 0 1.692-.774 2.26-1.44 2.26h-.01zm.037-.55c.594 0 .72-1.017.72-1.701 0-.675-.126-1.701-.738-1.701-.621 0-.738 1.026-.738 1.701 0 .721.126 1.701.747 1.701h.009zm4.31.369c-.153.091-.414.162-.721.162-.954 0-1.594-.765-1.594-2.205 0-1.252.631-2.269 1.721-2.269.233 0 .486.062.611.144l-.135.559a1.13 1.13 0 0 0-.495-.117c-.702 0-1.009.828-1.009 1.684 0 1.017.388 1.629 1.027 1.629.18 0 .342-.036.494-.117l.101.53zm2.889-.882c0 .333 0 .711.045.99h-.621l-.045-.459h-.027c-.188.333-.494.531-.863.531-.586 0-1.036-.486-1.036-1.242 0-1.099.874-1.576 1.854-1.585v-.135c0-.585-.144-.99-.693-.99-.27 0-.513.081-.72.225l-.153-.486c.189-.135.586-.288 1.018-.288.873 0 1.242.576 1.242 1.549v1.89zm-.676-1.269c-.359 0-1.197.072-1.197 1.018 0 .576.289.774.531.774.307 0 .559-.226.64-.657.019-.081.026-.171.026-.252v-.883zm1.657-3.97h.693v6.229h-.693v-6.229zm5.743 5.041c0 .478.026.864.036 1.188h-.604l-.055-.459h-.018a1.115 1.115 0 0 1-.928.531c-.756 0-1.062-.595-1.062-1.675V20.12h.692v2.656c0 .675.109 1.188.586 1.188.405 0 .585-.379.621-.586.027-.117.036-.243.036-.387V20.12h.693v3.169zm.854.469c.152.099.423.225.701.225.388 0 .64-.243.64-.63 0-.333-.117-.567-.558-.855-.568-.369-.873-.747-.873-1.242 0-.712.521-1.207 1.197-1.207.342 0 .594.108.773.226l-.18.522a1 1 0 0 0-.586-.198c-.369 0-.558.27-.558.558s.108.459.54.747c.504.324.9.729.9 1.333 0 .873-.594 1.296-1.314 1.296-.314 0-.666-.099-.855-.252l.173-.523zm3.203-1.396c.01 1.341.531 1.62 1.026 1.62.306 0 .55-.072.72-.162l.117.504c-.242.136-.611.207-.963.207-1.035 0-1.576-.846-1.576-2.188 0-1.413.595-2.296 1.469-2.296.882 0 1.242.937 1.242 1.918 0 .171-.01.288-.019.396H136.4zm1.37-.513c.008-.873-.316-1.261-.648-1.261-.451 0-.685.667-.711 1.261h1.359zm1.402-.604c0-.368-.026-.801-.035-1.125h.621l.035.685h.019c.144-.414.513-.757.919-.757.054 0 .099 0 .144.01v.711c-.045-.009-.09-.009-.144-.009-.441 0-.766.404-.838.909a2.566 2.566 0 0 0-.027.396v2.413h-.693v-3.233zm102.797 125.999c.297-.081.656-.117.999-.117.603 0 1.054.126 1.368.432.297.307.424.712.424 1.188 0 .774-.361 1.278-.973 1.566v.019c.45.135.684.567.811 1.359.144.828.261 1.341.351 1.53h-.702c-.09-.18-.207-.756-.324-1.494-.135-.838-.396-1.144-.99-1.144h-.27v2.638h-.693v-5.977zm.693 2.799h.287c.666 0 1.107-.486 1.107-1.216 0-.693-.287-1.134-1.035-1.144-.135 0-.27.01-.359.036v2.324zm3.42 1.063c.009 1.341.531 1.62 1.025 1.62.307 0 .55-.072.721-.162l.117.504c-.243.136-.612.207-.963.207-1.035 0-1.576-.846-1.576-2.188 0-1.413.594-2.296 1.468-2.296.882 0 1.242.937 1.242 1.918 0 .171-.009.288-.019.396h-2.015zm1.368-.514c.009-.873-.315-1.261-.648-1.261-.45 0-.685.667-.711 1.261h1.359zm1.412-.603c0-.513-.027-.773-.036-1.125h.612l.036.531h.018c.189-.351.514-.604.973-.604.404 0 .756.189.918.657h.018c.117-.216.271-.387.424-.495.18-.107.378-.162.604-.162.594 0 1.053.424 1.053 1.54v2.89h-.693v-2.737c0-.566-.081-1.116-.604-1.116-.287 0-.539.243-.639.657-.027.108-.027.243-.027.388v2.809h-.693v-2.863c0-.477-.08-.99-.594-.99-.288 0-.566.243-.648.712a2.27 2.27 0 0 0-.027.369v2.772h-.692v-3.233zm6.804 3.304c-.783 0-1.413-.712-1.413-2.242 0-1.593.712-2.26 1.458-2.26.783 0 1.405.721 1.405 2.242 0 1.692-.774 2.26-1.44 2.26h-.01zm.037-.549c.594 0 .72-1.017.72-1.701 0-.675-.126-1.701-.738-1.701-.621 0-.738 1.026-.738 1.701 0 .721.126 1.701.747 1.701h.009zm3.032-4.898v1.018h.837v.522h-.837v2.593c0 .576.198.72.45.72.117 0 .207-.009.279-.026l.035.531a1.513 1.513 0 0 1-.513.071c-.279 0-.522-.071-.685-.261-.18-.198-.261-.495-.261-1.099v-2.529h-.531v-.522h.531v-.738l.695-.28zm1.863 3.26c.01 1.341.531 1.62 1.027 1.62.306 0 .549-.072.72-.162l.117.504c-.243.136-.612.207-.964.207-1.035 0-1.575-.846-1.575-2.188 0-1.413.595-2.296 1.468-2.296.883 0 1.242.937 1.242 1.918 0 .171-.009.288-.018.396h-2.017zm1.369-.514c.009-.873-.315-1.261-.648-1.261-.45 0-.684.667-.711 1.261h1.359zm2.816-.369c0-.666-.027-1.053-.037-1.359h.622l.036.549h.018c.234-.459.586-.621.918-.621.766 0 1.261.802 1.261 2.242 0 1.62-.666 2.26-1.341 2.26-.414 0-.648-.252-.766-.495h-.018v2.151h-.693v-4.727zm.694 1.404c0 .126.008.252.035.36.135.621.441.729.631.729.576 0 .765-.792.765-1.666 0-.909-.216-1.665-.765-1.665-.315 0-.604.396-.64.792-.026.108-.026.216-.026.333v1.117zm3.392-.521c.01 1.341.531 1.62 1.026 1.62.306 0 .55-.072.72-.162l.117.504c-.242.136-.611.207-.963.207-1.035 0-1.576-.846-1.576-2.188 0-1.413.595-2.296 1.469-2.296.882 0 1.242.937 1.242 1.918 0 .171-.01.288-.019.396h-2.016zm1.369-.514c.008-.873-.316-1.261-.648-1.261-.451 0-.685.667-.711 1.261h1.359zm1.898.514c.009 1.341.531 1.62 1.026 1.62.307 0 .549-.072.721-.162l.117.504c-.244.136-.613.207-.964.207-1.035 0-1.575-.846-1.575-2.188 0-1.413.594-2.296 1.467-2.296.883 0 1.242.937 1.242 1.918 0 .171-.008.288-.018.396h-2.016zm1.368-.514c.01-.873-.314-1.261-.648-1.261-.449 0-.684.667-.711 1.261h1.359zm1.404-.603c0-.368-.027-.801-.037-1.125h.622l.036.685h.018c.145-.414.514-.757.918-.757.055 0 .1 0 .145.01v.711c-.045-.009-.09-.009-.145-.009-.441 0-.765.404-.837.909a2.456 2.456 0 0 0-.026.396v2.413h-.693v-3.233zm-138.406 80.57h-1.09v-.882h3.143v.882h-1.09v5.186h-.963v-5.186zm3.644-.882v3.997c0 .981.307 1.296.685 1.296.423 0 .702-.306.702-1.296v-3.997h.963v3.835c0 1.566-.621 2.305-1.665 2.305-1.107 0-1.647-.757-1.647-2.26v-3.88h.962zm3.393.09a5.162 5.162 0 0 1 1.152-.117c.631 0 1.152.108 1.504.441.342.324.459.729.459 1.233 0 .702-.342 1.251-.954 1.53v.018c.433.153.647.559.774 1.278.126.738.27 1.387.369 1.594h-1c-.072-.171-.207-.766-.306-1.477-.117-.792-.343-1.044-.828-1.044h-.216v2.521h-.955v-5.977zm.955 2.719h.252c.576 0 .936-.45.936-1.071 0-.595-.242-.999-.863-1.009-.127 0-.244.01-.324.036v2.044zm3.032 3.259v-6.067h.882l1.027 2.593c.215.549.521 1.332.711 1.917h.018a38.726 38.726 0 0 1-.107-2.791v-1.719h.846v6.067h-.883l-1.035-2.584a18.03 18.03 0 0 1-.666-1.927h-.018c.045.702.072 1.558.072 2.818v1.692h-.847zm5.689-.72c.152.099.423.225.701.225.388 0 .64-.243.64-.63 0-.333-.117-.567-.558-.855-.568-.369-.873-.747-.873-1.242 0-.712.521-1.207 1.197-1.207.342 0 .594.108.773.226l-.18.522a1 1 0 0 0-.586-.198c-.369 0-.558.27-.558.558s.108.459.54.747c.504.324.9.729.9 1.333 0 .873-.594 1.296-1.314 1.296-.314 0-.666-.099-.855-.252l.173-.523zm3.203-1.396c.01 1.341.531 1.62 1.026 1.62.306 0 .55-.072.72-.162l.117.504c-.242.136-.611.207-.963.207-1.035 0-1.576-.846-1.576-2.188 0-1.413.595-2.296 1.469-2.296.882 0 1.242.937 1.242 1.918 0 .171-.01.288-.019.396h-2.016zm1.369-.513c.008-.873-.316-1.261-.648-1.261-.451 0-.685.667-.711 1.261h1.359zm1.402-.604c0-.368-.026-.801-.035-1.125h.621l.035.685h.019c.144-.414.513-.757.919-.757.054 0 .099 0 .144.01v.711c-.045-.009-.09-.009-.144-.009-.441 0-.766.404-.838.909a2.566 2.566 0 0 0-.027.396v2.413h-.693v-3.233zm2.827-1.125l.549 2.449c.063.297.136.684.189 1.062h.027c.045-.359.117-.729.18-1.062l.541-2.449h.684l-1.143 4.357h-.613l-1.134-4.357h.72zm3.14 2.242c.01 1.341.531 1.62 1.027 1.62.306 0 .549-.072.72-.162l.117.504c-.243.136-.612.207-.964.207-1.035 0-1.575-.846-1.575-2.188 0-1.413.595-2.296 1.468-2.296.883 0 1.242.937 1.242 1.918 0 .171-.009.288-.018.396h-2.017zm1.369-.513c.009-.873-.315-1.261-.648-1.261-.45 0-.684.667-.711 1.261h1.359zm1.404-.604c0-.368-.026-.801-.036-1.125h.621l.036.685h.019c.144-.414.513-.757.918-.757.054 0 .1 0 .145.01v.711c-.045-.009-.091-.009-.145-.009-.441 0-.766.404-.838.909a2.576 2.576 0 0 0-.026.396v2.413h-.693v-3.233zm-144.8 2.206c.225.135.621.243.937.243.594 0 .918-.342.918-.847 0-.485-.297-.765-.792-1.107-.675-.432-1.144-1.035-1.144-1.692 0-.945.639-1.692 1.774-1.692.387 0 .738.117.9.217l-.171.828a1.392 1.392 0 0 0-.747-.207c-.549 0-.811.369-.811.738 0 .468.243.684.864 1.08.765.504 1.071 1.089 1.071 1.737 0 1.089-.774 1.782-1.863 1.782-.45 0-.909-.126-1.099-.252l.163-.828zm4.222-4.159h-1.089v-.882h3.142v.882h-1.089v5.186h-.963v-5.186zm3.645-.882v3.997c0 .981.306 1.296.685 1.296.423 0 .702-.306.702-1.296v-3.997h.963v3.835c0 1.566-.622 2.305-1.666 2.305-1.107 0-1.648-.757-1.648-2.26v-3.88h.964zm3.393 6.068v-6.067h.882l1.026 2.593c.216.549.522 1.332.711 1.917h.018a39.25 39.25 0 0 1-.108-2.791v-1.719h.846v6.067h-.882l-1.035-2.584a18.028 18.028 0 0 1-.667-1.927h-.018c.045.702.072 1.558.072 2.818v1.692h-.845zm5.687-.72c.153.099.423.225.702.225.387 0 .639-.243.639-.63 0-.333-.117-.567-.558-.855-.567-.369-.873-.747-.873-1.242 0-.712.522-1.207 1.197-1.207.342 0 .594.108.774.226l-.18.522a.994.994 0 0 0-.585-.198c-.369 0-.558.27-.558.558s.108.459.54.747c.504.324.9.729.9 1.333 0 .873-.594 1.296-1.314 1.296-.315 0-.666-.099-.855-.252l.171-.523zm3.204-1.396c.009 1.341.531 1.62 1.026 1.62.306 0 .549-.072.72-.162l.117.504c-.243.136-.612.207-.963.207-1.035 0-1.576-.846-1.576-2.188 0-1.413.594-2.296 1.468-2.296.882 0 1.242.937 1.242 1.918 0 .171-.009.288-.018.396H43.28zm1.369-.513c.009-.873-.315-1.261-.648-1.261-.45 0-.684.667-.711 1.261h1.359zm1.403-.604c0-.368-.027-.801-.036-1.125h.622l.036.685h.018c.144-.414.513-.757.918-.757.054 0 .099 0 .144.01v.711c-.045-.009-.09-.009-.144-.009-.441 0-.765.404-.837.909a2.566 2.566 0 0 0-.027.396v2.413h-.693v-3.233zm2.826-1.125l.549 2.449c.063.297.135.684.189 1.062h.027c.045-.359.117-.729.18-1.062l.54-2.449h.684l-1.143 4.357h-.612l-1.134-4.357h.72zm3.141 2.242c.009 1.341.531 1.62 1.026 1.62.306 0 .549-.072.72-.162l.117.504c-.243.136-.612.207-.963.207-1.035 0-1.576-.846-1.576-2.188 0-1.413.594-2.296 1.468-2.296.882 0 1.242.937 1.242 1.918 0 .171-.009.288-.018.396h-2.016zm1.369-.513c.009-.873-.315-1.261-.648-1.261-.45 0-.684.667-.711 1.261h1.359zm1.403-.604c0-.368-.027-.801-.036-1.125h.622l.036.685h.018c.144-.414.513-.757.918-.757.054 0 .099 0 .144.01v.711c-.045-.009-.09-.009-.144-.009-.441 0-.765.404-.837.909a2.566 2.566 0 0 0-.027.396v2.413h-.693v-3.233z"/><path fill="none" stroke="#c1272d" d="M175.35 234.025h53.283V171.75" stroke-dasharray="1 1"/><path fill="#c1272d" d="M231.634 172.626l-2.991-5.182-2.993 5.182zm-55.409 58.398l-5.181 2.992 5.181 2.991z"/></svg>