<svg xmlns="http://www.w3.org/2000/svg" viewBox="0 0 283.412 141.533"><path fill="#cce3f2" fill-rule="evenodd" d="M29.413 11.087h147.999v107.25H29.413z" clip-rule="evenodd"/><path fill="#f3d4d5" fill-rule="evenodd" d="M152.744 11.087h123.332v106.791H152.744z" clip-rule="evenodd"/><path fill="none" stroke="#b3b3b3" stroke-width=".5" stroke-miterlimit="10" d="M54.079 120.503V11.087m24.667 109.416V11.087" clip-rule="evenodd" stroke-linecap="round" stroke-linejoin="round"/><path d="M77.301 129.283v-.45l.495-.675c.693-.964 1.521-2.062 1.521-3.16 0-.648-.288-1.044-.837-1.044-.423 0-.693.225-.846.323l-.171-.521a1.831 1.831 0 0 1 1.143-.396c.973 0 1.396.721 1.396 1.603 0 1.099-.72 2.16-1.44 3.151l-.396.54v.018h1.954v.612h-2.819z"/><path fill="none" stroke="#b3b3b3" stroke-width=".5" stroke-miterlimit="10" d="M103.412 120.503V11.087" clip-rule="evenodd" stroke-linecap="round" stroke-linejoin="round"/><path d="M102.085 128.536c.18.107.495.243.846.243.603 0 1.008-.441 1.008-1.171 0-.765-.477-1.206-1.179-1.206h-.162v-.522h.135c.414-.009 1.053-.324 1.053-1.044 0-.585-.315-.9-.774-.9-.288 0-.54.145-.729.279l-.153-.522c.216-.171.612-.333 1.053-.333.828 0 1.296.595 1.296 1.351 0 .585-.306 1.099-.873 1.368v.019c.522.144 1.026.611 1.026 1.53 0 .954-.612 1.729-1.674 1.729-.378 0-.792-.108-1.026-.271l.153-.55zm33.58 3.86c.33-.09.729-.13 1.109-.13.67 0 1.169.141 1.519.48.33.34.47.789.47 1.319 0 .859-.399 1.419-1.079 1.729v.021c.5.149.759.629.909 1.509.15.93.29 1.499.38 1.709h-.779c-.1-.2-.23-.84-.36-1.669-.15-.92-.44-1.27-1.1-1.27h-.3v2.938h-.77v-6.636zm.77 3.109h.32c.74 0 1.229-.539 1.229-1.349 0-.78-.32-1.26-1.149-1.27-.15 0-.3.01-.4.04v2.579zm6.229 1.109c0 1.869-.87 2.499-1.609 2.499-.87 0-1.569-.79-1.569-2.488 0-1.77.79-2.509 1.619-2.509.859 0 1.559.81 1.559 2.498zm-2.409 0c0 .8.14 1.89.839 1.89.66 0 .79-1.14.79-1.89 0-.739-.13-1.879-.81-1.879-.689 0-.819 1.14-.819 1.879zm6.168 1.1c0 .54.03.96.04 1.319h-.669l-.05-.51h-.02c-.15.24-.52.59-1.039.59-.85 0-1.18-.66-1.18-1.859v-3.058h.77v2.948c0 .76.12 1.319.65 1.319.45 0 .649-.42.689-.64.03-.13.04-.28.04-.44v-3.188h.77v3.519zm1.082-2.269c0-.569-.03-.859-.04-1.249h.67l.04.579h.02c.21-.39.6-.659 1.109-.659.669 0 1.169.499 1.169 1.669v3.248h-.77v-3.118c0-.569-.11-1.149-.669-1.149-.32 0-.629.27-.729.789-.02.12-.03.271-.03.431v3.048h-.77v-3.589zm6.958-3.328v5.757c0 .33.03.879.04 1.159h-.66l-.05-.609h-.03c-.16.35-.5.689-1.009.689-.82 0-1.41-.89-1.41-2.479 0-1.72.71-2.519 1.459-2.519.35 0 .689.17.879.579h.02v-2.578h.761zm-.759 3.918c0-.101 0-.21-.01-.32-.05-.5-.35-.939-.72-.939-.64 0-.859.89-.859 1.859 0 1.02.26 1.839.819 1.839.24 0 .57-.13.74-.83.02-.09.03-.199.03-.319v-1.29zm3.91-3.049h-1.229v-.689h3.229v.689h-1.229v6.047h-.77v-6.047zm2.141 2.459c0-.41-.03-.89-.04-1.249h.689l.04.759h.02c.16-.459.57-.839 1.02-.839.06 0 .11.01.16.01v.789c-.05-.01-.1-.01-.16-.01-.49 0-.85.45-.93 1.01-.02.13-.03.279-.03.439v2.679h-.77v-3.588zm3.319-2.499c.01.3-.18.5-.47.5-.25 0-.439-.2-.439-.5s.2-.499.45-.499c.28 0 .459.199.459.499zm-.829 6.087v-4.837h.77v4.837h-.77zm1.83-3.328c0-.739-.03-1.169-.04-1.509h.689l.04.619h.02c.26-.52.64-.699 1.02-.699.84 0 1.399.899 1.399 2.488 0 1.789-.739 2.509-1.499 2.509-.45 0-.71-.29-.84-.56h-.02v2.398h-.77v-5.246zm.769 1.549c0 .15 0 .29.03.4.15.689.5.819.71.819.64 0 .839-.88.839-1.859 0-.999-.239-1.839-.85-1.839-.35 0-.659.439-.709.88-.02.12-.02.239-.02.369v1.23zm3.1.979c.17.11.47.25.779.25.439 0 .71-.27.71-.699 0-.37-.13-.62-.62-.95-.629-.409-.969-.819-.969-1.379 0-.779.58-1.339 1.329-1.339.38 0 .669.13.87.25l-.211.579c-.18-.12-.389-.21-.639-.21-.42 0-.631.3-.631.61 0 .329.121.509.6.839.561.36 1 .8 1 1.47 0 .969-.66 1.438-1.449 1.438-.359 0-.75-.109-.959-.279l.19-.58zM9.25 116.004c.11.21.18.54.18.959 0 1.319-1.059 2.259-3.348 2.259-2.658 0-3.508-1.319-3.508-2.379 0-.41.08-.699.17-.839l.649.17c-.07.16-.14.33-.14.68 0 .72.699 1.559 2.758 1.559 2.06 0 2.738-.76 2.738-1.579 0-.29-.069-.55-.149-.709l.65-.121zm-2.299-3.52c1.869 0 2.499.87 2.499 1.609 0 .87-.79 1.569-2.488 1.569-1.77 0-2.509-.79-2.509-1.619 0-.859.81-1.559 2.498-1.559zm0 2.409c.8 0 1.89-.14 1.89-.839 0-.66-1.14-.79-1.89-.79-.739 0-1.879.13-1.879.81 0 .689 1.14.819 1.879.819zm-1.169-3.27c-.569 0-.859.03-1.249.04v-.67l.579-.04v-.02c-.39-.21-.659-.6-.659-1.109 0-.669.499-1.169 1.669-1.169H9.37v.77H6.252c-.569 0-1.149.11-1.149.669 0 .32.27.629.789.729.12.02.271.03.431.03H9.37v.77H5.782zm-1.249-7.009c.34.01.77.04 1.509.04H8.75c1.27 0 1.749.16 2.1.479.329.29.52.75.52 1.29 0 .41-.1.81-.24 1.059l-.6-.18c.101-.19.21-.51.21-.899 0-.61-.38-.99-1.479-.99h-.49v.02c.38.17.59.52.59.93 0 .859-.97 1.419-2.389 1.419-1.779 0-2.519-.81-2.519-1.52 0-.52.34-.759.629-.899v-.02l-.549-.04v-.689zm1.669.8c-.12 0-.25.01-.351.04-.329.09-.739.26-.739.7 0 .56.75.859 1.819.859 1.239 0 1.799-.39 1.799-.859 0-.23-.11-.53-.689-.689-.15-.04-.3-.05-.439-.05h-1.4zm.819-2.371c1.479-.01 1.799-.589 1.799-1.149 0-.33-.08-.609-.189-.799l.569-.12c.15.27.229.68.229 1.06 0 1.159-.949 1.759-2.429 1.759-1.568 0-2.548-.66-2.548-1.629 0-.989 1.039-1.379 2.139-1.379.18 0 .31 0 .43.01v2.247zm-.569-1.519c-.97-.02-1.399.35-1.399.72 0 .5.739.759 1.399.79v-1.51zm2.118-1.441c.11-.17.25-.47.25-.78 0-.439-.27-.709-.699-.709-.37 0-.62.13-.95.62-.409.63-.819.969-1.379.969-.779 0-1.339-.58-1.339-1.329 0-.38.13-.669.25-.87l.579.21c-.12.18-.21.39-.21.64 0 .42.3.63.61.63.329 0 .509-.12.839-.6.36-.56.8-1 1.47-1 .969 0 1.438.66 1.438 1.449 0 .36-.109.75-.279.959l-.58-.189zm-5.316-3.959h1.279v-.93h.589v.93h2.869c.629 0 .799-.23.799-.51 0-.12-.01-.22-.029-.31l.59-.03c.05.14.079.32.079.569 0 .3-.079.57-.289.76-.221.19-.55.29-1.22.29H5.122v.589h-.589v-.589h-1.06l-.219-.769zm.029-2.44c.3-.01.5.18.5.47 0 .25-.2.439-.5.439s-.499-.2-.499-.45c0-.279.199-.459.499-.459zm6.087.83H4.533v-.77H9.37v.77zm-2.419-4.809c1.869 0 2.499.87 2.499 1.609 0 .87-.79 1.569-2.488 1.569-1.77 0-2.509-.79-2.509-1.619 0-.859.81-1.559 2.498-1.559zm0 2.409c.8 0 1.89-.14 1.89-.839 0-.66-1.14-.79-1.89-.79-.739 0-1.879.13-1.879.81 0 .689 1.14.819 1.879.819zm-1.169-3.27c-.569 0-.859.03-1.249.04v-.67l.579-.04v-.02c-.39-.209-.659-.6-.659-1.109 0-.669.499-1.169 1.669-1.169H9.37v.77H6.252c-.569 0-1.149.11-1.149.669 0 .32.27.63.789.729.12.02.271.03.431.03H9.37v.77H5.782zm-1.249-6.01l2.368-.47c.52-.09 1.039-.2 1.539-.26v-.04c-.5-.07-1.06-.19-1.519-.3l-2.389-.56v-.59l2.318-.529c.54-.12 1.05-.23 1.589-.31v-.04c-.51-.06-1.009-.15-1.559-.26l-2.349-.46v-.77l4.837 1.219v.63l-2.349.56c-.47.12-.899.19-1.449.27v.02c.569.08 1.02.17 1.479.28l2.318.58v.65L4.53 83.633v-.799zm-1.25-6.1c.3-.01.5.18.5.47 0 .25-.2.439-.5.439s-.499-.2-.499-.45c0-.279.199-.459.499-.459zm6.087.83H4.533v-.77H9.37v.77zm-3.588-1.84c-.569 0-.859.03-1.249.04v-.67l.579-.04v-.02c-.39-.21-.659-.6-.659-1.109 0-.669.499-1.169 1.669-1.169H9.37v.77H6.252c-.569 0-1.149.11-1.149.669 0 .32.27.629.789.729.12.02.271.03.431.03H9.37v.77H5.782zm-3.328-6.958h5.757c.33 0 .879-.03 1.159-.04v.66l-.609.05v.03c.35.16.689.5.689 1.009 0 .82-.89 1.41-2.479 1.41-1.72 0-2.519-.71-2.519-1.459 0-.35.17-.689.579-.879v-.02H2.454v-.761zm3.918.759c-.101 0-.21 0-.32.01-.5.05-.939.35-.939.72 0 .64.89.859 1.859.859 1.02 0 1.839-.26 1.839-.819 0-.24-.13-.57-.83-.74-.09-.02-.199-.03-.319-.03h-1.29zm.579-4.809c1.869 0 2.499.87 2.499 1.609 0 .87-.79 1.569-2.488 1.569-1.77 0-2.509-.79-2.509-1.619 0-.859.81-1.559 2.498-1.559zm0 2.408c.8 0 1.89-.14 1.89-.839 0-.66-1.14-.79-1.89-.79-.739 0-1.879.13-1.879.81 0 .69 1.14.819 1.879.819zm-2.418-3.589l2.368-.47c.52-.09 1.039-.2 1.539-.26v-.04c-.5-.07-1.06-.19-1.519-.3l-2.389-.56v-.59l2.318-.53c.54-.12 1.05-.229 1.589-.31v-.04c-.51-.06-1.009-.15-1.559-.26l-2.349-.46v-.77l4.837 1.219v.63l-2.349.56c-.47.12-.899.19-1.449.27v.02c.569.08 1.02.17 1.479.28l2.318.58v.65L4.53 64.333v-.798zm4.037-6.71c.11-.17.25-.47.25-.78 0-.439-.27-.709-.699-.709-.37 0-.62.13-.95.62-.409.63-.819.969-1.379.969-.779 0-1.339-.58-1.339-1.329 0-.38.13-.669.25-.87l.579.21c-.12.18-.21.39-.21.64 0 .42.3.63.61.63.329 0 .509-.12.839-.6.36-.56.8-1 1.47-1 .969 0 1.438.66 1.438 1.449 0 .36-.109.75-.279.959l-.58-.189zm-5.287-3.849c.3-.01.5.18.5.47 0 .25-.2.439-.5.439s-.499-.2-.499-.45c0-.28.199-.459.499-.459zm6.087.829H4.533v-.77H9.37v.77zm-.47-1.46l-2.988-1.529c-.25-.13-.5-.28-.72-.39h-.02v1.729h-.64v-2.579h.51l2.948 1.509c.25.13.499.28.72.39h.02v-1.899h.64v2.768H8.9zm-1.879-3.93c1.479-.01 1.799-.589 1.799-1.149 0-.33-.08-.609-.189-.799l.569-.12c.15.27.229.68.229 1.06 0 1.159-.949 1.759-2.429 1.759-1.568 0-2.548-.66-2.548-1.629 0-.989 1.039-1.379 2.139-1.379.18 0 .31 0 .43.01v2.247zm-.569-1.519c-.97-.02-1.399.35-1.399.72 0 .5.739.759 1.399.79v-1.51zm-3.998-4.88c.899.57 2.249 1.04 4.067 1.04 1.789 0 3.139-.47 4.048-1.04v.6c-.76.52-2.099 1.1-4.058 1.1-1.959-.02-3.309-.58-4.058-1.1v-.6zm6.116-.661c.11-.17.25-.47.25-.78 0-.439-.27-.709-.699-.709-.37 0-.62.13-.95.62-.409.63-.819.969-1.379.969-.779 0-1.339-.58-1.339-1.329 0-.38.13-.669.25-.87l.579.21c-.12.18-.21.39-.21.64 0 .42.3.63.61.63.329 0 .509-.12.839-.6.36-.56.8-1 1.47-1 .969 0 1.438.66 1.438 1.449 0 .36-.109.75-.279.959l-.58-.189zm-1.549-3.559c1.479-.01 1.799-.589 1.799-1.149 0-.33-.08-.609-.189-.799l.569-.12c.15.27.229.68.229 1.06 0 1.159-.949 1.759-2.429 1.759-1.568 0-2.548-.66-2.548-1.629 0-.989 1.039-1.379 2.139-1.379.18 0 .31 0 .43.01v2.247zm-.569-1.519c-.97-.02-1.399.35-1.399.72 0 .5.739.759 1.399.79v-1.51zm-1.919-4.529c.34.01.77.04 1.509.04H8.75c1.27 0 1.749.16 2.1.479.329.29.52.75.52 1.29 0 .41-.1.81-.24 1.059l-.6-.18c.101-.19.21-.51.21-.899 0-.61-.38-.99-1.479-.99h-.49v.02c.38.17.59.52.59.93 0 .859-.97 1.419-2.389 1.419-1.779 0-2.519-.81-2.519-1.52 0-.52.34-.759.629-.899v-.02l-.549-.04v-.689zm1.669.799c-.12 0-.25.01-.351.04-.329.09-.739.26-.739.7 0 .56.75.859 1.819.859 1.239 0 1.799-.39 1.799-.859 0-.23-.11-.53-.689-.689-.15-.04-.3-.05-.439-.05h-1.4zm-.42-1.831c-.569 0-.859.03-1.249.04v-.67l.6-.04v-.02c-.391-.21-.68-.58-.68-1.089 0-.45.22-.83.739-1.009v-.02c-.24-.13-.43-.3-.55-.48a1.163 1.163 0 0 1-.189-.669c0-.649.479-1.159 1.709-1.159H9.37v.759H6.342c-.63 0-1.239.09-1.239.68 0 .32.27.6.72.709.13.02.279.03.439.03H9.37v.759H6.202c-.54 0-1.1.1-1.1.67 0 .31.27.629.779.72.13.02.271.03.42.03H9.37v.76H5.782zm1.239-6.739c1.479-.01 1.799-.589 1.799-1.149 0-.33-.08-.609-.189-.799l.569-.12c.15.27.229.68.229 1.06 0 1.159-.949 1.759-2.429 1.759-1.568 0-2.548-.66-2.548-1.629 0-.989 1.039-1.379 2.139-1.379.18 0 .31 0 .43.01v2.247zm-.569-1.519c-.97-.02-1.399.35-1.399.72 0 .5.739.759 1.399.79v-1.51zm-.67-1.571c-.569 0-.859.03-1.249.04v-.67l.579-.04v-.02c-.39-.209-.659-.6-.659-1.109 0-.669.499-1.169 1.669-1.169H9.37v.77H6.252c-.569 0-1.149.11-1.149.669 0 .32.27.63.789.729.12.02.271.03.431.03H9.37v.77H5.782zm-2.528-4.929h1.279v-.93h.589v.93h2.869c.629 0 .799-.23.799-.51 0-.12-.01-.22-.029-.31l.59-.03c.05.14.079.32.079.57 0 .3-.079.569-.289.759-.221.19-.55.29-1.22.29H5.122v.589h-.589v-.589h-1.06l-.219-.769zm5.316-1.481c.11-.17.25-.47.25-.78 0-.439-.27-.709-.699-.709-.37 0-.62.13-.95.62-.409.63-.819.969-1.379.969-.779 0-1.339-.58-1.339-1.329 0-.38.13-.669.25-.87l.579.21c-.12.18-.21.39-.21.64 0 .42.3.63.61.63.329 0 .509-.12.839-.6.36-.56.8-1 1.47-1 .969 0 1.438.66 1.438 1.449 0 .36-.109.75-.279.959l-.58-.189zm1.999-2.73c-.899-.569-2.269-1.039-4.067-1.039s-3.148.47-4.048 1.039v-.6c.739-.52 2.068-1.099 4.048-1.099 1.979.02 3.298.58 4.067 1.099v.6z"/><path fill="none" stroke="#b3b3b3" stroke-width=".5" stroke-miterlimit="10" d="M128.079 120.503V11.087" clip-rule="evenodd" stroke-linecap="round" stroke-linejoin="round"/><path d="M128.453 129.283v-1.611h-1.944v-.469l1.899-3.771h.675v3.673h.639v.567h-.639v1.611h-.63zm0-2.179v-1.656c0-.405.027-.766.054-1.152h-.036c-.198.468-.324.747-.495 1.107l-.81 1.684v.018h1.287z"/><path fill="none" stroke="#b3b3b3" stroke-width=".5" stroke-miterlimit="10" d="M152.745 120.503V11.087" clip-rule="evenodd" stroke-linecap="round" stroke-linejoin="round"/><path d="M154.011 124.044h-1.576l-.243 1.558c.072-.019.135-.019.216-.019.315 0 .801.135 1.116.441.306.306.486.738.486 1.332 0 1.161-.729 1.999-1.774 1.999-.351 0-.756-.1-.99-.252l.153-.559c.18.108.495.234.819.234.594 0 1.107-.459 1.107-1.351 0-.928-.567-1.314-1.323-1.314-.216 0-.351.009-.459.027l.369-2.71h2.098v.614z"/><path fill="none" stroke="#b3b3b3" stroke-width=".5" stroke-miterlimit="10" d="M177.411 120.503V11.087" clip-rule="evenodd" stroke-linecap="round" stroke-linejoin="round"/><path d="M178.552 123.944c-.117.01-.243.027-.415.063-.972.233-1.359 1.206-1.503 2.106h.027c.225-.333.549-.559.99-.559.747 0 1.26.685 1.26 1.801 0 1.107-.504 1.999-1.44 1.999-1.017 0-1.53-1.035-1.53-2.377 0-1.135.297-2.017.756-2.638.352-.495.91-.819 1.414-.928.188-.035.342-.045.441-.054v.587zm-.334 3.467c0-.883-.306-1.324-.783-1.324-.288 0-.585.198-.756.631a.934.934 0 0 0-.054.351c.009 1.197.378 1.747.846 1.747.396-.001.747-.388.747-1.405z"/><path fill="none" stroke="#b3b3b3" stroke-width=".5" stroke-miterlimit="10" d="M202.077 120.503V11.087" clip-rule="evenodd" stroke-linecap="round" stroke-linejoin="round"/><path d="M203.497 123.432v.414l-1.891 5.438h-.676l1.855-5.222v-.018h-2.107v-.612h2.819z"/><path fill="none" stroke="#b3b3b3" stroke-width=".5" stroke-miterlimit="10" d="M226.743 120.503V11.087" clip-rule="evenodd" stroke-linecap="round" stroke-linejoin="round"/><path d="M225.265 127.852c0-.819.486-1.341.963-1.674l-.009-.019c-.486-.333-.766-.846-.766-1.342 0-.899.64-1.458 1.368-1.458.838 0 1.252.702 1.252 1.378 0 .513-.243 1.008-.783 1.377v.027c.54.359.936.891.936 1.593 0 .909-.603 1.621-1.503 1.621-.972 0-1.458-.774-1.458-1.503zm2.277-.073c0-.675-.387-1.053-.838-1.35-.468.288-.756.792-.756 1.305 0 .657.297 1.107.801 1.107.433.001.793-.332.793-1.062zm-1.422-3.007c0 .595.359.892.72 1.126.351-.252.585-.64.585-1.081 0-.566-.234-.944-.657-.944-.387 0-.648.368-.648.899z"/><path fill="none" stroke="#b3b3b3" stroke-width=".5" stroke-miterlimit="10" d="M251.409 120.503V11.087" clip-rule="evenodd" stroke-linecap="round" stroke-linejoin="round"/><path d="M250.282 128.761c.152 0 .279-.018.432-.054a1.67 1.67 0 0 0 .801-.459c.324-.36.586-.892.686-1.666h-.027c-.217.279-.522.495-.945.495-.729 0-1.279-.675-1.279-1.737 0-1.071.576-1.98 1.477-1.98 1 0 1.468 1.054 1.468 2.35 0 1.152-.288 2.062-.774 2.71a2.33 2.33 0 0 1-1.35.892 2.504 2.504 0 0 1-.486.045v-.596zm.351-3.484c0 .864.324 1.278.792 1.278.289 0 .576-.198.721-.522a.953.953 0 0 0 .055-.378c0-1.225-.352-1.756-.811-1.756-.352 0-.757.378-.757 1.378z"/><path fill="none" stroke="#b3b3b3" stroke-width=".5" stroke-miterlimit="10" d="M276.075 120.503V11.087" clip-rule="evenodd" stroke-linecap="round" stroke-linejoin="round"/><path d="M274.306 124.134h-.019l-.972.558-.135-.54 1.232-.72h.576v5.852h-.684v-5.15zm4.995 2.215c0 2.134-.675 3.007-1.521 3.007-.909 0-1.458-1.081-1.458-2.989 0-1.972.584-3.007 1.539-3.007.945-.001 1.44 1.124 1.44 2.989zm-2.287.008c0 1.413.243 2.403.819 2.403.549 0 .774-.999.774-2.403 0-1.368-.226-2.403-.783-2.403s-.81.999-.81 2.403z"/><path fill="none" stroke="#000" stroke-miterlimit="10" d="M26.829 118.337h249.246" clip-rule="evenodd" stroke-linecap="round" stroke-linejoin="round"/><path fill="none" stroke="#b3b3b3" stroke-width=".5" stroke-miterlimit="10" d="M26.829 110.087h249.249" clip-rule="evenodd" stroke-linecap="round" stroke-linejoin="round"/><path d="M18.437 112.087v-.45l.495-.675c.693-.964 1.521-2.062 1.521-3.16 0-.648-.288-1.044-.837-1.044-.423 0-.693.225-.846.323l-.17-.521a1.831 1.831 0 0 1 1.143-.396c.973 0 1.396.721 1.396 1.603 0 1.099-.72 2.16-1.44 3.151l-.396.54v.018h1.954v.612h-2.82zm6.4-2.935c0 2.134-.675 3.007-1.521 3.007-.909 0-1.458-1.081-1.458-2.989 0-1.972.585-3.007 1.54-3.007.944 0 1.439 1.125 1.439 2.989zm-2.287.009c0 1.413.243 2.403.819 2.403.549 0 .774-.999.774-2.403 0-1.368-.225-2.403-.783-2.403s-.81.999-.81 2.403z"/><path fill="none" stroke="#b3b3b3" stroke-width=".5" stroke-miterlimit="10" d="M26.829 101.837h249.249m-249.249-8.25h249.249m-249.249-8.25h249.249m-249.249-8.25h249.249" clip-rule="evenodd" stroke-linecap="round" stroke-linejoin="round"/><path d="M21.021 90.806c-.117.01-.243.027-.415.063-.972.233-1.359 1.206-1.503 2.106h.027c.225-.333.549-.559.99-.559.747 0 1.26.685 1.26 1.801 0 1.107-.504 1.999-1.44 1.999-1.017 0-1.53-1.035-1.53-2.377 0-1.135.297-2.017.756-2.638.352-.495.91-.819 1.414-.928.189-.035.342-.045.441-.054v.587zm-.333 3.467c0-.883-.306-1.324-.783-1.324-.288 0-.585.198-.756.631a.934.934 0 0 0-.054.351c.009 1.197.378 1.747.846 1.747.396-.001.747-.388.747-1.405zm4.149-1.063c0 2.134-.675 3.007-1.521 3.007-.909 0-1.458-1.081-1.458-2.989 0-1.972.585-3.007 1.54-3.007.944 0 1.439 1.125 1.439 2.989zm-2.287.009c0 1.413.243 2.403.819 2.403.549 0 .774-.999.774-2.403 0-1.368-.225-2.403-.783-2.403s-.81.999-.81 2.403z"/><path fill="none" stroke="#b3b3b3" stroke-width=".5" stroke-miterlimit="10" d="M26.829 68.837h249.249m-249.249-8.25h249.249" clip-rule="evenodd" stroke-linecap="round" stroke-linejoin="round"/><path d="M16.376 74.496h-.018l-.972.558-.135-.54 1.233-.72h.576v5.852h-.685v-5.15zm4.996 2.214c0 2.134-.675 3.007-1.521 3.007-.91 0-1.458-1.081-1.458-2.989 0-1.972.585-3.007 1.54-3.007.944 0 1.439 1.125 1.439 2.989zm-2.287.009c0 1.413.243 2.403.819 2.403.549 0 .774-.999.774-2.403 0-1.368-.225-2.403-.783-2.403s-.81.999-.81 2.403zm5.752-.009c0 2.134-.675 3.007-1.521 3.007-.91 0-1.458-1.081-1.458-2.989 0-1.972.585-3.007 1.54-3.007.944 0 1.439 1.125 1.439 2.989zm-2.287.009c0 1.413.243 2.403.819 2.403.549 0 .774-.999.774-2.403 0-1.368-.225-2.403-.783-2.403s-.81.999-.81 2.403z"/><path fill="none" stroke="#b3b3b3" stroke-width=".5" stroke-miterlimit="10" d="M26.829 52.337h249.249m-249.249-8.25h249.249" clip-rule="evenodd" stroke-linecap="round" stroke-linejoin="round"/><path d="M16.376 58.104h-.018l-.972.558-.135-.54 1.233-.72h.576v5.852h-.685v-5.15zm3.879 5.149v-1.611h-1.944v-.469l1.899-3.771h.675v3.673h.639v.567h-.639v1.611h-.63zm0-2.178v-1.656c0-.405.027-.766.054-1.152h-.036c-.198.468-.324.747-.495 1.107l-.81 1.684v.018h1.287zm4.582-.756c0 2.134-.675 3.007-1.521 3.007-.91 0-1.458-1.081-1.458-2.989 0-1.972.585-3.007 1.54-3.007.944 0 1.439 1.125 1.439 2.989zm-2.287.009c0 1.413.243 2.403.819 2.403.549 0 .774-.999.774-2.403 0-1.368-.225-2.403-.783-2.403s-.81.998-.81 2.403z"/><path fill="none" stroke="#b3b3b3" stroke-width=".5" stroke-miterlimit="10" d="M26.829 35.837h249.249m-249.249-8.25h249.249m-249.249-8.25h249.249" clip-rule="evenodd" stroke-linecap="round" stroke-linejoin="round"/><path d="M16.376 41.937h-.018l-.972.558-.135-.54 1.233-.72h.576v5.852h-.685v-5.15zm2.025 3.718c0-.819.486-1.341.963-1.674l-.009-.019c-.486-.333-.766-.846-.766-1.342 0-.899.639-1.458 1.369-1.458.837 0 1.251.702 1.251 1.378 0 .513-.243 1.008-.783 1.377v.027c.54.359.936.891.936 1.593 0 .909-.603 1.621-1.503 1.621-.972.001-1.458-.773-1.458-1.503zm2.278-.072c0-.675-.387-1.053-.837-1.35-.468.288-.756.792-.756 1.305 0 .657.297 1.107.801 1.107.431 0 .792-.333.792-1.062zm-1.423-3.007c0 .595.36.892.72 1.126.351-.252.585-.64.585-1.081 0-.566-.234-.944-.657-.944-.387 0-.648.368-.648.899zm5.581 1.576c0 2.134-.675 3.007-1.521 3.007-.91 0-1.458-1.081-1.458-2.989 0-1.972.585-3.007 1.54-3.007.944 0 1.439 1.125 1.439 2.989zm-2.287.009c0 1.413.243 2.403.819 2.403.549 0 .774-.999.774-2.403 0-1.368-.225-2.403-.783-2.403s-.81.999-.81 2.403z"/><path fill="none" stroke="#b3b3b3" stroke-width=".5" stroke-miterlimit="10" d="M26.829 11.087h249.249" clip-rule="evenodd" stroke-linecap="round" stroke-linejoin="round"/><path fill="none" stroke="#000" stroke-miterlimit="10" d="M54.079 113.503l24.667-3.267 24.666-8.399 24.667-16.5 24.666-33v33l24.667-4.167 24.666-4.025 24.667-8.308 24.664-16.8m-197.33 68.466v-2.166m24.667 2.166v-2.166m24.666 2.166v-2.166m24.667 2.166v-2.166m24.666 2.166v-2.166m24.666 2.166v-2.166m24.666 2.166v-2.166m24.668 2.166v-2.166m24.666 2.166v-2.166m24.666 2.166v-2.166" clip-rule="evenodd" stroke-linecap="round" stroke-linejoin="round"/><path d="M54.039 124.134h-.018l-.972.558-.135-.54 1.233-.72h.576v5.852h-.684v-5.15z"/><path fill="none" stroke="#000" stroke-miterlimit="10" d="M26.829 110.087h2.584m-2.584-8.25h2.584m-2.584-8.25h2.584m-2.584-8.25h2.584m-2.584-8.25h2.584m-2.584-8.25h2.584m-2.584-8.25h2.584m-2.584-8.25h2.584m-2.584-8.25h2.584m-2.584-8.25h2.584m-2.584-8.25h2.584m-2.584-8.25h2.584m-2.584-8.25h2.584m0 109.416V11.087" clip-rule="evenodd" stroke-linecap="round" stroke-linejoin="round"/><circle cx="54.079" cy="113.503" r="2" fill="#0071bc" fill-rule="evenodd" clip-rule="evenodd"/><circle cx="78.746" cy="110.087" r="2" fill="#0071bc" fill-rule="evenodd" clip-rule="evenodd"/><circle cx="103.412" cy="101.837" r="2" fill="#0071bc" fill-rule="evenodd" clip-rule="evenodd"/><circle cx="128.079" cy="85.337" r="2" fill="#0071bc" fill-rule="evenodd" clip-rule="evenodd"/><circle cx="177.412" cy="81.17" r="2" fill="#009245" fill-rule="evenodd" clip-rule="evenodd"/><circle cx="202.078" cy="77.145" r="2" fill="#009245" fill-rule="evenodd" clip-rule="evenodd"/><circle cx="226.745" cy="68.837" r="2" fill="#009245" fill-rule="evenodd" clip-rule="evenodd"/><circle cx="251.409" cy="52.037" r="2" fill="#009245" fill-rule="evenodd" clip-rule="evenodd"/><circle cx="152.745" cy="52.337" r="2" fill="#c1272d" fill-rule="evenodd" clip-rule="evenodd"/><path d="M61.585 26.466c-.22.11-.605.188-1.089.188-1.694 0-2.662-1.387-2.662-3.675 0-2.85 1.507-3.873 2.827-3.873.484 0 .825.1.968.188l-.22 1.001c-.176-.088-.352-.154-.704-.154-.803 0-1.628.737-1.628 2.762 0 1.991.748 2.706 1.639 2.706.275 0 .55-.065.726-.132l.143.989zm2.299.209c-1.133 0-1.914-.946-1.914-2.75 0-1.947.957-2.783 1.958-2.783 1.123 0 1.893.979 1.893 2.75 0 2.167-1.122 2.783-1.925 2.783h-.012zm.044-.903c.583 0 .715-1.056.715-1.87 0-.781-.132-1.859-.737-1.859-.638 0-.759 1.078-.759 1.859 0 .902.154 1.87.77 1.87h.011zm2.76-3.036c0-.605-.022-1.034-.044-1.507h1.023l.055.627h.022c.253-.43.704-.715 1.265-.715.902 0 1.375.692 1.375 1.936v3.51h-1.177v-3.399c0-.539-.11-1.057-.627-1.057-.286 0-.55.221-.66.66-.033.11-.055.286-.055.484v3.312h-1.177v-3.851zm8.382 3.213c0 1.265-.198 1.848-.594 2.255-.363.374-.902.583-1.595.583a3.17 3.17 0 0 1-1.276-.253l.242-.913c.242.121.583.231 1.012.231.704 0 1.045-.451 1.045-1.453v-.418h-.022c-.187.374-.561.583-.99.583-1.089 0-1.628-1.21-1.628-2.618 0-1.87.847-2.805 1.75-2.805.495 0 .803.297.99.659h.022l.066-.571h1.034c-.033.439-.055.957-.055 1.683v3.037zm-1.166-2.816c0-.144-.022-.286-.055-.396-.077-.286-.242-.605-.594-.605-.561 0-.825.76-.825 1.771 0 1.166.352 1.728.803 1.728.22 0 .473-.11.605-.562.055-.143.066-.297.066-.451v-1.485zm3.179 1.089c.011 1.199.561 1.529 1.188 1.529.396 0 .726-.088.957-.188l.176.836c-.341.154-.858.254-1.342.254-1.386 0-2.124-1.002-2.124-2.663 0-1.771.847-2.849 1.992-2.849 1.122 0 1.694 1.022 1.694 2.453 0 .308-.011.483-.033.627h-2.508zm1.452-.836c.011-.858-.275-1.364-.693-1.364-.506 0-.737.737-.759 1.364h1.452zm1.848 2.09c.198.132.561.286.924.286.418 0 .671-.22.671-.616 0-.33-.154-.55-.649-.869-.803-.473-1.089-.99-1.089-1.529 0-.924.671-1.605 1.639-1.605.429 0 .77.12 1.023.264l-.231.869a1.361 1.361 0 0 0-.737-.231c-.407 0-.605.265-.605.562 0 .286.132.451.638.781.715.429 1.1.957 1.1 1.628 0 1.089-.759 1.64-1.771 1.64-.418 0-.913-.121-1.144-.309l.231-.871zm4.885-5.578v1.331h1.034v.847h-1.034v2.783c0 .66.253.825.55.825.132 0 .242-.011.363-.033l.022.913c-.176.056-.44.089-.77.089-.374 0-.715-.1-.946-.33-.264-.265-.396-.649-.396-1.452v-2.795h-.638v-.847h.638v-.925l1.177-.406zm2.298.616c-.341 0-.616-.274-.616-.682 0-.418.286-.683.627-.683.374 0 .638.265.638.683 0 .407-.264.682-.638.682h-.011zm-.561 6.073V21.23h1.177v5.357h-1.177zm3.96.088c-1.133 0-1.914-.946-1.914-2.75 0-1.947.957-2.783 1.958-2.783 1.123 0 1.893.979 1.893 2.75 0 2.167-1.122 2.783-1.925 2.783h-.012zm.044-.903c.583 0 .715-1.056.715-1.87 0-.781-.132-1.859-.737-1.859-.638 0-.759 1.078-.759 1.859 0 .902.154 1.87.77 1.87h.011zm2.761-3.036c0-.605-.022-1.034-.044-1.507h1.023l.055.627h.022c.253-.43.704-.715 1.265-.715.902 0 1.375.692 1.375 1.936v3.51h-1.177v-3.399c0-.539-.11-1.057-.627-1.057-.286 0-.55.221-.66.66-.033.11-.055.286-.055.484v3.312H93.77v-3.851zm10.032 3.73c-.22.11-.605.188-1.089.188-1.694 0-2.662-1.387-2.662-3.675 0-2.85 1.507-3.873 2.827-3.873.484 0 .825.1.968.188l-.22 1.001c-.176-.088-.352-.154-.704-.154-.803 0-1.628.737-1.628 2.762 0 1.991.748 2.706 1.639 2.706.275 0 .55-.065.726-.132l.143.989zm2.299.209c-1.133 0-1.914-.946-1.914-2.75 0-1.947.957-2.783 1.958-2.783 1.123 0 1.893.979 1.893 2.75 0 2.167-1.122 2.783-1.925 2.783h-.012zm.044-.903c.583 0 .715-1.056.715-1.87 0-.781-.132-1.859-.737-1.859-.638 0-.759 1.078-.759 1.859 0 .902.154 1.87.77 1.87h.011zm2.76-3.036c0-.605-.022-1.034-.044-1.507h1.023l.055.627h.022c.253-.43.704-.715 1.265-.715.902 0 1.375.692 1.375 1.936v3.51h-1.177v-3.399c0-.539-.11-1.057-.627-1.057-.286 0-.55.221-.66.66-.033.11-.055.286-.055.484v3.312h-1.177v-3.851zm6.138-2.838v1.331h1.034v.847h-1.034v2.783c0 .66.253.825.55.825.132 0 .242-.011.363-.033l.022.913c-.176.056-.44.089-.77.089-.374 0-.715-.1-.946-.33-.264-.265-.396-.649-.396-1.452v-2.795h-.638v-.847h.638v-.925l1.177-.406zm1.738 2.838c0-.495-.022-1.056-.044-1.507h1.023l.066.803h.033c.209-.539.649-.891 1.089-.891.11 0 .176.011.253.021v1.166c-.077-.011-.154-.011-.253-.011-.407 0-.814.341-.946.924a2.987 2.987 0 0 0-.044.506v2.839h-1.177v-3.85zm4.609 3.939c-1.133 0-1.914-.946-1.914-2.75 0-1.947.957-2.783 1.958-2.783 1.122 0 1.892.979 1.892 2.75 0 2.167-1.122 2.783-1.925 2.783h-.011zm.045-.903c.583 0 .715-1.056.715-1.87 0-.781-.132-1.859-.737-1.859-.638 0-.759 1.078-.759 1.859 0 .902.154 1.87.77 1.87h.011zm2.76-6.798h1.177v7.613h-1.177v-7.613zm50.676 7.492c-.22.11-.604.188-1.089.188-1.694 0-2.662-1.387-2.662-3.675 0-2.85 1.507-3.873 2.826-3.873.484 0 .826.1.969.188l-.22 1.001c-.177-.088-.353-.154-.704-.154-.803 0-1.629.737-1.629 2.762 0 1.991.748 2.706 1.64 2.706.274 0 .55-.065.726-.132l.143.989zm2.299.209c-1.133 0-1.914-.946-1.914-2.75 0-1.947.957-2.783 1.958-2.783 1.123 0 1.893.979 1.893 2.75 0 2.167-1.122 2.783-1.926 2.783h-.011zm.044-.903c.584 0 .715-1.056.715-1.87 0-.781-.131-1.859-.736-1.859-.639 0-.76 1.078-.76 1.859 0 .902.154 1.87.771 1.87h.01zm2.761-3.036c0-.605-.022-1.034-.044-1.507h1.023l.055.627h.021c.254-.43.705-.715 1.266-.715.902 0 1.375.692 1.375 1.936v3.51h-1.177v-3.399c0-.539-.11-1.057-.628-1.057-.285 0-.549.221-.659.66-.033.11-.056.286-.056.484v3.312h-1.177v-3.851zm8.381 3.213c0 1.265-.197 1.848-.594 2.255-.363.374-.902.583-1.596.583-.484 0-.936-.099-1.275-.253l.242-.913c.241.121.582.231 1.012.231.704 0 1.045-.451 1.045-1.453v-.418h-.021c-.188.374-.562.583-.99.583-1.09 0-1.629-1.21-1.629-2.618 0-1.87.848-2.805 1.75-2.805.494 0 .803.297.99.659h.021l.066-.571h1.033c-.033.439-.055.957-.055 1.683v3.037zm-1.166-2.816c0-.144-.021-.286-.055-.396-.077-.286-.242-.605-.594-.605-.562 0-.826.76-.826 1.771 0 1.166.353 1.728.804 1.728.22 0 .473-.11.604-.562.055-.143.066-.297.066-.451v-1.485zm3.179 1.089c.011 1.199.562 1.529 1.188 1.529.396 0 .726-.088.957-.188l.176.836c-.342.154-.858.254-1.342.254-1.387 0-2.124-1.002-2.124-2.663 0-1.771.847-2.849 1.991-2.849 1.123 0 1.694 1.022 1.694 2.453 0 .308-.011.483-.032.627h-2.508zm1.452-.836c.011-.858-.275-1.364-.693-1.364-.506 0-.736.737-.759 1.364h1.452zm1.848 2.09c.197.132.561.286.924.286.418 0 .672-.22.672-.616 0-.33-.154-.55-.65-.869-.803-.473-1.088-.99-1.088-1.529 0-.924.67-1.605 1.639-1.605.43 0 .77.12 1.023.264l-.231.869a1.361 1.361 0 0 0-.737-.231c-.406 0-.605.265-.605.562 0 .286.133.451.639.781.715.429 1.1.957 1.1 1.628 0 1.089-.758 1.64-1.771 1.64-.418 0-.913-.121-1.144-.309l.229-.871zm4.885-5.578v1.331h1.034v.847h-1.034v2.783c0 .66.253.825.551.825.131 0 .241-.011.362-.033l.022.913c-.176.056-.44.089-.771.089-.374 0-.716-.1-.946-.33-.264-.265-.396-.649-.396-1.452v-2.795h-.638v-.847h.638v-.925l1.178-.406zm2.299.616c-.342 0-.617-.274-.617-.682 0-.418.287-.683.628-.683.374 0 .638.265.638.683 0 .407-.264.682-.638.682h-.011zm-.562 6.073V21.23h1.177v5.357h-1.177zm3.96.088c-1.133 0-1.914-.946-1.914-2.75 0-1.947.957-2.783 1.958-2.783 1.122 0 1.893.979 1.893 2.75 0 2.167-1.122 2.783-1.925 2.783h-.012zm.044-.903c.583 0 .716-1.056.716-1.87 0-.781-.133-1.859-.738-1.859-.637 0-.758 1.078-.758 1.859 0 .902.153 1.87.77 1.87h.01zm2.761-3.036c0-.605-.021-1.034-.044-1.507h1.022l.056.627h.022c.252-.43.703-.715 1.265-.715.902 0 1.376.692 1.376 1.936v3.51h-1.178v-3.399c0-.539-.11-1.057-.627-1.057-.286 0-.551.221-.66.66-.033.11-.055.286-.055.484v3.312h-1.178v-3.851zm7.667 1.926l-.396 1.925h-1.145l1.65-7.415h1.375l1.529 7.415h-1.145l-.396-1.925h-1.472zm1.352-.925l-.308-1.705c-.099-.484-.198-1.166-.274-1.684h-.033a52.073 52.073 0 0 1-.275 1.694l-.33 1.694h1.22zm3.004-2.508l.527 2.673c.077.418.154.902.231 1.408h.022c.065-.495.143-.946.22-1.408l.517-2.673h1.166l-1.419 5.357h-1.067l-1.441-5.357h1.244zm4.872 5.446c-1.133 0-1.914-.946-1.914-2.75 0-1.947.957-2.783 1.958-2.783 1.123 0 1.893.979 1.893 2.75 0 2.167-1.122 2.783-1.926 2.783h-.011zm.044-.903c.584 0 .715-1.056.715-1.87 0-.781-.131-1.859-.736-1.859-.639 0-.76 1.078-.76 1.859 0 .902.154 1.87.771 1.87h.01zm3.322-5.258c-.342 0-.617-.274-.617-.682 0-.418.287-.683.628-.683.374 0 .638.265.638.683 0 .407-.264.682-.638.682h-.011zm-.561 6.073V21.23h1.177v5.357h-1.177zm5.852-7.613v6.161c0 .44.021 1.045.044 1.452h-1.001l-.077-.638h-.033c-.176.385-.594.726-1.11.726-1.046 0-1.629-1.133-1.629-2.75 0-1.882.814-2.783 1.684-2.783.439 0 .759.209.935.583h.022v-2.751h1.165zm-1.166 4.301c0-.099 0-.22-.022-.33-.044-.429-.286-.814-.638-.814-.594 0-.803.848-.803 1.805 0 1.078.285 1.771.78 1.771.22 0 .495-.11.638-.671.033-.089.045-.21.045-.342v-1.419zm5.511 2.091c0 .418.011.868.065 1.221h-1.056l-.065-.539h-.022c-.275.407-.671.627-1.134.627-.77 0-1.353-.638-1.353-1.584 0-1.375 1.166-1.958 2.376-1.97v-.143c0-.562-.22-.946-.803-.946-.385 0-.704.11-1.002.297l-.219-.803c.264-.165.824-.385 1.474-.385 1.386 0 1.738.945 1.738 2.09v2.135zm-1.155-1.464c-.462.011-1.287.132-1.287 1.067 0 .605.318.825.583.825.297 0 .572-.198.671-.616.022-.077.033-.176.033-.275v-1.001zm2.244-1.166c0-.605-.022-1.034-.045-1.507h1.023l.055.627h.022c.253-.43.704-.715 1.265-.715.902 0 1.376.692 1.376 1.936v3.51h-1.177v-3.399c0-.539-.111-1.057-.628-1.057-.286 0-.55.221-.659.66-.033.11-.056.286-.056.484v3.312h-1.177v-3.851zm7.59 3.741c-.165.088-.506.177-.902.177-1.275 0-2.123-.946-2.123-2.707 0-1.606.891-2.794 2.311-2.794.318 0 .627.077.77.154l-.176.935c-.121-.044-.309-.121-.572-.121-.759 0-1.154.814-1.154 1.805 0 1.1.439 1.76 1.154 1.76.221 0 .407-.044.572-.121l.12.912zm1.529-2.255c.01 1.199.561 1.529 1.188 1.529.396 0 .727-.088.957-.188l.176.836c-.341.154-.857.254-1.342.254-1.387 0-2.123-1.002-2.123-2.663 0-1.771.847-2.849 1.991-2.849 1.122 0 1.694 1.022 1.694 2.453 0 .308-.012.483-.033.627h-2.508zm1.451-.836c.012-.858-.274-1.364-.693-1.364-.506 0-.736.737-.758 1.364h1.451z"/><path fill="none" stroke="#000" d="M177.837 99.352l-17.29-9.666" stroke-linecap="round" stroke-linejoin="round"/><path d="M162.776 87.494l-5.983.082 3.063 5.14z"/><path fill="none" stroke="#000" d="M99.486 73.503h17.851" stroke-linecap="round" stroke-linejoin="round"/><path d="M116.462 76.504l5.181-2.991-5.181-2.992zm67.947 21.723c-.045-.802-.091-1.693-.063-2.377h-.036a34.798 34.798 0 0 1-.486 2.106l-.747 2.845h-.44l-.712-2.728a27.18 27.18 0 0 1-.495-2.224h-.026c0 .711-.036 1.558-.072 2.422l-.117 2.565h-.621l.36-6.067h.747l.711 2.772c.207.801.36 1.396.486 2.089h.027c.116-.693.252-1.27.449-2.089l.685-2.772h.774l.351 6.067h-.647l-.128-2.609zm4.275 1.421c0 .486.027.864.036 1.188h-.604l-.045-.459h-.018c-.136.216-.469.531-.937.531-.766 0-1.062-.595-1.062-1.675v-2.755h.693v2.656c0 .684.108 1.188.585 1.188.405 0 .585-.379.621-.576.027-.117.036-.253.036-.396v-2.872h.693v3.17zm.971-5.041h.692v6.229h-.692v-6.229zm2.565.72v1.152h.837v.531h-.837v2.584c0 .567.207.72.459.72.108 0 .198-.009.279-.026l.027.531a1.524 1.524 0 0 1-.514.071c-.27 0-.513-.071-.684-.261-.172-.198-.262-.495-.262-1.099v-2.521h-.531v-.531h.531v-.954l.695-.197zm2.196.027c.009.27-.162.45-.424.45-.225 0-.396-.181-.396-.45 0-.271.18-.45.405-.45.253 0 .415.18.415.45zm-.747 5.483V96.48h.692v4.357h-.692zm1.646-2.998c0-.666-.027-1.053-.036-1.359h.621l.036.559h.018c.234-.469.576-.631.919-.631.756 0 1.26.811 1.26 2.242 0 1.611-.666 2.26-1.35 2.26-.405 0-.64-.262-.757-.505h-.018v2.161h-.693v-4.727zm.694 1.395c0 .135 0 .261.026.36.136.621.45.738.64.738.576 0 .756-.792.756-1.675 0-.9-.216-1.656-.765-1.656-.315 0-.595.396-.64.792-.018.108-.018.216-.018.333v1.108zm2.906-4.627h.693v6.229h-.693v-6.229zm2.466.747c.009.27-.162.45-.423.45-.226 0-.396-.181-.396-.45 0-.271.181-.45.405-.45.252 0 .414.18.414.45zm-.747 5.483V96.48h.693v4.357h-.693zm3.78-.108c-.153.091-.414.162-.72.162-.954 0-1.594-.765-1.594-2.205 0-1.252.63-2.269 1.72-2.269.233 0 .486.062.612.135l-.136.567a1.13 1.13 0 0 0-.495-.117c-.693 0-1.008.828-1.008 1.684 0 1.017.387 1.629 1.026 1.629.188 0 .342-.045.504-.117l.091.531zm2.34.108l-.045-.459h-.027c-.188.333-.495.531-.864.531-.585 0-1.035-.495-1.035-1.242 0-1.09.873-1.576 1.854-1.585v-.135c0-.585-.144-.99-.693-.99-.27 0-.513.09-.72.225l-.153-.486c.18-.135.585-.288 1.018-.288.873 0 1.251.576 1.251 1.558v1.882c0 .333 0 .711.045.99h-.631zm-.1-2.251c-.359 0-1.197.063-1.197 1.009 0 .567.288.774.531.774.307 0 .567-.226.648-.657.018-.081.018-.171.018-.243v-.883zm2.421-3.259v1.152h.837v.531h-.837v2.584c0 .567.207.72.459.72.108 0 .198-.009.279-.026l.027.531a1.524 1.524 0 0 1-.514.071c-.27 0-.513-.071-.684-.261-.172-.198-.262-.495-.262-1.099v-2.521h-.531v-.531h.531v-.954l.695-.197zm2.196.027c.009.27-.162.45-.424.45-.225 0-.396-.181-.396-.45 0-.271.18-.45.405-.45.253 0 .415.18.415.45zm-.747 5.483V96.48h.692v4.357h-.692zm2.007-4.358l.549 2.449c.062.297.135.684.189 1.062h.026c.045-.359.117-.729.181-1.062l.54-2.449h.684l-1.134 4.357h-.621l-1.135-4.357h.721zm3.141 2.243c.01 1.332.531 1.62 1.036 1.62.297 0 .549-.072.72-.171l.108.513c-.243.136-.612.207-.955.207-1.044 0-1.584-.854-1.584-2.188 0-1.413.594-2.296 1.468-2.296.891 0 1.242.937 1.242 1.927 0 .162 0 .279-.009.388h-2.026zm1.369-.514c.018-.873-.315-1.261-.648-1.261-.45 0-.685.667-.711 1.261h1.359zm2.879-3.349c.271-.081.586-.117.937-.117.64 0 1.09.162 1.423.459.468.405.819 1.188.819 2.458 0 1.386-.343 2.143-.729 2.557-.396.45-.973.657-1.675.657-.279 0-.567-.019-.774-.063v-5.951zm.693 5.411c.1.019.198.019.262.019.765 0 1.503-.55 1.503-2.611 0-1.53-.468-2.367-1.44-2.367-.108 0-.234.009-.324.036v4.923zm3.816-1.548c.01 1.332.531 1.62 1.036 1.62.297 0 .549-.072.72-.171l.108.513c-.243.136-.612.207-.955.207-1.044 0-1.584-.854-1.584-2.188 0-1.413.594-2.296 1.468-2.296.891 0 1.242.937 1.242 1.927 0 .162 0 .279-.009.388h-2.026zm1.369-.514c.018-.873-.315-1.261-.648-1.261-.45 0-.685.667-.711 1.261h1.359zm3.537 2.521c-.153.091-.414.162-.72.162-.954 0-1.594-.765-1.594-2.205 0-1.252.63-2.269 1.72-2.269.233 0 .486.062.612.135l-.136.567a1.13 1.13 0 0 0-.495-.117c-.693 0-1.008.828-1.008 1.684 0 1.017.387 1.629 1.026 1.629.188 0 .342-.045.504-.117l.091.531zm.584-3.125c0-.368-.026-.801-.036-1.125h.622l.035.685h.019c.144-.414.513-.757.918-.757.055 0 .1.01.145.01v.711c-.045-.009-.09-.009-.145-.009-.441 0-.765.404-.837.909a2.524 2.524 0 0 0-.027.396v2.413h-.693v-3.233zm2.602 1.118c.009 1.332.531 1.62 1.035 1.62.297 0 .549-.072.721-.171l.107.513c-.243.136-.612.207-.954.207-1.044 0-1.585-.854-1.585-2.188 0-1.413.595-2.296 1.468-2.296.892 0 1.242.937 1.242 1.927 0 .162 0 .279-.009.388h-2.025zm1.368-.514c.019-.873-.315-1.261-.648-1.261-.45 0-.684.667-.711 1.261h1.359zm3.132 2.629l-.045-.459h-.026c-.189.333-.495.531-.864.531-.586 0-1.036-.495-1.036-1.242 0-1.09.874-1.576 1.855-1.585v-.135c0-.585-.145-.99-.693-.99-.271 0-.514.09-.721.225l-.153-.486c.181-.135.586-.288 1.018-.288.873 0 1.252.576 1.252 1.558v1.882c0 .333 0 .711.045.99h-.632zm-.099-2.251c-.36 0-1.197.063-1.197 1.009 0 .567.288.774.531.774.306 0 .567-.226.648-.657.018-.081.018-.171.018-.243v-.883zm1.538 1.531c.153.099.424.225.702.225.396 0 .64-.243.64-.63 0-.333-.117-.559-.559-.855-.567-.369-.873-.738-.873-1.242 0-.702.522-1.207 1.197-1.207.342 0 .604.117.783.226l-.188.522a1.026 1.026 0 0 0-.576-.189.533.533 0 0 0-.567.549c0 .298.107.459.54.757.504.324.9.72.9 1.323 0 .873-.595 1.296-1.306 1.296-.324 0-.675-.099-.864-.252l.171-.523zm3.204-1.395c.01 1.332.531 1.62 1.036 1.62.297 0 .549-.072.72-.171l.108.513c-.243.136-.612.207-.955.207-1.044 0-1.584-.854-1.584-2.188 0-1.413.594-2.296 1.468-2.296.891 0 1.242.937 1.242 1.927 0 .162 0 .279-.009.388h-2.026zm1.369-.514c.018-.873-.315-1.261-.648-1.261-.45 0-.685.667-.711 1.261h1.359zM46.189 73.264h-1.521v2.277h1.729v.604h-2.422v-6.067h2.314v.603h-1.621v1.999h1.521v.584zm1.304-1.476l.405.937c.108.252.189.504.288.765h.018c.099-.278.198-.53.288-.765l.396-.937h.712l-1.035 2.151 1.026 2.206h-.756l-.415-.981c-.099-.234-.18-.459-.288-.747h-.018c-.09.261-.189.495-.288.747l-.405.981h-.702l1.035-2.188-1.008-2.17h.747zm2.664 1.359c0-.666-.027-1.053-.036-1.359h.622l.036.559h.018c.234-.469.576-.631.918-.631.756 0 1.26.811 1.26 2.242 0 1.611-.666 2.26-1.351 2.26-.405 0-.639-.262-.756-.505h-.018v2.161h-.693v-4.727zm.694 1.395c0 .135 0 .261.027.36.135.621.45.738.639.738.576 0 .756-.792.756-1.675 0-.9-.216-1.656-.765-1.656-.315 0-.594.396-.639.792-.018.108-.018.216-.018.333v1.108zm5.58-.576c0 1.684-.783 2.251-1.45 2.251-.783 0-1.414-.712-1.414-2.242 0-1.593.711-2.26 1.458-2.26.776 0 1.406.73 1.406 2.251zm-2.17 0c0 .721.126 1.701.756 1.701.594 0 .711-1.026.711-1.701 0-.666-.117-1.692-.729-1.692-.621 0-.738 1.026-.738 1.692zm2.943-1.053c0-.513-.027-.773-.036-1.125h.603l.036.522h.018c.189-.352.54-.595.999-.595.604 0 1.054.45 1.054 1.504v2.926h-.693v-2.809c0-.514-.099-1.035-.603-1.035-.288 0-.567.243-.657.711a2.445 2.445 0 0 0-.027.387v2.746h-.693v-3.232zm4.131 1.117c.009 1.332.531 1.62 1.036 1.62.297 0 .549-.072.72-.171l.108.513c-.243.136-.612.207-.955.207-1.044 0-1.584-.854-1.584-2.188 0-1.413.594-2.296 1.468-2.296.891 0 1.242.937 1.242 1.927 0 .162 0 .279-.009.388h-2.026zm1.369-.514c.018-.873-.315-1.261-.648-1.261-.45 0-.684.667-.711 1.261h1.359zm1.412-.603c0-.513-.027-.773-.036-1.125h.603l.036.522h.018c.189-.352.54-.595.999-.595.604 0 1.054.45 1.054 1.504v2.926h-.693v-2.809c0-.514-.099-1.035-.603-1.035-.288 0-.567.243-.657.711a2.445 2.445 0 0 0-.027.387v2.746h-.693v-3.232zm4.437-2.278v1.152h.837v.531h-.837v2.584c0 .567.207.72.459.72.108 0 .198-.009.279-.026l.027.531a1.522 1.522 0 0 1-.513.071c-.27 0-.513-.071-.684-.261-.171-.198-.261-.495-.261-1.099v-2.521h-.531v-.531h.531v-.954l.693-.197zm2.196.028c.009.27-.162.45-.423.45-.225 0-.396-.181-.396-.45 0-.271.18-.45.405-.45.252-.001.414.179.414.45zm-.747 5.482v-4.357h.693v4.357h-.693zm3.375 0l-.045-.459h-.027c-.189.333-.495.531-.864.531-.585 0-1.036-.495-1.036-1.242 0-1.09.874-1.576 1.855-1.585v-.135c0-.585-.145-.99-.693-.99-.27 0-.513.09-.72.225l-.153-.486c.18-.135.585-.288 1.018-.288.873 0 1.251.576 1.251 1.558v1.882c0 .333 0 .711.045.99h-.631zm-.099-2.251c-.36 0-1.197.063-1.197 1.009 0 .567.288.774.531.774.306 0 .567-.226.648-.657.018-.081.018-.171.018-.243v-.883zm1.656-3.978h.693v6.229h-.693v-6.229zm6.174 6.076a3.115 3.115 0 0 1-1.08.207c-.531 0-1.026-.144-1.432-.594-.441-.469-.738-1.306-.729-2.413.009-2.358 1.215-3.169 2.287-3.169.378 0 .675.072.864.171l-.153.595c-.162-.081-.378-.145-.702-.145-.756 0-1.576.604-1.576 2.485 0 1.872.711 2.476 1.44 2.476.234 0 .369-.045.423-.072v-1.98h-.784v-.576h1.44v3.015zm.899-3.079c0-.368-.027-.801-.036-1.125h.622l.036.685h.018c.144-.414.513-.757.918-.757.054 0 .099.01.144.01v.711c-.045-.009-.09-.009-.144-.009-.441 0-.765.404-.837.909a2.65 2.65 0 0 0-.027.396v2.413h-.693v-3.233zm4.789 1.053c0 1.684-.783 2.251-1.45 2.251-.783 0-1.414-.712-1.414-2.242 0-1.593.711-2.26 1.458-2.26.776 0 1.406.73 1.406 2.251zm-2.17 0c0 .721.126 1.701.756 1.701.594 0 .711-1.026.711-1.701 0-.666-.117-1.692-.729-1.692-.62 0-.738 1.026-.738 1.692zm3.231-2.178l.423 2.134c.081.468.18.937.234 1.387h.036c.063-.45.171-.955.271-1.369l.504-2.151h.531l.477 2.089c.108.486.207.945.279 1.432h.036c.054-.459.135-.909.234-1.404l.414-2.116h.693l-1.099 4.357h-.567l-.503-2.117a12.152 12.152 0 0 1-.243-1.306h-.018c-.072.513-.153.918-.252 1.332l-.522 2.089H88.2l-1.062-4.357h.719zm5.589-1.153v1.152h.837v.531h-.837v2.584c0 .567.207.72.459.72.108 0 .198-.009.279-.026l.027.531a1.522 1.522 0 0 1-.513.071c-.27 0-.513-.071-.684-.261-.171-.198-.261-.495-.261-1.099v-2.521h-.531v-.531h.531v-.954l.693-.197zm1.449-.719h.693v2.34h.018a1.23 1.23 0 0 1 .36-.378c.162-.099.333-.162.585-.162.549 0 1.018.441 1.018 1.54v2.89h-.693v-2.809c0-.531-.117-1.035-.585-1.035-.324 0-.567.233-.675.692-.018.1-.027.226-.027.334v2.817h-.693v-6.229zm40.897-28.807a4.028 4.028 0 0 1 1.008-.117c.558 0 1.026.135 1.341.45.297.288.45.729.45 1.251 0 .559-.135.937-.369 1.242-.333.45-.891.676-1.431.676-.117 0-.207 0-.306-.009v2.484h-.693v-5.977zm.693 2.908c.081.019.153.027.27.027.684 0 1.144-.45 1.144-1.306 0-.621-.261-1.179-1.026-1.179-.162 0-.297.018-.387.045v2.413zm4.338 3.07l-.045-.459h-.027c-.189.333-.495.531-.864.531-.585 0-1.036-.495-1.036-1.242 0-1.09.874-1.576 1.855-1.585v-.135c0-.585-.145-.99-.693-.99-.27 0-.513.09-.72.225l-.153-.486c.18-.135.585-.288 1.018-.288.873 0 1.251.576 1.251 1.558v1.882c0 .333 0 .711.045.99h-.631zm-.099-2.251c-.36 0-1.197.063-1.197 1.009 0 .567.288.774.531.774.306 0 .567-.226.648-.657.018-.081.018-.171.018-.243v-.883zm3.78 2.143c-.153.091-.414.162-.72.162-.955 0-1.594-.765-1.594-2.205 0-1.252.63-2.269 1.72-2.269.234 0 .486.062.612.135l-.135.567a1.13 1.13 0 0 0-.495-.117c-.693 0-1.008.828-1.008 1.684 0 1.017.387 1.629 1.026 1.629.189 0 .342-.045.504-.117l.09.531zm1.278-2.224h.018c.081-.171.153-.342.234-.485l.864-1.54h.747l-1.152 1.837 1.251 2.521h-.774l-.945-2.053-.243.405v1.647h-.693v-6.229h.693v3.897zm2.853.217c.009 1.332.531 1.62 1.036 1.62.297 0 .549-.072.72-.171l.108.513c-.243.136-.612.207-.955.207-1.044 0-1.584-.854-1.584-2.188 0-1.413.594-2.296 1.468-2.296.891 0 1.242.937 1.242 1.927 0 .162 0 .279-.009.388h-2.026zm1.368-.514c.018-.873-.315-1.261-.648-1.261-.45 0-.684.667-.711 1.261h1.359zm2.259-2.881v1.152h.837v.531h-.837v2.584c0 .567.207.72.459.72.108 0 .198-.009.279-.026l.027.531a1.522 1.522 0 0 1-.513.071c-.27 0-.513-.071-.684-.261-.171-.198-.261-.495-.261-1.099v-2.521h-.531v-.531h.531v-.954l.693-.197zm2.916-.557h.693v5.482h1.71v.585h-2.404V41.02zm5.572 3.888c0 1.684-.783 2.251-1.45 2.251-.783 0-1.414-.712-1.414-2.242 0-1.593.711-2.26 1.458-2.26.775 0 1.406.73 1.406 2.251zm-2.17 0c0 .721.126 1.701.756 1.701.594 0 .711-1.026.711-1.701 0-.666-.117-1.692-.729-1.692-.621 0-.738 1.026-.738 1.692zm2.825 1.459c.153.099.423.225.702.225.396 0 .639-.243.639-.63 0-.333-.117-.559-.558-.855-.567-.369-.873-.738-.873-1.242 0-.702.522-1.207 1.197-1.207.342 0 .603.117.783.226l-.189.522a1.024 1.024 0 0 0-.576-.189.534.534 0 0 0-.567.549c0 .298.108.459.54.757.504.324.9.72.9 1.323 0 .873-.594 1.296-1.305 1.296-.324 0-.675-.099-.864-.252l.171-.523zm2.601 0c.153.099.423.225.702.225.396 0 .639-.243.639-.63 0-.333-.117-.559-.558-.855-.567-.369-.873-.738-.873-1.242 0-.702.522-1.207 1.198-1.207.342 0 .603.117.783.226l-.189.522a1.026 1.026 0 0 0-.576-.189.534.534 0 0 0-.567.549c0 .298.108.459.54.757.504.324.9.72.9 1.323 0 .873-.594 1.296-1.305 1.296-.324 0-.675-.099-.864-.252l.17-.523zM14.972 30.962v-.45l.495-.675c.693-.964 1.521-2.062 1.521-3.16 0-.648-.288-1.044-.837-1.044-.423 0-.693.225-.846.323l-.171-.521a1.831 1.831 0 0 1 1.143-.396c.973 0 1.396.721 1.396 1.603 0 1.099-.72 2.16-1.44 3.151l-.396.54v.018h1.954v.612h-2.819zm3.465 0v-.45l.495-.675c.693-.964 1.521-2.062 1.521-3.16 0-.648-.288-1.044-.837-1.044-.423 0-.693.225-.846.323l-.171-.521a1.831 1.831 0 0 1 1.143-.396c.973 0 1.396.721 1.396 1.603 0 1.099-.72 2.16-1.44 3.151l-.396.54v.018h1.954v.612h-2.819zm6.4-2.935c0 2.134-.675 3.007-1.521 3.007-.91 0-1.458-1.081-1.458-2.989 0-1.972.585-3.007 1.54-3.007.944 0 1.439 1.125 1.439 2.989zm-2.287.009c0 1.413.243 2.403.819 2.403.549 0 .774-.999.774-2.403 0-1.368-.225-2.403-.783-2.403s-.81.999-.81 2.403z"/></svg>