<svg xmlns="http://www.w3.org/2000/svg" viewBox="0 0 286.827 133.658"><path fill="none" stroke="#000" d="M192.618 45.561v41.703" stroke-linecap="round" stroke-linejoin="round"/><path d="M189.617 86.389l2.991 5.181 2.992-5.181z"/><path fill="#fff" fill-rule="evenodd" d="M3.38 3.38h78.472v17.708H3.38z" clip-rule="evenodd"/><path fill="none" stroke="#000" d="M3.38 3.38h78.472v17.708H3.38z" stroke-linecap="round" stroke-linejoin="round"/><path fill="#fff" fill-rule="evenodd" d="M3.38 21.087h78.472v17.708H3.38z" clip-rule="evenodd"/><path fill="none" stroke="#000" d="M3.38 21.087h78.472v17.708H3.38z" stroke-linecap="round" stroke-linejoin="round"/><path fill="#fff" fill-rule="evenodd" d="M3.38 38.795h78.472v17.708H3.38z" clip-rule="evenodd"/><path fill="none" stroke="#000" d="M3.38 38.795h78.472v17.708H3.38z" stroke-linecap="round" stroke-linejoin="round"/><path fill="#b2dec7" fill-rule="evenodd" d="M153.38 3.38h78.472v27.708H153.38z" clip-rule="evenodd"/><path fill="none" stroke="#000" d="M153.38 3.38h78.472v27.708H153.38z" stroke-linecap="round" stroke-linejoin="round"/><path fill="#b2dec7" fill-rule="evenodd" d="M153.38 31.087h78.472v17.708H153.38z" clip-rule="evenodd"/><path fill="none" stroke="#000" d="M153.38 31.087h78.472v17.708H153.38z" stroke-linecap="round" stroke-linejoin="round"/><path fill="#fddfbb" fill-rule="evenodd" d="M153.38 48.795h78.472v17.708H153.38z" clip-rule="evenodd"/><path fill="none" stroke="#000" d="M153.38 48.795h78.472v17.708H153.38z" stroke-linecap="round" stroke-linejoin="round"/><path fill="#fff" fill-rule="evenodd" d="M3.38 56.502h78.472V74.21H3.38z" clip-rule="evenodd"/><path fill="none" stroke="#000" d="M3.38 56.502h78.472V74.21H3.38z" stroke-linecap="round" stroke-linejoin="round"/><path fill="#fff" fill-rule="evenodd" d="M3.38 74.21h78.472v17.708H3.38z" clip-rule="evenodd"/><path fill="none" stroke="#000" d="M3.38 74.21h78.472v17.708H3.38z" stroke-linecap="round" stroke-linejoin="round"/><path fill="#b2dec7" fill-rule="evenodd" d="M3.38 91.918h78.472v17.708H3.38z" clip-rule="evenodd"/><path fill="none" stroke="#000" d="M3.38 91.918h78.472v17.708H3.38z" stroke-linecap="round" stroke-linejoin="round"/><path fill="#fddfbb" fill-rule="evenodd" d="M3.38 109.625h78.472v17.708H3.38z" clip-rule="evenodd"/><path fill="none" stroke="#000" d="M3.38 109.625h78.472v17.708H3.38z" stroke-linecap="round" stroke-linejoin="round"/><path fill="#ecbec0" fill-rule="evenodd" d="M104.769 91.918h35.14v35.415h-35.14z" clip-rule="evenodd"/><path fill="none" stroke="#000" d="M104.769 91.918h35.14v35.415h-35.14z" stroke-linecap="round" stroke-linejoin="round"/><path fill="#fddfbb" fill-rule="evenodd" d="M139.908 91.918h35.139v35.415h-35.139z" clip-rule="evenodd"/><path fill="none" stroke="#000" d="M139.908 91.918h35.139v35.415h-35.139z" stroke-linecap="round" stroke-linejoin="round"/><path fill="#fddfbb" fill-rule="evenodd" d="M175.047 91.918h35.14v35.415h-35.14z" clip-rule="evenodd"/><path fill="none" stroke="#000" d="M175.047 91.918h35.14v35.415h-35.14z" stroke-linecap="round" stroke-linejoin="round"/><path fill="#fddfbb" fill-rule="evenodd" d="M210.187 91.918h35.14v35.415h-35.14z" clip-rule="evenodd"/><path fill="none" stroke="#000" d="M210.187 91.918h35.14v35.415h-35.14z" stroke-linecap="round" stroke-linejoin="round"/><path fill="#fddfbb" fill-rule="evenodd" d="M245.327 91.918h35.14v35.415h-35.14z" clip-rule="evenodd"/><path fill="none" stroke="#000" d="M245.327 91.918h35.14v35.415h-35.14z" stroke-linecap="round" stroke-linejoin="round"/><path fill="none" stroke="#000" d="M147.812 48.795c-9.408-3.248 3.39-20.179-5.462-22.707 8.852-2.529-3.945-19.459 5.462-22.708" stroke-linejoin="round"/><path fill="#fddfbb" fill-rule="evenodd" stroke="#000" d="M81.852 100.771l58.056-70.83" clip-rule="evenodd" stroke-linecap="round" stroke-linejoin="round"/><path d="M25.652 9.023v.414l-1.891 5.438h-.675l1.855-5.222v-.017h-2.107v-.613h2.818zm3.969 3.232v.54h-1.972v-.54h1.972zm2.952.802l-.405 1.818h-.666l1.386-6.067h.765l1.351 6.067h-.684l-.405-1.818h-1.342zm1.251-.559l-.315-1.539c-.09-.433-.171-.937-.243-1.387h-.036c-.072.459-.162.981-.243 1.387l-.315 1.539h1.152zm1.845-.621c0-.666-.027-1.053-.036-1.359h.622l.036.559h.018c.234-.469.576-.631.918-.631.756 0 1.26.811 1.26 2.242 0 1.611-.666 2.26-1.351 2.26-.405 0-.639-.262-.756-.505h-.018v2.161h-.693v-4.727zm.693 1.395c0 .135 0 .261.027.36.135.621.45.738.639.738.576 0 .756-.792.756-1.675 0-.9-.216-1.656-.765-1.656-.315 0-.594.396-.639.792-.018.108-.018.216-.018.333v1.108zm2.897-1.395c0-.666-.027-1.053-.036-1.359h.622l.036.559h.018c.234-.469.576-.631.918-.631.756 0 1.26.811 1.26 2.242 0 1.611-.666 2.26-1.351 2.26-.405 0-.639-.262-.756-.505h-.018v2.161h-.693v-4.727zm.694 1.395c0 .135 0 .261.027.36.135.621.45.738.639.738.576 0 .756-.792.756-1.675 0-.9-.216-1.656-.765-1.656-.315 0-.594.396-.639.792-.018.108-.018.216-.018.333v1.108zm2.906-4.626h.693v6.229h-.693V8.646zm2.467.747c.009.27-.162.45-.423.45-.225 0-.396-.181-.396-.45 0-.271.18-.45.405-.45.252-.001.414.179.414.45zm-.747 5.482v-4.357h.693v4.357h-.693zm3.78-.108c-.153.091-.414.162-.72.162-.954 0-1.594-.765-1.594-2.205 0-1.252.63-2.269 1.72-2.269.234 0 .486.062.612.135l-.135.567a1.13 1.13 0 0 0-.495-.117c-.693 0-1.008.828-1.008 1.684 0 1.017.387 1.629 1.026 1.629.189 0 .342-.045.504-.117l.09.531zm2.339.108l-.045-.459h-.027c-.189.333-.495.531-.864.531-.585 0-1.036-.495-1.036-1.242 0-1.09.874-1.576 1.854-1.585v-.135c0-.585-.144-.99-.693-.99-.27 0-.513.09-.72.225l-.153-.486c.18-.135.585-.288 1.018-.288.873 0 1.251.576 1.251 1.558v1.882c0 .333 0 .711.045.99h-.63zm-.099-2.251c-.36 0-1.197.063-1.197 1.009 0 .567.288.774.531.774.306 0 .567-.226.648-.657.018-.081.018-.171.018-.243v-.883zm2.422-3.259v1.152h.837v.531h-.837v2.584c0 .567.207.72.459.72.108 0 .198-.009.279-.026l.027.531a1.522 1.522 0 0 1-.513.071c-.27 0-.513-.071-.684-.261-.171-.198-.261-.495-.261-1.099v-2.521h-.531v-.531h.531v-.953l.693-.198zm2.195.028c.009.27-.162.45-.423.45-.225 0-.396-.181-.396-.45 0-.271.18-.45.405-.45.252-.001.414.179.414.45zm-.747 5.482v-4.357h.693v4.357h-.693zm4.33-2.179c0 1.684-.783 2.251-1.45 2.251-.783 0-1.414-.712-1.414-2.242 0-1.593.711-2.26 1.458-2.26.776 0 1.406.73 1.406 2.251zm-2.17 0c0 .721.126 1.701.756 1.701.594 0 .711-1.026.711-1.701 0-.666-.117-1.692-.729-1.692-.621 0-.738 1.026-.738 1.692zm2.943-1.053c0-.513-.027-.773-.036-1.125h.603l.036.522h.018c.189-.352.54-.595.999-.595.604 0 1.054.45 1.054 1.504v2.926h-.693v-2.809c0-.514-.099-1.035-.603-1.035-.288 0-.567.243-.657.711a2.445 2.445 0 0 0-.027.387v2.746h-.693v-3.232zM25.374 27.244c-.117.01-.243.027-.415.063-.972.233-1.359 1.206-1.503 2.106h.027c.225-.333.549-.559.99-.559.747 0 1.26.685 1.26 1.801 0 1.107-.504 1.999-1.44 1.999-1.017 0-1.53-1.035-1.53-2.377 0-1.135.297-2.017.756-2.638.352-.495.91-.819 1.414-.928.189-.035.342-.045.441-.054v.587zm-.334 3.467c0-.883-.306-1.324-.783-1.324-.288 0-.585.198-.756.631a.934.934 0 0 0-.054.351c.009 1.197.378 1.747.846 1.747.396-.001.747-.388.747-1.405zm4.581-.748v.54h-1.972v-.54h1.972zm2.222-3.358a4.028 4.028 0 0 1 1.008-.117c.558 0 1.026.135 1.341.45.297.288.45.729.45 1.251 0 .559-.135.937-.369 1.242-.333.45-.891.676-1.431.676-.117 0-.207 0-.306-.009v2.484h-.693v-5.977zm.694 2.908c.081.019.153.027.27.027.684 0 1.144-.45 1.144-1.306 0-.621-.261-1.179-1.026-1.179-.162 0-.297.018-.387.045v2.413zm2.78-.162c0-.368-.027-.801-.036-1.125h.622l.036.685h.018c.144-.414.513-.757.918-.757.054 0 .099.01.144.01v.711c-.045-.009-.09-.009-.144-.009-.441 0-.765.404-.837.909a2.65 2.65 0 0 0-.027.396v2.413h-.693v-3.233zm2.602 1.117c.009 1.332.531 1.62 1.036 1.62.297 0 .549-.072.72-.171l.108.513c-.243.136-.612.207-.955.207-1.044 0-1.584-.854-1.584-2.187 0-1.413.594-2.296 1.468-2.296.891 0 1.242.937 1.242 1.927 0 .162 0 .279-.009.388h-2.026zm1.368-.514c.018-.873-.315-1.261-.648-1.261-.45 0-.684.667-.711 1.261h1.359zm1.295 1.909c.153.099.423.225.702.225.396 0 .639-.243.639-.63 0-.333-.117-.559-.558-.855-.567-.369-.873-.738-.873-1.242 0-.702.522-1.207 1.197-1.207.342 0 .603.117.783.226l-.189.522a1.024 1.024 0 0 0-.576-.189.534.534 0 0 0-.567.549c0 .298.108.459.54.757.504.324.9.72.9 1.323 0 .873-.594 1.296-1.305 1.296-.324 0-.675-.099-.864-.252l.171-.523zm3.204-1.395c.009 1.332.531 1.62 1.036 1.62.297 0 .549-.072.72-.171l.108.513c-.243.136-.612.207-.955.207-1.044 0-1.584-.854-1.584-2.187 0-1.413.594-2.296 1.468-2.296.891 0 1.242.937 1.242 1.927 0 .162 0 .279-.009.388h-2.026zm1.369-.514c.018-.873-.315-1.261-.648-1.261-.45 0-.684.667-.711 1.261h1.359zm1.412-.603c0-.513-.027-.773-.036-1.125h.603l.036.522h.018c.189-.352.54-.595.999-.595.604 0 1.054.45 1.054 1.504v2.926h-.693v-2.809c0-.514-.099-1.035-.603-1.035-.288 0-.567.243-.657.711a2.445 2.445 0 0 0-.027.387v2.746h-.693v-3.232zm5.365 3.232l-.045-.459h-.027c-.189.333-.495.531-.864.531-.585 0-1.036-.495-1.036-1.242 0-1.09.874-1.576 1.854-1.585v-.135c0-.585-.144-.99-.693-.99-.27 0-.513.09-.72.225l-.153-.486c.18-.135.585-.288 1.018-.288.873 0 1.251.576 1.251 1.558v1.882c0 .333 0 .711.045.99h-.63zm-.099-2.251c-.36 0-1.197.063-1.197 1.009 0 .567.288.774.531.774.306 0 .567-.226.648-.657.018-.081.018-.171.018-.243v-.883zm2.42-3.259v1.152h.837v.531h-.837v2.584c0 .567.207.72.459.72.108 0 .198-.009.279-.026l.027.531a1.522 1.522 0 0 1-.513.071c-.27 0-.513-.071-.684-.261-.171-.198-.261-.495-.261-1.099v-2.521h-.531v-.531h.531v-.954l.693-.197zm2.196.028c.009.27-.162.45-.423.45-.225 0-.396-.181-.396-.45 0-.271.18-.45.405-.45.252-.001.414.179.414.45zm-.747 5.482v-4.357h.693v4.357h-.693zm4.33-2.179c0 1.684-.784 2.251-1.45 2.251-.783 0-1.414-.712-1.414-2.242 0-1.593.711-2.26 1.458-2.26.775 0 1.406.73 1.406 2.251zm-2.17 0c0 .721.126 1.701.756 1.701.594 0 .711-1.026.711-1.701 0-.666-.117-1.692-.729-1.692-.621 0-.738 1.026-.738 1.692zm2.943-1.053c0-.513-.027-.773-.036-1.125h.603l.036.522h.018c.189-.352.54-.595.999-.595.604 0 1.054.45 1.054 1.504v2.926h-.693v-2.809c0-.514-.099-1.035-.603-1.035-.288 0-.567.243-.657.711a2.445 2.445 0 0 0-.027.387v2.746h-.693v-3.232zM25.5 45.051h-1.576l-.243 1.558c.072-.019.135-.019.216-.019.315 0 .801.135 1.116.441.306.306.486.738.486 1.332 0 1.161-.729 1.999-1.774 1.999-.351 0-.756-.1-.99-.252l.153-.559c.18.108.495.234.819.234.594 0 1.107-.459 1.107-1.351 0-.928-.567-1.314-1.323-1.314-.216 0-.351.009-.459.027l.369-2.71H25.5v.614zm4.121 2.619v.54h-1.972v-.54h1.972zm2.088 1.819c.207.135.567.242.873.242.63 0 1.008-.414 1.008-1.026 0-.558-.324-.899-.801-1.26-.477-.333-1.143-.9-1.143-1.684 0-.918.639-1.594 1.603-1.594.378 0 .711.117.855.226l-.171.594a1.276 1.276 0 0 0-.72-.207c-.594 0-.874.45-.874.864 0 .604.315.837.892 1.252.729.513 1.053 1.071 1.053 1.746 0 1.044-.738 1.701-1.702 1.701-.414 0-.855-.135-1.026-.261l.153-.593zm3.878-1.314c.009 1.332.531 1.62 1.036 1.62.297 0 .549-.072.72-.171l.108.513c-.243.136-.612.207-.955.207-1.044 0-1.584-.854-1.584-2.188 0-1.413.594-2.296 1.468-2.296.891 0 1.242.937 1.242 1.927 0 .162 0 .279-.009.388h-2.026zm1.369-.514c.018-.873-.315-1.261-.648-1.261-.45 0-.684.667-.711 1.261h1.359zm1.295 1.909c.153.099.423.225.702.225.396 0 .639-.243.639-.63 0-.333-.117-.559-.558-.855-.567-.369-.873-.738-.873-1.242 0-.702.522-1.207 1.197-1.207.342 0 .603.117.783.226l-.189.522a1.024 1.024 0 0 0-.576-.189.534.534 0 0 0-.567.549c0 .298.108.459.54.757.504.324.9.72.9 1.323 0 .873-.594 1.296-1.305 1.296-.324 0-.675-.099-.864-.252l.171-.523zm2.601 0c.153.099.423.225.702.225.396 0 .639-.243.639-.63 0-.333-.117-.559-.558-.855-.567-.369-.873-.738-.873-1.242 0-.702.522-1.207 1.197-1.207.342 0 .603.117.783.226l-.189.522a1.024 1.024 0 0 0-.576-.189.534.534 0 0 0-.567.549c0 .298.108.459.54.757.504.324.9.72.9 1.323 0 .873-.594 1.296-1.305 1.296-.324 0-.675-.099-.864-.252l.171-.523zm3.465-4.762c.009.27-.162.45-.423.45-.225 0-.396-.181-.396-.45 0-.271.18-.45.405-.45.252-.001.414.179.414.45zm-.747 5.482v-4.357h.693v4.357h-.693zm4.33-2.179c0 1.684-.784 2.251-1.45 2.251-.783 0-1.414-.712-1.414-2.242 0-1.593.711-2.26 1.458-2.26.776 0 1.406.73 1.406 2.251zm-2.17 0c0 .721.126 1.701.756 1.701.594 0 .711-1.026.711-1.701 0-.666-.117-1.692-.729-1.692-.621 0-.738 1.026-.738 1.692zm2.943-1.053c0-.513-.027-.773-.036-1.125h.603l.036.522h.018c.189-.352.54-.595.999-.595.604 0 1.054.45 1.054 1.504v2.926h-.693v-2.809c0-.514-.099-1.035-.603-1.035-.288 0-.567.243-.657.711a2.445 2.445 0 0 0-.027.387v2.746h-.693v-3.232zm111.413-33.115c0-.819.486-1.341.963-1.674l-.009-.019c-.486-.333-.766-.846-.766-1.342 0-.899.639-1.458 1.369-1.458.837 0 1.251.702 1.251 1.378 0 .513-.243 1.008-.783 1.377v.027c.54.359.936.891.936 1.593 0 .909-.603 1.621-1.503 1.621-.972.001-1.458-.773-1.458-1.503zm2.278-.072c0-.675-.387-1.053-.837-1.35-.468.288-.756.792-.756 1.305 0 .657.297 1.107.801 1.107.431.001.792-.332.792-1.062zm-1.423-3.007c0 .595.36.892.72 1.126.351-.252.585-.64.585-1.081 0-.566-.234-.944-.657-.944-.387 0-.648.368-.648.899zm5.581 1.576c0 2.134-.676 3.007-1.521 3.007-.91 0-1.459-1.081-1.459-2.989 0-1.972.586-3.007 1.54-3.007.945 0 1.44 1.125 1.44 2.989zm-2.287.009c0 1.413.243 2.403.819 2.403.55 0 .774-.999.774-2.403 0-1.368-.225-2.403-.783-2.403s-.81.999-.81 2.403zm2.816 2.926v-.45l.496-.675c.693-.964 1.521-2.062 1.521-3.16 0-.648-.289-1.044-.838-1.044-.423 0-.693.225-.846.323l-.172-.521a1.834 1.834 0 0 1 1.144-.396c.973 0 1.396.721 1.396 1.603 0 1.099-.721 2.16-1.44 3.151l-.396.54v.018h1.953v.612h-2.818zm3.619-.45c0-.306.207-.522.459-.522.279 0 .459.207.459.522s-.171.522-.459.522c-.261 0-.459-.207-.459-.522zm1.592.45v-.45l.496-.675c.693-.964 1.521-2.062 1.521-3.16 0-.648-.289-1.044-.838-1.044-.423 0-.693.225-.846.323l-.172-.521a1.834 1.834 0 0 1 1.144-.396c.973 0 1.396.721 1.396 1.603 0 1.099-.721 2.16-1.44 3.151l-.396.54v.018h1.953v.612h-2.818zm5.131-6.067h.693v5.482h1.71v.585h-2.403V9.308zm5.572 3.888c0 1.684-.783 2.251-1.45 2.251-.783 0-1.413-.712-1.413-2.242 0-1.593.711-2.26 1.458-2.26.775 0 1.405.73 1.405 2.251zm-2.17 0c0 .721.125 1.701.756 1.701.594 0 .711-1.026.711-1.701 0-.666-.117-1.692-.729-1.692-.62 0-.738 1.026-.738 1.692zm5.608-2.178c-.01.307-.037.693-.037 1.359v2.439c0 1.144-.144 1.576-.432 1.891-.261.298-.675.469-1.161.469-.369 0-.729-.09-.954-.216l.162-.541c.171.091.459.189.811.189.549 0 .891-.342.891-1.332v-.441h-.018a.887.887 0 0 1-.838.531c-.773 0-1.278-.873-1.278-2.152 0-1.602.729-2.269 1.368-2.269.469 0 .685.307.811.567h.018l.037-.495h.62zm-.721 1.503a1.16 1.16 0 0 0-.036-.315c-.081-.297-.233-.666-.63-.666-.504 0-.774.675-.774 1.639 0 1.116.351 1.62.774 1.62.207 0 .477-.099.621-.621.036-.135.045-.271.045-.396v-1.261zm2.394-2.628c.009.27-.162.45-.423.45-.226 0-.396-.181-.396-.45 0-.271.18-.45.405-.45.252-.001.414.179.414.45zm-.747 5.482v-4.357h.693v4.357h-.693zm3.781-.108c-.154.091-.414.162-.721.162-.955 0-1.594-.765-1.594-2.205 0-1.252.631-2.269 1.72-2.269.233 0 .486.062.612.135l-.135.567a1.136 1.136 0 0 0-.496-.117c-.693 0-1.008.828-1.008 1.684 0 1.017.387 1.629 1.026 1.629.188 0 .343-.045.505-.117l.091.531zm2.339.108l-.045-.459h-.026c-.189.333-.496.531-.865.531-.585 0-1.035-.495-1.035-1.242 0-1.09.873-1.576 1.855-1.585v-.135c0-.585-.145-.99-.693-.99-.271 0-.514.09-.721.225l-.153-.486c.181-.135.585-.288 1.018-.288.873 0 1.251.576 1.251 1.558v1.882c0 .333 0 .711.045.99h-.631zm-.099-2.251c-.36 0-1.197.063-1.197 1.009 0 .567.287.774.531.774.306 0 .566-.226.648-.657.018-.081.018-.171.018-.243v-.883zm1.655-3.978h.692v6.229h-.692V9.146zm3.187.162h.693v5.482h1.71v.585h-2.403V9.308zm3.789.585c.008.27-.162.45-.424.45-.225 0-.396-.181-.396-.45 0-.271.181-.45.406-.45.252-.001.414.179.414.45zm-.748 5.482v-4.357h.693v4.357h-.693zm1.656-3.232c0-.513-.027-.773-.036-1.125h.603l.037.522h.018c.189-.352.54-.595.999-.595.604 0 1.054.45 1.054 1.504v2.926h-.693v-2.809c0-.514-.1-1.035-.604-1.035-.287 0-.566.243-.656.711a2.331 2.331 0 0 0-.027.387v2.746h-.693v-3.232zm4.329.9h.019c.08-.171.152-.342.233-.485l.864-1.54h.747l-1.152 1.837 1.251 2.521h-.773l-.945-2.053-.243.405v1.647h-.693V9.146h.693v3.897zm3.969-3.735h.693v5.482h1.71v.585h-2.403V9.308zm4.734 6.067l-.045-.459h-.026c-.189.333-.496.531-.865.531-.585 0-1.035-.495-1.035-1.242 0-1.09.873-1.576 1.855-1.585v-.135c0-.585-.145-.99-.693-.99-.271 0-.514.09-.721.225l-.153-.486c.181-.135.585-.288 1.018-.288.873 0 1.251.576 1.251 1.558v1.882c0 .333 0 .711.045.99h-.631zm-.098-2.251c-.36 0-1.197.063-1.197 1.009 0 .567.287.774.531.774.306 0 .566-.226.648-.657.018-.081.018-.171.018-.243v-.883zm1.926-2.106l.576 2.503c.08.342.125.63.18.9h.018c.045-.243.117-.576.189-.892l.514-2.512h.684l-.711 2.8c-.271 1.099-.567 2.151-1.08 2.809-.307.388-.631.595-.783.667l-.252-.595a2.09 2.09 0 0 0 .611-.549c.18-.226.324-.522.396-.729a.632.632 0 0 0 .045-.216c0-.054 0-.108-.018-.162l-1.099-4.024h.73zm3.123 2.242c.009 1.332.531 1.62 1.035 1.62.297 0 .549-.072.721-.171l.107.513c-.243.136-.612.207-.955.207-1.043 0-1.584-.854-1.584-2.188 0-1.413.594-2.296 1.468-2.296.892 0 1.242.937 1.242 1.927 0 .162 0 .279-.009.388h-2.025zm1.368-.514c.019-.873-.315-1.261-.648-1.261-.45 0-.685.667-.711 1.261h1.359zm1.403-.603c0-.368-.027-.801-.036-1.125h.622l.035.685h.018c.145-.414.514-.757.919-.757.054 0 .099.01.144.01v.711c-.045-.009-.09-.009-.144-.009-.441 0-.765.404-.837.909a2.524 2.524 0 0 0-.027.396v2.413h-.693v-3.233zm-45.336 12.124c-.189.1-.486.162-.864.162-1.188 0-2.034-.954-2.034-3.016 0-2.395 1.188-3.16 2.143-3.16.369 0 .63.072.756.153l-.153.585a1.339 1.339 0 0 0-.612-.126c-.648 0-1.404.63-1.404 2.485 0 1.854.685 2.466 1.423 2.466.261 0 .495-.062.64-.135l.105.586zm3.168-2.071c0 1.684-.783 2.251-1.449 2.251-.783 0-1.414-.712-1.414-2.242 0-1.593.711-2.26 1.459-2.26.773 0 1.404.73 1.404 2.251zm-2.17 0c0 .721.126 1.701.756 1.701.595 0 .711-1.026.711-1.701 0-.666-.116-1.692-.729-1.692-.621 0-.738 1.026-.738 1.692zm2.944-1.053c0-.513-.027-.773-.036-1.125h.603l.037.522h.018c.189-.352.54-.595.999-.595.604 0 1.054.45 1.054 1.504v2.926h-.693v-2.809c0-.514-.1-1.035-.604-1.035-.287 0-.566.243-.656.711a2.331 2.331 0 0 0-.027.387v2.746h-.693v-3.232zm4.437-2.278v1.152h.836v.531h-.836v2.584c0 .567.207.72.459.72.107 0 .197-.009.279-.026l.026.531a1.522 1.522 0 0 1-.513.071c-.271 0-.514-.071-.685-.261-.171-.198-.261-.495-.261-1.099v-2.521h-.531v-.531h.531v-.954l.695-.197zm1.44 2.278c0-.368-.027-.801-.037-1.125h.622l.036.685h.018c.145-.414.514-.757.918-.757.055 0 .1.01.145.01v.711c-.045-.009-.09-.009-.145-.009-.441 0-.765.404-.837.909a2.53 2.53 0 0 0-.026.396v2.413h-.693v-3.233zm4.789 1.053c0 1.684-.783 2.251-1.45 2.251-.783 0-1.413-.712-1.413-2.242 0-1.593.711-2.26 1.458-2.26.774 0 1.405.73 1.405 2.251zm-2.17 0c0 .721.125 1.701.756 1.701.594 0 .711-1.026.711-1.701 0-.666-.117-1.692-.729-1.692-.621 0-.738 1.026-.738 1.692zm2.942-4.05h.692v6.229h-.692v-6.229zm4.698 0c-.513.81-.936 2.025-.936 3.664 0 1.611.423 2.826.936 3.646h-.539c-.469-.684-.991-1.891-.991-3.655.019-1.764.522-2.979.991-3.654h.539zm.765.162h.693v5.482h1.71v.585h-2.403v-6.067zm3.096 0h.693v5.482h1.71v.585h-2.403v-6.067zm5.365 5.959c-.188.1-.486.162-.864.162-1.188 0-2.035-.954-2.035-3.016 0-2.395 1.189-3.16 2.143-3.16.369 0 .631.072.757.153l-.153.585a1.34 1.34 0 0 0-.611-.126c-.648 0-1.405.63-1.405 2.485 0 1.854.685 2.466 1.423 2.466.261 0 .495-.062.639-.135l.106.586zm.448 1.188c.514-.81.937-2.043.937-3.664 0-1.62-.423-2.836-.937-3.646h.541c.468.666.99 1.863.99 3.646-.019 1.783-.522 2.971-.99 3.664h-.541zm-29.91 15.696c0-.819.486-1.341.963-1.674l-.008-.019c-.486-.333-.766-.846-.766-1.342 0-.899.639-1.458 1.368-1.458.837 0 1.251.702 1.251 1.378 0 .513-.242 1.008-.783 1.377v.027c.541.359.937.891.937 1.593 0 .909-.603 1.621-1.503 1.621-.973.001-1.459-.774-1.459-1.503zm2.277-.072c0-.675-.387-1.053-.837-1.35-.468.288-.757.792-.757 1.305 0 .657.298 1.107.802 1.107.433 0 .792-.333.792-1.062zm-1.422-3.007c0 .595.359.892.721 1.126.351-.252.584-.64.584-1.081 0-.566-.233-.944-.656-.944-.387-.001-.649.368-.649.899zm5.581 1.576c0 2.134-.675 3.007-1.521 3.007-.908 0-1.458-1.081-1.458-2.989 0-1.972.585-3.007 1.54-3.007.944 0 1.439 1.125 1.439 2.989zm-2.288.009c0 1.413.244 2.403.82 2.403.549 0 .773-.999.773-2.403 0-1.368-.225-2.403-.783-2.403-.557-.001-.81.998-.81 2.403zm2.818 2.926v-.45l.495-.675c.693-.964 1.521-2.062 1.521-3.16 0-.648-.288-1.044-.838-1.044-.422 0-.692.225-.846.323l-.171-.521a1.832 1.832 0 0 1 1.144-.396c.973 0 1.395.721 1.395 1.603 0 1.099-.72 2.16-1.439 3.151l-.396.54v.018h1.953v.612h-2.818zm3.618-.451c0-.306.207-.522.459-.522.279 0 .459.207.459.522s-.17.522-.459.522c-.261.001-.459-.206-.459-.522zm1.593.451v-.45l.495-.675c.693-.964 1.521-2.062 1.521-3.16 0-.648-.288-1.044-.838-1.044-.422 0-.692.225-.846.323l-.171-.521a1.832 1.832 0 0 1 1.144-.396c.973 0 1.395.721 1.395 1.603 0 1.099-.72 2.16-1.439 3.151l-.396.54v.018h1.953v.612h-2.818zm8.803-2.611c-.045-.802-.091-1.693-.063-2.377h-.036a34.798 34.798 0 0 1-.486 2.106l-.747 2.845h-.44l-.712-2.728a27.18 27.18 0 0 1-.495-2.224h-.027c0 .711-.035 1.558-.072 2.422l-.117 2.565h-.621l.361-6.067h.746l.712 2.772c.207.801.36 1.396.485 2.089h.027c.117-.693.252-1.27.45-2.089l.685-2.772h.773l.352 6.067h-.648l-.127-2.609zm2.384.792l-.405 1.818h-.666l1.387-6.067h.765l1.351 6.067h-.684l-.406-1.818h-1.342zm1.251-.558l-.314-1.539a31.98 31.98 0 0 1-.244-1.387h-.035c-.072.459-.162.981-.243 1.387l-.315 1.539h1.151zm4.403 2.268c-.189.1-.486.162-.865.162-1.188 0-2.034-.954-2.034-3.016 0-2.395 1.188-3.16 2.143-3.16.369 0 .63.072.757.153l-.154.585a1.337 1.337 0 0 0-.611-.126c-.648 0-1.404.63-1.404 2.485 0 1.854.684 2.466 1.422 2.466.262 0 .496-.062.64-.135l.106.586zm-25.144 11.838a4.03 4.03 0 0 1 1.009-.117c.558 0 1.026.135 1.341.45.298.288.45.729.45 1.251 0 .559-.135.937-.369 1.242-.333.45-.891.676-1.431.676-.117 0-.207 0-.307-.009v2.484h-.693v-5.977zm.693 2.908c.081.019.153.027.271.027.684 0 1.144-.45 1.144-1.306 0-.621-.262-1.179-1.026-1.179a1.43 1.43 0 0 0-.388.045v2.413zm2.844-3.159h.693v2.34h.018c.091-.152.226-.287.36-.378.162-.099.333-.162.585-.162.55 0 1.018.441 1.018 1.54v2.89h-.693v-2.809c0-.531-.117-1.035-.585-1.035-.324 0-.567.233-.675.692-.019.1-.027.226-.027.334v2.817h-.693v-6.229zm3.924 1.872l.576 2.503c.081.342.126.63.181.9h.018c.045-.243.117-.576.189-.892l.513-2.512h.685l-.711 2.8c-.271 1.099-.567 2.151-1.081 2.809-.306.388-.63.595-.783.667l-.252-.595c.198-.107.414-.297.612-.549.18-.226.324-.522.396-.729a.609.609 0 0 0 .045-.216c0-.054 0-.108-.019-.162l-1.098-4.024h.729zm2.638 3.637c.152.099.423.225.702.225.396 0 .639-.243.639-.63 0-.333-.117-.559-.558-.855-.567-.369-.873-.738-.873-1.242 0-.702.521-1.207 1.197-1.207.342 0 .603.117.783.226l-.189.522a1.024 1.024 0 0 0-.576-.189.534.534 0 0 0-.567.549c0 .298.108.459.54.757.505.324.9.72.9 1.323 0 .873-.594 1.296-1.305 1.296-.324 0-.676-.099-.864-.252l.171-.523zm3.464-4.762c.009.27-.162.45-.424.45-.225 0-.396-.181-.396-.45 0-.271.18-.45.405-.45.253-.001.415.179.415.45zm-.747 5.482v-4.357h.692v4.357h-.692zm3.781-.108c-.153.091-.414.162-.72.162-.954 0-1.594-.765-1.594-2.205 0-1.252.63-2.269 1.72-2.269.233 0 .486.062.612.135l-.136.567a1.13 1.13 0 0 0-.495-.117c-.693 0-1.008.828-1.008 1.684 0 1.017.387 1.629 1.026 1.629.188 0 .342-.045.504-.117l.091.531zm2.34.108l-.045-.459h-.027c-.188.333-.495.531-.864.531-.585 0-1.035-.495-1.035-1.242 0-1.09.873-1.576 1.854-1.585V57.4c0-.585-.144-.99-.693-.99-.27 0-.513.09-.72.225l-.153-.486c.18-.135.585-.288 1.018-.288.873 0 1.251.576 1.251 1.558V59.3c0 .333 0 .711.045.99h-.631zm-.1-2.251c-.359 0-1.197.063-1.197 1.009 0 .567.288.774.531.774.307 0 .567-.226.648-.657.018-.081.018-.171.018-.243v-.883zm1.656-3.978h.692v6.229h-.692v-6.229zM24.608 67.998v-1.611h-1.944v-.469l1.899-3.771h.675v3.673h.639v.567h-.639v1.611h-.63zm0-2.179v-1.656c0-.405.027-.766.054-1.152h-.036c-.198.468-.324.747-.495 1.107l-.81 1.684v.018h1.287zm5.013-.442v.54h-1.972v-.54h1.972zm2.619-2.826h-1.107v-.621h2.908v.621h-1.107v5.446h-.694v-5.446zm1.926 2.214c0-.368-.027-.801-.036-1.125h.622l.036.685h.018c.144-.414.513-.757.918-.757.054 0 .099.01.144.01v.711c-.045-.009-.09-.009-.144-.009-.441 0-.765.404-.837.909a2.65 2.65 0 0 0-.027.396v2.413h-.693v-3.233zm3.906 3.233l-.045-.459H38c-.189.333-.495.531-.864.531-.585 0-1.036-.495-1.036-1.242 0-1.09.874-1.576 1.855-1.585v-.135c0-.585-.145-.99-.693-.99-.27 0-.513.09-.72.225l-.153-.486c.18-.135.585-.288 1.018-.288.873 0 1.251.576 1.251 1.558v1.882c0 .333 0 .711.045.99h-.631zm-.099-2.251c-.36 0-1.197.063-1.197 1.009 0 .567.288.774.531.774.306 0 .567-.226.648-.657.018-.081.018-.171.018-.243v-.883zm1.655-.982c0-.513-.027-.773-.036-1.125h.603l.036.522h.018c.189-.352.54-.595.999-.595.604 0 1.054.45 1.054 1.504v2.926h-.693v-2.809c0-.514-.099-1.035-.603-1.035-.288 0-.567.243-.657.711a2.445 2.445 0 0 0-.027.387v2.746h-.693v-3.232zm3.528 2.513c.153.099.423.225.702.225.396 0 .639-.243.639-.63 0-.333-.117-.559-.558-.855-.567-.369-.873-.738-.873-1.242 0-.702.522-1.207 1.197-1.207.342 0 .603.117.783.226l-.189.522a1.024 1.024 0 0 0-.576-.189.534.534 0 0 0-.567.549c0 .298.108.459.54.757.504.324.9.72.9 1.323 0 .873-.594 1.296-1.305 1.296-.324 0-.675-.099-.864-.252l.171-.523zM45.865 65c0-.666-.027-1.053-.036-1.359h.622l.036.559h.018c.234-.469.576-.631.918-.631.756 0 1.26.811 1.26 2.242 0 1.611-.666 2.26-1.35 2.26-.405 0-.64-.262-.756-.505h-.018v2.161h-.693V65zm.694 1.395c0 .135 0 .261.027.36.135.621.45.738.639.738.576 0 .756-.792.756-1.675 0-.9-.216-1.656-.765-1.656-.315 0-.594.396-.639.792-.018.108-.018.216-.018.333v1.108zm5.58-.576c0 1.684-.784 2.251-1.45 2.251-.783 0-1.414-.712-1.414-2.242 0-1.593.711-2.26 1.458-2.26.776 0 1.406.729 1.406 2.251zm-2.17 0c0 .721.126 1.701.756 1.701.594 0 .711-1.026.711-1.701 0-.666-.117-1.692-.729-1.692-.621-.001-.738 1.026-.738 1.692zm2.934-1.054c0-.368-.027-.801-.036-1.125h.622l.036.685h.018c.144-.414.513-.757.918-.757.054 0 .099.01.144.01v.711c-.045-.009-.09-.009-.144-.009-.441 0-.765.404-.837.909a2.65 2.65 0 0 0-.027.396v2.413h-.693v-3.233zm3.304-2.277v1.152h.837v.531h-.837v2.584c0 .567.207.72.459.72.108 0 .198-.009.279-.026l.027.531a1.522 1.522 0 0 1-.513.071c-.27 0-.513-.071-.684-.261-.171-.198-.261-.495-.261-1.099V64.17h-.531v-.53h.531v-.954l.693-.198zm-33.3 22.47c.18.107.495.243.846.243.603 0 1.008-.441 1.008-1.171 0-.765-.477-1.206-1.179-1.206h-.162v-.522h.135c.414-.009 1.053-.324 1.053-1.044 0-.585-.315-.9-.774-.9-.288 0-.54.145-.729.279l-.153-.522c.216-.171.612-.333 1.053-.333.828 0 1.296.595 1.296 1.351 0 .585-.306 1.099-.873 1.368v.019c.522.144 1.026.611 1.026 1.53 0 .954-.612 1.729-1.674 1.729-.378 0-.792-.108-1.026-.271l.153-.55zm6.714-1.873v.54h-1.972v-.54h1.972zm2.222 2.62v-6.067h.657l1.116 2.845c.252.647.567 1.458.774 2.115h.018a45.668 45.668 0 0 1-.081-2.791v-2.169h.621v6.067h-.657l-1.152-2.917a21.766 21.766 0 0 1-.72-2.062h-.018c.054.811.072 1.585.072 2.881v2.098h-.63zm4.581-2.115c.009 1.332.531 1.62 1.036 1.62.297 0 .549-.072.72-.171l.108.513c-.243.136-.612.207-.955.207-1.044 0-1.584-.854-1.584-2.188 0-1.413.594-2.296 1.468-2.296.891 0 1.242.937 1.242 1.927 0 .162 0 .279-.009.388h-2.026zm1.369-.514c.018-.873-.315-1.261-.648-1.261-.45 0-.684.667-.711 1.261h1.359zm2.259-2.881v1.152h.837v.531h-.837v2.584c0 .567.207.72.459.72.108 0 .198-.009.279-.026l.027.531a1.522 1.522 0 0 1-.513.071c-.27 0-.513-.071-.684-.261-.171-.198-.261-.495-.261-1.099v-2.521h-.531v-.531h.531v-.954l.693-.197zm1.889 1.153l.423 2.134c.081.468.18.937.234 1.387h.036c.063-.45.171-.955.27-1.369l.504-2.151h.531l.477 2.089c.108.486.207.945.279 1.432h.036c.054-.459.135-.909.234-1.404l.414-2.116h.693l-1.098 4.357h-.567l-.504-2.115a12.152 12.152 0 0 1-.243-1.306h-.018c-.072.513-.153.918-.252 1.332l-.522 2.089h-.585l-1.062-4.357h.72zm7.3 2.178c0 1.684-.783 2.251-1.45 2.251-.783 0-1.414-.712-1.414-2.242 0-1.593.711-2.26 1.458-2.26.776 0 1.406.73 1.406 2.251zm-2.17 0c0 .721.126 1.701.756 1.701.594 0 .711-1.026.711-1.701 0-.666-.117-1.692-.729-1.692-.62 0-.738 1.026-.738 1.692zm2.934-1.053c0-.368-.027-.801-.036-1.125h.622l.036.685h.018c.144-.414.513-.757.918-.757.054 0 .099.01.144.01v.711c-.045-.009-.09-.009-.144-.009-.441 0-.765.404-.837.909a2.65 2.65 0 0 0-.027.396v2.413h-.693v-3.233zm2.925.9h.018c.081-.171.153-.342.234-.485l.864-1.54h.747l-1.152 1.837 1.251 2.521h-.774l-.945-2.053-.243.405v1.647h-.693v-6.229h.693v3.897zm-30.14 20.04v-.45l.495-.675c.693-.964 1.521-2.062 1.521-3.16 0-.648-.288-1.044-.837-1.044-.423 0-.693.225-.846.323l-.171-.521a1.831 1.831 0 0 1 1.143-.396c.973 0 1.396.721 1.396 1.603 0 1.099-.72 2.16-1.44 3.151l-.396.54v.018h1.954v.612H22.79zm6.831-2.621v.54h-1.972v-.54h1.972zm2.222-3.357a3.29 3.29 0 0 1 .937-.117c.639 0 1.089.162 1.422.459.468.405.819 1.188.819 2.458 0 1.386-.342 2.143-.729 2.557-.396.45-.972.657-1.674.657-.279 0-.567-.019-.774-.063v-5.951zm.694 5.41c.099.019.198.019.261.019.765 0 1.503-.55 1.503-2.611 0-1.53-.468-2.367-1.44-2.367-.108 0-.234.009-.324.036v4.923zm4.977.568l-.045-.459h-.027c-.189.333-.495.531-.864.531-.585 0-1.036-.495-1.036-1.242 0-1.09.874-1.576 1.854-1.585v-.135c0-.585-.144-.99-.693-.99-.27 0-.513.09-.72.225l-.153-.486c.18-.135.585-.288 1.018-.288.873 0 1.251.576 1.251 1.558v1.882c0 .333 0 .711.045.99h-.63zm-.099-2.251c-.36 0-1.197.063-1.197 1.009 0 .567.288.774.531.774.306 0 .567-.226.648-.657.018-.081.018-.171.018-.243v-.883zm2.421-3.259v1.152h.837v.531h-.837v2.584c0 .567.207.72.459.72.108 0 .198-.009.279-.026l.027.531a1.522 1.522 0 0 1-.513.071c-.27 0-.513-.071-.684-.261-.171-.198-.261-.495-.261-1.099v-2.521h-.531v-.531h.531V98.1l.693-.197zm3.168 5.51l-.045-.459h-.027c-.189.333-.495.531-.864.531-.585 0-1.036-.495-1.036-1.242 0-1.09.874-1.576 1.854-1.585v-.135c0-.585-.144-.99-.693-.99-.27 0-.513.09-.72.225l-.153-.486c.18-.135.585-.288 1.018-.288.873 0 1.251.576 1.251 1.558v1.882c0 .333 0 .711.045.99h-.63zm-.099-2.251c-.36 0-1.197.063-1.197 1.009 0 .567.288.774.531.774.306 0 .567-.226.648-.657.018-.081.018-.171.018-.243v-.883zm3.122-3.817h.693v5.482h1.71v.585h-2.404v-6.067zm3.789.585c.009.27-.162.45-.423.45-.225 0-.396-.181-.396-.45 0-.271.18-.45.405-.45.252 0 .414.18.414.45zm-.747 5.483v-4.357h.693v4.357h-.693zm1.657-3.233c0-.513-.027-.773-.036-1.125h.603l.036.522h.018c.189-.352.54-.595.999-.595.604 0 1.054.45 1.054 1.504v2.926h-.693v-2.809c0-.514-.099-1.035-.603-1.035-.288 0-.567.243-.657.711a2.445 2.445 0 0 0-.027.387v2.746h-.693v-3.232zm4.329.901h.018c.081-.171.153-.342.234-.485l.864-1.54h.747l-1.152 1.837 1.251 2.521h-.774l-.945-2.053-.243.405v1.647h-.693v-6.229h.693v3.897zm-30.861 14.89h-.018l-.972.558-.135-.54 1.233-.72h.576v5.852h-.684v-5.15zm5.427 2.529v.54h-1.972v-.54h1.972zm2.222-3.357a4.028 4.028 0 0 1 1.008-.117c.558 0 1.026.135 1.341.45.297.288.45.729.45 1.251 0 .559-.135.937-.369 1.242-.333.45-.891.676-1.431.676-.117 0-.207 0-.306-.009v2.484h-.693v-5.977zm.694 2.907c.081.019.153.027.27.027.684 0 1.144-.45 1.144-1.306 0-.621-.261-1.179-1.026-1.179-.162 0-.297.018-.387.045v2.413zm2.843-3.159h.693v2.34h.018a1.23 1.23 0 0 1 .36-.378c.162-.099.333-.162.585-.162.549 0 1.018.441 1.018 1.54v2.89h-.693v-2.809c0-.531-.117-1.035-.585-1.035-.324 0-.567.233-.675.692-.018.1-.027.226-.027.334v2.817h-.694v-6.229zm3.925 1.872l.576 2.503c.081.342.126.63.18.9h.018c.045-.243.117-.576.189-.892l.513-2.512h.684l-.711 2.8c-.271 1.099-.567 2.151-1.081 2.809-.306.388-.63.595-.783.667l-.252-.595c.198-.107.414-.297.612-.549.18-.226.324-.522.396-.729a.609.609 0 0 0 .045-.216c0-.054 0-.108-.018-.162l-1.098-4.024h.73zm2.636 3.637c.153.099.423.225.702.225.396 0 .639-.243.639-.63 0-.333-.117-.559-.558-.855-.567-.369-.873-.738-.873-1.242 0-.702.522-1.207 1.197-1.207.342 0 .603.117.783.226l-.189.522a1.024 1.024 0 0 0-.576-.189.534.534 0 0 0-.567.549c0 .298.108.459.54.757.504.324.9.72.9 1.323 0 .873-.594 1.296-1.305 1.296-.324 0-.675-.099-.864-.252l.171-.523zm3.465-4.762c.009.27-.162.45-.423.45-.225 0-.396-.181-.396-.45 0-.271.18-.45.405-.45.252-.001.414.179.414.45zm-.747 5.482v-4.357h.693v4.357h-.693zm3.781-.108c-.153.091-.414.162-.72.162-.954 0-1.594-.765-1.594-2.205 0-1.252.63-2.269 1.72-2.269.234 0 .486.062.612.135l-.135.567a1.13 1.13 0 0 0-.495-.117c-.693 0-1.008.828-1.008 1.684 0 1.017.387 1.629 1.026 1.629.189 0 .342-.045.504-.117l.09.531zm2.339.108l-.045-.459h-.027c-.189.333-.495.531-.864.531-.585 0-1.036-.495-1.036-1.242 0-1.09.874-1.576 1.854-1.585v-.135c0-.585-.144-.99-.693-.99-.27 0-.513.09-.72.225l-.153-.486c.18-.135.585-.288 1.018-.288.873 0 1.251.576 1.251 1.558v1.882c0 .333 0 .711.045.99h-.63zm-.099-2.251c-.36 0-1.197.063-1.197 1.009 0 .567.288.774.531.774.306 0 .567-.226.648-.657.018-.081.018-.171.018-.243v-.883zm1.656-3.978h.693v6.229h-.693v-6.229zm62.452-8.556c0-.819.486-1.341.963-1.674l-.009-.019c-.486-.333-.766-.846-.766-1.342 0-.899.64-1.458 1.369-1.458.837 0 1.251.702 1.251 1.378 0 .513-.243 1.008-.783 1.377v.027c.54.359.936.891.936 1.593 0 .909-.603 1.621-1.503 1.621-.972.001-1.458-.774-1.458-1.503zm2.278-.072c0-.675-.387-1.053-.837-1.35-.468.288-.756.792-.756 1.305 0 .657.297 1.107.801 1.107.432 0 .792-.333.792-1.062zm-1.422-3.007c0 .595.36.892.72 1.126.351-.252.585-.64.585-1.081 0-.566-.234-.944-.657-.944-.387-.001-.648.368-.648.899zm5.58 1.576c0 2.134-.675 3.007-1.521 3.007-.909 0-1.458-1.081-1.458-2.989 0-1.972.585-3.007 1.54-3.007.944 0 1.439 1.125 1.439 2.989zm-2.287.009c0 1.413.243 2.403.819 2.403.549 0 .774-.999.774-2.403 0-1.368-.225-2.403-.783-2.403s-.81.999-.81 2.403zm2.817 2.926v-.45l.495-.675c.693-.964 1.521-2.062 1.521-3.16 0-.648-.288-1.044-.837-1.044-.423 0-.693.225-.846.323l-.171-.521a1.831 1.831 0 0 1 1.143-.396c.973 0 1.396.721 1.396 1.603 0 1.099-.72 2.16-1.44 3.151l-.396.54v.018h1.954v.612h-2.819zm3.618-.451c0-.306.208-.522.459-.522.279 0 .459.207.459.522s-.171.522-.459.522c-.261.001-.459-.206-.459-.522zm1.71-.296c.18.107.495.243.846.243.603 0 1.008-.441 1.008-1.171 0-.765-.477-1.206-1.179-1.206h-.162v-.522h.135c.414-.009 1.053-.324 1.053-1.044 0-.585-.315-.9-.774-.9-.288 0-.54.145-.729.279l-.153-.522c.216-.171.612-.333 1.053-.333.828 0 1.296.595 1.296 1.351 0 .585-.306 1.099-.873 1.368v.019c.522.144 1.026.611 1.026 1.53 0 .954-.612 1.729-1.674 1.729-.378 0-.792-.108-1.026-.271l.153-.55zm-13.886 6.866h-1.521v2.277h1.729v.604h-2.422V110.7h2.314v.603h-1.621v1.999h1.521v.584zm1.727-2.629v1.152h.837v.531h-.837v2.584c0 .567.207.72.459.72.108 0 .198-.009.279-.026l.027.531a1.522 1.522 0 0 1-.513.071c-.27 0-.513-.071-.684-.261-.171-.198-.261-.495-.261-1.099v-2.521h-.531v-.531h.531v-.954l.693-.197zm1.449-.72h.693v2.34h.018a1.23 1.23 0 0 1 .36-.378c.162-.099.333-.162.585-.162.549 0 1.018.441 1.018 1.54v2.89h-.693v-2.809c0-.531-.117-1.035-.585-1.035-.324 0-.567.233-.675.692-.018.1-.027.226-.027.334v2.817h-.693v-6.229zm4.131 4.114c.009 1.332.531 1.62 1.036 1.62.297 0 .549-.072.72-.171l.108.513c-.243.136-.612.207-.955.207-1.044 0-1.584-.854-1.584-2.188 0-1.413.594-2.296 1.468-2.296.891 0 1.242.937 1.242 1.927 0 .162 0 .279-.009.388h-2.026zm1.369-.513c.018-.873-.315-1.261-.648-1.261-.45 0-.684.667-.711 1.261h1.359zm1.403-.604c0-.368-.027-.801-.036-1.125h.622l.036.685h.018c.144-.414.513-.757.918-.757.054 0 .099.01.144.01v.711c-.045-.009-.09-.009-.144-.009-.441 0-.765.404-.837.909a2.65 2.65 0 0 0-.027.396v2.413h-.693v-3.233zm2.241 0c0-.513-.027-.773-.036-1.125h.603l.036.522h.018c.189-.352.54-.595.999-.595.604 0 1.054.45 1.054 1.504v2.926h-.693v-2.809c0-.514-.099-1.035-.603-1.035-.288 0-.567.243-.657.711a2.445 2.445 0 0 0-.027.387v2.746h-.693v-3.232zm4.131 1.117c.009 1.332.531 1.62 1.036 1.62.297 0 .549-.072.72-.171l.108.513c-.243.136-.612.207-.955.207-1.044 0-1.584-.854-1.584-2.188 0-1.413.594-2.296 1.468-2.296.891 0 1.242.937 1.242 1.927 0 .162 0 .279-.009.388h-2.026zm1.368-.513c.018-.873-.315-1.261-.648-1.261-.45 0-.684.667-.711 1.261h1.359zm2.259-2.881v1.152h.837v.531h-.837v2.584c0 .567.207.72.459.72.108 0 .198-.009.279-.026l.027.531a1.522 1.522 0 0 1-.513.071c-.27 0-.513-.071-.684-.261-.171-.198-.261-.495-.261-1.099v-2.521h-.531v-.531h.531v-.954l.693-.197zm13.126-4.922c0-.819.486-1.341.963-1.674l-.009-.019c-.486-.333-.766-.846-.766-1.342 0-.899.639-1.458 1.369-1.458.837 0 1.251.702 1.251 1.378 0 .513-.243 1.008-.783 1.377v.027c.54.359.936.891.936 1.593 0 .909-.603 1.621-1.503 1.621-.972.001-1.458-.774-1.458-1.503zm2.278-.072c0-.675-.387-1.053-.837-1.35-.468.288-.756.792-.756 1.305 0 .657.297 1.107.801 1.107.431 0 .792-.333.792-1.062zm-1.423-3.007c0 .595.36.892.72 1.126.351-.252.585-.64.585-1.081 0-.566-.234-.944-.657-.944-.387-.001-.648.368-.648.899zm5.581 1.576c0 2.134-.675 3.007-1.521 3.007-.91 0-1.458-1.081-1.458-2.989 0-1.972.585-3.007 1.54-3.007.944 0 1.439 1.125 1.439 2.989zm-2.287.009c0 1.413.243 2.403.819 2.403.549 0 .774-.999.774-2.403 0-1.368-.225-2.403-.783-2.403s-.81.999-.81 2.403zm2.817 2.926v-.45l.495-.675c.693-.964 1.521-2.062 1.521-3.16 0-.648-.288-1.044-.837-1.044-.423 0-.693.225-.846.323l-.171-.521a1.831 1.831 0 0 1 1.143-.396c.973 0 1.396.721 1.396 1.603 0 1.099-.72 2.16-1.44 3.151l-.396.54v.018h1.954v.612h-2.819zm3.618-.451c0-.306.207-.522.459-.522.279 0 .459.207.459.522s-.171.522-.459.522c-.261.001-.459-.206-.459-.522zm2.997-4.699h-.018l-.972.558-.135-.54 1.233-.72h.576v5.852h-.685v-5.15zm3.465 0h-.018l-.973.558-.135-.54 1.233-.72h.576v5.852h-.685v-5.15zm2.214 5.15c.009-.252.036-.747.036-1.044v-5.186h.693v2.386h.018c.226-.433.549-.586.918-.586.676 0 1.189.783 1.189 2.206 0 1.575-.648 2.296-1.324 2.296-.459 0-.693-.271-.863-.64h-.027l-.045.567h-.595zm.729-1.539c0 .099 0 .197.027.27.162.648.459.766.648.766.558 0 .756-.757.756-1.684 0-.873-.207-1.647-.766-1.647-.324 0-.594.405-.648.774-.018.099-.018.207-.018.306v1.215zm-14.804 10.539l-1.17-6.067h.72l.513 2.926c.126.765.225 1.44.297 2.188h.036c.072-.766.216-1.423.36-2.197l.559-2.916h.594l.559 2.854c.135.72.27 1.413.351 2.26h.027c.099-.873.207-1.53.324-2.224l.504-2.89h.675l-1.179 6.067h-.675l-.585-2.953a27.794 27.794 0 0 1-.306-1.989h-.018c-.09.685-.189 1.342-.333 2.017l-.603 2.926h-.65zm5.543-5.483c.009.27-.162.45-.423.45-.225 0-.396-.181-.396-.45 0-.271.18-.45.405-.45.252 0 .414.18.414.45zm-.747 5.483v-4.357h.693v4.357h-.693zm3.412-2.621v.54h-1.972v-.54h1.972zm.809-3.447h2.314v.603h-1.621v2.125h1.512v.585h-1.512v2.755h-.693v-6.068zm3.699.585c.009.27-.162.45-.424.45-.225 0-.396-.181-.396-.45 0-.271.181-.45.405-.45.253 0 .415.18.415.45zm-.747 5.483v-4.357h.692v4.357h-.692zm17.986-10.432c0-.819.486-1.341.963-1.674l-.008-.019c-.486-.333-.766-.846-.766-1.342 0-.899.639-1.458 1.368-1.458.837 0 1.251.702 1.251 1.378 0 .513-.242 1.008-.783 1.377v.027c.541.359.937.891.937 1.593 0 .909-.603 1.621-1.503 1.621-.973.001-1.459-.774-1.459-1.503zm2.277-.072c0-.675-.387-1.053-.837-1.35-.468.288-.756.792-.756 1.305 0 .657.297 1.107.801 1.107.433 0 .792-.333.792-1.062zm-1.422-3.007c0 .595.359.892.721 1.126.351-.252.584-.64.584-1.081 0-.566-.233-.944-.656-.944-.388-.001-.649.368-.649.899zm5.58 1.576c0 2.134-.675 3.007-1.521 3.007-.909 0-1.458-1.081-1.458-2.989 0-1.972.585-3.007 1.54-3.007.945 0 1.439 1.125 1.439 2.989zm-2.286.009c0 1.413.243 2.403.819 2.403.549 0 .773-.999.773-2.403 0-1.368-.225-2.403-.783-2.403-.557-.001-.809.999-.809 2.403zm2.816 2.926v-.45l.495-.675c.693-.964 1.521-2.062 1.521-3.16 0-.648-.288-1.044-.838-1.044-.422 0-.692.225-.846.323l-.171-.521a1.832 1.832 0 0 1 1.144-.396c.973 0 1.395.721 1.395 1.603 0 1.099-.72 2.16-1.439 3.151l-.396.54v.018h1.953v.612h-2.818zm3.619-.451c0-.306.207-.522.459-.522.279 0 .459.207.459.522s-.17.522-.459.522c-.261.001-.459-.206-.459-.522zm2.997-4.699h-.019l-.972.558-.135-.54 1.233-.72h.576v5.852h-.685v-5.15zm3.464 0h-.019l-.972.558-.135-.54 1.233-.72h.576v5.852h-.685v-5.15zm4.924.792c-.009.307-.036.693-.036 1.359v2.439c0 1.144-.145 1.576-.432 1.891-.262.298-.676.469-1.162.469-.369 0-.729-.09-.953-.216l.161-.541c.171.091.46.189.811.189.549 0 .892-.342.892-1.332v-.441h-.019a.886.886 0 0 1-.837.531c-.774 0-1.279-.873-1.279-2.152 0-1.602.73-2.269 1.369-2.269.469 0 .684.307.811.567h.018l.036-.495h.62zm-.719 1.504c0-.108-.01-.226-.037-.315-.08-.297-.233-.666-.629-.666-.505 0-.775.675-.775 1.639 0 1.116.352 1.62.775 1.62.207 0 .477-.099.621-.621.035-.135.045-.271.045-.396v-1.261zm-16.066 11.854l-1.171-6.067h.721l.514 2.926c.125.765.225 1.44.297 2.188h.035c.072-.766.217-1.423.36-2.197l.559-2.916h.594l.559 2.854c.135.72.271 1.413.351 2.26h.027c.1-.873.207-1.53.324-2.224l.504-2.89h.676l-1.18 6.067h-.676l-.585-2.953a28.972 28.972 0 0 1-.306-1.989h-.018a25.385 25.385 0 0 1-.334 2.017l-.604 2.926h-.647zm5.544-5.483c.009.27-.162.45-.424.45-.225 0-.396-.181-.396-.45 0-.271.181-.45.405-.45.253 0 .415.18.415.45zm-.747 5.483v-4.357h.692v4.357h-.692zm3.411-2.621v.54h-1.972v-.54h1.972zm.809-3.447h2.314v.603h-1.621v2.125h1.513v.585h-1.513v2.755h-.693v-6.068zm3.7.585c.009.27-.162.45-.423.45-.226 0-.396-.181-.396-.45 0-.271.18-.45.405-.45.252 0 .414.18.414.45zm-.747 5.483v-4.357h.693v4.357h-.693zm17.958-10.432c0-.819.486-1.341.964-1.674l-.01-.019c-.486-.333-.766-.846-.766-1.342 0-.899.64-1.458 1.369-1.458.838 0 1.252.702 1.252 1.378 0 .513-.244 1.008-.783 1.377v.027c.539.359.936.891.936 1.593 0 .909-.604 1.621-1.504 1.621-.972.001-1.458-.774-1.458-1.503zm2.278-.072c0-.675-.388-1.053-.838-1.35-.468.288-.756.792-.756 1.305 0 .657.297 1.107.801 1.107.432 0 .793-.333.793-1.062zm-1.423-3.007c0 .595.36.892.72 1.126.352-.252.586-.64.586-1.081 0-.566-.234-.944-.658-.944-.387-.001-.648.368-.648.899zm5.581 1.576c0 2.134-.676 3.007-1.521 3.007-.91 0-1.459-1.081-1.459-2.989 0-1.972.585-3.007 1.539-3.007.945 0 1.441 1.125 1.441 2.989zm-2.287.009c0 1.413.242 2.403.818 2.403.55 0 .775-.999.775-2.403 0-1.368-.226-2.403-.783-2.403-.558-.001-.81.999-.81 2.403zm2.817 2.926v-.45l.495-.675c.693-.964 1.521-2.062 1.521-3.16 0-.648-.288-1.044-.837-1.044-.424 0-.693.225-.847.323l-.171-.521a1.831 1.831 0 0 1 1.143-.396c.973 0 1.396.721 1.396 1.603 0 1.099-.721 2.16-1.441 3.151l-.396.54v.018h1.954v.612h-2.817zm3.618-.451c0-.306.207-.522.46-.522.278 0 .459.207.459.522s-.172.522-.459.522c-.262.001-.46-.206-.46-.522zm2.997-4.699h-.018l-.973.558-.135-.54 1.233-.72h.576v5.852h-.685v-5.15zm3.465 0h-.018l-.973.558-.135-.54 1.233-.72h.576v5.852h-.685v-5.15zm2.26 1.917c0-.513-.027-.773-.037-1.125h.604l.036.522h.019c.188-.352.539-.595.998-.595.604 0 1.055.45 1.055 1.504v2.926h-.693v-2.809c0-.514-.1-1.035-.604-1.035-.288 0-.567.243-.657.711a2.331 2.331 0 0 0-.027.387v2.746h-.692v-3.232zm-14.094 12.233l-1.17-6.067h.72l.513 2.926c.127.765.226 1.44.297 2.188h.037c.071-.766.215-1.423.359-2.197l.559-2.916h.594l.559 2.854c.135.72.27 1.413.352 2.26h.026c.099-.873.207-1.53.324-2.224l.504-2.89h.675l-1.179 6.067h-.675l-.586-2.953a27.794 27.794 0 0 1-.306-1.989h-.019c-.09.685-.189 1.342-.333 2.017l-.603 2.926h-.648zm5.544-5.483c.009.27-.162.45-.423.45-.226 0-.396-.181-.396-.45 0-.271.18-.45.405-.45.252 0 .414.18.414.45zm-.747 5.483v-4.357h.693v4.357h-.693zm3.411-2.621v.54H228.1v-.54h1.972zm.809-3.447h2.313v.603h-1.62v2.125h1.512v.585h-1.512v2.755h-.693v-6.068zm3.7.585c.009.27-.162.45-.424.45-.225 0-.396-.181-.396-.45 0-.271.181-.45.405-.45.253 0 .415.18.415.45zm-.747 5.483v-4.357h.692v4.357h-.692zm25.473-4.951c0-.306.207-.522.459-.522.279 0 .459.207.459.522s-.171.522-.459.522c-.262.001-.459-.206-.459-.522zm3.158 0c0-.306.207-.522.459-.522.279 0 .459.207.459.522s-.17.522-.459.522c-.26.001-.459-.206-.459-.522zm3.16 0c0-.306.207-.522.46-.522.278 0 .459.207.459.522s-.172.522-.459.522c-.262.001-.46-.206-.46-.522z"/></svg>