<svg xmlns="http://www.w3.org/2000/svg" viewBox="0 0 339.395 165.19"><path fill="#ecbec0" fill-rule="evenodd" d="M3.38 29.265h37.701v25.886H3.38z" clip-rule="evenodd"/><path fill="none" stroke="#000" d="M3.38 29.265h37.701v25.886H3.38z" stroke-linecap="round" stroke-linejoin="round"/><path fill="#ecbec0" fill-rule="evenodd" d="M41.083 29.266h37.698V55.15H41.083z" clip-rule="evenodd"/><path fill="none" stroke="#000" d="M41.083 29.266h37.698V55.15H41.083z" stroke-linecap="round" stroke-linejoin="round"/><path fill="#ecbec0" fill-rule="evenodd" d="M167.38 3.38h77.186v25.886H167.38z" clip-rule="evenodd"/><path fill="none" stroke="#000" d="M167.38 3.38h77.186v25.886H167.38z" stroke-linecap="round" stroke-linejoin="round"/><path fill="#ecbec0" fill-rule="evenodd" d="M244.563 3.381h77.186v25.884h-77.186z" clip-rule="evenodd"/><path fill="none" stroke="#000" d="M244.563 3.381h77.186v25.884h-77.186z" stroke-linecap="round" stroke-linejoin="round"/><path fill="#ecbec0" fill-rule="evenodd" d="M78.782 29.265h62.632v51.772H78.782z" clip-rule="evenodd"/><path fill="none" stroke="#000" d="M78.782 29.265h62.632v51.772H78.782z" stroke-linecap="round" stroke-linejoin="round"/><path fill="#ccc" fill-rule="evenodd" stroke="#000" d="M3.38 55.151h102.367v25.886H3.38z" clip-rule="evenodd" stroke-linecap="round" stroke-linejoin="round"/><path fill="#b2dec7" fill-rule="evenodd" d="M3.38 81.038h138.034v25.886H3.38z" clip-rule="evenodd"/><path fill="none" stroke="#000" d="M3.38 81.038h138.034v25.886H3.38z" stroke-linecap="round" stroke-linejoin="round"/><path fill="#ccc" fill-rule="evenodd" d="M167.38 29.265h77.186v51.771H167.38z" clip-rule="evenodd"/><path fill="none" stroke="#000" d="M167.38 29.265h77.186v51.771H167.38z" stroke-linecap="round" stroke-linejoin="round"/><path fill="#ccc" fill-rule="evenodd" d="M244.565 29.266h77.184v51.771h-77.184z" clip-rule="evenodd"/><path fill="none" stroke="#000" d="M244.565 29.266h77.184v51.771h-77.184z" stroke-linecap="round" stroke-linejoin="round"/><path fill="#b2dec7" fill-rule="evenodd" stroke="#000" d="M194.753 55.151h126.995v25.886H194.753z" clip-rule="evenodd" stroke-linecap="round" stroke-linejoin="round"/><path fill="#fddfbb" fill-rule="evenodd" d="M167.38 81.038h154.369v25.886H167.38z" clip-rule="evenodd"/><path fill="none" stroke="#000" d="M167.38 81.038h154.369v25.886H167.38z" stroke-linecap="round" stroke-linejoin="round"/><path fill="#fddfbb" fill-rule="evenodd" d="M3.38 106.924h138.034v25.886H3.38z" clip-rule="evenodd"/><path fill="none" stroke="#000" d="M3.38 106.924h138.034v25.886H3.38z" stroke-linecap="round" stroke-linejoin="round"/><path fill="#b2d4eb" fill-rule="evenodd" d="M141.414 106.924h191.634v25.886H141.414z" clip-rule="evenodd"/><path fill="none" stroke="#000" d="M141.414 106.924h191.634v25.886H141.414z" stroke-linecap="round" stroke-linejoin="round"/><path fill="#fff" fill-rule="evenodd" d="M3.38 132.81h329.667v25.886H3.38z" clip-rule="evenodd"/><path fill="none" stroke="#000" d="M3.38 132.81h329.667v25.886H3.38z" stroke-linecap="round" stroke-linejoin="round"/><path d="M18.557 45.73l-.671-1.782a27.638 27.638 0 0 1-.462-1.298h-.033l-.44 1.319-.638 1.761h-.869l1.518-3.784-1.474-3.631h.88l.671 1.716c.132.342.264.693.429 1.178h.022c.176-.518.286-.848.407-1.21l.605-1.684h.858l-1.452 3.608 1.529 3.807h-.88zm2.541-7.415v3.18h2.079v-3.18h.847v7.415h-.847v-3.466h-2.079v3.466h-.847v-7.415h.847zm4.245.11c.363-.1.803-.144 1.221-.144.737 0 1.287.154 1.672.528.363.374.517.869.517 1.452 0 .946-.44 1.562-1.188 1.914v.022c.55.165.836.692.99 1.661.176 1.012.319 1.639.429 1.87h-.858c-.11-.22-.253-.924-.396-1.826-.165-1.023-.484-1.397-1.21-1.397h-.33v3.224h-.847v-7.304zm.847 3.421h.352c.814 0 1.353-.594 1.353-1.485 0-.847-.352-1.386-1.265-1.396-.165 0-.33.011-.44.044v2.837zm28.319 2.904a2.29 2.29 0 0 0 1.067.298c.771 0 1.232-.507 1.232-1.255 0-.682-.396-1.1-.979-1.54-.583-.407-1.397-1.101-1.397-2.058 0-1.122.792-1.947 1.958-1.947.462 0 .869.154 1.045.275l-.209.727a1.542 1.542 0 0 0-.88-.254c-.726 0-1.067.551-1.067 1.057 0 .737.385 1.034 1.089 1.529.891.627 1.287 1.309 1.287 2.134 0 1.276-.902 2.08-2.08 2.08-.506 0-1.045-.165-1.254-.33l.188-.716zm3.971 0a2.29 2.29 0 0 0 1.067.298c.771 0 1.232-.507 1.232-1.255 0-.682-.396-1.1-.979-1.54-.583-.407-1.397-1.101-1.397-2.058 0-1.122.792-1.947 1.958-1.947.462 0 .869.154 1.045.275l-.209.727a1.542 1.542 0 0 0-.88-.254c-.726 0-1.067.551-1.067 1.057 0 .737.385 1.034 1.089 1.529.891.627 1.287 1.309 1.287 2.134 0 1.276-.902 2.08-2.08 2.08-.506 0-1.045-.165-1.254-.33l.188-.716zm6.842-2.541h-1.859v2.783h2.112v.737h-2.959v-7.415h2.827v.737h-1.98v2.442h1.859v.716zM171.664 12.54c.407-.1.924-.144 1.408-.144.771 0 1.408.132 1.838.539.418.396.561.892.561 1.508 0 .857-.418 1.529-1.166 1.87v.021c.527.188.792.683.946 1.562.153.902.329 1.694.45 1.947h-1.221c-.088-.209-.253-.936-.374-1.805-.144-.968-.418-1.275-1.013-1.275h-.264v3.08h-1.166V12.54zm1.166 3.322h.309c.704 0 1.145-.55 1.145-1.31 0-.726-.298-1.221-1.057-1.232-.154 0-.297.012-.396.045v2.497zm4.455-2.354h-1.331V12.43h3.839v1.078h-1.33v6.337h-1.178v-6.337zm6.49 6.216c-.22.11-.604.188-1.089.188-1.694 0-2.662-1.387-2.662-3.675 0-2.85 1.507-3.873 2.827-3.873.484 0 .825.1.969.188l-.221 1.001c-.176-.088-.352-.154-.703-.154-.804 0-1.629.737-1.629 2.762 0 1.991.748 2.706 1.639 2.706.275 0 .551-.065.727-.132l.142.989zm.825-7.184a6.165 6.165 0 0 1 1.376-.144c.78 0 1.419.144 1.859.562.396.374.594.946.594 1.584 0 .748-.209 1.254-.55 1.65-.44.517-1.155.77-1.782.77-.121 0-.22 0-.33-.011v2.894H184.6V12.54zm1.167 3.443c.088.021.165.021.286.021.77 0 1.199-.527 1.199-1.375 0-.693-.286-1.276-1.078-1.276-.166 0-.309.022-.407.056v2.574zm4.157 1.496c.012 1.199.562 1.529 1.188 1.529.396 0 .726-.088.957-.188l.177.836c-.342.154-.859.254-1.343.254-1.386 0-2.124-1.002-2.124-2.663 0-1.771.848-2.849 1.992-2.849 1.122 0 1.693 1.022 1.693 2.453 0 .308-.01.483-.032.627h-2.508zm1.453-.835c.01-.858-.275-1.364-.693-1.364-.506 0-.737.737-.76 1.364h1.453zm2.881.835c.012 1.199.562 1.529 1.188 1.529.396 0 .726-.088.957-.188l.177.836c-.342.154-.859.254-1.343.254-1.386 0-2.124-1.002-2.124-2.663 0-1.771.848-2.849 1.992-2.849 1.122 0 1.693 1.022 1.693 2.453 0 .308-.01.483-.032.627h-2.508zm1.453-.835c.01-.858-.275-1.364-.693-1.364-.506 0-.737.737-.76 1.364h1.453zm1.936-.65c0-.495-.022-1.056-.045-1.507h1.023l.066.803h.033c.209-.539.648-.891 1.089-.891.11 0 .176.011.253.021v1.166c-.077-.011-.154-.011-.253-.011-.407 0-.814.341-.946.924a3.094 3.094 0 0 0-.044.506v2.839h-1.177v-3.85zm6.523 3.73c-.221.11-.605.188-1.09.188-1.693 0-2.662-1.387-2.662-3.675 0-2.85 1.508-3.873 2.827-3.873.484 0 .825.1.968.188l-.219 1.001c-.177-.088-.353-.154-.705-.154-.803 0-1.628.737-1.628 2.762 0 1.991.748 2.706 1.64 2.706.274 0 .55-.065.726-.132l.143.989zm2.299.209c-1.133 0-1.914-.946-1.914-2.75 0-1.947.957-2.783 1.957-2.783 1.123 0 1.893.979 1.893 2.75 0 2.167-1.121 2.783-1.925 2.783h-.011zm.043-.903c.584 0 .716-1.056.716-1.87 0-.781-.132-1.859-.737-1.859-.638 0-.759 1.078-.759 1.859 0 .902.153 1.87.771 1.87h.009zm2.761-3.036c0-.605-.022-1.034-.045-1.507h1.023l.055.627h.022c.253-.43.704-.715 1.265-.715.902 0 1.376.692 1.376 1.936v3.51h-1.177v-3.399c0-.539-.111-1.057-.628-1.057-.286 0-.55.221-.659.66-.033.11-.056.286-.056.484v3.312h-1.177v-3.851zm4.774 0c0-.605-.021-1.034-.044-1.507h1.022l.056.627h.022c.252-.43.703-.715 1.265-.715.902 0 1.376.692 1.376 1.936v3.51h-1.178v-3.399c0-.539-.11-1.057-.627-1.057-.286 0-.551.221-.66.66-.033.11-.055.286-.055.484v3.312h-1.178v-3.851zm5.721 1.485c.01 1.199.561 1.529 1.188 1.529.396 0 .727-.088.957-.188l.176.836c-.341.154-.857.254-1.342.254-1.387 0-2.123-1.002-2.123-2.663 0-1.771.847-2.849 1.991-2.849 1.122 0 1.694 1.022 1.694 2.453 0 .308-.012.483-.033.627h-2.508zm1.451-.835c.012-.858-.274-1.364-.693-1.364-.506 0-.736.737-.758 1.364h1.451zm4.752 3.09c-.164.088-.506.177-.902.177-1.275 0-2.123-.946-2.123-2.707 0-1.606.892-2.794 2.311-2.794.319 0 .627.077.771.154l-.177.935c-.121-.044-.308-.121-.571-.121-.759 0-1.155.814-1.155 1.805 0 1.1.439 1.76 1.155 1.76.22 0 .407-.044.571-.121l.12.912zm2.222-6.578v1.331h1.033v.847h-1.033v2.783c0 .66.252.825.55.825.132 0 .241-.011.362-.033l.022.913c-.176.056-.44.089-.771.089-.373 0-.715-.1-.945-.33-.264-.265-.396-.649-.396-1.452v-2.795h-.639v-.847h.639v-.925l1.178-.406zm2.299.615c-.342 0-.617-.274-.617-.682 0-.418.287-.683.628-.683.374 0 .638.265.638.683 0 .407-.264.682-.638.682h-.011zm-.561 6.074v-5.357h1.177v5.357h-1.177zm3.96.088c-1.133 0-1.914-.946-1.914-2.75 0-1.947.957-2.783 1.959-2.783 1.121 0 1.892.979 1.892 2.75 0 2.167-1.122 2.783-1.925 2.783h-.012zm.045-.903c.582 0 .715-1.056.715-1.87 0-.781-.133-1.859-.738-1.859-.637 0-.758 1.078-.758 1.859 0 .902.153 1.87.77 1.87h.011zm2.759-3.036c0-.605-.021-1.034-.044-1.507h1.022l.056.627h.022c.252-.43.703-.715 1.265-.715.902 0 1.376.692 1.376 1.936v3.51h-1.178v-3.399c0-.539-.11-1.057-.627-1.057-.286 0-.551.221-.66.66-.033.11-.055.286-.055.484v3.312h-1.178v-3.851zm19.885-3.454a5.51 5.51 0 0 1 1.32-.144c.859 0 1.475.209 1.915.616.604.539.979 1.507.979 2.992 0 1.596-.396 2.597-.957 3.146-.496.506-1.222.748-2.18.748-.406 0-.813-.032-1.078-.077V12.54zm1.167 6.369c.099.022.209.022.286.022.814 0 1.551-.683 1.551-2.937 0-1.684-.473-2.651-1.496-2.651a1.63 1.63 0 0 0-.341.033v5.533zm7.161-.285c0 .418.011.868.066 1.221h-1.057l-.066-.539h-.021c-.275.407-.672.627-1.133.627-.771 0-1.354-.638-1.354-1.584 0-1.375 1.166-1.958 2.376-1.97v-.143c0-.562-.22-.946-.803-.946-.386 0-.704.11-1.001.297l-.221-.803c.264-.165.826-.385 1.475-.385 1.387 0 1.738.945 1.738 2.09v2.135zm-1.155-1.464c-.462.011-1.287.132-1.287 1.067 0 .605.319.825.583.825.297 0 .572-.198.671-.616.022-.077.033-.176.033-.275V17.16zm3.542-4.004v1.331h1.034v.847h-1.034v2.783c0 .66.253.825.551.825.131 0 .241-.011.362-.033l.022.913c-.176.056-.44.089-.771.089-.374 0-.716-.1-.946-.33-.264-.265-.396-.649-.396-1.452v-2.795h-.638v-.847h.638v-.925l1.178-.406zm5.006 5.468c0 .418.01.868.065 1.221h-1.056l-.066-.539h-.021c-.275.407-.672.627-1.134.627-.771 0-1.353-.638-1.353-1.584 0-1.375 1.166-1.958 2.375-1.97v-.143c0-.562-.219-.946-.803-.946-.385 0-.703.11-1.001.297l-.22-.803c.264-.165.825-.385 1.475-.385 1.386 0 1.738.945 1.738 2.09v2.135zm-1.156-1.464c-.461.011-1.287.132-1.287 1.067 0 .605.319.825.584.825.297 0 .572-.198.67-.616.023-.077.033-.176.033-.275V17.16zm5.764 2.564c-.22.11-.604.188-1.089.188-1.694 0-2.662-1.387-2.662-3.675 0-2.85 1.507-3.873 2.826-3.873.484 0 .826.1.969.188l-.22 1.001c-.177-.088-.353-.154-.704-.154-.803 0-1.629.737-1.629 2.762 0 1.991.748 2.706 1.64 2.706.274 0 .55-.065.726-.132l.143.989zm.714-7.493h1.178v2.816h.021c.121-.187.287-.341.463-.451.197-.121.439-.197.715-.197.848 0 1.32.704 1.32 2.057v3.389h-1.178V16.5c0-.583-.121-1.111-.615-1.111-.309 0-.562.209-.683.66-.022.1-.044.275-.044.407v3.389h-1.178v-7.614zm8.042 6.393c0 .418.011.868.065 1.221h-1.056l-.065-.539h-.022c-.275.407-.671.627-1.134.627-.77 0-1.353-.638-1.353-1.584 0-1.375 1.166-1.958 2.376-1.97v-.143c0-.562-.22-.946-.803-.946-.385 0-.704.11-1.002.297l-.219-.803c.264-.165.824-.385 1.474-.385 1.386 0 1.738.945 1.738 2.09v2.135zm-1.155-1.464c-.462.011-1.287.132-1.287 1.067 0 .605.318.825.583.825.297 0 .572-.198.671-.616a1.09 1.09 0 0 0 .033-.275V17.16zm2.244-1.166c0-.605-.022-1.034-.045-1.507h1.023l.055.627h.022c.253-.43.704-.715 1.265-.715.902 0 1.376.692 1.376 1.936v3.51h-1.177v-3.399c0-.539-.111-1.057-.628-1.057-.286 0-.55.221-.659.66-.033.11-.056.286-.056.484v3.312h-1.177v-3.851zm4.773 0c0-.605-.021-1.034-.044-1.507h1.022l.056.627h.022c.252-.43.703-.715 1.265-.715.902 0 1.376.692 1.376 1.936v3.51h-1.178v-3.399c0-.539-.11-1.057-.627-1.057-.286 0-.551.221-.66.66-.033.11-.055.286-.055.484v3.312h-1.178v-3.851zm5.721 1.485c.01 1.199.561 1.529 1.188 1.529.396 0 .727-.088.957-.188l.176.836c-.341.154-.857.254-1.342.254-1.387 0-2.123-1.002-2.123-2.663 0-1.771.847-2.849 1.991-2.849 1.122 0 1.694 1.022 1.694 2.453 0 .308-.012.483-.033.627h-2.508zm1.451-.835c.012-.858-.274-1.364-.693-1.364-.506 0-.736.737-.758 1.364h1.451zm1.936-4.413h1.178v7.613h-1.178v-7.613zM93.098 45.73l-1.419-7.415h.869l.627 3.575c.165.936.275 1.761.374 2.674h.033c.099-.936.264-1.738.451-2.685l.682-3.564h.715l.693 3.487c.165.88.33 1.728.429 2.762h.033c.121-1.067.253-1.882.385-2.718l.616-3.531h.836l-1.441 7.415h-.836l-.704-3.608a33.895 33.895 0 0 1-.385-2.432h-.022a26.77 26.77 0 0 1-.407 2.465l-.726 3.575h-.803zm6.336-2.585c.011 1.639.649 1.979 1.254 1.979.374 0 .671-.088.88-.197l.143.615c-.297.165-.748.254-1.177.254-1.265 0-1.925-1.034-1.925-2.674 0-1.728.726-2.806 1.793-2.806 1.078 0 1.518 1.145 1.518 2.344 0 .209-.011.352-.022.484h-2.464zm1.672-.628c.011-1.066-.385-1.54-.792-1.54-.55 0-.836.814-.869 1.54h1.661zm1.716-4.4h.847v2.916h.022c.275-.528.671-.716 1.122-.716.836 0 1.452.946 1.452 2.695 0 1.926-.792 2.806-1.606 2.806-.572 0-.858-.33-1.056-.781h-.044l-.055.693h-.726c.011-.308.044-.913.044-1.266v-6.347zm.847 5.743c0 .121.011.23.033.33.198.781.561.924.792.924.682 0 .924-.924.924-2.058 0-1.066-.253-2.013-.936-2.013-.396 0-.715.484-.792.946a4.263 4.263 0 0 0-.022.374v1.497zm3.454.89a2.29 2.29 0 0 0 1.067.298c.771 0 1.232-.507 1.232-1.255 0-.682-.396-1.1-.979-1.54-.583-.407-1.397-1.101-1.397-2.058 0-1.122.792-1.947 1.958-1.947.462 0 .869.154 1.045.275l-.209.727a1.542 1.542 0 0 0-.88-.254c-.726 0-1.067.551-1.067 1.057 0 .737.385 1.034 1.089 1.529.891.627 1.287 1.309 1.287 2.134 0 1.276-.902 2.08-2.08 2.08-.506 0-1.045-.165-1.254-.33l.188-.716zm5.643 1.068c-.957 0-1.727-.869-1.727-2.739 0-1.947.869-2.762 1.782-2.762.957 0 1.716.881 1.716 2.739 0 2.068-.946 2.762-1.76 2.762h-.011zm.044-.671c.726 0 .88-1.243.88-2.079 0-.825-.154-2.079-.902-2.079-.759 0-.902 1.254-.902 2.079 0 .88.154 2.079.914 2.079h.01zm5.269.451c-.187.109-.506.198-.88.198-1.167 0-1.947-.936-1.947-2.695 0-1.529.77-2.772 2.101-2.772.286 0 .594.076.748.176l-.165.682a1.382 1.382 0 0 0-.605-.143c-.858 0-1.232 1.012-1.232 2.058 0 1.243.473 1.991 1.254 1.991.22 0 .418-.044.605-.144l.121.649zm1.562-2.718h.022c.099-.209.187-.418.286-.594l1.056-1.882h.913l-1.408 2.245 1.54 3.08h-.946l-1.155-2.509-.308.495v2.014h-.847v-7.613h.847v4.764zm3.486.265c.011 1.639.649 1.979 1.254 1.979.374 0 .671-.088.88-.197l.143.615c-.297.165-.748.254-1.177.254-1.265 0-1.925-1.034-1.925-2.674 0-1.728.726-2.806 1.793-2.806 1.078 0 1.518 1.145 1.518 2.344 0 .209-.011.352-.022.484h-2.464zm1.673-.628c.011-1.066-.385-1.54-.792-1.54-.55 0-.836.814-.869 1.54h1.661zm2.761-3.355v1.243h1.023v.639h-1.023v3.168c0 .704.242.881.55.881.143 0 .253-.012.341-.033l.044.648a1.827 1.827 0 0 1-.627.089c-.341 0-.638-.089-.836-.319-.22-.242-.319-.605-.319-1.343v-3.091h-.649v-.639h.649v-.901l.847-.342zM34.61 64.201v3.18h2.079v-3.18h.847v7.415h-.847V68.15H34.61v3.466h-.847v-7.415h.847zm5.115.759h-1.354v-.759h3.554v.759h-1.353v6.656h-.847V64.96zm4.015 0h-1.353v-.759h3.553v.759h-1.353v6.656h-.847V64.96zm3.025-.648a4.81 4.81 0 0 1 1.232-.144c.682 0 1.265.165 1.65.539.352.353.539.892.539 1.54 0 .683-.165 1.145-.451 1.519-.396.55-1.089.825-1.749.825-.143 0-.253 0-.374-.011v3.036h-.847v-7.304zm.847 3.564c.099.011.198.021.341.021.825 0 1.386-.55 1.386-1.595 0-.76-.308-1.441-1.254-1.441a1.7 1.7 0 0 0-.473.055v2.96zm6.677-2.553h-.022l-1.188.683-.165-.66 1.507-.881h.693v7.151h-.825v-6.293zm3.256 6.381c-.308 0-.55-.253-.55-.638 0-.374.253-.639.561-.639.33 0 .561.253.561.639 0 .385-.209.638-.561.638h-.011zm2.112-5.413l.495 1.134c.132.308.242.616.352.935h.022c.121-.341.242-.648.363-.935l.473-1.134h.869l-1.265 2.619 1.254 2.706h-.924l-.506-1.199c-.121-.286-.22-.562-.352-.913h-.022c-.11.319-.231.616-.352.913l-.484 1.199h-.87l1.265-2.674-1.221-2.651h.903zm2.76 5.766l2.365-7.943h.638l-2.365 7.943h-.638zm3.355-.441v-.55l.594-.814c.858-1.188 1.859-2.53 1.859-3.872 0-.793-.341-1.276-1.012-1.276-.517 0-.858.274-1.034.396l-.209-.638a2.238 2.238 0 0 1 1.397-.484c1.188 0 1.705.88 1.705 1.959 0 1.342-.88 2.651-1.771 3.85l-.473.66v.022h2.376v.748h-3.432zm4.972.088c-.308 0-.55-.253-.55-.638 0-.374.253-.639.561-.639.33 0 .561.253.561.639 0 .385-.209.638-.561.638h-.011zm3.124 0c-1.111 0-1.782-1.32-1.782-3.652 0-2.409.715-3.675 1.881-3.675 1.155 0 1.76 1.375 1.76 3.652 0 2.607-.825 3.675-1.848 3.675h-.011zm.055-.726c.682 0 .957-1.222.957-2.938 0-1.673-.275-2.938-.957-2.938-.693 0-.99 1.21-.99 2.938-.011 1.727.286 2.938.979 2.938h.011zm-40.47 25.545a2.29 2.29 0 0 0 1.067.298c.771 0 1.232-.507 1.232-1.255 0-.682-.396-1.1-.979-1.54-.583-.407-1.397-1.101-1.397-2.058 0-1.122.792-1.947 1.958-1.947.462 0 .869.154 1.045.275l-.209.727a1.542 1.542 0 0 0-.88-.254c-.726 0-1.067.551-1.067 1.057 0 .737.385 1.034 1.089 1.529.891.627 1.287 1.309 1.287 2.134 0 1.276-.902 2.08-2.08 2.08-.506 0-1.045-.165-1.254-.33l.188-.716zm4.741-1.606c.011 1.639.649 1.979 1.254 1.979.374 0 .671-.088.88-.197l.143.615c-.297.165-.748.254-1.177.254-1.266 0-1.925-1.034-1.925-2.674 0-1.728.726-2.806 1.793-2.806 1.078 0 1.518 1.145 1.518 2.344 0 .209-.011.352-.022.484h-2.464zm1.672-.627c.011-1.066-.385-1.54-.792-1.54-.55 0-.836.814-.869 1.54h1.661zm1.584 2.333c.187.121.517.274.858.274.473 0 .781-.297.781-.77 0-.407-.143-.693-.682-1.045-.693-.451-1.067-.913-1.067-1.519 0-.869.638-1.475 1.463-1.475.418 0 .726.133.946.275l-.22.638a1.214 1.214 0 0 0-.715-.241c-.451 0-.682.329-.682.682 0 .352.132.562.66.913.616.396 1.1.892 1.1 1.628 0 1.067-.726 1.585-1.606 1.585-.385 0-.814-.121-1.045-.309l.209-.636zm3.179 0c.187.121.517.274.858.274.473 0 .781-.297.781-.77 0-.407-.143-.693-.682-1.045-.693-.451-1.067-.913-1.067-1.519 0-.869.638-1.475 1.463-1.475.418 0 .726.133.946.275l-.22.638a1.214 1.214 0 0 0-.715-.241c-.451 0-.682.329-.682.682 0 .352.132.562.66.913.616.396 1.1.892 1.1 1.628 0 1.067-.726 1.585-1.606 1.585-.385 0-.814-.121-1.045-.309l.209-.636zm3.718-5.27c-.275 0-.484-.221-.484-.551s.22-.55.495-.55c.308 0 .506.22.506.55s-.198.551-.506.551h-.011zm-.396 6.149v-5.325h.847v5.325h-.847zm3.52.088c-.957 0-1.727-.869-1.727-2.739 0-1.947.869-2.762 1.782-2.762.957 0 1.716.881 1.716 2.739 0 2.068-.946 2.762-1.76 2.762h-.011zm.044-.671c.726 0 .88-1.243.88-2.079 0-.825-.154-2.079-.902-2.079-.759 0-.902 1.254-.902 2.079 0 .88.154 2.079.914 2.079h.01zm2.673-3.366c0-.628-.033-.946-.044-1.376h.737l.044.639h.022a1.35 1.35 0 0 1 1.221-.727c.737 0 1.287.539 1.287 1.838v3.575h-.847V94.07c0-.638-.121-1.265-.737-1.265-.352 0-.693.297-.792.869-.033.12-.044.285-.044.473v3.355h-.847v-3.949zm8.096-3.664c-.627.99-1.144 2.476-1.144 4.478 0 1.97.517 3.455 1.144 4.456h-.66c-.572-.836-1.199-2.311-1.199-4.467.022-2.156.627-3.642 1.199-4.467h.66zm1.925.957h-1.354v-.759h3.554v.759h-1.353v6.656h-.847v-6.656zm3.024-.759h.847v6.7h2.079v.715h-2.926v-7.415zm3.619 6.436a2.29 2.29 0 0 0 1.067.298c.771 0 1.232-.507 1.232-1.255 0-.682-.396-1.1-.979-1.54-.583-.407-1.397-1.101-1.397-2.058 0-1.122.792-1.947 1.958-1.947.462 0 .869.154 1.045.275l-.209.727a1.542 1.542 0 0 0-.88-.254c-.726 0-1.067.551-1.067 1.057 0 .737.385 1.034 1.089 1.529.891.627 1.287 1.309 1.287 2.134 0 1.276-.902 2.08-2.08 2.08-.506 0-1.045-.165-1.254-.33l.188-.716zm3.751 2.3c.627-.99 1.145-2.497 1.145-4.478s-.517-3.466-1.145-4.456h.66c.572.814 1.199 2.277 1.199 4.456-.022 2.178-.627 3.63-1.199 4.478h-.66zm6.974-4.522v.648h-2.409v-.648h2.409zm4.147 3.289c-.957 0-1.727-.869-1.727-2.739 0-1.947.869-2.762 1.782-2.762.957 0 1.716.881 1.716 2.739 0 2.068-.946 2.762-1.76 2.762h-.011zm.044-.671c.726 0 .88-1.243.88-2.079 0-.825-.154-2.079-.902-2.079-.759 0-.902 1.254-.902 2.079 0 .88.154 2.079.914 2.079h.01zm2.661-3.08c0-.814-.033-1.288-.044-1.662h.759l.044.672h.022c.286-.562.715-.76 1.122-.76.935 0 1.54.979 1.54 2.739 0 1.98-.814 2.762-1.639 2.762-.506 0-.792-.308-.935-.604h-.022v2.629h-.847v-5.776zm.847 1.716c0 .154.011.308.044.44.165.759.539.891.77.891.704 0 .936-.968.936-2.035 0-1.111-.264-2.035-.936-2.035-.385 0-.737.484-.781.968-.033.132-.033.265-.033.407v1.364zm4.588-4.621v1.243h1.023v.639h-1.023v3.168c0 .704.242.881.55.881.143 0 .253-.012.341-.033l.044.648a1.827 1.827 0 0 1-.627.089c-.341 0-.638-.089-.836-.319-.22-.242-.319-.605-.319-1.343v-3.091h-.649v-.639h.649v-.901l.847-.342zm2.166.419c-.275 0-.484-.221-.484-.551s.22-.55.495-.55c.308 0 .506.22.506.55s-.198.551-.506.551h-.011zm-.396 6.149v-5.325h.847v5.325h-.847zm3.52.088c-.957 0-1.727-.869-1.727-2.739 0-1.947.869-2.762 1.782-2.762.957 0 1.716.881 1.716 2.739 0 2.068-.946 2.762-1.76 2.762h-.011zm.044-.671c.726 0 .88-1.243.88-2.079 0-.825-.154-2.079-.902-2.079-.759 0-.902 1.254-.902 2.079 0 .88.154 2.079.914 2.079h.01zm2.673-3.366c0-.628-.033-.946-.044-1.376h.737l.044.639h.022a1.35 1.35 0 0 1 1.221-.727c.737 0 1.287.539 1.287 1.838v3.575h-.847V94.07c0-.638-.121-1.265-.737-1.265-.352 0-.693.297-.792.869-.033.12-.044.285-.044.473v3.355h-.847v-3.949zm7.26 2.739c0 .407 0 .869.055 1.21h-.759l-.055-.562h-.033c-.231.407-.605.649-1.056.649-.715 0-1.265-.594-1.265-1.519 0-1.342 1.067-1.925 2.266-1.936v-.165c0-.716-.176-1.21-.847-1.21-.33 0-.627.099-.88.274l-.187-.594c.231-.165.715-.353 1.243-.353 1.067 0 1.518.704 1.518 1.893v2.313zm-.825-1.551c-.44 0-1.463.088-1.463 1.243 0 .704.352.946.649.946.374 0 .682-.274.781-.803.022-.1.033-.209.033-.309v-1.077zm2.024-4.852h.847v7.613h-.847v-7.613zm87.205-45.414c.275.165.76.297 1.145.297.727 0 1.122-.418 1.122-1.034 0-.594-.363-.936-.968-1.354-.826-.527-1.397-1.265-1.397-2.068 0-1.155.78-2.068 2.167-2.068.473 0 .902.144 1.1.265l-.209 1.012a1.7 1.7 0 0 0-.912-.253c-.672 0-.99.451-.99.902 0 .572.297.836 1.056 1.32.936.616 1.31 1.331 1.31 2.123 0 1.331-.946 2.179-2.277 2.179-.551 0-1.111-.154-1.342-.309l.195-1.012zm4.334-6.051c.407-.1.924-.144 1.408-.144.771 0 1.408.132 1.838.539.418.396.561.892.561 1.508 0 .857-.418 1.529-1.166 1.87v.021c.527.188.792.683.946 1.562.153.902.329 1.694.45 1.947h-1.221c-.088-.209-.253-.936-.374-1.805-.144-.968-.418-1.275-1.013-1.275h-.264v3.08h-1.166v-7.303zm1.166 3.322h.309c.704 0 1.145-.55 1.145-1.31 0-.726-.298-1.221-1.057-1.232-.154 0-.297.012-.396.045v2.497zm4.455-2.354h-1.331v-1.078h3.839v1.078h-1.33v6.337h-1.178v-6.337zm3.311-.968a6.165 6.165 0 0 1 1.376-.144c.78 0 1.419.144 1.859.562.396.374.594.946.594 1.584 0 .748-.209 1.254-.55 1.65-.44.517-1.155.77-1.782.77-.121 0-.22 0-.33-.011v2.894h-1.167v-7.305zm1.167 3.443c.088.021.165.021.286.021.77 0 1.199-.527 1.199-1.375 0-.693-.286-1.276-1.078-1.276-.166 0-.309.022-.407.056v2.574zm-3.329 28.77a2.29 2.29 0 0 0 1.066.298c.771 0 1.232-.507 1.232-1.255 0-.682-.396-1.1-.979-1.54-.583-.407-1.397-1.101-1.397-2.058 0-1.122.792-1.947 1.958-1.947.463 0 .869.154 1.045.275l-.209.727a1.538 1.538 0 0 0-.879-.254c-.727 0-1.068.551-1.068 1.057 0 .737.386 1.034 1.09 1.529.891.627 1.287 1.309 1.287 2.134 0 1.276-.902 2.08-2.08 2.08-.506 0-1.045-.165-1.254-.33l.188-.716zm4.74-1.606c.012 1.639.65 1.979 1.255 1.979.374 0 .671-.088.88-.197l.143.615c-.297.165-.748.254-1.177.254-1.265 0-1.925-1.034-1.925-2.674 0-1.728.727-2.806 1.793-2.806 1.078 0 1.518 1.145 1.518 2.344 0 .209-.01.352-.021.484h-2.466zm1.673-.628c.011-1.066-.385-1.54-.792-1.54-.551 0-.836.814-.869 1.54h1.661zm1.583 2.333c.188.121.518.274.858.274.474 0 .781-.297.781-.77 0-.407-.144-.693-.683-1.045-.692-.451-1.066-.913-1.066-1.519 0-.869.638-1.475 1.463-1.475a1.7 1.7 0 0 1 .946.275l-.22.638a1.217 1.217 0 0 0-.715-.241c-.451 0-.683.329-.683.682 0 .352.132.562.66.913.616.396 1.101.892 1.101 1.628 0 1.067-.727 1.585-1.607 1.585-.385 0-.813-.121-1.045-.309l.21-.636zm3.179 0c.188.121.518.274.857.274.474 0 .781-.297.781-.77 0-.407-.143-.693-.682-1.045-.693-.451-1.067-.913-1.067-1.519 0-.869.638-1.475 1.464-1.475.418 0 .726.133.945.275l-.22.638a1.214 1.214 0 0 0-.715-.241c-.451 0-.683.329-.683.682 0 .352.133.562.66.913.616.396 1.101.892 1.101 1.628 0 1.067-.726 1.585-1.606 1.585-.385 0-.814-.121-1.045-.309l.21-.636zm3.718-5.269c-.274 0-.484-.221-.484-.551s.22-.55.495-.55c.309 0 .506.22.506.55s-.197.551-.506.551h-.011zm-.395 6.149v-5.325h.847v5.325h-.847zm3.519.088c-.957 0-1.727-.869-1.727-2.739 0-1.947.868-2.762 1.781-2.762.957 0 1.717.881 1.717 2.739 0 2.068-.946 2.762-1.761 2.762h-.01zm.044-.671c.726 0 .88-1.243.88-2.079 0-.825-.154-2.079-.902-2.079-.759 0-.902 1.254-.902 2.079 0 .88.154 2.079.914 2.079h.01zm2.673-3.366c0-.628-.033-.946-.044-1.376h.737l.043.639h.022a1.35 1.35 0 0 1 1.222-.727c.736 0 1.287.539 1.287 1.838v3.575h-.848v-3.433c0-.638-.121-1.265-.736-1.265-.353 0-.693.297-.793.869-.033.12-.043.285-.043.473v3.355h-.848v-3.948zm8.096-3.664c-.627.99-1.144 2.476-1.144 4.478 0 1.97.517 3.455 1.144 4.456h-.66c-.571-.836-1.199-2.311-1.199-4.467.022-2.156.628-3.642 1.199-4.467h.66zm.924.309a5.51 5.51 0 0 1 1.32-.144c.858 0 1.475.209 1.914.616.605.539.979 1.507.979 2.992 0 1.596-.396 2.597-.957 3.146-.495.506-1.222.748-2.179.748-.406 0-.814-.032-1.078-.077v-7.281zm1.166 6.369c.1.022.209.022.286.022.814 0 1.552-.683 1.552-2.938 0-1.684-.473-2.651-1.496-2.651-.121 0-.242.011-.342.033v5.534zm4.664-5.402h-1.331v-1.078h3.839v1.078h-1.33v6.337h-1.178v-6.337zm3.31-1.078h1.178v6.425h1.98v.99h-3.158v-7.415zm3.839 6.161c.275.165.759.297 1.145.297.726 0 1.122-.418 1.122-1.034 0-.594-.363-.936-.969-1.354-.824-.527-1.396-1.265-1.396-2.068 0-1.155.781-2.068 2.167-2.068.474 0 .902.144 1.101.265l-.209 1.012a1.705 1.705 0 0 0-.914-.253c-.67 0-.99.451-.99.902 0 .572.298.836 1.057 1.32.936.616 1.31 1.331 1.31 2.123 0 1.331-.946 2.179-2.277 2.179-.55 0-1.111-.154-1.343-.309l.196-1.012zm3.96 2.575c.628-.99 1.145-2.497 1.145-4.478s-.517-3.466-1.145-4.456h.66c.572.814 1.199 2.277 1.199 4.456-.021 2.178-.627 3.63-1.199 4.478h-.66zm6.975-4.522v.648h-2.409v-.648h2.409zm2.65-.748c0-.628-.033-.946-.043-1.376h.748l.043.649h.022c.231-.429.627-.737 1.188-.737.494 0 .924.231 1.121.804h.022c.144-.265.33-.474.517-.605.221-.132.463-.198.738-.198.726 0 1.287.518 1.287 1.882v3.531h-.848v-3.345c0-.692-.099-1.364-.736-1.364-.353 0-.66.297-.781.804-.033.132-.033.297-.033.473v3.433h-.848V68.12c0-.584-.099-1.211-.727-1.211-.352 0-.692.297-.791.869a2.796 2.796 0 0 0-.033.451v3.389h-.848v-3.951zm9.625 2.739c0 .407 0 .869.056 1.21h-.759l-.056-.562h-.032c-.231.407-.605.649-1.057.649-.715 0-1.266-.594-1.266-1.519 0-1.342 1.067-1.925 2.267-1.936v-.165c0-.716-.176-1.21-.847-1.21-.33 0-.627.099-.881.274l-.187-.594c.231-.165.715-.353 1.243-.353 1.066 0 1.518.704 1.518 1.893v2.313zm-.824-1.552c-.44 0-1.463.088-1.463 1.243 0 .704.352.946.648.946.374 0 .682-.274.781-.803.021-.1.033-.209.033-.309v-1.077zm2.023-1.187c0-.628-.033-.946-.044-1.376h.737l.043.639h.022a1.35 1.35 0 0 1 1.222-.727c.736 0 1.287.539 1.287 1.838v3.575h-.848v-3.433c0-.638-.121-1.265-.736-1.265-.353 0-.693.297-.793.869-.033.12-.043.285-.043.473v3.355h-.848v-3.948zm7.668-3.664v6.337c0 .363.032.969.043 1.276h-.726l-.056-.66h-.043c-.166.374-.551.748-1.111.748-.902 0-1.551-.968-1.551-2.729 0-1.892.78-2.772 1.605-2.772.385 0 .76.177.969.627h.021v-2.827h.849zm-.847 4.312c0-.109 0-.23-.012-.352-.043-.55-.385-1.034-.791-1.034-.705 0-.947.979-.947 2.046 0 1.122.287 2.024.902 2.024.265 0 .627-.143.814-.913.033-.099.033-.22.033-.352v-1.419zm4.828 2.091c0 .407 0 .869.056 1.21h-.759l-.056-.562h-.032c-.231.407-.605.649-1.057.649-.715 0-1.266-.594-1.266-1.519 0-1.342 1.067-1.925 2.267-1.936v-.165c0-.716-.176-1.21-.847-1.21-.33 0-.627.099-.881.274l-.187-.594c.231-.165.715-.353 1.243-.353 1.066 0 1.518.704 1.518 1.893v2.313zm-.825-1.552c-.44 0-1.463.088-1.463 1.243 0 .704.352.946.648.946.374 0 .682-.274.781-.803.021-.1.033-.209.033-.309v-1.077zm2.959-3.806v1.243h1.023v.639h-1.023v3.168c0 .704.242.881.55.881.144 0 .253-.012.341-.033l.045.648a1.833 1.833 0 0 1-.628.089c-.341 0-.638-.089-.836-.319-.22-.242-.319-.605-.319-1.343V66.93h-.648v-.639h.648v-.901l.847-.342zm3.179 6.656c-.957 0-1.728-.869-1.728-2.739 0-1.947.869-2.762 1.783-2.762.957 0 1.715.881 1.715 2.739 0 2.068-.945 2.762-1.76 2.762h-.01zm.044-.671c.727 0 .881-1.243.881-2.079 0-.825-.154-2.079-.902-2.079-.76 0-.902 1.254-.902 2.079 0 .88.154 2.079.913 2.079h.01zm2.662-3.366c0-.451-.033-.979-.045-1.376h.76l.044.837h.022c.176-.507.627-.925 1.121-.925a.83.83 0 0 1 .177.012v.869c-.056-.012-.11-.012-.177-.012-.539 0-.935.495-1.022 1.111a3.146 3.146 0 0 0-.033.484v2.948h-.847v-3.948zm3.465-1.376l.703 3.059c.1.418.144.76.221 1.101h.021c.055-.309.144-.704.231-1.089l.627-3.07h.836l-.869 3.422c-.329 1.331-.692 2.618-1.319 3.433-.375.473-.771.715-.958.803l-.308-.715c.242-.143.518-.374.748-.671a3.32 3.32 0 0 0 .484-.902.723.723 0 0 0 .055-.264c0-.066 0-.133-.021-.198l-1.343-4.907h.892zm-84.148 23.796v7.415h-1.178v-7.415h1.178zm4.718 7.294c-.221.11-.605.188-1.09.188-1.693 0-2.662-1.387-2.662-3.675 0-2.85 1.508-3.873 2.828-3.873.484 0 .824.1.968.188l-.22 1.001c-.176-.088-.352-.154-.704-.154-.804 0-1.628.737-1.628 2.762 0 1.991.748 2.706 1.639 2.706.275 0 .551-.065.727-.132l.142.989zm3.762-3.257h-1.76v2.354h2.002v1.023h-3.18v-7.415h3.048v1.023h-1.87v2.035h1.76v.98zm.703 4.753c.275-.792.572-1.947.693-2.761l1.232-.11c-.297.946-.759 2.123-1.154 2.783l-.771.088zm4.445-2.628c.275.165.759.297 1.145.297.726 0 1.122-.418 1.122-1.034 0-.594-.363-.936-.969-1.354-.824-.527-1.396-1.265-1.396-2.068 0-1.155.781-2.068 2.167-2.068.474 0 .902.144 1.101.265l-.209 1.012a1.705 1.705 0 0 0-.914-.253c-.67 0-.99.451-.99.902 0 .572.298.836 1.057 1.32.936.616 1.31 1.331 1.31 2.123 0 1.331-.946 2.179-2.277 2.179-.55 0-1.111-.154-1.343-.309l.196-1.012zm5.159-5.083h-1.331v-1.078h3.839v1.078h-1.33v6.337h-1.178v-6.337zm4.455-1.079v4.885c0 1.199.374 1.584.836 1.584.518 0 .857-.374.857-1.584v-4.885h1.178v4.687c0 1.914-.759 2.816-2.035 2.816-1.354 0-2.014-.924-2.014-2.762v-4.741h1.178zm4.146 7.415v-7.415h1.078l1.254 3.168c.265.672.639 1.629.869 2.344h.022a48.568 48.568 0 0 1-.132-3.41v-2.102h1.034v7.415h-1.078l-1.266-3.157c-.274-.683-.604-1.573-.813-2.354h-.022c.056.858.088 1.903.088 3.443v2.068h-1.034zm4.928 1.375c.275-.792.572-1.947.693-2.761l1.232-.11c-.297.946-.76 2.123-1.155 2.783l-.77.088zm5.192-7.711h-1.331v-1.078h3.84v1.078h-1.332v6.337h-1.177v-6.337zm4.456-1.079v4.885c0 1.199.374 1.584.836 1.584.517 0 .858-.374.858-1.584v-4.885h1.177v4.687c0 1.914-.759 2.816-2.035 2.816-1.353 0-2.013-.924-2.013-2.762v-4.741h1.177zm4.146.111c.407-.1.925-.144 1.408-.144.771 0 1.408.132 1.837.539.418.396.562.892.562 1.508 0 .857-.418 1.529-1.166 1.87v.021c.528.188.792.683.946 1.562.154.902.33 1.694.451 1.947h-1.222c-.088-.209-.253-.936-.374-1.805-.143-.968-.418-1.275-1.012-1.275h-.264v3.08h-1.167v-7.303zm1.167 3.322h.308c.704 0 1.144-.55 1.144-1.31 0-.726-.297-1.221-1.056-1.232-.154 0-.298.012-.396.045v2.497zm3.705 3.982v-7.415h1.078l1.255 3.168c.265.672.638 1.629.869 2.344h.022a47.902 47.902 0 0 1-.133-3.41v-2.102h1.035v7.415h-1.079l-1.265-3.157c-.275-.683-.605-1.573-.814-2.354h-.021c.055.858.088 1.903.088 3.443v2.068h-1.035zm4.908-53.026c.275.165.76.297 1.145.297.727 0 1.123-.418 1.123-1.034 0-.594-.363-.936-.969-1.354-.825-.527-1.396-1.265-1.396-2.068 0-1.155.78-2.068 2.166-2.068.474 0 .902.144 1.101.265l-.209 1.012a1.7 1.7 0 0 0-.913-.253c-.671 0-.99.451-.99.902 0 .572.297.836 1.057 1.32.936.616 1.309 1.331 1.309 2.123 0 1.331-.945 2.179-2.277 2.179-.55 0-1.111-.154-1.342-.309l.195-1.012zm7.745 1.133c-.22.11-.604.188-1.089.188-1.694 0-2.662-1.387-2.662-3.675 0-2.85 1.507-3.873 2.826-3.873.484 0 .826.1.969.188l-.22 1.001c-.177-.088-.353-.154-.704-.154-.803 0-1.629.737-1.629 2.762 0 1.991.748 2.706 1.64 2.706.274 0 .55-.065.726-.132l.143.989zm1.837-6.216h-1.332v-1.078h3.84v1.078h-1.331v6.337h-1.177v-6.337zm3.311-.968a6.135 6.135 0 0 1 1.375-.144c.781 0 1.419.144 1.859.562.396.374.594.946.594 1.584 0 .748-.209 1.254-.55 1.65-.44.517-1.155.77-1.782.77-.121 0-.221 0-.33-.011v2.894h-1.166v-7.305zm1.166 3.444c.088.021.165.021.285.021.771 0 1.199-.527 1.199-1.375 0-.693-.285-1.276-1.078-1.276-.164 0-.308.022-.406.056v2.574zM48.237 116.732h-1.353v-.759h3.553v.759h-1.353v6.656h-.847v-6.656zm2.354 2.707c0-.451-.033-.979-.044-1.376h.759l.044.837h.022c.176-.507.627-.925 1.122-.925.066 0 .121 0 .176.012v.869c-.055-.012-.11-.012-.176-.012-.539 0-.935.495-1.023 1.111a3.146 3.146 0 0 0-.033.484v2.948h-.847v-3.948zm5.478 2.74c0 .407 0 .869.055 1.21h-.759l-.055-.562h-.033c-.231.407-.605.649-1.056.649-.715 0-1.265-.594-1.265-1.519 0-1.342 1.067-1.925 2.266-1.936v-.165c0-.716-.176-1.21-.847-1.21-.33 0-.627.099-.88.274l-.187-.594c.231-.165.715-.353 1.243-.353 1.067 0 1.518.704 1.518 1.893v2.313zm-.825-1.552c-.44 0-1.463.088-1.463 1.243 0 .704.352.946.649.946.374 0 .682-.274.781-.803.022-.1.033-.209.033-.309v-1.077zm2.024-1.188c0-.628-.033-.946-.044-1.376h.737l.044.639h.022a1.35 1.35 0 0 1 1.221-.727c.737 0 1.287.539 1.287 1.838v3.575h-.847v-3.433c0-.638-.121-1.265-.737-1.265-.352 0-.693.297-.792.869-.033.12-.044.285-.044.473v3.355h-.847v-3.948zm4.312 3.07c.187.121.517.274.858.274.473 0 .781-.297.781-.77 0-.407-.143-.693-.682-1.045-.693-.451-1.067-.913-1.067-1.519 0-.869.638-1.475 1.463-1.475.418 0 .726.133.946.275l-.22.638a1.214 1.214 0 0 0-.715-.241c-.451 0-.682.329-.682.682 0 .352.132.562.66.913.616.396 1.1.892 1.1 1.628 0 1.067-.726 1.585-1.606 1.585-.385 0-.814-.121-1.045-.309l.209-.636zm3.311-2.783c0-.814-.033-1.288-.044-1.662h.759l.044.672h.022c.286-.562.715-.76 1.122-.76.935 0 1.54.979 1.54 2.739 0 1.98-.814 2.762-1.639 2.762-.506 0-.792-.308-.935-.604h-.022v2.629h-.847v-5.776zm.847 1.715c0 .154.011.308.044.44.165.759.539.891.77.891.704 0 .936-.968.936-2.035 0-1.111-.264-2.035-.936-2.035-.385 0-.737.484-.781.968-.033.132-.033.265-.033.407v1.364zm5.049 2.036c-.957 0-1.727-.869-1.727-2.739 0-1.947.869-2.762 1.782-2.762.957 0 1.716.881 1.716 2.739 0 2.068-.946 2.762-1.76 2.762h-.011zm.044-.671c.726 0 .88-1.243.88-2.079 0-.825-.154-2.079-.902-2.079-.759 0-.902 1.254-.902 2.079 0 .88.154 2.079.914 2.079h.01zm2.662-3.367c0-.451-.033-.979-.044-1.376h.759l.044.837h.022c.176-.507.627-.925 1.122-.925.066 0 .121 0 .176.012v.869c-.055-.012-.11-.012-.176-.012-.539 0-.935.495-1.023 1.111a3.146 3.146 0 0 0-.033.484v2.948h-.847v-3.948zm4.037-2.619v1.243h1.023v.639H77.53v3.168c0 .704.242.881.55.881.143 0 .253-.012.341-.033l.044.648a1.827 1.827 0 0 1-.627.089c-.341 0-.638-.089-.836-.319-.22-.242-.319-.605-.319-1.343v-3.091h-.649v-.639h.649v-.901l.847-.342zm5.411-1.045c-.627.99-1.144 2.476-1.144 4.478 0 1.97.517 3.455 1.144 4.456h-.66c-.572-.836-1.199-2.311-1.199-4.467.022-2.156.627-3.642 1.199-4.467h.66zm1.925.957h-1.353v-.759h3.553v.759h-1.353v6.656h-.847v-6.656zm5.919 6.525c-.231.121-.605.198-1.067.198-1.441 0-2.486-1.155-2.486-3.675 0-2.938 1.452-3.873 2.629-3.873.44 0 .77.088.913.188l-.187.715a1.567 1.567 0 0 0-.737-.154c-.792 0-1.727.771-1.727 3.037 0 2.277.836 3.015 1.75 3.015.319 0 .594-.077.77-.154l.142.703zm.857-7.173a4.81 4.81 0 0 1 1.232-.144c.682 0 1.265.165 1.65.539.352.353.539.892.539 1.54 0 .683-.165 1.145-.451 1.519-.396.55-1.089.825-1.749.825-.143 0-.253 0-.374-.011v3.036h-.847v-7.304zm.847 3.564c.099.011.198.021.341.021.825 0 1.386-.55 1.386-1.595 0-.76-.308-1.441-1.254-1.441a1.7 1.7 0 0 0-.473.055v2.96zm3.091 5.061c.627-.99 1.145-2.497 1.145-4.478s-.517-3.466-1.145-4.456h.66c.572.814 1.199 2.277 1.199 4.456-.022 2.178-.627 3.63-1.199 4.478h-.66zm115.934-7.977h-1.353v-.759h3.554v.759h-1.354v6.656h-.848v-6.656zm2.353 2.707c0-.451-.032-.979-.043-1.376h.759l.044.837h.021c.176-.507.627-.925 1.123-.925.065 0 .121 0 .176.012v.869c-.055-.012-.11-.012-.176-.012-.539 0-.936.495-1.023 1.111a3.277 3.277 0 0 0-.033.484v2.948h-.848v-3.948zm5.479 2.74c0 .407 0 .869.056 1.21h-.759l-.056-.562h-.032c-.231.407-.605.649-1.057.649-.715 0-1.266-.594-1.266-1.519 0-1.342 1.067-1.925 2.267-1.936v-.165c0-.716-.176-1.21-.847-1.21-.33 0-.627.099-.881.274l-.187-.594c.231-.165.715-.353 1.243-.353 1.066 0 1.518.704 1.518 1.893v2.313zm-.824-1.552c-.44 0-1.463.088-1.463 1.243 0 .704.352.946.648.946.374 0 .682-.274.781-.803.021-.1.033-.209.033-.309v-1.077zm2.023-1.188c0-.628-.033-.946-.044-1.376h.737l.043.639h.022a1.35 1.35 0 0 1 1.222-.727c.736 0 1.287.539 1.287 1.838v3.575h-.848v-3.433c0-.638-.121-1.265-.736-1.265-.353 0-.693.297-.793.869-.033.12-.043.285-.043.473v3.355h-.848v-3.948zm4.312 3.07c.187.121.517.274.857.274.473 0 .781-.297.781-.77 0-.407-.143-.693-.682-1.045-.693-.451-1.068-.913-1.068-1.519 0-.869.639-1.475 1.464-1.475.418 0 .726.133.946.275l-.221.638a1.214 1.214 0 0 0-.715-.241c-.451 0-.682.329-.682.682 0 .352.132.562.66.913.615.396 1.1.892 1.1 1.628 0 1.067-.726 1.585-1.605 1.585-.385 0-.814-.121-1.045-.309l.21-.636zm3.311-2.783c0-.814-.033-1.288-.045-1.662h.76l.044.672h.022c.285-.562.715-.76 1.121-.76.936 0 1.541.979 1.541 2.739 0 1.98-.814 2.762-1.64 2.762-.506 0-.792-.308-.935-.604h-.022v2.629h-.847v-5.776zm.847 1.715c0 .154.011.308.044.44.165.759.539.891.77.891.705 0 .936-.968.936-2.035 0-1.111-.264-2.035-.936-2.035-.385 0-.736.484-.78.968-.033.132-.033.265-.033.407v1.364zm5.049 2.036c-.957 0-1.728-.869-1.728-2.739 0-1.947.869-2.762 1.782-2.762.957 0 1.716.881 1.716 2.739 0 2.068-.946 2.762-1.761 2.762h-.009zm.043-.671c.727 0 .881-1.243.881-2.079 0-.825-.154-2.079-.902-2.079-.76 0-.902 1.254-.902 2.079 0 .88.154 2.079.914 2.079h.009zm2.663-3.367c0-.451-.033-.979-.044-1.376h.759l.045.837h.021c.176-.507.627-.925 1.122-.925.065 0 .121 0 .177.012v.869c-.056-.012-.111-.012-.177-.012-.539 0-.935.495-1.022 1.111a3.146 3.146 0 0 0-.033.484v2.948h-.848v-3.948zm4.037-2.619v1.243h1.023v.639h-1.023v3.168c0 .704.242.881.55.881.144 0 .253-.012.341-.033l.045.648a1.833 1.833 0 0 1-.628.089c-.341 0-.638-.089-.836-.319-.22-.242-.319-.605-.319-1.343v-3.091h-.648v-.639h.648v-.901l.847-.342zm5.412-1.045c-.627.99-1.145 2.476-1.145 4.478 0 1.97.518 3.455 1.145 4.456h-.66c-.572-.836-1.199-2.311-1.199-4.467.021-2.156.627-3.642 1.199-4.467h.66zm2.067.199v4.885c0 1.199.374 1.584.836 1.584.517 0 .858-.374.858-1.584v-4.885h1.177v4.687c0 1.914-.759 2.816-2.035 2.816-1.353 0-2.013-.924-2.013-2.762v-4.741h1.177zm4.147.11a5.503 5.503 0 0 1 1.32-.144c.858 0 1.474.209 1.915.616.604.539.979 1.507.979 2.992 0 1.596-.396 2.597-.957 3.146-.495.506-1.221.748-2.179.748-.407 0-.813-.032-1.078-.077v-7.281zm1.167 6.369c.098.022.209.022.285.022.814 0 1.551-.683 1.551-2.938 0-1.684-.473-2.651-1.496-2.651-.121 0-.242.011-.34.033v5.534zm4.003-6.369a6.151 6.151 0 0 1 1.376-.144c.78 0 1.418.144 1.859.562.396.374.594.946.594 1.584 0 .748-.209 1.254-.551 1.65-.439.517-1.154.77-1.781.77-.121 0-.221 0-.33-.011v2.894h-1.167v-7.305zm1.167 3.443c.088.021.164.021.285.021.771 0 1.199-.527 1.199-1.375 0-.693-.285-1.276-1.078-1.276-.165 0-.309.022-.406.056v2.574zm3.199 5.182c.628-.99 1.145-2.497 1.145-4.478s-.517-3.466-1.145-4.456h.66c.572.814 1.199 2.277 1.199 4.456-.021 2.178-.627 3.63-1.199 4.478h-.66zm-115.875 24.566v-7.415h1.078l1.254 3.168c.264.672.638 1.629.869 2.344h.022a47.965 47.965 0 0 1-.132-3.41v-2.102h1.034v7.415h-1.078l-1.266-3.157c-.275-.683-.605-1.573-.814-2.354h-.022c.055.858.088 1.903.088 3.443v2.068h-1.033zm6.215-2.365c.011 1.199.561 1.529 1.188 1.529.396 0 .726-.088.957-.188l.176.836c-.341.154-.858.254-1.342.254-1.386 0-2.124-1.002-2.124-2.663 0-1.771.847-2.849 1.992-2.849 1.122 0 1.694 1.022 1.694 2.453 0 .308-.011.483-.033.627h-2.508zm1.452-.836c.011-.858-.275-1.364-.693-1.364-.506 0-.737.737-.759 1.364h1.452zm3.344-3.488v1.331h1.034v.847h-1.034v2.783c0 .66.253.825.55.825.132 0 .242-.011.363-.033l.022.913c-.176.056-.44.089-.77.089-.374 0-.715-.1-.946-.33-.264-.265-.396-.649-.396-1.452v-2.795h-.638v-.847h.638v-.925l1.177-.406zm2.607 1.331l.385 2.453c.088.572.176 1.133.231 1.661h.033c.088-.528.209-1.133.319-1.64l.539-2.475h.902l.506 2.409c.132.604.231 1.144.319 1.705h.022c.055-.528.143-1.089.242-1.684l.407-2.431h1.167l-1.364 5.357h-.99l-.495-2.189a15.498 15.498 0 0 1-.286-1.65h-.022a14.419 14.419 0 0 1-.319 1.661l-.528 2.179h-1.012l-1.309-5.357h1.253zm7.282 5.446c-1.133 0-1.914-.946-1.914-2.75 0-1.947.957-2.783 1.958-2.783 1.122 0 1.892.979 1.892 2.75 0 2.167-1.122 2.783-1.925 2.783h-.011zm.044-.903c.583 0 .715-1.056.715-1.87 0-.781-.132-1.859-.737-1.859-.638 0-.759 1.078-.759 1.859 0 .902.154 1.87.77 1.87h.011zm2.761-3.036c0-.495-.021-1.056-.044-1.507h1.022l.066.803h.033c.209-.539.648-.891 1.09-.891.109 0 .176.011.252.021v1.166c-.076-.011-.154-.011-.252-.011-.408 0-.814.341-.947.924a3.11 3.11 0 0 0-.043.506v2.839h-1.178v-3.85zm4.169.903h.022c.099-.265.187-.474.275-.683l.857-1.727h1.266l-1.343 2.244 1.441 3.113h-1.31l-.935-2.344-.275.474v1.87H172.8v-7.613h1.166v4.666zm6.864-4.665c-.627.99-1.156 2.442-1.156 4.478 0 1.98.529 3.443 1.156 4.456h-.869c-.595-.825-1.232-2.321-1.232-4.456.033-2.156.638-3.642 1.232-4.478h.869zm2.057.198v7.415h-1.178v-7.415h1.178zm1.308.11a6.149 6.149 0 0 1 1.375-.144c.781 0 1.42.144 1.859.562.396.374.594.946.594 1.584 0 .748-.209 1.254-.549 1.65-.441.517-1.156.77-1.783.77-.121 0-.22 0-.33-.011v2.894h-1.166v-7.305zm1.166 3.444c.088.021.166.021.286.021.771 0 1.199-.527 1.199-1.375 0-.693-.286-1.276-1.078-1.276a1.31 1.31 0 0 0-.407.056v2.574zm3.036 5.181c.627-1.001 1.155-2.486 1.155-4.489 0-1.979-.528-3.443-1.155-4.444h.869c.595.814 1.232 2.277 1.232 4.456-.033 2.167-.638 3.63-1.232 4.478h-.869z"/></svg>